<?xml version="1.0" encoding="utf-8"?>
<!-- Generator: Adobe Illustrator 19.0.0, SVG Export Plug-In . SVG Version: 6.00 Build 0)  -->
<svg version="1.1" id="Capa_1" xmlns="http://www.w3.org/2000/svg" xmlns:xlink="http://www.w3.org/1999/xlink" x="0px" y="0px"
	 viewBox="-210 325.9 173.5 190" style="enable-background:new -210 325.9 173.5 190;" xml:space="preserve">
<g id="XMLID_100_">
	<path d="M-45.1,494.1h-156.3c-2,0-3.8-1-4.8-2.7s-1-3.8,0-5.5l78.1-135.4c1-1.7,2.8-2.8,4.8-2.8l0,0c2,0,3.8,1,4.8,2.7l78.2,135.4
		c1,1.7,1,3.8,0,5.5C-41.3,493-43.1,494.1-45.1,494.1z M-191.9,483.1h137.3l-68.7-118.9L-191.9,483.1z"/>
</g>
<g>
	<path d="M-144.8,434.2c0,0.8-0.2,1.6-0.5,2.3c-0.3,0.7-0.7,1.5-1.2,2.2s-1.1,1.4-1.7,2.1c-0.6,0.7-1.3,1.3-1.9,1.9
		c-0.3,0.3-0.7,0.7-1.1,1.1c-0.4,0.4-0.8,0.8-1.2,1.3s-0.7,0.9-1,1.3c-0.3,0.5-0.4,0.9-0.4,1.3h10.1v3.9H-159
		c-0.1-0.3-0.1-0.6-0.1-1c0-0.4,0-0.6,0-0.8c0-1.3,0.2-2.4,0.7-3.5c0.5-1.1,1.1-2,1.8-2.9c0.7-0.9,1.5-1.7,2.3-2.5
		c0.8-0.8,1.6-1.5,2.3-2.2s1.3-1.4,1.8-2.1c0.5-0.7,0.7-1.3,0.7-2c0-1-0.3-1.7-0.9-2.2c-0.6-0.5-1.3-0.8-2.2-0.8
		c-0.7,0-1.5,0.2-2.3,0.5c-0.8,0.4-1.6,1-2.4,1.8l-2.3-3.3c1-1.1,2.2-1.8,3.5-2.4s2.7-0.8,4-0.8c1,0,1.9,0.1,2.8,0.4
		c0.9,0.3,1.7,0.7,2.4,1.3c0.7,0.6,1.2,1.3,1.6,2.1C-145,432.1-144.8,433.1-144.8,434.2z"/>
	<path d="M-124.6,439.7c0,4.2-0.7,7.2-2.1,9.3c-1.4,2-3.4,3-6.1,3s-4.7-1-6.1-3c-1.4-2-2.1-5.1-2.1-9.3c0-4.1,0.7-7.2,2.1-9.2
		c1.4-2,3.4-3,6-3c2.7,0,4.7,1,6.1,3C-125.3,432.5-124.6,435.6-124.6,439.7z M-128.8,439.7c0-2.7-0.3-4.7-1-6.1
		c-0.7-1.4-1.7-2.1-2.9-2.1c-1.3,0-2.2,0.7-2.9,2.1c-0.7,1.4-1,3.5-1,6.1c0,2.7,0.3,4.8,1,6.2c0.7,1.4,1.7,2.1,2.9,2.1
		c1.3,0,2.3-0.7,2.9-2.1C-129.1,444.5-128.8,442.4-128.8,439.7z M-130.6,439.3c0,0.7-0.2,1.3-0.6,1.8c-0.4,0.5-0.9,0.7-1.5,0.7
		c-0.7,0-1.2-0.2-1.6-0.7s-0.6-1.1-0.6-1.8c0-0.7,0.2-1.3,0.6-1.8c0.4-0.5,0.9-0.8,1.6-0.8c0.6,0,1.1,0.3,1.5,0.8
		C-130.8,438.1-130.6,438.6-130.6,439.3z"/>
	<path d="M-105.6,439.7c0,4.2-0.7,7.2-2.1,9.3c-1.4,2-3.4,3-6.1,3s-4.7-1-6.1-3c-1.4-2-2.1-5.1-2.1-9.3c0-4.1,0.7-7.2,2.1-9.2
		s3.4-3,6-3c2.7,0,4.7,1,6.1,3C-106.3,432.5-105.6,435.6-105.6,439.7z M-109.8,439.7c0-2.7-0.3-4.7-1-6.1c-0.7-1.4-1.7-2.1-2.9-2.1
		c-1.3,0-2.2,0.7-2.9,2.1s-1,3.5-1,6.1c0,2.7,0.3,4.8,1,6.2c0.7,1.4,1.7,2.1,2.9,2.1c1.3,0,2.3-0.7,2.9-2.1
		C-110.1,444.5-109.8,442.4-109.8,439.7z M-111.6,439.3c0,0.7-0.2,1.3-0.6,1.8s-0.9,0.7-1.5,0.7c-0.7,0-1.2-0.2-1.6-0.7
		c-0.4-0.5-0.6-1.1-0.6-1.8c0-0.7,0.2-1.3,0.6-1.8c0.4-0.5,0.9-0.8,1.6-0.8c0.6,0,1.1,0.3,1.5,0.8
		C-111.8,438.1-111.6,438.6-111.6,439.3z"/>
	<path d="M-86.6,439.7c0,4.2-0.7,7.2-2.1,9.3c-1.4,2-3.4,3-6.1,3s-4.7-1-6.1-3c-1.4-2-2.1-5.1-2.1-9.3c0-4.1,0.7-7.2,2.1-9.2
		s3.4-3,6-3c2.7,0,4.7,1,6.1,3C-87.3,432.5-86.6,435.6-86.6,439.7z M-90.8,439.7c0-2.7-0.3-4.7-1-6.1c-0.7-1.4-1.7-2.1-2.9-2.1
		c-1.3,0-2.2,0.7-2.9,2.1c-0.7,1.4-1,3.5-1,6.1c0,2.7,0.3,4.8,1,6.2c0.7,1.4,1.7,2.1,2.9,2.1c1.3,0,2.3-0.7,2.9-2.1
		C-91.1,444.5-90.8,442.4-90.8,439.7z M-92.6,439.3c0,0.7-0.2,1.3-0.6,1.8c-0.4,0.5-0.9,0.7-1.5,0.7c-0.7,0-1.2-0.2-1.6-0.7
		c-0.4-0.5-0.6-1.1-0.6-1.8c0-0.7,0.2-1.3,0.6-1.8c0.4-0.5,0.9-0.8,1.6-0.8c0.6,0,1.1,0.3,1.5,0.8
		C-92.8,438.1-92.6,438.6-92.6,439.3z"/>
</g>
</svg>
