<?xml version="1.0" encoding="utf-8"?>
<!-- Generator: Adobe Illustrator 19.0.0, SVG Export Plug-In . SVG Version: 6.00 Build 0)  -->
<svg version="1.1" id="Capa_1" xmlns="http://www.w3.org/2000/svg" xmlns:xlink="http://www.w3.org/1999/xlink" x="0px" y="0px"
	 viewBox="-210 325.9 173.5 190" style="enable-background:new -210 325.9 173.5 190;" xml:space="preserve">
<g id="XMLID_100_">
	<path d="M-45.1,494.1h-156.3c-2,0-3.8-1-4.8-2.7s-1-3.8,0-5.5l78.1-135.4c1-1.7,2.8-2.8,4.8-2.8l0,0c2,0,3.8,1,4.8,2.7l78.2,135.4
		c1,1.7,1,3.8,0,5.5C-41.3,493-43.1,494.1-45.1,494.1z M-191.9,483.1h137.3l-68.7-118.9L-191.9,483.1z"/>
</g>
<g>
	<path d="M-153.2,452c-0.6,0-1.2,0-1.8-0.1c-0.6-0.1-1.3-0.2-1.9-0.3c-0.6-0.1-1.1-0.3-1.7-0.4s-0.9-0.3-1.2-0.4l0.9-3.9
		c0.6,0.3,1.3,0.5,2.3,0.8c0.9,0.3,2,0.4,3.3,0.4c1.6,0,2.7-0.3,3.4-1c0.6-0.7,1-1.5,1-2.5c0-1.2-0.5-2.1-1.5-2.6
		c-1-0.5-2.2-0.7-3.8-0.7h-1.4v-3.9h1.7c0.5,0,1-0.1,1.4-0.2c0.5-0.1,0.9-0.3,1.3-0.5c0.4-0.2,0.7-0.5,0.9-0.9
		c0.2-0.4,0.4-0.9,0.4-1.4c0-0.9-0.3-1.5-0.8-2c-0.5-0.5-1.2-0.7-2.1-0.7c-0.9,0-1.8,0.1-2.6,0.4s-1.6,0.7-2.3,1.1l-1.7-3.4
		c0.7-0.5,1.6-0.9,2.7-1.4c1.1-0.5,2.4-0.7,3.8-0.7c1.3,0,2.5,0.2,3.4,0.5c1,0.3,1.8,0.8,2.4,1.4c0.6,0.6,1.1,1.3,1.4,2.1
		c0.3,0.8,0.5,1.7,0.5,2.6c0,0.9-0.3,1.8-0.8,2.7c-0.5,0.9-1.2,1.5-2.1,2c1.2,0.5,2.2,1.3,2.8,2.2c0.7,1,1,2.2,1,3.5
		c0,1.1-0.2,2.1-0.5,3c-0.4,0.9-0.9,1.7-1.6,2.4c-0.7,0.7-1.7,1.2-2.8,1.6C-150.2,451.8-151.6,452-153.2,452z"/>
	<path d="M-124.6,439.7c0,4.2-0.7,7.2-2.1,9.3c-1.4,2-3.4,3-6.1,3s-4.7-1-6.1-3c-1.4-2-2.1-5.1-2.1-9.3c0-4.1,0.7-7.2,2.1-9.2
		c1.4-2,3.4-3,6-3c2.7,0,4.7,1,6.1,3C-125.3,432.5-124.6,435.6-124.6,439.7z M-128.8,439.7c0-2.7-0.3-4.7-1-6.1
		c-0.7-1.4-1.7-2.1-2.9-2.1c-1.3,0-2.2,0.7-2.9,2.1c-0.7,1.4-1,3.5-1,6.1c0,2.7,0.3,4.8,1,6.2c0.7,1.4,1.7,2.1,2.9,2.1
		c1.3,0,2.3-0.7,2.9-2.1C-129.1,444.5-128.8,442.4-128.8,439.7z M-130.6,439.3c0,0.7-0.2,1.3-0.6,1.8c-0.4,0.5-0.9,0.7-1.5,0.7
		c-0.7,0-1.2-0.2-1.6-0.7s-0.6-1.1-0.6-1.8c0-0.7,0.2-1.3,0.6-1.8c0.4-0.5,0.9-0.8,1.6-0.8c0.6,0,1.1,0.3,1.5,0.8
		C-130.8,438.1-130.6,438.6-130.6,439.3z"/>
	<path d="M-105.6,439.7c0,4.2-0.7,7.2-2.1,9.3c-1.4,2-3.4,3-6.1,3s-4.7-1-6.1-3c-1.4-2-2.1-5.1-2.1-9.3c0-4.1,0.7-7.2,2.1-9.2
		s3.4-3,6-3c2.7,0,4.7,1,6.1,3C-106.3,432.5-105.6,435.6-105.6,439.7z M-109.8,439.7c0-2.7-0.3-4.7-1-6.1c-0.7-1.4-1.7-2.1-2.9-2.1
		c-1.3,0-2.2,0.7-2.9,2.1s-1,3.5-1,6.1c0,2.7,0.3,4.8,1,6.2c0.7,1.4,1.7,2.1,2.9,2.1c1.3,0,2.3-0.7,2.9-2.1
		C-110.1,444.5-109.8,442.4-109.8,439.7z M-111.6,439.3c0,0.7-0.2,1.3-0.6,1.8s-0.9,0.7-1.5,0.7c-0.7,0-1.2-0.2-1.6-0.7
		c-0.4-0.5-0.6-1.1-0.6-1.8c0-0.7,0.2-1.3,0.6-1.8c0.4-0.5,0.9-0.8,1.6-0.8c0.6,0,1.1,0.3,1.5,0.8
		C-111.8,438.1-111.6,438.6-111.6,439.3z"/>
	<path d="M-86.6,439.7c0,4.2-0.7,7.2-2.1,9.3c-1.4,2-3.4,3-6.1,3s-4.7-1-6.1-3c-1.4-2-2.1-5.1-2.1-9.3c0-4.1,0.7-7.2,2.1-9.2
		s3.4-3,6-3c2.7,0,4.7,1,6.1,3C-87.3,432.5-86.6,435.6-86.6,439.7z M-90.8,439.7c0-2.7-0.3-4.7-1-6.1c-0.7-1.4-1.7-2.1-2.9-2.1
		c-1.3,0-2.2,0.7-2.9,2.1c-0.7,1.4-1,3.5-1,6.1c0,2.7,0.3,4.8,1,6.2c0.7,1.4,1.7,2.1,2.9,2.1c1.3,0,2.3-0.7,2.9-2.1
		C-91.1,444.5-90.8,442.4-90.8,439.7z M-92.6,439.3c0,0.7-0.2,1.3-0.6,1.8c-0.4,0.5-0.9,0.7-1.5,0.7c-0.7,0-1.2-0.2-1.6-0.7
		c-0.4-0.5-0.6-1.1-0.6-1.8c0-0.7,0.2-1.3,0.6-1.8c0.4-0.5,0.9-0.8,1.6-0.8c0.6,0,1.1,0.3,1.5,0.8
		C-92.8,438.1-92.6,438.6-92.6,439.3z"/>
</g>
</svg>
