<?xml version="1.0" encoding="utf-8"?>
<!-- Generator: Adobe Illustrator 19.0.0, SVG Export Plug-In . SVG Version: 6.00 Build 0)  -->
<svg version="1.1" id="Capa_1" xmlns="http://www.w3.org/2000/svg" xmlns:xlink="http://www.w3.org/1999/xlink" x="0px" y="0px"
	 viewBox="-210 325.9 173.5 190" style="enable-background:new -210 325.9 173.5 190;" xml:space="preserve">
<g id="XMLID_100_">
	<path d="M-45.1,494.1h-156.3c-2,0-3.8-1-4.8-2.7s-1-3.8,0-5.5l78.1-135.4c1-1.7,2.8-2.8,4.8-2.8l0,0c2,0,3.8,1,4.8,2.7l78.2,135.4
		c1,1.7,1,3.8,0,5.5C-41.3,493-43.1,494.1-45.1,494.1z M-191.9,483.1h137.3l-68.7-118.9L-191.9,483.1z"/>
</g>
<g>
	<path d="M-91,434.6c-0.7-1.2-1.2-2.3-1.7-3.4c-0.4-1.2-0.9-2.4-1.3-3.8c-1-3.1-2-6.3-4.3-8.6c-2.3-2.3-5.5-3.3-8.6-4.3
		c-1.2-0.4-2.5-0.8-3.8-1.3c-1.1-0.4-2.2-1-3.4-1.7c-2.8-1.4-5.8-3-9.2-3c-3.4,0-6.4,1.6-9.3,3.1c-1.2,0.7-2.3,1.2-3.4,1.7
		c-1.2,0.4-2.4,0.9-3.8,1.3c-3.1,1-6.3,2-8.6,4.3l1.6,1.6c2-2,4.8-2.9,7.8-3.8c1.3-0.4,2.7-0.9,3.9-1.3c1.2-0.6,2.4-1.1,3.7-1.8
		c2.7-1.4,5.4-2.9,8.3-2.9s5.6,1.4,8.3,2.8c1.2,0.7,2.4,1.2,3.7,1.8c1.2,0.6,2.7,1,3.9,1.3c3,1,5.8,1.9,7.8,3.8
		c2,1.9,2.9,4.8,3.8,7.8c0.4,1.3,0.9,2.7,1.3,3.9c0.6,1.2,1.1,2.4,1.8,3.7c1.3,2.7,2.8,5.4,2.8,8.3s-1.4,5.6-2.8,8.3
		c-0.7,1.2-1.2,2.4-1.8,3.7s-1,2.5-1.3,3.9c-1,3-1.9,5.8-3.8,7.8c-2,2-4.8,2.9-7.8,3.8c-1.3,0.4-2.7,0.9-3.9,1.3
		c-1.2,0.6-2.4,1.1-3.7,1.8c-2.7,1.3-5.4,2.8-8.3,2.8c-2.9,0-5.6-1.4-8.3-2.8c-1.2-0.7-2.4-1.2-3.7-1.8c-1.2-0.6-2.7-1-3.9-1.3
		c-3-1-5.8-1.9-7.8-3.8c-2-1.9-2.9-4.8-3.8-7.8c-0.4-1.3-0.9-2.7-1.3-3.9c-0.6-1.2-1.1-2.4-1.8-3.7c-1.3-2.7-2.8-5.4-2.8-8.3
		c0-2.9,1.4-5.6,2.8-8.3c0.7-1.2,1.2-2.4,1.8-3.7l-2-0.9c-0.4,1.1-1,2.2-1.7,3.4c-1.6,3-3.1,6-3.1,9.4c0,3.4,1.6,6.4,3.1,9.3
		c0.7,1.2,1.2,2.3,1.7,3.4c0.4,1.2,0.9,2.4,1.3,3.8c1,3.1,2,6.3,4.3,8.6c2.3,2.3,5.5,3.3,8.6,4.3c1.2,0.4,2.5,0.8,3.8,1.3
		c1.1,0.4,2.2,1,3.4,1.7c2.9,1.6,5.9,3.1,9.3,3.1c3.4,0,6.4-1.6,9.3-3.1c1.2-0.7,2.3-1.2,3.4-1.7c1.2-0.4,2.4-0.9,3.8-1.3
		c3.1-1,6.3-2,8.6-4.3c2.3-2.3,3.3-5.5,4.3-8.6c0.4-1.2,0.8-2.5,1.3-3.8c0.4-1.1,1-2.2,1.7-3.4c1.6-2.9,3.1-5.9,3.1-9.3
		S-89.5,437.5-91,434.6z"/>
	<path d="M-151.6,451.7c0.7,1.1,1.2,2.1,1.7,3.2c0.4,1.1,0.8,2.3,1.1,3.5c0.8,2.7,1.6,5.4,3.5,7.4c2,2,4.8,2.8,7.4,3.5
		c1.2,0.3,2.4,0.7,3.5,1.1c1,0.4,2.1,1,3.2,1.7c2.4,1.3,4.9,2.8,7.9,2.8s5.4-1.4,7.9-2.8c1.1-0.7,2.1-1.2,3.2-1.7
		c1.1-0.4,2.3-0.8,3.5-1.1c2.7-0.8,5.4-1.6,7.4-3.5l-1.6-1.6c-1.6,1.6-4,2.2-6.4,3c-1.2,0.3-2.5,0.8-3.8,1.2
		c-1.1,0.4-2.3,1.1-3.4,1.8c-2.2,1.3-4.4,2.4-6.8,2.4s-4.5-1.2-6.8-2.4c-1.1-0.7-2.2-1.2-3.4-1.8s-2.5-0.9-3.8-1.2
		c-2.4-0.7-4.9-1.4-6.4-3c-1.6-1.6-2.2-3.9-3-6.4c-0.3-1.2-0.8-2.5-1.2-3.8c-0.4-1.1-1.1-2.3-1.8-3.4c-1.3-2.2-2.4-4.4-2.4-6.8
		c0-2.3,1.2-4.5,2.4-6.8c0.7-1.1,1.2-2.2,1.8-3.4c0.6-1.2,0.9-2.5,1.2-3.8c0.7-2.4,1.4-4.9,3-6.4c1.6-1.6,3.9-2.2,6.4-3
		c1.2-0.3,2.5-0.8,3.8-1.2c1.1-0.4,2.3-1.1,3.4-1.8c2.2-1.3,4.4-2.4,6.8-2.4c2.3,0,4.5,1.2,6.8,2.4c1.1,0.7,2.2,1.2,3.4,1.8
		c1.2,0.6,2.5,0.9,3.8,1.2c2.4,0.7,4.9,1.4,6.4,3c1.6,1.6,2.2,3.9,3,6.4c0.3,1.2,0.8,2.5,1.2,3.8c0.4,1.1,1.1,2.3,1.8,3.4
		c1.3,2.2,2.4,4.4,2.4,6.8c0,2.3-1.2,4.5-2.4,6.8c-0.7,1.1-1.2,2.2-1.8,3.4l1.8,0.8c0.4-1,1-2.1,1.7-3.2c1.3-2.4,2.8-4.9,2.8-7.9
		c0-3-1.4-5.4-2.8-7.9c-0.7-1.1-1.2-2.1-1.7-3.2c-0.4-1.1-0.8-2.3-1.1-3.5c-0.8-2.7-1.6-5.4-3.5-7.4c-2-1.9-4.8-2.7-7.4-3.4
		c-1.2-0.3-2.4-0.7-3.4-1.1c-1-0.4-2.1-1-3.2-1.7c-2.4-1.3-5-2.8-7.9-2.8c-2.9,0-5.4,1.4-7.9,2.8c-1.1,0.7-2.1,1.2-3.2,1.7
		c-1.1,0.4-2.3,0.8-3.5,1.1c-2.7,0.8-5.4,1.6-7.4,3.5c-1.9,2-2.7,4.8-3.4,7.4c-0.3,1.2-0.7,2.4-1.1,3.4s-1,2.1-1.7,3.2
		c-1.3,2.4-2.8,5-2.8,7.9S-152.9,449.3-151.6,451.7z"/>
	<path d="M-132.7,466.4c0.9,0.3,1.9,1,2.9,1.6c2,1.2,4,2.5,6.5,2.5s4.5-1.2,6.5-2.5c1-0.6,1.9-1.2,2.9-1.6c1-0.4,2.1-0.7,3.2-1
		c2.2-0.6,4.5-1.1,6.2-2.8c1.7-1.7,2.2-4,2.8-6.2c0.3-1.1,0.6-2.2,1-3.2c0.3-0.9,1-1.9,1.6-2.9c1.2-2,2.5-4,2.5-6.5
		c0-2.5-1.2-4.5-2.5-6.5c-0.6-1-1.2-1.9-1.6-2.9c-0.4-1-0.7-2.1-1-3.2c-0.6-2.2-1.1-4.5-2.8-6.2s-4-2.2-6.2-2.8
		c-1.1-0.3-2.2-0.6-3.2-1c-0.9-0.3-1.9-1-2.9-1.6c-2.1-1.1-4.2-2.3-6.6-2.3c-2.4,0-4.5,1.2-6.5,2.5c-1,0.6-1.9,1.2-2.9,1.6
		c-1,0.4-2.1,0.7-3.2,1c-2.2,0.6-4.5,1.1-6.2,2.8c-1.7,1.7-2.2,4-2.8,6.2c-0.3,1.1-0.6,2.2-1,3.2c-0.3,0.9-1,1.9-1.6,2.9
		c-1.2,1.9-2.4,4-2.4,6.4c0,2.4,1.2,4.5,2.5,6.5c0.6,1,1.2,1.9,1.6,2.9l2-0.9c-0.4-1.1-1.1-2.1-1.8-3.1c-1.1-1.8-2.2-3.5-2.2-5.3
		c0-1.8,1.1-3.5,2.2-5.3c0.7-1,1.3-2.1,1.8-3.1c0.4-1.1,0.8-2.3,1.1-3.5c0.4-2,1-4,2.2-5.2c1.2-1.2,3.1-1.7,5.2-2.2
		c1.2-0.3,2.4-0.6,3.5-1.1c1.1-0.4,2.1-1.1,3.1-1.8c1.8-1.1,3.5-2.2,5.3-2.2s3.5,1.1,5.3,2.2c1,0.7,2.1,1.3,3.1,1.8
		c1.1,0.4,2.3,0.8,3.5,1.1c2,0.4,4,1,5.2,2.2c1.2,1.2,1.7,3.1,2.2,5.2c0.3,1.2,0.6,2.4,1.1,3.5c0.4,1.1,1.1,2.1,1.8,3.1
		c1.1,1.8,2.2,3.5,2.2,5.3c0,1.8-1.1,3.5-2.2,5.3c-0.7,1-1.3,2.1-1.8,3.1c-0.4,1.1-0.8,2.3-1.1,3.5c-0.4,2-1,4-2.2,5.2
		c-1.2,1.2-3.1,1.7-5.2,2.2c-1.2,0.3-2.4,0.6-3.5,1.1c-1.1,0.4-2.1,1.1-3.1,1.8c-1.8,1.1-3.5,2.2-5.3,2.2s-3.5-1.1-5.3-2.2
		c-1-0.7-2.1-1.3-3.1-1.8c-1.1-0.4-2.3-0.8-3.5-1.1c-2-0.4-4-1-5.2-2.2l-1.7,1.6c1.7,1.7,4,2.2,6.2,2.8
		C-134.8,465.7-133.7,466-132.7,466.4z"/>
	<path d="M-123.4,421.7c-2,0-3.8,1.2-5.2,2.2c-0.9,0.6-1.7,1.1-2.4,1.4c-0.8,0.3-1.8,0.6-2.9,0.7c-1.9,0.3-3.8,0.7-5.2,2.1
		c-1.3,1.3-1.8,3.3-2.1,5.2c-0.2,1-0.3,2-0.7,2.9c-0.3,0.8-0.9,1.6-1.4,2.4c-1.1,1.6-2.2,3.2-2.2,5.2c0,2,1.2,3.8,2.2,5.2
		c0.6,0.9,1.1,1.7,1.4,2.4s0.6,1.8,0.7,2.9c0.3,1.9,0.7,3.8,2.1,5.2c1.3,1.3,3.3,1.8,5.2,2.1c1,0.2,2,0.3,2.9,0.7
		c0.8,0.3,1.6,0.9,2.4,1.4c1.6,1.1,3.2,2.2,5.2,2.2c2,0,3.8-1.2,5.2-2.2c0.9-0.6,1.7-1.1,2.4-1.4c0.8-0.3,1.8-0.6,2.9-0.7
		c1.9-0.3,3.8-0.7,5.2-2.1c1.3-1.3,1.8-3.3,2.1-5.2c0.2-1,0.3-2,0.7-2.9c0.3-0.8,0.9-1.6,1.4-2.4c1.1-1.6,2.2-3.2,2.2-5.2
		c0-2-1.2-3.8-2.2-5.2c-0.6-0.9-1.1-1.7-1.4-2.4s-0.6-1.8-0.7-2.9c-0.3-1.9-0.7-3.8-2.1-5.2l-1.6,1.6c0.9,0.9,1.1,2.4,1.4,4
		c0.2,1.1,0.4,2.2,0.9,3.3c0.4,1,1.1,1.9,1.7,2.8c1,1.3,1.9,2.7,1.9,4c0,1.3-0.9,2.7-1.9,4c-0.7,0.9-1.3,1.8-1.7,2.8
		c-0.4,1-0.7,2.2-0.9,3.3c-0.3,1.7-0.6,3.1-1.4,4s-2.4,1.1-4,1.4c-1.1,0.2-2.2,0.4-3.3,0.9c-1,0.4-1.9,1.1-2.8,1.7
		c-1.4,1.1-2.8,2-4.1,2c-1.3,0-2.7-0.9-4-1.9c-0.9-0.7-1.8-1.3-2.8-1.7c-1-0.4-2.2-0.7-3.3-0.9c-1.7-0.3-3.1-0.6-4-1.4
		c-0.9-0.9-1.1-2.4-1.4-4c-0.2-1.1-0.4-2.2-0.9-3.3c-0.4-1-1.1-1.9-1.7-2.8c-1-1.3-1.9-2.7-1.9-4c0-1.3,0.9-2.7,1.9-4
		c0.7-0.9,1.3-1.8,1.7-2.8c0.4-1,0.7-2.2,0.9-3.3c0.3-1.7,0.6-3.1,1.4-4c0.9-0.9,2.4-1.1,4-1.4c1.1-0.2,2.2-0.4,3.3-0.9
		c1-0.4,1.9-1.1,2.8-1.7c1.3-1,2.7-1.9,4-1.9c1.3,0,2.7,0.9,4,1.9c0.9,0.7,1.8,1.3,2.8,1.7l0.9-2c-0.8-0.3-1.6-0.9-2.4-1.4
		C-119.6,423-121.4,421.7-123.4,421.7z"/>
	<path d="M-129.3,439.5h-5.1v8.9h5.1l6.6,6.6h3.8v-22.1h-3.8L-129.3,439.5z M-132.2,441.7h2.2v4.4h-2.2V441.7z M-121.1,435v17.7
		h-0.7l-6-6V441l6-6C-121.8,435-121.1,435-121.1,435z"/>
	<rect x="-116.7" y="438.3" width="2.2" height="2.2"/>
	<rect x="-116.7" y="442.8" width="2.2" height="2.2"/>
	<rect x="-116.7" y="447.2" width="2.2" height="2.2"/>
</g>
</svg>
