<?xml version="1.0" encoding="utf-8"?>
<!-- Generator: Adobe Illustrator 19.0.0, SVG Export Plug-In . SVG Version: 6.00 Build 0)  -->
<svg version="1.1" id="Capa_1" xmlns="http://www.w3.org/2000/svg" xmlns:xlink="http://www.w3.org/1999/xlink" x="0px" y="0px"
	 viewBox="-210 325.9 173.5 190" style="enable-background:new -210 325.9 173.5 190;" xml:space="preserve">
<style type="text/css">
	.st0{fill:#020100;}
</style>
<g id="XMLID_1_">
	<g id="XMLID_2_">
		<path class="st0" d="M-45.1,494h-156.3c-2,0-3.8-1-4.8-2.8c-1-1.7-1-3.8,0-5.5l78.1-135.3c1-1.7,2.8-2.7,4.8-2.8c0,0,0,0,0,0
			c2,0,3.8,1,4.8,2.7l78.2,135.3c1,1.7,1,3.8,0,5.5S-43.1,494-45.1,494z M-191.9,483h137.2l-68.7-118.8L-191.9,483z"/>
		<path id="XMLID_117_" class="st0" d="M-124.1,428.8c5,0,9.1-4.1,9.1-9.1s-4.1-9.1-9.1-9.1c-5,0-9.1,4.1-9.1,9.1
			C-133.2,424.8-129.1,428.8-124.1,428.8L-124.1,428.8z M-124.1,412.7c3.9,0,7.1,3.2,7.1,7.1s-3.2,7.1-7.1,7.1s-7.1-3.2-7.1-7.1
			C-131.1,415.9-128,412.7-124.1,412.7L-124.1,412.7z"/>
		<path id="XMLID_113_" class="st0" d="M-135.3,462.7c0.2-0.3,0.2-0.7,0-1l-9.1-16.2c-0.4-0.6-1.4-0.6-1.8,0l-9.1,16.2
			c-0.2,0.3-0.2,0.7,0,1s0.5,0.5,0.9,0.5h18.2C-135.8,463.2-135.5,463-135.3,462.7L-135.3,462.7z M-152.6,461.2l7.4-13.1l7.4,13.1
			H-152.6z"/>
		<path id="XMLID_109_" class="st0" d="M-91.7,446c0-0.6-0.4-1-1-1h-16.2c-0.6,0-1,0.5-1,1v16.2c0,0.6,0.5,1,1,1h16.2
			c0.6,0,1-0.5,1-1V446z M-93.7,461.2h-14.1V447h14.1V461.2z"/>
		<path id="XMLID_75_" class="st0" d="M-124.1,468.3c-4.7,0-9.2-1.3-13.2-3.9l-1.1,1.7c4.2,2.8,9.2,4.2,14.3,4.2
			c5.3,0,10.4-1.6,14.7-4.5l-1.1-1.7C-114.5,466.8-119.2,468.3-124.1,468.3L-124.1,468.3z"/>
		<path id="XMLID_72_" class="st0" d="M-99.8,443l2-0.1c-0.4-9.7-6-18.3-14.7-22.5l-0.9,1.8C-105.4,426.2-100.2,434.1-99.8,443
			L-99.8,443z"/>
		<path id="XMLID_65_" class="st0" d="M-148.2,445.9c0-0.6-0.1-1.3-0.1-1.9c0-9.3,5.2-17.7,13.6-21.8l-0.9-1.8
			c-9.1,4.5-14.7,13.5-14.7,23.6c0,0.7,0,1.4,0.1,2.1L-148.2,445.9z"/>
		<path id="XMLID_62_" class="st0" d="M-138.9,418l1.4,1.4l3-3c0.4-0.4,0.4-1,0-1.4l-3-3l-1.4,1.4l1.3,1.3h-6.7v2h6.7L-138.9,418z"
			/>
		<path id="XMLID_59_" class="st0" d="M-95.8,433.9c0.3,0,0.5-0.1,0.7-0.3l3-3l-1.4-1.4l-1.3,1.3v-6.7h-2v6.7l-1.3-1.3l-1.4,1.4l3,3
			C-96.3,433.8-96,433.9-95.8,433.9L-95.8,433.9z"/>
		<path id="XMLID_48_" class="st0" d="M-146,465.5l-3,3l1.4,1.4l1.3-1.3v6.7h2v-6.7l1.3,1.4l1.4-1.4l-3-3
			C-145,465.1-145.6,465.1-146,465.5L-146,465.5z"/>
		<path id="XMLID_6_" class="st0" d="M-115,443c0-3.2-1.7-6.3-4.5-7.9l-1,1.8c2.2,1.3,3.5,3.6,3.5,6.1c0,3.3-2.3,6.1-5.3,6.8
			l1.2-2.3l-1.8-0.9l-2,4c-0.2,0.4-0.1,0.9,0.2,1.2l3,3l1.4-1.4l-1.6-1.6C-117.9,450.8-115,447.3-115,443L-115,443z"/>
		<path id="XMLID_3_" class="st0" d="M-128.6,450.9l1-1.7c-2.2-1.3-3.5-3.6-3.5-6.1c0-3.3,2.3-6.1,5.3-6.8l-1.2,2.2l1.8,0.9l2-4
			c0.2-0.4,0.1-0.9-0.2-1.2l-3-3l-1.4,1.4l1.6,1.6c-4,1-6.9,4.6-6.9,8.8C-133.2,446.2-131.4,449.3-128.6,450.9L-128.6,450.9z"/>
	</g>
</g>
</svg>
