<?xml version="1.0" encoding="utf-8"?>
<!-- Generator: Adobe Illustrator 19.0.0, SVG Export Plug-In . SVG Version: 6.00 Build 0)  -->
<svg version="1.1" id="Capa_1" xmlns="http://www.w3.org/2000/svg" xmlns:xlink="http://www.w3.org/1999/xlink" x="0px" y="0px"
	 viewBox="-210 325.9 173.5 190" style="enable-background:new -210 325.9 173.5 190;" xml:space="preserve">
<g id="XMLID_100_">
	<path d="M-45.1,494.1h-156.3c-2,0-3.8-1-4.8-2.7s-1-3.8,0-5.5l78.1-135.4c1-1.7,2.8-2.8,4.8-2.8l0,0c2,0,3.8,1,4.8,2.7l78.2,135.4
		c1,1.7,1,3.8,0,5.5C-41.3,493-43.1,494.1-45.1,494.1z M-191.9,483.1h137.3l-68.7-118.9L-191.9,483.1z"/>
</g>
<path d="M-122.9,460.5c4.6,3.1,13.3,7.3,25.1,6.9c0,0-6.4-6.3-16.3-8.9c15.9,0.1,27.8-8.9,27.8-8.9c-12.4-2.1-22.6,0.2-29.3,2.8
	c16.7-11.3,22.1-29.9,22.1-29.9c-12.3,6.2-20.1,14.5-25,21.5c1.3-10.3,0.9-24.1-5-39.5c0,0-8.7,17.6-5.9,38.9
	c-4.9-6.9-12.7-14.9-24.6-20.9c0,0,5.1,17.8,21,29.2c-6.6-2.3-16-4-27.3-2.1c0,0,11.6,8.7,27.1,8.9c-9.9,2.5-16.3,8.9-16.3,8.9
	c11.9,0.4,20.4-3.9,24.9-6.8c0,0-0.9,8.1,1.7,13.4l1.2-0.2C-121.5,473.7-124.1,466.1-122.9,460.5z"/>
</svg>
