<?xml version="1.0" encoding="utf-8"?>
<!-- Generator: Adobe Illustrator 19.0.0, SVG Export Plug-In . SVG Version: 6.00 Build 0)  -->
<svg version="1.1" id="Capa_1" xmlns="http://www.w3.org/2000/svg" xmlns:xlink="http://www.w3.org/1999/xlink" x="0px" y="0px"
	 viewBox="-210 325.9 173.5 190" style="enable-background:new -210 325.9 173.5 190;" xml:space="preserve">
<text transform="matrix(1 0 0 1 87.6401 746.8352)" style="font-family:'MyriadPro-Regular'; font-size:12px;">d-11424</text>
<path d="M-40.3,485.8L-95.6,390l-20.3-35.1l-2.6-4.6c-1-1.7-2.8-2.7-4.8-2.7s-3.8,1.1-4.8,2.8l-2.6,4.5l-25.1,43.5l-50.5,87.5
	c-1,1.7-1,3.8,0,5.5s2.8,2.7,4.8,2.7h156.3c2,0,3.8-1.1,4.8-2.8C-39.3,489.6-39.3,487.5-40.3,485.8z M-191.9,483.1l43.9-76.2
	l24.7-42.7l20,34.7l48.7,84.2H-191.9z"/>
<g>
	<path d="M-100.7,465.7c-0.1,0.1-0.3,0.2-0.5,0.4s-0.4,0.3-0.5,0.5s-0.3,0.4-0.5,0.6s-0.2,0.3-0.1,0.4s0.2,0,0.5-0.1
		s0.5-0.3,0.8-0.4s0.4-0.3,0.5-0.5s0.2-0.3,0.2-0.5s0-0.3,0-0.3S-100.6,465.6-100.7,465.7z"/>
	<path d="M-112.4,465.8c-0.2,0.1-0.4,0.3-0.6,0.4s-0.4,0.3-0.4,0.5s0,0.3,0.1,0.3s0.2,0.1,0.4,0s0.4-0.2,0.6-0.3s0.4-0.2,0.6-0.4
		s0.3-0.2,0.3-0.4s0-0.2,0-0.3s-0.2-0.2-0.4-0.1S-112.1,465.7-112.4,465.8z"/>
	<path d="M-109.5,441.9c0-7.6-6.2-13.8-13.8-13.8c-7.6,0-13.8,6.2-13.8,13.8c0,7.6,6.2,13.8,13.8,13.8
		C-115.6,455.7-109.5,449.5-109.5,441.9z M-132.3,441.9c0-5,4-9,9-9c5,0,9,4,9,9c0,5-4,9-9,9C-128.2,450.9-132.3,446.9-132.3,441.9z
		"/>
	<path d="M-89.5,467.7c-0.3-0.1-0.4-0.2-0.5-0.3s-0.1-0.3,0-0.5s-0.1-0.1-0.5,0.1s-0.7,0.5-0.9,0.6s-0.5,0.2-0.6,0.3
		c-0.2,0-0.3,0-0.4-0.1s-0.2-0.2-0.2-0.3s0.1-0.3,0.2-0.4s0.3-0.3,0.5-0.4s0.3-0.3,0.3-0.4s-0.1-0.2-0.3-0.1s-0.5,0.2-0.9,0.5
		c-0.3,0.2-0.4,0.3-0.6,0.4l0,0c-0.1,0.1-0.2,0.2-0.3,0.3s-0.3,0.2-0.4,0.2s-0.3,0.1-0.6,0.2s-0.6,0.1-0.9,0.1l-0.4,0
		c-0.3,0-0.5-0.1-0.7-0.2s-0.2-0.2-0.3-0.3s-0.1-0.3-0.1-0.4s0-0.3,0-0.4c0-0.1,0-0.1-0.1,0c-0.1,0.1-0.3,0.3-0.5,0.4
		c-0.1,0.1-0.2,0.1-0.3,0.2c0,0.1-0.1,0.1-0.2,0.2c-0.2,0.1-0.3,0.2-0.5,0.2s-0.3,0.1-0.4,0.1s-0.3,0.1-0.5,0.1s-0.4,0.1-0.6,0
		s-0.3-0.1-0.3-0.2s-0.1-0.3-0.1-0.5c-0.1,0.1-0.3,0.2-0.4,0.3s-0.3,0.2-0.5,0.3s-0.3,0.2-0.4,0.3s-0.3,0.2-0.4,0.2
		s-0.3,0.1-0.6,0.1c-0.2,0-0.4-0.1-0.5-0.3c-0.1-0.1-0.1-0.2-0.1-0.3c0-0.1,0.1-0.2,0.1-0.3c-0.3,0.1-0.6,0.2-1,0.3
		c-0.4,0.1-0.8,0.2-1.1,0.2c-0.3,0-0.5,0-0.7-0.1s-0.2-0.2-0.2-0.3s0.1-0.4,0.3-0.7c-0.4,0.2-0.7,0.4-1,0.5s-0.6,0.2-0.8,0.4
		s-0.6,0.2-0.9,0.2c-0.1,0-0.2,0-0.2,0c-0.2,0-0.4,0-0.5-0.1c-0.1,0-0.2-0.1-0.2-0.1c-0.1,0-0.2,0.1-0.2,0.1
		c-0.2,0.1-0.4,0.1-0.6,0.1s-0.2,0-0.3,0c-0.3,0-0.6,0-0.8-0.1c-0.2-0.1-0.3-0.2-0.4-0.4c-0.2,0.1-0.5,0.1-0.6,0.3s-0.4,0.2-0.6,0.2
		s-0.4,0.1-0.6,0.1c-0.1,0-0.3-0.1-0.5-0.2c-0.2-0.1-0.2-0.4-0.2-0.8c0-0.2,0.2-0.4,0.5-0.7c0.3-0.3,0.6-0.5,0.9-0.7
		s0.5-0.2,0.6-0.3s0.4-0.1,0.6-0.1c0.3,0,0.6,0.1,0.7,0.1s0.2,0.2,0.2,0.3s0.1,0.2,0,0.3s0,0.2,0.2,0.1s0.2,0,0.2,0.2
		s-0.1,0.3-0.2,0.4s-0.2,0.3-0.3,0.3s-0.1,0.1-0.1,0.2s0.1,0.1,0.2,0.2s0.3,0,0.5,0c0.2-0.1,0.4-0.1,0.5-0.2
		c0.1-0.1,0.2-0.1,0.3-0.1c0.1-0.1,0.2-0.2,0.3-0.3c0.4-0.4,0.8-0.7,1-1s0.4-0.4,0.5-0.5s0.2-0.1,0.3-0.2c0.1,0,0.2,0,0.2,0.1
		s0.1,0.1,0.2,0.2s0.1,0.2,0,0.4s-0.3,0.4-0.5,0.5s-0.4,0.3-0.5,0.4s-0.3,0.2-0.4,0.3s-0.2,0.2-0.2,0.3s0.1,0.1,0.2,0.1
		s0.3,0,0.5-0.1s0.5-0.2,0.8-0.4s0.6-0.3,0.9-0.4s0.5-0.2,0.6-0.3s0.3-0.2,0.4-0.3s0.2-0.2,0.3-0.3s0.2,0,0.2,0.1s0.1,0.2,0,0.4
		s-0.1,0.4-0.2,0.5s-0.2,0.2-0.3,0.3s-0.2,0.2-0.2,0.3s0,0.2,0.1,0.3s0.3,0.1,0.7,0s0.7-0.2,0.9-0.3s0.4-0.2,0.7-0.2l0.1,0.1
		c0.1-0.1,0.1-0.1,0.2-0.2c0.2-0.2,0.3-0.4,0.5-0.5s0.3-0.3,0.5-0.4s0.3-0.3,0.5-0.4s0.4-0.2,0.6-0.2s0.3-0.1,0.5,0s0.2,0.1,0.3,0.2
		s0.1,0.2,0.1,0.3s0,0.2,0,0.3s0.1,0.1,0.2,0s0.2-0.2,0.3-0.3s0.2-0.3,0.4-0.5s0.3-0.4,0.4-0.5s0.3-0.3,0.5-0.5s0.4-0.4,0.6-0.6
		s0.4-0.4,0.6-0.5s0.3-0.2,0.4-0.2c0.1,0,0.2,0.1,0.3,0.1s0.1,0.1,0.1,0.2c-0.1,0.2-0.2,0.4-0.4,0.6s-0.4,0.4-0.6,0.7
		s-0.4,0.4-0.5,0.5s-0.3,0.2-0.4,0.3s-0.3,0.2-0.5,0.4s-0.4,0.4-0.6,0.6s-0.3,0.4-0.4,0.5s-0.2,0.3-0.3,0.4s-0.1,0.2-0.1,0.3
		s0.1,0.1,0.2,0.2s0.2,0,0.3-0.1s0.3-0.2,0.5-0.2c0.1,0,0.2,0,0.2-0.1c0,0,0,0,0,0c0.5-0.2,0.8-0.5,1-0.8c0.2-0.3,0.5-0.5,0.7-0.6
		c0.3-0.1,0.5-0.3,0.7-0.4s0.3-0.2,0.5-0.1s0.2,0.1,0.2,0.3s-0.1,0.3-0.3,0.4s-0.3,0.2-0.4,0.3s-0.2,0.3-0.2,0.4s-0.1,0.3,0,0.4
		s0.1,0.2,0.3,0.3s0.4,0.1,0.7,0.1s0.6,0,0.8-0.1c0.2,0,0.3-0.1,0.4-0.2c0-0.1,0.1-0.3,0.2-0.3c0.1-0.1,0.3-0.2,0.5-0.4
		s0.5-0.4,0.8-0.6s0.6-0.3,0.8-0.4s0.4-0.1,0.6-0.1c0.2,0.1,0.3,0.2,0.3,0.3s0,0.3,0,0.5s-0.3,0.5-0.7,0.9c0.7-0.4,1.1-0.7,1.4-0.8
		s0.5-0.2,0.6-0.3s0.3,0,0.4,0.1s0.1,0.3,0,0.6s-0.1,0.4-0.1,0.6s0.3,0.1,0.8,0c0.2,0,0.3-0.1,0.4-0.1c5-7.1,8-15.7,8-25.1
		c0-23.9-19.4-43.3-43.3-43.3c-23.9,0-43.3,19.4-43.3,43.3c0,8.5,2.5,16.4,6.7,23.1c0,0,0,0,0,0c0.2-0.2,0.3-0.3,0.5-0.3
		s0.3,0,0.4,0.1s0.1,0.3,0,0.4s-0.2,0.3-0.4,0.4c0,0,0,0,0,0c0.2,0.4,0.5,0.7,0.8,1.1c0.2-0.1,0.3-0.1,0.5-0.3
		c0.4-0.2,0.8-0.5,1.2-0.8c0.4-0.3,0.7-0.5,1-0.7c-0.8,0-1.3-0.1-1.3-0.2s0-0.2,0.2-0.3s0.7-0.1,1.9-0.2c0.6-0.5,1.3-1.1,2-1.7
		s1.3-1.1,1.7-1.5s0.9-0.7,1.4-1.1h0.3c0.2,0.1,0.4,0.2,0.5,0.4s0.1,0.4-0.1,0.7s-0.5,0.6-0.9,1c-0.4,0.4-1,1.1-1.9,2.2
		c1.3-0.1,3-0.2,5-0.2c0.1-0.1,0.1-0.1,0.2-0.2c0.2-0.2,0.4-0.4,0.6-0.6s0.4-0.4,0.6-0.5s0.3-0.2,0.4-0.2c0.1,0,0.2,0.1,0.3,0.1
		s0.1,0.1,0.1,0.2c-0.1,0.2-0.2,0.4-0.4,0.6s-0.4,0.4-0.6,0.7s-0.4,0.4-0.5,0.5s-0.3,0.2-0.4,0.3s-0.3,0.2-0.5,0.4s-0.4,0.4-0.6,0.6
		s-0.3,0.4-0.4,0.5s-0.2,0.3-0.3,0.4s-0.1,0.2-0.1,0.3s0.1,0.1,0.2,0.2s0.2,0,0.3-0.1s0.3-0.2,0.5-0.2c0.1,0,0.2,0,0.3-0.1l0,0
		c0.4-0.2,0.8-0.5,1.2-1s0.7-0.7,1-0.8s0.5-0.1,0.8-0.1c0.1,0,0.2,0,0.3,0.1s0.1,0.1,0.1,0.2s0,0.2,0,0.3s-0.1,0.3-0.2,0.4
		s-0.3,0.3-0.4,0.4s-0.3,0.2-0.3,0.3s-0.1,0.2,0,0.3s0.3,0.1,0.6,0c0.2,0,0.4-0.1,0.6-0.1c0,0,0,0,0,0c0.5-0.2,0.8-0.5,1-0.8
		c0.2-0.3,0.5-0.5,0.7-0.6c0.3-0.1,0.5-0.3,0.7-0.4s0.3-0.2,0.5-0.1s0.2,0.1,0.2,0.3s-0.1,0.3-0.3,0.4s-0.3,0.2-0.4,0.3
		s-0.2,0.3-0.2,0.4s-0.1,0.3,0,0.4s0.1,0.2,0.3,0.3s0.4,0.1,0.7,0.1s0.6,0,0.8-0.1s0.4-0.1,0.6-0.2c0,0,0,0,0.1,0c0,0,0,0,0,0
		c0-0.2,0.2-0.4,0.5-0.7c0.3-0.3,0.6-0.5,0.9-0.7s0.5-0.2,0.6-0.3s0.4-0.1,0.6-0.1c0.3,0,0.6,0.1,0.7,0.1s0.2,0.2,0.2,0.3
		s0.1,0.2,0,0.3s0,0.2,0.2,0.1s0.2,0,0.2,0.2s-0.1,0.3-0.2,0.4s-0.2,0.3-0.3,0.3s-0.1,0.1-0.1,0.2s0.1,0.1,0.2,0.2s0.3,0,0.5,0
		c0.2-0.1,0.4-0.1,0.5-0.2c0,0,0.1,0,0.1-0.1c0-0.1,0.1-0.2,0.2-0.3c0.1-0.1,0.3-0.2,0.5-0.4s0.5-0.4,0.8-0.6s0.6-0.3,0.8-0.4
		s0.4-0.1,0.6-0.1c0.2,0.1,0.3,0.2,0.3,0.3s0,0.3,0,0.5s-0.3,0.5-0.7,0.9c0.7-0.4,1.1-0.7,1.4-0.8s0.5-0.2,0.6-0.3s0.3,0,0.4,0.1
		s0.1,0.3,0,0.6s-0.1,0.4-0.1,0.6s0.3,0.1,0.8,0s0.9-0.3,1.2-0.4c0,0.2-0.1,0.4-0.2,0.5s-0.4,0.2-1,0.4s-0.9,0.2-1.2,0.1
		s-0.4-0.2-0.5-0.3s-0.1-0.3,0-0.5s-0.1-0.1-0.5,0.1s-0.7,0.5-0.9,0.6s-0.5,0.2-0.6,0.3c-0.2,0-0.3,0-0.4-0.1s-0.2-0.2-0.2-0.3
		s0.1-0.3,0.2-0.4s0.3-0.3,0.5-0.4s0.3-0.3,0.3-0.4s-0.1-0.2-0.3-0.1s-0.5,0.2-0.9,0.5c-0.4,0.2-0.6,0.4-0.7,0.5
		c0,0.1-0.1,0.3-0.2,0.4c-0.1,0.1-0.3,0.2-0.5,0.3c-0.2,0.1-0.4,0.1-0.6,0.1s-0.2,0-0.3,0c-0.3,0-0.6,0-0.8-0.1
		c-0.2-0.1-0.3-0.2-0.4-0.4c-0.2,0.1-0.5,0.1-0.6,0.3s-0.4,0.2-0.6,0.2s-0.4,0.1-0.6,0.1c-0.1,0-0.3-0.1-0.5-0.2
		c-0.1-0.1-0.1-0.2-0.2-0.3c-0.1,0.1-0.3,0.1-0.4,0.2c-0.1,0.1-0.3,0.1-0.6,0.2s-0.6,0.1-0.9,0.1l-0.4,0c-0.3,0-0.5-0.1-0.7-0.2
		s-0.2-0.2-0.3-0.3s-0.1-0.3-0.1-0.4s0-0.3,0-0.4c0-0.1,0-0.1-0.1,0c-0.1,0.1-0.3,0.3-0.5,0.4l0,0.1c-0.4,0.2-0.8,0.4-1.1,0.5
		s-0.7,0.2-1.1,0.3c-0.2,0-0.4,0-0.6,0s-0.2-0.1-0.4-0.2s-0.2-0.2-0.2-0.3s0-0.3,0.1-0.4s0.2-0.2,0.3-0.4s0.3-0.2,0.4-0.3
		s0.3-0.2,0.4-0.3s0.1-0.2,0.1-0.3s-0.1-0.1-0.3-0.1s-0.4,0.2-0.8,0.7c-0.3,0.3-0.6,0.5-0.9,0.7c0,0,0,0,0,0.1
		c0,0.1-0.1,0.1-0.3,0.2s-0.3,0.2-0.5,0.2s-0.3,0.1-0.4,0.1s-0.3,0.1-0.5,0.1s-0.4,0.1-0.6,0s-0.3-0.1-0.3-0.2s-0.1-0.3-0.1-0.5
		c-0.1,0.1-0.3,0.2-0.4,0.3s-0.3,0.2-0.5,0.3s-0.3,0.2-0.4,0.3s-0.3,0.2-0.4,0.2s-0.3,0.1-0.6,0.1c-0.2,0-0.4-0.1-0.5-0.3
		c-0.1-0.1-0.1-0.2-0.1-0.3c0-0.2,0.1-0.3,0.2-0.5c-0.4,0.2-0.7,0.3-1,0.4c-0.4,0.1-0.7,0.1-0.9,0.2s-0.4,0.1-0.7,0.1h-0.3
		c-0.2,0-0.4-0.2-0.4-0.3c0-0.2,0-0.3,0-0.5s0.3-0.4,0.7-0.7s0.8-0.7,1.3-1.2c-0.5,0-1,0-1.6,0.1c-0.7,0.6-1.3,1.1-1.9,1.5
		c-0.5,0.4-0.9,0.6-1.2,0.8c7.9,10.8,20.6,17.9,35,17.9c14.3,0,27-6.9,34.9-17.6C-88.9,467.8-89.3,467.8-89.5,467.7z M-93.2,461.8
		l0.2,0c0.1,0.1,0.2,0.1,0.2,0.3s0.1,0.2,0.2,0.3l-0.1,0.1c-0.1,0.1-0.3,0.1-0.5,0.2l-0.2,0c-0.2-0.2-0.3-0.3-0.4-0.4
		C-93.6,462.1-93.5,461.9-93.2,461.8z M-138.2,462.5c-0.1,0.1-0.3,0.1-0.5,0.2l-0.2,0c-0.2-0.2-0.3-0.3-0.4-0.4
		c0.1-0.2,0.2-0.3,0.4-0.4l0.2,0c0.1,0.1,0.2,0.1,0.2,0.3s0.1,0.2,0.2,0.3L-138.2,462.5z M-138.3,441.9c0-8.3,6.8-15.1,15.1-15.1
		c8.3,0,15.1,6.8,15.1,15.1s-6.8,15.1-15.1,15.1C-131.6,457-138.3,450.2-138.3,441.9z M-114.8,464.4c0.2,0.2,0.3,0.4,0.3,0.6
		s0,0.5-0.1,0.8s-0.3,0.6-0.6,0.9s-0.6,0.6-0.9,0.8s-0.6,0.4-1,0.6s-0.7,0.3-0.9,0.3c-0.3-0.1-0.4-0.3-0.5-0.7s-0.1-0.7,0-0.9
		s0.2-0.3,0.4-0.4s0.3,0,0.5,0.1s0.1,0.2,0,0.4s-0.1,0.3-0.1,0.4s0.2,0.2,0.4,0.1s0.4-0.2,0.7-0.3s0.5-0.3,0.7-0.5s0.4-0.3,0.5-0.5
		s0.2-0.4,0.2-0.7s0-0.5-0.2-0.7s-0.3-0.3-0.4-0.3s-0.3-0.1-0.4-0.1s-0.1-0.1,0-0.2s0.2-0.2,0.4-0.2s0.3-0.1,0.5-0.3
		s0.3-0.3,0.3-0.5s-0.1-0.2-0.3-0.2s-0.5,0.1-0.8,0.3s-0.7,0.3-1,0.5s-0.6,0.3-0.8,0.4s-0.5,0.3-0.9,0.6s-0.8,0.6-1.2,1
		s-0.8,0.7-0.9,0.9s-0.3,0.3-0.6,0.4s-0.4,0.3-0.6,0.5c-0.2,0.2-0.3,0.3-0.4,0.2s-0.2,0-0.3-0.1s-0.2-0.1-0.2-0.3s0.1-0.3,0.3-0.5
		s0.5-0.5,0.9-0.8c0.3-0.3,0.7-0.6,1.2-0.9s0.9-0.6,1.2-0.8s0.6-0.4,0.8-0.5s0.4-0.3,0.6-0.6s0.5-0.6,0.8-0.9s0.5-0.5,0.8-0.8
		s0.4-0.5,0.4-0.6s0.1-0.3,0-0.3s-0.2,0-0.5,0.2s-0.7,0.5-1.2,0.9s-1,0.7-1.3,1s-0.7,0.5-1.1,0.9s-0.7,0.7-1.1,1s-0.7,0.6-0.9,0.9
		s-0.4,0.5-0.5,0.6s-0.3,0.3-0.5,0.4s-0.4,0.3-0.5,0.3s-0.3,0.1-0.5-0.1l0.1-0.4c0.3-0.2,0.5-0.3,0.8-0.4s0.5-0.3,0.7-0.7
		s0.6-0.7,1.1-1.1s0.9-0.8,1.3-1.1s0.8-0.6,1.1-0.9s0.7-0.6,1.1-0.8s0.7-0.5,1-0.8s0.6-0.4,0.8-0.5s0.4-0.2,0.5-0.2
		c0.2,0,0.4,0.1,0.5,0.2s0.1,0.2,0.2,0.3s0,0.2,0,0.4s-0.2,0.3-0.3,0.5s-0.4,0.4-0.6,0.7s-0.5,0.4-0.7,0.6s-0.3,0.3-0.4,0.4
		s-0.1,0.2-0.2,0.4c0.4-0.2,0.7-0.4,1-0.5s0.5-0.2,0.7-0.3s0.5-0.1,0.8-0.2s0.5,0,0.7,0s0.3,0.2,0.3,0.4c0,0.2-0.1,0.3-0.2,0.5
		s-0.3,0.3-0.4,0.4s-0.2,0.2-0.4,0.2S-115,464.2-114.8,464.4z"/>
	<path d="M-151.3,462.3c0.3-0.3,0.6-0.5,0.8-0.7s0.3-0.3,0.4-0.5s-0.1-0.2-0.3-0.1s-0.4,0.2-0.5,0.3s-0.5,0.4-0.9,0.7
		s-0.8,0.6-1.1,0.9s-0.8,0.7-1.3,1.3c0.4,0,0.7,0,0.8,0s0.3-0.1,0.4-0.1s0.2-0.2,0.4-0.3s0.3-0.4,0.5-0.7
		C-151.9,462.9-151.7,462.6-151.3,462.3z"/>
	<path d="M-137.9,467.1c0.2-0.1,0.4-0.2,0.6-0.3s0.4-0.2,0.6-0.4s0.3-0.2,0.3-0.4s0-0.2,0-0.3s-0.2-0.2-0.4-0.1s-0.4,0.1-0.6,0.2
		s-0.4,0.3-0.6,0.4s-0.4,0.3-0.4,0.5s0,0.3,0.1,0.3S-138.1,467.1-137.9,467.1z"/>
	<path d="M-149,465.2c0.1,0.1,0.1,0.2,0.1,0.3s0,0.2,0,0.3s0.1,0.1,0.2,0s0.2-0.2,0.3-0.3s0.2-0.3,0.4-0.5c0.1-0.1,0.1-0.2,0.2-0.3
		c-0.1,0-0.2,0-0.4,0c-0.6,0-1.2,0-1.8,0s-1.2,0.1-1.7,0.1s-0.9,0.1-1.2,0.1c-0.5,0.5-1,0.9-1.4,1.3s-0.6,0.7-0.7,0.7
		s0.1,0.1,0.4,0.1s0.7,0,1.1-0.1s0.9-0.2,1.3-0.4c0.2-0.1,0.4-0.2,0.6-0.2c0.1-0.1,0.1-0.1,0.2-0.2c0.2-0.1,0.3-0.3,0.5-0.4
		s0.3-0.3,0.5-0.4s0.4-0.2,0.6-0.2s0.3-0.1,0.5,0S-149.1,465.1-149,465.2z"/>
	<path d="M-151,467.4c0.3-0.1,0.5-0.3,0.8-0.4s0.4-0.3,0.5-0.5s0.2-0.3,0.2-0.5s0-0.3,0-0.3s-0.2-0.1-0.3,0s-0.3,0.2-0.5,0.4
		s-0.4,0.3-0.5,0.5s-0.3,0.4-0.5,0.6s-0.2,0.3-0.1,0.4S-151.3,467.5-151,467.4z"/>
</g>
</svg>
