<?xml version="1.0" encoding="utf-8"?>
<!-- Generator: Adobe Illustrator 19.0.0, SVG Export Plug-In . SVG Version: 6.00 Build 0)  -->
<svg version="1.1" id="Capa_1" xmlns="http://www.w3.org/2000/svg" xmlns:xlink="http://www.w3.org/1999/xlink" x="0px" y="0px"
	 viewBox="-210 325.9 173.5 190" style="enable-background:new -210 325.9 173.5 190;" xml:space="preserve">
<g id="svgg">
	<path id="path0" d="M-128.9,357.1c-44.9,4.2-71.6,51.8-51.8,92.2c20.2,41.1,76.3,48.2,106.1,13.5c15.4-17.9,19.7-43.1,11.2-65
		C-73.8,371.3-100.8,354.5-128.9,357.1 M-125,364.9v4.1h-6.7c-3.7,0-6.7,0.1-6.7,0.1c0,0.5-1.5,8.3-1.6,8.4c-0.1,0.1-1,0.5-2.1,1
		c-18.4,8.2-29.4,27.3-27.3,47.8l0.1,1.3l-3.3,3c-1.8,1.7-3.3,3.1-3.2,3.1c0,0.1,1.5,2.7,3.4,5.9c1.8,3.2,3.3,5.8,3.3,5.9
		c0,0.4-6.8,4.2-7.1,3.9c-0.6-0.8-2.9-6-3.9-8.8c-3.9-11-4.3-25.5-1.2-35.8c0.1-0.4,0.5-1.5,0.7-2.3c7-23.1,30.6-41.3,54.1-41.7
		l1.4,0V364.9 M-117.5,361c41.7,4.1,66.6,48.2,48.5,85.9c-0.6,1.3-1.2,2.4-1.2,2.4c-0.1,0.1-6.9-3.9-6.8-4c0-0.1,1.5-2.6,3.2-5.6
		c1.7-3,3.2-5.6,3.2-5.8c0-0.2-1.4-1.5-3.2-3c-2.7-2.3-3.2-2.8-3.2-3.1c0.2-1.1,0.4-4.1,0.4-6.6c0-18.1-9.9-34-26.2-42l-3-1.5
		l-1-4.3l-1-4.3l-6.7,0l-6.7,0v-4.1v-4.1h0.9C-119.8,360.8-118.6,360.9-117.5,361 M-125,375v3.5l-2.1,0.1l-2.1,0l3,5.8l3,5.8
		l-1.8,0.1c-21.6,1.4-35.1,24.7-25.5,44.2c0.5,1.1,0.8,1.8,0.7,1.9c-0.1,0.1-2.5,0.2-5.2,0.3c-2.8,0.1-5.7,0.3-6.4,0.3l-1.3,0.1
		l1.1,1.9c0.6,1,1,1.9,0.9,1.9c-0.1,0-1.4,0.8-3,1.7c-1.6,0.9-2.9,1.6-3,1.5c-0.1-0.1-1.4-2.3-2.9-4.8l-2.7-4.7l1.3-1.2
		c0.7-0.7,2.1-2,3.1-2.9l1.8-1.7l-0.3-1.9c-3-19.5,9.1-39.8,27.7-46.9l1.5-0.6l0.2-0.9c0.1-0.5,0.4-2.1,0.6-3.6
		c0.3-1.5,0.5-2.9,0.6-3.2l0.1-0.5h5.4h5.4V375 M-110.1,372.1c0.1,0.4,0.5,2.1,0.9,3.9c0.9,4,0.8,3.8,1.3,3.9
		c2.2,0.7,6.5,2.9,9.3,4.7c14.1,9.5,21.7,26.9,18.8,43.4c-0.3,1.6-0.7,1,3.4,4.4c2.6,2.1,2.7,2.3,2.5,2.6c-0.1,0.2-1.4,2.3-2.8,4.7
		l-2.5,4.4l-2.9-1.7c-1.6-0.9-3-1.7-3.1-1.8c-0.2-0.1-0.1-0.5,0.8-1.9c1.1-1.8,1.1-2,0.8-2c-0.5,0-12.5-0.6-12.5-0.6
		c0,0,0.3-0.9,0.8-1.9c9.2-19.6-4.1-42.6-25.4-43.9c-1-0.1-1.7-0.2-1.7-0.2c0-0.1,1.3-2.7,2.9-5.8l2.9-5.6l-2.2,0l-2.2,0V375v-3.5
		h5.4h5.4L-110.1,372.1 M-118,396.3c19.6,4.2,26.9,28.7,12.8,42.9c-13.4,13.4-36.2,7.8-41.8-10.3
		C-152.7,410.4-136.5,392.3-118,396.3 M-119.4,400.1l-0.1,0.8l-8.6,0c-6.5,0-8.6,0-8.6,0.2c0,0.1,0.2,0.6,0.4,1
		c0.2,0.4,1.3,2.2,2.3,4l1.8,3.2l-1.5,2.6c-0.8,1.4-2.4,4.1-3.4,5.9l-1.9,3.3l2.8,4.8c1.5,2.6,3,5.3,3.4,5.9l0.7,1.2l-0.9,1.5
		c-0.5,0.8-1,1.5-1,1.5c-0.4-0.1-5.8-9.8-5.6-10c0.1-0.1,0.5-0.3,0.8-0.5l0.6-0.3l-3.2-2c-1.7-1.1-3.2-2-3.2-2
		c-0.1,0.1,0.3,7.3,0.4,7.4c0,0,0.4-0.1,0.7-0.3c0.8-0.5,0.4-1.1,5.2,7.3c4.5,7.8,4.3,7.4,4.4,7.2c0-0.1,1.1-1.9,2.3-4.1l2.3-3.9
		l6.9-0.1l6.9-0.1l3.3-5.7c4-6.9,3.3-6.1,5.5-6.1l1.8,0.1l-2.9,5c-1.6,2.7-2.9,5-2.9,5c0,0-0.4-0.1-0.8-0.4l-0.8-0.5l-0.1,2.4
		c-0.1,1.3-0.2,3-0.2,3.8c-0.1,1.7-0.5,1.8,3.4-0.7l3-1.9l-0.7-0.4c-0.9-0.6-1.4,0.4,3.5-8l4.3-7.4l-4.7-0.1l-4.7-0.1l-3.4-5.9
		l-3.4-5.9l-6.9,0l-6.9,0l-0.9-1.6c-0.5-0.9-0.9-1.6-0.9-1.7c0-0.1,2.6-0.1,5.8-0.1h5.8v0.9c0,0.5,0,0.9,0.1,0.9
		c0.2,0,6.5-3.2,6.5-3.4c0-0.1-6.2-3.4-6.4-3.4C-119.3,399.3-119.4,399.7-119.4,400.1 M-116.9,411.5l0.4,0.6l-1.1,0.1
		c-0.6,0.1-2.9,0.1-5,0.1c-2.1,0-3.9,0-3.9,0.1s0.7,1.4,1.6,2.9c1.6,2.8,1.6,2.8,1.1,2.9c-0.6,0.1-0.6,0.1-2.9-3.8l-2-3.4h5.7h5.7
		L-116.9,411.5 M-127,415.3c1.5,2.7,1.8,3.2,1.6,3.5c-0.3,0.6-0.5,0.4-1.2-0.9c-1.2-2.2-1-2.2-2.5,0.4c-1.4,2.4-1.5,2.5-1.9,1.5
		c-0.2-0.6,1.5-3.9,2-3.9c0.4,0,0.5-0.9,0.2-1.2c-0.4-0.4-1.2-0.2-1.2,0.4c0,0.3-0.5,1.3-1.1,2.3c-1.3,2.2-1.3,1.6,0,3.8l1.1,1.8
		l-0.3,0.5c-0.5,0.7-0.5,0.7-2.1-2c-1.3-2.3-1.4-2.6-1.2-2.9c0.1-0.2,1.1-1.9,2.2-3.9l2-3.5l0.3,0.5C-129,412-128,413.6-127,415.3
		 M-122.5,414l0.6,1h0.9c0.8,0,1.5,0.5,1.5,1.1c0,0.2-1.2,0.1-1.3-0.1c-0.2-0.4-1-0.2-1.2,0.3c-0.3,0.6,0.1,1.1,0.8,0.9
		c0.3-0.1,0.9-0.2,1.4-0.2l0.8-0.1l0.6,1c0.7,1.3,0.8,1.2-0.9,1.2c-1.4,0-1.5,0-1.8-0.4c-0.2-0.3-0.5-0.4-0.8-0.4
		c-0.4,0-3.4-4.4-3.4-5.1c0,0,0.5-0.1,1.1-0.1h1.1L-122.5,414 M-113.8,416.8l2.2,3.9l-4.1,0c-4,0-4.1,0-4.4-0.3
		c-0.5-0.6-0.4-0.7,1.6-0.7h1.9l-1.3-2.3c-1.6-2.7-1.5-2.5-0.6-2.5c0.6,0,0.8,0.1,1,0.5c0.7,1.1,1.7,3,1.7,3.3
		c-0.1,0.7,0.7,1.1,1.3,0.6c0.4-0.4,0.4-0.6-0.2-1.1c-0.3-0.3-1-1.3-1.5-2.2l-1-1.7l-2.2,0l-2.2,0l-0.3-0.6l-0.3-0.6h3.1h3.1
		L-113.8,416.8 M-127,418.7c0.7,1.2,0.7,1.3,0.5,1.8c-0.2,0.4-0.1,0.7,0,1c0.2,0.4,0.1,0.7-1.2,2.9c-1.6,2.9-1.5,2.8-2.2,1.5l-0.6-1
		l0.6-1l0.6-1l-0.5-0.8l-0.5-0.8l0.4-0.6l0.4-0.6l0.3,0.6c0.2,0.3,0.3,0.8,0.3,1c0,0.6,0.6,0.9,1.1,0.6c0.5-0.3,0.5-1-0.1-1.3
		c-0.2-0.2-0.6-0.6-0.8-0.9l-0.4-0.6l0.6-1C-127.7,417.2-127.9,417.2-127,418.7 M-131.7,424.1c1.3,2.3,2.5,4.2,2.6,4.2
		c0.1,0,0.9-1.2,1.7-2.7c1.7-2.9,1.7-3,2-2.3c0.2,0.5-3.8,7.8-4.1,7.5c-0.1-0.1-1.4-2.3-2.9-4.9l-2.8-4.8l0.4-0.7
		c0.2-0.4,0.4-0.6,0.5-0.6C-134.2,419.9-133.1,421.8-131.7,424.1 M-111.8,421.8c-0.1,0.2-1.3,2.4-2.8,5l-2.7,4.7l-0.8,0
		c-0.9,0-1.1,0.5,1.8-4.6l2.4-4.2l-3.3,0c-3.4,0-3.5-0.1-3.1-0.8C-119.9,421.3-111.6,421.3-111.8,421.8 M-115.3,423.7
		c-0.9,1.7-1,1.7-2.2,1.8c-1.2,0.1-1.2,0.1-1.6,0.7c-0.3,0.6-0.4,0.7-1,0.7c-0.8,0-0.8-0.2,0-1c0.7-0.6,0.8-1.2,0.3-1.5
		c-0.5-0.3-1.1,0.1-1.1,0.6c0,0.2-0.2,0.8-0.4,1.1l-0.4,0.7l-1.2,0l-1.2,0l0.5-0.9c0.3-0.5,0.6-1.1,0.7-1.3c0.1-0.3,0.3-0.4,0.8-0.4
		c0.5,0,0.6-0.1,0.8-0.4l0.2-0.4h3h3L-115.3,423.7 M-124.4,425.8l-1,1.6l2.7,0c1.5,0,2.7,0.1,2.7,0.1c0,0-0.1,0.4-0.3,0.7l-0.3,0.6
		h-2c-1.3,0-2.1-0.1-2.4-0.2c-0.5-0.3-1,0-1,0.6c-0.1,0.7,0.5,1,1.1,0.6c0.3-0.2,0.9-0.3,2.6-0.3h2.1l1-1.8l1-1.8h0.8h0.8l-0.6,1
		c-0.3,0.6-1,1.8-1.5,2.7l-1,1.6h-4.4c-3.6,0-4.4,0-4.4-0.2c0.3-1.3,4-7,4.5-7l0.6,0L-124.4,425.8 M-93.2,442.2
		c1.9,3,3.5,5.4,3.5,5.4c0.1,0,0.6-0.8,1.1-1.8c0.6-1,1.1-1.8,1.1-1.9c0.1-0.1,6.3,3.6,6.2,3.7c-0.6,1.5-5.4,9.2-5.6,9.2
		c-0.2,0-1.8-0.5-3.6-1.1c-1.8-0.5-3.5-1.1-3.8-1.1c-0.4-0.1-0.6,0-1.9,1c-15.6,12.3-37.6,12.3-53.8,0.1l-2.1-1.6l-3.3,1.2
		c-1.8,0.7-3.6,1.3-3.8,1.4c-0.5,0.2-0.5,0.2-3.1-4.3c-1.4-2.5-2.5-4.6-2.5-4.7c0.2-0.2,5.7-3.4,5.8-3.4c0,0,0.6,0.8,1.2,1.9
		c0.6,1,1.1,1.8,1.2,1.8c0.1,0,1.7-2.5,3.6-5.5c1.9-3,3.5-5.4,3.5-5.4c0,0,0.4,0.5,0.8,1.1c8.7,13.5,27.9,17.7,41.5,9.1
		c3.8-2.4,8.5-7,9.9-9.9c0.2-0.3,0.3-0.5,0.3-0.5C-96.7,436.8-95.1,439.2-93.2,442.2 M-75.4,450.8c2.1,1.2,3,1.9,3,2
		c-0.4,1-3.5,5.2-6,8c-22,25-60.8,26.9-85.5,4.3c-4.5-4.1-10.6-11.7-9.8-12.3c1.5-1,6.7-3.8,6.8-3.7c0.1,0.1,1.6,2.6,3.3,5.6
		l3.1,5.4l4.1-1.5l4.1-1.5l1.7,1.2c15.6,11.5,37.5,12.1,53.4,1.3c1.3-0.8,2.5-1.7,2.7-1.8c0.4-0.2,0.7-0.2,4.5,1
		c2.2,0.7,4.2,1.3,4.3,1.3c0.1,0,1.6-2.5,3.3-5.5c1.7-3,3.2-5.6,3.3-5.7C-78.9,448.7-78.9,448.7-75.4,450.8"/>
</g>
</svg>
