<?xml version="1.0" encoding="utf-8"?>
<!-- Generator: Adobe Illustrator 19.0.0, SVG Export Plug-In . SVG Version: 6.00 Build 0)  -->
<svg version="1.1" id="Capa_1" xmlns="http://www.w3.org/2000/svg" xmlns:xlink="http://www.w3.org/1999/xlink" x="0px" y="0px"
	 viewBox="-210 325.9 173.5 190" style="enable-background:new -210 325.9 173.5 190;" xml:space="preserve">
<g id="XMLID_100_">
	<path d="M-45.1,494.1h-156.3c-2,0-3.8-1-4.8-2.7s-1-3.8,0-5.5l78.1-135.4c1-1.7,2.8-2.8,4.8-2.8l0,0c2,0,3.8,1,4.8,2.7l78.2,135.4
		c1,1.7,1,3.8,0,5.5C-41.3,493-43.1,494.1-45.1,494.1z M-191.9,483.1h137.3l-68.7-118.9L-191.9,483.1z"/>
</g>
<path d="M-123.3,411.4c-15.7,0-28.9,9.9-33.2,23.7c-0.2,0.5,0,1.1,0.4,1.5l25.2,25.2v7c0,0.8,0.7,1.5,1.5,1.5h12.1
	c0.8,0,1.5-0.7,1.5-1.5v-7l25.2-25.2c0.4-0.4,0.5-1,0.4-1.5C-94.3,421.3-107.6,411.4-123.3,411.4z M-123.3,414.4
	c11.5,0,21.6,5.9,27,14.7c-1.8-1.1-3.9-1.7-6.3-1.7c-4.4,0-8.1,2.1-10.3,5.3c-0.9-1.2-1.8-2.4-3.1-3.2c-1.9-1.4-4.4-2.1-7.4-2.1
	s-5.5,0.8-7.4,2.1c-1.2,0.9-2.2,2-3.1,3.2c-2.1-3.2-5.9-5.3-10.3-5.3c-2.4,0-4.5,0.7-6.3,1.7C-144.8,420.3-134.8,414.4-123.3,414.4z
	 M-123.3,430.3c2.5,0,4.2,0.6,5.6,1.6c1.3,0.9,2.4,2.3,3.4,4l-4.2,23.9h-9.5l-4.2-23.9c1-1.7,2.1-3.1,3.4-4
	C-127.5,430.9-125.8,430.3-123.3,430.3z M-144,430.4c4.3,0,7.6,2.4,8.7,5.7l3.7,20.8l-21.4-21.4C-150.8,432.8-147.7,430.4-144,430.4
	z M-102.5,430.4c3.8,0,6.8,2.4,9,5.1l-21.4,21.4l3.7-20.8C-110.1,432.7-106.8,430.4-102.5,430.4z M-127.8,462.9h9.1v4.5h-9.1V462.9z
	"/>
</svg>
