<?xml version="1.0" encoding="utf-8"?>
<!-- Generator: Adobe Illustrator 19.0.0, SVG Export Plug-In . SVG Version: 6.00 Build 0)  -->
<svg version="1.1" id="Capa_1" xmlns="http://www.w3.org/2000/svg" xmlns:xlink="http://www.w3.org/1999/xlink" x="0px" y="0px"
	 viewBox="-210 325.9 173.5 190" style="enable-background:new -210 325.9 173.5 190;" xml:space="preserve">
<text transform="matrix(1 0 0 1 87.6401 746.8352)" style="font-family:'MyriadPro-Regular'; font-size:12px;">d-11424</text>
<path d="M-40.3,485.8L-95.6,390l-20.3-35.1l-2.6-4.6c-1-1.7-2.8-2.7-4.8-2.7s-3.8,1.1-4.8,2.8l-2.6,4.5l-25.1,43.5l-50.5,87.5
	c-1,1.7-1,3.8,0,5.5s2.8,2.7,4.8,2.7h156.3c2,0,3.8-1.1,4.8-2.8C-39.3,489.6-39.3,487.5-40.3,485.8z M-191.9,483.1l43.9-76.2
	l24.7-42.7l20,34.7l48.7,84.2H-191.9z"/>
<g>
	<path d="M-83.4,432.6L-83.4,432.6C-83.4,432.6-83.4,432.6-83.4,432.6L-83.4,432.6C-83.4,432.6-83.4,432.6-83.4,432.6z"/>
	<path d="M-78.1,424.2l-44.6-31.2c-0.3-0.2-0.7-0.2-1,0l-44.7,31.2c-0.2,0.2-0.5,0.4-0.5,0.7v33.9c0,0.3,0.3,0.5,0.5,0.7l44.6,31.2
		c0.1,0.1,0.3,0.2,0.5,0.2c0.2,0,0.4-0.1,0.5-0.2l44.7-31.2c0.2-0.2,0.6-0.4,0.6-0.7v-33.9C-77.5,424.6-77.9,424.4-78.1,424.2z
		 M-167.4,458.4v-32.8l0.4,0.3l-0.4-0.3v0l43,31l0,0l0,0v0l0.1,0l0,0l0,0l0.8,28.2l0,4.2L-167.4,458.4z M-79.1,458.4L-123,489
		l-0.2,1.1l-0.1-0.8l-0.2-0.3c0,0-0.2,0-0.2,0l0.2,0l0.1-0.4l0.8-31.4l0.1-0.6l0,0.1c0,0,0-0.2,0-0.2l0-0.3l15.3-10.7l3,2.1h0
		l-15.8,10.7c-0.2,0.2-0.5,0.2-0.5,0.5c0,1,0,1.9,0,2.9c0,2.2,0,4.4,0,6.6c0,2.5,0,4.9,0,7.4c0,1.7,0,3.4,0,5.2c0,0.4,0,0.7,0.1,1.1
		c0.6,1.5,2.2,0,3-0.5c1.1-0.8,2.2-1.6,3.3-2.4c1.5-1.1,3.1-2.2,4.6-3.3c1.8-1.3,3.6-2.6,5.4-3.9c1.9-1.4,3.8-2.8,5.7-4.1
		c1.8-1.3,3.7-2.7,5.5-4c1.6-1.2,3.2-2.3,4.8-3.5c1.2-0.9,2.4-1.7,3.6-2.6c0.6-0.4,1.2-0.9,1.8-1.3c0,0,0.1-0.1,0.1-0.1l1.1-23.1
		c0,0,0,0,0-0.1c0-0.5-0.6-0.8-1.1-0.8c-0.2,0-0.4,0.1-0.5,0.2c-0.2,0.1-0.4,0.2-0.5,0.3c-0.2,0.1-0.4,0.3-0.6,0.4
		c-0.3,0.2-9.6,6.8-10.3,7.2c-0.3,0.2-0.5,0.4-0.8,0.5l-2.3-1.6l18.4-13.6V458.4z M-149.2,431.5l-5.5-3.8l26.4-18.5v15.3l-15.4,10.9
		l0,0L-149.2,431.5z M-127,406.7c-0.1-0.1-0.2-0.1-0.4-0.1c-0.1,0-0.4,0.1-0.6,0.2l-28.5,19.8v0l-2.4-1.6l35.3-25.6l-0.2,27.8l0,0
		l-2.6-2.2l-0.2-0.1c0,0-0.2-0.1-0.2-0.1v-17.4C-126.8,407.2-126.8,406.9-127,406.7z M-126.8,425.7L-126.8,425.7l3.1,1.7l-6.1,4.4
		l-9.4,6.6l0,0l0,0l0.7,0.5l15.2-10.7l0,0l-0.4,4.2c0,0,0,0-0.1,0l-12,8.4l-2.8-2l-0.7-0.5l-2.8-2L-126.8,425.7z M-123.3,434.2
		l11,7.7l-11,7.7l-11-7.7L-123.3,434.2z M-87.7,448.3l0.2,4.6l-35.4-25.4c0,0,0,0,0,0l0,0v0l3.1-1.8v0L-87.7,448.3z M-93.9,441.9
		l6.2-4.3v8.7L-93.9,441.9z M-86.2,454.1l3.4,2.2l-35.3,23.7v-3.2L-86.2,454.1L-86.2,454.1z M-86.1,436.4l2.6-1.8l0.8,21.5l-3.3-2.6
		L-86.1,436.4z M-118.2,474.7v-15.3l15.3-10.9l11.1,7.7L-118.2,474.7z M-118.2,424.5v-15.3l26.3,18.5l-10.9,7.7L-118.2,424.5z
		 M-118.9,406.8c-0.1-0.1-0.3-0.2-0.4-0.2C-119.2,406.6-119,406.7-118.9,406.8c-0.1-0.1-0.3-0.2-0.4-0.2c-0.2,0-0.4,0-0.6,0.1
		c-0.3,0.1-0.6,0.4-0.6,0.7v17.4l-2.4,2.4l-0.4-27.8l35.1,25.4l-2.5,1.8L-118.9,406.8z M-122.9,432.5l-0.3-4.2l35.6,24.7l-3.2,2.2
		C-90.7,455.1-122.9,432.5-122.9,432.5z M-79.1,425.5l-19.8,12.7c0,0-2.6-1.8-2.6-1.8c0.2-0.1,13.6-9.5,14.2-9.9
		c0.2-0.1,0.3-0.2,0.5-0.3c0.1,0,0.1-0.1,0.2-0.1c0.3-0.1,0.6-0.3,0.7-0.6c0.1-0.1,0.1-0.3,0.1-0.4c0-0.2,0-0.3-0.1-0.5
		c-0.1-0.2-0.2-0.3-0.4-0.4h0c0,0,0,0,0,0c-0.2-0.1-0.4-0.2-0.6-0.3c-0.1-0.1-0.2-0.2-0.4-0.2c-0.4-0.2-36.1-24.5-36.1-24.5
		l-37.1,25.1l0,0c0,0,0,0,0,0c0,0,0,0,0,0c0,0,0,0,0,0c-0.3,0.3-0.4,0.8-0.1,1.1c0.1,0.1,0.2,0.2,0.3,0.3c0.1,0,0.2,0.1,0.3,0.1
		c-0.1,0-0.2,0-0.3-0.1l36.6,25.5c0.1,0.1,0.3,0.2,0.5,0.2s0.3,0,0.5-0.1l12-8.4l2.5,1.7l0,0c0,0-14.9,10.4-14.9,10.4l-0.2,0
		l-43.8-29.6v-0.1l44.2-30.6l44.2,30.6V425.5z"/>
	<path d="M-126.8,458.9c0-0.3,0-0.5-0.2-0.7l-36.3-25.7c0,0,0,0,0,0c-0.2-0.2-0.4-0.3-0.7-0.3c-0.3,0-0.5,0.1-0.7,0.3
		c-0.1,0.1-0.2,0.2-0.2,0.3c-0.1,0.1,0,0.2,0,0.3c0,0.5-0.1,0.9,0,1.4c0,0.3,0,0.7,0.1,1c0,0.9,1.1,20.4,1.1,20.4l33.9,24.9
		c0.6,0.5,1.6,1.5,2.4,1.5c0,0,0,0,0.1,0c0.4,0,0.8-0.2,0.8-0.6c0-0.1,0-0.1,0-0.2C-126.7,481.5-126.8,458.9-126.8,458.9z
		 M-128.3,459.3v15.3l-26.4-18.5l10.9-7.7L-128.3,459.3z M-145.1,447.4l-11,7.8l-3.3-2.4l11.4-7.4L-145.1,447.4z M-159.6,437.6
		l6.2,4.3l-6.2,4.3V437.6z M-159.6,448.3l8-5.4l0,0l0.1-0.1l0,0l0,0l0,0l0.1,0.1l2.7,1.9l-10.8,7.9V448.3z M-163,434.8l1.9,1.6
		c0,0,0.3,17.1,0.3,17.1l-2.8,2.3L-163,434.8z M-128.3,480.2l-35.2-24.2l3.1-1.9c0,0,0,0,0,0l32.2,22.5L-128.3,480.2z"/>
</g>
</svg>
