<?xml version="1.0" encoding="utf-8"?>
<!-- Generator: Adobe Illustrator 19.0.0, SVG Export Plug-In . SVG Version: 6.00 Build 0)  -->
<svg version="1.1" id="Capa_1" xmlns="http://www.w3.org/2000/svg" xmlns:xlink="http://www.w3.org/1999/xlink" x="0px" y="0px"
	 viewBox="-210 325.9 173.5 190" style="enable-background:new -210 325.9 173.5 190;" xml:space="preserve">
<path d="M-123.3,354.1c-36.8,0-66.8,29.9-66.8,66.8s29.9,66.8,66.8,66.8c36.8,0,66.8-29.9,66.8-66.8S-86.4,354.1-123.3,354.1z
	 M-60.5,420.9c0,10.7-2.7,20.8-7.5,29.6l-53.3-92.3C-87.6,359.2-60.5,386.9-60.5,420.9z M-101,401.3h-44.5l22.2-38.5L-101,401.3z
	 M-100.8,421.2c-2-8.3-8.6-14.9-16.9-16.9h16.9V421.2z M-103.2,426.7c0,11.1-9,20.1-20.1,20.1s-20.1-9-20.1-20.1s9-20.1,20.1-20.1
	S-103.2,415.6-103.2,426.7z M-145.7,421.2v-16.9h16.9C-137.1,406.3-143.6,412.9-145.7,421.2z M-145.7,432.2
	c1.9,7.7,7.7,13.9,15.2,16.4h-15.2V432.2z M-116,448.6c7.5-2.5,13.3-8.7,15.2-16.4v16.4H-116z M-148.7,448.6h-24.1l24.1-41.8V448.6z
	 M-97.8,406.8l24.1,41.8h-24.1V406.8z M-125.2,358.2l-53.3,92.3c-4.8-8.8-7.5-18.9-7.5-29.6C-186,386.9-158.9,359.2-125.2,358.2z
	 M-123.3,483.6c-23,0-43.2-12.5-54.1-31h108.2C-80.1,471.2-100.2,483.6-123.3,483.6z"/>
</svg>
