<?xml version="1.0" encoding="utf-8"?>
<!-- Generator: Adobe Illustrator 19.0.0, SVG Export Plug-In . SVG Version: 6.00 Build 0)  -->
<svg version="1.1" id="Capa_1" xmlns="http://www.w3.org/2000/svg" xmlns:xlink="http://www.w3.org/1999/xlink" x="0px" y="0px"
	 viewBox="-210 325.9 173.5 190" style="enable-background:new -210 325.9 173.5 190;" xml:space="preserve">
<style type="text/css">
	.st0{fill:#231F20;}
</style>
<g id="XMLID_100_">
	<path d="M-45.1,494.1h-156.3c-2,0-3.8-1-4.8-2.7s-1-3.8,0-5.5l78.1-135.4c1-1.7,2.8-2.8,4.8-2.8l0,0c2,0,3.8,1,4.8,2.7l78.2,135.4
		c1,1.7,1,3.8,0,5.5C-41.3,493-43.1,494.1-45.1,494.1z M-191.9,483.1h137.3l-68.7-118.9L-191.9,483.1z"/>
	<path class="st0" d="M-152.2,453.9l2.9-12.2l2.4,12.2c0.1,0.5,0.6,0.9,1.1,0.9h7.5c0.6,0,1-0.4,1.1-1l3.8-26.5l7.1,47.9
		c0.1,0.6,0.6,1,1.1,1h0c0.6,0,1-0.5,1.1-1l1.8-20.3h4.2c0.6,0,1-0.4,1.1-1l2.3-14.6l3,13.9c0.1,0.5,0.6,0.9,1.1,0.9h26.8
		c0.4,1.4,1.7,2.4,3.1,2.4c1.8,0,3.3-1.5,3.3-3.3c0-1.8-1.5-3.3-3.3-3.3c-1.3,0-2.5,0.8-3,2h-26l-4-19c-0.1-0.5-0.6-0.9-1.1-0.9
		c-0.5,0-1,0.4-1.1,1l-3.1,19.7h-4.3c-0.6,0-1.1,0.4-1.1,1l-1,11.9l-6.8-46.1c-0.1-0.6-0.6-1-1.1-1c-0.6,0-1,0.4-1.1,1l-4.7,33.2
		h-5.6l-3.2-16.3c-0.1-0.5-0.6-0.9-1.1-0.9c-0.6,0-1,0.3-1.1,0.9l-3.9,16.4H-176v2.3h22.7C-152.8,454.7-152.4,454.4-152.2,453.9z"/>
</g>
</svg>
