<?xml version="1.0" encoding="utf-8"?>
<!-- Generator: Adobe Illustrator 19.0.0, SVG Export Plug-In . SVG Version: 6.00 Build 0)  -->
<svg version="1.1" id="Capa_1" xmlns="http://www.w3.org/2000/svg" xmlns:xlink="http://www.w3.org/1999/xlink" x="0px" y="0px"
	 viewBox="-210 325.9 173.5 190" style="enable-background:new -210 325.9 173.5 190;" xml:space="preserve">
<g id="XMLID_100_">
	<path d="M-45.1,494.1h-156.3c-2,0-3.8-1-4.8-2.7s-1-3.8,0-5.5l78.1-135.4c1-1.7,2.8-2.8,4.8-2.8l0,0c2,0,3.8,1,4.8,2.7l78.2,135.4
		c1,1.7,1,3.8,0,5.5C-41.3,493-43.1,494.1-45.1,494.1z M-191.9,483.1h137.3l-68.7-118.9L-191.9,483.1z"/>
</g>
<path d="M-102.1,473.2c3.9-5.6,2.6-13.3-3-17.2c-2.4-1.7-5.3-2.4-8.1-2.2l0,0c-4.1,0.3-8.4-0.7-12.1-3.3c-3.1-2.1-6.6-5.9-6.6-8.3
	c0-2.4,3.5-6.1,6.6-8.3c3.7-2.6,8-3.6,12.1-3.3l0,0c2.8,0.2,5.6-0.5,8.1-2.2c5.6-3.9,6.9-11.6,3-17.2c-3.9-5.6-11.6-6.9-17.2-3
	c-2.4,1.7-4.1,4.1-4.8,6.8l0,0c-1.1,4-3.6,7.7-7.2,10.2c-4,2.8-8.6,3.8-13.1,3.2l0,0c-3.3-0.5-6.9,0.3-9.9,2.4
	c-6.3,4.4-7.8,13.1-3.4,19.3c3.1,4.4,8.3,6.5,13.3,5.8l0,0v0c4.4-0.6,9.1,0.4,13.1,3.2c3.7,2.6,6.1,6.2,7.2,10.2h0
	c0.7,2.7,2.4,5.1,4.8,6.8C-113.7,480.1-106,478.8-102.1,473.2z"/>
</svg>
