<?xml version="1.0" encoding="utf-8"?>
<!-- Generator: Adobe Illustrator 19.0.0, SVG Export Plug-In . SVG Version: 6.00 Build 0)  -->
<svg version="1.1" id="Capa_1" xmlns="http://www.w3.org/2000/svg" xmlns:xlink="http://www.w3.org/1999/xlink" x="0px" y="0px"
	 viewBox="-210 325.9 173.5 190" style="enable-background:new -210 325.9 173.5 190;" xml:space="preserve">
<g id="svgg">
	<path id="path0" d="M-129.7,344.6c-14.9,1.7-24.9,5.2-35.6,12.3c-3.9,2.6-5.2,3.5-8.7,6.5c-4.4,3.7-9.4,9.4-13.1,15.1
		c-2.3,3.4-6.6,11.6-7.2,13.4c-0.1,0.2-0.5,1.2-0.9,2.2c-2.2,5.5-3.8,12.5-4.5,19.7c-0.2,2.3-0.2,11.8,0,13.8
		c2,17.6,8.5,33,18.9,44.2c0.1,0.1,0.8,0.9,1.5,1.7c2.4,2.6,7.9,7.4,11.6,9.9c1.7,1.2,3.7,2.5,4.2,2.8c2.8,1.7,3.9,2.2,5.5,3.1
		c7.8,4,16.3,6.6,26,7.8c2.6,0.3,14.4,0.3,17.3,0c10.8-1.3,22-5,30.3-10c0.8-0.5,1.4-0.8,1.5-0.8s0.6-0.3,1.2-0.8
		c0.6-0.4,1.1-0.8,1.2-0.8c0.1,0,0.4-0.2,0.7-0.5c0.3-0.3,1.2-0.9,2-1.5c5-3.7,10.5-9,14.4-13.7c1.3-1.6,3.9-5.1,3.9-5.3
		c0,0,0.4-0.7,0.9-1.4c0.5-0.8,1.1-1.6,1.2-2c6-10.3,9.3-20.2,10.5-31.6c0.2-2,0.2-13.2,0-15.2c-0.9-8.3-3-16.3-6-23.1
		c-1.2-2.7-3.8-7.7-4.7-9c-0.2-0.2-0.8-1.2-1.4-2.2c-3.7-5.8-8-10.7-13.8-15.9c-1.1-1-2.3-2-2.5-2.1c-0.2-0.2-1.1-0.8-1.9-1.4
		c-1.4-1.1-2.1-1.6-4.3-3.1c-8.8-5.9-19.6-10-30.7-11.7C-115.9,344.5-126.3,344.2-129.7,344.6 M-116.1,356.6
		c1.3,0.1,3.3,0.4,4.5,0.7c1.2,0.2,2.4,0.5,2.8,0.5c5.1,0.9,14,4.5,20.2,8.4l1,0.6l-1.3,1.3c-4,4-9,5.6-18.3,5.9
		c-5.3,0.2-7.3,0.3-9.1,0.7c-2.2,0.5-4.5,1.3-5.5,1.9c-0.5,0.3-1.1,0.6-1.1,0.6c-0.3,0-0.6,0.6-0.9,1.4c-1.1,4-5,7-10.9,8.6
		c-10.9,2.9-17.9,9.4-19.5,18.3l-0.4,2.2l-0.5-1.1c-5.2-11.4-3.4-28.8,4-37.4c0.2-0.3,0.8-0.9,1.2-1.4c1-1.2,3.8-4,4.2-4.2
		c0.2-0.1,0.5-0.4,0.8-0.6c3.3-3,8.9-5.6,12.9-6.1c1.1-0.1,2.2-0.3,2.5-0.3C-127.7,356.3-118.2,356.4-116.1,356.6 M-84.2,369.3
		c0.8,0.6,1.7,1.3,2.1,1.6c3.1,2.3,8.2,7.7,11.3,11.9l0.5,0.6l-1.1-0.6c-6.2-3.6-13.9-6.6-17.9-7l-0.9-0.1l-0.8,1.2
		c-1.9,2.8-5.1,5.7-8.9,8c-2.1,1.3-2.1,1.3-3.8,0.7c-3.8-1.3-9.1-1.4-12.1-0.2c-0.8,0.3-0.7,0.7,0.2,0.7c3.8,0,7.1,2.5,8.3,6.5
		c0.4,1.4,0.6,1.6,0.9,1.7c2.8,0.6,6.5,2.1,8.3,3.4c1.1,0.8,1.3,0.8,1.9,0c5.1-6.6,11.2-10.6,18.4-12.2c1.8-0.4,8.5-0.4,8.8-0.1
		c0.1,0.1,0.5,0.8,0.8,1.5c0.4,0.7,1,1.6,1.3,2.1c1.4,2.3,3.7,7.1,3,6.1c-2.5-3.3-5.4-6.1-8.9-8.3l-1.4-0.9l-1.4,0
		c-6.2,0.2-14.5,5-19.4,11.2c-0.6,0.7-1.2,1.5-1.3,1.7c-0.2,0.3-0.3,0.3-1.2-0.3c-2.4-1.6-6.5-3.3-8.7-3.6l-0.7-0.1l0,0.8
		c0,0.4-0.3,1.5-0.6,2.4l-0.6,1.7l1.8,0.9c1,0.5,2.1,1.1,2.4,1.4c0.4,0.3,0.8,0.6,1.1,0.8c1.2,0.8,4.4,4.3,5.2,5.8
		c0.3,0.5,0.8,0.8,0.8,0.4c0-0.3,3.5-3.7,4.9-4.8c4.2-3.2,9.1-5.2,14.4-6.1c5.8-0.9,14.9-0.2,15.4,1.1c0.1,0.3-0.1,0.3-0.7,0.1
		c-2.5-1-10.6-1.3-14.8-0.6c-3.6,0.6-8.7,2.5-11,4c-0.4,0.3-0.8,0.5-0.9,0.5c-0.1,0-0.4,0.2-0.7,0.4l-0.5,0.4l1.4,1.3
		c1.4,1.3,2.5,2.9,3.5,4.9c0.7,1.4,0.6,1.4,2.5,0.7c6.7-2.6,18.1-2,23.4,1.3c1.4,0.9,1.3,1.4-0.2,0.6c-4.5-2.5-14.4-3.5-20.2-2
		c-1.3,0.3-4,1.2-4.6,1.6c-0.6,0.3-0.7,0.3-0.7,0c-0.7-2.3-4.7-7.8-5.7-7.8c-0.4,0-3.1,2.3-4.6,3.9l-1.5,1.6l-1.3-1.7
		c-2.6-3.5-5-5.7-7.9-7.2c-1.9-1-2-1-3,0c-1.1,1.1-2.3,1.9-3.5,2.2l-1,0.3l-0.1,2.4c-0.2,4.6-1.6,7.7-5.3,11.5c-1,1-1,0.9-0.2,1.7
		c1.2,1.1,5,3.6,5.5,3.6c0.3,0,5,1.9,5.7,2.4c0.4,0.3,0.9,0.5,1.1,0.6c0.2,0.1,0.9,0.5,1.5,0.9c22.9,14.9,18.5,49.3-7.4,57.9
		c-8.3,2.8-20.2,1.5-26.5-2.9c-0.4-0.3-0.8-0.5-0.8-0.5c-0.2,0-1.9-1.2-3.5-2.5c-1.3-1.1-3.6-3.3-4.2-4.2c-0.2-0.3-0.7-0.9-1.1-1.4
		c-1.3-1.7-4.2-6.8-4.2-7.5c0-0.1-0.3-0.8-0.6-1.7c-2-5.4-2.2-13.5-0.5-19c3-9.3,8-15.4,16.5-20c1.8-1,2-1.3,1-1.5
		c-1.3-0.3-5.7-2.6-7.4-3.7c-3.9-2.8-6.9-5.9-9.3-10l-0.5-0.9l0.6-0.6c5.8-6.5,19.1-6.2,26,0.6c0.8,0.8,1.5,1.4,1.5,1.4
		c0.7,0,3.7-3.6,4.8-5.7c0.9-1.8,0.9-2.1,0.2-2.5c-2.1-1.2-3.3-3.8-3.3-7v-2.5l0.7-1.5c2.8-5.8,11-8.4,19.2-6.2
		c2.4,0.7,2.4,0.7,5.1-1.2c6.3-4.2,9.9-8.7,11.7-14.7c0.2-0.7,0.4-1.3,0.4-1.4C-86.9,367.3-86.2,367.7-84.2,369.3 M-169,377
		c-3,9.1-2.9,20,0.3,29.2c0.4,1.3,1,2.7,1.2,3.2s0.4,1,0.5,1.2c0.5,1.7,4,6.9,6.9,10.3c0.9,1,0.9,1-1.6-1.2
		c-7.7-6.9-12.9-18.4-14-31c-0.4-4.2-0.1-5.7,1.3-7.3c0.4-0.5,1.2-1.4,1.8-2.1c1.4-1.6,4.2-4.5,4.3-4.4
		C-168.3,374.8-168.6,375.8-169,377 M-116.8,390.3c-5.3,1.4-4.4,9.3,1.1,9.3c4.9,0,6.4-6.7,2-8.9
		C-114.5,390.2-116,390.1-116.8,390.3 M-120.3,403.7c-0.2,0.5-0.4,1.1-0.5,1.3c-0.1,0.2-0.4,0.8-0.7,1.2c-0.3,0.5-0.6,0.9-0.6,1
		c0,0.2-1.8,2.3-2.5,3c-0.8,0.7-0.8,1.1-0.1,2.2c0.3,0.5,0.8,1.2,1,1.7c1,1.7,2.5,3.5,2.9,3.5c0.3,0,2.8-2.8,3.5-3.8
		c1.7-2.6,2.6-5.2,2.6-8.1l0-1.9l-1.3,0c-1.1,0-1.9-0.2-3.9-0.8C-119.8,402.8-120,403-120.3,403.7 M-183,409.7
		c0.2,0.3,0.3,0.5,0.3,0.6c0,0.2,2.1,3.4,2.5,3.8c0.1,0.1,0.3,0.4,0.4,0.6c0.6,1,4.4,5.4,6.3,7.1c2.9,2.7,6.1,5.2,8.7,6.9
		c0.2,0.1-0.4-0.1-1.4-0.6c-1.8-0.8-3.9-2-4.9-2.7c-0.3-0.2-0.6-0.4-0.7-0.4c-0.1,0-2.2-1.6-3.9-3c-3-2.4-7-6.6-8.8-9.2
		c-0.4-0.6-1.1-1.4-1.4-1.9c-1.4-1.8-1.3-1.5-0.4-5.6l0.3-1.2l1.3,2.5C-183.9,408.1-183.2,409.4-183,409.7 M-129.5,408.3
		c-4.1,2.7-10.6,3.5-14.8,1.8c-2.5-1,1.1,2.8,4.3,4.5c2.9,1.6,7.7,2.9,12.5,3.3c3.8,0.3,5.9,0.5,6.2,0.6c0.5,0.2,0.3-0.4-0.7-1.7
		c-0.5-0.7-1.3-1.8-1.7-2.5c-1.8-2.9-2.7-4.2-3.8-5.3C-128.9,407.8-128.8,407.8-129.5,408.3 M-186.7,425.7c3.1,2.6,9.2,6.7,10.9,7.2
		c0.2,0.1,0.6,0.3,1,0.4c0.3,0.2,1.4,0.6,2.3,1c1.9,0.8,2.2,0.9,1.3,0.7c-2-0.4-8.4-2.8-10.3-4c-0.4-0.3-0.9-0.5-1.1-0.6
		c-0.2-0.1-0.7-0.4-1.2-0.7c-4.4-2.8-4-2.5-4.1-3.3c0-0.4-0.1-0.9-0.1-1.2C-188.1,424.6-188,424.6-186.7,425.7 M-126.7,429.5
		c-1.3,0.2-1.1-0.1-3.5,6.1c-0.4,1.1-1.1,2.8-1.4,3.7c-0.6,1.6-1.2,3.1-2.8,7.2c-0.4,1-1,2.7-1.4,3.7c-0.4,1-1.1,2.8-1.5,3.9
		c-0.4,1.1-1,2.6-1.3,3.3c-0.3,0.7-0.7,1.7-0.8,2.1c-0.2,0.5-0.5,1.3-0.7,1.9c-0.2,0.6-0.4,1.1-0.4,1.2c0,0.2-0.5,0.2-2.8,0.2
		c-3.3,0-3.1-0.2-2,2.1c1.3,2.5,0.9,2.3,4.8,2.3l3.3,0l0.7-1.9c0.4-1,1.1-2.8,1.5-4c0.4-1.2,1.1-2.9,1.5-3.9c0.4-0.9,0.8-2,0.9-2.4
		l0.2-0.7l2.3,0l2.3,0v11.7v11.7l0.5,0.1c0.3,0.1,1.2,0.2,2.1,0.2l1.6,0.1v-24.4v-24.4l-1.2,0C-125.7,429.4-126.4,429.4-126.7,429.5
		 M-115.7,433.4c-2.8,0.5-5.7,2.8-7.1,5.5c-0.9,1.7-0.8-0.6-0.7,21.9l0,17.5l1.5-0.1c0.8-0.1,1.7-0.2,2.1-0.2l0.6-0.1V468v-9.9
		l1.5,2.4c0.8,1.3,1.8,3,2.3,3.7c0.4,0.7,1.1,1.7,1.4,2.3l0.6,1h5.1h5.1l0.7-1.1c0.7-1,1.5-2.7,1.5-3.2c0-0.2-1.1-0.2-5.1-0.2h-5.1
		l-1.5-2.2c-1.5-2.1-2.9-4.2-4.8-7.1c-0.9-1.3-0.9-1.3-0.3-1c5,2.8,12.5-0.6,14-6.3C-101.9,438.7-108,431.9-115.7,433.4 M-111,438.3
		c4.2,2.2,4.2,8-0.1,10.3c-2.9,1.6-6.6,0.1-7.8-3.1C-120.9,440.5-115.7,435.9-111,438.3 M-179.2,442.1c1.5,0.3,3.6,0.7,4.7,0.8
		c3.1,0.3,2.8,0.3-1.1,0.2c-3.2-0.1-7.4-0.5-8.7-0.9c-0.3-0.1-0.5-0.5-0.7-1.3l-0.1-0.4l1.6,0.5
		C-182.7,441.3-180.7,441.8-179.2,442.1 M-127.9,446.2v3.9h-1.5h-1.5l0.4-0.9c0.2-0.5,0.4-1,0.4-1.1c0-0.1,0.3-1,0.7-1.9
		c0.4-0.9,0.8-2.2,1-2.7C-127.9,442-127.9,441.9-127.9,446.2 M-173.2,451.8c-0.7,0.2-2.1,0.4-3.2,0.5c-1.1,0.1-2.3,0.2-2.7,0.3
		c-0.7,0.1-0.8,0.1-1.1-0.4l-0.3-0.5l3.6,0c2,0,3.7,0,3.7-0.1c0,0,0.3-0.1,0.6-0.1C-172.1,451.5-172.3,451.6-173.2,451.8
		 M-169.5,458.7c-1.1,1.1-4.7,2.6-5,2.1c-0.3-0.4-0.1-0.6,0.6-0.6c0.2,0,1.3-0.3,2.3-0.8C-169.9,458.7-169.4,458.6-169.5,458.7
		 M-167,466c-0.3,0.4-1.8,1.4-1.9,1.2c-0.1-0.1-0.1-0.2,0-0.3c0.1,0,0.5-0.3,1-0.6C-166.9,465.8-166.9,465.8-167,466"/>
</g>
</svg>
