<?xml version="1.0" encoding="utf-8"?>
<!-- Generator: Adobe Illustrator 19.0.0, SVG Export Plug-In . SVG Version: 6.00 Build 0)  -->
<svg version="1.1" id="Capa_1" xmlns="http://www.w3.org/2000/svg" xmlns:xlink="http://www.w3.org/1999/xlink" x="0px" y="0px"
	 viewBox="-210 325.9 173.5 190" style="enable-background:new -210 325.9 173.5 190;" xml:space="preserve">
<g id="XMLID_100_">
	<path d="M-45.1,494.1h-156.3c-2,0-3.8-1-4.8-2.7s-1-3.8,0-5.5l78.1-135.4c1-1.7,2.8-2.8,4.8-2.8l0,0c2,0,3.8,1,4.8,2.7l78.2,135.4
		c1,1.7,1,3.8,0,5.5C-41.3,493-43.1,494.1-45.1,494.1z M-191.9,483.1h137.3l-68.7-118.9L-191.9,483.1z"/>
</g>
<path d="M-102.2,458.7c0,0,0.9-10.6-2.5-16.6c1.2-0.5,11.8-3.3,12.3-4.1c-1.2-3.9-10.6-5.2-13.7-7.9c-3.7-3.2-5.3-6-9.2-8
	c-2.2-1.2-8.4-0.7-8.4-0.7c-5.7-5.5-8.9-4.1-10.6-5.2c-1.5-1-5.9-6.4-7.9-6.2c-2.2,0.3-2.5,2.5-2.6,4.3c-1.7,1.3-3.5,2.8-3.3,3.4
	c0,0,1.7-1,3.2-1.7c0,0.2-0.1,0.3-0.1,0.4c0.5,2.1,1.5,2.9,2.1,4.8c-0.1,2.3-4.3-1.2-5.2,0.7c0,0,3.8,8.1,13.5,18.3
	c7.9,6.1,1.8,32.3,1.8,32.3s16.4-8.9,22.4-2.6c6,6.3,11.5,2.5,11.5,2.5C-101.5,471.4-102.2,458.7-102.2,458.7L-102.2,458.7z
	 M-102.2,458.7"/>
</svg>
