<?xml version="1.0" encoding="utf-8"?>
<!-- Generator: Adobe Illustrator 19.0.0, SVG Export Plug-In . SVG Version: 6.00 Build 0)  -->
<svg version="1.1" id="Capa_1" xmlns="http://www.w3.org/2000/svg" xmlns:xlink="http://www.w3.org/1999/xlink" x="0px" y="0px"
	 viewBox="-210 325.9 173.5 190" style="enable-background:new -210 325.9 173.5 190;" xml:space="preserve">
<g id="XMLID_100_">
	<path d="M-45.1,494.1h-156.3c-2,0-3.8-1-4.8-2.7s-1-3.8,0-5.5l78.1-135.4c1-1.7,2.8-2.8,4.8-2.8l0,0c2,0,3.8,1,4.8,2.7l78.2,135.4
		c1,1.7,1,3.8,0,5.5C-41.3,493-43.1,494.1-45.1,494.1z M-191.9,483.1h137.3l-68.7-118.9L-191.9,483.1z"/>
</g>
<path d="M-98.6,424.3c-2.2,0-13.1,0.1-19.4,1.8c0-0.1,0-0.3,0-0.5c0-1.2-0.4-2.3-1.2-3.2l3.1-3.1c0.3-0.3,0.3-0.9,0-1.2
	c-0.3-0.3-0.9-0.3-1.2,0l-3.1,3.1c-0.8-0.5-1.8-0.8-2.8-0.8s-2,0.3-2.8,0.8l-3.1-3.1c-0.3-0.3-0.9-0.3-1.2,0c-0.3,0.3-0.3,0.9,0,1.2
	l3.1,3.1c-0.7,0.9-1.2,2.1-1.2,3.2c0,0.1,0,0.3,0,0.5c-6.3-1.8-17.3-1.8-19.4-1.8c-3.6,0-9,0-9,5.8c0,5,4,9,9,9
	c0.5,0,1.4-0.1,2.3-0.1c1.3,1.4,3.1,2.2,4.9,2.2c0.8,0,1.5-0.1,2.3-0.4c1.8-0.6,5.7-2.9,8.8-5.1c0.1,0.2,0.3,0.5,0.5,0.7
	c-0.8,0.7-1.5,1.5-2.1,2.5c-1.5,0.4-6.3,2.3-5.3,10.1c0.1,0.4,0.4,0.8,0.8,0.8c0.1,0,0.1,0,0.1,0c0.5-0.1,0.8-0.5,0.8-1
	c-0.6-4.7,1.2-6.8,2.7-7.7c-0.2,0.8-0.3,1.5-0.3,2.3c0,0.6,0.1,1.5,0.2,2.5c0,0.1,0,0.1,0,0.2c0.7,4.4,2.6,11.7,5.5,15.3
	c0,0.1,0,0.1,0,0.1l2.5,7.9c0.1,0.3,0.4,0.6,0.8,0.6s0.7-0.3,0.8-0.6l2.5-7.9c0-0.1,0-0.1,0-0.1c2.9-3.5,4.8-10.8,5.5-15.3
	c0-0.1,0-0.1,0-0.2c0.1-1,0.2-1.9,0.2-2.5c0-0.8-0.1-1.5-0.3-2.3c1.5,0.9,3.4,2.9,2.7,7.7c-0.1,0.5,0.3,0.9,0.8,1c0.1,0,0.1,0,0.1,0
	c0.4,0,0.8-0.3,0.8-0.8c1-7.7-3.8-9.7-5.3-10.1c-0.5-1-1.2-1.8-2.1-2.5c0.2-0.3,0.3-0.5,0.5-0.8c3.1,2.3,7.1,4.5,8.8,5.2
	c0.8,0.3,1.5,0.4,2.3,0.4c1.8,0,3.6-0.8,4.9-2.1c1,0.1,1.8,0.1,2.3,0.1c5,0,9-4,9-9C-89.6,424.3-95,424.3-98.6,424.3z M-119.8,425.2
	c-1-0.5-2.2-0.9-3.5-0.9c-1.3,0-2.5,0.3-3.5,0.9c0.3-1.7,1.7-3,3.5-3S-120,423.5-119.8,425.2z M-139,439.2c-2,0.8-4.2,0.1-5.5-1.6
	c-0.2-0.2-0.5-0.3-0.8-0.3c-1.1,0.1-2,0.2-2.6,0.2c-4,0-7.3-3.3-7.3-7.3c0-3.4,2.4-4,7.3-4c1.3,0,12.1,0.1,18.4,1.6
	c-0.8,1.2-1.2,2.5-1.2,4c0,0.8,0.1,1.6,0.3,2.3C-133.6,436.4-137.5,438.6-139,439.2z M-116.3,446.8c-1.7-2.1-4.2-3.3-7-3.3
	s-5.3,1.2-7,3.3c-0.1-0.3-0.1-0.6-0.1-1c0.8-3.3,3.8-5.5,7.1-5.5s6.3,2.3,7.1,5.5C-116.2,446.1-116.2,446.4-116.3,446.8z
	 M-118.3,454.2c-0.3,0.8-0.6,1.6-0.9,2.3c-1.3-0.6-2.7-1-4.1-1c-1.4,0-2.9,0.3-4.1,1c-0.3-0.7-0.6-1.4-0.9-2.3
	c-0.1-0.4-0.3-0.8-0.4-1.2c1.4-1.5,3.4-2.4,5.4-2.4c2.1,0,4,0.9,5.4,2.4C-118,453.4-118.1,453.8-118.3,454.2z M-123.3,466.2l-1-3.1
	c0.3,0.1,0.7,0.2,1,0.2s0.7-0.1,1-0.2L-123.3,466.2z M-123.3,434.2c-1.6,0-3.1,0.4-4.4,1.2c-0.8-1-1.3-2.3-1.3-3.6
	c0-3.1,2.5-5.7,5.7-5.7s5.7,2.5,5.7,5.7c0,1.3-0.5,2.6-1.3,3.6C-120.1,434.6-121.6,434.2-123.3,434.2z M-98.6,437.5
	c-0.6,0-1.5-0.1-2.6-0.2c-0.3-0.1-0.6,0.1-0.8,0.3c-1.3,1.6-3.6,2.3-5.5,1.6c-1.5-0.5-5.5-2.7-8.7-5.1c0.2-0.7,0.3-1.4,0.3-2.3
	c0-1.5-0.4-2.9-1.2-4c6.4-1.6,17.2-1.6,18.4-1.6c5,0,7.3,0.6,7.3,4C-91.2,434.2-94.6,437.5-98.6,437.5z"/>
</svg>
