<?xml version="1.0" encoding="utf-8"?>
<!-- Generator: Adobe Illustrator 19.0.0, SVG Export Plug-In . SVG Version: 6.00 Build 0)  -->
<svg version="1.1" id="Capa_1" xmlns="http://www.w3.org/2000/svg" xmlns:xlink="http://www.w3.org/1999/xlink" x="0px" y="0px"
	 viewBox="-210 325.9 173.5 190" style="enable-background:new -210 325.9 173.5 190;" xml:space="preserve">
<g id="XMLID_100_">
	<path d="M-45.1,494.1h-156.3c-2,0-3.8-1-4.8-2.7s-1-3.8,0-5.5l78.1-135.4c1-1.7,2.8-2.8,4.8-2.8l0,0c2,0,3.8,1,4.8,2.7l78.2,135.4
		c1,1.7,1,3.8,0,5.5C-41.3,493-43.1,494.1-45.1,494.1z M-191.9,483.1h137.3l-68.7-118.9L-191.9,483.1z"/>
</g>
<path d="M-120.9,446.6h-16.3c-0.7,0-1.3,0.6-1.3,1.3v22.7c0,0.7,0.6,1.3,1.3,1.3h16.3c0.7,0,1.3-0.6,1.3-1.3v-22.7
	C-119.6,447.1-120.2,446.6-120.9,446.6z M-120.8,470.5h-16.4v-0.5h16.4V470.5z M-135.9,459.9c0-3.8,3.1-6.8,6.8-6.8
	c3.8,0,6.8,3.1,6.8,6.8c0,3.8-3.1,6.8-6.8,6.8C-132.8,466.7-135.9,463.7-135.9,459.9z M-120.7,451.4h-16.6v-3.7h16.6V451.4z
	 M-134.5,449.1h-0.7v0.9h0.7V449.1z M-123,459.9c0-3.3-2.7-6-6-6c-3.3,0-6,2.7-6,6c0,3.3,2.7,6,6,6
	C-125.7,465.9-123,463.2-123,459.9z M-134.5,459.9c0-3,2.4-5.4,5.5-5.5c3,0,5.4,2.4,5.5,5.5c0,3-2.4,5.4-5.5,5.5
	C-132.1,465.3-134.5,462.9-134.5,459.9z M-125.9,457.4l-5.7,5.7l0.3,0.3l5.7-5.7L-125.9,457.4z M-122.9,450.6c0.6,0,1.1-0.5,1.1-1.1
	c0-0.6-0.5-1.1-1.1-1.1c-0.6,0-1.1,0.5-1.1,1.1C-124,450.1-123.5,450.6-122.9,450.6z M-133.4,449.1h-0.7v0.9h0.7V449.1z M-128,457.4
	l-4.5,4.5l0.3,0.3l4.5-4.5L-128,457.4z M-125.9,450.6c0.6,0,1.1-0.5,1.1-1.1c0-0.6-0.5-1.1-1.1-1.1c-0.6,0-1.1,0.5-1.1,1.1
	C-127,450.1-126.5,450.6-125.9,450.6z M-135.5,449.1h-0.8v0.9h0.8L-135.5,449.1L-135.5,449.1z"/>
<path d="M-115.8,470.6c0,0.7,0.6,1.3,1.3,1.3h20.1c0.7,0,1.3-0.6,1.3-1.3v-31.8h-22.7V470.6z M-114.2,441.2h5.9v1.3h-5.9V441.2z
	 M-94.4,419.6h-20.1c-0.7,0-1.3,0.6-1.3,1.3v16.1h22.7V421C-93.1,420.2-93.7,419.6-94.4,419.6z M-108.4,435.3h-5.9v-1.3h5.9V435.3z"
	/>
<path d="M-151.7,461.8l-0.3-0.3l-6.4,6.4l0.3,0.3L-151.7,461.8z M-143.3,458.8h-17.1c-0.5,0-0.9,0.4-1,0.8v11.8
	c0.1,0.5,0.5,0.8,1,0.8h17.1c0.5,0,0.9-0.4,1-0.8v-11.8C-142.4,459.2-142.8,458.8-143.3,458.8z M-146.4,463.4h0.8v0.9h-0.8V463.4z
	 M-146.4,464.6h0.8v0.9h-0.8V464.6z M-146.4,465.8h0.8v0.9h-0.8V465.8z M-146.4,467h0.8v0.9h-0.8V467z M-147.6,470.5h-12.1v-9.9
	h12.1V470.5z M-143.6,470.5h-2.8v-1.1h2.8V470.5z M-144.6,464.6v0.9h-0.7v-0.9H-144.6z M-145.3,464.3v-0.9h0.7v0.9H-145.3z
	 M-144.6,465.8v0.9h-0.7v-0.9H-144.6z M-144.6,467v0.9h-0.7V467H-144.6z M-143.6,467.9h-0.7V467h0.7V467.9z M-143.6,466.7h-0.7v-0.9
	h0.7V466.7z M-143.6,465.5h-0.7v-0.9h0.7V465.5z M-143.6,464.3h-0.7v-0.9h0.7V464.3z M-143.6,462.7h-2.8v-2h2.8V462.7z
	 M-156.7,469.9l8.1-8.1l-0.3-0.3l-8.1,8.1L-156.7,469.9z"/>
</svg>
