<?xml version="1.0" encoding="utf-8"?>
<!-- Generator: Adobe Illustrator 19.0.0, SVG Export Plug-In . SVG Version: 6.00 Build 0)  -->
<svg version="1.1" id="Capa_1" xmlns="http://www.w3.org/2000/svg" xmlns:xlink="http://www.w3.org/1999/xlink" x="0px" y="0px"
	 viewBox="-210 325.9 173.5 190" style="enable-background:new -210 325.9 173.5 190;" xml:space="preserve">
<g id="XMLID_100_">
	<path d="M-45.1,494.1h-156.3c-2,0-3.8-1-4.8-2.7s-1-3.8,0-5.5l78.1-135.4c1-1.7,2.8-2.8,4.8-2.8l0,0c2,0,3.8,1,4.8,2.7l78.2,135.4
		c1,1.7,1,3.8,0,5.5C-41.3,493-43.1,494.1-45.1,494.1z M-191.9,483.1h137.3l-68.7-118.9L-191.9,483.1z"/>
</g>
<path d="M-99.9,448.2c-1.7,0-3.2,1.4-3.2,3.2c0,1.7,1.4,3.2,3.2,3.2c1.7,0,3.2-1.4,3.2-3.2C-96.7,449.6-98.1,448.2-99.9,448.2z
	 M-99.9,452.9c-0.9,0-1.6-0.7-1.6-1.6s0.7-1.6,1.6-1.6s1.6,0.7,1.6,1.6S-99,452.9-99.9,452.9z"/>
<path d="M-143.6,441c-2,0-3.6,1.6-3.6,3.6c0,2,1.6,3.6,3.6,3.6c2,0,3.6-1.6,3.6-3.6C-140,442.6-141.6,441-143.6,441z M-143.6,446.6
	c-1.1,0-2-0.9-2-2c0-1.1,0.9-2,2-2c1.1,0,2,0.9,2,2C-141.6,445.7-142.5,446.6-143.6,446.6z"/>
<path d="M-92.7,439.4c-1.3,0-2.3,1-2.3,2.3c0,1.3,1,2.3,2.3,2.3c1.3,0,2.3-1,2.3-2.3C-90.5,440.4-91.5,439.4-92.7,439.4z
	 M-92.7,442.3c-0.4,0-0.7-0.3-0.7-0.7c0-0.4,0.3-0.7,0.7-0.7s0.7,0.3,0.7,0.7C-92.1,442-92.4,442.3-92.7,442.3z"/>
<path d="M-157,437.5c1.3,0,2.3-1,2.3-2.3c0-1.3-1-2.3-2.3-2.3s-2.3,1-2.3,2.3C-159.2,436.5-158.2,437.5-157,437.5z M-157,434.6
	c0.4,0,0.7,0.3,0.7,0.7c0,0.4-0.3,0.7-0.7,0.7s-0.7-0.3-0.7-0.7C-157.6,434.9-157.3,434.6-157,434.6z"/>
<path d="M-145.7,450.6c-1.3,0-2.3,1-2.3,2.3c0,1.3,1,2.3,2.3,2.3s2.3-1,2.3-2.3C-143.5,451.6-144.5,450.6-145.7,450.6z
	 M-145.7,453.6c-0.4,0-0.7-0.3-0.7-0.7c0-0.4,0.3-0.7,0.7-0.7s0.7,0.3,0.7,0.7C-145.1,453.3-145.4,453.6-145.7,453.6z"/>
<circle cx="-97" cy="436.5" r="1.2"/>
<circle cx="-150.9" cy="428.5" r="1.2"/>
<path d="M-112.3,440c-0.7-0.7-0.1-1.7,0.1-1.9c0.2-0.4,0-1.1-0.4-1.5c-0.5-0.5-0.5-1.3-0.1-1.9c0.3-0.4,0.3-1,0-1.5
	c-0.1-0.2-0.5-1.4,0.2-2c0.4-0.4,0.7-1.1,0.4-1.5c-0.2-0.3-0.1-0.8-0.1-1.3c0-0.6-0.6-0.9-1.2-0.6c0,0-5.3,1.5-5.3,1.5
	c-0.1,0,0-0.6,0-0.6c0.1-0.4,0.4-0.7,0.8-0.8c0.4-0.1,0.6-0.4,0.7-0.8c0.1-0.4,0-0.7-0.2-1c-0.5-0.6-0.2-1.6,0.6-1.8
	c0.4-0.1,0.6-0.4,0.8-0.7c0.1-0.4,0-0.7-0.2-1c-0.5-0.6-0.2-1.6,0.6-1.8c0.4-0.1,0.6-0.4,0.7-0.7c0.1-0.4,0-0.7-0.2-1
	c-0.5-0.6-0.3-1.6,0.5-1.9c0.4-0.1,0.6-0.4,0.7-0.8c0.1-0.4,0-0.7-0.3-1c-0.6-0.6-0.4-1.6,0.3-2c0.3-0.2,0.5-0.5,0.6-0.9
	c0-0.4-0.2-0.7-0.4-0.9c-0.7-0.5-0.9-1.5-0.4-2.2c0.2-0.3,0.2-0.7,0-1.1c-0.2-0.3-0.5-0.6-0.9-0.6c-0.9-0.1-1.6-0.8-1.6-1.7
	c0-0.4-0.2-0.7-0.5-0.9c-0.3-0.2-0.7-0.2-1.1-0.1c-0.3,0.1-0.7,0.3-1.2,0.1c-0.4-0.1-0.7-0.4-0.8-0.8c-0.1-0.4-0.4-0.6-0.8-0.7
	c-0.4-0.1-0.8,0-1,0.3c-0.4,0.4-0.8,0.4-1.3,0.4c-0.7,0-1.4-0.3-2-0.7c-0.4-0.2-0.8-0.5-1.4-0.5c-1.1,0.1-2.1,1.2-2.3,2.7
	c-0.2,0.8-2.7,4.7-6.2,7.7c-2.8,2.4-4,2.3-4.6,2.3c-0.1,0-0.2,0-0.3,0c-0.3,0-1,0.1-1.1,1.4c-0.1,1.4,0.8,4.1,2.5,4.3
	c0.3,0,0.5-0.1,0.6-0.2c0.8-0.8,3.1-2.4,5.7-2c2.2,0.4,5.3-0.2,6.7-1.7c0,0.3,0,0.8-0.2,1.6c-0.2,0.7-1.1,2.3-2.2,4.1
	c-3.1,5.1-7.9,12.8-6.3,19.3c1,4.1,4.4,7.9,7.7,11.6c3.3,3.6,6.3,7,6,9.7c-0.5,3.2-2.8,5.1-5.8,4.7c-0.8-0.1-1.5-0.6-2-1.2
	c-0.5-0.7-0.7-1.5-0.6-2.3c0.1-0.4,0.3-0.8,0.7-1c-0.1,0.2-0.2,0.5-0.2,0.7c0,1.1,0.9,1.9,1.9,1.9c1.5,0,2.6-1.2,2.6-2.6
	c0-2.1-1.7-3.9-3.9-3.9c-3.3,0-5.9,2.7-5.9,5.9c0,5.1,4.2,9.3,9.3,9.3c1.1,0,5.1-0.3,8-3.7c0.2-0.1,0.5-0.2,0.7-0.1
	c0.4,0,0.7-0.2,1-0.5c0.2-0.3,0.3-0.7,0.1-1.1c-0.2-0.4-0.2-0.8,0-1.2c0.2-0.4,0.5-0.6,0.9-0.7c0.4-0.1,0.7-0.4,0.8-0.7
	c0.1-0.4,0-0.8-0.2-1c-0.3-0.3-0.3-0.7-0.3-1.1c0-0.4,0.4-0.7,0.7-0.9c0.3-0.2,0.6-0.5,0.6-0.9c0-0.4-0.1-0.8-0.4-1
	c-0.3-0.2-0.5-0.6-0.5-1c0-0.4,0.2-0.7,0.5-0.9c0.3-0.2,0.5-0.6,0.5-1c0-0.4-0.2-0.7-0.5-0.9c-0.7-0.4-0.8-1.4-0.2-2
	c0.3-0.3,0.4-0.6,0.3-1c-0.1-0.4-0.3-0.7-0.6-0.8c-0.7-0.3-1-1.3-0.4-1.9c0.2-0.3,0.3-0.7,0.2-1c-0.1-0.4-0.4-0.6-0.7-0.8
	c-0.8-0.2-1.1-1.2-0.6-1.9c0.2-0.3,0.3-0.7,0.2-1c-0.1-0.4-0.4-0.6-0.8-0.7c-0.4-0.1-0.7-0.4-0.8-0.7c-0.1-0.4-0.1-0.8,0.1-1.1
	c0.2-0.3,0.3-0.7,0.1-1c-0.1-0.3-0.4-0.6-0.8-0.7c-0.4-0.1-0.7-0.3-0.8-0.7c-0.1-0.2-0.1-0.4-0.1-0.5l4.8,1.6
	c0.8,0.3,1.3-0.3,1.2-0.9c-0.1-0.5-0.1-1,0.1-1.3C-111.6,440.9-111.9,440.4-112.3,440z M-117.6,440.6c-0.1-0.3-0.4-0.6-0.8-0.7
	c-0.4-0.1-0.6-0.3-0.8-0.7c-0.1-0.4,0-0.8,0.2-1c0.2-0.3,0.4-0.6,0.3-1c-0.1-0.4-0.3-0.6-0.7-0.8c-0.3-0.1-0.6-0.4-0.6-0.8
	c0-0.1,0-0.3,0.1-0.5c0.1-0.2,0.2-0.3,0.4-0.4c0.3-0.2,0.5-0.5,0.6-0.9c0-0.4-0.1-0.7-0.4-1c-0.6-0.6-0.1-1.6,0.3-1.8
	c0.3-0.1,0.5-0.4,0.6-0.7l4.3-1.3c0,0.3,0.1,0.6,0.2,0.8c-0.6,0.8-0.9,1.5-0.8,2.2l-2.6,0.2c-0.4,0-0.8,0.4-0.7,0.9
	c0,0.4,0.4,0.8,0.8,0.8c0,0,0,0,0.1,0c0,0,2.8-0.2,2.8-0.2c-0.1,0-0.7,1.2-0.3,2.8l-2.5-0.2c-0.4-0.1-0.8,0.3-0.9,0.7
	c0,0.4,0.3,0.8,0.7,0.9l3.1,0.3c-0.1,0.4-0.4,1.8,0.6,2.9c-0.1,0.2-0.1,0.5-0.1,0.7L-117.6,440.6z M-132.5,465.4
	c0-2.4,1.9-4.3,4.3-4.3c0.6,0,1.2,0.3,1.6,0.7c-0.2-0.1-0.5-0.2-0.8-0.3c-1.7-0.2-3.3,0.9-3.6,2.7c-0.4,2.6,1.4,5,4,5.3
	c0.4,0.1,0.7,0.1,1.1,0.1c1.2,0,2.2-0.3,3.1-0.8c0.1,0,0.2,0,0.2-0.1c0,0,0-0.1,0-0.1c0.8-0.5,1.5-1.2,2.1-2.1
	c0.1,0,0.2-0.1,0.3-0.2c0-0.1,0-0.2,0-0.2c0.4-0.8,0.7-1.6,0.8-2.6c0-0.1,0-0.3,0-0.4c0,0.1,0.1,0.2,0.3,0.2c0.1,0,0.3-0.1,0.3-0.3
	s-0.1-0.3-0.3-0.3c-0.1,0-0.2,0.1-0.3,0.2c0.1-3.3-3-6.8-6.4-10.6c-3.2-3.5-6.5-7.2-7.4-10.9c-1.4-5.8,3.1-13.2,6.1-18.1
	c1.3-2.1,2.2-3.6,2.4-4.6c0.4-2,0.2-3.2-0.7-3.7c-0.6-0.3-1.4-0.1-1.8,0.5c-0.8,1.1-3.3,1.7-5.3,1.3c-3-0.5-5.5,1.1-6.7,2
	c-0.1-0.1-0.2-0.2-0.2-0.3c-0.4-0.6-0.6-1.6-0.6-2.1c0.9,0,2.5-0.3,5.3-2.7c3.4-2.9,6.5-7,6.7-8.6c0.2-0.9,0.6-1.4,0.9-1.4
	c0.1,0,0.2,0.1,0.4,0.2c0.8,0.5,1.6,0.9,2.6,1c0.1,0,0.2,0,0.3,0c0.7,0,1.3,0,2-0.4c0.3,0.5,0.8,1,1.5,1.2c0.6,0.2,1.2,0.3,1.8,0.1
	c0.3,1.2,1.2,2.1,2.3,2.4c-0.4,1.1-0.2,2.5,0.7,3.3c0,0-0.5,0.6-0.6,0.7c-0.2,0.3-0.3,0.6-0.4,0.9c-0.1,0.6,0,1.4,0.4,2
	c0-0.1-0.7,0.7-0.8,0.8c-0.5,0.9-0.5,1.9-0.1,2.8c-1.6,0.9-1.7,2.4-1.3,3.6c-1.6,1-1.5,3-1.2,3.6c-0.6,0.4-1.7,1.9-0.8,3.6
	c-0.2,0.1-0.4,0.3-0.5,0.5c-0.3,0.3-1,1.9-0.1,3.3c-0.2,0.2-0.3,0.3-0.4,0.5c-0.6,1.1-0.4,2.6,0.6,3.3c0,0-0.2,0.5-0.2,0.6
	c-0.1,0.2-0.1,0.4-0.1,0.6c0,1,0.5,2,1.4,2.5c-0.3,0.6-0.3,2.5,1.4,3.5c-0.5,1.6,0.5,3.2,1.4,3.5c-0.3,0.6-0.6,2.3,1,3.5
	c-0.4,1.4-0.2,2.7,1,3.6c0,0-0.4,0.8-0.4,0.9c-0.1,0.4-0.2,1,0,1.4c-0.1,0-0.2,0-0.3,0c-0.4,0.1-0.7,0.5-0.7,0.9s0.5,0.7,0.9,0.7
	c0.3,0,0.5-0.2,0.6-0.5c0.1,0.1,0.3,0.2,0.4,0.2c-0.4,0.5-0.6,1.1-0.6,1.8c0,0.5,0.1,1.4,0.6,1.9c-1.4,1-1.3,2.7-0.9,3.5
	c-0.5,0.3-1,0.7-1.2,1.3c-0.3,0.1-0.5,0.2-0.6,0.5c-0.1,0.3,0,0.7,0.3,0.9c0,0.2,0,0.4,0,0.6c-0.6,0.1-1.2,0.4-1.6,0.8
	c-0.1,0.1-0.2,0.2-0.2,0.4c-0.4,0.4-0.8,0.7-1.2,1c-0.3-0.1-0.6-0.1-0.9,0.1c-0.2,0.1-0.2,0.3-0.3,0.5c-1,0.5-2,0.7-2.8,0.9
	c-0.2-0.2-0.5-0.4-0.8-0.3c-0.2,0-0.4,0.2-0.5,0.4c-1.4,0-2.7-0.4-3.8-1.1c-0.1-0.1-0.2-0.1-0.3-0.2
	C-131.1,470.5-132.5,468.1-132.5,465.4z M-127.1,411.1c0,0.7-0.6,1.3-1.3,1.3c-0.7,0-1.3-0.6-1.3-1.3s0.6-1.3,1.3-1.3
	S-127.1,410.4-127.1,411.1z M-118.5,409.7c0.1-0.4,0.5-0.7,0.9-0.7c0.4,0.1,0.7,0.5,0.7,0.9c-0.1,0.4-0.5,0.7-0.9,0.7
	C-118.2,410.5-118.5,410.1-118.5,409.7z M-119.9,411c0-0.3,0.4-0.6,0.7-0.5c0.3,0,0.6,0.4,0.5,0.7c0,0.3-0.4,0.6-0.7,0.5
	C-119.7,411.7-120,411.4-119.9,411z M-121.4,412.3c0-0.2,0.3-0.4,0.5-0.4c0.2,0,0.4,0.3,0.4,0.5c0,0.2-0.3,0.4-0.5,0.4
	S-121.4,412.6-121.4,412.3z M-122.6,414c-0.1,0-0.2-0.2-0.2-0.3c0-0.1,0.2-0.2,0.3-0.2c0.1,0,0.2,0.2,0.2,0.3
	C-122.3,413.9-122.4,414-122.6,414z M-117.2,414.9c0.4,0,0.8,0.3,0.8,0.8c0,0.4-0.3,0.8-0.8,0.8s-0.8-0.3-0.8-0.8
	C-118,415.2-117.7,414.9-117.2,414.9z M-118.3,416.2c0,0.3-0.3,0.6-0.6,0.6s-0.6-0.3-0.6-0.6c0-0.3,0.3-0.6,0.6-0.6
	S-118.3,415.9-118.3,416.2z M-120.1,416.7c0,0.2-0.2,0.4-0.4,0.4s-0.4-0.2-0.4-0.4s0.2-0.4,0.4-0.4S-120.1,416.5-120.1,416.7z
	 M-122.2,417c0.1,0,0.3,0.1,0.3,0.3s-0.1,0.3-0.3,0.3s-0.3-0.1-0.3-0.3S-122.4,417-122.2,417z M-120,421.8c0-0.4,0.3-0.8,0.8-0.8
	s0.8,0.3,0.8,0.8c0,0.4-0.3,0.8-0.8,0.8S-120,422.2-120,421.8z M-121.4,421.6c0-0.3,0.3-0.6,0.6-0.6c0.3,0,0.6,0.3,0.6,0.6
	c0,0.3-0.3,0.6-0.6,0.6S-121.4,421.9-121.4,421.6z M-121.9,421.5c0,0.2-0.2,0.4-0.4,0.4c-0.2,0-0.4-0.2-0.4-0.4s0.2-0.4,0.4-0.4
	C-122.1,421-121.9,421.2-121.9,421.5z M-124.1,421.3c0-0.1,0.1-0.3,0.3-0.3s0.3,0.1,0.3,0.3s-0.1,0.3-0.3,0.3
	C-124,421.6-124.1,421.5-124.1,421.3z M-121.7,426.6c0.4,0,0.8,0.3,0.8,0.8c0,0.4-0.3,0.8-0.8,0.8s-0.8-0.3-0.8-0.8
	C-122.4,426.9-122.1,426.6-121.7,426.6z M-124.1,427.2c0-0.3,0.3-0.6,0.6-0.6c0.3,0,0.6,0.3,0.6,0.6c0,0.3-0.3,0.6-0.6,0.6
	S-124.1,427.6-124.1,427.2z M-125.7,427.1c0-0.2,0.2-0.4,0.4-0.4c0.2,0,0.4,0.2,0.4,0.4s-0.2,0.4-0.4,0.4
	C-125.5,427.5-125.7,427.3-125.7,427.1z M-127.3,426.9c0-0.1,0.1-0.3,0.3-0.3s0.3,0.1,0.3,0.3s-0.1,0.3-0.3,0.3
	C-127.2,427.2-127.3,427.1-127.3,426.9z M-124.1,432.9c0-0.4,0.3-0.8,0.7-0.8c0.4,0,0.8,0.3,0.8,0.7c0,0.4-0.3,0.8-0.7,0.8
	S-124,433.3-124.1,432.9z M-125.7,432.9c0-0.3,0.2-0.6,0.6-0.7s0.6,0.2,0.7,0.6s-0.2,0.6-0.6,0.7
	C-125.4,433.4-125.7,433.2-125.7,432.9z M-126.4,432.7c0,0.2-0.2,0.5-0.4,0.5c-0.2,0-0.5-0.2-0.5-0.4s0.2-0.5,0.4-0.5
	C-126.7,432.3-126.5,432.5-126.4,432.7z M-128.4,432.7c0,0.1-0.1,0.3-0.2,0.3c-0.1,0-0.3-0.1-0.3-0.2c0-0.1,0.1-0.3,0.2-0.3
	C-128.5,432.5-128.4,432.6-128.4,432.7z M-122.4,438.9c-0.4,0.1-0.8-0.2-0.9-0.6c-0.1-0.4,0.2-0.8,0.6-0.9c0.4-0.1,0.8,0.2,0.9,0.6
	C-121.7,438.4-121.9,438.8-122.4,438.9z M-124.2,438.2c0.1,0.3-0.1,0.7-0.5,0.7c-0.3,0.1-0.7-0.1-0.7-0.5c-0.1-0.3,0.1-0.7,0.5-0.7
	C-124.6,437.7-124.3,437.9-124.2,438.2z M-126.7,438.5c0.1,0.2-0.1,0.5-0.3,0.5c-0.2,0.1-0.5-0.1-0.5-0.3c-0.1-0.2,0.1-0.5,0.3-0.5
	S-126.8,438.2-126.7,438.5z M-129.2,438.7c0,0.1-0.1,0.3-0.2,0.3c-0.1,0-0.3-0.1-0.3-0.2c0-0.1,0.1-0.3,0.2-0.3
	C-129.4,438.4-129.2,438.5-129.2,438.7z M-120.7,443.6c-0.4,0.1-0.8-0.1-1-0.5s0.1-0.8,0.5-1c0.4-0.1,0.8,0.1,1,0.5
	S-120.3,443.5-120.7,443.6z M-122.7,443c0.1,0.3-0.1,0.7-0.4,0.8c-0.3,0.1-0.7-0.1-0.8-0.4c-0.1-0.3,0.1-0.7,0.4-0.8
	C-123.1,442.5-122.8,442.6-122.7,443z M-126,443.6c-0.1-0.2,0.1-0.5,0.3-0.5s0.5,0.1,0.5,0.3c0.1,0.2-0.1,0.5-0.3,0.5
	C-125.7,443.9-125.9,443.8-126,443.6z M-127.6,443.7c0,0.1,0,0.3-0.2,0.3c-0.1,0-0.3,0-0.3-0.2c0-0.1,0-0.3,0.2-0.3
	C-127.8,443.5-127.6,443.5-127.6,443.7z M-119.1,448.1c-0.4,0.2-0.9,0-1-0.4c-0.2-0.4,0-0.9,0.4-1c0.4-0.2,0.9,0,1,0.4
	C-118.6,447.4-118.7,447.9-119.1,448.1z M-120.9,447.6c0.1,0.3,0,0.7-0.3,0.8c-0.3,0.1-0.7,0-0.8-0.3c-0.1-0.3,0-0.7,0.3-0.8
	C-121.4,447.2-121,447.3-120.9,447.6z M-123,448.2c0.1,0.2,0,0.5-0.2,0.6c-0.2,0.1-0.5,0-0.6-0.2c-0.1-0.2,0-0.5,0.2-0.6
	C-123.4,447.9-123.1,448-123,448.2z M-125.1,448.8c0.1,0.1,0,0.3-0.1,0.4c-0.1,0.1-0.3,0-0.4-0.1c-0.1-0.1,0-0.3,0.1-0.4
	C-125.3,448.7-125.2,448.7-125.1,448.8z M-117.7,452.7c-0.1-0.4,0.1-0.8,0.5-1c0.4-0.1,0.8,0.1,1,0.5c0.1,0.4-0.1,0.8-0.5,1
	C-117.1,453.4-117.6,453.1-117.7,452.7z M-119,453c-0.1-0.3,0.1-0.7,0.4-0.7c0.3-0.1,0.7,0.1,0.7,0.4c0.1,0.3-0.1,0.7-0.4,0.7
	C-118.6,453.5-118.9,453.3-119,453z M-119.5,452.9c0.1,0.2-0.1,0.5-0.3,0.5c-0.2,0.1-0.5-0.1-0.5-0.3c-0.1-0.2,0.1-0.5,0.3-0.5
	C-119.8,452.6-119.6,452.7-119.5,452.9z M-121.2,453.3c0,0.1,0,0.3-0.2,0.3c-0.1,0-0.3,0-0.3-0.2c0-0.1,0-0.3,0.2-0.3
	C-121.4,453-121.2,453.1-121.2,453.3z M-116.7,459.1c-0.3,0-0.6-0.2-0.7-0.5s0.2-0.6,0.5-0.7c0.3,0,0.6,0.2,0.7,0.5
	C-116.1,458.7-116.4,459-116.7,459.1z M-118.7,458.6c0-0.2,0.1-0.5,0.4-0.5c0.2,0,0.5,0.1,0.5,0.4c0,0.2-0.1,0.5-0.4,0.5
	C-118.5,459-118.7,458.8-118.7,458.6z M-119.6,458.6c0,0.1-0.1,0.3-0.2,0.3c-0.1,0-0.3-0.1-0.3-0.2c0-0.1,0.1-0.3,0.2-0.3
	C-119.7,458.3-119.6,458.4-119.6,458.6z M-116,462.8c0.3,0,0.6,0.3,0.6,0.6s-0.3,0.6-0.6,0.6c-0.3,0-0.6-0.3-0.6-0.6
	C-116.6,463-116.3,462.8-116,462.8z M-117.9,463.2c0-0.2,0.2-0.4,0.4-0.4c0.2,0,0.4,0.2,0.4,0.4c0,0.2-0.2,0.4-0.4,0.4
	C-117.7,463.7-117.9,463.5-117.9,463.2z M-117,467.8c-0.1,0.3-0.5,0.5-0.8,0.4c-0.3-0.1-0.5-0.5-0.4-0.8c0.1-0.3,0.5-0.5,0.8-0.4
	C-117,467.1-116.9,467.4-117,467.8z M-119.3,466.8c0.1-0.2,0.3-0.3,0.6-0.3c0.2,0.1,0.3,0.3,0.3,0.6c-0.1,0.2-0.3,0.3-0.6,0.3
	C-119.3,467.2-119.4,467-119.3,466.8z M-121.2,470.6c0.3-0.2,0.6-0.2,0.9,0.1c0.2,0.3,0.2,0.6-0.1,0.9c-0.3,0.2-0.6,0.2-0.9-0.1
	S-121.5,470.8-121.2,470.6z M-122.1,470.1c-0.2-0.2-0.1-0.5,0-0.6c0.2-0.2,0.5-0.1,0.6,0c0.2,0.2,0.1,0.5,0,0.6
	C-121.6,470.3-121.9,470.3-122.1,470.1z M-124.8,472.1c-0.1-0.3,0.2-0.6,0.5-0.7s0.6,0.2,0.7,0.5c0.1,0.3-0.2,0.6-0.5,0.7
	C-124.5,472.7-124.8,472.5-124.8,472.1z M-124.8,470.6c0-0.2,0.1-0.5,0.3-0.5s0.5,0.1,0.5,0.3c0,0.2-0.1,0.5-0.3,0.5
	C-124.6,471-124.8,470.8-124.8,470.6z M-129.1,471.1c0.1-0.3,0.5-0.5,0.8-0.4c0.3,0.1,0.5,0.5,0.4,0.8s-0.5,0.5-0.8,0.4
	C-129.1,471.7-129.2,471.4-129.1,471.1z M-128.3,469.7c0.1-0.2,0.3-0.4,0.6-0.3c0.2,0.1,0.4,0.3,0.3,0.6c-0.1,0.2-0.3,0.4-0.6,0.3
	C-128.3,470.2-128.4,470-128.3,469.7z M-121.3,407.8c0-0.3,0.3-0.6,0.6-0.6c0.3,0,0.6,0.3,0.6,0.6s-0.3,0.6-0.6,0.6
	C-121,408.4-121.3,408.1-121.3,407.8z M-122.9,410c0-0.2,0.2-0.4,0.4-0.4c0.2,0,0.4,0.2,0.4,0.4s-0.2,0.4-0.4,0.4
	C-122.7,410.4-122.9,410.2-122.9,410z"/>
<path d="M-154.8,445.3c0.4,0,0.8-0.4,0.8-0.8c0-0.4-0.4-0.8-0.8-0.8h-4.8c-0.4,0-0.8,0.4-0.8,0.8c0,0.4,0.4,0.8,0.8,0.8H-154.8z"/>
<path d="M-150.8,447.7h-8c-0.4,0-0.8,0.4-0.8,0.8c0,0.4,0.4,0.8,0.8,0.8h8c0.4,0,0.8-0.4,0.8-0.8C-150,448-150.3,447.7-150.8,447.7z
	"/>
<path d="M-103.4,416.4h4.8c0.4,0,0.8-0.4,0.8-0.8c0-0.4-0.4-0.8-0.8-0.8h-4.8c-0.4,0-0.8,0.4-0.8,0.8
	C-104.2,416-103.8,416.4-103.4,416.4z"/>
<path d="M-96.2,418.8h-11.2c-0.4,0-0.8,0.4-0.8,0.8c0,0.4,0.4,0.8,0.8,0.8h11.2c0.4,0,0.8-0.4,0.8-0.8
	C-95.4,419.1-95.7,418.8-96.2,418.8z"/>
<path d="M-97,424.4c0.4,0,0.8-0.4,0.8-0.8c0-0.4-0.4-0.8-0.8-0.8h-3.2c-0.4,0-0.8,0.4-0.8,0.8c0,0.4,0.4,0.8,0.8,0.8H-97z"/>
</svg>
