<?xml version="1.0" encoding="utf-8"?>
<!-- Generator: Adobe Illustrator 19.0.0, SVG Export Plug-In . SVG Version: 6.00 Build 0)  -->
<svg version="1.1" id="Capa_1" xmlns="http://www.w3.org/2000/svg" xmlns:xlink="http://www.w3.org/1999/xlink" x="0px" y="0px"
	 viewBox="-210 325.9 173.5 190" style="enable-background:new -210 325.9 173.5 190;" xml:space="preserve">
<g id="XMLID_100_">
	<path d="M-45.1,494.1h-156.3c-2,0-3.8-1-4.8-2.7s-1-3.8,0-5.5l78.1-135.4c1-1.7,2.8-2.8,4.8-2.8l0,0c2,0,3.8,1,4.8,2.7l78.2,135.4
		c1,1.7,1,3.8,0,5.5C-41.3,493-43.1,494.1-45.1,494.1z M-191.9,483.1h137.3l-68.7-118.9L-191.9,483.1z"/>
</g>
<path d="M-84.9,434.7l-5.8,3l-0.1,0l-0.1,0l-7.5-0.6l-10,1.7l-0.3,0.3c-0.2,0.2-0.4,0.4-0.6,0.6c-0.1,0.1-0.2,0.2-0.3,0.3
	c-0.1,0.1-0.2,0.2-0.3,0.3c-0.2,0.2-0.4,0.3-0.6,0.5c-0.4,0.3-0.9,0.6-1.3,0.9c-0.5,0.3-0.9,0.5-1.3,0.8c-0.9,0.5-1.8,0.9-2.8,1.3
	c-0.4,0.2-0.9,0.4-1.3,0.5l4.6,2.2l0.4,0.2l0.2,0.2l18.1,23.5l-20.1-21.2l-3.4-1.2c0,0.2,0,0.4,0,0.7c0,0.1,0,0.2,0,0.3l3.9,4.1
	l0.5,0.5l0,0.6l-0.3,6.1l6.7,27.9l-9.2-27.4l0-0.1l0-0.2l-0.2-5.5l-1.2-1.1l-1.3-1.1c0.1,0.2,0.1,0.5,0.1,0.7c0,0.7-0.3,1.3-0.9,1.8
	l-1.1,2c-0.4,0.2-0.8,0.3-1.2,0.4l0-1.2c-0.4,0.1-0.9,0.1-1.4,0.1s-1,0-1.4-0.1l0,1.2c-0.4-0.1-0.8-0.2-1.2-0.4l-1.1-1.9
	c-0.5-0.5-0.9-1.1-0.9-1.8c0-0.3,0-0.5,0.1-0.8l-1.3,1.1l-1.2,1.1l-0.3,5.5l0,0.2l0,0.1l-9.2,27.4l6.7-27.9l-0.3-6.1l0-0.6l0.5-0.5
	l3.9-4.1c0-0.1,0-0.2,0-0.3c0-0.2,0-0.4,0-0.7l-3.4,1.2l-20.1,21.2l18.1-23.5l0.2-0.2l0.4-0.2l4.6-2.2c-0.4-0.2-0.9-0.4-1.3-0.6
	c-0.9-0.4-1.9-0.8-2.8-1.3c-0.5-0.2-0.9-0.5-1.4-0.8c-0.4-0.3-0.9-0.6-1.3-0.9c-0.2-0.2-0.4-0.3-0.6-0.5c-0.1-0.1-0.2-0.2-0.3-0.3
	c-0.1-0.1-0.2-0.2-0.3-0.3c-0.2-0.2-0.4-0.4-0.6-0.6l-0.3-0.3l-10-1.7l-7.5,0.6l-0.1,0l-0.1,0l-5.8-3l6,2.3l7.4-1.4l0.1,0l0.1,0
	l10.7,0.7l0.4,0l0.4,0.4l0.2,0.2l0.2,0.2c0.2,0.1,0.3,0.3,0.5,0.4c0.1,0.1,0.2,0.1,0.3,0.2c0.1,0.1,0.2,0.1,0.3,0.2
	c0.2,0.1,0.4,0.2,0.6,0.3c0.8,0.4,1.6,0.8,2.5,1.2c0.9,0.3,1.7,0.7,2.6,0.9c0.2,0,0.3,0.1,0.5,0.1c0,0-0.1-0.1-0.1-0.1
	c-0.2-0.3-0.4-0.5-0.6-0.8c-0.2-0.3-0.4-0.5-0.6-0.8c-0.2-0.3-0.4-0.5-0.6-0.8c-0.2-0.3-0.4-0.6-0.5-0.8l-0.5-0.9
	c-0.2-0.3-0.3-0.6-0.5-0.9c-0.1-0.1-0.2-0.3-0.2-0.4l-0.2-0.4c-0.1-0.3-0.3-0.6-0.4-0.9l-0.3-0.9l-0.1-0.2l-0.1-0.2l-0.1-0.5
	l-0.2-0.5l-0.1-0.2l-0.1-0.2l-0.2-1c-0.1-0.3-0.1-0.6-0.2-1l-0.2-0.9c0-0.1-0.1-0.2-0.1-0.3c-0.1-0.1-0.1-0.3-0.1-0.4
	c-0.1-0.3-0.2-0.6-0.3-0.9c-0.1-0.3-0.2-0.6-0.3-0.9s-0.3-0.6-0.4-0.9c-0.1-0.3-0.3-0.6-0.4-0.9c-0.1-0.3-0.3-0.6-0.4-0.9
	c-0.1-0.3-0.3-0.6-0.4-0.9c-0.2-0.3-0.3-0.6-0.4-0.9l-0.5-0.9c-0.2-0.3-0.3-0.6-0.5-0.8c-0.2-0.3-0.3-0.6-0.5-0.8l-0.5-0.8
	c-0.3-0.6-0.7-1.1-1.1-1.7c-0.2-0.3-0.4-0.5-0.6-0.8l-0.5-0.7l-9.1-7.1l-0.1-0.1l0-0.1l-2.5-9.4l3.2,9.1l9.6,6.5l0.1,0l0.1,0.1
	l0.6,0.8c0.2,0.3,0.4,0.5,0.6,0.8c0.4,0.5,0.8,1.1,1.2,1.6l0.6,0.8c0.2,0.3,0.4,0.5,0.6,0.8c0.2,0.3,0.4,0.6,0.6,0.8l0.6,0.9
	c0.2,0.3,0.3,0.6,0.5,0.9c0.2,0.3,0.3,0.6,0.5,0.9c0.2,0.3,0.3,0.6,0.5,0.9c0.2,0.3,0.3,0.6,0.5,0.9c0.2,0.3,0.3,0.6,0.5,0.9
	c0.2,0.3,0.3,0.6,0.4,0.9c0.1,0.3,0.3,0.6,0.4,0.9c0.1,0.2,0.1,0.3,0.2,0.5c0.1,0.2,0.1,0.3,0.2,0.5l0,0.1l0.2,0.8
	c0.1,0.3,0.1,0.6,0.2,0.8l0.3,0.8l0.1,0.2l0.1,0.2l0.2,0.4l0.2,0.4l0.1,0.2l0.1,0.2l0.4,0.8c0.1,0.3,0.3,0.5,0.4,0.8l0.2,0.3
	c0.7-4,3.3-6.9,6.5-6.9s5.8,3,6.5,6.9l0.2-0.3c0.1-0.3,0.3-0.5,0.4-0.8l0.4-0.8l0.1-0.2l0.1-0.2l0.2-0.4l0.2-0.4l0.1-0.2l0.1-0.2
	l0.3-0.8c0.1-0.3,0.2-0.6,0.2-0.8l0.2-0.8l0-0.1c0.1-0.2,0.1-0.4,0.2-0.5c0.1-0.2,0.1-0.3,0.2-0.5c0.1-0.3,0.3-0.6,0.4-0.9
	c0.1-0.3,0.3-0.6,0.4-0.9c0.2-0.3,0.3-0.6,0.5-0.9c0.2-0.3,0.3-0.6,0.5-0.9c0.2-0.3,0.3-0.6,0.5-0.9c0.2-0.3,0.3-0.6,0.5-0.9
	s0.3-0.6,0.5-0.9l0.6-0.9c0.2-0.3,0.4-0.6,0.6-0.8c0.2-0.3,0.4-0.5,0.6-0.8l0.6-0.8c0.4-0.6,0.8-1.1,1.2-1.6
	c0.2-0.3,0.4-0.5,0.6-0.8l0.6-0.8l0.1-0.1l0.1,0l9.6-6.5l3.2-9.1l-2.5,9.4l0,0.1l-0.1,0.1l-9.1,7.1l-0.5,0.7
	c-0.2,0.3-0.4,0.5-0.6,0.8c-0.3,0.6-0.7,1.1-1.1,1.6l-0.5,0.8c-0.2,0.3-0.3,0.6-0.5,0.8c-0.2,0.3-0.3,0.6-0.5,0.8l-0.5,0.9
	c-0.2,0.3-0.3,0.6-0.4,0.9c-0.2,0.3-0.3,0.6-0.4,0.9c-0.1,0.3-0.3,0.6-0.4,0.9c-0.1,0.3-0.3,0.6-0.4,0.9c-0.1,0.3-0.3,0.6-0.4,0.9
	c-0.1,0.3-0.2,0.6-0.3,0.9c-0.1,0.3-0.2,0.6-0.3,0.9c0,0.1-0.1,0.3-0.1,0.4c0,0.1-0.1,0.2-0.1,0.3l-0.2,0.9c-0.1,0.3-0.1,0.6-0.2,1
	l-0.2,1l-0.1,0.2l-0.1,0.2l-0.2,0.5l-0.2,0.5l-0.1,0.2l-0.1,0.2l-0.3,0.9c-0.1,0.3-0.3,0.6-0.4,0.9l-0.2,0.4
	c-0.1,0.2-0.2,0.3-0.2,0.4c-0.2,0.3-0.3,0.6-0.5,0.9l-0.5,0.9c-0.2,0.3-0.3,0.6-0.5,0.8c-0.2,0.3-0.4,0.5-0.6,0.8
	c-0.2,0.3-0.4,0.5-0.6,0.8c-0.2,0.3-0.4,0.5-0.6,0.8c0,0-0.1,0.1-0.1,0.1c0.2,0,0.3-0.1,0.5-0.1c0.9-0.3,1.8-0.6,2.6-0.9
	c0.9-0.4,1.7-0.7,2.5-1.2c0.2-0.1,0.4-0.2,0.6-0.3c0.1,0,0.2-0.1,0.3-0.2c0.1-0.1,0.2-0.1,0.3-0.2c0.2-0.1,0.3-0.3,0.5-0.4l0.2-0.2
	l0.2-0.2l0.4-0.4l0.4,0l10.7-0.7l0.1,0l0.1,0l7.4,1.4L-84.9,434.7z"/>
</svg>
