<?xml version="1.0" encoding="utf-8"?>
<!-- Generator: Adobe Illustrator 19.0.0, SVG Export Plug-In . SVG Version: 6.00 Build 0)  -->
<svg version="1.1" id="Capa_1" xmlns="http://www.w3.org/2000/svg" xmlns:xlink="http://www.w3.org/1999/xlink" x="0px" y="0px"
	 viewBox="-210 325.9 173.5 190" style="enable-background:new -210 325.9 173.5 190;" xml:space="preserve">
<g id="XMLID_100_">
	<path d="M-45.1,494.1h-156.3c-2,0-3.8-1-4.8-2.7s-1-3.8,0-5.5l78.1-135.4c1-1.7,2.8-2.8,4.8-2.8l0,0c2,0,3.8,1,4.8,2.7l78.2,135.4
		c1,1.7,1,3.8,0,5.5C-41.3,493-43.1,494.1-45.1,494.1z M-191.9,483.1h137.3l-68.7-118.9L-191.9,483.1z"/>
</g>
<g>
	<path d="M-90.7,429.3c0-6-4.6-11-10.4-11.6c-1.6-4.4-5.9-7.6-10.9-7.6c-2.2,0-4.2,0.6-6,1.7c-2-3.6-5.8-6-10.2-6
		c-5.8,0-10.6,4.2-11.5,9.8c-0.5-0.1-1-0.1-1.4-0.1c-6.4,0-11.6,5.2-11.6,11.6c0,0.3,0,0.6,0,0.9c-3.3,2.1-5.4,5.7-5.4,9.8
		c0,3.7,1.7,6.9,4.3,9c0,0.2,0,0.4,0,0.6c0,6.4,5.2,11.6,11.6,11.6c1.9,0,3.7-0.5,5.3-1.3c2.2,1.6,5.4,3.6,6.9,3.2
		c0,0,0.6,8.9,0.4,11.1c-0.2,4.3-1.5,9-2.4,12.9h14c0,0-2.1-8.6-2.2-11.5c-0.1-2.9,0.9-8.2,0.9-8.2l4.8-5c1.9,1.3,4.1,2,6.6,2
		c6,0,11-4.6,11.6-10.4c4.4-1.6,7.6-5.9,7.6-10.9c0-3-1.1-5.6-2.9-7.7C-90.9,432.2-90.7,430.8-90.7,429.3L-90.7,429.3z M-134,456
		c0.9-0.9,1.7-1.9,2.3-3.1l2.3,4.8C-129.5,457.7-130.7,458.2-134,456L-134,456z M-125.5,458.9c-1.2,0.2-3.2-3.4-4.6-6.4
		c1.6,0.8,3.4,1.3,5.3,1.3c0.5,0,1,0,1.4-0.1C-123.8,456.1-124.4,458.7-125.5,458.9L-125.5,458.9z M-120.5,461.3
		c-2.7,0.8-1.1-4.9-0.3-8.2c0.6-0.2,1.1-0.5,1.6-0.8c0.3,2.4,1.4,4.5,2.9,6.2C-117.6,459.8-119.1,460.9-120.5,461.3L-120.5,461.3z
		 M-120.5,461.3"/>
</g>
</svg>
