<?xml version="1.0" encoding="utf-8"?>
<!-- Generator: Adobe Illustrator 19.0.0, SVG Export Plug-In . SVG Version: 6.00 Build 0)  -->
<svg version="1.1" id="Capa_1" xmlns="http://www.w3.org/2000/svg" xmlns:xlink="http://www.w3.org/1999/xlink" x="0px" y="0px"
	 viewBox="-210 325.9 173.5 190" style="enable-background:new -210 325.9 173.5 190;" xml:space="preserve">
<g id="XMLID_100_">
	<path d="M-45.1,494.1h-156.3c-2,0-3.8-1-4.8-2.7s-1-3.8,0-5.5l78.1-135.4c1-1.7,2.8-2.8,4.8-2.8l0,0c2,0,3.8,1,4.8,2.7l78.2,135.4
		c1,1.7,1,3.8,0,5.5C-41.3,493-43.1,494.1-45.1,494.1z M-191.9,483.1h137.3l-68.7-118.9L-191.9,483.1z"/>
</g>
<g>
	<path d="M-148.8,451.9v-20.5c0-1.2,1-2.2,2.2-2.2h44.3c1.2,0,2.2,1,2.2,2.2v2.8h2.5v-2.8c0-2.6-2.1-4.7-4.7-4.7h-44.3
		c-2.6,0-4.7,2.1-4.7,4.7v27.9L-148.8,451.9z"/>
	<path d="M-90.3,439c-0.5-0.7-1.5-1.2-2.6-1.2h-25.3c0.1-0.6-0.1-1.2-0.4-1.7c-0.5-0.8-1.5-1.2-2.6-1.2h-15c-1.7,0-3.4,1.1-3.9,2.5
		l-9.4,27.7c-0.3,0.8-0.1,1.6,0.3,2.2c0.5,0.8,1.5,1.2,2.6,1.2h44.3c1.7,0,3.4-1.1,3.9-2.5l8.4-24.8
		C-89.7,440.4-89.8,439.6-90.3,439z"/>
	<path d="M-136.2,431.3h15c2.3,0,4.3,1,5.5,2.7c0.1,0.1,0.1,0.2,0.2,0.2h5.3l-5-27.6c-0.2-0.9-1-1.5-2-1.4l-29.1,5.3
		c-0.9,0.2-1.5,1-1.4,2l4.3,23.4C-142.3,433.2-139.4,431.3-136.2,431.3z"/>
</g>
</svg>
