<?xml version="1.0" encoding="utf-8"?>
<!-- Generator: Adobe Illustrator 19.0.0, SVG Export Plug-In . SVG Version: 6.00 Build 0)  -->
<svg version="1.1" id="Capa_1" xmlns="http://www.w3.org/2000/svg" xmlns:xlink="http://www.w3.org/1999/xlink" x="0px" y="0px"
	 viewBox="-210 325.9 173.5 190" style="enable-background:new -210 325.9 173.5 190;" xml:space="preserve">
<text transform="matrix(1 0 0 1 87.6401 746.8352)" style="font-family:'MyriadPro-Regular'; font-size:12px;">d-11424</text>
<path d="M-40.3,485.8L-95.6,390l-20.3-35.1l-2.6-4.6c-1-1.7-2.8-2.7-4.8-2.7s-3.8,1.1-4.8,2.8l-2.6,4.5l-25.1,43.5l-50.5,87.5
	c-1,1.7-1,3.8,0,5.5s2.8,2.7,4.8,2.7h156.3c2,0,3.8-1.1,4.8-2.8C-39.3,489.6-39.3,487.5-40.3,485.8z M-191.9,483.1l43.9-76.2
	l24.7-42.7l20,34.7l48.7,84.2H-191.9z"/>
<g>
	<g>
		<path d="M-103.9,449.6c-2.9,0.1-5.9-0.2-8.7-1.1c-1.4-0.4-2.8-1-4.1-1.7c2.2-3.7,4-7.5,6.5-11c0.6-0.8,1.3-1.7,2-2.5
			c1.2,1.1,2.4,2.2,3.3,3.4c2.3,3,2.9,6.5,2.4,10.2c-0.1,0.8-0.3,1.7-0.4,2.5C-103.2,449.6-103.5,449.6-103.9,449.6 M-153.6,433.4
			C-153.6,433.4-153.6,433.3-153.6,433.4C-153.6,433.3-153.6,433.4-153.6,433.4C-153.6,433.4-153.6,433.4-153.6,433.4 M-85.7,443.7
			c-2,0.1-3.9-0.1-5.8-0.5c-1.3-0.3-1.9,1.7-0.6,2c1.4,0.3,2.9,0.5,4.3,0.6c-0.1,0-0.1,0.1-0.2,0.1c-0.3,0.1-0.7,0.3-1,0.4
			c-0.7,0.3-1.4,0.5-2.1,0.7c-1.3,0.4-2.6,0.8-4,1.2c-1.9,0.5-3.8,0.9-5.7,1.1c0.9-4.3,0.9-8.9-1.7-12.7c-1.1-1.7-2.6-3.3-4.2-4.8
			c3.5-3.1,7.9-4.9,12.5-3.3c1.3,0.4,1.8-1.6,0.6-2c-5-1.8-10.3,0.2-14.3,3.5c-0.2,0.1-0.3,0.3-0.5,0.4c-2.3-1.8-4.7-3.3-7.1-4.4
			c-5.4-2.4-11.3-2.7-17.1-1.8c-7.2,1.1-14,4.3-20.5,7.4c0.7-1.9,1.4-3.9,2.1-5.8c0.5-1.3-1.5-1.8-2-0.6c-1.1,2.9-2.1,5.8-3.2,8.7
			c-0.2,0.7,0.4,1.3,1,1.3c2.7,0.2,5.2,0.7,7.7,1.5c1.3,0.4,1.8-1.6,0.6-2c-1.8-0.6-3.5-1-5.4-1.3c12.4-5.9,27.3-12,40-3.2
			c0.8,0.5,1.5,1.1,2.3,1.7c-3.4,3.7-5.5,8.5-8,12.8c-0.2,0.3-0.4,0.7-0.6,1c-0.7-0.4-1.4-0.8-2.1-1.1c-4.8-2.6-9.8-4-15.3-3.4
			c-5.4,0.5-10.6,2.4-15.6,4.7c-1.2,0.5-0.2,2.4,1,1.8c6.4-2.9,13.7-5.4,20.8-4.2c3.6,0.6,6.8,2.4,10,4c-2.7,4.1-6.1,7.8-10.4,10.2
			c-5.9,3.3-12.1,2.8-18.3,1.1c2.6-1,5.1-2.1,7.5-3.5c1.2-0.7,0.1-2.5-1-1.8c-3.1,1.8-6.3,3.2-9.7,4.2c-0.6,0.2-0.8,0.8-0.7,1.3
			c0,0.2,0,0.5,0.1,0.7c1.2,2.4,2.7,4.6,4.5,6.5c0.9,1,2.4-0.5,1.5-1.5c-1.2-1.2-2.2-2.6-3.1-4c5.7,1.6,11.6,2.4,17.2,0.2
			c5-1.9,9.1-5.6,12.3-9.8c0.7-0.9,1.3-1.8,1.9-2.7c2,1,4.1,2,6.4,2.5c2.6,0.6,5.3,0.8,7.9,0.6c-1.2,4.6-3.6,9.2-7.5,11.3
			c-1.2,0.6-0.1,2.4,1.1,1.8c4.5-2.4,6.6-7.2,8.1-11.8c0.2-0.5,0.3-1,0.5-1.5c2.9-0.3,5.8-1,8.6-1.8c1.1-0.3,2.3-0.7,3.4-1.1
			c-0.5,0.7-0.9,1.4-1.4,2.2c-0.8,1.1,1,2.2,1.8,1.1c1-1.4,1.9-2.8,2.8-4.3c0.4-0.2,0.8-0.4,1.1-0.8c0.4-0.5,0.5-1.1,0.3-1.5
			C-84.4,444.6-84.9,443.7-85.7,443.7"/>
	</g>
</g>
</svg>
