<?xml version="1.0" encoding="utf-8"?>
<!-- Generator: Adobe Illustrator 19.0.0, SVG Export Plug-In . SVG Version: 6.00 Build 0)  -->
<svg version="1.1" id="Capa_1" xmlns="http://www.w3.org/2000/svg" xmlns:xlink="http://www.w3.org/1999/xlink" x="0px" y="0px"
	 viewBox="-210 325.9 173.5 190" style="enable-background:new -210 325.9 173.5 190;" xml:space="preserve">
<g id="XMLID_100_">
	<path d="M-45.1,494.1h-156.3c-2,0-3.8-1-4.8-2.7s-1-3.8,0-5.5l78.1-135.4c1-1.7,2.8-2.8,4.8-2.8l0,0c2,0,3.8,1,4.8,2.7l78.2,135.4
		c1,1.7,1,3.8,0,5.5C-41.3,493-43.1,494.1-45.1,494.1z M-191.9,483.1h137.3l-68.7-118.9L-191.9,483.1z"/>
</g>
<path d="M-100.8,449.9l-0.1-0.5l-0.4-0.2l-11.3-3.7l-7.8-2.5c0-0.2-0.1-0.5-0.1-0.7l3.9-1.8l0.1-0.3c6.2-14.1,26.7-15.3,26.9-15.3
	c0.4,0,0.8-0.3,0.8-0.7c0-0.4-0.3-0.8-0.7-0.8c-0.1,0-0.1,0-0.2,0c-3.9,0.3-7.8,1.1-11.6,2.4c-8,2.8-13.7,7.4-16.5,13.5l-3.3,1.5
	c-0.3-0.4-0.6-0.7-0.9-1c2.4-1.5,5.3-3.9,5.3-6.7c0-1-0.2-1.9-0.5-2.8l2.3-5.2l0.1-0.2c2.1-15.5,17-25.7,17.1-25.8
	c0.3-0.3,0.4-0.8,0.1-1.1c-0.2-0.3-0.6-0.4-1-0.2c-0.6,0.4-15.5,10.6-17.8,26.7l-1.7,3.9c-2.5-3.8-7.7-4.9-11.5-2.3
	c-0.9,0.6-1.7,1.4-2.3,2.3l-1.7-3.9c-2.3-16.1-17.1-26.3-17.8-26.8c-0.3-0.3-0.8-0.2-1.1,0.1c-0.3,0.3-0.2,0.8,0.1,1.1
	c0,0,0.1,0.1,0.1,0.1c0.2,0.1,15,10.3,17.1,25.8l2.3,5.4c-0.3,0.9-0.5,1.8-0.5,2.8c0,2.7,3,5.2,5.3,6.7c-0.4,0.3-0.7,0.6-0.9,1
	l-3.3-1.5c-2.8-6-8.5-10.7-16.5-13.5c-3.7-1.3-7.6-2.1-11.6-2.4c-0.4,0-0.8,0.3-0.8,0.7c0,0,0,0,0,0c0,0.4,0.3,0.8,0.7,0.8
	c0,0,0,0,0,0c0.2,0,20.7,1.2,26.9,15.3l0.1,0.3l3.9,1.8c-0.1,0.2-0.1,0.5-0.1,0.7l0,0l-7.8,2.5l-11.3,3.6l-0.5,0.1l-0.1,0.5
	c-1.4,9.8-11.6,22.8-11.7,23c-0.3,0.3-0.2,0.8,0.1,1.1c0.3,0.3,0.8,0.2,1.1-0.1c0.4-0.5,10.2-13.1,12-23.2
	c5.9-1.9,13.7-4.4,18.3-5.9c0,0.2,0.1,0.4,0.2,0.6l-9.2,12v0.2c-0.8,10.4-9.5,29.1-9.6,29.3c-0.2,0.4-0.1,0.8,0.3,1.1
	c0.4,0.2,0.8,0.1,1.1-0.3c0,0,0-0.1,0.1-0.1c0.3-0.8,8.8-18.8,9.6-29.5l8.6-11.3c0.3,0.3,0.6,0.6,0.9,0.8v1c0.1,0.5,0.5,0.8,0.9,0.8
	c0.4,0,0.7-0.4,0.8-0.8V448c0.3,0.1,0.5,0.1,0.8,0.1c0.2,0,0.4,0,0.6-0.1v0.3c0.1,0.5,0.5,0.8,0.9,0.8c0.4,0,0.7-0.4,0.8-0.8v-0.9
	c0.4-0.2,0.8-0.5,1.1-0.9l8.6,11.3c0.9,10.8,9.3,28.8,9.7,29.6c0.3,0.3,0.8,0.3,1.1,0c0.2-0.2,0.3-0.5,0.2-0.7
	c-0.1-0.2-8.8-18.8-9.6-29.3v-0.2l-9.2-12c0.1-0.2,0.1-0.4,0.2-0.5c4.6,1.4,12.4,4,18.3,5.9c1.7,10.2,11.6,22.7,12,23.2
	c0.3,0.3,0.8,0.4,1.1,0.1c0.3-0.3,0.4-0.8,0.1-1.1l0,0C-89.2,472.7-99.4,459.7-100.8,449.9z M-120.8,428c0.7,0,1.3,0.6,1.3,1.3
	c0,0.7-0.6,1.3-1.3,1.3s-1.3-0.6-1.3-1.3c0,0,0,0,0,0C-122.1,428.6-121.6,428-120.8,428C-120.8,428-120.8,428-120.8,428L-120.8,428z
	 M-130.6,431.7c-0.2,0.6-0.3,1.3-0.3,2c0,0.3-0.3,0.6-0.6,0.6c-0.3,0-0.6-0.3-0.6-0.6l0,0c0-4.1,3.4-7.5,7.5-7.5
	c0.3,0,0.5,0.3,0.5,0.7c0,0.3-0.2,0.5-0.5,0.5C-127.4,427.4-129.7,429.1-130.6,431.7L-130.6,431.7z"/>
</svg>
