<?xml version="1.0" encoding="utf-8"?>
<!-- Generator: Adobe Illustrator 19.0.0, SVG Export Plug-In . SVG Version: 6.00 Build 0)  -->
<svg version="1.1" id="Capa_1" xmlns="http://www.w3.org/2000/svg" xmlns:xlink="http://www.w3.org/1999/xlink" x="0px" y="0px"
	 viewBox="-210 325.9 173.5 190" style="enable-background:new -210 325.9 173.5 190;" xml:space="preserve">
<g id="XMLID_100_">
	<path d="M-45.1,494.1h-156.3c-2,0-3.8-1-4.8-2.7s-1-3.8,0-5.5l78.1-135.4c1-1.7,2.8-2.8,4.8-2.8l0,0c2,0,3.8,1,4.8,2.7l78.2,135.4
		c1,1.7,1,3.8,0,5.5C-41.3,493-43.1,494.1-45.1,494.1z M-191.9,483.1h137.3l-68.7-118.9L-191.9,483.1z"/>
</g>
<path d="M-105.9,422.9h-34.8c-0.8,0-1.4,0.6-1.4,1.4v45.5c0,0.8,0.6,1.4,1.4,1.4h34.8c0.8,0,1.4-0.6,1.4-1.4v-45.5
	C-104.4,423.6-105.1,422.9-105.9,422.9z M-123.2,463.3h-8.1v-1.4c0-2.2,1.8-4,4-4h4.1V463.3z M-120.5,445.8v6.7h-2.7v-2.7
	c-1.5,0-2.7-1.2-2.7-2.6c0,0,0,0,0,0v-6.7c0-0.7,0.6-1.3,1.3-1.3c0,0,0,0,0,0h4L-120.5,445.8z M-109.8,461.9c0-3.6-2.1-6.9-5.4-8.5
	v-11.7c0-4.5-3.6-8.1-8.1-8.1s-8.1,3.6-8.1,8.1v11.7c-3.3,1.6-5.4,4.9-5.4,8.5v-33.6h26.9V461.9z"/>
<path d="M-148.7,479.4h50.9c0.8,0,1.4-0.6,1.4-1.4v-61.7c0-0.8-0.6-1.4-1.4-1.4h-50.9c-0.8,0-1.4,0.6-1.4,1.4V478
	C-150.1,478.7-149.5,479.4-148.7,479.4L-148.7,479.4z M-144.7,420.2h43V474h-43V420.2z"/>
</svg>
