<?xml version="1.0" encoding="utf-8"?>
<!-- Generator: Adobe Illustrator 19.0.0, SVG Export Plug-In . SVG Version: 6.00 Build 0)  -->
<svg version="1.1" id="Capa_1" xmlns="http://www.w3.org/2000/svg" xmlns:xlink="http://www.w3.org/1999/xlink" x="0px" y="0px"
	 viewBox="-210 325.9 173.5 190" style="enable-background:new -210 325.9 173.5 190;" xml:space="preserve">
<g id="XMLID_100_">
	<path d="M-45.1,494.1h-156.3c-2,0-3.8-1-4.8-2.7s-1-3.8,0-5.5l78.1-135.4c1-1.7,2.8-2.8,4.8-2.8l0,0c2,0,3.8,1,4.8,2.7l78.2,135.4
		c1,1.7,1,3.8,0,5.5C-41.3,493-43.1,494.1-45.1,494.1z M-191.9,483.1h137.3l-68.7-118.9L-191.9,483.1z"/>
</g>
<path d="M-100.9,484.6v-32.3c-0.1-0.1-0.2-0.2-0.3-0.2c-0.1-0.1-0.2-0.2-0.3-0.3c-0.1-0.1-0.2-0.2-0.3-0.4c-0.1-0.1-0.2-0.2-0.3-0.3
	c-0.1-0.1-0.2-0.3-0.3-0.4c-0.1-0.1-0.2-0.2-0.3-0.4c-0.1-0.1-0.2-0.3-0.3-0.4c-0.1-0.1-0.1-0.2-0.2-0.4c-0.1-0.2-0.1-0.3-0.2-0.5
	c-0.1-0.1-0.1-0.3-0.2-0.4c-0.1-0.2-0.1-0.4-0.2-0.5c0-0.1-0.1-0.2-0.1-0.4c0-0.2-0.1-0.4-0.1-0.6c0-0.1,0-0.2-0.1-0.3
	c0-0.3-0.1-0.6-0.1-1c0-0.2,0-0.3,0-0.5h-38.3c0,0.1,0,0.3,0,0.5c0,0.3,0,0.6-0.1,1c0,0.1,0,0.2-0.1,0.3c0,0.2-0.1,0.4-0.1,0.6
	c0,0.1-0.1,0.2-0.1,0.4c-0.1,0.2-0.1,0.4-0.2,0.5c0,0.1-0.1,0.2-0.2,0.4c-0.1,0.2-0.1,0.3-0.2,0.5c-0.1,0.1-0.1,0.2-0.2,0.4
	c-0.1,0.2-0.2,0.3-0.3,0.5c-0.1,0.1-0.2,0.2-0.3,0.3c-0.1,0.1-0.2,0.3-0.3,0.4c-0.1,0.1-0.2,0.2-0.3,0.3c-0.1,0.1-0.2,0.3-0.4,0.4
	c-0.1,0.1-0.2,0.2-0.3,0.3c-0.1,0.1-0.2,0.2-0.3,0.2v32.3h5v-19.8c0-1.2,1-2.2,2.2-2.2c1.2,0,2.2,1,2.2,2.2c0,0,0,0,0,0v19.8h5.7
	v-19.8c0-1.2,1-2.2,2.2-2.2s2.2,1,2.2,2.2c0,0,0,0,0,0v19.8h5.7v-19.8c0-1.2,1-2.2,2.2-2.2c1.2,0,2.2,1,2.2,2.2v19.8h5.7v-19.8
	c0-1.2,1-2.2,2.2-2.2c1.2,0,2.2,1,2.2,2.2c0,0,0,0,0,0v19.8H-100.9z M-105.9,454.7h-34.8c-0.3,0-0.6-0.3-0.6-0.6s0.3-0.6,0.6-0.6
	h34.8c0.3,0,0.6,0.3,0.6,0.6S-105.6,454.7-105.9,454.7z"/>
<path d="M-100,451.6c1.2,0.9,2.6,1.3,4.1,1.3c5,0,9-4,9-9c0-6-4.7-11-10.7-11.4c-0.2,0-2,0-2.2,0h-48.4c-0.2,0-0.5,0-0.7,0
	c-6,0.4-10.7,5.3-10.7,11.4c0,5,4,9,9,9c1.5,0,2.9-0.5,4.1-1.3c1.6-1.1,2.6-2.9,2.9-4.8c0-0.3,0.1-0.6,0.1-1c0-0.3,0-0.6-0.1-0.9
	c0,0,0,0,0,0l0,0c0-0.1,0-0.3-0.1-0.4c-0.6-2.5-2.8-4.2-5.3-4.2c0,0-0.1,0-0.1,0c-2.4,0-4.3,1.9-4.3,4.3c0,0.3-0.3,0.6-0.6,0.6
	s-0.6-0.3-0.6-0.6c0-3,2.4-5.4,5.5-5.5c0.1,0,0.1,0,0.2,0c3,0.1,5.6,2.2,6.3,5.1h38.7l0,0c0.7-2.9,3.3-5,6.3-5.1c0.1,0,0.1,0,0.2,0
	c3,0,5.4,2.4,5.5,5.5c0,0.3-0.3,0.6-0.6,0.6s-0.6-0.3-0.6-0.6c0-2.4-1.9-4.3-4.3-4.3c0,0-0.1,0-0.1,0c-2.5,0.1-4.7,1.8-5.3,4.2
	c0,0.1-0.1,0.3-0.1,0.4l0,0c0,0,0,0,0,0c-0.1,0.3-0.1,0.6-0.1,0.9C-103,448.1-101.9,450.2-100,451.6z"/>
<rect x="-140" y="427.5" width="33.4" height="3.9"/>
<polygon points="-146.3,426.4 -140.5,426.4 -106,426.4 -100.2,426.4 -100.2,421.1 -146.3,421.1 "/>
</svg>
