<?xml version="1.0" encoding="utf-8"?>
<!-- Generator: Adobe Illustrator 19.0.0, SVG Export Plug-In . SVG Version: 6.00 Build 0)  -->
<svg version="1.1" id="Capa_1" xmlns="http://www.w3.org/2000/svg" xmlns:xlink="http://www.w3.org/1999/xlink" x="0px" y="0px"
	 viewBox="-210 325.9 173.5 190" style="enable-background:new -210 325.9 173.5 190;" xml:space="preserve">
<g id="XMLID_100_">
	<path d="M-45.1,494.1h-156.3c-2,0-3.8-1-4.8-2.7s-1-3.8,0-5.5l78.1-135.4c1-1.7,2.8-2.8,4.8-2.8l0,0c2,0,3.8,1,4.8,2.7l78.2,135.4
		c1,1.7,1,3.8,0,5.5C-41.3,493-43.1,494.1-45.1,494.1z M-191.9,483.1h137.3l-68.7-118.9L-191.9,483.1z"/>
</g>
<g>
	<path d="M-154.6,422v43.9h62.7V422H-154.6z M-93.7,464h-51.5l-7.5-7.5v-32.7h51.5l7.5,7.5C-93.7,431.3-93.7,464-93.7,464z"/>
	<g>
		<path d="M-102.5,437.2c0,0-6.5-1.7-14,0.9c0.1,1.3,0.7,2.6,1.6,3.5c2.8-1.7,6.7-2.8,12.4-2.8c0,0.6,0.9,0.7,0.9-0.1v-1.4
			C-101.6,436.5-102.5,436.6-102.5,437.2z"/>
	</g>
	<path d="M-117.7,438.5c-3.4,1.4-7,3.7-10.2,7.4c-0.4,0.4-0.7,0.4-0.7-0.2c0.2-2,0.5-6-0.1-9.5c-0.3-2-12.9-1.8-13.1,0
		c0,0-1.5,17.9,6.7,18.8c11.4,1.4,11.5-7.5,18.8-12.6C-117,441.3-117.6,439.9-117.7,438.5z M-135,436.6c-2.7,0-4.8-0.2-4.8-0.4
		s2.2-0.4,4.8-0.4s4.8,0.2,4.8,0.4S-132.3,436.6-135,436.6z"/>
</g>
</svg>
