<?xml version="1.0" encoding="utf-8"?>
<!-- Generator: Adobe Illustrator 19.0.0, SVG Export Plug-In . SVG Version: 6.00 Build 0)  -->
<svg version="1.1" id="Capa_1" xmlns="http://www.w3.org/2000/svg" xmlns:xlink="http://www.w3.org/1999/xlink" x="0px" y="0px"
	 viewBox="-210 325.9 173.5 190" style="enable-background:new -210 325.9 173.5 190;" xml:space="preserve">
<style type="text/css">
	.st0{stroke:#020303;stroke-width:1.3655;stroke-linecap:round;stroke-linejoin:round;stroke-miterlimit:10;}
	.st1{stroke:#020303;stroke-width:0.1886;stroke-miterlimit:10;}
</style>
<g>
	<g>
		<path d="M-166.9,480.7h-8.9l-2.6,5.3h-5.7l13.7-25.6h4.8l4.9,25.6h-5.3L-166.9,480.7z M-173.7,476.4h6.2l-1.4-9.5L-173.7,476.4z"
			/>
		<path d="M-155.1,480.7c0.8,0,1.5,0.2,2,0.7s0.8,1.2,0.8,1.9c0,0.8-0.2,1.4-0.8,2s-1.2,0.8-2,0.8c-0.8,0-1.4-0.2-2-0.7
			s-0.8-1.1-0.8-1.9s0.2-1.4,0.8-2S-155.9,480.8-155.1,480.7z"/>
		<path d="M-133.9,479.1c0.2-1.4-0.4-2.5-2.1-3.2l-3.4-1.4c-3.9-1.8-5.8-4.2-5.6-7.3c0.1-1.4,0.6-2.7,1.4-3.8s2.1-2,3.6-2.6
			s3.2-0.9,5-0.9c2.5,0,4.5,0.8,6,2.2s2.3,3.3,2.3,5.7h-5.1c0.1-1.2-0.2-2.1-0.8-2.7s-1.5-1-2.6-1c-1.2,0-2.2,0.2-3.1,0.8
			s-1.4,1.3-1.5,2.3c-0.2,1.3,0.6,2.3,2.6,3l2.3,0.9l1.3,0.6c3.5,1.7,5.1,4.1,4.9,7.2c-0.1,1.5-0.6,2.8-1.5,3.9s-2,1.9-3.5,2.5
			s-3.1,0.9-4.9,0.8c-1.8,0-3.4-0.4-4.9-1.1s-2.5-1.8-3.2-3.1c-0.7-1.2-1-2.6-1-4.2l5.2,0c-0.2,2.8,1.2,4.2,4.1,4.2
			c1.3,0,2.3-0.3,3.1-0.8S-134,480.1-133.9,479.1z"/>
		<path d="M-123.2,480.7c0.8,0,1.5,0.2,2,0.7s0.8,1.2,0.8,1.9c0,0.8-0.2,1.4-0.8,2s-1.2,0.8-2,0.8c-0.8,0-1.4-0.2-2-0.7
			s-0.8-1.1-0.8-1.9s0.2-1.4,0.8-2S-124,480.8-123.2,480.7z"/>
		<path d="M-95.1,477.4c-0.2,1.8-0.8,3.3-1.8,4.7s-2.3,2.4-3.9,3.1s-3.4,1.1-5.2,1c-1.7,0-3.2-0.4-4.4-1.2s-2.2-1.8-3-3.2
			s-1.1-3-1.2-4.9c-0.1-1.4,0.1-3.2,0.4-5.4s1.1-4,2-5.7s2.1-3,3.5-4c1.9-1.4,4.1-2,6.5-2c2.6,0,4.7,0.9,6.3,2.5s2.4,3.8,2.6,6.6
			l-5.1,0c0-1.6-0.3-2.8-1-3.6s-1.6-1.1-3-1.2c-1.8-0.1-3.2,0.6-4.3,1.9s-1.9,3.2-2.3,5.7c-0.4,2.4-0.5,4.3-0.5,5.5
			c0.1,1.5,0.4,2.7,1,3.4s1.5,1.1,2.7,1.2c1.6,0.1,2.8-0.3,3.8-1.1s1.6-2,1.9-3.5L-95.1,477.4z"/>
		<path d="M-89.8,480.7c0.8,0,1.5,0.2,2,0.7s0.8,1.2,0.8,1.9c0,0.8-0.2,1.4-0.8,2s-1.2,0.8-2,0.8c-0.8,0-1.4-0.2-2-0.7
			s-0.8-1.1-0.8-1.9s0.2-1.4,0.8-2S-90.6,480.8-89.8,480.7z"/>
		<path d="M-77.2,486h-5.2l4.4-25.6h5.2L-77.2,486z"/>
		<path d="M-69.2,480.7c0.8,0,1.5,0.2,2,0.7s0.8,1.2,0.8,1.9c0,0.8-0.2,1.4-0.8,2s-1.2,0.8-2,0.8c-0.8,0-1.4-0.2-2-0.7
			s-0.8-1.1-0.8-1.9s0.2-1.4,0.8-2S-70,480.8-69.2,480.7z"/>
	</g>
	<g>
		<path class="st0" d="M-123.3,418.1"/>
	</g>
	<g>
		<g>
			<path d="M-107.3,397.6l10.7-20.7c0.2-0.4,0.1-1-0.4-1.2c-0.4-0.2-1-0.1-1.2,0.4l-10.1,19.7L-107.3,397.6z"/>
			<path d="M-115.4,383.7l2-12.5c0.1-0.5-0.3-0.9-0.7-1c-0.5-0.1-0.9,0.3-1,0.7l-1.7,10.4L-115.4,383.7z"/>
			<path d="M-110.9,391.5l9.4-29c0.2-0.5-0.1-1-0.6-1.1c-0.5-0.2-1,0.1-1.1,0.6l-8.9,27.5L-110.9,391.5z"/>
			<path d="M-135.6,391.5l1.2-2.1l-8.9-27.5c-0.2-0.5-0.6-0.7-1.1-0.6c-0.5,0.2-0.7,0.7-0.6,1.1L-135.6,391.5z"/>
			<path d="M-123.3,370l0.9,1.5v-12.7c0-0.5-0.4-0.9-0.9-0.9s-0.9,0.4-0.9,0.9v12.7L-123.3,370z"/>
			<path d="M-130.9,383.2l1.4-2.5l-1.5-10c-0.1-0.5-0.5-0.8-1-0.7c-0.5,0.1-0.8,0.5-0.7,1L-130.9,383.2z"/>
			<path d="M-163.6,386c-0.3,0.3-0.3,0.9,0,1.3l19.2,19.4l0.9-1.6l-18.9-19C-162.7,385.7-163.3,385.7-163.6,386z"/>
			<path d="M-179.9,435.5c0.1,0.4,0.4,0.8,0.9,0.8c0,0,0.1,0,0.1,0l19.1-3l1.1-2l-20.6,3.2C-179.7,434.5-180,435-179.9,435.5z"/>
			<path d="M-174.2,400.5c-0.2,0.4-0.1,1,0.4,1.2l24.9,12.8l0.9-1.5l-25-12.9C-173.5,399.9-174,400.1-174.2,400.5z"/>
			<path d="M-179.9,417.5c-0.1,0.5,0.3,0.9,0.7,1l25.5,4.1l0.9-1.6l-26.1-4.2C-179.3,416.7-179.8,417.1-179.9,417.5z"/>
			<path d="M-174.1,451.4c-0.4,0.2-0.6,0.8-0.4,1.2c0.2,0.3,0.5,0.5,0.8,0.5c0.1,0,0.3,0,0.4-0.1l3-1.5l1.6-2.8L-174.1,451.4z"/>
			<path d="M-73,453.4c0.3,0,0.6-0.2,0.8-0.5c0.2-0.4,0.1-1-0.4-1.2l-4.9-2.5l1.6,2.8l2.4,1.2C-73.3,453.4-73.2,453.4-73,453.4z"/>
			<path d="M-72.1,400.9c-0.2-0.4-0.8-0.6-1.2-0.4l-25.1,12.7l0.9,1.5l25-12.6C-72,401.9-71.8,401.3-72.1,400.9z"/>
			<path d="M-95.2,418.6l36.8-12c0.5-0.2,0.7-0.7,0.6-1.1c-0.2-0.5-0.6-0.7-1.1-0.6L-96.1,417L-95.2,418.6z"/>
			<path d="M-99.7,410.7l31.9-23.2c0.4-0.3,0.5-0.8,0.2-1.2s-0.8-0.5-1.2-0.2l-31.8,23.1L-99.7,410.7z"/>
			<path d="M-83.8,386.3l-19.1,18.9l0.9,1.6l19.4-19.3c0.3-0.3,0.3-0.9,0-1.3C-82.9,386-83.5,386-83.8,386.3z"/>
			<path d="M-67.5,436.7c0.4,0,0.8-0.3,0.9-0.7c0.1-0.5-0.3-0.9-0.7-1l-20.3-3.3l1.1,2l18.9,3.1C-67.6,436.7-67.6,436.7-67.5,436.7z
				"/>
			<path d="M-104.5,402.5l21.9-30.1c0.3-0.4,0.2-0.9-0.2-1.2c-0.4-0.3-0.9-0.2-1.2,0.2l-21.4,29.5L-104.5,402.5z"/>
			<path d="M-66.6,418c-0.1-0.5-0.5-0.8-1-0.7l-26.1,4l1,1.6l25.4-3.9C-66.8,418.9-66.5,418.5-66.6,418z"/>
			<path d="M-58.4,446.9l-25.2-8.2l1.3,2.3l23.3,7.6c0.1,0,0.2,0,0.3,0c0.4,0,0.7-0.2,0.8-0.6C-57.7,447.5-57.9,447-58.4,446.9z"/>
			<path d="M-55.4,425.8H-91l1,1.8h34.6c0.5,0,0.9-0.4,0.9-0.9C-54.5,426.2-54.9,425.8-55.4,425.8z"/>
			<path d="M-188.1,406.6l36.8,12l0.9-1.6l-37.2-12.1c-0.5-0.2-1,0.1-1.1,0.6C-188.8,405.9-188.6,406.4-188.1,406.6z"/>
			<path d="M-178.7,387.5l31.9,23.2l0.9-1.5l-31.8-23.1c-0.4-0.3-0.9-0.2-1.2,0.2C-179.2,386.7-179.1,387.2-178.7,387.5z"/>
			<path d="M-142,402.5l1-1.7l-21.4-29.5c-0.3-0.4-0.8-0.5-1.2-0.2s-0.5,0.8-0.2,1.2L-142,402.5z"/>
			<path d="M-155.5,425.8h-35.7c-0.5,0-0.9,0.4-0.9,0.9c0,0.5,0.4,0.9,0.9,0.9h34.6L-155.5,425.8z"/>
			<path d="M-162.9,438.7l-25.2,8.2c-0.5,0.2-0.7,0.7-0.6,1.1c0.1,0.4,0.5,0.6,0.8,0.6c0.1,0,0.2,0,0.3,0l23.3-7.6L-162.9,438.7z"/>
			<path d="M-139.1,397.4l1.1-1.8l-9.9-19.6c-0.2-0.4-0.8-0.6-1.2-0.4c-0.4,0.2-0.6,0.8-0.4,1.2L-139.1,397.4z"/>
		</g>
		<ellipse cx="-56.3" cy="448.5" rx="0.9" ry="0.9"/>
		<circle cx="-52.8" cy="426.8" r="0.9"/>
		<ellipse cx="-56.2" cy="405" rx="0.9" ry="0.9"/>
		<ellipse cx="-66.3" cy="385.4" rx="0.9" ry="0.9"/>
		<ellipse cx="-81.6" cy="385.4" rx="0.9" ry="0.9"/>
		<ellipse cx="-96.4" cy="374.5" rx="0.9" ry="0.9"/>
		<ellipse cx="-113.8" cy="368.7" rx="0.9" ry="0.9"/>
		<circle cx="-132.2" cy="368.7" r="0.9"/>
		<ellipse cx="-71" cy="453.6" rx="0.9" ry="0.9"/>
		<ellipse cx="-65.3" cy="436.1" rx="0.9" ry="0.9"/>
		<circle cx="-65.2" cy="417.8" r="0.9"/>
		<ellipse cx="-70.8" cy="400.3" rx="0.9" ry="0.9"/>
		<ellipse cx="-81.8" cy="369.8" rx="0.9" ry="0.9"/>
		<ellipse cx="-101.5" cy="359.7" rx="0.9" ry="0.9"/>
		<circle cx="-193.7" cy="426.7" r="0.9"/>
		<ellipse cx="-190.2" cy="448.5" rx="0.9" ry="0.9"/>
		<ellipse cx="-149.7" cy="374.3" rx="0.9" ry="0.9"/>
		<ellipse cx="-164.6" cy="385" rx="0.9" ry="0.9"/>
		<ellipse cx="-175.5" cy="399.9" rx="0.9" ry="0.9"/>
		<ellipse cx="-181.2" cy="417.3" rx="0.9" ry="0.9"/>
		<circle cx="-181.3" cy="435.7" r="0.9"/>
		<ellipse cx="-175.7" cy="453.2" rx="0.9" ry="0.9"/>
		<circle cx="-123.2" cy="356.3" r="0.9"/>
		<ellipse cx="-145" cy="359.7" rx="0.9" ry="0.9"/>
		<ellipse cx="-164.6" cy="369.7" rx="0.9" ry="0.9"/>
		<ellipse cx="-180.2" cy="385.3" rx="0.9" ry="0.9"/>
		<ellipse cx="-190.2" cy="404.9" rx="0.9" ry="0.9"/>
		<path d="M-123.1,375.3l-44.6,77.3h89.3L-123.1,375.3z M-91.5,438.9l5.4,9.3h-10.3c0.2-2,0.8-3.9,1.8-5.6
			C-93.8,441.2-92.7,439.9-91.5,438.9z M-118.2,392.7c-1.6,0.6-3.2,0.9-4.9,0.9c-1.7,0-3.4-0.3-4.9-0.9l4.9-8.5L-118.2,392.7z
			 M-128.9,394.3c1.8,0.7,3.8,1.1,5.8,1.1c2,0,4-0.4,5.8-1.1l24.9,43.1c-1.5,1.2-2.8,2.7-3.8,4.4c-1.2,2-1.8,4.2-2,6.5h-48.2
			c-0.2-2.1-0.9-4.2-2-6.1c-1.2-2.2-3-4-5-5.3L-128.9,394.3z M-154.3,438.4c1.8,1.2,3.3,2.8,4.4,4.6c0.9,1.6,1.5,3.4,1.7,5.2H-160
			L-154.3,438.4z"/>
		<path class="st1" d="M-121.2,423.1"/>
		<path class="st1" d="M-127,420"/>
		<path class="st1" d="M-119.8,421.1"/>
		<path class="st1" d="M-126.6,421.1"/>
		<path class="st1" d="M-121.5,420"/>
		<path class="st1" d="M-126.7,423.1"/>
		<g>
			<path d="M-106,416.8c-1,0.3-2.6,0.7-2.8,0.6c-8.2-3.8-20.5-6.5-32.4,1.9c-0.5,0.3-0.7,1-0.4,1.5c0.2,0.4,0.6,0.6,1,0.6
				c0.2,0,0.5-0.1,0.7-0.2c11-7.8,22.5-5.2,30.2-1.7c1.2,0.6,2.8,0.2,4-0.3c0.1-0.1,0.2-0.2,0.2-0.3l0.2-1.5
				C-105.2,417-105.6,416.7-106,416.8z"/>
			<path d="M-104.9,423.1c-1.6,0-3.3-0.8-4.2-1.2c-0.3-0.1-0.6-0.3-0.8-0.4c-4.8-2.4-17.4-7-29.7,1.7c-0.3,0.2-0.5,0.6-0.5,0.9
				s0.2,0.7,0.5,0.9c5.4,3.8,10.8,5.1,15.7,5.1c1.4,0,2.8-0.1,4.1-0.3c-3.2,2.5-5.3,5.2-7,7.4c-2.5,3.2-4.2,5.3-7.5,5.3
				c-2.7,0-4.9-2.2-4.9-4.9c0-2,1.7-3.7,3.7-3.7c1.4,0,2.6,1.1,2.7,2.5c-0.5-0.6-1.3-1-2.1-1c-1.5,0-2.7,1.2-2.7,2.7
				c0,1.5,1.2,2.7,3.1,2.7c2.2,0,4-1.9,4-4.2c0-2.7-2.2-5-5-5c-3.3,0-5.9,2.7-5.9,5.9c0,3.9,3.2,7.2,7.2,7.2c4.4,0,6.7-2.9,9.2-6.2
				c2.2-2.9,4.9-6.3,9.9-9.3c-1,2.5-1.8,6.3-1.3,9.5c0.1,0.8,1.2,1.1,1.7,0.5l5.2-6.1c0.4-0.4,0.2-1.1-0.3-1.3
				c-1.7-0.8-1.8-3-1.7-4.3c0.1-0.1,0.2-0.1,0.4-0.2c0.5-0.2,0.9-0.4,1.3-0.6c0.3-0.1,0.5-0.3,0.8-0.4c0.9-0.5,3-1.3,4.2-1.3
				C-104.4,424.9-104.4,423.1-104.9,423.1z M-136.9,424.1c3.8-2.3,7.6-3.4,11.1-3.6c-0.7,0.8-1.1,1.9-1.1,3c0,1.9,1.2,3.6,2.8,4.4
				C-128,427.7-132.5,426.8-136.9,424.1z M-119.4,427.4c1.3-0.9,2.1-2.3,2.1-4c0-0.9-0.2-1.7-0.6-2.4c3.6,0.7,8,3,8.1,3
				C-110,424.1-115.5,426.6-119.4,427.4z"/>
		</g>
	</g>
</g>
</svg>
