<?xml version="1.0" encoding="utf-8"?>
<!-- Generator: Adobe Illustrator 19.0.0, SVG Export Plug-In . SVG Version: 6.00 Build 0)  -->
<svg version="1.1" id="Capa_1" xmlns="http://www.w3.org/2000/svg" xmlns:xlink="http://www.w3.org/1999/xlink" x="0px" y="0px"
	 viewBox="-210 325.9 173.5 190" style="enable-background:new -210 325.9 173.5 190;" xml:space="preserve">
<style type="text/css">
	.st0{clip-path:url(#SVGID_1_);}
</style>
<g id="XMLID_100_">
	<path d="M-45.1,494.1h-156.3c-2,0-3.8-1-4.8-2.7s-1-3.8,0-5.5l78.1-135.4c1-1.7,2.8-2.8,4.8-2.8l0,0c2,0,3.8,1,4.8,2.7l78.2,135.4
		c1,1.7,1,3.8,0,5.5C-41.3,493-43.1,494.1-45.1,494.1z M-191.9,483.1h137.3l-68.7-118.9L-191.9,483.1z"/>
</g>
<g>
	<g>
		<defs>
			<rect id="SVGID_3_" x="-153.2" y="414.7" width="58" height="46.4"/>
		</defs>
		<clipPath id="SVGID_1_">
			<use xlink:href="#SVGID_3_"  style="overflow:visible;"/>
		</clipPath>
		<path class="st0" d="M-124.4,455.5c0,1-0.6,1.9-1.5,2.4c-0.4,0.2-0.7,0.3-1.1,0.3c-0.6,0-1.2-0.2-1.7-0.6l-14.3-11.9h-7.6
			c-1.4,0-2.6-1.2-2.6-2.6v-10.4c0-1.4,1.2-2.6,2.6-2.6h7.6l14.3-11.9c0.8-0.6,1.9-0.8,2.8-0.4c0.9,0.4,1.5,1.4,1.5,2.4V455.5z
			 M-114.4,451.4c-0.1,0-0.1,0-0.2,0c-0.7,0-1.4-0.3-1.9-0.8l-0.4-0.4c-0.9-0.9-1-2.4-0.3-3.4c2-2.6,3-5.8,3-9.1
			c0-3.5-1.2-6.8-3.4-9.6c-0.8-1-0.8-2.6,0.2-3.5l0.4-0.4c0.5-0.5,1.2-0.8,2-0.8c0.7,0,1.4,0.4,1.9,1c3.1,3.8,4.7,8.4,4.7,13.2
			c0,4.6-1.4,8.9-4.2,12.5C-112.9,451-113.6,451.4-114.4,451.4L-114.4,451.4z M-103.5,459.5c-0.5,0.6-1.2,0.9-1.9,0.9
			c0,0-0.1,0-0.1,0c-0.7,0-1.4-0.3-1.9-0.8l-0.3-0.3c-1-1-1-2.5-0.2-3.5c4.2-5,6.5-11.4,6.5-17.9c0-6.8-2.5-13.4-7-18.5
			c-0.9-1-0.9-2.6,0.1-3.6l0.3-0.3c0.5-0.5,1.2-0.8,1.9-0.8c0.7,0,1.4,0.3,1.9,0.9c5.5,6.1,8.5,14.1,8.5,22.3
			C-95.6,445.8-98.4,453.5-103.5,459.5L-103.5,459.5z M-103.5,459.5"/>
	</g>
</g>
</svg>
