<?xml version="1.0" encoding="utf-8"?>
<!-- Generator: Adobe Illustrator 19.0.0, SVG Export Plug-In . SVG Version: 6.00 Build 0)  -->
<svg version="1.1" id="Capa_1" xmlns="http://www.w3.org/2000/svg" xmlns:xlink="http://www.w3.org/1999/xlink" x="0px" y="0px"
	 viewBox="-210 325.9 173.5 190" style="enable-background:new -210 325.9 173.5 190;" xml:space="preserve">
<g id="XMLID_100_">
	<path d="M-45.1,494.1h-156.3c-2,0-3.8-1-4.8-2.7s-1-3.8,0-5.5l78.1-135.4c1-1.7,2.8-2.8,4.8-2.8l0,0c2,0,3.8,1,4.8,2.7l78.2,135.4
		c1,1.7,1,3.8,0,5.5C-41.3,493-43.1,494.1-45.1,494.1z M-191.9,483.1h137.3l-68.7-118.9L-191.9,483.1z"/>
</g>
<g>
	<g>
		<rect x="-149.4" y="421.6" width="55.2" height="3.7"/>
	</g>
	<path d="M-157.3,469.5h31.6c0.6,0,0.9-6.1,0.9-7.7c0-6.4-4.5-11.7-11.3-13.8c-0.5-0.2-0.9-0.4-1-0.9c-0.1-0.5,0.1-0.9,0.5-1.2
		c2.2-1.6,3.4-4.1,3.4-6.7c0-4.7-3.8-8.5-8.5-8.5c-4.7,0-8.5,3.8-8.5,8.5c0,2.7,1.3,5.2,3.4,6.8c0.4,0.3,0.6,0.8,0.5,1.4
		c-0.1,0.5-0.5,0.9-1,1.1c-6.7,2.1-11.3,7-11.3,13.4C-158.3,463.4-157.9,469.5-157.3,469.5z"/>
	<g>
		<path d="M-130.8,432.7c0.6,3.7,1,3.7,1.2,3.7h35.3v-3.7H-130.8z"/>
	</g>
	<g>
		<path d="M-130.7,443.7c-0.3,0-0.6,1.1-1,1.6c1.2,0.6,2.3,2.1,3.3,2.1h34.1v-3.7H-130.7z"/>
	</g>
	<g>
		<path d="M-122.6,454.7c0.5,3.7,0.9,3.7,1.1,3.7h27.2v-3.7H-122.6z"/>
	</g>
	<g>
		<path d="M-121.3,465.8c-0.1,3.7-0.2,3.7-0.4,3.7h27.5v-3.7H-121.3z"/>
	</g>
</g>
</svg>
