<?xml version="1.0" encoding="utf-8"?>
<!-- Generator: Adobe Illustrator 19.0.0, SVG Export Plug-In . SVG Version: 6.00 Build 0)  -->
<svg version="1.1" id="Capa_1" xmlns="http://www.w3.org/2000/svg" xmlns:xlink="http://www.w3.org/1999/xlink" x="0px" y="0px"
	 viewBox="-210 325.9 173.5 190" style="enable-background:new -210 325.9 173.5 190;" xml:space="preserve">
<g id="XMLID_100_">
	<path d="M-45.1,494.1h-156.3c-2,0-3.8-1-4.8-2.7s-1-3.8,0-5.5l78.1-135.4c1-1.7,2.8-2.8,4.8-2.8l0,0c2,0,3.8,1,4.8,2.7l78.2,135.4
		c1,1.7,1,3.8,0,5.5C-41.3,493-43.1,494.1-45.1,494.1z M-191.9,483.1h137.3l-68.7-118.9L-191.9,483.1z"/>
</g>
<g>
	<g>
		<g>
			<path d="M-108.3,409.3c-0.4,0-0.7-0.1-1.2-0.4c-3.7-3.7-8.6-5.8-13.9-5.8c-5.2,0-10.2,2.1-13.9,5.8c-0.6,0.6-1.6,0.6-2.2,0
				c-0.6-0.6-0.6-1.6,0-2.2c4.4-4.3,10.2-6.6,16.3-6.6c6.1,0,11.8,2.4,16.1,6.6c0.6,0.6,0.6,1.6,0,2.2
				C-107.4,409.2-107.9,409.3-108.3,409.3z"/>
			<path d="M-113.2,414.2c-0.4,0-0.7-0.1-1.2-0.4c-2.4-2.4-5.6-3.7-9-3.7c-3.4,0-6.6,1.3-9,3.7c-0.6,0.6-1.6,0.6-2.2,0
				c-0.6-0.6-0.6-1.6,0-2.2c3-3,6.9-4.6,11.2-4.6c4.3,0,8.3,1.6,11.2,4.6c0.6,0.6,0.6,1.6,0,2.2
				C-112.3,414.1-112.8,414.2-113.2,414.2z"/>
			<path d="M-128.4,419.1c-0.4,0-0.7-0.1-1.2-0.4c-0.6-0.6-0.6-1.6,0-2.2c1.6-1.6,4-2.7,6.4-2.7c2.4,0,4.6,0.9,6.4,2.7
				c0.6,0.6,0.6,1.6,0,2.2c-0.6,0.6-1.6,0.6-2.2,0c-1.2-1-2.7-1.6-4.1-1.6c-1.5,0-3,0.6-4.1,1.6
				C-127.7,418.9-128.1,419.1-128.4,419.1z"/>
		</g>
		<path d="M-104.6,432.8c-5-5-11.5-7.7-18.6-7.7s-13.6,2.8-18.6,7.7c-5,5-7.7,11.5-7.7,18.6s2.8,13.6,7.7,18.6
			c5,5,11.5,7.7,18.6,7.7c2.8,0,5.6-0.4,8.3-1.3c3.8-1.3,7.4-3.4,10.3-6.4c5-5,7.7-11.5,7.7-18.6S-99.6,437.9-104.6,432.8z
			 M-137.6,437.1c2.2-2.2,5-4,7.8-4.9c2.1-0.7,4.1-1,6.4-1c5.5,0,10.5,2.1,14.3,5.9c1.5,1.5,2.7,3.1,3.5,4.9h-35.8
			C-140.2,440.2-139.1,438.6-137.6,437.1z M-129,450.9c0-3.3,2.5-5.8,5.8-5.8c3.3,0,5.8,2.5,5.8,5.8s-2.5,5.8-5.8,5.8
			C-126.5,456.6-129,454.1-129,450.9z M-137.6,465.8c-3.4-3.4-5.5-7.8-5.9-12.7h6.6c5,0,9.2,4.1,9.2,9.2v9
			C-131.4,470.4-134.8,468.6-137.6,465.8z M-108.9,465.8c-2.8,2.8-6.2,4.6-10,5.5v-9c0-5,4.1-9.2,9.2-9.2h6.6
			C-103.5,457.8-105.5,462.2-108.9,465.8z"/>
	</g>
</g>
</svg>
