<?xml version="1.0" encoding="utf-8"?>
<!-- Generator: Adobe Illustrator 19.0.0, SVG Export Plug-In . SVG Version: 6.00 Build 0)  -->
<svg version="1.1" id="Capa_1" xmlns="http://www.w3.org/2000/svg" xmlns:xlink="http://www.w3.org/1999/xlink" x="0px" y="0px"
	 viewBox="-210 325.9 173.5 190" style="enable-background:new -210 325.9 173.5 190;" xml:space="preserve">
<style type="text/css">
	.st0{clip-path:url(#SVGID_1_);}
</style>
<g id="XMLID_100_">
	<path d="M-45.1,494.1h-156.3c-2,0-3.8-1-4.8-2.7s-1-3.8,0-5.5l78.1-135.4c1-1.7,2.8-2.8,4.8-2.8l0,0c2,0,3.8,1,4.8,2.7l78.2,135.4
		c1,1.7,1,3.8,0,5.5C-41.3,493-43.1,494.1-45.1,494.1z M-191.9,483.1h137.3l-68.7-118.9L-191.9,483.1z"/>
</g>
<g>
	<path d="M-110.1,447.8c0,1.6-1.3,3-3,3c-1.6,0-3-1.3-3-3c0-1.6,1.3-3,3-3C-111.4,444.9-110.1,446.2-110.1,447.8L-110.1,447.8z
		 M-110.1,447.8"/>
	<path d="M-98.9,446.9l-4.6-0.6c-0.5-1.8-1.2-3.4-2-4.9l2.9-3.6c0.4-0.6,0.4-1.4-0.1-1.9l-4.7-4.7c-0.5-0.5-1.4-0.6-1.9-0.1
		l-3.6,2.9c-1.5-0.9-3.2-1.6-4.9-2l-0.6-4.6c-0.1-0.7-0.7-1.3-1.4-1.3h-6.7c-0.7,0-1.4,0.6-1.4,1.3l-0.6,4.6c-1.7,0.5-3.4,1.2-4.9,2
		l-3.6-2.9c-0.6-0.4-1.4-0.4-1.9,0.1l-4.7,4.7c-0.5,0.5-0.6,1.4-0.1,1.9l2.9,3.6c-0.9,1.5-1.6,3.2-2,4.9l-4.6,0.6
		c-0.7,0.1-1.3,0.7-1.3,1.4v6.7c0,0.7,0.6,1.4,1.3,1.4l4.6,0.6h39.7l4.6-0.6c0.7-0.1,1.3-0.7,1.3-1.4v-6.7
		C-97.7,447.6-98.2,447-98.9,446.9L-98.9,446.9z M-127.7,448.6c0,0.2-0.1,0.3-0.3,0.3l-1.1,0.1c-0.1,0.4-0.3,0.8-0.5,1.1l0.7,0.8
		c0.1,0.1,0.1,0.3,0,0.4l-1.1,1.1c-0.1,0.1-0.3,0.1-0.4,0l-0.8-0.7c-0.3,0.2-0.7,0.4-1.1,0.5l-0.1,1.1c0,0.2-0.2,0.3-0.3,0.3h-1.5
		c-0.2,0-0.3-0.1-0.3-0.3l-0.1-1.1c-0.4-0.1-0.8-0.3-1.1-0.5l-0.8,0.7c-0.1,0.1-0.3,0.1-0.4,0l-1.1-1.1c-0.1-0.1-0.1-0.3,0-0.4
		l0.7-0.8c-0.2-0.4-0.4-0.7-0.5-1.1l-1.1-0.1c-0.2,0-0.3-0.2-0.3-0.3v-1.5c0-0.2,0.1-0.3,0.3-0.3l1.1-0.1c0.1-0.4,0.3-0.8,0.5-1.1
		l-0.7-0.8c-0.1-0.1-0.1-0.3,0-0.4l1.1-1.1c0.1-0.1,0.3-0.1,0.4,0l0.8,0.7c0.3-0.2,0.7-0.4,1.1-0.5l0.1-1.1c0-0.2,0.2-0.3,0.3-0.3
		h1.5c0.2,0,0.3,0.1,0.3,0.3l0.1,1.1c0.4,0.1,0.8,0.3,1.1,0.5l0.8-0.7c0.1-0.1,0.3-0.1,0.4,0l1.1,1.1c0.1,0.1,0.1,0.3,0,0.4
		l-0.7,0.8c0.2,0.4,0.4,0.7,0.5,1.1l1.1,0.1c0.2,0,0.3,0.2,0.3,0.3V448.6z M-107.2,448.6c0,0.2-0.1,0.3-0.3,0.3l-1.1,0.1
		c-0.1,0.4-0.3,0.8-0.5,1.1l0.7,0.8c0.1,0.1,0.1,0.3,0,0.4l-1.1,1.1c-0.1,0.1-0.3,0.1-0.4,0l-0.8-0.7c-0.3,0.2-0.7,0.4-1.1,0.5
		l-0.1,1.1c0,0.2-0.2,0.3-0.3,0.3h-1.5c-0.2,0-0.3-0.1-0.3-0.3l-0.1-1.1c-0.4-0.1-0.8-0.3-1.1-0.5l-0.8,0.7c-0.1,0.1-0.3,0.1-0.4,0
		l-1.1-1.1c-0.1-0.1-0.1-0.3,0-0.4l0.7-0.8c-0.2-0.4-0.4-0.7-0.5-1.1l-1.1-0.1c-0.2,0-0.3-0.2-0.3-0.3v-1.5c0-0.2,0.1-0.3,0.3-0.3
		l1.1-0.1c0.1-0.4,0.3-0.8,0.5-1.1l-0.7-0.8c-0.1-0.1-0.1-0.3,0-0.4l1.1-1.1c0.1-0.1,0.3-0.1,0.4,0l0.8,0.7c0.3-0.2,0.7-0.4,1.1-0.5
		l0.1-1.1c0-0.2,0.2-0.3,0.3-0.3h1.5c0.2,0,0.3,0.1,0.3,0.3l0.1,1.1c0.4,0.1,0.8,0.3,1.1,0.5l0.8-0.7c0.1-0.1,0.3-0.1,0.4,0l1.1,1.1
		c0.1,0.1,0.1,0.3,0,0.4l-0.7,0.8c0.2,0.4,0.4,0.7,0.5,1.1l1.1,0.1c0.2,0,0.3,0.2,0.3,0.3V448.6z M-107.2,448.6"/>
	<g>
		<defs>
			<rect id="SVGID_3_" x="-155.3" y="419.7" width="64.2" height="59.1"/>
		</defs>
		<clipPath id="SVGID_1_">
			<use xlink:href="#SVGID_3_"  style="overflow:visible;"/>
		</clipPath>
		<path class="st0" d="M-130.7,447.8c0,1.6-1.3,3-3,3c-1.6,0-3-1.3-3-3c0-1.6,1.3-3,3-3C-132,444.9-130.7,446.2-130.7,447.8
			L-130.7,447.8z M-130.7,447.8"/>
		<path class="st0" d="M-142.8,430.6l-7.6-6.6c0.8-1.1,0.7-2.6-0.3-3.6c-1.1-1.1-2.8-1.1-3.9,0c-1.1,1.1-1.1,2.8,0,3.9
			c1,1,2.5,1.1,3.5,0.3l6.6,7.6L-142.8,430.6z M-142.8,430.6"/>
		<path class="st0" d="M-92.2,420.5c-1.1-1.1-2.8-1.1-3.9,0c-1,1-1,2.5-0.3,3.5l-7.6,6.6l1.6,1.6l6.6-7.6c1.1,0.8,2.6,0.7,3.6-0.3
			C-91.1,423.3-91.1,421.6-92.2,420.5L-92.2,420.5z M-92.2,420.5"/>
	</g>
	<path d="M-106.8,462l0.4-0.6c0.5-0.8,0.8-1.6,1.2-2.5h-6.3c-2.4,4-6.8,6.6-11.8,6.6c-5,0-9.3-2.6-11.8-6.6h-6.3
		c0.3,0.9,0.7,1.7,1.2,2.5l0.4,0.6l-3.3,4.2c-0.1,0.1-0.1,0.4,0,0.6l4.7,4.7c0.1,0.1,0.4,0.2,0.6,0l4.2-3.3l0.6,0.3
		c1.5,0.8,3,1.5,4.7,1.9l0.7,0.2l0.6,5.3c0,0.2,0.2,0.4,0.4,0.4h6.7c0.2,0,0.4-0.2,0.4-0.4l0.6-5.3l0.7-0.2c1.6-0.4,3.2-1.1,4.7-1.9
		l0.6-0.3l4.2,3.3c0.1,0.1,0.4,0.1,0.6,0l4.7-4.7c0.1-0.1,0.1-0.4,0-0.6L-106.8,462z M-106.8,462"/>
</g>
</svg>
