<?xml version="1.0" encoding="utf-8"?>
<!-- Generator: Adobe Illustrator 19.0.0, SVG Export Plug-In . SVG Version: 6.00 Build 0)  -->
<svg version="1.1" id="Capa_1" xmlns="http://www.w3.org/2000/svg" xmlns:xlink="http://www.w3.org/1999/xlink" x="0px" y="0px"
	 viewBox="-210 325.9 173.5 190" style="enable-background:new -210 325.9 173.5 190;" xml:space="preserve">
<g id="XMLID_100_">
	<path d="M-45.1,494.1h-156.3c-2,0-3.8-1-4.8-2.7s-1-3.8,0-5.5l78.1-135.4c1-1.7,2.8-2.8,4.8-2.8l0,0c2,0,3.8,1,4.8,2.7l78.2,135.4
		c1,1.7,1,3.8,0,5.5C-41.3,493-43.1,494.1-45.1,494.1z M-191.9,483.1h137.3l-68.7-118.9L-191.9,483.1z"/>
</g>
<path d="M-105.6,413.6c-1-2.4-11.6-6.4-15.1,9.3l-18.5,13.9l-27.7,16.6l1.4,0.5l3.7-1.1l-5.8,3.4l1.9,0.7l19.8-5.9
	c0,0,8.9,1.2,15.9,1.2c-0.3,0.7-0.7,1.3-1,2c-0.3,0.7,2.5,7.3,3.5,10.5c-1.7,0.3-3.5,0.5-5.2,0.8c-0.6,0.1-0.4,1,0.3,0.9
	c1.8-0.3,3.7-0.6,5.5-0.8c1.8,0.3,3.7,0.6,5.5,0.8c0.6,0.1,0.9-0.9,0.3-0.9c-1.8-0.3-3.5-0.5-5.3-0.8c-0.1-0.3-0.2-0.5-0.2-0.8
	c-0.3-1.1-0.6-2.1-0.9-3.2c-0.6-2-1.2-4-1.8-5.9c0,0,0,0,0,0c0.2-0.4,6.9-3.5,6.9-3.5s0,0,0,0c24.3-8.7,10.9-28.8,16-31.9
	c2.2-1.3,9.5-3.3,9.5-3.3C-97,413.8-105.6,413.6-105.6,413.6z"/>
</svg>
