<?xml version="1.0" encoding="utf-8"?>
<!-- Generator: Adobe Illustrator 19.0.0, SVG Export Plug-In . SVG Version: 6.00 Build 0)  -->
<svg version="1.1" id="Capa_1" xmlns="http://www.w3.org/2000/svg" xmlns:xlink="http://www.w3.org/1999/xlink" x="0px" y="0px"
	 viewBox="-210 325.9 173.5 190" style="enable-background:new -210 325.9 173.5 190;" xml:space="preserve">
<style type="text/css">
	.st0{fill:none;}
</style>
<g id="XMLID_100_">
	<path d="M-45.1,494.1h-156.3c-2,0-3.8-1-4.8-2.7s-1-3.8,0-5.5l78.1-135.4c1-1.7,2.8-2.8,4.8-2.8l0,0c2,0,3.8,1,4.8,2.7l78.2,135.4
		c1,1.7,1,3.8,0,5.5C-41.3,493-43.1,494.1-45.1,494.1z M-191.9,483.1h137.3l-68.7-118.9L-191.9,483.1z"/>
</g>
<rect x="-164.2" y="404" class="st0" width="81.8" height="81.8"/>
<path d="M-123.3,417.7c-20.6,0-36.8,8.6-36.8,19.6v15.2c0,11,16.2,19.6,36.8,19.6s36.8-8.6,36.8-19.6v-15.2
	C-86.4,426.3-102.6,417.7-123.3,417.7z M-123.3,421.1c18.1,0,33.5,7.4,33.5,16.2c0,0.5-0.1,1-0.2,1.5c0,0.2-0.1,0.4-0.2,0.6
	c-0.1,0.2-0.2,0.5-0.2,0.7c-0.1,0.3-0.2,0.6-0.4,0.9c-0.1,0.1-0.1,0.3-0.2,0.4c-0.2,0.4-0.4,0.7-0.7,1c-6.6-5.9-18.4-9.5-31.6-9.5
	c-13.2,0-25.1,3.6-31.6,9.5c-0.3-0.4-0.5-0.7-0.7-1.1c-0.1-0.1-0.1-0.3-0.2-0.4c-0.1-0.3-0.3-0.6-0.4-0.9c-0.1-0.2-0.2-0.5-0.2-0.7
	c-0.1-0.2-0.1-0.4-0.2-0.6c-0.1-0.5-0.2-1-0.2-1.5C-156.7,428.5-141.4,421.1-123.3,421.1z M-93.9,444.9c-5.7,5.1-16.9,8.6-29.4,8.6
	s-23.7-3.5-29.4-8.6c5.9-5.3,17.2-8.6,29.4-8.6C-111,436.3-99.8,439.6-93.9,444.9z M-89.8,452.5c0,8.8-15.3,16.2-33.5,16.2
	s-33.5-7.4-33.5-16.2v-7c5.8,6.7,18.4,11.3,33.5,11.3c15.1,0,27.7-4.6,33.5-11.3L-89.8,452.5L-89.8,452.5z M-127.6,443.3
	c-0.8-0.2-1.7-0.4-2.1-0.8c-1.5-1.6-4-1.6-5.4-0.1c-0.6,0.4-3.2,2.1-3.3,4.3c0,0.7,0.2,1.8,1.5,2.8c1.2,0.9,2.2,1.3,3.1,1.3
	c0.8,0,1.4-0.3,2-0.6c0.6-0.3,1.2-0.6,2-0.6c3,0,4.9-0.6,5.5-3.5C-124.1,444-126.2,443.6-127.6,443.3z M-119.4,447.2
	c-0.1,0.4,0.1,0.7,0.2,0.9c0,0.1-0.1,0.1-0.2,0.2c-1.5,1.5-2,2.6-1.7,3.5c0.1,0.3,0.5,0.9,1.6,0.9c1.2,0,3.2-0.8,5.3-2.1
	c4.8-1.9,7.2-3.5,7-4.9c-0.1-1.2-1.6-1.5-2.1-1.5c-1.4-0.2-2.3,0-3.1,0.2c-0.4,0.1-0.8,0.2-1.3,0.3c-1.3,0.1-2.1,0.3-4,1.1
	C-118.7,446.3-119.3,446.7-119.4,447.2z M-126.7,439.9c-0.3,1.2,1,2.1,2.1,2.7c1.9,1.5,3.3,2.2,4.5,2.2c1.3,0,2-0.7,2.6-1.3
	c0.5-0.5,0.9-0.8,1.5-0.8c0.8-0.1,1.6-0.2,1.9-0.9c0.2-0.7-0.3-1.2-0.7-1.6c-0.5-0.4-1-0.6-1.6-0.8c-0.3-0.1-0.6-0.2-0.9-0.4
	c-0.1,0-0.1-0.1-0.2-0.1c-0.3-0.1-0.6-0.2-0.9-0.3c-0.6-0.2-0.9-0.3-1.3-0.3c0,0-0.1,0-0.2,0c-0.2,0-0.8,0-1.6,0
	C-125.7,438.3-126.5,439.1-126.7,439.9z"/>
</svg>
