<?xml version="1.0" encoding="utf-8"?>
<!-- Generator: Adobe Illustrator 19.0.0, SVG Export Plug-In . SVG Version: 6.00 Build 0)  -->
<svg version="1.1" id="Capa_1" xmlns="http://www.w3.org/2000/svg" xmlns:xlink="http://www.w3.org/1999/xlink" x="0px" y="0px"
	 viewBox="-210 325.9 173.5 190" style="enable-background:new -210 325.9 173.5 190;" xml:space="preserve">
<g id="XMLID_100_">
	<path d="M-45.1,494.1h-156.3c-2,0-3.8-1-4.8-2.7s-1-3.8,0-5.5l78.1-135.4c1-1.7,2.8-2.8,4.8-2.8l0,0c2,0,3.8,1,4.8,2.7l78.2,135.4
		c1,1.7,1,3.8,0,5.5C-41.3,493-43.1,494.1-45.1,494.1z M-191.9,483.1h137.3l-68.7-118.9L-191.9,483.1z"/>
</g>
<g>
	<path d="M-85.6,461.3L-85.6,461.3c2.3-5.5,1.7-11.8-1.6-16.8c-3.3-5-8.9-8-14.9-7.9c-0.5,0-0.9,0-1.4,0.1c-1.4,0.1-2.7,0.4-4,0.8
		c-4.2,1.4-7.7,4.2-9.9,8c0,0,0,0,0,0c0,0,0,0,0,0v0c-2.2,3.7-2.9,8.1-2,12.3c0.3,1.4,0.7,2.8,1.4,4.1c0.2,0.3,0.3,0.7,0.5,1.1
		c2.8,5.1,7.9,8.4,13.7,9c5.8,0.6,11.5-1.7,15.3-6l0.1,0c-7.3,9.6-20.3,12.8-30.5,6.9c-1.5-0.9-3-2-4.3-3.2
		c-1.3,1.3-2.7,2.3-4.3,3.2c-10.2,5.9-23.2,2.7-30.5-6.9l0.1-0.1c3.8,4.4,9.5,6.6,15.3,6c5.8-0.6,10.9-4,13.7-9
		c0.2-0.3,0.4-0.7,0.5-1.1c0.6-1.3,1.1-2.7,1.4-4.1c0.9-4.2,0.1-8.6-2-12.3v0c0,0,0,0,0,0c0,0,0,0,0,0c-2.2-3.8-5.7-6.6-9.9-8
		c-1.3-0.4-2.7-0.7-4-0.8c-0.5,0-0.9-0.1-1.4-0.1c-1.5,0-3.1,0.2-4.6,0.6c-5,1.3-9.2,4.7-11.4,9.4c-2.3,4.6-2.4,10-0.4,14.8l0,0
		c-5.4-11.4-1.7-24.9,8.8-31c1.5-0.9,3.2-1.6,4.9-2.1c-0.4-1.7-0.7-3.5-0.7-5.3c0-12,9.6-21.8,21.9-23.1v0.1
		c-8.7,1.3-15,8.8-15,17.5c0,3.1,0.8,6.2,2.4,8.9c0.2,0.4,0.5,0.8,0.8,1.2c0.8,1.1,1.7,2.1,2.7,3.1c6.8,6.1,17,6.1,23.8,0
		c1-0.9,1.9-1.9,2.7-3.1c0.3-0.4,0.5-0.8,0.8-1.2c1.6-2.7,2.4-5.8,2.4-8.9c0-8.8-6.4-16.2-15-17.5l0-0.1
		c12.3,1.3,21.8,11.1,21.8,23.1c0,1.8-0.2,3.6-0.7,5.3c1.7,0.5,3.4,1.2,4.9,2.1C-83.9,436.4-80.2,449.9-85.6,461.3z"/>
	<path d="M-101.4,441.9c0,8.8-5.3,16.7-13.4,20.1c-0.1-0.1-0.2-0.3-0.3-0.4c-0.2-0.3-0.3-0.6-0.4-0.9c-0.5-1.1-0.9-2.3-1.1-3.5
		c0-0.1,0-0.2-0.1-0.3c6-2.6,9.8-8.5,9.8-15c0-0.6,0-1.1-0.1-1.7c0.1,0,0.2-0.1,0.3-0.1c1.1-0.4,2.3-0.6,3.4-0.7
		c0.4,0,0.8-0.1,1.2-0.1c0.1,0,0.3,0,0.4,0C-101.4,440.2-101.4,441.1-101.4,441.9z"/>
	<path d="M-110,424.5c-0.1,0.2-0.2,0.3-0.3,0.5c-0.2,0.3-0.4,0.7-0.6,1c-0.6,1-1.4,1.8-2.3,2.6c-0.1,0.1-0.1,0.1-0.2,0.2
		c-5.8-4.4-13.8-4.4-19.6,0c-0.1-0.1-0.2-0.1-0.2-0.2c-0.9-0.8-1.6-1.7-2.3-2.6c-0.2-0.3-0.5-0.7-0.7-1c-0.1-0.2-0.2-0.3-0.2-0.4
		C-128.7,418.6-117.8,418.6-110,424.5L-110,424.5z"/>
	<path d="M-129.8,456.9c0,0.1,0,0.2-0.1,0.4c-0.2,1.2-0.6,2.3-1.1,3.4c-0.2,0.3-0.3,0.7-0.5,0.9c-0.1,0.1-0.2,0.3-0.2,0.4
		c-8.1-3.4-13.4-11.3-13.4-20.1c0-0.8,0-1.7,0.2-2.5c0.1,0,0.2,0,0.3,0h0.2c0.4,0,0.8,0,1.2,0.1c1.2,0.1,2.3,0.3,3.4,0.7
		c0.1,0,0.2,0.1,0.3,0.1c-0.1,0.6-0.1,1.1-0.1,1.7C-139.6,448.4-135.8,454.3-129.8,456.9z"/>
</g>
</svg>
