<?xml version="1.0" encoding="utf-8"?>
<!-- Generator: Adobe Illustrator 19.0.0, SVG Export Plug-In . SVG Version: 6.00 Build 0)  -->
<svg version="1.1" id="Capa_1" xmlns="http://www.w3.org/2000/svg" xmlns:xlink="http://www.w3.org/1999/xlink" x="0px" y="0px"
	 viewBox="-210 325.9 173.5 190" style="enable-background:new -210 325.9 173.5 190;" xml:space="preserve">
<g id="XMLID_100_">
	<path d="M-45.1,494.1h-156.3c-2,0-3.8-1-4.8-2.7s-1-3.8,0-5.5l78.1-135.4c1-1.7,2.8-2.8,4.8-2.8l0,0c2,0,3.8,1,4.8,2.7l78.2,135.4
		c1,1.7,1,3.8,0,5.5C-41.3,493-43.1,494.1-45.1,494.1z M-191.9,483.1h137.3l-68.7-118.9L-191.9,483.1z"/>
</g>
<g>
	<path d="M-123.3,417.4c-14.1,0-25.5,11.4-25.5,25.5s11.4,25.5,25.5,25.5s25.5-11.4,25.5-25.5C-97.8,428.8-109.2,417.4-123.3,417.4z
		 M-123.3,466c-12.7,0-23.1-10.3-23.1-23.1s10.3-23.1,23.1-23.1s23.1,10.3,23.1,23.1C-100.2,455.6-110.5,465.9-123.3,466z"/>
	<path d="M-94.7,432.6l5.6-2.3L-90,428l-5.7,2.3c-1.3-2.9-3.1-5.6-5.3-8l4.3-4.3l-1.7-1.7l-4.3,4.3c-2.3-2.1-4.9-3.9-7.7-5.2
		l2.4-5.6l-2.2-0.9l-2.4,5.6c-3-1.1-6.2-1.8-9.4-1.9v-6.1h-2.4v6.1c-3.1,0.1-6.2,0.7-9.1,1.8l-2.3-5.6l-2.2,0.9l2.3,5.7
		c-2.9,1.3-5.6,3.1-8,5.3l-4.3-4.3l-1.7,1.7l4.3,4.3c-2.1,2.3-3.9,4.9-5.2,7.7l-5.6-2.4l-0.9,2.2l5.6,2.4c-1.1,3-1.8,6.2-1.9,9.4
		h-6.1v2.4h6.1c0.1,3.1,0.7,6.2,1.8,9.1l-5.6,2.3l0.9,2.2l5.7-2.3c1.3,2.9,3.1,5.6,5.3,8l-4.3,4.3l1.7,1.7l4.3-4.3
		c2.3,2.1,4.9,3.9,7.7,5.2l-2.4,5.6l2.2,0.9l2.4-5.6c3,1.1,6.2,1.8,9.4,1.9v6.1h2.4v-6.1c3.1-0.1,6.2-0.7,9.1-1.8l2.3,5.6l2.2-0.9
		l-2.3-5.7c2.9-1.3,5.6-3.1,8-5.3l4.3,4.3l1.7-1.7l-4.3-4.3c2.1-2.3,3.9-4.9,5.2-7.7l5.6,2.4l0.9-2.2l-5.6-2.4
		c1.1-3,1.8-6.2,1.9-9.4h6.1v-2.4h-6.1C-93.1,438.6-93.7,435.5-94.7,432.6z M-123.3,470.8c-15.4,0-27.9-12.5-27.9-27.9
		s12.5-27.9,27.9-27.9s27.9,12.5,27.9,27.9C-95.4,458.3-107.8,470.8-123.3,470.8z"/>
	<path d="M-131.5,444.1c2.2-0.7,4.2-1.9,5.7-3.7c5.7-5.7,4.1-9.7,1.7-12c-3.8-3.8-9.9-3.9-13.7-0.1s-3.9,9.9-0.1,13.7
		c0,0,0.1,0.1,0.1,0.1c1.2,1.3,2.9,2.1,4.8,2.1C-132.5,444.3-132,444.2-131.5,444.1z M-136,440.4c-2.8-2.8-2.8-7.5,0-10.3
		c2.8-2.8,7.5-2.8,10.3,0l0,0c1.5,1.5,2.9,4-1.7,8.6c-1.2,1.4-2.8,2.4-4.6,3C-133.5,442.1-135.1,441.6-136,440.4z"/>
	<rect x="-129.3" y="432" width="2.4" height="2.4"/>
	<rect x="-112.3" y="439.2" width="2.4" height="2.4"/>
	<rect x="-128.1" y="453.8" width="2.4" height="2.4"/>
	<rect x="-113.5" y="456.2" width="2.4" height="2.4"/>
	<rect x="-124.5" y="442.9" width="2.4" height="2.4"/>
	<rect x="-141.5" y="446.5" width="2.4" height="2.4"/>
	<rect x="-118.4" y="425.9" width="2.4" height="2.4"/>
	<path d="M-112.3,434.4c-6.1,0-6.1,6.4-6.1,8.5s0,8.5,6.1,8.5c4.7,0,8.5-3.8,8.5-8.5S-107.6,434.4-112.3,434.4z M-112.3,449
		c-2.2,0-3.6-1-3.6-6.1s1.5-6.1,3.6-6.1c3.4,0,6.1,2.7,6.1,6.1C-106.3,446.2-109,449-112.3,449z"/>
	<path d="M-123.4,449.7c-1.2-1.3-2.8-2.2-4.5-2.5c-1.8-0.3-3.7,0.3-4.9,1.7c-2.8,2.8-2.8,7.5,0,10.3c2.8,2.8,7.5,2.8,10.3,0
		c1.3-1.3,2-3.1,1.7-4.9C-121.2,452.5-122.1,450.9-123.4,449.7z M-124.2,457.4c-1.9,1.8-4.9,1.8-6.9,0c-1.9-1.9-1.9-5,0-6.9l0,0
		c0.6-0.7,1.4-1,2.3-1c0.2,0,0.3,0,0.5,0c1.2,0.3,2.3,0.9,3.2,1.9c0.9,0.8,1.6,2,1.9,3.2C-123.1,455.7-123.4,456.7-124.2,457.4z"/>
</g>
</svg>
