<?xml version="1.0" encoding="utf-8"?>
<!-- Generator: Adobe Illustrator 19.0.0, SVG Export Plug-In . SVG Version: 6.00 Build 0)  -->
<svg version="1.1" id="Capa_1" xmlns="http://www.w3.org/2000/svg" xmlns:xlink="http://www.w3.org/1999/xlink" x="0px" y="0px"
	 viewBox="-210 325.9 173.5 190" style="enable-background:new -210 325.9 173.5 190;" xml:space="preserve">
<g id="XMLID_100_">
	<path d="M-45.1,494.1h-156.3c-2,0-3.8-1-4.8-2.7s-1-3.8,0-5.5l78.1-135.4c1-1.7,2.8-2.8,4.8-2.8l0,0c2,0,3.8,1,4.8,2.7l78.2,135.4
		c1,1.7,1,3.8,0,5.5C-41.3,493-43.1,494.1-45.1,494.1z M-191.9,483.1h137.3l-68.7-118.9L-191.9,483.1z"/>
</g>
<g>
	<g>
		<path d="M-151,447.5c0.2,0.1,0.4,0.1,0.5,0c0.5-0.6,1-1.1,1.5-1.4c0.1-0.3-0.1-0.6-0.4-0.8c-0.5-0.3-4.6-3.1-4.8-3.3
			c-0.6-0.4-1.2-1.3-1.4-1.6c-0.3-0.6-0.9-1-1.5-1.1c-1.1-0.2-2.2,0.6-2.3,1.7c-0.2,1.1,0.6,2.2,1.7,2.3c0.4,0.1,1.3,0.3,2,0.8
			C-155.5,444.3-151.4,447.1-151,447.5z"/>
		<path d="M-94.2,445.7c-2.7-1.2-11.6-5.3-27.3-5.9c-8.5-0.3-17.5,1.4-22.2,3.9c-0.6,0.3-1.2,0.2-1.5-0.2c0,0-2-4.1-2.1-4.4
			c-0.3-0.8-0.3-1.7-0.3-1.9c0-0.7-0.2-1.3-0.8-1.8c-0.9-0.7-2.2-0.5-2.9,0.4c-0.7,0.9-0.5,2.2,0.4,2.9c0.1,0.1,0.8,0.7,1.2,1.5
			c0.1,0.3,2.1,4.7,2.2,4.9c0.1,0.2,0.2,0.5,0.2,0.5c0.1,0.2,0.1,0.5-0.2,0.7c-0.2,0.1-1.3,1-2.3,2.1c0,0-0.3,0.4-0.8,0.4l-3.9,0.2
			c-0.5,0-0.9,0.4-0.9,0.9c0,0.6,0.4,1,0.9,1.1l2.7,0.2c0,0,0,0,0,0c0.4,0.1,0.2,0.4-0.1,0.7c-0.3,0.3-0.6,0.9-0.3,1.7
			c0,0,0,0,0,0.1c0.3,0.6,0.9,0.9,1.6,0.9h60.7c1.5,0,2.8-0.6,2.8-2.3C-87,450.5-88.8,448.1-94.2,445.7z"/>
	</g>
	<g>
		<path d="M-125,436.7c-1.3,0.4-2.6,1.2-2.6,1.2c-0.3-0.2-1.3-2.9-1.9-5.1c-0.6-2.3-0.5-6.2-0.5-6.2c-0.9-0.4-3.6-0.3-8.2,0.9
			c-4.6,1.2-5.9,2.3-5.9,2.3s1.7,3.8,2.2,5.6c0.5,1.9,0.6,5,0.6,5c-4.8,0.4-3.3,2.3-3.3,2.3c1.8,2.8,6.3,1.7,6.3,1.7
			c5.6-1.4,7.9-3.6,7.9-3.6c5.8-0.7,6-3.3,6-3.3C-124.3,436.5-125,436.7-125,436.7z M-132.5,433.8c0.4,1.4,0.6,2.2,1.5,5.2
			c0,0-0.7,0.2-0.9,0.2c0,0-0.7-3.6-1.1-5.1c-0.4-1.5-0.4-2-1.6-6.1c0,0,0.3-0.1,0.9-0.1C-133.7,427.9-132.9,432.4-132.5,433.8z
			 M-125.2,437.6c0,0-3,1.3-4.7,2.8l-0.1,0c0,0,1.6-1.8,4.6-3C-125.5,437.4-124.9,437.1-125.2,437.6z"/>
		<path d="M-138.3,444.5L-138.3,444.5c0,0-1.1,0.3-2.5,0.2c-1.2-0.1-2.9-0.4-3.8-1.9c0,0-0.3-0.5-0.2-1c0.2-0.5,0.7-0.9,1.7-1.1
			c0.5-0.1,1.1-0.2,1.8-0.3c0-0.3-0.1-3.2-0.6-4.9c-0.5-1.9-2.2-5.6-2.2-5.6l0,0l0,0c0,0,1.4-1.2,5.9-2.3c2.2-0.5,4-0.9,5.5-1
			c1.3-0.1,2.3-0.1,2.7,0.1l0,0l0,0c0,0-0.1,3.9,0.5,6.2c0.6,2.2,1.6,4.8,1.9,5c0.1-0.1,1.3-0.8,2.6-1.2c0,0,0,0,0,0
			c0,0,0.3-0.1,0.5,0.1c0.1,0.1,0.2,0.4,0.1,0.8c0,0,0,0.5-0.6,1.1c-0.5,0.6-1.5,1.4-3.5,1.9l0,0c-0.6,0.1-1.2,0.3-1.9,0.4
			C-130.6,441-133,443.2-138.3,444.5L-138.3,444.5z M-143.1,440.8c-0.9,0.2-1.5,0.6-1.7,1.1c-0.2,0.5,0.2,0.9,0.2,0.9
			c0.9,1.4,2.6,1.8,3.8,1.9c1.3,0.1,2.5-0.2,2.5-0.2l0,0c5.5-1.4,7.8-3.6,7.8-3.6l0,0l0,0c0.7-0.1,1.3-0.2,1.9-0.4
			c2-0.5,3-1.3,3.5-1.8c0.5-0.6,0.6-1.1,0.6-1.1c0.1-0.4,0-0.6-0.1-0.7c-0.2-0.1-0.4-0.1-0.4-0.1l0,0c-1.3,0.4-2.6,1.2-2.6,1.2l0,0
			l0,0c-0.3-0.2-1.4-3-1.9-5.1c-0.6-2.2-0.5-5.9-0.5-6.2c-0.8-0.4-3.4-0.3-8.2,0.9c-4.3,1.1-5.8,2.2-5.9,2.3
			c0.1,0.3,1.7,3.8,2.2,5.6c0.5,1.9,0.6,4.9,0.6,5l0,0l0,0C-142,440.6-142.6,440.7-143.1,440.8z M-130,440.4l-0.1,0L-130,440.4
			c-0.1,0,1.5-1.8,4.5-3.1c0,0,0.1,0,0.2-0.1c0.1,0,0.2,0,0.2,0c0,0.1,0,0.2-0.1,0.3l0,0l0,0C-125.2,437.7-128.3,438.9-130,440.4
			L-130,440.4z M-125.3,437.3c-0.1,0-0.2,0.1-0.2,0.1c-2.6,1.1-4.2,2.7-4.5,3c1.7-1.4,4.6-2.7,4.7-2.7c0.1-0.2,0.1-0.3,0.1-0.3
			C-125.2,437.3-125.2,437.3-125.3,437.3z M-131.5,439.2c-0.2,0-0.3,0.1-0.3,0.1l0,0l0,0c0,0-0.7-3.6-1.1-5.1
			c-0.1-0.4-0.2-0.7-0.2-1c-0.2-1-0.5-2-1.4-5.1l0,0l0,0c0,0,0.3-0.1,0.9-0.1l0,0l0,0c0,0,0.7,4.5,1.2,5.9c0.2,0.6,0.3,1,0.5,1.6
			c0.2,0.8,0.5,1.8,1.1,3.6l0,0l0,0C-131,439-131.3,439.1-131.5,439.2z M-131.9,439.2c0.1,0,0.2,0,0.3-0.1c0.2-0.1,0.5-0.1,0.6-0.2
			c-0.5-1.8-0.8-2.8-1.1-3.6c-0.2-0.5-0.3-1-0.5-1.6c-0.4-1.4-1.1-5.6-1.2-5.9c-0.5,0-0.8,0.1-0.8,0.1c0.9,3,1.1,4.1,1.3,5.1
			c0.1,0.3,0.2,0.6,0.2,1C-132.6,435.6-131.9,439-131.9,439.2z"/>
	</g>
</g>
</svg>
