<?xml version="1.0" encoding="utf-8"?>
<!-- Generator: Adobe Illustrator 19.0.0, SVG Export Plug-In . SVG Version: 6.00 Build 0)  -->
<svg version="1.1" id="Capa_1" xmlns="http://www.w3.org/2000/svg" xmlns:xlink="http://www.w3.org/1999/xlink" x="0px" y="0px"
	 viewBox="-210 325.9 173.5 190" style="enable-background:new -210 325.9 173.5 190;" xml:space="preserve">
<path d="M-162.7,348.1c-0.3,0.3-0.1,0.6,0.4,0.7c2.1,0.4,2.9,2,0.9,1.6c-1.6-0.3-3.9,0.2-6.3,1.4c-4.1,2-5.6,5.5-4.2,9.8l0.4,1.1
	l-0.5,1.5c-0.4,1.1-0.6,2-0.6,3c-0.1,1.9-0.1,2-1.8,2.6c-6.8,2.5-8.8,6.3-6.9,13.4c1,3.6,3.9,6.3,6.8,6.4c1.2,0,1-0.2-0.6-1.1
	c-3.5-1.9-4.9-4-5.4-8c-0.4-3.3,0.6-5.9,2.6-6.8c0.8-0.4,0.8-0.3,0.8,1c0,0.6,0.1,1.1,0.1,1.2c0.1,0.1,0.8-0.2,0.8-0.4
	c0-0.8,1.7-3.1,2.7-3.6c0.5-0.3,1,0,1,0.6c0,2.3,1.6,5.1,3.6,6.1c2.1,1.1,6.6,1.6,9,1c0.9-0.2,0.8,0.3-0.4,1.2
	c-0.5,0.4-1.4,1.1-1.9,1.5c-6.2,4.9-8.9,9-7.8,11.8c0.2,0.6,0.2,0.6,0.9-1.4c1.3-3.9,2.8-5.9,6.3-8.3c2.1-1.4,2.7-1.4,1.4,0.1
	c-4.6,5.7-5.4,7.4-5.4,11.6c0,2.7,0.2,4,1,6.6c0.5,1.5,0.5,1.3-0.7,4.7c-1.9,5.4-1.7,8.2,0.7,13.4c1.3,2.7,1.7,3.1,1.9,2
	c0.2-1.1,1-0.2,1.4,1.7c0.5,2.5,1.3,1.5,1.3-1.7c0-2.3,0-2.3,1.6-1.4c3,1.8,3.9,1.7,2.8-0.1c-1.5-2.4-2.6-8.2-1.5-7.6
	c0.6,0.3,4.7,4.2,5.1,4.8c0.3,0.4,1,1.5,1.6,2.6c3,5.3,5,6.5,9.9,6.3c2.3-0.1,3.3,0.2,3.5,0.9c0.4,2,0.2,8.6-0.4,13.5
	c-0.5,3.6-0.7,6-0.7,7.4c0,1.4-0.2,1.6-1,1.2c-0.7-0.4-1-0.1-1,1c0,0.8-1,4-1.9,6.1c-0.3,0.8-1,2.5-1.5,3.8
	c-0.9,2.4-2.4,5.8-3.5,8.1c-0.9,1.9-0.8,2,3.4,0.3c4.2-1.7,5.1-1.9,8-1.9h2.5l1.4,0.6c3,1.3,6.3,3.7,12,8.6
	c14.6,12.5,21.2,16.2,29.6,16.8c2.4,0.2,2.4,0.3,0.5-4.4c-0.2-0.6-0.4-1.1-0.4-1.1c0,0-0.8-2.1-1.8-4.6c-1-2.5-1.9-4.9-2.1-5.3
	c-2.8-7.4-7.7-18.1-9.4-20.9c-0.6-1-0.7-1-1.8-1c-1.7,0.1-2.5-3.9-1.9-9.5c0.8-6.8,2.4-8.5,7.5-7.8c2.6,0.3,9.8,0.3,10.9-0.1
	c3.6-1.2,4.8-3,4.7-6.9c0-3,0.5-4.4,2.1-5.2c1-0.5,1.2-0.9,0.9-1.6c-0.4-0.9-0.3-1.3,0.5-2.1c1.5-1.5,1.6-2,0.7-3
	c-1.4-1.6-1.4-3.3,0-3.5c1.8-0.3,3.1-2.2,3-4.1c-0.1-1.2-0.6-2.2-2.2-4.1c-1.8-2.1-2.6-3.7-3-5.7c-0.2-1-0.1-1.3,0.9-2
	c1.3-0.8,1.9-2.2,0.8-1.8c-1.6,0.6-1.9,0.1-1-1.8c1.3-2.7,0.9-9.8-0.9-14.7c-0.5-1.3-0.5-1.4-0.2-2.1c0.5-1.8,0.1-3.9-1-5
	c-0.4-0.4-1.3-1.5-2-2.6c-5.7-8.6-21.5-15.8-32-14.6c-1.2,0.1-2.9,0.4-3.8,0.5c-0.8,0.1-1.9,0.3-2.3,0.4c-0.5,0.1-1.4,0.3-2,0.4
	c-1.8,0.4-4.3,0.7-4.6,0.6c-0.9-0.4,1.1-2.7,3.4-3.8c1.6-0.8,1.8-1,1.5-1.2c-0.7-0.5-2.7,0.6-5.9,3.1c-1.6,1.3-1.7,1.2-1.7-2.2
	c0-3.5-0.2-4.3-1.7-5.8c-2.1-2.3-4.1-2.8-2.2-0.6c1.4,1.6,1.8,2.7,1.8,4.3c0,2.1-0.7,3-1.7,2c-3.6-3.4-12-3.9-15.3-0.9
	c-0.8,0.7-1.1,0.6-1.6-0.2c-0.7-1.2-1.6-2.1-2.7-3c-0.9-0.7-1-0.9-1.3-1.8c-0.4-1.4-1.1-1.9-2.5-2C-162.2,348-162.7,348-162.7,348.1
	"/>
</svg>
