<?xml version="1.0" encoding="utf-8"?>
<!-- Generator: Adobe Illustrator 19.0.0, SVG Export Plug-In . SVG Version: 6.00 Build 0)  -->
<svg version="1.1" id="Capa_1" xmlns="http://www.w3.org/2000/svg" xmlns:xlink="http://www.w3.org/1999/xlink" x="0px" y="0px"
	 viewBox="-210 325.9 173.5 190" style="enable-background:new -210 325.9 173.5 190;" xml:space="preserve">
<g id="XMLID_100_">
	<path d="M-45.1,494.1h-156.3c-2,0-3.8-1-4.8-2.7s-1-3.8,0-5.5l78.1-135.4c1-1.7,2.8-2.8,4.8-2.8l0,0c2,0,3.8,1,4.8,2.7l78.2,135.4
		c1,1.7,1,3.8,0,5.5C-41.3,493-43.1,494.1-45.1,494.1z M-191.9,483.1h137.3l-68.7-118.9L-191.9,483.1z"/>
</g>
<g>
	<polygon points="-129,458.4 -129,455.2 -135.7,455.2 -135.7,458.4 -135,458.4 -129.8,458.4 	"/>
	<polygon points="-107.2,453.6 -107.2,449.7 -138.5,449.7 -138.5,453.6 -137.3,453.6 -127.5,453.6 -118.2,453.6 -108.4,453.6 	"/>
	<rect x="-133.4" y="460" width="2" height="16.8"/>
	<rect x="-152.6" y="472.2" width="4.5" height="4.5"/>
	<rect x="-166.9" y="472.2" width="4.5" height="4.5"/>
	<rect x="-166.9" y="461.1" width="4.5" height="4.5"/>
	<rect x="-152.6" y="461.1" width="4.5" height="4.5"/>
	<polygon points="-115.5,439.5 -115.5,429.8 -123,424.1 -130.5,429.8 -130.5,439.4 -123.1,433.7 	"/>
	<polygon points="-115.5,427.8 -115.5,416.7 -116,416.7 -129.9,416.7 -130.5,416.7 -130.5,427.8 -123,422.2 	"/>
	<polygon points="-117.6,412.4 -122.2,412.4 -122.2,407.4 -112.1,407.4 -122.2,401.4 -122.2,399.8 -123.8,399.8 -123.8,412.4 
		-128.4,412.4 -128.4,415.2 -117.6,415.2 	"/>
	<polygon points="-110,458.4 -110,455.2 -116.6,455.2 -116.6,458.4 -115.9,458.4 -110.8,458.4 	"/>
	<rect x="-114.4" y="460" width="2" height="16.8"/>
	<polygon points="-123.1,435.6 -139,448.2 -106.7,448.2 	"/>
	<polygon points="-115.9,460 -118.2,460 -118.2,455.2 -127.5,455.2 -127.5,460 -129.8,460 -129.8,476.8 -115.9,476.8 	"/>
	<rect x="-98.6" y="461.1" width="4.5" height="4.5"/>
	<rect x="-98.6" y="472.2" width="4.5" height="4.5"/>
	<path d="M-105.7,455.2h-2.8v4.9h-2.4v16.8h4.9l2.5,5.8h29.6v-27.4H-105.7z M-92.5,478.3h-7.7v-7.7h7.7V478.3z M-92.5,467.2h-7.7
		v-7.7h7.7V467.2z M-78.2,478.3h-7.7v-7.7h7.7V478.3z M-78.2,467.2h-7.7v-7.7h7.7V467.2z"/>
	<rect x="-84.3" y="461.1" width="4.5" height="4.5"/>
	<rect x="-84.3" y="472.2" width="4.5" height="4.5"/>
	<polygon points="-110.8,478.4 -115.9,478.4 -129.8,478.4 -135,478.4 -139.6,478.4 -142.8,485.7 -103.7,485.7 -106.9,478.4 	"/>
	<path d="M-135,476.8V460h-2.3v-4.9h-2.8h-32.7v27.4h29.6l2.5-5.8H-135z M-160.8,478.3h-7.7v-7.7h7.7V478.3z M-160.8,467.2h-7.7
		v-7.7h7.7V467.2z M-146.5,478.3h-7.7v-7.7h7.7V478.3z M-146.5,467.2h-7.7v-7.7h7.7V467.2z"/>
</g>
</svg>
