<?xml version="1.0" encoding="utf-8"?>
<!-- Generator: Adobe Illustrator 19.0.0, SVG Export Plug-In . SVG Version: 6.00 Build 0)  -->
<svg version="1.1" id="Capa_1" xmlns="http://www.w3.org/2000/svg" xmlns:xlink="http://www.w3.org/1999/xlink" x="0px" y="0px"
	 viewBox="-210 325.9 173.5 190" style="enable-background:new -210 325.9 173.5 190;" xml:space="preserve">
<g id="XMLID_100_">
	<path d="M-45.1,494.1h-156.3c-2,0-3.8-1-4.8-2.7s-1-3.8,0-5.5l78.1-135.4c1-1.7,2.8-2.8,4.8-2.8l0,0c2,0,3.8,1,4.8,2.7l78.2,135.4
		c1,1.7,1,3.8,0,5.5C-41.3,493-43.1,494.1-45.1,494.1z M-191.9,483.1h137.3l-68.7-118.9L-191.9,483.1z"/>
</g>
<g>
	<path d="M-90.1,447.3c-0.3-3.3-0.3-6.5-0.4-9.8c-0.1-3.8,1.2-9.9-1.4-13.2c-1.9-2.4-6.5-1.2-9.3-1.4c-4.6-0.4-9.9,0.4-14.7,0.5
		c-7,0.1-14.9-1.5-21.8,0c-3.4,0.8-6.3,2.6-9.8,2.9c-1.1,0.1-2.2,0.2-3.3,0.1c-1.4,0-0.6-1.2-2-1.6c-1.8,0.1-2.4,0.7-3,2.6
		c-1.7-0.9-2.8,1-1.2,1.6c-0.4,2.2-0.5,4.1-1.5,6.2c-0.7,1.5-2.4,2.7-1.4,4.5c0.5,0.9,3.4,2.4,4,0.5c3.9-1.3,7-4.5,10.1,0
		c2.1,3.2,3.4,9.3,8.7,7.9c-0.4,4.5,1.5,9.5-1.5,13.1c-0.7,0.8,3,2,3.5-1.2c0.2-1.6-0.1-3.3,0.3-4.9c0.3-1.2,1.4-2.4,1.4-3.6
		c0.3,2.3,3.5,8.4,1,10.5c1.6,2.3,2.9,0.9,2.8-1.1c-0.2-2.2-0.5-4.9,0-7.1c0.2-2.8-1.3-10,2.7-8.2c3.5,1.6,9.1,2.7,12.9,1.9
		c1.7-0.4,3.9-2,5.7-1.5c1.1,0.3,4.8,1.9,5.1,2.9c2.4,4.1-2.1,9.3-3.9,12.6c-0.9,1.6-0.4,1.7,1.3,1.7c1.3,0,3.1-3.8,3.9-5
		c1.2-1.8,2.1-3.6,3.5-5.3c1.7-2.1,0-5.1,1.3-7.3c1.2,2.7,2.8,5.3,4,8.1c1.3,2.9-0.2,5.8-0.4,8.6c0,0.4,2.6,0.3,2.8,0.2
		c1.1-0.4,0.6-3,0.6-3.9C-90.2,455.6-88.7,450.1-90.1,447.3z M-91.4,445.4c-0.7-1.2-3-13.7-1-14.1
		C-90.3,433.6-91.2,442.1-91.4,445.4z"/>
	<path d="M-107.6,462.5c-0.3,0.2-0.6,0.5-0.8,0.8c0,0,4.6,1.9,4.2-2"/>
	<path d="M-93.4,462.2c-1.3,1.7,1,1.9,2.6,1.4c1.9-0.6,0.3-3.8,0.3-5.1C-90.6,458.9-93,461.5-93.4,462.2z"/>
	<path d="M-132.5,462.1c-0.3,0.2-0.7,0.8-0.8,1.1c0.1,1,4.6,0.4,3.5-1.4"/>
</g>
</svg>
