<?xml version="1.0" encoding="utf-8"?>
<!-- Generator: Adobe Illustrator 19.0.0, SVG Export Plug-In . SVG Version: 6.00 Build 0)  -->
<svg version="1.1" id="Capa_1" xmlns="http://www.w3.org/2000/svg" xmlns:xlink="http://www.w3.org/1999/xlink" x="0px" y="0px"
	 viewBox="-210 325.9 173.5 190" style="enable-background:new -210 325.9 173.5 190;" xml:space="preserve">
<g id="XMLID_100_">
	<path d="M-45.1,494.1h-156.3c-2,0-3.8-1-4.8-2.7s-1-3.8,0-5.5l78.1-135.4c1-1.7,2.8-2.8,4.8-2.8l0,0c2,0,3.8,1,4.8,2.7l78.2,135.4
		c1,1.7,1,3.8,0,5.5C-41.3,493-43.1,494.1-45.1,494.1z M-191.9,483.1h137.3l-68.7-118.9L-191.9,483.1z"/>
</g>
<path d="M-98.9,443.2l-1.6-17.5c0-0.5,0.4-0.9,0.9-0.9h2.3h1.3h2.3c0.5,0,1,0.4,0.9,0.9l-1.6,17.5H-96h-1.3H-98.9z M-95.7,445h-1.9
	c-0.8,0-1.4,0.6-1.4,1.4v1.4c0,0.8,0.6,1.4,1.4,1.4h1.9c0.8,0,1.4-0.6,1.4-1.4v-1.4C-94.3,445.6-94.9,445-95.7,445z M-102.2,435.9
	c0.3,0.3,0.5,0.7,0.5,1.1c0,0.4-0.2,0.8-0.5,1.1c-2.7,2.6-12.3,10.7-24,11.3c-0.5,0-1,0-1.5,0s-1,0-1.5,0
	c-11.7-0.7-21.3-8.8-24-11.3c-0.3-0.3-0.5-0.7-0.5-1.1c0-0.4,0.2-0.8,0.5-1.1c2.7-2.6,12.3-10.7,24-11.3c0.5,0,1,0,1.5,0
	c0.5,0,1,0,1.5,0C-114.6,425.3-105,433.4-102.2,435.9L-102.2,435.9z M-135.1,447.2c-3.2-2.3-5.3-6-5.3-10.2c0-4.2,2.1-7.9,5.3-10.2
	c-8.5,2.3-15.2,8-17.3,10c0,0-0.1,0.1-0.1,0.2c0,0.1,0.1,0.2,0.1,0.2C-150.2,439.3-143.6,444.9-135.1,447.2z M-116.5,437
	c0-5.7-4.3-10.5-9.9-11.2c-0.5-0.1-0.9-0.1-1.4-0.1c-0.5,0-0.9,0-1.4,0.1c-5.6,0.7-9.9,5.4-9.9,11.2c0,5.7,4.3,10.5,9.9,11.2
	c0.5,0.1,0.9,0.1,1.4,0.1c0.5,0,0.9,0,1.4-0.1C-120.8,447.5-116.5,442.8-116.5,437z M-103,437c0-0.1-0.1-0.2-0.1-0.2
	c-2.2-2-8.8-7.7-17.3-10c3.2,2.3,5.3,6,5.3,10.2c0,4.2-2.1,7.9-5.3,10.2c8.5-2.3,15.2-8,17.3-10C-103.1,437.2-103,437.1-103,437z
	 M-121.3,437c0,3.6-2.9,6.5-6.5,6.5s-6.5-2.9-6.5-6.5c0-3.6,2.9-6.5,6.5-6.5S-121.3,433.5-121.3,437z M-123.6,435
	c0-1.1-0.9-2.1-2.1-2.1c-1.1,0-2.1,0.9-2.1,2.1c0,1.1,0.9,2.1,2.1,2.1C-124.5,437-123.6,436.1-123.6,435z"/>
</svg>
