<?xml version="1.0" encoding="utf-8"?>
<!-- Generator: Adobe Illustrator 19.0.0, SVG Export Plug-In . SVG Version: 6.00 Build 0)  -->
<svg version="1.1" id="Capa_1" xmlns="http://www.w3.org/2000/svg" xmlns:xlink="http://www.w3.org/1999/xlink" x="0px" y="0px"
	 viewBox="-210 325.9 173.5 190" style="enable-background:new -210 325.9 173.5 190;" xml:space="preserve">
<style type="text/css">
	.st0{fill:none;stroke:#000000;stroke-width:5;stroke-miterlimit:10;}
</style>
<g>
	<g>
		<g>
			<polygon points="-99.8,447.9 -106.7,451.3 -90.9,467.9 -78,455.9 			"/>
			<polygon points="-117.3,485.1 -108.8,472.3 -117.4,467.3 -126.6,473.9 			"/>
			<polygon points="-150.7,395.5 -168.5,393.7 -159.7,381.3 			"/>
			<polygon points="-84.6,427.2 -100.5,435.2 -99.7,420 			"/>
		</g>
		<g>
			<path d="M-115.1,355.6c0.5-0.1,0.8-0.1,1.4-0.2c1.4-0.2,2.8-0.3,4.2-0.2c1,0,2.1,0.2,3.2,0.2c1.4-2.9,3-5.7,4.5-8.5
				c0,0,0,0,0-0.1c3.6,0.9,7,2.2,10.3,4.3c-0.8,3.1-1.8,6.1-2.7,9.2c0.9,0.7,1.8,1.4,2.6,2c0.9,0.9,1.9,1.8,2.6,2.8
				c0.4,0.3,0.7,0.7,1,1c3.1-0.9,6.2-1.9,9.3-2.8c0.8,1.3,1.5,2.7,2.2,4.1c0.2,0.3,0.3,0.8,0.4,1.1c0.3,0.4,0.5,0.7,0.5,1.1
				c0.5,1.3,1,2.6,1.4,3.9c-2.9,1.7-5.7,3.1-8.4,4.6c0.1,0.6,0.2,1.1,0.2,1.6c0,0.2,0,0.3,0.1,0.5c0.1,1.4,0.2,2.6,0.1,3.9
				c0,1-0.2,2.1-0.3,3.2c2.9,1.4,5.7,3,8.5,4.4c0.1,0.1,0.1,0.1,0.1,0.1c-0.1,0.7-0.3,1.4-0.5,2c-0.3,1.2-0.7,2.3-1.2,3.4
				c-0.6,1.7-1.4,3.3-2.4,4.8c0,0,0,0-0.1,0c-3-0.9-6-1.8-9-2.7c-0.7,0.9-1.2,1.7-2.1,2.5c-0.8,1-1.8,2-2.8,2.8l-9.3-11.2
				c1.7-1.4,3.1-3.2,4-5.5c1.4-3.4,1.3-7-0.1-10.4c-1.5-3.5-4-6-7.5-7.3c-3.6-1.4-7-1.4-10.5,0.1c-3.5,1.4-5.9,4-7.2,7.4
				c-1.4,3.7-1.4,7.1,0.1,10.5c1.4,3.5,4,6,7.4,7.3c1.4,0.6,2.8,0.8,4.2,1l2.8,14.6c-0.9,0.1-1.9,0.1-2.9,0c-1.1,0-2.3-0.1-3.5-0.3
				c-1.4,2.9-2.9,5.6-4.4,8.5c-3.6-0.9-7-2.3-10.3-4.2c0,0,0,0,0-0.1c0.9-3,1.8-6,2.7-9.2c-0.8-0.6-1.4-1.2-2.2-1.7
				c-1.1-0.9-2-2-3-3.2c-0.3-0.3-0.6-0.7-1-1.1c-3,1-6.1,1.9-9.2,2.8c-0.7-1.2-1.4-2.3-1.9-3.6c-0.2-0.3-0.5-1-0.9-2.1
				c-0.7-1.5-1.1-3.1-1.6-4.5c2.9-1.7,5.6-3.2,8.5-4.7c-0.1-0.5-0.1-0.9-0.2-1.4l0-0.1c-0.2-1.4-0.3-2.6-0.2-3.9
				c0.1-1.2,0.2-2.3,0.4-3.5c0,0-0.1,0-0.1-0.1c-2.9-1.4-5.7-3-8.6-4.4c0.3-0.6,0.4-1.2,0.6-1.7c0.3-1.2,0.7-2.3,1.1-3.4
				c0.8-1.8,1.7-3.6,2.7-5.2c3.1,0.8,6.1,1.8,9.3,2.7c0.6-0.8,1.2-1.4,1.8-2.2c0.9-0.9,1.9-1.9,2.8-2.7c0.1,0,0.2-0.1,0.3-0.2
				c0.3-0.3,0.7-0.6,1-0.8c-1-3.1-1.9-6.2-3-9.3c1.3-0.8,2.6-1.4,4-2.1c0.3-0.2,0.6-0.3,1.1-0.5c0.3-0.2,0.7-0.2,1.1-0.5
				c1.4-0.4,2.9-1,4.2-1.3C-118.1,349.9-116.6,352.8-115.1,355.6z"/>
			<path d="M-129.7,435.5c0.1-0.4,0.2-0.8,0.1-1.1c0.1-0.8,0.1-1.5,0-2.4l-9.7,0.4c0.3,1.4,0.2,2.9-0.3,4.4
				c-0.8,2.3-2.3,4.1-4.5,5.2c-2.3,1.2-4.6,1.4-6.9,0.5c-2.4-0.7-4.1-2.2-5.3-4.5c-1.1-2.2-1.3-4.5-0.5-6.9c0.8-2.4,2.3-4.1,4.5-5.3
				c2.3-1.1,4.5-1.3,7-0.5c1.1,0.4,2.1,1,3,1.7l6.6-7c-0.6-0.5-1.2-1-1.8-1.4c-0.3-0.2-0.6-0.4-0.8-0.6c0.5-2,0.9-4.1,1.3-6.2
				c-0.8-0.4-1.6-0.7-2.5-1c-0.2-0.1-0.7-0.2-1.4-0.5c-1-0.3-2.1-0.6-3.2-0.7c-0.8,1.9-1.7,3.9-2.6,5.9c-0.3,0-0.6,0-0.9,0
				c-0.9-0.1-1.7-0.1-2.6,0.1c-0.7,0.1-1.5,0.2-2.3,0.5c0-0.1,0-0.1-0.1-0.1c-1.1-1.8-2.2-3.6-3.4-5.3c-0.3,0.1-0.7,0.2-1.1,0.3
				c-0.7,0.3-1.5,0.7-2.1,1.1c-1.1,0.6-2.3,1.2-3.3,2c0.8,2,1.6,4,2.4,5.9c0,0.1,0,0.1,0,0.1c-0.4,0.4-0.9,0.8-1.4,1.3
				c-0.5,0.7-1.1,1.3-1.6,2c0,0.1-0.1,0.2-0.2,0.2c-0.1,0.4-0.3,0.6-0.5,0.8c-2.1-0.5-4.2-1-6.2-1.4c-0.5,0.9-0.8,1.8-1.2,2.7
				c-0.1,0.3-0.2,0.6-0.3,0.8c-0.1,0.2-0.2,0.5-0.2,0.7c-0.2,1-0.5,1.9-0.6,2.9c1.9,0.8,3.9,1.7,5.8,2.6c0,0.3,0,0.6-0.1,0.9
				c0,0.9,0,1.9,0.1,2.8c0.1,0.7,0.2,1.4,0.3,2.1c-1.7,1.1-3.5,2.2-5.3,3.4c0,0.1,0,0.1,0,0.1c0.8,2.3,1.9,4.4,3.4,6.6l0-0.1
				c2-0.7,4-1.5,5.9-2.3c0.5,0.6,1,1,1.5,1.5c0.6,0.6,1.2,1.2,2,1.7c0.2,0.2,0.5,0.4,0.8,0.5c-0.5,2.1-1,4.2-1.4,6.3
				c0.9,0.5,1.8,0.8,2.8,1.2c0.3,0.1,0.6,0.2,0.7,0.2c0.3,0.1,0.6,0.2,0.7,0.2c1,0.2,1.8,0.5,2.7,0.6c0.9-1.9,1.8-3.8,2.6-5.9
				c0.4,0.1,0.7,0.1,1.1,0.2c0.1,0,0.2,0.1,0.3,0c0.8,0.1,1.7-0.1,2.5-0.2c0.7-0.1,1.4-0.2,2.1-0.3c1.1,1.8,2.2,3.5,3.4,5.3
				c0,0,0,0,0.1,0.1c0.5-0.2,0.9-0.3,1.3-0.5c0.8-0.2,1.5-0.6,2.2-1c1.1-0.5,2-1.2,3.1-1.9c0,0,0,0-0.1,0c-0.7-2-1.5-3.9-2.3-5.9
				c0.6-0.4,1.1-1,1.6-1.4c0.6-0.6,1.2-1.4,1.6-2c0.3-0.3,0.5-0.6,0.6-0.9c2.1,0.5,4.2,1,6.2,1.4c0.5-0.9,0.9-1.8,1.2-2.8
				c0.5-1.4,0.8-2.8,1-4.2C-125.8,437.2-127.7,436.3-129.7,435.5z"/>
		</g>
	</g>
	<rect x="-194.8" y="382.2" class="st0" width="143" height="94.3"/>
	<g>
		<path d="M-188.7,490.7c0.6,0.1,1,0.3,1.2,0.6c0.4,0.4,0.6,0.8,0.6,1.3c0,0.4-0.1,0.8-0.4,1.1s-0.6,0.6-1,0.8s-1.1,0.2-2,0.2h-3.8
			v-0.2h0.3c0.3,0,0.6-0.1,0.7-0.3c0.1-0.1,0.1-0.4,0.1-0.9v-5.1c0-0.5-0.1-0.8-0.2-0.9c-0.2-0.2-0.4-0.3-0.7-0.3h-0.3v-0.2h3.4
			c0.6,0,1.2,0,1.5,0.1c0.6,0.1,1,0.4,1.3,0.7s0.5,0.8,0.5,1.2c0,0.4-0.1,0.8-0.4,1.1S-188.2,490.5-188.7,490.7z M-191.8,490.4
			c0.1,0,0.3,0,0.5,0.1s0.4,0,0.6,0c0.6,0,1-0.1,1.3-0.2s0.5-0.3,0.7-0.6s0.2-0.5,0.2-0.8c0-0.5-0.2-0.9-0.6-1.2s-0.9-0.5-1.7-0.5
			c-0.4,0-0.7,0-1.1,0.1V490.4z M-191.8,494.2c0.5,0.1,0.9,0.2,1.3,0.2c0.7,0,1.2-0.2,1.6-0.5s0.6-0.7,0.6-1.2
			c0-0.3-0.1-0.6-0.3-0.9s-0.4-0.5-0.8-0.7s-0.8-0.2-1.4-0.2c-0.2,0-0.4,0-0.6,0s-0.3,0-0.4,0V494.2z"/>
		<path d="M-181.4,491v2.3c0,0.5,0.1,0.8,0.2,0.9c0.1,0.2,0.4,0.3,0.7,0.3h0.3v0.2h-3.4v-0.2h0.3c0.3,0,0.6-0.1,0.7-0.3
			c0.1-0.1,0.1-0.4,0.1-0.9v-5.1c0-0.5-0.1-0.8-0.2-0.9c-0.2-0.2-0.4-0.3-0.7-0.3h-0.3v-0.2h2.9c0.7,0,1.3,0.1,1.7,0.2
			s0.8,0.4,1,0.7s0.4,0.8,0.4,1.2c0,0.6-0.2,1.2-0.6,1.6s-1,0.6-1.8,0.6c-0.2,0-0.4,0-0.6,0S-181.1,491.1-181.4,491z M-181.4,490.7
			c0.2,0,0.4,0.1,0.6,0.1s0.3,0,0.4,0c0.4,0,0.8-0.2,1.1-0.5s0.4-0.7,0.4-1.2c0-0.3-0.1-0.7-0.2-1s-0.3-0.5-0.6-0.7
			s-0.6-0.2-0.9-0.2c-0.2,0-0.5,0-0.8,0.1V490.7z"/>
		<path d="M-170.4,492.1h-3.1l-0.5,1.3c-0.1,0.3-0.2,0.5-0.2,0.7c0,0.1,0.1,0.2,0.2,0.3s0.4,0.2,0.7,0.2v0.2h-2.5v-0.2
			c0.3-0.1,0.5-0.1,0.6-0.2c0.2-0.2,0.4-0.6,0.7-1.1l2.8-6.5h0.2l2.8,6.6c0.2,0.5,0.4,0.9,0.6,1s0.4,0.2,0.8,0.3v0.2h-3.1v-0.2
			c0.3,0,0.5-0.1,0.6-0.2s0.2-0.2,0.2-0.3c0-0.2-0.1-0.4-0.2-0.8L-170.4,492.1z M-170.5,491.6l-1.3-3.2l-1.4,3.2H-170.5z"/>
		<path d="M-159.2,490.7c0.6,0.1,1,0.3,1.2,0.6c0.4,0.4,0.6,0.8,0.6,1.3c0,0.4-0.1,0.8-0.4,1.1s-0.6,0.6-1,0.8s-1.1,0.2-2,0.2h-3.8
			v-0.2h0.3c0.3,0,0.6-0.1,0.7-0.3c0.1-0.1,0.1-0.4,0.1-0.9v-5.1c0-0.5-0.1-0.8-0.2-0.9c-0.2-0.2-0.4-0.3-0.7-0.3h-0.3v-0.2h3.4
			c0.6,0,1.2,0,1.5,0.1c0.6,0.1,1,0.4,1.3,0.7s0.5,0.8,0.5,1.2c0,0.4-0.1,0.8-0.4,1.1S-158.8,490.5-159.2,490.7z M-162.3,490.4
			c0.1,0,0.3,0,0.5,0.1s0.4,0,0.6,0c0.6,0,1-0.1,1.3-0.2s0.5-0.3,0.7-0.6s0.2-0.5,0.2-0.8c0-0.5-0.2-0.9-0.6-1.2s-0.9-0.5-1.7-0.5
			c-0.4,0-0.7,0-1.1,0.1V490.4z M-162.3,494.2c0.5,0.1,0.9,0.2,1.3,0.2c0.7,0,1.2-0.2,1.6-0.5s0.6-0.7,0.6-1.2
			c0-0.3-0.1-0.6-0.3-0.9s-0.4-0.5-0.8-0.7s-0.8-0.2-1.4-0.2c-0.2,0-0.4,0-0.6,0s-0.3,0-0.4,0V494.2z"/>
		<path d="M-151.9,487.2v3.1h1.7c0.5,0,0.8-0.1,0.9-0.2c0.2-0.2,0.3-0.5,0.3-0.9h0.2v2.8h-0.2c-0.1-0.4-0.1-0.6-0.2-0.7
			c-0.1-0.1-0.2-0.2-0.3-0.3s-0.4-0.1-0.7-0.1h-1.7v2.6c0,0.4,0,0.6,0,0.6s0.1,0.1,0.2,0.2s0.2,0.1,0.4,0.1h1.3c0.4,0,0.8,0,1-0.1
			s0.4-0.2,0.6-0.4c0.2-0.2,0.5-0.6,0.7-1.1h0.2l-0.7,2h-6.1v-0.2h0.3c0.2,0,0.4,0,0.5-0.1c0.1-0.1,0.2-0.2,0.3-0.3s0.1-0.4,0.1-0.8
			v-5.2c0-0.5-0.1-0.8-0.2-0.9c-0.1-0.2-0.4-0.2-0.7-0.2h-0.3v-0.2h6.1l0.1,1.7h-0.2c-0.1-0.4-0.2-0.7-0.3-0.9s-0.2-0.3-0.4-0.4
			c-0.2-0.1-0.4-0.1-0.8-0.1H-151.9z"/>
		<path d="M-141,494.5v0.2h-3.4v-0.2h0.3c0.3,0,0.6-0.1,0.7-0.3c0.1-0.1,0.1-0.4,0.1-0.9v-5.1c0-0.4,0-0.7-0.1-0.8
			c0-0.1-0.1-0.2-0.2-0.3c-0.2-0.1-0.4-0.1-0.5-0.1h-0.3v-0.2h3.4v0.2h-0.3c-0.3,0-0.6,0.1-0.7,0.3c-0.1,0.1-0.1,0.4-0.1,0.9v5.1
			c0,0.4,0,0.7,0.1,0.8c0,0.1,0.1,0.2,0.2,0.3c0.2,0.1,0.3,0.1,0.5,0.1H-141z"/>
		<path d="M-132.8,492.1h-3.1l-0.5,1.3c-0.1,0.3-0.2,0.5-0.2,0.7c0,0.1,0.1,0.2,0.2,0.3s0.4,0.2,0.7,0.2v0.2h-2.5v-0.2
			c0.3-0.1,0.5-0.1,0.6-0.2c0.2-0.2,0.4-0.6,0.7-1.1l2.8-6.5h0.2l2.8,6.6c0.2,0.5,0.4,0.9,0.6,1s0.4,0.2,0.8,0.3v0.2h-3.1v-0.2
			c0.3,0,0.5-0.1,0.6-0.2s0.2-0.2,0.2-0.3c0-0.2-0.1-0.4-0.2-0.8L-132.8,492.1z M-132.9,491.6l-1.3-3.2l-1.4,3.2H-132.9z"/>
		<path d="M-123.6,490.3l2.9,2.9c0.5,0.5,0.9,0.8,1.2,1s0.7,0.3,1,0.3v0.2h-3.8v-0.2c0.2,0,0.4,0,0.5-0.1s0.1-0.2,0.1-0.3
			s0-0.2-0.1-0.3s-0.2-0.2-0.4-0.4l-2.7-2.7v2.6c0,0.4,0,0.7,0.1,0.8c0,0.1,0.1,0.2,0.2,0.3c0.2,0.1,0.3,0.1,0.5,0.1h0.3v0.2h-3.4
			v-0.2h0.3c0.3,0,0.6-0.1,0.7-0.3c0.1-0.1,0.1-0.4,0.1-0.9v-5.1c0-0.4,0-0.7-0.1-0.8c0-0.1-0.1-0.2-0.2-0.2
			c-0.2-0.1-0.4-0.1-0.5-0.1h-0.3v-0.2h3.4v0.2h-0.3c-0.2,0-0.4,0-0.5,0.1c-0.1,0.1-0.2,0.2-0.3,0.3s-0.1,0.4-0.1,0.8v2.4
			c0.1-0.1,0.3-0.3,0.8-0.7c1.2-1.1,1.9-1.8,2.1-2.1c0.1-0.2,0.2-0.3,0.2-0.4c0-0.1,0-0.2-0.1-0.2s-0.2-0.1-0.4-0.1h-0.2v-0.2h2.9
			v0.2c-0.2,0-0.3,0-0.5,0.1s-0.3,0.1-0.5,0.2s-0.5,0.3-0.8,0.6c-0.1,0.1-0.5,0.5-1.2,1.2L-123.6,490.3z"/>
		<path d="M-112.6,486.6c1,0,1.9,0.4,2.7,1.2s1.1,1.8,1.1,2.9c0,1.2-0.4,2.2-1.1,3s-1.7,1.2-2.8,1.2c-1.1,0-2-0.4-2.8-1.2
			s-1.1-1.8-1.1-3c0-1.3,0.4-2.3,1.3-3.1C-114.5,487-113.6,486.6-112.6,486.6z M-112.7,487c-0.7,0-1.3,0.3-1.7,0.8
			c-0.5,0.7-0.8,1.6-0.8,2.9c0,1.3,0.3,2.3,0.8,3c0.4,0.5,1,0.8,1.7,0.8c0.7,0,1.4-0.3,1.8-0.9s0.7-1.5,0.7-2.8c0-1.4-0.3-2.4-0.8-3
			C-111.3,487.3-111.9,487-112.7,487z"/>
		<path d="M-105.7,486.8h6l0.2,2h-0.2c0-0.4-0.1-0.7-0.2-0.9s-0.3-0.4-0.4-0.5s-0.5-0.1-0.9-0.1h-2.7l2.4,3.1l-2.8,3.3h3
			c0.5,0,1-0.1,1.3-0.3s0.5-0.5,0.7-1.1l0.2,0.1l-0.3,2.4h-6.1v-0.2l3.1-3.6l-3.1-3.9V486.8z"/>
		<path d="M-86.7,486.6c1,0,1.9,0.4,2.6,1.1s1.2,1.7,1.2,3c0,1.2-0.4,2.2-1.2,3s-1.7,1.2-2.7,1.2c-1.2,0-2.1-0.4-2.8-1.2
			s-1.1-1.8-1.1-2.9c0-1.2,0.4-2.2,1.2-3S-87.8,486.6-86.7,486.6z M-86.8,487c-0.8,0-1.4,0.3-1.8,0.9s-0.7,1.5-0.7,2.7
			c0,1.1,0.2,2,0.6,2.7s1.1,1.1,1.9,1.1c0.8,0,1.4-0.3,1.9-0.9s0.7-1.5,0.7-2.7c0-1.2-0.2-2.1-0.6-2.8S-85.9,487-86.8,487z
			 M-88.2,489.3h0.2c0,0.3,0.1,0.6,0.2,0.7s0.4,0.2,0.8,0.2h0.5c0.3,0,0.6-0.1,0.7-0.2s0.2-0.4,0.2-0.7h0.2v2.8h-0.2
			c0-0.3-0.1-0.6-0.2-0.7s-0.4-0.2-0.8-0.2H-87c-0.3,0-0.6,0.1-0.7,0.2s-0.2,0.4-0.2,0.7h-0.2V489.3z"/>
		<path d="M-77.5,487.2v3.1h1.7c0.5,0,0.8-0.1,0.9-0.2c0.2-0.2,0.3-0.5,0.3-0.9h0.2v2.8h-0.2c-0.1-0.4-0.1-0.6-0.2-0.7
			c-0.1-0.1-0.2-0.2-0.3-0.3s-0.4-0.1-0.7-0.1h-1.7v2.6c0,0.4,0,0.6,0,0.6s0.1,0.1,0.2,0.2s0.2,0.1,0.4,0.1h1.3c0.4,0,0.8,0,1-0.1
			s0.4-0.2,0.6-0.4c0.2-0.2,0.5-0.6,0.7-1.1h0.2l-0.7,2h-6.1v-0.2h0.3c0.2,0,0.4,0,0.5-0.1c0.1-0.1,0.2-0.2,0.3-0.3s0.1-0.4,0.1-0.8
			v-5.2c0-0.5-0.1-0.8-0.2-0.9c-0.1-0.2-0.4-0.2-0.7-0.2h-0.3v-0.2h6.1l0.1,1.7h-0.2c-0.1-0.4-0.2-0.7-0.3-0.9s-0.2-0.3-0.4-0.4
			c-0.2-0.1-0.4-0.1-0.8-0.1H-77.5z"/>
		<path d="M-65.9,486.6c1,0,1.9,0.4,2.7,1.2s1.1,1.8,1.1,2.9c0,1.2-0.4,2.2-1.1,3s-1.7,1.2-2.8,1.2c-1.1,0-2-0.4-2.8-1.2
			s-1.1-1.8-1.1-3c0-1.3,0.4-2.3,1.3-3.1C-67.8,487-67,486.6-65.9,486.6z M-66,487c-0.7,0-1.3,0.3-1.7,0.8c-0.5,0.7-0.8,1.6-0.8,2.9
			c0,1.3,0.3,2.3,0.8,3c0.4,0.5,1,0.8,1.7,0.8c0.7,0,1.4-0.3,1.8-0.9s0.7-1.5,0.7-2.8c0-1.4-0.3-2.4-0.8-3
			C-64.7,487.3-65.3,487-66,487z"/>
		<path d="M-59.1,486.8h6l0.2,2h-0.2c0-0.4-0.1-0.7-0.2-0.9s-0.3-0.4-0.4-0.5s-0.5-0.1-0.9-0.1h-2.7l2.4,3.1l-2.8,3.3h3
			c0.5,0,1-0.1,1.3-0.3s0.5-0.5,0.7-1.1l0.2,0.1l-0.3,2.4h-6.1v-0.2l3.1-3.6l-3.1-3.9V486.8z"/>
	</g>
</g>
</svg>
