<?xml version="1.0" encoding="utf-8"?>
<!-- Generator: Adobe Illustrator 19.0.0, SVG Export Plug-In . SVG Version: 6.00 Build 0)  -->
<svg version="1.1" id="Capa_1" xmlns="http://www.w3.org/2000/svg" xmlns:xlink="http://www.w3.org/1999/xlink" x="0px" y="0px"
	 viewBox="-210 325.9 173.5 190" style="enable-background:new -210 325.9 173.5 190;" xml:space="preserve">
<style type="text/css">
	.st0{fill-rule:evenodd;clip-rule:evenodd;}
</style>
<path class="st0" d="M-116.9,406.5c1.1,1.5,1.8,3.1,1.8,5c-0.8-1-2.6-0.1-1.8,0.8c0.3,0.4,1.9,0,2.2-0.3
	C-113.5,410.6-115.6,407.1-116.9,406.5z M-124,411.8c-0.1,0.1-0.4-2.8-0.4-3c0.1-0.8,0.3-1.7,0.4-2.5c-0.2,0.8-0.5,1.5-0.7,2.3
	c-0.2,0.6-0.4,1.5-0.2,2.1c0.1,0.5,0.9,0.4,0.5,1.3c-0.1,0.3-1.2,0.9-0.2,1.3c0.1,0.2,0.2,0.3,0.3,0.5
	C-124.4,413.1-124.5,412.5-124,411.8z M-124.4,415.8c0.2-0.4,0.3-0.8,0.3-1.2c0,0.1-0.1,0.2-0.1,0.3c-1,1.1,0,2.8,0.5,3.9
	C-123.9,417.8-124.9,416.6-124.4,415.8z M-124.2,413.9c0,0.2,0.1,0.4,0.1,0.7C-124.1,414.3-124.1,414.1-124.2,413.9z M-135.1,411.6
	c0.1,0.8,0.3,1.3,1.2,1.1c0.8-0.1,0.1-2.5-0.7-1.4c0-1.9,0.8-3.5,1.8-5C-134.4,407-135.3,409.8-135.1,411.6z M-137.7,430.3
	c-0.4-1.6-0.7-3.1-1.2-4.7c-0.6-2.1-1.5-4.2-2.7-6.1c-0.7-1.2-2.3-4-3.9-3.6c0.2,3.6-1.7,9.6,1.8,11.9c2.7,1.8,5.1,3.9,8.4,4.2
	C-136.1,431.3-137.3,432-137.7,430.3z M-118.5,450.3c-0.3-1.2-1.4-1.2-1.3-2.3c0.1-1,1.7-8.6,0-8.4c1.6,1.8,0.3,5.6,0,7.6
	c-0.1,0.6-0.2,1.1-0.3,1.7c0,0,0.9,0.3,1,0.5c0.5,1,0.6,6.8-1.5,5.6c-2.5-1.5-2.8,1.9-2.6,3.7c0.3,2.7,0.6,5.5,0.8,8.2l0.7,6.6
	c0.1,0.9,1.5,0.1,1.7-0.2c0.7-0.8,0.9-1.9,1.2-2.8c1.3-5.7,1.1-12.1,0.7-18C-118.3,451.8-118.3,451.1-118.5,450.3z M-120.9,472.6
	c-0.5-4.3-1.1-8.7-1.6-13C-119.9,458.9-117.6,471-120.9,472.6z M-112.6,430.3c-0.5,1.7-1.6,1-2.4,1.7c3.1-0.3,5.4-2.2,7.9-4.1
	c1.7-0.5,1.8-4,1.9-5.4c0.3-2.8,0.2-5.5,0.3-8.3c-2.5-0.7-5.4,9.2-6.1,11.1C-111.5,426.9-112,428.6-112.6,430.3z M-57.2,362.8
	c-1-2.1-4.2,1.9-4.7,2.7c-1.4,2.4-1.9,5-3,7.5c-1,2.2-2.6,4-4.5,5.5c-3.9,2.8-8.8,3.9-13.2,5.5c-4.4,1.6-9,2.3-13.7,2.7
	c-2.7,0.3-5.5,0.4-8.2,0.6c-1.3,0.1-8.2-0.3-8,1.6c-2.5-0.9-5-2-7.6-2.2c-1.4-0.1-2.8,0-4.2,0.2c-1.9,0.3-3.9-0.1-5.8,0
	c-2.5,0.2-5,0.7-7.3,1.7c-1.4,0.6-1.2-0.8-2.5-1.1c-1-0.2-2.1,0.3-3,0.2c-7.2-0.2-14.4-0.7-21.6-1.2c-6.1-0.4-11.6-1.9-15.5-6.9
	c-3.4-4.4-3.7-9.5-5.1-14.5c-0.4-1.3-1.6-3.8-3.2-2.1c-1.8,1.9-1.2,6-1,8.3c1,11.8,5.5,22.5,17.3,26.6c7.1,2.5,14.8,3.2,22.3,3.3
	c1.4,0,4.7-0.7,5.3,1c0.5,1.5,0,3.3-0.6,4.7c-0.6,1.5-2.6,3.8-1.8,5.4c-2.1-1.1-2.1,6.9-2.1,7.8c-0.2,2-0.3,4.1-0.4,6.1
	c-0.1,1.7,0.1,3.1,2.2,3.1c1.9,0,4.5,1.7,4.7,3.7c0.1,1.6,0.3,3.1,0.4,4.7c0.3,3.4,0.5,6.9,1,10.3c0.3,2,0.5,4.3,1.6,6
	c0.9,1.5,3.8,3.3,3.8,5.2c0,3,0,6.1,0.2,9.1c0.1,2.4,0.1,6.3,1.7,8.3c1.5,1.9,4,2.8,6.3,2.9c1.2,0,2.4-0.1,3.5-0.6
	c0.7-0.3,1.3,0.4,2.2,0.5c2.1,0.1,4-1.2,5.2-2.8c1.2-1.7,1.2-3.3,1.2-5.3c0-4.6-0.7-10.9,1.8-15c1.2-1.9,2.2-3.7,2.8-5.8
	c0.9-3.3,1-6.7,1.4-10.1c0.2-2,0.5-4.1,1.1-6c0.8-2.3,3.3-3,5-4.3c1.1-0.8,1.1-3.6,1.2-4.8c0.3-2.6,0.5-5.3,0.6-7.9
	c0.1-1.8,0.4-3.9-0.4-5.6c-0.3-0.8-0.9-1.3-1.8-1.4c-0.9-1-1.2-2.6-1.5-4c-0.3-1.4-0.5-2.9-0.2-4.3c0.2-1.1,3.1-0.6,4.2-0.7
	c3.3-0.1,6.5-0.4,9.7-1c10.8-2,22.9-7.7,28.9-17.2c2.8-4.4,4-9.5,5.1-14.6C-57.2,367-56.4,364.4-57.2,362.8z M-180.1,391.5
	c-1.6,1.1-6.3-11.5-6.5-12.6c-0.7-2.5-1.3-5.1-1.6-7.7c-0.2-1.6-0.9-4.2-0.2-5.7c0.8-1.6,1.5,2.5,1.5,2.8c0.2,2.4,0.3,4.9,0.6,7.3
	c0.7,5,2.6,10.6,5.7,14.6C-180.4,390.3-179.8,391.2-180.1,391.5z M-145.3,395.4c-2.8,0.1-5.5,0.2-8.3,0.2c2.7,0.1,5.5,0.3,8.2,0.4
	c-0.7,0.6-3.3,0.3-4.3,0.3c-1.6,0-3.1,0.1-4.7,0.1c3,0.2,5.9,0.3,8.9,0.5c-0.8,0.7-3.5,0.3-4.6,0.4c-1.5,0-3,0.1-4.6,0.1l4.7,0.2
	c1.1,0.1,3.4-0.2,4.3,0.3l-9.9,0.3l9.7,0.5c-5.3,0.3-10.7,0.3-16-0.4c-3.1-0.4-6.2-1.1-9.1-2.1c-2.2-0.7-6.3-1.9-7.7-3.9
	c2.3,1.8,4.9,2.9,7.8,3.4c-2.8-0.9-5.5-2.6-7.9-4.4c2.2,1.5,4.6,2.4,7.2,2.9c-2.4-0.8-4.7-2.1-6.8-3.5c0.7,0,2,1,2.8,1.3
	c1.2,0.4,2.4,0.7,3.6,1c-2.1-0.7-4.1-1.8-6-3c1.8,0.9,3.7,1.6,5.7,1.9c-0.6-0.2-5.6-2.6-5.4-2.8c1.4,0.5,2.8,0.9,4.2,1.2
	c-1.3-0.4-2.6-1.1-3.8-1.7c-0.3-0.1-0.4-0.2-0.4-0.2c0.1,0.1,0.3,0.1,0.4,0.2c1.1,0.4,4.2,1.2,4.8,1.3c-1.9-0.6-4.2-1.6-5.5-2.9
	c1.7,0.9,3.5,1.4,5.4,1.8c-1.5-0.5-5.4-1.8-5.9-3.4c1.7,1.2,3.7,2,5.7,2.6c-0.3-0.2-0.7-0.4-1-0.5c3.3,1.4,7.7,1.2,11.2,1.4
	c4.9,0.3,9.7,0.4,14.6,0.5c-2.6,0.1-5.1,0.2-7.7,0.2c1.2,0.1,9.7,0.1,9.7,0.8c-2.7,0.1-5.3,0.2-8,0.2c1.5,0.1,2.9,0.2,4.4,0.2
	c0.9,0,3.6-0.3,4,0.5c-2.9,0.1-5.8,0.2-8.8,0.2c1.1,0.1,8.9,0.1,8.9,0.8c-2.6,0.1-5.2,0.2-7.8,0.2l3.9,0.2c0.4,0,3.8-0.1,3.9,0.2
	c0,0.8-6.3,0.5-7.4,0.6c2.5,0.1,5,0.2,7.5,0.4c0,1-6.8,0.7-8,0.7C-152.3,394.7-145.3,394.8-145.3,395.4z M-103.7,411.7
	c1.1,1.5,0.3,5.3,0.3,7c-0.1,2.3-0.2,4.6-0.6,6.8c-0.6,3.8-2.5,4.9-5.4,7.3c-1.1,0.9-2.4,1.8-3.2,3c-0.5,0.8-2.7,4.9-1.6,5.7
	c-0.2-0.1,1-4.3,1.4-4.8c0.6-0.9,2.3-2.6,3.4-2.4c-1.1,2-1.2,4.6-1.6,6.8c-0.4,2.5-0.8,4.9-0.8,7.5c0,1.6-0.7,2.4-1.4,3.8
	c-0.7,1.3-1.3,2.6-1.8,4c-0.2-0.3-0.6,0.4-0.7,0c-0.1-0.2-0.1-0.8-0.1-1c-0.2-3.1,0-6.2,0-9.4c0-1.5-0.1-3.1-0.1-4.7
	c0-1.3-0.5-2.4-0.8-3.6c0.1,1.4,0.3,2.8,0.5,4.3c0.1,0.8,0.2,1.6,0.2,2.3c0,0.7-0.4,1.1-0.4,1.8c0.1,1.5,0.6,3.1,0.4,4.6
	c-0.2,1.9,0,3.8-0.1,5.7c-0.1,3.7-0.2,7.3-0.5,11c-0.2,2.5-0.3,5.1-1.3,7.5c-0.7,1.7-2.3,3.5-4.3,2.5c-2.1-1-1.6-4-1.7-5.9
	c-0.2-3.7-0.4-7.5-0.5-11.2c-0.1-3.6-0.9-7.2,0.2-10.6c-0.6,1.1-0.9-1.2-0.9-1.6c0-0.7,0.5-1.6,0.8-2.3c0.4-0.9,0.7-1.8,0.8-2.8
	c0.2-1.4-1.7-1.4-1.9-2.9c-0.1-1.5-0.3-2.8,0-4.2c0.2-0.6,0.3-2,0.7-2.5c0.4-0.4,0.6-0.8,0.7-1.4c0.1-0.6-0.7-1.3,0-1.7
	c-3.8-0.6,1.2-7.2-0.5-9.5c0.8-0.1,1.6,0.7,1.9,1.3c0.5,1,1.6,1.6,2,2.6c0.4,1,1.3,1.7,1.7,2.8c0.3,0.9,0.3,1.7,0.7,2.6
	c1.3,2.3,2.7,1.3,3.5-0.5c0.4-0.5,0.9-1,1.4-1.5c0.5-0.5-1-0.6-0.2-1.1c-0.3,0-0.7-0.7-0.9-0.6c0.3,0.5,0.5,0.9,0.8,1.4
	c0.1,0.2-1.5,2.1-1.8,2.5c-0.8,1.3-1.8,0.9-2.5-0.5c-1-2.1-1.4-4.2-3-6c-0.3-0.3-0.6-0.6-1-0.9c-0.6-0.5-0.6-0.9-1.1-1.5
	c-0.8-1.1-2.1-1.5-3.2-0.6c-1.3,1.1-1.5,2.1-1.9,3.6c-0.3,1.2-1,2-1.8,2.9c-0.9,1-1.6,2.1-2.5,3.1c-0.4,0.9-1.3-0.5-1.5-0.8
	c-0.9-1.2-2.2-2.6-3.4-3.4c1,0.7,2.1,2.2,2.7,3.2c0.3,0.5,0.9,0.8,1,1.5c0.1,1.1,2.2-1.5,2.4-1.7c1.2-1.5,2.6-2.6,3.2-4.5
	c0.5-1.4,0.5-3,2.2-3.6c1.2-0.4,0.7,2.2,0.6,2.7l-0.9,5.3c-0.2,1.2,2.3,1.5,1.4,3.4c-1,2.2-2.4,5.3-1.4,8c0.3,0.9,2.1,1.7,2,2.4
	c-0.3,1.5-1,2.8-1.3,4.2c-0.3,1.4,0.1,2.9,0.1,4v9.1c0,2.7,0.3,5.4,0.4,8.1c0.1,2,2,9.4-1.3,9.7c-10.6,0.9-7.5-15.6-7.3-22.3
	c0.1-3.4,0.2-6.7,0.3-10.1c0-0.9-0.6-0.9-0.8-2c-0.1-1.3-0.2-2.6-0.2-3.8c0-0.6-0.4-2.6-0.1-3c-0.6,1-0.4,2.9-0.3,4
	c0.2,3,0.7,6,0.6,9.1c-0.1,1.8-0.3,3.5-0.6,5.3c-0.1,0.5-0.2,1-0.3,1.6c-0.2,0.8-1.5-1.5-1.7-1.8c-1.2-1.7-2.4-3-2.8-5
	c-0.6-2.7-0.7-5.6-0.9-8.4c-0.2-3-0.5-6-0.9-8.9c0.9-1.7,3.2,5.7,3.4,6.3c0-4.2-0.8-7-4.9-8.9c-1.3-0.6-3.4-1.2-4.4-2.4
	c-0.8-0.9-0.4-2.4-0.4-3.5c0.2-3.2,0.3-6.4,0.5-9.5c0.2-3.1,7.4,3,8.3,3.9c-1.3-1.3-2.1-2.8-3.7-4c-1.1-0.8-2.4-1.4-3.5-2.1
	c1.6-2.7,2.6-5.7,3.6-8.6c1.5,1,1.7,3.2,1.7,4.8c1.4-0.2-0.4-4.7-0.9-5.2c-2.4-2.2,2.8-2.4,3.6-4.1c-1.6,1.1-3.3,1.3-5,2
	c2.3-2.9,1.3-8,0.4-11.2c1.6-0.5,2.5-0.3,3,1.4c0.3,0.9-0.5,1.6-0.3,2.6c0.4-1.1,1.1-2.4,0.4-3.5c0.5,0.8,0.7,0.4,1.1,0
	c0.6-0.6,2.4-0.9,3.2-1.2c3.2-1,6.6-1.3,10-0.7c0.5,0.6,0.4,2.9,0.5,3.8c0.1,0.9-0.3,0.7-0.4,1.5c1,0.7-0.6,1.2-0.6,1.6
	c1.5,1,1.3-3.5,1.2-3.9c-0.1-0.8-0.2-1.5-0.2-2.3c-0.1-1,0.5-0.9,1.5-1c2.7-0.3,5.9,0.1,8.3,1.6c0.6,0.4,1.4,0.5,2.2,0.6
	c0.6,0,1.9-0.5,2.4,0c-0.3,0.7-0.5,2.5,0.3,3.1c-0.4-2.3,0-3.1,2.6-3.4c-0.2,3.3-1,7.1,1.5,9.8c-0.8,0.6-0.7,1.4-1.7,1.1
	c-0.9-0.2-1.7-0.6-2.6-0.7c0.7,0.3,1.4,0.6,2.1,0.9c0.7,0.3-0.3,1-0.7,1.3c-1.7,1.6-1.6,4.5-1.4,6.7c0.6-2.9,0.6-6,3.6-7.3
	c-0.6,1.6-0.5,3.3-0.1,5c0.2,0.9,0.4,1.7,0.7,2.5c0.5,1.2,0.1,1.2-0.8,2.1c-1.8,1.8-2.9,3.8-3.9,6.1
	C-110,416.6-105.8,409-103.7,411.7z M-79.6,394.7c-2.7,1.3-5.6,2.2-8.5,2.9c-5.2,1.2-10.6,1.8-16,1.9c3.2-0.4,6.3-0.9,9.5-1.3
	c-3.2,0.2-6.5,0.4-9.7,0.6c0.8-0.6,3-0.5,4.2-0.7l4.6-0.6c-1.6,0.1-3.2,0.2-4.7,0.3c-1,0.1-3.7,0.7-4.4,0c2.9-0.4,5.8-0.8,8.7-1.2
	c-1.5,0.1-3.1,0.2-4.6,0.3c-0.9,0.1-3.7,0.7-4.3,0.1l8-1.2c-1.4,0.1-2.9,0.2-4.3,0.3c-0.9,0.1-3.3,0.6-3.9,0
	c2.6-0.4,5.2-0.8,7.8-1.2c-1.1,0.1-8,1-8,0c2.4-0.4,4.9-0.7,7.3-1.1c-1,0.1-7.3,0.9-7.3,0.2c2.6-0.4,5.1-0.8,7.7-1.2
	c-2.6,0.2-5.1,0.4-7.7,0.6c-0.3-0.3,3.5-0.8,3.9-0.9c1.6-0.2,3.2-0.5,4.8-0.7c-2.9,0.2-5.7,0.3-8.6,0.5c0.4-0.8,3-0.7,3.9-0.9
	c1.4-0.2,2.8-0.4,4.3-0.6c-2.7,0.2-5.3,0.3-8,0.5c0-0.8,8.2-1.5,9.4-1.7c-2.5,0.2-5.1,0.3-7.6,0.5c4.6-0.5,9.3-1.1,13.9-1.8
	c3.6-0.5,7.8-0.9,11.2-2.5c-0.3,0.2-0.6,0.4-0.9,0.6c1.9-0.8,3.7-1.7,5.3-3.1c-0.5,1.6-3.8,3.1-5.4,3.9c1.8-0.5,3.5-1.2,5-2.3
	c0,1.1-4,3-5,3.5c0.6-0.2,3.5-1.2,4.5-1.8c0.1-0.1,0.3-0.2,0.4-0.3c0,0.1-0.2,0.2-0.4,0.3c-1.1,0.8-2.2,1.6-3.4,2.1
	c1.4-0.4,2.7-1,4-1.6c0.3,0.7-4.2,3-4.9,3.4c1.9-0.5,3.7-1.4,5.3-2.4c-1.7,1.3-3.5,2.6-5.5,3.5c1.2-0.3,2.3-0.8,3.4-1.3
	c0.6-0.3,2-1.5,2.5-1.5c-1.9,1.5-3.9,3.1-6.2,4c2.5-0.7,4.7-1.8,6.7-3.4c-2.1,2-4.5,3.9-7.2,5.1c2.8-0.8,5.2-2.1,7.3-4.1
	C-74.1,392.2-77.5,393.7-79.6,394.7z M-59.6,372c-0.5,2.1-1.1,4.3-1.9,6.4c-0.9,2.2-2.1,4.3-3.5,6.1c-0.6,0.8-6,7-6.7,6.4
	c-0.3-0.3,0.6-1.2,0.7-1.2c3.9-3.4,6.9-7.6,8.6-12.5c0.9-2.6,1.5-5.2,2-7.9c0.2-1.2,0.4-2.4,0.9-3.5c0.3-0.6,1.4-1.9,1.5-0.4
	C-58.1,367.4-59.1,369.9-59.6,372z M-128,475.7c2.2,0,2.1-1.2,2-3.3c-0.1-1.5-0.1-2.9-0.2-4.4c-0.2-4.1-0.4-8.1-0.6-12.2
	c-0.1-1.5-2-1.1-2.9-1.7c-1.2-0.8-1-2.6-1-3.9c-0.1-3.6-0.1-7.2-0.2-10.8c-0.7,3.6-0.9,6.6-0.9,10.2c0,2.2-0.3,4.3-0.3,6.5
	c0.1,3.8,0.3,7.6,0.4,11.4C-131.6,470.3-132,475.7-128,475.7z M-129.9,464.5c0-0.9,0.4-1.7,0.7-2.6c0.5-1.5,0.4-2.9,1.1-4.4
	c0.3,2.6,0.6,5.2,1,7.8c0.3,2.4,0.5,4.8,0.2,7.2c-0.1,0.8-0.3,1.7-0.7,2.4c-0.7,0.1-2.3-0.2-2.3-1.1V464.5z"/>
</svg>
