<?xml version="1.0" encoding="utf-8"?>
<!-- Generator: Adobe Illustrator 19.0.0, SVG Export Plug-In . SVG Version: 6.00 Build 0)  -->
<svg version="1.1" id="Capa_1" xmlns="http://www.w3.org/2000/svg" xmlns:xlink="http://www.w3.org/1999/xlink" x="0px" y="0px"
	 viewBox="-210 325.9 173.5 190" style="enable-background:new -210 325.9 173.5 190;" xml:space="preserve">
<g id="XMLID_100_">
	<path d="M-45.1,494.1h-156.3c-2,0-3.8-1-4.8-2.7s-1-3.8,0-5.5l78.1-135.4c1-1.7,2.8-2.8,4.8-2.8l0,0c2,0,3.8,1,4.8,2.7l78.2,135.4
		c1,1.7,1,3.8,0,5.5C-41.3,493-43.1,494.1-45.1,494.1z M-191.9,483.1h137.3l-68.7-118.9L-191.9,483.1z"/>
</g>
<g>
	<path d="M-138.8,431h-7.3c-0.8,0-1.5,0.7-1.5,1.5v8.6c0,0.8,0.7,1.5,1.5,1.5h7.3c0.8,0,1.5-0.7,1.5-1.5v-8.6
		C-137.2,431.7-137.9,431-138.8,431z"/>
	<path d="M-138.8,448.2h-7.3c-0.8,0-1.5,0.7-1.5,1.5v8.6c0,0.8,0.7,1.5,1.5,1.5h7.3c0.8,0,1.5-0.7,1.5-1.5v-8.6
		C-137.2,448.8-137.9,448.2-138.8,448.2z"/>
	<path d="M-138.8,465.3h-7.3c-0.8,0-1.5,0.7-1.5,1.5v8.6c0,0.8,0.7,1.5,1.5,1.5h7.3c0.8,0,1.5-0.7,1.5-1.5v-8.6
		C-137.2,465.9-137.9,465.3-138.8,465.3z"/>
	<path d="M-97.4,475.3v-8.6c0-0.8-0.7-1.5-1.5-1.5h-7.3c-0.8,0-1.5,0.7-1.5,1.5v8.6c0,0.8,0.7,1.5,1.5,1.5h7.3
		C-98,476.9-97.4,476.2-97.4,475.3z"/>
	<path d="M-125.5,431h-7.3c-0.8,0-1.5,0.7-1.5,1.5v8.6c0,0.8,0.7,1.5,1.5,1.5h7.3c0.8,0,1.5-0.7,1.5-1.5v-8.6
		C-123.9,431.7-124.6,431-125.5,431z"/>
	<path d="M-112.2,431h-7.3c-0.8,0-1.5,0.7-1.5,1.5v8.6c0,0.8,0.7,1.5,1.5,1.5h7.3c0.8,0,1.5-0.7,1.5-1.5v-8.6
		C-110.6,431.7-111.3,431-112.2,431z"/>
	<path d="M-125.5,448.2h-7.3c-0.8,0-1.5,0.7-1.5,1.5v8.6c0,0.8,0.7,1.5,1.5,1.5h7.3c0.8,0,1.5-0.7,1.5-1.5v-8.6
		C-123.9,448.8-124.6,448.2-125.5,448.2z"/>
	<path d="M-112.2,448.2h-7.3c-0.8,0-1.5,0.7-1.5,1.5v8.6c0,0.8,0.7,1.5,1.5,1.5h7.3c0.8,0,1.5-0.7,1.5-1.5v-8.6
		C-110.6,448.8-111.3,448.2-112.2,448.2z"/>
	<path d="M-106.2,442.7h7.3c0.8,0,1.5-0.7,1.5-1.5v-8.6c0-0.8-0.7-1.5-1.5-1.5h-7.3c-0.8,0-1.5,0.7-1.5,1.5v8.6
		C-107.7,442-107.1,442.7-106.2,442.7z"/>
	<path d="M-106.2,459.8h7.3c0.8,0,1.5-0.7,1.5-1.5v-8.6c0-0.8-0.7-1.5-1.5-1.5h-7.3c-0.8,0-1.5,0.7-1.5,1.5v8.6
		C-107.7,459.1-107.1,459.8-106.2,459.8z"/>
	<path d="M-85.7,483.9h-5.7v-59.3c0-0.8-0.7-1.5-1.5-1.5h-8.5v-5.5c0-0.8-0.7-1.5-1.5-1.5h-8.4v-5.8c0-0.8-0.7-1.5-1.5-1.5h-20.8
		c-0.8,0-1.5,0.7-1.5,1.5v5.8h-8.4c-0.8,0-1.5,0.7-1.5,1.5v5.5h-8.5c-0.8,0-1.5,0.7-1.5,1.5v59.3h-5.7c-0.8,0-1.5,0.7-1.5,1.5
		c0,0.8,0.7,1.5,1.5,1.5h75.2c0.8,0,1.5-0.7,1.5-1.5C-84.1,484.6-84.8,483.9-85.7,483.9z M-132.1,411.8h17.7v4.3h-17.7V411.8z
		 M-116.8,469.1C-116.9,469.1-116.9,469.1-116.8,469.1l-12.8,12.8v-6.5l9.8-9.8h3V469.1z M-129.7,471.1v-5.5h5.5L-129.7,471.1z
		 M-127.4,483.9l10.6-10.6v10.6H-127.4z M-113.8,483.9v-18.3h0.5c0.8,0,1.5-0.7,1.5-1.5c0-0.8-0.7-1.5-1.5-1.5h-20
		c-0.8,0-1.5,0.7-1.5,1.5c0,0.8,0.7,1.5,1.5,1.5h0.5v18.3H-152v-57.7h17c0.8,0,1.5-0.7,1.5-1.5c0-0.8-0.7-1.5-1.5-1.5h-7v-4h37.6v4
		H-123c-0.8,0-1.5,0.7-1.5,1.5c0,0.8,0.7,1.5,1.5,1.5h28.6v57.7h-10.2H-113.8z"/>
	<path d="M-129.1,426.2c0.4,0,0.8-0.2,1.1-0.4c0.3-0.3,0.4-0.7,0.4-1.1s-0.2-0.8-0.4-1.1c-0.3-0.3-0.7-0.4-1.1-0.4s-0.8,0.2-1.1,0.4
		c-0.3,0.3-0.4,0.7-0.4,1.1s0.2,0.8,0.4,1.1C-129.9,426-129.5,426.2-129.1,426.2z"/>
</g>
</svg>
