<?xml version="1.0" encoding="utf-8"?>
<!-- Generator: Adobe Illustrator 19.0.0, SVG Export Plug-In . SVG Version: 6.00 Build 0)  -->
<svg version="1.1" id="Capa_1" xmlns="http://www.w3.org/2000/svg" xmlns:xlink="http://www.w3.org/1999/xlink" x="0px" y="0px"
	 viewBox="-210 325.9 173.5 190" style="enable-background:new -210 325.9 173.5 190;" xml:space="preserve">
<g id="XMLID_100_">
	<path d="M-45.1,494.1h-156.3c-2,0-3.8-1-4.8-2.7s-1-3.8,0-5.5l78.1-135.4c1-1.7,2.8-2.8,4.8-2.8l0,0c2,0,3.8,1,4.8,2.7l78.2,135.4
		c1,1.7,1,3.8,0,5.5C-41.3,493-43.1,494.1-45.1,494.1z M-191.9,483.1h137.3l-68.7-118.9L-191.9,483.1z"/>
</g>
<g>
	<path d="M-89.3,446.3v-11.8c0.5,0,1-0.4,1-1s-0.4-1-1-1v-2.4c0-3.5-2.6-6.3-5.9-6.8c0-0.5-0.3-1.1-1-1.1c-0.6,0-1,0.5-1,1.1
		c-3.3,0.5-5.9,3.3-5.9,6.8v5.9c-0.5,0-1,0.4-1,1s0.4,1,1,1v2.4h-6.9v-9.3c0.5,0,1-0.4,1-1s-0.4-1-1-1v-8.3c0.5,0,1-0.4,1-1
		c0-0.5-0.4-1-1-1c0,0,0,0,0,0c-0.2-1.9-0.9-3.7-2-5.2c0.4-0.4,0.3-1,0-1.4c-0.4-0.4-0.9-0.4-1.3-0.1c-3.9-3.6-9.9-3.6-13.8,0
		c-0.4-0.3-0.9-0.3-1.3,0.1c-0.4,0.4-0.4,1,0,1.4c-1.3,1.7-2.1,3.9-2.1,6.2v2.4c-0.5,0-1,0.4-1,1s0.4,1,1,1v5.9h-2.4
		c0-0.5-0.4-1-1-1s-1,0.4-1,1h-2.4v-9.3c0.5,0,1-0.4,1-1c0-0.9-0.9-1-1.1-1c-0.4-3-2.8-5.4-5.8-5.8c0-0.5-0.3-1-1-1.1
		c-0.6,0-1,0.5-1,1.1c-3.3,0.5-5.9,3.3-5.9,6.8v2.4c-0.5,0-1,0.4-1,1s0.4,1,1,1V436c-0.5,0-1,0.4-1,1c0,0.8,0.7,1,1.1,1
		c0.5,3.3,3.3,5.9,6.8,5.9h5.9c0,0.5,0.4,1,1,1c0.5,0,1-0.4,1-1h5.9v5.9c-0.5,0-1,0.4-1,1s0.4,1,1,1v8.3c-0.5,0-1,0.4-1,1
		c0,0.5,0.4,1,1,1v8.3c-0.5,0-1,0.4-1,1s0.4,1,1,1v5.9h20.6v-9.3c0.5,0,1-0.4,1-1c0-0.5-0.4-1-1-1v-8.3c0.5,0,1-0.4,1-1s-0.4-1-1-1
		v-2.4h5.9c0,0.5,0.4,1,1,1c0.5,0,1-0.4,1-1h5.9c3.5,0,6.3-2.6,6.8-5.9c0.6,0,1.1-0.4,1.1-1C-88.3,446.8-88.8,446.3-89.3,446.3z
		 M-139.8,440.5c0-0.1,0-0.2-0.1-0.3c-0.3-0.5-1-0.4-1.2,0c-0.1,0.1-0.1,0.2-0.1,0.3h-1.9c0-0.1,0-0.2-0.1-0.3c-0.3-0.5-1-0.4-1.2,0
		c-0.1,0.1-0.1,0.2-0.1,0.3c-1.5-0.1-2.8-1.3-3.1-2.7c0.1,0.1,0.3,0.1,0.4,0.1c0.5,0,0.9-0.6,0.6-1.1c-0.3-0.4-0.8-0.4-1.1-0.1v-2.3
		c0.1,0.1,0.3,0.2,0.5,0.2c0.5,0,0.9-0.6,0.6-1.1c-0.3-0.4-0.8-0.4-1.1-0.1v-2.3c0.1,0.1,0.3,0.2,0.5,0.2c0.5,0,0.9-0.6,0.6-1.1
		c-0.3-0.4-0.8-0.4-1.1-0.1v-2.3c0.1,0.1,0.3,0.2,0.5,0.2c0.5,0,0.9-0.6,0.6-1.1c-0.3-0.4-0.8-0.4-1.1-0.1v-2.3
		c0.1,0.1,0.3,0.2,0.5,0.2c0.5,0,0.9-0.6,0.6-1.1c-0.3-0.4-0.8-0.4-1.1-0.1v-2.3c0.1,0.1,0.3,0.2,0.5,0.2c0.5,0,0.9-0.6,0.6-1.1
		c-0.3-0.4-0.8-0.4-1.1-0.1c0.1-1.8,1.5-3.3,3.3-3.3c0,0-0.1,0.1-0.1,0.1c-0.3,0.5,0.1,1.1,0.6,1.1c0.5,0,0.9-0.5,0.7-1
		c1.4,0.5,2.3,1.7,2.3,3.3v10.3v3c-0.1,0.1-0.2,0.1-0.2,0.3c-0.3,0.5,0.1,1.1,0.6,1.1c0.5,0,0.8-0.4,0.7-0.9h2
		c-0.1,0.4,0.2,0.9,0.7,0.9c0.5,0,0.8-0.4,0.7-0.9h2c-0.1,0.4,0.2,0.9,0.7,0.9c0.5,0,0.8-0.4,0.7-0.9h2c-0.1,0.4,0.1,0.8,0.5,0.9v2
		c-0.2,0-0.3,0.2-0.4,0.3c-0.2,0.4,0,0.9,0.4,1v2c-0.2,0-0.3,0.2-0.4,0.3c-0.1,0.1-0.1,0.2-0.1,0.3h-1.9c0-0.1,0-0.2-0.1-0.3
		c-0.3-0.5-1-0.4-1.2,0c-0.1,0.1-0.1,0.2-0.1,0.3h-1.9c0-0.1,0-0.2-0.1-0.3c-0.3-0.5-1-0.4-1.2,0c-0.1,0.1-0.1,0.2-0.1,0.3
		L-139.8,440.5L-139.8,440.5z M-113.5,473.5c-0.5,0-0.9,0.6-0.6,1.1c0,0.1,0.1,0.1,0.2,0.2h-2.5c0.1-0.1,0.1-0.1,0.2-0.2
		c0.3-0.5-0.1-1.1-0.6-1.1c-0.5,0-0.9,0.6-0.6,1.1c0,0.1,0.1,0.1,0.2,0.2h-2.5c0.1-0.1,0.1-0.1,0.2-0.2c0.3-0.5-0.1-1.1-0.6-1.1
		c-0.5,0-0.9,0.6-0.6,1.1c0.1,0.1,0.1,0.1,0.2,0.2h-2.5c0.1-0.1,0.1-0.1,0.2-0.2c0.3-0.5-0.1-1.1-0.6-1.1c-0.5,0-0.9,0.6-0.6,1.1
		c0,0.1,0.1,0.1,0.2,0.2h-2.5c0.1-0.1,0.1-0.1,0.2-0.2c0.3-0.5-0.1-1.1-0.6-1.1c0,0-0.1,0-0.1,0v-2c0.3,0,0.6-0.1,0.7-0.4
		c0.3-0.5-0.1-1.1-0.6-1.1c0,0-0.1,0-0.1,0v-2c0.3,0,0.6-0.1,0.7-0.4c0.3-0.5-0.1-1.1-0.6-1.1c0,0-0.1,0-0.1,0v-2
		c0.3,0,0.6-0.1,0.7-0.4c0.3-0.5-0.1-1.1-0.6-1.1c0,0-0.1,0-0.1,0v-2c0.3,0,0.6-0.1,0.7-0.4c0.3-0.5-0.1-1.1-0.6-1.1
		c0,0-0.1,0-0.1,0v-2c0.3,0,0.6-0.1,0.7-0.4c0.3-0.5-0.1-1.1-0.6-1.1c0,0-0.1,0-0.1,0v-2c0.3,0,0.6-0.1,0.7-0.4
		c0.3-0.5-0.1-1.1-0.6-1.1c0,0-0.1,0-0.1,0v-2c0.3,0,0.6-0.1,0.7-0.4c0.3-0.5-0.1-1.1-0.6-1.1c0,0-0.1,0-0.1,0v-2
		c0.3,0,0.6-0.1,0.7-0.4c0.3-0.5-0.1-1.1-0.6-1.1c0,0-0.1,0-0.1,0v-2c0,0,0.1,0,0.1,0c0.5,0,0.9-0.6,0.6-1.1
		c-0.2-0.3-0.5-0.4-0.7-0.3v-2c0,0,0.1,0,0.1,0c0.5,0,0.9-0.6,0.6-1.1c-0.2-0.3-0.5-0.4-0.7-0.3v-2c0,0,0.1,0,0.1,0
		c0.5,0,0.9-0.6,0.6-1.1c-0.2-0.3-0.5-0.4-0.7-0.3v-2c0,0,0.1,0,0.1,0c0.5,0,0.9-0.6,0.6-1.1c-0.2-0.3-0.5-0.4-0.7-0.3v-2
		c0,0,0.1,0,0.1,0c0.5,0,0.9-0.6,0.6-1.1c-0.2-0.3-0.5-0.4-0.7-0.3v-2c0,0,0.1,0,0.1,0c0.5,0,0.9-0.6,0.6-1.1
		c-0.2-0.3-0.5-0.4-0.7-0.3v-2c0,0,0.1,0,0.1,0c0.5,0,0.9-0.6,0.6-1.1c-0.2-0.3-0.5-0.4-0.7-0.3v-2c0,0,0.1,0,0.1,0
		c0.5,0,0.9-0.6,0.6-1.1c-0.2-0.3-0.5-0.4-0.7-0.3c0.1-1.4,0.5-2.7,1.3-3.8c0.1,0.1,0.3,0.2,0.5,0.2c0.5,0,0.9-0.6,0.6-1.1
		c0,0-0.1-0.1-0.1-0.1c1.1-1,2.5-1.6,4.1-1.7c0,0-0.1,0.1-0.1,0.2c-0.3,0.5,0.1,1.1,0.6,1.1c0.5,0,0.9-0.6,0.6-1.1
		c0,0-0.1-0.1-0.1-0.1c1.6,0.1,3,0.7,4.1,1.7c0,0-0.1,0.1-0.1,0.1c-0.3,0.5,0.1,1.1,0.6,1.1c0.2,0,0.3-0.1,0.5-0.2
		c0.8,1.1,1.3,2.4,1.3,3.8c-0.3,0-0.6,0.1-0.7,0.4c-0.3,0.5,0.1,1.1,0.6,1.1c0,0,0.1,0,0.1,0v2c-0.3,0-0.6,0.1-0.7,0.4
		c-0.3,0.5,0.1,1.1,0.6,1.1c0,0,0.1,0,0.1,0v2c-0.3,0-0.6,0.1-0.7,0.4c-0.3,0.5,0.1,1.1,0.6,1.1c0,0,0.1,0,0.1,0v2
		c-0.3,0-0.6,0.1-0.7,0.4c-0.3,0.5,0.1,1.1,0.6,1.1c0,0,0.1,0,0.1,0v2c-0.3,0-0.6,0.1-0.7,0.4c-0.3,0.5,0.1,1.1,0.6,1.1
		c0,0,0.1,0,0.1,0v2c-0.3,0-0.6,0.1-0.7,0.4c-0.3,0.5,0.1,1.1,0.6,1.1c0,0,0.1,0,0.1,0v2c-0.3,0-0.6,0.1-0.7,0.4
		c-0.3,0.5,0.1,1.1,0.6,1.1c0,0,0.1,0,0.1,0v2c-0.3,0-0.6,0.1-0.7,0.4c-0.3,0.5,0.1,1.1,0.6,1.1c0,0,0.1,0,0.1,0v2c0,0-0.1,0-0.1,0
		c-0.5,0-0.9,0.6-0.6,1.1c0.2,0.3,0.5,0.4,0.7,0.3v2c0,0-0.1,0-0.1,0c-0.5,0-0.9,0.6-0.6,1.1c0.2,0.3,0.5,0.4,0.7,0.3v2
		c0,0-0.1,0-0.1,0c-0.5,0-0.9,0.6-0.6,1.1c0.2,0.3,0.5,0.4,0.7,0.3v2c0,0-0.1,0-0.1,0c-0.5,0-0.9,0.6-0.6,1.1
		c0.2,0.3,0.5,0.4,0.7,0.3v2c0,0-0.1,0-0.1,0c-0.5,0-0.9,0.6-0.6,1.1c0.2,0.3,0.5,0.4,0.7,0.3v2c0,0-0.1,0-0.1,0
		c-0.5,0-0.9,0.6-0.6,1.1c0.2,0.3,0.5,0.4,0.7,0.3v2c0,0-0.1,0-0.1,0c-0.5,0-0.9,0.6-0.6,1.1c0.2,0.3,0.5,0.4,0.7,0.3v2
		c0,0-0.1,0-0.1,0c-0.5,0-0.9,0.6-0.6,1.1c0.2,0.3,0.5,0.4,0.7,0.3v2C-113.4,473.5-113.5,473.5-113.5,473.5z M-95.9,450.8
		c0.1-0.4-0.2-0.8-0.7-0.8c-0.5,0-0.8,0.4-0.7,0.9h-2c0.1-0.4-0.2-0.9-0.7-0.9c-0.5,0-0.8,0.4-0.7,0.9h-2c0.1-0.4-0.2-0.9-0.7-0.9
		c-0.5,0-0.8,0.4-0.7,0.9h-2c0.1-0.4-0.2-0.9-0.7-0.9c-0.5,0-0.8,0.4-0.7,0.9h-2c0.1-0.4-0.2-0.7-0.5-0.8v-2c0.2,0,0.3-0.2,0.4-0.3
		c0.2-0.4,0-0.9-0.4-1v-2c0.3-0.1,0.5-0.4,0.5-0.7h1.9c0,0.4,0.3,0.7,0.7,0.7c0.4,0,0.7-0.3,0.7-0.7h1.9c0,0.4,0.3,0.7,0.7,0.7
		c0.4,0,0.7-0.3,0.7-0.7h1.9c0,0.4,0.3,0.7,0.7,0.7c0.5,0,0.9-0.6,0.6-1.1c-0.1-0.1-0.1-0.2-0.2-0.2v-2.8v-10.3c0-1.5,1-2.8,2.3-3.2
		c0,0.4,0.3,0.8,0.7,0.8c0.5,0,0.9-0.5,0.7-1c1.7,0.1,3,1.4,3.2,3.1c-0.3-0.3-0.9-0.2-1.1,0.2c-0.3,0.5,0.1,1.1,0.6,1.1
		c0.2,0,0.4-0.1,0.5-0.2v2.3c-0.3-0.3-0.9-0.2-1.1,0.2c-0.3,0.5,0.1,1.1,0.6,1.1c0.2,0,0.4-0.1,0.5-0.2v2.3
		c-0.3-0.3-0.9-0.2-1.1,0.2c-0.3,0.5,0.1,1.1,0.6,1.1c0.2,0,0.4-0.1,0.5-0.2v2.3c-0.3-0.3-0.9-0.2-1.1,0.2c-0.3,0.5,0.1,1.1,0.6,1.1
		c0.2,0,0.4-0.1,0.5-0.2v2.3c-0.3-0.3-0.9-0.2-1.1,0.2c-0.3,0.5,0.1,1.1,0.6,1.1c0.2,0,0.4-0.1,0.5-0.2v2.3
		c-0.1-0.1-0.3-0.2-0.5-0.2c-0.5,0-0.9,0.6-0.6,1.1c0.3,0.4,0.8,0.4,1.1,0.2C-93,449.4-94.3,450.6-95.9,450.8z M-124.7,472.9
		c-0.3,0.4-0.9,0.5-1.2,0c-0.3-0.5,0.1-1.1,0.6-1.1C-124.8,471.8-124.4,472.4-124.7,472.9z M-124.7,469.5c-0.3,0.4-0.9,0.5-1.2,0
		c-0.3-0.5,0.1-1.1,0.6-1.1C-124.8,468.5-124.4,469.1-124.7,469.5z M-124.7,466.2c-0.3,0.4-0.9,0.5-1.2,0c-0.3-0.5,0.1-1.1,0.6-1.1
		C-124.8,465.1-124.4,465.7-124.7,466.2z M-124.7,462.8c-0.3,0.4-0.9,0.5-1.2,0c-0.3-0.5,0.1-1.1,0.6-1.1
		C-124.8,461.7-124.4,462.3-124.7,462.8z M-124.7,459.4c-0.3,0.4-0.9,0.5-1.2,0c-0.3-0.5,0.1-1.1,0.6-1.1
		C-124.8,458.3-124.4,458.9-124.7,459.4z M-124.7,456c-0.3,0.4-0.9,0.5-1.2,0c-0.3-0.5,0.1-1.1,0.6-1.1
		C-124.8,455-124.4,455.6-124.7,456z M-124.7,452.7c-0.3,0.4-0.9,0.5-1.2,0c-0.3-0.5,0.1-1.1,0.6-1.1
		C-124.8,451.6-124.4,452.2-124.7,452.7z M-124.7,449.3c-0.3,0.4-0.9,0.5-1.2,0c-0.3-0.5,0.1-1.1,0.6-1.1
		C-124.8,448.2-124.4,448.8-124.7,449.3z M-123,471.2c-0.3,0.4-0.9,0.5-1.2,0c-0.3-0.5,0.1-1.1,0.6-1.1
		C-123.1,470.2-122.7,470.8-123,471.2z M-123,467.9c-0.3,0.4-0.9,0.5-1.2,0c-0.3-0.5,0.1-1.1,0.6-1.1
		C-123.1,466.8-122.7,467.4-123,467.9z M-123,464.5c-0.3,0.4-0.9,0.5-1.2,0c-0.3-0.5,0.1-1.1,0.6-1.1
		C-123.1,463.4-122.7,464-123,464.5z M-123,461.1c-0.3,0.4-0.9,0.5-1.2,0c-0.3-0.5,0.1-1.1,0.6-1.1
		C-123.1,460-122.7,460.6-123,461.1z M-123,457.7c-0.3,0.4-0.9,0.5-1.2,0c-0.3-0.5,0.1-1.1,0.6-1.1
		C-123.1,456.7-122.7,457.3-123,457.7z M-123,454.4c-0.3,0.4-0.9,0.5-1.2,0c-0.3-0.5,0.1-1.1,0.6-1.1
		C-123.1,453.3-122.7,453.9-123,454.4z M-123,451c-0.3,0.4-0.9,0.5-1.2,0c-0.3-0.5,0.1-1.1,0.6-1.1
		C-123.1,449.9-122.7,450.5-123,451z M-123,447.6c-0.3,0.4-0.9,0.5-1.2,0c-0.3-0.5,0.1-1.1,0.6-1.1
		C-123.1,446.5-122.7,447.1-123,447.6z M-121.3,472.9c-0.3,0.4-0.9,0.5-1.2,0c-0.3-0.5,0.1-1.1,0.6-1.1
		C-121.4,471.8-121.1,472.4-121.3,472.9z M-121.3,469.5c-0.3,0.4-0.9,0.5-1.2,0c-0.3-0.5,0.1-1.1,0.6-1.1
		C-121.4,468.5-121.1,469.1-121.3,469.5z M-121.3,466.2c-0.3,0.4-0.9,0.5-1.2,0c-0.3-0.5,0.1-1.1,0.6-1.1
		C-121.4,465.1-121.1,465.7-121.3,466.2z M-121.3,462.8c-0.3,0.4-0.9,0.5-1.2,0c-0.3-0.5,0.1-1.1,0.6-1.1
		C-121.4,461.7-121.1,462.3-121.3,462.8z M-121.3,459.4c-0.3,0.4-0.9,0.5-1.2,0c-0.3-0.5,0.1-1.1,0.6-1.1
		C-121.4,458.3-121.1,458.9-121.3,459.4z M-121.3,456c-0.3,0.4-0.9,0.5-1.2,0c-0.3-0.5,0.1-1.1,0.6-1.1
		C-121.4,455-121.1,455.6-121.3,456z M-121.3,452.7c-0.3,0.4-0.9,0.5-1.2,0c-0.3-0.5,0.1-1.1,0.6-1.1
		C-121.4,451.6-121.1,452.2-121.3,452.7z M-121.3,449.3c-0.3,0.4-0.9,0.5-1.2,0c-0.3-0.5,0.1-1.1,0.6-1.1
		C-121.4,448.2-121.1,448.8-121.3,449.3z M-119.6,471.2c-0.3,0.4-0.9,0.5-1.2,0c-0.3-0.5,0.1-1.1,0.6-1.1
		C-119.7,470.2-119.4,470.8-119.6,471.2z M-119.6,467.9c-0.3,0.4-0.9,0.5-1.2,0c-0.3-0.5,0.1-1.1,0.6-1.1
		C-119.7,466.8-119.4,467.4-119.6,467.9z M-119.6,464.5c-0.3,0.4-0.9,0.5-1.2,0c-0.3-0.5,0.1-1.1,0.6-1.1
		C-119.7,463.4-119.4,464-119.6,464.5z M-119.6,461.1c-0.3,0.4-0.9,0.5-1.2,0c-0.3-0.5,0.1-1.1,0.6-1.1
		C-119.7,460-119.4,460.6-119.6,461.1z M-119.6,457.7c-0.3,0.4-0.9,0.5-1.2,0c-0.3-0.5,0.1-1.1,0.6-1.1
		C-119.7,456.7-119.4,457.3-119.6,457.7z M-119.6,454.4c-0.3,0.4-0.9,0.5-1.2,0c-0.3-0.5,0.1-1.1,0.6-1.1
		C-119.7,453.3-119.4,453.9-119.6,454.4z M-119.6,451c-0.3,0.4-0.9,0.5-1.2,0c-0.3-0.5,0.1-1.1,0.6-1.1
		C-119.7,449.9-119.4,450.5-119.6,451z M-119.6,447.6c-0.3,0.4-0.9,0.5-1.2,0c-0.3-0.5,0.1-1.1,0.6-1.1
		C-119.7,446.5-119.4,447.1-119.6,447.6z M-117.9,472.9c-0.3,0.4-0.9,0.5-1.2,0c-0.3-0.5,0.1-1.1,0.6-1.1
		C-118,471.8-117.7,472.4-117.9,472.9z M-117.9,469.5c-0.3,0.4-0.9,0.5-1.2,0c-0.3-0.5,0.1-1.1,0.6-1.1
		C-118,468.5-117.7,469.1-117.9,469.5z M-117.9,466.2c-0.3,0.4-0.9,0.5-1.2,0c-0.3-0.5,0.1-1.1,0.6-1.1
		C-118,465.1-117.7,465.7-117.9,466.2z M-117.9,462.8c-0.3,0.4-0.9,0.5-1.2,0c-0.3-0.5,0.1-1.1,0.6-1.1
		C-118,461.7-117.7,462.3-117.9,462.8z M-117.9,459.4c-0.3,0.4-0.9,0.5-1.2,0c-0.3-0.5,0.1-1.1,0.6-1.1
		C-118,458.3-117.7,458.9-117.9,459.4z M-117.9,456c-0.3,0.4-0.9,0.5-1.2,0c-0.3-0.5,0.1-1.1,0.6-1.1
		C-118,455-117.7,455.6-117.9,456z M-117.9,452.7c-0.3,0.4-0.9,0.5-1.2,0c-0.3-0.5,0.1-1.1,0.6-1.1
		C-118,451.6-117.7,452.2-117.9,452.7z M-117.9,449.3c-0.3,0.4-0.9,0.5-1.2,0c-0.3-0.5,0.1-1.1,0.6-1.1
		C-118,448.2-117.7,448.8-117.9,449.3z M-116.3,471.2c-0.3,0.4-0.9,0.5-1.2,0c-0.3-0.5,0.1-1.1,0.6-1.1
		C-116.3,470.2-116,470.8-116.3,471.2z M-116.3,467.9c-0.3,0.4-0.9,0.5-1.2,0c-0.3-0.5,0.1-1.1,0.6-1.1
		C-116.3,466.8-116,467.4-116.3,467.9z M-116.3,464.5c-0.3,0.4-0.9,0.5-1.2,0c-0.3-0.5,0.1-1.1,0.6-1.1
		C-116.3,463.4-116,464-116.3,464.5z M-116.3,461.1c-0.3,0.4-0.9,0.5-1.2,0c-0.3-0.5,0.1-1.1,0.6-1.1
		C-116.3,460-116,460.6-116.3,461.1z M-116.3,457.7c-0.3,0.4-0.9,0.5-1.2,0c-0.3-0.5,0.1-1.1,0.6-1.1
		C-116.3,456.7-116,457.3-116.3,457.7z M-116.3,454.4c-0.3,0.4-0.9,0.5-1.2,0c-0.3-0.5,0.1-1.1,0.6-1.1
		C-116.3,453.3-116,453.9-116.3,454.4z M-116.3,451c-0.3,0.4-0.9,0.5-1.2,0c-0.3-0.5,0.1-1.1,0.6-1.1
		C-116.3,449.9-116,450.5-116.3,451z M-116.3,447.6c-0.3,0.4-0.9,0.5-1.2,0c-0.3-0.5,0.1-1.1,0.6-1.1
		C-116.3,446.5-116,447.1-116.3,447.6z M-114.6,472.9c-0.3,0.4-0.9,0.5-1.2,0c-0.3-0.5,0.1-1.1,0.6-1.1
		C-114.6,471.8-114.3,472.4-114.6,472.9z M-114.6,469.5c-0.3,0.4-0.9,0.5-1.2,0c-0.3-0.5,0.1-1.1,0.6-1.1
		C-114.6,468.5-114.3,469.1-114.6,469.5z M-114.6,466.2c-0.3,0.4-0.9,0.5-1.2,0c-0.3-0.5,0.1-1.1,0.6-1.1
		C-114.6,465.1-114.3,465.7-114.6,466.2z M-114.6,462.8c-0.3,0.4-0.9,0.5-1.2,0c-0.3-0.5,0.1-1.1,0.6-1.1
		C-114.6,461.7-114.3,462.3-114.6,462.8z M-114.6,459.4c-0.3,0.4-0.9,0.5-1.2,0c-0.3-0.5,0.1-1.1,0.6-1.1
		C-114.6,458.3-114.3,458.9-114.6,459.4z M-114.6,456c-0.3,0.4-0.9,0.5-1.2,0c-0.3-0.5,0.1-1.1,0.6-1.1
		C-114.6,455-114.3,455.6-114.6,456z M-114.6,452.7c-0.3,0.4-0.9,0.5-1.2,0c-0.3-0.5,0.1-1.1,0.6-1.1
		C-114.6,451.6-114.3,452.2-114.6,452.7z M-114.6,449.3c-0.3,0.4-0.9,0.5-1.2,0c-0.3-0.5,0.1-1.1,0.6-1.1
		C-114.6,448.2-114.3,448.8-114.6,449.3z M-107.8,449.3c-0.3,0.4-0.9,0.5-1.2,0c-0.3-0.5,0.1-1.1,0.6-1.1
		C-107.9,448.2-107.5,448.8-107.8,449.3z M-106.1,447.6c-0.3,0.4-0.9,0.5-1.2,0c-0.3-0.5,0.1-1.1,0.6-1.1
		C-106.2,446.5-105.9,447.1-106.1,447.6z M-104.4,449.3c-0.3,0.4-0.9,0.5-1.2,0c-0.3-0.5,0.1-1.1,0.6-1.1
		C-104.5,448.2-104.2,448.8-104.4,449.3z M-102.8,447.6c-0.3,0.4-0.9,0.5-1.2,0c-0.3-0.5,0.1-1.1,0.6-1.1
		C-102.8,446.5-102.5,447.1-102.8,447.6z M-101.1,449.3c-0.3,0.4-0.9,0.5-1.2,0c-0.3-0.5,0.1-1.1,0.6-1.1
		C-101.1,448.2-100.8,448.8-101.1,449.3z M-99.4,447.6c-0.3,0.4-0.9,0.5-1.2,0c-0.3-0.5,0.1-1.1,0.6-1.1
		C-99.4,446.5-99.1,447.1-99.4,447.6z M-97.7,449.3c-0.3,0.4-0.9,0.5-1.2,0c-0.3-0.5,0.1-1.1,0.6-1.1
		C-97.8,448.2-97.4,448.8-97.7,449.3z M-96,447.6c-0.3,0.4-0.9,0.5-1.2,0c-0.3-0.5,0.1-1.1,0.6-1.1C-96.1,446.5-95.7,447.1-96,447.6
		z M-94.3,449.3c-0.3,0.4-0.9,0.5-1.2,0c-0.3-0.5,0.1-1.1,0.6-1.1C-94.4,448.2-94.1,448.8-94.3,449.3z M-94.3,428.3
		c0.3,0.5-0.1,1.1-0.6,1.1c-0.6,0-0.9-0.6-0.6-1.1C-95.3,427.9-94.7,427.8-94.3,428.3z M-94.3,431.7c0.3,0.5-0.1,1.1-0.6,1.1
		c-0.6,0-0.9-0.6-0.6-1.1C-95.3,431.3-94.7,431.2-94.3,431.7z M-94.3,435.1c0.3,0.5-0.1,1.1-0.6,1.1c-0.6,0-0.9-0.6-0.6-1.1
		C-95.3,434.7-94.7,434.6-94.3,435.1z M-94.3,438.5c0.3,0.5-0.1,1.1-0.6,1.1c-0.6,0-0.9-0.6-0.6-1.1C-95.3,438-94.7,438-94.3,438.5z
		 M-94.3,441.8c0.3,0.5-0.1,1.1-0.6,1.1c-0.6,0-0.9-0.6-0.6-1.1C-95.3,441.4-94.7,441.3-94.3,441.8z M-94.3,445.2
		c0.3,0.5-0.1,1.1-0.6,1.1c-0.6,0-0.9-0.6-0.6-1.1C-95.3,444.8-94.7,444.7-94.3,445.2z M-96,430c0.3,0.5-0.1,1.1-0.6,1.1
		c-0.6,0-0.9-0.6-0.6-1.1C-97,429.6-96.4,429.5-96,430z M-96,433.4c0.3,0.5-0.1,1.1-0.6,1.1c-0.6,0-0.9-0.6-0.6-1.1
		C-97,433-96.4,432.9-96,433.4z M-96,436.8c0.3,0.5-0.1,1.1-0.6,1.1c-0.6,0-0.9-0.6-0.6-1.1C-97,436.3-96.4,436.3-96,436.8z
		 M-96,440.1c0.3,0.5-0.1,1.1-0.6,1.1c-0.6,0-0.9-0.6-0.6-1.1C-97,439.7-96.4,439.6-96,440.1z M-96,443.5c0.3,0.5-0.1,1.1-0.6,1.1
		c-0.6,0-0.9-0.6-0.6-1.1C-97,443.1-96.4,443-96,443.5z M-97.7,428.3c0.3,0.5-0.1,1.1-0.6,1.1c-0.6,0-0.9-0.6-0.6-1.1
		C-98.7,427.9-98,427.8-97.7,428.3z M-97.7,431.7c0.3,0.5-0.1,1.1-0.6,1.1c-0.6,0-0.9-0.6-0.6-1.1C-98.7,431.3-98,431.2-97.7,431.7z
		 M-97.7,435.1c0.3,0.5-0.1,1.1-0.6,1.1c-0.6,0-0.9-0.6-0.6-1.1C-98.7,434.7-98,434.6-97.7,435.1z M-97.7,438.5
		c0.3,0.5-0.1,1.1-0.6,1.1c-0.6,0-0.9-0.6-0.6-1.1C-98.7,438-98,438-97.7,438.5z M-97.7,441.8c0.3,0.5-0.1,1.1-0.6,1.1
		c-0.6,0-0.9-0.6-0.6-1.1C-98.7,441.4-98,441.3-97.7,441.8z M-97.7,445.2c0.3,0.5-0.1,1.1-0.6,1.1c-0.6,0-0.9-0.6-0.6-1.1
		C-98.7,444.8-98,444.7-97.7,445.2z M-101.1,445.2c0.3,0.5-0.1,1.1-0.6,1.1c-0.6,0-0.9-0.6-0.6-1.1
		C-102.1,444.8-101.4,444.7-101.1,445.2z M-104.5,445.2c0.3,0.5-0.1,1.1-0.6,1.1c-0.6,0-0.9-0.6-0.6-1.1
		C-105.4,444.8-104.8,444.7-104.5,445.2z M-107.8,445.2c0.3,0.5-0.1,1.1-0.6,1.1c-0.6,0-0.9-0.6-0.6-1.1
		C-108.8,444.8-108.2,444.7-107.8,445.2z M-114.6,418.2c0.3,0.5-0.1,1.1-0.6,1.1c-0.6,0-0.9-0.6-0.6-1.1
		C-115.6,417.8-114.9,417.7-114.6,418.2z M-114.6,421.6c0.3,0.5-0.1,1.1-0.6,1.1c-0.6,0-0.9-0.6-0.6-1.1
		C-115.6,421.2-114.9,421.1-114.6,421.6z M-114.6,425c0.3,0.5-0.1,1.1-0.6,1.1c-0.6,0-0.9-0.6-0.6-1.1
		C-115.6,424.5-114.9,424.5-114.6,425z M-114.6,428.3c0.3,0.5-0.1,1.1-0.6,1.1c-0.6,0-0.9-0.6-0.6-1.1
		C-115.6,427.9-114.9,427.8-114.6,428.3z M-114.6,431.7c0.3,0.5-0.1,1.1-0.6,1.1c-0.6,0-0.9-0.6-0.6-1.1
		C-115.6,431.3-114.9,431.2-114.6,431.7z M-114.6,435.1c0.3,0.5-0.1,1.1-0.6,1.1c-0.6,0-0.9-0.6-0.6-1.1
		C-115.6,434.7-114.9,434.6-114.6,435.1z M-114.6,438.5c0.3,0.5-0.1,1.1-0.6,1.1c-0.6,0-0.9-0.6-0.6-1.1
		C-115.6,438-114.9,438-114.6,438.5z M-114.6,441.8c0.3,0.5-0.1,1.1-0.6,1.1c-0.6,0-0.9-0.6-0.6-1.1
		C-115.6,441.4-114.9,441.3-114.6,441.8z M-114.6,445.2c0.3,0.5-0.1,1.1-0.6,1.1c-0.6,0-0.9-0.6-0.6-1.1
		C-115.6,444.8-114.9,444.7-114.6,445.2z M-116.3,416.5c0.3,0.5-0.1,1.1-0.6,1.1c-0.6,0-0.9-0.6-0.6-1.1
		C-117.2,416.1-116.6,416-116.3,416.5z M-116.3,419.9c0.3,0.5-0.1,1.1-0.6,1.1c-0.6,0-0.9-0.6-0.6-1.1
		C-117.2,419.5-116.6,419.4-116.3,419.9z M-116.3,423.3c0.3,0.5-0.1,1.1-0.6,1.1c-0.6,0-0.9-0.6-0.6-1.1
		C-117.2,422.8-116.6,422.8-116.3,423.3z M-116.3,426.6c0.3,0.5-0.1,1.1-0.6,1.1c-0.6,0-0.9-0.6-0.6-1.1
		C-117.2,426.2-116.6,426.1-116.3,426.6z M-116.3,430c0.3,0.5-0.1,1.1-0.6,1.1c-0.6,0-0.9-0.6-0.6-1.1
		C-117.2,429.6-116.6,429.5-116.3,430z M-116.3,433.4c0.3,0.5-0.1,1.1-0.6,1.1c-0.6,0-0.9-0.6-0.6-1.1
		C-117.2,433-116.6,432.9-116.3,433.4z M-116.3,436.8c0.3,0.5-0.1,1.1-0.6,1.1c-0.6,0-0.9-0.6-0.6-1.1
		C-117.2,436.3-116.6,436.3-116.3,436.8z M-116.3,440.1c0.3,0.5-0.1,1.1-0.6,1.1c-0.6,0-0.9-0.6-0.6-1.1
		C-117.2,439.7-116.6,439.6-116.3,440.1z M-116.3,443.5c0.3,0.5-0.1,1.1-0.6,1.1c-0.6,0-0.9-0.6-0.6-1.1
		C-117.2,443.1-116.6,443-116.3,443.5z M-117.9,414.8c0.3,0.5-0.1,1.1-0.6,1.1c-0.6,0-0.9-0.6-0.6-1.1
		C-118.9,414.4-118.3,414.3-117.9,414.8z M-117.9,418.2c0.3,0.5-0.1,1.1-0.6,1.1c-0.6,0-0.9-0.6-0.6-1.1
		C-118.9,417.8-118.3,417.7-117.9,418.2z M-117.9,421.6c0.3,0.5-0.1,1.1-0.6,1.1c-0.6,0-0.9-0.6-0.6-1.1
		C-118.9,421.2-118.3,421.1-117.9,421.6z M-117.9,425c0.3,0.5-0.1,1.1-0.6,1.1c-0.6,0-0.9-0.6-0.6-1.1
		C-118.9,424.5-118.3,424.5-117.9,425z M-117.9,428.3c0.3,0.5-0.1,1.1-0.6,1.1c-0.6,0-0.9-0.6-0.6-1.1
		C-118.9,427.9-118.3,427.8-117.9,428.3z M-117.9,431.7c0.3,0.5-0.1,1.1-0.6,1.1c-0.6,0-0.9-0.6-0.6-1.1
		C-118.9,431.3-118.3,431.2-117.9,431.7z M-117.9,435.1c0.3,0.5-0.1,1.1-0.6,1.1c-0.6,0-0.9-0.6-0.6-1.1
		C-118.9,434.7-118.3,434.6-117.9,435.1z M-117.9,438.5c0.3,0.5-0.1,1.1-0.6,1.1c-0.6,0-0.9-0.6-0.6-1.1
		C-118.9,438-118.3,438-117.9,438.5z M-117.9,441.8c0.3,0.5-0.1,1.1-0.6,1.1c-0.6,0-0.9-0.6-0.6-1.1
		C-118.9,441.4-118.3,441.3-117.9,441.8z M-117.9,445.2c0.3,0.5-0.1,1.1-0.6,1.1c-0.6,0-0.9-0.6-0.6-1.1
		C-118.9,444.8-118.3,444.7-117.9,445.2z M-120.9,416.5c0.3-0.4,0.9-0.5,1.2,0c0.3,0.5-0.1,1.1-0.6,1.1
		C-120.8,417.6-121.1,417-120.9,416.5z M-120.9,419.9c0.3-0.4,0.9-0.5,1.2,0c0.3,0.5-0.1,1.1-0.6,1.1
		C-120.8,421-121.1,420.4-120.9,419.9z M-120.9,423.3c0.3-0.4,0.9-0.5,1.2,0c0.3,0.5-0.1,1.1-0.6,1.1
		C-120.8,424.4-121.1,423.7-120.9,423.3z M-120.9,426.7c0.3-0.4,0.9-0.5,1.2,0c0.3,0.5-0.1,1.1-0.6,1.1
		C-120.8,427.7-121.1,427.1-120.9,426.7z M-120.9,430c0.3-0.4,0.9-0.5,1.2,0c0.3,0.5-0.1,1.1-0.6,1.1
		C-120.8,431.1-121.1,430.5-120.9,430z M-120.9,433.4c0.3-0.4,0.9-0.5,1.2,0c0.3,0.5-0.1,1.1-0.6,1.1
		C-120.8,434.5-121.1,433.9-120.9,433.4z M-120.9,436.8c0.3-0.4,0.9-0.5,1.2,0c0.3,0.5-0.1,1.1-0.6,1.1
		C-120.8,437.9-121.1,437.2-120.9,436.8z M-120.9,440.2c0.3-0.4,0.9-0.5,1.2,0c0.3,0.5-0.1,1.1-0.6,1.1
		C-120.8,441.2-121.1,440.6-120.9,440.2z M-120.9,443.5c0.3-0.4,0.9-0.5,1.2,0c0.3,0.5-0.1,1.1-0.6,1.1
		C-120.8,444.6-121.1,444-120.9,443.5z M-121.3,414.8c0.3,0.5-0.1,1.1-0.6,1.1c-0.6,0-0.9-0.6-0.6-1.1
		C-122.3,414.4-121.7,414.3-121.3,414.8z M-121.3,418.2c0.3,0.5-0.1,1.1-0.6,1.1c-0.6,0-0.9-0.6-0.6-1.1
		C-122.3,417.8-121.7,417.7-121.3,418.2z M-121.3,421.6c0.3,0.5-0.1,1.1-0.6,1.1c-0.6,0-0.9-0.6-0.6-1.1
		C-122.3,421.2-121.7,421.1-121.3,421.6z M-121.3,425c0.3,0.5-0.1,1.1-0.6,1.1c-0.6,0-0.9-0.6-0.6-1.1
		C-122.3,424.5-121.7,424.5-121.3,425z M-121.3,428.3c0.3,0.5-0.1,1.1-0.6,1.1c-0.6,0-0.9-0.6-0.6-1.1
		C-122.3,427.9-121.7,427.8-121.3,428.3z M-121.3,431.7c0.3,0.5-0.1,1.1-0.6,1.1c-0.6,0-0.9-0.6-0.6-1.1
		C-122.3,431.3-121.7,431.2-121.3,431.7z M-121.3,435.1c0.3,0.5-0.1,1.1-0.6,1.1c-0.6,0-0.9-0.6-0.6-1.1
		C-122.3,434.7-121.7,434.6-121.3,435.1z M-121.3,438.5c0.3,0.5-0.1,1.1-0.6,1.1c-0.6,0-0.9-0.6-0.6-1.1
		C-122.3,438-121.7,438-121.3,438.5z M-121.3,441.8c0.3,0.5-0.1,1.1-0.6,1.1c-0.6,0-0.9-0.6-0.6-1.1
		C-122.3,441.4-121.7,441.3-121.3,441.8z M-121.3,445.2c0.3,0.5-0.1,1.1-0.6,1.1c-0.6,0-0.9-0.6-0.6-1.1
		C-122.3,444.8-121.7,444.7-121.3,445.2z M-123,416.5c0.3,0.5-0.1,1.1-0.6,1.1c-0.6,0-0.9-0.6-0.6-1.1
		C-124,416.1-123.4,416-123,416.5z M-123,419.9c0.3,0.5-0.1,1.1-0.6,1.1c-0.6,0-0.9-0.6-0.6-1.1C-124,419.5-123.4,419.4-123,419.9z
		 M-123,423.3c0.3,0.5-0.1,1.1-0.6,1.1c-0.6,0-0.9-0.6-0.6-1.1C-124,422.8-123.4,422.8-123,423.3z M-123,426.6
		c0.3,0.5-0.1,1.1-0.6,1.1c-0.6,0-0.9-0.6-0.6-1.1C-124,426.2-123.4,426.1-123,426.6z M-123,430c0.3,0.5-0.1,1.1-0.6,1.1
		c-0.6,0-0.9-0.6-0.6-1.1C-124,429.6-123.4,429.5-123,430z M-123,433.4c0.3,0.5-0.1,1.1-0.6,1.1c-0.6,0-0.9-0.6-0.6-1.1
		C-124,433-123.4,432.9-123,433.4z M-123,436.8c0.3,0.5-0.1,1.1-0.6,1.1c-0.6,0-0.9-0.6-0.6-1.1C-124,436.3-123.4,436.3-123,436.8z
		 M-123,440.1c0.3,0.5-0.1,1.1-0.6,1.1c-0.6,0-0.9-0.6-0.6-1.1C-124,439.7-123.4,439.6-123,440.1z M-123,443.5
		c0.3,0.5-0.1,1.1-0.6,1.1c-0.6,0-0.9-0.6-0.6-1.1C-124,443.1-123.4,443-123,443.5z M-124.7,418.2c0.3,0.5-0.1,1.1-0.6,1.1
		c-0.6,0-0.9-0.6-0.6-1.1C-125.7,417.8-125,417.7-124.7,418.2z M-124.7,421.6c0.3,0.5-0.1,1.1-0.6,1.1c-0.6,0-0.9-0.6-0.6-1.1
		C-125.7,421.2-125,421.1-124.7,421.6z M-124.7,425c0.3,0.5-0.1,1.1-0.6,1.1c-0.6,0-0.9-0.6-0.6-1.1
		C-125.7,424.5-125,424.5-124.7,425z M-124.7,428.3c0.3,0.5-0.1,1.1-0.6,1.1c-0.6,0-0.9-0.6-0.6-1.1
		C-125.7,427.9-125,427.8-124.7,428.3z M-124.7,431.7c0.3,0.5-0.1,1.1-0.6,1.1c-0.6,0-0.9-0.6-0.6-1.1
		C-125.7,431.3-125,431.2-124.7,431.7z M-124.7,435.1c0.3,0.5-0.1,1.1-0.6,1.1c-0.6,0-0.9-0.6-0.6-1.1
		C-125.7,434.7-125,434.6-124.7,435.1z M-124.7,438.5c0.3,0.5-0.1,1.1-0.6,1.1c-0.6,0-0.9-0.6-0.6-1.1
		C-125.7,438-125,438-124.7,438.5z M-124.7,441.8c0.3,0.5-0.1,1.1-0.6,1.1c-0.6,0-0.9-0.6-0.6-1.1
		C-125.7,441.4-125,441.3-124.7,441.8z M-124.7,445.2c0.3,0.5-0.1,1.1-0.6,1.1c-0.6,0-0.9-0.6-0.6-1.1
		C-125.7,444.8-125,444.7-124.7,445.2z M-132.7,435.1c0.3-0.4,0.9-0.5,1.2,0c0.3,0.5-0.1,1.1-0.6,1.1
		C-132.6,436.2-133,435.6-132.7,435.1z M-132.7,438.5c0.3-0.4,0.9-0.5,1.2,0c0.3,0.5-0.1,1.1-0.6,1.1
		C-132.6,439.6-133,438.9-132.7,438.5z M-134.4,436.8c0.3-0.4,0.9-0.5,1.2,0c0.3,0.5-0.1,1.1-0.6,1.1
		C-134.3,437.9-134.6,437.2-134.4,436.8z M-136.1,435.1c0.3-0.4,0.9-0.5,1.2,0c0.3,0.5-0.1,1.1-0.6,1.1
		C-136,436.2-136.3,435.6-136.1,435.1z M-136.1,438.5c0.3-0.4,0.9-0.5,1.2,0c0.3,0.5-0.1,1.1-0.6,1.1
		C-136,439.6-136.3,438.9-136.1,438.5z M-137.7,436.8c0.3-0.4,0.9-0.5,1.2,0c0.3,0.5-0.1,1.1-0.6,1.1
		C-137.7,437.9-138,437.2-137.7,436.8z M-138.2,435.1c0.3,0.5-0.1,1.1-0.6,1.1c-0.6,0-0.9-0.6-0.6-1.1
		C-139.2,434.7-138.5,434.6-138.2,435.1z M-138.2,438.5c0.3,0.5-0.1,1.1-0.6,1.1c-0.6,0-0.9-0.6-0.6-1.1
		C-139.2,438-138.5,438-138.2,438.5z M-139.9,436.8c0.3,0.5-0.1,1.1-0.6,1.1c-0.6,0-0.9-0.6-0.6-1.1
		C-140.9,436.3-140.2,436.3-139.9,436.8z M-141.6,418.2c0.3,0.5-0.1,1.1-0.6,1.1c-0.6,0-0.9-0.6-0.6-1.1
		C-142.5,417.8-141.9,417.7-141.6,418.2z M-141.6,421.6c0.3,0.5-0.1,1.1-0.6,1.1c-0.6,0-0.9-0.6-0.6-1.1
		C-142.5,421.2-141.9,421.1-141.6,421.6z M-141.6,425c0.3,0.5-0.1,1.1-0.6,1.1c-0.6,0-0.9-0.6-0.6-1.1
		C-142.5,424.5-141.9,424.5-141.6,425z M-141.6,428.3c0.3,0.5-0.1,1.1-0.6,1.1c-0.6,0-0.9-0.6-0.6-1.1
		C-142.5,427.9-141.9,427.8-141.6,428.3z M-141.6,431.7c0.3,0.5-0.1,1.1-0.6,1.1c-0.6,0-0.9-0.6-0.6-1.1
		C-142.5,431.3-141.9,431.2-141.6,431.7z M-141.6,435.1c0.3,0.5-0.1,1.1-0.6,1.1c-0.6,0-0.9-0.6-0.6-1.1
		C-142.5,434.7-141.9,434.6-141.6,435.1z M-141.6,438.5c0.3,0.5-0.1,1.1-0.6,1.1c-0.6,0-0.9-0.6-0.6-1.1
		C-142.5,438-141.9,438-141.6,438.5z M-143.3,419.9c0.3,0.5-0.1,1.1-0.6,1.1c-0.6,0-0.9-0.6-0.6-1.1
		C-144.2,419.5-143.6,419.4-143.3,419.9z M-143.3,423.3c0.3,0.5-0.1,1.1-0.6,1.1c-0.6,0-0.9-0.6-0.6-1.1
		C-144.2,422.8-143.6,422.8-143.3,423.3z M-143.3,426.6c0.3,0.5-0.1,1.1-0.6,1.1c-0.6,0-0.9-0.6-0.6-1.1
		C-144.2,426.2-143.6,426.1-143.3,426.6z M-143.3,430c0.3,0.5-0.1,1.1-0.6,1.1c-0.6,0-0.9-0.6-0.6-1.1
		C-144.2,429.6-143.6,429.5-143.3,430z M-143.3,433.4c0.3,0.5-0.1,1.1-0.6,1.1c-0.6,0-0.9-0.6-0.6-1.1
		C-144.2,433-143.6,432.9-143.3,433.4z M-143.3,436.8c0.3,0.5-0.1,1.1-0.6,1.1c-0.6,0-0.9-0.6-0.6-1.1
		C-144.2,436.3-143.6,436.3-143.3,436.8z M-145,418.2c0.3,0.5-0.1,1.1-0.6,1.1c-0.6,0-0.9-0.6-0.6-1.1
		C-145.9,417.8-145.3,417.7-145,418.2z M-145,421.6c0.3,0.5-0.1,1.1-0.6,1.1c-0.6,0-0.9-0.6-0.6-1.1
		C-145.9,421.2-145.3,421.1-145,421.6z M-145,425c0.3,0.5-0.1,1.1-0.6,1.1c-0.6,0-0.9-0.6-0.6-1.1C-145.9,424.5-145.3,424.5-145,425
		z M-145,428.3c0.3,0.5-0.1,1.1-0.6,1.1c-0.6,0-0.9-0.6-0.6-1.1C-145.9,427.9-145.3,427.8-145,428.3z M-145,431.7
		c0.3,0.5-0.1,1.1-0.6,1.1c-0.6,0-0.9-0.6-0.6-1.1C-145.9,431.3-145.3,431.2-145,431.7z M-145,435.1c0.3,0.5-0.1,1.1-0.6,1.1
		c-0.6,0-0.9-0.6-0.6-1.1C-145.9,434.7-145.3,434.6-145,435.1z M-145,438.5c0.3,0.5-0.1,1.1-0.6,1.1c-0.6,0-0.9-0.6-0.6-1.1
		C-145.9,438-145.3,438-145,438.5z"/>
</g>
</svg>
