<?xml version="1.0" encoding="utf-8"?>
<!-- Generator: Adobe Illustrator 19.0.0, SVG Export Plug-In . SVG Version: 6.00 Build 0)  -->
<svg version="1.1" id="Capa_1" xmlns="http://www.w3.org/2000/svg" xmlns:xlink="http://www.w3.org/1999/xlink" x="0px" y="0px"
	 viewBox="-210 325.9 173.5 190" style="enable-background:new -210 325.9 173.5 190;" xml:space="preserve">
<g id="XMLID_100_">
	<path d="M-45.1,494.1h-156.3c-2,0-3.8-1-4.8-2.7s-1-3.8,0-5.5l78.1-135.4c1-1.7,2.8-2.8,4.8-2.8l0,0c2,0,3.8,1,4.8,2.7l78.2,135.4
		c1,1.7,1,3.8,0,5.5C-41.3,493-43.1,494.1-45.1,494.1z M-191.9,483.1h137.3l-68.7-118.9L-191.9,483.1z"/>
</g>
<g>
	<path d="M-131.3,437c-0.6-0.6-1.5-0.6-2,0l-2.7,2.7l-2.7-2.7c-0.6-0.6-1.5-0.6-2,0c-0.6,0.6-0.6,1.5,0,2l2.7,2.7l-2.7,2.7
		c-0.6,0.6-0.6,1.5,0,2c0.3,0.3,0.6,0.4,1,0.4c0.4,0,0.7-0.1,1-0.4l2.7-2.7l2.7,2.7c0.3,0.3,0.6,0.4,1,0.4c0.4,0,0.7-0.1,1-0.4
		c0.6-0.6,0.6-1.5,0-2l-2.7-2.7l2.7-2.7C-130.7,438.5-130.7,437.6-131.3,437L-131.3,437z M-131.3,437"/>
	<path d="M-104.2,437c-0.6-0.6-1.5-0.6-2,0l-2.7,2.7l-2.7-2.7c-0.6-0.6-1.5-0.6-2,0c-0.6,0.6-0.6,1.5,0,2l2.7,2.7l-2.7,2.7
		c-0.6,0.6-0.6,1.5,0,2c0.3,0.3,0.6,0.4,1,0.4c0.4,0,0.7-0.1,1-0.4l2.7-2.7l2.7,2.7c0.3,0.3,0.6,0.4,1,0.4c0.4,0,0.7-0.1,1-0.4
		c0.6-0.6,0.6-1.5,0-2l-2.7-2.7l2.7-2.7C-103.7,438.5-103.7,437.6-104.2,437L-104.2,437z M-104.2,437"/>
	<path d="M-92.8,430.1c-0.1-0.4-0.2-0.8-0.3-1.1c-0.1-0.4-0.2-0.8-0.3-1.2c-0.2-0.6-0.4-1.2-0.6-1.7c-0.1-0.3-0.2-0.6-0.3-0.8
		c-0.2-0.7-0.5-1.3-0.8-2c-0.1-0.2-0.1-0.3-0.2-0.5c-0.3-0.7-0.7-1.3-1-2c-0.1-0.1-0.1-0.3-0.2-0.4c-0.3-0.5-0.7-1.1-1-1.6
		c-0.2-0.2-0.3-0.5-0.5-0.7c-0.2-0.3-0.4-0.5-0.6-0.8c-5.8-7.6-14.8-12.4-24.9-12.4c-11.8,0-22.3,6.8-27.5,17.1
		c-0.1,0.2-0.2,0.3-0.3,0.5c-0.2,0.5-0.4,1-0.7,1.5c-0.1,0.4-0.3,0.7-0.4,1.1c-0.2,0.4-0.3,0.9-0.4,1.3c-0.2,0.4-0.3,0.9-0.4,1.4
		c-0.1,0.4-0.2,0.8-0.3,1.3c-0.1,0.4-0.2,0.7-0.3,1.1c-2.6,1.4-4.4,4.4-4.4,7.4c0,3.1,1.8,5.8,4.6,7.1c3.6,13.9,15.9,23.6,30.4,23.6
		c0.4,0,0.9,0,1.3-0.1c1.1,2.5,3.6,4.3,6.6,4.3h1.4c3.9,0,7.1-3.2,7.1-7.1v-1.8c6.9-4.3,11.9-11.1,14-18.9c2.8-1.3,4.6-4,4.6-7.1
		C-88.3,434.6-90.2,431.5-92.8,430.1L-92.8,430.1z M-109.7,465.3c0,2.4-1.9,4.3-4.3,4.3h-1.4c-2,0-3.7-1.4-4.1-3.3c0,0,0,0,0,0
		c0-0.1,0-0.2-0.1-0.4c0-0.2-0.1-0.4-0.1-0.6v-9.7h1.8c0.5,0,1.1,0,1.6,0c0.2,1,0.2,3.2,0.2,6.3v0.2c0,0.8,0.6,1.4,1.4,1.4
		c0.8,0,1.4-0.6,1.4-1.4V462c0-1.3,0-3.2-0.1-4.9c0-0.5-0.1-1-0.1-1.4c1.4,0,2.7,0,3.7,0V465.3z M-94.6,442.2
		c-0.5,0.2-0.8,0.6-0.9,1c-1.6,6.8-5.7,12.8-11.4,16.9v-4.5c0.8,0,1.4-0.6,1.4-1.4c0-0.8-0.6-1.4-1.4-1.4h-31.4
		c-0.8,0-1.4,0.6-1.4,1.4c0,0.8,0.6,1.4,1.4,1.4h15.7v9.7c-0.2,0-0.5,0-0.7,0c-13.3,0-24.8-9.1-27.8-22.1c-0.1-0.5-0.5-0.9-0.9-1
		c-2-0.7-3.4-2.6-3.4-4.7c0-1.9,1.3-4,3-4.9c1.6,0.4,6.8,1.4,13.4,1.4c8.3,0,19-1.7,27.6-8.6c0.1-0.1,0.2-0.1,0.3-0.1
		c0.1,0,0.2,0.1,0.2,0.1c4.7,7,10.7,9.5,16.8,7.1c1.6,0.9,2.9,3,2.9,4.9C-91.2,439.6-92.5,441.5-94.6,442.2L-94.6,442.2z
		 M-94.6,442.2"/>
</g>
</svg>
