<?xml version="1.0" encoding="utf-8"?>
<!-- Generator: Adobe Illustrator 19.0.0, SVG Export Plug-In . SVG Version: 6.00 Build 0)  -->
<svg version="1.1" id="Capa_1" xmlns="http://www.w3.org/2000/svg" xmlns:xlink="http://www.w3.org/1999/xlink" x="0px" y="0px"
	 viewBox="-210 325.9 173.5 190" style="enable-background:new -210 325.9 173.5 190;" xml:space="preserve">
<g id="XMLID_100_">
	<path d="M-45.1,494.1h-156.3c-2,0-3.8-1-4.8-2.7s-1-3.8,0-5.5l78.1-135.4c1-1.7,2.8-2.8,4.8-2.8l0,0c2,0,3.8,1,4.8,2.7l78.2,135.4
		c1,1.7,1,3.8,0,5.5C-41.3,493-43.1,494.1-45.1,494.1z M-191.9,483.1h137.3l-68.7-118.9L-191.9,483.1z"/>
</g>
<path d="M-128.9,447.5c-0.1,0.9-0.3,1.7-0.7,2.5c-0.5,1.4-0.8,2.8-1,4.2c-0.9,1.8-1.7,3.8-2.1,4.9c-0.3,0.8-0.4,1.7-0.2,2.5
	c0.2,0.6,0.3,1.2,0.3,1.9c0,1-0.3,1.9-0.8,2.8c-1.7,0.4-3.9,1.6-3.9,2.6c0,0.6,0.4,0.9,1.1,0.9c0.5-0.7,1-1.3,1.6-1.9
	c0.2,0.1,0.2,0.4,0.1,0.6c-0.3,0.4-0.4,0.9-0.5,1.4h0.8c1.7,0,4.2,0.1,4.2-1.1c0-0.8-0.3-1.7-0.9-2.2c0.8-1.5,1.8-3.9,2.6-5.5v-0.1
	c0.2-0.4,0.4-0.7,0.5-1.1c0.4-1.2,0.6-2.5,0.6-3.8c0.9-1.9,1.7-3.9,2.5-5.9C-126.4,449.7-127.8,448.8-128.9,447.5z"/>
<path d="M-85.2,446.1c-0.4-0.7-0.9-1.4-1.6-1.8c-1.1-2.1-2.4-4.2-3.9-6.1c-0.6-0.7-1.1-1.4-1.4-1.8c-3.6-6.1-10.5-5.4-12.4-9.5
	c-1.7-4.7-6.9-7.1-11.6-5.4c-3.1,1.1-5.3,3.8-5.8,7c-2.1,0.2-3.9,1.2-5.3,2.8l0,0c-2.1,2.4-1.8,5.4-5.7,6.4
	c-5.6,1.4-7.8-3.8-8.7-9.4v-0.1l0,0c-0.1-0.5-0.3-1-0.6-1.4c0.1-0.1,0.3-0.2,0.4-0.3c0.6-0.7,1.4-3,0.7-3c-1.1,0.1-2,0.6-2.8,1.3
	c-0.1,0.2-0.2,0.4-0.3,0.6c-0.7-0.3-1.5-0.3-2.3,0l-0.3,0.2l-0.2,0.1c-0.6,0.3-1.3,0.5-2,0.5c-1.5,0.1-2.9,0.4-4.2,1
	c-0.6-0.5-1.5-0.5-2.1,0.2c0,0-0.1,0.1-0.1,0.1l0,0c-0.7,0.8-2.3,2.6-1.7,3.2c0.4,0.5,0.7,0.5,1,0.4c-0.1,0.5,0,0.9,0.2,1.3
	c0.5,1,1,0.2,1.9-0.4c0.9-0.5,1.1-0.1,2,0.5l0,0c0.6,0.5,1.4,0.8,2.2,0.9l0,0c3.1,0.8,3.4,6.2,7.4,10.5c1.4,1.6,3.2,2.8,5.2,3.5
	l0.2,0.1l0,0c1.3,0.4,2.6,0.7,4,0.7c1.3,0,2.7-0.2,3.9-0.7c-0.9-1.1-1.4-2.4-1.6-3.7c0.5-0.1,1,0.2,1.1,0.7c0.6,2.3,2.4,4,4.7,4.7
	c0.1,0.3,0.2,0.7,0.3,1c0.4,0.9,0.6,1.8,0.6,2.7c0.1,1.3,0.4,2.6,0.8,3.8c0,1.8,0.1,3.8,0.2,4.8c0,0.8,0.3,1.5,0.8,2.1
	c0.4,0.4,0.8,0.9,1.1,1.4c0.3,0.5,0.5,1.1,0.4,1.7c-1.7,0.4-4,1.6-4,2.6c0,0.6,0.3,0.8,0.9,0.9c0.5-0.6,1-1.2,1.5-1.8
	c0.1,0.1,0.1,0.3,0,0.4c-0.3,0.4-0.5,0.9-0.5,1.5h1.1c1.7,0,4.2,0.1,4.2-1.1c0-0.9-0.3-1.7-1-2.3c0.1-1.5,0.1-4,0.1-5.7
	c0,0,0,0,0-0.1c0-0.4,0-0.8,0-1.2c-0.2-1.1-0.5-2.2-1-3.3c0.1-2.6-0.1-5.1-0.5-7.7c2.4,0.6,4.9,0.9,7.4,0.9c3.3,0.1,6.7-0.5,9.8-1.8
	c1.7-0.7,3.4-1.2,5.2-1.7c-0.1-0.9-0.1-1.8-0.1-2.8c0-0.3-0.1-0.9,0.2-0.9l0,0c0.3,0,0.5,0.2,0.5,0.5c0,0,0,0,0,0
	c-0.1,3.4,0.8,6.8,2.5,9.8c0.4,0.6,0.9,1.1,1.4,1.7c0.1,1.7,0.1,3.3,0,5c-0.2,0.8-0.1,1.7,0.2,2.5c0.3,0.6,0.5,1.2,0.6,1.8
	c0.2,0.8,0.1,1.6-0.2,2.4c-1.7,0.5-3.5,1.6-3.5,2.5s0.7,0.9,1.7,1c0.3-0.6,0.7-1.1,1.1-1.6c0.1,0.1,0.2,0.3,0.1,0.4
	c-0.2,0.4-0.2,0.8-0.2,1.2h0.3c1.7,0,4.2,0.1,4.2-1.1c0.1-1-0.4-1.9-1.2-2.4c0.5-1.6,1.1-3.8,1.5-5.5c0,0,0,0,0-0.1
	c0.2-0.4,0.3-0.9,0.3-1.4c0.1-0.8,0.1-1.5,0-2.3c0,0,0,0,0-0.1l0,0c0-0.8-0.1-1.6-0.2-2.5c-0.1-4.1-0.6-8.1-1.4-12
	c0.6,0.8,1.2,1.7,1.9,2.4c0.1,0.8,0.4,1.6,0.8,2.2c0.8,1.4,1.7,0.7,2.6,2.2C-84.2,450-84.4,447.5-85.2,446.1z"/>
<path d="M-95.2,453.7c-1.2-1.9-1.9-4.1-2.2-6.4c-1.3,0.3-2.5,0.7-3.7,1.1c-0.7,3.3-0.8,6.8-0.1,10.1c-0.3,0.9-0.4,1.8-0.3,2.8
	c0.1,0.8,0.2,1.5,0.2,2.3c0,0.9-0.2,1.8-0.6,2.7c-1.6,0.5-3.4,1.6-3.4,2.4s0.7,1,1.7,1c0-0.8,0.7-1.5,1.2-2.2
	c0.1,0.1,0.2,0.3,0.1,0.4c-0.3,0.6-0.3,1.2,0,1.8h0.1c1.7,0,4.2,0.1,4.2-1.1c0.1-1-0.4-1.9-1.2-2.4c0.8-1.7,1.6-3.8,2.3-5.4l0,0
	c0.2-0.5,0.4-1,0.6-1.5c0.5-1.6,0.7-3.3,0.8-4.9L-95.2,453.7z"/>
</svg>
