<?xml version="1.0" encoding="utf-8"?>
<!-- Generator: Adobe Illustrator 19.0.0, SVG Export Plug-In . SVG Version: 6.00 Build 0)  -->
<svg version="1.1" id="Capa_1" xmlns="http://www.w3.org/2000/svg" xmlns:xlink="http://www.w3.org/1999/xlink" x="0px" y="0px"
	 viewBox="-210 325.9 173.5 190" style="enable-background:new -210 325.9 173.5 190;" xml:space="preserve">
<style type="text/css">
	.st0{clip-path:url(#SVGID_1_);}
</style>
<g id="XMLID_100_">
	<path d="M-45.1,494.1h-156.3c-2,0-3.8-1-4.8-2.7s-1-3.8,0-5.5l78.1-135.4c1-1.7,2.8-2.8,4.8-2.8l0,0c2,0,3.8,1,4.8,2.7l78.2,135.4
		c1,1.7,1,3.8,0,5.5C-41.3,493-43.1,494.1-45.1,494.1z M-191.9,483.1h137.3l-68.7-118.9L-191.9,483.1z"/>
</g>
<g>
	<g>
		<defs>
			
				<rect id="SVGID_3_" x="-162.4" y="417.9" transform="matrix(-0.9984 5.569677e-002 -5.569677e-002 -0.9984 -229.5171 900.9843)" width="70.2" height="58.8"/>
		</defs>
		<clipPath id="SVGID_1_">
			<use xlink:href="#SVGID_3_"  style="overflow:visible;"/>
		</clipPath>
		<path class="st0" d="M-94.2,422.4c-0.4-0.5-1.1-0.9-1.8-0.9l-5.4-0.2l-0.7-1.6c-0.3-0.7-0.9-1.1-1.6-1.3l-7-1.5
			c-0.5-0.1-1,0-1.4,0.2c0,0,0,0-0.1,0l-6.8,3.4c-0.3,0.2-0.6,0.5-0.6,0.9c0,0.4,0.1,0.8,0.4,1l1.7,1.3l-1.3,3.6
			c-1.6,4.7-5.9,8-10.8,8.4l-17.8,1.6l-1.8-1.4c-1.4-1.1-2-2.9-1.5-4.6l0.4-1.3c0.4-1.3-0.2-2.7-1.4-3.3c-0.7-0.3-1.5-0.4-2.2-0.1
			c-0.7,0.3-1.3,0.9-1.6,1.6l-0.3,0.7c-1.6,4-1,8.4,1.6,11.8c-1.3,1.2-2.4,2.9-2.6,5c-0.4,4.1-0.3,11.7-0.1,16c0,0.8-0.4,1.6-1.2,2
			c-1.3,0.7-2.2,2-2.3,3.4l-0.6,5.9c-0.1,1.1,0.2,2.1,1,2.9c0.7,0.8,1.8,1.2,2.8,1.1l3.4-0.2c0.6,0,1.2-0.3,1.5-0.8
			c0.4-0.5,0.5-1.1,0.4-1.7c-0.3-1.5-1.3-2.8-2.8-3.3c0.8-1.5,2-2.8,3.6-3.5c2.5-1.2,4.5-3.3,5.6-5.9l2.6-6.4
			c0.9-0.5,4.1-1.9,8.9-0.8c1.9,0.4,3.8,0.9,5.6,1.4c3.3,0.9,6.1,1.7,8.1,1.6c0.6,5.2,1.1,11.2,0.8,13c-0.3,1.3,0,2.5,0.6,3.5
			c1.1,1.6,3.1,2,3.3,2.1c0.1,0,0.2,0,0.3,0l2.6-0.1c0.7,0,1.2-0.4,1.6-0.9c0.4-0.5,0.4-1.2,0.2-1.8c-0.5-1.5-1.6-2.6-3-3.2
			l2.9-13.1c1.8-2,2.9-4.5,3.3-7.2l2.6-16.3c1.4-0.4,3.4-0.9,5.9-1.5c2.6-0.6,4.6-2.7,5.1-5.3l0.3-2.1
			C-93.5,423.6-93.7,422.9-94.2,422.4L-94.2,422.4z M-95.9,424l-0.3,2.1c-0.3,1.7-1.6,3.1-3.3,3.5c-3,0.6-5.2,1.2-6.8,1.7
			c-0.9,0.3-1.9,0.2-2.8-0.2c-1.5-0.7-2.5-1.2-2.5-1.2c-0.5-0.3-1.2-0.1-1.5,0.5c-0.3,0.5-0.1,1.2,0.5,1.5c0,0,1,0.5,2.6,1.3
			c0.9,0.4,1.8,0.6,2.8,0.6l-2.5,15.5c-0.4,2.3-1.4,4.5-3,6.3c-0.1,0.1-0.2,0.3-0.3,0.5l-3.2,14.4c-0.1,0.6,0.2,1.2,0.8,1.3l0.2,0
			c1,0.2,1.8,0.9,2.2,1.8l-2.2,0.1c-0.2-0.1-0.8-0.2-1.3-0.6c-0.7-0.5-1-1.3-0.8-2.3c0.7-3.6-1.4-18.9-1.6-20.6
			c-0.1-0.6-0.7-1.1-1.3-0.9c-0.6,0.1-1,0.7-0.9,1.3c0.2,1.1,0.4,2.7,0.6,4.6c-1.7,0-4.4-0.8-7.3-1.5c-1.7-0.5-3.7-1-5.7-1.5
			c-3.5-0.8-6.3-0.4-8.2,0.1l0.7-1.8c0.2-0.6,0-1.2-0.6-1.5c-0.6-0.3-1.3,0-1.5,0.6l-4.5,11.1c-0.8,2.1-2.4,3.7-4.5,4.7
			c-2.4,1.1-4.2,3.1-5.1,5.6l-0.1,0.3c-0.1,0.2-0.1,0.4-0.1,0.6c0.1,0.5,0.4,0.8,0.8,0.9l0.8,0.2c0.7,0.2,1.3,0.8,1.5,1.5l-3.2,0.2
			c-0.3,0-0.6-0.1-0.9-0.2c-0.4-0.3-0.6-0.8-0.6-1.3l0.6-5.9c0.1-0.7,0.5-1.4,1.2-1.7c1.5-0.8,2.4-2.4,2.4-4
			c-0.1-3.3-0.3-11.6,0.1-15.6c0.5-4.3,6.4-6.1,7.1-6.3l18.2-1.6c5.8-0.5,10.8-4.4,12.7-9.9l1-2.9l1,0.7c0.8,0.6,1.8,0.7,2.6,0.2
			c0.9-0.4,1.4-1.3,1.4-2.2l0-4.5l6.4,1.3l0.4,0.8l-1.1,0.1c-0.6,0.1-1.1,0.6-1,1.2c0,0.6,0.6,1.1,1.2,1c0,0,0.1,0,0.1,0
			c1.7-0.2,3.4-0.3,5.1-0.2l3.4,0.1c0.1,0,0.1,0,0.1,0.1C-95.9,423.8-95.9,423.9-95.9,424L-95.9,424z M-95.9,424"/>
	</g>
</g>
</svg>
