<?xml version="1.0" encoding="utf-8"?>
<!-- Generator: Adobe Illustrator 19.0.0, SVG Export Plug-In . SVG Version: 6.00 Build 0)  -->
<svg version="1.1" id="Capa_1" xmlns="http://www.w3.org/2000/svg" xmlns:xlink="http://www.w3.org/1999/xlink" x="0px" y="0px"
	 viewBox="-210 325.9 173.5 190" style="enable-background:new -210 325.9 173.5 190;" xml:space="preserve">
<g id="XMLID_100_">
	<path d="M-45.1,494.1h-156.3c-2,0-3.8-1-4.8-2.7s-1-3.8,0-5.5l78.1-135.4c1-1.7,2.8-2.8,4.8-2.8l0,0c2,0,3.8,1,4.8,2.7l78.2,135.4
		c1,1.7,1,3.8,0,5.5C-41.3,493-43.1,494.1-45.1,494.1z M-191.9,483.1h137.3l-68.7-118.9L-191.9,483.1z"/>
</g>
<g>
	<g>
		<path d="M-125.4,456.2c-4.4,0-8.3-1.3-11-4c-8.8-8.6-3.8-28.2,11.3-44.6c0.4-0.4,1.1-0.5,1.6-0.1c0.4,0.4,0.5,1.1,0.1,1.6
			c-14,15.3-19.1,33.9-11.4,41.5c7.8,7.6,26,1.9,40.7-12.8c0.4-0.4,1.1-0.4,1.6,0c0.4,0.4,0.4,1.1,0,1.6
			C-103.4,450.2-115.8,456.2-125.4,456.2z"/>
	</g>
	<g>
		<path d="M-125.3,451.2L-125.3,451.2c-0.3,0-0.6-0.2-0.6-0.6s0.2-0.6,0.6-0.6l0,0l0,0c6.2,0,14.1-3.3,21.7-9.1
			c0.2-0.2,0.6-0.2,0.8,0.1c0.2,0.2,0.2,0.6-0.1,0.8C-110.7,447.8-118.8,451.2-125.3,451.2z"/>
	</g>
	<g>
		<path d="M-149.4,477.1L-149.4,477.1c-1.7,0-3.2-0.7-4.4-1.8c-0.9-0.9-1.5-1.9-1.8-3.2c-1.2-0.2-2.3-0.8-3.2-1.7
			c-2.5-2.4-2.6-6.5-0.1-9c1.2-1.3,2.8-1.9,4.5-1.9c0.9,0,1.9,0.2,2.7,0.6L-139,447c0.3-0.3,0.6-0.4,1-0.3c0.4,0.1,0.7,0.3,0.8,0.6
			c0.6,1.3,1.4,2.4,2.3,3.3c0.9,0.9,2.1,1.7,3.4,2.2c0.3,0.2,0.6,0.4,0.7,0.8c0.1,0.3-0.1,0.7-0.3,1l-12.6,13.1
			c1.2,2.4,0.8,5.4-1.1,7.4C-146,476.4-147.6,477.1-149.4,477.1z M-154.3,461.7c-1.1,0-2.2,0.4-2.9,1.3c-1.6,1.7-1.6,4.3,0.1,5.9
			c0.7,0.7,1.7,1.1,2.7,1.2c0.6,0,1,0.4,1.1,1.1c0.1,1,0.5,1.9,1.2,2.7c0.8,0.8,1.8,1.2,2.8,1.2c1.1,0,2.2-0.4,2.9-1.3
			c1.4-1.4,1.6-3.7,0.4-5.3c-0.3-0.4-0.3-1.1,0.1-1.4l12.2-12.7c-0.9-0.6-1.8-1.2-2.6-2c-0.8-0.8-1.4-1.6-2.1-2.6l-12.1,12.6
			c-0.4,0.4-1,0.4-1.4,0.2C-152.7,462-153.5,461.7-154.3,461.7z"/>
	</g>
	<g>
		<path d="M-95.1,440.3L-95.1,440.3c-4,0-11.5-4.7-18.6-11.8c-8.1-7.9-14.5-17.6-11.4-21c0.6-0.6,1.4-0.9,2.5-0.9
			c4,0,11.5,4.7,18.6,11.8c8,7.9,14.5,17.6,11.3,21C-93.2,440-94,440.3-95.1,440.3z M-122.5,408.9c-0.3,0-0.7,0.1-0.9,0.3
			c-1.4,1.4,2.3,9.1,11.3,17.9c7.4,7.3,14.2,11.1,17.1,11.1l0,0c0.3,0,0.7-0.1,0.9-0.3c1.4-1.4-2.3-9.1-11.3-17.9
			C-112.9,412.7-119.7,408.9-122.5,408.9z"/>
	</g>
	<g>
		<path d="M-104,429.5L-104,429.5c-1.4,0-4-1.6-6.6-4.2c-2.8-2.7-5.2-6.3-3.9-7.5c0.2-0.2,0.5-0.4,1-0.4c1.4,0,4,1.6,6.6,4.2
			c2.8,2.7,5.2,6.3,3.9,7.5C-103.2,429.4-103.5,429.5-104,429.5z M-113.6,418.6c-0.1,0-0.2,0-0.2,0.1c-0.3,0.3,0.7,2.8,3.9,6
			c2.6,2.5,4.9,3.8,5.8,3.8l0,0c0.1,0,0.2,0,0.2-0.1c0.3-0.3-0.7-2.8-3.9-6C-110.3,419.9-112.6,418.6-113.6,418.6z"/>
	</g>
</g>
</svg>
