<?xml version="1.0" encoding="utf-8"?>
<!-- Generator: Adobe Illustrator 19.0.0, SVG Export Plug-In . SVG Version: 6.00 Build 0)  -->
<svg version="1.1" id="Capa_1" xmlns="http://www.w3.org/2000/svg" xmlns:xlink="http://www.w3.org/1999/xlink" x="0px" y="0px"
	 viewBox="-210 325.9 173.5 190" style="enable-background:new -210 325.9 173.5 190;" xml:space="preserve">
<g id="XMLID_100_">
	<path d="M-45.1,494.1h-156.3c-2,0-3.8-1-4.8-2.7s-1-3.8,0-5.5l78.1-135.4c1-1.7,2.8-2.8,4.8-2.8l0,0c2,0,3.8,1,4.8,2.7l78.2,135.4
		c1,1.7,1,3.8,0,5.5C-41.3,493-43.1,494.1-45.1,494.1z M-191.9,483.1h137.3l-68.7-118.9L-191.9,483.1z"/>
</g>
<path d="M-144.8,445.2c1.4,0.4,1.8,4.1,2,5.1c0.3,2.4,0.7,5.3-0.6,7.5c-2.6,4.7-2.5,9.9,2.7,12.8c1.9,1.1,4.3,1.4,6.4,0.6
	c0.9-0.3,1.8-0.8,2.4-1.6c1.3-1.6,2.5-5.1,2.7-6.6c0.2-1.8,0.6-5.2,1.9-6.5c-3,0.1-5,10.6-5,10.6c-0.5-0.3,0.4-4.8,0.4-5.4
	c0.3-2.5,1.6-4.5,3-6.6c1.5-2.4,2.3-3.9,2-6.7c-0.1-0.8-0.3-1.8-0.2-2.6c0.1-0.5,1.8-1.6,1.6-1.8c-0.4-0.5-1,0.5-1.4,0.2
	c-0.8-0.6-0.9-1.2-1-2.2c-0.1-2.3-0.2-4.6-0.2-6.9c0-1.1,0.1-2.2,0.3-3.3c0.1-0.9-0.4-1.3-0.9-1.9c-1.5-2.3-2.7-4.7-4.2-7
	c-1.3-1.9-3.5-4.4-1.9-6.8c1.2-1.8,2.9-3.2,4.4-4.7c1.6-1.6,3.2-3.4,4.5-5.3c0.9-1.3,2.7-5.9,4.7-4.6c1.5,1,2.6,3.8,3.6,5.4
	c1.2,2,2.6,3.8,4.1,5.6c1.3,1.4,3.7,3.2,4.2,5.1c0.6,2.2-2,5.1-3,6.9c-1,1.8-2,3.9-3.5,5.3c-1.2,1.1-0.5,3-0.4,4.4
	c0.2,2.3-0.3,4.8-0.3,7.1c0,0.9,0.1,2.5-0.7,3.1c-0.7,0.5-0.8-0.7-1.5-0.6c1.1,1.6,2,2.2,1.6,4.6c-0.4,2.4-0.2,3.6,1.3,5.5
	c1.5,1.9,2.4,3.9,2.7,6.3c0.1,1,0.2,2.1,0.5,3.1c0.3,0.8,1.4,1.7,1.5,2.5c0,0.4-1.9-1.3-1.9-1.4c-1-1.2-1.4-2.8-1.8-4.3
	c-0.6-2-2-3.8-3.2-5.5c0.2,1.8,1.1,3.7,1.5,5.5c0.5,2,1.1,3.9,2.1,5.8c1.9,3.6,7.2,8.1,11.2,4.3c1.7-1.6,1.8-3.9,1.7-6
	c0-1,0-2.1,0-3.1c0-1.2-0.7-2.3-0.6-3.5c0-0.5-0.6-0.7-0.7-1.2c-0.2-0.8-0.6-1.6-0.8-2.4c-0.5-1.7,0-4.6,0.2-6.3
	c0.1-0.8,0.1-5.1,1.5-2.4c0.9,1.8,1.7,3.7,2.1,5.6c0.8,4.2-0.5,8.1-0.5,12.4c0,4.4-1,9.3-6.5,9.2c-4.4-0.1-7.7-3.4-9.1-7.4
	c0,0.2-0.7,2.9-0.8,2.8c-0.4-0.4,0-5-1.7-8c-0.5-1.1-1-2.7-1.2-3.2c-0.2-0.5,1.7,10.9,2,10.8c-0.6,0.1-1.8-3.2-1.9-3.7
	c0-0.6-0.2-2.4-0.6-2.8c-0.1,0.7-0.5,6.3-0.3,6.4c-1-0.7-0.8-13.5-1.7-13.3c-1.3,0.3-1.4,11.6-1.9,11.5c-0.5-0.1-0.4-1.6-0.4-1.9
	c-0.6,1-0.6,4.8-2.1,5c0.5-0.1,0.7-4.7,0.8-5.8c0-0.4,0.2-5,0.2-5c-0.8,0-1.3,4.4-1.5,4.9c-0.6,2.3-1.4,4.7-3,6.6
	c-3.7,4.5-10.2,3.7-13.8-0.4c-1.6-1.8-2.2-4.3-2-6.7c0.1-1.7,0.8-3.5,0-5.1c-0.4-1.2-0.4-3.9-0.3-5.2S-145.6,445-144.8,445.2z"/>
</svg>
