<?xml version="1.0" encoding="utf-8"?>
<!-- Generator: Adobe Illustrator 19.0.0, SVG Export Plug-In . SVG Version: 6.00 Build 0)  -->
<svg version="1.1" id="Capa_1" xmlns="http://www.w3.org/2000/svg" xmlns:xlink="http://www.w3.org/1999/xlink" x="0px" y="0px"
	 viewBox="-210 325.9 173.5 190" style="enable-background:new -210 325.9 173.5 190;" xml:space="preserve">
<g id="XMLID_100_">
	<path d="M-45.1,494.1h-156.3c-2,0-3.8-1-4.8-2.7s-1-3.8,0-5.5l78.1-135.4c1-1.7,2.8-2.8,4.8-2.8l0,0c2,0,3.8,1,4.8,2.7l78.2,135.4
		c1,1.7,1,3.8,0,5.5C-41.3,493-43.1,494.1-45.1,494.1z M-191.9,483.1h137.3l-68.7-118.9L-191.9,483.1z"/>
</g>
<path d="M-97.4,436.9c0-0.4-0.6-1.1-1.4-2c-0.1-0.2-0.3-0.4-0.6-0.6c-2.6-2.4-7-5.5-10-5.5c-4.4,0-9.2,1-10.9,1
	c-1.7,0-7.4-1.6-8.2-1.5c-0.8,0.2-4.7,1-4.7,1l0.3-4.7h6.3c0,0,3.2-1.5,0-3.5c-3.2-2-5-4.9-6.6-4.4c-1.6,0.5,0.8-3.3,0.8-3.3
	s4.5-1.8,5.1-2.8c0.6-1-3,1.3-4.4,1.2s-0.4-1.8-0.4-1.8s4.1-5.8,9.4-5.5c5.3,0.2-1.2-0.9-1.7-0.9s1-2.3,2.7-2.6
	c1.6-0.3-0.5-1.6-3.4,1.3c-3,3-2.7,3.5-4.4,3.4c-1.6-0.2,0.5-3.5,1.6-4.2c1-0.7,0.4-1.2-0.2-1c-0.5,0.2-2.7,3.2-3.1,5.2
	c-0.4,2-2,3.5-2,3.5l-0.6,0.5l-0.4,0.6l-0.4-0.5h-0.4c0,0-1,3.4-2.1,3.9c-1.1,0.5-1.9-1.6-1.9-1.6s0.3-0.9,1.9-2.6
	c1.6-1.7,2.7-3.5,2.7-3.5l-0.2-0.8l-0.8,0.8l-3,3c0,0-2.9,1.6-1.3-1.5c1.6-3.1,1.9-5.3,3.7-6.2c1.7-0.9,4.3-2.7,4.3-2.7l-0.1-0.9
	l-0.9,0.6c0,0-2.5,2-2.4,1.3c0.1-0.7,0.2-1.9,0.2-1.9l-0.8-0.4l-0.1,0.9l-0.2,1.3c0,0-3,4.2-3.4,4.5c-0.5,0.3-0.9-1.6-0.9-1.6
	s-0.9-0.9-0.9,0.5c0,1.5,0.6,1.8,0.6,1.8s-1.8,8.6,2.4,11.7c0,0,0,0,0,0c-0.5,0.2-2.6,1.2-3.9,7.3c-1.5,7-2.3,10.1-2.3,10.1l1.2,2.9
	c0,0,1.9,5.8,3.3,6.2c1.4,0.4,0.7,6.5,0.7,6.5l0.5,2.3l0,4.8l0.5,6.3l-0.3,1.8l-0.3,4.5l-0.7,3.6h2.3c0,0,0.3-1.4,0.3-2.2
	s0.3-1.5,0.3-1.5l0.9-11.7v-6.9l0.8-0.5l0.9,7.8l0.4,0.5l-0.4,11.4l0.1,0.3c0,0-1.1,1.9-0.9,2.1c0.2,0.2,1.7,0.7,2.4,0
	c0.7-0.7,0.4-1.6,0.4-1.6l-0.2-0.6l0.6-12.7v-5.6l1.1-4.1c0,0,0.1-1.1,1.9-1.1c1.8,0,9.2-1.2,11-2.1c1.9-0.9,2.4-0.9,2.4-0.9
	s1.8,0,2.4,1.9c0.6,1.9,5.7,6.1,6.3,6.6c0.6,0.5,4.9,2.8,1.4,10.1c-3.5,7.3-1.3,4.6-3,6.9s-1.6,2.5-1.3,2.8c0.2,0.3,1.8,0.2,2.2,0.2
	c0.4,0,0.9-1.3,0.9-1.9s1.2-0.3,1.3-0.9c0.2-0.6,0.2-2.5,0.2-2.5l0.5-1.3v3.2l-0.1,0.7c0,0-2.3,3.5-1.3,3.4c1-0.1,2.7,0,2.7,0
	s1-1.7,0.7-2.9c-0.3-1.2,0.6-0.7,0.6-0.7l0.6-7.7c0,0,1.3-5.3,2.3-6.6c1.1-1.3-1.6-2.7-1.7-3c-0.2-0.3-4-5.2,0-11.5
	c0.1-0.1,0.1-0.2,0.2-0.4l0.1,0l1.6,4.2c0,0,1.5,0.3,1.5-1.6C-96.5,440-97.2,438.4-97.4,436.9z M-137.7,416.6L-137.7,416.6
	L-137.7,416.6C-137.7,416.6-137.7,416.6-137.7,416.6z"/>
</svg>
