<?xml version="1.0" encoding="utf-8"?>
<!-- Generator: Adobe Illustrator 19.0.0, SVG Export Plug-In . SVG Version: 6.00 Build 0)  -->
<svg version="1.1" id="Capa_1" xmlns="http://www.w3.org/2000/svg" xmlns:xlink="http://www.w3.org/1999/xlink" x="0px" y="0px"
	 viewBox="-210 325.9 173.5 190" style="enable-background:new -210 325.9 173.5 190;" xml:space="preserve">
<g id="XMLID_100_">
	<path d="M-45.1,494.1h-156.3c-2,0-3.8-1-4.8-2.7s-1-3.8,0-5.5l78.1-135.4c1-1.7,2.8-2.8,4.8-2.8l0,0c2,0,3.8,1,4.8,2.7l78.2,135.4
		c1,1.7,1,3.8,0,5.5C-41.3,493-43.1,494.1-45.1,494.1z M-191.9,483.1h137.3l-68.7-118.9L-191.9,483.1z"/>
</g>
<path d="M-86.5,438.4c-1.3-1.6-2.4-2.7-3.6-2.4c-0.3,0.1-0.2-0.2-0.2-0.3c0-1.1-0.6-1.6-2.7-3.4c-1.5-1.3-0.6-3.9-1.7-3
	c-1.8,1.5-2.2,3.8-1.3,5.8c0.7,1.5,0.9,2.2,0.7,2.9c-1.4,0.4-3,0.9-4.3,1c-1.2,0.2-3,0-5.4-0.2c-0.2,0-0.3-0.3-0.1-0.5
	c0.2-0.2,1.3,0,0.6-0.5c-0.7-0.4-2.1,0.1-3.1,0.4c-0.3,0.1-0.6,0.1-0.9,0.1c-3.8-0.5-8.7-1-15.2-1.4c-13.8-0.8-17.6,0.6-20.1,0.6
	c-2.5,0-4.3-1.4-5.2-1.3s-2.8,0.9-5.2,1.4c-2.4,0.4-8.4,0.5-8.4,1.2c0,0.6,4.8,1.3,8.3,1.8c3.5,0.5,5.7,0.9,6.3,1.6
	c0.4,0.5,0.9,1.1,1.3,1.5c-1.3-1.1-1.6-1.4-3.6-1.7c-2.1-0.3-12.9-1.9-12.9-1.2c0.5,6.3,13.1,11.4,29.4,11.4
	c6.5,0,12.5-0.8,17.3-2.2c3.4-0.8,6.9-1.9,10.6-3.4c3-1.2,5.8-2.7,8.4-4.1c1.1-0.6,2.6-1.8,3.8-2.7c1.2,0.2,1.8,0.6,3.2,1
	c1.6,0.5,4.5,1.4,6.5,0.1C-82.7,440.3-85.2,440-86.5,438.4z M-145,443.5c0.4,0,0.7,0.1,0.7,0.3s-0.3,0.3-0.7,0.3s-0.7-0.1-0.7-0.3
	C-145.7,443.6-145.4,443.5-145,443.5z M-144.8,450.6c0,0-0.3-0.1-0.8-0.2c-0.5-0.1-1.3-0.2-2.2-0.4c-0.9-0.2-1.9-0.5-3-0.9
	c-1.1-0.4-2.2-0.8-3.4-1.3c-0.6-0.3-1.1-0.5-1.6-0.8c-0.5-0.3-1.1-0.6-1.5-0.9c-0.5-0.3-0.9-0.6-1.3-1c-0.4-0.3-0.8-0.7-1.1-1
	c-0.6-0.7-1.1-1.3-1.3-1.8c-0.3-0.5-0.4-0.7-0.4-0.7l0,0c0,0,0.2,0.3,0.5,0.7c0.2,0.2,0.4,0.5,0.6,0.7c0.2,0.3,0.5,0.6,0.9,0.9
	c0.3,0.3,0.7,0.6,1.1,0.9c0.4,0.3,0.8,0.6,1.3,0.9c0.5,0.3,1,0.6,1.5,0.9c0.5,0.3,1.1,0.6,1.6,0.8c1.1,0.5,2.2,1,3.3,1.3
	c1.1,0.4,2.1,0.7,3,1c0.9,0.3,1.6,0.4,2.1,0.5C-145.1,450.5-144.8,450.6-144.8,450.6L-144.8,450.6z M-144,449.3c0,0-0.2,0-0.6-0.1
	c-0.4-0.1-1.1-0.2-1.8-0.3c-0.1,0-0.3-0.1-0.4-0.1c-0.7-0.2-1.4-0.3-2.2-0.6c-1-0.3-2-0.6-3-1c-0.4-0.2-0.9-0.4-1.3-0.6
	c-0.4-0.2-0.8-0.4-1.2-0.7c-0.4-0.2-0.7-0.5-1.1-0.7c-0.4-0.3-0.7-0.6-1.1-0.9c-0.2-0.2-0.4-0.4-0.5-0.6c-0.3-0.4-0.6-0.7-0.8-1
	c-0.1-0.1-0.1-0.2-0.1-0.2c-0.2-0.3-0.3-0.4-0.3-0.4l0,0c0,0,0.2,0.2,0.5,0.5c0.1,0.2,0.3,0.4,0.5,0.6c0.2,0.2,0.5,0.5,0.8,0.7
	c0.3,0.2,0.6,0.5,1,0.7c0.4,0.2,0.7,0.5,1.2,0.8c0.4,0.2,0.8,0.5,1.3,0.7c0.4,0.2,0.9,0.5,1.4,0.7c1,0.4,1.9,0.8,2.8,1.1
	c0.9,0.3,1.7,0.5,2.4,0.7c0,0,0.1,0,0.1,0c0.8,0.2,1.5,0.3,1.9,0.4C-144.3,449.2-144.1,449.3-144,449.3
	C-144,449.3-144,449.3-144,449.3L-144,449.3z M-143.2,448c0,0-0.1,0-0.4-0.1c-0.3,0-0.8-0.1-1.5-0.2c-0.1,0-0.2,0-0.4-0.1
	c-0.5-0.1-1.1-0.2-1.8-0.4c-0.8-0.2-1.7-0.5-2.6-0.8c-0.3-0.1-0.7-0.3-1-0.4c-0.3-0.1-0.6-0.3-0.9-0.5c-0.3-0.2-0.6-0.3-0.8-0.5
	c-0.4-0.2-0.7-0.5-1-0.7c-0.2-0.1-0.4-0.3-0.5-0.4c-0.3-0.3-0.6-0.6-0.8-0.8c0-0.1-0.1-0.1-0.1-0.2c-0.2-0.2-0.3-0.4-0.3-0.4l0,0
	c0,0,0.1,0.2,0.4,0.4c0.1,0.1,0.3,0.3,0.5,0.4c0.2,0.2,0.4,0.4,0.7,0.5c0.2,0.2,0.5,0.4,0.8,0.5c0.3,0.2,0.6,0.4,1,0.6
	c0.3,0.2,0.7,0.4,1.1,0.6c0.4,0.2,0.8,0.4,1.1,0.5c0.8,0.3,1.6,0.6,2.4,0.9c0.7,0.2,1.4,0.4,2,0.6c0,0,0.1,0,0.1,0
	c0.7,0.2,1.3,0.3,1.6,0.3C-143.3,447.9-143.2,448-143.2,448C-143.2,448-143.2,448-143.2,448L-143.2,448z M-142.3,446.7
	c0,0-0.7,0-1.7-0.2c-1-0.1-2.3-0.4-3.6-0.8c-0.6-0.2-1.3-0.4-1.9-0.7c-0.6-0.3-1.1-0.6-1.5-0.9c-0.4-0.3-0.7-0.6-0.9-0.8
	c-0.2-0.2-0.3-0.4-0.3-0.4l0,0c0,0,0.1,0.1,0.4,0.3c0.2,0.2,0.6,0.4,1,0.6c0.4,0.2,0.9,0.5,1.5,0.8c0.6,0.3,1.1,0.5,1.8,0.8
	c1.2,0.5,2.5,0.8,3.5,1C-143,446.6-142.3,446.7-142.3,446.7L-142.3,446.7z M-129.3,450.6c-2.1,1.1-6.3-1.1-7.4-2
	c-1.2-0.8-1.3-1.6-2.5-2.5c0,0,5-0.4,6.3-0.4c1.3,0,2.3,2,3.1,2.9C-129.2,449.6-128.8,450.3-129.3,450.6z"/>
</svg>
