<?xml version="1.0" encoding="utf-8"?>
<!-- Generator: Adobe Illustrator 19.0.0, SVG Export Plug-In . SVG Version: 6.00 Build 0)  -->
<svg version="1.1" id="Capa_1" xmlns="http://www.w3.org/2000/svg" xmlns:xlink="http://www.w3.org/1999/xlink" x="0px" y="0px"
	 viewBox="-210 325.9 173.5 190" style="enable-background:new -210 325.9 173.5 190;" xml:space="preserve">
<g transform="translate(0.000000,500.000000) scale(0.100000,-0.100000)">
	<path d="M-1307.5,1446.8c-39.9-47-85.1-100-100.3-117.6l-27.4-32.1h59.8h59.5l-1.5-22.3c-2.4-29.2-4.2-58.9-6.3-93.8
		c-0.9-15.5-2.4-37.5-3.3-49.1l-1.2-20.8l7.7,13.4c20.5,35.7,53,53.9,94.3,52.4c33-1.2,61.6-17.6,80.1-46.1l8.9-13.7l-1.8,17.9
		c-1.5,16.7-2.7,36.6-6.5,96.7c-0.6,14-2.1,34.2-3,45.5l-1.8,19.9h58.3c32.1,0,58.3,0.6,58.3,1.5c0,2.7-197.3,233.6-199.4,233.6
		C-1234,1532.2-1267.6,1493.8-1307.5,1446.8z"/>
	<path d="M-1648.6,1205.7c0.9-4.5,2.7-21.7,3.6-38.1c0.9-16.4,2.4-34.5,3-40.2c0.6-5.7,1.8-21.1,3-34.2c0.9-13.1,2.4-29.8,3-37.2
		s2.1-24.1,3-37.2c0.9-13.1,2.4-30.4,3.3-38.4l1.8-14.3l31.8,31.5c17.3,17.3,33,31.5,34.5,31.3c1.8,0,18.2-17.6,36.6-38.7l33.6-38.4
		l-13.4-27.4c-7.4-15.2-13.1-27.7-12.8-28c0.3-0.3,6-0.9,12.5-1.5c6.5-0.3,13.4-1.5,14.9-2.4c1.8-0.9,5.7-2.1,8.6-2.4
		c10.7-1.8,34.8-17,45.2-28.6c6-6.3,11-11,11.3-10.4c0.3,0.3,2.7,6.5,5.4,13.4c4.5,11.9,4.5,12.5-1.8,18.5
		c-31.3,29.5-23.8,85.1,14.6,108.9c12.8,8,17,8.9,36.9,8.9c19.3,0,24.4-1.2,34.5-7.7c6.5-4.5,13.7-9.8,15.8-12.2
		c3.3-4.2,5.7-3.9,19.9,1.5l16.4,6l-10.1,6.8c-13.4,9.2-33.3,39.6-36.3,55.4c-1.2,7.1-2.7,13.7-3,15.2c-0.3,1.2-0.6,4.2-0.9,6.5
		c-0.3,3.6-1.8,3.6-12.8-0.3c-6.8-2.4-18.2-7.4-25.3-11.6l-12.8-7.1l-41.4,36.6l-41.4,36.6l32.4,32.4c17.6,17.6,31.8,32.4,31.3,33
		c-0.9,0.9-31.8,3.6-158,14.3c-9.8,0.6-28,2.1-40.2,3c-12.2,0.9-28.3,2.4-35.1,3.3C-1650.1,1214-1650.1,1214-1648.6,1205.7z"/>
	<path d="M-867.6,1205.7c-23.2-1.8-50.9-4.2-61.6-5.1c-10.7-0.9-37.5-3-59.5-4.8c-22-1.5-46.7-3.9-54.8-4.8l-14.3-1.8l31.5-31.8
		c17.3-17.3,31.5-33,31.3-34.5c0-1.8-18.2-18.5-39.9-37.5l-39.9-34.8l-26.2,13.1l-26.2,13.4l-4.8-20.8
		c-6.3-27.7-19.6-48.5-40.8-63.1c-6.5-4.8-6.5-4.8,9.5-10.7l16.4-6l6.3,6.5c31,33,92.3,22,111.9-20.5c12.2-26.2,7.7-56-11.9-79.5
		c-6.8-8-6.8-8.6-2.4-18.8l4.8-10.4l13.1,13.1c16.1,16.4,40.8,28.9,60.4,30.7c8,0.6,14.6,1.8,14.6,2.4c0,1.2-17,37.5-19.9,43.2
		c-0.6,1.2,15.5,20.8,35.7,43.8l36.9,41.7l32.4-32.4c17.6-17.6,32.7-31.8,33.3-31.3c0.9,1.2,13.1,141.7,16.7,196.7
		c1.2,14.9,2.7,31.8,3.6,37.8c1.5,10.7,1.2,11.3-6,10.4C-821.8,1209.6-844.1,1207.8-867.6,1205.7z"/>
	<path d="M-1252.1,1127.4c-15.8-7.1-27.7-20.2-32.4-36c-6.8-22.9,0.3-44.3,20.2-60.4c10.4-8.3,13.1-9.2,33-9.2
		c19.9,0,22.6,0.9,33,9.2c19.9,16.1,27.1,37.5,20.2,61C-1187.3,1123.6-1222.4,1140.2-1252.1,1127.4z"/>
	<path d="M-1857.8,895.3c-63.1-53.9-114.9-99.1-115.5-100.6c-0.6-2.1,225.6-197,232.2-199.4c1.2-0.6,2.4,25.3,2.4,57.4v58.6
		l20.2-1.8c20.2-1.8,44.3-3.3,95.8-6.3c15.5-0.9,37.8-2.4,49.1-3.3l20.8-1.5l-15.8,10.7c-36.6,25-52.7,75-37.8,117.6
		c8.9,25,32.1,50,55.7,59.5l6.8,2.7h-6.5c-7.4,0.3-133.3-7.4-166.7-10.1l-21.7-1.8v58c0,32.1-0.9,58.3-2.1,58
		C-1742.3,993.2-1794.7,948.8-1857.8,895.3z"/>
	<path d="M-726.8,935.5v-58.3l-22.3,1.5c-28.3,2.4-57.4,4.2-95.2,6.3c-16.4,0.9-37.2,2.4-46.1,3.3l-16.4,1.8l11.9-8.9
		c63.7-46.1,58.3-134.5-10.4-174.7l-13.4-7.7l28.3,1.8c15.5,0.9,36.9,2.4,47.6,3c10.7,0.6,32.1,2.1,47.6,3
		c15.5,0.9,37.2,2.4,48.5,3.3l19.9,1.8v-58.6c0-32.1,1.2-58,2.4-57.4c4.8,1.8,232.7,196.7,232.7,198.8c0,2.1-228,197-232.7,198.8
		C-725.6,993.5-726.8,967.6-726.8,935.5z"/>
	<path d="M-1099.2,972.1c-6-1.5-14.9-6.8-19.3-11.6c-7.4-7.7-8.6-11.3-8.6-26.5c0-16.1,0.9-18.8,9.8-27.4c8.6-8.9,11.3-9.8,27.1-9.8
		c14.6,0,19,1.2,25.6,7.4c15.5,14.3,18.5,30.7,9.2,48.5C-1064.3,969.7-1080.4,976.5-1099.2,972.1z"/>
	<path d="M-1389.1,964c-19-12.8-24.4-36.6-12.5-53.9c12.5-18.8,32.1-24.1,51.5-14c34.5,17.9,23.2,69.3-15.8,72.6
		C-1376.9,969.7-1382.2,968.5-1389.1,964z"/>
	<path d="M-1255.1,904.2c-0.9-1.5-3.3-2.1-5.7-1.2c-2.1,0.9-11.9-2.7-21.7-7.7c-84.2-43.2-83.9-158.6,0.6-202.1
		c6.5-3.3,16.7-6.8,22.3-8c13.4-2.7,42.3-3.6,46.1-1.5c1.8,0.9,5.7,2.1,8.9,2.4c11.6,1.8,37.5,16.4,48.8,28
		c41.4,40.8,46.1,104.2,11,148.8c-15.2,19.3-30.7,30.4-53.3,38.4C-1215.5,907.5-1251.8,909.6-1255.1,904.2z"/>
	<path d="M-968.5,850.6c-43.2-13.1-52.7-69.9-16.4-99.4c9.2-7.4,14-8.9,30.1-9.5c16.4-0.9,20.5,0.3,32.1,7.4
		c22.6,14.6,32.4,45.2,22,69.9C-911.1,844.1-942.3,858.7-968.5,850.6z"/>
	<path d="M-1531.9,844.4c-15.2-7.4-21.7-13.7-28.9-27.7c-8.9-17.6-6.5-42.6,5.4-57.4c16.1-19.6,37.8-26.8,60.7-19.9
		c41.1,12.8,53.6,61.3,23.5,92.3C-1487,847.9-1513.2,853.3-1531.9,844.4z"/>
	<path d="M-1037.3,735.4c-0.6-1.2-3-7.4-4.8-13.4c-3.3-10.1-3-11.9,3-17.9c15.8-16.7,21.4-43.8,14.3-68.8
		c-3.9-14.9-21.1-33.3-38.4-42.3c-22.9-11.6-55.1-7.1-73.8,10.7c-6.3,5.7-6.8,5.7-22.6,0.6c-9.2-3-16.7-6.3-16.7-7.1
		c0-1.2,4.8-5.7,10.4-10.4c19-14.9,32.7-40.8,36-68.2c0.9-6.5,2.1-12.2,2.4-12.5c0.3-0.6,12.5,5.1,26.8,12.2l26.2,13.1l41.1-36.6
		l41.1-36.3l-32.4-32.4l-32.4-32.4l8.9-1.8c4.8-1.2,21.7-2.7,37.8-3.9c16.1-1.2,34.5-2.4,41.1-3.3c6.5-0.6,21.4-2.1,32.7-2.7
		c35.7-2.7,97.6-7.7,112.5-9.2l14.3-1.5l-1.5,11c-0.9,6.3-2.4,24.1-3.3,39.6c-1.2,15.5-2.4,30.4-3,32.7c-0.6,2.4-2.1,19.9-3,38.7
		c-1.2,18.8-2.7,36.3-3,38.7c-0.6,2.4-1.8,19.3-3.3,37.2c-1.2,18.2-2.7,33.6-3,35.1c-0.3,1.2-0.6,5.1-0.9,8.6
		c-0.3,5.7-6,0.9-32.7-25.6c-19-19-33.6-31.5-35.7-30.4c-5.7,3.6-72,80.1-70.8,81.8c6.5,12.5,19.9,42.3,21.4,48.5
		c1.8,7.1,1.2,8-6.5,7.7c-22.3-0.6-58,15.5-72.3,32.7C-1031.9,733.4-1036.4,736.9-1037.3,735.4z"/>
	<path d="M-1434.6,725.3c-14.6-18.2-42.6-32.1-68.8-34.5c-7.4-0.6-14-1.8-14.6-2.4s4.5-13.1,11.3-27.7l12.5-27.1l-34.8-38.7
		c-19-21.4-35.7-39-36.6-39c-1.2,0-16.4,14.3-33.9,31.8c-23.8,23.8-32.1,30.7-32.4,26.2c0-3.3-0.6-8-1.2-10.7
		c-0.3-2.7-1.8-18.8-3-35.7c-0.9-17-2.4-34.2-3-38.4c-0.6-4.2-2.1-20.2-3-35.7c-1.2-15.5-3.9-49.1-6-74.4
		c-2.4-25.3-3.9-46.4-3.6-46.4c1.2-1.2,243.8,19.3,244.9,20.2c0.6,0.6-13.1,15.2-30.1,32.1c-17.3,17.3-31.3,32.1-31.3,33.3
		c0,2.4,76.2,70.8,78.9,70.8c0.9,0,13.4-5.4,27.4-12.2c19.6-9.2,26.2-11.3,28-8.3c1.2,2.1,1.8,4.8,0.9,6.3c-3,4.5,7.4,35.7,17,50.6
		c5.4,8.3,14.9,18.8,21.1,23.2c6.5,4.8,10.1,9.2,8.3,10.4c-1.5,0.9-3,1.2-3,0.3s-6,0.9-13.1,4.2c-13.1,5.4-13.1,5.4-18.8-0.6
		c-3-3.6-11.9-9.2-20.2-13.1c-35.7-16.7-76.8-1.8-92.9,33.6c-6.3,13.4-7.1,19.6-6.3,34.8c1.5,18.2,9.8,36.6,21.1,45.8
		c4.2,3.6,4.2,5.1,0,14.9C-1425.7,734.6-1426.9,734.8-1434.6,725.3z"/>
	<path d="M-1106.9,694.4c-19-8.3-28.3-38.4-16.7-55.1c5.1-7.4,15.2-16.1,19.6-16.7c1.2-0.3,2.4-0.6,3-1.2c4.2-3.6,19-2.1,28.9,3
		c27.4,14,29.2,50,3.3,67.6C-1080.1,699.7-1092.9,700.6-1106.9,694.4z"/>
	<path d="M-1389.9,689.9c-28-12.8-30.1-50-3.9-67.6c5.7-3.9,14.6-6.8,20.2-6.8c41.4,0,54.8,56.3,17.6,74.4
		C-1371.5,697.3-1373.9,697.3-1389.9,689.9z"/>
	<path d="M-1255.1,560.1c-27.7-14.3-39.3-45.2-27.4-72.6c16.4-38.1,65.8-46.4,93.2-15.5c18.2,20.8,18.2,55.4,0.3,74.4
		C-1205.1,563.7-1236.1,570.3-1255.1,560.1z"/>
	<path d="M-1326.8,450.3c0.9-13.1,2.4-35.1,3.3-49.1c3.9-61.9,4.8-74.1,6.3-94.3l1.5-21.7h-59.5h-59.8l44-51.2
		c24.1-28.3,69.1-81.3,100-117.6c30.7-36.6,56.8-66.4,58-66.4c1.2,0,34.8,38.4,75,85.4c39.9,47,85.1,100,100.3,117.6l27.4,32.1
		h-59.8h-59.5l1.5,22.3c2.1,27.1,3.9,55.7,6.3,95.2c0.9,16.4,2.4,37.8,3,47.6c0.9,9.8,0.6,15.8-0.6,13.4
		c-3.6-9.2-22.6-30.1-34.5-38.1c-35.1-24.1-79.2-24.1-113.7-0.6c-15.2,10.4-22.9,19-32.7,35.7l-7.7,13.4L-1326.8,450.3z"/>
</g>
</svg>
