<?xml version="1.0" encoding="utf-8"?>
<!-- Generator: Adobe Illustrator 19.0.0, SVG Export Plug-In . SVG Version: 6.00 Build 0)  -->
<svg version="1.1" id="Capa_1" xmlns="http://www.w3.org/2000/svg" xmlns:xlink="http://www.w3.org/1999/xlink" x="0px" y="0px"
	 viewBox="-210 325.9 173.5 190" style="enable-background:new -210 325.9 173.5 190;" xml:space="preserve">
<g id="XMLID_100_">
	<path d="M-45.1,494.1h-156.3c-2,0-3.8-1-4.8-2.7s-1-3.8,0-5.5l78.1-135.4c1-1.7,2.8-2.8,4.8-2.8l0,0c2,0,3.8,1,4.8,2.7l78.2,135.4
		c1,1.7,1,3.8,0,5.5C-41.3,493-43.1,494.1-45.1,494.1z M-191.9,483.1h137.3l-68.7-118.9L-191.9,483.1z"/>
</g>
<g transform="translate(0,-947.3622)">
	<path d="M-123.4,1350.5c0,0-3.5,1.6-4.7,3.7c-1.5,2.4-1.4,2.7-1.4,2.7s-0.3,3.9-0.5,5.2c-0.1,1-0.8,2.8-1.1,3.7
		c-1.6,1-3,2.3-4.4,3.7c-1.1,0.1-2.9,0.4-5.1,1.1c-4.9,1.6-6.6,3-6.6,3s-2.2,3.2-4.3,7.8c-2.8,6.2-3.3,11-3.3,11s-0.4,3.3-0.1,4.4
		c0.9,3.1,1.4,3.7,1.4,3.7s2.2-1.4,4.7-6.4c1.7-3.4,4.1-10.2,4.1-10.2s0.9-0.4,2.2-0.9c0.3-0.1,0.4-0.1,0.7-0.1
		c-0.4,2.1-0.7,4.3-0.7,6.6c0,2.9,0.4,5.6,1.1,8.2c-0.7,0.6-1.7,1.7-2.3,3.3c-1.7,4.5-1.5,6.2-1.5,6.2s1.9,7.1,3.9,9.6
		c1.2,1.4,2.9,2.5,2.9,2.5s1.9-2.4,2-6.4c0-1.3-0.9-4.7-0.9-4.7s0.3-0.3,0.4-0.5c2.8,3.9,6.6,6.6,10.7,7.5c0,0,0,0,0,0
		c0,0,1,0.3,1,1.7c0,0.1,0.1,1.2,0.1,1.2s0.1,0.8,0.9,1.7c0.6,0.8,1.1,1.1,1.1,1.1s0.5-0.4,1.1-1.1c0.7-0.9,0.9-1.7,0.9-1.7
		s0.1-1.2,0.1-1.2c0.1-1.4,1-1.7,1-1.7s0,0,0,0c4.2-0.9,7.9-3.7,10.7-7.6c0.2,0.3,0.6,0.7,0.6,0.7s-1,3.4-0.9,4.7
		c0.1,4.1,2,6.4,2,6.4s1.7-1.1,2.9-2.5c2.1-2.5,3.9-9.6,3.9-9.6s0.2-1.7-1.5-6.2c-0.7-1.9-2-3.1-2.5-3.6c0.6-2.5,1-5.1,1-7.9
		c0-2.3-0.3-4.5-0.7-6.6c0.3,0,0.6,0,1,0.2c1.2,0.4,2.1,0.9,2.1,0.9s2.3,6.7,4.1,10.2c2.6,5,4.7,6.4,4.7,6.4s0.5-0.6,1.4-3.7
		c0.3-1.1-0.1-4.4-0.1-4.4s-0.5-4.8-3.3-11c-2.1-4.6-4.3-7.8-4.3-7.8s-1.7-1.4-6.6-3c-2.5-0.8-4.4-1.1-5.4-1.2
		c-1.3-1.5-2.7-2.7-4.3-3.7c-0.3-0.9-1-2.7-1.1-3.7c-0.2-1.3-0.5-5.2-0.5-5.2c0,0,0.1-0.3-1.4-2.7
		C-120,1352-123.4,1350.5-123.4,1350.5L-123.4,1350.5z"/>
</g>
</svg>
