<?xml version="1.0" encoding="utf-8"?>
<!-- Generator: Adobe Illustrator 19.0.0, SVG Export Plug-In . SVG Version: 6.00 Build 0)  -->
<svg version="1.1" id="Capa_1" xmlns="http://www.w3.org/2000/svg" xmlns:xlink="http://www.w3.org/1999/xlink" x="0px" y="0px"
	 viewBox="-210 325.9 173.5 190" style="enable-background:new -210 325.9 173.5 190;" xml:space="preserve">
<style type="text/css">
	.st0{clip-path:url(#SVGID_1_);}
</style>
<g id="XMLID_100_">
	<path d="M-45.1,494.1h-156.3c-2,0-3.8-1-4.8-2.7s-1-3.8,0-5.5l78.1-135.4c1-1.7,2.8-2.8,4.8-2.8l0,0c2,0,3.8,1,4.8,2.7l78.2,135.4
		c1,1.7,1,3.8,0,5.5C-41.3,493-43.1,494.1-45.1,494.1z M-191.9,483.1h137.3l-68.7-118.9L-191.9,483.1z"/>
</g>
<g>
	<g>
		<defs>
			<rect id="SVGID_3_" x="-152.5" y="410.9" width="58.5" height="58.7"/>
		</defs>
		<clipPath id="SVGID_1_">
			<use xlink:href="#SVGID_3_"  style="overflow:visible;"/>
		</clipPath>
		<path class="st0" d="M-120.9,442.5c1.7,0,3,1.3,3,3c0,1.7-1.3,3-3,3c-1.7,0-3-1.4-3-3C-123.9,443.9-122.5,442.5-120.9,442.5
			L-120.9,442.5z M-129.5,441c-1.6,0-2.9,1.3-2.9,2.9c0,1.6,1.3,2.9,2.9,2.9c1.6,0,2.9-1.3,2.9-2.9
			C-126.6,442.3-127.9,441-129.5,441L-129.5,441z M-121.2,438.7c0-1.2-1-2.2-2.2-2.2c-1.2,0-2.1,1-2.1,2.2c0,1.2,1,2.1,2.1,2.1
			C-122.2,440.9-121.2,439.9-121.2,438.7L-121.2,438.7z M-104.3,468.9h-41.5c-5.8,0-7.8-5-6-10.4c0,0,7.2-13.4,18.9-32.6v-11.1h-0.7
			c-1.1,0-1.9-0.8-1.9-1.9c0-1,0.8-1.9,1.9-1.9h17.1c1.1,0,1.9,0.8,1.9,1.9c0,1-0.8,1.9-1.9,1.9h-0.7v11.1
			c11.7,19.2,18.9,32.6,18.9,32.6C-96.5,463.9-98.5,468.9-104.3,468.9L-104.3,468.9z M-107.4,450.6c-1.9-3.4-10.4-18.2-13.2-22.7
			l-0.5-0.8h-8.1l-0.5,0.8c-3,4.9-12,20.6-13.2,22.7H-107.4z M-107.4,450.6"/>
	</g>
</g>
</svg>
