<?xml version="1.0" encoding="utf-8"?>
<!-- Generator: Adobe Illustrator 19.0.0, SVG Export Plug-In . SVG Version: 6.00 Build 0)  -->
<svg version="1.1" id="Capa_1" xmlns="http://www.w3.org/2000/svg" xmlns:xlink="http://www.w3.org/1999/xlink" x="0px" y="0px"
	 viewBox="-210 325.9 173.5 190" style="enable-background:new -210 325.9 173.5 190;" xml:space="preserve">
<g id="svgg">
	<path d="M-93.8,393.4c-0.6,0-1.4-2.2-1.8-4.8c-0.3-1.7-0.2-2.1,0.3-1.9c0.4,0.1,0.7,0.5,0.7,0.7c0,0.3,0.2,0.7,0.4,0.9
		c0.3,0.2,0.3-0.1,0.1-0.8c-0.2-0.7-0.3-1.4-0.3-1.6c0-0.5-1.9-0.4-2.2,0.1c-0.5,0.8-1.8,0.6-1.5-0.2c0.3-0.8-0.1-0.9-1.1-0.3
		c-1.1,0.7-1.7,0-0.8-0.9c0.6-0.6,0.6-1.2,0.3-2.8c-0.7-2.9-0.6-3.7,0.4-3.5c0.7,0.1,0.9-0.3,0.9-3.7c0.1-5.1-1.2-8.1-5.4-12.5
		c-0.9-0.9-2.8-2.9-4.2-4.4c-2.4-2.5-7.9-5.8-9.7-5.9c-0.4,0-2-0.4-3.6-1c-1.6-0.5-3.5-1-4.2-1c-0.7,0-2.2-0.7-3.2-1.4
		c-2-1.5-3.5-1.8-4.5-0.9c-0.5,0.5-0.7,0.5-1.2,0c-0.7-0.7-1.3-0.8-1.4-0.2c0,0.2,0,0.6,0,0.8c0,0.2-0.7,0.3-1.7,0.1
		c-2.4-0.5-4.5,0.1-4.9,1.2c-0.2,0.5-1.2,1.4-2.2,1.9c-4,2-5.6,8.1-2.7,10.2c0.2,0.2-0.1,1.2-0.6,2.2c-1.9,4-2.6,12.9-1,13.8
		c0.5,0.3,0.5,0.4-0.1,0.6c-0.6,0.2-0.6,0.3,0,0.7c0.8,0.6,1.4,6.9,0.6,6.9c-0.3,0-0.5,0.7-0.5,1.5c0,1.7-0.3,1.8-2.2,0.8
		c-1.4-0.7-2.4-0.6-1.9,0.3c0.2,0.2,0.7,0.5,1.1,0.5c1,0,3.2,1.9,2.8,2.3c-0.2,0.2-0.8-0.2-1.5-0.9c-1.6-1.5-1.6-0.4,0,1.3
		c0.8,0.9,1.2,1.8,1.1,2.6c-0.1,0.7,0,1.5,0.2,1.9c0.2,0.4,0.1,0.6-0.2,0.6c-0.4,0-0.4,0.3,0.1,1.1c1,1.6,1.1,4.6,0.1,3.7
		c-0.4-0.4-0.6-1-0.5-1.7c0.2-0.8,0-1.3-0.7-1.8c-0.7-0.5-0.9-1-0.7-1.6c0.2-0.6,0.2-0.8-0.2-0.5c-1.6,1,0.3,6.7,2.3,7
		c0.6,0.1,1,0.5,1,0.9c0,0.4,0.2,0.7,0.5,0.7c1.4,0,0.4,2.4-1.1,2.9c-1.5,0.4-1.5,0.5-0.3,0.5c2.4,0.1,2.6-0.9,1.7-6.5
		c-1.3-7.8-0.4-11.6,2.1-9.3c0.8,0.7,1,0.8,1.2,0.1c0.4-1,3.7-0.4,5.7,1.1c1.3,1,1.7,1,3.5,0.6c3.5-0.9,5.9-1.1,5.3-0.5
		c-0.8,0.8-0.7,1.4,0.2,1c0.8-0.3,0.6,1.5-0.4,2.5c-0.6,0.6-0.5,1.2,0.1,1.2c0.3,0,0.7-0.5,1.1-1.2c0.6-1.3,1.4-1.6,1.4-0.7
		c0,0.3-0.8,1.7-1.7,3.1c-2,3-2.1,3.9-0.6,5.1c1.5,1.3,2.8,1.3,1.6,0c-1-1.1-0.5-1.3,0.8-0.3c0.5,0.4,0.7,0.8,0.5,1.1
		c-0.2,0.2,0,0.1,0.5-0.2c0.7-0.5,1-0.5,1.4-0.1c0.7,0.7,3.1,0.7,3.5,0.1c0.2-0.3,0.5-0.4,0.8-0.2c0.9,0.6,2.9-1.2,2.6-2.3
		c-0.2-0.7-0.1-0.9,0.2-0.7c0.8,0.5,0.6,1.7-0.4,2.8c-0.5,0.6-1,1.3-1,1.6c0,0.3,0.1,0.3,0.4,0c0.2-0.3,0.8-0.7,1.4-0.9
		c2.6-0.8,2.8-2.4,0.6-5.1c-2.3-2.9-2.5-3.9-0.6-2.6c2.2,1.5,2.4,1.5,2.4,0.6c0-0.5-0.2-0.8-0.5-0.7c-0.3,0.1-0.8-0.4-1.2-1.2
		c-1-2-1.1-2.4-0.3-1.4c0.4,0.5,0.9,0.8,1.1,0.6c0.2-0.2,0-0.7-0.3-1.1c-0.7-0.8-0.7-0.8,2.4-1c1.2-0.1,2.5-0.1,3-0.2
		c0.4,0,1.6-0.6,2.6-1.3c1.4-0.9,2.2-1.2,3.3-0.9c1,0.2,1.4,0.1,1.3-0.3c-0.1-0.3,0.3-0.7,0.8-0.8c0.5-0.1,0.7,0,0.4,0.1
		c-0.4,0.2-0.5,0.7-0.3,1.4c0.2,1,0.1,1.1-0.7,0.9c-0.8-0.2-1-0.1-0.7,0.5c0.2,0.4,0.6,0.8,1,0.8c0.4,0,0.7,0.2,0.7,0.5
		c0,0.3-0.4,0.4-1,0.3c-0.7-0.2-0.9-0.1-0.5,0.3c0.6,0.7,0.1,5.2-0.6,5.2c-0.3,0,0,0.4,0.6,0.9c1.4,1.2,1.3,1.6-0.3,1.3
		c-0.7-0.1-1.1-0.1-0.7,0c0.3,0.2,0.6,1,0.6,1.9s0.3,2,0.8,2.4c0.7,0.7,0.7,0.8,0,1.1c-0.6,0.2-0.6,0.5-0.3,0.9c0.4,0.4,0.4,0.7,0,1
		c-0.3,0.2-0.4,0.5-0.2,0.8c0.2,0.3-0.1,0.4-0.7,0.2c-1-0.3-1.1-0.2-1.2,1.9c0,0.5-0.3,1-0.7,1.1c-0.4,0.1-0.6-0.1-0.6-0.4
		c0.2-1.3,0-2.2-0.8-3.1c-0.7-0.9-0.7-0.8-0.4,1.2c0.3,2,0.3,4.9,0.1,7.6c-0.2,2.4-3.4,5.4-5.5,5.2c-0.3,0-0.5,0.3-0.5,0.8
		c0,0.5-0.3,0.9-0.9,1c-0.5,0.1-1.2,0.6-1.6,1c-0.6,0.7-0.6,0.7-0.3-0.1c0.2-0.6,0-0.9-0.5-0.9c-0.4,0-0.8,0.2-0.8,0.5
		c0,1.2-6.5,1.9-7.9,0.8c-0.9-0.7-1.4-3.2-0.7-3.2c0.3,0,0.2-0.2-0.2-0.5c-1-0.6-1.6-0.6-1.2,0c0.2,0.4,0.1,0.4-0.7,0
		c-0.6-0.3-1.1-0.4-1.2-0.2c-0.3,0.5-4.2,0.1-4.2-0.4c0-0.4,0.6-0.6,1.5-0.5c0.1,0,0.2-0.5,0.2-1.1c0-1.2-2.3-1.6-3.5-0.6
		c-0.3,0.3-0.8,0.3-0.9,0.2c-0.2-0.2,0-0.3,0.4-0.3c0.6,0,0.6-0.1,0-0.5c-0.5-0.3-0.7-1.4-0.7-3.4c0-3.3,0-3.3-1.9-3.7
		c-1.4-0.2-1.4-0.2-1.1,1.7c0.2,1.1,0.1,1.9-0.2,1.9c-0.6,0-0.9-1.1-1.3-3.9c-0.1-1.2-0.4-2.5-0.5-2.9c-0.6-2.1-0.6-4.6,0-5.2
		c0.4-0.4,0.6-0.9,0.4-1.2c-0.2-0.3-0.4-1.2-0.4-2c-0.1-0.8-0.3-1.6-0.6-1.7c-0.3-0.2-0.4-1.2-0.4-2.4c0.1-1.1-0.1-2.2-0.3-2.4
		c-0.3-0.2-0.2-0.5,0.1-0.9c0.5-0.6-1.2-1.5-2-1c-0.7,0.4,0.3,9.9,1.2,12.2c0.4,0.9,0.8,3,0.9,4.7c0.3,4.4,1.3,8.2,2.3,9.7
		c1.6,2.2,1,2.2-1.1-0.1l-2-2.2l0.3,4.5c0.1,2.5,0.5,5,0.8,5.7c0.6,1.4,0.2,2.4-0.6,1.2c-0.4-0.5-0.4-0.3-0.2,0.8
		c0.2,0.9,0.1,1.7-0.2,1.9c-0.3,0.2-0.4,0-0.2-0.5c0.2-0.5,0-0.9-0.7-1c-0.9-0.2-0.9-0.4-0.5-1.5c0.3-0.7,0.4-1.3,0.3-1.5
		c-0.3-0.3-6.1,3.4-6.1,4c0,0.3,0.2,0.2,0.6-0.1c0.8-0.8,1.4-0.7,1.1,0.1c-0.1,0.4,0.1,0.8,0.5,1c0.4,0.2,0.8,0.6,0.8,1
		c0,0.4,0.4,0.8,0.9,0.9c0.5,0.1,0.9,0,0.9-0.3c0-1.8,0.2-2.7,0.9-2.9c0.5-0.2,0.6-0.1,0.4,0.3c-0.5,0.7-0.5,3.8-0.1,3.8
		c0.2,0,0.4-0.4,0.6-0.9c0.2-0.7,0.2-0.7,0.3,0.1c0,0.5,0.6,1.5,1.2,2.2l1.1,1.2l-1.4-0.9c-0.8-0.5-1.5-0.7-1.7-0.6
		c-0.4,0.4,2.8,3.7,3.6,3.7c0.3,0,1.3,0.7,2.2,1.5c0.9,0.8,1.8,1.5,2,1.5c0.8,0,0.3-1.5-0.9-2.4c-1.6-1.3-3.5-4.1-3.3-4.8
		c0.3-0.8,1.1-0.8,1.1,0c0,0.3,0.5,0.8,1.1,1.1c0.6,0.3,1,0.8,1,1.1c-0.1,0.3,0.1,0.6,0.4,0.6c0.3,0,1.4,0.7,2.4,1.5
		c1.1,0.9,1.9,1.2,1.9,0.9c0-0.4-1.1-1.5-2.5-2.6c-2.9-2.3-4.3-3.7-4.3-4.2c0-1.1,1.2-0.6,3.7,1.7c1.6,1.4,4.3,3.7,6,5.1
		c1.7,1.4,3.7,3.1,4.4,3.8c1.1,1.2,4.4,1.9,4.4,0.9c0-0.2-0.7-0.4-1.5-0.4c-0.9,0-1.9-0.4-2.6-1.1c-0.6-0.6-0.8-1-0.4-0.8
		c0.4,0.2,0.9,0,1.3-0.5c0.6-0.8,0.6-0.8,0.9-0.1c0.2,0.4,0.1,0.7,0,0.7c-0.2-0.1-0.4,0.1-0.5,0.4c-0.1,0.3,0.9,0.7,2.1,0.9
		c2.5,0.4,8.1-2.7,11.8-6.7c0.8-0.9,2.6-2.5,4-3.5c1.4-1,2.5-2.1,2.5-2.3c0-0.2,0.3-0.4,0.6-0.4c1.6,0,2.8-4.8,1.5-5.9
		c-0.6-0.5-0.7-1.3-0.5-4.1l0.3-3.4l-1.2,1.5c-1.7,2-1.6,1,0.2-2.6c1.8-3.7,2.5-8.6,2.6-18.2c0.1-6.6,0.1-7.2,1.1-8.2
		c0.6-0.6,1-1.3,0.8-1.6c-0.1-0.2,0-0.4,0.3-0.4c0.3,0,1-0.4,1.5-0.8c0.9-0.8,0.9-0.8,0.6,0c-0.2,0.5-0.5,0.8-0.8,0.8
		s-0.4,0.3-0.4,0.7c0,0.4-0.4,0.9-0.8,1.1c-0.7,0.4-0.7,0.6-0.2,1.5c0.5,0.9,0.5,7.9,0,10.5c-0.1,0.3,0.1,1,0.3,1.7
		c0.2,0.8,0.2,1-0.1,0.6c-0.4-0.5-0.5-0.5-0.8,0.1c-0.6,1.7,1.7,1.8,3.2,0.2C-94.1,402.6-92.2,393.4-93.8,393.4z M-131.8,390.5
		c-0.4,0-0.7-0.4-0.7-1c0-1.1,0.6-1.3,1.4-0.3C-130.4,389.9-130.8,390.5-131.8,390.5z M-128.6,392c-0.3,0-0.4-0.4-0.3-1
		c0.1-0.5,0.1-1.1-0.2-1.2c-0.6-0.4-0.6-1.2,0.1-1.2c0.3,0,0.7,0.6,1,1.3C-127.5,391.1-127.8,392-128.6,392z M-117.8,389.5
		c-0.3,0.5-0.4,1.4-0.2,2.1c0.3,1.1,0.2,1.1-0.6,0.3c-0.9-0.9-0.4-3.3,0.8-3.3C-117.4,388.6-117.4,388.8-117.8,389.5z M-119.3,384.8
		c0,0.4-0.5,1.7-1.2,2.9c-1.3,2.4-1.4,3.3-1,9.3c0.1,1.3,0.4,2.5,0.7,2.6c0.7,0.2,0.7,1.7-0.1,2.5c-0.5,0.5-0.5,0.6,0,0.3
		c0.4-0.2,0.5-0.1,0.3,0.4c-0.3,0.8-1.2,1-1.2,0.3c0-0.3-0.3-0.3-0.9,0c-0.8,0.4-1.1,0.2-2.2-1.2c-1.4-1.8-1.6-2.8-0.7-2.6
		c1.7,0.3,0.4-10.7-1.4-12.7c-0.5-0.5-1.3-1.4-1.8-2c-0.6-0.8-1.3-1-3-1c-1.2,0-2.5-0.2-2.8-0.5c-0.3-0.3-1.3-0.6-2-0.7l-1.4-0.2
		l1.3-1.2c0.7-0.7,1.3-1.5,1.3-1.8c0-0.3,0.4-0.6,0.9-0.6c1.2,0,1.7-1.9,0.7-3c-0.5-0.6-0.6-0.9-0.2-1.1c0.3-0.2,0.4-0.5,0.3-0.7
		c-0.1-0.2,0.2-0.5,0.8-0.7c0.7-0.2,0.9-0.5,0.7-1.2c-0.2-0.7,0.1-1.1,1.6-1.8c1.2-0.6,1.8-1.1,1.7-1.5c-0.1-0.4,0.2-0.9,0.7-1.2
		c1.3-0.7,1.5-0.7,1.5,0.2c0,0.4,0.2,0.7,0.5,0.7c0.3,0,0.4-0.3,0.2-0.7c-0.5-1.2,0.7-1.4,2.3-0.3c0.8,0.6,1.6,0.9,1.8,0.7
		c0.2-0.2-0.1-0.6-0.6-1c-0.5-0.4-1.2-0.9-1.5-1.2c-0.3-0.3-0.7-0.3-0.9-0.2c-0.2,0.2-0.3,0-0.3-0.5c0-0.4-0.4-0.9-0.8-1.1
		c-0.7-0.3-0.7-0.4-0.1-0.8c0.9-0.5,0.7-0.5,1.7-0.2c0.4,0.2,0.8,0.6,0.8,1c0,0.5,0.3,0.6,1.3,0.2c2-0.7,3.1-0.6,2,0.2
		c-1,0.7-1.1,2-0.3,2.5c0.3,0.2,0.4,0.1,0.3-0.1c-0.2-0.3,0.1-0.7,0.7-1.1c0.5-0.3,0.9-0.4,0.9-0.1c0,0.2-0.3,0.6-0.6,0.7
		c-0.3,0.1,0,0.1,0.8,0c1.3-0.3,1.4-0.2,1.1,0.8c-0.2,0.6-0.1,0.9,0.2,0.8c0.3-0.2,0.7,0,1.1,0.5c0.3,0.4,1.3,1,2.3,1.2l1.7,0.5
		l-1.2,0.5c-0.7,0.3-0.9,0.5-0.6,0.5c0.3,0,0.6,0.4,0.6,0.8c0,0.5,0.3,0.7,1,0.5c0.5-0.2,1-0.1,1,0.2c0,0.3-0.4,0.6-1,0.7
		c-0.7,0.2-0.9,0.6-0.7,1.4c0.1,0.6,0,1.4-0.3,1.7c-0.6,0.7,0.2,1.5,1.7,1.8c1.1,0.2,2.8,3,2.3,3.7c-0.2,0.3-2,0.6-4,0.8
		C-117.4,383.1-119.3,383.8-119.3,384.8z M-115.3,390.2c-0.6,0.4-1.2-0.6-0.8-1.2c0.4-0.7,1.2-0.6,1.2,0.2
		C-114.9,389.6-115.1,390.1-115.3,390.2z M-113.1,391c-0.9-0.3-0.7-0.4,0.8-0.5c1,0,1.8-0.2,1.8-0.4c-0.2-1.2,0.3-1.4,1.2-0.5
		C-108.4,390.5-111.6,391.6-113.1,391z M-104.3,388.3c-0.3,0.8-1.4,0.6-1.7-0.2c-0.1-0.4,0-0.5,0.3-0.3c0.8,0.5,0.7-0.5-0.2-1.2
		c-0.4-0.3-0.7-0.9-0.7-1.2c0-0.3,0.6,0.1,1.2,0.9C-104.7,387.1-104.2,388-104.3,388.3z M-102,388.1c-0.6,0.5-0.7,0.4-0.7-0.7
		c0-0.7-0.2-1.4-0.5-1.6c-0.3-0.2-0.5-0.6-0.5-1c0-0.4,0.2-0.6,0.5-0.4c0.3,0.2,0.5,0.6,0.5,1s0.3,1,0.7,1.4
		C-101.3,387.4-101.3,387.6-102,388.1z M-96,403.3c-0.6,1.9-1.6,2.4-1.2,0.7c0.2-0.9,0-1.3-0.4-1.3c-0.4,0-0.6-0.2-0.4-0.5
		C-97.3,401-95.5,401.9-96,403.3z M-95.6,400.3c-0.6,0.8-0.8,0.9-0.5,0.2c0.2-0.5,0.3-1.2,0.3-1.7c0-0.6,0.1-0.6,0.5-0.2
		C-94.9,399.1-95,399.5-95.6,400.3z M-94.9,397.3c-0.4,0.6-0.5,0.5-0.5-0.3c0-0.6-0.4-1.1-0.9-1.3c-1.6-0.4-1.7-6.2-0.1-6.2
		c0.2,0,0.4,0.3,0.4,0.6c0,0.3,0.2,1.4,0.3,2.3c0.1,0.9,0.4,1.8,0.7,1.9C-94.3,394.5-94.2,396.3-94.9,397.3z"/>
	<path d="M-152.6,392.8c-0.7,1.3-0.8,3.3-0.1,2.3c0.4-0.5,0.7-1.3,0.7-1.8C-151.9,392.4-152.2,392.2-152.6,392.8z"/>
	<path d="M-140.2,411.7c0.2-0.1,0.5,0,0.6,0.4c0.2,0.4,0.3,0.4,0.3-0.1c0.1-1.4-0.8-2.1-1.1-1C-140.5,411.5-140.5,411.9-140.2,411.7
		z"/>
	<path d="M-96.7,431.3c-1.3-0.7-2.7-1.6-3-2c-0.9-1.1-1.4-0.9-1.1,0.3c0.1,0.6,0.5,1.4,0.7,1.7c0.3,0.3,0.3,0.8,0.1,1.1
		c-0.2,0.3,0,0.5,0.4,0.5c1.2,0,1.4-1,0.5-1.7c-1.5-1.1-0.1-0.8,2.1,0.5c1.2,0.7,2.3,1.1,2.4,1C-94.4,432.6-95.4,432-96.7,431.3z"/>
	<path d="M-98.2,479.9c-0.1,1.4-0.2,3.1-0.3,3.8c-0.1,0.7-0.2,2.3-0.2,3.7c-0.1,3-1.3,4.1-1.3,1.2c0-3.3-0.7-8.4-1.2-8.4
		c-0.6,0-0.8,4.8-0.3,6.4c0.2,0.8,0.2,1.7-0.1,2.3c-0.3,0.6-0.3,1-0.1,1c0.2,0,0.4,0.7,0.4,1.5c0,0.9-0.3,1.5-0.7,1.5
		c-0.5,0-0.6,0.4-0.3,1.3c0.2,0.7,0.4,1.9,0.4,2.5c0.1,1.6,0.9,1.8,1.6,0.3c0.3-0.7,0.4-1.2,0.2-1.2c-0.3,0-0.1-4.4,0.2-4.7
		c0.8-1,1.3,1.2,0.9,3.9c-0.4,2.9-0.4,3.2,0.4,3.2c1.5,0,1.8-3.7,1.4-16C-97.5,477.1-98.1,475.5-98.2,479.9z"/>
	<path d="M-101.1,435.4c-0.3,0-0.6,0.2-0.6,0.6c0,0.5,0.4,0.6,1.6,0.3c2.6-0.6,3-1,2-1.8c-1.2-0.9-1.9-0.8-1.5,0.1
		C-99.3,435.4-99.8,435.6-101.1,435.4z"/>
	<path d="M-102.6,435.2c1.2-1.6-0.3-3.6-1.8-2.5c-0.5,0.4-0.7,0.9-0.6,1.2c0.2,0.4,0.6,0.4,1.1-0.1c0.7-0.6,0.7-0.5,0.2,0.4
		C-104.7,436.4-104,437.1-102.6,435.2z"/>
	<path d="M-126,412.2c-0.6-0.2-1.8,0-2.8,0.4c-1,0.4-1.9,0.7-2.1,0.7c-0.6-0.1-2.5,0.6-2.5,1c0,0.7,19.7,0.4,20.4-0.3
		c1-0.9,0.6-1.1-3.6-1.8c-2.6-0.5-4.1-0.5-4.7-0.2c-0.6,0.3-1.4,0.3-2.4,0c-1.9-0.7-2-0.7-1.6,0C-125.1,412.4-125.3,412.5-126,412.2
		z"/>
	<path d="M-107.4,405.8c0.5-0.2,0.7-0.6,0.6-1c-0.1-0.4-0.3-0.9-0.3-1.2c0-1-0.9-0.4-1.2,0.8C-108.6,406-108.5,406.2-107.4,405.8z"
		/>
	<path d="M-100.3,444.2c0.5,0,1.5-3.8,1.5-5.8c0-1.6-0.7-2-1.2-0.7c-0.2,0.4-0.3,1.8-0.3,3.1c0,1.5-0.4,3-1,4c-1.2,2-2.4,6-2.4,7.7
		c0,0.7-0.3,1.5-0.6,1.8c-0.3,0.3-0.7,1.7-1,3.1c-0.2,1.4-0.7,2.7-1,2.9c-0.3,0.2,0,0.5,0.9,0.8c2.2,0.8,2.4,0.3,2.8-6
		C-102.1,449.4-101.1,444.2-100.3,444.2z"/>
	<path d="M-139.6,496.2c0.2,0.4,0.3,0.9,0.3,1c0,0.1,0.2,0.2,0.5,0.2c0.3,0,0.3-0.3,0.2-0.7c-0.2-0.5-0.1-0.7,0.6-0.4
		c0.6,0.2,0.8,0.2,0.5-0.2C-138.1,495-139.9,495.2-139.6,496.2z"/>
	<path d="M-107.3,492.3c1.5,0.4,1.6-0.1,0.1-1.5c-0.8-0.7-1.1-1.6-1.2-3.1c-0.1-3.6-1-3.5-1.6,0.2c-0.3,2.3-0.4,2.3-1.1-2.8
		c-0.9-5.7-1-6.5-2.4-12c-0.5-2.1-1.1-4.4-1.2-5.1c-0.3-1.6-1.6-4-2.1-4c-0.8,0-1.4-3.2-1-5.7c0.7-4.4,0.7-4.4,4.6-0.4
		c3.2,3.3,4.6,4.1,4.6,2.6c0-0.3-1.6-1.9-3.5-3.7c-1.9-1.8-3.9-4.2-4.4-5.3c-1-2.1-4.2-6.1-4.7-6c-0.2,0-1.4,0.2-2.7,0.3
		c-2.7,0.2-4.2,1.2-6.3,4.2c-0.8,1.1-2.5,3.1-3.7,4.4c-2.2,2.3-1.8,2.7,1,0.7c1.7-1.1,2.1-1.1,1.7,0.1c-0.1,0.5-0.1,1.1,0.2,1.2
		c0.4,0.2,0.7-1,1.1-4.1c0.3-2.7,1.1-1,1.4,2.7c0.2,2.6,0.5,4.2,0.9,4.5c0.5,0.3,0.5,0.7-0.2,2.2c-1.1,2.4-1.7,2.6-1.7,0.7
		c0-3.1-0.6-5.3-1.4-5.3c-0.6,0-0.6,0.1-0.2,0.6c0.3,0.3,0.6,1.5,0.6,2.7c0,2.3-0.5,2.2-1.9-0.5c-0.4-0.7-0.8-1.2-0.9-1.1
		c-0.3,0.3,1.5,4.2,2,4.2c0.4,0,0.3,1.3-0.4,7l-0.3,2.3l-1.1-2.3c-0.8-1.8-2.6-8.3-3.4-12.5c0-0.2-0.8,0.3-1.7,1.1
		c-0.9,0.8-1.8,1.5-2.1,1.5s-0.4,0.2-0.4,0.4c0,0.3,0.7,0.3,1.8,0c2.1-0.6,1.7-1.2,3.4,5.4c1.3,5.2,1.4,6.2,1.2,14.1
		c-0.2,12-0.1,11.5-1,11.3c-0.4-0.1-1,0.4-1.3,1.1c-0.4,0.9-0.8,1.1-1.5,0.9c-0.6-0.1-1,0-1,0.3c0,0.3,0.6,0.6,1.3,0.7
		c0.7,0.1,1.3,0.4,1.2,0.7c-0.1,0.3,0.3,0.5,0.9,0.3c0.5-0.1,1,0,1,0.3c0,0.3-0.4,0.5-1,0.5c-0.5,0-1,0.2-1,0.4
		c0,1.9,28.1,2.5,28.6,0.6c0.1-0.6,0.7-1,1.2-1c0.6,0,0.9-0.3,0.7-0.6c-0.1-0.3-0.6-0.5-1.1-0.5c-0.6,0.1-0.8-0.1-0.6-0.6
		c0.2-0.4,0.1-0.9-0.2-1C-109.1,493-108.5,491.9-107.3,492.3z"/>
	<path d="M-143.7,456.6c-0.3-0.6-0.3-0.1-0.1,1.5c0.2,1.3,0.5,2.6,0.7,2.9C-142.6,461.5-143.1,458.1-143.7,456.6z"/>
	<path d="M-148,444.2c0.2,0,0.5,0.5,0.6,1.1c0.1,0.6,0.1-1.2,0-4c-0.2-4.4-0.4-6.1-0.7-5.3c-0.2,0.8-0.4,2.9-0.4,4.3
		c0,0.9,0.1,2.2,0.1,2.8C-148.4,443.7-148.2,444.2-148,444.2z"/>
	<path d="M-109.3,484.1c0.9,0.7,2.3,1.1,2.3,0.6c0-0.2-0.4-0.6-0.9-0.7c-0.7-0.2-0.9-1-1-4.3c-0.2-5.7-1.1-6.1-1-0.5
		C-109.9,481.9-109.7,483.8-109.3,484.1z"/>
	<path d="M-107.1,489.5c-0.5,0.3-0.1,0.5,1.4,0.5c1.1,0,2.1-0.2,2.1-0.4C-103.7,489.1-106.3,489-107.1,489.5z"/>
	<path d="M-109.4,472.9c0.1-0.8,0-1.5-0.2-1.5c-0.2,0-0.4,0.7-0.4,1.5c0,0.8,0.1,1.5,0.2,1.5C-109.7,474.4-109.5,473.7-109.4,472.9z
		"/>
</g>
</svg>
