<?xml version="1.0" encoding="utf-8"?>
<!-- Generator: Adobe Illustrator 19.0.0, SVG Export Plug-In . SVG Version: 6.00 Build 0)  -->
<svg version="1.1" id="Capa_1" xmlns="http://www.w3.org/2000/svg" xmlns:xlink="http://www.w3.org/1999/xlink" x="0px" y="0px"
	 viewBox="-210 325.9 173.5 190" style="enable-background:new -210 325.9 173.5 190;" xml:space="preserve">
<path d="M-100.8,399.6c1.1-5.4,1.6-12.3,0.1-19.6c-2.1-9.6-12.9-33.6-13.3-34.6l-2.4-5.3l-0.1,5.8c-0.1,4-3.4,9.4-6.8,15.1
	c-1.4,2.3-2.8,4.7-4.2,7.1c-2-4.2-3.8-7.1-3.9-7.3l-2.2-3.6l-0.3,4.2c-0.2,3.2-2.4,6.6-5,10.6c-3.6,5.4-7.6,11.6-7.7,19.4
	c0,2.7,0.5,5.4,1.6,7.9c-0.8,0.5-1.3,1.7-1.3,3.3c0,1.9,0.7,3.2,1.8,3.6l3.2,16.6c-0.1,0.3-0.2,0.6-0.2,0.9c0,1.7,1.5,3.1,3.2,3.1
	h2.2c0.8,1.6,2.1,3,3.7,4.2l9.3,70.6l9.3-70.6c1.6-1.1,2.9-2.5,3.8-4.2h2.2c1.8,0,3.3-1.4,3.3-3.1c0-0.3-0.1-0.6-0.2-0.9l3.2-16.5
	c1.1-0.3,1.8-1.7,1.8-3.6C-99.7,401.3-100.1,400.2-100.8,399.6z M-104.6,403.7h-1.3h-2.7h-0.1h-22.4h-1h-4.4h-2.6h-3.5h-1.1
	c-0.1-0.2-0.1-0.5-0.1-1c0-0.3,0-0.4,0.1-0.6c0-0.1,0.1-0.3,0.1-0.3h2.9h2.4h3.6h1.1h4.6h18.5h2.6h0.3h2.5h1.1h1.6
	c0.1,0.2,0.1,0.5,0.1,1s-0.1,0.8-0.1,1C-102.5,403.7-104.6,403.7-104.6,403.7z M-133,397.1c0.1-2.3,2.2-4.4,4.1-6.3
	c1-1,1.9-1.9,2.5-2.8c0.4,0.6,1,1.2,1.5,2l1,1.5l1.1-1.4c1-1.2,2.1-2.4,3.1-3.6c1.4-1.5,2.7-2.9,3.5-4.2c2.2,3.3,5.5,8.5,6.3,10.8
	c0.7,2.1,0.5,4.2,0.1,5.9h-22.7C-132.8,398.5-133,397.9-133,397.1z M-136.8,373.6c1.9-2.9,3.7-5.6,4.7-8.3c0.9,1.7,2,3.9,3.2,6.5
	l1.1,2.6l1.3-2.5c1.6-3.2,3.5-6.4,5.3-9.4c2.7-4.5,5.1-8.5,6.3-12.1c3.2,7.3,9.9,23.1,11.5,30.2c1.5,6.8,0.9,13.3-0.1,18.5h-1.1
	c0.7-3.4,1-7.7-0.1-12.2c-1.6-6.3-10-21.9-10.3-22.5l-2.4-4.4l-0.1,5c-0.1,2.4-2.5,5.8-5.2,9.5c-1,1.4-2,2.8-3,4.3
	c-1.5-2.6-2.7-4.3-2.8-4.4l-2.2-2.9l-0.3,3.6c-0.1,1.9-1.9,4.2-3.8,6.6c-2.8,3.6-6,7.6-6.1,12.9c0,1.6,0.3,3.1,0.9,4.5h-2.5
	c-1.1-2.1-1.7-4.6-1.7-7.5C-144,384.5-140.2,378.7-136.8,373.6z M-141.9,406.4h9h25.9h2.7l-1,4.9l-1.8,9.5c-0.3-0.1-0.5-0.1-0.8-0.1
	h-30.5c-0.3,0-0.5,0-0.8,0.1L-141.9,406.4z M-138.3,424.2c-0.3,0-0.6-0.2-0.6-0.5c0-0.2,0.3-0.4,0.6-0.4h1.2h28.1h1.2
	c0.3,0,0.6,0.2,0.6,0.4c0,0.3-0.3,0.5-0.6,0.5h-1.3H-137H-138.3z M-123.1,481.2l-6.4-48.7l-0.2-1.6h4.5h4.2h4.5l-0.2,1.6
	L-123.1,481.2z M-114.6,428.3h-16.9c-0.5-0.4-1-0.9-1.4-1.4h19.8C-113.6,427.4-114.1,427.9-114.6,428.3z"/>
<g>
	<path d="M-147.8,441.7c-0.7-0.5-3-2.3-5.5-4.2c-3.6-2.8-7.7-5.9-8.9-6.6c-0.6-0.3-1.1-0.6-1.7-0.8c-2.6-0.9-5.1-0.5-6,1
		c-0.3,0.5-0.9,2,1.2,3.8c1.4,1.2,2.1,2,2.7,2.6c0.8,0.8,1.4,1.5,2.6,2.3c0.2,0.2,0.6,0.4,1.1,0.7c0.5,0.3,1.1,0.7,1.8,1.1
		c-1.8-0.4-3.5-0.9-5.1-1.3l-1.6-1.6c-0.3-0.3-0.6-0.6-1-1c-1-1-1.9-2-2.5-2.4c-1.2-1.2-5.5-5-8.5-5.3c-3.6-4.7-4.4-5.4-6.6-5.8
		c-0.2-0.1-0.5-0.1-0.9,0l-0.7,0.1l-0.2-0.4c-0.6-1.1-1.4-2.4-2.4-3.3c-1.1-1.3-3-2.6-4.8-2.3c-0.8,0.1-1.9,0.6-2.7,2.1
		c-0.3,0.5-0.2,1.1,0.1,1.6c-0.4,0.2-0.8,0.4-1.1,0.8c-0.8,0.9-0.8,2.2-0.2,3.4c0.3,0.5,0.9,1.9,1,2.1c5.2,12.1,15.4,17.5,29.6,25
		l1.7,0.9c0.4,0.2,3.3,1.5,4.3,1.9c0.1,0,0.2,0.1,0.2,0.1c5.7,4.4,7.4,10.6,8.6,21.2c0.1,0.5,0.4,0.9,0.9,1.1c0.3,0.1,0.6,0.1,1,0.1
		c2.9,0,8.8-2.1,11.7-4.3c1.7-1.3,2.6-2.7,2.5-4c-0.3-3.9-0.3-7.1-0.4-9.6C-137.5,451.1-137.6,448.6-147.8,441.7z M-168,439.5
		C-168,439.5-168,439.5-168,439.5l0.1-0.2L-168,439.5z M-140.5,472.5c-3.1,2.5-9,4.1-10.7,4.1c-1.3-10.9-3.2-17.4-9.5-22.2l-0.2-0.2
		l-0.3,0c0,0-0.1,0-0.2-0.1c-1-0.4-3.8-1.6-4.1-1.8l-1.7-0.9c-13.8-7.3-23.7-12.5-28.7-24c-0.1-0.3-0.8-1.7-1.1-2.2
		c-0.2-0.3-0.4-0.8-0.1-1.2c0.2-0.2,0.7-0.4,1.2-0.2c0.3,0.1,0.7,0.4,1.1,1c1.8,3.4,4.4,6.2,8,8.3c3.7,2.3,8,4.7,14.1,6.9
		c4.6,1.7,9.8,3.1,15.9,4.3l2.9,0.6l-2-2.2c-1.3-1.4-4-3.1-5.6-4.1c-0.4-0.3-0.8-0.5-1-0.6c-1.1-0.7-1.6-1.2-2.3-2
		c-0.6-0.7-1.4-1.5-2.9-2.8c-0.7-0.6-0.9-1.1-0.8-1.3c0.2-0.4,1.7-0.8,3.6-0.1c0.5,0.2,0.9,0.4,1.4,0.7c1.1,0.7,5.3,3.9,8.7,6.5
		c2.6,2,4.9,3.8,5.6,4.3c9.3,6.3,9.4,8.2,9.5,17.3c0,2.6,0.1,5.8,0.4,9.7C-138.9,470.9-139.4,471.7-140.5,472.5z"/>
	<path d="M-48.1,422.8c-0.3-0.4-0.7-0.6-1.1-0.8c0.3-0.5,0.3-1,0.1-1.6c-0.8-1.6-1.9-2-2.7-2.1c-1.8-0.2-3.6,1-4.8,2.3
		c-1,1-1.7,2.2-2.4,3.3l-0.2,0.4l-0.7-0.1c-0.4-0.1-0.6-0.1-0.8,0c-2.3,0.4-3.1,1.1-6.7,5.8c-3,0.2-7.4,4.1-8.5,5.3
		c-0.6,0.5-1.5,1.4-2.5,2.4c-0.3,0.3-0.6,0.7-1,1l-1.6,1.6c-1.6,0.5-3.3,0.9-5.1,1.3c0.7-0.4,1.3-0.8,1.8-1.1
		c0.5-0.3,0.9-0.5,1.1-0.7c1.2-0.9,1.9-1.5,2.6-2.3c0.6-0.6,1.4-1.5,2.7-2.6c2-1.8,1.5-3.3,1.2-3.8c-0.9-1.5-3.4-1.9-6-1
		c-0.6,0.2-1.2,0.5-1.7,0.8c-1.2,0.7-5.2,3.8-8.8,6.6c-2.5,1.9-4.9,3.8-5.6,4.2c-10.2,6.9-10.3,9.4-10.4,18.9c0,2.5-0.1,5.7-0.4,9.6
		c-0.1,1.4,0.7,2.7,2.5,4c3,2.2,8.9,4.3,11.7,4.3c0.4,0,0.8,0,1-0.1c0.5-0.2,0.9-0.6,0.9-1.1c1.2-10.6,2.9-16.8,8.6-21.2
		c0.1,0,0.1,0,0.2-0.1c1.1-0.4,3.9-1.7,4.3-1.9l1.7-0.9c14.1-7.5,24.4-12.9,29.6-25c0.1-0.2,0.7-1.6,1-2.1
		C-47.3,424.9-47.3,423.7-48.1,422.8z M-49.7,425.2c-0.3,0.5-1,2-1.1,2.2c-4.9,11.5-14.9,16.7-28.7,24l-1.7,0.9
		c-0.3,0.2-3.1,1.4-4.1,1.8c-0.1,0-0.1,0-0.1,0l-0.3,0l-0.2,0.2c-6.3,4.8-8.2,11.3-9.5,22.2c-1.7,0-7.6-1.6-10.7-4.1
		c-1-0.8-1.6-1.6-1.5-2.2c0.3-4,0.3-7.2,0.4-9.7c0.2-9.1,0.2-11,9.5-17.3c0.7-0.5,3-2.2,5.7-4.3c3.4-2.6,7.6-5.8,8.7-6.5
		c0.4-0.3,0.9-0.5,1.4-0.7c0.8-0.3,1.4-0.4,2-0.4c0.9,0,1.4,0.3,1.6,0.5c0.1,0.2-0.1,0.7-0.8,1.3c-1.4,1.3-2.2,2.1-2.9,2.8
		c-0.7,0.8-1.2,1.3-2.3,2c-0.2,0.1-0.6,0.4-1,0.6c-1.6,1-4.3,2.7-5.6,4.1l-2,2.2l2.9-0.6c6.1-1.3,11.3-2.7,15.9-4.3
		c6.1-2.2,10.4-4.6,14.1-6.9c3.6-2.2,6.2-4.9,8-8.3c0.3-0.6,0.8-0.9,1.1-1c0.5-0.2,1-0.1,1.2,0.2C-49.3,424.4-49.5,425-49.7,425.2z"
		/>
</g>
</svg>
