<?xml version="1.0" encoding="utf-8"?>
<!-- Generator: Adobe Illustrator 19.0.0, SVG Export Plug-In . SVG Version: 6.00 Build 0)  -->
<svg version="1.1" id="Capa_1" xmlns="http://www.w3.org/2000/svg" xmlns:xlink="http://www.w3.org/1999/xlink" x="0px" y="0px"
	 viewBox="-210 325.9 173.5 190" style="enable-background:new -210 325.9 173.5 190;" xml:space="preserve">
<style type="text/css">
	.st0{clip-path:url(#SVGID_2_);}
</style>
<g>
	<defs>
		<path id="SVGID_1_" d="M-237.7,273.8l4.7,256.7l227.3-28.7l-6.7-216.3L-237.7,273.8z M-114.5,362.3c1.3,0,2.3,1,2.3,2.3
			s-1,2.3-2.3,2.3s-2.3-1-2.3-2.3S-115.7,362.3-114.5,362.3z M-162.9,392.9c0-1.1,0.9-2,2-2c1.1,0,2,0.9,2,2s-0.9,2-2,2
			C-162,394.9-162.9,394-162.9,392.9z M-158.9,437.3c-1.1,0-2-0.9-2-2s0.9-2,2-2c1.1,0,2,0.9,2,2
			C-156.9,436.4-157.8,437.3-158.9,437.3z M-158.9,356.1c-1.6,0-2.9-1.3-2.9-2.9s1.3-2.9,2.9-2.9c1.6,0,2.9,1.3,2.9,2.9
			C-156,354.8-157.3,356.1-158.9,356.1z M-150.7,424.5c-1.8,0-3.3-1.5-3.3-3.3s1.5-3.3,3.3-3.3s3.3,1.5,3.3,3.3
			S-148.9,424.5-150.7,424.5z M-147.4,372.8c-1.1,0-2-0.9-2-2s0.9-2,2-2c1.1,0,2,0.9,2,2S-146.3,372.8-147.4,372.8z M-124.8,423.2
			c-1.1,0-2-0.9-2-2s0.9-2,2-2c1.1,0,2,0.9,2,2S-123.7,423.2-124.8,423.2z M-118.7,407.9c-8.3,0-15-6.7-15-15c0-3.9,1.5-7.5,4-10.2
			c2.6-2.8,6.3-4.6,10.4-4.8c-2.5,2.7-4,6.3-4,10.2c0,8.3,6.7,15,15,15c0.2,0,0.4,0,0.7,0C-110.4,406-114.3,407.9-118.7,407.9z
			 M-98.3,430.8c-2.3,0-4.2-1.9-4.2-4.2s1.9-4.2,4.2-4.2c2.3,0,4.2,1.9,4.2,4.2S-96,430.8-98.3,430.8z M-90.2,356.1
			c-1.6,0-2.9-1.3-2.9-2.9s1.3-2.9,2.9-2.9c1.6,0,2.9,1.3,2.9,2.9C-87.3,354.8-88.6,356.1-90.2,356.1z M-84.9,391.1
			c0-2.4,1.9-4.3,4.3-4.3s4.3,1.9,4.3,4.3s-1.9,4.3-4.3,4.3S-84.9,393.5-84.9,391.1z M-76.4,437.3c-1.1,0-2-0.9-2-2s0.9-2,2-2
			c1.1,0,2,0.9,2,2C-74.4,436.4-75.3,437.3-76.4,437.3z"/>
	</defs>
	<clipPath id="SVGID_2_">
		<use xlink:href="#SVGID_1_"  style="overflow:visible;"/>
	</clipPath>
	<g class="st0">
		<path d="M-108.7,489.4v7.3c0.5-0.1,1.1-0.2,1.6-0.3v-7h-0.8H-108.7z"/>
		<path d="M-138.6,489.4h-0.3c-1,0-1.9,0.8-1.9,1.9v4.8c1.4,0.3,2.7,0.6,4.1,0.8v-5.6C-136.7,490.3-137.5,489.4-138.6,489.4z"/>
		<path d="M-123.3,343.6c-42.7,0-77.3,34.6-77.3,77.3c0,35.3,23.7,65,56,74.3v-7.6v-0.1v-7.8l-7.4-7.4c-0.7-0.7-0.7-1.9,0-2.6
			s1.8-0.7,2.6,0l5.3,5.2c0.3-0.5,0.9-0.8,1.5-0.8h7.7c0.6,0,1.2,0.3,1.5,0.8l5.3-5.2c0.8-0.8,1.9-0.8,2.6,0c0.6,0.8,0.6,2-0.2,2.7
			l-7.4,7.4v7.8v10c3.2,0.4,6.5,0.6,9.8,0.6c3.7,0,7.3-0.3,10.9-0.8v-7.9h-4.5c-0.2,0-0.4-0.2-0.3-0.5l3.4-6.2v-3l-7.4-7.4
			c-0.7-0.7-0.7-1.9,0-2.6s1.8-0.7,2.6,0l5.3,5.2c0.3-0.5,0.9-0.8,1.5-0.8h7.7c0.6,0,1.2,0.3,1.5,0.8l5.3-5.2c0.8-0.8,1.8-0.8,2.6,0
			s0.8,1.9,0,2.6l-7.5,7.4v3l3.4,6.2c0.2,0.2,0,0.5-0.3,0.5h-4.5v6.2c33.1-8.7,57.5-38.9,57.5-74.7
			C-46,378.2-80.6,343.6-123.3,343.6z M-145.6,459.8c-0.5,0-0.9-0.4-0.9-0.9s0.4-0.9,0.9-0.9s0.9,0.4,0.9,0.9
			S-145.1,459.8-145.6,459.8z M-143.9,447.5c0-0.7,0.5-1.2,1.2-1.2c0.7,0,1.2,0.5,1.2,1.2c0,0.7-0.5,1.2-1.2,1.2
			C-143.4,448.7-143.9,448.2-143.9,447.5z M-138.7,472.7c-2.4,0-4.4-2-4.4-4.4s2-4.4,4.4-4.4s4.4,2,4.4,4.4
			S-136.3,472.7-138.7,472.7z M-135.2,442.3c-0.5,0-0.9-0.4-0.9-0.9s0.4-0.9,0.9-0.9s0.9,0.4,0.9,0.9S-134.7,442.3-135.2,442.3z
			 M-133.3,451.9c-0.5,0-0.9-0.4-0.9-0.9s0.4-0.9,0.9-0.9c0.5,0,0.9,0.4,0.9,0.9S-132.8,451.9-133.3,451.9z M-122.3,450.5
			c-0.5,0-0.9-0.4-0.9-0.9c0-0.5,0.4-0.9,0.9-0.9c0.5,0,0.9,0.4,0.9,0.9C-121.4,450.1-121.8,450.5-122.3,450.5z M-118.9,456.8
			c-0.5,0-0.9-0.4-0.9-0.9s0.4-0.9,0.9-0.9s0.9,0.4,0.9,0.9S-118.4,456.8-118.9,456.8z M-109.1,448.7c0.8,0,1.5,0.7,1.5,1.5
			s-0.7,1.5-1.5,1.5s-1.5-0.7-1.5-1.5S-110,448.7-109.1,448.7z M-107.9,472.7c-2.4,0-4.4-2-4.4-4.4s2-4.4,4.4-4.4s4.4,2,4.4,4.4
			S-105.5,472.7-107.9,472.7z M-102.3,443.9c0-0.5,0.4-0.9,0.9-0.9s0.9,0.4,0.9,0.9s-0.4,0.9-0.9,0.9S-102.3,444.4-102.3,443.9z
			 M-100.5,459.8c-0.5,0-0.9-0.4-0.9-0.9s0.4-0.9,0.9-0.9c0.5,0,0.9,0.4,0.9,0.9S-100,459.8-100.5,459.8z"/>
	</g>
</g>
</svg>
