<?xml version="1.0" encoding="utf-8"?>
<!-- Generator: Adobe Illustrator 19.0.0, SVG Export Plug-In . SVG Version: 6.00 Build 0)  -->
<svg version="1.1" id="Capa_1" xmlns="http://www.w3.org/2000/svg" xmlns:xlink="http://www.w3.org/1999/xlink" x="0px" y="0px"
	 viewBox="-210 325.9 173.5 190" style="enable-background:new -210 325.9 173.5 190;" xml:space="preserve">
<g id="XMLID_100_">
	<path d="M-45.1,494.1h-156.3c-2,0-3.8-1-4.8-2.7s-1-3.8,0-5.5l78.1-135.4c1-1.7,2.8-2.8,4.8-2.8l0,0c2,0,3.8,1,4.8,2.7l78.2,135.4
		c1,1.7,1,3.8,0,5.5C-41.3,493-43.1,494.1-45.1,494.1z M-191.9,483.1h137.3l-68.7-118.9L-191.9,483.1z"/>
</g>
<g>
	<g>
		<path d="M-175.6,483.6h7c0.2-9.2,11.3-13.7,18-6.8v-39h-25V483.6z M-159.1,442h4.7v4.2h-4.7V442z M-159.1,448.3h4.7v4.2h-4.7
			V448.3z M-159.1,454.7h4.7v4.3h-4.7V454.7z M-159.1,461.2h4.7v4.2h-4.7V461.2z M-159.1,467.6h4.7v4.2h-4.7V467.6z M-165.3,442h4.5
			v4.2h-4.5V442z M-165.3,448.3h4.5v4.2h-4.5V448.3z M-165.3,454.7h4.5v4.3h-4.5V454.7z M-165.3,461.2h4.5v4.2h-4.5V461.2z
			 M-165.3,467.6h4.5v4.2h-4.5V467.6z M-171.7,442h4.5v4.2h-4.5V442z M-171.7,448.3h4.5v4.2h-4.5V448.3z M-171.7,454.7h4.5v4.3h-4.5
			V454.7z M-171.7,461.2h4.5v4.2h-4.5V461.2z M-171.7,467.6h4.5v4.2h-4.5V467.6z"/>
		<path d="M-123.9,425.2v58.4h1.9c2.3-9.8,12.4-12.1,19.4-10.9v-47.5H-123.9z M-115.3,429.1h4.3v4.3h-4.3V429.1z M-115.3,435.4h4.3
			v4.5h-4.3V435.4z M-115.3,442h4.3v4.5h-4.3V442z M-115.3,448.3h4.3v4.5h-4.3V448.3z M-119.7,429.1h2.3v4.3h-2.3V429.1z
			 M-119.7,435.4h2.3v4.5h-2.3V435.4z M-119.7,442h2.3v4.5h-2.3V442z M-119.7,448.3h2.3v4.5h-2.3V448.3z M-107.2,467.4h-12v-2.2h12
			V467.4z M-107.2,463.2h-12v-2.2h12V463.2z M-107.2,459h-12v-2.2h12V459z M-106.8,452.8h-2.3v-4.5h2.3V452.8z M-106.8,446.5h-2.3
			V442h2.3V446.5z M-106.8,439.9h-2.3v-4.5h2.3V439.9z M-106.8,433.4h-2.3v-4.3h2.3V433.4z"/>
		<path d="M-148.9,478.9c5.3-8.4,18.5-4.2,18.5,4.7h4.3v-91.8h-22.8V478.9z M-134.4,399.9h2.6v6.7h-2.6V399.9z M-134.4,408.9h2.6
			v6.7h-2.6V408.9z M-134.4,417.9h2.6v6.7h-2.6V417.9z M-134.4,426.9h2.6v6.7h-2.6V426.9z M-134.4,435.7h2.6v6.7h-2.6V435.7z
			 M-134.4,444.8h2.6v6.7h-2.6V444.8z M-134.4,453.8h2.6v6.7h-2.6V453.8z M-138.8,399.9h2.6v6.7h-2.6V399.9z M-138.8,408.9h2.6v6.7
			h-2.6V408.9z M-138.8,417.9h2.6v6.7h-2.6V417.9z M-138.8,426.9h2.6v6.7h-2.6V426.9z M-138.8,435.7h2.6v6.7h-2.6V435.7z
			 M-138.8,444.8h2.6v6.7h-2.6V444.8z M-138.8,453.8h2.6v6.7h-2.6V453.8z M-143.1,399.9h2.6v6.7h-2.6V399.9z M-143.1,408.9h2.6v6.7
			h-2.6V408.9z M-143.1,417.9h2.6v6.7h-2.6V417.9z M-143.1,426.9h2.6v6.7h-2.6V426.9z M-143.1,435.7h2.6v6.7h-2.6V435.7z
			 M-143.1,444.8h2.6v6.7h-2.6V444.8z M-143.1,453.8h2.6v6.7h-2.6V453.8z"/>
	</g>
	<path d="M-149,481.6c3.4-9.5,17.6-7.1,17.6,3c0,0.6,0,1.2-0.2,1.9h-35.9c-0.2-0.8-0.2-1.6-0.2-2.3C-167.7,473-151.8,471-149,481.6z
		 M-95.4,458.1c2.6,0,4.8,2.2,4.8,4.8c0,2.3-1.6,4.2-3.6,4.8v8.2c2.8-2,5.3-2,9.5,0.5v-14.8c-4-0.9-6.8-4.5-6.8-8.7c0-5,4-9,9-9
		s8.9,4,8.9,9c0,4.2-2.8,7.8-6.8,8.7v15.1c2.2-1.1,4.7-1.7,7.1-1.7c7.1,0,13.2,4.8,15.1,11.3h-63.5c2-11.2,15.5-15.7,25.3-10.4v-8.2
		c-2.2-0.6-3.7-2.5-3.7-4.8C-100.3,460.3-98.1,458.1-95.4,458.1z"/>
</g>
</svg>
