<?xml version="1.0" encoding="utf-8"?>
<!-- Generator: Adobe Illustrator 19.0.0, SVG Export Plug-In . SVG Version: 6.00 Build 0)  -->
<svg version="1.1" id="Capa_1" xmlns="http://www.w3.org/2000/svg" xmlns:xlink="http://www.w3.org/1999/xlink" x="0px" y="0px"
	 viewBox="-210 325.9 173.5 190" style="enable-background:new -210 325.9 173.5 190;" xml:space="preserve">
<g>
	<g>
		<path d="M-174.3,380.8v-13.1l3.2-3.2h7.3l3.2,3.2v13.2l-3.2,3.2h-7.3L-174.3,380.8z M-164.2,383.1l2.6-2.7v-12.3l-2.7-2.7h-6.4
			l-2.6,2.7v12.3l2.7,2.7H-164.2z M-172.4,368.6l2.3-2.2h5.3l2.3,2.2v4.6h-3.9v-3h-1.9v7.9h1.9v-3.9h3.9v5.6l-2.3,2.2h-5.4l-2.2-2.2
			V368.6z"/>
		<path d="M-159.6,364.4h7.9v11.8h3.9v7.8h-11.8V364.4z M-148.8,383.1v-5.9h-3.9v-11.8h-5.9v17.6H-148.8z M-157.6,366.4h3.9v11.8
			h3.9v3.9h-7.9V366.4z"/>
		<path d="M-146.7,367.6l3.2-3.2h7.3l3.2,3.2V384h-13.7V367.6z M-134,383v-15l-2.7-2.6h-6.4l-2.7,2.7v15L-134,383z M-144.7,368.6
			l2.3-2.2h5.3l2.3,2.2v13.5h-3.9v-4.9h-2v4.9h-3.9V368.6z M-138.9,373.3v-3h-2v3H-138.9z"/>
		<path d="M-131.7,375.7h0.8l-0.8-0.8v-7.3l3.2-3.2h7.3l3.2,3.2v5.2h-0.9l0.9,0.7v7.4l-3.2,3.2h-7.4l-3.2-3.2V375.7z M-121.6,383.1
			l2.6-2.6V374l-1.7-1.8h1.7v-4.2l-2.7-2.6h-6.4l-2.7,2.7v6.4l1.7,1.6h-1.7v4.2l2.7,2.7H-121.6z M-125.8,377.2v1h2v-2h-3.6l-2.3-2.2
			v-5.4l2.3-2.2h5.3l2.3,2.2v2.7h-3.9v-1h-1.9v2h3.6l2.3,2.3v5.4l-2.3,2.2h-5.3l-2.3-2.2v-2.7H-125.8z"/>
		<path d="M-116.9,375.7h0.8l-0.8-0.8v-7.3l3.2-3.2h7.3l3.2,3.2v5.2h-0.8l0.8,0.7v7.4l-3.2,3.2h-7.3l-3.2-3.2V375.7z M-106.9,383.1
			l2.6-2.6V374l-1.7-1.8h1.7v-4.2l-2.7-2.6h-6.4l-2.7,2.7v6.4l1.7,1.6h-1.7v4.2l2.7,2.7H-106.9z M-111.1,377.2v1h2v-2h-3.6l-2.3-2.2
			v-5.4l2.3-2.2h5.3l2.3,2.2v2.7h-3.9v-1h-1.9v2h3.6l2.3,2.3v5.4l-2.3,2.2h-5.3l-2.3-2.2v-2.7H-111.1z"/>
		<path d="M-98.7,367.6l3.2-3.2h7.3l3.2,3.2v13.3l-3.2,3.1h-7.3l-3.2-3.2V367.6z M-95,383.1h6.4l2.7-2.6v-12.3l-2.7-2.7H-95
			l-2.7,2.7v12.3L-95,383.1z M-96.7,368.6l2.3-2.3h5.3l2.3,2.3v11.3l-2.3,2.2h-5.3l-2.3-2.2V368.6z M-90.9,378.2v-7.9h-1.9v7.9
			H-90.9z"/>
		<path d="M-83.9,364.4h11.8l0,8.8h-1l0,4.9h-3v5.9h-7.8V364.4z M-77.1,383.1v-5.9h3v-4.9h1v-6.9h-9.8v17.6H-77.1z M-82,366.4h7.9
			v4.9h-3.9v1h3v3.9h-3v5.9H-82V366.4z"/>
	</g>
	<g>
		<path d="M-186.7,461.8l19.3-38.5H-191v-36h67.6V417l-30.5,60.4h-32.8V461.8z M-156.1,473l28.1-56v-25.2h-58.5l-0.1,27h26
			l-21.3,42.5V473H-156.1z M-151.4,414.3h-30.7v-18.1h49.7v15.9l-28.2,56.3h-17.7L-151.4,414.3z"/>
		<path d="M-118.6,402.1l14.8-14.8h33.5l14.8,14.7v60.6l-14.4,14.7h-34.4l-14.4-14.5V402.1z M-101.7,473h29.4l12.2-12.2v-29.4
			l-7.9-8h7.9v-19l-12.3-12.5h-29.2l-12.5,12.5v56.4L-101.7,473z M-109.6,406.4l10.4-10.1h24.4l10.5,10.2v12.3h-18.2v-4.5h-8.9v9
			h16.7l10.3,10.2v24.7l-10.2,10.2h-24.6l-10.4-10.2V406.4z M-82.6,450.4v-9.1h-8.9v9.1H-82.6z"/>
	</g>
</g>
</svg>
