<?xml version="1.0" encoding="utf-8"?>
<!-- Generator: Adobe Illustrator 19.0.0, SVG Export Plug-In . SVG Version: 6.00 Build 0)  -->
<svg version="1.1" id="Capa_1" xmlns="http://www.w3.org/2000/svg" xmlns:xlink="http://www.w3.org/1999/xlink" x="0px" y="0px"
	 viewBox="-210 325.9 173.5 190" style="enable-background:new -210 325.9 173.5 190;" xml:space="preserve">
<g id="XMLID_100_">
	<path d="M-45.1,494.1h-156.3c-2,0-3.8-1-4.8-2.7s-1-3.8,0-5.5l78.1-135.4c1-1.7,2.8-2.8,4.8-2.8l0,0c2,0,3.8,1,4.8,2.7l78.2,135.4
		c1,1.7,1,3.8,0,5.5C-41.3,493-43.1,494.1-45.1,494.1z M-191.9,483.1h137.3l-68.7-118.9L-191.9,483.1z"/>
</g>
<path d="M-98.5,432.4c-1.8-4-4.5-7.5-7.9-10.2c3.3-0.8,5.3-1.7,5.3-2.8c0-2.4-9.9-4.3-22.2-4.3s-22.2,1.9-22.2,4.3
	c0,1.1,2,2,5.3,2.8c-3.4,2.7-6.1,6.2-7.9,10.2c-4,0-7.3,3.3-7.3,7.4c0,3.3,2.2,6.1,5.1,7.1c0.7,6,3.4,11.3,7.4,15.5
	c-0.1,0.3-0.2,0.6-0.2,0.9v3.7c0,1.4,1.1,2.5,2.5,2.5c1.4,0,2.5-1.1,2.5-2.5v-0.7c4.3,2.8,9.3,4.4,14.8,4.4c5,0,9.6-1.3,13.6-3.7
	c0,1.3,1.1,2.4,2.5,2.4c1.4,0,2.5-1.1,2.5-2.5v-3.6c4.5-4.2,7.6-10,8.4-16.5c3-1,5.1-3.7,5.1-7.1C-91.2,435.7-94.4,432.5-98.5,432.4
	z M-152.9,439.8c0-2.3,1.6-4.3,3.8-4.8c-0.9,2.7-1.4,5.5-1.4,8.5c0,0.2,0,0.4,0,0.6C-151.9,443.2-152.9,441.6-152.9,439.8z
	 M-140.5,419.4c0-1,7.7-1.9,17.3-1.9s17.3,0.8,17.3,1.9s-7.7,1.9-17.3,1.9S-140.5,420.5-140.5,419.4z M-107.2,457.1
	c0,0,8.6-12.3,0-27.1C-107.2,429.9-94.9,443.5-107.2,457.1z M-96.1,444.1c0-0.2,0-0.4,0-0.6c0-3-0.5-5.8-1.4-8.5
	c2.2,0.5,3.8,2.5,3.8,4.8C-93.6,441.6-94.6,443.2-96.1,444.1z"/>
</svg>
