<?xml version="1.0" encoding="utf-8"?>
<!-- Generator: Adobe Illustrator 19.0.0, SVG Export Plug-In . SVG Version: 6.00 Build 0)  -->
<svg version="1.1" id="Capa_1" xmlns="http://www.w3.org/2000/svg" xmlns:xlink="http://www.w3.org/1999/xlink" x="0px" y="0px"
	 viewBox="-210 325.9 173.5 190" style="enable-background:new -210 325.9 173.5 190;" xml:space="preserve">
<g id="XMLID_100_">
	<path d="M-45.1,494.1h-156.3c-2,0-3.8-1-4.8-2.7s-1-3.8,0-5.5l78.1-135.4c1-1.7,2.8-2.8,4.8-2.8l0,0c2,0,3.8,1,4.8,2.7l78.2,135.4
		c1,1.7,1,3.8,0,5.5C-41.3,493-43.1,494.1-45.1,494.1z M-191.9,483.1h137.3l-68.7-118.9L-191.9,483.1z"/>
</g>
<path d="M-84.4,423.7c-0.1-0.5-0.1-0.9-0.2-1.5s-0.1-0.9-0.2-1.5l-4.7-1c-0.3-1.1-0.7-2.2-1.1-3.2l3.1-3.7c-0.4-0.9-0.8-1.7-1.5-2.5
	l-4.8,0.6c-0.6-0.9-1.4-1.9-2.2-2.7l1.7-4.5c-0.7-0.6-1.4-1.4-2.1-1.9l-4.4,2.3c-0.9-0.6-2-1.2-3-1.8v-4.8c-0.8-0.4-1.8-0.7-2.7-1
	l-3.2,3.4c-1.1-0.3-2.3-0.5-3.4-0.6l-1.7-4.5c-0.9-0.1-1.9-0.1-2.8-0.1l-1.9,4.5c-0.6-0.1-1.1,0-1.8,0.1c-0.6,0.1-1.1,0.2-1.7,0.3
	l-3.1-3.6c-0.9,0.3-1.8,0.6-2.7,0.9l-0.2,4.8c-1,0.5-2.1,1-3,1.7l-4.2-2.4c-0.8,0.5-1.5,1.1-2.2,1.8l1.5,4.6
	c-0.8,0.8-1.6,1.7-2.3,2.6l-4.8-0.8c-0.5,0.8-1,1.7-1.5,2.4l2.9,3.7c-0.5,1-0.9,2.1-1.2,3.2l-4.9,1c-0.2,0.9-0.4,1.9-0.6,2.8
	l4.1,2.6c-0.1,1.1-0.1,2.3,0,3.4l-4.2,2.5c0.1,0.5,0.1,0.9,0.2,1.5c0.1,0.5,0.1,0.9,0.2,1.5l4.7,1c0.3,1.1,0.7,2.2,1.1,3.2l-3.1,3.7
	c0.4,0.9,0.8,1.7,1.5,2.5l4.8-0.6c0.6,0.9,1.4,1.9,2.2,2.7l-1.7,4.5c0.7,0.6,1.4,1.4,2.1,1.9l4.3-2.2c0.9,0.6,2,1.2,3,1.8v4.8
	c0.8,0.4,1.8,0.7,2.7,1l3.2-3.5c1.1,0.3,2.3,0.5,3.4,0.6l1.7,4.5c0.9,0.1,1.9,0.1,2.9,0.1l1.9-4.5c0.6-0.1,1.1-0.1,1.8-0.2
	c0.6-0.1,1.1-0.2,1.7-0.3l3.1,3.6c0.9-0.3,1.8-0.6,2.7-0.9l0.2-4.8c1-0.5,2.1-1,3-1.7l4.2,2.4c0.8-0.5,1.5-1.1,2.2-1.8l-1.5-4.6
	c0.8-0.8,1.6-1.7,2.3-2.6l4.8,0.8c0.5-0.8,1-1.7,1.5-2.4l-2.9-3.7c0.5-1,0.9-2.1,1.2-3.2l4.8-0.9c0.2-0.9,0.4-1.9,0.6-2.8l-4.1-2.6
	c0.1-1.1,0.1-2.3,0-3.4L-84.4,423.7z M-113.2,450.4c-12.7,2-24.7-6.8-26.7-19.5c-2.1-12.7,6.7-24.7,19.4-26.7
	c12.7-2,24.7,6.8,26.7,19.5C-91.9,436.4-100.5,448.4-113.2,450.4z"/>
<g>
	<path d="M-133.7,468.2l4-1c0-0.2,0-0.4,0-0.5c0-1.1-0.1-2.2-0.3-3.2l-4-0.5c-0.3-1.4-0.7-2.6-1.2-3.9l2.9-2.8
		c-0.6-1.1-1.4-2.2-2.1-3.1l-3.7,1.7c-0.9-1-1.9-1.9-3-2.7l1-4c-1-0.6-2.2-1.2-3.3-1.7l-2.5,3.3c-1.2-0.4-2.6-0.7-4-0.8l-1-4.1
		c-0.2,0-0.3,0-0.5,0c-1.1,0-2.2,0.1-3.2,0.3l-0.5,4.1c-1.4,0.3-2.6,0.7-3.9,1.2l-2.8-2.9c-1.1,0.6-2.2,1.4-3.1,2.1l1.6,3.7
		c-1,0.9-1.9,1.9-2.7,3l-4-1c-0.6,1-1.2,2.2-1.7,3.3l3.3,2.5c-0.4,1.2-0.7,2.6-0.8,4l-4.1,1c0,0.2,0,0.3,0,0.5
		c0,1.1,0.1,2.2,0.3,3.2l4.1,0.5c0.3,1.4,0.7,2.6,1.2,3.9l-2.9,2.8c0.6,1.1,1.4,2.2,2.1,3.1l3.7-1.6c0.9,1,1.9,1.9,3,2.7l-1,4
		c1,0.6,2.2,1.2,3.3,1.7l2.5-3.3c1.2,0.4,2.6,0.7,4,0.8l1,4.1c0.2,0,0.3,0,0.5,0c1.1,0,2.2-0.1,3.2-0.3l0.5-4.1
		c1.4-0.3,2.6-0.7,3.9-1.2l2.8,2.9c1.1-0.6,2.2-1.4,3.1-2.1l-1.6-3.7c1-0.9,1.9-1.9,2.7-3l4,1c0.6-1,1.2-2.2,1.7-3.3l-3.3-2.5
		C-134.1,470.9-133.9,469.6-133.7,468.2z M-151.5,479.7c-7.2,0-13-5.8-13-13s5.8-13,13-13c7.2,0,13,5.8,13,13
		S-144.3,479.7-151.5,479.7z"/>
</g>
<g>
	<path d="M-116.9,446.3c10.5,0,19-8.5,19-19c0-10.5-8.5-19-19-19s-19,8.5-19,19C-135.9,437.8-127.3,446.3-116.9,446.3z M-116.9,410
		c9.6,0,17.3,7.8,17.3,17.3s-7.8,17.3-17.3,17.3s-17.3-7.8-17.3-17.3S-126.4,410-116.9,410z"/>
	<path d="M-117.6,413.7c0,0.1,0.1,0.1,0.1,0.1c0,0.1,0.1,0.1,0.1,0.1c0.2,0.2,0.4,0.2,0.6,0.2c0.2,0,0.4-0.1,0.6-0.2
		c0,0,0.1-0.1,0.1-0.1c0,0,0.1-0.1,0.1-0.1c0-0.1,0-0.1,0.1-0.2c0-0.1,0-0.1,0-0.2c0-0.2-0.1-0.4-0.2-0.6c-0.3-0.3-0.9-0.3-1.2,0
		c-0.2,0.2-0.2,0.4-0.2,0.6c0,0.1,0,0.1,0,0.2C-117.7,413.6-117.7,413.7-117.6,413.7z"/>
	<path d="M-109.9,416.1c0.2,0,0.4-0.1,0.6-0.3c0.2-0.2,0.3-0.4,0.3-0.6c0-0.2-0.1-0.4-0.3-0.6c-0.3-0.3-0.9-0.3-1.2,0
		c-0.2,0.2-0.2,0.4-0.2,0.6c0,0.2,0.1,0.4,0.2,0.6C-110.3,416-110.1,416.1-109.9,416.1z"/>
	<path d="M-105.6,420.7c0,0.1,0.1,0.1,0.1,0.1c0,0,0.1,0.1,0.1,0.1c0,0,0.1,0.1,0.1,0.1c0.1,0,0.1,0.1,0.1,0.1c0.1,0,0.1,0,0.2,0
		c0.1,0,0.1,0,0.2,0c0.1,0,0.1,0,0.2,0c0.1,0,0.1,0,0.2,0c0.1,0,0.1,0,0.1-0.1c0,0,0.1-0.1,0.1-0.1c0,0,0.1-0.1,0.1-0.1
		c0-0.1,0.1-0.1,0.1-0.1c0-0.1,0-0.1,0.1-0.2c0-0.1,0-0.1,0-0.2c0-0.1,0-0.1,0-0.2s0-0.1-0.1-0.2c0-0.1,0-0.1-0.1-0.1
		c0,0-0.1-0.1-0.1-0.1c0,0-0.1-0.1-0.1-0.1c0,0-0.1-0.1-0.1-0.1c-0.1,0-0.1,0-0.2-0.1c-0.1,0-0.2,0-0.3,0c-0.1,0-0.1,0-0.2,0.1
		c-0.1,0-0.1,0-0.1,0.1c0,0-0.1,0.1-0.1,0.1c0,0-0.1,0.1-0.1,0.1c0,0-0.1,0.1-0.1,0.1c0,0.1,0,0.1,0,0.2s0,0.1,0,0.2
		c0,0.1,0,0.1,0,0.2C-105.6,420.6-105.6,420.7-105.6,420.7z"/>
	<path d="M-103.7,427.7c0,0.1,0,0.1,0.1,0.1c0,0,0.1,0.1,0.1,0.1c0,0,0.1,0.1,0.1,0.1c0,0,0.1,0.1,0.1,0.1c0.1,0,0.1,0,0.2,0.1
		c0.1,0,0.1,0,0.2,0c0.1,0,0.1,0,0.2,0c0.1,0,0.1,0,0.2-0.1c0.1,0,0.1,0,0.1-0.1c0.1,0,0.1-0.1,0.1-0.1c0.2-0.2,0.2-0.4,0.2-0.6
		c0-0.1,0-0.1,0-0.2c0-0.1,0-0.1-0.1-0.2c0-0.1,0-0.1-0.1-0.1c0,0-0.1-0.1-0.1-0.1c0,0-0.1-0.1-0.1-0.1c0,0-0.1-0.1-0.1-0.1
		s-0.1,0-0.2,0c-0.3-0.1-0.6,0-0.8,0.2c0,0-0.1,0.1-0.1,0.1c0,0.1-0.1,0.1-0.1,0.1c0,0.1,0,0.1-0.1,0.2c0,0.1,0,0.1,0,0.2
		c0,0.1,0,0.1,0,0.2C-103.8,427.6-103.7,427.6-103.7,427.7z"/>
	<path d="M-105.3,435c0,0,0.1,0.1,0.1,0.1c0.1,0,0.1,0,0.2,0.1c0.1,0,0.1,0,0.2,0s0.1,0,0.2,0c0.1,0,0.1,0,0.2-0.1
		c0.1,0,0.1,0,0.1-0.1c0,0,0.1-0.1,0.1-0.1c0,0,0.1-0.1,0.1-0.1c0,0,0.1-0.1,0.1-0.1c0-0.1,0-0.1,0.1-0.2s0-0.1,0-0.2
		c0-0.2-0.1-0.4-0.2-0.6c0,0-0.1-0.1-0.1-0.1s-0.1-0.1-0.1-0.1c-0.1,0-0.1,0-0.2,0c-0.1,0-0.2,0-0.3,0c-0.1,0-0.1,0-0.2,0
		s-0.1,0.1-0.1,0.1c-0.1,0-0.1,0.1-0.1,0.1c-0.2,0.2-0.2,0.4-0.2,0.6c0,0.2,0.1,0.4,0.2,0.6C-105.4,435-105.3,435-105.3,435z"/>
	<path d="M-110.5,438.8c-0.2,0.2-0.2,0.4-0.2,0.6c0,0.2,0.1,0.4,0.2,0.6c0.2,0.2,0.4,0.3,0.6,0.3c0.2,0,0.4-0.1,0.6-0.3
		c0.2-0.2,0.2-0.4,0.2-0.6c0-0.2-0.1-0.4-0.2-0.6C-109.7,438.5-110.2,438.5-110.5,438.8z"/>
	<path d="M-117.5,440.6c0,0-0.1,0.1-0.1,0.1c0,0-0.1,0.1-0.1,0.1c0,0.1,0,0.1-0.1,0.2c0,0.1,0,0.1,0,0.2c0,0.2,0.1,0.4,0.2,0.6
		c0.2,0.2,0.4,0.2,0.6,0.2c0.2,0,0.4-0.1,0.6-0.2c0.2-0.2,0.2-0.4,0.2-0.6c0-0.2-0.1-0.4-0.2-0.6
		C-116.6,440.3-117.2,440.3-117.5,440.6z"/>
	<path d="M-124.4,440c0,0,0.1,0.1,0.1,0.1c0.1,0,0.1,0,0.2,0c0.1,0,0.1,0,0.2,0c0.2,0,0.4-0.1,0.6-0.2c0.2-0.2,0.2-0.4,0.2-0.6
		c0-0.2-0.1-0.4-0.2-0.6c-0.2-0.2-0.5-0.3-0.8-0.2c-0.1,0-0.1,0-0.2,0.1c-0.1,0-0.1,0-0.1,0.1c0,0-0.1,0.1-0.1,0.1
		c-0.2,0.2-0.2,0.4-0.2,0.6c0,0.2,0.1,0.4,0.2,0.6C-124.4,440-124.4,440-124.4,440z"/>
	<path d="M-128.8,435c0.1,0,0.1,0,0.2-0.1s0.1,0,0.1-0.1c0,0,0.1-0.1,0.1-0.1c0.2-0.2,0.2-0.4,0.2-0.6c0-0.2-0.1-0.4-0.2-0.6
		c0,0-0.1-0.1-0.1-0.1c0,0-0.1-0.1-0.1-0.1s-0.1,0-0.2,0c-0.1,0-0.2,0-0.3,0c-0.1,0-0.1,0-0.2,0s-0.1,0.1-0.1,0.1
		c0,0-0.1,0.1-0.1,0.1c-0.2,0.2-0.2,0.4-0.2,0.6c0,0.1,0,0.1,0,0.2c0,0.1,0,0.1,0,0.2c0,0.1,0.1,0.1,0.1,0.1c0,0,0.1,0.1,0.1,0.1
		c0,0,0.1,0.1,0.1,0.1c0.1,0,0.1,0.1,0.1,0.1s0.1,0,0.2,0.1c0.1,0,0.1,0,0.2,0C-128.9,435.1-128.8,435.1-128.8,435z"/>
	<path d="M-130.3,426.5c0,0-0.1-0.1-0.1-0.1c-0.1,0-0.1,0-0.2,0c-0.3-0.1-0.6,0-0.8,0.2c-0.2,0.2-0.2,0.4-0.2,0.6
		c0,0.2,0.1,0.4,0.2,0.6c0.2,0.2,0.4,0.2,0.6,0.2c0.1,0,0.1,0,0.2,0c0.1,0,0.1,0,0.2-0.1c0.1,0,0.1,0,0.1-0.1c0.1,0,0.1-0.1,0.1-0.1
		c0.2-0.2,0.2-0.4,0.2-0.6c0-0.2-0.1-0.4-0.2-0.6C-130.2,426.6-130.2,426.6-130.3,426.5z"/>
	<path d="M-129.3,421c0,0,0.1,0.1,0.1,0.1c0.1,0,0.1,0,0.2,0.1c0.1,0,0.1,0,0.2,0s0.1,0,0.2,0c0.1,0,0.1,0,0.2-0.1
		c0.1,0,0.1,0,0.1-0.1c0,0,0.1-0.1,0.1-0.1c0.2-0.2,0.2-0.4,0.2-0.6c0-0.1,0-0.1,0-0.2c0-0.1,0-0.1-0.1-0.2c0-0.1,0-0.1-0.1-0.1
		c0,0-0.1-0.1-0.1-0.1c0,0-0.1-0.1-0.1-0.1c0,0-0.1-0.1-0.1-0.1c-0.1,0-0.1,0-0.2-0.1c-0.1,0-0.2,0-0.3,0c-0.1,0-0.1,0-0.2,0.1
		c-0.1,0-0.1,0-0.1,0.1c-0.1,0-0.1,0.1-0.1,0.1c-0.2,0.2-0.2,0.4-0.2,0.6c0,0.2,0.1,0.4,0.2,0.6C-129.4,420.9-129.4,421-129.3,421z"
		/>
	<path d="M-124.5,415.5c0,0.1,0,0.1,0.1,0.1c0,0,0.1,0.1,0.1,0.1c0,0,0.1,0.1,0.1,0.1c0,0,0.1,0.1,0.1,0.1c0.1,0,0.1,0,0.2,0.1
		c0.1,0,0.1,0,0.2,0c0.1,0,0.1,0,0.2,0c0.1,0,0.1,0,0.2-0.1c0.1,0,0.1,0,0.1-0.1c0.1,0,0.1-0.1,0.1-0.1c0,0,0.1-0.1,0.1-0.1
		c0,0,0.1-0.1,0.1-0.1c0-0.1,0-0.1,0-0.2s0-0.1,0-0.2c0-0.1,0-0.1,0-0.2c0-0.1,0-0.1,0-0.2c0-0.1-0.1-0.1-0.1-0.1
		c0-0.1-0.1-0.1-0.1-0.1c0,0-0.1-0.1-0.1-0.1c0,0-0.1-0.1-0.1-0.1c-0.1,0-0.1,0-0.2,0c-0.1,0-0.2,0-0.3,0c-0.1,0-0.1,0-0.2,0
		c-0.1,0-0.1,0.1-0.1,0.1c0,0-0.1,0.1-0.1,0.1c0,0-0.1,0.1-0.1,0.1c0,0-0.1,0.1-0.1,0.1c0,0.1,0,0.1-0.1,0.2c0,0.1,0,0.1,0,0.2
		c0,0.1,0,0.1,0,0.2S-124.5,415.5-124.5,415.5z"/>
	<path d="M-116.9,430c1.2,0,2.2-0.8,2.5-1.8h5.2c0.5,0,0.9-0.4,0.9-0.9c0-0.5-0.4-0.9-0.9-0.9h-5.2c-0.3-0.8-0.9-1.4-1.7-1.7V418
		c0-0.5-0.4-0.9-0.9-0.9c-0.5,0-0.9,0.4-0.9,0.9v6.8c-1.1,0.4-1.8,1.3-1.8,2.5C-119.5,428.8-118.3,430-116.9,430z M-116.9,426.4
		c0.5,0,1,0.4,1,1s-0.4,1-1,1c-0.5,0-1-0.4-1-1S-117.4,426.4-116.9,426.4z"/>
</g>
</svg>
