<?xml version="1.0" encoding="utf-8"?>
<!-- Generator: Adobe Illustrator 19.0.0, SVG Export Plug-In . SVG Version: 6.00 Build 0)  -->
<svg version="1.1" id="Capa_1" xmlns="http://www.w3.org/2000/svg" xmlns:xlink="http://www.w3.org/1999/xlink" x="0px" y="0px"
	 viewBox="-210 325.9 173.5 190" style="enable-background:new -210 325.9 173.5 190;" xml:space="preserve">
<style type="text/css">
	.st0{clip-path:url(#SVGID_1_);}
</style>
<g id="XMLID_100_">
	<path d="M-45.1,494.1h-156.3c-2,0-3.8-1-4.8-2.7s-1-3.8,0-5.5l78.1-135.4c1-1.7,2.8-2.8,4.8-2.8l0,0c2,0,3.8,1,4.8,2.7l78.2,135.4
		c1,1.7,1,3.8,0,5.5C-41.3,493-43.1,494.1-45.1,494.1z M-191.9,483.1h137.3l-68.7-118.9L-191.9,483.1z"/>
</g>
<g>
	<g>
		<defs>
			<rect id="SVGID_3_" x="-155.4" y="415.8" width="64.4" height="56"/>
		</defs>
		<clipPath id="SVGID_1_">
			<use xlink:href="#SVGID_3_"  style="overflow:visible;"/>
		</clipPath>
		<path class="st0" d="M-123.3,421.2c2.8,0,5.2-1.8,6.1-4.4c-1.6,0.5-3.7,0.7-6.1,0.7s-4.4-0.3-6.1-0.7
			C-128.5,419.4-126.1,421.2-123.3,421.2L-123.3,421.2z M-123.3,421.2"/>
		<path class="st0" d="M-91.3,424.4c-0.1-0.4-0.4-0.7-0.8-0.8l-12.3-5.7c-2.6-0.9-5.3-1.6-7.9-2.1c-0.1,0-0.2,0-0.3,0
			c-0.7,0-1.3,0.5-1.4,1.1c-1,4.3-4.8,7.5-9.4,7.5c-4.6,0-8.4-3.2-9.4-7.5c-0.1-0.7-0.7-1.1-1.4-1.1c-0.1,0-0.2,0-0.3,0
			c-2.7,0.5-5.3,1.2-7.9,2.1l-12.2,5.7c-0.4,0.2-0.6,0.5-0.8,0.8c-0.1,0.4-0.1,0.8,0.1,1.1l5.3,10.5c0.2,0.5,0.8,0.8,1.3,0.8
			c0.1,0,0.3,0,0.4-0.1l5.9-1.8v35.2c0,0.8,0.7,1.5,1.5,1.5h35.2c0.8,0,1.5-0.7,1.5-1.5V435l5.9,1.8c0.1,0,0.3,0.1,0.4,0.1
			c0.5,0,1-0.3,1.3-0.8l5.3-10.5C-91.2,425.2-91.1,424.8-91.3,424.4L-91.3,424.4z M-91.3,424.4"/>
	</g>
</g>
</svg>
