<?xml version="1.0" encoding="utf-8"?>
<!-- Generator: Adobe Illustrator 19.0.0, SVG Export Plug-In . SVG Version: 6.00 Build 0)  -->
<svg version="1.1" id="Capa_1" xmlns="http://www.w3.org/2000/svg" xmlns:xlink="http://www.w3.org/1999/xlink" x="0px" y="0px"
	 viewBox="-210 325.9 173.5 190" style="enable-background:new -210 325.9 173.5 190;" xml:space="preserve">
<g id="XMLID_100_">
	<path d="M-45.1,494.1h-156.3c-2,0-3.8-1-4.8-2.7s-1-3.8,0-5.5l78.1-135.4c1-1.7,2.8-2.8,4.8-2.8l0,0c2,0,3.8,1,4.8,2.7l78.2,135.4
		c1,1.7,1,3.8,0,5.5C-41.3,493-43.1,494.1-45.1,494.1z M-191.9,483.1h137.3l-68.7-118.9L-191.9,483.1z"/>
</g>
<path d="M-162.5,483.8c0-1.3,0.4-4.2,0.8-6.3c2.5-12.1,10.9-22.5,22.3-27.5c3.8-1.7,7.8-2.7,12.2-3.1c1.7-0.2,5.2-0.2,6.9,0
	c6.1,0.6,11.5,2.4,16.7,5.5c1.3,0.8,2.7,1.8,2.7,1.9c0,0-0.4,0.2-0.8,0.3c-1.5,0.5-3.3,1.4-4.7,2.5c-3.7,3-5.8,7.8-5.4,12.5
	c0.6,6.6,5.2,11.8,11.7,13.2c0.8,0.2,1.1,0.2,2.9,0.2c2.2,0,2.9-0.1,4.6-0.7c2.3-0.8,4.7-2.3,6.2-4.1l0.6-0.6l0.2,1
	c0.3,1.8,0.6,4.2,0.6,5.2v0.4h-38.8h-38.8L-162.5,483.8L-162.5,483.8z M-99.1,481.4c-5.7-0.9-10-5.2-11-10.9c-0.2-1.1-0.2-3.1,0-4.2
	c0.5-2.8,1.7-5.2,3.7-7.2c1.9-2,4.1-3.1,6.9-3.7c1.4-0.3,3.5-0.3,4.8,0c2.7,0.5,4.9,1.7,6.9,3.7c2.5,2.5,3.8,5.7,3.8,9.3
	c0,3.6-1.4,6.9-3.9,9.4c-1,1-2,1.7-3.4,2.4c-1.2,0.6-2,0.9-3.2,1.1C-95.6,481.5-98,481.6-99.1,481.4L-99.1,481.4z M-95.1,478.2
	c3.6-0.8,6.4-3.3,7.5-6.7c0.4-1.1,0.5-1.8,0.5-3.1s-0.1-2-0.5-3.1c-1-3-3.4-5.4-6.4-6.4c-1.1-0.4-1.8-0.5-3.1-0.5
	c-1.3,0-2,0.1-3.1,0.5c-2.9,0.9-5.4,3.4-6.3,6.2c-1,2.8-0.6,5.9,0.9,8.4c1.6,2.6,4.1,4.3,7.2,4.8C-97.8,478.4-95.9,478.4-95.1,478.2
	L-95.1,478.2z M-99.8,473.3c0-1,0.6-2.3,1.5-3.1c2.3-2.3,6.4-1.7,7.9,1.2c0.3,0.6,0.5,1.4,0.5,1.9l0,0.2h-5h-5L-99.8,473.3
	L-99.8,473.3z M-104.3,472.6c-0.1-0.2,0.1-1.1,0.4-1.7c0.6-1.2,1.8-2.2,3.1-2.5c1-0.2,2.5,0.1,3.1,0.5l0.2,0.1l-0.4,0.3
	c-0.9,0.6-1.8,1.8-2.1,2.9l-0.1,0.5l-2.1,0C-103.9,472.7-104.3,472.7-104.3,472.6L-104.3,472.6z M-95.7,467.9
	c-0.6-0.2-1.3-0.9-1.5-1.6c-0.5-1.6,0.7-3.1,2.3-3.1c2.2,0,3.2,2.6,1.7,4.1C-93.8,468-94.8,468.2-95.7,467.9z M-100.6,467.5
	c-0.9-0.3-1.5-1.1-1.5-2.1c0-0.9,0.4-1.5,1.1-1.9c0.8-0.4,1.7-0.4,2.4,0.2c1.4,1,1,3.2-0.6,3.8C-99.6,467.7-100.2,467.7-100.6,467.5
	L-100.6,467.5z M-125.2,441.1c-1.8-0.2-3.8-0.6-5.2-1.2c-5.7-2.2-10.1-7-11.6-12.9c-0.5-1.8-0.6-2.8-0.6-4.7c0-2,0.1-3,0.6-4.7
	c1.2-4.5,4-8.4,7.9-11c2.3-1.5,4.8-2.5,7.6-2.9c1.3-0.2,4-0.2,5.4,0c5.5,0.9,10.1,3.8,13.1,8.3c1.5,2.3,2.5,4.8,2.9,7.6
	c0.2,1.3,0.2,4,0,5.4c-0.8,5.5-3.8,10.1-8.3,13.1c-2.3,1.5-4.8,2.5-7.5,2.9C-121.8,441.1-124.5,441.2-125.2,441.1L-125.2,441.1z"/>
</svg>
