<?xml version="1.0" encoding="utf-8"?>
<!-- Generator: Adobe Illustrator 19.0.0, SVG Export Plug-In . SVG Version: 6.00 Build 0)  -->
<svg version="1.1" id="Capa_1" xmlns="http://www.w3.org/2000/svg" xmlns:xlink="http://www.w3.org/1999/xlink" x="0px" y="0px"
	 viewBox="-210 325.9 173.5 190" style="enable-background:new -210 325.9 173.5 190;" xml:space="preserve">
<style type="text/css">
	.st0{fill:#FFFFFF;}
</style>
<g id="XMLID_100_">
	<path d="M-45.1,494.1h-156.3c-2,0-3.8-1-4.8-2.7s-1-3.8,0-5.5l78.1-135.4c1-1.7,2.8-2.8,4.8-2.8l0,0c2,0,3.8,1,4.8,2.7l78.2,135.4
		c1,1.7,1,3.8,0,5.5C-41.3,493-43.1,494.1-45.1,494.1z M-191.9,483.1h137.3l-68.7-118.9L-191.9,483.1z"/>
</g>
<g>
	<path d="M-123.3,439.3c-1.9,0-3.7,0.8-5,2l-1.1-1.3c-2.3,0.8-4.2,2-5.7,3.1c-1.8,1.3-3.2,2.7-4,3.5c0.8,0.8,2.1,2.2,4,3.5
		c1.5,1.1,3.4,2.3,5.7,3.1c-1.8-1.7-2.9-4-2.9-6.6c0-0.7,0.1-1.4,0.3-2.1l1.7,0.3c-0.2,0.6-0.2,1.2-0.2,1.8c0,4.1,3.3,7.4,7.4,7.4
		c4.1,0,7.4-3.3,7.4-7.4S-119.2,439.3-123.3,439.3z"/>
	<path d="M-111.4,443.1c-1.5-1.1-3.4-2.3-5.7-3.1c1.8,1.7,2.9,4,2.9,6.6c0,2.6-1.1,5-2.9,6.6c2.3-0.8,4.2-2,5.7-3.1
		c1.8-1.3,3.2-2.7,4-3.5C-108.2,445.8-109.6,444.5-111.4,443.1z"/>
	<path d="M-95.7,432.2c-0.8-0.5-1.7-0.9-2.5-1.3c0.1-1,0.2-2,0.2-3c0-10.6-6.7-20.1-16.7-23.7c-0.8-0.3-1.7,0.1-2,0.9
		c-0.3,0.8,0,1.7,0.7,2c5.4,2.8,8.8,8.3,8.8,14.3c0,2-0.4,3.9-1.1,5.7c-4.1-3.4-9.4-5.5-15.1-5.5c-5.7,0-10.9,2-15,5.4
		c-0.7-1.8-1-3.7-1-5.6c0-6.1,3.4-11.6,8.8-14.3c0.7-0.4,1.1-1.3,0.7-2c-0.3-0.8-1.2-1.1-2-0.9c-10,3.6-16.7,13.1-16.7,23.7
		c0,1,0.1,2,0.2,3c-0.9,0.4-1.7,0.8-2.5,1.3c-9.1,5.3-14.1,15.8-12.2,26.3c0.1,0.8,0.8,1.3,1.6,1.3c0.9,0,1.6-0.7,1.6-1.6
		c0-0.1,0-0.2,0-0.2c-0.2-6,2.8-11.6,8-14.6c1.6-1,3.4-1.6,5.3-1.9c-0.2,1.2-0.3,2.5-0.3,3.8c0,10.2,6.5,18.9,15.6,22.2
		c-1.2,1.5-2.7,2.8-4.4,3.8c-2.4,1.4-5.2,2.2-8,2.2c-3.1,0-6.2-0.9-8.8-2.6c-0.7-0.5-1.6-0.3-2.1,0.4c-0.5,0.7-0.4,1.6,0.2,2.2
		c4.5,3.8,10.3,5.9,16.3,5.9c4.4,0,8.8-1.2,12.6-3.4c0.8-0.5,1.6-1,2.4-1.5c0.8,0.6,1.6,1.1,2.4,1.5c3.8,2.2,8.2,3.4,12.6,3.4
		c6,0,11.7-2.1,16.3-5.9c0.6-0.5,0.7-1.5,0.2-2.2c-0.5-0.7-1.4-0.8-2.1-0.4c-2.6,1.7-5.7,2.6-8.8,2.6c-2.8,0-5.6-0.7-8-2.2
		c-1.7-1-3.2-2.3-4.5-3.9c9-3.3,15.4-12,15.4-22.1c0-1.3-0.1-2.6-0.3-3.8c1.9,0.3,3.8,1,5.5,1.9c5.3,3,8.3,8.7,8,14.8
		c0,0.8,0.6,1.6,1.4,1.7c0.8,0.1,1.6-0.5,1.7-1.3C-81.6,448.1-86.5,437.5-95.7,432.2z M-104.6,447.5c-0.1,0.1-2,2.5-5.2,4.8
		c-4.3,3.2-9,4.8-13.5,4.8c-4.6,0-9.2-1.7-13.5-4.8c-3.2-2.4-5.1-4.7-5.2-4.8l-0.7-0.8l0.7-0.8c0.1-0.1,2-2.5,5.2-4.8
		c4.3-3.2,9-4.8,13.5-4.8c4.6,0,9.2,1.7,13.5,4.8c3.2,2.4,5.1,4.7,5.2,4.8l0.7,0.8L-104.6,447.5z"/>
</g>
<path class="st0" d="M-128,445.2c-0.1,0.5-0.2,0.9-0.2,1.4c0,2.7,2.2,4.9,4.9,4.9c2.7,0,4.9-2.2,4.9-4.9c0-2.7-2.2-4.9-4.9-4.9
	c-1.3,0-2.5,0.5-3.4,1.4l2.4,2.7L-128,445.2z M-128,445.2"/>
</svg>
