<?xml version="1.0" encoding="utf-8"?>
<!-- Generator: Adobe Illustrator 19.0.0, SVG Export Plug-In . SVG Version: 6.00 Build 0)  -->
<svg version="1.1" id="Capa_1" xmlns="http://www.w3.org/2000/svg" xmlns:xlink="http://www.w3.org/1999/xlink" x="0px" y="0px"
	 viewBox="-210 325.9 173.5 190" style="enable-background:new -210 325.9 173.5 190;" xml:space="preserve">
<g id="XMLID_100_">
	<path d="M-45.1,494.1h-156.3c-2,0-3.8-1-4.8-2.7s-1-3.8,0-5.5l78.1-135.4c1-1.7,2.8-2.8,4.8-2.8l0,0c2,0,3.8,1,4.8,2.7l78.2,135.4
		c1,1.7,1,3.8,0,5.5C-41.3,493-43.1,494.1-45.1,494.1z M-191.9,483.1h137.3l-68.7-118.9L-191.9,483.1z"/>
</g>
<path d="M-78.2,436.4c0,0-20.8-21-22-22l0,0c-3.3-2.9-7.2-5.2-11.4-6.6c0-0.1,0-0.2,0-0.2c0-1.4-0.8-2.6-2.1-3.1l0.6-0.6
	c1.3-1.3,1.3-3.4,0-4.7c-1.2-1.2-3.1-1.3-4.4-0.3c-0.2-0.4-0.4-0.8-0.8-1.2c-1-1-2.6-1.3-3.9-0.6c-0.6-1.7-2.4-2.7-4.2-2.1
	c-0.5,0.2-1,0.4-1.4,0.8c0,0-21.1,20.9-22.4,22.4l0,0v0.1l0,0c-2.7,3.2-4.8,6.9-6.2,10.9c-1-0.1-1.9,0.3-2.5,1
	c-0.3,0.3-0.6,0.7-0.7,1.2l-0.6-0.6c-1.2-1.4-3.3-1.5-4.7-0.3c-1.4,1.2-1.6,3.4-0.3,4.7l0,0c-0.4,0.2-0.8,0.4-1.2,0.8
	c-1,1-1.3,2.6-0.6,3.9c-0.5,0.2-0.9,0.4-1.3,0.8c-1.3,1.3-1.3,3.4,0,4.7c0,0,20.9,21.1,22.4,22.4l0,0l0.1,0.1
	c3.2,2.7,6.9,4.8,10.9,6.2c0,0.4-0.4,2.6,2.1,3.3l-0.6,0.6c-1.3,1.3-1.3,3.4,0,4.7c0.6,0.6,1.5,1,2.3,1c0.8,0,1.5-0.3,2.1-0.8
	c0.2,0.4,0.4,0.9,0.8,1.2c0.6,0.6,1.5,1,2.4,1c0.5,0,1.1-0.1,1.6-0.4c0.2,0.5,0.5,0.9,0.8,1.2c1.3,1.3,3.4,1.3,4.7,0l0,0
	c0,0,20.9-20.8,22-22l0,0c2.9-3.3,5.2-7.2,6.6-11.4c0.1,0,0.2,0,0.3,0c0.9,0,1.7-0.4,2.3-1c0.3-0.3,0.6-0.7,0.8-1.1l0.6,0.6
	c1.2,1.4,3.3,1.5,4.7,0.3c1.4-1.2,1.5-3.3,0.3-4.7c0.4-0.2,0.8-0.4,1.2-0.8c1-1,1.3-2.6,0.6-3.9c0.5-0.2,1-0.4,1.3-0.8
	C-76.9,439.7-76.9,437.7-78.2,436.4z M-148.6,419.7l22.3-22.4c0.6-0.5,1.4-0.4,1.9,0.1c0.4,0.5,0.4,1.2,0,1.8l-12.4,12.4
	c-0.4,0.4-0.4,1,0,1.4c0.4,0.4,1,0.4,1.4,0l13.9-13.8c0.5-0.5,1.3-0.6,1.9-0.1c0.5,0.5,0.6,1.3,0.1,1.9c0,0,0,0-0.1,0.1l-14,13.9
	c-0.4,0.4-0.4,1,0,1.4l0,0c0.5,0.6,1.2,0.2,1.4,0l15.8-15.8c0.5-0.5,1.4-0.5,1.9,0c0.3,0.3,0.7,1.1,0,1.9l-15.8,15.8
	c-0.4,0.4-0.4,1,0,1.4c0.5,0.5,1.2,0.2,1.4,0l13.1-13.1c0.5-0.5,1.3-0.6,1.9-0.1c0.5,0.5,0.6,1.3,0.1,1.9l-13.9,13.9l0.7,0.7
	c0.7,0.7,1.3,1.6,1.6,2.5l0.5,1.5l4.7-4.7c0.5-0.5,1.4-0.5,1.9,0s0.5,1.4,0,1.9l0,0l-12.7,12.7c-0.9,0.9-2.1,1.5-3.3,1.8l-4.2-4.2
	c-1.3-1.3-3.4-1.3-4.7,0l0,0c-1.3,1.3-1.3,3.4,0,4.7l2.6,2.6c-0.4,0.2-0.8,0.5-1.1,0.8c0,0-12.6-12.6-12.7-12.6
	C-153.2,426.2-151.2,422.7-148.6,419.7z M-113.7,441.5c-1.2,0.4-2.2,1.1-3.1,2l-6.9,6.9c-0.4-1.2-1.1-2.2-2-3.1l-6.9-6.9
	c1.2-0.4,2.2-1.1,3.1-2l6.9-6.9c0.4,1.2,1.1,2.2,2,3.1L-113.7,441.5z M-144.4,466.3l-22.4-22.3c-0.5-0.6-0.4-1.4,0.1-1.9
	c0.5-0.4,1.2-0.4,1.8,0l12.5,12.4c0.6,0.6,1.2,0.2,1.4,0c0.4-0.4,0.4-1,0-1.4l-13.9-13.9c-0.5-0.5-0.5-1.4,0.1-1.9
	c0.5-0.5,1.3-0.5,1.8,0l13.9,13.9c0.4,0.4,1,0.4,1.4,0s0.4-1,0-1.4l-15.8-15.7c-0.5-0.5-0.5-1.4,0-1.9s1.4-0.5,1.9,0l0,0l15.8,15.8
	c0.4,0.4,1,0.4,1.4,0c0.4-0.4,0.4-1,0-1.4c0,0-12.4-12.5-13-13.1c-0.6-0.6-0.3-1.6,0-1.9c0.5-0.5,1.4-0.5,1.9,0l13.8,13.8l0.7-0.7
	c0.7-0.7,1.6-1.3,2.5-1.6l1.5-0.5l-4.7-4.7c-0.5-0.6-0.4-1.4,0.1-1.9c0.5-0.4,1.2-0.4,1.8,0l12.8,12.8c0.9,0.9,1.6,2,1.9,3.3l0,0
	l-4.2,4.2c-1.3,1.4-1.2,3.5,0.2,4.7c1.3,1.2,3.3,1.2,4.5,0l2.6-2.6c0.2,0.4,0.5,0.8,0.8,1.1c0,0-12.6,12.6-12.6,12.7
	C-137.9,470.8-141.4,468.9-144.4,466.3z M-98.2,462.6l-21.9,21.9c-0.5,0.5-1.4,0.5-1.9,0s-0.5-1.4,0-1.9l12.4-12.4
	c0.4-0.4,0.4-1,0-1.4c-0.4-0.4-1-0.4-1.4,0l0,0l-13.8,13.8c-0.5,0.5-1.4,0.5-1.9,0s-0.5-1.4,0-1.9l0,0l13.9-13.8
	c0.4-0.4,0.5-1,0.1-1.4c-0.4-0.4-1-0.5-1.4-0.1l-15.9,15.9c-0.5,0.5-1.4,0.5-1.9,0s-0.5-1.4,0-1.9l15.8-15.8
	c0.4-0.4,0.3-1.1-0.1-1.4c-0.4-0.3-0.9-0.3-1.3,0l-13.1,13c-0.5,0.5-1.4,0.5-1.9,0l0,0c-0.5-0.5-0.5-1.4,0-1.9l13.8-13.8l-0.7-0.6
	c-0.7-0.7-1.3-1.6-1.6-2.5l-0.6-1.5l-4.7,4.7c-0.5,0.5-1.4,0.5-1.9-0.1c-0.5-0.5-0.5-1.3,0-1.8l12.8-12.8c0.9-0.9,2.1-1.5,3.3-1.8
	l4.2,4.2c1.3,1.3,3.4,1.3,4.7,0c1.3-1.3,1.3-3.4,0-4.7l0,0l-2.6-2.6c0.4-0.2,0.8-0.5,1.1-0.8l12.6,12.6
	C-93.4,455.8-95.5,459.4-98.2,462.6z M-79.6,439.7c-0.5,0.5-1.4,0.5-1.9,0l-12.4-12.4c-0.4-0.4-1-0.4-1.4,0s-0.4,1,0,1.4l0,0
	l13.9,13.8c0.5,0.5,0.5,1.4,0,1.9s-1.4,0.5-1.9,0l-13.9-13.9c-0.4-0.4-1-0.4-1.4,0l0,0c-0.4,0.4-0.4,1,0,1.4l15.8,15.8
	c0.5,0.5,0.5,1.4,0,1.9s-1.4,0.5-1.9,0l0,0l-15.9-15.7c-0.4-0.4-1-0.4-1.4,0l0,0c-0.4,0.4-0.4,1,0,1.4l13.1,13.1
	c0.5,0.5,0.5,1.4,0,1.9s-1.4,0.5-1.9,0l-13.8-13.8l-0.7,0.7c-0.7,0.7-1.6,1.3-2.5,1.6l-1.5,0.5l4.7,4.7c0.5,0.5,0.5,1.4,0,1.9
	s-1.4,0.5-1.9,0l-12.7-12.8c-0.9-0.9-1.5-2-1.8-3.3l0,0l4.2-4.2c1.3-1.3,1.3-3.4,0-4.7c-1.3-1.3-3.4-1.3-4.7,0l-2.6,2.6
	c-0.2-0.4-0.5-0.8-0.8-1.1c0,0,12.5-12.6,12.6-12.7c4,1.4,7.6,3.5,10.8,6.3l21.9,21.9C-79.1,438.4-79.1,439.2-79.6,439.7z"/>
</svg>
