<?xml version="1.0" encoding="utf-8"?>
<!-- Generator: Adobe Illustrator 19.0.0, SVG Export Plug-In . SVG Version: 6.00 Build 0)  -->
<svg version="1.1" id="Capa_1" xmlns="http://www.w3.org/2000/svg" xmlns:xlink="http://www.w3.org/1999/xlink" x="0px" y="0px"
	 viewBox="-210 325.9 173.5 190" style="enable-background:new -210 325.9 173.5 190;" xml:space="preserve">
<g id="XMLID_100_">
	<path d="M-45.1,494.1h-156.3c-2,0-3.8-1-4.8-2.7s-1-3.8,0-5.5l78.1-135.4c1-1.7,2.8-2.8,4.8-2.8l0,0c2,0,3.8,1,4.8,2.7l78.2,135.4
		c1,1.7,1,3.8,0,5.5C-41.3,493-43.1,494.1-45.1,494.1z M-191.9,483.1h137.3l-68.7-118.9L-191.9,483.1z"/>
</g>
<g>
	<path d="M-139.6,424.4H-151c-2.1,0-3.8,1.7-3.8,3.8v42.1c0,2.1,1.7,3.8,3.8,3.8h11.5c2.1,0,3.8-1.7,3.8-3.8v-42.1
		C-135.7,426.1-137.4,424.4-139.6,424.4L-139.6,424.4z M-149.1,462.7c-1.1,0-1.9-0.9-1.9-1.9c0-1.1,0.9-1.9,1.9-1.9
		c1.1,0,1.9,0.9,1.9,1.9C-147.2,461.8-148.1,462.7-149.1,462.7L-149.1,462.7z M-139.6,439.7H-151v-3.8h11.5V439.7z M-139.6,432.1
		H-151v-3.8h11.5V432.1z M-139.6,432.1"/>
	<path d="M-114.7,466.5v-3.8h-11.5v3.8c-2.1,0-3.8,1.7-3.8,3.8h19.1C-110.9,468.2-112.6,466.5-114.7,466.5L-114.7,466.5z
		 M-114.7,466.5"/>
	<path d="M-97.5,416.8h-45.9c-2.1,0-3.8,1.7-3.8,3.8h49.7v30.6h-34.4v7.7h34.4c2.1,0,3.8-1.7,3.8-3.8v-34.4
		C-93.6,418.5-95.3,416.8-97.5,416.8L-97.5,416.8z M-120.4,457c-1.1,0-1.9-0.9-1.9-1.9c0-1.1,0.9-1.9,1.9-1.9c1.1,0,1.9,0.9,1.9,1.9
		C-118.5,456.1-119.4,457-120.4,457L-120.4,457z M-120.4,457"/>
</g>
</svg>
