<?xml version="1.0" encoding="utf-8"?>
<!-- Generator: Adobe Illustrator 19.0.0, SVG Export Plug-In . SVG Version: 6.00 Build 0)  -->
<svg version="1.1" id="Capa_1" xmlns="http://www.w3.org/2000/svg" xmlns:xlink="http://www.w3.org/1999/xlink" x="0px" y="0px"
	 viewBox="-210 325.9 173.5 190" style="enable-background:new -210 325.9 173.5 190;" xml:space="preserve">
<g id="XMLID_100_">
	<path d="M-45.1,494.1h-156.3c-2,0-3.8-1-4.8-2.7s-1-3.8,0-5.5l78.1-135.4c1-1.7,2.8-2.8,4.8-2.8l0,0c2,0,3.8,1,4.8,2.7l78.2,135.4
		c1,1.7,1,3.8,0,5.5C-41.3,493-43.1,494.1-45.1,494.1z M-191.9,483.1h137.3l-68.7-118.9L-191.9,483.1z"/>
</g>
<g>
	<path d="M-83.3,437.2c-0.7-0.9-18-20.8-40-20.8s-39.3,20-40,20.8l-1.6,1.9l1.6,1.9c0.7,0.9,18,20.8,40,20.8s39.3-20,40-20.8
		l1.6-1.9L-83.3,437.2z M-156.9,438.5c4.3-4.4,15.9-14.7,29.6-16.5c-7.5,1.8-13,8.5-13,16.5c0,8,5.6,14.7,13,16.5
		C-141,453.2-152.6,442.8-156.9,438.5z M-125.6,449.9c-3.7-1.8-6.2-5.5-6.2-9.8c0-4.7,3.8-8.5,8.5-8.5c3.6,0,6.6,2.9,6.6,6.6
		c0,2.8-2.3,5-5,5c-2.1,0-3.8-1.7-3.8-3.8c0-0.9,0.4-1.6,1-2.2c-0.5,0.5-0.7,1.1-0.7,1.9c0,1.7,1.4,3.2,3.2,3.2c2,0,3.7-1.6,3.7-3.7
		c0-2.4-1.9-4.3-4.3-4.3c-2.8,0-5.1,2.3-5.1,5.1c0,3.4,2.7,6.1,6.1,6.1c4,0,7.3-3.3,7.3-7.3c0-4.9-4-8.9-8.9-8.9
		c-5.9,0-10.8,4.8-10.8,10.8c0,1.4,0.2,2.8,0.6,4c-0.9-1.7-1.4-3.6-1.4-5.6c0-6.4,5.2-11.6,11.6-11.6c6.4,0,11.6,5.2,11.6,11.6
		s-5.2,11.6-11.6,11.6C-124.1,450.1-124.8,450-125.6,449.9z M-119.2,455c7.5-1.8,13-8.5,13-16.5c0-8-5.6-14.7-13-16.5
		c13.7,1.8,25.3,12.2,29.6,16.5C-93.9,442.8-105.5,453.2-119.2,455z"/>
</g>
</svg>
