<?xml version="1.0" encoding="utf-8"?>
<!-- Generator: Adobe Illustrator 19.0.0, SVG Export Plug-In . SVG Version: 6.00 Build 0)  -->
<svg version="1.1" id="Capa_1" xmlns="http://www.w3.org/2000/svg" xmlns:xlink="http://www.w3.org/1999/xlink" x="0px" y="0px"
	 viewBox="-210 325.9 173.5 190" style="enable-background:new -210 325.9 173.5 190;" xml:space="preserve">
<g id="XMLID_100_">
	<path d="M-45.1,494.1h-156.3c-2,0-3.8-1-4.8-2.7s-1-3.8,0-5.5l78.1-135.4c1-1.7,2.8-2.8,4.8-2.8l0,0c2,0,3.8,1,4.8,2.7l78.2,135.4
		c1,1.7,1,3.8,0,5.5C-41.3,493-43.1,494.1-45.1,494.1z M-191.9,483.1h137.3l-68.7-118.9L-191.9,483.1z"/>
</g>
<path d="M-104.6,410.5c-11.6-10.3-29.2-9.2-39.5,2.3c-3.9,4.3-6.3,9.8-6.9,15.5c-1.1,9.3,2.7,18.4,9.9,24.3c1.9,1.6,3.1,3.9,3.1,6.4
	v8.8c0,5.7,4.6,10.3,10.3,10.3h9c5.7,0,10.3-4.6,10.3-10.3v-8.4c0-2.5,1.1-4.8,2.9-6.4c12-9.8,13.8-27.5,4-39.5
	C-102.5,412.6-103.5,411.5-104.6,410.5L-104.6,410.5z M-115.4,468c0,1.9-1.5,3.4-3.4,3.4h-9c-1.9,0-3.4-1.5-3.4-3.4v-4.8h15.8V468z
	 M-110,447.9c-2.5,2.2-4.3,5.2-5,8.4h-4.8v-16.7h3.7c1.9,0,3.4-1.5,3.4-3.4c0-1.9-1.5-3.4-3.4-3.4h-14.2c-1.9,0-3.4,1.5-3.4,3.4
	c0,1.9,1.5,3.4,3.4,3.4h3.7v16.7h-4.8c-0.7-3.4-2.6-6.5-5.3-8.8l-0.1-0.1c-5.5-4.4-8.3-11.4-7.4-18.3c1.2-11.6,11.6-20,23.1-18.8
	c10.8,1.1,19,10.3,18.9,21.1C-102.2,437.8-105.1,443.9-110,447.9L-110,447.9z"/>
</svg>
