<?xml version="1.0" encoding="utf-8"?>
<!-- Generator: Adobe Illustrator 19.0.0, SVG Export Plug-In . SVG Version: 6.00 Build 0)  -->
<svg version="1.1" id="Capa_1" xmlns="http://www.w3.org/2000/svg" xmlns:xlink="http://www.w3.org/1999/xlink" x="0px" y="0px"
	 viewBox="-210 325.9 173.5 190" style="enable-background:new -210 325.9 173.5 190;" xml:space="preserve">
<g id="XMLID_100_">
	<path d="M-45.1,494.1h-156.3c-2,0-3.8-1-4.8-2.7s-1-3.8,0-5.5l78.1-135.4c1-1.7,2.8-2.8,4.8-2.8l0,0c2,0,3.8,1,4.8,2.7l78.2,135.4
		c1,1.7,1,3.8,0,5.5C-41.3,493-43.1,494.1-45.1,494.1z M-191.9,483.1h137.3l-68.7-118.9L-191.9,483.1z"/>
</g>
<path d="M-123.3,405.6c-13.1,0-24.7,5.4-24.7,13.3v47.5c0,7.9,11.6,14.3,24.7,14.3s24.7-6.4,24.7-14.3v-47.5
	C-98.5,411-110.1,405.6-123.3,405.6z M-123.3,424.8c-11.9,0-21.5-3.7-21.5-8.2c0-4.5,9.6-8.9,21.5-8.9s21.5,4.4,21.5,8.9
	C-101.8,421.1-111.4,424.8-123.3,424.8z"/>
</svg>
