<?xml version="1.0" encoding="utf-8"?>
<!-- Generator: Adobe Illustrator 19.0.0, SVG Export Plug-In . SVG Version: 6.00 Build 0)  -->
<svg version="1.1" id="Capa_1" xmlns="http://www.w3.org/2000/svg" xmlns:xlink="http://www.w3.org/1999/xlink" x="0px" y="0px"
	 viewBox="-210 325.9 173.5 190" style="enable-background:new -210 325.9 173.5 190;" xml:space="preserve">
<g id="XMLID_100_">
	<path d="M-45.1,494.1h-156.3c-2,0-3.8-1-4.8-2.7s-1-3.8,0-5.5l78.1-135.4c1-1.7,2.8-2.8,4.8-2.8l0,0c2,0,3.8,1,4.8,2.7l78.2,135.4
		c1,1.7,1,3.8,0,5.5C-41.3,493-43.1,494.1-45.1,494.1z M-191.9,483.1h137.3l-68.7-118.9L-191.9,483.1z"/>
</g>
<g>
	<path d="M-102.4,453.5l6-2.6l-0.8-1.9l-6.2,2.7c-1-1.5-2.3-2.7-3.8-3.7l2.9-4.8l-1.8-1.1l-2.9,4.9c-1.7-0.8-3.6-1.2-5.6-1.2h-0.3
		l4.4-7.9l-1.8-1l-4.9,8.8c-2.1-0.3-4.1-1.3-5.6-2.7l2.7-2.7l-1.5-1.5l-2.6,2.6c-1.2-1.7-1.9-3.8-1.9-6c0-0.1,0-0.1,0-0.2l5.4-0.9
		l-0.3-2.1l-5.3,0.9c-0.2-1.3-0.7-2.6-1.3-3.7l7.2-3.6l-0.9-1.9l-7.4,3.7c-0.6-0.8-1.3-1.5-2-2.1l3.4-4.3l-1.6-1.3l-3.5,4.4
		c-0.9-0.5-1.9-0.9-2.9-1.2l0.9-4.4l-2.1-0.4l-0.9,4.5c-0.4,0-0.8-0.1-1.2-0.1c-1.1,0-2.1,0.2-3.1,0.4v-7.8h-2.1v8.5
		c-0.6,0.3-1.1,0.6-1.6,0.9l-4.9-5.9l-1.6,1.3l4.9,5.8c-0.6,0.6-1.2,1.2-1.7,1.9l-2.9-1.9l-1.2,1.7l2.9,2c-0.5,1.1-0.9,2.2-1.1,3.5
		h-7.5v2.1h7.3v1c0,0.8,0,1.5,0.1,2.3l-4.5,0.9l0.4,2.1l4.3-0.9c0.2,1.5,0.4,2.9,0.8,4.3l-6.6,1.9l0.6,2l6.5-1.9
		c0.3,0.9,0.6,1.8,0.9,2.6l-7.2,3.6l0.9,1.9l7.1-3.5c0.5,1.1,1.1,2.2,1.7,3.2l-5.6,3.7l1.2,1.7l5.5-3.7c0.7,1.1,1.5,2.2,2.4,3.2
		l-2.8,1.9l1.2,1.7l3-2c0.7,0.8,1.5,1.5,2.3,2.3l-4.6,5.6l1.6,1.3l4.6-5.6c0.9,0.7,1.7,1.3,2.6,1.9l-4.8,7.6l1.8,1.1l4.8-7.6
		c1.2,0.7,2.4,1.3,3.7,1.9l-2,5.9l2,0.7l1.9-5.8c1.4,0.5,2.8,0.9,4.2,1.3l-0.8,4l2.1,0.4l0.8-4c1.1,0.2,2.3,0.4,3.4,0.5v7.5h2.1V473
		c0.4,0,0.7,0,1,0c1.3,0,2.6-0.2,3.8-0.5l2.6,5.2l1.9-0.9l-2.5-5c0.9-0.4,1.7-0.9,2.4-1.4l2.5,3.4l1.7-1.3l-2.6-3.5
		c0.6-0.6,1.2-1.3,1.6-2l5.9,3.9l1.2-1.7l-6-4c0.5-1.1,0.9-2.3,1-3.5h7.5v-2.1h-7.3C-101.1,457.3-101.6,455.3-102.4,453.5z
		 M-149.3,436.4v-1c0-5.8,4.7-10.5,10.5-10.5s10.5,4.7,10.5,10.5c0,6.9,5.6,12.6,12.6,12.6h1c6.4,0,11.5,5.2,11.5,11.5
		c0,6.4-5.2,11.5-11.5,11.5C-133.8,471-149.3,455.4-149.3,436.4z"/>
	<path d="M-137.8,440.5c3.5,0,6.3-2.8,6.3-6.3c0-3.5-2.8-6.3-6.3-6.3c-3.5,0-6.3,2.8-6.3,6.3C-144.1,437.7-141.3,440.5-137.8,440.5z
		 M-137.8,430.1c2.3,0,4.2,1.9,4.2,4.2c0,2.3-1.9,4.2-4.2,4.2s-4.2-1.9-4.2-4.2C-142,431.9-140.1,430.1-137.8,430.1z"/>
	<path d="M-139.9,445.8c-1.7,0-3.1,1.4-3.1,3.1s1.4,3.1,3.1,3.1c1.7,0,3.1-1.4,3.1-3.1S-138.2,445.8-139.9,445.8z M-139.9,450
		c-0.6,0-1-0.5-1-1c0-0.6,0.5-1,1-1c0.6,0,1,0.5,1,1C-138.8,449.5-139.3,450-139.9,450z"/>
	<path d="M-129.4,456.3c-2.3,0-4.2,1.9-4.2,4.2c0,2.3,1.9,4.2,4.2,4.2c2.3,0,4.2-1.9,4.2-4.2C-125.2,458.2-127.1,456.3-129.4,456.3z
		 M-129.4,462.6c-1.2,0-2.1-0.9-2.1-2.1s0.9-2.1,2.1-2.1c1.2,0,2.1,0.9,2.1,2.1S-128.2,462.6-129.4,462.6z"/>
	<path d="M-123.1,447.9c-1.7,0-3.1,1.4-3.1,3.1s1.4,3.1,3.1,3.1s3.1-1.4,3.1-3.1S-121.4,447.9-123.1,447.9z M-123.1,452.1
		c-0.6,0-1-0.5-1-1c0-0.6,0.5-1,1-1s1,0.5,1,1C-122.1,451.6-122.5,452.1-123.1,452.1z"/>
	<path d="M-112.6,455.2c-2.3,0-4.2,1.9-4.2,4.2c0,2.3,1.9,4.2,4.2,4.2s4.2-1.9,4.2-4.2C-108.4,457.1-110.3,455.2-112.6,455.2z
		 M-112.6,461.5c-1.2,0-2.1-0.9-2.1-2.1c0-1.2,0.9-2.1,2.1-2.1s2.1,0.9,2.1,2.1C-110.5,460.6-111.5,461.5-112.6,461.5z"/>
	<path d="M-95.8,428v-0.2c0-0.7-0.1-1.4-0.2-2.1l1.7-0.9l-0.9-1.9l-1.5,0.7c-0.5-1-1.1-1.9-1.8-2.8l3.3-2.5l-1.3-1.7l-3.7,2.8
		c-0.6-0.4-1.2-0.7-1.8-1l0.7-1.5l-1.9-0.9l-0.9,1.7c-0.7-0.1-1.4-0.2-2.1-0.2h-0.2v-2.1h-2.1v2.2c-0.6,0.1-1.1,0.3-1.6,0.6
		l-0.6-1.2l-1.9,0.9l0.9,1.7c-0.4,0.5-0.6,1.1-0.8,1.7l-3.1-0.8l-0.5,2l3.5,0.9c0.1,0.6,0.3,1.2,0.6,1.7l-2.1,0.7l0.7,2l2.9-1
		c0.4,0.3,0.9,0.5,1.3,0.7l-1.2,1.8l1.7,1.2l1.7-2.6c0.3,0.2,0.6,0.5,0.6,0.9c0,0.7,0.1,1.4,0.4,2l-2,1.3l1.2,1.7l2-1.3
		c0.5,0.5,1,0.8,1.6,1.1v4.6h2.1v-4.2c0.8,0,1.5-0.2,2.2-0.5l2.3,2.3l1.5-1.5l-2.1-2.1c0.6-0.7,1-1.5,1.2-2.4h2.2V428H-95.8z
		 M-104.2,429c0-1.7-1.4-3.1-3.1-3.1s-3.1-1.4-3.1-3.1s1.4-3.1,3.1-3.1h1.3c4.5,0,8.1,3.7,8.1,8.1v1.3c0,1.7-1.4,3.1-3.1,3.1
		C-102.8,432.2-104.2,430.7-104.2,429z"/>
</g>
</svg>
