<?xml version="1.0" encoding="utf-8"?>
<!-- Generator: Adobe Illustrator 19.0.0, SVG Export Plug-In . SVG Version: 6.00 Build 0)  -->
<svg version="1.1" id="Capa_1" xmlns="http://www.w3.org/2000/svg" xmlns:xlink="http://www.w3.org/1999/xlink" x="0px" y="0px"
	 viewBox="-210 325.9 173.5 190" style="enable-background:new -210 325.9 173.5 190;" xml:space="preserve">
<g id="XMLID_100_">
	<path d="M-45.1,494.1h-156.3c-2,0-3.8-1-4.8-2.7s-1-3.8,0-5.5l78.1-135.4c1-1.7,2.8-2.8,4.8-2.8l0,0c2,0,3.8,1,4.8,2.7l78.2,135.4
		c1,1.7,1,3.8,0,5.5C-41.3,493-43.1,494.1-45.1,494.1z M-191.9,483.1h137.3l-68.7-118.9L-191.9,483.1z"/>
</g>
<g>
	<path d="M-153.9,442.1h28.6l-8.4-6.6c-3.1-2.9,0.8-7.9,4.2-5.2c1,1,9.2,7.1,9.2,7.9c0.3,1.6,0.5,3.4,2.6,3.9
		c0.3,3.4,4.2,4.7,5.8,1.6h40.5l13,21.5h-50.6c0,1.3-1.3,2.6-2.6,2.6H-150c-3.7,0-3.7-5.5,0-5.5h14.4V461h-17c-3.7,0-3.7-5.2,0-5.2
		h17v-1.3h-21.5c-3.4,0-3.4-5.5,0-5.5h21.5v-1.3h-18.3C-157.6,447.6-157.6,442.1-153.9,442.1z"/>
	<path d="M-143.4,420.1c-6.6,1.3-8.4-7.3-2.1-8.6l27.8-6.3c-0.5-1.6,1.8-1.8,2.1-0.5l1.8,8.9c0.3,1-1.8,1.8-2.1,0.3L-143.4,420.1z
		 M-116.4,412.2l-1-5.2l-27.5,6L-116.4,412.2z"/>
	<path d="M-112.5,420.6c-0.5,1.6-1.3,2.6-1.8,4.2c-1.3,4.2,5.5,3.9,3.7-0.3C-111.5,423-112,422.2-112.5,420.6z"/>
	<path d="M-123.5,429.5c0-0.5,0.8-0.5,0.8,0c0,0.3,0.3,0.8,0.3,1c0.3,0.3,0.8,0.5,1,0.8c0.5,0.8,0.3,1.8,0.5,2.1s0.8,0.3,1,0.8
		c0.3,0.5,0.3,1,0.5,1.6s1,1,1,1.6c0.3,0.5-0.5,0.8-0.5,0.3c-0.3-0.3-1-1-1.3-1.6c-0.3-0.5-0.3-1-0.5-1.3c0-0.5-0.5-0.5-0.8-0.8
		c-0.8-0.5-0.3-1.6-0.5-2.1c-0.3-0.3-0.8-0.3-1-0.8C-123.3,430.8-123.5,430-123.5,429.5z"/>
	<path d="M-102.8,437.9c0.3,0,0.3,0.5,0,0.8c-0.5,0-1,0-1.3,0c-0.3,0.3-0.5,0.8-0.8,0.8c-0.8,0.5-1.8,0.3-2.1,0.5s-0.5,0.5-1,0.8
		c-0.3,0.3-1,0.3-1.3,0.5c-0.8,0-1.3,0.8-2.1,1c-0.3,0-0.5-0.8,0-0.8c0.3-0.3,1.3-1,1.8-1c0.3-0.3,1-0.3,1.3-0.5
		c0.3,0,0.5-0.5,0.8-0.8c0.8-0.5,1.6,0,2.1-0.3c0.3-0.3,0.5-0.5,0.8-0.8C-104.1,437.9-103.3,437.6-102.8,437.9z"/>
	<path d="M-104.9,432.1c0.5,0,0.8,0.5,0.3,0.8c-0.3,0.3-0.8,0.3-1,0.5s-0.3,0.8-0.5,1.3c-0.3,0.5-1.6,0.8-1.6,1
		c-0.3,0.3-0.3,0.8-0.5,1c-0.3,0.5-1,0.8-1.3,1c-0.5,0.5-0.8,1.3-1.3,1.6s-0.8-0.3-0.5-0.5c0.3-0.3,0.8-1.3,1.3-1.6
		c0.3-0.3,1-0.5,1.3-1c0.3-0.3,0.3-0.5,0.3-1c0.5-0.8,1.3-0.5,1.8-1c0.3-0.3,0.3-0.8,0.5-1C-106,432.7-105.2,432.4-104.9,432.1z"/>
	<path d="M-118,426.4c0-0.5,0.8-0.3,0.5,0.3c0,0.5-0.3,0.8,0,1.3c0,0.3,0.5,0.5,0.5,1c0.3,0.5-0.3,1.6-0.3,1.8
		c0.3,0.5,0.5,0.5,0.8,1.3c0,0.5-0.3,1-0.3,1.6c0.3,0.5,0.8,1.3,0.5,2.1c0,0.3-0.8,0.3-0.8-0.3c0.3-0.3-0.3-1.3-0.3-1.8
		c-0.3-0.5,0-1,0-1.6c-0.3-0.3-0.5-0.5-0.5-1c-0.5-0.5,0.3-1.3,0-2.1c0-0.3-0.5-0.5-0.5-1C-118.5,427.4-118.3,426.6-118,426.4z"/>
</g>
</svg>
