<?xml version="1.0" encoding="utf-8"?>
<!-- Generator: Adobe Illustrator 19.0.0, SVG Export Plug-In . SVG Version: 6.00 Build 0)  -->
<svg version="1.1" id="Capa_1" xmlns="http://www.w3.org/2000/svg" xmlns:xlink="http://www.w3.org/1999/xlink" x="0px" y="0px"
	 viewBox="-210 325.9 173.5 190" style="enable-background:new -210 325.9 173.5 190;" xml:space="preserve">
<g id="XMLID_100_">
	<path d="M-45.1,494.1h-156.3c-2,0-3.8-1-4.8-2.7s-1-3.8,0-5.5l78.1-135.4c1-1.7,2.8-2.8,4.8-2.8l0,0c2,0,3.8,1,4.8,2.7l78.2,135.4
		c1,1.7,1,3.8,0,5.5C-41.3,493-43.1,494.1-45.1,494.1z M-191.9,483.1h137.3l-68.7-118.9L-191.9,483.1z"/>
</g>
<g>
	<path d="M-82,417.4c-2.4-6.3-9.3-9.1-15.5-7.1l-10.1,3.9c-5.2,1.9-8.4,7.2-7.5,12.6l-1.1,0.5c-3-4.7-8.7-6.7-14-4.8l-10.1,3.9
		c-5.2,1.9-8.4,7.2-7.9,12.4l-0.6,0.3c-3.1-4.3-8.9-6.3-14.1-4.4l-10.1,3.9c-6.2,2-9.1,9.3-7,15.1c2.4,6.3,9.3,9.1,15.1,7l10.5-3.8
		c5.2-1.9,8.4-7.2,7.5-12.6l0.6-0.3c3.1,4.3,8.7,6.7,14.1,4.4l10.5-3.8c4.8-2,8-7.4,7.5-12.6l1-0.1c3.1,4.3,8.9,6.3,13.7,4.2
		l10.5-3.8C-82.8,430.4-80,423.6-82,417.4z M-154,441.4l-4.7,1.6c-2.2,1.1-0.2,5.9,2,4.8l4.7-1.6c-0.4,2.6-2.1,4.8-4.2,5.5
		l-10.1,3.9c-3.6,1.1-7.1-0.6-8.4-3.8c-1.2-3.2,0.5-6.7,3.6-7.9l10.1-3.9C-158.3,439.1-155.7,439.5-154,441.4z M-135.2,440.1
		c2.6-0.9,0.6-5.8-1.9-5.2l-5.4,2.3c-0.1-2.3,1.5-4.5,4.2-5.5l10.1-3.9c2.2-1.1,5.1-0.1,6.9,1.4l-4.7,1.6c-2.2,1.1-0.2,5.9,1.9,5.2
		l4.7-1.6c-0.3,2.2-2,4.4-4.2,5.5l-10.5,3.8c-2.1,0.7-4.7,0.2-6.4-1.3L-135.2,440.1z M-102.6,427.8c2.6-0.9,0.6-5.8-2-4.8l-5.2,1.9
		c0.4-2.6,1.5-4.5,4.2-5.5l10.1-3.9c3.6-1.1,7.1,0.6,8.4,3.8c1.2,3.2-0.5,6.7-3.8,8.4l-9.9,3.5c-2.6,0.9-5.2,0.5-6.9-1.4
		L-102.6,427.8z"/>
</g>
</svg>
