<?xml version="1.0" encoding="utf-8"?>
<!-- Generator: Adobe Illustrator 19.0.0, SVG Export Plug-In . SVG Version: 6.00 Build 0)  -->
<svg version="1.1" id="Capa_1" xmlns="http://www.w3.org/2000/svg" xmlns:xlink="http://www.w3.org/1999/xlink" x="0px" y="0px"
	 viewBox="-210 325.9 173.5 190" style="enable-background:new -210 325.9 173.5 190;" xml:space="preserve">
<g id="XMLID_100_">
	<path d="M-45.1,494.1h-156.3c-2,0-3.8-1-4.8-2.7s-1-3.8,0-5.5l78.1-135.4c1-1.7,2.8-2.8,4.8-2.8l0,0c2,0,3.8,1,4.8,2.7l78.2,135.4
		c1,1.7,1,3.8,0,5.5C-41.3,493-43.1,494.1-45.1,494.1z M-191.9,483.1h137.3l-68.7-118.9L-191.9,483.1z"/>
</g>
<path d="M-104.8,410.3l-18.3-12.6l-18.5,12.6l-5,16.3l11.7,37.1l12.6,12.8l12.1-12.9l10.3-37.1L-104.8,410.3z M-140,413.6l4.8,10.5
	l-8.5,1.4L-140,413.6z M-129.3,458.1l4.8,12.6l-7.9-8L-129.3,458.1z M-127.9,457.1h10.7l-5.1,14.5L-127.9,457.1z M-115.8,458.1
	l3.2,4.6l-7.5,8L-115.8,458.1z M-116.8,455.5h-11.7l-4.6-29.9h19.6L-116.8,455.5z M-132.8,423.9l9.6-22.2l9.5,22.3L-132.8,423.9z
	 M-121.4,401.9l14.1,9.7l-5.2,11.1L-121.4,401.9z M-134,422.8l-5.2-11.2l14-9.6L-134,422.8z M-134.7,425.7l4.6,30.4l-3.2,4.7
	l-10.6-33.6L-134.7,425.7z M-115.2,456.1l3.5-30.3l9.1,1.5l-9.4,33.6L-115.2,456.1z M-111.3,424.1l4.9-10.6l3.6,12L-111.3,424.1z"/>
</svg>
