<?xml version="1.0" encoding="utf-8"?>
<!-- Generator: Adobe Illustrator 19.0.0, SVG Export Plug-In . SVG Version: 6.00 Build 0)  -->
<svg version="1.1" id="Capa_1" xmlns="http://www.w3.org/2000/svg" xmlns:xlink="http://www.w3.org/1999/xlink" x="0px" y="0px"
	 viewBox="-210 325.9 173.5 190" style="enable-background:new -210 325.9 173.5 190;" xml:space="preserve">
<style type="text/css">
	.st0{fill:#010202;}
</style>
<g id="XMLID_100_">
	<path d="M-45.1,494.1h-156.3c-2,0-3.8-1-4.8-2.7s-1-3.8,0-5.5l78.1-135.4c1-1.7,2.8-2.8,4.8-2.8l0,0c2,0,3.8,1,4.8,2.7l78.2,135.4
		c1,1.7,1,3.8,0,5.5C-41.3,493-43.1,494.1-45.1,494.1z M-191.9,483.1h137.3l-68.7-118.9L-191.9,483.1z"/>
</g>
<g>
	<path class="st0" d="M-97.9,412.8h-45.3c-0.5,0-0.9,0.2-1.2,0.5l-12.4,12.4c-0.3,0.3-0.5,0.7-0.5,1.2v45.3c0,1,0.7,1.7,1.7,1.7
		h45.3c0.5,0,0.9-0.2,1.2-0.5l12.4-12.4c0.3-0.3,0.5-0.7,0.5-1.2v-45.3C-96.2,413.5-96.9,412.8-97.9,412.8z M-111.4,458.6h-4.3
		c-0.5,0-0.9,0.4-0.9,0.9s0.4,0.9,0.9,0.9h4.3v10.2h-41.2l1-1c0.3-0.3,0.3-0.9,0-1.2c-0.3-0.3-0.9-0.3-1.2,0l-1,0.9v-41.2h10.2v4.3
		c0,0.5,0.4,0.9,0.9,0.9c0.5,0,0.9-0.4,0.9-0.9v-4.3h30.5L-111.4,458.6L-111.4,458.6z M-111,426.4h-31v-0.9c0-0.5-0.4-0.9-0.9-0.9
		c-0.5,0-0.8,0.5-0.8,1v0.8h-9l9-9v4.8c0,0.5,0.4,0.9,0.9,0.9c0.5,0,0.9-0.4,0.9-0.9v-6h41.2L-111,426.4z M-99.6,458.6h-6
		c-0.5,0-0.9,0.4-0.9,0.9s0.4,0.9,0.9,0.9h4.8l-9,8.9v-9h0.9c0.5,0,0.9-0.4,0.9-0.9c0-0.5-0.4-0.9-0.9-0.9h-0.9v-31l10.2-10.2V458.6
		z"/>
	<path class="st0" d="M-125.8,460.3h6.8c0.5,0,0.9-0.4,0.9-0.9c0-0.5-0.4-0.9-0.9-0.9h-6.8c-0.5,0-0.9,0.4-0.9,0.9
		C-126.7,459.9-126.3,460.3-125.8,460.3z"/>
	<path class="st0" d="M-142.8,443.3c0.5,0,0.9-0.4,0.9-0.9v-6.8c0-0.5-0.4-0.9-0.9-0.9c-0.5,0-0.9,0.5-0.9,1v6.8
		C-143.7,442.9-143.3,443.3-142.8,443.3z"/>
	<path class="st0" d="M-136,460.3h6.8c0.5,0,0.9-0.4,0.9-0.9c0-0.5-0.4-0.9-0.9-0.9h-6.8c-0.5,0-0.9,0.4-0.9,0.9
		C-136.9,459.9-136.5,460.3-136,460.3z"/>
	<path class="st0" d="M-142.8,453.5c0.5,0,0.9-0.4,0.9-0.9v-6.8c0-0.5-0.4-0.9-0.9-0.9c-0.5,0-0.9,0.5-0.9,1v6.8
		C-143.7,453.1-143.3,453.5-142.8,453.5z"/>
	<path class="st0" d="M-148.1,463.6l-2.4,2.4c-0.3,0.3-0.3,0.9,0,1.2c0.1,0.1,0.4,0.3,0.6,0.3c0.2,0,0.4-0.1,0.6-0.3l2.4-2.4
		c0.3-0.3,0.3-0.9,0-1.2C-147.2,463.2-147.7,463.2-148.1,463.6z"/>
	<path class="st0" d="M-142,456.1c0-0.5-0.4-0.9-0.9-0.9c-0.5,0-0.8,0.4-0.8,0.9v3.1l-2,2c-0.3,0.3-0.3,0.9,0,1.2
		c0.1,0.1,0.4,0.3,0.6,0.3s0.4-0.1,0.6-0.3l2-2h3.1c0.5,0,0.9-0.4,0.9-0.9s-0.4-0.9-0.9-0.9h-2.6V456.1z"/>
</g>
</svg>
