<?xml version="1.0" encoding="utf-8"?>
<!-- Generator: Adobe Illustrator 19.0.0, SVG Export Plug-In . SVG Version: 6.00 Build 0)  -->
<svg version="1.1" id="Capa_1" xmlns="http://www.w3.org/2000/svg" xmlns:xlink="http://www.w3.org/1999/xlink" x="0px" y="0px"
	 viewBox="-210 325.9 173.5 190" style="enable-background:new -210 325.9 173.5 190;" xml:space="preserve">
<g id="XMLID_100_">
	<path d="M-45.1,494.1h-156.3c-2,0-3.8-1-4.8-2.7s-1-3.8,0-5.5l78.1-135.4c1-1.7,2.8-2.8,4.8-2.8l0,0c2,0,3.8,1,4.8,2.7l78.2,135.4
		c1,1.7,1,3.8,0,5.5C-41.3,493-43.1,494.1-45.1,494.1z M-191.9,483.1h137.3l-68.7-118.9L-191.9,483.1z"/>
</g>
<text transform="matrix(1 0 0 1 87.6401 746.8352)" style="font-family:'MyriadPro-Regular'; font-size:12px;">d-11424</text>
<g>
	<path d="M-142.3,412.1h17.8c4,0,7.6,0.7,10.6,2.2c3.1,1.5,5.5,3.5,7.2,6.3c1.7,2.7,2.5,5.9,2.5,9.6c0,3.7-0.9,6.9-2.5,9.6
		c-1.7,2.7-4.1,4.8-7.2,6.3c-3.1,1.5-6.6,2.2-10.6,2.2h-17.8V412.1z M-125.1,438.7c2.6,0,4.7-0.7,6.3-2.2c1.6-1.5,2.3-3.6,2.3-6.3
		c0-2.7-0.8-4.8-2.3-6.3c-1.6-1.5-3.7-2.2-6.3-2.2h-5.1v17.1H-125.1z"/>
</g>
<g>
	<path d="M-157.4,465.2v-9.5c-0.5,0.4-1.1,0.7-1.7,1c-0.7,0.3-1.2,0.5-1.7,0.7l-1.1-2.8c0.4-0.2,0.9-0.4,1.4-0.6
		c0.5-0.3,1-0.5,1.5-0.8c0.5-0.3,1-0.6,1.4-1c0.5-0.3,0.8-0.7,1.2-1.1h2.3v14.1h3.4v2.8h-10.3v-2.8H-157.4z"/>
	<path d="M-141,465.2v-9.5c-0.5,0.4-1.1,0.7-1.7,1c-0.7,0.3-1.2,0.5-1.7,0.7l-1.1-2.8c0.4-0.2,0.9-0.4,1.4-0.6
		c0.5-0.3,1-0.5,1.5-0.8c0.5-0.3,1-0.6,1.4-1c0.5-0.3,0.8-0.7,1.2-1.1h2.3v14.1h3.4v2.8h-10.3v-2.8H-141z"/>
	<path d="M-119.2,451.1v10.2h1.8v2.8h-1.8v4h-3.4v-4h-7.1v-2.5c0.3-0.7,0.8-1.5,1.3-2.4c0.5-0.9,1.1-1.8,1.8-2.8
		c0.7-0.9,1.3-1.9,2.1-2.8c0.7-0.9,1.5-1.7,2.2-2.5H-119.2z M-122.6,455.3c-0.3,0.4-0.7,0.9-1,1.3c-0.3,0.5-0.7,1-1,1.5
		s-0.7,1-1,1.6c-0.3,0.5-0.6,1-0.8,1.6h3.8V455.3z"/>
	<path d="M-102.1,455.5c0,0.6-0.1,1.1-0.3,1.7c-0.2,0.5-0.5,1.1-0.9,1.6c-0.4,0.5-0.8,1-1.2,1.5c-0.5,0.5-0.9,0.9-1.4,1.4
		c-0.2,0.2-0.5,0.5-0.8,0.8s-0.6,0.6-0.9,0.9c-0.3,0.3-0.5,0.6-0.7,1c-0.2,0.3-0.3,0.6-0.3,0.9h7.3v2.8h-11
		c-0.1-0.2-0.1-0.4-0.1-0.7c0-0.3,0-0.5,0-0.6c0-0.9,0.2-1.7,0.5-2.5c0.3-0.8,0.8-1.5,1.3-2.1c0.5-0.6,1.1-1.2,1.7-1.8
		s1.1-1.1,1.7-1.6c0.5-0.5,0.9-1,1.3-1.5c0.3-0.5,0.5-1,0.5-1.4c0-0.7-0.2-1.2-0.6-1.6c-0.4-0.4-0.9-0.6-1.6-0.6
		c-0.5,0-1.1,0.1-1.7,0.4c-0.6,0.3-1.2,0.7-1.7,1.3l-1.7-2.4c0.7-0.8,1.6-1.3,2.5-1.7c1-0.4,1.9-0.5,2.9-0.5c0.7,0,1.4,0.1,2,0.3
		s1.2,0.5,1.7,0.9c0.5,0.4,0.9,0.9,1.2,1.5C-102.3,454-102.1,454.7-102.1,455.5z"/>
	<path d="M-86.4,451.1v10.2h1.8v2.8h-1.8v4h-3.4v-4h-7.1v-2.5c0.3-0.7,0.8-1.5,1.3-2.4c0.5-0.9,1.1-1.8,1.8-2.8s1.3-1.9,2.1-2.8
		s1.5-1.7,2.2-2.5H-86.4z M-89.8,455.3c-0.3,0.4-0.7,0.9-1,1.3c-0.3,0.5-0.7,1-1,1.5c-0.3,0.5-0.7,1-1,1.6c-0.3,0.5-0.6,1-0.8,1.6
		h3.8V455.3z"/>
</g>
</svg>
