<?xml version="1.0" encoding="utf-8"?>
<!-- Generator: Adobe Illustrator 19.0.0, SVG Export Plug-In . SVG Version: 6.00 Build 0)  -->
<svg version="1.1" id="Capa_1" xmlns="http://www.w3.org/2000/svg" xmlns:xlink="http://www.w3.org/1999/xlink" x="0px" y="0px"
	 viewBox="-210 325.9 173.5 190" style="enable-background:new -210 325.9 173.5 190;" xml:space="preserve">
<g>
	<path d="M-47.5,439.2c-1.5-1.3-2.8-2.3-2.9-2.4c-0.1-0.1-0.1-0.2,0-1.3c0.8-5.9,0.9-11.7,0.3-17.8c-1.4-14.2-6.9-27.4-15.8-38.6
		c-5.7-7.2-12.9-13.3-20.9-17.9c-2.5-1.4-6-3.1-8.5-4.2c-0.3-0.1-0.6-0.3-0.7-0.4c0-0.1-0.7-3.1-1.5-6.8c-0.8-3.7-1.5-6.8-1.5-6.8
		c0-0.1-1.3-0.1-24.2-0.1h-24.2v0.2c0,0.1-0.5,3.1-1.2,6.7c-0.6,3.6-1.1,6.5-1.2,6.6c0,0.1-0.5,0.3-1.1,0.5
		c-11.6,4.7-22.1,12.5-29.9,22.3c-8.1,10.1-13.4,22.2-15.3,34.9c-0.1,0.7-0.2,1.4-0.3,1.5c-0.1,0.4-0.4,3.2-0.6,5.7
		c-0.1,1.7-0.1,6.1,0,7.9c0.1,1.6,0.2,3.2,0.5,5.1l0.2,1.4l-0.3,0.3c-0.6,0.6-1.5,1.3-2.3,2.1c-0.5,0.4-1.1,1-1.4,1.3
		c-0.6,0.6-0.7,0.7-3.9,3.6c-1.4,1.3-2.5,2.3-2.5,2.4c0,0,0.9,1.7,2.1,3.7s6.6,11.4,12.1,20.9s10,17.3,10,17.3s0.6-0.2,1.3-0.5
		c0.7-0.2,2.1-0.8,3.3-1.2c6.6-2.4,8.2-3,8.3-3c0,0,0.3,0.2,0.5,0.4c1.4,1.1,4.7,3.5,6.9,4.9c3.7,2.3,8.6,4.7,13.2,6.4
		c10.9,4.1,23,5.5,34.5,4.1c6.2-0.7,12.4-2.3,18-4.5c0.7-0.3,1.4-0.5,1.5-0.6c0.4-0.1,2.8-1.2,5.2-2.4c3.8-1.9,7.2-4,10.7-6.7
		l1.4-1.1l0.4,0.1c0.2,0.1,0.5,0.1,0.6,0.2c0.4,0.1,3.8,1.2,4.3,1.3c0.9,0.3,4.9,1.5,5.1,1.6c0.1,0,0.5,0.2,1,0.3
		c0.4,0.1,1.1,0.3,1.5,0.5c0.4,0.1,0.7,0.2,0.8,0.2c0.1,0,24.2-41.8,24.2-41.9C-40.1,445.5-41.5,444.2-47.5,439.2z M-45.4,447.1
		c0,0.1-4.6,7.9-10.1,17.5c-6,10.4-10.1,17.4-10.1,17.4c-0.1,0-0.7-0.2-1.3-0.4c-0.7-0.2-1.3-0.4-1.5-0.4c-0.3-0.1-3.4-1-4-1.2
		c-0.2-0.1-0.7-0.2-1.1-0.3c-0.4-0.1-0.7-0.2-0.8-0.3c-0.1,0-0.3-0.1-0.5-0.1s-0.4-0.1-0.5-0.1s-0.4-0.1-0.7-0.2
		c-0.3-0.1-0.9-0.3-1.4-0.4c-0.9-0.3-0.9-0.3-1.1-0.1c-0.1,0.1-0.7,0.5-1.3,1c-1.8,1.5-5.2,3.9-5.4,3.9c0,0-0.4,0.2-0.7,0.4
		c-3.5,2.3-7.9,4.5-11.9,6.1c-6.8,2.7-13.5,4.2-21.1,4.8c-1.7,0.1-7.2,0.1-8.9,0c-9.8-0.7-18.4-3.1-26.7-7.3
		c-4.3-2.2-8.9-5.1-12.3-7.9c-0.3-0.2-0.6-0.4-0.6-0.5c0,0-0.4-0.3-0.8-0.7l-0.7-0.6l-0.4,0.1c-0.3,0.1-0.8,0.2-3.2,1.1
		c-0.7,0.3-2.3,0.9-3.7,1.3c-1.3,0.5-3,1.1-3.7,1.3c-0.7,0.3-1.3,0.5-1.3,0.5s-4.6-7.9-10.2-17.5l-10.1-17.5l0.3-0.2
		c0.1-0.1,0.8-0.8,1.5-1.4c0.7-0.6,1.5-1.4,1.7-1.6c0.3-0.3,0.8-0.8,1.2-1.1c0.4-0.4,0.9-0.8,1.1-1s0.5-0.5,0.7-0.6
		c0.5-0.5,2-1.8,2.2-2c0.1-0.1,0.4-0.4,0.7-0.7l0.5-0.5l-0.1-0.5c-0.4-1.9-0.8-5.5-0.8-7c0-0.6,0-2.2-0.1-3.6
		c-0.1-4,0.1-7.8,0.7-11.7c2.9-19.3,13.8-36.4,30-47.2c4.7-3.2,10-5.8,15.1-7.6c0.9-0.3,0.9-0.3,1-0.6c0.1-0.3,0.6-3,1.5-8.3
		c0.4-2.1,0.7-4,0.7-4.1v-0.2h20.2c19.2,0,20.2,0,20.3,0.1c0.1,0.2,1.8,7.5,2.4,10.1c0.3,1.3,0.6,2.5,0.6,2.6
		c0.1,0.2,0.1,0.3,1.5,0.8c3,1.1,6.5,2.8,8.9,4.1c7.9,4.4,14.8,10.2,20.4,17.2c8.7,10.8,14,24,15.1,37.9c0.2,3,0.3,8.3,0.1,10.8
		c-0.2,2.4-0.6,5.2-1,7.6l-0.1,0.5l0.3,0.3c0.2,0.2,0.6,0.6,1,0.9s0.7,0.6,0.8,0.6c0,0,0.4,0.4,0.9,0.7c0.4,0.3,1.1,0.9,1.5,1.2
		c0.4,0.3,1.7,1.4,2.9,2.4C-45.1,447.1-45.3,446.9-45.4,447.1z"/>
	<path d="M-76.2,449.3c-1.3-0.8-2.5-1.5-3.1-1.8c3.2-6.5,5-13.8,5-21.5c0-8.9-2.4-17.2-6.5-24.5c-0.6-1.1-1.3-2.2-2-3.3
		c-3-4.5-6.9-8.6-11.3-11.9c-2.4-1.8-4.6-3.2-7.5-4.6c-5.3-2.6-10.9-4.3-16.5-4.8c-0.9-0.1-1.7-0.2-1.9-0.2h-0.3v-3.9v-3.9h-3h-3
		v3.9v3.9h-0.3c-0.2,0-1,0.1-1.9,0.2c-7.6,0.8-15.3,3.6-21.9,7.9c-4.6,3.1-8.8,7-12.1,11.5c-6.3,8.3-10,18.5-10,29.7
		c0,7.9,1.9,15.3,5.2,21.9c-0.7,0.4-1.8,1.1-3.1,1.8c-2,1.2-3.7,2.2-3.8,2.2c-0.1,0.1,0.1,0.4,1.4,2.6c0.8,1.4,1.5,2.6,1.5,2.6
		s1.7-1,3.8-2.2c1.3-0.8,2.5-1.4,3.2-1.8c8.8,13.3,23.9,22,40.9,22c17.2,0,32.4-8.9,41.1-22.4c0.7,0.4,1.8,1,3.2,1.8
		c2,1.2,3.7,2.2,3.8,2.2c0.1,0,0.4-0.5,1.6-2.5c1.3-2.3,1.5-2.6,1.4-2.7C-72.5,451.4-74.2,450.4-76.2,449.3z M-115.6,464.2
		c-0.4,0.1-0.9,0.2-1.3,0.2c-0.3,0-0.5,0.1-0.8,0.1c-0.2,0-0.3,0-0.5,0.1c-5.4,0.7-10.8,0.3-16.1-1.2c-0.1,0-0.3-0.1-0.4-0.1
		c-0.3-0.1-0.6-0.2-1-0.3c-15.6-5.1-27-19.8-27-37.2c0-21.6,17.5-39.1,39.1-39.1s39.1,17.5,39.1,39.1
		C-84.3,444.8-97.8,460.5-115.6,464.2L-115.6,464.2z"/>
</g>
<g>
	<path d="M-160.9,405.9h7.5c1.7,0,3.2,0.3,4.5,0.9c1.3,0.6,2.3,1.5,3,2.6c0.7,1.1,1.1,2.5,1.1,4c0,1.5-0.4,2.9-1.1,4
		c-0.7,1.1-1.7,2-3,2.6c-1.3,0.6-2.8,0.9-4.5,0.9h-7.5V405.9z M-153.7,417.1c1.1,0,2-0.3,2.6-0.9c0.7-0.6,1-1.5,1-2.6
		c0-1.1-0.3-2-1-2.6c-0.7-0.6-1.5-0.9-2.6-0.9h-2.1v7.2H-153.7z"/>
	<path d="M-143.3,413h6.5v3.7h-6.5V413z"/>
	<path d="M-131.1,420.4c-1.3-0.7-2.3-1.6-3-2.8s-1.1-2.6-1.1-4.1c0-1.5,0.4-2.9,1.1-4.1c0.7-1.2,1.7-2.1,3-2.8c1.3-0.7,2.7-1,4.3-1
		c1.5,0,2.8,0.3,3.9,0.8c1.2,0.5,2.1,1.3,2.9,2.2l-3.2,2.9c-0.9-1.2-2-1.8-3.3-1.8c-1.1,0-1.9,0.3-2.6,1c-0.6,0.7-1,1.6-1,2.8
		c0,1.2,0.3,2.1,1,2.8c0.6,0.7,1.5,1,2.6,1c1.3,0,2.4-0.6,3.3-1.8l3.2,2.9c-0.8,1-1.7,1.7-2.9,2.2c-1.2,0.5-2.5,0.8-3.9,0.8
		C-128.4,421.4-129.8,421.1-131.1,420.4z"/>
	<path d="M-115.3,420.4c-1.3-0.7-2.3-1.6-3.1-2.8c-0.7-1.2-1.1-2.6-1.1-4.1c0-1.5,0.4-2.9,1.1-4.1c0.7-1.2,1.8-2.1,3.1-2.8
		c1.3-0.7,2.8-1,4.4-1c1.6,0,3.1,0.3,4.4,1c1.3,0.7,2.3,1.6,3,2.8c0.7,1.2,1.1,2.6,1.1,4.1c0,1.5-0.4,2.9-1.1,4.1
		c-0.7,1.2-1.8,2.1-3,2.8c-1.3,0.7-2.8,1-4.4,1C-112.5,421.4-114,421.1-115.3,420.4z M-109.2,416.8c0.5-0.3,0.9-0.7,1.2-1.3
		c0.3-0.6,0.5-1.2,0.5-2c0-0.8-0.2-1.4-0.5-2c-0.3-0.6-0.7-1-1.2-1.3c-0.5-0.3-1.1-0.5-1.7-0.5c-0.6,0-1.2,0.2-1.7,0.5
		c-0.5,0.3-0.9,0.7-1.2,1.3c-0.3,0.6-0.5,1.2-0.5,2c0,0.8,0.2,1.4,0.5,2c0.3,0.6,0.7,1,1.2,1.3s1.1,0.5,1.7,0.5
		C-110.3,417.3-109.7,417.1-109.2,416.8z"/>
	<path d="M-85.6,405.9V421h-4.2l-5.8-6.9v6.9h-5v-15.1h4.2l5.8,6.9v-6.9H-85.6z"/>
	<path d="M-144,440.4v6.4h-19.6v-5.1l8.8-8.2c0.8-0.7,1.3-1.3,1.5-1.9c0.3-0.5,0.4-1,0.4-1.5c0-0.6-0.2-1.1-0.6-1.4
		c-0.4-0.3-1-0.5-1.8-0.5c-0.7,0-1.4,0.2-2.1,0.6c-0.7,0.4-1.2,1-1.5,1.7l-6.2-3.1c0.9-1.7,2.3-3.1,4.1-4.1c1.8-1,4-1.5,6.5-1.5
		c1.9,0,3.6,0.3,5.1,0.9c1.5,0.6,2.7,1.5,3.5,2.7c0.8,1.2,1.3,2.5,1.3,4c0,1.3-0.3,2.6-0.9,3.8c-0.6,1.2-1.7,2.5-3.3,4l-3.5,3.2
		H-144z"/>
	<path d="M-137,445.8c-1.7-1-3-2.5-3.9-4.4c-0.9-1.9-1.4-4.2-1.4-6.9c0-2.7,0.5-4.9,1.4-6.9c0.9-1.9,2.2-3.4,3.9-4.4
		c1.7-1,3.6-1.5,5.7-1.5c2.2,0,4.1,0.5,5.7,1.5c1.7,1,3,2.5,3.9,4.4c0.9,1.9,1.4,4.2,1.4,6.9c0,2.7-0.5,4.9-1.4,6.9
		c-0.9,1.9-2.2,3.4-3.9,4.4c-1.7,1-3.6,1.5-5.7,1.5C-133.4,447.3-135.3,446.8-137,445.8z M-128.5,434.5c0-4.1-0.9-6.2-2.8-6.2
		c-1.9,0-2.8,2.1-2.8,6.2s0.9,6.2,2.8,6.2C-129.4,440.7-128.5,438.7-128.5,434.5z"/>
	<path d="M-106.9,422.3v24.4h-8.2v-18.2h-4.2v-6.2H-106.9z"/>
	<path d="M-86.5,431.9c1.3,0.7,2.3,1.6,3.1,2.8c0.8,1.2,1.2,2.5,1.2,4.1c0,1.7-0.4,3.2-1.3,4.5c-0.9,1.3-2.1,2.3-3.6,3
		c-1.5,0.7-3.2,1-5,1c-2.4,0-4.4-0.5-6.2-1.4c-1.8-0.9-3.1-2.3-4.1-4.1c-1-1.8-1.5-4-1.5-6.6c0-2.8,0.6-5.2,1.7-7.3
		c1.1-2,2.7-3.6,4.8-4.7c2-1.1,4.4-1.6,7.1-1.6c1.5,0,2.9,0.2,4.2,0.5c1.3,0.3,2.5,0.8,3.4,1.4l-3,5.8c-1.2-0.9-2.7-1.3-4.4-1.3
		c-1.4,0-2.6,0.4-3.5,1.1c-0.9,0.7-1.5,1.7-1.8,3.1c1.3-0.9,2.9-1.4,4.9-1.4C-89.1,430.9-87.8,431.3-86.5,431.9z M-90.9,441
		c0.5-0.4,0.7-1,0.7-1.8c0-0.8-0.2-1.4-0.7-1.8c-0.5-0.5-1.1-0.7-1.8-0.7c-0.7,0-1.3,0.2-1.8,0.7c-0.5,0.5-0.7,1.1-0.7,1.8
		c0,0.8,0.2,1.4,0.7,1.8c0.5,0.4,1.1,0.7,1.8,0.7C-92,441.6-91.4,441.4-90.9,441z"/>
</g>
</svg>
