<?xml version="1.0" encoding="utf-8"?>
<!-- Generator: Adobe Illustrator 19.0.0, SVG Export Plug-In . SVG Version: 6.00 Build 0)  -->
<svg version="1.1" id="Capa_1" xmlns="http://www.w3.org/2000/svg" xmlns:xlink="http://www.w3.org/1999/xlink" x="0px" y="0px"
	 viewBox="-210 325.9 173.5 190" style="enable-background:new -210 325.9 173.5 190;" xml:space="preserve">
<style type="text/css">
	.st0{fill:#FFFFFF;}
</style>
<g>
	<path d="M-112.7,378.6c0,0,8.3-5.6,3.9-20.8c-2-6.7-3.4-7.4-1.9-18c0,0-10.3,6.9-8.8,20.2C-118.1,372.4-112.7,378.6-112.7,378.6z"
		/>
	<path d="M-96.1,386c0,0,10.2-11.1-1.9-22.5c0,0,0.8,4.1-2,10.5C-102.8,380.4-96.1,386-96.1,386z"/>
	<path d="M-65.2,433.3c-8.1,26-17.2,29.9-17.2,29.9c25.5-48.1-20.5-79.1-20.5-79.1c21.5,30.2,5.3,56.1,5.3,56.1s10-21.5-15.7-44
		c-28.6-26.5-14.4-48.2-14.4-48.2c-25.2,8.6-26,31.3-20.8,40.4c14.9,24.7,9.1,36.8,9.1,36.8c-0.3-5.5-4.4-9.6-17.2-18.8
		c-12.8-9.2-4.9-26.1-4.9-26.1c-8.3,5.2-15.7,22.1-5.6,33.8c18.3,22.9,3.1,36,3.1,36c6.1-25.4-17.4-31-17.4-31
		c18.2,14.7,1.4,25.7,4.2,42.9c3.8,29.1,28.8,35.9,42.7,37.5c-10.6-5.5-19.5-19.5-19.5-41.2c0-6.2,0-14.7,29.6-14.7
		s29.6,9.5,29.6,14.7c0,21-8.3,34.8-18.4,40.6C-61,490.6-65.2,433.3-65.2,433.3z"/>
	<g>
		<path class="st0" d="M-124.2,503c-3.6,0-7.2-0.9-10.6-2.7c-12.5-6.5-20-22.2-20-42.1c0-8.3,2.3-15.7,30.6-15.7
			c30.6,0,30.6,10.2,30.6,15.7c0,19.1-7.1,34.7-18.9,41.5C-116.3,501.9-120.3,503-124.2,503z M-116.2,460.4c0.1,3.8,2.6,6.5,6.1,6.5
			c3.6,0,6.3-2.4,10-6.2c-2.5-3.7-5.8-5.8-9.1-5.8C-112.5,454.9-115,456.9-116.2,460.4z M-148.4,460.7c3.8,3.8,6.4,6.2,10,6.2
			c3.5,0,6-2.7,6.1-6.5c-1.2-3.5-3.7-5.5-6.9-5.5C-142.5,454.9-145.9,457-148.4,460.7z"/>
		<path d="M-124.2,443.5c29.6,0,29.6,9.5,29.6,14.7c0,21-8.3,34.8-18.4,40.6c-3.6,2.1-7.5,3.2-11.2,3.2c-3.4,0-6.9-0.9-10.2-2.6
			c-10.6-5.5-19.5-19.5-19.5-41.2C-153.9,452-153.9,443.5-124.2,443.5 M-138.4,467.9c4.2,0,7.1-3.4,7.1-7.6
			c-1.4-4.2-4.5-6.4-7.9-6.4c-3.6,0-7.5,2.3-10.4,7C-145.4,465-142.6,467.9-138.4,467.9 M-110.1,467.9c4.2,0,7.1-2.8,11.3-7.1
			c-2.9-4.7-6.8-7-10.4-7c-3.5,0-6.6,2.2-7.9,6.4C-117.2,464.5-114.4,467.9-110.1,467.9 M-124.2,441.5c-13.6,0-22.5,1.8-27.2,5.5
			c-4.5,3.5-4.5,8-4.5,11.3c0,10.6,2,19.9,6,27.6c3.6,7,8.6,12.3,14.6,15.4c3.6,1.9,7.3,2.8,11.1,2.8c4.1,0,8.3-1.2,12.2-3.4
			c12.2-7,19.4-22.9,19.4-42.4c0-2.7,0-7.3-4.4-10.9C-101.9,443.4-110.8,441.5-124.2,441.5L-124.2,441.5z M-147.1,460.6
			c2.2-3,5.1-4.7,7.8-4.7c2.7,0,4.9,1.7,5.9,4.7c-0.1,3.1-2.2,5.3-5,5.3C-141.4,465.9-143.7,463.9-147.1,460.6L-147.1,460.6z
			 M-115.2,460.6c1.1-3,3.2-4.7,5.9-4.7c2.8,0,5.6,1.7,7.8,4.7c-3.4,3.3-5.6,5.3-8.7,5.3C-113,465.9-115.1,463.7-115.2,460.6
			L-115.2,460.6z"/>
	</g>
	<path d="M-117.2,460.2c0,4.2,2.8,7.6,7.1,7.6c4.2,0,7.1-2.8,11.3-7.1C-104.5,451.6-114.4,451.6-117.2,460.2z"/>
	<path d="M-131.3,460.2c-2.8-8.6-12.7-8.6-18.3,0.6c4.2,4.2,7.1,7.1,11.3,7.1C-134.1,467.9-131.3,464.5-131.3,460.2z"/>
</g>
</svg>
