<?xml version="1.0" encoding="utf-8"?>
<!-- Generator: Adobe Illustrator 19.0.0, SVG Export Plug-In . SVG Version: 6.00 Build 0)  -->
<svg version="1.1" id="Capa_1" xmlns="http://www.w3.org/2000/svg" xmlns:xlink="http://www.w3.org/1999/xlink" x="0px" y="0px"
	 viewBox="-210 325.9 173.5 190" style="enable-background:new -210 325.9 173.5 190;" xml:space="preserve">
<g>
	<path d="M-60.8,422.2c0,0.4-1.1,0.9-2.4,1.2c-2.4,0.5-2.4,0.6-0.6,1.1c3,0.8,2.7,2.6-0.6,4.1c-1.6,0.7-3.4,1.2-3.9,1
		c-0.5-0.2,0.5-0.9,2.2-1.7l3.1-1.4l-2.1-0.9c-1.9-0.8-2.4-0.6-5.4,1.6c-6.6,5-9.5,1.8-4-4.4c0.7-0.8,0.8-1.3,0.3-1.3
		c-0.5,0-0.9,0.3-0.9,0.6c-0.1,1.1-6.6,8-7.1,7.5c-0.3-0.3,0.9-2.2,2.6-4.3l3.2-3.8l-3.9,0.2c-5,0.3-6.2,1.8-4.2,5.2
		c0.7,1.3,1.1,2.5,0.9,2.7c-0.4,0.4-2.7-2.4-3.4-4.2c-0.3-0.7-1-0.2-2.2,1.7c-1,1.5-2.3,2.7-2.8,2.7c-0.6,0-0.1-1.3,1.3-3.3
		c2.2-3.2,2.2-3.3,0.6-2.7c-0.9,0.3-2.8,2.4-4.2,4.7c-4.5,7.4-2.3,11.1,5.1,8.6c1.6-0.6,1.7-0.5,0.9,0.5c-1.3,1.6-5.6,2.3-7.9,1.2
		c-3-1.4-3.2-3.8-0.6-8.9l2.3-4.4l-2,0.5c-1.1,0.2-3.6,1.3-5.5,2.2c-4.1,2.1-5.5,2.2-6.1,0.6c-1-2.6,3.7-10,6.3-10
		c0.9,0,0.4,0.8-1.6,3c-2.4,2.5-4,6.7-2.6,6.7c1.7,0,2.6-1,1.9-2.2c-1.2-2.3,7-8.2,11.5-8.2c0.8,0,2-0.5,2.6-1.1
		c0.6-0.6,4-2.9,7.5-5.2c5.9-3.9,8.8-5.1,8.2-3.5c-0.1,0.4-1.4,1.5-2.7,2.4c-1.4,0.9-3.3,3.1-4.3,4.8l-1.8,3l4.9-0.2
		c4.3-0.2,5.1-0.4,6.5-2.3c3.5-4.5,4.9-5.8,5.4-5.3c0.3,0.3-0.6,2-2.1,3.7l-2.6,3.2l3.1-0.2l3.1-0.2l-3.4,0.8
		c-6.4,1.5-5,2.1,4.7,2.1c2.1,0,4,0,5.4,0.1c-0.4-35.6-29.4-64.4-65.1-64.4c-34.4,0-62.6,26.8-64.9,60.6c1.6-2.2,5.2-4.9,9.1-6.4
		c8.2-3,12.5,0.9,8.9,8.1c-2.1,4.2-2.2,4.2,5,0.9c6.9-3.2,19-7.3,20.2-6.9c0.5,0.2-0.8,0.8-2.9,1.5c-6.8,2.1-15.5,6-14.5,6.6
		c1.5,0.9,0.5,2.4-5.3,7.1c-6.6,5.4-7.1,6.4-3.3,6.4c4.3,0,13-3,13-4.5c0-1.8,2.6-4.8,5.3-6.1c2.5-1.2,4.7-1,3.9,0.5
		c-0.3,0.5,0.2,0.3,1-0.5c0.8-0.7,1.9-1.3,2.4-1.3c1.5,0,0.9,1.3-1.3,3c-1.2,0.9-2.8,2.6-3.5,3.7c-0.7,1.2-1.5,2-1.8,1.8
		c-0.3-0.2-4.1,0.8-8.4,2.3c-15.9,5.3-19.6,3-9.1-5.8c6.1-5.2,6.6-5.9,2.8-4.9c-3.8,1-7.7,3.1-10.5,5.5c-3.5,3-7.1,5.1-9.9,6.1
		c5.8,30,32.2,52.7,63.9,52.7c35.7,0,64.7-28.8,65.1-64.4C-59.7,421.7-60.8,421.9-60.8,422.2z M-131.3,412.1
		c1.2-1.9,1.8-2.1,1.8-0.7c0,1.8-10.9,18.9-11.6,18.2c-0.5-0.5,1.1-3.6,5.4-10.5C-133.9,416.2-131.9,413-131.3,412.1z M-143,422.8
		c0.4,0.2,1.2,0.1,2-0.4c2.8-1.7,2.3-0.6-1.7,3.3c-4.4,4.3-4.8,4.6-4.8,3.3C-147.5,427.7-143.6,422.3-143,422.8z M-149.6,442.3
		c-0.9-1.1-0.5-3.5,0.7-3.5c0.4,0,0.5,0.5,0.2,1c-1.8,4.6,8-0.8,13.4-7.3l2.6-3.2l-2.2,0.3c-2.9,0.4-3-2.1-0.3-6
		c1-1.5,2.2-2.8,2.6-2.8c1.1,0,0.9,0.8-1.3,3.9c-3,4.4-1.4,4.3,3-0.1c5.4-5.3,5.9-3.7,1.1,3.1C-137.4,438.7-146.9,445.6-149.6,442.3
		z M-127.8,429.6c-0.5-0.5,1.1-3.6,5.4-10.5c1.9-3,3.9-6.1,4.5-7.1c1.2-1.9,1.8-2.1,1.8-0.7C-116.1,413.2-127.1,430.3-127.8,429.6z
		 M-118.9,426.4c-3.2,0.1-3,1.8,0.3,2l2.8,0.2l-2.7,0.8c-5.6,1.7-5.9-2.7-0.4-6c3.6-2.1,4-2.2,4.7-1.1
		C-113.4,423.7-116.6,426.4-118.9,426.4z"/>
	<path d="M-151.3,425.4c1.2-1,1.5-1.5,0.7-1.5c-1.4,0-5.2,2.8-5.2,3.8C-155.7,428.5-154.1,427.6-151.3,425.4z"/>
	<path d="M-187.4,419.3c-0.4,0-0.7-0.1-0.9-0.2c0,0.6,0,1.1,0,1.7c0,3.8,0.3,7.5,1,11.2c1-0.4,2.1-1.1,3.5-2.1
		c3.7-2.4,4-2.9,2.7-3.3c-1.9-0.7-1.9-1.7,0.1-3.6c2.5-2.3,4.3-2,2.1,0.3c-1.7,1.8-1.7,1.9-0.2,1.9c5.9,0,11.1-14.3,5.4-14.8
		c-4.6-0.4-14.1,5.2-13.1,7.8C-186.6,418.9-186.9,419.3-187.4,419.3z"/>
	<path d="M-97.1,424.6c1.9,0,6-2.8,9.7-6.6c2.4-2.5,4.3-4.5,4.1-4.5C-84.2,413.5-97.8,424.6-97.1,424.6z"/>
	<path d="M-88.7,421.9c0.8-0.2,2.3-1.7,3.5-3.3c2.4-3.4,2.4-3.5-0.2-1.2C-89,420.4-90.4,422.3-88.7,421.9z"/>
	<path d="M-70.9,425.4c2-1.6,4.1-2.7,4.6-2.5c0.5,0.2,1.1,0,1.4-0.5c0.3-0.5-0.9-0.8-3.7-0.8c-2.5,0-4,0.3-3.7,0.7
		c0.2,0.4-0.3,1.7-1.2,3C-76.1,428.6-75.1,428.6-70.9,425.4z"/>
	<path d="M-97.1,420.8c-3.2,1.5-6.5,4.6-4.9,4.6c0.8,0,4.9-2.8,7.8-5.4C-93.1,419-93.8,419.2-97.1,420.8z"/>
</g>
</svg>
