<?xml version="1.0" encoding="utf-8"?>
<!-- Generator: Adobe Illustrator 19.0.0, SVG Export Plug-In . SVG Version: 6.00 Build 0)  -->
<svg version="1.1" id="Capa_1" xmlns="http://www.w3.org/2000/svg" xmlns:xlink="http://www.w3.org/1999/xlink" x="0px" y="0px"
	 viewBox="-210 325.9 173.5 190" style="enable-background:new -210 325.9 173.5 190;" xml:space="preserve">
<style type="text/css">
	.st0{fill:#FFFFFF;}
</style>
<g>
	<g>
		<circle cx="-120.5" cy="418.9" r="3.9"/>
		<circle cx="-123.5" cy="406.7" r="2.6"/>
		<path d="M-113.7,404.2v-17.4h2.9c1.2,0,2.2-1,2.2-2.2c0-1.2-1-2.2-2.2-2.2h-25.4c-1.2,0-2.2,1-2.2,2.2c0,1.2,1,2.2,2.2,2.2h2.9
			v17.4c-11,4.1-18.1,14.4-18.1,26.1c0,15.4,12.5,27.9,27.9,27.9s27.9-12.5,27.9-27.9C-95.7,418.6-102.8,408.3-113.7,404.2z
			 M-127.7,439.2c-2.2,0-3.9-1.7-3.9-3.9c0-2.2,1.7-3.9,3.9-3.9s3.9,1.7,3.9,3.9C-123.7,437.4-125.6,439.2-127.7,439.2z
			 M-120.5,449.1c-1.6,0-2.9-1.3-2.9-2.9s1.3-2.9,2.9-2.9c1.6,0,2.9,1.3,2.9,2.9S-118.9,449.1-120.5,449.1z M-106,427.3
			c-0.7-1.3-2-2-3.5-2c-1.9,0-3.3,1.3-3.8,2.9c-3-0.1-6.5-0.7-10.2-2.5c-9.7-4.6-18.9-2.6-22.9-1.2c2-7.8,8-14.2,15.8-16.7
			c0.9-0.3,1.6-1.2,1.6-2v-19h10.7v19c0,1,0.6,1.7,1.6,2c8.1,2.5,14.2,9.1,16,17.4C-101.8,426-103.7,426.7-106,427.3z"/>
		<rect x="-127" y="350.8" width="7.4" height="7.4"/>
		<rect x="-127" y="483.6" width="7.4" height="7.4"/>
		<rect x="-175.7" y="462.3" width="7.4" height="7.4"/>
		<rect x="-80.4" y="462.3" width="7.4" height="7.4"/>
		<rect x="-175.7" y="371.1" width="7.4" height="7.4"/>
		<rect x="-80.4" y="371.1" width="7.4" height="7.4"/>
		<rect x="-194.2" y="416.5" width="7.4" height="7.4"/>
		<rect x="-59.7" y="416.5" width="7.4" height="7.4"/>
		<path d="M-180.7,383.6c-5.5,8.4-9,17.7-10.3,27.7l-0.1,0.9h4.4l0.1-0.7c1.5-9.7,5.1-19,10.6-27.1l0.9-1.2h-5.1L-180.7,383.6z"/>
		<path d="M-187,429l-0.1-0.7h-4.2l0.1,0.9c1.3,10.3,4.6,19.7,10.2,28.5l0.3,0.3h5.1l-0.9-1.2C-182,448.5-185.7,438.9-187,429z"/>
		<path d="M-59.8,411.6l0.1,0.7h4.4l-0.1-0.9c-1.5-10-4.9-19.3-10.3-27.7l-0.3-0.3h-5.1l0.9,1.2C-64.9,392.6-61.3,401.9-59.8,411.6z
			"/>
		<path d="M-59.5,428.3l-0.1,0.7c-1.3,9.9-4.9,19.6-10.5,27.7l-0.9,1.2h5.1l0.3-0.3c5.5-8.6,9-18.1,10.2-28.5l0.1-0.9H-59.5
			L-59.5,428.3z"/>
		<path d="M-88.3,367.2l0.1,0.1h7.3l-1.9-1.5c-9.1-7-20.2-11.5-31.6-12.9l-0.9-0.1v4.4l0.7,0.1C-105.1,358.6-96.3,361.8-88.3,367.2z
			"/>
		<path d="M-164,365.9l-1.9,1.5h7.3l0.1-0.1c8.1-5.4,17-8.6,26.6-9.9l0.7-0.1v-4.4l-0.9,0.1C-143.7,354.4-154.7,358.9-164,365.9z"/>
		<path d="M-87.5,474.3c-8.1,5.4-17.4,9-27.1,10.3l-0.7,0.1v4.4l0.9-0.1c11.8-1.6,22.9-6.1,32.4-13.4l1.9-1.5L-87.5,474.3
			L-87.5,474.3z"/>
		<path d="M-159.1,474.3l-0.3-0.1h-7.1l1.9,1.5c9.4,7.3,20.8,11.8,32.5,13.4l0.9,0.1v-4.4l-0.7-0.1
			C-141.7,483.2-151.1,479.5-159.1,474.3z"/>
	</g>
	<g>
		<path d="M-51.4,434.7c-0.5-1.7-2.8-1.6-3.3,0.1c-1.9,6.8-7.1,10.3-14.9,11.1c-5.9,0.6-12.9-0.5-18.2-2.3c-3.1-1.1-5.8-2.4-8.9-4.4
			c-0.5-0.3-4.7-3-5.9-3.7c-3.9-2.3-7.2-3.4-11.1-3.4c-3.5,0-6.8,1-9.7,2.7c-2.8-1.7-6.1-2.7-9.7-2.7c-3.9,0-7.2,1.1-11.1,3.4
			c-1.2,0.8-5.4,3.4-5.9,3.7c-3.2,2-5.8,3.3-8.9,4.4c-5.2,1.8-12.3,2.9-18.2,2.3c-7.8-0.8-12.9-4.3-14.9-11.1
			c-0.5-1.6-2.8-1.7-3.3-0.1c-4.5,14,2.4,24,17.5,29.9c10.7,4.1,25.4,6,37,5.6c6.6-0.2,12.7-2,17.3-4.9c4.7,2.9,10.7,4.7,17.3,4.9
			c11.6,0.4,26.3-1.5,37-5.6C-53.9,458.7-46.8,448.8-51.4,434.7z M-193.2,442.8c5.8,12.9,27.8,15.1,43.2,4.9
			c6.2-4.1,12.1-5.4,17.6-4.8c2,0.3,3.8,0.8,5.4,1.5c1,0.4,1.9,0.9,2.5,1.3c0.3,0.2,0.5,0.7,0.7,1.2c0.1,0.3,0.1,0.6,0.1,0.8v2.6
			c-0.4-0.5-0.9-1-1.7-1.2c-8.5-2.1-18.5-1-29.7,3.6c-13.5,5.5-33,1.6-37.9-8.1C-193.1,444.2-193.2,443.5-193.2,442.8z
			 M-123.9,461.5c-4.2,3.1-10.1,5-16.8,5.2c-11.2,0.4-25.5-1.4-35.7-5.4c-4.1-1.6-7.5-3.4-10.1-5.6c9.2,5.4,21.3,8,34.6,8.2
			c11.9,0.1,24.4-2,27.4-4.1c0.3-0.2,0.4-0.4,0.6-0.6V461.5z M-123.8,457.5c0,0.1,0,0.1-0.1,0.1c-0.3,0.9-0.3,1.2-1,1.7
			c-2.9,1.9-15.2,4.1-27,3.9c-14.8-0.1-27.9-3.3-37.3-10c-0.6-0.8-1.2-1.5-1.7-2.3c10.2,8.9,26.2,11.1,45.9,7.7
			c7.2-1.2,11.2-1.5,15.1-1.1c2,0.1,2,0.1,2.7,0.1c0.8-0.1,1.6-0.2,2.5-0.5c0.3-0.1,0.6-0.3,0.8-0.6V457.5z M-123.9,455.3v0.3
			l-0.1,0.1c-0.1,0.1-0.4,0.3-0.4,0.5c-0.2,0.2-0.4,0.4-0.6,0.5c-0.8,0.4-1.5,0.5-2.2,0.6c-0.6,0.1-0.6,0.1-2.5-0.1
			c-4-0.4-8.1-0.1-15.4,1.1c-16,2.8-29.5,1.8-39.4-3.5c7.6,3.4,18,4.3,29.5,2c20.3-4.1,24.8-4.5,30.1-2.3c0.5,0.3,0.8,0.5,0.8,0.8
			L-123.9,455.3L-123.9,455.3z M-123.7,454.1c-0.1-0.1-0.4-0.3-0.6-0.5c-5.6-2.3-10.1-1.9-30.6,2.2c-16.2,3.3-30.1,0.1-37-7.5
			c-0.4-0.5-0.5-1-0.7-1.6c6.3,8.9,24.8,12.1,37.8,6.8c11.1-4.5,21.1-5.6,29.3-3.6c0.8,0.2,1.2,0.7,1.5,1.4c0.1,0.3,0.2,0.5,0.2,0.8
			c0,0.2-0.1,0.3,0,0.5h0.1V454.1z M-123.7,445.5c-0.1-0.1-0.3-0.3-0.5-0.4c-0.6-0.4-1.5-0.9-2.5-1.4c-1.7-0.7-3.5-1.2-5.6-1.4
			c-5.6-0.7-11.6,0.7-18,4.9c-15.7,10.3-38.1,7.7-42.8-6.1v-0.3c0,0,0,0.1,0.1,0.1c0.5,0.8,1.1,1.5,1.8,2.1
			c2.2,3.6,8.6,6.8,15.9,8.1c8.5,1.4,17.1-0.1,24.2-4.7c5.8-3.8,10.7-5.7,15.2-6c3.4-0.3,6,0.3,9.6,1.6c0.2,0.1,0.4,0.1,0.7,0.3
			c0.1,0,0.6,0.2,0.6,0.3c0.4,0.2,0.8,0.5,1,0.9c0.1,0.2,0.2,0.5,0.3,0.7c0,0.1,0,0.1,0,0.1v0.1c0,0.1,0,0.1,0,0.1h0.1V445.5z
			 M-123.6,442.5c-0.3-0.3-0.6-0.6-1-0.8c-0.1-0.1-0.6-0.2-0.7-0.3c-0.3-0.1-0.5-0.2-0.7-0.3c-3.7-1.4-6.4-1.9-9.9-1.7
			c-4.6,0.3-9.6,2.3-15.6,6.1c-6.9,4.5-15.4,5.9-23.7,4.6c-3.7-0.6-7.1-1.7-9.8-3.2c2.3,1,4.9,1.8,7.7,2.1
			c6.4,0.8,13.9-0.4,19.6-2.4c3.4-1.2,6.3-2.6,9.6-4.8c0.2-0.1,1.2-0.8,2.3-1.5c3.9-2,7.5-3,10.7-3.1c3.4-0.1,5.7,0.4,9.9,2
			c0.8,0.3,1.6,1.9,1.6,2.3V442.5z M-123.6,440.3c-0.4-0.6-0.9-1.2-1.4-1.4c-4.3-1.6-6.6-2.2-10.1-2.1c-2.2,0.1-4.5,0.6-7,1.5
			c3.4-2,6-2.9,9.2-2.9c3.5,0,6.7,1.2,9.4,3.2V440.3z M-123,438.5c2.6-1.9,5.8-3.1,9.3-3.1c3.2,0,5.9,0.9,9.3,2.9
			c-2.5-0.9-4.8-1.4-7-1.5c-3.5-0.1-5.9,0.4-10.1,2.1c-0.5,0.2-1.1,0.8-1.4,1.5V438.5z M-123,442L-123,442c0.1-0.4,1-2.1,1.7-2.4
			c4.2-1.6,6.5-2.1,9.8-2c3.2,0.1,6.8,1.1,10.7,3c1.1,0.7,2,1.3,2.2,1.5c3.4,2.1,6.3,3.6,9.6,4.8c5.7,2,13.2,3.2,19.6,2.5
			c2.1-0.2,4-0.6,5.8-1.2c-2.4,1-5.2,1.8-8,2.3c-8.3,1.4-16.8-0.1-23.7-4.6c-5.9-3.8-11-5.8-15.6-6.1c-3.4-0.3-6.2,0.3-9.9,1.7
			c-0.2,0.1-0.4,0.1-0.7,0.3c-0.1,0-0.5,0.2-0.7,0.3c-0.4,0.1-0.7,0.4-1,0.7V442z M-123.2,454.9c0.1-0.2,0.3-0.3,0.8-0.7
			c5.4-2.2,9.8-1.8,30.1,2.3c11.3,2.3,21.5,1.4,29.2-1.9c-9.8,5.2-23.2,6-39,3.3c-7.3-1.2-11.4-1.4-15.4-1.1c-2,0.1-1.9,0.1-2.5,0.1
			c-0.7-0.1-1.4-0.2-2.2-0.5c-0.3-0.1-0.5-0.3-0.6-0.5c-0.1-0.1-0.3-0.3-0.4-0.5V454.9z M-70.2,461.4c-10.3,4-24.5,5.8-35.7,5.4
			c-6.9-0.2-13.1-2.3-17.3-5.6v-2c0.1,0.2,0.3,0.4,0.6,0.6c3,2.1,15.6,4.2,27.4,4.1c14.3-0.1,27-3.1,36.5-9.4
			C-61.5,457.2-65.4,459.4-70.2,461.4z M-56.6,452.2c-9.5,7.4-23.1,10.8-38.5,11c-11.8,0.1-24.1-1.9-27-3.9c-0.6-0.5-0.8-0.8-1-1.7
			v-1.1c0.2,0.2,0.5,0.4,0.8,0.6c0.9,0.3,1.6,0.5,2.5,0.5c0.7,0.1,0.6,0.1,2.7-0.1c3.9-0.3,7.9-0.1,15.2,1.1
			c20.4,3.5,36.8,1.1,46.9-8.7C-55.7,450.7-56.1,451.5-56.6,452.2z M-54.2,447.4c-6.7,8.3-21.1,11.8-37.9,8.5
			c-20.5-4.1-25-4.5-30.6-2.2c-0.2,0.1-0.3,0.2-0.5,0.3v-2.1c0.1-0.2,0.1-0.4,0.2-0.6c0.3-0.7,0.8-1.2,1.5-1.4
			c8.3-2,18.3-1,29.5,3.6c13,5.2,31.3,2.1,37.8-6.5C-54.1,447.1-54.1,447.3-54.2,447.4z M-53.7,445.1c-5.2,9.5-24.6,13.3-38,7.8
			c-11.3-4.6-21.5-5.7-29.9-3.7c-0.6,0.2-1.2,0.5-1.5,1v-1.5h0.1v-0.2c0-0.5,0-1,0.1-1.5c0.1-0.6,0.3-1,0.7-1.2
			c0.6-0.4,1.4-0.8,2.5-1.3c1.6-0.7,3.4-1.2,5.4-1.4c5.4-0.7,11.3,0.7,17.6,4.8c15.6,10.3,37.7,8,43.4-5.2
			C-53.5,443.5-53.6,444.3-53.7,445.1z M-53.5,440.9c-4.3,14.2-27.1,17-43,6.5c-6.3-4.1-12.4-5.6-18-4.9c-2.1,0.3-3.9,0.8-5.6,1.5
			c-1.1,0.5-1.9,0.9-2.5,1.4c-0.1,0.1-0.3,0.2-0.4,0.3v-1.4h0.1v-0.1c0,0,0,0,0-0.1V444c0.1-0.3,0.1-0.5,0.3-0.7
			c0.2-0.4,0.5-0.7,1-0.9c0.1-0.1,0.6-0.2,0.6-0.3c0.3-0.1,0.5-0.2,0.7-0.3c3.6-1.3,6.3-1.9,9.6-1.6c4.4,0.3,9.4,2.2,15.2,6
			c7,4.6,15.7,6.1,24.2,4.7c7-1.2,13.1-4.1,15.6-7.5c0.8-0.8,1.5-1.8,2.2-2.8C-53.5,440.8-53.5,440.8-53.5,440.9z"/>
		<path class="st0" d="M-104.4,438.3c-2.5-0.9-4.8-1.4-7-1.5c-3.5-0.1-5.9,0.4-10.1,2.1c-0.5,0.2-1.1,0.8-1.4,1.5v-1.9
			c2.6-1.9,5.8-3.1,9.3-3.1C-110.4,435.4-107.8,436.3-104.4,438.3z"/>
		<path class="st0" d="M-63.4,448.1c-2.4,1-5.2,1.8-8,2.3c-8.3,1.4-16.8-0.1-23.7-4.6c-5.9-3.8-11-5.8-15.6-6.1
			c-3.4-0.3-6.2,0.3-9.9,1.7c-0.2,0.1-0.4,0.1-0.7,0.3c-0.1,0-0.5,0.2-0.7,0.3c-0.4,0.1-0.7,0.4-1,0.7V442h0.1
			c0-0.4,0.9-2.1,1.7-2.4c4.2-1.6,6.5-2.1,9.8-2c3.2,0.1,6.8,1.1,10.7,3c1.1,0.7,2,1.3,2.2,1.5c3.4,2.1,6.3,3.6,9.6,4.8
			c5.7,2,13.2,3.2,19.6,2.5C-67.1,449.1-65.2,448.6-63.4,448.1z"/>
		<path class="st0" d="M-53.5,440.7c0,0.1,0,0.1,0,0.1c-4.3,14.2-27.1,17-43,6.5c-6.3-4.1-12.4-5.6-18-4.9c-2.1,0.3-3.9,0.8-5.6,1.5
			c-1.1,0.5-1.9,0.9-2.5,1.4c-0.1,0.1-0.3,0.2-0.4,0.3v-1.4h0.1v-0.1c0,0,0,0,0-0.1V444c0.1-0.3,0.1-0.5,0.3-0.7
			c0.2-0.4,0.5-0.7,1-0.9c0.1-0.1,0.6-0.2,0.6-0.3c0.3-0.1,0.5-0.2,0.7-0.3c3.6-1.3,6.3-1.9,9.6-1.6c4.4,0.3,9.4,2.2,15.2,6
			c7,4.6,15.7,6.1,24.2,4.7c7-1.2,13.1-4.1,15.6-7.5C-55,442.7-54.2,441.8-53.5,440.7z"/>
		<path class="st0" d="M-53.5,442.7c0,0.8-0.1,1.6-0.1,2.3c-5.2,9.5-24.6,13.3-38,7.8c-11.3-4.6-21.5-5.7-29.9-3.7
			c-0.6,0.2-1.2,0.5-1.5,1v-1.5h0.1v-0.2c0-0.5,0-1,0.1-1.5c0.1-0.6,0.3-1,0.7-1.2c0.6-0.4,1.4-0.8,2.5-1.3c1.6-0.7,3.4-1.2,5.4-1.4
			c5.4-0.7,11.3,0.7,17.6,4.8C-81.3,458.2-59.2,455.9-53.5,442.7z"/>
		<path class="st0" d="M-54.1,447c-0.1,0.1-0.1,0.3-0.1,0.4c-6.7,8.3-21.1,11.8-37.9,8.5c-20.5-4.1-25-4.5-30.6-2.2
			c-0.2,0.1-0.3,0.2-0.5,0.3v-2.1c0.1-0.2,0.1-0.4,0.2-0.6c0.3-0.7,0.8-1.2,1.5-1.4c8.3-2,18.3-1,29.5,3.6
			C-78.9,458.8-60.5,455.7-54.1,447z"/>
		<path class="st0" d="M-63,454.6c-9.8,5.2-23.2,6-39,3.3c-7.3-1.2-11.4-1.4-15.4-1.1c-2,0.1-1.9,0.1-2.5,0.1
			c-0.7-0.1-1.4-0.2-2.2-0.5c-0.3-0.1-0.5-0.3-0.6-0.5c-0.1-0.1-0.3-0.3-0.4-0.5v-0.5c0.1-0.2,0.3-0.3,0.8-0.7
			c5.4-2.2,9.8-1.8,30.1,2.3C-80.9,458.8-70.7,457.9-63,454.6z"/>
		<path class="st0" d="M-55.2,449.9c-0.4,0.8-0.9,1.5-1.4,2.3c-9.5,7.4-23.1,10.8-38.5,11c-11.8,0.1-24.1-1.9-27-3.9
			c-0.6-0.5-0.8-0.8-1-1.7v-1.1c0.2,0.2,0.5,0.4,0.8,0.6c0.9,0.3,1.6,0.5,2.5,0.5c0.7,0.1,0.6,0.1,2.7-0.1c3.9-0.3,7.9-0.1,15.2,1.1
			C-81.7,462.1-65.4,459.7-55.2,449.9z"/>
		<path class="st0" d="M-58.7,454.6c-2.8,2.7-6.6,4.9-11.4,6.8c-10.3,4-24.5,5.8-35.7,5.4c-6.9-0.2-13.1-2.3-17.3-5.6v-2
			c0.1,0.2,0.3,0.4,0.6,0.6c3,2.1,15.6,4.2,27.4,4.1C-81,463.8-68.2,460.8-58.7,454.6z"/>
		<path class="st0" d="M-123.9,459.2v2.3c-4.2,3.1-10.1,5-16.8,5.2c-11.2,0.4-25.5-1.4-35.7-5.4c-4.1-1.6-7.5-3.4-10.1-5.6
			c9.2,5.4,21.3,8,34.6,8.2c11.9,0.1,24.4-2,27.4-4.1C-124.3,459.7-124.1,459.4-123.9,459.2z"/>
		<path class="st0" d="M-123.8,456.6v1c0,0.1,0,0.1-0.1,0.1c-0.3,0.9-0.3,1.2-1,1.7c-2.9,1.9-15.2,4.1-27,3.9
			c-14.8-0.1-27.9-3.3-37.3-10c-0.6-0.8-1.2-1.5-1.7-2.3c10.2,8.9,26.2,11.1,45.9,7.7c7.2-1.2,11.2-1.5,15.1-1.1
			c2,0.1,2,0.1,2.7,0.1c0.8-0.1,1.6-0.2,2.5-0.5C-124.3,457-124,456.8-123.8,456.6z"/>
		<path class="st0" d="M-123.9,455.3v0.3l-0.1,0.1c-0.1,0.1-0.4,0.3-0.4,0.5c-0.2,0.2-0.4,0.4-0.6,0.5c-0.8,0.4-1.5,0.5-2.2,0.6
			c-0.6,0.1-0.6,0.1-2.5-0.1c-4-0.4-8.1-0.1-15.4,1.1c-16,2.8-29.5,1.8-39.4-3.5c7.6,3.4,18,4.3,29.5,2c20.3-4.1,24.8-4.5,30.1-2.3
			c0.5,0.3,0.8,0.5,0.8,0.8L-123.9,455.3L-123.9,455.3z"/>
		<path class="st0" d="M-123.7,452.6v1.6c-0.1-0.1-0.4-0.3-0.6-0.5c-5.6-2.3-10.1-1.9-30.6,2.2c-16.2,3.3-30.1,0.1-37-7.5
			c-0.4-0.5-0.5-1-0.7-1.6c6.3,8.9,24.8,12.1,37.8,6.8c11.1-4.5,21.1-5.6,29.3-3.6c0.8,0.2,1.2,0.7,1.5,1.4c0.1,0.3,0.2,0.5,0.2,0.8
			C-123.8,452.3-123.9,452.4-123.7,452.6L-123.7,452.6z"/>
		<path class="st0" d="M-123.8,447.8v2.6c-0.4-0.5-0.9-1-1.7-1.2c-8.5-2.1-18.5-1-29.7,3.6c-13.5,5.5-33,1.6-37.9-8.1
			c-0.1-0.6-0.1-1.3-0.1-2c5.8,12.9,27.8,15.1,43.2,4.9c6.2-4.1,12.1-5.4,17.6-4.8c2,0.3,3.8,0.8,5.4,1.5c1,0.4,1.9,0.9,2.5,1.3
			c0.3,0.2,0.5,0.7,0.7,1.2C-123.8,447.3-123.8,447.5-123.8,447.8z"/>
		<path class="st0" d="M-123.7,444.4v1.1c-0.1-0.1-0.3-0.3-0.5-0.4c-0.6-0.4-1.5-0.9-2.5-1.4c-1.7-0.7-3.5-1.2-5.6-1.4
			c-5.6-0.7-11.6,0.7-18,4.9c-15.7,10.3-38.1,7.7-42.8-6.1v-0.3c0,0,0,0.1,0.1,0.1c0.5,0.8,1.1,1.5,1.8,2.1
			c2.2,3.6,8.6,6.8,15.9,8.1c8.5,1.4,17.1-0.1,24.2-4.7c5.8-3.8,10.7-5.7,15.2-6c3.4-0.3,6,0.3,9.6,1.6c0.2,0.1,0.4,0.1,0.7,0.3
			c0.1,0,0.6,0.2,0.6,0.3c0.4,0.2,0.8,0.5,1,0.9c0.1,0.2,0.2,0.5,0.3,0.7c0,0.1,0,0.1,0,0.1v0.1
			C-123.7,444.3-123.7,444.4-123.7,444.4L-123.7,444.4z"/>
		<path class="st0" d="M-123.6,441.8v0.7c-0.3-0.3-0.6-0.6-1-0.8c-0.1-0.1-0.6-0.2-0.7-0.3c-0.3-0.1-0.5-0.2-0.7-0.3
			c-3.7-1.4-6.4-1.9-9.9-1.7c-4.6,0.3-9.6,2.3-15.6,6.1c-6.9,4.5-15.4,5.9-23.7,4.6c-3.7-0.6-7.1-1.7-9.8-3.2c2.3,1,4.9,1.8,7.7,2.1
			c6.4,0.8,13.9-0.4,19.6-2.4c3.4-1.2,6.3-2.6,9.6-4.8c0.2-0.1,1.2-0.8,2.3-1.5c3.9-2,7.5-3,10.7-3.1c3.4-0.1,5.7,0.4,9.9,2
			C-124.5,439.8-123.6,441.3-123.6,441.8z"/>
		<path class="st0" d="M-123.6,438.6v1.7c-0.4-0.6-0.9-1.2-1.4-1.4c-4.3-1.6-6.6-2.2-10.1-2.1c-2.2,0.1-4.5,0.6-7,1.5
			c3.4-2,6-2.9,9.2-2.9C-129.4,435.4-126.2,436.6-123.6,438.6z"/>
	</g>
</g>
</svg>
