<?xml version="1.0" encoding="utf-8"?>
<!-- Generator: Adobe Illustrator 19.0.0, SVG Export Plug-In . SVG Version: 6.00 Build 0)  -->
<svg version="1.1" id="Capa_1" xmlns="http://www.w3.org/2000/svg" xmlns:xlink="http://www.w3.org/1999/xlink" x="0px" y="0px"
	 viewBox="-210 325.9 173.5 190" style="enable-background:new -210 325.9 173.5 190;" xml:space="preserve">
<style type="text/css">
	.st0{fill:none;}
</style>
<g>
	<path d="M-123.3,483"/>
</g>
<g>
	<path class="st0" d="M-97,364.2c2.6-5.8,1-12.7-5.8-11c-9.3,2.3-14,15.4-15.5,23.6c-0.6,3-0.7,6.2-0.8,9.4
		C-110.6,380.7-101.2,373.7-97,364.2z"/>
	<path class="st0" d="M-123.9,426.7c-0.1-3.4-0.2-6.7-0.2-10.1c-2.7,1-5,2.8-6.7,5.5c-4.2,6.6-5,16.8,3.1,20.9
		c3.2,1.6,0.4,6.4-2.8,4.8c-1-0.4-1.9-1-2.7-1.7c-9.1-6.8-7.7-22.3-0.1-29.6c2.7-2.6,5.8-4.4,9.1-5.4c-0.1-5-0.2-10-0.2-14.9
		c-4.1,2.7-8,5.8-11.2,9.6c-7.5,8.9-11.7,18.4-10.1,30.3c1.5,11.4,10.9,20.6,22.2,20.9C-123.3,446.8-123.7,436.7-123.9,426.7z"/>
	<path class="st0" d="M-118.6,415.6c0.1,4.6,0.2,9.1,0.3,13.7c0.2,8.4,0.5,16.8,0.4,25.1c0,0.6,0,1.2,0,1.8c0.3-0.1,0.6-0.1,0.8-0.2
		c15.7-4.5,21.5-23.6,9.8-35.7C-110.2,417.2-114.4,415.6-118.6,415.6z"/>
	<path d="M-118.7,410.1c-0.1-4.3-0.2-8.5-0.2-12.8c0-1.6-0.1-3.2-0.1-4.8c5.5-3.4,11-6.7,15.6-11.1c6.2-5.9,13.2-14.1,13.2-23.1
		c0-14.8-16.8-12-23.5-4.5c-7.8,8.6-10.5,20.6-10.7,31.8c0,1.3,0,2.7-0.1,4c-8.7,5.9-16.3,11.9-21.9,21.4
		c-10.8,18.3-5.2,45.5,17.7,50.4c1.6,0.3,3.3,0.5,4.8,0.6c-0.1,1-0.1,1.9-0.2,2.9c-0.5,6.5-1,16.2-7.3,19.9
		c-1.5,0.9-3.1,1.7-4.8,2.3c1-1.4,1.6-3.1,1.9-5.2c0-0.2,0.1-0.4,0.1-0.7c0-0.3,0-0.5-0.1-0.7c-1-11.7-18.6-12.2-21.7-1.9
		c-0.2,0.5-0.3,1-0.4,1.6c0,0.3-0.1,0.6-0.1,1c-0.2,2.6,0.7,5.3,2.2,6.9c1.8,2.3,3.6,3.6,5.7,4.5c7.5,3.2,17.7,0,23.5-5.5
		c5.9-5.6,6.8-16.4,7-25.5c19.2-3.4,30.2-27.4,15.7-44.2C-106.7,412.4-112.7,410-118.7,410.1z M-102.8,353.2c6.8-1.7,8.3,5.2,5.8,11
		c-4.2,9.5-13.6,16.5-22.1,22c0-3.2,0.2-6.4,0.8-9.4C-116.7,368.7-112,355.5-102.8,353.2z M-145.7,435.9
		c-1.6-11.9,2.6-21.4,10.1-30.3c3.2-3.8,7.1-6.8,11.2-9.6c0,5,0.1,10,0.2,14.9c-3.3,1-6.4,2.8-9.1,5.4c-7.6,7.3-9.1,22.9,0.1,29.6
		c0.8,0.7,1.7,1.3,2.7,1.7c3.2,1.6,6-3.2,2.8-4.8c-8.1-4.1-7.3-14.3-3.1-20.9c1.7-2.6,4.1-4.4,6.7-5.5c0.1,3.4,0.2,6.7,0.2,10.1
		c0.2,10,0.6,20.1,0.3,30.1C-134.8,456.6-144.2,447.3-145.7,435.9z M-117.1,456c-0.3,0.1-0.6,0.1-0.8,0.2c0-0.6,0-1.2,0-1.8
		c0.1-8.4-0.2-16.8-0.4-25.1c-0.1-4.5-0.2-9.1-0.3-13.7c4.1,0,8.3,1.6,11.3,4.6C-95.6,432.3-101.4,451.5-117.1,456z"/>
</g>
</svg>
