<?xml version="1.0" encoding="utf-8"?>
<!-- Generator: Adobe Illustrator 19.0.0, SVG Export Plug-In . SVG Version: 6.00 Build 0)  -->
<svg version="1.1" id="Capa_1" xmlns="http://www.w3.org/2000/svg" xmlns:xlink="http://www.w3.org/1999/xlink" x="0px" y="0px"
	 viewBox="-210 325.9 173.5 190" style="enable-background:new -210 325.9 173.5 190;" xml:space="preserve">
<g>
	<path d="M-125.6,398.4c2.3,2.9,5.2,5.4,9.2,4c4.1-1.4,4.7-5.1,4.1-8.9c-0.3-1.7-1.3-3.4-1.5-5.1c-0.3-2.6-0.6-5.3,0-7.7
		c0.8-4,1.6-7.1,2.8-11c0.2-0.3,0.1-1.5,0-2.3c-0.3-3.5-0.3-5.8-1-9.3c-0.9-5.5-7-7.7-10.7-3.6c-2.3,2.6-3.9,6.5-4,9.9
		c0,4.8,1.4,9.6,2.6,14.4c0.8,3,0.9,5.4-1.3,7.8C-129,390.7-129.1,393.8-125.6,398.4z"/>
	<path d="M-95.4,411.4c3.3,1.4,6.1-0.2,8.3-2.7c1.2-1.3,2.3-2.8,3-4.4c3.5-7.8,7-15.7,10.3-23.6c0.7-1.7,0.8-3.8,0.9-4.4
		c0.2-4.7-0.4-7.7-4.2-8.7c-3.7-0.9-6.4,0.8-8.1,4.1c-0.8,1.6-1.5,3.5-1.2,5.1c1.5,8.5-1.3,14.7-8.8,19.1c-2,1.2-3.4,4.5-3.9,7.1
		C-99.7,406.2-99,409.8-95.4,411.4z"/>
	<path d="M-169.1,432.9c-4.3-9.5-13.4-10.9-20.9-12.8c-6.3,0-9.3,3.2-6.9,6.3c5,6.5,10.2,12.9,17.9,16.5c3.1,1.4,6.4,2.3,9.2-0.5
		C-167,439.5-167.6,436.1-169.1,432.9z"/>
	<path d="M-49.1,394.9c-0.8-1.7-3.4-3.6-5.4-3.7c-2-0.1-4.8,1.4-5.6,2.8c-3,5.1-5.7,10.3-7.9,15.8c-0.5,1.3,0.6,4.3,1.7,4.8
		c1.2,0.6,3.7-0.5,5-1.6c3.1-2.4,6-5.2,8.9-8c1.1-1,2.3-2.2,2.7-3.5C-49.1,399.4-48.3,396.7-49.1,394.9z"/>
	<path d="M-71.2,417.2c-0.4,0.1-4.2,5.3-4.3,5.8c-0.1,0.6,1.6,2.1,2,2c0.4,0,6.3-5.2,6.3-5.6C-67.2,419-70.8,417-71.2,417.2z"/>
	<g>
		<path d="M-80,429.5c-6.1-5.2-11.5-11.8-20.9-11.1c-1.6,0.1-4.5-1.7-4.8-3.1c-1-4.7-4.5-5.8-8.2-6.2c-3.8-0.4-7.7-0.1-11.6,0
			c-3.1,0.1-2.5,0.1-6.3-1.1c-3.8-1.2-17.2,7-18.5,9.3s-1.5,8.1-0.1,12.6c0.6,1.9-0.3,5-1.6,6.8c-3,4.2-5.9,9.3-10.2,11.6
			c-9.3,5.2-5.7,12.5-4.5,19.4c1,6.1,3.3,12,9.3,15.1c7.8,3.9,16.1,3.6,24.4,1.5c1.6-0.4,3.4-1.5,4.4-2.8c1-1.3,1.9-3.5,1.5-4.7
			c-0.1-0.3-0.3-0.5-0.6-0.6c-1.4-1.8-4.9-6.8-3.5-11.9c1.8-6.3,5.6-6.5,6.5,0c0.9,6.5,2.2,10,2.2,10c-0.3,2.6,0,5.8,1.3,8
			c4,6.4,10.1,8.6,17.4,6.6c6.7-1.8,12.4-5,14.3-12.5c0.9-3.6,2.5-7,3.7-10.5c2.9-8.4,5.8-16.9,8.3-25.4
			C-76.3,436.4-76.7,432.2-80,429.5z"/>
		<path d="M-156.3,386.9c1.7,2.5,2.8,4.5,2.4,7.7c-0.3,2.3,0.1,5.3,1.3,7.2c1.1,1.7,0.3,2.2,3.2,5.1c2.9,3,11.3-3.8,10.7-5
			c-0.6-1.3-1-2.1-1.4-3.3c-0.9-3.1-2.6-6-3.6-9.1c-2.4-7.5-4.8-15-6.6-22.6c-0.7-3.2-1.5-5.7-4.6-7c-3.5-1.4-7-0.5-8.9,2.2
			c-1.6,2.3-3.2,6.2-2.2,8.4C-163.5,376.3-159.9,381.7-156.3,386.9z"/>
	</g>
</g>
</svg>
