<?xml version="1.0" encoding="utf-8"?>
<!-- Generator: Adobe Illustrator 19.0.0, SVG Export Plug-In . SVG Version: 6.00 Build 0)  -->
<svg version="1.1" id="Capa_1" xmlns="http://www.w3.org/2000/svg" xmlns:xlink="http://www.w3.org/1999/xlink" x="0px" y="0px"
	 viewBox="-210 325.9 173.5 190" style="enable-background:new -210 325.9 173.5 190;" xml:space="preserve">
<g>
	<path d="M-60.2,449.2c1.7-1.4,3.8-2.2,6.1-2.3l1-0.7c0.3-1.5,0.6-3,0.8-4.6l-0.8-1.2c-2.2-1.1-4.1-3-5.1-5.3
		c-0.9,0.6-1.7,1.3-2.3,2.2c0.8,0.7,1.6,1.3,2.5,1.7l0.1,0l0.9,1.4l0,0.1c-0.2,1.5-0.5,3-0.8,4.5l0,0.1l-1.3,0.9h-0.1
		c-0.8,0-1.7,0.1-2.5,0.4C-61.4,447.5-60.9,448.4-60.2,449.2 M-68.3,409.5c-1.3-3.7-0.3-7.6,2.4-10.1l0.3-1.2l-0.1-0.2
		c-0.3-0.6-0.6-1.2-0.9-1.7c-0.3-0.5-0.6-1-0.9-1.5l-0.2-0.3l-1.2-0.4c-0.8,0.2-1.6,0.3-2.4,0.3c-2.8,0-5.4-1.3-7.2-3.6
		c-2.4-3-2.8-7.2-1.1-10.5l-0.1-1.2c-1-0.9-2-1.9-3.1-2.8l-1.2,0.1c-1.5,1.1-3.4,1.8-5.2,1.8c-1.3,0-2.6-0.3-3.7-0.8
		c0.2,0.1,0.3,0.2,0.5,0.4l0.1,0.1l0.3,1.4l0,0.1c-0.1,0.4-0.2,0.8-0.3,1.2c-0.1,0.3-0.1,0.6-0.1,1c1.9,0.2,3.8-0.4,5.3-1.5l0.1-0.1
		l1.5-0.1l0.1,0.1c1.1,1,2.1,1.9,3,2.8l0.1,0.1l0.1,1.5l0,0.1c-0.8,1.6-1.1,3.4-0.8,5.3c0.2-0.1,0.4-0.1,0.6-0.2
		c0.3-0.1,0.6-0.2,0.9-0.4l0.1,0l1.4,0.2l0.1,0.1c0.9,1.1,1.7,2.1,2.4,3.1l0.1,0.1l-0.1,1.4l0,0.1c-0.2,0.3-0.5,0.6-0.6,1l0,0
		c-0.1,0.2-0.3,0.5-0.4,0.8c1.8,1,3.9,1.2,5.8,0.6l0.1,0l1.4,0.4l0.2,0.4c0.3,0.5,0.6,1,0.9,1.5c0.3,0.5,0.6,1.1,0.8,1.6l0.2,0.3
		l-0.4,1.4l-0.1,0.1c-1.3,1.2-2.2,2.8-2.5,4.5c0.1,0,0.3,0,0.4,0c0.3,0,0.6,0,0.8,0h0.1l0.1,0l1.2,0.6l0.2,0.5
		c0.2,0.5,0.4,1,0.5,1.4c0.2,0.5,0.3,1.1,0.5,1.6l0.1,0.4l-0.6,1.3l-0.1,0c-0.3,0.2-0.6,0.4-0.8,0.6c-0.2,0.2-0.4,0.4-0.6,0.6
		c1.4,1.7,3.4,2.7,5.5,2.9l0.1,0l1.2,0.9l0,0.1c0.3,1.3,0.5,2.7,0.7,4.1l0,0.1l-0.8,1.2l-0.1,0c-1.7,0.6-3.1,1.9-3.9,3.5
		c0,0,0.1,0,0.1,0c0.3,0.1,0.6,0.2,0.9,0.3l0.1,0l1,1.1l0,0.1c0,0.7,0,1.3,0,2c0,0.7,0,1.3,0,2l0,0.1l-1,1l-0.1,0
		c-0.3,0.1-0.6,0.2-0.9,0.2c-0.2,0.1-0.4,0.1-0.5,0.2c0.8,2.1,2.4,3.8,4.3,4.7l0.1,0l0.9,1.3l0,0.1c-0.2,1.4-0.4,2.8-0.7,4.1l0,0.1
		l-1.2,0.8h-0.1c-1.9,0-3.7,0.7-5.1,2c0.2,0.2,0.5,0.4,0.7,0.6l0.1,0l0.6,1.3l0,0.1c-0.4,1.3-0.9,2.5-1.3,3.7l0,0.1l-1.2,0.6l-0.1,0
		c-0.3-0.1-0.6-0.1-0.8-0.1c-0.1,0-0.2,0-0.3,0c0.1,2.2,1,4.2,2.6,5.7l0.1,0.1l0.4,1.5l0,0.1c-0.6,1.2-1.3,2.4-2,3.6l-0.1,0.1
		l-1.4,0.3l-0.1,0c-1.9-0.7-4-0.6-5.8,0.2c0,0.1,0.1,0.1,0.1,0.2c0.2,0.3,0.3,0.5,0.5,0.8l0.1,0.1v0.1l0.1,1.4l-0.1,0.1
		c-0.8,1-1.6,2-2.5,3l-0.1,0.1l-1.4,0.1l-0.1,0c-0.2-0.1-0.5-0.3-0.8-0.4c-0.1,0-0.1-0.1-0.2-0.1c-0.5,2-0.2,4.1,0.7,5.9l0,0.1
		l-0.1,1.5l-0.1,0.1c-1,0.9-2,1.8-3.1,2.6l-0.1,0.1l-1.4-0.2l-0.1-0.1c-1.6-1.4-3.7-2.1-5.8-1.9c0,0.2,0,0.3,0.1,0.5
		c0,0.3,0.1,0.6,0.2,0.9l0,0.1l0,0.1l-0.3,1.4l-0.1,0.1c-1.1,0.7-2.2,1.3-3.3,1.9l-0.1,0.1l-1.3-0.4l-0.1-0.1
		c-0.2-0.2-0.4-0.4-0.6-0.6c-0.1-0.1-0.2-0.1-0.2-0.2c-1,1.6-1.3,3.5-1.1,5.4l0,0.1l-0.6,1.4l-0.1,0c-1.2,0.5-2.5,0.9-3.8,1.3
		l-0.1,0l-1.3-0.7l0-0.1c-1.1-1.8-2.8-3.2-4.8-3.8c-0.1,0.2-0.1,0.5-0.2,0.7c-0.1,0.4-0.1,0.7-0.1,1l0,0.1l0,0.1l-0.8,1.1l-0.1,0
		c-1.2,0.2-2.5,0.5-3.7,0.6l-0.1,0l-1.1-0.8l0-0.1c-0.1-0.3-0.3-0.6-0.4-0.9c-0.1-0.2-0.2-0.3-0.3-0.5c-1.4,1.1-2.3,2.7-2.7,4.5
		l0,0.1l-1.1,1.1h-0.1c-1.3,0-2.7-0.1-4-0.1l-0.1,0l-1-1.1l0-0.1c-0.4-2-1.5-3.8-3.1-5.1c-0.2,0.2-0.3,0.5-0.5,0.7
		c-0.1,0.1-0.1,0.2-0.2,0.3l-0.2,0.4c-0.1,0.1-0.1,0.2-0.2,0.3l0,0.1l-1.2,0.8l-0.1,0c-1.2-0.2-2.5-0.5-3.7-0.8l-0.1,0l-0.8-1.2
		l0-0.1c0-0.3,0-0.7-0.1-1.1c0-0.3-0.1-0.5-0.2-0.8c-1.7,0.6-3.2,1.7-4.1,3.3l0,0.1l-1.4,0.6l-0.1,0c-1.3-0.5-2.6-1-3.8-1.6l-0.1,0
		l-0.6-1.3l0-0.1c0.3-1.9-0.1-3.9-1.1-5.6c-0.2,0.1-0.4,0.3-0.6,0.5c-0.3,0.2-0.5,0.5-0.8,0.8l-0.1,0.1l-1.4,0.4l-0.1-0.1
		c-0.2-0.1-0.4-0.3-0.6-0.4c2.5,2.1,3.9,5.5,3.4,8.9l0.5,1.1c1.2,0.6,2.5,1.1,3.8,1.6l1.1-0.5c1.6-2.6,4.4-4.1,7.3-4.1
		c0.6,0,1.3,0.1,1.9,0.2c3.6,0.8,6.5,3.8,7.3,7.6l0.8,0.9c1.4,0.1,2.7,0.1,4.1,0.1l0.9-0.9c0.8-3.7,3.7-6.5,7.3-7
		c0.4-0.1,0.9-0.1,1.3-0.1c3.2,0,6.2,1.8,8,4.7l1,0.5c1.3-0.4,2.6-0.8,3.8-1.3l0.5-1.1c-0.5-3.8,1.3-7.4,4.4-9.2
		c1.3-0.7,2.7-1.1,4.2-1.1c2.1,0,4.2,0.8,5.9,2.2l1.1,0.1c1.1-0.8,2.1-1.7,3.1-2.6l0.1-1.3c-1.7-3.5-1.3-7.5,1.1-10.4
		c1.6-2,4.1-3.1,6.6-3.1c1,0,2.1,0.2,3.1,0.6l1.1-0.3c0.7-1.2,1.4-2.4,2-3.6l-0.3-1.3c-2.7-2.7-3.6-6.7-2.4-10.3
		c1.3-3.6,4.5-5.9,8.2-5.9l0.9-0.7c0.3-1.3,0.5-2.8,0.7-4.2l-0.7-1.1c-3.4-1.6-5.6-5.1-5.6-8.9c0-3.9,2.2-7.2,5.6-8.5l0.7-1
		c-0.2-1.4-0.4-2.8-0.7-4.2l-1-0.8C-63.9,415.7-67.1,413.2-68.3,409.5 M-98.5,367.1L-99,366c-1.3-0.6-2.6-1.1-3.8-1.6l-1.1,0.5
		c-1.6,2.6-4.4,4.1-7.3,4.1c-0.6,0-1.3-0.1-1.9-0.2c-3.6-0.8-6.5-3.8-7.3-7.6l-0.8-0.9c-1.3-0.1-2.7-0.1-4.1-0.1l-0.9,0.9
		c-0.8,3.7-3.7,6.5-7.3,7c-0.4,0.1-0.9,0.1-1.3,0.1c-3.2,0-6.2-1.8-8-4.7l-1-0.5c-1.2,0.4-2.5,0.8-3.8,1.3l-0.5,1.1
		c0.5,3.8-1.3,7.4-4.4,9.3c-1.3,0.7-2.7,1.1-4.2,1.1c-2.1,0-4.2-0.8-5.9-2.2l-1.1-0.1c-1.1,0.9-2.1,1.7-3.1,2.6l-0.1,1.3
		c1.7,3.5,1.3,7.5-1.1,10.4c-1.7,2-4.1,3.1-6.6,3.1c-1.1,0-2.1-0.2-3.1-0.6l-1.1,0.3c-0.7,1.1-1.4,2.4-2,3.6l0.3,1.3
		c2.7,2.7,3.6,6.7,2.4,10.3c-1.3,3.6-4.5,5.9-8.2,5.9l-0.9,0.7c-0.3,1.3-0.5,2.7-0.7,4.2l0.7,1.1c3.4,1.6,5.6,5.1,5.6,8.9
		c0,3.9-2.2,7.2-5.6,8.6l-0.7,1c0.2,1.4,0.4,2.8,0.7,4.2l1,0.8c3.7,0.3,6.9,2.8,8.1,6.5c1.3,3.7,0.3,7.6-2.4,10.1l-0.3,1.2l0.1,0.2
		c0.3,0.6,0.6,1.1,0.9,1.7c0.3,0.6,0.6,1.1,1,1.7l0.1,0.1l1.2,0.4c0.8-0.2,1.6-0.3,2.4-0.3c2.8,0,5.4,1.3,7.2,3.6
		c2.4,3,2.8,7.2,1.1,10.5l0.1,1.2c1,0.9,2,1.9,3.1,2.8l1.2-0.1c1.5-1.1,3.4-1.8,5.2-1.8c1.3,0,2.5,0.3,3.7,0.8
		c-0.2-0.1-0.3-0.2-0.5-0.3l-0.1-0.1l-0.3-1.4l0-0.1c0.1-0.4,0.2-0.8,0.3-1.2c0.1-0.3,0.1-0.6,0.1-1c-1.9-0.2-3.8,0.4-5.3,1.5
		l-0.1,0.1l-1.5,0.1l-0.1-0.1c-1.1-1-2.1-1.9-3-2.8l-0.1-0.1l-0.1-1.5l0-0.1c0.8-1.6,1.1-3.4,0.8-5.3c-0.2,0.1-0.4,0.1-0.6,0.2
		c-0.3,0.1-0.6,0.2-0.9,0.4l-0.1,0l-1.5-0.2l-0.1-0.1c-0.9-1.1-1.7-2.1-2.4-3.1l-0.1-0.1l0.2-1.5c0.2-0.3,0.5-0.6,0.6-1
		c0.2-0.3,0.3-0.6,0.4-0.9c-1.8-1-3.9-1.2-5.8-0.6l-0.1,0l-1.5-0.4l-0.2-0.3c-0.3-0.5-0.6-1.1-0.9-1.6c-0.3-0.5-0.5-1-0.8-1.6
		l-0.2-0.4l0.4-1.4l0.1-0.1c1.3-1.2,2.2-2.8,2.5-4.5c-0.1,0-0.3,0-0.4,0c-0.3,0-0.6,0-0.8,0l-0.1,0l-1.3-0.7l-0.1-0.3
		c-0.2-0.5-0.4-1.1-0.6-1.6c-0.2-0.5-0.3-1.1-0.5-1.6l-0.1-0.4l0.6-1.3l0.1,0c0.3-0.2,0.6-0.4,0.8-0.6c0.2-0.2,0.4-0.4,0.6-0.6
		c-1.4-1.7-3.4-2.7-5.5-2.9l-0.1,0l-1.2-0.9l0-0.1c-0.3-1.3-0.5-2.7-0.7-4.1l0-0.1l0.8-1.2l0.1,0c1.7-0.6,3.1-1.9,3.9-3.5
		c0,0-0.1,0-0.1,0c-0.3-0.1-0.6-0.2-0.8-0.3l-0.1,0l-1-1.1l0-0.1c0-1.3,0-2.6,0-4l0-0.1l1-1l0.1,0c0.3-0.1,0.6-0.1,0.9-0.2
		c0.2-0.1,0.4-0.1,0.5-0.2c-0.8-2.1-2.4-3.8-4.3-4.7l-0.1,0l-0.9-1.3l0-0.1c0.2-1.5,0.4-2.8,0.7-4.1l0-0.1l1.2-0.8h0.1
		c1.9,0,3.7-0.7,5.1-2c-0.2-0.2-0.5-0.4-0.7-0.6l-0.1,0l0-0.1l-0.6-1.3l0-0.1c0.4-1.3,0.9-2.5,1.3-3.7l0-0.1l1.2-0.6l0.1,0
		c0.3,0,0.6,0.1,0.8,0.1c0.1,0,0.2,0,0.3,0c-0.1-2.2-1.1-4.2-2.6-5.7l-0.1-0.1l-0.4-1.5l0-0.1c0.6-1.2,1.3-2.4,2-3.6l0.1-0.1
		l1.4-0.4l0.1,0c1.9,0.7,4,0.6,5.8-0.2c0,0,0-0.1-0.1-0.1l0,0c-0.1-0.3-0.3-0.5-0.5-0.8l0-0.1l-0.1-1.5l0.1-0.1
		c0.8-1.1,1.6-2.1,2.5-3l0.1-0.1l1.4-0.1l0.1,0.1c0.2,0.1,0.5,0.2,0.7,0.4c0.1,0,0.1,0.1,0.2,0.1c0.5-2,0.2-4-0.7-5.9l0-0.1l0.1-1.5
		l0.1-0.1c1-0.9,2-1.7,3.1-2.6l0.1-0.1l1.4,0.2l0.1,0.1c1.6,1.4,3.7,2.1,5.8,1.9c0-0.2,0-0.3-0.1-0.5c-0.1-0.3-0.1-0.6-0.2-0.9
		l0-0.1l0.4-1.4l0.1-0.1c0.7-0.4,1.4-0.9,2.4-1.4l0.3-0.1c0.2-0.1,0.4-0.2,0.7-0.4l0.1-0.1l1.3,0.4l0,0.1c0.2,0.2,0.4,0.4,0.6,0.6
		c0.1,0.1,0.2,0.2,0.2,0.2c1-1.6,1.4-3.5,1.1-5.4l0-0.1l0.6-1.4l0.1,0c1.3-0.5,2.6-0.9,3.8-1.3l0.1,0l1.3,0.7l0,0.1
		c1.1,1.8,2.8,3.2,4.8,3.8c0.1-0.2,0.1-0.5,0.2-0.7c0.1-0.4,0.1-0.7,0.1-1l0-0.1l0.8-1.2l0.1,0c1.3-0.3,2.6-0.5,3.7-0.6l0.1,0
		l1.1,0.8l0,0.1c0.1,0.3,0.3,0.6,0.4,0.8c0.1,0.2,0.2,0.3,0.3,0.5c1.4-1.1,2.3-2.7,2.7-4.5l0-0.1l1.1-1.1h0.1c1.4,0,2.7,0.1,4,0.1
		l0.1,0l1,1.1l0,0.1c0.4,2,1.5,3.8,3.1,5.1c0.2-0.2,0.3-0.5,0.5-0.7c0.2-0.3,0.3-0.7,0.5-1l0-0.1l1.2-0.8l0.1,0
		c1.3,0.2,2.5,0.5,3.7,0.8l0.1,0l0.8,1.2l0,0.1c0,0,0,0,0,0.1c0,0,0,0.1,0,0.1c0,0.4,0,0.7,0.1,0.9c0,0.3,0.1,0.5,0.2,0.8
		c1.7-0.6,3.2-1.7,4.1-3.3l0-0.1l1.4-0.6l0.1,0c1.3,0.5,2.5,1,3.8,1.6l0.1,0l0.6,1.3l0,0.1c-0.3,1.9,0.1,3.9,1.1,5.6
		c0.2-0.2,0.4-0.3,0.6-0.5c0.3-0.2,0.5-0.5,0.8-0.8l0.1-0.1l0.1,0l1.3-0.3l0.1,0.1c0.2,0.1,0.4,0.3,0.7,0.4
		C-97.6,373.8-98.9,370.5-98.5,367.1 M-182.9,426.4c0-2.1-0.7-4.2-2.1-5.9c-1.4,1.6-3.2,2.8-5.2,3.2l-0.9,0.9c-0.1,1.5-0.1,3,0,4.4
		l0.9,1c1.7,0.5,3.3,1.4,4.6,2.8C-183.9,431.2-182.9,428.9-182.9,426.4 M-146.9,479.3c0.9,1.7,1.2,3.6,1,5.4l0.4,1
		c1.1,0.5,2.3,1,3.5,1.5l1-0.5c0.9-1.5,2.4-2.6,4-3.3c-0.3-0.8-0.7-1.5-1.3-2.1c-0.4,0.4-0.7,0.8-1,1.2l0,0.1l-1.3,0.6l-0.1,0
		c-1.2-0.5-2.4-0.9-3.4-1.4l-0.1,0l-0.6-1.2l0-0.1c0.1-0.6,0.1-1.1,0-1.7C-145.5,478.7-146.2,479-146.9,479.3 M-100.5,486.3
		c-0.2-1.9,0.1-3.8,1.1-5.4c-0.7-0.5-1.5-0.8-2.3-1c-0.1,0.7-0.1,1.3,0,2l0,0.1l-0.6,1.3l-0.1,0c-1.1,0.4-2.3,0.8-3.4,1.2l-0.1,0
		l-1.2-0.6l0-0.1c-0.4-0.7-0.9-1.3-1.5-1.8c-0.6,0.7-1.1,1.4-1.4,2.3c2,0.7,3.6,2,4.7,3.9l0.9,0.5c1.2-0.4,2.3-0.8,3.5-1.2
		L-100.5,486.3z M-93.4,478.8c-0.5-1.6-0.4-3.4,0.1-5c-0.6-0.1-1.3-0.2-1.9-0.1c0,0.5,0.1,1,0.3,1.4l0,0.1l-0.3,1.3l-0.1,0.1
		c-1,0.6-2,1.2-3,1.8l-0.1,0.1l-1.2-0.4l-0.1-0.1c-0.2-0.3-0.5-0.6-0.9-0.9c-0.3,0.5-0.6,1.1-0.7,1.7c1.5,0.5,2.8,1.3,3.8,2.5
		l0.9,0.3c1-0.6,2.1-1.1,3-1.8L-93.4,478.8z M-95.3,388.7c-0.6-1.6-0.6-3.4-0.1-5.1l-0.2-0.9c-0.9-0.6-1.8-1.2-2.8-1.8l-0.9,0.2
		c-1.1,1.2-2.5,2-4.1,2.2c0.1,0.6,0.4,1.3,0.7,1.8c0.5-0.3,0.9-0.7,1.3-1.1l0.1-0.1l1.2-0.3l0.1,0.1c0.9,0.5,1.9,1.1,2.8,1.7
		l0.1,0.1l0.3,1.2l0,0.1c-0.2,0.6-0.3,1.3-0.3,2C-96.6,388.9-95.9,388.9-95.3,388.7 M-99.6,377.7c-0.9-1.7-1.2-3.6-1-5.4l-0.4-1
		c-1.2-0.5-2.3-1-3.5-1.5l-1,0.5c-0.9,1.5-2.4,2.6-4,3.3c0.3,0.8,0.7,1.5,1.3,2.1c0.4-0.4,0.7-0.8,1-1.2l0-0.1l1.3-0.6l0.1,0
		c1.2,0.4,2.3,0.9,3.5,1.4l0.1,0l0.6,1.2l0,0.1c-0.1,0.6-0.1,1.1,0,1.7C-101,378.2-100.3,378-99.6,377.7 M-146,370.7
		c0.2,1.9-0.1,3.8-1.1,5.4c0.7,0.5,1.5,0.8,2.3,1c0.1-0.7,0.1-1.3,0-2l0-0.1l0.6-1.3l0.1,0c1.2-0.5,2.3-0.9,3.4-1.2l0.1,0l1.2,0.6
		l0,0.1c0.4,0.7,0.9,1.3,1.5,1.8c0.6-0.7,1.1-1.4,1.4-2.3c-2-0.7-3.6-2-4.7-3.9l-0.9-0.5c-1.1,0.3-2.3,0.7-3.5,1.2L-146,370.7z
		 M-153.1,378.1c0.5,1.6,0.4,3.4-0.1,5c0.6,0.1,1.3,0.2,1.9,0.1c0-0.5-0.1-1-0.3-1.4l0-0.1l0.3-1.3l0.1-0.1c1-0.6,2-1.2,3-1.8
		l0.1-0.1l1.2,0.4l0.1,0.1c0.2,0.3,0.5,0.6,0.9,0.9c0.3-0.5,0.6-1.1,0.7-1.7c-1.5-0.5-2.8-1.3-3.8-2.5l-0.9-0.3
		c-1.1,0.6-2.1,1.2-3,1.8L-153.1,378.1z M-151.2,468.3c0.6,1.6,0.6,3.4,0.1,5.1l0.2,0.9c0.9,0.6,1.8,1.2,2.8,1.8l0.9-0.2
		c1.1-1.2,2.5-2,4.1-2.2c-0.1-0.6-0.4-1.3-0.7-1.8c-0.5,0.3-0.9,0.7-1.3,1.1l-0.1,0.1l-1.2,0.3l-0.1-0.1c-1-0.6-1.9-1.2-2.8-1.7
		l-0.1-0.1l-0.3-1.2l0-0.1c0.2-0.6,0.3-1.3,0.3-2C-149.9,468-150.6,468.1-151.2,468.3 M-144.8,475.1c0.7,1.5,1,3.2,0.8,4.8l0.4,0.9
		c1,0.5,2.1,0.9,3.2,1.3l0.9-0.4c0.8-1.3,2.1-2.3,3.5-2.9c-0.3-0.6-0.6-1.2-1.1-1.7c-0.3,0.3-0.6,0.7-0.8,1.1l0,0.1l-1.2,0.5l-0.1,0
		c-1.1-0.4-2.2-0.9-3.2-1.3l-0.1,0l-0.5-1.2l0-0.1c0.1-0.5,0.1-1,0-1.5C-143.6,474.7-144.2,474.9-144.8,475.1 M-102.5,481.3
		c-0.2-1.7,0.1-3.4,0.9-4.8c-0.6-0.4-1.2-0.6-1.9-0.8c-0.1,0.6-0.1,1.2,0,1.7l0,0.1l-0.5,1.2l-0.1,0c-1,0.4-2.1,0.8-3.2,1.1l-0.1,0
		l-1.1-0.6l0-0.1c-0.3-0.6-0.8-1.1-1.3-1.6c-0.5,0.5-0.9,1.1-1.2,1.8c1.7,0.6,3.2,1.9,4.1,3.5l0.8,0.4c1.1-0.3,2.1-0.7,3.2-1.1
		L-102.5,481.3z M-95.9,474.7c-0.4-1.5-0.4-3.1,0.1-4.6c-0.6-0.1-1.1-0.2-1.7-0.1c0,0.5,0.1,0.9,0.2,1.3l0,0.1l-0.3,1.2l-0.1,0.1
		c-0.9,0.6-1.8,1.1-2.8,1.6l-0.1,0.1l-1.1-0.3l-0.1-0.1c-0.2-0.3-0.5-0.6-0.8-0.8c-0.3,0.5-0.5,1.1-0.7,1.6c1.4,0.4,2.6,1.2,3.5,2.3
		l0.8,0.2c0.9-0.5,1.9-1,2.8-1.6L-95.9,474.7z M-119.8,450.9c-0.4,0.1-0.8,0.1-1.2,0.2l-0.2,0l-0.1-0.2c-0.3-0.9-1.1-1.5-2-1.5
		c-0.9,0-1.7,0.6-2,1.5l-0.1,0.2l-0.2,0c-9.7-1.1-17.6-8.9-19.1-19c-1.9-12.4,6.1-24.2,17.9-26.2c0.4-0.1,0.8-0.1,1.3-0.2l0.2,0
		l0.1,0.2c0.3,0.9,1.1,1.5,2,1.5c0.9,0,1.7-0.6,2-1.5l0.1-0.2l0.2,0c9.6,1.1,17.5,8.9,19,19C-100,437.1-108,448.9-119.8,450.9
		 M-98.6,424.1c-2-12.8-12.4-22.1-24.7-22.1c-1.4,0-2.7,0.1-4.1,0.4c-13.6,2.4-22.9,16-20.6,30.3c2,12.8,12.4,22.2,24.7,22.2
		c1.4,0,2.7-0.1,4.1-0.4C-105.6,452.1-96.3,438.5-98.6,424.1 M-119,455.9c-1.4,0.2-2.9,0.4-4.3,0.4c-13,0-23.9-9.8-26-23.4
		c-2.4-15.2,7.4-29.5,21.8-32c1.4-0.2,2.9-0.4,4.3-0.4c13,0,23.9,9.8,26,23.4C-94.8,439.1-104.6,453.4-119,455.9 M-92.1,401.1
		c-1.7-2.1-1.9-5-0.7-7.4l-0.1-0.8c-0.7-0.7-1.4-1.3-2.1-1.9l-0.8,0.1c-1.1,0.9-2.5,1.4-3.9,1.4c-1.1,0-2.2-0.3-3.2-0.9
		c-2.2-1.4-3.5-4-3.1-6.7l-0.3-0.7c-0.8-0.4-1.7-0.7-2.6-1l-0.7,0.4c-1.2,1.9-3.2,3.1-5.3,3.1c-0.4,0-0.8,0-1.1-0.1
		c-2.6-0.5-4.6-2.5-5.1-5.2l-0.5-0.6c-0.9,0-1.8,0-2.8,0l-0.6,0.6c-0.6,2.6-2.6,4.7-5.1,5.1c-2.5,0.5-5.1-0.8-6.5-3.1l-0.7-0.3
		c-0.9,0.3-1.8,0.6-2.6,1l-0.3,0.8c0.3,2.7-0.9,5.3-3.2,6.6c-1,0.6-2.1,0.9-3.2,0.9c-1.4,0-2.8-0.5-3.9-1.4l-0.7-0.1
		c-0.7,0.6-1.4,1.2-2.1,1.9l-0.1,0.8c1.2,2.4,0.9,5.3-0.8,7.4c-1.2,1.5-3,2.4-4.9,2.4c-0.7,0-1.3-0.1-2-0.3l-0.7,0.2
		c-0.5,0.8-0.9,1.6-1.4,2.5l0.2,0.8c1.9,1.9,2.5,4.7,1.6,7.2c-0.9,2.6-3.1,4.3-5.7,4.4l-0.6,0.5c-0.2,1-0.4,1.9-0.5,2.9l0.5,0.7
		c2.4,1.1,3.9,3.5,3.9,6.2c0,2.7-1.6,5.2-4,6.2l-0.4,0.6l0,0.1c0.1,0.4,0.1,0.9,0.2,1.3c0.1,0.5,0.2,0.9,0.3,1.4l0,0l0.7,0.5
		c2.6,0.1,4.8,1.9,5.7,4.4c0.9,2.6,0.2,5.4-1.7,7.2l-0.2,0.8c0.4,0.8,0.9,1.6,1.4,2.5l0.8,0.2c0.6-0.2,1.2-0.3,1.9-0.3
		c1.9,0,3.7,0.9,4.9,2.4c1.7,2.1,1.9,5,0.7,7.4l0.1,0.8c0.7,0.6,1.4,1.3,2.1,1.9l0.8-0.1c1.1-0.9,2.5-1.4,3.9-1.4
		c1.1,0,2.2,0.3,3.2,0.9c2.2,1.4,3.4,4,3.1,6.7l0.3,0.7c0.8,0.4,1.7,0.7,2.6,1l0.7-0.3c1.4-2.2,4-3.4,6.5-3c2.6,0.5,4.6,2.5,5.1,5.2
		l0.5,0.6c0.9,0,1.8,0,2.8,0l0.6-0.6c0.6-2.6,2.6-4.7,5.1-5.1c0.4-0.1,0.7-0.1,1.1-0.1c2.2,0,4.2,1.2,5.4,3.2l0.7,0.3
		c0.9-0.3,1.7-0.6,2.6-1l0.3-0.8c-0.3-2.7,0.9-5.3,3.2-6.6c1-0.6,2.1-0.9,3.2-0.9c1.4,0,2.8,0.5,3.9,1.4l0.7,0.1
		c0.7-0.6,1.4-1.2,2.1-1.9l0.1-0.8c-1.2-2.4-0.8-5.3,0.8-7.4c1.2-1.5,3-2.4,4.9-2.4c0.7,0,1.3,0.1,2,0.3l0.7-0.2
		c0.5-0.8,0.9-1.7,1.4-2.5l-0.2-0.8c-1.9-1.9-2.5-4.7-1.6-7.2c0.9-2.6,3.1-4.3,5.7-4.4l0.6-0.5c0.2-1,0.4-1.9,0.5-2.9l-0.5-0.7
		c-2.4-1.1-3.9-3.5-3.9-6.2c0-2.7,1.6-5.2,4-6.2l0.4-0.6l0-0.1c-0.1-0.5-0.1-0.9-0.2-1.4c-0.1-0.4-0.2-0.8-0.2-1.3l0-0.2l-0.7-0.5
		c-2.6-0.1-4.8-1.9-5.7-4.4c-0.9-2.6-0.2-5.4,1.7-7.2l0.2-0.8c-0.4-0.8-0.9-1.6-1.4-2.5l-0.8-0.2c-0.6,0.2-1.2,0.3-1.9,0.3
		C-89.1,403.6-90.9,402.7-92.1,401.1 M-103.6,385.7c-0.6-1.3-0.9-2.9-0.7-4.3l-0.4-0.8c-1-0.4-1.9-0.8-2.9-1.2l-0.8,0.4
		c-0.8,1.2-1.9,2.1-3.2,2.7c0.2,0.4,0.5,0.9,0.8,1.3c0.4-0.4,0.7-0.8,1-1.3l0-0.1l1.1-0.5l0.1,0c1,0.3,2,0.7,2.9,1.1l0.1,0l0.5,1.1
		l0,0.1c-0.1,0.6-0.1,1.3,0,2C-104.6,386.1-104.1,385.9-103.6,385.7 M-144,375.6c0.2,1.7-0.1,3.4-0.9,4.8c0.6,0.4,1.2,0.6,1.9,0.8
		c0.1-0.6,0.1-1.2,0-1.7l0-0.1l0.5-1.2l0.1,0c1.1-0.4,2.1-0.8,3.2-1.1l0.1,0l1.1,0.6l0,0.1c0.3,0.6,0.8,1.1,1.3,1.6
		c0.5-0.5,0.9-1.1,1.2-1.8c-1.7-0.6-3.2-1.9-4.1-3.5l-0.8-0.4c-1,0.3-2.1,0.7-3.2,1.1L-144,375.6z M-150.6,382.3
		c0.4,1.5,0.4,3.1-0.1,4.6c0.5,0.1,0.9,0.2,1.4,0.2h0c0.1,0,0.2,0,0.3,0c0-0.5-0.1-0.9-0.2-1.3l0-0.1l0.3-1.2l0.1-0.1
		c0.9-0.6,1.8-1.1,2.8-1.6l0.1-0.1l1.1,0.3l0.1,0.1c0.2,0.3,0.5,0.6,0.8,0.8c0.3-0.5,0.5-1.1,0.7-1.6c-1.4-0.4-2.6-1.2-3.5-2.3
		l-0.8-0.2c-1,0.5-1.9,1.1-2.8,1.6L-150.6,382.3z M-164.4,451.4L-164.4,451.4l0.2-1.2l0.1-0.1c0.5-0.5,0.9-1,1.3-1.7
		c-0.7-0.5-1.5-0.9-2.3-1.1c-0.3,1.4-1.1,2.6-2.1,3.5l-0.2,0.8l0.1,0.1c0.2,0.4,0.4,0.9,0.7,1.3c0.2,0.5,0.5,0.9,0.8,1.3l0,0
		l0.9,0.3c0.6-0.2,1.2-0.3,1.8-0.3c0.9,0,1.9,0.2,2.7,0.6c0-0.2,0.1-0.5,0.1-0.7c-0.5,0-0.9,0.1-1.3,0.3l-0.1,0l-1.2-0.3l-0.1-0.1
		C-163.5,453.2-164,452.3-164.4,451.4 M-169.3,435.4l0-0.3l0.6-1l0.1,0c0.6-0.2,1.1-0.6,1.6-1c-0.5-0.9-1.3-1.6-2.1-2.2
		c-0.8,1.2-1.9,2.1-3.2,2.6l-0.5,0.7c0.1,1.1,0.3,2.1,0.5,3.2l0.8,0.6c1.7,0.1,3.2,0.9,4.4,2.1c0.1-0.2,0.3-0.5,0.4-0.7
		c-0.4-0.1-0.7-0.2-1.1-0.2l-0.1,0l-1-0.7l-0.1-0.3c-0.1-0.5-0.2-0.9-0.3-1.4C-169.2,436.3-169.3,435.9-169.3,435.4 M-168.6,422.4
		l-0.7-1l0-0.1c0.1-1,0.3-2.1,0.5-3.1l0-0.1l0.9-0.7l0.1,0c0.5,0,1.1-0.1,1.6-0.3c-0.2-1.1-0.7-2.1-1.3-2.9c-1.2,1-2.6,1.5-4.1,1.5
		l-0.7,0.5c-0.2,1-0.4,2-0.5,3.2l0.5,0.8c1.6,0.7,2.8,2,3.6,3.7c0.3-0.2,0.7-0.5,0.9-0.8C-168.1,422.7-168.3,422.6-168.6,422.4
		L-168.6,422.4z M-163.9,406.4l-0.3-1.2l0-0.1c0.5-1,1-1.9,1.5-2.8l0.1-0.1l1.1-0.3l0.1,0c0.4,0.1,0.9,0.2,1.3,0.3c0.1-1,0-2-0.3-3
		c-1.5,0.5-3.2,0.5-4.7,0l-0.8,0.2c-0.5,0.9-1,1.8-1.5,2.7l0.2,0.9c1.2,1.2,2,2.8,2.2,4.6c0.6-0.1,1.1-0.3,1.6-0.6
		C-163.5,406.9-163.7,406.7-163.9,406.4L-163.9,406.4z M-162.8,408c-1.2,0.6-2.6,0.8-3.9,0.6l-0.7,0.3c-0.3,0.9-0.7,1.8-1,2.9
		l0.4,0.8c1.3,0.9,2.3,2.4,2.8,4.1c1.3-0.7,2.3-1.9,2.9-3.4C-161.7,411.5-161.9,409.6-162.8,408 M-167,423.5c-0.9,0.9-2,1.5-3.2,1.8
		l-0.6,0.6c0,1,0,2.1,0,3l0.6,0.7c1.6,0.4,2.9,1.4,3.9,2.7c0.9-1.1,1.4-2.5,1.4-4C-164.9,426.4-165.6,424.7-167,423.5 M-165.7,439.7
		c-0.6,1.1-1.4,2-2.4,2.7l-0.3,0.8l0,0.1c0.1,0.4,0.3,0.9,0.4,1.3c0.2,0.5,0.3,0.9,0.5,1.4l0,0l0.8,0.4c0.2,0,0.5,0,0.7,0
		c1.3,0,2.5,0.4,3.6,1.1c0.4-1.3,0.4-2.8,0-4.1C-163,441.7-164.2,440.3-165.7,439.7 M-159.3,454.4c-0.2,1.2-0.6,2.4-1.3,3.4
		l-0.1,0.9c0.6,0.8,1.2,1.5,1.8,2.4l0.9,0.1c1.2-0.6,2.7-0.8,4.1-0.6c0-1.4-0.5-2.8-1.4-3.9C-156.3,455.3-157.7,454.5-159.3,454.4
		 M-156.9,463.4c0.1-0.6,0.1-1.2,0-1.9c-0.5,0.1-0.9,0.3-1.4,0.5l-0.1,0l-1.3-0.1l-0.1-0.1c-0.7-0.9-1.4-1.7-2-2.6l-0.1-0.1l0.1-1.2
		l0.1-0.1c0.4-0.5,0.7-1.1,0.9-1.8c-0.6-0.3-1.3-0.5-1.9-0.6c0,1.8-0.5,3.5-1.5,4.9l-0.1,1c0.6,0.9,1.3,1.7,2,2.6l0.9,0.1
		C-159.9,463.4-158.4,463.1-156.9,463.4 M-166.8,456.9c1,0,2.1,0.2,3,0.6c0.2-0.7,0.2-1.5,0.1-2.2c-0.6,0-1.2,0.1-1.7,0.3l-0.1,0
		l-1.2-0.4l-0.2-0.3c-0.3-0.4-0.5-0.9-0.8-1.3c-0.2-0.4-0.5-0.9-0.7-1.3l-0.2-0.3l0.3-1.2l0.1-0.1c0.3-0.3,0.6-0.6,0.9-1
		c-0.6-0.3-1.2-0.6-1.8-0.7c-0.4,1.5-1.2,2.9-2.3,3.9l-0.2,0.9l0.1,0.2c0.2,0.5,0.5,0.9,0.7,1.4c0.3,0.5,0.5,1,0.8,1.4l0.1,0.1
		l1,0.3C-168.2,457-167.5,456.9-166.8,456.9 M-170.7,448c0.2,0,0.5,0,0.7,0c1.1,0,2.3,0.3,3.3,0.8c0.3-0.5,0.4-1.1,0.6-1.6
		c-0.4,0-0.8,0-1.2,0l-0.1,0l-1.1-0.6l-0.1-0.3c-0.2-0.5-0.3-0.9-0.5-1.4c-0.2-0.4-0.3-0.9-0.4-1.4l-0.1-0.4l0.5-1.1l0.1,0
		c0.5-0.3,0.9-0.7,1.3-1.1c-0.5-0.5-1-1-1.5-1.3c-0.5,1.6-1.6,3-3,3.9l-0.4,0.8l0.1,0.2c0.1,0.5,0.3,0.9,0.4,1.4
		c0.2,0.5,0.4,1,0.5,1.5l0,0.1L-170.7,448z M-176.1,438.9c1.8,0.2,3.5,1,4.9,2.3c0.4-0.6,0.7-1.3,0.9-2.1c-0.7-0.3-1.3-0.5-2-0.5
		l-0.1,0l-1.1-0.8l0-0.1c-0.2-1.1-0.4-2.3-0.6-3.4l0-0.1l0.7-1l0.1,0c0.5-0.2,1-0.4,1.4-0.8c-0.5-0.5-1-1-1.6-1.4
		c-0.9,1.4-2.1,2.4-3.5,3l-0.5,0.8c0.2,1.2,0.4,2.3,0.6,3.5L-176.1,438.9z M-174.5,429.6c1.3,0.3,2.5,1,3.4,2c0.4-0.4,0.7-0.8,1-1.3
		c-0.3-0.1-0.6-0.2-0.9-0.3l-0.1,0l-0.9-0.9l0-0.1c0-1.1,0-2.2,0-3.3l0-0.1l0.8-0.9l0.1,0c0.5-0.1,0.9-0.2,1.4-0.5
		c-0.2-0.6-0.6-1.2-1-1.7c-1,1.2-2.4,2-3.9,2.3l-0.6,0.6c0,1.1,0,2.2,0,3.3L-174.5,429.6z M-173,423.3c0.6-0.4,1.2-0.9,1.6-1.6
		c-0.6-0.6-1.2-1-1.9-1.3l-0.1,0l-0.7-1.1l0-0.1c0.2-1.2,0.4-2.3,0.6-3.4l0-0.1l1-0.7h0.1c0.6,0,1.3-0.1,1.9-0.3
		c-0.3-0.7-0.6-1.3-1.1-1.9c-1.3,1.1-2.9,1.7-4.6,1.7l-0.8,0.5c-0.2,1.1-0.4,2.2-0.6,3.5l0.6,0.9
		C-175.2,420.1-173.8,421.5-173,423.3 M-172.5,410.2l0.4,0.9c1.1,0.8,2,1.9,2.6,3.2c0.5-0.2,0.9-0.5,1.3-0.9
		c-0.2-0.2-0.5-0.4-0.7-0.6l-0.1,0l-0.5-1.2l0-0.1c0.4-1.1,0.7-2.1,1.1-3.1l0-0.1l1.1-0.5l0.1,0c0.4,0.1,0.8,0.1,1.2,0.1
		c0-0.6-0.2-1.2-0.4-1.8c-1.3,0.7-2.8,0.9-4.2,0.7l-0.8,0.4C-171.7,408-172.1,409.1-172.5,410.2 M-171.3,400.8
		c1.3,1.3,2.2,3.1,2.4,5c0.7-0.1,1.4-0.4,2.1-0.8c-0.4-0.7-0.8-1.3-1.4-1.9l-0.1-0.1l-0.3-1.3l0.1-0.1c0.5-1,1.1-2,1.7-3l0.1-0.1
		l1.2-0.3l0.1,0c0.7,0.2,1.4,0.4,2.1,0.4c0-0.8-0.1-1.5-0.4-2.3c-1.6,0.6-3.5,0.7-5.2,0l-0.9,0.2c-0.6,1-1.1,2-1.7,3L-171.3,400.8z
		 M-161.8,391.1c-0.7,0.8-1.4,1.6-2.1,2.5l0.1,1c0.8,1.2,1.3,2.6,1.4,4.1c0.5-0.1,1-0.2,1.5-0.4c-0.2-0.4-0.3-0.7-0.5-0.9l0-0.1
		l-0.1-1.3l0.1-0.1c0.7-0.9,1.4-1.7,2.1-2.5l0.1-0.1l1.2-0.1l0.1,0c0.3,0.2,0.6,0.3,1,0.5c0.1-0.6,0.2-1.2,0.2-1.8
		c-1.4,0.1-2.8-0.2-4-0.9L-161.8,391.1z M-157.8,394.3l-0.8,0.1c-0.6,0.7-1.3,1.5-1.9,2.3l0.1,0.9c1,1.4,1.4,3,1.3,4.7
		c1.6-0.1,3-0.9,4-2.2c1.1-1.4,1.6-3.2,1.3-5C-155.1,395.3-156.6,395-157.8,394.3 M-156.7,389.3c0.7,1.5,1,3.2,0.6,4.8
		c0.7,0.1,1.4,0.1,2.1,0c-0.1-0.4-0.2-0.7-0.4-1l0-0.1l0.1-1.2l0.1-0.1c0.8-0.7,1.6-1.4,2.4-2.1l0.1-0.1l1.1,0.1l0.1,0.1
		c0.3,0.3,0.7,0.5,1.1,0.7c0.3-0.7,0.5-1.5,0.6-2.3h0c-1.6,0-3.2-0.6-4.5-1.7l-0.8-0.1c-0.8,0.6-1.6,1.3-2.4,2L-156.7,389.3z
		 M-141,384.1L-141,384.1l0.5-1.2l0.1,0c0.9-0.4,1.9-0.7,2.9-1.1l0.1,0l1,0.5l0,0.1c0.2,0.4,0.5,0.8,0.8,1.1c0.4-0.5,0.7-1,1-1.5
		c-1.5-0.6-2.8-1.7-3.7-3.1l-0.8-0.4c-0.9,0.3-1.9,0.6-2.9,1l-0.4,0.8c0.2,1.5-0.1,3.1-0.8,4.4c0.6,0.4,1.3,0.6,2.1,0.8
		C-140.9,384.9-140.9,384.5-141,384.1 M-120.1,381.9c0.4-0.2,0.8-0.5,1.2-0.9c-1.2-1.1-2-2.5-2.3-4l-0.6-0.6c-1-0.1-2-0.1-3.1-0.1
		l-0.6,0.6c-0.3,1.4-1,2.7-2.1,3.7c0.4,0.5,0.9,0.9,1.5,1.3c0.2-0.5,0.4-0.9,0.5-1.4l0-0.1l0.8-0.9l0.1,0c0.5,0,0.9,0,1.4,0
		c0.5,0,1.1,0,1.6,0l0.1,0l0.8,0.8l0,0.1C-120.5,380.9-120.3,381.4-120.1,381.9 M-119.5,382.8c0.9,1.3,2.2,2.2,3.7,2.5
		c0.3,0.1,0.7,0.1,1,0.1c1.1,0,2.2-0.3,3.2-1c-0.8-1.2-1.3-2.5-1.3-3.9l-0.5-0.7c-0.9-0.2-1.9-0.4-2.9-0.6l-0.7,0.5
		C-117.4,380.9-118.4,382-119.5,382.8 M-126.5,382.7c-1.2-0.8-2.2-2-2.7-3.4l-0.6-0.5c-0.9,0.1-1.8,0.3-2.9,0.5l-0.5,0.7
		c-0.1,1.5-0.6,2.9-1.5,4.1c1,0.8,2.2,1.2,3.4,1.2c0.3,0,0.7,0,1-0.1C-128.8,384.9-127.4,384-126.5,382.7 M-141.1,386.4
		c-1.4-0.3-2.7-1.1-3.7-2.2l-0.7-0.2c-0.9,0.5-1.7,1-2.5,1.5l-0.2,0.9c0.4,1.5,0.4,3.2-0.2,4.7c0.6,0.2,1.1,0.3,1.7,0.3
		c1,0,2-0.3,2.9-0.8C-142.5,389.5-141.5,388-141.1,386.4 M-134.1,375.5c-0.1,1.7-0.7,3.3-1.7,4.5c0.5,0.4,1.1,0.6,1.7,0.8
		c0.1-0.5,0.2-1.1,0.3-1.6l0-0.1l0.7-1l0.1,0c1.1-0.2,2.2-0.4,3.2-0.5l0.1,0l1,0.7l0,0.1c0.2,0.4,0.4,0.9,0.7,1.3
		c0.5-0.4,0.9-0.9,1.2-1.4c-1.2-0.9-2.2-2.1-2.8-3.6l-0.7-0.5c-1,0.1-2,0.3-3.1,0.5L-134.1,375.5z M-125.6,372c-0.3,1.5-1.1,3-2.3,4
		c0.4,0.5,0.9,1,1.5,1.3c0.2-0.5,0.4-0.9,0.5-1.4l0-0.1l0.9-0.9h0.1c1.2,0,2.3,0,3.4,0.1l0.1,0l0.9,0.9l0,0.1
		c0.1,0.6,0.3,1.2,0.6,1.7c0.6-0.3,1.2-0.7,1.7-1.2c-1.3-1.2-2.2-2.8-2.6-4.5l-0.7-0.7c-1.1-0.1-2.2-0.1-3.4-0.1L-125.6,372z
		 M-119.5,378.8c0.4,0.5,0.8,1,1.3,1.5c0.4-0.5,0.6-1,0.9-1.5l0-0.1l1-0.7l0.1,0c1.1,0.2,2.1,0.4,3.1,0.7l0.1,0l0.7,1v0.1
		c0,0.6,0.1,1.2,0.3,1.8c0.6-0.2,1.2-0.5,1.7-0.9c-1-1.3-1.6-2.9-1.6-4.6l-0.5-0.8c-1-0.2-2-0.5-3.1-0.7l-0.8,0.5
		C-116.9,376.7-118,378-119.5,378.8 M-101.4,385.2c-0.9,1-2.2,1.7-3.5,2c0.5,1.4,1.4,2.6,2.6,3.4c0.9,0.6,1.9,0.8,2.9,0.8
		c0.5,0,0.9-0.1,1.4-0.2c-0.3-1.3-0.3-2.6,0.1-3.9l-0.2-0.8c-0.8-0.6-1.7-1.1-2.5-1.6L-101.4,385.2z M-142.9,471.2
		c0.6,1.3,0.9,2.9,0.7,4.3l0.4,0.8c0.9,0.4,1.9,0.8,2.9,1.2l0.8-0.4c0.8-1.2,1.9-2.1,3.2-2.7c-0.2-0.4-0.5-0.9-0.8-1.3
		c-0.4,0.4-0.8,0.8-1,1.3l0,0.1l-1.1,0.5l-0.1,0c-0.9-0.3-1.9-0.7-2.9-1.1l-0.1,0l-0.5-1.1l0-0.1c0.1-0.6,0.1-1.3,0-2
		C-141.9,470.9-142.4,471-142.9,471.2 M-145.1,471.8c0.9-1,2.2-1.7,3.5-2c-0.5-1.4-1.4-2.6-2.6-3.4c-1.3-0.8-2.8-1-4.3-0.7
		c0.3,1.3,0.3,2.6-0.1,3.9l0.2,0.8c0.8,0.5,1.6,1.1,2.5,1.6L-145.1,471.8z M-104.3,476.8c-0.2-1.5,0.1-3.1,0.8-4.4
		c-0.6-0.4-1.4-0.6-2.1-0.8c0,0.5,0,0.9,0,1.3l0,0.1l-0.5,1.1l-0.1,0c-0.9,0.4-1.9,0.8-2.9,1.1l-0.1,0l-1-0.5l0-0.1
		c-0.2-0.4-0.5-0.8-0.8-1.1c-0.4,0.5-0.7,1-1,1.5c1.5,0.6,2.8,1.7,3.7,3.1l0.8,0.4c1-0.3,1.9-0.6,2.9-1L-104.3,476.8z M-98.2,470.7
		c-0.4-1.5-0.4-3.2,0.2-4.7c-1.5-0.5-3.2-0.3-4.6,0.6c-1.4,0.9-2.4,2.3-2.8,4c1.4,0.3,2.7,1.1,3.7,2.2l0.7,0.2
		c0.9-0.5,1.7-1,2.5-1.5L-98.2,470.7z M-113.3,477c0.1-1.5,0.6-2.9,1.5-4.1c-1.3-1-2.9-1.4-4.4-1.1c-1.5,0.3-2.9,1.2-3.8,2.5
		c1.2,0.8,2.2,2,2.7,3.4l0.6,0.5c1-0.1,1.9-0.3,2.9-0.5L-113.3,477z M-121.1,480.1c0.3-1.4,1-2.7,2.1-3.7c-0.4-0.5-0.9-0.9-1.5-1.3
		c-0.2,0.5-0.4,0.9-0.5,1.4l0,0.1l-0.8,0.9l-0.1,0c-1,0-2,0-3.1,0l-0.1,0l-0.8-0.8l0-0.1c-0.1-0.5-0.3-1.1-0.5-1.6
		c-0.4,0.2-0.8,0.5-1.2,0.9c1.2,1.1,2,2.5,2.3,4l0.6,0.6c1,0.1,2.1,0.1,3.1,0.1L-121.1,480.1z M-127,474.2c-0.9-1.3-2.2-2.2-3.7-2.5
		c-1.5-0.3-3,0-4.2,0.9c0.8,1.2,1.3,2.5,1.3,3.9l0.5,0.7c0.9,0.2,1.9,0.4,2.8,0.6l0.7-0.5C-129.1,476-128.1,474.9-127,474.2
		 M-82.1,405.5L-82.1,405.5l-0.2,1.2l-0.1,0.1c-0.5,0.5-0.9,1-1.3,1.7c0.7,0.5,1.5,0.9,2.3,1.1c0.3-1.4,1.1-2.6,2.1-3.5l0.2-0.8
		l-0.1-0.2c-0.2-0.4-0.4-0.9-0.7-1.3c-0.2-0.4-0.4-0.8-0.7-1.2l-0.1-0.2l-0.9-0.3c-1.5,0.4-3.1,0.3-4.6-0.3c0,0.2-0.1,0.5-0.1,0.7
		c0.5,0,0.9-0.1,1.3-0.3l0.1,0l1.2,0.3l0.1,0.1C-83,403.7-82.5,404.6-82.1,405.5 M-79.8,410.6c-1.5,0.2-3-0.2-4.3-1.1
		c-0.4,1.3-0.4,2.8,0,4.1c0.6,1.7,1.8,3,3.3,3.7c0.5-1.1,1.4-2,2.4-2.7l0.3-0.7l0-0.2c-0.1-0.4-0.3-0.9-0.4-1.3
		c-0.1-0.4-0.3-0.8-0.4-1.2L-79,411L-79.8,410.6z M-74.9,419c-1.7-0.1-3.2-0.9-4.4-2.1c-0.1,0.2-0.3,0.5-0.4,0.7
		c0.4,0.1,0.7,0.1,1.1,0.2l0.1,0l1,0.7l0.1,0.4c0.1,0.4,0.2,0.8,0.2,1.2c0.1,0.5,0.1,0.9,0.2,1.4l0,0.3l-0.6,1l-0.1,0
		c-0.6,0.2-1.1,0.6-1.6,1c0.5,0.9,1.3,1.6,2.1,2.2c0.8-1.2,1.9-2.1,3.2-2.6l0.5-0.7c-0.1-1.1-0.3-2.1-0.5-3.2L-74.9,419z
		 M-76.3,427.4c-1.6-0.4-2.9-1.4-3.9-2.7c-0.9,1.1-1.4,2.5-1.4,4c0,1.8,0.7,3.6,2.1,4.8c0.9-0.9,2-1.5,3.2-1.8l0.6-0.6
		c0-1,0-2,0-3.1L-76.3,427.4z M-77.8,433.3c-0.3,0.2-0.7,0.5-0.9,0.8c0.3,0.2,0.5,0.3,0.8,0.4l0.1,0l0.7,1l0,0.1
		c-0.1,1-0.3,2.1-0.5,3.1l0,0.1l-0.9,0.7l-0.1,0c-0.5,0-1.1,0.1-1.6,0.3c0.2,1.1,0.7,2.1,1.3,2.9c1.2-1,2.6-1.5,4.1-1.5l0.7-0.5
		c0.2-1,0.4-2.1,0.5-3.2l-0.5-0.8C-75.7,436.2-77,434.9-77.8,433.3 M-78.2,445.2l-0.4-0.8c-1.3-0.9-2.3-2.4-2.8-4.1
		c-1.3,0.7-2.3,1.9-2.9,3.4c-0.6,1.8-0.5,3.7,0.4,5.3c1.2-0.6,2.6-0.8,3.9-0.6l0.7-0.3C-78.8,447.1-78.5,446.2-78.2,445.2
		 M-79.4,453.8c-1.2-1.2-2-2.8-2.2-4.6c-0.6,0.1-1.1,0.3-1.6,0.6c0.2,0.3,0.4,0.5,0.6,0.7l0.1,0.1l0.3,1.2l0,0.1
		c-0.5,1-1,1.9-1.5,2.8l-0.1,0.1L-85,455l-0.1,0c-0.4-0.1-0.9-0.2-1.3-0.3c-0.1,1,0,2,0.3,3c0.7-0.3,1.5-0.4,2.3-0.4
		c0.8,0,1.6,0.1,2.4,0.4l0.8-0.2c0.5-0.9,1.1-1.8,1.5-2.7L-79.4,453.8z M-92.6,396.5c0,1.4,0.5,2.8,1.4,3.9c1,1.3,2.4,2.1,4,2.2
		c0.2-1.2,0.6-2.4,1.3-3.4l0.1-0.9c-0.6-0.8-1.2-1.5-1.8-2.4l-0.8-0.1C-89.7,396.5-91.2,396.8-92.6,396.5 M-89.6,393.6
		c-0.1,0.6-0.1,1.2,0,1.9c0.5-0.1,0.9-0.3,1.4-0.5l0.1,0l1.2,0.1l0.1,0.1c0.8,0.9,1.4,1.8,2,2.6l0.1,0.1l-0.1,1.2l0,0.1
		c-0.4,0.5-0.7,1.1-0.9,1.8c0.6,0.3,1.3,0.5,1.9,0.6c0-1.8,0.5-3.5,1.5-4.9l0.1-1c-0.6-0.8-1.3-1.7-2-2.6l-0.9-0.1
		C-86.6,393.6-88.1,393.8-89.6,393.6 M-82.7,399.4c-0.2,0.7-0.2,1.5-0.1,2.2c0.6,0,1.2-0.1,1.7-0.3l0.1,0l1.2,0.4l0.2,0.4
		c0.2,0.4,0.5,0.8,0.7,1.2c0.3,0.5,0.5,0.9,0.7,1.4l0.1,0.3l-0.3,1.2l-0.1,0.1c-0.3,0.3-0.6,0.6-0.9,1c0.6,0.3,1.2,0.6,1.8,0.7
		c0.4-1.5,1.1-2.9,2.3-3.9l0.2-0.9l-0.1-0.2c-0.2-0.5-0.5-1-0.7-1.4c-0.2-0.4-0.5-0.9-0.7-1.3l-0.1-0.2l-1-0.3
		C-79.3,400.2-81.1,400.1-82.7,399.4 M-75.8,409c-1.4,0.1-2.8-0.1-4-0.8c-0.3,0.5-0.4,1.1-0.6,1.6c0.4,0,0.8,0,1.2,0l0.1,0l1.1,0.6
		l0.2,0.4c0.2,0.4,0.3,0.8,0.4,1.2c0.2,0.4,0.3,0.9,0.4,1.4l0.1,0.4l-0.5,1.1l-0.1,0c-0.5,0.3-0.9,0.7-1.3,1.1c0.5,0.5,1,1,1.5,1.3
		c0.5-1.6,1.6-3,3-3.9l0.4-0.8l0-0.1c-0.2-0.5-0.3-1-0.5-1.5c-0.2-0.4-0.3-0.9-0.5-1.3l-0.1-0.2L-75.8,409z M-70.4,418.1
		c-1.8-0.2-3.5-1-4.9-2.3c-0.4,0.6-0.7,1.3-0.9,2.1c0.7,0.3,1.3,0.4,2,0.5l0.1,0l1.1,0.8l0,0.1c0.2,1.1,0.4,2.3,0.6,3.4l0,0.1
		l-0.7,1l-0.1,0c-0.5,0.2-1,0.4-1.4,0.8c0.5,0.5,1,1,1.6,1.4c0.9-1.4,2.1-2.4,3.5-3l0.5-0.8c-0.2-1.2-0.4-2.3-0.6-3.5L-70.4,418.1z
		 M-72,427.4c-1.3-0.3-2.5-1-3.4-2c-0.4,0.4-0.7,0.8-1,1.3c0.3,0.1,0.6,0.2,0.9,0.3l0.1,0l0.9,0.9l0,0.1c0,1.1,0,2.2,0,3.3l0,0.1
		l-0.8,0.9l-0.1,0c-0.5,0.1-0.9,0.2-1.4,0.5c0.2,0.6,0.6,1.2,1,1.7c1-1.2,2.4-2,3.9-2.3l0.6-0.7c0-1.1,0-2.3,0-3.3L-72,427.4z
		 M-73.5,433.7c-0.6,0.4-1.2,0.9-1.6,1.6c0.6,0.6,1.2,1,1.9,1.3l0.1,0l0.7,1.1l0,0.1c-0.2,1.2-0.4,2.3-0.6,3.4l0,0.1l-1,0.7l-0.1,0
		c-0.6,0-1.3,0.1-1.9,0.3c0.3,0.7,0.6,1.3,1.1,1.9c1.3-1.1,2.9-1.7,4.6-1.7l0.8-0.5c0.2-1.1,0.4-2.3,0.6-3.5l-0.6-0.9
		C-71.3,436.9-72.7,435.4-73.5,433.7 M-74,446.8l-0.4-0.9c-1.1-0.8-2-1.9-2.6-3.2c-0.5,0.2-0.9,0.5-1.3,0.9c0.2,0.2,0.5,0.4,0.7,0.6
		l0.1,0l0.5,1.2l0,0.1c-0.3,1.1-0.7,2.1-1.1,3.1l0,0.1l-1.1,0.5l-0.1,0c-0.4-0.1-0.8-0.1-1.2-0.1c0,0.6,0.2,1.2,0.4,1.8
		c1.3-0.7,2.8-0.9,4.2-0.7l0.8-0.4C-74.7,448.9-74.4,447.9-74,446.8 M-75.2,456.2c-1.3-1.3-2.2-3.1-2.4-5c-0.7,0.1-1.4,0.4-2.1,0.8
		c0.4,0.7,0.8,1.4,1.4,1.9l0.1,0.1l0.3,1.3l0,0.1c-0.5,1-1.1,2-1.7,3l-0.1,0.1l-1.2,0.3l-0.1,0c-0.7-0.2-1.4-0.4-2.1-0.4
		c0,0.8,0.1,1.5,0.4,2.3c1.6-0.6,3.5-0.6,5.2,0l0.9-0.2c0.6-1,1.2-2,1.7-3L-75.2,456.2z M-84.7,465.8c0.7-0.8,1.4-1.7,2.1-2.5
		l-0.1-1c-0.8-1.2-1.3-2.6-1.4-4.1c-0.5,0.1-1,0.2-1.5,0.4c0.2,0.4,0.4,0.7,0.5,0.9l0,0.1l0.1,1.3l-0.1,0.1
		c-0.6,0.9-1.3,1.7-2.1,2.5l-0.1,0.1l-1.2,0.1l-0.1,0c-0.3-0.2-0.6-0.3-1-0.5c-0.1,0.6-0.2,1.2-0.2,1.8c0.2,0,0.3,0,0.5,0
		c1.2,0,2.5,0.3,3.5,0.9L-84.7,465.8z M-91.9,461.8c1.1,0,2.2,0.3,3.2,0.9l0.8-0.1c0.7-0.8,1.3-1.5,1.9-2.3l-0.1-0.9
		c-1-1.4-1.4-3-1.3-4.7c-1.6,0.1-3,0.9-4,2.2c-1.1,1.4-1.6,3.2-1.3,5C-92.5,461.8-92.2,461.8-91.9,461.8 M-89.8,467.7
		c-0.7-1.5-1-3.2-0.6-4.8c-0.7-0.1-1.4-0.1-2.1,0c0.1,0.4,0.2,0.7,0.4,1l0,0.1l-0.1,1.2l-0.1,0.1c-0.7,0.7-1.5,1.4-2.3,2.1l-0.1,0.1
		l-1.1-0.1l-0.1-0.1c-0.3-0.3-0.7-0.5-1.1-0.7c-0.3,0.7-0.5,1.5-0.6,2.3h0c1.6,0,3.2,0.6,4.5,1.7l0.8,0.1c0.8-0.6,1.6-1.3,2.4-2
		L-89.8,467.7z M-112.4,481.4c0.1-1.7,0.7-3.3,1.7-4.5c-0.5-0.4-1.1-0.6-1.7-0.8c-0.1,0.5-0.2,1.1-0.3,1.6v0.1l-0.7,1l-0.1,0
		c-1,0.2-2.1,0.4-3.2,0.5l-0.1,0l-1-0.7l0-0.1c-0.2-0.4-0.4-0.9-0.7-1.3c-0.5,0.4-0.9,0.9-1.2,1.4c1.2,0.9,2.2,2.1,2.7,3.6l0.7,0.5
		c1-0.1,2.1-0.3,3.1-0.5L-112.4,481.4z M-120.9,484.9c0.3-1.5,1.1-3,2.3-4c-0.4-0.5-0.9-1-1.5-1.3c-0.2,0.5-0.4,0.9-0.5,1.4l0,0.1
		l-0.9,0.9h-0.1c-1.1,0-2.2,0-3.4-0.1l-0.1,0l-0.9-0.9l0-0.1c-0.1-0.6-0.3-1.2-0.6-1.7c-0.6,0.3-1.2,0.7-1.7,1.2
		c1.3,1.2,2.2,2.8,2.6,4.5l0.7,0.7c1.1,0.1,2.3,0.1,3.4,0.1L-120.9,484.9z M-127,478.2c-0.4-0.5-0.8-1-1.3-1.5
		c-0.4,0.5-0.6,1-0.9,1.5l0,0.1l-1,0.7l-0.1,0c-1-0.2-2.1-0.4-3.1-0.7l-0.1,0l-0.7-1l0-0.1c0-0.6-0.1-1.2-0.3-1.8
		c-0.6,0.2-1.2,0.5-1.7,0.9c1,1.3,1.6,2.9,1.6,4.6l0.5,0.8c1,0.3,2.1,0.5,3.1,0.7l0.8-0.5C-129.6,480.3-128.5,479-127,478.2
		 M-153.4,468.4c1.2-0.9,2.5-1.3,4-1.3h0.1c0-0.3-0.1-0.6-0.2-1c-0.5,0.2-0.9,0.5-1.3,0.8l-0.1,0.1l-1.2,0.1l-0.1-0.1
		c-0.8-0.7-1.6-1.4-2.3-2.1l-0.1-0.1l-0.1-1.2l0-0.1c0.3-0.6,0.5-1.3,0.6-2.1c-0.6-0.2-1.3-0.2-1.9-0.2c0.1,1.4-0.1,2.8-0.8,4
		l0.1,0.9c0.7,0.7,1.5,1.4,2.3,2.1L-153.4,468.4z M-156.2,472.1c1.3-1,2.8-1.5,4.5-1.5c-0.1-0.7-0.3-1.4-0.5-2
		c-0.5,0.2-0.9,0.5-1.3,0.7l-0.1,0.1l-1.3,0.1l-0.1-0.1c-0.9-0.8-1.8-1.5-2.6-2.3l-0.1-0.1l-0.1-1.3l0-0.1c0.2-0.4,0.4-0.8,0.5-1.3
		c-0.6-0.1-1.3-0.2-1.9-0.1c0.2,1.6-0.1,3.2-0.8,4.5l0.1,1c0.8,0.8,1.6,1.5,2.6,2.3L-156.2,472.1z M-159.2,476.2
		c1.4-1.1,3.3-1.7,5.1-1.6c-0.1-0.9-0.3-1.7-0.6-2.5c-0.5,0.2-1,0.5-1.5,0.9l-0.1,0.1l-1.4,0.1l-0.1-0.1c-1-0.9-1.9-1.7-2.8-2.5
		l-0.1-0.1l-0.1-1.4l0-0.1c0.2-0.4,0.4-0.9,0.6-1.5c-0.8-0.2-1.5-0.2-2.3-0.1c0.2,1.8-0.1,3.6-0.9,5.2l0.1,1.1
		c0.9,0.9,1.8,1.7,2.8,2.6L-159.2,476.2z M-164.7,467.3c1.4-0.7,3.1-1,4.7-0.7c0.1-0.7,0.1-1.4,0-2.1c-0.5,0.1-1,0.3-1.5,0.6l-0.1,0
		l-1.3-0.1l-0.1-0.1c-0.8-1-1.5-1.9-2.2-2.8l-0.1-0.1l0.1-1.3l0-0.1c0.4-0.5,0.7-1.1,1-1.8c-0.7-0.3-1.3-0.6-2.1-0.7
		c0,1.9-0.6,3.8-1.7,5.3l-0.1,1.1c0.7,0.9,1.4,1.9,2.2,2.9L-164.7,467.3z M-170.9,459.6c1.2,0,2.4,0.3,3.5,0.8
		c0.2-0.9,0.3-1.8,0.2-2.7c-0.7,0-1.3,0.1-2,0.3l-0.1,0l-1.3-0.4l-0.2-0.3c-0.3-0.5-0.6-1-0.8-1.5c-0.3-0.5-0.5-1-0.7-1.4l-0.2-0.4
		l0.3-1.3l0.1-0.1c0.4-0.3,0.7-0.7,1-1.2c-0.7-0.4-1.4-0.7-2.2-0.8c-0.4,1.7-1.3,3.3-2.5,4.5l-0.3,1l0.1,0.2c0.3,0.5,0.5,1,0.8,1.5
		c0.3,0.5,0.6,1.1,0.9,1.6l0,0.1l1.1,0.3C-172.4,459.7-171.7,459.6-170.9,459.6 M-175,449.8c0.3,0,0.5,0,0.8,0
		c1.2,0,2.4,0.3,3.5,0.9c0.3-0.6,0.5-1.2,0.6-1.8c-0.5,0-0.9,0-1.3,0l-0.1,0l-1.2-0.6l-0.1-0.3c-0.2-0.5-0.4-1-0.5-1.5
		c-0.2-0.5-0.3-1-0.5-1.5l-0.1-0.4l0.5-1.2l0.1,0c0.5-0.3,1-0.7,1.4-1.2c-0.5-0.6-1-1-1.6-1.4c-0.6,1.7-1.7,3.2-3.3,4.2l-0.4,0.9
		l0.1,0.2c0.2,0.5,0.3,1.1,0.5,1.6c0.2,0.6,0.4,1.1,0.6,1.7l0,0.1L-175,449.8z M-181,439.9c2,0.2,4,1.1,5.5,2.7
		c0.5-0.7,0.9-1.6,1.2-2.5c-0.7-0.3-1.5-0.5-2.3-0.6l-0.1,0l-1.2-0.9l0-0.1c-0.2-1.2-0.5-2.5-0.6-3.7l0-0.1l0.8-1.1l0.1,0
		c0.5-0.2,1.1-0.5,1.6-0.9c-0.6-0.6-1.2-1.2-1.9-1.6c-0.9,1.6-2.3,2.8-4,3.4l-0.6,0.9c0.2,1.3,0.4,2.6,0.6,3.8L-181,439.9z
		 M-179.2,429.7c1.4,0.4,2.7,1.1,3.7,2.2c0.4-0.4,0.8-0.9,1.1-1.4c-0.4-0.2-0.7-0.3-1-0.3l-0.1,0l-0.9-1l0-0.1c0-1.2,0-2.4,0-3.6
		l0-0.1l0.9-0.9l0.1,0c0.5-0.1,0.9-0.2,1.4-0.5c-0.3-0.6-0.6-1.3-1-1.8c-1.1,1.3-2.6,2.2-4.2,2.5l-0.7,0.7c0,1.2-0.1,2.5,0,3.7
		L-179.2,429.7z M-177.6,423c0.8-0.5,1.5-1.1,2-1.9c-0.6-0.6-1.4-1.1-2.1-1.5l-0.1,0l-0.8-1.2l0-0.1c0.2-1.3,0.4-2.5,0.6-3.7l0-0.1
		l1.1-0.8h0.1h0c0.7,0,1.4-0.1,2.1-0.3c-0.3-0.9-0.8-1.6-1.4-2.3c-1.4,1.3-3.3,1.9-5.2,2l-0.8,0.6c-0.2,1.2-0.5,2.5-0.6,3.8l0.6,1
		C-180,419.4-178.4,421-177.6,423 M-177,408.5l0.4,1c1.2,0.8,2.2,2,2.8,3.4c0.5-0.3,1-0.6,1.4-1c-0.3-0.3-0.5-0.5-0.8-0.6l-0.1,0
		l-0.6-1.3l0-0.1c0.4-1.2,0.8-2.3,1.2-3.4l0-0.1l1.1-0.5l0.1,0c0.4,0.1,0.8,0.1,1.2,0.1c0-0.7-0.2-1.3-0.4-1.9
		c-1.4,0.7-3,0.9-4.5,0.7l-0.9,0.4C-176.2,406.2-176.6,407.3-177,408.5 M-175.8,398.2c1.5,1.5,2.4,3.5,2.6,5.7
		c0.9-0.1,1.8-0.4,2.6-0.9c-0.4-0.8-0.9-1.5-1.5-2.1l-0.1-0.1l-0.4-1.4l0-0.1c0.6-1.1,1.2-2.2,1.8-3.2l0.1-0.1l1.3-0.3l0.1,0
		c0.8,0.3,1.6,0.4,2.4,0.5c0-1-0.2-1.9-0.5-2.8c-1.8,0.8-3.9,0.8-5.9,0.1l-1,0.3c-0.6,1-1.3,2.2-1.9,3.3L-175.8,398.2z
		 M-165.3,387.7c-0.8,0.9-1.5,1.8-2.3,2.8l0.1,1.1c0.9,1.3,1.4,2.8,1.6,4.4c0.6-0.1,1.2-0.3,1.7-0.5c-0.2-0.4-0.4-0.7-0.6-1l0-0.1
		l-0.1-1.4l0.1-0.1c0.7-1,1.5-1.9,2.3-2.8l0.1-0.1l1.3-0.1l0.1,0c0.3,0.2,0.6,0.3,1,0.5c0.1-0.6,0.2-1.2,0.2-1.9
		c-1.5,0.1-3-0.3-4.3-1L-165.3,387.7z M-163.3,381.6c0.9,1.8,1.2,3.9,0.7,5.9c0.8,0.2,1.7,0.3,2.6,0.2c-0.1-0.8-0.4-1.5-0.7-2.2
		l0-0.1l0.1-1.4l0.1-0.1c0.9-0.8,1.8-1.6,2.8-2.4l0.1-0.1l1.3,0.2l0.1,0.1c0.6,0.6,1.4,1,2.2,1.3c0.3-0.9,0.5-1.8,0.5-2.8
		c-2.1,0.1-4.1-0.6-5.8-2l-1-0.1c-1,0.8-2,1.6-2.8,2.4L-163.3,381.6z M-151.2,384.4c-1.8,0-3.6-0.6-5.1-1.8l-0.9-0.1
		c-0.9,0.7-1.8,1.4-2.6,2.2l-0.1,1c0.8,1.6,1,3.5,0.7,5.2c0.7,0.1,1.4,0.2,2.1,0.1c-0.1-0.7-0.3-1.4-0.6-2l0-0.1l0.1-1.3l0.1-0.1
		c0.8-0.7,1.7-1.5,2.6-2.2l0.1-0.1l1.2,0.1l0.1,0.1c0.6,0.5,1.2,0.9,1.9,1.1C-151.4,385.9-151.2,385.1-151.2,384.4 M-135.1,370.7
		c-0.1,1.8-0.7,3.5-1.8,4.9c0.6,0.4,1.2,0.7,1.9,0.9c0.2-0.6,0.3-1.2,0.3-1.7l0-0.1l0.8-1.1l0.1,0c1.2-0.2,2.4-0.4,3.4-0.6l0.1,0
		l1,0.8l0,0.1c0.2,0.5,0.4,0.9,0.7,1.4c0.5-0.4,0.9-0.9,1.3-1.5c-1.3-1-2.4-2.3-2.9-3.8l-0.8-0.6c-1.1,0.1-2.2,0.3-3.4,0.6
		L-135.1,370.7z M-125.9,366.7c-0.4,1.8-1.3,3.4-2.7,4.5c0.5,0.6,1.1,1.2,1.8,1.7c0.3-0.5,0.4-1.1,0.6-1.6l0-0.1l1-1h0.1
		c1.2,0,2.5,0,3.7,0.1l0.1,0l0.9,1l0,0.1c0.1,0.7,0.4,1.3,0.7,1.9c0.7-0.4,1.4-0.9,2-1.5c-1.5-1.3-2.6-3.1-3-5.1l-0.7-0.8
		c-1.2-0.1-2.4-0.1-3.7-0.1L-125.9,366.7z M-119.1,374.2c0.4,0.6,0.9,1.1,1.5,1.6c0.4-0.5,0.7-1.1,0.9-1.7l0-0.1l1.1-0.8l0.1,0
		c1.2,0.2,2.3,0.5,3.4,0.7l0.1,0l0.7,1.1v0.1c0,0.6,0.1,1.2,0.3,1.9c0.7-0.2,1.3-0.5,1.8-0.9c-1.1-1.4-1.7-3.2-1.7-4.9l-0.6-0.8
		c-1.1-0.3-2.3-0.5-3.4-0.7l-0.8,0.6C-116.3,372-117.5,373.3-119.1,374.2 M-103.6,382.3c0.6-0.1,1.3-0.2,1.9-0.5
		c-0.7-1.5-1-3.2-0.8-4.8l-0.4-0.9c-1.1-0.5-2.1-0.9-3.2-1.3l-0.9,0.4c-0.8,1.3-2.1,2.3-3.5,2.9c0.3,0.6,0.6,1.2,1.1,1.7
		c0.3-0.3,0.6-0.7,0.8-1.1l0-0.1l1.2-0.5l0.1,0c1.1,0.4,2.1,0.8,3.2,1.3l0.1,0l0.5,1.1l0,0.1C-103.6,381.3-103.6,381.8-103.6,382.3
		 M-93.1,388.6c-1.1,0.9-2.6,1.3-4,1.3c0,0,0,0-0.1,0c0,0.3,0.1,0.6,0.2,1c0.5-0.2,0.9-0.5,1.4-0.8l0.1-0.1l1.2-0.1l0.1,0.1
		c0.8,0.7,1.6,1.4,2.3,2.1l0.1,0.1l0.1,1.2l0,0.1c-0.3,0.6-0.5,1.3-0.6,2.1c0.6,0.2,1.3,0.2,1.9,0.2c-0.1-1.4,0.1-2.8,0.8-4
		l-0.1-0.9c-0.7-0.7-1.5-1.4-2.3-2.1L-93.1,388.6z M-90.3,384.8c-1.3,1-2.8,1.5-4.5,1.5c0.1,0.7,0.3,1.4,0.5,2
		c0.5-0.2,0.9-0.5,1.3-0.7l0.1-0.1l1.3-0.1l0.1,0.1c0.9,0.8,1.8,1.6,2.6,2.3l0.1,0.1l0.1,1.3l0,0.1c-0.2,0.4-0.4,0.8-0.5,1.3
		c0.6,0.1,1.2,0.2,1.9,0.1c-0.2-1.6,0.1-3.2,0.8-4.5l-0.1-1c-0.8-0.8-1.6-1.5-2.6-2.3L-90.3,384.8z M-87.3,380.7
		c-1.4,1.1-3.3,1.7-5.1,1.6c0.1,0.9,0.3,1.7,0.6,2.5c0.5-0.2,1-0.5,1.5-0.9l0.1-0.1l1.4-0.1l0.1,0.1c1,0.9,1.9,1.7,2.8,2.5l0.1,0.1
		l0.1,1.4l0,0.1c-0.2,0.4-0.4,0.9-0.6,1.5c0.8,0.2,1.5,0.2,2.3,0.1c-0.2-1.8,0.1-3.6,0.9-5.2l-0.1-1.1c-0.9-0.8-1.8-1.7-2.8-2.6
		L-87.3,380.7z M-81.8,389.7c-1.4,0.7-3.1,1-4.7,0.7c-0.1,0.7-0.1,1.4,0,2.1c0.5-0.1,1-0.3,1.5-0.6l0.1,0l1.3,0.2l0.1,0.1
		c0.8,1,1.5,1.9,2.2,2.8l0.1,0.1l-0.1,1.3l-0.1,0.1c-0.4,0.5-0.7,1.1-1,1.8c0.7,0.3,1.3,0.6,2,0.7c0-1.9,0.6-3.8,1.7-5.3l0.1-1.1
		c-0.7-0.9-1.4-1.9-2.2-2.9L-81.8,389.7z M-79.1,396.5c-0.2,0.9-0.3,1.8-0.2,2.7h0c0.7,0,1.3-0.1,1.9-0.3l0.1,0l1.3,0.4l0.3,0.4
		c0.3,0.4,0.5,0.9,0.7,1.3c0.3,0.5,0.5,1,0.8,1.5l0.2,0.3l-0.3,1.3l-0.1,0.1c-0.4,0.3-0.7,0.7-1,1.2c0.7,0.4,1.4,0.7,2.2,0.9
		c0.4-1.8,1.3-3.3,2.5-4.5l0.3-1l-0.1-0.1c-0.3-0.6-0.6-1.1-0.8-1.6c-0.3-0.5-0.5-0.9-0.8-1.4l-0.2-0.3l-1.1-0.3
		C-75.2,397.5-77.3,397.4-79.1,396.5 M-71.4,407.2c-1.5,0.2-3-0.1-4.3-0.8c-0.3,0.6-0.5,1.2-0.6,1.8c0.5,0,0.9,0,1.3,0l0.1,0
		l1.2,0.6l0.2,0.5c0.2,0.4,0.3,0.9,0.5,1.3c0.2,0.5,0.3,1,0.5,1.5l0.1,0.4l-0.5,1.2l-0.1,0c-0.5,0.3-1,0.7-1.4,1.2
		c0.5,0.6,1,1,1.6,1.4c0.6-1.7,1.7-3.2,3.3-4.2l0.4-0.9l-0.1-0.2c-0.2-0.5-0.3-1.1-0.5-1.6c-0.2-0.5-0.3-0.9-0.5-1.4l-0.1-0.3
		L-71.4,407.2z M-65.5,417.1c-2-0.2-4-1.1-5.5-2.7c-0.5,0.7-0.9,1.6-1.2,2.5c0.7,0.3,1.5,0.5,2.3,0.6l0.1,0l1.2,0.9l0,0.1
		c0.2,1.2,0.5,2.5,0.6,3.8l0,0.1l-0.8,1.1l-0.1,0c-0.5,0.2-1.1,0.5-1.6,0.9c0.6,0.6,1.2,1.2,1.9,1.6c0.9-1.6,2.3-2.8,4-3.4l0.6-0.9
		c-0.2-1.3-0.4-2.6-0.6-3.8L-65.5,417.1z M-67.3,427.2c-1.4-0.4-2.7-1.1-3.7-2.2c-0.4,0.4-0.8,0.9-1.1,1.4c0.4,0.2,0.7,0.3,1,0.3
		l0.1,0l0.9,1l0,0.1c0,1.2,0,2.4,0,3.6l0,0.1l-0.9,0.9l-0.1,0c-0.5,0.1-0.9,0.2-1.4,0.5c0.3,0.6,0.6,1.3,1,1.8
		c1.1-1.3,2.6-2.2,4.2-2.5l0.7-0.7c0-1.2,0.1-2.5,0-3.7L-67.3,427.2z M-68.9,433.9c-0.8,0.5-1.5,1.1-2,1.9c0.6,0.6,1.4,1.1,2.1,1.5
		l0.1,0l0.8,1.2l0,0.1c-0.2,1.3-0.4,2.5-0.6,3.7l0,0.1l-1.1,0.8h-0.1h0c-0.7,0-1.4,0.1-2.1,0.3c0.3,0.9,0.8,1.6,1.4,2.3
		c1.4-1.3,3.3-1.9,5.2-2l0.8-0.6c0.2-1.2,0.5-2.5,0.6-3.8l-0.6-1C-66.5,437.6-68.1,435.9-68.9,433.9 M-69.5,448.4l-0.4-1
		c-1.2-0.8-2.2-2-2.8-3.4c-0.5,0.3-1,0.6-1.4,1c0.3,0.2,0.5,0.5,0.8,0.6l0.1,0l0.5,1.3l0,0.1c-0.4,1.2-0.8,2.3-1.2,3.4l0,0.1
		l-1.2,0.5l-0.1,0c-0.4-0.1-0.8-0.1-1.2-0.1c0,0.7,0.2,1.3,0.4,1.9c1.4-0.7,3-0.9,4.5-0.7l0.9-0.4
		C-70.3,450.8-69.9,449.6-69.5,448.4 M-70.7,458.8c-1.5-1.5-2.4-3.5-2.6-5.7c-0.9,0.1-1.8,0.4-2.6,0.9c0.4,0.8,0.9,1.5,1.5,2.1
		l0.1,0.1l0.4,1.4l0,0.1c-0.6,1.1-1.2,2.2-1.8,3.2l-0.1,0.1l-1.3,0.3l-0.1,0c-0.8-0.3-1.6-0.4-2.4-0.5c0,0.9,0.2,1.9,0.5,2.8
		c1.8-0.8,3.9-0.8,5.8-0.1l1-0.2c0.7-1.1,1.3-2.2,1.9-3.3L-70.7,458.8z M-81.2,469.2c0.8-0.9,1.6-1.8,2.3-2.8l-0.1-1.1
		c-0.9-1.3-1.4-2.8-1.6-4.4c-0.6,0.1-1.2,0.3-1.7,0.5c0.2,0.4,0.4,0.7,0.6,1l0,0.1l0.1,1.4l-0.1,0.1c-0.7,0.9-1.5,1.9-2.3,2.8
		l-0.1,0.1l-1.3,0.1l-0.1,0c-0.3-0.2-0.6-0.3-1-0.5c-0.1,0.6-0.2,1.2-0.2,1.9c0.2,0,0.3,0,0.5,0c1.3,0,2.7,0.4,3.9,1L-81.2,469.2z
		 M-83.2,475.3c-0.9-1.8-1.2-3.9-0.7-5.9c-0.8-0.2-1.7-0.3-2.6-0.2c0.1,0.8,0.4,1.5,0.7,2.2l0,0.1l-0.1,1.4l-0.1,0.1
		c-0.9,0.8-1.9,1.6-2.8,2.4l-0.1,0.1l-1.3-0.2l-0.1-0.1c-0.6-0.6-1.4-1-2.2-1.3c-0.3,0.9-0.5,1.8-0.5,2.8c2.1-0.1,4.1,0.6,5.8,2
		l1,0.1c1-0.8,1.9-1.6,2.8-2.4L-83.2,475.3z M-95.2,472.6c1.8,0,3.5,0.6,4.9,1.8l0.9,0.1c0.9-0.7,1.7-1.4,2.6-2.2l0.1-1
		c-0.8-1.6-1-3.5-0.7-5.2c-0.7-0.1-1.4-0.2-2.1-0.1c0.1,0.7,0.3,1.4,0.6,2l0,0.1l-0.1,1.3l-0.1,0.1c-0.8,0.7-1.7,1.5-2.6,2.2
		l-0.1,0.1l-1.2-0.1l-0.1-0.1c-0.5-0.5-1.2-0.9-1.9-1.1c-0.3,0.7-0.4,1.5-0.5,2.2C-95.3,472.6-95.2,472.6-95.2,472.6 M-111.4,486.2
		c0.1-1.8,0.7-3.5,1.8-4.9c-0.6-0.4-1.2-0.7-1.9-0.9c-0.2,0.6-0.3,1.1-0.3,1.7l0,0.1l-0.8,1.1l-0.1,0c-1.1,0.2-2.3,0.4-3.4,0.6
		l-0.1,0l-1-0.8l0-0.1c-0.2-0.5-0.4-0.9-0.7-1.3c-0.5,0.4-0.9,0.9-1.3,1.5c1.3,1,2.4,2.3,2.9,3.8l0.8,0.6c1.2-0.1,2.3-0.3,3.4-0.6
		L-111.4,486.2z M-120.6,490.2c0.4-1.8,1.3-3.4,2.7-4.5c-0.5-0.6-1.1-1.2-1.8-1.7c-0.3,0.5-0.4,1.1-0.5,1.6l0,0.1l-1,1h-0.1
		c-1.2,0-2.4,0-3.7-0.1l-0.1,0l-0.9-1l0-0.1c-0.1-0.7-0.4-1.3-0.7-1.9c-0.7,0.4-1.4,0.9-2,1.5c1.5,1.3,2.6,3.1,3,5.1l0.7,0.8
		c1.2,0.1,2.5,0.1,3.7,0.1L-120.6,490.2z M-127.4,482.7c-0.4-0.6-0.9-1.1-1.5-1.6c-0.4,0.5-0.7,1.1-0.9,1.7l0,0.1l-1.1,0.8l-0.1,0
		c-1.1-0.2-2.3-0.4-3.4-0.7l-0.1,0l-0.7-1.1v-0.1c0-0.6-0.1-1.2-0.3-1.9c-0.7,0.2-1.3,0.5-1.8,0.9c1.1,1.4,1.7,3.2,1.7,4.9l0.6,0.8
		c1.1,0.3,2.3,0.5,3.4,0.7l0.8-0.6C-130.2,485-129,483.6-127.4,482.7 M-149.3,480.1c1.2-1.3,2.7-2.1,4.4-2.4
		c-0.2-0.7-0.4-1.4-0.8-2.1c-0.5,0.3-1,0.7-1.4,1.2l-0.1,0.1l-1.3,0.3l-0.1-0.1c-1.1-0.6-2.1-1.3-3-1.9l-0.1-0.1l-0.3-1.3l0-0.1
		c0.2-0.6,0.3-1.3,0.3-2.1c-0.7,0-1.4,0-2.1,0.2c0.6,1.8,0.7,3.7,0.1,5.5l0.3,1c1,0.7,2,1.3,3,1.9L-149.3,480.1z M-93.1,378.5
		c-1-0.7-2-1.3-3-1.9l-1,0.3c-1.2,1.3-2.7,2.1-4.4,2.4c0.2,0.7,0.4,1.4,0.8,2.1c0.5-0.3,1-0.7,1.4-1.2l0.1-0.1l1.3-0.3l0.1,0.1
		c1,0.6,2,1.2,3,1.9l0.1,0.1l0.3,1.3l0,0.1c-0.2,0.6-0.3,1.3-0.3,2.1c0.2,0,0.3,0,0.5,0c0.5,0,1.1-0.1,1.6-0.2
		c-0.6-1.8-0.7-3.7-0.1-5.5L-93.1,378.5z M-56.3,426.9c-1.7-0.5-3.3-1.4-4.6-2.8c-1.7,1.6-2.7,3.9-2.7,6.4c0,2.1,0.7,4.2,2.1,5.9
		c1.4-1.6,3.2-2.8,5.2-3.2l0.9-0.9c0.1-1.5,0.1-3,0-4.4L-56.3,426.9z M-60.4,456.5c0.5-1.3,1-2.8,1.5-4.2l-0.5-1.2
		c-1.5-1.1-2.7-2.5-3.4-4.2c-2,1-3.5,2.7-4.3,4.8c-0.7,2-0.7,4.2,0,6.3c1.7-0.9,3.7-1.2,5.6-0.9L-60.4,456.5z M-70.4,470.3
		c2.2-0.9,4.6-0.9,6.9-0.1l1.2-0.3c0.8-1.3,1.5-2.6,2.2-4l-0.4-1.4c-1.8-1.8-2.9-4.1-3.1-6.6c-1,0.2-2,0.6-3,1.1
		c0.5,0.9,1.1,1.7,1.8,2.4l0.1,0.1l0.4,1.6l0,0.1c-0.7,1.3-1.4,2.6-2.2,3.9l-0.1,0.1l-1.5,0.4l-0.1,0c-0.9-0.3-1.8-0.5-2.8-0.5
		C-71,468.2-70.8,469.3-70.4,470.3 M-78.7,476.2c1.6,0,3.2,0.4,4.6,1.2l1.2-0.1c1-1.1,1.9-2.2,2.7-3.4l-0.1-1.4
		c-1.1-1.6-1.8-3.5-1.9-5.5c-2.1,0.2-4,1.3-5.4,2.9c-1.4,1.7-2.1,3.9-2,6.1C-79.2,476.2-79,476.2-78.7,476.2 M-86.2,483
		c-0.4,1-0.6,2.1-0.7,3.2c2.4-0.1,4.8,0.8,6.7,2.4l1.3,0.1c1.2-0.9,2.3-1.9,3.4-2.9l0.1-1.4c-1-2.1-1.4-4.6-0.9-6.9
		c-1-0.2-2-0.2-3-0.1c0.2,0.9,0.4,1.8,0.8,2.6l0,0.1l-0.1,1.7l-0.1,0.1c-1.1,1-2.2,1.9-3.4,2.8l-0.1,0.1l-1.5-0.2l-0.1-0.1
		C-84.5,483.8-85.3,483.3-86.2,483 M-97.4,488.8c1.8,0.5,3.5,1.6,4.7,3.1l1.1,0.3c1.2-0.7,2.5-1.4,3.7-2.1l0.3-1.3
		c-0.6-2-0.5-4.2,0.1-6.2c-2-0.5-4.2-0.2-6,0.8C-95.4,484.5-96.8,486.4-97.4,488.8 M-105.7,492.4c-0.7,0.8-1.3,1.6-1.7,2.6
		c2.3,0.8,4.2,2.4,5.4,4.5l1.2,0.6c1.4-0.4,2.8-0.9,4.2-1.5l0.6-1.3c-0.3-2.2,0.2-4.4,1.2-6.3c-0.8-0.5-1.8-0.9-2.7-1.1
		c-0.1,0.8-0.1,1.5,0,2.3l0,0.1l-0.7,1.5l-0.1,0c-1.4,0.5-2.7,1-4.1,1.4l-0.1,0l-1.4-0.7l0-0.1
		C-104.5,493.8-105.1,493.1-105.7,492.4 M-114.9,498.7l1,0.7c1.4-0.2,2.8-0.4,4.2-0.7l0.7-1.1c0.1-2.2,0.9-4.3,2.3-6
		c-1.8-1.3-4-1.9-6.2-1.5c-2.4,0.3-4.4,1.7-5.7,3.8C-117,495.1-115.7,496.7-114.9,498.7 M-127.4,494.4c-0.9,0.4-1.7,1-2.4,1.7
		c1.7,1.5,2.9,3.6,3.4,5.9l0.9,1c1.5,0.1,3,0.2,4.5,0.2l1-1c0.4-2.1,1.5-3.9,3-5.3c-0.6-0.7-1.3-1.4-2.2-1.9
		c-0.3,0.6-0.5,1.2-0.6,1.8l0,0.1l-1.1,1.2h-0.1c-1.4,0-2.9-0.1-4.4-0.2l-0.1,0l-1.1-1.2l0-0.1
		C-126.8,495.9-127.1,495.2-127.4,494.4 M-140.4,490.9c1.4,1.7,2.1,3.9,2.2,6.1l0.7,1c1.4,0.3,2.8,0.6,4.2,0.9l1-0.7
		c0.8-2.1,2.4-3.8,4.3-4.8c-1.3-2.1-3.3-3.5-5.6-4C-136,488.9-138.5,489.4-140.4,490.9 M-151.5,489.3c1,2,1.4,4.2,1.1,6.3l0.5,1.2
		c1.3,0.6,2.8,1.2,4.2,1.7l1.2-0.6c1.1-1.8,2.7-3.1,4.6-3.8c-0.4-0.9-0.9-1.7-1.5-2.5c-0.4,0.4-0.8,0.9-1.1,1.4l0,0.1l-1.5,0.7
		l-0.1,0c-1.4-0.5-2.8-1.1-4.1-1.7l-0.1,0l-0.6-1.5l0-0.1c0.1-0.6,0.1-1.3,0-2C-149.7,488.7-150.6,488.9-151.5,489.3 M-159.9,480.3
		c0.8,2.2,0.9,4.6,0.2,6.8l0.3,1.2c1.2,0.8,2.4,1.6,3.7,2.3l1.2-0.3c1.4-1.6,3.4-2.6,5.5-2.9c-0.5-2.5-2-4.7-4.1-6
		C-155.1,480-157.6,479.6-159.9,480.3 M-171.1,481.1l0.1,1.4c1.1,1,2.2,2,3.4,3.1l1.4-0.1c1.7-1.3,3.8-2,5.9-1.9
		c-0.1-1-0.4-2-0.8-2.9c-0.6,0.3-1.1,0.6-1.7,1l-0.1,0.1l-1.6,0.1l-0.1-0.1c-1.2-1-2.3-2-3.3-3l-0.1-0.1l-0.1-1.6l0-0.1
		c0.2-0.5,0.5-1,0.6-1.6c-0.9-0.2-1.8-0.3-2.7-0.2C-169.8,477.3-170.2,479.3-171.1,481.1 M-176.7,470.1l-0.1,1.3
		c0.8,1.1,1.7,2.3,2.7,3.5l1.3,0.1c1.7-0.9,3.8-1.2,5.8-0.8c0.4-2.6-0.3-5.2-1.9-7.3c-1.5-1.9-3.5-3-5.8-3.3
		C-174.6,465.9-175.3,468.2-176.7,470.1 M-186,460.3l-0.3,1.3l0.1,0.2c0.3,0.6,0.6,1.3,1,1.9c0.3,0.6,0.7,1.2,1.1,1.9l0.1,0.2
		l1.3,0.4c0.9-0.2,1.7-0.4,2.6-0.4c1.4,0,2.7,0.3,4,0.9c0.2-1,0.3-2.1,0.2-3.1c-0.8,0-1.5,0.1-2.2,0.3l-0.1,0l-1.6-0.5l-0.2-0.3
		c-0.3-0.6-0.7-1.2-1-1.8c-0.3-0.6-0.6-1.2-0.9-1.7l-0.2-0.4l0.4-1.5l0.1-0.1c0.4-0.4,0.9-0.9,1.2-1.4c-0.8-0.5-1.7-0.8-2.6-1.1
		C-183.5,457.1-184.6,458.9-186,460.3 M-187.3,448.1l-0.5,1.1l0.1,0.3c0.2,0.6,0.4,1.3,0.6,1.9c0.2,0.7,0.5,1.3,0.7,2l0,0.1l1.2,0.6
		c0.3,0,0.6-0.1,1-0.1c1.5,0,3.1,0.4,4.4,1.2c1.2-2.2,1.4-4.9,0.5-7.3c-0.7-2.1-2.2-3.9-4-5C-184.1,445-185.5,446.9-187.3,448.1
		 M-193.4,435.6l-0.7,1.1c0.2,1.6,0.5,3.1,0.8,4.6l1.2,0.9c2.4,0.2,4.7,1.3,6.4,3.1c0.6-0.9,1-1.9,1.3-3c-0.9-0.4-1.8-0.6-2.6-0.7
		l-0.1,0l-1.3-1l0-0.1c-0.3-1.5-0.5-3-0.7-4.5l0-0.1l0.9-1.3l0.1,0c0.6-0.2,1.3-0.6,1.9-1c-0.7-0.8-1.4-1.4-2.2-1.9
		C-189.8,433.4-191.5,434.8-193.4,435.6 M-186.3,407.8c-1.7,1.4-3.8,2.2-6.1,2.2l-1,0.7c-0.3,1.5-0.5,3-0.8,4.6l0.8,1.2
		c2.2,1.1,4.1,3,5.1,5.3c0.9-0.6,1.7-1.3,2.3-2.2c-0.8-0.7-1.6-1.3-2.5-1.7l-0.1,0l-0.9-1.4l0-0.1c0.2-1.6,0.5-3.1,0.8-4.5l0-0.1
		l1.3-0.9h0.1l0,0c0.8,0,1.7-0.1,2.5-0.4C-185.1,409.5-185.6,408.6-186.3,407.8 M-186.1,400.4c-0.5,1.3-1,2.7-1.5,4.2l0.5,1.2
		c1.5,1.1,2.7,2.5,3.4,4.2c2-1,3.5-2.7,4.3-4.8c0.7-2,0.7-4.2-0.1-6.3c-1.7,0.9-3.7,1.2-5.6,0.9L-186.1,400.4z M-176.1,386.6
		c-2.2,0.9-4.6,0.9-6.8,0.1l-1.2,0.3c-0.8,1.3-1.5,2.6-2.2,4l0.4,1.4c1.8,1.8,2.9,4.1,3.1,6.6c1-0.2,2-0.6,3-1.1
		c-0.5-0.9-1.1-1.7-1.8-2.4l-0.1-0.1l-0.4-1.6l0-0.1c0.7-1.3,1.4-2.7,2.2-3.9l0.1-0.1l1.5-0.4l0.1,0c0.9,0.3,1.8,0.5,2.8,0.5
		C-175.5,388.7-175.7,387.7-176.1,386.6 M-172.4,379.6l-1.2,0.1c-0.9,1.1-1.8,2.2-2.7,3.4l0.1,1.4c1.1,1.6,1.8,3.5,1.9,5.5
		c2.1-0.2,4-1.3,5.4-2.9c1.4-1.7,2.1-3.9,2-6.1C-168.9,380.9-170.8,380.5-172.4,379.6 M-160.3,374c0.4-1,0.6-2.1,0.7-3.2
		c-2.4,0.1-4.8-0.8-6.7-2.4l-1.2-0.2c-1.2,0.9-2.4,1.9-3.4,2.9l-0.1,1.4c1,2.1,1.4,4.6,0.9,6.9c1,0.2,2,0.2,3,0.1
		c-0.2-0.9-0.4-1.8-0.8-2.6l0-0.1l0.1-1.7l0.1-0.1c1.1-0.9,2.2-1.9,3.4-2.8l0.1-0.1l1.5,0.2l0.1,0.1
		C-162,373.1-161.2,373.6-160.3,374 M-149.1,368.2c-1.8-0.5-3.5-1.6-4.7-3.1l-1.1-0.3c-1.3,0.7-2.5,1.4-3.7,2.1l-0.3,1.3
		c0.6,2,0.5,4.2-0.1,6.2c2,0.5,4.2,0.2,6-0.8C-151.1,372.4-149.7,370.5-149.1,368.2 M-140.8,364.5c0.7-0.8,1.3-1.6,1.7-2.6
		c-2.3-0.8-4.2-2.4-5.4-4.6l-1.2-0.6c-1.4,0.4-2.7,0.9-4.2,1.5l-0.6,1.3c0.3,2.2-0.2,4.4-1.2,6.4c0.8,0.5,1.8,0.9,2.7,1.1
		c0.1-0.8,0.1-1.5,0-2.3l0-0.1l0.7-1.5l0.1,0c1.4-0.5,2.8-1,4.1-1.4l0.1,0l1.4,0.7l0,0.1C-142,363.2-141.4,363.9-140.8,364.5
		 M-131.6,358.3l-1-0.7c-1.3,0.2-2.7,0.4-4.2,0.7l-0.7,1.1c-0.1,2.2-0.9,4.3-2.3,6c1.8,1.3,4,1.9,6.2,1.5c2.4-0.4,4.4-1.7,5.7-3.8
		C-129.5,361.9-130.8,360.2-131.6,358.3 M-119.1,362.5c0.9-0.4,1.7-1,2.4-1.7c-1.7-1.5-2.9-3.6-3.4-5.9l-0.9-1
		c-1.4-0.1-2.9-0.2-4.5-0.2l-1,1c-0.4,2.1-1.5,3.9-3,5.3c0.6,0.7,1.3,1.4,2.2,1.9c0.3-0.6,0.5-1.2,0.6-1.8l0-0.1l1.1-1.2h0.1
		c1.5,0,3,0.1,4.4,0.2l0.1,0l1.1,1.2l0,0.1C-119.7,361-119.4,361.8-119.1,362.5 M-106.1,366c-1.4-1.7-2.1-3.9-2.2-6.1l-0.7-1
		c-1.3-0.3-2.7-0.6-4.2-0.9l-1,0.8c-0.8,2.1-2.4,3.8-4.3,4.8c1.3,2.1,3.3,3.5,5.6,4C-110.5,368.1-108,367.5-106.1,366 M-95,367.7
		c-1-2-1.4-4.2-1.1-6.3l-0.5-1.2c-1.4-0.6-2.8-1.2-4.2-1.8l-1.2,0.6c-1.1,1.8-2.7,3.1-4.6,3.8c0.4,0.9,0.9,1.7,1.5,2.5
		c0.4-0.4,0.8-0.9,1.1-1.4l0-0.1l1.5-0.7l0.1,0c1.4,0.5,2.8,1.1,4.1,1.7l0.1,0l0.6,1.4l0,0.1c-0.1,0.6-0.1,1.3,0,2
		C-96.8,368.3-95.9,368-95,367.7 M-86.6,376.7c-0.8-2.2-0.9-4.6-0.2-6.8l-0.3-1.2c-1.2-0.8-2.4-1.6-3.7-2.3l-1.2,0.3
		c-1.4,1.6-3.4,2.6-5.5,2.9c0.5,2.5,2,4.7,4.1,6c1.4,0.9,3,1.3,4.6,1.3C-88.1,377-87.4,376.9-86.6,376.7 M-75.4,375.8l-0.1-1.4
		c-1-1-2.2-2-3.4-3.1l-1.4,0.1c-1.7,1.3-3.8,2-5.9,1.9c0.1,1,0.4,2,0.8,2.9c0.6-0.3,1.2-0.6,1.7-1l0.1-0.1l1.6-0.1l0.1,0.1
		c1.2,1,2.3,2,3.3,3l0.1,0.1l0.1,1.6l0,0.1c-0.3,0.5-0.5,1-0.6,1.6c0.9,0.2,1.8,0.3,2.7,0.2C-76.7,379.7-76.3,377.6-75.4,375.8
		 M-69.8,386.9l0.1-1.3c-0.8-1.1-1.7-2.3-2.7-3.5l-1.3-0.1c-1.7,0.9-3.8,1.2-5.8,0.8c-0.4,2.6,0.3,5.2,1.9,7.3
		c1.5,1.9,3.5,3,5.8,3.3C-71.9,391-71.2,388.7-69.8,386.9 M-60.5,396.7l0.3-1.3l-0.1-0.2c-0.3-0.6-0.6-1.3-1-1.9
		c-0.3-0.6-0.6-1.1-1-1.7l-0.2-0.3l-1.3-0.4c-2.1,0.6-4.5,0.4-6.6-0.5c-0.2,1-0.3,2.1-0.2,3.1c0.8,0,1.5-0.1,2.3-0.3l0.1,0l1.6,0.5
		l0.3,0.5c0.3,0.5,0.6,1,0.9,1.6c0.3,0.6,0.6,1.2,0.9,1.7l0.2,0.4l-0.4,1.5l-0.1,0.1c-0.4,0.4-0.9,0.9-1.2,1.4
		c0.8,0.5,1.7,0.9,2.6,1.1C-63,399.8-61.9,398-60.5,396.7 M-59.2,408.9l0.5-1.1l-0.1-0.3c-0.2-0.6-0.4-1.3-0.6-1.9
		c-0.2-0.6-0.4-1.2-0.6-1.8l-0.1-0.3l-1.2-0.6c-1.8,0.2-3.7-0.2-5.4-1.1c-1.2,2.2-1.4,4.9-0.5,7.3c0.7,2.1,2.2,3.9,4,5
		C-62.4,411.9-61,410.1-59.2,408.9 M-52.4,420.3c-0.2-1.6-0.5-3.1-0.8-4.6l-1.2-0.9c-2.4-0.2-4.7-1.3-6.4-3.1c-0.6,0.9-1,1.9-1.3,3
		c0.9,0.4,1.8,0.6,2.6,0.7l0.1,0l1.4,1l0,0.1c0.3,1.5,0.5,3,0.7,4.5l0,0.1l-0.9,1.3l-0.1,0c-0.6,0.2-1.3,0.6-1.9,1
		c0.7,0.8,1.4,1.4,2.2,1.9c1.1-1.8,2.7-3.2,4.7-3.9L-52.4,420.3z"/>
</g>
</svg>
