<?xml version="1.0" encoding="utf-8"?>
<!-- Generator: Adobe Illustrator 19.0.0, SVG Export Plug-In . SVG Version: 6.00 Build 0)  -->
<svg version="1.1" id="Capa_1" xmlns="http://www.w3.org/2000/svg" xmlns:xlink="http://www.w3.org/1999/xlink" x="0px" y="0px"
	 viewBox="-210 325.9 173.5 190" style="enable-background:new -210 325.9 173.5 190;" xml:space="preserve">
<g id="XMLID_100_">
	<path d="M-45.1,494.1h-156.3c-2,0-3.8-1-4.8-2.7s-1-3.8,0-5.5l78.1-135.4c1-1.7,2.8-2.8,4.8-2.8l0,0c2,0,3.8,1,4.8,2.7l78.2,135.4
		c1,1.7,1,3.8,0,5.5C-41.3,493-43.1,494.1-45.1,494.1z M-191.9,483.1h137.3l-68.7-118.9L-191.9,483.1z"/>
</g>
<g>
	<path d="M-139.3,438.7c5.3,0,10.5,4.9,10.5,4.9l-0.3-1.9c-1.7-16.3,13.3-15.2,13.3-15.2c-1-3.6-4.2-5.8-10.6-4.4
		c-6.4,1.5-15.2-1.5-20.2,1.6s-6.1,7.2-5.3,11.1c0.7,3.8,5.3,6.6,5.3,6.6S-144.6,438.7-139.3,438.7z M-144.2,427.5
		c0.1,0,0.3,0,0.4,0c0.8,0.1,1.5,0.8,1.4,1.6c0,0.4-0.2,0.8-0.5,1.1l-0.1,0.1c-1.5,1.3-3.2,1.3-3.4,0
		C-146.5,428.9-145.3,427.7-144.2,427.5L-144.2,427.5z"/>
	<path d="M-93.6,432.4c-2-1.1-4.2-1.4-6.4-1c-0.7,0.2-1.5,0.3-2.3,0.4c-2.7,0.2-5.4-0.1-7.9-0.9c-1.1-0.4-2.5-0.8-4.2-1.5
		c-5.4-2.1-12.4,2.1-12.4,10.3s7.1,15.3,18.2,16.1c10.3,0.7,20.4-4.5,19.5-16C-89.3,436.6-91,433.9-93.6,432.4z M-117.7,437.9
		l-0.1,0.1c-1.7,1.1-3.4,0.9-3.3-0.4c0-1.3,1.4-2.3,2.5-2.5c0.1,0,0.3,0,0.4,0c0.8,0.1,1.4,0.9,1.3,1.7
		C-117,437.3-117.3,437.7-117.7,437.9z M-96.9,450c-0.8,1.1-3.2,1.6-3.7,0.9c-0.5-0.8,0.7-0.7,1.3-1.5c0.3-0.4,0.7-0.8,1.1-1.1
		c0.6-0.1,1.2,0.1,1.5,0.6C-96.5,449.3-96.6,449.7-96.9,450z"/>
	<path d="M-85.3,418.5c-3.1-6.4-9-6.1-9-6.1c-9.6-0.3-22.4,4.4-18,15.3c0,0,4.8,2.1,13.2,1.4c3.8-0.3,7.9,0.9,10.3,4.3
		c2.2-0.8,3.8-2.6,4.3-4.9C-83.9,425.8-83.6,422-85.3,418.5z M-105.5,420.6L-105.5,420.6c-1.2,1-2.5,1-2.5,0.1c0-1,0.7-1.8,1.6-2
		c0.1,0,0.2,0,0.3,0c0.6,0.1,1,0.6,1,1.3C-105.1,420.2-105.3,420.4-105.5,420.6z"/>
	<path d="M-138.1,420.1c1.7-2.2,2-5.2,0.9-7.7c-1.9-4.5-7.4-4.5-10.3-3c-2.8,1.5-5.1,3.3-10.4,4.4c-7.3,1.5-6,14.4,3.7,14.9
		C-154.2,428.7-151.5,418.4-138.1,420.1z M-156,419.2L-156,419.2c-1.2,1-2.5,1-2.5,0.1c0-1,0.7-1.8,1.6-2c0.1,0,0.2,0,0.3,0
		c0.6,0.1,1,0.7,0.9,1.3C-155.8,418.8-155.9,419-156,419.2L-156,419.2z"/>
	<path d="M-136,442.1c0,0-6.4-2.2-9.7,2.5c-3.4,4.6-2,10.6,1.8,15.8c3.9,5.2,4.2,8.1,4.4,8.8c0.8,2.5,3.7,9.8,12.9,7
		c11.1-3.5,7.8-16.7,4.4-21.9S-131.1,443.9-136,442.1z M-140.8,454.3c-1.1,0.6-2.5-0.2-2.8-2.5s1.5-1.8,1.5-1.8
		C-140.6,450.7-139.7,453.7-140.8,454.3L-140.8,454.3z M-125.2,470.8c-0.6,0-1.1-0.5-1.1-1.1c0-0.6,0.5-1.1,1.1-1.1
		c0.6,0,1.1,0.5,1.1,1.1C-124.1,470.3-124.6,470.8-125.2,470.8C-125.2,470.8-125.2,470.8-125.2,470.8z"/>
</g>
<g>
	<path d="M-102.4,483.9c-1.8,0.4-3.2,0.1-4.4-0.8c-1.2-0.9-2-2.4-2.5-4.5c-0.2-1-0.3-2-0.2-2.9c0.1-0.9,0.3-1.6,0.7-2.3
		c0.4-0.7,0.9-1.2,1.5-1.7c0.6-0.4,1.3-0.8,2.2-0.9c0.4-0.1,0.9-0.2,1.2-0.2c0.4,0,0.7,0,1,0c0.3,0,0.5,0.1,0.7,0.1
		c0.2,0.1,0.4,0.1,0.5,0.1l-0.2,2.1c-0.4-0.1-0.8-0.2-1.2-0.3c-0.5,0-1,0-1.5,0.1c-0.4,0.1-0.8,0.2-1.1,0.5
		c-0.3,0.2-0.6,0.5-0.8,0.9c-0.2,0.4-0.4,0.9-0.4,1.5c-0.1,0.6,0,1.3,0.2,2.1c0.3,1.4,0.8,2.5,1.5,3.1c0.7,0.6,1.5,0.8,2.7,0.6
		c0.6-0.1,1.2-0.3,1.6-0.6c0.4-0.2,0.7-0.5,0.9-0.7l1.1,1.8c-0.3,0.3-0.7,0.6-1.3,0.9C-101,483.5-101.6,483.7-102.4,483.9z"/>
	<path d="M-91.1,481.1l-1.2-2.7l-3.3,0.8l0.1,3l-2.6,0.6c0-2.6,0.1-5,0.3-7.1c0.1-2.2,0.3-4.2,0.5-6.1l2.7-0.6c1,1.7,2,3.5,3.1,5.4
		c1,1.9,2.1,4,3.2,6.3L-91.1,481.1z M-95.6,471.5c0,0.5-0.1,1-0.1,1.4c0,0.4,0,0.9,0,1.3c0,0.4,0,0.9,0,1.3c0,0.4,0,0.9,0,1.3
		l2.4-0.6c-0.2-0.4-0.4-0.8-0.5-1.2c-0.2-0.4-0.4-0.8-0.6-1.2c-0.2-0.4-0.4-0.8-0.6-1.2C-95.2,472.4-95.4,471.9-95.6,471.5z"/>
	<path d="M-82.3,479.3c-1.8,0.4-3.2,0.1-4.4-0.8c-1.2-0.9-2-2.4-2.5-4.5c-0.2-1-0.3-2-0.2-2.9c0.1-0.9,0.3-1.6,0.7-2.3
		c0.4-0.7,0.9-1.2,1.5-1.7c0.6-0.4,1.3-0.8,2.2-0.9c0.4-0.1,0.9-0.2,1.2-0.2c0.4,0,0.7,0,1,0c0.3,0,0.5,0.1,0.7,0.1
		c0.2,0.1,0.4,0.1,0.5,0.1l-0.2,2.1c-0.4-0.1-0.8-0.2-1.2-0.3c-0.5,0-1,0-1.5,0.1c-0.4,0.1-0.8,0.2-1.1,0.5
		c-0.3,0.2-0.6,0.5-0.8,0.9c-0.2,0.4-0.4,0.9-0.4,1.5c-0.1,0.6,0,1.3,0.2,2.1c0.3,1.4,0.8,2.5,1.5,3.1c0.7,0.6,1.5,0.8,2.7,0.6
		c0.6-0.1,1.2-0.3,1.6-0.6c0.4-0.2,0.7-0.5,0.9-0.7l1.1,1.8c-0.3,0.3-0.7,0.6-1.3,0.9C-80.8,478.9-81.5,479.2-82.3,479.3z"/>
	<path d="M-71.2,476.5c-0.3-0.4-0.6-0.9-1-1.4c-0.4-0.5-0.8-0.9-1.3-1.4c-0.5-0.4-0.9-0.8-1.4-1.2c-0.5-0.4-0.9-0.7-1.3-0.9l1.3,5.7
		l-2.5,0.6l-2.8-12.5l2.5-0.6l1.2,5.2c0.2-0.4,0.4-0.9,0.6-1.5c0.2-0.5,0.4-1.1,0.6-1.6c0.2-0.5,0.3-1,0.5-1.5
		c0.1-0.5,0.3-0.9,0.3-1.3l2.8-0.6c-0.1,0.4-0.2,0.9-0.4,1.4c-0.2,0.5-0.3,1.1-0.6,1.7c-0.2,0.6-0.5,1.2-0.7,1.8
		c-0.3,0.6-0.6,1.2-0.9,1.8c0.5,0.3,1,0.7,1.6,1.1c0.5,0.4,1.1,0.9,1.6,1.4c0.5,0.5,1,1,1.5,1.6c0.4,0.6,0.8,1.1,1.2,1.7
		L-71.2,476.5z"/>
	<path d="M-61.8,472.9c0.1,0.5,0,1-0.2,1.3c-0.3,0.4-0.6,0.6-1.1,0.7c-0.4,0.1-0.8,0-1.3-0.2c-0.4-0.2-0.7-0.6-0.8-1.1
		c-0.1-0.5,0-1,0.2-1.3c0.3-0.4,0.6-0.6,1.1-0.7c0.4-0.1,0.8,0,1.3,0.2C-62.1,472-61.9,472.4-61.8,472.9z M-63.8,465.2
		c0.1,0.5,0.2,0.9,0.3,1.3c0.1,0.4,0.1,0.8,0.2,1.1c0,0.4,0.1,0.7,0.1,1.1c0,0.4,0.1,0.8,0.1,1.2l-2.1,0.5c-0.2-0.4-0.3-0.8-0.4-1.1
		c-0.1-0.3-0.3-0.7-0.4-1c-0.1-0.3-0.2-0.7-0.3-1.1c-0.1-0.4-0.2-0.8-0.3-1.3l-0.7-3.3l2.9-0.6L-63.8,465.2z"/>
</g>
</svg>
