<?xml version="1.0" encoding="utf-8"?>
<!-- Generator: Adobe Illustrator 19.0.0, SVG Export Plug-In . SVG Version: 6.00 Build 0)  -->
<svg version="1.1" id="Capa_1" xmlns="http://www.w3.org/2000/svg" xmlns:xlink="http://www.w3.org/1999/xlink" x="0px" y="0px"
	 viewBox="-210 325.9 173.5 190" style="enable-background:new -210 325.9 173.5 190;" xml:space="preserve">
<path d="M-123.3,497.6c-42.3,0-76.8-34.4-76.8-76.8c0-42.3,34.4-76.8,76.8-76.8s76.8,34.4,76.8,76.8
	C-46.5,463.2-80.9,497.6-123.3,497.6z M-123.3,352.1c-37.9,0-68.8,30.8-68.8,68.8s30.8,68.8,68.8,68.8c37.9,0,68.8-30.8,68.8-68.8
	S-85.3,352.1-123.3,352.1z"/>
<path d="M-60.4,415.9c-1.8-2.9-3.9-5.6-5.8-8.3c-1.1-1.4-2.1-2.8-3-4.2c-0.5-0.7-0.7-0.9,0.3-1.1l9.7-2.6c1-0.2,0.9-1.2,0.2-1.4
	l-7.7-2.6c-0.3-4.5-4.1-7.7-8.7-7.1c-3.6,0.5-6.3,2.9-7.2,6.3c-1.2,4.2,0.8,7.9,3.1,12.2c1.2,2.1,2.4,4.4,3.2,6.8
	c1,2.9-3.3,4.5-8.1,6.2c-5.2,1.9-7.8,3.1-11.8,6.3c-0.1,0-0.1,0.1-0.2,0.1c-5.8,4.5-14.3,0.9-15.1-6.3l-2.2-18.4
	c0-6.7,0.4-29.1,1.3-31.3c0.7-1.6,2-3,4-4.2c2.9-1.6,5.9-2.3,9-2.3h4.7v-3.6h-28.4h-28.4v3.6h4.7c3.1,0,6.1,0.8,9,2.3
	c2,1.2,3.4,2.6,4,4.2c0.8,2.1,1.3,24.6,1.3,31.3l-2.2,18.4c-0.9,7.3-9.4,10.9-15.1,6.3c-0.1,0-0.1-0.1-0.2-0.1
	c-4-3.1-6.5-4.3-11.8-6.3c-4.7-1.7-9-3.3-8.1-6.2c0.8-2.5,2.1-4.7,3.2-6.8c2.3-4.2,4.3-7.9,3.1-12.2c-1-3.5-3.7-5.9-7.2-6.3
	c-4.6-0.6-8.4,2.5-8.7,7.1l-7.7,2.6c-0.8,0.3-0.8,1.3,0.2,1.4l9.7,2.6c1,0.3,0.8,0.4,0.3,1.1c-0.9,1.3-2,2.7-3,4.2
	c-2,2.6-4.1,5.4-5.8,8.3c-2.2,3.5-3.2,7.3-3.1,11c0.1,9,6.1,17,13.5,21.6c4.1,2.5,8.8,4.2,13.7,4.8l4.6,0.1c2.9,0,9.7-1.5,13.9-3.4
	c4.4-2,10.8,2.1,10.8,7.4c0,7.9-0.8,13-2.3,15c-2.5,3.2-6.4,4.8-11.9,4.8h-4.7v3.6h28.4h28.4v-3.6h-4.7c-5.5,0-9.4-1.6-11.9-4.8
	c-1.6-2.1-2.3-7.1-2.3-15c0-5.3,6.4-9.4,10.8-7.4c4.2,1.9,11,3.4,13.9,3.4l4.6-0.1c5-0.5,9.7-2.2,13.7-4.8
	c7.4-4.6,13.4-12.6,13.5-21.6C-57.2,423.1-58.2,419.4-60.4,415.9z"/>
</svg>
