<?xml version="1.0" encoding="utf-8"?>
<!-- Generator: Adobe Illustrator 19.0.0, SVG Export Plug-In . SVG Version: 6.00 Build 0)  -->
<svg version="1.1" id="Capa_1" xmlns="http://www.w3.org/2000/svg" xmlns:xlink="http://www.w3.org/1999/xlink" x="0px" y="0px"
	 viewBox="-210 325.9 173.5 190" style="enable-background:new -210 325.9 173.5 190;" xml:space="preserve">
<path d="M-113.7,354.8c0.4-0.1,0.7,0.3,1.1,0.4c13.2,7.5,26.4,15,39.6,22.5c5.2,14.2,10.5,28.3,15.7,42.5c0.1,0.3,0.3,0.6,0.2,1
	c-5.3,14.2-10.5,28.5-15.8,42.7c-0.1,0.3-0.5,0.4-0.7,0.6c-12.6,7.1-25.1,14.3-37.7,21.4c-0.7,0.4-1.4,0.9-2.1,1.1
	c-15.2-2.6-30.4-5.3-45.6-7.9c-0.4,0-0.5-0.4-0.8-0.6c-9.8-11.5-19.7-23.1-29.5-34.6c0-15.3,0-30.6,0-45.9
	c7.7-9,15.4-18.1,23.1-27.1c2.3-2.7,4.6-5.4,6.9-8.1c3.5-0.7,6.9-1.2,10.4-1.8C-137.2,358.9-125.5,356.8-113.7,354.8 M-113.4,358.2
	c0,0.3,0,0.6,0,0.8c-0.9,7.9-1.8,15.8-2.7,23.8c-0.2,2-0.5,3.9-0.6,5.9c5.9,3.3,11.8,6.8,17.8,10.1c0.8-0.8,1.6-1.4,2.4-2.1
	c6.8-5.8,13.6-11.5,20.4-17.3c-2-1.2-4-2.3-6.1-3.5C-92.6,370.1-103,364.1-113.4,358.2 M-159.9,367.9c-8.6,10.1-17.1,20.1-25.7,30.2
	c9.9,3.5,19.8,7,29.8,10.5c3.3-3.9,6.6-7.8,10-11.7c1.2-1.5,2.5-2.9,3.7-4.4c-3.9-5.8-7.7-11.7-11.6-17.6c-1.7-2.7-3.5-5.3-5.2-8
	C-159.3,367.2-159.6,367.6-159.9,367.9 M-74.8,381.6c-0.3,0.3-0.6,0.6-1,0.9c-7.2,6.1-14.5,12.3-21.7,18.4c-0.1,0.1,0,0.3,0,0.5
	c2.2,6,4.4,11.9,6.6,17.9c10,0,20,0,30,0c-4.6-12.4-9.2-24.8-13.8-37.2C-74.7,381.9-74.8,381.8-74.8,381.6 M-139.9,394.4
	c-4.5,5.2-8.9,10.5-13.4,15.7c-0.2,0.1-0.2,0.4-0.2,0.6c0,5.3,0,10.6,0,15.9c0,1.5-0.1,3,0,4.5c4.5,5.3,9,10.6,13.5,15.9
	c7,1.2,13.9,2.4,20.9,3.6c6.1-3.5,12.2-6.9,18.3-10.4c2.4-6.4,4.8-12.9,7.1-19.3c0.1-0.2,0-0.5-0.1-0.7c-2.4-6.3-4.7-12.7-7-19
	c-6.1-3.5-12.2-6.9-18.3-10.4C-126,392-132.9,393.2-139.9,394.4 M-186.4,400.2c0,13.6,0,27.3,0,40.9c10-3.5,20-7.1,30-10.6
	c0-6.6,0-13.1,0-19.7C-166.4,407.3-176.4,403.8-186.4,400.2 M-117.3,453.1c1.3,10.2,2.7,20.3,4,30.4c12-6.8,24.1-13.7,36.1-20.5
	c0.4-0.2,0.8-0.4,1.2-0.7c-8.1-6.3-16.1-12.6-24.2-18.8C-106,446.6-111.7,449.9-117.3,453.1 M-141,449.9
	c-5.4,8.8-10.9,17.7-16.3,26.5c13.8,2.4,27.7,4.8,41.5,7.2c-1.3-10-2.6-20-4-30C-126.8,452.3-133.9,451.1-141,449.9z"/>
</svg>
