<?xml version="1.0" encoding="utf-8"?>
<!-- Generator: Adobe Illustrator 19.0.0, SVG Export Plug-In . SVG Version: 6.00 Build 0)  -->
<svg version="1.1" id="Capa_1" xmlns="http://www.w3.org/2000/svg" xmlns:xlink="http://www.w3.org/1999/xlink" x="0px" y="0px"
	 viewBox="-210 325.9 173.5 190" style="enable-background:new -210 325.9 173.5 190;" xml:space="preserve">
<g id="XMLID_100_">
	<path d="M-45.1,494.1h-156.3c-2,0-3.8-1-4.8-2.7s-1-3.8,0-5.5l78.1-135.4c1-1.7,2.8-2.8,4.8-2.8l0,0c2,0,3.8,1,4.8,2.7l78.2,135.4
		c1,1.7,1,3.8,0,5.5C-41.3,493-43.1,494.1-45.1,494.1z M-191.9,483.1h137.3l-68.7-118.9L-191.9,483.1z"/>
</g>
<g>
	<path d="M-136.9,428.8h26.1c1,0,1.9-0.8,1.9-1.9c0-1-0.8-1.9-1.9-1.9h-26.1c-1,0-1.9,0.8-1.9,1.9
		C-138.8,427.9-138,428.8-136.9,428.8L-136.9,428.8z M-136.9,428.8"/>
	<path d="M-136.9,435.2h26.1c1,0,1.9-0.8,1.9-1.9c0-1-0.8-1.9-1.9-1.9h-26.1c-1,0-1.9,0.8-1.9,1.9
		C-138.8,434.3-138,435.2-136.9,435.2L-136.9,435.2z M-136.9,435.2"/>
	<path d="M-123.1,457.1h-13.8c-1,0-1.9,0.8-1.9,1.9c0,1,0.8,1.9,1.9,1.9h13.8c1,0,1.9-0.8,1.9-1.9
		C-121.3,458-122.1,457.1-123.1,457.1L-123.1,457.1z M-123.1,457.1"/>
	<path d="M-84.4,415l-5.5-3.3c-0.4-0.3-0.9-0.3-1.4-0.2c-0.5,0.1-0.9,0.4-1.1,0.9l-9.6,15.9V417c0-1-0.8-1.9-1.9-1.9h-41.8
		c-1,0-1.9,0.8-1.9,1.9v52.6c0,1,0.8,1.9,1.9,1.9h41.8c1,0,1.9-0.8,1.9-1.9V448l18.3-30.4C-83.2,416.7-83.5,415.5-84.4,415
		L-84.4,415z M-108.5,451.6l-3.1,2.6l0.8-3.9l17.9-29.9l2.3,1.4L-108.5,451.6z M-88.7,418.5l-2.3-1.4l0.8-1.3l2.3,1.4L-88.7,418.5z
		 M-143.8,467.8v-48.9h38.1v15.7l-3.3,5.5c0-0.1,0-0.2,0-0.3c0-1-0.8-1.9-1.9-1.9h-26.1c-1,0-1.9,0.8-1.9,1.9c0,1,0.8,1.9,1.9,1.9
		h26.1c0.4,0,0.8-0.1,1.1-0.4l-1.8,3h-25.3c-1,0-1.9,0.8-1.9,1.9c0,1,0.8,1.9,1.9,1.9h23.1l-0.3,0.5c-0.1,0.2-0.2,0.4-0.2,0.6
		l-0.3,1.6h-22.2c-1,0-1.9,0.8-1.9,1.9c0,1,0.8,1.9,1.9,1.9h21.5l-0.9,4.2c-0.2,0.8,0.2,1.6,0.9,2c0.3,0.2,0.6,0.3,1,0.3
		c0.4,0,0.8-0.1,1.2-0.4l7.4-6.2c0.1,0,0.1-0.1,0.1-0.1v13.6H-143.8z M-143.8,467.8"/>
</g>
</svg>
