<?xml version="1.0" encoding="utf-8"?>
<!-- Generator: Adobe Illustrator 19.0.0, SVG Export Plug-In . SVG Version: 6.00 Build 0)  -->
<svg version="1.1" id="Capa_1" xmlns="http://www.w3.org/2000/svg" xmlns:xlink="http://www.w3.org/1999/xlink" x="0px" y="0px"
	 viewBox="-210 325.9 173.5 190" style="enable-background:new -210 325.9 173.5 190;" xml:space="preserve">
<g id="XMLID_100_">
	<path d="M-45.1,494.1h-156.3c-2,0-3.8-1-4.8-2.7s-1-3.8,0-5.5l78.1-135.4c1-1.7,2.8-2.8,4.8-2.8l0,0c2,0,3.8,1,4.8,2.7l78.2,135.4
		c1,1.7,1,3.8,0,5.5C-41.3,493-43.1,494.1-45.1,494.1z M-191.9,483.1h137.3l-68.7-118.9L-191.9,483.1z"/>
</g>
<path d="M-97.6,421.6L-108,432c-2.2,2.2-5.8,2.2-8.1,0c-1.1-1.1-1.7-2.5-1.7-4c0-1.5,0.6-3,1.7-4l9-9c0.3-0.3,0.3-0.8,0-1.1
	s-0.8-0.3-1.1,0l-9,9c-0.2,0.2-0.4,0.4-0.6,0.7c-3.9-3-8.7-4.7-13.9-4.7c-12.6,0-22.9,10.3-22.9,22.9c0,12.6,10.3,22.9,22.9,22.9
	c12.6,0,22.9-10.3,22.9-22.9c0-2.4-0.4-4.8-1.1-7c1-0.3,2-0.9,2.9-1.7l10.4-10.4c0.3-0.3,0.3-0.8,0-1.1S-97.3,421.3-97.6,421.6z
	 M-121.9,460.8c-0.3-1-1.1-1.3-1.6-1.4c-0.5-0.1-0.9-0.1-1.2-0.1c-0.6,0-1.3,0.1-2.8-0.6c-1-0.4-2.1-0.1-3,0.9
	c-0.5,0.5-2.1,0.6-3.1,0.5c0.4-0.7,0.3-1.5-0.1-2.2c-0.5-0.6-1.3-0.9-2.1-0.7c-0.8,0.2-1.1,0.8-1.3,1.2c0,0.1-0.1,0.2-0.1,0.3
	c-0.1,0.1-0.3,0.1-0.4,0.1c-0.9,0.3-1.8,0.7-2.3,2.5c-7.7-3.3-13.1-10.9-13.1-19.7c0-3.1,0.7-6.1,1.9-8.8c0,0.1,0.1,0.3,0.1,0.4
	c0.2,1.3,1,2,2.6,1.9c0.4,0,0.7,0,1.1,0.6c0.4,0.7,1.2,0.9,1.7,1c0.1,0,0.2,0,0.3,0.1c0,0.1-0.1,0.1-0.1,0.2c-0.4,0.5-1,1.2-1,2.6
	c0,1.2,0.7,1.9,1.3,2.4c0.4,0.4,0.7,0.7,0.7,1.1c0.1,1.1,1,1.7,1.8,2.3c0.8,0.5,1.3,0.9,1.3,1.4c0,0.9-0.2,1.4-0.3,1.8
	c-0.1,0.4-0.3,0.9-0.3,1.5c0,0.9,0.6,1.5,1,2c0.3,0.4,0.7,0.7,0.7,1.1c0,1,0.5,2.9,1.5,3.7c0.4,0.3,0.8,0.5,1.2,0.5
	c0.1,0,0.3,0,0.4,0c0.5-0.1,1-0.4,1.2-0.9c0.3-0.7,0.1-1.7-0.2-2.3c-0.3-0.5-0.3-1-0.1-1.5c0.1-0.3,0.3-0.6,0.5-0.6
	c1.3-0.4,1.4-1.4,1.5-2l0-0.1c0-0.1,0.2-0.2,0.3-0.3c0.4-0.4,1-0.9,1.1-1.9c0.1-0.6,0.4-0.7,1.5-1.1c0.2-0.1,0.5-0.2,0.7-0.2
	c1.8-0.7,1.6-2.2,1.4-3.1c-0.1-0.4-0.1-0.8,0-1c0.1-0.1,0.2-0.3,0.4-0.5c0.6-0.7,1.9-2.3,0.2-3.7c-1-0.8-1.8-0.9-2.4-1
	c-0.5-0.1-0.6-0.1-0.8-0.3c-0.2-0.2-0.4-0.5-0.6-0.7c-0.7-0.9-1.6-2.2-3-2.1c-0.5,0-0.8-0.3-1.3-0.8c-0.3-0.3-0.7-0.7-1.1-0.9
	c-0.9-0.5-1.6-0.2-2.1,0.1c-0.3,0.2-0.5,0.2-0.7,0.2c-0.9-0.1-1.6,0.1-2.3,0.4c-0.3,0.1-0.6,0.2-1,0.3c-0.2,0.1-0.3,0-0.3,0
	c-0.1-0.1-0.2-0.3-0.2-0.7c0-0.7-0.2-1.3-0.7-1.7c-0.5-0.4-1.1-0.5-1.8-0.4c0-0.1,0.1-0.3,0.3-0.5c0.4-0.4,1-0.7,1.3-0.6
	c0.1,0,0.2,0.1,0.4,0.3c0.5,1,1.4,1.2,2,1c0.9-0.3,1.4-1.3,1.3-2.4c0-0.2-0.1-0.3-0.1-0.4c0.1,0,0.1-0.1,0.2-0.2
	c0.2-0.1,0.4-0.3,0.7-0.5c0.5-0.4,0.9-0.8,1.4-1.2c0.8-0.8,1.5-1.5,2.3-1.5c0.4,0,3.9,0,4.7-1.3c0.2-0.3,0.2-0.7,0-1.1
	c-0.2-0.5-0.8-1-1.4-1.6c0.8-0.1,1.6-0.1,2.4-0.1c1.9,0,3.8,0.3,5.6,0.7c-0.6,0.7-0.5,1.4-0.5,1.7c0.2,0.9,1,1.4,2,1.5
	c1.2,0,1.6,0.3,1.6,0.4l0.1,0.5c0.2,0.9,0.3,1.7,1,2.9c0.2,0.3-0.2,1-0.5,1.5c-0.2,0.4-0.4,0.8-0.5,1.2c-0.3,1-0.9,3.2,0.9,4.4
	c0.5,0.3,0.6,0.6,0.8,1c0.2,0.4,0.3,0.8,0.8,1.3c1.3,1.4,3,1,4.1,0.8l0.3-0.1c0.1,0,0.2,0,0.4,0.1c0.4,0.4,0.9,1.5,0.8,3.1
	c0,1-0.5,2-0.9,2.8c-0.4,0.9-0.8,1.7-0.7,2.6l0,0.3c0.1,0.9,0.2,2.6-0.5,3.5c-0.7,0.8-0.7,1.9,0,2.6c0.3,0.3,0.8,0.6,1.4,0.6
	c0.6,0,1.3-0.2,2-0.8c0,0,0.1-0.1,0.1-0.1C-115.4,456.2-118.4,459-121.9,460.8z M-116.4,427.9c0,2.4,2,4.4,4.4,4.4
	c1.2,0,2.3-0.5,3.1-1.3c0.8-0.8,1.3-1.9,1.3-3.1c0-1.2-0.5-2.3-1.3-3.1s-1.9-1.3-3.1-1.3C-114.4,423.5-116.4,425.5-116.4,427.9z
	 M-101.3,420.7l-4.7,4.7c-0.3,0.3-0.3,0.8,0,1.1c0.1,0.1,0.3,0.2,0.5,0.2s0.4-0.1,0.5-0.2l4.7-4.7c0.3-0.3,0.3-0.8,0-1.1
	S-101,420.4-101.3,420.7z M-99.4,415.3c-0.3-0.3-0.8-0.3-1.1,0l-6.6,6.6c-0.3,0.3-0.3,0.8,0,1.1c0.1,0.1,0.3,0.2,0.5,0.2
	s0.4-0.1,0.5-0.2l6.6-6.6C-99.1,416-99.1,415.5-99.4,415.3z M-110.3,421.7c0.1,0.1,0.3,0.2,0.5,0.2s0.4-0.1,0.5-0.2l11.3-11.3
	c0.3-0.3,0.3-0.8,0-1.1s-0.8-0.3-1.1,0l-11.3,11.3C-110.6,420.9-110.6,421.4-110.3,421.7z M-98.4,414.3c0.1,0.1,0.3,0.2,0.5,0.2
	c0.2,0,0.4-0.1,0.5-0.2l2.6-2.6c0.3-0.3,0.3-0.8,0-1.1s-0.8-0.3-1.1,0l-2.6,2.6C-98.7,413.5-98.7,414-98.4,414.3z M-101.7,409.2
	c0.2,0,0.4-0.1,0.5-0.2l0.2-0.2c0.3-0.3,0.3-0.8,0-1.1c-0.3-0.3-0.8-0.3-1.1,0l-0.2,0.2c-0.3,0.3-0.3,0.8,0,1.1
	C-102.1,409.2-101.9,409.2-101.7,409.2z M-94.1,413.5l-1.3,1.3c-0.3,0.3-0.3,0.8,0,1.1c0.1,0.1,0.3,0.2,0.5,0.2
	c0.2,0,0.4-0.1,0.5-0.2l1.3-1.3c0.3-0.3,0.3-0.8,0-1.1C-93.3,413.2-93.8,413.2-94.1,413.5z M-95,418.9l-0.7,0.7
	c-0.3,0.3-0.3,0.8,0,1.1c0.1,0.1,0.3,0.2,0.5,0.2c0.2,0,0.4-0.1,0.5-0.2l0.7-0.7c0.3-0.3,0.3-0.8,0-1.1S-94.7,418.6-95,418.9z
	 M-97.3,416.7l-2.3,2.3c-0.3,0.3-0.3,0.8,0,1.1c0.1,0.1,0.3,0.2,0.5,0.2c0.2,0,0.4-0.1,0.5-0.2l2.3-2.3c0.3-0.3,0.3-0.8,0-1.1
	C-96.5,416.4-97,416.4-97.3,416.7z M-92.2,408c-0.3-0.3-0.8-0.3-1.1,0l-0.4,0.4c-0.3,0.3-0.3,0.8,0,1.1c0.1,0.1,0.3,0.2,0.5,0.2
	c0.2,0,0.4-0.1,0.5-0.2l0.4-0.4C-91.9,408.8-91.9,408.3-92.2,408z M-105.9,413.4c0.2,0,0.4-0.1,0.5-0.2l1.9-1.9
	c0.3-0.3,0.3-0.8,0-1.1c-0.3-0.3-0.8-0.3-1.1,0l-1.9,1.9c-0.3,0.3-0.3,0.8,0,1.1C-106.3,413.3-106.1,413.4-105.9,413.4z"/>
</svg>
