<?xml version="1.0" encoding="utf-8"?>
<!-- Generator: Adobe Illustrator 19.0.0, SVG Export Plug-In . SVG Version: 6.00 Build 0)  -->
<svg version="1.1" id="Capa_1" xmlns="http://www.w3.org/2000/svg" xmlns:xlink="http://www.w3.org/1999/xlink" x="0px" y="0px"
	 viewBox="-210 325.9 173.5 190" style="enable-background:new -210 325.9 173.5 190;" xml:space="preserve">
<path d="M-89.1,449.2c0-11.5-5.7-22-15.1-28.3c9.4-6.3,15.1-16.8,15.1-28.3V362h-68.3v30.6c0,11.5,5.7,22,15.1,28.3
	c-9.4,6.3-15.1,16.8-15.1,28.3v30.6h68.3V449.2z M-94.2,474.7h-58.1v-25.5c0-11.1,6.2-21.1,16.2-26l4.6-2.3l-4.6-2.3
	c-10-4.9-16.2-14.9-16.2-26v-25.5h58.1v25.5c0,11.1-6.2,21.1-16.2,26l-4.6,2.3l4.6,2.3c10,4.9,16.2,14.9,16.2,26L-94.2,474.7
	L-94.2,474.7z"/>
<path d="M-115.6,487.5h34.2v-34.4c0-14-1.9-23.1-11.8-32.3c10.1-10.5,11.8-18.3,11.8-32.1v-34.4h-34.2h-15.2H-165v34.4
	c0,13.7,1.7,21.6,11.8,32.1c-9.9,9.2-11.8,18.3-11.8,32.3v34.4h34.2H-115.6z M-159.9,453.1c0-13.6,1.8-21.6,12.1-30.2l2.2-1.8l-2-2
	c-10.4-10.2-12.2-16.5-12.2-30.4v-29.3h29.1h15.2h29.1v29.3c0,13.9-1.8,20.2-12.2,30.4l-2,2l2.2,1.8c10.2,8.6,12.1,16.6,12.1,30.2
	v29.3h-29.1h-15.2h-29.1L-159.9,453.1L-159.9,453.1z"/>
<path d="M-112.5,431.6L-112.5,431.6c-4-2.5-6.9-5.6-6.9-11.7c0-4.8,4.2-8.1,6-9.3c5.6-3.4,9.4-9.5,9.4-16.5v-19.3h-38.5v19.3
	c0,7,3.8,13.1,9.4,16.5c1.8,1.2,6,4.5,6,9.3c0,6.1-2.9,9.3-6.9,11.7h0c-5.1,3.5-8.5,9.3-8.5,16v19.3h38.5v-19.3
	C-104,441-107.4,435.1-112.5,431.6z"/>
</svg>
