<?xml version="1.0" encoding="utf-8"?>
<!-- Generator: Adobe Illustrator 19.0.0, SVG Export Plug-In . SVG Version: 6.00 Build 0)  -->
<svg version="1.1" id="Capa_1" xmlns="http://www.w3.org/2000/svg" xmlns:xlink="http://www.w3.org/1999/xlink" x="0px" y="0px"
	 viewBox="-210 325.9 173.5 190" style="enable-background:new -210 325.9 173.5 190;" xml:space="preserve">
<g>
	<g>
		<path d="M-99.2,416.8h-4.2v28.6h-6v-28.6h-10v43.6h5.2c2.7,0,4.9-2.2,4.9-4.9v-2.1h-7.9v-6h10.7h7.3c3.2,0,5.8-2.6,5.8-5.8v-19
			C-93.4,419.4-96,416.8-99.2,416.8z"/>
		<path d="M-84.9,369.6h-38.4h-38.4c0,12.6-10.3,22.9-22.9,22.9v23.9c0,39.4,24.4,74.6,61.3,88.4c36.9-13.8,61.3-49,61.3-88.4v-23.9
			C-74.7,392.5-84.9,382.2-84.9,369.6z M-125.2,401.3h6v7.5h-6V401.3z M-87.4,422.6v19c0,6.3-4.9,11.4-11.1,11.8l0,0h-4.9v2.1
			c0,6-4.9,10.9-10.9,10.9h-29.1v-6h2v-7h-18v-6h2v-28.6h6v28.6h10v-30.6h-18v-6h18v-12h6v48.6h10v-30.6h-7.4v-6h10.6h12.9v-7h6v7
			h4.9l0,0c5.9,0.4,10.6,5.1,11,11l0,0C-87.3,421.8-87.3,422.6-87.4,422.6z"/>
		<rect x="-135.4" y="453.4" width="10" height="7"/>
	</g>
	<g id="XMLID_462_">
		<g id="XMLID_384_">
			<g id="XMLID_424_">
				<path id="XMLID_425_" d="M-188.5,464.8c0,0,0.8-4.1-2.8-7.4s-7.8-3.1-7.8-3.1s-0.8,4.8,2.7,8
					C-192.9,465.6-188.5,464.8-188.5,464.8L-188.5,464.8z"/>
			</g>
			<path id="XMLID_421_" d="M-165.3,481.3c0,0,3.2-3.1,2.6-7.8c-0.6-4.7-5-6.8-5-6.8s-2.6,3.3-2,8.1
				C-169.1,479.6-165.3,481.3-165.3,481.3L-165.3,481.3z"/>
			<path id="XMLID_418_" d="M-153.9,486.6c0,0,2.1-3.9,0.2-8.3c-1.9-4.3-6.7-5.1-6.7-5.1s-1.6,3.9,0.4,8.4
				C-158,486-153.9,486.6-153.9,486.6L-153.9,486.6z"/>
			<path id="XMLID_415_" d="M-183.9,473.7c0,0-0.5-4.1-4.8-6.2c-4.4-2.1-8.3-0.7-8.3-0.7s0.7,4.8,4.9,6.9
				C-187.9,475.8-183.9,473.7-183.9,473.7L-183.9,473.7z"/>
			<path id="XMLID_412_" d="M-176.3,481.4c0,0-1.4-3.9-6.1-5c-4.7-1.1-8.3,1.2-8.3,1.2s1.7,4.5,6.3,5.6
				C-179.8,484.2-176.3,481.4-176.3,481.4L-176.3,481.4z"/>
			<path id="XMLID_406_" d="M-175.4,483.7c-4.8,0.4-7.5,3.7-7.5,3.7s3,3.8,7.8,3.4c4.7-0.4,7.1-4.2,7.1-4.2
				S-170.5,483.3-175.4,483.7L-175.4,483.7z"/>
			<path id="XMLID_403_" d="M-164.5,488.8c-4.8,1-7,4.5-7,4.5s3.5,3.4,8.1,2.5c4.6-1,6.6-5,6.6-5S-159.7,487.8-164.5,488.8
				L-164.5,488.8z"/>
			<path id="XMLID_400_" d="M-185.8,456.6h-2.3c0,0.2-0.1,24.9,38.4,34l0.5-2.2C-185.8,479.8-185.7,457.6-185.8,456.6L-185.8,456.6z
				"/>
			<path id="XMLID_397_" d="M-181.1,463.6c0,0,3.8-2.4,4.2-7.1c0.5-4.7-3.3-7.8-3.3-7.8s-3.3,2.6-3.8,7.5
				C-184.4,461.1-181.1,463.6-181.1,463.6L-181.1,463.6z"/>
			<path id="XMLID_389_" d="M-178.3,468.1c0.2,4.9,3.8,7,3.8,7s3.5-2.8,3.3-7.6c-0.2-4.7-4.3-7.3-4.3-7.3S-178.5,463.3-178.3,468.1
				L-178.3,468.1z"/>
			<path id="XMLID_385_" d="M-187.5,454.4c0,0,2.9-3,1.8-7.7c-1.1-4.7-4.8-6.9-4.8-6.9s-3.3,3.6-2.2,8.2
				C-191.6,452.6-187.5,454.4-187.5,454.4L-187.5,454.4z"/>
		</g>
		<g id="XMLID_382_">
			<g id="XMLID_458_">
				<path id="XMLID_459_" d="M-58,464.8c0,0,4.4,0.8,7.9-2.5c3.5-3.2,2.7-8,2.7-8s-4.2-0.2-7.8,3.1C-58.7,460.7-58,464.8-58,464.8
					L-58,464.8z"/>
			</g>
			<path id="XMLID_455_" d="M-81.2,481.3c0,0,3.8-1.7,4.4-6.5s-2-8.1-2-8.1s-4.4,2.2-5,6.8C-84.3,478.2-81.2,481.3-81.2,481.3
				L-81.2,481.3z"/>
			<path id="XMLID_452_" d="M-92.6,486.6c0,0,4.1-0.6,6.1-5s0.4-8.4,0.4-8.4s-4.8,0.8-6.7,5.1C-94.7,482.6-92.6,486.6-92.6,486.6
				L-92.6,486.6z"/>
			<path id="XMLID_449_" d="M-62.6,473.7c0,0,4,2,8.3,0c4.3-2.1,4.9-6.9,4.9-6.9s-4-1.5-8.3,0.7C-62.1,469.6-62.6,473.7-62.6,473.7
				L-62.6,473.7z"/>
			<path id="XMLID_446_" d="M-70.2,481.4c0,0,3.4,2.9,8.1,1.8c4.6-1.1,6.3-5.6,6.3-5.6s-3.5-2.3-8.3-1.2
				C-68.8,477.4-70.2,481.4-70.2,481.4L-70.2,481.4z"/>
			<path id="XMLID_443_" d="M-71.1,483.7c-4.8-0.4-7.3,2.9-7.3,2.9s2.4,3.8,7.1,4.2c4.7,0.4,7.8-3.4,7.8-3.4S-66.3,484.1-71.1,483.7
				L-71.1,483.7z"/>
			<path id="XMLID_440_" d="M-82,488.8c-4.8-1-7.6,2-7.6,2s1.9,4,6.6,5c4.6,0.9,8.1-2.5,8.1-2.5S-77.3,489.8-82,488.8L-82,488.8z"/>
			<path id="XMLID_437_" d="M-60.7,456.6c0,1,0,23.2-36.6,31.8l0.5,2.2c38.5-9.1,38.4-33.8,38.4-34H-60.7L-60.7,456.6z"/>
			<path id="XMLID_434_" d="M-65.4,463.6c0,0,3.3-2.6,2.8-7.4s-3.8-7.5-3.8-7.5s-3.8,3.1-3.3,7.8C-69.2,461.3-65.4,463.6-65.4,463.6
				L-65.4,463.6z"/>
			<path id="XMLID_431_" d="M-68.2,468.1c0.2-4.9-2.7-7.9-2.7-7.9s-4.1,2.5-4.3,7.3c-0.2,4.7,3.3,7.6,3.3,7.6S-68.3,473-68.2,468.1
				L-68.2,468.1z"/>
			<path id="XMLID_428_" d="M-59,454.4c0,0,4.1-1.8,5.2-6.4c1.1-4.6-2.2-8.2-2.2-8.2s-3.6,2.2-4.8,6.9
				C-61.9,451.4-59,454.4-59,454.4L-59,454.4z"/>
		</g>
	</g>
	<g>
		<rect x="-137.7" y="337" width="28.8" height="15.4"/>
		<path d="M-108.8,360.8l0-6.7h-28.8v6.7c4.9,0.6,10.3,1.1,14.4,1.1C-119.1,361.8-113.7,361.4-108.8,360.8z"/>
		<path d="M-98.2,363.5L-98.2,363.5l-0.4-1.4l-0.1-0.3l-0.4-1.2c-5.3,1.5-16.7,2.8-24.1,2.8c-7.5,0-18.8-1.4-24.2-2.8l-1.4,4.5
			c6.8,2,15.7,3.2,25.6,3.2c9.8,0,18.8-1.2,25.6-3.2L-98.2,363.5z"/>
	</g>
</g>
</svg>
