<?xml version="1.0" encoding="utf-8"?>
<!-- Generator: Adobe Illustrator 19.0.0, SVG Export Plug-In . SVG Version: 6.00 Build 0)  -->
<svg version="1.1" id="Capa_1" xmlns="http://www.w3.org/2000/svg" xmlns:xlink="http://www.w3.org/1999/xlink" x="0px" y="0px"
	 viewBox="-210 325.9 173.5 190" style="enable-background:new -210 325.9 173.5 190;" xml:space="preserve">
<path d="M-46.7,369.3c-38.4-3.5-74.2,44.7-74.2,44.7c0-0.8-1.4-1-1.2-1.6c0-0.6,1.4-1.8,1.6-2.2c0-0.6-0.8-1.2-0.6-1.8
	c3.9-8.9,9.8-15.9,16.7-23c0.2-0.2,3.3-3.3,4.7-3.5c2-0.2,2.4-2.8,2.6-3.1c0,0-1.6-0.8-3.5,1c-6.9,6.9-17.3,18.5-21.6,28.1
	c-0.4,0.8-0.8,0.2-1.2,0.2c-0.2,0-0.6,0.4-0.8-0.2c-4.5-9.6-14.6-21.1-21.8-28.1c-1.6-1.8-3.5-0.8-3.5-0.8c0.2,0,0.6,2.6,2.6,2.8
	c1.4,0.2,4.5,3.3,4.7,3.5c5.9,5.7,13,14.4,16.7,23c0.4,0.6-0.6,1.2-0.4,1.8c0,0.4,1.4,1.6,1.4,2.2c0.2,0.6-1.2,1-1.2,1.6
	c0,0-35.8-48.2-74.2-44.7c-13.8,1.2,7.7,28.7,7.5,30.1l7.3,21.1c1.2,7.9,5.5,7.5,4.7,9.4c-3.1,5.7-1.4,22-0.6,24.8
	c3.5,10.2,20.7,17.9,25.4,17.9c15.3,0,18.7-2.6,24.8-19.1c3.5-9.2,4.5-14.4,4.5-13.4c0,1-0.2,6.1-0.2,10c0,10.6,2.6,10.4,3.1,10.4
	c0.6,0,2.8,0.2,2.8-10c0-4.9-0.2-8.3-0.2-10.6c0-0.4,1.2,3.9,4.9,13.6c6.1,16.5,9.8,19.1,24.8,19.1c4.9,0,22-7.7,25.4-17.9
	c0.8-2.8,2.6-19.1-0.4-24.8c-1-1.8,3.5-1.4,4.7-9.4l7.1-21.1C-54.3,398-32.7,370.5-46.7,369.3z M-164.9,389.1c1-0.6,3.7-0.4,6.3,0.2
	c6.7,1.4,12.4,7.3,17.3,11.8c2.2,2.2,13.6,13.2,13.4,16.1c0,0.4-0.4,1-1.4,0.8c-3.3-0.4-12-5.7-15.5-7.3c-2.8-1.4-4.7-2.2-5.9-3.3
	c-1.2-0.8-1.8-2.2-2.8-3.5c-2.2-2.8-5.9-4.3-8.3-7.1C-162.7,395.8-167.1,389.7-164.9,389.1z M-154.5,435.2c0.8-2.2,1.8-5.3,3.9-6.7
	c0.6-0.6,1.4-0.6,2.2-0.6c2,0,4.1,0.2,6.3,0.2c2.2,0.2,3.1,0.2,5.3-0.8c1-0.4,4.7-2.2,5.7-2c0.4,0,0.4,0.6,0.2,1.4
	c-2.2,7.9-19.1,16.1-27.2,16.9c-1,0.2-1,0.2-0.8,0c0.2,0,0.8-0.4,1.2-1C-156.8,441.1-155.3,436.8-154.5,435.2z M-166.9,435.8
	c-11.4,2.6,0.4-14.4,14.6-8.7c0.4,0.2,0.6,0.2,0,1.2c-1.2,2.4-2.2,3.7-2.8,6.3C-155.3,435.2-158.4,433.8-166.9,435.8z M-150.9,419.8
	c-2-0.4-3.1-0.6-5.3-0.4c-4.3,0.6-10.4,3.1-14.2,3.1c-5.1-0.2-6.9-7.9-1.8-10c3.3-1.4,7.9-1.2,11.6-1.8c3.5-0.6,8.1-2.6,11.4-1
	c4.3,1.8,7.7,4.1,11.8,6.1c0.8,0.4,5.3,2.6,8.9,3.3C-127.9,418.9-136.2,422.6-150.9,419.8z M-192.1,375.6c0.2-0.8,1.2-1.2,2-1.6
	c1-0.4,1.8-0.4,2.8-0.4c0.8,0.2,1.8,0.6,2.6,0.8c0.6,0.4,1,0.8,1.2,1c0.2,0.2,0.2,0.2-0.2,0.6c-0.2,0.4-1,1-2,1.4
	c-0.8,0.4-1.6,0.8-2.6,0.8s-2.2-0.2-3.1-0.8C-191.9,377.1-192.3,376.2-192.1,375.6z M-191.3,381.9c-0.4-0.6,0.2-1.4,1.2-1.8
	c1-0.4,2.4-0.8,3.9-0.8c1.4,0,2.6,0,3.5,0c0.8,0.2,1.2,0.4,1.6,0.4c0.2,0.2,0.2,0.2-0.4,0.6c-0.4,0.4-1.4,1.2-2.8,1.8
	c-1.2,0.6-2.8,1-4.1,1C-189.9,383-191.1,382.5-191.3,381.9z M-180.3,388.4c-0.6,0.6-1.8,1.2-3.1,1.4c-1,0.2-2.2,0-3.1-0.6
	c-1-0.4-1.8-1.2-2-2c-0.4-0.8-0.4-1.6,0.4-2c0.6-0.6,2-1,3.1-1c1.2-0.2,2,0,2.8,0.2c0.8,0.4,1.4,1,1.8,1.4c0.6,0.4,0.6,0.8,0.6,1.2
	C-179.7,387.4-179.7,388-180.3,388.4z M-179.1,394.5c-0.2-5.3,5.7-6.9,10-5.7c0.8,0.2,1.4,0.6,2.2,1.2c1.2,1.2,2.4,3.9,2.6,5.5
	c0,1.6-4.3,3.1-5.7,3.7C-174,400.2-178.9,399.6-179.1,394.5z M-175.1,401.9c2.8-2.8,18.9-4.5,20.9,3.7
	C-152.9,410.6-184,414.9-175.1,401.9z M-172.6,439.1c3.3-3.1,16.3-5.1,16.3-3.3C-156.8,450.3-183.8,449.7-172.6,439.1z
	 M-166.7,454.5c-2.6,0-4.5-2-3.9-3.5c0.8-2.6,6.5-5.1,13.2-7.1c1.6-0.4,3.1-0.6,4.9-0.6l-4.3,3.5c-1,0.8-1.2,1.2-1.8,1.8
	C-162.7,452.3-163.1,454.7-166.7,454.5z M-158.8,461c-15.5-1.8,7.9-19.5,12.6-20.5c0.2,0,0.4,0,0.4,0.2c0,0-1.8,7.3-4.9,14.2
	C-152.3,458.8-155.5,461.4-158.8,461z M-148.2,462.7c-9.2,5.1,2.6-16.9,3.3-22.6c0-0.8,3.9-2,7.7-5.1c4.1-3.3,5.7-5.5,6.9-8.3
	C-125.2,428.3-142.3,459.4-148.2,462.7z M-144.6,460.6c0-0.4,6.3-9.1,11.2-18.7c0,0,0,0,0,0c0,0,0,0,0,0c0,0.2-0.2,4.7-0.2,6.1
	c0,1,0,1.8,0,2.4C-133.4,457.2-145.8,474.5-144.6,460.6z M-133.2,450.5c0.2-8.3,0.2-9.8,0.8-11c0.6-1,0.6-1.2,2.2-5.7
	c1.2-2.8,1-4.3,1.2-6.3l1.4,1.2C-124.6,431.1-133.4,457.6-133.2,450.5z M-105.7,401.1c4.9-4.7,10.6-10.4,17.3-11.8
	c2.6-0.6,5.3-0.8,6.3-0.4c2.2,0.8-2.2,6.9-3.1,7.9c-2.4,2.8-6.1,4.3-8.3,7.1c-1,1.2-1.6,2.6-2.6,3.5c-1.2,1-3.3,1.6-6.1,3.3
	c-3.5,1.6-12.2,6.9-15.3,7.3c-1.2,0.2-1.6-0.4-1.6-1C-119.3,414.3-108.2,403.5-105.7,401.1z M-119.3,428.7l1.6-1.2
	c0,2-0.2,3.5,1,6.3c1.8,4.5,1.8,4.7,2.2,5.7c0.6,1.2,0.6,2.6,0.8,11C-113.4,457.6-122.2,431.1-119.3,428.7z M-113.2,450.5
	c0-0.6,0-1.4,0-2.4c0-1.4-0.2-6.3,0-6.1c4.7,9.6,11,18.3,11,18.7C-100.8,474.5-113.2,457.2-113.2,450.5z M-98.6,462.7
	c-5.9-3.3-23-34.4-17.7-36c1,2.8,2.8,5.1,6.7,8.3c3.9,3.1,7.7,4.3,7.7,5.1C-101,445.8-89.4,467.7-98.6,462.7z M-92.1,435.2
	c0.6,1.6,2,5.9,3.1,7.3c0.4,0.6,1,1,1.2,1c0.4,0.2,0.4,0.2-0.6,0c-8.3-0.8-25-8.9-27.5-16.9c-0.2-0.8-0.2-1.4,0.4-1.4
	c0.8-0.2,4.7,1.6,5.7,2c2,1,2.8,1,5.1,0.8c2.2,0,4.3-0.2,6.5-0.2c0.8,0,1.4,0,2.2,0.6C-94.1,429.9-93.1,433-92.1,435.2z
	 M-94.5,427.1c14.4-5.7,26.2,11.4,14.6,8.7c-8.5-2-11.6-0.6-11.8-1.4c-0.6-2.4-1.6-3.7-2.8-6.1C-95.1,427.3-94.9,427.3-94.5,427.1z
	 M-87.8,461c-3.5,0.4-6.5-2.2-8.1-6.1c-3.1-6.9-5.1-14.2-5.1-14.2c0-0.2,0.4-0.2,0.4-0.2C-96,441.5-72.6,459.2-87.8,461z
	 M-80.1,454.5c-3.5,0.2-4.1-2.2-7.9-5.9c-0.8-0.6-1-1-1.8-1.8l-4.5-3.5c2,0,3.3,0.2,4.9,0.6c6.7,2,12.4,4.5,13.4,7.1
	C-75.6,452.5-77.5,454.5-80.1,454.5z M-90.5,435.8c0-1.8,13,0.2,16.5,3.3C-62.8,449.7-89.9,450.3-90.5,435.8z M-76.2,422.2
	c-3.7,0.2-9.8-2.4-14.2-2.8c-2-0.2-3.3,0-5.3,0.4c-14.4,2.8-22.8-0.8-22.4-0.8c3.7-0.6,8.1-2.8,8.9-3.3c4.1-2.2,7.7-4.3,12-6.1
	c3.3-1.6,7.9,0.4,11.4,1c3.7,0.6,8.1,0.4,11.6,1.8C-69.3,414.5-70.9,422.2-76.2,422.2z M-92.5,405.5c1.8-8.1,18.1-6.5,20.9-3.7
	C-62.6,414.9-93.7,410.6-92.5,405.5z M-67.5,394.5c-0.4,5.1-5.3,5.9-9.4,4.7c-1.4-0.4-5.5-1.8-5.5-3.7c0-1.6,1.4-4.3,2.6-5.5
	c0.6-0.6,1.4-0.8,2.2-1.2C-73.2,387.8-67.3,389.3-67.5,394.5z M-58.3,386.8c-0.4,0.8-1.2,1.6-2,2c-1,0.6-2,0.8-3.3,0.6
	c-1-0.2-2.2-0.8-2.8-1.4c-0.6-0.4-0.8-0.8-0.8-1.2s0.2-0.8,0.6-1.4c0.4-0.4,1.2-1,2-1.2c0.6-0.4,1.6-0.4,2.6-0.4
	c1,0.2,2.4,0.4,3.3,1C-58.1,385.2-58.1,386-58.3,386.8z M-55.5,381.5c-0.4,0.6-1.4,1-2.8,1.2c-1.4,0-2.8-0.2-4.3-0.8
	c-1.2-0.6-2.2-1.6-2.8-2c-0.4-0.4-0.4-0.4-0.2-0.6c0.2,0,0.6-0.2,1.6-0.4c0.8,0,2,0,3.5,0c1.2,0.2,2.6,0.4,3.7,0.8
	C-55.9,380.3-55.3,381.1-55.5,381.5z M-55.7,377.3c-0.6,0.4-1.8,0.6-2.8,0.6s-2-0.2-2.8-0.8c-0.8-0.4-1.6-1-2-1.4
	c-0.4-0.4-0.4-0.4-0.2-0.6c0.2-0.2,0.6-0.6,1.4-0.8c0.6-0.4,1.6-0.8,2.6-0.8c1-0.2,1.8,0,2.6,0.2c1,0.4,1.8,1,2,1.6
	C-54.5,375.8-54.9,376.6-55.7,377.3z"/>
</svg>
