<?xml version="1.0" encoding="utf-8"?>
<!-- Generator: Adobe Illustrator 19.0.0, SVG Export Plug-In . SVG Version: 6.00 Build 0)  -->
<svg version="1.1" id="Capa_1" xmlns="http://www.w3.org/2000/svg" xmlns:xlink="http://www.w3.org/1999/xlink" x="0px" y="0px"
	 viewBox="-210 325.9 173.5 190" style="enable-background:new -210 325.9 173.5 190;" xml:space="preserve">
<g id="XMLID_100_">
	<path d="M-45.1,494.1h-156.3c-2,0-3.8-1-4.8-2.7s-1-3.8,0-5.5l78.1-135.4c1-1.7,2.8-2.8,4.8-2.8l0,0c2,0,3.8,1,4.8,2.7l78.2,135.4
		c1,1.7,1,3.8,0,5.5C-41.3,493-43.1,494.1-45.1,494.1z M-191.9,483.1h137.3l-68.7-118.9L-191.9,483.1z"/>
</g>
<g>
	<circle cx="-131.6" cy="432.5" r="11.7"/>
	<polygon points="-102,420.6 -104,420.2 -102.9,414.8 -108.3,413.7 -107.9,411.8 -100.6,413.2 	"/>
	<rect x="-117.6" y="406" transform="matrix(-0.555 -0.8318 0.8318 -0.555 -533.9777 562.1694)" width="2" height="35.8"/>
	<circle cx="-104.6" cy="445.4" r="11.7"/>
	<polygon points="-85.3,476.4 -92.6,474.9 -92.3,473 -86.8,474.1 -85.8,468.7 -83.8,469.1 	"/>
	<rect x="-113.8" y="459.2" transform="matrix(-0.555 -0.8318 0.8318 -0.555 -532.0434 635.8859)" width="35.8" height="2"/>
	<circle cx="-132.2" cy="460" r="11.7"/>
	<polygon points="-163.7,457.9 -167.8,451.8 -161.5,447.6 -160.4,449.2 -165,452.3 -162,456.8 	"/>
	<rect x="-166.7" y="454.6" transform="matrix(-0.9806 -0.1958 0.1958 -0.9806 -383.8339 873.2567)" width="35.8" height="2"/>
</g>
</svg>
