<?xml version="1.0" encoding="utf-8"?>
<!-- Generator: Adobe Illustrator 19.0.0, SVG Export Plug-In . SVG Version: 6.00 Build 0)  -->
<svg version="1.1" id="Capa_1" xmlns="http://www.w3.org/2000/svg" xmlns:xlink="http://www.w3.org/1999/xlink" x="0px" y="0px"
	 viewBox="-210 325.9 173.5 190" style="enable-background:new -210 325.9 173.5 190;" xml:space="preserve">
<g id="XMLID_100_">
	<path d="M-45.1,494.1h-156.3c-2,0-3.8-1-4.8-2.7s-1-3.8,0-5.5l78.1-135.4c1-1.7,2.8-2.8,4.8-2.8l0,0c2,0,3.8,1,4.8,2.7l78.2,135.4
		c1,1.7,1,3.8,0,5.5C-41.3,493-43.1,494.1-45.1,494.1z M-191.9,483.1h137.3l-68.7-118.9L-191.9,483.1z"/>
</g>
<g>
	<path d="M-89.3,404l-3-3c-0.4-0.4-1.2-0.4-1.6,0l-18.3,18.3c-1.3-1.2-3.3-1.2-4.6,0.1l-0.7,0.7c-1.6-1.5-3.8-2.4-6-2.4
		c-2.4,0-4.6,0.9-6.3,2.6l-6.6,6.6c-0.2,0.2-0.3,0.5-0.3,0.8c0,0.3,0.1,0.6,0.3,0.8l19.7,19.7c0.2,0.2,0.5,0.3,0.8,0.3
		s0.6-0.1,0.8-0.3l6.6-6.6c3.4-3.4,3.4-8.8,0.2-12.3l0.7-0.7c1.3-1.3,1.3-3.3,0.1-4.6l18.3-18.3C-88.8,405.2-88.8,404.5-89.3,404z
		 M-115.2,421c0.4-0.4,1.1-0.4,1.6,0l0.7,0.7v0l3,3c0,0,0,0,0,0l0.7,0.7c0.4,0.4,0.4,1.1,0,1.6l-0.7,0.7l-1.9-1.9l-4.1-4.1
		L-115.2,421z M-117.5,427.7c-0.2,0.2-0.5,0.3-0.8,0.3c-0.3,0-0.6-0.1-0.8-0.3l-3-3c-0.8-0.8-2.2-0.8-3,0l-3,3
		c-0.4,0.4-1.1,0.4-1.6,0c-0.4-0.4-0.4-1.1,0-1.6l3-3c1.7-1.7,4.4-1.7,6.1,0l3,3C-117,426.6-117,427.3-117.5,427.7z"/>
	<path d="M-127.4,445.1l-6,6l-6-6l6-6c0.6-0.6,1-1.4,1-2.3s-0.3-1.7-1-2.3c-1.2-1.2-3.4-1.2-4.6,0l-6,6l-2.2-2.2
		c-0.4-0.4-1.2-0.4-1.6,0l-8.1,8.1c-3.4,3.4-3.4,8.8-0.2,12.3l-0.7,0.7c-1.3,1.3-1.3,3.3-0.1,4.6l-22.3,22.3c-0.4,0.4-0.4,1.1,0,1.6
		l3,3c0.2,0.2,0.5,0.3,0.8,0.3s0.6-0.1,0.8-0.3l22.3-22.3c0.6,0.6,1.4,0.9,2.3,0.9c0.9,0,1.7-0.3,2.4-1l0.7-0.7
		c1.6,1.5,3.8,2.4,6,2.4c2.4,0,4.6-0.9,6.3-2.6l8.1-8.1c0.4-0.4,0.4-1.1,0-1.6l-2.2-2.2l6-6c1.3-1.3,1.3-3.3,0-4.6
		C-124,443.8-126.1,443.8-127.4,445.1z M-136.4,436.1c0.4-0.4,1.1-0.4,1.5,0c0.2,0.2,0.3,0.5,0.3,0.7c0,0.3-0.1,0.5-0.3,0.7l-6,6
		l-1.5-1.5L-136.4,436.1z M-149.3,467c-0.4,0.4-1.1,0.4-1.6,0l-0.7-0.7c0,0,0,0,0,0l-3-3l0,0l-0.7-0.7c-0.4-0.4-0.4-1.1,0-1.6
		l0.7-0.7l1.9,1.9l4.1,4.1L-149.3,467z M-132.6,459.5l-6.1,6.1c-0.2,0.2-0.5,0.3-0.8,0.3c-0.3,0-0.6-0.1-0.8-0.3l-13.6-13.6
		c-0.4-0.4-0.4-1.1,0-1.6l6.1-6.1c0.4-0.4,1.1-0.4,1.6,0l13.6,13.6C-132.2,458.4-132.2,459.1-132.6,459.5z M-124.3,448.1l-6,6
		l-1.5-1.5l6-6c0.4-0.4,1.1-0.4,1.5,0C-123.9,447.1-123.9,447.7-124.3,448.1z"/>
	<path d="M-151.5,451.2l12.1,12.1l4.5-4.5l-12.1-12.1L-151.5,451.2z M-146.3,451.9c0.4-0.4,1.1-0.4,1.6,0l4.5,4.5
		c0.4,0.4,0.4,1.1,0,1.6c-0.2,0.2-0.5,0.3-0.8,0.3c-0.3,0-0.6-0.1-0.8-0.3l-4.5-4.5C-146.7,453-146.7,452.3-146.3,451.9z"/>
</g>
</svg>
