<?xml version="1.0" encoding="utf-8"?>
<!-- Generator: Adobe Illustrator 19.0.0, SVG Export Plug-In . SVG Version: 6.00 Build 0)  -->
<svg version="1.1" id="Capa_1" xmlns="http://www.w3.org/2000/svg" xmlns:xlink="http://www.w3.org/1999/xlink" x="0px" y="0px"
	 viewBox="-210 325.9 173.5 190" style="enable-background:new -210 325.9 173.5 190;" xml:space="preserve">
<g id="XMLID_100_">
	<path d="M-45.1,494.1h-156.3c-2,0-3.8-1-4.8-2.7s-1-3.8,0-5.5l78.1-135.4c1-1.7,2.8-2.8,4.8-2.8l0,0c2,0,3.8,1,4.8,2.7l78.2,135.4
		c1,1.7,1,3.8,0,5.5C-41.3,493-43.1,494.1-45.1,494.1z M-191.9,483.1h137.3l-68.7-118.9L-191.9,483.1z"/>
</g>
<g>
	<polygon points="-102.8,416.7 -104,408.6 -114.5,408.6 -114,416.7 	"/>
	<polygon points="-131.9,416.7 -131.4,408.6 -141.9,408.6 -143.1,416.7 	"/>
	<polygon points="-114.9,448.1 -109.3,455.1 -93.2,438.8 -108.6,469.6 -114.2,462.6 -130.3,478.9 	"/>
	<g>
		<path d="M-110.7,444.7l1.8,2.3l9.6-9.7c-1-6.7-2.7-15.1-2.7-15.1h-11.7l1.4,20.7L-110.7,444.7z"/>
		<path d="M-130.3,466.9l6.2-12.5c-5.4-0.6-9.6-5.1-9.6-10.7l1.5-21.6h-11.7c0,0-3.3,16.1-3.3,21.6
			C-147.3,454.7-140.2,463.8-130.3,466.9z"/>
	</g>
</g>
</svg>
