<?xml version="1.0" encoding="utf-8"?>
<!-- Generator: Adobe Illustrator 19.0.0, SVG Export Plug-In . SVG Version: 6.00 Build 0)  -->
<svg version="1.1" id="Capa_1" xmlns="http://www.w3.org/2000/svg" xmlns:xlink="http://www.w3.org/1999/xlink" x="0px" y="0px"
	 viewBox="-210 325.9 173.5 190" style="enable-background:new -210 325.9 173.5 190;" xml:space="preserve">
<g id="XMLID_100_">
	<path d="M-45.1,494.1h-156.3c-2,0-3.8-1-4.8-2.7s-1-3.8,0-5.5l78.1-135.4c1-1.7,2.8-2.8,4.8-2.8l0,0c2,0,3.8,1,4.8,2.7l78.2,135.4
		c1,1.7,1,3.8,0,5.5C-41.3,493-43.1,494.1-45.1,494.1z M-191.9,483.1h137.3l-68.7-118.9L-191.9,483.1z"/>
</g>
<g>
	<path d="M-86.3,434.8h-18v-2.5h4.9c0.6,0,1.1-0.5,1.1-1.1s-0.5-1.1-1.1-1.1h-4.9v-2.5h3.4c1.3,0,2.4-0.5,3.3-1.4l7.3-7.3
		c0.5,0.2,1,0.4,1.6,0.4c0.9,0,1.8-0.4,2.5-1c0.7-0.7,1-1.5,1-2.5c0-0.9-0.4-1.8-1-2.5c-0.7-0.7-1.5-1-2.5-1c-0.9,0-1.8,0.4-2.5,1
		c-0.7,0.7-1,1.5-1,2.5c0,0.6,0.1,1.1,0.4,1.6l-7.3,7.3c-0.5,0.5-1.1,0.7-1.7,0.7h-3.4v-2.5c0-3.2-2.6-5.9-5.9-5.9h-2.5V407
		c1.4-0.5,2.4-1.8,2.4-3.3c0-1.9-1.6-3.5-3.5-3.5c-1.9,0-3.5,1.6-3.5,3.5c0,1.5,1,2.9,2.4,3.3v9.9h-2.5V412c0-0.6-0.5-1.1-1.1-1.1
		s-1.1,0.5-1.1,1.1v4.9h-2.5v-18c0-0.6-0.5-1.1-1.1-1.1s-1.1,0.5-1.1,1.1v18h-2.5V412c0-0.6-0.5-1.1-1.1-1.1c-0.6,0-1.1,0.5-1.1,1.1
		v4.9h-2.5v-3.4c0-1.3-0.5-2.4-1.4-3.3l-7.3-7.3c0.6-1.3,0.4-2.9-0.7-4c-1.4-1.4-3.6-1.4-5,0c-1.4,1.4-1.4,3.6,0,5
		c0.7,0.7,1.6,1,2.5,1c0.5,0,1.1-0.1,1.6-0.4l7.3,7.3c0.5,0.5,0.7,1.1,0.7,1.7v3.4h-2.5c-0.5,0-1,0.1-1.5,0.2
		c-0.6,0.2-1,0.8-0.8,1.4c0.2,0.6,0.8,1,1.4,0.8c0.3-0.1,0.6-0.1,0.9-0.1h26.3c2,0,3.7,1.6,3.7,3.7V449c0,0.3,0,0.6-0.1,0.9
		c-0.2,0.6,0.2,1.2,0.8,1.4c0.1,0,0.2,0,0.3,0c0.5,0,1-0.3,1.1-0.8c0.1-0.5,0.2-1,0.2-1.5v-2.5h9.9c0.5,1.4,1.8,2.4,3.3,2.4
		c1.9,0,3.5-1.6,3.5-3.5s-1.6-3.5-3.5-3.5c-1.5,0-2.9,1-3.3,2.4h-9.9v-2.5h4.9c0.6,0,1.1-0.5,1.1-1.1s-0.5-1.1-1.1-1.1h-4.9V437h18
		c0.6,0,1.1-0.5,1.1-1.1S-85.6,434.8-86.3,434.8z M-89.5,414.7c0.2-0.2,0.6-0.4,0.9-0.4c0.3,0,0.7,0.1,0.9,0.4
		c0.2,0.2,0.4,0.6,0.4,0.9c0,0.3-0.1,0.7-0.4,0.9s-0.6,0.4-0.9,0.4c-0.3,0-0.7-0.1-0.9-0.4l0,0c-0.2-0.2-0.4-0.6-0.4-0.9
		C-89.9,415.3-89.8,414.9-89.5,414.7z M-113.7,402.4c0.7,0,1.3,0.6,1.3,1.3c0,0.7-0.6,1.3-1.3,1.3s-1.3-0.6-1.3-1.3
		C-115,403-114.4,402.4-113.7,402.4z M-144.4,402.2c-0.5-0.5-0.5-1.3,0-1.8c0.2-0.2,0.6-0.4,0.9-0.4c0.3,0,0.7,0.1,0.9,0.4
		c0.5,0.5,0.5,1.3,0,1.8l0,0C-143.1,402.7-143.9,402.7-144.4,402.2z M-91,444.2c0.7,0,1.3,0.6,1.3,1.3c0,0.7-0.6,1.3-1.3,1.3
		s-1.3-0.6-1.3-1.3C-92.3,444.7-91.7,444.2-91,444.2z"/>
	<path d="M-104.5,467.4l-7.3-7.3c-0.5-0.5-0.7-1.1-0.7-1.7v-3.4h2.5c0.5,0,1-0.1,1.5-0.2c0.6-0.2,1-0.8,0.8-1.4
		c-0.2-0.6-0.8-1-1.4-0.8c-0.3,0.1-0.6,0.1-0.9,0.1h-26.3c-2,0-3.7-1.6-3.7-3.7v-26.3c0-0.3,0-0.6,0.1-0.9c0.2-0.6-0.2-1.2-0.8-1.4
		c-0.6-0.2-1.2,0.2-1.4,0.8c-0.1,0.5-0.2,1-0.2,1.5v2.5h-9.9c-0.5-1.4-1.8-2.4-3.3-2.4c-1.9,0-3.5,1.6-3.5,3.5s1.6,3.5,3.5,3.5
		c1.5,0,2.9-1,3.3-2.4h9.9v2.5h-4.9c-0.6,0-1.1,0.5-1.1,1.1s0.5,1.1,1.1,1.1h4.9v2.5h-18c-0.6,0-1.1,0.5-1.1,1.1s0.5,1.1,1.1,1.1h18
		v2.5h-4.9c-0.6,0-1.1,0.5-1.1,1.1s0.5,1.1,1.1,1.1h4.9v2.5h-3.4c-1.3,0-2.4,0.5-3.3,1.4l-7.3,7.3c-0.5-0.2-1-0.4-1.6-0.4
		c-0.9,0-1.8,0.4-2.5,1c-0.7,0.7-1,1.5-1,2.5c0,0.9,0.4,1.8,1,2.5c0.7,0.7,1.5,1,2.5,1s1.8-0.4,2.5-1c0.7-0.7,1-1.5,1-2.5
		c0-0.6-0.1-1.1-0.4-1.6l7.3-7.3c0.5-0.5,1.1-0.7,1.7-0.7h3.4v2.5c0,3.2,2.6,5.9,5.9,5.9h2.5v9.9c-1.4,0.5-2.4,1.8-2.4,3.3
		c0,1.9,1.6,3.5,3.5,3.5s3.5-1.6,3.5-3.5c0-1.5-1-2.9-2.4-3.3v-9.9h2.5v4.9c0,0.6,0.5,1.1,1.1,1.1s1.1-0.5,1.1-1.1v-4.9h2.5v18
		c0,0.6,0.5,1.1,1.1,1.1s1.1-0.5,1.1-1.1v-18h2.5v4.9c0,0.6,0.5,1.1,1.1,1.1s1.1-0.5,1.1-1.1v-4.9h2.5v3.4c0,1.3,0.5,2.4,1.4,3.3
		l7.3,7.3c-0.6,1.3-0.4,2.9,0.7,4c0.7,0.7,1.6,1,2.5,1s1.8-0.3,2.5-1c1.4-1.4,1.4-3.6,0-5C-101.6,466.9-103.2,466.7-104.5,467.4z
		 M-155.5,427.6c-0.7,0-1.3-0.6-1.3-1.3c0-0.7,0.6-1.3,1.3-1.3s1.3,0.6,1.3,1.3C-154.2,427-154.8,427.6-155.5,427.6z M-157,457.1
		c-0.2,0.2-0.6,0.4-0.9,0.4s-0.7-0.1-0.9-0.4s-0.4-0.6-0.4-0.9c0-0.3,0.1-0.7,0.4-0.9c0.2-0.2,0.6-0.4,0.9-0.4s0.7,0.1,0.9,0.4l0,0
		c0.2,0.2,0.4,0.6,0.4,0.9C-156.6,456.5-156.7,456.8-157,457.1z M-132.8,469.4c-0.7,0-1.3-0.6-1.3-1.3s0.6-1.3,1.3-1.3
		s1.3,0.6,1.3,1.3S-132.1,469.4-132.8,469.4z M-102.1,471.4c-0.5,0.5-1.3,0.5-1.8,0c-0.5-0.5-0.5-1.3,0-1.8c0.2-0.2,0.6-0.4,0.9-0.4
		c0.3,0,0.7,0.1,0.9,0.4C-101.6,470.1-101.6,470.9-102.1,471.4z"/>
	<path d="M-132.4,444.2C-132.4,444.2-132.4,444.2-132.4,444.2c0,2.6,2.3,4.7,5.1,4.7c1.6,0,3.1-0.7,4-1.8c0.9,1.1,2.4,1.8,4,1.8
		c2.7,0,5-2,5.1-4.4c1.7-1,2.7-2.6,2.7-4.5c0-1.3-0.6-2.6-1.6-3.6c1-1,1.6-2.2,1.6-3.6c0-2.4-1.7-4.4-4.1-5.1
		c0.1-0.3,0.1-0.6,0.1-0.9c0-2.3-2-4.1-4.5-4.1c-1.3,0-2.5,0.5-3.4,1.4c-0.8-0.9-2-1.4-3.4-1.4c-2.5,0-4.5,1.8-4.5,4.1
		c0,0.3,0,0.6,0.1,0.9c-2.4,0.7-4.1,2.7-4.1,5.1c0,1.2,0.4,2.3,1.2,3.2c-0.7,1-1.2,2.1-1.2,3.4
		C-135.1,441.4-134.1,443.1-132.4,444.2z M-129.3,429.8C-129.3,429.8-129.3,429.8-129.3,429.8c0.3,0,0.5-0.1,0.8-0.3
		c0.4-0.4,0.5-1,0.2-1.4c0,0,0,0,0,0c0,0,0,0,0,0c0,0,0,0-0.1-0.1c0,0,0,0,0,0c-0.2-0.2-0.4-0.6-0.4-1.1c0-1,1-1.9,2.2-1.9
		c1.2,0,2.2,0.8,2.2,1.9c0,0.6,0.5,1.1,1.1,1.1c0.6,0,1.1-0.5,1.1-1.1c0-1,1-1.9,2.2-1.9s2.2,0.8,2.2,1.9c0,0.3-0.1,0.5-0.2,0.7
		c-0.6,0.1-1.2,0.2-1.8,0.5c-0.6,0.2-0.8,0.9-0.6,1.5c0.2,0.6,0.9,0.8,1.5,0.6c0.5-0.2,1-0.3,1.5-0.3c0,0,0,0,0,0c0,0,0,0,0,0
		c2,0,3.6,1.4,3.6,3.1c0,1.1-0.6,2-1.7,2.6c-0.4,0.2-0.6,0.6-0.6,1s0.2,0.8,0.6,1c1.1,0.6,1.7,1.5,1.7,2.6c0,0.8-0.4,1.5-1,2.1
		c-0.6-1.1-1.6-2-2.9-2.4c-0.6-0.2-1.2,0.1-1.4,0.7c-0.2,0.6,0.1,1.2,0.7,1.4c1.1,0.4,1.9,1.3,1.9,2.3c0,1.4-1.3,2.5-2.9,2.5
		c-1.6,0-2.9-1.1-2.9-2.5v-7.2c0-1.4,1.3-2.5,2.9-2.5c0.6,0,1.1-0.5,1.1-1.1s-0.5-1.1-1.1-1.1c-1.1,0-2.1,0.3-2.9,0.8v-1.4
		c0-0.6-0.5-1.1-1.1-1.1s-1.1,0.5-1.1,1.1v6.2c-0.4-0.2-0.8-0.4-1.2-0.6c-0.6-0.2-1.2,0.1-1.4,0.7c-0.2,0.6,0.1,1.2,0.7,1.4
		c1.1,0.4,1.9,1.3,1.9,2.3v2.4c0,1.4-1.3,2.5-2.9,2.5c-1.6,0-2.9-1.1-2.9-2.5c0-0.6,0.2-1.1,0.7-1.6c0.4-0.4,0.4-1.1,0-1.6
		c-0.4-0.4-1.1-0.4-1.6,0c-0.3,0.3-0.5,0.6-0.7,0.9c-0.7-0.7-1.1-1.5-1.1-2.5c0-1.7,1.3-3.1,3.2-3.5c0.6-0.1,1-0.7,0.8-1.3
		c-0.1-0.6-0.7-1-1.3-0.8c-0.7,0.2-1.4,0.5-2,0.8c-0.4-0.5-0.6-1.1-0.6-1.7C-132.9,431.2-131.3,429.9-129.3,429.8z"/>
</g>
</svg>
