<?xml version="1.0" encoding="utf-8"?>
<!-- Generator: Adobe Illustrator 19.0.0, SVG Export Plug-In . SVG Version: 6.00 Build 0)  -->
<svg version="1.1" id="Capa_1" xmlns="http://www.w3.org/2000/svg" xmlns:xlink="http://www.w3.org/1999/xlink" x="0px" y="0px"
	 viewBox="-210 325.9 173.5 190" style="enable-background:new -210 325.9 173.5 190;" xml:space="preserve">
<g id="XMLID_100_">
	<path d="M-45.1,494.1h-156.3c-2,0-3.8-1-4.8-2.7s-1-3.8,0-5.5l78.1-135.4c1-1.7,2.8-2.8,4.8-2.8l0,0c2,0,3.8,1,4.8,2.7l78.2,135.4
		c1,1.7,1,3.8,0,5.5C-41.3,493-43.1,494.1-45.1,494.1z M-191.9,483.1h137.3l-68.7-118.9L-191.9,483.1z"/>
</g>
<path d="M-108.6,414.9c-5.9,0-11.4,3-14.7,7.9c-3.2-4.9-8.8-7.9-14.7-7.9c-10.6,0-17.7,7.1-17.7,17.7c0,11.5,3.5,25.5,29.8,42.7
	l2.6,1.6l2.6-1.7c26.2-17.2,29.8-31.3,29.8-42.7C-90.9,422-98,414.9-108.6,414.9z M-122.3,472.7l-0.9,0.6l-0.9-0.6
	c-0.3-0.2-0.6-0.4-0.9-0.6c1.4-1.2,4.5-4.7,12.6-14.9c0.5-0.6,0.4-1.6-0.2-2.1c-0.7-0.5-1.6-0.4-2.1,0.2
	c-5.2,6.5-11.1,13.7-12.3,14.6c-0.2,0.1-0.4,0.2-0.5,0.4c-0.6-0.4-1.2-0.8-1.8-1.2c1.3-1.3,4.2-5,11.6-15.7c0.5-0.7,0.3-1.6-0.4-2.1
	c-0.7-0.5-1.6-0.3-2.1,0.4c-4.7,6.9-10.2,14.5-11.3,15.5c-0.1,0-0.1,0.1-0.2,0.2c-0.9-0.7-1.8-1.4-2.6-2.1
	c1.4-1.5,4.4-5.3,11.3-15.5c0.5-0.7,0.3-1.6-0.4-2.1c-0.7-0.5-1.6-0.3-2.1,0.4c-4.5,6.6-9.7,13.8-11.1,15.3c-0.8-0.7-1.5-1.3-2.2-2
	c1.2-1.2,4-4.6,11.3-15.2c1.3,0,2.6-0.5,3.8-1.4c4.7-3.4,6.6-10,6.7-10.2c0.2-0.8-0.2-1.6-1-1.9c-0.8-0.2-1.6,0.2-1.9,1
	c0,0.1-1.8,5.9-5.6,8.7c-1,0.7-1.9,1-2.7,0.8c-0.7-0.1-1.2-0.5-1.5-0.9l9.1-17.9c2.7-3.9,7.2-6.3,12-6.3c8.9,0,14.7,5.8,14.7,14.7
	C-93.9,443.2-97.3,456.3-122.3,472.7z"/>
</svg>
