<?xml version="1.0" encoding="utf-8"?>
<!-- Generator: Adobe Illustrator 19.0.0, SVG Export Plug-In . SVG Version: 6.00 Build 0)  -->
<svg version="1.1" id="Capa_1" xmlns="http://www.w3.org/2000/svg" xmlns:xlink="http://www.w3.org/1999/xlink" x="0px" y="0px"
	 viewBox="-210 325.9 173.5 190" style="enable-background:new -210 325.9 173.5 190;" xml:space="preserve">
<style type="text/css">
	.st0{fill:none;stroke:#000000;stroke-width:0.5;stroke-miterlimit:10;}
</style>
<g id="XMLID_100_">
	<path d="M-45.1,494.1h-156.3c-2,0-3.8-1-4.8-2.7s-1-3.8,0-5.5l78.1-135.4c1-1.7,2.8-2.8,4.8-2.8l0,0c2,0,3.8,1,4.8,2.7l78.2,135.4
		c1,1.7,1,3.8,0,5.5C-41.3,493-43.1,494.1-45.1,494.1z M-191.9,483.1h137.3l-68.7-118.9L-191.9,483.1z"/>
</g>
<g>
	<g>
		<g>
			<path d="M-109.3,450.7c0-0.3,0-0.6,0.1-1c-5.4,0-10.8,0-16.2,0c0-0.2,0-0.4,0-0.6c3.4-1.3,6.9-2.7,10.3-4
				c-0.1-0.3-0.2-0.6-0.3-0.9c-3.8,1.4-7.6,2.8-11.4,4.2c3.7-4.5,8-8.3,11.8-12.6c-0.3-0.3-0.5-0.5-0.8-0.8
				c-3.9,3.9-7.8,7.8-11.7,11.7c0.4-2,1.3-3.8,2-5.6c0.7-1.8,2.1-3.4,1.9-5.5c-0.2-0.1-0.4-0.2-0.6-0.2c-1.5,3.4-3.1,6.9-4.6,10.3
				c-0.4-1.5-0.4-2.8-0.4-4.2c0-11.8,0-63.6,0-75.4c0-0.8-0.2-1.5-0.3-2.3c-0.3,0-0.6,0.1-0.8,0.1c0,14.2,0,68.4,0,82.5
				c-0.2,0-0.3,0.1-0.5,0.1c-1.5-3.7-2.9-7.4-4.4-11.2c-0.3,0.1-0.6,0.2-0.9,0.3c1.4,3.9,2.8,7.8,4.3,11.7c-0.1,0.1-0.2,0.1-0.3,0.2
				c-4.1-4.1-8.3-8.2-12.4-12.4c-0.2,0.2-0.4,0.4-0.7,0.7c3.8,3.9,7.5,7.7,11.3,11.6c-0.1,0.1-0.1,0.2-0.2,0.3
				c-3.5-1.5-6.9-3-10.4-4.4c-0.1,0.3-0.3,0.6-0.4,0.9c3.6,1.6,7.2,3.3,10.8,4.9c-0.1,0.2-0.1,0.3-0.2,0.5c-2,0-4,0-5.9,0
				c-1.9,0-3.9,0-5.8,0c-4.8,0-4.8,0-5.8,1.1c6.1,0,11.9,0,17.6,0c-3.3,2.2-7.1,2.8-10.4,4.8c0.1,0.2,0.2,0.5,0.3,0.7
				c3.6-1.3,7.2-2.7,10.8-4c-0.6,1.1-1.4,1.9-2.1,2.7c-3,3-5.9,5.9-8.9,8.9c-0.4,0.4-0.6,1.1-0.9,1.6c0.3,0.2,0.6,0.4,0.9,0.6
				c3.8-4,7.6-8,11.5-12c0.1,0.1,0.3,0.2,0.4,0.3c-1.5,3.4-2.9,6.9-4.4,10.3c0.3,0.1,0.7,0.3,1,0.4c1.7-3.8,3.4-7.6,5-11.3
				c0.2,0,0.4,0.1,0.5,0.1c0,6,0,11.9,0,17.9c0.3,0,0.7,0,1,0c0.2-5.4,0-10.8,0.6-16.3c1.3,3.2,2.5,6.5,3.8,9.7
				c0.3-0.1,0.6-0.2,0.9-0.4c-1.3-3.6-2.7-7.3-4-10.9c4.5,3.7,8.2,8,12.5,11.7c0.2-0.2,0.4-0.4,0.6-0.6c-4.1-4.1-8.1-8.3-12.2-12.4
				c4.1,1.1,7.6,3.2,11.4,4.3c0.1-0.3,0.2-0.5,0.3-0.8c-3.6-1.6-7.3-3.3-10.9-4.9c0-0.2,0.1-0.3,0.1-0.5
				C-120.7,450.7-115,450.7-109.3,450.7z"/>
			<path d="M-109.3,450.7c-5.7,0-11.3,0-17,0c0,0.2-0.1,0.3-0.1,0.5c3.6,1.6,7.3,3.3,10.9,4.9c-0.1,0.3-0.2,0.5-0.3,0.8
				c-3.9-1.1-7.4-3.3-11.4-4.3c4.1,4.1,8.1,8.3,12.2,12.4c-0.2,0.2-0.4,0.4-0.6,0.6c-4.3-3.7-7.9-8.1-12.5-11.7
				c1.3,3.6,2.7,7.3,4,10.9c-0.3,0.1-0.6,0.2-0.9,0.4c-1.3-3.2-2.5-6.5-3.8-9.7c-0.6,5.5-0.4,10.9-0.6,16.3c-0.3,0-0.7,0-1,0
				c0-6,0-11.9,0-17.9c-0.2,0-0.4-0.1-0.5-0.1c-1.7,3.8-3.4,7.6-5,11.3c-0.3-0.1-0.7-0.3-1-0.4c1.5-3.4,2.9-6.9,4.4-10.3
				c-0.1-0.1-0.3-0.2-0.4-0.3c-3.8,4-7.6,8-11.5,12c-0.3-0.2-0.6-0.4-0.9-0.6c0.3-0.5,0.5-1.2,0.9-1.6c2.9-3,5.9-5.9,8.9-8.9
				c0.8-0.8,1.5-1.6,2.1-2.7c-3.6,1.3-7.2,2.7-10.8,4c-0.1-0.2-0.2-0.5-0.3-0.7c3.2-2,7.1-2.6,10.4-4.8c-5.8,0-11.6,0-17.6,0
				c1.1-1.1,1.1-1.1,5.8-1.1c1.9,0,3.9,0,5.8,0c2,0,4,0,5.9,0c0.1-0.2,0.1-0.3,0.2-0.5c-3.6-1.6-7.2-3.3-10.8-4.9
				c0.1-0.3,0.3-0.6,0.4-0.9c3.4,1.5,6.9,3,10.4,4.4c0.1-0.1,0.1-0.2,0.2-0.3c-3.8-3.9-7.5-7.7-11.3-11.6c0.2-0.2,0.4-0.4,0.7-0.7
				c4.1,4.1,8.3,8.2,12.4,12.4c0.1-0.1,0.2-0.1,0.3-0.2c-1.4-3.9-2.8-7.8-4.3-11.7c0.3-0.1,0.6-0.2,0.9-0.3
				c1.5,3.7,2.9,7.4,4.4,11.2c0.2,0,0.3-0.1,0.5-0.1c0-14.2,0-68.4,0-82.5c0.3,0,0.6-0.1,0.8-0.1c0.1,0.8,0.3,1.5,0.3,2.3
				c0,11.8,0,63.6,0,75.4c0,1.4,0,2.7,0.4,4.2c1.5-3.4,3.1-6.9,4.6-10.3c0.2,0.1,0.4,0.2,0.6,0.2c0.3,2.1-1.2,3.7-1.9,5.5
				c-0.7,1.8-1.5,3.6-2,5.6c3.9-3.9,7.8-7.8,11.7-11.7c0.3,0.3,0.5,0.5,0.8,0.8c-3.8,4.3-8.1,8.1-11.8,12.6
				c3.8-1.4,7.6-2.8,11.4-4.2c0.1,0.3,0.2,0.6,0.3,0.9c-3.4,1.3-6.9,2.7-10.3,4c0,0.2,0,0.4,0,0.6c5.4,0,10.8,0,16.2,0
				C-109.3,450-109.3,450.3-109.3,450.7z"/>
		</g>
		<path class="st0" d="M-102.7,437.7c8.5,4.7,16.9,9.3,25.4,14"/>
		<path class="st0" d="M-120.2,428c5.4,3,10.6,6.5,16.2,9"/>
		<line class="st0" x1="-120.2" y1="428" x2="-173.8" y2="454.7"/>
		<line class="st0" x1="-77.3" y1="451.7" x2="-130.6" y2="477.9"/>
		<line class="st0" x1="-130.6" y1="477.9" x2="-173.8" y2="454.7"/>
		<line class="st0" x1="-104" y1="437" x2="-130.6" y2="450.4"/>
		<line class="st0" x1="-102.6" y1="437.8" x2="-130.6" y2="451.3"/>
		<line class="st0" x1="-104" y1="437" x2="-104" y2="438.4"/>
		<line class="st0" x1="-173.8" y1="454.7" x2="-173.8" y2="455.9"/>
		<line class="st0" x1="-173.8" y1="455.9" x2="-130.6" y2="479.3"/>
		<line class="st0" x1="-130.6" y1="479.3" x2="-130.6" y2="477.9"/>
		<line class="st0" x1="-130.6" y1="479.3" x2="-77.3" y2="453.1"/>
		<line class="st0" x1="-77.3" y1="453.1" x2="-77.3" y2="451.7"/>
	</g>
</g>
</svg>
