<?xml version="1.0" encoding="utf-8"?>
<!-- Generator: Adobe Illustrator 19.0.0, SVG Export Plug-In . SVG Version: 6.00 Build 0)  -->
<svg version="1.1" id="Capa_1" xmlns="http://www.w3.org/2000/svg" xmlns:xlink="http://www.w3.org/1999/xlink" x="0px" y="0px"
	 viewBox="-210 325.9 173.5 190" style="enable-background:new -210 325.9 173.5 190;" xml:space="preserve">
<g id="XMLID_100_">
	<path d="M-45.1,494.1h-156.3c-2,0-3.8-1-4.8-2.7s-1-3.8,0-5.5l78.1-135.4c1-1.7,2.8-2.8,4.8-2.8l0,0c2,0,3.8,1,4.8,2.7l78.2,135.4
		c1,1.7,1,3.8,0,5.5C-41.3,493-43.1,494.1-45.1,494.1z M-191.9,483.1h137.3l-68.7-118.9L-191.9,483.1z"/>
</g>
<g>
	<path d="M-96.9,425.4l-10.2-13.2c-0.2-0.3-0.5-0.4-0.8-0.4s-0.6,0.1-0.8,0.4l-10.2,13.2c-0.2,0.2-0.2,0.5-0.1,0.7
		c0.1,0.2,0.3,0.4,0.6,0.4h5.4v12.1c0,0.9-0.6,1.6-1.4,1.8l-1.3,0.3l8,1.9c1.6,0.4,3.2,1.1,4.5,2.1c0.3-0.9,0.5-1.9,0.5-2.9v-15.3
		h5.4c0.3,0,0.5-0.1,0.6-0.4C-96.7,425.9-96.7,425.6-96.9,425.4z"/>
	<path d="M-143.5,450.3c-0.1,0.1-0.1,0.3-0.2,0.4l-4.7,10.3c-0.5,1-0.4,2.2,0.2,3.1c0.6,0.9,1.6,1.5,2.7,1.5h6.6
		c1.2,0,2.3-0.7,2.9-1.8l3.8-7.6c0.2-0.5,0.7-0.9,1.2-1l0.2-0.1l-7.2-1.7C-140.1,452.9-142,451.8-143.5,450.3z"/>
	<path d="M-102.8,450.7c-1.1-2.4-3.2-4.2-5.8-4.8l-23.4-5.5c-0.8-0.2-1.4-1-1.4-1.8v-12.1h5.4c0.3,0,0.5-0.1,0.6-0.4
		c0.1-0.2,0.1-0.5-0.1-0.7l-10.2-13.2c-0.2-0.3-0.5-0.4-0.8-0.4c-0.3,0-0.6,0.1-0.8,0.4l-10.2,13.2c-0.2,0.2-0.2,0.5-0.1,0.7
		c0.1,0.2,0.3,0.4,0.6,0.4h5.4v15.3c0,4,2.7,7.4,6.6,8.3l21.5,5.1c0.5,0.1,1,0.5,1.2,1l3.8,7.6c0.5,1.1,1.7,1.8,2.9,1.8h6.6
		c1.1,0,2.1-0.6,2.7-1.5c0.6-0.9,0.7-2.1,0.2-3.1L-102.8,450.7z"/>
</g>
</svg>
