<?xml version="1.0" encoding="utf-8"?>
<!-- Generator: Adobe Illustrator 19.0.0, SVG Export Plug-In . SVG Version: 6.00 Build 0)  -->
<svg version="1.1" id="Capa_1" xmlns="http://www.w3.org/2000/svg" xmlns:xlink="http://www.w3.org/1999/xlink" x="0px" y="0px"
	 viewBox="-210 325.9 173.5 190" style="enable-background:new -210 325.9 173.5 190;" xml:space="preserve">
<g id="XMLID_100_">
	<path d="M-45.1,494.1h-156.3c-2,0-3.8-1-4.8-2.7s-1-3.8,0-5.5l78.1-135.4c1-1.7,2.8-2.8,4.8-2.8l0,0c2,0,3.8,1,4.8,2.7l78.2,135.4
		c1,1.7,1,3.8,0,5.5C-41.3,493-43.1,494.1-45.1,494.1z M-191.9,483.1h137.3l-68.7-118.9L-191.9,483.1z"/>
</g>
<path d="M-101,414.9h-44.5c-4,0-7.2,3-7.2,6.7v33.8c0,3.7,3.2,6.7,7.2,6.7h4.7v10c0,0.6,0.4,1.2,1,1.4c0.3,0.1,0.5,0.1,0.7,0.1
	c0.4,0,0.8-0.1,1.1-0.3l14.9-11.3h22.1c4,0,7.2-3,7.2-6.7v-33.8C-93.8,417.9-97,414.9-101,414.9z M-124.4,447.9h-14.5v-19.1h14v3.4
	H-135v4.1h9.3v3.3h-9.3v4.9h10.6V447.9z M-108.4,446.7c-1.4,1.2-3.3,1.7-5.7,1.7c-2.5,0-4.5-0.6-6-1.7c-1.4-1.1-2.2-2.7-2.2-4.7h3.8
	c0.1,0.9,0.4,1.5,0.7,2c0.7,0.8,1.8,1.2,3.4,1.2c1,0,1.8-0.1,2.4-0.3c1.1-0.4,1.7-1.1,1.7-2.2c0-0.7-0.3-1.1-0.9-1.4
	c-0.6-0.3-1.4-0.7-2.7-0.9l-2.1-0.5c-2-0.5-3.4-0.9-4.2-1.4c-1.3-0.9-2-2.3-2-4.1c0-1.7,0.7-3.1,1.9-4.3s3.1-1.7,5.6-1.7
	c2,0,3.8,0.5,5.2,1.6c1.4,1,2.2,2.6,2.3,4.6h-3.8c-0.1-1.2-0.6-2-1.6-2.4c-0.7-0.3-1.4-0.5-2.4-0.5c-1,0-1.9,0.2-2.6,0.7
	c-0.7,0.4-0.9,1-0.9,1.8c0,0.7,0.3,1.2,0.9,1.5c0.4,0.2,1.2,0.5,2.6,0.8l3.3,0.8c1.4,0.3,2.6,0.8,3.3,1.4c1.1,0.9,1.7,2.2,1.7,3.9
	C-106.4,444.1-107,445.5-108.4,446.7z"/>
</svg>
