<?xml version="1.0" encoding="utf-8"?>
<!-- Generator: Adobe Illustrator 19.0.0, SVG Export Plug-In . SVG Version: 6.00 Build 0)  -->
<svg version="1.1" id="Capa_1" xmlns="http://www.w3.org/2000/svg" xmlns:xlink="http://www.w3.org/1999/xlink" x="0px" y="0px"
	 viewBox="-210 325.9 173.5 190" style="enable-background:new -210 325.9 173.5 190;" xml:space="preserve">
<style type="text/css">
	.st0{fill:#FF00C9;stroke:#211915;stroke-width:11;stroke-linecap:round;stroke-linejoin:round;stroke-miterlimit:10;}
</style>
<g id="XMLID_289_">
	<g id="XMLID_294_">
		<polygon id="XMLID_295_" class="st0" points="-201.4,488.5 -123.3,353.2 -45.1,488.5 		"/>
	</g>
	<g id="XMLID_342_">
		<path id="XMLID_343_" d="M-97.7,456.1c-0.7-0.9-1.7-1.5-2.9-1.7v-7.4c2.5-4.1,4-8.9,4-14c0-14.7-11.9-26.6-26.6-26.6
			c-14.7,0-26.6,11.9-26.6,26.6c0,5.1,1.5,9.9,4,14v7.4c-1.2,0.2-2.2,0.8-2.9,1.7c-1,1.3-1.5,3.3-1.5,6c0,2.6,0.5,5.1,1.3,7.1
			c1.4,3.1,3.2,3.6,4.2,3.6c1,0,2.9-0.5,4.2-3.6c0.8-1.9,1.3-4.4,1.3-7.1c0-2.7-0.5-4.7-1.5-6c-0.7-0.9-1.7-1.5-2.9-1.7V450
			c4.7,5.5,11.5,9.2,19.3,9.5v3.4c-1.9,2-3,4.6-3,7.4c0,2.8,1.1,5.5,3.1,7.4c0.3,0.3,0.7,0.4,1.1,0.4c0.4,0,0.8-0.1,1.1-0.4
			c2-2,3.1-4.6,3.1-7.4c0-2.8-1.1-5.4-3-7.4v-3.4c7.7-0.3,14.6-3.9,19.3-9.5v4.3c-1.2,0.2-2.2,0.8-2.9,1.7c-1,1.3-1.5,3.3-1.5,6
			c0,2.6,0.5,5.1,1.3,7.1c1.4,3.1,3.2,3.6,4.2,3.6c1,0,2.9-0.5,4.2-3.6c0.8-1.9,1.3-4.4,1.3-7.1C-96.2,459.3-96.7,457.4-97.7,456.1
			L-97.7,456.1z M-145.9,457.4v11.2c-0.7-1.2-1.4-3.4-1.4-6.6C-147.3,458.9-146.6,457.8-145.9,457.4L-145.9,457.4z M-142.2,462
			c0,3.2-0.7,5.4-1.4,6.6v-11.2C-142.9,457.8-142.2,458.9-142.2,462L-142.2,462z M-106.6,446.8v2.8h-2.8c-1.9,0-3.8-0.3-5.6-0.9
			c0.7-2,1.1-4.2,1.1-6.4c2.2,0,4.3-0.4,6.4-1.1C-106.9,442.9-106.6,444.8-106.6,446.8L-106.6,446.8z M-123.3,456.4l-2-2
			c-1.4-1.4-2.5-2.9-3.3-4.6c1.9-0.9,3.7-2.2,5.3-3.7c1.5,1.5,3.3,2.8,5.3,3.7c-0.8,1.7-2,3.3-3.3,4.6L-123.3,456.4z M-139.9,419
			v-2.8h2.8c1.9,0,3.8,0.3,5.6,0.9c-0.7,2-1.1,4.2-1.1,6.4c-2.2,0-4.3,0.4-6.4,1.1C-139.6,422.8-139.9,421-139.9,419L-139.9,419z
			 M-121.7,444.5c0.8-0.9,1.5-1.9,2-3c1.2,0.3,2.4,0.6,3.6,0.7c0,1.9-0.4,3.8-1,5.6C-118.8,446.9-120.4,445.8-121.7,444.5
			L-121.7,444.5z M-129.4,447.8c-0.6-1.8-0.9-3.7-1-5.6c1.2-0.1,2.4-0.4,3.6-0.7c0.6,1.1,1.3,2.1,2,3
			C-126.1,445.8-127.7,446.9-129.4,447.8L-129.4,447.8z M-124.8,421.3c-0.8,0.9-1.5,1.9-2,3c-1.2-0.3-2.4-0.6-3.6-0.7
			c0-1.9,0.4-3.8,1-5.6C-127.7,418.9-126.1,420-124.8,421.3L-124.8,421.3z M-117.1,418c0.6,1.8,0.9,3.7,1,5.6
			c-1.2,0.1-2.4,0.4-3.6,0.7c-0.6-1.1-1.3-2.1-2-3C-120.4,420-118.8,418.9-117.1,418L-117.1,418z M-118,431.7
			c-0.1,0.1-0.1,0.2-0.2,0.4c-0.1-0.8-0.5-1.6-0.9-2.2c0.1,0,0.3,0.1,0.4,0.1c0.4,0.1,0.9,0.3,1.3,0.5
			C-117.6,430.9-117.8,431.3-118,431.7L-118,431.7z M-118.2,433.7c0.1,0.1,0.1,0.3,0.2,0.4l0,0c0.2,0.4,0.4,0.8,0.6,1.2
			c-0.4,0.2-0.8,0.3-1.3,0.5c-0.1,0-0.3,0.1-0.4,0.1C-118.6,435.3-118.3,434.5-118.2,433.7L-118.2,433.7z M-118,427.9
			c-0.1,0-0.1,0-0.2-0.1c0-0.1,0-0.1-0.1-0.2c-0.1-0.4-0.3-0.9-0.5-1.3c0.8-0.2,1.6-0.4,2.5-0.5c-0.1,0.8-0.3,1.7-0.5,2.5
			C-117.1,428.2-117.6,428-118,427.9L-118,427.9z M-120.8,427.1c0.2,0.4,0.3,0.8,0.5,1.3c0,0.1,0.1,0.3,0.1,0.4
			c-0.6-0.5-1.4-0.8-2.2-0.9c0.1-0.1,0.2-0.1,0.4-0.2C-121.7,427.4-121.3,427.3-120.8,427.1L-120.8,427.1z M-123.3,435.8
			c-1.6,0-2.9-1.3-2.9-2.9c0-1.6,1.3-2.9,2.9-2.9c1.6,0,2.9,1.3,2.9,2.9C-120.4,434.5-121.7,435.8-123.3,435.8L-123.3,435.8z
			 M-126.3,428.8c0-0.1,0.1-0.3,0.1-0.4c0.1-0.4,0.3-0.9,0.5-1.3c0.4,0.2,0.8,0.4,1.2,0.6c0.1,0.1,0.3,0.1,0.4,0.2
			C-124.9,428-125.6,428.3-126.3,428.8L-126.3,428.8z M-128.3,432.1c-0.1-0.1-0.1-0.3-0.2-0.4c-0.2-0.4-0.4-0.8-0.6-1.2
			c0.5-0.2,1.1-0.4,1.7-0.6C-127.9,430.5-128.2,431.3-128.3,432.1L-128.3,432.1z M-128.5,434.1L-128.5,434.1
			c0.1-0.1,0.1-0.2,0.2-0.4c0.1,0.8,0.5,1.6,0.9,2.2c-0.1,0-0.3-0.1-0.4-0.1c-0.4-0.1-0.9-0.3-1.3-0.5
			C-128.9,434.9-128.7,434.5-128.5,434.1L-128.5,434.1z M-128.3,427.6c0,0.1,0,0.1-0.1,0.2c-0.5,0.2-1,0.3-1.5,0.5
			c-0.2-0.8-0.4-1.6-0.5-2.5c0.8,0.1,1.7,0.3,2.5,0.5C-128,426.8-128.1,427.2-128.3,427.6L-128.3,427.6z M-131.1,431.5
			c0.2,0.4,0.4,0.8,0.6,1.2c0,0.1,0.1,0.1,0.1,0.2c0,0.1-0.1,0.1-0.1,0.2l0,0c-0.2,0.4-0.4,0.8-0.6,1.2c-0.7-0.4-1.4-0.9-2.1-1.4
			C-132.5,432.4-131.8,431.9-131.1,431.5L-131.1,431.5z M-129.8,437.4c0.4,0.2,0.9,0.3,1.3,0.5c0.1,0,0.1,0,0.2,0.1
			c0,0.1,0,0.1,0.1,0.2c0.1,0.4,0.3,0.9,0.5,1.3c-0.8,0.2-1.6,0.4-2.5,0.5C-130.2,439.1-130,438.2-129.8,437.4L-129.8,437.4z
			 M-125.7,438.7c-0.2-0.4-0.3-0.8-0.5-1.3c0-0.1-0.1-0.3-0.1-0.4c0.6,0.5,1.4,0.8,2.2,0.9c-0.1,0.1-0.3,0.1-0.4,0.2
			C-124.8,438.3-125.2,438.5-125.7,438.7L-125.7,438.7z M-120.2,437c-0.2,0.6-0.4,1.1-0.6,1.7c-0.4-0.2-0.8-0.4-1.2-0.6
			c-0.1-0.1-0.2-0.1-0.4-0.2C-121.6,437.8-120.9,437.5-120.2,437L-120.2,437z M-118.2,438c0.1,0,0.1,0,0.2-0.1
			c0.4-0.1,0.9-0.3,1.3-0.5c0.2,0.8,0.4,1.6,0.5,2.5c-0.8-0.1-1.7-0.3-2.5-0.5C-118.5,438.9-118.3,438.5-118.2,438L-118.2,438z
			 M-115.4,434.3c-0.2-0.4-0.4-0.8-0.6-1.2v0c0-0.1-0.1-0.1-0.1-0.2c0-0.1,0.1-0.1,0.1-0.2c0.2-0.4,0.4-0.8,0.6-1.2
			c0.7,0.4,1.4,0.9,2.1,1.4C-114,433.4-114.7,433.9-115.4,434.3L-115.4,434.3z M-121.8,425.1c-0.4,0.2-0.8,0.4-1.2,0.6
			c-0.1,0-0.1,0.1-0.2,0.1c-0.1,0-0.1-0.1-0.2-0.1c-0.4-0.2-0.8-0.4-1.2-0.6c0.4-0.7,0.9-1.4,1.4-2.1
			C-122.7,423.6-122.3,424.3-121.8,425.1L-121.8,425.1z M-132.5,425.8c0.1,1.2,0.4,2.4,0.7,3.6c-1.1,0.6-2.1,1.3-3,2
			c-1.3-1.4-2.4-2.9-3.3-4.6C-136.3,426.1-134.4,425.8-132.5,425.8L-132.5,425.8z M-134.8,434.4c0.9,0.8,1.9,1.5,3,2
			c-0.3,1.2-0.6,2.4-0.7,3.6c-1.9,0-3.8-0.4-5.6-1C-137.3,437.3-136.2,435.8-134.8,434.4L-134.8,434.4z M-124.7,440.7
			c0.4-0.2,0.8-0.4,1.2-0.6c0.1,0,0.1-0.1,0.2-0.1c0.1,0,0.1,0.1,0.2,0.1c0.4,0.2,0.8,0.4,1.2,0.6c-0.4,0.7-0.9,1.4-1.4,2.1
			C-123.8,442.1-124.2,441.4-124.7,440.7L-124.7,440.7z M-114,440c-0.1-1.2-0.4-2.4-0.7-3.6c1.1-0.6,2.1-1.3,3-2
			c1.3,1.4,2.4,2.9,3.3,4.6C-110.2,439.7-112.1,440-114,440L-114,440z M-111.7,431.4c-0.9-0.8-1.9-1.5-3-2c0.3-1.2,0.6-2.4,0.7-3.6
			c1.9,0,3.8,0.4,5.6,1C-109.2,428.4-110.3,430-111.7,431.4L-111.7,431.4z M-106.6,419c0,1.9-0.3,3.8-0.9,5.6
			c-2-0.7-4.2-1.1-6.4-1.1c0-2.2-0.4-4.3-1.1-6.4c1.8-0.6,3.7-0.9,5.6-0.9h2.8V419z M-123.3,419.6c-1.5-1.5-3.3-2.8-5.3-3.7
			c0.8-1.7,2-3.3,3.3-4.6l2-2l2,2c1.4,1.4,2.5,2.9,3.3,4.6C-119.9,416.9-121.7,418.1-123.3,419.6L-123.3,419.6z M-140.2,427.6
			c0.9,1.9,2.2,3.7,3.7,5.3c-1.5,1.5-2.8,3.3-3.7,5.3c-1.7-0.8-3.3-2-4.6-3.3l-2-2l2-2C-143.5,429.6-141.9,428.4-140.2,427.6
			L-140.2,427.6z M-139.9,446.8c0-1.9,0.3-3.8,0.9-5.6c2,0.7,4.2,1.1,6.4,1.1c0,2.2,0.4,4.3,1.1,6.4c-1.8,0.6-3.7,0.9-5.6,0.9h-2.8
			V446.8z M-106.3,438.2c-0.9-1.9-2.2-3.7-3.7-5.3c1.5-1.5,2.8-3.3,3.7-5.3c1.7,0.8,3.3,2,4.6,3.3l2,2l-2,2
			C-103,436.2-104.6,437.3-106.3,438.2L-106.3,438.2z M-100.1,429.3c-1.6-1.6-3.4-2.9-5.4-3.8c0.7-2.1,1.1-4.3,1.1-6.5v-0.3
			c2.3,3.1,3.9,6.8,4.5,10.9L-100.1,429.3z M-109.4,414c-2.2,0-4.4,0.4-6.5,1.1c-1-2-2.2-3.8-3.8-5.4l-0.2-0.2
			c4,0.6,7.7,2.2,10.9,4.5H-109.4z M-126.8,409.7c-1.6,1.6-2.9,3.4-3.8,5.4c-2.1-0.7-4.3-1.1-6.5-1.1h-0.3c3.1-2.3,6.8-3.9,10.9-4.5
			L-126.8,409.7z M-141.1,425.5c-2,1-3.8,2.2-5.4,3.8l-0.2,0.2c0.6-4,2.2-7.7,4.5-10.9v0.3C-142.1,421.3-141.8,423.4-141.1,425.5
			L-141.1,425.5z M-146.4,436.4c1.6,1.6,3.4,2.9,5.4,3.8c-0.7,2.1-1.1,4.3-1.1,6.5v0.3c-2.3-3.1-3.9-6.8-4.5-10.9L-146.4,436.4z
			 M-137.1,451.8c2.2,0,4.4-0.4,6.5-1.1c1,2,2.2,3.8,3.8,5.4l0.2,0.2c-4-0.6-7.7-2.2-10.9-4.5H-137.1z M-119.7,456.1
			c1.6-1.6,2.9-3.4,3.8-5.4c2.1,0.7,4.3,1.1,6.5,1.1h0.3c-3.1,2.3-6.8,3.9-10.9,4.5L-119.7,456.1z M-105.4,440.3
			c2-1,3.8-2.2,5.4-3.8l0.2-0.2c-0.6,4-2.2,7.7-4.5,10.9v-0.3C-104.4,444.5-104.7,442.3-105.4,440.3L-105.4,440.3z M-123.3,474.3
			c-0.7-1.2-1.1-2.6-1.1-4c0-1.4,0.4-2.8,1.1-4c0.7,1.2,1.1,2.6,1.1,4C-122.1,471.7-122.5,473.1-123.3,474.3L-123.3,474.3z
			 M-102.9,457.4v11.2c-0.7-1.2-1.4-3.4-1.4-6.6C-104.3,458.9-103.6,457.8-102.9,457.4L-102.9,457.4z M-100.6,468.6v-11.2
			c0.7,0.4,1.4,1.5,1.4,4.6C-99.2,465.2-99.9,467.4-100.6,468.6L-100.6,468.6z M-100.6,468.6"/>
	</g>
</g>
</svg>
