<?xml version="1.0" encoding="utf-8"?>
<!-- Generator: Adobe Illustrator 19.0.0, SVG Export Plug-In . SVG Version: 6.00 Build 0)  -->
<svg version="1.1" id="Capa_1" xmlns="http://www.w3.org/2000/svg" xmlns:xlink="http://www.w3.org/1999/xlink" x="0px" y="0px"
	 viewBox="-210 325.9 173.5 190" style="enable-background:new -210 325.9 173.5 190;" xml:space="preserve">
<g id="XMLID_100_">
	<path d="M-45.1,494.1h-156.3c-2,0-3.8-1-4.8-2.7s-1-3.8,0-5.5l78.1-135.4c1-1.7,2.8-2.8,4.8-2.8l0,0c2,0,3.8,1,4.8,2.7l78.2,135.4
		c1,1.7,1,3.8,0,5.5C-41.3,493-43.1,494.1-45.1,494.1z M-191.9,483.1h137.3l-68.7-118.9L-191.9,483.1z"/>
</g>
<g>
	<path d="M-93.6,457.2h-10.5v-35.9c0-4.3-3.5-7.8-7.8-7.8h-32.9c-4.3,0-7.8,3.5-7.8,7.8c0,0.9,0.7,1.7,1.7,1.7h10.5v35.9
		c0,4.3,3.5,7.8,7.8,7.8h32.9c4.3,0,7.8-3.5,7.8-7.8C-91.9,458-92.7,457.2-93.6,457.2z M-144.8,416.9h26.5c-0.6,0.8-1,1.8-1.2,2.8
		h-29.4C-148.2,418-146.7,416.9-144.8,416.9z M-128.1,458.9c0,2.4-2,4.4-4.4,4.4c-2.4,0-4.4-2-4.4-4.4V423h19c0.9,0,1.7-0.7,1.7-1.7
		c0-2.4,2-4.4,4.4-4.4c2.4,0,4.4,2,4.4,4.4v35.9h-19C-127.4,457.2-128.1,458-128.1,458.9z M-99.7,463.3h-26.5c0.6-0.8,1-1.8,1.2-2.8
		h29.4C-96.3,462.2-97.8,463.3-99.7,463.3z"/>
	<path d="M-113.5,429.7h-16.4c-0.9,0-1.7,0.7-1.7,1.7c0,0.9,0.7,1.7,1.7,1.7h16.4c0.9,0,1.7-0.7,1.7-1.7
		C-111.8,430.4-112.6,429.7-113.5,429.7z"/>
	<path d="M-113.5,438.5h-16.4c-0.9,0-1.7,0.7-1.7,1.7c0,0.9,0.7,1.7,1.7,1.7h16.4c0.9,0,1.7-0.7,1.7-1.7
		C-111.8,439.2-112.6,438.5-113.5,438.5z"/>
	<path d="M-113.5,447.3h-16.4c-0.9,0-1.7,0.7-1.7,1.7c0,0.9,0.7,1.7,1.7,1.7h16.4c0.9,0,1.7-0.7,1.7-1.7
		C-111.8,448.1-112.6,447.3-113.5,447.3z"/>
</g>
</svg>
