<?xml version="1.0" encoding="utf-8"?>
<!-- Generator: Adobe Illustrator 19.0.0, SVG Export Plug-In . SVG Version: 6.00 Build 0)  -->
<svg version="1.1" id="Capa_1" xmlns="http://www.w3.org/2000/svg" xmlns:xlink="http://www.w3.org/1999/xlink" x="0px" y="0px"
	 viewBox="-210 325.9 173.5 190" style="enable-background:new -210 325.9 173.5 190;" xml:space="preserve">
<g>
	<path d="M-47.3,439.2c-1.5-1.3-2.8-2.3-2.9-2.4c-0.1-0.1-0.1-0.2,0-1.3c0.8-5.9,0.9-11.7,0.3-17.8c-1.4-14.2-6.9-27.4-15.8-38.6
		c-5.7-7.2-12.9-13.3-20.9-17.9c-2.5-1.4-6-3.1-8.5-4.2c-0.3-0.1-0.6-0.3-0.7-0.4c0-0.1-0.7-3.1-1.5-6.8c-0.8-3.7-1.5-6.8-1.5-6.8
		c0-0.1-1.3-0.1-24.2-0.1h-24.2l0,0.2c0,0.1-0.5,3.1-1.2,6.7c-0.6,3.6-1.1,6.5-1.2,6.6c0,0.1-0.5,0.3-1.1,0.5
		c-11.6,4.7-22.1,12.5-29.9,22.3c-8.1,10.1-13.4,22.2-15.3,34.9c-0.1,0.7-0.2,1.4-0.3,1.5c-0.1,0.4-0.4,3.2-0.6,5.7
		c-0.1,1.7-0.1,6.1,0,7.9c0.1,1.6,0.2,3.2,0.5,5.1l0.2,1.4l-0.3,0.3c-0.6,0.6-1.5,1.3-2.3,2.1c-0.5,0.4-1.1,1-1.4,1.3
		c-0.6,0.6-0.7,0.7-3.9,3.6c-1.4,1.3-2.5,2.3-2.5,2.4c0,0,0.9,1.7,2.1,3.7c1.2,2,6.6,11.4,12.1,20.9c5.5,9.5,10,17.3,10,17.3
		s0.6-0.2,1.3-0.5c0.7-0.2,2.1-0.8,3.3-1.2c6.6-2.4,8.2-3,8.3-3c0,0,0.3,0.2,0.5,0.4c1.4,1.1,4.7,3.5,6.9,4.9
		c3.7,2.3,8.6,4.7,13.2,6.4c10.9,4.1,23,5.5,34.5,4.1c6.2-0.7,12.4-2.3,18-4.5c0.7-0.3,1.4-0.5,1.5-0.6c0.4-0.1,2.8-1.2,5.2-2.4
		c3.8-1.9,7.2-4,10.7-6.7l1.4-1.1l0.4,0.1c0.2,0.1,0.5,0.1,0.6,0.2c0.4,0.1,3.8,1.2,4.3,1.3c0.9,0.3,4.9,1.5,5.1,1.6
		c0.1,0,0.5,0.2,1,0.3c0.4,0.1,1.1,0.3,1.5,0.5c0.4,0.1,0.7,0.2,0.8,0.2c0.1,0,24.2-41.8,24.2-41.9
		C-39.9,445.5-41.3,444.2-47.3,439.2z M-45.2,447.1c0,0.1-4.6,7.9-10.1,17.5c-6,10.4-10.1,17.4-10.1,17.4c-0.1,0-0.7-0.2-1.3-0.4
		c-0.7-0.2-1.3-0.4-1.5-0.4c-0.3-0.1-3.4-1-4-1.2c-0.2-0.1-0.7-0.2-1.1-0.3c-0.4-0.1-0.7-0.2-0.8-0.3c-0.1,0-0.3-0.1-0.5-0.1
		c-0.2,0-0.4-0.1-0.5-0.1s-0.4-0.1-0.7-0.2c-0.3-0.1-0.9-0.3-1.4-0.4c-0.9-0.3-0.9-0.3-1.1-0.1c-0.1,0.1-0.7,0.5-1.3,1
		c-1.8,1.5-5.2,3.9-5.4,3.9c0,0-0.4,0.2-0.7,0.4c-3.5,2.3-7.9,4.5-11.9,6.1c-6.8,2.7-13.5,4.2-21.1,4.8c-1.7,0.1-7.2,0.1-8.9,0
		c-9.8-0.7-18.4-3.1-26.7-7.3c-4.3-2.2-8.9-5.1-12.3-7.9c-0.3-0.2-0.6-0.4-0.6-0.5c0,0-0.4-0.3-0.8-0.7l-0.7-0.6l-0.4,0.1
		c-0.3,0.1-0.8,0.2-3.2,1.1c-0.7,0.3-2.3,0.9-3.7,1.3c-1.3,0.5-3,1.1-3.7,1.3c-0.7,0.3-1.3,0.5-1.3,0.5c0,0-4.6-7.9-10.2-17.5
		l-10.1-17.5l0.3-0.2c0.1-0.1,0.8-0.8,1.5-1.4c0.7-0.6,1.5-1.4,1.7-1.6c0.3-0.3,0.8-0.8,1.2-1.1c0.4-0.4,0.9-0.8,1.1-1
		c0.2-0.2,0.5-0.5,0.7-0.6c0.5-0.5,2-1.8,2.2-2c0.1-0.1,0.4-0.4,0.7-0.7l0.5-0.5l-0.1-0.5c-0.4-1.9-0.8-5.5-0.8-7
		c0-0.6,0-2.2-0.1-3.6c-0.1-4,0.1-7.8,0.7-11.7c2.9-19.3,13.8-36.4,30-47.2c4.7-3.2,10-5.8,15.1-7.6c0.9-0.3,0.9-0.3,1-0.6
		c0.1-0.3,0.6-3,1.5-8.3c0.4-2.1,0.7-4,0.7-4.1l0-0.2h20.2c19.2,0,20.2,0,20.3,0.1c0.1,0.2,1.8,7.5,2.4,10.1
		c0.3,1.3,0.6,2.5,0.6,2.6c0.1,0.2,0.1,0.3,1.5,0.8c3,1.1,6.5,2.8,8.9,4.1c7.9,4.4,14.8,10.2,20.4,17.2c8.7,10.8,14,24,15.1,37.9
		c0.2,3,0.3,8.3,0.1,10.8c-0.2,2.4-0.6,5.2-1,7.6l-0.1,0.5l0.3,0.3c0.2,0.2,0.6,0.6,1,0.9c0.4,0.3,0.7,0.6,0.8,0.6
		c0,0,0.4,0.4,0.9,0.7c0.4,0.3,1.1,0.9,1.5,1.2c0.4,0.3,1.7,1.4,2.9,2.4C-44.9,447.1-45.1,446.9-45.2,447.1z"/>
	<path d="M-76,449.3c-1.3-0.8-2.5-1.5-3.1-1.8c3.2-6.5,5-13.8,5-21.5c0-8.9-2.4-17.2-6.5-24.5c-0.6-1.1-1.3-2.2-2-3.3
		c-3-4.5-6.9-8.6-11.3-11.9c-2.4-1.8-4.6-3.2-7.5-4.6c-5.3-2.6-10.9-4.3-16.5-4.8c-0.9-0.1-1.7-0.2-1.9-0.2l-0.3,0v-3.9v-3.9h-3h-3
		v3.9v3.9l-0.3,0c-0.2,0-1,0.1-1.9,0.2c-7.6,0.8-15.3,3.6-21.9,7.9c-4.6,3.1-8.8,7-12.1,11.5c-6.3,8.3-10,18.5-10,29.7
		c0,7.9,1.9,15.3,5.2,21.9c-0.7,0.4-1.8,1.1-3.1,1.8c-2,1.2-3.7,2.2-3.8,2.2c-0.1,0.1,0.1,0.4,1.4,2.6c0.8,1.4,1.5,2.6,1.5,2.6
		c0,0,1.7-1,3.8-2.2c1.3-0.8,2.5-1.4,3.2-1.8c8.8,13.3,23.9,22,40.9,22c17.2,0,32.4-8.9,41.1-22.4c0.7,0.4,1.8,1,3.2,1.8
		c2,1.2,3.7,2.2,3.8,2.2c0.1,0,0.4-0.5,1.6-2.5c1.3-2.3,1.5-2.6,1.4-2.7C-72.3,451.4-74,450.4-76,449.3z M-115.4,464.2
		c-0.4,0.1-0.9,0.2-1.3,0.2c-0.3,0-0.5,0.1-0.8,0.1c-0.2,0-0.3,0-0.5,0.1c-5.4,0.7-10.8,0.3-16.1-1.2c-0.1,0-0.3-0.1-0.4-0.1
		c-0.3-0.1-0.6-0.2-1-0.3c-15.6-5.1-27-19.8-27-37.2c0-21.6,17.5-39.1,39.1-39.1s39.1,17.5,39.1,39.1
		C-84.1,444.8-97.6,460.5-115.4,464.2C-115.4,464.2-115.4,464.2-115.4,464.2z"/>
	<path d="M-123.3,407.7c2.5,0,4.6-2,4.6-4.6c0-2.5-2-4.6-4.6-4.6s-4.6,2-4.6,4.6C-127.8,405.6-125.8,407.7-123.3,407.7z"/>
	<path d="M-118.7,408.7h-4.6h-4.6c-3.4,0-5.7,3-5.7,5.9v13.9c0,2.7,3.8,2.7,3.8,0v-12.8h0.7v34.9c0,3.7,5.1,3.6,5.2,0v-20.1h0.9h0.1
		v20.1c0.2,3.8,5.2,3.4,5.2,0v-34.9h0.6v12.8c0,2.7,3.9,2.7,3.9,0v-13.9C-113,411.7-115.3,408.7-118.7,408.7z"/>
</g>
</svg>
