<?xml version="1.0" encoding="utf-8"?>
<!-- Generator: Adobe Illustrator 19.0.0, SVG Export Plug-In . SVG Version: 6.00 Build 0)  -->
<svg version="1.1" id="Capa_1" xmlns="http://www.w3.org/2000/svg" xmlns:xlink="http://www.w3.org/1999/xlink" x="0px" y="0px"
	 viewBox="-210 325.9 173.5 190" style="enable-background:new -210 325.9 173.5 190;" xml:space="preserve">
<style type="text/css">
	.st0{fill:#00BA09;}
	.st1{fill:#211915;}
	.st2{fill:#FFFFFF;}
</style>
<g id="XMLID_134_">
	<g id="XMLID_147_">
		<g>
			<polygon id="XMLID_1_" class="st0" points="-201.4,488.5 -123.3,353.2 -45.1,488.5 			"/>
			<path class="st1" d="M-45.1,494h-156.3c-2,0-3.8-1-4.8-2.8c-1-1.7-1-3.8,0-5.5l78.1-135.3c1-1.7,2.8-2.7,4.8-2.8c0,0,0,0,0,0
				c2,0,3.8,1,4.8,2.7l78.2,135.3c1,1.7,1,3.8,0,5.5S-43.1,494-45.1,494z M-191.9,483h137.2l-68.7-118.8L-191.9,483z"/>
		</g>
	</g>
	<g id="XMLID_138_">
		<g id="XMLID_139_">
			<path id="XMLID_140_" class="st1" d="M-99.8,424.6l-22.4-9.6c-0.6-0.3-1.4-0.3-2,0l-22.4,9.6c-0.9,0.4-1.6,1.3-1.6,2.4v28.2
				c0,1,0.6,2,1.6,2.4l22.4,9.6c0.3,0.1,0.7,0.2,1,0.2s0.7-0.1,1-0.2l22.4-9.6c0.9-0.4,1.6-1.3,1.6-2.4V427
				C-98.3,425.9-98.9,425-99.8,424.6L-99.8,424.6z M-118.4,437.3l15-6.4v18.9L-118.4,437.3z M-123.3,420.1l15.9,6.8l-15.9,6.8
				l-15.9-6.8L-123.3,420.1z M-120.7,442l15,12.4l-15,6.4V442z"/>
		</g>
	</g>
	<g>
		<path class="st2" d="M-114.1,446.7v5.4h-17.7v-21.2h17.3v5.4h-10.2v2.5h9v5.2h-9v2.8L-114.1,446.7L-114.1,446.7z"/>
	</g>
</g>
</svg>
