<?xml version="1.0" encoding="utf-8"?>
<!-- Generator: Adobe Illustrator 19.0.0, SVG Export Plug-In . SVG Version: 6.00 Build 0)  -->
<svg version="1.1" id="Capa_1" xmlns="http://www.w3.org/2000/svg" xmlns:xlink="http://www.w3.org/1999/xlink" x="0px" y="0px"
	 viewBox="-210 325.9 173.5 190" style="enable-background:new -210 325.9 173.5 190;" xml:space="preserve">
<style type="text/css">
	.st0{clip-path:url(#SVGID_1_);}
</style>
<g id="XMLID_100_">
	<path d="M-45.1,494.1h-156.3c-2,0-3.8-1-4.8-2.7s-1-3.8,0-5.5l78.1-135.4c1-1.7,2.8-2.8,4.8-2.8l0,0c2,0,3.8,1,4.8,2.7l78.2,135.4
		c1,1.7,1,3.8,0,5.5C-41.3,493-43.1,494.1-45.1,494.1z M-191.9,483.1h137.3l-68.7-118.9L-191.9,483.1z"/>
</g>
<g>
	<g>
		<defs>
			<rect id="SVGID_3_" x="-153.6" y="412.1" width="60.6" height="61.3"/>
		</defs>
		<clipPath id="SVGID_1_">
			<use xlink:href="#SVGID_3_"  style="overflow:visible;"/>
		</clipPath>
		<path class="st0" d="M-130.5,451.5l-0.9,5.6c-0.1,0.8,0.2,1.5,0.8,2c0.6,0.5,1.5,0.5,2.1,0.2l5-2.6l5,2.6c0.3,0.2,0.6,0.2,0.9,0.2
			c0.4,0,0.8-0.1,1.2-0.4c0.6-0.5,0.9-1.2,0.8-2l-0.9-5.6l4-4c0.6-0.5,0.7-1.3,0.5-2.1c-0.2-0.7-0.9-1.3-1.6-1.4l-5.6-0.8l-2.5-5.1
			c-0.3-0.7-1.1-1.1-1.8-1.1c-0.8,0-1.5,0.4-1.8,1.1l-2.5,5.1l-5.6,0.8c-0.8,0.1-1.4,0.7-1.6,1.4c-0.2,0.7,0,1.5,0.5,2.1
			L-130.5,451.5z M-130.5,451.5"/>
		<path class="st0" d="M-99.4,418.6h-6.4v-3.6c0-1.6-1.3-3-3-3h-0.5c-1.6,0-3,1.3-3,3v3.6h-22.6v-3.6c0-1.6-1.3-3-3-3h-0.5
			c-1.6,0-3,1.3-3,3v3.6h-6.3c-3.4,0-6.1,2.7-6.1,6.1v42.5c0,3.4,2.7,6.1,6.1,6.1h48.1c3.4,0,6.1-2.7,6.1-6.1v-42.5
			C-93.3,421.4-96,418.6-99.4,418.6L-99.4,418.6z M-100.2,466.5h-46.5v-33.1h46.5V466.5z M-100.2,466.5"/>
	</g>
</g>
</svg>
