<?xml version="1.0" encoding="utf-8"?>
<!-- Generator: Adobe Illustrator 19.0.0, SVG Export Plug-In . SVG Version: 6.00 Build 0)  -->
<svg version="1.1" id="Capa_1" xmlns="http://www.w3.org/2000/svg" xmlns:xlink="http://www.w3.org/1999/xlink" x="0px" y="0px"
	 viewBox="-210 325.9 173.5 190" style="enable-background:new -210 325.9 173.5 190;" xml:space="preserve">
<g id="XMLID_100_">
	<path d="M-45.1,494.1h-156.3c-2,0-3.8-1-4.8-2.7s-1-3.8,0-5.5l78.1-135.4c1-1.7,2.8-2.8,4.8-2.8l0,0c2,0,3.8,1,4.8,2.7l78.2,135.4
		c1,1.7,1,3.8,0,5.5C-41.3,493-43.1,494.1-45.1,494.1z M-191.9,483.1h137.3l-68.7-118.9L-191.9,483.1z"/>
</g>
<g>
	<rect x="-154.6" y="457.5" width="2.2" height="2.2"/>
	<path d="M-97.8,447.1v12.1c0,0.9-0.7,1.7-1.7,1.7c-0.9,0-1.7-0.7-1.7-1.7v-4.5c0-2.2-1.7-3.9-3.9-3.9h-0.7
		c-0.8-5.7-5.3-10.1-11-10.8v-3.4l3.2-5.3c0.1-0.2,0.2-0.4,0.2-0.6v-22.3c0-0.6-0.5-1.1-1.1-1.1v-6.7h3.3v-2.2h-13.4v2.2h3.3v6.7
		c-0.6,0-1.1,0.5-1.1,1.1v22.3c0,0.2,0.1,0.4,0.2,0.6l3.2,5.3v3.3c-1.2,0.1-2.4,0.3-3.5,0.7l-18.8,6.5c-2-3.1-6.2-3.9-9.2-1.9
		c-1.9,1.2-3,3.3-3,5.6c0,0.2,0,0.4,0,0.6l-0.9,0.3c-3.6,1.3-5.6,5.2-4.3,8.9c1,2.8,3.6,4.7,6.6,4.7h33.8c6.8,0,12.4-5.4,12.7-12.2
		h0.6c0.9,0,1.7,0.7,1.7,1.7v4.5c0,2.2,1.7,3.9,3.9,3.9c2.2,0,3.9-1.7,3.9-3.9v-12.1c0-3.7,1.5-7.3,4.1-10l-1.6-1.6
		C-96.1,438.6-97.8,442.8-97.8,447.1z M-115.6,409.6v5.6h-4.5v-5.6H-115.6z M-119,400.7h2.2v6.7h-2.2V400.7z M-120.1,417.4h4.5v13
		l-2.2,3.7l-2.2-3.7V417.4z M-118.3,463.1h-9.6v-2.2c0-3.7,3-6.7,6.7-6.7v-2.2c-4.9,0-8.9,4-8.9,8.9v2.2h-22c-2.6,0-4.7-2.1-4.7-4.7
		c0-2,1.3-3.8,3.2-4.5l0.8-0.3c0.5,1,1.2,1.9,2.1,2.6l1.3-1.8c-2-1.5-2.4-4.3-0.9-6.2c1.5-2,4.3-2.4,6.2-0.9
		c1.1,0.8,1.8,2.2,1.8,3.6c0,2.1-1.5,3.9-3.6,4.4l0.4,2.2c3.6-0.7,5.9-4.2,5.2-7.8c0-0.1,0-0.2-0.1-0.3l18.6-6.5
		c0.9-0.3,1.8-0.5,2.8-0.6v4.2h2.2v-4.1c5.7,0.9,9.6,6.2,8.8,11.9C-108.7,459.3-113.1,463.1-118.3,463.1z"/>
</g>
</svg>
