<?xml version="1.0" encoding="utf-8"?>
<!-- Generator: Adobe Illustrator 19.0.0, SVG Export Plug-In . SVG Version: 6.00 Build 0)  -->
<svg version="1.1" id="Capa_1" xmlns="http://www.w3.org/2000/svg" xmlns:xlink="http://www.w3.org/1999/xlink" x="0px" y="0px"
	 viewBox="-210 325.9 173.5 190" style="enable-background:new -210 325.9 173.5 190;" xml:space="preserve">
<g id="XMLID_100_">
	<path d="M-45.1,494.1h-156.3c-2,0-3.8-1-4.8-2.7s-1-3.8,0-5.5l78.1-135.4c1-1.7,2.8-2.8,4.8-2.8l0,0c2,0,3.8,1,4.8,2.7l78.2,135.4
		c1,1.7,1,3.8,0,5.5C-41.3,493-43.1,494.1-45.1,494.1z M-191.9,483.1h137.3l-68.7-118.9L-191.9,483.1z"/>
</g>
<g>
	<path d="M-123.3,478.4c-4.7,0-9.2-0.9-13.4-2.7c-4.1-1.7-7.8-4.2-11-7.4c-3.2-3.2-5.7-6.9-7.4-11c-1.8-4.3-2.7-8.8-2.7-13.4
		c0-4.7,0.9-9.2,2.7-13.4c1.7-4.1,4.2-7.8,7.4-11c3.2-3.2,6.9-5.7,11-7.4c4.3-1.8,8.8-2.7,13.4-2.7s9.2,0.9,13.4,2.7
		c4.1,1.7,7.8,4.2,11,7.4c3.2,3.2,5.7,6.9,7.4,11c1.8,4.3,2.7,8.8,2.7,13.4c0,4.7-0.9,9.2-2.7,13.4c-1.7,4.1-4.2,7.8-7.4,11
		c-3.2,3.2-6.9,5.7-11,7.4C-114.1,477.5-118.6,478.4-123.3,478.4z M-123.3,415.7c-15.5,0-28.1,12.6-28.1,28.1s12.6,28.1,28.1,28.1
		c15.5,0,28.1-12.6,28.1-28.1S-107.7,415.7-123.3,415.7z"/>
	<path d="M-139.6,460.2l9.7-22.9l22.9-9.7l-9.7,22.9L-139.6,460.2z M-125,442.2l-2.5,6l6-2.5l2.5-6L-125,442.2z"/>
</g>
</svg>
