<?xml version="1.0" encoding="utf-8"?>
<!-- Generator: Adobe Illustrator 19.0.0, SVG Export Plug-In . SVG Version: 6.00 Build 0)  -->
<svg version="1.1" id="Capa_1" xmlns="http://www.w3.org/2000/svg" xmlns:xlink="http://www.w3.org/1999/xlink" x="0px" y="0px"
	 viewBox="-210 325.9 173.5 190" style="enable-background:new -210 325.9 173.5 190;" xml:space="preserve">
<style type="text/css">
	.st0{fill-rule:evenodd;clip-rule:evenodd;}
</style>
<g id="XMLID_100_">
	<path d="M-45.1,494.1h-156.3c-2,0-3.8-1-4.8-2.7s-1-3.8,0-5.5l78.1-135.4c1-1.7,2.8-2.8,4.8-2.8l0,0c2,0,3.8,1,4.8,2.7l78.2,135.4
		c1,1.7,1,3.8,0,5.5C-41.3,493-43.1,494.1-45.1,494.1z M-191.9,483.1h137.3l-68.7-118.9L-191.9,483.1z"/>
</g>
<g>
	<path class="st0" d="M-123.3,407.2c-17,0-30.8,13.1-30.8,28.6c0,16.6,13.2,41.8,30.8,41.8c17.6,0,30.8-25.2,30.8-41.8
		C-92.5,420.2-106.3,407.2-123.3,407.2L-123.3,407.2z M-123.3,470.9c-12.6,0-24.2-21.1-24.2-35.2c0-12.1,11.5-22,24.2-22
		c12.6,0,24.2,9.8,24.2,22C-99.1,449.8-110.6,470.9-123.3,470.9L-123.3,470.9z M-142.4,436.3c-2.3,2.4,2.2,14,5.3,17.9
		c3.4,4.3,8.5,10,10.5,7.1c1.8-2.5,1.6-13.5-3.2-18.5C-133.2,439.2-140.1,433.9-142.4,436.3L-142.4,436.3z M-104.1,436.3
		c-2.3-2.4-9.2,2.9-12.6,6.4c-4.8,5-5,16-3.2,18.5c2,2.9,7.1-2.8,10.5-7.1C-106.3,450.3-101.8,438.7-104.1,436.3L-104.1,436.3z
		 M-104.1,436.3"/>
</g>
</svg>
