<?xml version="1.0" encoding="utf-8"?>
<!-- Generator: Adobe Illustrator 19.0.0, SVG Export Plug-In . SVG Version: 6.00 Build 0)  -->
<svg version="1.1" id="Capa_1" xmlns="http://www.w3.org/2000/svg" xmlns:xlink="http://www.w3.org/1999/xlink" x="0px" y="0px"
	 viewBox="-210 325.9 173.5 190" style="enable-background:new -210 325.9 173.5 190;" xml:space="preserve">
<g id="XMLID_100_">
	<path d="M-45.1,494.1h-156.3c-2,0-3.8-1-4.8-2.7s-1-3.8,0-5.5l78.1-135.4c1-1.7,2.8-2.8,4.8-2.8l0,0c2,0,3.8,1,4.8,2.7l78.2,135.4
		c1,1.7,1,3.8,0,5.5C-41.3,493-43.1,494.1-45.1,494.1z M-191.9,483.1h137.3l-68.7-118.9L-191.9,483.1z"/>
</g>
<path d="M-123,408.1l-0.2-0.1l-29.4,16.9v33.9l29.4,17l29.4-17v-33.9L-123,408.1z M-124.2,458.9v14.3l-25.7-14.9l12.3-7.1
	L-124.2,458.9z M-149.9,425.5l25.7-14.9v14.3l-13.3,7.7L-149.9,425.5z M-138.4,434.2v15.4l-12.4,7.2V427L-138.4,434.2z
	 M-136.6,449.6v-14.3l12.4,7.2v14.3L-136.6,449.6z M-123.3,426.5l12.4,7.2l-12.4,7.1l-12.4-7.1L-123.3,426.5z M-122.3,456.8v-14.4
	l12.4-7.2v14.3L-122.3,456.8z M-122.3,458.9l13.4-7.7l12.4,7.2l-25.8,14.8V458.9z M-109,432.6l-13.3-7.7v-14.3l25.7,14.9L-109,432.6
	z M-108.1,449.6v-15.4l12.4-7.2v29.7L-108.1,449.6z"/>
</svg>
