<?xml version="1.0" encoding="utf-8"?>
<!-- Generator: Adobe Illustrator 19.0.0, SVG Export Plug-In . SVG Version: 6.00 Build 0)  -->
<svg version="1.1" id="Capa_1" xmlns="http://www.w3.org/2000/svg" xmlns:xlink="http://www.w3.org/1999/xlink" x="0px" y="0px"
	 viewBox="-210 325.9 173.5 190" style="enable-background:new -210 325.9 173.5 190;" xml:space="preserve">
<g id="XMLID_100_">
	<path d="M-45.1,494.1h-156.3c-2,0-3.8-1-4.8-2.7s-1-3.8,0-5.5l78.1-135.4c1-1.7,2.8-2.8,4.8-2.8l0,0c2,0,3.8,1,4.8,2.7l78.2,135.4
		c1,1.7,1,3.8,0,5.5C-41.3,493-43.1,494.1-45.1,494.1z M-191.9,483.1h137.3l-68.7-118.9L-191.9,483.1z"/>
</g>
<path d="M-104.9,409.5c-0.8-0.5-1.9-0.2-2.4,0.6l-7.8,11.9l9.6-16.7c0.5-0.8,0.2-1.9-0.6-2.4s-1.9-0.2-2.4,0.6l-10.5,16.2l10.1-17.6
	c0.5-0.8,0.2-1.9-0.6-2.4c-0.8-0.5-1.9-0.2-2.4,0.6l-11,17.1l9.1-15.9c0.5-0.8,0.2-1.9-0.6-2.4c-0.8-0.5-1.9-0.2-2.4,0.6l-9.5,15.6
	l-1.8,3c-0.1,0.2-0.3,0.4-0.6,0.3c-0.3-0.1-0.4-0.3-0.4-0.4l-0.5-9.4c0.1-1.1-0.8-2-1.9-2.1c-1.1-0.1-2,0.8-2.1,1.9l-1.1,20.8
	c0,0,0,0,0,0c-0.2,0.8-0.1,1.5,0.2,2.2c0.4,1.1,0.1,2-0.1,2.4l-0.1,0.1l-0.1-0.1l-38.9,28.4l-5.9-5.9l-12.4,18.3L-168,488l40.5-44.3
	c0.2-0.2,0.4-0.4,0.6-0.7c0.1-0.1,0.2-0.2,0.3-0.4l0.6-0.7l0,0l1.2-1.5c0.4-0.5,1.2-1.3,2.9-1.7l0,0c0.9-0.3,1.7-0.8,2.3-1.7
	l7.9-12.9l0,0l7.4-12.1C-103.8,411.1-104.1,410-104.9,409.5z"/>
</svg>
