<?xml version="1.0" encoding="utf-8"?>
<!-- Generator: Adobe Illustrator 19.0.0, SVG Export Plug-In . SVG Version: 6.00 Build 0)  -->
<svg version="1.1" id="Capa_1" xmlns="http://www.w3.org/2000/svg" xmlns:xlink="http://www.w3.org/1999/xlink" x="0px" y="0px"
	 viewBox="-210 325.9 173.5 190" style="enable-background:new -210 325.9 173.5 190;" xml:space="preserve">
<g id="XMLID_100_">
	<path d="M-45.1,494.1h-156.3c-2,0-3.8-1-4.8-2.7s-1-3.8,0-5.5l78.1-135.4c1-1.7,2.8-2.8,4.8-2.8l0,0c2,0,3.8,1,4.8,2.7l78.2,135.4
		c1,1.7,1,3.8,0,5.5C-41.3,493-43.1,494.1-45.1,494.1z M-191.9,483.1h137.3l-68.7-118.9L-191.9,483.1z"/>
</g>
<g>
	<path d="M-89.1,478.7v-17.4h-3.5v-10.5c0-2.2-1.4-4.1-3.3-4.9v-0.1c0-0.7-0.5-1.3-1.2-1.4c0-2-1.7-3.6-3.7-3.6h-13h-2.9h-6.7
		l-0.5-7.7h1v-3h-1.1h-5.4h-1.3v3h1.1l-1.2,19.6h-10.8l-1.2-19.6h1.1v-3h-1.2h-5.4h-1.2v3h1l-1.2,19.6h-4.2v8.7h-3.5v17.4h-3.5v5
		h74.9v-5H-89.1z M-147.3,472.9h-4.6v-5.8h4.6V472.9z M-133.8,472.9h-4.6v-5.8h4.6V472.9z M-120.4,472.9h-4.6v-5.8h4.6V472.9z
		 M-113,445.7v0.1c-1.9,0.8-3.3,2.7-3.3,4.9v10.5h-2.2v-8.7h-4.1l-0.6-10.1h6.6h2.9c1,0,1.9,0.8,1.9,1.9
		C-112.5,444.4-113,445-113,445.7z M-106.9,472.9h-4.6v-5.8h4.6V472.9z M-100,445.7v0.1c-1.9,0.8-3.3,2.7-3.3,4.9v10.5h-2.3v-10.5
		c0-2.2-1.4-4.1-3.3-4.9v-0.1c0-0.7-0.5-1.3-1.2-1.4c0-0.7-0.2-1.3-0.6-1.9h9.8c1,0,1.9,0.8,1.9,1.9C-99.5,444.4-100,445-100,445.7z
		 M-93.5,472.9h-4.6v-5.8h4.6V472.9z"/>
	<path d="M-146.6,421.5c0.5,0.4,0.7,0.6,0.8,0.7c0.1,0.1,0.1,0.1,0.1,0.1c0,0,0.1,0.2,0.1,0.3c0-0.1,0,0.1,0,0.1
		c0,0.2,0.1,0.4,0,0.6c-0.1,0.3-0.4,0.6-0.7,1c-0.3,0.4-0.6,0.8-0.7,1.2c-0.2,0.4-0.2,0.8-0.2,1.1c0,0.3,0.1,0.5,0.2,0.6
		c0.1,0.1,0.1,0.2,0.1,0.2s0-0.1,0.1-0.2c0.1-0.1,0.2-0.3,0.4-0.5c0.2-0.2,0.4-0.3,0.7-0.4c0.3-0.1,0.6-0.2,1.1-0.4
		c0.4-0.2,1-0.4,1.5-0.9c0.6-0.4,1.1-1.2,1.3-2c0-0.2,0.1-0.3,0.1-0.7c0-0.2,0-0.2,0-0.4c-0.1-0.5-0.2-1-0.5-1.4
		c-0.5-0.8-1.2-1.3-1.7-1.7c-0.5-0.4-0.7-0.6-0.9-0.7c-0.1-0.1-0.2-0.2-0.3-0.6c0-0.2,0-0.1,0-0.2c0,0,0-0.1,0-0.1
		c0-0.1,0-0.2,0.1-0.4c0.1-0.3,0.4-0.6,0.7-1c0.3-0.4,0.6-0.8,0.7-1.2c0.2-0.4,0.2-0.8,0.2-1.1c-0.1-0.6-0.3-0.8-0.3-0.8
		c0,0,0,0.1-0.1,0.2c-0.1,0.1-0.2,0.3-0.4,0.5c-0.4,0.4-0.9,0.6-1.8,0.9c-0.4,0.2-1,0.4-1.5,0.9c-0.3,0.2-0.6,0.5-0.8,0.9
		c-0.1,0.2-0.2,0.3-0.3,0.6c-0.1,0.2-0.2,0.5-0.2,0.6c-0.2,0.7-0.1,1.6,0.4,2.4C-147.8,420.6-147.1,421.1-146.6,421.5z"/>
	<path d="M-127.8,421.5c0.5,0.4,0.7,0.6,0.8,0.7c0.1,0.1,0.1,0.1,0.1,0.1c0,0,0.1,0.2,0.1,0.3c0-0.1,0,0.1,0,0.1
		c0,0.2,0.1,0.4,0,0.6c-0.1,0.3-0.4,0.6-0.7,1c-0.3,0.4-0.6,0.8-0.7,1.2c-0.2,0.4-0.2,0.8-0.2,1.1c0,0.3,0.1,0.5,0.2,0.6
		c0.1,0.1,0.1,0.2,0.1,0.2s0-0.1,0.1-0.2c0.1-0.1,0.2-0.3,0.4-0.5c0.2-0.2,0.4-0.3,0.7-0.4c0.3-0.1,0.6-0.2,1.1-0.4
		c0.4-0.2,1-0.4,1.5-0.9c0.6-0.4,1.1-1.2,1.3-2c0-0.2,0.1-0.3,0.1-0.7c0-0.2,0-0.2,0-0.4c-0.1-0.5-0.2-1-0.5-1.4
		c-0.5-0.8-1.2-1.3-1.7-1.7c-0.5-0.4-0.7-0.6-0.9-0.7c-0.1-0.1-0.2-0.2-0.3-0.6c0-0.2,0-0.1,0-0.2c0,0,0-0.1,0-0.1
		c0-0.1,0-0.2,0.1-0.4c0.1-0.3,0.4-0.6,0.7-1c0.3-0.4,0.6-0.8,0.7-1.2c0.2-0.4,0.2-0.8,0.2-1.1c-0.1-0.6-0.3-0.8-0.3-0.8
		c0,0,0,0.1-0.1,0.2c-0.1,0.1-0.2,0.3-0.4,0.5c-0.4,0.4-0.9,0.6-1.8,0.9c-0.4,0.2-1,0.4-1.5,0.9c-0.3,0.2-0.6,0.5-0.8,0.9
		c-0.1,0.2-0.2,0.3-0.3,0.6c-0.1,0.2-0.2,0.5-0.2,0.6c-0.2,0.7-0.1,1.6,0.4,2.4C-129,420.6-128.3,421.1-127.8,421.5z"/>
</g>
</svg>
