<?xml version="1.0" encoding="utf-8"?>
<!-- Generator: Adobe Illustrator 19.0.0, SVG Export Plug-In . SVG Version: 6.00 Build 0)  -->
<svg version="1.1" id="Capa_1" xmlns="http://www.w3.org/2000/svg" xmlns:xlink="http://www.w3.org/1999/xlink" x="0px" y="0px"
	 viewBox="-210 325.9 173.5 190" style="enable-background:new -210 325.9 173.5 190;" xml:space="preserve">
<g id="XMLID_100_">
	<path d="M-45.1,494.1h-156.3c-2,0-3.8-1-4.8-2.7s-1-3.8,0-5.5l78.1-135.4c1-1.7,2.8-2.8,4.8-2.8l0,0c2,0,3.8,1,4.8,2.7l78.2,135.4
		c1,1.7,1,3.8,0,5.5C-41.3,493-43.1,494.1-45.1,494.1z M-191.9,483.1h137.3l-68.7-118.9L-191.9,483.1z"/>
</g>
<g>
	<path d="M-96.8,417.4c-7.1-7.1-16.5-11-26.5-11s-19.4,3.9-26.5,11c-7.1,7.1-11,16.5-11,26.5s3.9,19.4,11,26.5
		c7.1,7.1,16.5,11,26.5,11s19.4-3.9,26.5-11c7.1-7.1,11-16.5,11-26.5S-89.7,424.5-96.8,417.4z M-99.9,467.3
		c-6.2,6.2-14.5,9.7-23.4,9.7s-17.1-3.4-23.4-9.7c-6.2-6.2-9.7-14.5-9.7-23.4s3.4-17.1,9.7-23.4c6.2-6.2,14.5-9.7,23.4-9.7
		s17.1,3.4,23.4,9.7c6.2,6.2,9.7,14.5,9.7,23.4S-93.6,461-99.9,467.3z"/>
	<path d="M-103.6,433.6c-3.8-7.3-11.4-11.9-19.6-11.9c-8.3,0-15.8,4.5-19.6,11.9l3.9,2c3.1-5.9,9.1-9.5,15.7-9.5
		c6.6,0,12.7,3.6,15.7,9.5L-103.6,433.6z"/>
	<path d="M-123.3,466.1c8.3,0,15.8-4.5,19.6-11.9l-3.9-2c-3.1,5.9-9.1,9.5-15.7,9.5c-6.6,0-12.7-3.6-15.7-9.5l-3.9,2
		C-139,461.5-131.5,466.1-123.3,466.1z"/>
	<g>
		<path d="M-140.8,423.1l0.6,0.6l1.5-1.4l0.8,0.9l-1.5,1.4l1,1.1l-1.2,1.1l-3.3-3.5l2.8-2.7l0.8,0.9L-140.8,423.1z"/>
		<path d="M-133.8,420.8l0.6,1l-3.4,2.1l-2.5-4.1l3.3-2.1l0.6,1l-2,1.2l0.3,0.5l1.7-1.1l0.6,1l-1.7,1.1l0.3,0.5L-133.8,420.8z"/>
		<path d="M-130,419.8l-1.7,0.6l0,0.9l-1.5,0.5l0.4-5.2l1.5-0.5l3.6,3.8l-1.6,0.6L-130,419.8z M-130.8,418.9l-0.8-1l0,1.3
			L-130.8,418.9z"/>
		<path d="M-127.5,416.4l-1.4,0.2l-0.2-1.2l4.4-0.6l0.2,1.2l-1.4,0.2l0.5,3.5l-1.6,0.2L-127.5,416.4z"/>
		<path d="M-123.3,419.1c-0.4-0.4-0.5-1-0.5-1.7l0.2-2.6l1.6,0.1l-0.2,2.6c0,0.3,0,0.6,0.1,0.8c0.1,0.2,0.3,0.3,0.5,0.3
			c0.2,0,0.4,0,0.6-0.2c0.1-0.1,0.2-0.4,0.2-0.7l0.2-2.6l1.6,0.1l-0.2,2.6c-0.1,0.7-0.3,1.3-0.7,1.6c-0.4,0.4-1,0.5-1.8,0.5
			C-122.4,419.8-122.9,419.5-123.3,419.1z"/>
		<path d="M-116.6,419.4l-0.4-0.1l-0.4,1.1l-1.5-0.5l1.4-4.6l2.2,0.7c0.4,0.1,0.8,0.3,1,0.5c0.3,0.2,0.5,0.5,0.5,0.8
			c0.1,0.3,0.1,0.6,0,1c-0.1,0.3-0.3,0.6-0.5,0.8s-0.5,0.3-0.8,0.4l0.5,1.7l-1.6-0.5L-116.6,419.4z M-115.3,417.5
			c-0.1-0.1-0.2-0.2-0.4-0.3l-0.6-0.2l-0.3,1.1l0.6,0.2c0.2,0.1,0.4,0.1,0.5,0c0.1-0.1,0.2-0.2,0.3-0.3
			C-115.2,417.8-115.2,417.6-115.3,417.5z"/>
		<path d="M-110.2,422.3l-0.6,1.1l-3.5-1.9l2.3-4.2l3.4,1.9l-0.6,1.1l-2-1.1l-0.3,0.5l1.8,1l-0.6,1l-1.8-1l-0.3,0.5L-110.2,422.3z"
			/>
		<path d="M-107.3,420l1.8,1.6c0.4,0.4,0.7,0.7,0.9,1.2c0.2,0.4,0.2,0.8,0.2,1.3c-0.1,0.4-0.3,0.8-0.6,1.2c-0.3,0.4-0.7,0.6-1.1,0.7
			c-0.4,0.1-0.8,0.1-1.3,0c-0.4-0.1-0.8-0.4-1.2-0.7l-1.8-1.6L-107.3,420z M-107.9,424.2c0.3,0.2,0.5,0.3,0.8,0.3
			c0.3,0,0.5-0.1,0.8-0.4c0.2-0.3,0.3-0.5,0.3-0.8c0-0.3-0.2-0.5-0.4-0.8l-0.5-0.4l-1.5,1.7L-107.9,424.2z"/>
	</g>
	<g>
		<path d="M-105.7,465.8l-0.6-0.6l-1.5,1.4l-0.8-0.9l1.5-1.4l-1-1.1l1.2-1.1l3.3,3.5l-2.8,2.7l-0.8-0.9L-105.7,465.8z"/>
		<path d="M-112.7,468.1l-0.6-1l3.4-2.1l2.5,4.1l-3.3,2.1l-0.6-1l2-1.2l-0.3-0.5l-1.7,1.1l-0.6-1l1.7-1.1l-0.3-0.5L-112.7,468.1z"/>
		<path d="M-116.5,469.1l1.7-0.6l0-0.9l1.5-0.5l-0.4,5.2l-1.5,0.5l-3.6-3.8l1.6-0.6L-116.5,469.1z M-115.7,470l0.8,1l0-1.3
			L-115.7,470z"/>
		<path d="M-119,472.4l1.4-0.2l0.2,1.2l-4.4,0.6l-0.2-1.2l1.4-0.2l-0.5-3.5l1.6-0.2L-119,472.4z"/>
		<path d="M-123.2,469.8c0.4,0.4,0.5,1,0.5,1.7l-0.2,2.6l-1.6-0.1l0.2-2.6c0-0.3,0-0.6-0.1-0.8s-0.3-0.3-0.5-0.3
			c-0.2,0-0.4,0-0.6,0.2c-0.1,0.1-0.2,0.4-0.2,0.7l-0.2,2.6l-1.6-0.1l0.2-2.6c0.1-0.7,0.3-1.3,0.7-1.6c0.4-0.4,1-0.5,1.8-0.5
			C-124.1,469.1-123.6,469.4-123.2,469.8z"/>
		<path d="M-129.9,469.5l0.4,0.1l0.4-1.1l1.5,0.5l-1.4,4.6l-2.2-0.7c-0.4-0.1-0.8-0.3-1-0.5s-0.5-0.5-0.5-0.8c-0.1-0.3-0.1-0.6,0-1
			c0.1-0.3,0.3-0.6,0.5-0.8s0.5-0.3,0.8-0.4l-0.5-1.7l1.6,0.5L-129.9,469.5z M-131.2,471.4c0.1,0.1,0.2,0.2,0.4,0.3l0.6,0.2l0.3-1.1
			l-0.6-0.2c-0.2-0.1-0.4-0.1-0.5,0c-0.1,0.1-0.2,0.2-0.3,0.3C-131.3,471.1-131.3,471.3-131.2,471.4z"/>
		<path d="M-136.3,466.6l0.6-1.1l3.5,1.9l-2.3,4.2l-3.4-1.9l0.6-1.1l2,1.1l0.3-0.5l-1.8-1l0.6-1l1.8,1l0.3-0.5L-136.3,466.6z"/>
		<path d="M-139.2,468.9l-1.8-1.6c-0.4-0.4-0.7-0.7-0.9-1.2c-0.2-0.4-0.2-0.8-0.2-1.3c0.1-0.4,0.3-0.8,0.6-1.2
			c0.3-0.4,0.7-0.6,1.1-0.7c0.4-0.1,0.8-0.1,1.3,0c0.4,0.1,0.8,0.4,1.2,0.7l1.8,1.6L-139.2,468.9z M-138.6,464.7
			c-0.3-0.2-0.5-0.3-0.8-0.3c-0.3,0-0.5,0.1-0.8,0.4c-0.2,0.3-0.3,0.5-0.3,0.8c0,0.3,0.2,0.5,0.4,0.8l0.5,0.4l1.5-1.7L-138.6,464.7z
			"/>
	</g>
</g>
<g transform="translate(0.000000,2400.000000) scale(0.100000,-0.100000)">
	<path d="M-1076.7,19523.3c-0.3,0.7-0.3,0.7-14.5,12.6l-4.4,3.7c0,0.1,0,0.3,0.1,0.6c1.6,11,1.7,21.9,0.6,33.3
		c-2.7,26.5-12.9,51.5-29.6,72.4c-10.7,13.4-24.3,25-39.3,33.6c-4.7,2.7-11.1,5.8-15.8,7.8c-0.4,2-1.4,6.3-2.5,11.3l-2.9,12.8
		c-0.7,2.1-1,2.1-9.1,2.1c-5.8,0-17,0-38.1,0h-44.4c-1.3,0-2.4-0.9-2.7-2.2l-0.1-0.4c0,0,0-0.1,0-0.1c0-0.2-1-5.8-2.1-12.3
		c-0.8-4.9-1.6-8.8-1.9-10.7c-0.2-0.1-0.4-0.2-0.7-0.3c-21.9-8.8-41.3-23.3-56-41.8c-15.2-19-25.1-41.6-28.6-65.3
		c-0.1-1-0.3-2-0.3-2.1c-0.7-1.7-1.3-11.3-1.3-11.4c-0.2-3.3-0.2-11.3,0-14.8c0.1-3,0.4-5.8,0.9-9.6l0.1-1.1c-1.1-1-2.4-2.2-3.7-3.4
		l-9.7-9c-4.8-4.4-4.9-4.6-4.9-4.7c-1.2-1.6-1.2-1.6,3.6-9.9l22.2-38.4c19.1-33.1,19.1-33.1,20.9-33.1c0.4,0,0.7,0,3.4,1l6,2.2
		c6.8,2.5,11.6,4.2,13.8,5c2.8-2.3,8.7-6.4,12.7-8.9c7-4.4,16.2-8.9,24.7-12.1c15.4-5.8,31.8-8.7,48.3-8.7c5.5,0,11,0.3,16.4,1
		c11.6,1.4,23.2,4.3,33.7,8.5c1.1,0.4,2.2,0.8,2.2,0.8c1.7,0.3,8.9,3.9,10.3,4.6c7.2,3.7,13.6,7.6,20.1,12.5l1.6,1.1
		c0.1,0,0.3-0.1,0.5-0.1c0.7-0.2,7-2.2,7.9-2.4c1.6-0.5,8.6-2.7,9.2-2.9c0.2-0.1,1.1-0.3,1.9-0.6l0.7-0.2c0.7-0.2,1.5-0.4,2-0.6
		c1.5-0.5,2.3-0.7,3.1-0.3c1.1,0.4,1.1,0.4,23.7,39.4c6.6,11.5,22.1,38.3,22.4,39.1C-1076.5,19521.8-1076.4,19522.6-1076.7,19523.3z
		 M-1142.6,19463.1c-0.2,0-0.4,0.1-0.4,0.1c-0.2,0.1-1,0.4-1.6,0.5l-2.6,0.8c-1.8,0.6-3,0.9-4.6-0.3l-2.3-1.8c-3-2.4-8-6-9.1-6.7
		c-0.4-0.2-1-0.5-1.8-1c-6.3-4.1-14.1-8-21.3-10.9c-12.2-4.8-24.2-7.5-38-8.6c-2.9-0.2-13.1-0.2-16,0c-17.6,1.3-32.9,5.5-48,13.1
		c-7.7,3.9-15.9,9.2-22,14.1c-0.7,0.6-1.2,1-1.5,1.1c-0.3,0.2-0.7,0.5-1.1,0.9l-1.3,1.1c-0.7,0.6-1.5,0.8-2.4,0.6l-0.7-0.1
		c-0.8-0.2-1.7-0.5-6.3-2.2c-1.3-0.5-4.3-1.6-6.7-2.5l-6.8-2.5c-0.1,0-0.1,0-0.2-0.1c-2.4,4-8.5,14.5-17.5,30.2l-17.5,30.2
		c0.5,0.4,1,1,1.6,1.5l5.4,5.1c0.7,0.7,1.6,1.5,2,1.8l1.3,1.2c0.9,0.9,3.5,3.3,4.1,3.8l2.1,2c0.7,0.7,1,1.6,0.8,2.5l-0.2,1
		c-0.6,3.3-1.4,9.8-1.4,12.3c0,0.8,0,2.5-0.1,4.4l0,2.2c-0.1,7.2,0.3,14.1,1.3,21.1c5.2,34.6,24.9,65.5,53.9,84.9
		c8.4,5.7,18.1,10.5,27.2,13.7c1.8,0.6,3.1,1.1,3.5,3c0.1,0.3,0.2,0.9,2.8,15.5c0.4,2.1,0.7,4.1,1,5.5h34.9c21.6,0,31.4,0,35-0.1
		c0.9-3.9,3-12.7,3.9-16.6l1.1-4.8c0.4-1.8,1.6-2.3,4.4-3.3c5.4-2.1,11.6-5,16-7.4c14.3-7.9,26.6-18.3,36.7-30.9
		c15.7-19.5,25.1-43.1,27.1-68.1c0.4-5.4,0.5-15.1,0.1-19.5c-0.4-4.3-1-9.4-1.8-13.7l-0.1-0.9c-0.1-0.9,0.1-1.8,0.8-2.5l0.7-0.6
		c0.4-0.3,1.3-1.1,2-1.7c0.6-0.5,1.1-0.9,1.2-1c0.1-0.1,0.9-0.8,1.8-1.5l2.7-2.2c0.7-0.6,2.8-2.4,4.8-4.1l1.6-1.3
		c0.8-0.7,1.5-1.2,2-1.6l-17.5-30.4c-9.2-15.9-15.2-26.2-17.5-30.1c-0.1,0-0.2,0.1-0.4,0.1c-1.3,0.4-2.5,0.8-2.8,0.8
		c-0.6,0.1-6.1,1.8-7.2,2.2c-0.4,0.1-1.3,0.4-2.1,0.7c-0.6,0.2-1.1,0.4-1.2,0.4l0,0C-1141.5,19462.7-1142.1,19463-1142.6,19463.1z"
		/>
	<path d="M-1237.9,19656v-7.1l-0.6-0.1c-0.3,0-1.9-0.2-3.5-0.4c-14-1.4-28.1-6.5-40.2-14.5c-9.6-6.4-18.3-15.1-24.7-24.7
		c-4.3-6.5-8.1-14.3-10.5-21.6c-6.7-20.2-6-41.9,1.9-61.5c0.6-1.4,1.5-3.5,2.1-4.9c0.6-1.3,1.1-2.4,1.1-2.5c0,0-3-1.8-6.8-4
		c-3.7-2.1-6.8-3.9-6.9-4.1c-0.2-0.1,0.1-0.8,2.5-4.9c1.5-2.6,2.8-4.7,2.8-4.7s3.2,1.8,7,4s6.9,4,7,4c0,0,0.7-0.8,1.4-1.8
		c6.1-8.5,14.2-16.4,23-22.2c6.5-4.3,14.3-8.1,21.6-10.5c18.4-6.1,37.9-6.1,56.3,0c7.3,2.4,15.1,6.2,21.6,10.5
		c8.9,5.9,16.9,13.7,23.2,22.5c0.8,1.1,1.5,2.1,1.6,2.1c0,0,3.1-1.8,6.8-3.9c3.7-2.2,6.9-4,7-4c0.1-0.1,0.8,1,2.9,4.6
		c2.4,4.2,2.7,4.7,2.5,4.9c-0.1,0.1-3.2,1.9-7,4.1c-3.7,2.1-6.7,4-6.7,4s0.4,1,1,2.2c7.6,15.9,10.3,35.1,7.2,52.9
		c-2.1,12.4-6.9,24.4-13.8,34.9c-5.5,8.3-12.6,15.8-20.7,21.9c-4.5,3.4-8.5,5.8-13.8,8.5c-9.7,4.9-20,7.9-30.4,8.9
		c-1.6,0.1-3.1,0.3-3.5,0.4l-0.6,0.1v7.1v7.1h-5.5h-5.5L-1237.9,19656L-1237.9,19656L-1237.9,19656z M-1237.9,19616.4v-16h-6.3
		c-3.7,0-6.2,0-6.2-0.1c0.1-0.4,18.2-35.4,18.3-35.4c0,0,18.1,35,18.3,35.4c0,0.1-2.7,0.1-6.5,0.1h-6.6v16v16h0.6c2,0,7.8-1,11.7-2
		c5.2-1.3,9.4-2.8,14.5-5.4c5.6-2.7,10-5.6,14.9-9.6c2.1-1.7,7.5-7.2,9.3-9.5c2.7-3.3,5.2-6.9,7.2-10.6c1.1-2,3.4-6.6,4.2-8.8
		c6.3-16,6.9-33.8,1.5-50c-1.2-3.7-3.4-9-3.7-9c-0.1,0-25.4,14.6-25.7,14.8c-0.1,0.1,0.3,1,2.8,5.5c1.7,2.9,3.1,5.3,3.1,5.4
		c0,0.1,0.1,0.1-3.2,0.3c-1.3,0.1-2.5,0.1-2.6,0.1c-0.1,0-1.4,0.1-2.8,0.1s-2.8,0.1-3.2,0.1c-0.4,0-1.6,0.1-2.8,0.1
		c-1.1,0-2.3,0.1-2.7,0.1c-0.3,0-1.7,0.1-3,0.1c-1.3,0-2.6,0.1-2.9,0.1c-0.3,0-1.5,0.1-2.8,0.1c-1.3,0-2.6,0.1-2.8,0.1
		s-1.7,0.1-3.1,0.1c-1.4,0-2.7,0.1-2.8,0.1c-0.5,0.1-5.1,0.2-5.1,0.1s3.9-6.2,8.7-13.6c4.8-7.4,9.6-15,10.8-16.7
		c1.8-2.9,2.1-3.2,2.3-3c0.1,0.1,1.6,2.7,3.3,5.6l3.1,5.4l0.4-0.3c0.2-0.1,6.1-3.5,12.9-7.5c6.9-4,12.5-7.3,12.5-7.3
		c0-0.2-2-3-3.7-5c-1.7-2.1-7.2-7.6-9.2-9.3c-3-2.5-6.4-4.9-9.7-6.9c-2.3-1.4-7.9-4.1-10.4-5.1c-17.4-6.9-36.6-6.9-54,0
		c-2.6,1-8.1,3.7-10.4,5.1c-3.3,2-6.7,4.4-9.7,6.9c-2,1.6-7.2,6.9-8.9,8.9c-1.6,1.9-3.8,4.8-3.7,4.9c0,0,5.6,3.3,12.5,7.2
		c6.9,3.9,12.7,7.3,12.9,7.5l0.4,0.3l3-5.2c1.7-2.9,3.1-5.3,3.2-5.5c0.1-0.2,0.3-0.1,1,1.1c0.5,0.7,1.7,2.7,2.7,4.2
		c1,1.6,2.5,4,3.4,5.3c1.5,2.3,6.2,9.6,7.4,11.6c0.3,0.5,1.7,2.7,3.1,4.8c1.4,2.2,2.8,4.4,3.2,5.1s0.7,1.2,0.7,1.3
		c0,0.1-0.3,0.1-1.1,0.1c-0.6,0-1.9-0.1-2.9-0.1c-1,0-2.3-0.1-2.9-0.1c-1.1-0.1-3-0.1-5.8-0.3c-1,0-2.2-0.1-2.8-0.1
		c-0.6,0-1.8-0.1-2.8-0.1c-1.7-0.1-3.3-0.1-5.8-0.3c-0.7,0-2.7-0.1-4.4-0.2c-1.7-0.1-3.6-0.1-4.4-0.2c-0.7,0-2-0.1-2.7-0.1
		c-3.4-0.1-4.4-0.3-4.4-0.3c0,0,1.4-2.6,3.2-5.7l3.2-5.6l-0.4-0.2c-1.2-0.8-25.5-14.7-25.6-14.7c-0.1,0-1.4,2.7-2.4,5.2
		c-4,9.9-5.8,21.2-5.2,31.8c0.8,12.2,4.5,23.8,11,34.3c1.4,2.3,3.6,5.3,5.5,7.6c1.8,2.2,7.2,7.8,9.3,9.5c4.8,4,9.3,6.9,14.9,9.6
		c5.1,2.5,9.3,4.1,14.5,5.4c4,1,9.3,1.9,11.5,1.9h0.8V19616.4L-1237.9,19616.4z"/>
</g>
</svg>
