<?xml version="1.0" encoding="utf-8"?>
<!-- Generator: Adobe Illustrator 19.0.0, SVG Export Plug-In . SVG Version: 6.00 Build 0)  -->
<svg version="1.1" id="Capa_1" xmlns="http://www.w3.org/2000/svg" xmlns:xlink="http://www.w3.org/1999/xlink" x="0px" y="0px"
	 viewBox="-210 325.9 173.5 190" style="enable-background:new -210 325.9 173.5 190;" xml:space="preserve">
<g id="XMLID_100_">
	<path d="M-45.1,494.1h-156.3c-2,0-3.8-1-4.8-2.7s-1-3.8,0-5.5l78.1-135.4c1-1.7,2.8-2.8,4.8-2.8l0,0c2,0,3.8,1,4.8,2.7l78.2,135.4
		c1,1.7,1,3.8,0,5.5C-41.3,493-43.1,494.1-45.1,494.1z M-191.9,483.1h137.3l-68.7-118.9L-191.9,483.1z"/>
</g>
<g>
	<path d="M-100.1,416.7c-0.6-1.9-2.7,0.6-3.2,1.2c-1.5,1.8-1.8,1.7-4.1,2c-2.4,0.2-2.7-0.9-4.4-2.6c-1.7-1.8-2.8-1-2.5,1.5
		c0.3,2,0.9,3.9,1.5,5.8c0.7,2.6,2.1,3.2-0.6,4.7c-2.2,1.2-6.5,0.5-9,0.6c-7.9,0.4-14.2,0.3-20.5,5.7c-3.2,2.7-5.5,4.8-9.6,6.4
		c-1.8,0.7-3.5,0.9-5.5,0.8c-0.9,0-4-1.2-4.5-0.6c-1.4,1.3,3.7,2.8,4.5,2.9c2.2,0.2,4.8,0.2,6.9-0.4c2.5-0.7,5.1-1.9,7.3-3.4
		c0.4-0.3,2.1-2,2.6-1.9c0.9-0.8,1.2,1.3,1.6,1.8c1.1,1.7,1.9,3.4,0.6,5.2c-1.6,2.3-1.1,4.3-0.7,6.9c1,1.5-0.2,4.6,1.4,5.8
		c1.4,1,5.7-0.1,3.5-2.2c2.8,2.1,5.4-2.1,2.6-1.9c-2,0.2-2.8-4-1.5-5.1c1.4-1.2,3.7-2.1,5.3-3.1c1.9-1.2,3.7-2,6-1.7
		c1.6,0.2,4.6-0.8,6,0.2c1.5,0.2,2.1,5.1,2.5,6.3c1,3.3,1.2,10,5.2,10c1.1,0,1.1-1,1.7-1.2c1,0.7,3.2-0.1,3-1.5
		c-0.2-1.8-2.6-0.9-2.6-3.9c0-2.1,0.2-4.2,0.3-6.3c0.1-2.5,1.1-4,1.8-6.4c0.7-2.2,1.3-4.3,1.5-6.5c0.2-2.4,0-4.9,0.5-7.3
		C-101,426.1-99.5,419.2-100.1,416.7z M-136.1,456.5c-0.5-1.2-0.8-2.4-0.8-3.7c0.4,1.1,0.9,3,1.8,3.7
		C-135.4,456.4-135.7,456.4-136.1,456.5z M-109.4,456c0-2.3-1.2-4.8-0.7-7c0.3,3.1,0.9,6.1,1.4,9.1
		C-109.2,457.6-109.4,456.7-109.4,456z"/>
</g>
</svg>
