<?xml version="1.0" encoding="utf-8"?>
<!-- Generator: Adobe Illustrator 19.0.0, SVG Export Plug-In . SVG Version: 6.00 Build 0)  -->
<svg version="1.1" id="Capa_1" xmlns="http://www.w3.org/2000/svg" xmlns:xlink="http://www.w3.org/1999/xlink" x="0px" y="0px"
	 viewBox="-210 325.9 173.5 190" style="enable-background:new -210 325.9 173.5 190;" xml:space="preserve">
<style type="text/css">
	.st0{fill:none;}
</style>
<g>
	<polygon class="st0" points="-103.7,413.1 -103.7,421.6 -123.3,435.8 -142.8,421.6 -142.8,413.1 	"/>
	<polygon class="st0" points="-116,409.6 -130.5,409.6 -123.3,405.4 	"/>
	<path d="M-96,416.2l-7.7-23.6l28.7-41.9l-35,36.8h-26.6l-35-36.8l28.7,41.9l-7.7,23.6l-45,25.9l47-17.8l21.2,15.4l4,51.5l0,0l0,0
		l4-51.5l21.2-15.4l47,17.8L-96,416.2z M-123.3,439.1l-25.7-18.7l9.9-30.4h31.7l9.9,30.4L-123.3,439.1z"/>
	<path d="M-108.6,392.2h-29.3l-9.1,28.1l23.8,17.3l23.8-17.3L-108.6,392.2z M-131.9,393.6h17.4l8.2,11.7l-16.9-4.3l-16.9,4.3
		L-131.9,393.6z M-116,409.6h-14.5l7.3-4.2L-116,409.6z M-123.3,435.8l-19.5-14.2v-8.5h39.1v8.5L-123.3,435.8z"/>
</g>
</svg>
