<?xml version="1.0" encoding="utf-8"?>
<!-- Generator: Adobe Illustrator 19.0.0, SVG Export Plug-In . SVG Version: 6.00 Build 0)  -->
<svg version="1.1" id="Capa_1" xmlns="http://www.w3.org/2000/svg" xmlns:xlink="http://www.w3.org/1999/xlink" x="0px" y="0px"
	 viewBox="-210 325.9 173.5 190" style="enable-background:new -210 325.9 173.5 190;" xml:space="preserve">
<g id="XMLID_100_">
	<path d="M-45.1,494.1h-156.3c-2,0-3.8-1-4.8-2.7s-1-3.8,0-5.5l78.1-135.4c1-1.7,2.8-2.8,4.8-2.8l0,0c2,0,3.8,1,4.8,2.7l78.2,135.4
		c1,1.7,1,3.8,0,5.5C-41.3,493-43.1,494.1-45.1,494.1z M-191.9,483.1h137.3l-68.7-118.9L-191.9,483.1z"/>
</g>
<path d="M-95.1,445.3c-0.9-11.3-6.1-18.3-10.7-24.6c-4.3-5.8-8-10.8-8-18.1c0-0.6-0.3-1.1-0.9-1.4c-0.5-0.3-1.2-0.2-1.6,0.1
	c-7,5-12.8,13.4-14.8,21.4c-1.4,5.6-1.6,11.8-1.6,16c-6.4-1.4-7.9-11-7.9-11.1c-0.1-0.5-0.4-0.9-0.8-1.2c-0.4-0.2-1-0.3-1.4,0
	c-0.3,0.2-8.3,4.2-8.7,20.3c0,0.5,0,1.1,0,1.6c0,15.6,12.7,28.3,28.3,28.3c0,0,0,0,0.1,0c0,0,0,0,0,0c15.6,0,28.3-12.7,28.3-28.3
	C-94.9,447.5-95.1,445.3-95.1,445.3z M-132.7,463.5c0-0.2,0-0.4,0-0.6c0.1-2.3,0.5-3.9,1-5c0.9,2,2.5,3.8,5.2,3.8
	c0.9,0,1.6-0.7,1.6-1.6c0-2.2,0-4.8,0.6-7.2c0.5-2.1,1.7-4.3,3.2-6c0.7,2.3,2,4.1,3.2,6c1.8,2.6,3.7,5.3,4,9.8c0,0.3,0,0.5,0,0.8
	c0,5.5-4.2,10.1-9.4,10.1C-128.5,473.5-132.7,469-132.7,463.5z"/>
</svg>
