<?xml version="1.0" encoding="utf-8"?>
<!-- Generator: Adobe Illustrator 19.0.0, SVG Export Plug-In . SVG Version: 6.00 Build 0)  -->
<svg version="1.1" id="Capa_1" xmlns="http://www.w3.org/2000/svg" xmlns:xlink="http://www.w3.org/1999/xlink" x="0px" y="0px"
	 viewBox="-210 325.9 173.5 190" style="enable-background:new -210 325.9 173.5 190;" xml:space="preserve">
<g id="XMLID_100_">
	<path d="M-45.1,494.1h-156.3c-2,0-3.8-1-4.8-2.7s-1-3.8,0-5.5l78.1-135.4c1-1.7,2.8-2.8,4.8-2.8l0,0c2,0,3.8,1,4.8,2.7l78.2,135.4
		c1,1.7,1,3.8,0,5.5C-41.3,493-43.1,494.1-45.1,494.1z M-191.9,483.1h137.3l-68.7-118.9L-191.9,483.1z"/>
</g>
<g>
	<path d="M-153.5,465.9l13.8,5.2c0.1,0,0.5,0.1,0.6,0.1c0.1,0,0.1,0,0.2,0l20.8-4.4c2,2.8,5.3,4.5,9.1,4.5c6.3,0,11-4.5,11-10.4
		c0-0.3-0.1-0.7-0.1-1c0-0.1,0-0.1,0-0.2v-8.8c0-6.6-1.1-11.7-2.2-17.1c-1.1-5.5-2.3-11.1-2.6-19h0.6h0.8c0.6,0,1-0.5,1-1v-1.1
		c0-2.1-1.7-3.8-3.8-3.8h-10.6c-2.1,0-3.8,1.7-3.8,3.8v1.1c0,0.6,0.5,1,1,1h1h0.6c-0.2,6.4-1,11.4-2,16.2l-3.6-4.4v-6
		c0-0.5-0.2-1-0.6-1.3c-0.4-0.3-0.9-0.5-1.3-0.4l-18.5,2.3c-0.9,0.1-1.5,0.8-1.5,1.7v6.5l-10.2,6.6c0,0,0,0,0,0c0,0,0,0,0,0l0,0
		c-0.2,0.1-0.3,0.2-0.3,0.4c-0.2,0.3-0.4,0.6-0.4,1v27C-154.6,465-154.1,465.6-153.5,465.9z M-119.1,464.8l-19.1,4.1l0.1-26.2
		l22.9-4.9v14.1c-2.9,2-4.6,5.4-4.6,9C-119.9,462.2-119.6,463.5-119.1,464.8z M-108.9,469c-3.3,0-6.1-1.5-7.7-4
		c-0.8-1.3-1.2-2.7-1.2-4.3c0-3.3,1.8-6.3,4.8-7.9c1.3-0.7,2.7-1,4.1-1c4.9,0,8.9,4,8.9,8.9C-100,465.5-103.9,469-108.9,469z
		 M-102.7,446.2c0.1,0,0.3,0,0.4,0c-0.1,1.5-1.7,2.6-4.5,3.3c0-0.6,0.1-1.4,0.5-2.1C-105.7,446.6-104.5,446.2-102.7,446.2z
		 M-100.1,450.8v3.5c-1.1-1.5-2.5-2.6-4.1-3.4c2.8-1.1,3.7-2.7,4-4.1C-100.2,448-100.1,449.4-100.1,450.8z M-116.5,412.5
		L-116.5,412.5c0-1,0.8-1.8,1.7-1.8h10.6c0.9,0,1.7,0.8,1.7,1.7L-116.5,412.5z M-113.9,414.6h9c0.2,8.1,1.5,13.9,2.6,19.5
		c0.7,3.4,1.4,6.8,1.8,10.5c-0.2-0.2-0.4-0.3-0.7-0.4c-0.3,0-0.5,0-0.7,0c-0.7-6.2-3.1-10.5-3.2-10.6c-0.2-0.3-0.5-0.5-0.9-0.5h-6.9
		c-0.4,0-0.7,0.2-0.9,0.5c-0.3,0.5-0.5,0.9-0.8,1.4l-1.7-2.1C-115.2,427.5-114.1,422-113.9,414.6z M-123.1,428l6.6,7.9l-21.9,4.7
		l-2.8-9.9L-123.1,428z M-141.5,423l17.8-2.2v5.1l-17.8,2.6V423z M-143.2,431.4l2.4,8.6l-9.9-3.8L-143.2,431.4z M-152.5,448
		l12.2,4.1l0,7.2l-12.2-4.3C-152.5,455-152.5,448-152.5,448z"/>
	<path d="M-121.8,445l-10.5,2.2c0,0-0.1,0-0.1,0c-0.1,0-0.1,0-0.2,0.1c-0.1,0-0.1,0.1-0.2,0.1c-0.1,0-0.1,0.1-0.1,0.1
		c0,0.1-0.1,0.1-0.1,0.2c0,0.1-0.1,0.1-0.1,0.2c0,0.1,0,0.1,0,0.2c0,0,0,0.1,0,0.1l0,12.3c0,0,0,0,0,0c0,0.1,0,0.1,0,0.2
		c0,0.1,0,0.1,0,0.2c0,0.1,0.1,0.1,0.1,0.2c0,0.1,0.1,0.1,0.1,0.2c0,0,0.1,0.1,0.1,0.1c0.1,0,0.1,0.1,0.2,0.1c0,0,0,0,0,0
		c0.1,0,0.3,0.1,0.4,0.1c0.1,0,0.1,0,0.2,0l10.6-2.3c0.6-0.1,1.1-0.7,1.1-1.3v-11.8c0-0.4-0.2-0.8-0.5-1
		C-121,445-121.5,444.9-121.8,445z M-122.3,457.4l-8.8,1.9l0-10.2l8.8-1.9C-122.3,447.2-122.3,457.4-122.3,457.4z"/>
</g>
</svg>
