<?xml version="1.0" encoding="utf-8"?>
<!-- Generator: Adobe Illustrator 19.0.0, SVG Export Plug-In . SVG Version: 6.00 Build 0)  -->
<svg version="1.1" id="Capa_1" xmlns="http://www.w3.org/2000/svg" xmlns:xlink="http://www.w3.org/1999/xlink" x="0px" y="0px"
	 viewBox="-210 325.9 173.5 190" style="enable-background:new -210 325.9 173.5 190;" xml:space="preserve">
<g id="XMLID_100_">
	<path d="M-45.1,494.1h-156.3c-2,0-3.8-1-4.8-2.7s-1-3.8,0-5.5l78.1-135.4c1-1.7,2.8-2.8,4.8-2.8l0,0c2,0,3.8,1,4.8,2.7l78.2,135.4
		c1,1.7,1,3.8,0,5.5C-41.3,493-43.1,494.1-45.1,494.1z M-191.9,483.1h137.3l-68.7-118.9L-191.9,483.1z"/>
</g>
<path d="M-87.2,430.2c-0.3,0-7.1,0.2-12.9,2.8c-5.6,2.5-8.1,2.5-10.1,2.4c-0.1,0-0.2,0-0.3,0.1c-0.4-0.3-0.8-0.6-1.3-0.8
	c6.4-9.2,13.8-13.8,13.9-13.8c0.3-0.2,0.4-0.6,0.2-0.9c-0.2-0.3-0.6-0.4-0.9-0.2c-0.3,0.2-7.9,4.8-14.4,14.4
	c-0.3-0.1-0.5-0.2-0.8-0.3c-3.8-1.1-7.6,0.2-8.3,2.9c-0.2,0.8-0.2,1.6,0.1,2.4c-1.5-1.2-3.9-1.7-6.7-1.4c-0.2-0.7-0.5-1.5-0.7-2.3
	c-0.4-1.2-0.6-1.8-0.7-2c-0.1-0.2-0.1-0.3-0.2-0.5c-0.1-0.4-0.3-0.9-0.8-1c-0.6-0.1-1,0.5-1.6,1.4c-0.8,1.3-1.3,4.3-1.6,6.4
	c-0.6,0.4-1.2,0.9-1.6,1.4l-4.8-5.6l-0.1-0.1c-0.6-0.4-1.2-0.5-1.7-0.3c-0.5,0.2-0.7,0.7-0.7,0.9l-4.4,7.8c-2-1.5-3.3-2.3-3.8-2.3
	c-0.4,0-1.1,0-15.2,17.5c0,0-2.4,4.1-8.9,3.5c-0.4,0-0.7,0.2-0.7,0.6c0,0.4,0.2,0.7,0.6,0.7c0.5,0,1,0.1,1.4,0.1
	c6.2,0,8.6-4.1,8.6-4.2c4.8-6,12.7-15.6,14.2-16.9c0.5,0.2,1.7,1.1,3.1,2.1l-1.2,2.2c-3.5,3.1-6,7.4-6,10.6l-0.6,1.1
	c0,0-0.7,2.1-4.3,1.3c-0.3-0.1-0.7,0.1-0.8,0.5c-0.1,0.3,0.1,0.7,0.5,0.8c0.7,0.1,1.3,0.2,1.8,0.2c2.3,0,3.4-1.2,3.8-1.9
	c0.1,0.3,0.2,0.5,0.4,0.7c2.4,3.2,9.9,1.2,15-2.7c2.5-1.9,4.3-4.2,5.2-6.4c0.8,4.1,1.8,10.6,2.5,16.8l0.1,0.2
	c0.4,0.8,1.9,3.6,2.9,4.1c0.1,0.1,0.2,0.1,0.3,0.1c0.2,0,0.4-0.1,0.6-0.3c0.2-0.3,0.1-0.7-0.3-0.9c-0.4-0.2-1.5-2-2.3-3.5
	c-0.6-4.8-1.9-14.5-3.1-19.2c0.1-0.5,0.1-0.9,0-1.4c0.8,0.3,1.7,0.5,2.7,0.6c0.1,0.1,0.3,0.1,0.5,0c0.8,0,1.6,0,2.4-0.1
	c1.6,3.4,4.4,9.3,5,11c0.1,0.2,0.1,0.4,0.2,0.6c0.6,2.1,1.3,2.8,5.2,2.8c0.7,0,1.5,0,2.5-0.1c0.4,0,0.6-0.3,0.6-0.7
	c0-0.4-0.3-0.7-0.7-0.6c-5.8,0.3-5.9-0.2-6.4-1.8c-0.1-0.2-0.1-0.4-0.2-0.7c-0.6-1.7-3.2-7.4-4.9-10.8c0.2-0.1,0.5-0.1,0.7-0.2
	c0.4,0.7,0.8,1.1,1.1,1.3c0.1,0.1,0.3,0.1,0.4,0.1c0.1,0,0.3,0,0.4-0.1c0.5-0.2,0.8-0.3,0.9-0.4c0.2,0,0.4,0,0.5-0.2l0.4-0.4
	l-0.3-0.5c-0.3-0.5-0.9-0.3-1.9,0.2c-0.1-0.1-0.2-0.3-0.4-0.5c1.1-0.5,2.1-1.1,2.8-1.7c2.6-0.4,4.7-0.6,5.1-0.4
	c0.2,0.1,0.3,0.1,0.4,0.1c0,0.2-0.1,0.4,0,0.7c0.1,0.5,4.1,12.3,6.7,13.7c0.9,0.5,1.6,0.7,2.3,0.7c0.6,0,1.1-0.1,1.6-0.3
	c0.5-0.1,1-0.3,1.7-0.3c0.4,0,0.6-0.3,0.6-0.7c0-0.4-0.4-0.6-0.7-0.6c-0.8,0.1-1.4,0.2-1.9,0.4c-1,0.3-1.6,0.4-2.8-0.3
	c-1.9-1.1-5.9-11.7-6.1-12.9c0-0.1,0-0.2,0-0.3c0.3-1-0.6-1.3-1.3-1.5c-0.6-0.2-2.4-0.1-4.4,0.2c0.4-0.8,0.6-1.6,0.5-2.4
	c0,0,0,0,0-0.1c1,1,2.4,1.8,4.1,2.3c0.3,0.1,2.3,0.3,5.1,0c2.1-0.2,2.4-2.2,5.1-2l-1.3-0.7l1.8-0.3l-1.5-0.9c-0.9-0.9-0.4-0.7-1-1.5
	c-0.2-0.5-0.5-1.1-0.9-1.6c0.1,0,0.2,0,0.3,0c2,0,4.6-0.4,9.4-2.5c5.6-2.5,12.4-2.7,12.4-2.7c0.4,0,0.6-0.3,0.6-0.7
	C-86.5,430.5-86.8,430.3-87.2,430.2z M-131.6,434c0.1-0.1,0.2-0.3,0.2-0.4c0,0.1,0.1,0.2,0.1,0.3c0.1,0.2,0.3,1,0.6,1.9
	c0.2,0.7,0.5,1.4,0.7,2.1c-1.1,0.2-2,0.6-2.9,1C-132.5,437-132.1,434.9-131.6,434z M-142,436.7l0.1-0.3c0,0,0.1,0,0.4,0.1l5,5.8
	c-0.2,0.4-0.3,0.7-0.3,1.1c-2.5-1-6-0.4-9.4,1.5c-0.1-0.1-0.2-0.2-0.3-0.2L-142,436.7z"/>
</svg>
