<?xml version="1.0" encoding="utf-8"?>
<!-- Generator: Adobe Illustrator 19.0.0, SVG Export Plug-In . SVG Version: 6.00 Build 0)  -->
<svg version="1.1" id="Capa_1" xmlns="http://www.w3.org/2000/svg" xmlns:xlink="http://www.w3.org/1999/xlink" x="0px" y="0px"
	 viewBox="-210 325.9 173.5 190" style="enable-background:new -210 325.9 173.5 190;" xml:space="preserve">
<g id="XMLID_100_">
	<path d="M-45.1,494.1h-156.3c-2,0-3.8-1-4.8-2.7s-1-3.8,0-5.5l78.1-135.4c1-1.7,2.8-2.8,4.8-2.8l0,0c2,0,3.8,1,4.8,2.7l78.2,135.4
		c1,1.7,1,3.8,0,5.5C-41.3,493-43.1,494.1-45.1,494.1z M-191.9,483.1h137.3l-68.7-118.9L-191.9,483.1z"/>
</g>
<path d="M-123.3,401.9c-18.4,0-33.3,14.9-33.3,33.3c0,9.2,3.7,17.5,9.8,23.6l23.6,23.1l23.6-23.1c6-6,9.8-14.4,9.8-23.6
	C-89.9,416.8-104.8,401.9-123.3,401.9z M-104.4,454.1l-18.9,18.5l-18.9-18.5c-5-5-7.8-11.7-7.8-18.8c0-14.7,12-26.7,26.7-26.7
	c7.1,0,13.8,2.8,18.9,7.8c5,5,7.8,11.7,7.8,18.8C-96.6,442.3-99.4,449-104.4,454.1z"/>
<polygon points="-123.3,418.6 -139.9,435.2 -134.9,435.2 -134.9,448.6 -126.6,448.6 -126.6,438.6 -119.9,438.6 -119.9,448.6 
	-111.6,448.6 -111.6,435.2 -106.6,435.2 "/>
</svg>
