<?xml version="1.0" encoding="utf-8"?>
<!-- Generator: Adobe Illustrator 19.0.0, SVG Export Plug-In . SVG Version: 6.00 Build 0)  -->
<svg version="1.1" id="Capa_1" xmlns="http://www.w3.org/2000/svg" xmlns:xlink="http://www.w3.org/1999/xlink" x="0px" y="0px"
	 viewBox="-210 325.9 173.5 190" style="enable-background:new -210 325.9 173.5 190;" xml:space="preserve">
<g id="XMLID_100_">
	<path d="M-45.1,494.1h-156.3c-2,0-3.8-1-4.8-2.7s-1-3.8,0-5.5l78.1-135.4c1-1.7,2.8-2.8,4.8-2.8l0,0c2,0,3.8,1,4.8,2.7l78.2,135.4
		c1,1.7,1,3.8,0,5.5C-41.3,493-43.1,494.1-45.1,494.1z M-191.9,483.1h137.3l-68.7-118.9L-191.9,483.1z"/>
</g>
<path d="M-93.8,471.8c-2.6-0.4-4.3-3.3-5.2-5.3c0.9-1.2,1.4-2.8,1.4-4.9c0-1.9-1.3-4.1-2.8-6.5c-1.1-1.8-2.2-3.6-2.5-5l-0.3-2.5
	c1.4-0.1,2.7-0.2,3.8-0.4c3.4-0.6,5.1-2,5.1-4.2c0-2.1-1.7-4.3-4.8-5.9c-2.9-1.6-6.6-2.4-10.4-2.4c-2,0-3.9,0.2-5.8,0.7v-3.6
	c4.4-0.2,8-0.7,10.8-1.4c5.5-1.4,8.3-3.8,8.3-7.2c0-3.5-3-7.4-7.9-10.6c-5.3-3.4-11.8-5.3-18.4-5.3s-13.1,1.9-18.4,5.3
	c-5,3.2-7.9,7.1-7.9,10.6c0,3.4,2.8,5.8,8.3,7.2c2.4,0.6,5.3,1,8.9,1.3c-0.7,2.1-1.4,4.6-2.2,7.2c-0.6-0.8-1.4-1.5-2.3-2.1
	c-2.6-2-5.9-3-9.1-3c-3.3,0-6.5,1.1-9.1,3c-2.5,1.9-4,4.2-4,6.3c0,3.1,1.4,5.3,4.3,6.5c1.3,0.5,2.7,0.8,4.3,1v0.4
	c-0.1,2-1.3,4-2.4,6c-1.1,2-2.2,3.9-2.2,5.7c0,1.7,0.5,3.1,1.4,4.2c-0.9,1.9-2.9,4.1-6,5.1c-0.6,0.2-1,0.8-0.9,1.4
	c0.1,0.6,0.6,1.1,1.3,1.1H-94c0.7,0,1.3-0.5,1.3-1.2C-92.7,472.5-93.2,471.9-93.8,471.8z M-102.7,456.5c1.1,1.8,2.4,3.9,2.4,5.1
	c0,1.7-0.4,2.9-1.1,3.7c-1.2,1.2-3.6,1.3-6.1,1.3c1-1.9,1.5-4.1,1.5-6.4c0-3.3-2.1-6.3-4.3-9.5c-0.7-1-1.3-2-2-3c0.9,0,1.8,0,2.8,0
	c1.3,0,2.5,0,3.6,0l0.3,2.8c0,0,0,0.1,0,0.1C-105.2,452.4-103.9,454.5-102.7,456.5z M-109.5,437.4c3.3,0,6.7,0.8,9.2,2.1
	c2,1.1,3.4,2.5,3.4,3.5c0,2.1-7.6,2.1-12.6,2.1c-1.3,0-2.8,0-4.3,0c-0.9-1.8-1.5-3.7-1.5-5.8v-1.1
	C-113.4,437.6-111.5,437.4-109.5,437.4z M-139.8,427.9c-4.2-1-6.3-2.6-6.3-4.7c0-0.4,0.1-0.8,0.2-1.3c-0.1,0.3,2.2,1.3,2.4,1.3
	c2.3,0.9,5.4,1.6,9.6,2c3.3,0.3,7.1,0.5,11.5,0.5c3,0,6.8,0,10-0.4c0.7-0.1,1.2-0.7,1.2-1.4c-0.1-0.7-0.6-1.2-1.3-1.2
	c0,0-0.1,0-0.1,0c-2.4,0.3-5.4,0.4-9.7,0.4h0c-4,0-9.8-0.2-14.6-0.9c-2.4-0.4-5.8-0.9-7.6-2.7c1.2-1.6,3-3.3,5.3-4.7
	c4.9-3.1,10.9-4.9,17-4.9c6.1,0,12.1,1.7,17,4.9c4.1,2.6,6.7,5.9,6.7,8.4c0,2.1-2.1,3.6-6.3,4.7c-4,1-9.7,1.5-17.4,1.5
	S-135.9,428.9-139.8,427.9z M-155.6,443c0-2.3,4.4-6.7,10.5-6.7c5.5,0,9.6,3.6,10.4,6c-0.4,1.4-0.8,2.7-1.2,4.1
	c-1,0.8-2.5,1.3-4.6,1.5v-3.5c0.3,0.1,0.6,0.2,0.8,0.4c0.6,0.3,1.4,0,1.7-0.6c0.3-0.7,0-1.4-0.6-1.7c-2.1-1-4.3-1.5-6.5-1.5
	c-2.2,0-4.4,0.5-6.5,1.5c-0.7,0.3-0.9,1.1-0.6,1.7c0.3,0.7,1.1,0.9,1.7,0.6c0.3-0.1,0.5-0.2,0.8-0.3v3.5
	C-154,447.3-155.6,445.9-155.6,443z M-136.8,449.9c-0.7,2.5-1.2,4.8-1.6,6.7c-1.1-1.9-2.1-3.8-2.1-5.6v-0.4
	C-139.2,450.5-138,450.2-136.8,449.9z M-149.8,458.2c1.2-2.1,2.6-4.6,2.7-7.1c0,0,0-0.1,0-0.1v-7.3c1.3-0.2,2.6-0.2,3.9,0v7.3
	c0,2.7,1.5,5.2,2.7,7.4c0.9,1.5,1.5,2.9,1.8,4.6c-0.1,2.2-1.4,3.6-6.5,3.6c-5.4,0-6.5-1.6-6.5-3.9
	C-151.7,461.5-150.7,459.9-149.8,458.2z M-153.4,471.8c0.5-0.5,1-1,1.5-1.5c0.5-0.6,0.9-1.3,1.3-1.9c1.4,0.6,3.2,0.9,5.6,0.9
	c2.7,0,6-0.3,7.8-2.5c0.8,1.5,1.9,2.9,3.4,4c0.5,0.4,0.9,0.7,1.5,1C-132.5,471.8-153.4,471.8-153.4,471.8z M-117.2,462.9
	c-0.7,0-1.3,0.6-1.3,1.3c0,4.3-2,6.3-3.2,7.1c-0.6-1.6-1.5-4.9-1.5-9.2c0-0.7-0.6-1.3-1.3-1.3c-0.7,0-1.3,0.6-1.3,1.3
	c0,4.3,0.8,7.6,1.5,9.6c-0.9-0.1-1.9-0.3-2.8-0.5c-1.4-1.7-1.9-4.2-2.2-6.1c-0.1-0.7-0.7-1.2-1.5-1.1c-0.7,0.1-1.2,0.7-1.1,1.5
	c0.2,1.2,0.4,2.7,1,4.2c-0.1-0.3-0.7-0.5-0.9-0.6c-0.9-0.6-1.7-1.4-2.3-2.3c-1.4-1.9-2-4.2-2-6.5c0-4,4.2-18.2,7.4-28.3
	c2,0.1,4.1,0.1,6.4,0.1c1.6,0,3.1,0,4.6-0.1v7.3c0,5,2.8,9.2,5.4,12.8c2,2.9,3.8,5.6,3.8,8c0,6.3-4.2,9.8-9.3,11.1
	c1.1-1.5,2.1-3.7,2.1-7.1C-115.9,463.5-116.5,462.9-117.2,462.9z M-112.4,471.8c1.2-0.7,2.2-1.6,3.1-2.6c0.2-0.2,1.6,0,1.9,0
	c2.2,0,4.5-0.1,6.3-1c0.6,1.2,1.4,2.5,2.4,3.6H-112.4z"/>
</svg>
