<?xml version="1.0" encoding="utf-8"?>
<!-- Generator: Adobe Illustrator 19.0.0, SVG Export Plug-In . SVG Version: 6.00 Build 0)  -->
<svg version="1.1" id="Capa_1" xmlns="http://www.w3.org/2000/svg" xmlns:xlink="http://www.w3.org/1999/xlink" x="0px" y="0px"
	 viewBox="-210 325.9 173.5 190" style="enable-background:new -210 325.9 173.5 190;" xml:space="preserve">
<g id="XMLID_100_">
	<path d="M-45.1,494.1h-156.3c-2,0-3.8-1-4.8-2.7s-1-3.8,0-5.5l78.1-135.4c1-1.7,2.8-2.8,4.8-2.8l0,0c2,0,3.8,1,4.8,2.7l78.2,135.4
		c1,1.7,1,3.8,0,5.5C-41.3,493-43.1,494.1-45.1,494.1z M-191.9,483.1h137.3l-68.7-118.9L-191.9,483.1z"/>
</g>
<g>
	<path d="M-101.4,453c0-0.3,0-0.5-0.1-0.8l-4.9-12.3v-31.2h-4.2v1.6h-25.2v-1.6h-4.2V440l-4.9,12.3c-0.1,0.3-0.1,0.5-0.1,0.8h0v20.1
		h4.2v-7.2h35.3v7.2h4.2L-101.4,453L-101.4,453z M-110.6,438.3h-25.2V425h25.2V438.3z M-110.6,414.6v6.3h-25.2v-6.3H-110.6z
		 M-140.9,461.7v-6.6h35.3v6.6H-140.9z"/>
</g>
</svg>
