<?xml version="1.0" encoding="utf-8"?>
<!-- Generator: Adobe Illustrator 19.0.0, SVG Export Plug-In . SVG Version: 6.00 Build 0)  -->
<svg version="1.1" id="Capa_1" xmlns="http://www.w3.org/2000/svg" xmlns:xlink="http://www.w3.org/1999/xlink" x="0px" y="0px"
	 viewBox="-210 325.9 173.5 190" style="enable-background:new -210 325.9 173.5 190;" xml:space="preserve">
<g id="XMLID_100_">
	<path d="M-45.1,494.1h-156.3c-2,0-3.8-1-4.8-2.7s-1-3.8,0-5.5l78.1-135.4c1-1.7,2.8-2.8,4.8-2.8l0,0c2,0,3.8,1,4.8,2.7l78.2,135.4
		c1,1.7,1,3.8,0,5.5C-41.3,493-43.1,494.1-45.1,494.1z M-191.9,483.1h137.3l-68.7-118.9L-191.9,483.1z"/>
</g>
<g>
	<rect x="-144.5" y="407.8" width="2.2" height="2.2"/>
	<rect x="-117.7" y="403.4" width="2.2" height="2.2"/>
	<path d="M-115.4,445.8h-2.2v8.9h-2.2v-8.9h-2.2v8.9h-1.1c-0.7,0-1.1-0.4-1.1-1.1v-7.8h-2.2v7.8c0,1.9,1.5,3.4,3.4,3.4h1.1v8.9
		h-15.6V457c0-0.7,0.4-1.1,1.1-1.1s1.1,0.4,1.1,1.1v3.4c0,1.9,1.5,3.4,3.4,3.4s3.4-1.5,3.4-3.4v-16.8h15l2.2-2.2h4.5l8.9-8.9h-6
		v-2.2h6.7V428h-22.3v-2.2h22.3v-2.2h-6.7v-2.2h6l-8.9-8.9h-6.5l-2.2-4.5h-4v-6.7h-2.2v6.7h-2.2v-2.2h-2.2v2.2h-5.6v2.2h10.1v2.2
		h-4.5v6.7h-16l5.3-4.5h8.5v-2.2h-5.6v-1.1c0-1.9-1.5-3.4-3.4-3.4h-2.2v2.2h2.2c0.7,0,1.1,0.4,1.1,1.1v1.1h-1.6l-10.4,8.9h6.4v2.2
		h-6.7v2.2h22.3v2.2h-22.3v2.2h6.7v2.2h-6l8.9,8.9h4.5l2.2,2.2h1.6v16.8c0,0.7-0.4,1.1-1.1,1.1s-1.1-0.4-1.1-1.1V457
		c0-1.9-1.5-3.4-3.4-3.4s-3.4,1.5-3.4,3.4v8.9h-10.1v2.2h10.1v4.5h2.2v-4.5h15.6v4.5h2.2v-4.5h1.1c1.9,0,3.4-1.5,3.4-3.4V457H-92
		v-2.2h-23.5V445.8z M-122.1,434.7v4.5h-2.2v-4.5H-122.1z M-124.4,432.4v-2.2h2.2v2.2H-124.4z M-108.1,439.1h-1.3h-10.5v-4.5h16.3
		L-108.1,439.1z M-106.5,432.4h-6.7v-2.2h6.7V432.4z M-115.4,430.2v2.2h-4.5v-2.2H-115.4z M-119.9,423.5v-2.2h4.5v2.2H-119.9z
		 M-106.5,423.5h-6.7v-2.2h6.7V423.5z M-103.6,419h-16.3v-4.5h11.8L-103.6,419z M-119.9,410.1h2.7l1.1,2.2h-3.8V410.1z
		 M-124.4,414.5h2.2v4.5h-2.2V414.5z M-122.1,421.3v2.2h-2.2v-2.2H-122.1z M-140,421.3h6.7v2.2h-6.7V421.3z M-131.1,423.5v-2.2h4.5
		v2.2H-131.1z M-124.4,425.7h2.2v2.2h-2.2V425.7z M-126.6,432.4h-4.5v-2.2h4.5V432.4z M-140,430.2h6.7v2.2h-6.7V430.2z
		 M-138.4,439.1l-4.5-4.5h16.3v4.5h-10.5H-138.4z M-117.7,464.8c0,0.7-0.4,1.1-1.1,1.1h-1.1V457h2.2V464.8z"/>
	<path d="M-142.2,446.9c0-1.9-1.5-3.4-3.4-3.4c-1.9,0-3.4,1.5-3.4,3.4c0,1.9,1.5,3.4,3.4,3.4C-143.7,450.3-142.2,448.8-142.2,446.9z
		 M-146.7,446.9c0-0.7,0.4-1.1,1.1-1.1c0.7,0,1.1,0.4,1.1,1.1c0,0.7-0.4,1.1-1.1,1.1C-146.3,448.1-146.7,447.6-146.7,446.9z"/>
	<path d="M-100.9,443.6c-1.9,0-3.4,1.5-3.4,3.4c0,1.9,1.5,3.4,3.4,3.4s3.4-1.5,3.4-3.4C-97.6,445-99,443.6-100.9,443.6z
		 M-100.9,448.1c-0.7,0-1.1-0.4-1.1-1.1c0-0.7,0.4-1.1,1.1-1.1s1.1,0.4,1.1,1.1C-99.8,447.6-100.2,448.1-100.9,448.1z"/>
	<rect x="-135.5" y="445.8" width="2.2" height="2.2"/>
	<rect x="-127.7" y="461.5" width="2.2" height="2.2"/>
	<rect x="-89.7" y="454.8" width="2.2" height="2.2"/>
	<rect x="-154.5" y="465.9" width="2.2" height="2.2"/>
	<rect x="-159" y="465.9" width="2.2" height="2.2"/>
</g>
</svg>
