<?xml version="1.0" encoding="utf-8"?>
<!-- Generator: Adobe Illustrator 19.0.0, SVG Export Plug-In . SVG Version: 6.00 Build 0)  -->
<svg version="1.1" id="Capa_1" xmlns="http://www.w3.org/2000/svg" xmlns:xlink="http://www.w3.org/1999/xlink" x="0px" y="0px"
	 viewBox="-210 325.9 173.5 190" style="enable-background:new -210 325.9 173.5 190;" xml:space="preserve">
<g>
	<path d="M-82.7,434.2c-0.3-0.1-0.9-0.2-1.5-0.4c-1.3-0.3-3.1-0.5-5.2-0.7c-2.1-0.1-4.5-0.1-7,0.1c-2.5,0.2-5.1,0.7-7.7,1.4
		c-2.6,0.7-5.1,1.5-7.4,2.5c-0.7,0.3-1.4,0.6-2.1,0.9c0.4-0.4,0.8-0.7,1.3-1.1c1.1-1,2.3-2.1,3.5-3.3c2.3-2.4,4.6-5.1,6.8-7.9
		c2.1-2.8,4.1-5.8,5.7-8.7c1.7-2.9,3-5.7,4.1-8.3c1-2.5,1.7-4.8,2.2-6.4c0.2-0.8,0.3-1.5,0.4-1.9c0.1-0.4,0.1-0.7,0.1-0.7
		s-0.2,0.1-0.6,0.3c-0.4,0.2-1,0.5-1.7,0.9c-1.4,0.8-3.4,2.1-5.6,3.8c-2.2,1.7-4.5,3.8-6.8,6.2c-2.3,2.4-4.6,5.1-6.8,7.9
		c-2.1,2.8-4.1,5.8-5.8,8.7c-0.7,1.2-1.3,2.4-1.9,3.6c0.5-2.4,1-5.1,1.3-7.9c0.5-4,0.7-8.2,0.7-12.5c0-4.3-0.3-8.5-0.8-12.5
		c-0.5-4-1.2-7.7-2.1-10.9c-0.8-3.2-1.8-5.9-2.5-7.7c-0.7-1.9-1.3-2.9-1.3-2.9s-0.6,1.1-1.3,2.9c-0.8,1.9-1.7,4.5-2.5,7.7
		c-0.8,3.2-1.6,6.9-2.1,10.9c-0.5,4-0.7,8.2-0.8,12.5c0,4.3,0.2,8.5,0.7,12.5c0.3,2.8,0.8,5.4,1.3,7.9c-0.6-1.2-1.2-2.4-1.9-3.6
		c-1.7-2.9-3.6-5.8-5.8-8.7c-2.1-2.8-4.4-5.5-6.8-7.9c-2.3-2.4-4.7-4.5-6.9-6.2c-2.2-1.7-4.1-3-5.6-3.8c-0.7-0.4-1.3-0.7-1.7-0.9
		c-0.4-0.2-0.6-0.3-0.6-0.3s0,0.3,0.1,0.7c0.1,0.4,0.2,1.1,0.4,1.9c0.4,1.6,1.1,3.9,2.2,6.4c1,2.5,2.4,5.4,4.1,8.3
		c1.7,2.9,3.6,5.8,5.8,8.7c2.1,2.8,4.4,5.5,6.8,7.9c1.2,1.2,2.4,2.3,3.5,3.3c0.4,0.4,0.8,0.7,1.3,1.1c-0.7-0.3-1.3-0.6-2.1-0.9
		c-2.3-1-4.9-1.8-7.4-2.5c-2.6-0.6-5.2-1.1-7.7-1.4c-2.5-0.2-4.9-0.3-7-0.1c-2.1,0.1-3.9,0.4-5.2,0.7c-0.6,0.1-1.1,0.3-1.5,0.4
		c-0.3,0.1-0.5,0.2-0.5,0.2s0.1,0.2,0.4,0.4c0.3,0.2,0.6,0.6,1.1,1c1,0.8,2.4,2,4.2,3.1c1.8,1.1,3.9,2.2,6.2,3.2
		c2.3,1,4.9,1.8,7.4,2.5c2.6,0.7,5.2,1.1,7.7,1.4c1.6,0.2,3.2,0.2,4.7,0.2c-1.7,0.7-3.5,1.5-5.2,2.5c-1.6,0.9-3.1,2-4.5,3.1
		c-1.4,1.1-2.6,2.3-3.6,3.3c-1,1.1-1.7,2.1-2.2,2.8c-0.5,0.8-0.7,1.3-0.7,1.3s0.6,0,1.5,0c0.9-0.1,2.2-0.2,3.6-0.5
		c1.4-0.3,3-0.8,4.7-1.4c1.6-0.6,3.3-1.4,4.9-2.4c3.2-1.8,6.1-4.2,8.1-6.4c1-1.1,1.7-2.1,2.2-2.9c0.1-0.2,0.3-0.4,0.4-0.6
		c0.1,0,0.2-0.1,0.2-0.1c0.1,0,0.1,0,0.2,0.1c0.1,0.2,0.2,0.4,0.4,0.6c0.5,0.8,1.3,1.8,2.2,2.9c2,2.2,4.9,4.6,8.1,6.4
		c1.6,0.9,3.3,1.7,4.9,2.4c1.6,0.7,3.2,1.1,4.7,1.4c1.4,0.3,2.7,0.5,3.6,0.5c0.9,0,1.5,0,1.5,0s-0.2-0.5-0.7-1.3
		c-0.5-0.8-1.3-1.8-2.2-2.8c-1-1.1-2.2-2.2-3.6-3.3c-1.4-1.1-2.9-2.2-4.5-3.1c-1.7-1-3.5-1.8-5.2-2.5c1.5,0,3.1-0.1,4.7-0.2
		c2.5-0.2,5.1-0.7,7.7-1.4c2.6-0.7,5.1-1.5,7.4-2.5c2.3-1,4.4-2.1,6.2-3.2c1.8-1.1,3.2-2.2,4.2-3.1c0.5-0.4,0.9-0.8,1.1-1
		c0.3-0.2,0.4-0.4,0.4-0.4S-82.3,434.3-82.7,434.2z"/>
	<path d="M-123.3,355.1c-36.3,0-65.8,29.5-65.8,65.8c0,36.3,29.5,65.8,65.8,65.8c36.3,0,65.8-29.5,65.8-65.8
		C-57.5,384.6-87,355.1-123.3,355.1z M-123.3,477c-30.9,0-56.1-25.2-56.1-56.1c0-30.9,25.2-56.1,56.1-56.1
		c30.9,0,56.1,25.2,56.1,56.1C-67.2,451.8-92.3,477-123.3,477z"/>
</g>
<rect x="-128.2" y="361.1" transform="matrix(0.7072 0.7071 -0.7071 0.7072 261.5005 210.4)" width="10" height="119.5"/>
<g>
	<path d="M-154,482.1l1.8,0.8l-2,5.8l3.3-5.2l1.4,0.6l-1.8,5.9l3.1-5.3l1.8,0.8l-5.5,9.1l-1.8-0.8l1.8-6.2l-3.4,5.4l-1.9-0.9
		L-154,482.1z"/>
	<path d="M-134,488.9l4.7,0.6l-0.2,1.6l-2.4-0.3l-0.3,2.6l1.8,0.2l-0.2,1.6l-1.8-0.2l-0.4,3.1l2.4,0.3l-0.2,1.6l-4.7-0.6L-134,488.9
		z"/>
	<path d="M-116.4,489.4l4.7-0.6l0.2,1.6l-2.4,0.3l0.4,2.6l1.8-0.3l0.2,1.6l-1.8,0.3l0.4,3.1l2.4-0.3l0.2,1.6l-4.7,0.7L-116.4,489.4z
		"/>
	<path d="M-99.4,485.2l2.4-1.1c0.8-0.4,1.5-0.6,2.1-0.6c0.6,0,1,0.2,1.4,0.5c0.4,0.4,0.8,0.9,1.1,1.6l1.6,3.5
		c0.3,0.7,0.5,1.4,0.5,1.9c0,0.5-0.2,1-0.5,1.4c-0.4,0.4-1,0.8-1.8,1.2l-2.5,1.1L-99.4,485.2z M-93.3,492.3c0.3-0.1,0.5-0.3,0.6-0.4
		c0.1-0.2,0.1-0.3,0.1-0.5s-0.1-0.4-0.3-0.8l-1.9-4.2c-0.1-0.3-0.3-0.5-0.4-0.7c-0.1-0.1-0.3-0.2-0.4-0.2s-0.4,0-0.7,0.2l-0.3,0.1
		l3,6.6L-93.3,492.3z"/>
</g>
<g>
	<path d="M-183.9,385.5c-0.7,0-1.4-0.2-2.2-0.7l-2.5-1.6c-0.9-0.5-1.4-1.1-1.6-1.7c-0.2-0.6-0.1-1.3,0.4-2.2c0.5-0.8,1-1.2,1.6-1.3
		c0.6-0.1,1.2,0.1,1.9,0.5l0.5,0.3l-1,1.6l-0.6-0.4c-0.3-0.2-0.5-0.3-0.7-0.3c-0.2,0-0.4,0.1-0.5,0.3c-0.2,0.2-0.2,0.5,0,0.6
		c0.1,0.2,0.3,0.4,0.6,0.5l3.5,2.2c0.3,0.2,0.6,0.3,0.8,0.3c0.2,0,0.4-0.1,0.6-0.3c0.3-0.4,0.1-0.9-0.6-1.3l-0.9-0.6l-0.4,0.7
		l-1-0.6l1.4-2.2l3.9,2.4l-0.7,1.1l-0.7-0.3c0.3,0.5,0.3,1.1,0,1.7C-182.6,385.1-183.2,385.5-183.9,385.5z"/>
	<path d="M-182.7,369.9l1.5-1.7l7.8,4.6l-1.2,1.4l-1.6-1l-0.9,1l1.2,1.5l-1.2,1.4L-182.7,369.9z M-177.3,372.5l-2.9-1.9l2.3,2.6
		L-177.3,372.5z"/>
	<path d="M-174.5,361.6l1.6-1.3l4,3.4l-2.4-4.7l1.6-1.3l5.7,6.9l-1.1,0.9l-3.8-4.5l2.9,5.3l-1,0.8l-4.6-4l3.6,4.7l-1.1,0.9
		L-174.5,361.6z"/>
	<path d="M-162.8,353.2l3.5-1.9l0.6,1.2l-1.8,1l1.1,1.9l1.4-0.8l0.7,1.2l-1.4,0.8l1.3,2.3l1.8-1l0.6,1.2l-3.5,1.9L-162.8,353.2z"/>
	<path d="M-152.4,348.1l2.3-0.8c0.9-0.3,1.7-0.4,2.3-0.3s1,0.6,1.3,1.5c0.2,0.6,0.3,1,0.3,1.4c0,0.4-0.2,0.7-0.5,1.1l2.6,3.6
		l-1.9,0.7l-2.3-3.4l-0.5,0.2l1.4,3.7l-1.8,0.7L-152.4,348.1z M-148.7,350.8c0.4-0.1,0.6-0.3,0.7-0.6c0.1-0.2,0-0.6-0.1-1
		c-0.1-0.4-0.3-0.6-0.5-0.8s-0.5-0.1-0.8,0l-0.6,0.2l0.8,2.3L-148.7,350.8z"/>
	<path d="M-137.7,352.4c-0.5-0.4-0.8-1-1-2l1.6-0.6c0.1,0.6,0.2,0.9,0.4,1.2c0.2,0.2,0.4,0.3,0.6,0.3c0.3-0.1,0.4-0.3,0.4-0.7
		c-0.1-0.3-0.2-0.6-0.4-0.8c-0.2-0.2-0.5-0.4-0.9-0.7l-0.9-0.5c-0.5-0.3-0.8-0.5-1.1-0.8c-0.3-0.3-0.4-0.7-0.5-1.2
		c-0.1-0.7,0-1.3,0.3-1.8c0.4-0.5,0.9-0.8,1.7-0.9c0.8-0.2,1.4,0,1.8,0.4c0.4,0.4,0.7,1,0.8,1.7l-1.6,0.5c-0.1-0.5-0.2-0.8-0.3-1
		c-0.1-0.2-0.3-0.3-0.5-0.2c-0.2,0-0.3,0.1-0.3,0.3c-0.1,0.2-0.1,0.3,0,0.5c0.1,0.3,0.2,0.6,0.4,0.7s0.4,0.4,0.8,0.6l0.8,0.5
		c0.5,0.3,0.9,0.6,1.2,1c0.3,0.4,0.5,0.8,0.6,1.4c0.1,0.4,0,0.8-0.1,1.2c-0.1,0.4-0.3,0.7-0.7,0.9c-0.3,0.3-0.7,0.4-1.1,0.5
		C-136.5,352.8-137.2,352.7-137.7,352.4z"/>
	<path d="M-117,342.8l2.2,0.2l0.8,9l-1.8-0.2l-0.1-1.9l-1.3-0.1l-0.5,1.8l-1.8-0.2L-117,342.8z M-115.9,348.8l-0.1-3.5l-0.8,3.4
		L-115.9,348.8z"/>
	<path d="M-107.3,352.6c-0.2-0.6-0.2-1.4,0-2.3l0.8-2.9c0.3-1,0.6-1.7,1.2-2.1s1.3-0.5,2.2-0.2c0.9,0.2,1.5,0.6,1.8,1.2
		c0.3,0.5,0.3,1.2,0.1,2l-0.1,0.6l-1.9-0.5l0.2-0.7c0.1-0.3,0.1-0.6,0.1-0.8c0-0.2-0.2-0.3-0.5-0.4c-0.3-0.1-0.5,0-0.6,0.1
		s-0.2,0.4-0.3,0.8l-1.1,4c-0.1,0.3-0.1,0.6-0.1,0.8s0.2,0.4,0.5,0.4c0.5,0.1,0.8-0.2,1-0.9l0.3-1l-0.8-0.2l0.3-1.1l2.5,0.7
		l-1.2,4.5l-1.3-0.3l0.1-0.7c-0.4,0.5-1,0.6-1.6,0.5C-106.5,353.6-107.1,353.2-107.3,352.6z"/>
	<path d="M-92,349l2,0.9l-2.2,8.8l-1.6-0.7l0.5-1.8l-1.2-0.5l-1.1,1.6l-1.7-0.8L-92,349z M-92.9,355l1-3.4l-1.9,3L-92.9,355z"/>
	<path d="M-81.9,354.4l1.7,1.1l-4.8,7.5l-1.7-1.1L-81.9,354.4z"/>
	<path d="M-73.8,360.1l1,0.9l-1.4,4.4l2.8-3.2l1.2,1.1L-76,370l-1-0.9l1.6-4.7l-3,3.5l-1.3-1.1L-73.8,360.1z"/>
	<path d="M-70.7,374.7c0.1-0.6,0.5-1.2,1.2-1.9l1.3,1.1c-0.4,0.4-0.7,0.7-0.8,0.9c-0.1,0.3-0.1,0.5,0.1,0.7c0.2,0.3,0.5,0.2,0.8,0
		c0.3-0.2,0.4-0.5,0.5-0.8s0.1-0.6,0.1-1.1l0-1c0-0.5,0.1-1,0.2-1.3c0.1-0.4,0.4-0.7,0.8-1.1c0.6-0.5,1.2-0.7,1.7-0.6s1.1,0.4,1.6,1
		c0.5,0.6,0.7,1.2,0.5,1.8c-0.2,0.5-0.5,1.1-1.1,1.5l-1.2-1.2c0.3-0.3,0.6-0.6,0.7-0.7c0.1-0.2,0.1-0.4-0.1-0.5
		c-0.1-0.1-0.2-0.2-0.4-0.2c-0.2,0-0.3,0.1-0.5,0.2c-0.2,0.2-0.4,0.4-0.5,0.7c-0.1,0.2-0.1,0.5-0.1,0.9l0,1c0,0.6-0.1,1.1-0.3,1.6
		s-0.5,0.9-0.9,1.2c-0.3,0.3-0.7,0.4-1.1,0.5c-0.4,0.1-0.8,0-1.1-0.1c-0.4-0.1-0.7-0.4-1-0.7C-70.5,375.9-70.7,375.3-70.7,374.7z"/>
	<path d="M-58,380.2l-0.7-1.2l1.2-0.8l2.4,4l-1.2,0.8l-0.7-1.2l-6.4,3.9l-1-1.7L-58,380.2z"/>
</g>
</svg>
