<?xml version="1.0" encoding="utf-8"?>
<!-- Generator: Adobe Illustrator 19.0.0, SVG Export Plug-In . SVG Version: 6.00 Build 0)  -->
<svg version="1.1" id="Capa_1" xmlns="http://www.w3.org/2000/svg" xmlns:xlink="http://www.w3.org/1999/xlink" x="0px" y="0px"
	 viewBox="-210 325.9 173.5 190" style="enable-background:new -210 325.9 173.5 190;" xml:space="preserve">
<g id="XMLID_100_">
	<path d="M-45.1,494.1h-156.3c-2,0-3.8-1-4.8-2.7s-1-3.8,0-5.5l78.1-135.4c1-1.7,2.8-2.8,4.8-2.8l0,0c2,0,3.8,1,4.8,2.7l78.2,135.4
		c1,1.7,1,3.8,0,5.5C-41.3,493-43.1,494.1-45.1,494.1z M-191.9,483.1h137.3l-68.7-118.9L-191.9,483.1z"/>
</g>
<g>
	<path d="M-154.7,466.1c1.8,0.5,3.8,0.3,5.9-0.6c3.6-1.5,7.8-4.6,11.9-8.4c2.9-2.8,8.3-4.2,13.6-4.2s10.8,1.4,13.6,4.2
		c4.1,3.8,8.3,7,11.9,8.4c2.1,0.8,4.2,1.1,5.9,0.6c1.9-0.6,3.4-1.9,4.5-4.3c1-2.3,1.5-5.8,1.3-10.6c-0.2-4.3-0.9-9-2-13.5
		c-1.1-4.3-2.5-8.3-4.2-11.3c-6.5-11.4-13.5-9.7-22-7.4c-2.7,0.6-5.6,1.4-8.5,1.7h-0.9c-3-0.3-5.8-1-8.5-1.7c-8.4-2.1-15.5-4-22,7.5
		c-1.7,3.1-3.2,7.1-4.2,11.3c-1.1,4.5-1.9,9.2-2,13.5c-0.2,4.7,0.3,8.2,1.3,10.6C-158.1,464.2-156.7,465.5-154.7,466.1z M-157,451.4
		c0.2-4,0.8-8.5,1.9-12.8c1-4,2.3-7.7,3.9-10.5c5.1-9.2,11-7.7,18.1-5.8c2.9,0.7,5.8,1.5,9.1,1.8c0.1,0,0.1,0,0.2,0h1l0,0
		c0.1,0,0.1,0,0.2,0c3.3-0.3,6.3-1,9.2-1.8c7.1-1.8,13-3.3,18.1,5.8c1.6,2.8,2.9,6.4,3.9,10.5c1,4.3,1.8,8.7,1.9,12.8
		c0.2,4.3-0.2,7.1-1,9.1c-0.6,1.3-1.3,2-2.2,2.3c-1,0.3-2.3,0.1-3.8-0.5c-3.2-1.3-7.1-4.2-10.8-7.7c-3.5-3.5-9.7-5.3-16-5.3
		s-12.4,1.8-16.1,5.1c-3.8,3.5-7.6,6.5-10.8,7.7c-1.5,0.6-2.8,0.8-3.8,0.5c-0.9-0.3-1.7-1-2.2-2.3
		C-156.8,458.6-157.2,455.7-157,451.4z"/>
	<path d="M-145.9,442.3c0.1,1.3,0.6,2.5,1.6,3.3c1,1,2.3,1.6,3.8,1.6l0,0c1.5,0,2.9-0.6,3.8-1.6l0,0c0.8-0.9,1.5-2,1.6-3.3
		c1.3-0.1,2.5-0.6,3.3-1.6c1-1,1.6-2.3,1.6-3.8l0,0c0-1.5-0.6-2.9-1.6-3.8l0,0c-0.9-0.8-2-1.5-3.3-1.6c-0.1-1.2-0.6-2.4-1.5-3.2
		l-0.1-0.1c-1-1-2.3-1.6-3.8-1.6l0,0c-1.5,0-2.9,0.6-3.8,1.6c-0.8,0.8-1.5,2-1.6,3.3c-1.3,0.1-2.4,0.6-3.3,1.5l-0.1,0.1
		c-1,1-1.6,2.3-1.6,3.8l0,0c0,1.5,0.6,2.9,1.6,3.8C-148.4,441.7-147.3,442.3-145.9,442.3z M-147.5,437c0-0.6,0.2-1,0.6-1.4
		c0,0,0,0,0.1-0.1c0.4-0.3,0.8-0.5,1.3-0.5h1.3c0.9,0,1.8-0.7,1.8-1.8V432c0-0.6,0.2-1,0.6-1.4s0.8-0.6,1.4-0.6l0,0
		c0.6,0,1,0.2,1.4,0.6c0,0,0,0,0.1,0.1c0.3,0.4,0.5,0.8,0.5,1.3v1.3c0,0.9,0.7,1.8,1.8,1.8h1.3c0.6,0,1,0.2,1.4,0.6l0,0l0,0
		c0.4,0.4,0.6,0.8,0.6,1.4l0,0c0,0.6-0.2,1-0.6,1.4c-0.4,0.4-0.8,0.6-1.4,0.6h-1.3c-0.9,0-1.8,0.7-1.8,1.8v1.2c0,0.6-0.2,1-0.6,1.4
		l0,0l0,0c-0.4,0.4-0.8,0.6-1.4,0.6l0,0c-0.6,0-1-0.2-1.4-0.6c-0.4-0.4-0.6-0.8-0.6-1.4v-1.3c0-0.9-0.7-1.8-1.8-1.8h-1.3
		c-0.6,0-1-0.2-1.4-0.6C-147.2,438-147.5,437.5-147.5,437L-147.5,437z"/>
	<circle cx="-107.1" cy="430.4" r="3.2"/>
	<circle cx="-107.1" cy="443.6" r="3.2"/>
	<circle cx="-113.7" cy="437" r="3.2"/>
	<circle cx="-100.5" cy="437" r="3.2"/>
</g>
</svg>
