<?xml version="1.0" encoding="utf-8"?>
<!-- Generator: Adobe Illustrator 19.0.0, SVG Export Plug-In . SVG Version: 6.00 Build 0)  -->
<svg version="1.1" id="Capa_1" xmlns="http://www.w3.org/2000/svg" xmlns:xlink="http://www.w3.org/1999/xlink" x="0px" y="0px"
	 viewBox="-210 325.9 173.5 190" style="enable-background:new -210 325.9 173.5 190;" xml:space="preserve">
<g id="XMLID_100_">
	<path d="M-45.1,494.1h-156.3c-2,0-3.8-1-4.8-2.7s-1-3.8,0-5.5l78.1-135.4c1-1.7,2.8-2.8,4.8-2.8l0,0c2,0,3.8,1,4.8,2.7l78.2,135.4
		c1,1.7,1,3.8,0,5.5C-41.3,493-43.1,494.1-45.1,494.1z M-191.9,483.1h137.3l-68.7-118.9L-191.9,483.1z"/>
</g>
<g>
	<path d="M-107.7,431.5c-2.6-1.7-5.7-2.4-8.8-2.1c-0.3-1.1-0.8-2.1-1.2-3c-0.3-0.4-0.7-0.6-1.2-0.3c-0.5,0.3-0.6,0.8-0.3,1.2
		c0.6,1,1,2.2,1.3,3.3l0,0l0,0c0,0.2,0.1,0.4,0.1,0.6c0.9,4.8-1.4,9.7-5.7,12.2l0,0c-1.2,0.7-2.5,1.2-3.9,1.4
		c-0.5,0.1-0.7,0.5-0.6,0.9s0.5,0.7,0.9,0.6c1.4-0.2,2.6-0.7,3.8-1.3c1,0.8,1.7,1.8,2.4,2.9c0.2,0.3,0.5,0.4,0.9,0.4
		c0.1,0,0.2,0,0.3-0.2c0.4-0.3,0.6-0.7,0.3-1.2c-0.6-1.1-1.4-2.1-2.3-2.9c4.2-2.9,6.4-8,5.6-13.2c2.6-0.3,5.2,0.4,7.5,1.8
		c0.2,0.2,0.4,0.1,0.6,0.1c0.2,0,0.4-0.2,0.5-0.4C-107.1,432.3-107.3,431.8-107.7,431.5z"/>
	<path d="M-97.3,425c-0.6-3.6-2.7-6.8-5.7-8.8c0-0.7,0-1.4-0.2-2.1c-1.3-7.3-8.2-12.2-15.5-10.9c-7.3,1.3-12.3,8.3-11.1,15.6
		c0.1,0.4,0.1,0.7,0.2,1.1c-0.7,0-1.4,0-2.1,0.2c-7.2,1.3-12.1,8.1-10.9,15.2c-4.7,2.2-7.6,7.4-7.9,14.5c-0.1,1.4-1.6,4.3-4.8,7.1
		c-2.7,2.2-7.3,5.2-14.3,6.2c-0.4,0.1-0.7,0.4-0.7,0.8c0,0.4,0.2,0.8,0.6,0.8c10.9,2,19.9,2.3,27.2,1c1.3-0.2,2.5-0.6,3.8-0.9
		c2.9,2.1,6.6,2.9,10.1,2.3c5.6-1,10.1-5.6,11-11.4c2.4,1.2,5.3,1.6,8.1,1.1c7.3-1.3,12.2-8.2,10.9-15.5c-0.3-1.8-1-3.5-1.9-4.9
		C-97.9,433.4-96.6,429.2-97.3,425z M-100.3,441.6c1.1,6.4-3.2,12.5-9.6,13.7c-4.4,0.8-8.9-1.1-11.6-4.7c-0.3-0.4-0.8-0.5-1.2-0.2
		c-0.4,0.3-0.5,0.8-0.2,1.2c1,1.4,2.2,2.5,3.6,3.4c-0.5,5.3-4.5,9.6-9.7,10.6c-3.2,0.6-6.5-0.3-9.1-2.2c-2.4-1.8-3.9-4.4-4.4-7.3
		c-0.1-0.5-0.5-0.7-0.9-0.6c-0.5,0.1-0.7,0.5-0.6,0.9c0.5,2.8,1.9,5.4,3.8,7.2c-6.6,1.6-14.8,1.6-24.9,0.1c5-1.5,8.6-3.8,10.8-5.7
		c3.2-2.7,5.4-5.9,5.4-8.3c0.3-6.3,2.7-10.8,6.6-12.8c0.3,1.4,1,2.6,1.8,3.7c0.2,0.3,0.5,0.4,0.9,0.4c0.1,0,0.2,0,0.3-0.2
		c0.4-0.3,0.5-0.8,0.2-1.2c-1-1.4-1.5-2.9-1.8-4.6c-1.1-6.4,3.2-12.5,9.6-13.7c0.8-0.1,1.6-0.2,2.4-0.2c0.5,1.1,1.1,2.2,1.9,3.2
		c0.2,0.3,0.5,0.3,0.8,0.3c0.1,0,0.3-0.1,0.4-0.2c0.4-0.3,0.5-0.8,0.1-1.1c-1.2-1.5-2-3.3-2.4-5.3c-1.1-6.4,3.2-12.5,9.6-13.7
		c6.4-1.1,12.5,3.2,13.7,9.6c0.1,0.8,0.2,1.5,0.2,2.2l0,0c0,1.1-0.2,2.3-0.6,3.5c-0.1,0.4,0.1,0.9,0.5,1c0.1,0.1,0.3,0,0.4,0
		c0.3-0.1,0.6-0.3,0.6-0.5c0.3-0.8,0.4-1.6,0.5-2.3c2.2,1.7,3.7,4.3,4.2,7.1c0.9,4.8-1.4,9.8-5.7,12.3c-0.4,0.3-0.6,0.7-0.3,1.2
		c0.2,0.3,0.5,0.5,0.9,0.5c0.1,0,0.2,0,0.3-0.1c0.7-0.4,1.5-1,2.1-1.5C-101.1,438.8-100.6,440.1-100.3,441.6z"/>
</g>
</svg>
