<?xml version="1.0" encoding="utf-8"?>
<!-- Generator: Adobe Illustrator 19.0.0, SVG Export Plug-In . SVG Version: 6.00 Build 0)  -->
<svg version="1.1" id="Capa_1" xmlns="http://www.w3.org/2000/svg" xmlns:xlink="http://www.w3.org/1999/xlink" x="0px" y="0px"
	 viewBox="-210 325.9 173.5 190" style="enable-background:new -210 325.9 173.5 190;" xml:space="preserve">
<g id="XMLID_100_">
	<path d="M-45.1,494.1h-156.3c-2,0-3.8-1-4.8-2.7s-1-3.8,0-5.5l78.1-135.4c1-1.7,2.8-2.8,4.8-2.8l0,0c2,0,3.8,1,4.8,2.7l78.2,135.4
		c1,1.7,1,3.8,0,5.5C-41.3,493-43.1,494.1-45.1,494.1z M-191.9,483.1h137.3l-68.7-118.9L-191.9,483.1z"/>
</g>
<g>
	<path d="M-80.8,424.4c-3.3,0.3-8.3,0.7-13.6,0.7l-13-16.9c1.4-5.6,3.2-10.7,4.2-13.8c0.2-0.8-0.6-1.3-1.3-0.8l-6.2,4.8
		c-1.6,1.3-2.9,2.9-3.6,4.8c-1.9,4.9-4.8,15.4-3.9,32c0,0-0.1,2.4-0.5,5.6l-10.1-13.2c3.4,0.4,5.6,0.9,5.6,0.9
		c1.1,0.4,2.2,0.6,3.3,1c-0.1-3.2,0.1-6.1,0.3-8.7c-8.9-1.9-16.2-0.9-19-0.3l-0.1,0.7c-0.2,0.3-0.3,0.9-0.5,1.5
		c-0.4,1.1-0.9,2.5-1.5,4.4c2.5-0.1,5-0.1,7.4,0.1l14.1,18.2c-0.9,5-2.4,10.7-5,14.5c-0.1,0.2,0.2,0.6,0.4,0.4l8.2-6.4
		c0.6-0.5,1.2-1.1,1.5-1.9c1.5-3.1,5.3-12.4,4.2-24.5c-0.5-4.5,0.2-9.9,1.3-15.1l9.8,12.6c-3.3-0.2-6.5-0.5-9.7-1
		c0,1.1,0.1,2.3,0.2,3.3c0.1,1.7,0.3,3.3,0.2,4.9c7.8,1.2,13.5,1,16.9,0.6c2.1-0.2,3.9-1,5.5-2.3l5.4-4.2
		C-79.2,425.6-79.7,424.3-80.8,424.4z"/>
	<path d="M-132.6,453.7l-12.7-16.4c1.6-6.7,3.9-12.8,4.9-15.6c0.2-0.3-0.3-0.6-0.5-0.4l-7.7,6c-1.4,1.1-2.4,2.4-3,3.9
		c-1.8,4.5-5,15.3-4.1,32.6c0,0-0.1,2.4-0.5,5.9l-10.4-13.4c3.4,0.4,5.8,1,5.8,1c1.1,0.4,2.2,0.6,3.3,1c-0.1-3.2,0.1-6.1,0.3-8.7
		c-7.3-1.6-13.6-1.1-17.1-0.7c-1.8,0.2-3.5,1-5.1,2.2l-6.4,5c-0.4,0.3-0.1,0.8,0.4,0.7c4.1-1.3,9.6-1.3,14.3-0.9l14.2,18.3
		c-0.8,4.7-2.2,10.1-4.6,13.8c-0.3,0.3,0.3,0.7,0.5,0.5l7.3-5.7c0.9-0.7,1.6-1.5,2-2.5c1.6-3.6,5.1-12.4,4-23.9
		c-0.5-4.4,0.2-9.6,1.3-14.7l9.5,12.2c-3.2-0.2-6.3-0.5-9.2-1c0,1.1,0.1,2.3,0.2,3.3c0.1,1.7,0.3,3.3,0.2,4.9
		c16.6,2.1,18.7-0.3,18.7-0.3c1.8-1.5,3.3-4.1,4.2-7.2C-125.6,453.6-129.1,453.7-132.6,453.7z"/>
	<path d="M-141.4,432.1l15.1,19.4c0.3,0.4,0.6,0.5,1.1,0.6s0.8,0,1.2-0.3c0.8-0.6,0.9-1.6,0.3-2.2l-15.1-19.4
		c-0.6-0.8-1.6-0.9-2.2-0.3C-141.8,430.4-142,431.4-141.4,432.1z"/>
	<path d="M-87.9,423.1c0.3,0.4,0.6,0.5,1.1,0.6c0.4,0.1,0.8,0,1.2-0.3c0.8-0.6,0.9-1.6,0.3-2.2l-15.1-19.5c-0.6-0.8-1.6-0.9-2.2-0.3
		c-0.8,0.6-0.9,1.6-0.3,2.2L-87.9,423.1z"/>
	<path d="M-176.6,459.1c-0.6-0.8-1.6-0.9-2.2-0.3c-0.8,0.6-0.9,1.6-0.3,2.2l15.1,19.4c0.3,0.4,0.6,0.5,1.1,0.6
		c0.4,0.1,0.8,0,1.2-0.3c0.8-0.6,0.9-1.6,0.3-2.2L-176.6,459.1z"/>
</g>
</svg>
