<?xml version="1.0" encoding="utf-8"?>
<!-- Generator: Adobe Illustrator 19.0.0, SVG Export Plug-In . SVG Version: 6.00 Build 0)  -->
<svg version="1.1" id="Capa_1" xmlns="http://www.w3.org/2000/svg" xmlns:xlink="http://www.w3.org/1999/xlink" x="0px" y="0px"
	 viewBox="-210 325.9 173.5 190" style="enable-background:new -210 325.9 173.5 190;" xml:space="preserve">
<g id="XMLID_100_">
	<path d="M-45.1,494.1h-156.3c-2,0-3.8-1-4.8-2.7s-1-3.8,0-5.5l78.1-135.4c1-1.7,2.8-2.8,4.8-2.8l0,0c2,0,3.8,1,4.8,2.7l78.2,135.4
		c1,1.7,1,3.8,0,5.5C-41.3,493-43.1,494.1-45.1,494.1z M-191.9,483.1h137.3l-68.7-118.9L-191.9,483.1z"/>
</g>
<g>
	<path d="M-154.6,437.9h12.9c0.1-4.4,0.7-8.5,1.7-12.2c-4.6-1.2-7.6-2.7-9.1-3.6C-152.4,426.8-154.2,432.2-154.6,437.9z"/>
	<path d="M-124.6,437.9v-10.2c-4.5-0.1-8.4-0.5-11.6-1.2c-0.9,3.5-1.5,7.3-1.6,11.4H-124.6z"/>
	<path d="M-124.6,423.8v-14.5c-1.5,0.9-3.6,2.5-5.7,5c-2,2.4-3.6,5.2-4.8,8.5C-132.2,423.4-128.7,423.7-124.6,423.8z"/>
	<path d="M-112.7,439.9c0-4.8-3.5-8.9-8-9.8v19.5C-116.2,448.7-112.7,444.7-112.7,439.9z"/>
	<path d="M-124.6,455.7c-4.3,0.1-7.9,0.5-10.9,1.1c3.2,10,8.8,13.6,10.3,14.4c0.2,0,0.4,0,0.6,0V455.7L-124.6,455.7z"/>
	<path d="M-102,439.9c0-10.8-8.3-19.6-18.8-20.6v6.9c6.7,0.9,11.9,6.7,11.9,13.7c0,7-5.2,12.7-11.9,13.7v6.9
		C-110.2,459.5-102,450.6-102,439.9z"/>
	<path d="M-101.1,417.7c-5.3-5.3-12.2-8.5-19.6-9.1v6.8c12.6,1,22.6,11.6,22.6,24.5s-10,23.5-22.6,24.5v6.8
		c7.4-0.6,14.3-3.8,19.6-9.1c5.9-5.9,9.2-13.8,9.2-22.2C-91.9,431.5-95.2,423.6-101.1,417.7z"/>
	<path d="M-134.2,467.9c-2.1-2.9-3.8-6.3-5-10.2c-3.8,1-6.3,2.2-7.6,2.9c0.4,0.5,0.9,1,1.4,1.5c3.6,3.6,8,6.2,12.7,7.7
		C-133.2,469.2-133.7,468.6-134.2,467.9z"/>
	<path d="M-124.6,441.8h-13.2c0.1,4.3,0.6,8.1,1.3,11.3c3.3-0.6,7.3-1.1,11.9-1.2V441.8z"/>
	<path d="M-140.2,453.9c-0.8-3.7-1.3-7.8-1.4-12.2h-12.9c0.3,5.7,2.2,11.1,5.4,15.7C-147.7,456.6-144.8,455.2-140.2,453.9z"/>
	<path d="M-142.1,421c0.9,0.3,2,0.6,3.2,1c1.4-3.9,3.4-7.4,5.8-10.3c0.7-0.9,1.4-1.6,2.2-2.3c-5.5,1.4-10.5,4.2-14.5,8.3
		c-0.4,0.4-0.9,0.9-1.3,1.4C-145.8,419.6-144.2,420.3-142.1,421z"/>
</g>
</svg>
