<?xml version="1.0" encoding="utf-8"?>
<!-- Generator: Adobe Illustrator 19.0.0, SVG Export Plug-In . SVG Version: 6.00 Build 0)  -->
<svg version="1.1" id="Capa_1" xmlns="http://www.w3.org/2000/svg" xmlns:xlink="http://www.w3.org/1999/xlink" x="0px" y="0px"
	 viewBox="-210 325.9 173.5 190" style="enable-background:new -210 325.9 173.5 190;" xml:space="preserve">
<style type="text/css">
	.st0{clip-path:url(#SVGID_2_);}
</style>
<g id="XMLID_100_">
	<path d="M-45.1,494.1h-156.3c-2,0-3.8-1-4.8-2.7s-1-3.8,0-5.5l78.1-135.4c1-1.7,2.8-2.8,4.8-2.8l0,0c2,0,3.8,1,4.8,2.7l78.2,135.4
		c1,1.7,1,3.8,0,5.5C-41.3,493-43.1,494.1-45.1,494.1z M-191.9,483.1h137.3l-68.7-118.9L-191.9,483.1z"/>
</g>
<g>
	<g>
		<defs>
			<polygon id="SVGID_1_" points="-191.9,483.3 -54.6,483.3 -123.3,364.4 			"/>
		</defs>
		<clipPath id="SVGID_2_">
			<use xlink:href="#SVGID_1_"  style="overflow:visible;"/>
		</clipPath>
		<path class="st0" d="M-107.3,430.8v-23.1c0-1-0.8-1.8-1.8-1.8h-28.4c-0.5,0-0.9,0.2-1.3,0.5c-0.3,0.3-0.5,0.8-0.5,1.3l0,23.1
			c0,8.2,6.2,15,14.2,15.9V461c0,2.9-2.4,5.3-5.3,5.3l-5.3,0c-1,0-1.8,0.8-1.8,1.8c0,1,0.8,1.8,1.8,1.8h24.9c0,0,0,0,0,0
			c1,0,1.8-0.8,1.8-1.8c0-1-0.8-1.8-1.8-1.8h0c0,0,0,0,0,0l-5.3,0c-2.9,0-5.3-2.4-5.3-5.3v-14.3C-113.5,445.8-107.3,439-107.3,430.8
			z M-135.7,430.8l0-21.3h11.3l-3.7,11c-0.1,0.2-0.1,0.4-0.1,0.6c0,1,0.8,1.8,1.8,1.8h6l-4.6,15.1l8.7-16.2c0.1-0.2,0.2-0.5,0.2-0.8
			c0-0.9-0.7-1.7-1.7-1.7h-0.2h-6l3.3-9.8h9.8v21.3c0,6.9-5.6,12.4-12.4,12.4C-130.1,443.2-135.7,437.6-135.7,430.8z"/>
	</g>
</g>
</svg>
