<?xml version="1.0" encoding="utf-8"?>
<!-- Generator: Adobe Illustrator 19.0.0, SVG Export Plug-In . SVG Version: 6.00 Build 0)  -->
<svg version="1.1" id="Capa_1" xmlns="http://www.w3.org/2000/svg" xmlns:xlink="http://www.w3.org/1999/xlink" x="0px" y="0px"
	 viewBox="-210 325.9 173.5 190" style="enable-background:new -210 325.9 173.5 190;" xml:space="preserve">
<style type="text/css">
	.st0{fill-rule:evenodd;clip-rule:evenodd;fill:#211915;}
	.st1{fill:none;stroke:#211915;stroke-width:4;stroke-miterlimit:10;}
	.st2{fill:#211915;}
	.st3{fill:none;}
	.st4{fill:#FFFFFF;}
</style>
<g>
	<g id="XMLID_112_">
		<path id="XMLID_95_" class="st0" d="M-100.6,368.1c0.4,0.3,0.7,0.9,0.7,1.5c0,0.1,0.1,0.2-0.1,0.2c-0.5,0.3-1.7,0.7-2.3,0.7
			c-0.2,0-0.3-0.1-0.5-0.1c0,0,0,0.1,0,0.1c-0.1,0.1-0.2,0.2-0.2,0.3c-0.2,0.1-0.4,0.3-0.6,0.4c-0.3,0.2-1.2,1.7-1.2,2
			c-0.1,0-0.1,0-0.2,0c-0.1-1-0.2-2.1-0.3-3.1c0-0.1-0.1-0.2,0-0.2c0.4-0.2,1.8-0.4,1.8-1.1c0.3,0,0.6,0.3,0.8,0.2
			c0.1,0,0.1-0.2,0.3-0.2C-101.9,368.5-101,368.2-100.6,368.1C-100.6,368.1-100.6,368.1-100.6,368.1L-100.6,368.1z"/>
		<path id="XMLID_94_" class="st0" d="M-93.3,371.9c0.1,0,0.1,0,0.2,0c0.1,0.5,0.7,1.3,0.7,1.8c0,0.5-1.3,1.5-1.3,1.9
			c-0.3-0.1-2.6-2.6-2.6-2.8c0.7-0.2,1.4-0.4,2.1-0.6C-93.9,372.1-93.6,372-93.3,371.9C-93.3,372-93.3,371.9-93.3,371.9L-93.3,371.9
			z"/>
		<path id="XMLID_93_" class="st0" d="M-93.1,381.7c0-0.1,0.2,0,0.2,0C-93,381.7-93.1,381.7-93.1,381.7L-93.1,381.7z"/>
		<path id="XMLID_92_" class="st0" d="M-100.3,392.3C-100.3,392.5-100.3,392.4-100.3,392.3c0,0.1,0,0.1,0,0.2c0,0,0.1,0,0.1,0
			c0,0,0-0.1,0-0.1c0,0,0.1,0,0.1,0C-100.2,392.5-100.3,392.4-100.3,392.3L-100.3,392.3z"/>
		<path id="XMLID_91_" class="st0" d="M-105.1,396.8c0.7,0.1,1.4,0.5,2,0.7c0.3,0.1,0.6,0.2,0.9,0.3c0,0,0,0.1,0,0.1
			c0,0-0.1,0-0.1,0c0,0,0,0.1,0,0.1c-1.2,0.4-2-1.4-3.3-0.2c-0.1,0.1-0.4,0.3-0.4,0.4c0,0-0.1,0-0.1,0c0-0.1-0.1-0.2,0.1-0.2
			C-105.7,397.7-105.4,397.2-105.1,396.8L-105.1,396.8z"/>
		<path id="XMLID_90_" class="st0" d="M-107.1,398.3c0,0.1,0,0.1,0,0.2c0.1,0,0.2,0,0.2-0.2C-107,398.3-107.1,398.3-107.1,398.3
			L-107.1,398.3z"/>
		<path id="XMLID_89_" class="st0" d="M-86.2,401.8c0.2,0.5,0.9,3.9,0.7,4.4c-0.1,0.2-0.4,0.4-0.6,0.4c-0.1-0.8-0.2-1.6-0.4-2.4
			c-0.1-0.5-0.2-1-0.1-1.5C-86.5,402.3-86.3,402.1-86.2,401.8L-86.2,401.8z"/>
		<path id="XMLID_88_" class="st0" d="M-99.9,402.8c0.1,0.1,0.1,0.2,0.2,0.2C-99.7,402.9-99.8,402.9-99.9,402.8L-99.9,402.8z"/>
		<path id="XMLID_87_" class="st0" d="M-123.4,406C-123.4,406-123.4,406-123.4,406C-123.4,406-123.4,406-123.4,406L-123.4,406z"/>
		<path id="XMLID_86_" class="st0" d="M-123.1,406.2c0,0.1,0.1,0.2,0.1,0.3C-123,406.4-123.1,406.3-123.1,406.2L-123.1,406.2z"/>
		<path id="XMLID_85_" class="st0" d="M-112.5,411.1C-112.5,411.1-112.5,411.1-112.5,411.1C-112.5,411.1-112.5,411.1-112.5,411.1
			L-112.5,411.1z"/>
		<path id="XMLID_84_" class="st0" d="M-135.8,421.1C-135.8,421.2-135.8,421.1-135.8,421.1c-0.1,0.1-0.1,0.1-0.1,0.2
			C-135.8,421.1-135.8,421.1-135.8,421.1C-135.7,421.1-135.8,421.1-135.8,421.1L-135.8,421.1z"/>
		<path id="XMLID_83_" class="st0" d="M-152.5,424.1C-152.5,424.1-152.5,424.1-152.5,424.1c-0.1,0.1,0,0.2,0.1,0.2
			C-152.4,424.2-152.5,424.1-152.5,424.1L-152.5,424.1z"/>
		<path id="XMLID_82_" class="st0" d="M-152.2,424.1C-152.2,424.1-152.2,424.1-152.2,424.1C-152.2,424.1-152.2,424.1-152.2,424.1
			L-152.2,424.1z"/>
		<path id="XMLID_81_" class="st0" d="M-151.8,424.4c0,0.1-0.1,0.3,0.1,0.3C-151.7,424.6-151.7,424.5-151.8,424.4L-151.8,424.4z"/>
		<path id="XMLID_80_" class="st0" d="M-153.9,425c0,0.1-0.1,0.6,0.1,0.6C-153.8,425.5-153.8,425.2-153.9,425L-153.9,425z"/>
		<path id="XMLID_79_" class="st0" d="M-121.3,431.1C-121.3,431.1-121.3,431.2-121.3,431.1c-0.2,0.2-0.4,0.3-0.6,0.4
			c0,0,0,0.1,0,0.1c0.1,0,0.1,0,0.2,0c0.1,0,0.6,0.2,0.6,0c0,0,0.1,0,0.1,0c0-0.1-0.1-0.4,0.1-0.4
			C-121.1,431.2-121.2,431.1-121.3,431.1L-121.3,431.1z"/>
		<path id="XMLID_78_" class="st0" d="M-120.8,431.4c0,0.1-0.1,0.2,0.1,0.2c0-0.1,0-0.1,0.1-0.1
			C-120.7,431.5-120.7,431.5-120.8,431.4L-120.8,431.4z"/>
		<path id="XMLID_77_" class="st0" d="M-103.6,438.7C-103.6,438.8-103.6,438.8-103.6,438.7c0,0.2,0,0.2,0.2,0.2
			C-103.5,438.9-103.5,438.8-103.6,438.7L-103.6,438.7z"/>
		<path id="XMLID_76_" class="st0" d="M-105.8,440.5C-105.8,440.6-105.7,440.6-105.8,440.5c0,0.1,0,0.1,0,0.2c0,0,0.1,0,0.1,0
			c0,0,0-0.1,0-0.1c0,0,0.1,0,0.1,0C-105.7,440.6-105.7,440.6-105.8,440.5L-105.8,440.5z"/>
		<path id="XMLID_75_" class="st0" d="M-146.5,444.5c0.1,0.2,0.2,0.5,0.4,0.5c0,0,0-0.1,0-0.1C-146.2,444.8-146.3,444.6-146.5,444.5
			L-146.5,444.5z"/>
		<path id="XMLID_74_" class="st0" d="M-92.2,449c0.3,0.2,0.4,0.6,0.5,0.9c0.2,0.4,0.4,0.9,0.5,1.4c0,0.4-0.7,2.7-0.9,3
			c-0.2,0.3-1.3,1-1.6,1c-0.2-0.3-1-0.9-1-1.3c-0.1-0.6,0.7-2,0.9-2.6c0.1-0.4,0.2-0.8,0.4-1.1C-93.2,449.8-92.7,449.5-92.2,449
			L-92.2,449z"/>
		<path id="XMLID_69_" class="st0" d="M-157.1,450.7c0,0.1-0.2,0.3,0,0.3c0,0,0,0.1,0,0.1c0,0,0.1,0,0.1,0
			C-157,450.9-157,450.8-157.1,450.7C-157.1,450.7-157.1,450.7-157.1,450.7L-157.1,450.7z"/>
		<path id="XMLID_68_" class="st0" d="M-153.1,455.3c0,0.1,0.1,0.1,0.1,0.2C-153,455.4-153,455.3-153.1,455.3L-153.1,455.3z"/>
		<path id="XMLID_67_" class="st0" d="M-89.6,455.7c0,0.1,0,0.1,0,0.2C-89.6,455.8-89.6,455.7-89.6,455.7L-89.6,455.7z"/>
		<path id="XMLID_66_" class="st0" d="M-90.5,457C-90.5,457-90.5,457-90.5,457C-90.5,457-90.5,457-90.5,457L-90.5,457z"/>
		<path id="XMLID_65_" class="st0" d="M-162.2,461.8C-162.2,461.8-162.2,461.8-162.2,461.8C-162.2,461.8-162.2,461.8-162.2,461.8
			c0.1,0.1,0.1,0.1,0.1,0.2c0.1-0.1,0.1-0.1,0.1-0.2C-162.1,461.8-162.2,461.8-162.2,461.8L-162.2,461.8z"/>
		<path id="XMLID_64_" class="st0" d="M-162,461.9C-162,462-162,462-162,461.9c0.1,0.1,0.1,0.1,0.1,0.2
			C-161.8,462-161.8,462-162,461.9C-161.9,462-161.9,462-162,461.9L-162,461.9z"/>
		<path id="XMLID_63_" class="st0" d="M-176.6,469.2C-176.6,469.3-176.6,469.3-176.6,469.2C-176.6,469.3-176.6,469.3-176.6,469.2
			L-176.6,469.2z"/>
		<path id="XMLID_61_" class="st0" d="M-185.3,473.2c0,0.1,0,0.2,0.2,0.2C-185.2,473.4-185.3,473.3-185.3,473.2L-185.3,473.2z"/>
		<path id="XMLID_60_" class="st0" d="M-108,477.9c0,0.1,0,0.5,0.1,0.5c0,0,0-0.1,0-0.1C-107.9,478.2-107.9,478-108,477.9
			L-108,477.9z"/>
		<path id="XMLID_59_" class="st0" d="M-61.2,376.9C-61.2,376.8-61.2,376.8-61.2,376.9L-61.2,376.9z"/>
		<polygon id="XMLID_58_" class="st0" points="-61.2,376.9 -61.2,376.9 -61.2,376.9 		"/>
		<path id="XMLID_114_" class="st0" d="M-62.6,416.8c-0.1-1.1-0.3-2.3-0.4-3.4c-0.6-4.2-1.5-8.2-2.9-12c-0.2-0.5-0.5-1.1-0.7-1.6
			c-3.9-9.9-10.8-18.7-19.6-25.3c-1.4-1-2.8-2.1-4.3-2.9c-1.6-0.9-3.2-1.8-4.9-2.6c-2.1-0.9-4.2-1.8-6.4-2.6c-3-1.1-6.2-2-9.5-2.5
			c-2.6-0.4-5.1-0.6-7.9-0.7c-0.6,0-1.1-0.2-1.8-0.2c-0.2,0.1-0.3,0.2-0.5,0.2c-0.6,0-1.8-0.1-2.3,0.1c-0.5,0-1.9,0-2.4,0.2
			c-0.3,0-0.6,0-0.8,0.1c-0.2,0-0.4,0.1-0.6,0.1c-0.3,0-0.6,0-0.8,0.1c-0.3,0-0.7,0-1,0.2c-0.3,0-0.8,0-1.1,0.2
			c-0.2,0-0.4,0.1-0.6,0.1c-0.2,0-0.3,0.1-0.5,0.1c-0.2,0-0.3,0.1-0.5,0.1c-0.6,0-1.1,0.2-1.5,0.3c-1.1,0.2-2.2,0.5-3.3,0.9
			c-4.5,1.4-8.8,3.1-12.9,5.4c-1.2,0.7-2.5,1.4-3.7,2.2c-2.6,1.8-5,3.7-7.4,5.9c-0.2,0.2-0.4,0.3-0.7,0.3c0,0,0,0-0.1,0
			c0,0.2-0.4,0.3-0.3,0.8c-0.1,0-3.2,3.5-3.5,3.9c-0.8,1-1.5,1.9-2.3,2.9c-2.6,3.8-5.1,7.5-6.8,11.7c-1.7,4.1-3.3,8.7-4,13.3
			c-0.3,2.4-0.8,4.9-0.8,7.5c-0.1,7.6,0.8,14.2,2.9,20.7c0.9,2.6,1.9,5.1,3.1,7.5c0.4,0.8,0.8,1.5,1.2,2.3c0.8,1.3,1.6,2.7,2.4,4
			c1.7,2.5,3.6,5,5.7,7.3c0.9,1,1.8,1.9,2.8,2.8c0.4,0.4,0.8,0.7,1.1,1.1c0.4,0.3,0.9,0.7,1.2,1.1c0,0,0.1,0,0.1,0c0,0,0,0.1,0,0.1
			c0,0,0.1,0,0.1,0c0-0.1,0.1-0.2,0.1-0.3c0,0,0.1,0,0.1,0c0,0,0,0.1,0,0.1c0.1,0,0.1,0,0.1,0.1c0,0.2,0,0.3,0.1,0.4
			c0.3,0.4,0.8,0.7,1.1,1c1,0.8,2.1,1.6,3.1,2.3c4,2.8,8.8,5.3,13.4,6.9c4.2,1.5,8.6,2.6,13.4,3.1c12.9,1.5,26.1-1.7,36-7.6
			c2.7-1.6,5.4-3.3,7.8-5.4c1.6-1.4,3.1-2.8,4.6-4.3c0.5-0.5,1-1.1,1.6-1.6c5.3-6.2,9.4-12.8,11.9-20.3c0.5-1.4,1-2.9,1.4-4.4
			C-62.8,429.9-62.2,423.7-62.6,416.8L-62.6,416.8z M-79.1,382c0.7,0.5,1.3,1.2,1.8,1.9c0.7,0.9,1.4,1.7,2.1,2.6
			c3.6,4.7,6.3,9.7,8.4,15.2c0.9,2.4,1.5,5,2.2,7.6c0.2,1,1.7,9.8,1.1,10.3c-0.3,0.3-2.2,0.1-2.7,0.1c-1.6,0-3.2,0-4.8,0
			c-0.9,0-2-0.1-2.9,0c0-0.1-0.2-0.2-0.2-0.3c0-0.3-0.1-0.6-0.1-0.9c-0.3-4.3-1.1-8.3-2.4-12.1c-0.3-0.9-0.6-1.7-0.9-2.6
			c-0.8-1.6-1.4-3.2-2.3-4.8c-0.3-0.6-1.1-1.5-1.1-2.1c0-0.5,1.6-1.6,1.9-2c0.1,0,0.1,0,0.1-0.1c-0.1,0-0.1,0-0.1-0.1
			c-0.5-0.7-1.2-1.3-1.8-1.9c-1.5-1.5-3-3.1-4.5-4.6c0,0-0.1,0-0.1,0C-85.2,388-79.8,382.8-79.1,382L-79.1,382z M-86.5,452.2
			C-86.5,452.2-86.5,452.1-86.5,452.2c-0.7-0.5-1.2-1.2-1.7-1.8c-1.3-1.3-2.6-2.7-3.9-4c-0.3-0.3-1.2-1-1.3-1.4c0,0,0-0.1,0-0.1
			c0.1-0.5,0.9-1.2,1.2-1.6c1-1.3,1.9-2.6,2.7-4c0.9-1.5,1.5-3.1,2.2-4.7c0.4-0.9,0.7-1.8,1-2.7c0.2-0.9,0.4-1.7,0.7-2.6
			c0.1-0.6,0.2-1.2,0.4-1.9c0.1-0.5,0.1-1,0.2-1.5c0.1-1.1,0.2-2.3,0.3-3.5c0-0.5,0-1,0.1-1.4c0-0.1,0.1-0.2,0.2-0.3
			c0,0,0-0.1,0-0.1c2.5,0,5.2-0.1,7.7,0c0.6,0,1.5-0.2,2,0.1c0.1,0,0.1,0,0.1,0.1c-0.1,1.9-0.1,3.7-0.3,5.6
			c-0.2,1.3-0.4,2.6-0.6,3.9c-0.3,1.7-0.9,3.4-1.3,5c-1.1,4.1-3.2,8-5.4,11.6c-0.6,0.9-1.2,1.7-1.9,2.6
			C-84.8,450.2-85.8,451.8-86.5,452.2C-86.5,452.2-86.4,452.2-86.5,452.2L-86.5,452.2z M-145.3,433.7c-0.3-1.1-1.1-2-1.4-3.2
			c-0.2-0.9,0.1-2,0-2.9c-0.1-0.8-0.8-1.5-1.1-2.2c-0.1-0.2,0-0.5,0-0.7c-0.1-0.6-0.2-1.2-0.5-1.8c-0.7-0.9-1.4-1.8-2.1-2.7
			c0.4,0,0.6-0.5,0.9-0.7c0.5-0.2,1.3-0.3,1.8-0.4c0,0.1,0,0.1,0,0.2c-0.2,0-0.3,0.2-0.4,0.3c-0.1,0,0,0.3,0,0.4
			c0.2,0.9,0.4,1.7,0.6,2.6c0.1,0.5-0.1,1,0,1.5c0.7,0,1.3,0,1.9,0c-0.2-0.5-0.5-0.9-0.7-1.4c-0.2-0.5,0.2-0.9,0.2-1.4
			c0-0.9-0.6-1.8-0.6-2.7c-0.1,0-0.2,0-0.2,0c0,0.1-0.1,0.1-0.2,0.1c-0.2,0-0.4-0.2-0.5-0.4c-0.1-0.2-0.3-0.5-0.4-0.7
			c-0.1-0.4,0.9-1,1.2-1.3c0.8,0,1.9,0.2,2.3,0.9c0.2,0.3,0.2,0.7,0.2,1.1c0,0.3,0.2,0.8,0,1.1c-0.2,0.4-0.9,0.6-1.2,0.8
			c0,0.1,0,0.1,0,0.2c0.1,0.3,0.2,0.6,0.5,0.8c0.3,0.2,1-0.2,1.1,0.2c0.1,1.1,0.3,2.2,0.4,3.3c0.5,2.6,1.5,5.5,2.9,7.7
			c0.9,1.4,1.8,2.7,2.9,4c0.1,0.1,0.2,0.2,0.1,0.4c0,0.3-0.5,0.7-0.8,0.9c-0.8,0.9-1.6,1.8-2.5,2.5c-0.4,0.4-0.7,0.7-1.1,1.1
			c-0.2,0-0.3-0.2-0.4-0.3c-0.7-0.9-1.3-1.9-2-2.8c-0.3-0.5-0.8-0.9-1-1.4c-0.1-0.2,0-0.6,0-0.8
			C-145.3,435.5-145.2,434.5-145.3,433.7L-145.3,433.7z M-155.3,452.4c-0.7-0.8-1.4-1.6-2-2.4c-1.6-2.1-3-4.3-4.3-6.6
			c-0.5-0.9-1.2-2-1.4-3c0.1,0,0.3-0.1,0.4-0.2c0.1,0,0.3,0.1,0.4,0.1c0.2,0.1,0.3,0.7,0.6,1c1.3,1.2,2.6,2.3,3.9,3.5
			c1.6,1.4,3.9,1.1,5.8,2c0.7,0.3,1.2,1.2,2,1.4c0.3,0,0.7,0,1,0.1c0,0.3-4.7,5-5.3,5.3c0,0,0-0.1,0-0.1
			C-154.6,453.2-155,452.7-155.3,452.4L-155.3,452.4z M-121.2,396.1c-0.1,0.3-0.6,0.2-0.9,0.3c-0.2,0-0.5,0.1-0.7,0.1
			c-0.2,0-0.4,0.1-0.6,0.1c-0.2,0-0.3,0.1-0.5,0.1c-0.8,0-1.6,0.3-2.4,0.5c-3.1,0.9-5.9,2.3-8.4,4.3c-0.8,0.7-1.5,1.3-2.3,2
			c0,0,0,0.1,0,0.1c0,0-0.1,0-0.1,0c-0.6-0.5-1.1-1-1.6-1.5c-0.9-0.9-1.8-1.9-2.8-2.8c-0.5-0.5-1-1-1.4-1.5c-0.5-0.5-1.2-1-1.6-1.6
			c-0.1,0-0.1,0-0.1-0.1c0.1,0,0.2-0.1,0.2-0.2c1.6-1.6,3.5-2.8,5.3-4c0.3-0.2,0.7-0.4,1-0.7c3.2-1.7,6.6-3.1,10.4-3.9
			c1.1-0.2,2.2-0.4,3.3-0.5c0.5-0.1,1.1-0.1,1.6-0.2c0.5,0,1,0,1.5,0c0,2.5,0,4.9,0,7.3C-121.1,394.5-121,395.6-121.2,396.1
			L-121.2,396.1z M-143.9,397.9c0.7,0.7,1.3,1.4,2,2c0.8,0.8,1.6,1.6,2.5,2.5c0.3,0.3,0.8,0.7,1,1.2c-0.1,0-0.2,0.1-0.3,0.1
			c-1,0-2.3-0.2-3.2,0.1c-0.6,0.1-1.3,0.8-1.8,1.1c-0.5,0.3-1,0.7-1.5,1c-0.7,0.7-1.4,1.3-2,2c-0.8,1.3-1.6,2.6-2.3,3.8
			c-0.1,0-0.1,0.1-0.1,0.2c0.2,0,0.3,0.2,0.3,0.4c0,0.5-0.7,1.4-0.9,1.9c-0.2,0.7-0.4,1.3-0.6,2c-0.2,0.6-0.8,3.3-1.2,3.6
			c-0.3,0.2-3,0.1-3.7,0.1c0,0,0-0.1,0-0.1c-0.2,0-0.1-0.6-0.1-0.7c0.3-2.1,0.5-4,1-5.9c0.6-2.2,1.3-4.4,2.3-6.4
			c0.3-0.6,0.6-1.2,0.8-1.8c0.9-1.6,1.9-3,3-4.5c0.3-0.4,0.6-0.9,1-1.3c0.8-0.8,1.6-1.7,2.4-2.5
			C-144.8,396.9-144.4,397.5-143.9,397.9L-143.9,397.9z M-146.8,397.1c-0.5,0.6-1.1,1.1-1.5,1.7c-0.6,0.8-1.2,1.6-1.9,2.4
			c-1,1.5-1.9,3.1-2.8,4.7c-0.3,0.6-0.6,1.3-0.9,1.9c-0.1,0-0.2,0.4-0.2,0.5c-0.4,1.1-0.8,2.1-1.1,3.2c-0.2,0.7-0.3,1.4-0.5,2.1
			c-0.5,2-0.9,4.1-0.9,6.3c0,0-0.1,0-0.1,0c0,0.1-0.9,0.1-1.1,0.1c-3,0-6,0-9,0c0-7.9,2.7-15.1,6.1-21.3c0.6-1,1.2-2,1.8-3
			c1.2-1.7,2.5-3.3,3.9-4.8c0.6-0.7,1.2-1.3,1.8-2c0.7,0.3,1.6,1.3,2.1,1.9c1.1,1.1,2.2,2.1,3.2,3.2c0.6,0.6,1.7,1.4,2,2.1
			C-146,396.1-146.7,396.9-146.8,397.1L-146.8,397.1z M-156.8,420.7c0,0.9-1.7,2.5-2.3,3.2c-0.7,0.7-0.5,2.1-0.9,3
			c-0.2,0.4-0.8,0.6-1.2,0.7c-0.6,0.2-1.2,0.6-1.9,0.7c-1.1,0.2-2.3-0.1-3.4-0.1c0-0.3-0.2-0.9-0.2-1.2c-0.1-0.9-0.1-1.8-0.2-2.8
			c-0.1-1.1-0.2-2.4,0-3.4C-163.5,420.7-160.1,420.7-156.8,420.7L-156.8,420.7z M-143.6,448c0.7,0,2.5,0,3-0.3
			c0.4-0.2,0.7-0.7,1-1.1c0.2-0.2,0.4-0.4,0.4-0.7c-0.1-0.9-2.3-2.8-2.1-3.6c0.1-0.4,1-1.2,1.3-1.5c1-1.1,2.1-2.1,3.1-3.2
			c0.1,0,0.1,0,0.2,0.1c0.5,0.3,1,0.9,1.5,1.3c0.8,0.6,1.5,1.1,2.3,1.7c1.2,0.8,2.6,1.5,3.9,2.1c0.9,0.3,1.7,0.6,2.6,0.9
			c0.1,0.1,0.1,0.1,0.2,0.2c0.2,0.3,0.2,0.7,0.3,1c0.2,0.9,0.3,1.8,0.5,2.7c0.1,0.1,0.1,0.2,0.2,0.4c0.3,0.3,0.6,0.5,0.9,0.8
			c0.5,0.5,1.1,1,1.6,1.5c0.2,0.2,0.4,0.4,0.6,0.5c0.4,0.2,0.9,0.2,1.3,0.2c0,1.9,0,3.7,0,5.6c0,0-0.1,0-0.1,0
			c0,0.1-0.5,0.1-0.6,0.1c-2,0-3.9-0.2-5.7-0.5c-4.8-1-9.3-2.7-13.2-5.4c-1.1-0.8-2.1-1.7-3.2-2.5
			C-143.6,448.1-143.6,448.1-143.6,448L-143.6,448z M-122.2,438c-0.5,0.3-1,1-1.4,1.4c-0.6,0.6-1.1,1.2-1.7,1.8
			c-0.3,0.5-0.4,1.2-0.7,1.7c0,0,0,0.1,0,0.1c-0.7,0-1.5-0.5-2.1-0.7c-2.1-0.8-4-1.9-5.8-3.3c-0.8-0.6-1.4-1.3-2.2-1.9
			c0,0,0-0.1,0-0.1c0.1-0.4,7-7.4,7.6-7.7c0,0,0-0.1,0-0.1c1.1,0.8,2,1.7,3.2,2.3c0.4,0.2,0.8,0.3,1.2,0.5c0.6,0.2,2.3,0.3,2.6,0.8
			c0.3,0.4,0,1.4-0.1,1.7c-1.1,0-1.7-0.5-1.8,1c0,0.3-0.1,0.7,0.1,0.9c0.2,0.2,0.5,0.4,0.7,0.5c0.1,0.2,0.3,0.3,0.4,0.5
			c0,0.1,0,0.1,0.1,0.1c0-0.5,0.7-0.7,1-1c0.4-0.4,0.5-1,0.8-1.3c0.2-0.2,0.4-0.3,0.6-0.3c1-0.4,1,0.3,1.8,0.5c0.3,0,0.6,0,0.9,0
			c0.2,0,0.5,0.1,0.7,0.1c0-0.2,0.2-0.4,0.3-0.6c0.3,0,0.5,0.4,0.6,0.6c0.4,0,0.8-0.1,1.1-0.1c0.5,0,0.8,0.8,0.9,1.2
			c-0.3,0-1.8,0.5-2.1,0.6c-0.1,0.2-0.3,0.3-0.4,0.5c-0.1,0.1-0.2,0.1-0.3,0.2c-0.5,0-1.7,0.1-2-0.2c-0.1-0.3-0.3-0.5-0.4-0.8
			c0,0,0-0.1,0-0.1c-0.5,0.1-0.9,0.3-1.4,0.4C-120.6,437.5-121.5,437.6-122.2,438L-122.2,438z M-112.8,454.1
			c0.1,0.9,0.1,1.5-0.7,1.8c-0.2,0.1-0.5,0.1-0.7,0.2c-0.3,0-0.7,0-1,0.2c-0.2,0-0.3,0.1-0.5,0.1c-0.2,0-0.4,0.1-0.6,0.1
			c-0.2,0-0.5,0.1-0.7,0.1c-0.2,0-0.4,0.1-0.6,0.1c-0.4,0-1-0.1-1.4,0.1c-0.3,0-0.5-0.1-0.8-0.1c-0.2,0-0.1-0.3-0.1-0.4
			c0-1.7,0-3.4,0-5.1c0.1,0,0.2-0.1,0.3-0.2c1.2,0,2.4,0,3.6,0c0.5,0,1.5-0.1,1.8,0.1c0.4,0.3,0.7,1,0.9,1.5
			C-113.2,453-112.8,453.5-112.8,454.1L-112.8,454.1z M-120,465c0-2.5,0-5,0-7.5c0,0,0.1,0,0.1,0c0-0.1,0.6-0.1,0.7-0.1
			c1.5-0.1,3-0.3,4.5-0.5c0.6-0.1,1.2-0.1,1.7-0.3c0,0,0.1,0,0.1,0c0,0.3,2.6,4.2,2.9,4.4c0.7,0.4,1.6,0.6,2.3,0.9
			c1.1,0.4,2.2,0.8,3.2,1.1c0.1,0,0.3,0,0.4,0c0.6-0.1,1.3-0.3,1.8-0.6c0.9-0.6,1.8-1.7,2.7-2.4c0.5-0.5,1.1-1,1.6-1.5
			c0.4-0.5,0.6-1.7,0.8-2.3c0.4-1.6,0.9-3.2,1.3-4.8c0.1-0.5,0.3-1,0.4-1.6c0-0.7-0.7-1.6-0.5-2.3c0.1-0.3,1.4-1.7,1.8-1.8
			c0,0,0-0.1,0-0.1c0.7,0.3,1.4,1.2,2,1.8c1.7,1.8,3.4,3.5,5.2,5.3c0,0.6-4,4-4.7,4.6c-4,3.2-8.5,5.8-13.3,7.5
			c-1.4,0.5-2.8,1-4.3,1.3c-0.6,0.1-1.8,0.3-2.3,0.6c-0.4,0-0.9,0.1-1.3,0.2c-0.2,0-0.3,0.1-0.5,0.1c-0.2,0-0.3,0.1-0.5,0.1
			c-0.2,0-0.4,0.1-0.6,0.1c-0.2,0-0.4,0.1-0.6,0.1c-0.3,0-0.6,0-0.8,0.1c-0.2,0-0.4,0.1-0.6,0.1c-0.4,0-0.8,0-1.1,0.1
			c-0.4,0-1-0.1-1.4,0.1c-0.3,0-0.6,0-0.9-0.1c0,0-0.1,0-0.1,0C-120.2,466.9-120,465.8-120,465L-120,465z M-94.6,399.8
			c0.2,0.3,0.4,0.6,0.7,0.7c0.5,0.2,1.1,0.1,1.5,0.5c0.4,0.4,0.7,0.9,1,1.4c0.8,1.2,1.5,2.5,2.2,3.8c0.3,0.6,0.7,1.3,0.9,2
			c0.1,0.3-0.1,0.8-0.2,1.1c0,0,0,0.1,0,0.1c0.1,0,0.1,0,0.2,0c0-0.1,0.1-0.2,0.2-0.2c0,0,0-0.1,0-0.1c0.1,0,0.1,0,0.2,0
			c0,0.1,0,0.1,0.1,0.1c0.1,0.2,0.1,0.4,0.2,0.6c0,0.4-0.1,0.7-0.2,1c0.1,0,0.1,0,0.2,0c0,0.1,0.2,0.1,0.3,0.2
			c0.1,0.2,0.2,0.3,0.3,0.5c0.6,2.1,1.1,4.2,1.3,6.5c0,0.6,0.2,1.2,0.1,1.8c0.1,0,0,0.1,0,0.2c-0.9,0-1.9,0.1-2.8,0.1
			c-0.5,0-1.1-0.2-1.5,0c-0.6,0-2.7,0.1-3.1-0.2c-0.3-0.2-0.9-1.7-0.9-2.1c-0.1-0.6,0.3-4,0.6-4.3c0.4-0.5,1.3-0.6,1.8-0.9
			c0.3-0.2,0.4-0.5,0.6-0.8c0.3-0.3,0.8-0.2,1.1-0.4c0.4-0.4,0.8-0.9,1.2-1.3c0-0.1,0-0.1-0.1-0.2c0,0,0,0.1,0,0.1
			c-0.3,0-0.5,0.4-0.8,0.4c-0.5,0.1-1-0.1-1.5-0.1c0,0,0-0.1,0-0.1c0,0-0.1,0-0.1,0c0-0.4,1-1.2,1-1.8c0-0.4-0.5-0.7-0.7-0.9
			c-0.3-0.3-0.8-0.9-1.2-1.1c-0.3-0.1-0.7-0.1-1.1-0.1c-0.8,0-1.9,0.1-2.7-0.1c-0.5-0.2-0.9-1.2-1.3-1.5c-0.4-0.5-1.1-0.9-1.7-1.1
			c0,0,0-0.1,0-0.1c-0.1,0-0.1-0.1-0.1-0.2c0.5,0,0.9,0.1,1.4,0.2c0-0.7-1.1-0.6-1.5-0.9c0,0-0.1,0-0.1,0c0-0.3,3.8-3.7,4.3-4.4
			c0.2,0.1,0.4,0.3,0.6,0.6c0.1,0,0.1,0,0.1,0.1c-0.1,0-0.4,0.4-0.5,0.6C-94.9,399.5-94.7,399.7-94.6,399.8L-94.6,399.8z
			 M-92.5,395.7c0-0.4,1.2-1.4,1.5-1.7c0.6,0.1,1,0.5,1.4,0.9c0.5,0.4,1.1,0.8,1.7,1.2c0.4,0.4,0.7,0.7,1.1,1.1
			c0.6,0.5,1,1.2,1.6,1.6c0.3,0.2,1.7,0.3,2.1,0.2c0.4-0.1,1.2-1.2,1.6-1c0.3,0.2,1,1.5,1.2,1.9c1.9,3.5,3.2,7.1,4.2,11.1
			c0.2,0.9,1.6,8.2,1,8.9c-0.3,0.4-8.8,0.2-9.8,0.1c0,0,0-0.1,0-0.1c-0.1,0-0.1-0.1-0.1-0.2c0-1-0.2-2-0.3-3
			c-0.2-1.7-0.7-3.3-1.1-4.9c-0.2-0.6-0.3-1.2-0.5-1.8c-0.1-1.1,1.2-1.8,0.8-2.9c0-0.1,0-0.1,0-0.2c0,0-0.1,0-0.1,0c0,0,0,0.1,0,0.1
			c-0.1,0-0.9,1-1.1,1.2c0,0,0,0.1,0,0.1c0,0-0.1,0-0.1,0c0-0.2,0-0.4,0-0.6c-0.1,0-0.2,0.1-0.3,0.1c-0.1-0.3-0.3-0.6-0.4-0.9
			c-0.5-1-0.9-2.2-1.6-3.1c0,0,0-0.1,0-0.1c0.2,0,0.3,0.2,0.4,0.2c0,0.1,0,0.1,0.1,0.1c0,0,0.7-0.8,0.8-1c0,0,0.1,0,0.1,0
			c0,0,0,0,0-0.1c-0.6-1.1-1.2-2.2-2-3.3c-0.3-0.3-0.5-0.7-0.8-1c-0.4-0.3-0.9-0.3-1.3-0.6c-0.1,0-0.1,0-0.1-0.1
			c0.1,0,0.3-0.3,0.4-0.4C-91.8,396.5-92.6,396.4-92.5,395.7L-92.5,395.7z M-95.4,443.1c-0.1,0-0.1,0-0.2-0.1c0,0.1,0,0.1,0,0.2
			c-0.1,0-0.2-0.3-0.3-0.5c-0.3-0.4-1-0.9-1.1-1.4c-0.1-0.3,0-0.6-0.1-0.9c-0.1-0.5-0.5-2.9-0.8-3.2c-0.5-0.5-1.7,0.4-2.2,0.6
			c-0.2,0-0.4,0-0.6,0.1c0,0,0-0.1,0-0.1c0,0-0.1,0-0.1,0c0-0.1,0-0.1,0.1-0.2c0.3-0.4,1.5-1.3,1.6-1.7c0.3-0.7-0.3-1.7-0.2-2.5
			c0.1-0.6,0.6-1.1,0.9-1.6c0.4-0.7,0.7-1.5,1.1-2.2c0.3-0.8,0.6-1.5,0.8-2.3c0.2-0.7,0.4-1.4,0.6-2.1c0-0.1,0.1-0.1,0.1-0.2
			c0.3-0.3,0.9-0.4,1.3-0.5c1.1-0.3,3.3-0.7,3.8-1.8c0.2,0-0.4-0.9-0.5-1.1c-0.1,0-0.1-0.1-0.1-0.2c0.4,0,0.9,0.6,1.2,0.2
			c-0.1-0.5-1.2-0.7-1.5-0.4c-0.5,0-1-0.4-1.4-0.6c0,0-0.1,0-0.1,0c0-0.1,0-0.1,0-0.2c0.6,0,1.3,0.1,1.9-0.1c1.2,0,2.3,0,3.6,0
			c0.5,0,1,0.1,1.5,0c0,0,0,0.1,0,0.1c0.1,0,0.1,0.1,0.1,0.2c0.2,0.7,0.1,1.6,0,2.3c-0.1,1.5-0.1,3-0.5,4.4
			c-0.6,2.6-1.3,5.1-2.2,7.5c-1,2.5-2.4,4.7-4,7c-0.5,0.7-1,1.7-1.7,2.2C-94.2,444.5-95.3,443.3-95.4,443.1L-95.4,443.1z
			 M-94.8,444.8c0,0.1,0,0.1,0,0.2c0,0-1.3,1.4-1.5,1.6c-0.2,0-0.4-0.3-0.4-0.5c-0.5-1.1-0.5-2.2-0.4-3.4
			C-96.2,443.1-95.6,444.2-94.8,444.8L-94.8,444.8z M-99.3,427c0.4-0.3,0.8-0.7,1.2-1c0.3-0.1,0.5-0.2,0.8-0.3c0.1,0,0.3,0,0.4,0
			c0,0.7-0.3,1.3-0.5,2c-0.5,1.6-1.2,3-2,4.4c0,0-0.1,0-0.1,0c0,0,0,0.1,0,0.1c0,0-0.1,0-0.1,0c-0.1-0.4-0.1-0.8-0.2-1.2
			c-0.1-0.7,0-1.8-1.1-1.4c-0.2,0.1-0.3,0.6-0.6,0.8c-0.3,0.3-2,0.7-2.6,0.8c0,0,0-0.1,0-0.1c0,0-0.1,0-0.1,0c0-0.2,0.1-0.4,0.2-0.5
			c0.3-0.5,1.2-0.4,1.7-0.8C-101.2,428.7-100.3,427.8-99.3,427L-99.3,427z M-120.2,373.5c0-2.5,0-5,0-7.5c0.1-0.7-0.2-1.4,0.1-2
			c9.8,0,19,2.7,26.7,6.8c2,1.1,3.8,2.3,5.7,3.6c2.3,1.6,4.5,3.4,6.6,5.4c0.3,0.3,1.3,1,1.3,1.5c0,0.6-5.2,5.3-5.9,6.2
			c-0.3,0-4-3.8-4.1-4.2c0-0.3,0-0.5,0-0.8c0-0.9,0-1.8-0.1-2.7c0-0.4,0-0.7-0.1-1c-0.3-0.5-0.9-1-1.4-1.5c-0.5-0.5-1-1-1.5-1.5
			c-0.4-0.3-1-0.1-1.4-0.3c-0.5-0.3-0.9-0.7-1.4-1c-0.4-0.2-0.7-0.4-1.1-0.6c-0.3-0.1-0.6-0.4-0.9-0.4c0,0-0.1,0-0.1,0
			c0,0-0.1,0-0.1,0c-0.5,0.1-1,0.3-1.5,0.5c-1.5,0.6-3,1.1-4.5,1.7c0,0.6,0,1.3,0,1.9c0,0-0.1,0-0.1,0c0,0,0,0.1,0,0.1
			c-0.5-0.2-0.9-0.3-1.4-0.5c-1.3-0.5-2.7-0.9-4.1-1.2c-3.4-0.8-6.9-1.3-10.7-1.3c0,0,0-0.1,0-0.1
			C-120.3,374.7-120.2,373.7-120.2,373.5L-120.2,373.5z M-120.1,375.6c1,0,1.9,0.1,2.9,0.1c1.2,0.1,2.4,0.3,3.6,0.4
			c2.9,0.5,5.6,1.2,8.2,2.1c0.5,0.2,1.5,0.4,1.8,0.8c0.4,0.5,0.5,1.7,0.7,2.3c0.4,1.6,0.8,3.1,1.2,4.7c0.1,0.5,0.2,1.1,0.4,1.5
			c0,0.2,0.5,0,0.6,0c1.1-0.5,2.1-0.9,3.2-1.4c0.5-0.2,1-0.6,1.6-0.5c0,0.6,0.7,1.1,0.6,1.8c-0.1,0.7-1.4,1.2-1.4,1.9
			c0,0.4,0.7,1.5,1,1.7c1.4,0.8,2.8,1.6,4.3,2.4c0,0.1,0,0.1,0,0.2c-0.1,0-1.2,1.1-1.4,1.3c0,0,0,0.1,0,0.1c-0.1,0-0.1,0-0.2,0
			c0-0.2-0.3-0.6-0.4-0.7c0,0,0-0.1,0-0.1c-0.3,0-0.6,1.3-0.7,1.5c0,0,0,0.1,0,0.1c0,0-0.1,0-0.1,0c0,0,0-0.1,0-0.1
			c-0.2,0-0.4-0.3-0.6-0.4c-0.5-0.1-1.2,0.1-1.6-0.1c-0.5-0.2-0.9-0.8-1.4-1.1c-0.8-0.6-1.6-1.2-2.4-1.8c-0.3-0.3-0.5-0.5-0.8-0.8
			c-0.3-0.3-0.8-0.8-1-1.2c-0.4-0.7,0.1-2-0.4-2.6c-0.3-0.4-0.8-0.7-1.2-1c-0.9-0.7-1.9-1.5-2.8-2.2c-0.4-0.3-1-0.7-1.4-1.1
			c-0.1,0-0.1,0-0.2,0c0,0.9,1.2,4.4,0.9,4.9c-0.1,0.2-1.2-0.2-1.4-0.3c-2.3-0.9-4.9-1.6-7.4-1.9c-1.3-0.1-2.6-0.2-4-0.3
			c-0.2,0-0.2-0.7-0.2-0.9c-0.1-1.2,0-2.4,0-3.6C-120.2,379.3-120.3,377.3-120.1,375.6L-120.1,375.6z M-120.2,389.3
			c0-0.9-0.2-1.9,0.1-2.8c4,0,7.7,0.8,11.1,2c0.6,0.2,1.4,0.4,2,0.8c0.3,0.3,0.4,0.7,0.7,1c0.7,0.6,1.4,1.2,2.1,1.9
			c0.7,0.7,1.4,1.5,2.3,2c0,0.1,0,0.1,0.2,0.1c0-0.2,0.4-0.5,0.6-0.6c0.3-0.2,0.5-0.5,0.9-0.5c0.3,0,0.7,0.4,0.9,0.5
			c0.9,0.6,1.7,1.3,2.5,2.1c0.4,0.4,0.9,0.8,1.3,1.3c0,0,0,0.1,0,0.1c-0.1,0.2-4.9,5.2-5.3,5.3c-0.3,0.1-0.6,0-0.9,0
			c-0.4,0-1.1,0.4-1.4-0.2c-0.4-0.9,0.6-1.3,1.2-1.6c0,0,0.1,0,0.1,0c0-0.3-0.4-0.3-0.6-0.3c-0.3,0.1-0.6,0.3-0.9,0.4
			c0,0-0.1,0-0.1,0c-0.4-0.1-0.8-0.7-1.1-1c-0.7-0.6-1.8-0.6-2.7-0.5c0-0.1,0-0.1,0-0.2c0,0,0.1,0,0.1,0c0.3-0.4,0.6-0.5,0.9-0.7
			c0.1-0.1,0.2-0.2,0.2-0.3c-0.3,0-0.6-0.1-0.8-0.1c-0.2,0.1,0.1,0.9-1.1,0.8c-0.4,0-0.7-0.3-1.1-0.4c-0.7-0.3-1.4-0.6-2-0.9
			c-2.7-0.9-5.6-1.5-8.8-1.4c0-0.3-0.2-0.6-0.2-1C-120.3,393.3-120.2,391.3-120.2,389.3L-120.2,389.3z M-120.2,404.5
			c0-1.6,0-3.3,0-4.9c0-0.8,0-1.7,0.1-2.6c4.2,0,8.1,0.7,11.3,2.6c0,0.1,0,0.1,0,0.2c-0.2,0-0.5,0.5-0.6,0.6c0,0-0.1,0-0.1,0
			c0,0,0,0.1,0,0.1c0.4,0,0.9-0.4,1.4-0.5c0,0.1,0,0.1,0,0.2c-0.1,0-0.9,0.9-1,1.1c-0.1,0,0.3,0.5,0.4,0.6c0,0.4-1.3,1.7-1.7,1.9
			c-0.3,0.1-0.6,0.1-0.9,0.2c-0.3,0-0.6,0-0.8,0.1c-0.6,0-1,0.3-1.5,0.6c0,0,0,0.1,0,0.1c-0.2,0-0.5-0.1-0.7-0.2c0,0-0.1,0-0.1,0
			c0-0.1,0-0.1,0-0.2c0.1,0,0.6-0.9,0.6-1.1c0.1,0-0.2-1.3-0.2-1.5c-0.1,0-0.1,0-0.2,0c0,0.1-0.8,0.9-0.9,1.1c0,0-0.1,0-0.1,0
			c0,0,0,0,0,0.1c0.3,0.8,0.2,0.7-0.4,1.1c-0.2,0-0.3,0.1-0.5,0.1c-0.6,0-2.3,0.3-2.8,0.6c-0.1,0-0.1,0-0.2,0c0,0.9-0.3,0.7-1.1,0.9
			c0,0,0-0.1,0-0.1C-120.4,405.3-120.2,404.7-120.2,404.5L-120.2,404.5z M-118.9,407.3c0.3,0.2,0.7,0.3,1,0.5
			c0.4,0.4,3.1,4.4,3.1,4.7c0,0.4-0.6,0.6-0.9,0.8c0,0-0.1,0-0.1,0c0,0,0,0,0,0.1c0.4,0.7,0.7,1.4,1.1,2.1c0.2,0.3,0.5,0.7,0.5,1.1
			c0,0.3-0.3,0.6-0.5,0.8c0,0.7,0.6,1.2,0.5,1.9c0,0.5-0.4,0.9-0.6,1.3c-0.4,0.9-0.9,1.8-1.2,2.8c0,0.2-0.2,0.4-0.3,0.5
			c-0.1,0.2-0.2,0.5-0.4,0.7c-0.2,0.1-0.5,0.1-0.7,0.1c-1,0-1.7-0.1-2.3,0.7c-0.1,0-0.1,0.2-0.1,0.3c0,0.3-0.1,0.6-0.1,0.9
			c-0.2,0.7-0.7,1.6-0.3,2.3c0,0.2,0.2,0.2,0.2,0.4c0.1,0.7-0.3,1.4-1,1.6c0,0,0,0.1,0,0.1c0,0-0.1,0-0.1,0c0-0.3-0.3-0.4-0.4-0.7
			c-0.2-0.3-0.3-1.1-0.2-1.5c0-0.1-0.1-0.1-0.2-0.2c0,0,0,0.1,0,0.1c-0.1,0-0.1,0-0.1,0.1c-0.1,0.2-0.1,0.4-0.2,0.7
			c-0.3,0.5-0.6,0.3-0.7,1c0.4,0,0.6-0.3,0.6-0.6c0,0,0.1,0,0.1,0c0.1,0.2,0.1,0.3,0.2,0.5c0.1,0.4-0.1,1-0.3,1.3c0,0,0,0.1,0,0.1
			c-0.3-0.1-0.7-0.1-1-0.2c-2.7-0.5-5.1-2.5-6.4-4.9c-0.2-0.3-0.7-0.9-0.6-1.3c0-0.2,0.3-0.3,0.5-0.4c0.8-0.3,1.8-0.5,2.7-0.7
			c0.8-0.2,1.5-0.5,2.4-0.5c0,0.5-0.3,1.1-0.5,1.5c0,0.1,0,0.1,0,0.2c0.5,0,1,0.2,1.5,0.1c0.3-0.1,0.7-1,0.8-1.3
			c0.4,0-1.1-0.8-1.1-0.8c0-0.4,1.1-1.7,1.4-2.2c0.3-0.4,0.3-0.8,0.3-1.3c0-0.4,0-0.9-0.2-1.2c-0.2-0.3-0.7-0.6-1-0.8
			c-0.7-0.5-1.5-1.1-2.2-1.6c0,0-0.1,0-0.1,0c-0.4,0.5-0.8,1-1.3,1.6c-0.9,1.1-1.7,2.2-2.6,3.4c-0.5,0.7-1.2,1.3-1.4,2.1
			c-0.1,0-0.1,0-0.2,0c-0.1-0.3-0.2-0.6-0.2-0.9c-0.3,0.1-0.5,0.1-0.8,0.2c0,0.4,0.2,0.8,0.4,1.2c0.4,1.1,0.9,2.2,1.5,3.2
			c0.3,0.5,0.7,1,1,1.6c0,0,0.1,0,0.1,0c0,0,0,0,0,0.1c-0.4,0.6-1.4,1.5-2,2.1c-1.3,1.3-2.5,2.5-3.8,3.8c-0.6,0.6-1.2,1.2-1.8,1.8
			c0,0,0,0.1,0,0.1c-0.2,0-1-1-1.2-1.2c-3-4-5.1-8.5-5.1-14c0,0,0.1,0,0.1,0c0,0,0-0.1,0-0.1c0.8,0.3,1.6,0.6,2.4,0.9
			c0.5,0.2,1.2,0.1,1.8,0.2c0.7,0.2,1.2,0.8,1.9,1.1c0.2,0.1,0.6,0.1,0.7,0.3c0.3,0.4,0.6,1,0.7,1.5c0.4,0,1.5-0.1,1.8-0.3
			c0.4-0.2,0.6-0.9,0.8-1.3c0.3-0.5,0.5-1,0.8-1.5c0.4-0.4,0.7-0.7,1.1-1.1c0.2-0.2,0.5-0.6,0.8-0.7c0.3-0.1,0.7-0.1,1-0.2
			c0.1-0.2,0.1-0.4,0.2-0.7c0.2-0.6,0.5-1.2,0.6-1.9c0-1.4,0.1-2.9,0.1-4.3c0.1-0.6,1.2-1.8,1.6-2.3c0.3-0.4,0.6-0.8,0.9-1.2
			c0.5-0.6,1.4-0.7,2-1.1c0.5-0.2,0.9-0.8,1.3-1.1c0.2-0.2,0.4-0.3,0.5-0.6c0.1-0.5-0.2-1.1-0.4-1.4c-0.3-0.4-3-2.6-3.3-2.7
			c-0.5-0.1-2,1.2-2.4,1.5c-0.6,0.3-1.3,0.4-1.9,0.6c-0.7,0.2-1.8,0.6-2.5,0.6c-0.6,0-1.1-0.2-1.6-0.3c-0.4-0.1-0.8-0.1-1.1-0.3
			c-0.3-0.3-0.6-0.5-0.8-0.8c0-0.4,1.1-1.2,1.4-1.5c2.3-2.1,5.3-3.7,8.3-4.5c0.7-0.2,1.5-0.4,2.2-0.5c0.7-0.1,1.3-0.2,2-0.4
			c0.3,0,0.8-0.1,0.9,0.2c0.2,0.4,0.1,1.3,0.1,1.9c0,1.9,0,3.8,0,5.8c0,0.4-0.3,0.7-0.3,1.1c0.2,0,0.3,0.2,0.5,0.2
			C-120.2,406.7-119.6,407-118.9,407.3L-118.9,407.3z M-121.1,379c0,2.2,0,4.6,0,6.7c0,0-0.1,0-0.1,0c0,0.1-1.3,0.1-1.5,0.2
			c-0.4,0-1-0.1-1.4,0.1c-0.2,0-0.4,0.1-0.6,0.1c-0.2,0-0.4,0.1-0.6,0.1c-0.2,0-0.4,0.1-0.6,0.1c-0.2,0-0.4,0.1-0.6,0.1
			c-0.3,0-0.5,0-0.7,0.2c-0.7,0-1.6,0.2-2.1,0.5c-1.1,0-2.5,0.6-3.5,1c-1.8,0.7-3.5,1.4-5.2,2.3c-1.5,0.8-2.8,1.9-4.2,2.8
			c-0.7,0.5-1.3,1-1.9,1.5c-0.3,0.2-0.6,0.4-0.8,0.8c-0.2,0-0.3-0.1-0.5-0.2c-2.2-2.2-4.5-4.5-6.7-6.7c-0.1-0.1-0.1-0.2-0.1-0.3
			c0.1-0.5,3.4-3,3.9-3.4c5.3-4,11.4-6.8,18-8.2c1.6-0.4,3.3-0.6,4.9-0.7c0.8-0.1,1.7-0.2,2.5-0.3c0.5,0.1,1.4-0.2,1.7,0.2
			C-120.9,376.1-121.1,378.4-121.1,379L-121.1,379z M-153.5,374.2c4.4-3.2,9.4-5.5,14.6-7.2c2-0.7,4.1-1.3,6.3-1.7
			c1.8-0.3,3.5-0.7,5.4-0.9c1.2-0.1,2.4-0.2,3.6-0.3c0.9,0,1.8,0,2.7,0c0,3.5,0,7.1,0,10.6c0,0-0.1,0-0.1,0c0,0.2-1.5,0.1-1.8,0.2
			c-0.3,0-0.7,0-1,0.1c-0.4,0-1-0.1-1.4,0.1c-0.2,0-0.4,0.1-0.6,0.1c-0.2,0-0.5,0.1-0.7,0.1c-0.2,0-0.4,0.1-0.6,0.1
			c-0.2,0-0.5,0.1-0.7,0.1c-0.4,0-0.9,0.1-1.2,0.2c-0.7,0-1.3,0.2-1.9,0.4c-0.8,0.2-1.6,0.4-2.4,0.6c-6,1.8-11.6,4.5-16.4,8.4
			c-0.8,0.6-1.6,1.3-2.4,2c-0.2,0.2-0.4,0.4-0.6,0.6c-0.6,0-1.8-1.5-2.2-1.9c-1.8-1.8-3.6-3.6-5.5-5.4
			C-160.5,379.3-154.4,374.9-153.5,374.2L-153.5,374.2z M-177.9,413.1c0.1-0.7,0.3-1.4,0.4-2.1c0.4-2.5,1.1-4.8,1.8-7.1
			c2.2-6.4,5-11.9,9.1-17.3c1.6-2.1,3.5-4,5.2-6c0.9,0.6,1.6,1.5,2.3,2.2c1.1,1.1,2.2,2.2,3.3,3.3c0.6,0.6,1.5,1.2,1.9,1.9
			c0.2,0-0.5,0.7-0.6,0.9c-0.8,1-1.8,1.8-2.6,2.8c-1.2,1.5-2.2,3-3.3,4.5c-0.6,0.9-1.1,1.8-1.6,2.7c-2.5,4.2-4.1,9.3-5,14.2
			c-0.3,1.4-0.5,3-0.6,4.5c-0.1,0.6,0,1.4-0.2,2c0,0.2-0.8,0.2-1.1,0.2c-3.2,0-6.4,0-9.7,0C-178.4,417.6-178.3,415.3-177.9,413.1
			L-177.9,413.1z M-169.1,453.3c-1.7-2.7-3.3-5.5-4.6-8.4c-3.1-7.2-5.1-15.3-4.8-24.1c0,0,0.1,0,0.1,0c0-0.1,0-0.1,0.1-0.1
			c0.8,0,1.8,0.1,2.4-0.1c0.8,0.2,1.8,0.1,2.8,0.1c1.8,0,3.6,0,5.4,0c0,1.7,0,3.4,0.2,5.1c0.1,0.7,0.4,1.7,0.2,2.4
			c-0.2,0.5-1.5,1-1.9,1.3c-1.5,0.9-1.7,1.8-2.1,3.3c-0.1,0.4-0.4,1-0.4,1.4c0.1,0.9,0.3,1.7,0.4,2.6c0,0,0.1,0,0.1,0
			c0,0,0,0.1,0,0.1c0.4,0,0.9-0.8,1.5-0.7c0.6,0.2,1.3,0.4,1.9,0.6c0.6,0.2,1.3,0.3,1.8,0.7c0.3,0.3,0.6,0.7,0.9,1
			c0.3,0.3,0.6,0.5,0.9,0.8c0.4,0.8,0.7,1.6,1.1,2.4c0.4,0.8,0.8,1.6,1.2,2.4c0.9,1.7,2,3.3,3.1,4.9c0.7,1.1,1.6,2.2,2.5,3.2
			c0.5,0.6,1,1.1,1.5,1.7c0.1,0.1,0.1,0.2,0.1,0.4c-0.1,0.4-1.5,1.6-1.8,2c-1.8,1.8-3.6,3.6-5.4,5.4
			C-163.2,461.6-168.4,454.3-169.1,453.3L-169.1,453.3z M-121,479.1c-0.2,0.2-0.9,0.1-1.2,0.1c-3.5,0.1-6.8-0.5-10-1
			c-2.4-0.4-4.7-1.2-7-1.9c-2-0.6-3.8-1.4-5.7-2.2c-4.8-2.1-9.3-5-13.4-8.5c-0.9-0.8-1.7-1.5-2.6-2.3c-0.4-0.4-0.7-0.7-1-1.1
			c0.1,0,0.1,0,0.2-0.1c2.5-2.4,4.9-4.9,7.4-7.3c0.9,0.4,1.7,1.4,2.5,2.1c1.1,1,2.3,2,3.5,2.8c2.2,1.5,4.3,2.9,6.7,4
			c2.1,1,4.2,1.8,6.4,2.6c2.8,1,6.2,1.7,9.4,2c0.8,0.1,1.7,0.1,2.5,0.2c0.5,0,1.9-0.1,2.3,0.2c0.2,0.1,0.1,0.4,0.2,0.6
			c0,0.7,0,1.3,0,2c0,1.5,0,3,0,4.5C-120.9,476.5-120.7,478.6-121,479.1L-121,479.1z M-120.9,467.5c0,0.2-0.8,0.2-1,0.1
			c-0.8,0-1.5,0-2.3-0.1c-2.1-0.2-4.1-0.4-6.1-0.8c-5.7-1.1-10.9-3.4-15.7-6.5c-1.7-1.1-3.3-2.2-4.9-3.6c-0.6-0.6-2.2-1.7-2.5-2.4
			c-0.1-0.2,0.1-0.4,0.2-0.6c1.1-1.2,2.3-2.3,3.5-3.4c0.7-0.7,1.4-1.3,2.1-2c0.3-0.2,0.9-0.1,1.3-0.2c0.4,0,0.9-0.1,1.3,0.1
			c0.5,0.2,1,0.7,1.3,1.1c0.3,0.2,0.6,0.5,1,0.7c1.5,1.1,3,2.1,4.6,3.1c4.8,2.8,11,4.4,17.2,4.4c0,0,0,0.1,0,0.1
			c0.1,0,0.1,0.9,0.1,1.1c0,2.1,0,4.3,0,6.4C-120.9,465.7-120.7,466.9-120.9,467.5L-120.9,467.5z M-80.6,462.6
			c-1.1,1.1-2.1,2.1-3.3,3.1c-5.1,4.5-11.2,7.8-17.4,10c-1.8,0.7-3.7,1.3-5.6,1.7c-1.1,0.3-2.1,0.5-3.2,0.8c-0.3,0-0.6,0-0.9,0.2
			c-0.2,0-0.4,0.1-0.6,0.1c-0.3,0-0.7,0-0.9,0.2c-0.2,0-0.4,0.1-0.6,0.1c-0.2,0-0.4,0.1-0.6,0.1c-0.2,0-0.4,0.1-0.6,0.1
			c-0.2,0-0.5,0.1-0.7,0.1c-0.3,0-0.6,0-0.9,0.1c-0.3,0-0.7,0-1,0.1c-0.3,0-0.8-0.1-1.1,0.1c-0.4,0-1.8,0.1-2-0.1
			c-0.3-0.4-0.1-3.8-0.1-4.6c0-2-0.1-4,0-6c0,0,0.1,0,0.1,0c0-0.1,1-0.1,1.2-0.1c3.2-0.1,6.3-0.6,9.2-1.3c3.5-0.9,6.8-2.2,10-3.8
			c0.9-0.5,1.9-0.9,2.8-1.5c1.2-0.8,2.4-1.5,3.5-2.3c0.5-0.4,1-0.8,1.6-1.2c0.8-0.6,1.6-1.3,2.3-2c0.9-0.9,2-1.7,2.8-2.7
			c0.8,0.2,2.3,2.1,2.9,2.8c1.3,1.4,2.8,2.8,4.1,4.3c0.2,0.2,0.3,0.4,0.3,0.6C-79.4,461.7-80.3,462.3-80.6,462.6L-80.6,462.6z
			 M-63.2,421.8c-0.1,1.3,0,2.6-0.1,3.8c-0.2,2.2-0.5,4.3-0.9,6.3c-1.4,7.9-4.4,15.2-8.8,21.6c-1.1,1.6-2.3,3.3-3.6,4.8
			c-0.6,0.7-1.2,1.4-1.8,2.1c0,0-0.1,0-0.1,0c-0.3-0.1-0.4-0.4-0.6-0.6c-0.5-0.5-0.9-1-1.4-1.5c-1.1-1.1-2.2-2.3-3.3-3.4
			c-0.6-0.6-1.2-1.1-1.7-1.8c-0.1-0.1-0.2-0.3-0.2-0.4c0-0.4,1.1-1.4,1.4-1.8c0.6-0.9,1.3-1.7,1.9-2.6c1.5-2.3,2.9-4.6,4-7.1
			c1.4-3.2,2.6-6.5,3.3-9.9c0.3-1.4,0.4-2.8,0.7-4.2c0.2-1.3,0.3-2.7,0.3-4.1c0-0.6-0.1-1.8,0.1-2.2c0-0.1,0.8-0.1,1-0.2
			c2.2,0,4.3,0,6.5,0c0.6,0,1.2,0,1.8,0c0.4,0,0.9-0.1,1.3,0C-63.3,420.7-63.2,421.6-63.2,421.8L-63.2,421.8z"/>
	</g>
	<circle id="XMLID_96_" class="st1" cx="-121" cy="422.2" r="58.1"/>
	<g>
		<path class="st2" d="M-146.8,362.1c0.2-0.1,0.4-0.2,0.6-0.2c0.2,0,0.3,0,0.4,0s0.2,0.1,0.3,0.2s0.2,0.3,0.3,0.5l0.4,1
			c0.1,0.2,0.1,0.4,0.2,0.5s0,0.3,0,0.4c-0.1,0.1-0.2,0.2-0.3,0.3c-0.1,0.1-0.3,0.2-0.5,0.3l-0.8,0.3l-0.3-0.6l0.8-0.3
			c0.1,0,0.2-0.1,0.2-0.1c0.1,0,0.1-0.1,0.1-0.1c0-0.1,0-0.1,0-0.2c0-0.1,0-0.1-0.1-0.2l-0.1-0.2l-2.7,1.2l-0.2-0.6l2.7-1.2
			l-0.1-0.2c0-0.1-0.1-0.2-0.1-0.2c0-0.1-0.1-0.1-0.1-0.1s-0.1,0-0.2,0s-0.2,0-0.3,0.1l-2.2,1l-0.3-0.6L-146.8,362.1z"/>
		<path class="st2" d="M-149.6,363.3l1.6,3l-2.4,1.3c-0.2,0.1-0.4,0.2-0.6,0.2s-0.3,0-0.4,0c-0.1,0-0.3-0.1-0.4-0.2
			c-0.1-0.1-0.2-0.3-0.3-0.5l-0.5-0.9c-0.1-0.2-0.2-0.4-0.2-0.5s0-0.3,0-0.4s0.1-0.2,0.3-0.4s0.3-0.2,0.5-0.3L-149.6,363.3z
			 M-151.4,366.7c0,0.1,0.1,0.2,0.1,0.2c0,0.1,0.1,0.1,0.2,0.1s0.1,0,0.2,0c0.1,0,0.2-0.1,0.3-0.1l1.7-0.9l-1-1.9l-1.7,0.9
			c-0.1,0-0.2,0.1-0.2,0.1c-0.1,0-0.1,0.1-0.1,0.2s0,0.1,0,0.2c0,0.1,0,0.2,0.1,0.3L-151.4,366.7z"/>
		<path class="st2" d="M-154.8,366.2c0.2-0.1,0.4-0.2,0.6-0.3c0.2-0.1,0.3-0.1,0.4,0c0.1,0,0.3,0.1,0.4,0.2c0.1,0.1,0.2,0.2,0.3,0.4
			l1.2,1.9l-0.7,0.4l-1.2-1.9c-0.1-0.1-0.1-0.2-0.2-0.2c-0.1,0-0.1-0.1-0.2-0.1c-0.1,0-0.1,0-0.2,0c-0.1,0-0.2,0.1-0.3,0.1l-1,0.6
			c-0.1,0.1-0.2,0.1-0.2,0.2c-0.1,0.1-0.1,0.1-0.1,0.2c0,0.1,0,0.1,0,0.2c0,0.1,0.1,0.2,0.1,0.2l1.2,1.9l-0.6,0.4l-1.2-1.9
			c-0.1-0.2-0.2-0.4-0.2-0.5c0-0.1,0-0.3,0-0.4c0-0.1,0.1-0.3,0.2-0.4c0.1-0.1,0.3-0.3,0.5-0.4L-154.8,366.2z"/>
		<path class="st2" d="M-158.6,368.7c0.2-0.1,0.4-0.2,0.5-0.3s0.3-0.1,0.4-0.1c0.1,0,0.3,0.1,0.4,0.2c0.1,0.1,0.2,0.2,0.4,0.4
			l0.6,0.9c0.1,0.2,0.2,0.3,0.3,0.5c0.1,0.1,0.1,0.3,0,0.4s-0.1,0.3-0.2,0.4c-0.1,0.1-0.3,0.3-0.5,0.4l-1.9,1.4l-0.4-0.5l1.9-1.4
			c0.1-0.1,0.2-0.1,0.2-0.2s0.1-0.1,0.1-0.2c0-0.1,0-0.1,0-0.2c0-0.1-0.1-0.1-0.1-0.2l-0.6-0.8c-0.1-0.1-0.1-0.2-0.2-0.2
			c-0.1,0-0.1-0.1-0.2-0.1c-0.1,0-0.1,0-0.2,0c-0.1,0-0.2,0.1-0.3,0.1l-1.9,1.4l-0.4-0.5L-158.6,368.7z"/>
		<path class="st2" d="M-163.2,373.2l1.8-1.5l-0.1-0.9l0.7-0.6l0.5,3.7c0,0.1,0,0.2,0,0.3c0,0.1-0.1,0.2-0.2,0.3
			c-0.1,0.1-0.2,0.1-0.3,0.2s-0.2,0-0.3,0l-3.5-1.2l0.7-0.6L-163.2,373.2z M-161.3,372.4l-1.3,1.1l1.5,0.5L-161.3,372.4z"/>
		<path class="st2" d="M-165.5,374.2l1.9,2l1-1l0.4,0.5l-2.6,2.5l-0.4-0.5l1-1l-1.9-2L-165.5,374.2z"/>
		<path class="st2" d="M-167.4,376.1l2.4,2.4l-0.5,0.5l-2.4-2.4L-167.4,376.1z"/>
		<path class="st2" d="M-169.3,378c0.2-0.2,0.3-0.3,0.5-0.4c0.1-0.1,0.3-0.2,0.4-0.2c0.1,0,0.3,0,0.4,0.1c0.1,0.1,0.3,0.2,0.4,0.3
			l0.8,0.7c0.2,0.1,0.3,0.3,0.4,0.4c0.1,0.1,0.1,0.3,0.1,0.4s0,0.3-0.1,0.4c-0.1,0.2-0.2,0.3-0.4,0.5l-0.9,1
			c-0.2,0.2-0.3,0.3-0.5,0.4c-0.1,0.1-0.3,0.2-0.4,0.2c-0.1,0-0.3,0-0.4-0.1s-0.3-0.2-0.4-0.3l-0.8-0.7c-0.2-0.1-0.3-0.3-0.4-0.4
			c-0.1-0.1-0.1-0.3-0.1-0.4c0-0.1,0-0.3,0.1-0.4c0.1-0.2,0.2-0.3,0.4-0.5L-169.3,378z M-168.9,380.9c0.1,0.1,0.2,0.1,0.2,0.2
			c0.1,0,0.1,0,0.2,0c0.1,0,0.1,0,0.2-0.1c0.1,0,0.1-0.1,0.2-0.2l0.8-0.9c0.1-0.1,0.1-0.2,0.2-0.2c0-0.1,0.1-0.1,0.1-0.2
			s0-0.1-0.1-0.2c0-0.1-0.1-0.1-0.2-0.2l-0.7-0.7c-0.1-0.1-0.2-0.1-0.2-0.2c-0.1,0-0.1-0.1-0.2,0s-0.1,0-0.2,0.1
			c-0.1,0-0.1,0.1-0.2,0.2l-0.8,0.9c-0.1,0.1-0.1,0.2-0.2,0.2c0,0.1-0.1,0.1-0.1,0.2s0,0.1,0.1,0.2c0,0.1,0.1,0.1,0.2,0.2
			L-168.9,380.9z"/>
		<path class="st2" d="M-173.8,383.3c0-0.1,0.1-0.1,0.2-0.2c0.1,0,0.1-0.1,0.2-0.1l3.4-0.5l-1.9-1.5l0.4-0.6l2.5,1.9
			c0.1,0.1,0.1,0.1,0.1,0.2c0,0.1,0,0.2-0.1,0.3c-0.1,0.1-0.1,0.1-0.2,0.1c-0.1,0-0.1,0-0.2,0.1l-3.4,0.5l1.9,1.5l-0.4,0.6l-2.5-1.9
			c-0.1-0.1-0.1-0.1-0.1-0.2S-173.8,383.4-173.8,383.3z"/>
	</g>
	<path id="XMLID_101_" class="st3" d="M-186.3,418.5c0.4-7.1,1.9-13.8,4.4-20.1"/>
	<g>
		<path class="st2" d="M-186.4,424.7l3.4-0.2l0.2,2.7c0,0.3,0,0.5,0,0.6s-0.1,0.3-0.2,0.4c-0.1,0.1-0.2,0.2-0.3,0.2
			c-0.1,0.1-0.3,0.1-0.5,0.1l-1.1,0.1c-0.2,0-0.4,0-0.6,0c-0.2,0-0.3-0.1-0.4-0.2s-0.2-0.2-0.2-0.4c-0.1-0.2-0.1-0.4-0.1-0.6
			L-186.4,424.7z M-184,427.7c0.1,0,0.2,0,0.3,0c0.1,0,0.1-0.1,0.2-0.1c0,0,0.1-0.1,0.1-0.2s0-0.2,0-0.3l-0.1-1.9l-2.1,0.1l0.1,1.9
			c0,0.1,0,0.2,0,0.3c0,0.1,0.1,0.1,0.1,0.2c0,0,0.1,0.1,0.2,0.1c0.1,0,0.2,0,0.3,0L-184,427.7z"/>
		<path class="st2" d="M-185.9,430.6c0-0.2,0-0.5,0-0.6s0.1-0.3,0.1-0.4c0.1-0.1,0.2-0.2,0.3-0.3c0.1-0.1,0.3-0.1,0.5-0.1l1.1-0.1
			c0.2,0,0.4,0,0.5,0c0.2,0,0.3,0.1,0.4,0.2c0.1,0.1,0.2,0.2,0.3,0.4c0.1,0.2,0.1,0.4,0.1,0.6l0.1,0.8l-0.6,0.1l-0.1-0.8
			c0-0.1,0-0.2-0.1-0.3c0-0.1-0.1-0.1-0.1-0.2s-0.1-0.1-0.2-0.1c-0.1,0-0.2,0-0.3,0l-0.2,0l0.4,2.9l-0.6,0.1l-0.4-2.9l-0.2,0
			c-0.1,0-0.2,0-0.2,0.1c-0.1,0-0.1,0.1-0.1,0.1s-0.1,0.1-0.1,0.2c0,0.1,0,0.2,0,0.3l0.3,2.4l-0.6,0.1L-185.9,430.6z"/>
		<path class="st2" d="M-185.5,433.5l0.6-0.1l0.5,2.5c0,0.1,0.1,0.2,0.1,0.3c0,0.1,0.1,0.1,0.2,0l0.2,0c0.1,0,0.2-0.1,0.2-0.1
			c0-0.1,0-0.2,0-0.3l-0.3-1.6c0-0.2-0.1-0.3,0-0.5s0-0.2,0.1-0.3c0.1-0.1,0.1-0.2,0.2-0.2c0.1,0,0.2-0.1,0.4-0.1l0.2,0
			c0.2,0,0.3,0,0.4,0c0.1,0,0.2,0,0.3,0.1c0.1,0.1,0.2,0.1,0.2,0.3c0.1,0.1,0.1,0.3,0.1,0.4l0.2,1l-0.6,0.1l-0.2-1
			c0-0.1-0.1-0.2-0.1-0.2s-0.1-0.1-0.3,0l-0.1,0c-0.1,0-0.2,0.1-0.2,0.1c0,0.1,0,0.1,0,0.3l0.3,1.6c0,0.2,0.1,0.3,0,0.5
			c0,0.1,0,0.3-0.1,0.3c-0.1,0.1-0.1,0.2-0.2,0.2c-0.1,0.1-0.2,0.1-0.4,0.1l-0.3,0.1c-0.2,0-0.3,0-0.4,0s-0.2-0.1-0.3-0.1
			c-0.1-0.1-0.2-0.2-0.2-0.3c-0.1-0.1-0.1-0.3-0.1-0.5L-185.5,433.5z"/>
		<path class="st2" d="M-184.4,438.4l2.7-0.7l-0.4-1.4l0.6-0.2l0.9,3.5l-0.6,0.2l-0.4-1.4l-2.7,0.7L-184.4,438.4z"/>
		<path class="st2" d="M-182.8,443.7l0.5-2.3l-1.2,0.4l-0.2-0.7l3.2-1.1l0.8,2.5c0.1,0.2,0.1,0.4,0.2,0.6s0,0.3,0,0.4
			c0,0.1-0.1,0.2-0.2,0.3c-0.1,0.1-0.3,0.2-0.5,0.2l-0.2,0.1c-0.2,0.1-0.3,0.1-0.5,0.1s-0.3-0.1-0.4-0.1c-0.1-0.1-0.2-0.2-0.3-0.4
			c-0.1-0.2-0.2-0.3-0.2-0.6l-0.2-0.6l-0.5,2.3L-182.8,443.7z M-180.4,443.4c0.1,0,0.2-0.1,0.2-0.1c0,0,0.1-0.1,0.1-0.1s0-0.1,0-0.2
			c0-0.1,0-0.2-0.1-0.3l-0.6-1.8l-1,0.3l0.6,1.8c0,0.1,0.1,0.2,0.1,0.3c0,0.1,0.1,0.1,0.1,0.2c0,0,0.1,0.1,0.2,0.1s0.1,0,0.2,0
			L-180.4,443.4z"/>
		<path class="st2" d="M-181.7,446.6c-0.1-0.2-0.2-0.4-0.2-0.6s0-0.3,0-0.4c0-0.1,0.1-0.2,0.3-0.3c0.1-0.1,0.3-0.2,0.5-0.3l2.1-0.9
			l0.3,0.7l-2,0.8c-0.1,0-0.2,0.1-0.2,0.1c-0.1,0-0.1,0.1-0.1,0.2s0,0.1,0,0.2c0,0.1,0,0.2,0.1,0.3l0.4,1.1c0,0.1,0.1,0.2,0.1,0.3
			c0,0.1,0.1,0.1,0.2,0.1c0.1,0,0.1,0,0.2,0c0.1,0,0.2,0,0.3-0.1l2-0.8l0.3,0.7l-2.1,0.9c-0.2,0.1-0.4,0.1-0.5,0.2
			c-0.2,0-0.3,0-0.4-0.1s-0.2-0.2-0.3-0.3c-0.1-0.1-0.2-0.3-0.3-0.6L-181.7,446.6z"/>
		<path class="st2" d="M-179.8,450.8c-0.1-0.2-0.2-0.4-0.2-0.6c0-0.2,0-0.3,0-0.4c0-0.1,0.1-0.2,0.2-0.4s0.3-0.2,0.5-0.3l1-0.5
			c0.2-0.1,0.4-0.2,0.5-0.2s0.3,0,0.4,0c0.1,0,0.2,0.1,0.4,0.3c0.1,0.1,0.2,0.3,0.3,0.5l1.1,2.1l-0.6,0.3l-1-2.1
			c-0.1-0.1-0.1-0.2-0.2-0.2c0-0.1-0.1-0.1-0.2-0.1s-0.1,0-0.2,0s-0.2,0-0.2,0.1l-0.9,0.4c-0.1,0-0.2,0.1-0.2,0.1
			c-0.1,0-0.1,0.1-0.1,0.2c0,0.1,0,0.1,0,0.2s0.1,0.2,0.1,0.3l1,2.1l-0.6,0.3L-179.8,450.8z"/>
		<path class="st2" d="M-177.9,454.5l2.4-1.4l-0.7-1.2l0.6-0.3l1.8,3.1l-0.6,0.3l-0.7-1.2l-2.4,1.4L-177.9,454.5z"/>
		<path class="st2" d="M-176.5,456.8l2.9-1.8l0.4,0.6l-2.9,1.8L-176.5,456.8z"/>
		<path class="st2" d="M-175,459.1c-0.1-0.2-0.2-0.4-0.3-0.5c-0.1-0.2-0.1-0.3-0.1-0.4c0-0.1,0.1-0.3,0.2-0.4
			c0.1-0.1,0.2-0.2,0.4-0.4l0.9-0.6c0.2-0.1,0.3-0.2,0.5-0.3c0.1-0.1,0.3-0.1,0.4,0s0.3,0.1,0.4,0.2c0.1,0.1,0.3,0.3,0.4,0.5
			l0.7,1.1c0.1,0.2,0.2,0.4,0.3,0.6c0.1,0.2,0.1,0.3,0.1,0.4c0,0.1-0.1,0.3-0.2,0.4c-0.1,0.1-0.2,0.2-0.4,0.4l-0.9,0.6
			c-0.2,0.1-0.3,0.2-0.5,0.3s-0.3,0.1-0.4,0c-0.1,0-0.3-0.1-0.4-0.2c-0.1-0.1-0.3-0.3-0.4-0.5L-175,459.1z M-172.1,459.4
			c0.1-0.1,0.2-0.1,0.2-0.2c0-0.1,0.1-0.1,0.1-0.2c0-0.1,0-0.1,0-0.2s-0.1-0.2-0.1-0.2l-0.7-1c-0.1-0.1-0.1-0.2-0.2-0.2
			s-0.1-0.1-0.2-0.1c-0.1,0-0.1,0-0.2,0c-0.1,0-0.1,0.1-0.2,0.1l-0.8,0.6c-0.1,0.1-0.2,0.1-0.2,0.2c-0.1,0.1-0.1,0.1-0.1,0.2
			c0,0.1,0,0.1,0,0.2s0.1,0.2,0.1,0.3l0.7,1c0.1,0.1,0.1,0.2,0.2,0.2s0.1,0.1,0.2,0.1s0.1,0,0.2,0s0.1-0.1,0.2-0.1L-172.1,459.4z"/>
		<path class="st2" d="M-170.9,464.7c-0.1-0.1-0.1-0.1-0.1-0.2c0-0.1,0-0.1,0-0.2l0.3-3.4l-1.9,1.5l-0.4-0.5l2.5-2
			c0.1-0.1,0.2-0.1,0.3-0.1s0.2,0.1,0.2,0.2c0.1,0.1,0.1,0.1,0.1,0.2s0,0.1,0,0.2l-0.3,3.5l1.9-1.6l0.5,0.6l-2.5,2
			c-0.1,0.1-0.2,0.1-0.3,0.1C-170.7,464.8-170.8,464.7-170.9,464.7z"/>
	</g>
	<path id="XMLID_103_" class="st3" d="M-146.5,482.4c-7.4-3.1-14.1-7.6-19.8-13.1"/>
	<g>
		<path class="st2" d="M-141.4,483.3l-0.3,0.9l-0.7-0.2l1-3.3l2.6,0.8c0.2,0.1,0.4,0.2,0.6,0.2c0.1,0.1,0.3,0.2,0.3,0.3
			c0.1,0.1,0.1,0.2,0.1,0.4c0,0.1,0,0.3-0.1,0.5l-0.1,0.3c-0.1,0.2-0.1,0.3-0.2,0.5c-0.1,0.1-0.2,0.2-0.3,0.2s-0.3,0.1-0.4,0
			c-0.2,0-0.4-0.1-0.6-0.1L-141.4,483.3z M-138.7,482.8c0.1-0.2,0.1-0.3,0-0.4c-0.1-0.1-0.2-0.2-0.4-0.2l-1.9-0.6l-0.3,1.1l1.9,0.6
			c0.2,0.1,0.3,0.1,0.4,0c0.1,0,0.2-0.1,0.2-0.3L-138.7,482.8z"/>
		<path class="st2" d="M-135.3,486l-1.7-1.7l-0.3,1.2l-0.7-0.2l0.8-3.3l2.6,0.6c0.2,0.1,0.4,0.1,0.6,0.2s0.3,0.2,0.4,0.3
			c0.1,0.1,0.1,0.2,0.2,0.4c0,0.1,0,0.3,0,0.5l-0.1,0.2c0,0.2-0.1,0.3-0.2,0.5c-0.1,0.1-0.2,0.2-0.3,0.2c-0.1,0-0.3,0.1-0.4,0.1
			s-0.4,0-0.6-0.1l-0.6-0.1l1.7,1.6L-135.3,486z M-134.3,483.8c0-0.1,0-0.2,0-0.2c0-0.1,0-0.1-0.1-0.1c0,0-0.1-0.1-0.2-0.1
			c-0.1,0-0.2-0.1-0.3-0.1l-1.8-0.4l-0.2,1l1.8,0.4c0.1,0,0.2,0,0.3,0.1c0.1,0,0.1,0,0.2,0c0.1,0,0.1-0.1,0.1-0.1
			c0,0,0.1-0.1,0.1-0.2L-134.3,483.8z"/>
		<path class="st2" d="M-132.2,486.6c-0.2,0-0.4-0.1-0.6-0.2c-0.2-0.1-0.3-0.2-0.4-0.3s-0.1-0.2-0.2-0.4c0-0.2,0-0.3,0-0.5l0.2-1.1
			c0-0.2,0.1-0.4,0.1-0.5c0.1-0.1,0.2-0.2,0.3-0.3c0.1-0.1,0.3-0.1,0.4-0.1c0.2,0,0.4,0,0.6,0l1.3,0.2c0.3,0,0.5,0.1,0.6,0.2
			c0.2,0.1,0.3,0.2,0.4,0.3s0.1,0.2,0.2,0.4c0,0.2,0,0.3,0,0.5l-0.2,1.1c0,0.2-0.1,0.4-0.1,0.5s-0.2,0.2-0.3,0.3s-0.3,0.1-0.4,0.1
			c-0.2,0-0.4,0-0.6,0L-132.2,486.6z M-130.1,484.7c0-0.1,0-0.2,0-0.3s0-0.1-0.1-0.2c0,0-0.1-0.1-0.2-0.1s-0.2-0.1-0.3-0.1l-1.2-0.2
			c-0.1,0-0.2,0-0.3,0c-0.1,0-0.1,0-0.2,0.1c0,0-0.1,0.1-0.1,0.2c0,0.1,0,0.2-0.1,0.3l-0.2,1c0,0.1,0,0.2,0,0.3c0,0.1,0,0.1,0.1,0.2
			c0,0,0.1,0.1,0.2,0.1c0.1,0,0.2,0,0.3,0.1l1.2,0.2c0.1,0,0.2,0,0.3,0c0.1,0,0.1,0,0.2-0.1c0,0,0.1-0.1,0.1-0.2s0.1-0.2,0.1-0.3
			L-130.1,484.7z"/>
		<path class="st2" d="M-127.8,487.2l0.3-2.7l-1.4-0.1l0.1-0.7l3.6,0.3l-0.1,0.7l-1.4-0.1l-0.3,2.7L-127.8,487.2z"/>
		<path class="st2" d="M-123.8,487.5c-0.3,0-0.5,0-0.6-0.1c-0.2,0-0.3-0.1-0.4-0.2c-0.1-0.1-0.2-0.2-0.2-0.4c0-0.1-0.1-0.3,0-0.5
			l0-1.1c0-0.2,0-0.4,0.1-0.5c0-0.1,0.1-0.3,0.2-0.4c0.1-0.1,0.2-0.2,0.4-0.2s0.4,0,0.6,0l0.8,0l0,0.6l-0.8,0c-0.1,0-0.2,0-0.3,0
			c-0.1,0-0.1,0-0.2,0.1c0,0-0.1,0.1-0.1,0.2s0,0.1,0,0.2l0,0.2l2.9,0.1l0,0.6l-2.9-0.1l0,0.2c0,0.1,0,0.2,0,0.3s0,0.1,0.1,0.2
			c0,0,0.1,0.1,0.2,0.1s0.2,0,0.3,0l2.4,0.1l0,0.6L-123.8,487.5z"/>
		<path class="st2" d="M-119.5,487.5c-0.3,0-0.5,0-0.6,0c-0.2,0-0.3-0.1-0.4-0.2c-0.1-0.1-0.2-0.2-0.2-0.4c0-0.1-0.1-0.3-0.1-0.5
			l0-1.1c0-0.2,0-0.4,0-0.5s0.1-0.3,0.2-0.4c0.1-0.1,0.2-0.2,0.4-0.2c0.2,0,0.4-0.1,0.6-0.1l2.4-0.1l0,0.7l-2.3,0.1
			c-0.1,0-0.2,0-0.3,0s-0.1,0.1-0.2,0.1c0,0-0.1,0.1-0.1,0.2c0,0.1,0,0.2,0,0.3l0,1c0,0.1,0,0.2,0,0.3s0.1,0.1,0.1,0.2
			c0,0,0.1,0.1,0.2,0.1c0.1,0,0.2,0,0.3,0l2.3-0.1l0,0.7L-119.5,487.5z"/>
		<path class="st2" d="M-115.3,487.3l-0.3-2.7l-1.4,0.1l-0.1-0.7l3.6-0.3l0.1,0.7l-1.4,0.1l0.3,2.7L-115.3,487.3z"/>
		<path class="st2" d="M-112.6,487l-0.5-3.4l0.8-0.1l0.5,3.4L-112.6,487z"/>
		<path class="st2" d="M-109.9,486.6c-0.2,0-0.5,0.1-0.6,0.1c-0.2,0-0.3-0.1-0.4-0.1s-0.2-0.2-0.3-0.3s-0.1-0.3-0.2-0.5l-0.2-1.1
			c0-0.2,0-0.4,0-0.5c0-0.2,0.1-0.3,0.1-0.4s0.2-0.2,0.4-0.3c0.2-0.1,0.4-0.1,0.6-0.2l1.3-0.2c0.3,0,0.5-0.1,0.6-0.1
			c0.2,0,0.3,0.1,0.4,0.1c0.1,0.1,0.2,0.2,0.3,0.3c0.1,0.1,0.1,0.3,0.2,0.5l0.2,1.1c0,0.2,0.1,0.4,0,0.5s-0.1,0.3-0.1,0.4
			c-0.1,0.1-0.2,0.2-0.4,0.3c-0.2,0.1-0.4,0.1-0.6,0.2L-109.9,486.6z M-108.5,484.1c0-0.1,0-0.2-0.1-0.3c0-0.1-0.1-0.1-0.1-0.2
			c-0.1,0-0.1-0.1-0.2-0.1c-0.1,0-0.2,0-0.3,0l-1.2,0.2c-0.1,0-0.2,0-0.3,0.1c-0.1,0-0.1,0.1-0.2,0.1c0,0.1-0.1,0.1-0.1,0.2
			c0,0.1,0,0.2,0,0.3l0.2,1c0,0.1,0,0.2,0.1,0.3c0,0.1,0.1,0.1,0.1,0.2c0,0,0.1,0.1,0.2,0.1s0.2,0,0.3,0l1.2-0.2
			c0.1,0,0.2,0,0.3-0.1c0.1,0,0.1-0.1,0.2-0.1s0.1-0.1,0.1-0.2c0-0.1,0-0.2,0-0.3L-108.5,484.1z"/>
		<path class="st2" d="M-103.2,485.2c-0.1,0-0.2,0-0.2,0s-0.1,0-0.2-0.1l-3-1.6l0.6,2.3l-0.7,0.2l-0.8-3.1c0-0.1,0-0.2,0-0.3
			c0.1-0.1,0.1-0.1,0.3-0.1c0.1,0,0.2,0,0.2,0c0.1,0,0.1,0,0.2,0.1l3,1.7l-0.6-2.4l0.7-0.2l0.8,3.1c0,0.1,0,0.2,0,0.3
			C-103,485.1-103.1,485.1-103.2,485.2z"/>
	</g>
	<path id="XMLID_105_" class="st3" d="M-79.4,472.6c-5.7,4.7-12.2,8.5-19.3,11.1"/>
	<g>
		<path class="st2" d="M-73,466.4c-0.2,0.2-0.3,0.3-0.5,0.4c-0.1,0.1-0.3,0.1-0.4,0.2c-0.1,0-0.3,0-0.4-0.1
			c-0.1-0.1-0.3-0.2-0.4-0.3l-0.8-0.7c-0.2-0.1-0.3-0.3-0.4-0.4s-0.1-0.3-0.1-0.4s0-0.3,0.1-0.4s0.2-0.3,0.4-0.5l1.6-1.8l0.5,0.4
			l-1.6,1.7c-0.1,0.1-0.1,0.2-0.2,0.2c0,0.1-0.1,0.1-0.1,0.2s0,0.1,0.1,0.2s0.1,0.1,0.2,0.2l0.7,0.7c0.1,0.1,0.1,0.1,0.2,0.2
			c0.1,0,0.1,0.1,0.2,0c0.1,0,0.1,0,0.2-0.1c0.1,0,0.1-0.1,0.2-0.2l1.6-1.7l0.5,0.4L-73,466.4z"/>
		<path class="st2" d="M-70.2,463.2c-0.2,0.2-0.3,0.3-0.4,0.5c-0.1,0.1-0.3,0.2-0.4,0.2c-0.1,0-0.3,0-0.4-0.1
			c-0.1-0.1-0.3-0.2-0.5-0.3l-0.8-0.7c-0.2-0.1-0.3-0.3-0.4-0.4c-0.1-0.1-0.1-0.3-0.2-0.4c0-0.1,0-0.3,0.1-0.4
			c0.1-0.2,0.2-0.3,0.3-0.5l0.8-1c0.2-0.2,0.3-0.4,0.4-0.5c0.1-0.1,0.3-0.2,0.4-0.2s0.3,0,0.4,0.1s0.3,0.2,0.5,0.3l0.8,0.7
			c0.2,0.1,0.3,0.3,0.4,0.4c0.1,0.1,0.1,0.3,0.2,0.4c0,0.1,0,0.3-0.1,0.4c-0.1,0.2-0.2,0.3-0.3,0.5L-70.2,463.2z M-70.8,460.4
			c-0.1-0.1-0.2-0.1-0.2-0.1c-0.1,0-0.1,0-0.2,0c-0.1,0-0.1,0-0.2,0.1s-0.1,0.1-0.2,0.2l-0.8,1c-0.1,0.1-0.1,0.2-0.2,0.2
			c0,0.1,0,0.1,0,0.2c0,0.1,0,0.1,0.1,0.2c0,0.1,0.1,0.1,0.2,0.2l0.8,0.6c0.1,0.1,0.2,0.1,0.2,0.2c0.1,0,0.1,0,0.2,0
			c0.1,0,0.1,0,0.2-0.1c0.1,0,0.1-0.1,0.2-0.2l0.8-1c0.1-0.1,0.1-0.2,0.2-0.2c0-0.1,0-0.1,0-0.2s0-0.1-0.1-0.2
			c0-0.1-0.1-0.1-0.2-0.2L-70.8,460.4z"/>
		<path class="st2" d="M-66,457.6c0,0.1-0.1,0.1-0.2,0.2c-0.1,0-0.1,0.1-0.2,0.1l-3.3,0.7l2,1.4l-0.4,0.6l-2.6-1.8
			c-0.1-0.1-0.1-0.1-0.1-0.2c0-0.1,0-0.2,0.1-0.3c0-0.1,0.1-0.1,0.2-0.2c0.1,0,0.1-0.1,0.2-0.1l3.4-0.7l-2-1.4l0.4-0.6l2.6,1.8
			c0.1,0.1,0.1,0.1,0.1,0.2C-66,457.5-66,457.6-66,457.6z"/>
		<path class="st2" d="M-64.9,455.6c-0.1,0.2-0.3,0.4-0.4,0.5c-0.1,0.1-0.2,0.2-0.4,0.2s-0.3,0-0.4,0s-0.3-0.1-0.5-0.2l-0.9-0.5
			c-0.2-0.1-0.3-0.2-0.4-0.3c-0.1-0.1-0.2-0.2-0.2-0.4c0-0.1,0-0.3,0-0.4c0-0.2,0.1-0.4,0.3-0.6l1.2-2l0.6,0.3l-1.2,2
			c-0.1,0.1-0.1,0.2-0.1,0.3c0,0.1,0,0.1,0,0.2s0,0.1,0.1,0.2c0.1,0.1,0.1,0.1,0.2,0.2l0.9,0.5c0.1,0.1,0.2,0.1,0.2,0.1
			c0.1,0,0.1,0,0.2,0s0.1-0.1,0.2-0.1c0.1-0.1,0.1-0.1,0.2-0.2l1.2-2l0.6,0.3L-64.9,455.6z"/>
		<path class="st2" d="M-62.8,451.8c-0.1,0.2-0.2,0.4-0.3,0.5c-0.1,0.1-0.2,0.2-0.4,0.3c-0.1,0-0.3,0.1-0.4,0
			c-0.2,0-0.3-0.1-0.5-0.2l-1-0.5c-0.2-0.1-0.3-0.2-0.5-0.3c-0.1-0.1-0.2-0.2-0.2-0.4c0-0.1,0-0.3,0-0.4c0-0.2,0.1-0.4,0.2-0.6
			l0.4-0.8l0.6,0.3l-0.4,0.8c0,0.1-0.1,0.2-0.1,0.3c0,0.1,0,0.1,0,0.2c0,0.1,0.1,0.1,0.1,0.1c0.1,0,0.1,0.1,0.2,0.1l0.2,0.1l1.3-2.6
			l0.5,0.3l-1.3,2.6l0.2,0.1c0.1,0,0.2,0.1,0.2,0.1s0.1,0,0.2,0c0.1,0,0.1-0.1,0.1-0.1c0-0.1,0.1-0.1,0.1-0.2l1.1-2.1l0.6,0.3
			L-62.8,451.8z"/>
		<path class="st2" d="M-60.9,445.7l-0.9,2.2l0.5,0.7l-0.3,0.8l-2.2-3c-0.1-0.1-0.1-0.2-0.1-0.3c0-0.1,0-0.2,0-0.4
			c0.1-0.1,0.1-0.2,0.2-0.3c0.1-0.1,0.2-0.1,0.3-0.1l3.7-0.6l-0.3,0.8L-60.9,445.7z M-62.2,447.3l0.6-1.5l-1.6,0.3L-62.2,447.3z"/>
		<path class="st2" d="M-59.1,443.2c-0.1,0.2-0.2,0.4-0.3,0.6c-0.1,0.1-0.2,0.3-0.3,0.3c-0.1,0.1-0.3,0.1-0.4,0.1
			c-0.2,0-0.3,0-0.5-0.1l-2.1-0.7l0.2-0.7l2.1,0.7c0.1,0,0.2,0,0.2,0.1c0.1,0,0.1,0,0.2,0s0.1-0.1,0.2-0.1c0-0.1,0.1-0.2,0.1-0.3
			l0.6-1.9l0.6,0.2L-59.1,443.2z"/>
		<path class="st2" d="M-57.2,436.1l-2.2-0.5l1.7,2.1c0.1,0.1,0.1,0.2,0.1,0.4c0,0.1-0.1,0.2-0.2,0.3l-2.5,1.1l2.2,0.5l-0.2,0.7
			l-3.1-0.8c-0.1,0-0.2-0.1-0.2-0.2c0-0.1,0-0.2,0-0.3c0-0.1,0.1-0.2,0.1-0.2s0.1-0.1,0.2-0.1l2.9-1.2l-2-2.5c0-0.1-0.1-0.1-0.1-0.2
			c0-0.1,0-0.1,0-0.2c0-0.1,0.1-0.2,0.1-0.3c0.1-0.1,0.2-0.1,0.3-0.1l3.1,0.8L-57.2,436.1z"/>
		<path class="st2" d="M-56.7,433.4c0,0.2-0.1,0.4-0.2,0.6s-0.2,0.3-0.3,0.4c-0.1,0.1-0.2,0.1-0.4,0.2s-0.3,0-0.6,0l-1.1-0.2
			c-0.2,0-0.4-0.1-0.5-0.2c-0.1-0.1-0.2-0.2-0.3-0.3c-0.1-0.1-0.1-0.3-0.1-0.4s0-0.4,0-0.6l0.1-0.8l0.6,0.1l-0.1,0.8
			c0,0.1,0,0.2,0,0.3c0,0.1,0,0.1,0.1,0.2c0,0,0.1,0.1,0.1,0.1c0.1,0,0.1,0,0.2,0.1l0.2,0l0.5-2.9l0.6,0.1l-0.5,2.9l0.2,0
			c0.1,0,0.2,0,0.3,0c0.1,0,0.1,0,0.2-0.1c0,0,0.1-0.1,0.1-0.2c0-0.1,0-0.2,0.1-0.3l0.4-2.3l0.6,0.1L-56.7,433.4z"/>
		<path class="st2" d="M-55.8,426.9c0,0.1,0,0.2-0.1,0.2s-0.1,0.1-0.1,0.2l-2.6,2.3l2.4,0.2l-0.1,0.7l-3.2-0.3
			c-0.1,0-0.2-0.1-0.2-0.1c0-0.1-0.1-0.2,0-0.3c0-0.1,0-0.2,0.1-0.2c0-0.1,0.1-0.1,0.1-0.1l2.6-2.3l-2.5-0.2l0.1-0.7l3.2,0.3
			c0.1,0,0.2,0.1,0.2,0.1C-55.8,426.7-55.8,426.8-55.8,426.9z"/>
		<path class="st2" d="M-55.7,424.6l-2.8-0.1l0,1.4l-0.7,0l0.1-3.6l0.7,0l0,1.4l2.8,0.1L-55.7,424.6z"/>
	</g>
	<path id="XMLID_107_" class="st3" d="M-60.2,398.4c2,5.2,3.4,10.8,4.1,16.6"/>
	<g>
		<path class="st2" d="M-70.5,380.7l-0.5,0.4l-1.7-2c-0.1-0.1-0.2-0.2-0.2-0.2s-0.1,0-0.2,0.1l-0.1,0.1c-0.1,0.1-0.1,0.1-0.1,0.2
			c0,0.1,0.1,0.2,0.1,0.3l1.1,1.2c0.1,0.1,0.2,0.3,0.3,0.4s0.1,0.2,0.1,0.3c0,0.1,0,0.2-0.1,0.3c-0.1,0.1-0.2,0.2-0.3,0.3l-0.1,0.1
			c-0.1,0.1-0.3,0.2-0.4,0.3c-0.1,0.1-0.2,0.1-0.3,0.1c-0.1,0-0.2,0-0.3-0.1c-0.1-0.1-0.2-0.2-0.3-0.3l-0.7-0.8l0.5-0.4l0.7,0.7
			c0.1,0.1,0.1,0.1,0.2,0.1c0.1,0,0.2,0,0.3-0.1l0.1-0.1c0.1-0.1,0.1-0.1,0.1-0.2c0-0.1,0-0.1-0.1-0.2l-1-1.2
			c-0.1-0.1-0.2-0.3-0.3-0.4s-0.1-0.2-0.1-0.3c0-0.1,0-0.2,0.1-0.3c0.1-0.1,0.1-0.2,0.3-0.3l0.2-0.2c0.1-0.1,0.2-0.2,0.3-0.2
			c0.1,0,0.2-0.1,0.3,0c0.1,0,0.2,0.1,0.3,0.1c0.1,0.1,0.2,0.2,0.4,0.3L-70.5,380.7z"/>
		<path class="st2" d="M-74.3,376.5c0.2,0.2,0.3,0.3,0.4,0.5c0.1,0.1,0.1,0.3,0.1,0.4c0,0.1,0,0.3-0.1,0.4c-0.1,0.1-0.2,0.3-0.3,0.4
			l-1.6,1.6l-0.5-0.5l1.6-1.6c0.1-0.1,0.1-0.1,0.2-0.2s0-0.1,0-0.2c0-0.1,0-0.1-0.1-0.2c0-0.1-0.1-0.1-0.2-0.2l-0.8-0.8
			c-0.1-0.1-0.2-0.1-0.2-0.2c-0.1,0-0.1-0.1-0.2-0.1c-0.1,0-0.1,0-0.2,0c-0.1,0-0.1,0.1-0.2,0.2l-1.6,1.6l-0.5-0.5l1.6-1.6
			c0.2-0.2,0.3-0.3,0.4-0.3c0.1-0.1,0.3-0.1,0.4-0.1c0.1,0,0.3,0.1,0.4,0.1s0.3,0.2,0.5,0.4L-74.3,376.5z"/>
		<path class="st2" d="M-78.7,372.4l0.7,2.2l0.8-0.9l0.6,0.5l-2.2,2.6l-2-1.8c-0.2-0.2-0.3-0.3-0.4-0.4s-0.2-0.3-0.2-0.4
			c0-0.1,0-0.3,0-0.4s0.1-0.3,0.3-0.4l0.2-0.2c0.1-0.1,0.3-0.3,0.4-0.3c0.1-0.1,0.3-0.1,0.4-0.1c0.1,0,0.3,0.1,0.4,0.2
			s0.3,0.2,0.5,0.4l0.5,0.4l-0.7-2.2L-78.7,372.4z M-80.6,373.8c-0.1,0.1-0.1,0.1-0.1,0.2c0,0.1,0,0.1,0,0.2s0.1,0.1,0.1,0.2
			c0.1,0.1,0.1,0.1,0.2,0.2l1.4,1.2l0.7-0.8l-1.4-1.2c-0.1-0.1-0.2-0.1-0.2-0.2c-0.1,0-0.1-0.1-0.2-0.1c-0.1,0-0.1,0-0.2,0
			c-0.1,0-0.1,0.1-0.2,0.1L-80.6,373.8z"/>
		<path class="st2" d="M-82.4,369.8c0.1,0,0.2-0.1,0.3-0.1c0.1,0,0.2,0,0.3,0.1c0.1,0.1,0.2,0.2,0.2,0.3c0,0.1,0,0.2,0,0.3l-0.3,3.7
			l-0.7-0.6l0.3-3.1l-2.9,1.1l-0.7-0.5L-82.4,369.8z"/>
		<path class="st2" d="M-84.2,368.2l-1.9,2.8l-0.6-0.4l1.9-2.8L-84.2,368.2z"/>
		<path class="st2" d="M-88,366.1c0.1-0.1,0.2-0.1,0.3-0.1c0.1,0,0.2,0,0.3,0.1c0.1,0.1,0.2,0.2,0.3,0.3s0.1,0.2,0.1,0.3l0,3.7
			l-0.8-0.5l0-3.1l-2.7,1.4l-0.8-0.5L-88,366.1z"/>
		<path class="st2" d="M-92.4,364.3l2.1,1.1l0.8-0.5l0.8,0.4l-3.2,1.9c-0.1,0.1-0.2,0.1-0.3,0.1c-0.1,0-0.2,0-0.4-0.1
			c-0.1-0.1-0.2-0.2-0.3-0.2c0-0.1-0.1-0.2-0.1-0.3l-0.3-3.7l0.8,0.4L-92.4,364.3z M-90.9,365.7l-1.5-0.8l0.1,1.6L-90.9,365.7z"/>
		<path class="st2" d="M-94.7,362.3c0.2,0.1,0.4,0.2,0.5,0.3c0.1,0.1,0.2,0.2,0.3,0.3c0.1,0.1,0.1,0.3,0.1,0.4
			c0,0.2-0.1,0.3-0.2,0.5l-0.9,2.1l-0.7-0.3l0.9-2c0-0.1,0.1-0.2,0.1-0.2s0-0.1,0-0.2c0-0.1-0.1-0.1-0.1-0.2c-0.1,0-0.2-0.1-0.3-0.1
			l-1.9-0.8l0.3-0.6L-94.7,362.3z"/>
	</g>
	<path id="XMLID_97_" class="st3" d="M-130.4,357.5c3.1-0.4,6.2-0.7,9.4-0.7c1.5,0,3.1,0.1,4.6,0.2"/>
	<path id="XMLID_26_" class="st2" d="M-119.6,362.6l-3.5-10.9l-3.5,10.8l-13,40.5l-2.2,6.9l-5.9,18.6l5.6,4.2l7.3-22.8l2.2-6.9
		l9.5-29.6l8.8,27.6h6.9L-119.6,362.6z M-142.7,434.6l-5.7-4.2l-27.6-20.6h32.1l2.2-6.9h-55.5l9.2,6.9l37.3,27.7l5.6,4.2l14.2,10.5
		h0l6-4.4L-142.7,434.6z M-82.1,479.7l-13.5-42.2l-2.3-7l-5.9-18.5h-6.9l7.3,22.7l2.3,7l10,31.3l-24.4-18.1l-6,4.4l34.1,25.4
		l9.1,6.7L-82.1,479.7z M-105.2,435.8l-18,13.3l-6,4.4l-25.8,19.2l9.3-29l-5.7-4.2l-12.8,40l-3.6,11.4l9.2-6.8l35.3-26.2l6-4.4
		l14.3-10.7L-105.2,435.8z M-130.4,403l-2.2,6.9h62.3l-25.9,19.3l2.3,7l35.4-26.3l9.2-6.9H-130.4z"/>
	<g id="XMLID_37_">
		<polygon id="XMLID_23_" class="st3" points="-105.8,433.8 -123.1,446.7 -140.3,433.9 -133.3,411.9 -112.9,411.9 		"/>
		<polygon id="XMLID_22_" class="st3" points="-144.5,411.9 -149.4,427.2 -169.9,411.9 		"/>
		<polygon id="XMLID_21_" class="st3" points="-132.4,453.6 -151.1,467.5 -143.9,445.1 		"/>
		<polygon id="XMLID_20_" class="st3" points="-76.3,411.9 -96.9,427.1 -101.7,411.9 		"/>
		<polygon id="XMLID_18_" class="st3" points="-116.3,401 -129.8,401 -123.1,380 		"/>
		<polygon id="XMLID_17_" class="st3" points="-95,467.6 -113.9,453.5 -102.3,444.9 		"/>
		<polygon id="XMLID_14_" class="st3" points="-124.8,447.9 -130.8,452.3 -130.8,452.3 -145,441.8 -150.6,437.6 -187.9,409.9 
			-197.1,403 -141.6,403 -143.8,409.9 -176,409.9 -148.3,430.4 -142.6,434.6 		"/>
		<polygon id="XMLID_12_" class="st3" points="-102.9,442.8 -117.3,453.5 -123.2,457.9 -158.5,484.2 -167.7,491 -164.1,479.6 
			-151.2,439.6 -145.6,443.8 -154.9,472.8 -129.1,453.6 -123.1,449.2 -105.2,435.8 		"/>
		<polygon id="XMLID_11_" class="st3" points="-49.4,403 -58.6,409.9 -94,436.2 -96.2,429.1 -70.3,409.9 -132.6,409.9 -130.4,403 		
			"/>
		<polygon id="XMLID_9_" class="st3" points="-107.3,401 -114.2,401 -123.1,373.4 -132.5,403 -134.7,409.9 -142,432.6 -147.7,428.4 
			-141.7,409.9 -139.5,403 -126.6,362.5 -123.1,351.7 -119.6,362.6 		"/>
		<polygon id="XMLID_8_" class="st3" points="-78.4,491.3 -87.5,484.6 -121.6,459.2 -115.6,454.8 -91.2,472.9 -101.2,441.6 
			-103.5,434.6 -110.8,411.9 -103.8,411.9 -97.9,430.4 -95.7,437.4 -82.1,479.7 		"/>
		<path id="XMLID_50_" class="st4" d="M-105.2,401l-12.5-39l-3.5-10.9l-1.9-5.9l-1.9,5.9l-3.5,10.8L-141,401h-62.2l4.8,3.6l9.2,6.9
			l36.1,26.9l-13,40.7l-3.7,11.4l-1.9,5.9l5-3.7l9.2-6.8l34.1-25.3l34.6,25.7l9.1,6.7l5,3.7l-1.9-5.9l-3.7-11.6l-13.1-40.9
			l35.9-26.7l9.2-6.9l4.8-3.6H-105.2z M-139.5,403l13-40.5l3.5-10.8l3.5,10.9l12.3,38.3h-6.9l-8.8-27.6l-9.5,29.6l-2.2,6.9
			l-7.3,22.8l-5.6-4.2l5.9-18.6L-139.5,403z M-116.3,401h-13.5l6.7-21L-116.3,401z M-133.3,411.9h20.4l7,21.9l-17.3,12.9l-17.2-12.8
			L-133.3,411.9z M-149.4,427.2l-20.6-15.3h25.5L-149.4,427.2z M-187.9,409.9l-9.2-6.9h55.5l-2.2,6.9H-176l27.6,20.6l5.7,4.2
			l17.8,13.3l-6,4.4h0l-14.2-10.5l-5.6-4.2L-187.9,409.9z M-132.4,453.6l-18.6,13.9l7.2-22.4L-132.4,453.6z M-158.5,484.2l-9.2,6.8
			l3.6-11.4l12.8-40l5.7,4.2l-9.3,29l25.8-19.2l6-4.4l18-13.3l2.3,7l-14.3,10.7l-6,4.4L-158.5,484.2z M-102.3,444.9l7.3,22.7
			l-18.9-14.1L-102.3,444.9z M-82.1,479.7l3.7,11.6l-9.1-6.7l-34.1-25.4l6-4.4l24.4,18.1l-10-31.3l-2.3-7l-7.3-22.7h6.9l5.9,18.5
			l2.3,7L-82.1,479.7z M-101.7,411.9h25.4l-20.5,15.3L-101.7,411.9z M-58.6,409.9L-94,436.2l-2.3-7l25.9-19.3h-62.3l2.2-6.9h81
			L-58.6,409.9z"/>
	</g>
</g>
</svg>
