<?xml version="1.0" encoding="utf-8"?>
<!-- Generator: Adobe Illustrator 19.0.0, SVG Export Plug-In . SVG Version: 6.00 Build 0)  -->
<svg version="1.1" id="Capa_1" xmlns="http://www.w3.org/2000/svg" xmlns:xlink="http://www.w3.org/1999/xlink" x="0px" y="0px"
	 viewBox="-210 325.9 173.5 190" style="enable-background:new -210 325.9 173.5 190;" xml:space="preserve">
<g>
	<path d="M-49,402.9c0-24.8-20.2-45-45-45c-11.1,0-21.4,4.2-29.3,10.8c-7.9-6.8-18.1-10.8-29.3-10.8c-24.8,0-45,20.2-45,45
		c0,20.2,13.4,37.4,31.8,43.1c2.4,21.2,20.5,37.9,42.5,37.9s40.1-16.6,42.5-38C-62.4,440.2-49,423.1-49,402.9z M-84.9,441.2
		c0,0.4,0,0.7,0,1.2c-2.8,0.6-5.8,1-8.9,1c-9.9,0-19-3.6-26-9.5c7-7.3,11.6-16.9,12.3-27.6C-94.3,412.3-84.9,425.6-84.9,441.2z
		 M-161.6,441.2c0-15.6,9.4-29,22.7-34.9c0.7,10.7,5.3,20.3,12.3,27.6c-7,5.9-16,9.5-26,9.5c-3.1,0-6.1-0.4-8.9-1
		C-161.4,442-161.6,441.5-161.6,441.2z M-123.3,398.5c-3.9,0-7.6,0.6-11.1,1.5c0.7-9.7,4.8-18.4,11.1-24.9
		c6.2,6.5,10.4,15.3,11.1,24.9C-115.7,398.9-119.4,398.5-123.3,398.5z M-193,402.9c0-22.3,18.1-40.5,40.5-40.5c9.9,0,19,3.6,26,9.5
		c-7.4,7.7-12,18.1-12.5,29.6c-15.7,6.2-27,21.7-27,39.6C-181.8,435.4-193,420.4-193,402.9z M-123.3,479.4
		c-19,0-34.9-14.1-37.7-32.4c2.8,0.6,5.6,0.9,8.5,0.9c11.1,0,21.4-4.2,29.3-10.8c7.9,6.8,18.1,10.8,29.3,10.8c3,0,5.8-0.3,8.5-0.9
		C-88.4,465.4-104.2,479.4-123.3,479.4z M-80.5,441.1c0-18-11.3-33.4-27-39.6c-0.4-11.4-5-21.8-12.5-29.6c7-5.9,16-9.5,26-9.5
		c22.3,0,40.5,18.1,40.5,40.5C-53.5,420.4-64.7,435.4-80.5,441.1z"/>
</g>
</svg>
