<?xml version="1.0" encoding="utf-8"?>
<!-- Generator: Adobe Illustrator 19.0.0, SVG Export Plug-In . SVG Version: 6.00 Build 0)  -->
<svg version="1.1" id="Capa_1" xmlns="http://www.w3.org/2000/svg" xmlns:xlink="http://www.w3.org/1999/xlink" x="0px" y="0px"
	 viewBox="-210 325.9 173.5 190" style="enable-background:new -210 325.9 173.5 190;" xml:space="preserve">
<g>
	<path d="M-48.9,402.9c0-24.8-20.2-45-45-45c-11.1,0-21.4,4.2-29.3,10.8c-7.9-6.8-18.1-10.8-29.3-10.8c-24.8,0-45,20.2-45,45
		c0,20.2,13.4,37.4,31.8,43.1c2.4,21.2,20.5,37.9,42.5,37.9s40.1-16.6,42.5-38C-62.3,440.2-48.9,423.1-48.9,402.9z M-84.8,441.2
		c0,0.4,0,0.7,0,1.2c-2.8,0.6-5.8,1-8.9,1c-9.9,0-19-3.6-26-9.5c7-7.3,11.6-16.9,12.3-27.6C-94.3,412.3-84.8,425.6-84.8,441.2z
		 M-161.6,441.2c0-15.6,9.4-29,22.7-34.9c0.7,10.7,5.3,20.3,12.3,27.6c-7,5.9-16,9.5-26,9.5c-3.1,0-6.1-0.4-8.9-1
		C-161.3,442-161.6,441.5-161.6,441.2z M-123.3,398.5c-3.9,0-7.6,0.6-11.1,1.5c0.7-9.7,4.8-18.4,11.1-24.9
		c6.2,6.5,10.4,15.3,11.1,24.9C-115.6,398.9-119.3,398.5-123.3,398.5z M-192.9,402.9c0-22.3,18.1-40.5,40.5-40.5
		c9.9,0,19,3.6,26,9.5c-7.4,7.7-12,18.1-12.5,29.6c-15.7,6.2-27,21.7-27,39.6C-181.8,435.4-192.9,420.4-192.9,402.9z M-123.3,479.4
		c-19,0-34.9-14.1-37.7-32.4c2.8,0.6,5.6,0.9,8.5,0.9c11.1,0,21.4-4.2,29.3-10.8c7.9,6.8,18.1,10.8,29.3,10.8c3,0,5.8-0.3,8.5-0.9
		C-88.3,465.4-104.1,479.4-123.3,479.4z M-80.4,441.1c0-18-11.3-33.4-27-39.6c-0.4-11.4-5-21.8-12.5-29.6c7-5.9,16-9.5,26-9.5
		c22.3,0,40.5,18.1,40.5,40.5C-53.4,420.4-64.6,435.4-80.4,441.1z"/>
</g>
<g>
	<path d="M-135.5,463.1v3.7h-11.2v-2.9l5.1-4.7c0.4-0.4,0.7-0.8,0.9-1.1c0.1-0.3,0.2-0.6,0.2-0.9c0-0.3-0.1-0.6-0.4-0.8
		c-0.2-0.2-0.6-0.3-1-0.3c-0.4,0-0.8,0.1-1.2,0.3c-0.4,0.2-0.7,0.5-0.9,1l-3.6-1.8c0.5-1,1.3-1.8,2.3-2.4c1-0.6,2.3-0.9,3.7-0.9
		c1.1,0,2.1,0.2,2.9,0.5c0.9,0.4,1.5,0.9,2,1.5c0.5,0.7,0.7,1.4,0.7,2.3c0,0.8-0.2,1.5-0.5,2.2c-0.3,0.7-1,1.4-1.9,2.3l-2,1.8
		H-135.5z"/>
	<path d="M-131.5,466.2c-1-0.6-1.7-1.4-2.2-2.5c-0.5-1.1-0.8-2.4-0.8-3.9s0.3-2.8,0.8-3.9c0.5-1.1,1.3-1.9,2.2-2.5s2.1-0.9,3.3-0.9
		c1.2,0,2.3,0.3,3.3,0.9c1,0.6,1.7,1.4,2.2,2.5c0.5,1.1,0.8,2.4,0.8,3.9s-0.3,2.8-0.8,3.9c-0.5,1.1-1.3,1.9-2.2,2.5
		c-1,0.6-2,0.9-3.3,0.9C-129.5,467.1-130.6,466.8-131.5,466.2z M-126.6,459.8c0-2.4-0.5-3.5-1.6-3.5c-1.1,0-1.6,1.2-1.6,3.5
		s0.5,3.5,1.6,3.5C-127.2,463.3-126.6,462.1-126.6,459.8z"/>
	<path d="M-114.3,452.8v14h-4.7v-10.4h-2.4v-3.6H-114.3z"/>
	<path d="M-99,464.4h-1.9v2.4h-4.6v-2.4h-7.3v-3l5.9-8.6h4.8l-5.3,7.9h1.9v-2.1h4.4v2.1h1.9V464.4z"/>
</g>
</svg>
