<?xml version="1.0" encoding="utf-8"?>
<!-- Generator: Adobe Illustrator 19.0.0, SVG Export Plug-In . SVG Version: 6.00 Build 0)  -->
<svg version="1.1" id="Capa_1" xmlns="http://www.w3.org/2000/svg" xmlns:xlink="http://www.w3.org/1999/xlink" x="0px" y="0px"
	 viewBox="-210 325.9 173.5 190" style="enable-background:new -210 325.9 173.5 190;" xml:space="preserve">
<g>
	<circle cx="-123.4" cy="421.1" r="1.1"/>
	<path d="M-108.6,387c-0.5,0.2-2.3,12.3-3.2,14.7h-22.8c-0.9-2.4-2.8-14.5-3.2-14.7c-0.5-0.2-9.1,16.7-3.4,26.7v9.6
		c0,9.9,16.7,20.9,17.4,21.3c0.2,0.1,0.4,0.2,0.6,0.2c0.2,0,0.4-0.1,0.6-0.2c0.7-0.5,17.5-11.5,17.5-21.3v-9.6
		C-99.5,403.7-108.2,386.8-108.6,387z M-123.2,416.2c3.9,0,10.4,4,12.6,5.5c-2.2,1.4-8.6,5.5-12.6,5.5c-3.9,0-10.4-4-12.6-5.5
		C-133.7,420.2-127.2,416.2-123.2,416.2z M-109.7,418.2c0.1,0.3-0.1,0.7-0.4,0.8l-0.6,0.2c-0.4-0.3-0.9-0.6-1.4-0.9l1.6-0.5
		C-110.1,417.7-109.8,417.9-109.7,418.2z M-111.6,415.1c0.3-0.2,0.7-0.1,0.8,0.2c0.2,0.3,0.1,0.7-0.2,0.8l-2.5,1.3
		c-0.1-0.1-0.2-0.1-0.4-0.2c-0.3-0.2-0.6-0.3-0.9-0.5L-111.6,415.1z M-112.6,412.7c0.2,0.2,0.2,0.6-0.1,0.8l-3.2,2.8
		c-0.4-0.2-0.8-0.4-1.2-0.6l3.6-3.1C-113.2,412.4-112.8,412.4-112.6,412.7z M-115,410.3c0.3,0.2,0.3,0.6,0.2,0.8l-2.9,4.2
		c-0.4-0.2-0.8-0.3-1.2-0.5l3.1-4.4C-115.7,410.2-115.3,410.2-115,410.3z M-119.5,409.4c0.1-0.3,0.4-0.5,0.8-0.4
		c0.3,0.1,0.5,0.5,0.4,0.8l-1.6,4.9c-0.4-0.1-0.8-0.2-1.2-0.3L-119.5,409.4z M-123.8,408.8c0-0.3,0.3-0.6,0.6-0.6
		c0.3,0,0.6,0.3,0.6,0.6v5.3c-0.2,0-0.5,0-0.7-0.1c-0.2,0-0.4,0-0.5,0V408.8z M-127.7,409c0.3-0.1,0.7,0.1,0.8,0.4l1.6,4.9
		c-0.4,0.1-0.8,0.2-1.2,0.3l-1.6-4.9C-128.2,409.4-128,409.1-127.7,409z M-131.3,410.3c0.3-0.2,0.7-0.1,0.8,0.2l3.1,4.4
		c-0.4,0.1-0.8,0.3-1.2,0.4l-2.9-4.1C-131.7,410.9-131.6,410.5-131.3,410.3z M-133.8,412.6c0.2-0.2,0.6-0.3,0.8-0.1l3.5,3.1
		c-0.4,0.2-0.8,0.4-1.2,0.5l-3.1-2.7C-134,413.3-134,412.9-133.8,412.6z M-135.6,415.3c0.2-0.3,0.5-0.4,0.8-0.2l3.1,1.6
		c-0.4,0.2-0.8,0.5-1.3,0.7l-2.4-1.3C-135.7,416-135.7,415.6-135.6,415.3z M-136.7,418.2c0.1-0.3,0.4-0.5,0.8-0.4l1.5,0.4
		c-0.5,0.3-1,0.6-1.4,0.8l-0.5-0.1C-136.6,418.9-136.8,418.5-136.7,418.2z"/>
	<path d="M-119.3,421c0-2.2-1.8-4.1-4.1-4.1c-2.2,0-4.1,1.8-4.1,4.1c0,2.2,1.8,4.1,4.1,4.1C-121.1,425.1-119.3,423.2-119.3,421z
		 M-123.4,424c-1.7,0-3-1.3-3-3c0-1.7,1.3-3,3-3c1.7,0,3,1.4,3,3C-120.4,422.7-121.7,424-123.4,424z"/>
</g>
<path d="M-123.3,496c2.7-10.8,6.3-27.1,10.2-34.3l2.1-0.5c4.4-0.5,66.3-6.3,64.2-39c-11.8,12.1-30.3,16.6-46.9,18.9
	c0.9-2.5,1.7-5,2.8-7.4c40-14.5,47.9-31.1,46.1-54.5c-7.5,14.5-28.8,27-40.8,31.9c-0.1-1.7-0.2-3.5-0.2-5.2
	c10.1-6.7,39.5-25.6,39.5-53.2c0-2.3-0.3-4.6-0.8-6.9c-8.5,11.8-20.1,35.3-57.6,48.7l0.2,0.3c8.1,4.2,3.9,14.3,3.9,26
	c0,15.6-10.1,28.2-22.5,28.2s-22.6-12.7-22.6-28.3c0-11.7-4.3-21.8,3.9-26l0.2-0.3c-37.5-13.5-49.2-36.9-57.6-48.7
	c-0.6,2.3-0.8,4.6-0.8,6.9c0,27.6,29.4,46.5,39.5,53.2c0,1.7-0.1,3.5-0.2,5.2c-12-4.8-33.2-17.5-40.8-31.9
	c-1.7,23.4,6.1,40,46.2,54.5c1,2.4,1.9,4.9,2.8,7.4c-16.6-2.3-35.1-6.8-46.9-18.9c-2.1,32.7,59.8,38.5,64.2,39l2,0.5
	C-129.6,468.9-126,485.1-123.3,496z"/>
</svg>
