<?xml version="1.0" encoding="utf-8"?>
<!-- Generator: Adobe Illustrator 19.0.0, SVG Export Plug-In . SVG Version: 6.00 Build 0)  -->
<svg version="1.1" id="Capa_1" xmlns="http://www.w3.org/2000/svg" xmlns:xlink="http://www.w3.org/1999/xlink" x="0px" y="0px"
	 viewBox="-210 325.9 173.5 190" style="enable-background:new -210 325.9 173.5 190;" xml:space="preserve">
<style type="text/css">
	.st0{fill:none;stroke:#000000;stroke-width:2;stroke-miterlimit:10;}
</style>
<g>
	<circle class="st0" cx="-123.3" cy="420.9" r="71.3"/>
	<circle class="st0" cx="-123.3" cy="420.9" r="55.2"/>
	<path d="M-123.9,411l1.4,0l0,5.7l-1.4,0L-123.9,411z M-133.1,421.6l5.7,0l0-1.4l-5.7,0L-133.1,421.6z M-124,430.8l1.4,0l0-5.7
		l-1.4,0L-124,430.8z M-119,421.6l5.7,0l0-1.4l-5.7,0L-119,421.6z M-68.1,421.6h-12.8c-0.2,10.6-4.3,21.2-12.4,29.3
		c-7.8,7.8-18.2,12.2-29.3,12.4v12.8h-1.4v-12.8c-11.1-0.2-21.4-4.6-29.3-12.4c-7.8-7.8-12.2-18.2-12.4-29.3h-12.8v-1.4h12.8
		c0.2-11.1,4.6-21.4,12.4-29.3c7.8-7.8,18.2-12.2,29.3-12.4v-12.8h1.4v12.8c11.1,0.2,21.4,4.6,29.3,12.4
		c8.1,8.1,12.2,18.7,12.4,29.3h12.8V421.6z M-122.5,381.3v8.5c8,0.2,15.6,3.4,21.3,9.1c5.9,5.9,8.9,13.6,9.1,21.3h8.5
		c-0.2-9.9-4-19.8-11.6-27.3C-102.6,385.6-112.2,381.5-122.5,381.3z M-108.3,421.6v-1.4h14.6c-0.2-7.4-3-14.7-8.6-20.3
		c-5.4-5.4-12.6-8.5-20.3-8.7v14.7h-1.4v-14.7c-7.7,0.2-14.9,3.2-20.3,8.7c-5.4,5.4-8.5,12.6-8.7,20.3h14.7v1.4h-14.7
		c0.2,7.7,3.2,14.9,8.7,20.3c5.4,5.4,12.6,8.5,20.3,8.7v-14.7h1.4v14.7c7.7-0.2,14.9-3.2,20.3-8.7c5.6-5.6,8.5-12.9,8.6-20.3
		L-108.3,421.6L-108.3,421.6z M-162.8,420.2h8.5c0.2-8,3.4-15.6,9.1-21.3c5.7-5.7,13.2-8.9,21.3-9.1v-8.5
		c-10.3,0.2-20,4.3-27.3,11.6C-158.6,400.2-162.6,409.9-162.8,420.2z M-124,460.5V452c-8-0.2-15.6-3.4-21.3-9.1
		c-5.7-5.7-8.9-13.2-9.1-21.3h-8.5c0.2,10.3,4.3,20,11.6,27.3C-143.9,456.2-134.3,460.3-124,460.5z M-83.7,421.6h-8.5
		c-0.2,7.7-3.2,15.4-9.1,21.3c-5.7,5.7-13.2,8.9-21.3,9.1v8.5c10.3-0.2,20-4.3,27.3-11.6C-87.7,441.3-83.9,431.5-83.7,421.6z"/>
	<path d="M-123.2,438.1c9.9-23.2,17.3-27.3,19.5-27.4c4.7-0.3,13,6,15.2,8.3c0.4-0.5,2.7-2.4,4.8-3c2.7-0.7,5,0.6,8.1,3
		c6,4.5,9,9.5,10,13.9c6.2-27.1-7.4-51.9-23.9-59.5c-11.8,13.2-19.6,12.9-20.9,12.5c-3.3-1-5.9-5-8.6-10.2l-0.6-1.1
		c-0.5,2.1-2.7,3.9-3.4,4h-0.2c-0.7-0.1-2.9-1.9-3.4-4l-0.6,1.1c-2.7,5.2-5.3,9.2-8.6,10.2c-1.4,0.4-9.2,0.7-20.9-12.5
		c-16.6,7.6-30.1,32.4-23.9,59.5c0.9-4.4,4-9.4,10-13.9c3.1-2.3,5.4-3.7,8.1-3c2.1,0.6,4.4,2.5,4.8,3c2.2-2.3,10.5-8.7,15.2-8.3
		C-140.6,410.8-133.2,414.9-123.2,438.1"/>
	<g>
		<path d="M-140.9,355.1c0.9-0.3,1.7-0.2,2.4,0.2c0.7,0.4,1.2,1.1,1.4,1.9c0.2,0.7,0.2,1.4-0.1,2.1c-0.4,0.9-1.1,1.5-2.1,1.7
			c-1,0.3-1.9,0.1-2.7-0.4c-0.6-0.4-1-1-1.2-1.8c-0.2-0.9-0.1-1.6,0.3-2.4C-142.4,355.8-141.7,355.3-140.9,355.1z M-140.7,355.4
			c-0.5,0.1-0.9,0.5-1,1.1c-0.1,0.5,0,1.2,0.2,2c0.3,1,0.6,1.7,1.1,2c0.3,0.3,0.7,0.3,1.1,0.2c0.3-0.1,0.5-0.2,0.7-0.4
			c0.2-0.2,0.3-0.6,0.3-1c0-0.4,0-1-0.2-1.6c-0.2-0.8-0.4-1.3-0.7-1.7c-0.2-0.3-0.5-0.6-0.8-0.7S-140.5,355.3-140.7,355.4z"/>
		<path d="M-132.5,359.5l0-0.2c0.2,0,0.3-0.1,0.3-0.2c0.1-0.1,0.1-0.3,0-0.5l-0.4-3l-0.4,0.1c-0.3,0-0.5,0.1-0.6,0.2
			c-0.1,0.1-0.2,0.3-0.2,0.7l-0.2,0l-0.1-1.1l4.1-0.5l0.1,1.1l-0.2,0c-0.1-0.3-0.2-0.5-0.3-0.6c-0.1-0.1-0.3-0.1-0.6-0.1l-0.4,0.1
			l0.4,3c0,0.3,0.1,0.5,0.2,0.5c0.1,0.1,0.2,0.1,0.4,0.1l0,0.2L-132.5,359.5z"/>
		<path d="M-122.8,354.7l0,0.2c-0.2,0-0.3,0.1-0.4,0.2c-0.1,0.1-0.1,0.2-0.1,0.4l0.1,2.7c0,0.2,0,0.4,0.1,0.5
			c0.1,0.1,0.2,0.1,0.3,0.1l0,1.2l-0.2,0c-0.1-0.7-0.5-1.1-1.4-1.1l-1.2,0c-0.8,0-1.3,0.4-1.3,1.1l-0.2,0l0-1.2c0.4,0,0.6-0.4,0.8-1
			c0.2-0.6,0.3-1.3,0.3-2c0-0.2,0-0.4-0.1-0.5c0-0.1-0.1-0.2-0.1-0.2c-0.1,0-0.2-0.1-0.3-0.1l0-0.2L-122.8,354.7z M-124.5,355.1
			l-1.1,0l0,0.6c0,1.3-0.2,2.2-0.6,2.9l1.4,0c0.3,0,0.4-0.2,0.4-0.5L-124.5,355.1z"/>
		<path d="M-116,357.1l-2.2-0.2c0,0.5,0.1,1,0.3,1.3c0.2,0.3,0.4,0.4,0.7,0.4c0.2,0,0.3,0,0.5-0.1c0.2-0.1,0.3-0.2,0.5-0.5l0.1,0.1
			c-0.3,0.4-0.5,0.7-0.8,0.9s-0.6,0.2-1,0.2c-0.6-0.1-1-0.3-1.3-0.8c-0.2-0.4-0.3-0.9-0.3-1.4c0.1-0.7,0.3-1.2,0.7-1.6
			c0.4-0.4,0.9-0.5,1.3-0.5c0.4,0,0.8,0.2,1,0.6C-116.1,355.9-116,356.4-116,357.1z M-117.1,356.7c0-0.5,0-0.8,0-1
			c0-0.2-0.1-0.3-0.2-0.4c-0.1-0.1-0.1-0.1-0.2-0.1c-0.2,0-0.3,0.1-0.4,0.2c-0.2,0.2-0.3,0.6-0.3,1l0,0.2L-117.1,356.7z"/>
		<path d="M-111.2,360.1l0-0.2c0.1,0,0.3,0,0.4,0c0.1,0,0.2-0.2,0.2-0.4l0.6-3l-1.1-0.2l-0.4,1.8c-0.1,0.6-0.2,1.1-0.4,1.3
			s-0.3,0.4-0.5,0.5c-0.2,0.1-0.4,0.1-0.6,0.1c-0.2,0-0.4-0.2-0.5-0.3c-0.1-0.2-0.1-0.3-0.1-0.5c0-0.2,0.1-0.3,0.2-0.4
			c0.1-0.1,0.3-0.1,0.4-0.1c0.3,0.1,0.4,0.3,0.3,0.7c0,0.2,0,0.3,0,0.3c0.1,0,0.2-0.1,0.4-0.3c0.1-0.2,0.2-0.6,0.4-1.3l0.2-1.2
			c0.1-0.3,0.1-0.5,0-0.6c-0.1-0.1-0.2-0.2-0.3-0.2l0-0.2l3.6,0.7l0,0.2c-0.3-0.1-0.5,0.1-0.5,0.5l-0.5,2.6c0,0.2,0,0.3,0,0.5
			c0,0.1,0.1,0.2,0.3,0.2l0,0.2L-111.2,360.1z"/>
		<path d="M-89.9,365.4l-0.9,1.4c-0.2,0.3-0.3,0.5-0.3,0.6c0,0.1,0,0.2,0.1,0.3c0.1,0.1,0.2,0.2,0.4,0.4l-0.1,0.1l-2.6-1.6l0.1-0.1
			c0.2,0.1,0.4,0.2,0.5,0.2c0.1,0,0.2,0,0.3-0.1c0.1,0,0.2-0.2,0.4-0.5l2-3.3c0.2-0.3,0.3-0.5,0.3-0.6c0-0.1,0-0.2-0.1-0.3
			c-0.1-0.1-0.2-0.2-0.4-0.4l0.1-0.1l2.2,1.3c0.7,0.4,1.2,0.9,1.3,1.3c0.2,0.5,0.1,0.9-0.1,1.3c-0.2,0.3-0.5,0.6-0.8,0.7
			c-0.3,0.1-0.7,0.1-1.1,0C-88.9,366-89.3,365.8-89.9,365.4z M-88.4,362.9l-1.3,2.2c0.1,0.1,0.1,0.1,0.2,0.1
			c0.3,0.2,0.6,0.2,0.9,0.2c0.3-0.1,0.5-0.3,0.8-0.7c0.2-0.4,0.3-0.7,0.3-1c-0.1-0.3-0.3-0.5-0.6-0.7L-88.4,362.9z"/>
		<path d="M-68.4,380.6l2.9,4.4l-1.3,0.9l-0.1-0.1c0.3-0.3,0.5-0.5,0.5-0.7c0.1-0.2,0.1-0.4,0-0.5c0-0.2-0.2-0.4-0.5-0.8l-0.7-1
			l-3.8,2.6c-0.3,0.2-0.4,0.3-0.4,0.5c0,0.1,0,0.3,0.2,0.5l0.1,0.1l-0.1,0.1l-1.7-2.6l0.1-0.1l0.1,0.1c0.1,0.2,0.3,0.3,0.4,0.4
			c0.1,0,0.3-0.1,0.6-0.2l3.4-2.3c0.2-0.2,0.4-0.3,0.4-0.4c0-0.1,0-0.3-0.2-0.5l-0.1-0.2L-68.4,380.6z"/>
		<path d="M-68.4,392l0.1-0.1c0.1,0.1,0.2,0.2,0.3,0.3c0.1,0.1,0.3,0,0.5-0.1l2.7-1.4l-0.5-1l-1.6,0.8c-0.6,0.3-1,0.5-1.2,0.5
			c-0.2,0.1-0.5,0-0.7-0.1c-0.2-0.1-0.4-0.2-0.5-0.4c-0.1-0.2-0.1-0.4-0.1-0.6c0.1-0.2,0.2-0.3,0.3-0.4c0.2-0.1,0.3-0.1,0.5-0.1
			c0.1,0,0.3,0.1,0.3,0.3c0.1,0.3,0.1,0.5-0.3,0.7c-0.2,0.1-0.2,0.2-0.2,0.2c0.1,0.1,0.2,0.2,0.4,0.1c0.2,0,0.6-0.2,1.2-0.5l1.1-0.6
			c0.2-0.1,0.4-0.2,0.4-0.4c0.1-0.1,0-0.2,0-0.4l0.1-0.1l1.7,3.2l-0.1,0.1c-0.1-0.3-0.4-0.3-0.7-0.1l-2.3,1.2
			c-0.2,0.1-0.3,0.2-0.3,0.3c-0.1,0.1,0,0.2,0,0.4l-0.1,0.1L-68.4,392z"/>
		<path d="M-64.8,398.5c-0.6-0.3-1-0.6-1.1-1c-0.1-0.2-0.1-0.4,0-0.6c0.1-0.2,0.2-0.3,0.5-0.4c0.3-0.1,0.6-0.1,0.9,0.1
			c0.3,0.2,0.9,0.6,1.6,1.3l0.4-0.2c0.3-0.1,0.5-0.2,0.5-0.3c0.1-0.1,0.1-0.1,0.1-0.3c0-0.1,0-0.2,0-0.3c-0.1-0.2-0.2-0.3-0.3-0.4
			c-0.1-0.1-0.1-0.1-0.2,0c-0.1,0-0.1,0.1-0.2,0.2c-0.1,0.1-0.2,0.2-0.3,0.3c-0.1,0.1-0.3,0-0.4,0c-0.1-0.1-0.2-0.2-0.3-0.3
			c-0.1-0.2-0.1-0.3,0-0.5c0.1-0.2,0.2-0.3,0.3-0.3c0.2-0.1,0.4-0.1,0.7,0c0.2,0.1,0.5,0.2,0.7,0.5c0.2,0.2,0.4,0.5,0.5,0.8
			c0.1,0.4,0.2,0.7,0.1,1c-0.1,0.3-0.2,0.5-0.3,0.6c-0.1,0.1-0.4,0.2-0.8,0.4l-1.5,0.6c-0.2,0.1-0.3,0.1-0.3,0.1
			c0,0-0.1,0.1-0.1,0.1c0,0,0,0.1,0,0.1c0,0.1,0.1,0.1,0.2,0.2l0,0.2c-0.3-0.1-0.5-0.1-0.6-0.3c-0.1-0.1-0.3-0.3-0.3-0.4
			c-0.1-0.2-0.1-0.4,0-0.6C-65.1,398.8-64.9,398.6-64.8,398.5z M-64.5,398.4l1.3-0.5c-0.3-0.3-0.6-0.4-0.9-0.5c-0.2,0-0.4,0-0.5,0
			c-0.1,0-0.2,0.1-0.3,0.3c0,0.1,0,0.2,0,0.3C-64.8,398.2-64.7,398.3-64.5,398.4z"/>
		<path d="M-59.8,402.1l0.6,2.2c0.1,0.5,0.1,0.9,0,1.2c-0.1,0.3-0.3,0.5-0.6,0.6c-0.4,0.1-0.8-0.1-1.1-0.7c0.1,0.8-0.1,1.3-0.7,1.5
			c-0.4,0.1-0.7,0-0.9-0.3c-0.3-0.3-0.5-0.7-0.6-1.3l-0.6-2.2l0.2,0c0.1,0.2,0.1,0.3,0.2,0.3c0.1,0,0.2,0,0.4,0l2.4-0.6
			c0.3-0.1,0.5-0.2,0.6-0.2s0.1-0.2,0-0.4L-59.8,402.1z M-61.4,404.3l-1.3,0.3c-0.1,0-0.2,0.1-0.3,0.1c0,0.1,0,0.2,0,0.3
			c0.1,0.2,0.2,0.4,0.4,0.5c0.2,0.1,0.4,0.2,0.7,0.1c0.3-0.1,0.4-0.2,0.5-0.4C-61.3,405.1-61.3,404.7-61.4,404.3z M-61.1,404.2
			c0.2,0.7,0.5,0.9,1,0.8c0.5-0.1,0.7-0.5,0.5-1.2L-61.1,404.2z"/>
		<path d="M-62.1,410.1l0.2,0c0,0.2,0.1,0.3,0.2,0.3s0.3,0.1,0.5,0l2.5-0.3c0.3,0,0.4-0.1,0.5-0.2c0.1-0.1,0.1-0.2,0.1-0.4l0.2,0
			l0.3,2.1l-0.2,0c0-0.1-0.1-0.2-0.2-0.3c-0.1,0-0.2-0.1-0.5,0l-1.1,0.1l0.2,1.2l1.1-0.1c0.2,0,0.3-0.1,0.4-0.1s0.1-0.2,0.1-0.3
			l0.2,0l0.3,2.1l-0.2,0c0-0.2-0.1-0.3-0.2-0.3c-0.1-0.1-0.2-0.1-0.4,0l-2.6,0.4c-0.3,0-0.4,0.1-0.5,0.2c-0.1,0.1-0.1,0.2-0.1,0.4
			l-0.2,0l-0.3-2.1l0.2,0c0,0.1,0.1,0.2,0.1,0.3c0.1,0,0.2,0.1,0.5,0l1.2-0.2l-0.2-1.2l-1.2,0.2c-0.3,0-0.4,0.1-0.5,0.2
			c-0.1,0.1-0.1,0.2-0.1,0.3l-0.2,0L-62.1,410.1z"/>
		<path d="M-57,419.5c0,0.4-0.1,0.7-0.3,1c-0.2,0.3-0.4,0.5-0.8,0.7c-0.3,0.2-0.7,0.3-1.1,0.3c-0.6,0-1.1-0.1-1.5-0.4
			c-0.5-0.3-0.7-0.8-0.7-1.5c0-0.6,0.2-1.1,0.6-1.4s0.9-0.5,1.5-0.5c0.6,0,1.1,0.1,1.6,0.5C-57.3,418.5-57,418.9-57,419.5z
			 M-57.3,419.5c0-0.1-0.1-0.3-0.2-0.4c-0.1-0.1-0.3-0.2-0.7-0.2c-0.3,0-0.8,0-1.4,0c-0.3,0-0.6,0-0.9,0.1c-0.2,0-0.4,0.1-0.5,0.2
			c-0.1,0.1-0.2,0.2-0.2,0.4c0,0.1,0,0.2,0.1,0.3c0.1,0.1,0.2,0.2,0.4,0.2c0.3,0.1,0.8,0.1,1.7,0.1c0.5,0,0.8,0,1-0.1
			c0.2-0.1,0.3-0.1,0.4-0.3C-57.4,419.8-57.3,419.7-57.3,419.5z"/>
		<path d="M-59.4,428.2l0.2-2.2c-0.5,0-1,0.1-1.3,0.3c-0.3,0.2-0.4,0.4-0.4,0.7c0,0.2,0,0.3,0.1,0.5c0.1,0.2,0.2,0.3,0.5,0.5
			l-0.1,0.1c-0.4-0.3-0.7-0.5-0.9-0.8c-0.2-0.3-0.2-0.6-0.2-1c0.1-0.6,0.3-1,0.8-1.3c0.4-0.2,0.9-0.3,1.4-0.3
			c0.7,0.1,1.2,0.3,1.6,0.7c0.4,0.4,0.5,0.9,0.5,1.4c0,0.4-0.2,0.8-0.6,1C-58.2,428.1-58.8,428.2-59.4,428.2z M-59,427.1
			c0.5,0,0.8,0,1,0s0.3-0.1,0.4-0.2c0.1-0.1,0.1-0.1,0.1-0.2c0-0.2,0-0.3-0.2-0.4c-0.2-0.2-0.6-0.3-1-0.4l-0.2,0L-59,427.1z"/>
		<path d="M-71.7,460l-1.3-1c-0.3-0.2-0.4-0.3-0.5-0.3c-0.1,0-0.2,0-0.3,0c-0.1,0.1-0.2,0.2-0.4,0.4l-0.1-0.1l1.8-2.4l0.1,0.1
			c-0.2,0.2-0.3,0.4-0.3,0.5c0,0.1,0,0.2,0,0.3s0.2,0.2,0.4,0.4l3.1,2.4c0.3,0.2,0.4,0.3,0.5,0.3c0.1,0,0.2,0,0.3,0
			c0.1,0,0.2-0.2,0.4-0.4l0.1,0.1l-1.6,2.1c-0.5,0.7-1,1.1-1.5,1.2s-0.9,0-1.2-0.3c-0.3-0.2-0.5-0.5-0.6-0.9c-0.1-0.4,0-0.7,0.2-1.1
			C-72.4,461-72.1,460.6-71.7,460z M-69.4,461.8l-2-1.6c-0.1,0.1-0.1,0.1-0.1,0.2c-0.2,0.3-0.3,0.6-0.3,0.8c0.1,0.3,0.3,0.6,0.6,0.8
			c0.4,0.3,0.7,0.4,0.9,0.4c0.3,0,0.5-0.2,0.8-0.5L-69.4,461.8z"/>
		<path d="M-78.6,464.8c0-0.7,0.2-1.1,0.5-1.4c0.2-0.2,0.4-0.3,0.6-0.3c0.2,0,0.4,0.1,0.6,0.2c0.2,0.2,0.3,0.5,0.3,0.9
			c0,0.4-0.2,1-0.5,2l0.3,0.3c0.2,0.2,0.4,0.3,0.5,0.4c0.1,0,0.2,0,0.3,0c0.1,0,0.2-0.1,0.3-0.2c0.1-0.1,0.2-0.3,0.2-0.4
			c0-0.1,0-0.2-0.1-0.2c0,0-0.1-0.1-0.2-0.1c-0.2,0-0.3-0.1-0.4-0.1c-0.1-0.1-0.2-0.2-0.2-0.4c0-0.1,0.1-0.3,0.2-0.4
			c0.1-0.1,0.3-0.2,0.4-0.2c0.2,0,0.3,0,0.4,0.1c0.2,0.1,0.2,0.3,0.3,0.6c0,0.3,0,0.5-0.2,0.8c-0.1,0.3-0.3,0.5-0.5,0.8
			c-0.3,0.3-0.5,0.4-0.8,0.5c-0.3,0-0.5,0-0.7-0.1c-0.1-0.1-0.3-0.2-0.6-0.5l-1.1-1.1c-0.1-0.1-0.2-0.2-0.3-0.2s-0.1,0-0.1,0
			c0,0-0.1,0-0.1,0c-0.1,0.1-0.1,0.1,0,0.3l-0.2,0c-0.1-0.3-0.1-0.5,0-0.7c0-0.2,0.1-0.3,0.3-0.5c0.2-0.2,0.3-0.3,0.5-0.3
			C-79,464.6-78.8,464.7-78.6,464.8z M-78.4,465.1l1,1c0.1-0.4,0.1-0.7,0.1-1c0-0.2-0.1-0.3-0.2-0.5c-0.1-0.1-0.2-0.1-0.4-0.1
			c-0.1,0-0.2,0-0.3,0.1C-78.3,464.6-78.4,464.8-78.4,465.1z"/>
		<path d="M-82.5,470.5c-0.5,0.2-0.8,0.3-1.1,0.2c-0.2-0.1-0.4-0.2-0.6-0.4c-0.2-0.3-0.3-0.6-0.2-0.9s0.3-0.7,0.7-1.1
			c0.6-0.5,1.2-0.6,1.8-0.4l-0.1,0.1c-0.5,0-0.8,0.1-1.1,0.3c-0.2,0.2-0.3,0.4-0.3,0.6c0,0.2,0.1,0.4,0.2,0.6c0.3,0.4,0.7,0.4,1.2,0
			l0.2,0.2c-0.4,0.3-0.4,0.7-0.1,1.1c0.2,0.2,0.3,0.3,0.5,0.3c0.2,0,0.4,0,0.5-0.1c0.3-0.3,0.4-0.7,0-1.3l0.1-0.1l0.8,1l-0.1,0.1
			c-0.1-0.1-0.2-0.1-0.3,0c0,0-0.1,0.1-0.1,0.2c-0.2,0.3-0.4,0.5-0.6,0.6c-0.3,0.3-0.6,0.4-0.9,0.4c-0.3,0-0.6-0.1-0.8-0.3
			C-82.9,471.5-82.9,471-82.5,470.5z"/>
		<path d="M-84.9,474.8l-1.9,1.3c-0.4,0.3-0.8,0.4-1.1,0.4c-0.3,0-0.6-0.1-0.8-0.4c-0.3-0.4-0.2-0.8,0.3-1.3
			c-0.8,0.4-1.3,0.3-1.6-0.2c-0.2-0.3-0.2-0.6,0-1c0.2-0.3,0.5-0.7,1-1l1.9-1.3l0.1,0.1c-0.2,0.1-0.2,0.2-0.2,0.3
			c0,0.1,0.1,0.2,0.2,0.4l1.4,2c0.2,0.3,0.3,0.4,0.4,0.5c0.1,0,0.2,0,0.4-0.1L-84.9,474.8z M-87.5,474l-0.7-1.1
			c-0.1-0.1-0.1-0.2-0.2-0.2c-0.1,0-0.2,0-0.3,0.1c-0.2,0.1-0.3,0.3-0.4,0.6c0,0.2,0,0.5,0.1,0.7c0.2,0.2,0.3,0.4,0.6,0.4
			C-88.2,474.3-87.9,474.2-87.5,474z M-87.3,474.2c-0.6,0.4-0.7,0.8-0.4,1.2c0.3,0.4,0.7,0.4,1.3,0.1L-87.3,474.2z"/>
		<path d="M-95.3,478.8l2-1c-0.3-0.5-0.6-0.8-1-0.9c-0.3-0.1-0.6-0.1-0.8,0c-0.2,0.1-0.3,0.2-0.4,0.4c-0.1,0.2-0.1,0.4-0.2,0.7
			l-0.2,0c0-0.5,0.1-0.9,0.2-1.2c0.2-0.3,0.4-0.5,0.7-0.7c0.5-0.3,1.1-0.3,1.6,0c0.4,0.2,0.7,0.6,1,1.1c0.3,0.6,0.4,1.2,0.3,1.7
			c-0.1,0.5-0.4,0.9-0.9,1.1c-0.4,0.2-0.8,0.2-1.2,0C-94.6,479.7-95,479.3-95.3,478.8z M-94.3,478.5c0.2,0.4,0.4,0.7,0.5,0.8
			c0.1,0.1,0.3,0.2,0.4,0.2c0.1,0,0.2,0,0.3,0c0.1-0.1,0.2-0.2,0.2-0.4c0-0.3-0.1-0.7-0.3-1.1l-0.1-0.1L-94.3,478.5z"/>
		<path d="M-101.1,483.2l-0.1-0.2c0.2-0.1,0.3-0.2,0.3-0.3c0-0.1,0-0.2-0.1-0.4l-1-2.5c-0.1-0.2-0.2-0.4-0.3-0.4c-0.1,0-0.2,0-0.4,0
			l-0.5-1.2l0.2-0.1c0.3,0.6,0.9,0.8,1.7,0.5l1.1-0.4c0.8-0.3,1-0.8,0.9-1.5l0.2-0.1l0.5,1.2c-0.3,0.2-0.5,0.6-0.4,1.2
			s0.2,1.3,0.4,2c0.1,0.2,0.2,0.3,0.2,0.4s0.1,0.1,0.2,0.2s0.2,0,0.3-0.1l0.1,0.2L-101.1,483.2z M-99.6,482.4l1-0.4l-0.2-0.6
			c-0.5-1.2-0.6-2.2-0.4-3l-1.3,0.5c-0.3,0.1-0.3,0.3-0.2,0.6L-99.6,482.4z"/>
		<path d="M-110.6,485.9l0-0.2c0.3-0.1,0.4-0.3,0.3-0.7l-0.6-2.5c0-0.2-0.1-0.3-0.2-0.4s-0.2-0.1-0.4-0.1l0-0.2l2.1-0.5l0,0.2
			c-0.1,0-0.2,0.1-0.3,0.2s0,0.3,0,0.5l0.6,2.5c0,0.2,0.1,0.3,0.2,0.4c0.1,0.1,0.2,0.1,0.4,0.1l0,0.2L-110.6,485.9z M-105.4,480.4
			l0,0.2c-0.2,0.1-0.3,0.1-0.3,0.2c0,0.1,0,0.3,0,0.5l0.6,2.4c0.1,0.2,0.1,0.4,0.2,0.4s0.2,0.1,0.4,0.1l0,0.2l-2,0.5l0-0.2
			c0.2-0.1,0.3-0.2,0.3-0.3c0-0.1,0-0.3,0-0.5l-0.2-1l-0.3,0.1c-0.7,0.2-1.2,0.2-1.6,0.1c-0.4-0.1-0.6-0.3-0.7-0.7
			c-0.1-0.3,0-0.6,0.3-0.9c0.3-0.3,0.7-0.5,1.3-0.6L-105.4,480.4z M-106.6,482.7l-0.3-1.2c0-0.2-0.1-0.3-0.2-0.3c-0.1,0-0.2,0-0.3,0
			c-0.2,0.1-0.4,0.2-0.5,0.4c-0.1,0.2-0.2,0.4-0.1,0.7C-107.8,482.7-107.3,482.9-106.6,482.7z"/>
		<path d="M-114.1,486.4l-2.3,0.2c-0.5,0-0.9,0-1.2-0.1c-0.3-0.1-0.5-0.4-0.5-0.7c0-0.5,0.2-0.8,0.8-1c-0.9,0-1.3-0.3-1.4-0.9
			c0-0.4,0.1-0.7,0.4-0.9c0.3-0.2,0.8-0.4,1.4-0.4l2.3-0.2l0,0.2c-0.2,0-0.3,0.1-0.4,0.2c0,0.1,0,0.2,0,0.4l0.3,2.4
			c0,0.3,0.1,0.5,0.1,0.6s0.2,0.1,0.4,0.1L-114.1,486.4z M-116.1,484.5l-0.1-1.3c0-0.1,0-0.2-0.1-0.3c0-0.1-0.1-0.1-0.3-0.1
			c-0.2,0-0.4,0.1-0.6,0.3c-0.2,0.2-0.2,0.4-0.2,0.7c0,0.3,0.1,0.5,0.4,0.6C-116.8,484.5-116.5,484.6-116.1,484.5z M-116,484.8
			c-0.7,0.1-1,0.4-1,0.9c0.1,0.5,0.4,0.7,1.1,0.7L-116,484.8z"/>
		<path d="M-124,483.5c0.5-0.4,1-0.7,1.4-0.7c0.2,0,0.4,0.1,0.6,0.2c0.2,0.2,0.2,0.3,0.2,0.6c0,0.3-0.1,0.6-0.4,0.8
			c-0.3,0.2-0.9,0.6-1.8,1l0,0.4c0,0.3,0,0.5,0,0.6c0,0.1,0.1,0.2,0.2,0.2c0.1,0.1,0.2,0.1,0.3,0.1c0.2,0,0.3,0,0.5-0.1
			c0.1-0.1,0.1-0.1,0.1-0.2c0-0.1,0-0.1-0.1-0.2c-0.1-0.1-0.2-0.2-0.2-0.4c0-0.1,0.1-0.3,0.2-0.4c0.1-0.1,0.2-0.2,0.4-0.1
			c0.2,0,0.3,0.1,0.5,0.2c0.1,0.1,0.2,0.2,0.2,0.4c0,0.2-0.1,0.4-0.3,0.6c-0.2,0.2-0.4,0.3-0.7,0.4c-0.3,0.1-0.6,0.1-0.9,0.1
			c-0.4,0-0.7-0.1-0.9-0.3c-0.2-0.2-0.4-0.3-0.4-0.5c0-0.1-0.1-0.4-0.1-0.8l0-1.6c0-0.2,0-0.3,0-0.4c0,0,0-0.1-0.1-0.1
			c0,0-0.1,0-0.1,0c-0.1,0-0.2,0.1-0.2,0.2l-0.1-0.1c0.1-0.2,0.3-0.4,0.5-0.5c0.2-0.1,0.3-0.1,0.5-0.1c0.2,0,0.4,0.1,0.5,0.2
			S-124,483.3-124,483.5z M-124,483.8l0,1.4c0.4-0.2,0.6-0.4,0.8-0.7c0.1-0.2,0.2-0.3,0.2-0.5c0-0.1,0-0.3-0.1-0.4
			c-0.1-0.1-0.2-0.1-0.3-0.1C-123.7,483.6-123.8,483.7-124,483.8z"/>
		<path d="M-129.2,482.6l0,0.2c-0.2,0-0.3,0-0.4,0.1c-0.1,0.1-0.1,0.3-0.2,0.5l-0.3,3l0.4,0c0.3,0,0.5,0,0.6-0.1
			c0.1-0.1,0.2-0.3,0.3-0.6l0.2,0l-0.1,1.1l-4.1-0.5l0.1-1.1l0.2,0c0,0.3,0.1,0.5,0.2,0.6c0.1,0.1,0.3,0.2,0.6,0.2l0.4,0l0.3-3
			c0-0.3,0-0.5,0-0.6c-0.1-0.1-0.2-0.1-0.3-0.2l0-0.2L-129.2,482.6z"/>
		<path d="M-139,483.2l2.2,0.5c0.1-0.5,0-1-0.1-1.4c-0.1-0.3-0.4-0.5-0.6-0.5c-0.2,0-0.3,0-0.5,0c-0.2,0.1-0.3,0.2-0.6,0.4l-0.1-0.1
			c0.3-0.4,0.6-0.7,0.9-0.8c0.3-0.1,0.6-0.1,1-0.1c0.6,0.1,1,0.5,1.2,1c0.2,0.4,0.2,0.9,0.1,1.5c-0.2,0.7-0.5,1.2-0.9,1.5
			c-0.5,0.3-0.9,0.4-1.4,0.3c-0.4-0.1-0.7-0.3-0.9-0.7C-139.1,484.3-139.2,483.8-139,483.2z M-138,483.7c-0.1,0.5-0.1,0.8-0.1,1
			c0,0.2,0.1,0.3,0.1,0.4c0,0.1,0.1,0.1,0.2,0.1c0.1,0,0.3,0,0.4-0.1c0.2-0.2,0.4-0.5,0.5-1l0-0.2L-138,483.7z"/>
		<path d="M-143.5,479.5l-0.1,0.2c-0.1,0-0.3,0-0.4,0c-0.1,0-0.2,0.2-0.3,0.4l-1,2.9l1.1,0.4l0.6-1.7c0.2-0.6,0.4-1,0.5-1.2
			s0.3-0.4,0.5-0.4c0.2-0.1,0.4-0.1,0.6,0c0.2,0.1,0.4,0.2,0.5,0.4s0.1,0.4,0,0.5c-0.1,0.2-0.2,0.3-0.3,0.4c-0.1,0.1-0.3,0.1-0.4,0
			c-0.3-0.1-0.4-0.3-0.3-0.7c0.1-0.2,0.1-0.3,0-0.3c-0.1,0-0.3,0-0.4,0.2c-0.1,0.2-0.3,0.6-0.5,1.2l-0.4,1.1
			c-0.1,0.3-0.1,0.4-0.1,0.6c0,0.1,0.1,0.2,0.3,0.3l-0.1,0.2l-3.4-1.2l0.1-0.2c0.3,0.1,0.5,0,0.6-0.4l0.9-2.5
			c0.1-0.2,0.1-0.3,0.1-0.4c0-0.1-0.1-0.2-0.3-0.3l0.1-0.2L-143.5,479.5z"/>
		<path d="M-148.3,477.6l-0.1,0.1c-0.2-0.1-0.3-0.1-0.4,0s-0.2,0.2-0.3,0.4l-1.1,2.2c-0.1,0.2-0.1,0.4-0.1,0.5
			c0,0.1,0.1,0.2,0.2,0.3l-0.1,0.1l-1.9-0.9l0.1-0.1c0.2,0.1,0.3,0,0.4,0c0.1-0.1,0.2-0.2,0.3-0.4l0.4-0.9l-0.3-0.1
			c-0.6-0.3-1.1-0.6-1.3-1c-0.2-0.3-0.3-0.7-0.1-1c0.1-0.3,0.4-0.5,0.8-0.5c0.4,0,0.9,0.1,1.4,0.3L-148.3,477.6z M-150.7,478.7
			l0.6-1.2c0.1-0.2,0.1-0.3,0.1-0.4c0-0.1-0.1-0.1-0.2-0.2c-0.2-0.1-0.4-0.1-0.6,0c-0.2,0.1-0.4,0.2-0.5,0.5
			C-151.6,477.9-151.4,478.4-150.7,478.7z"/>
		<path d="M-154.7,474.4l-0.1,0.1c-0.1-0.1-0.3-0.1-0.4-0.1c-0.1,0-0.2,0.2-0.4,0.4l-1.4,2.1c-0.1,0.2-0.2,0.4-0.2,0.5
			c0,0.1,0.1,0.2,0.2,0.3l-0.1,0.1l-1.8-1.1l0.1-0.1c0.1,0.1,0.2,0.1,0.3,0.1c0.1,0,0.2-0.1,0.3-0.4l0.6-0.9l-1-0.6l-0.6,0.9
			c-0.1,0.2-0.2,0.3-0.2,0.4c0,0.1,0.1,0.2,0.2,0.3l-0.1,0.1l-1.8-1.1l0.1-0.1c0.1,0.1,0.3,0.1,0.4,0.1c0.1,0,0.2-0.1,0.3-0.3
			l1.4-2.2c0.1-0.2,0.2-0.4,0.2-0.5c0-0.1-0.1-0.2-0.2-0.3l0.1-0.1l1.8,1.1l-0.1,0.1c-0.1-0.1-0.2-0.1-0.3-0.1
			c-0.1,0-0.2,0.1-0.3,0.4l-0.7,1l1,0.6l0.6-1c0.1-0.2,0.2-0.4,0.2-0.5c0-0.1-0.1-0.2-0.2-0.3l0.1-0.1L-154.7,474.4z"/>
		<path d="M-165.1,472.2c-0.3-0.2-0.5-0.5-0.6-0.8c-0.1-0.3-0.1-0.7,0-1.1c0.1-0.4,0.3-0.7,0.5-1c0.4-0.5,0.8-0.7,1.3-0.9
			c0.6-0.1,1.1,0,1.6,0.4c0.5,0.4,0.7,0.9,0.7,1.4c0,0.5-0.2,1-0.6,1.5c-0.4,0.5-0.8,0.7-1.4,0.9
			C-164.1,472.7-164.6,472.6-165.1,472.2z M-164.9,472c0.1,0.1,0.3,0.1,0.4,0.1c0.2,0,0.3-0.1,0.6-0.4c0.2-0.2,0.5-0.6,0.9-1
			c0.2-0.2,0.4-0.5,0.5-0.7c0.1-0.2,0.2-0.3,0.1-0.5c0-0.1-0.1-0.3-0.2-0.4c-0.1-0.1-0.2-0.1-0.3-0.1c-0.2,0-0.3,0.1-0.4,0.2
			c-0.2,0.2-0.6,0.6-1.1,1.3c-0.3,0.4-0.5,0.7-0.6,0.8s-0.1,0.3-0.1,0.5C-165.1,471.8-165,471.9-164.9,472z"/>
		<path d="M-170.2,464.8l1.6,1.6c0.4-0.4,0.6-0.8,0.6-1.2c0-0.3-0.1-0.6-0.3-0.8c-0.1-0.1-0.3-0.2-0.4-0.2c-0.2,0-0.4,0-0.7,0l0-0.2
			c0.5-0.2,0.9-0.2,1.2-0.2s0.6,0.2,0.9,0.5c0.4,0.4,0.6,0.9,0.5,1.5c-0.1,0.4-0.3,0.9-0.7,1.3c-0.5,0.5-1,0.7-1.6,0.8
			c-0.5,0-1-0.1-1.3-0.5c-0.3-0.3-0.4-0.7-0.4-1.1C-170.9,465.7-170.6,465.3-170.2,464.8z M-169.6,465.8c-0.3,0.3-0.5,0.6-0.6,0.7
			c-0.1,0.2-0.1,0.3-0.1,0.5c0,0.1,0,0.2,0.1,0.2c0.1,0.1,0.2,0.1,0.4,0.1c0.3-0.1,0.6-0.3,0.9-0.6l0.1-0.1L-169.6,465.8z"/>
		<path d="M-187.4,443.3l-0.7-1.9l0.2-0.1c0.1,0.2,0.2,0.3,0.4,0.4c0.2,0.1,0.5,0.1,0.9,0.2l4.1,0.5c0.6,0.1,1.1,0.2,1.3,0.3
			c0.2,0.2,0.4,0.4,0.5,0.6c0.1,0.3,0.1,0.6,0,0.8c-0.1,0.2-0.3,0.4-0.5,0.4c-0.2,0.1-0.3,0.1-0.5,0c-0.1-0.1-0.2-0.2-0.3-0.3
			c-0.1-0.1-0.1-0.3,0-0.4c0.1-0.1,0.2-0.2,0.4-0.3c0.2-0.1,0.3-0.3,0.2-0.4c-0.1-0.2-0.3-0.3-0.8-0.3l-0.2,0l-2.9,3.3
			c-0.2,0.3-0.4,0.5-0.4,0.7c0,0.2,0,0.4,0,0.6l-0.2,0.1l-1-2.8l0.2-0.1l0,0.1c0.1,0.3,0.3,0.5,0.4,0.4c0.1,0,0.1-0.1,0.2-0.2l2-2.3
			l-2.5-0.3c-0.3,0-0.6,0-0.7,0c-0.1,0-0.2,0.1-0.2,0.2c0,0.1,0,0.3,0.1,0.7L-187.4,443.3z"/>
		<path d="M-188.1,434l0.2,0c0.1,0.2,0.1,0.3,0.2,0.3c0.1,0,0.3,0,0.5,0l2.4-0.6c0.3-0.1,0.4-0.1,0.5-0.2c0.1-0.1,0.1-0.2,0-0.4
			l0.2,0l0.5,2l-0.2,0c0-0.2-0.1-0.3-0.2-0.3c-0.1,0-0.3,0-0.5,0.1l-3,0.7l0.3,1.1l2.9-0.7c0.3-0.1,0.4-0.1,0.5-0.2
			c0.1-0.1,0.1-0.2,0-0.3l0.2,0l0.5,2l-0.2,0c0-0.2-0.1-0.3-0.2-0.3c-0.1,0-0.3,0-0.6,0l-2.4,0.6c-0.3,0.1-0.4,0.1-0.5,0.2
			c-0.1,0.1-0.1,0.2,0,0.4l-0.2,0L-188.1,434z"/>
		<path d="M-185.2,428.5l1.5-0.2c0.2,0,0.3-0.1,0.4-0.1c0.1,0,0.1-0.1,0.1-0.2s0-0.2,0-0.4l0.2,0l0.3,2.3l-0.2,0
			c0-0.2-0.1-0.3-0.2-0.4c-0.1-0.1-0.3-0.1-0.5,0l-4.3,0.5c-0.3,0-0.5,0.1-0.5,0.2c-0.1,0.1-0.1,0.2-0.1,0.4l-0.2,0l-0.2-1.7
			l0.5-0.1c-0.2-0.1-0.4-0.2-0.5-0.4c-0.2-0.2-0.3-0.4-0.3-0.7c0-0.3,0-0.6,0.2-0.9c0.2-0.3,0.4-0.5,0.7-0.6
			c0.3-0.2,0.7-0.3,1.1-0.3c0.4,0,0.8,0,1.2,0.1c0.4,0.1,0.6,0.3,0.8,0.5c0.2,0.2,0.3,0.5,0.4,0.8c0,0.2,0,0.4-0.1,0.6
			C-184.9,428.2-185.1,428.3-185.2,428.5z M-185.7,428.6c0.3-0.3,0.5-0.6,0.4-0.9c0-0.2-0.1-0.3-0.3-0.4c-0.3-0.1-0.7-0.1-1.4-0.1
			c-0.7,0.1-1.2,0.2-1.4,0.4c-0.2,0.1-0.2,0.3-0.2,0.5c0,0.3,0.3,0.5,0.7,0.7L-185.7,428.6z"/>
		<path d="M-185.9,420.4c0.4,0.5,0.7,1,0.7,1.4c0,0.2-0.1,0.4-0.2,0.6c-0.2,0.2-0.3,0.2-0.6,0.2c-0.3,0-0.6-0.1-0.8-0.4
			c-0.2-0.3-0.6-0.9-1-1.8l-0.4,0c-0.3,0-0.5,0-0.6,0c-0.1,0-0.2,0.1-0.2,0.2c-0.1,0.1-0.1,0.2-0.1,0.3c0,0.2,0,0.3,0.1,0.5
			c0.1,0.1,0.1,0.1,0.2,0.1c0.1,0,0.1,0,0.2-0.1c0.1-0.1,0.2-0.2,0.4-0.2c0.1,0,0.3,0.1,0.4,0.2s0.2,0.2,0.2,0.4
			c0,0.2-0.1,0.3-0.2,0.5c-0.1,0.1-0.2,0.2-0.4,0.2c-0.2,0-0.4-0.1-0.6-0.3s-0.3-0.4-0.4-0.7c-0.1-0.3-0.2-0.6-0.2-0.9
			c0-0.4,0.1-0.7,0.3-0.9s0.3-0.4,0.5-0.4c0.1,0,0.4-0.1,0.8-0.1l1.6,0c0.2,0,0.3,0,0.4,0c0,0,0.1,0,0.1-0.1c0,0,0-0.1,0-0.1
			c0-0.1-0.1-0.2-0.2-0.2l0.1-0.1c0.2,0.1,0.4,0.3,0.5,0.5c0.1,0.2,0.1,0.3,0.1,0.5c0,0.2-0.1,0.4-0.2,0.5
			C-185.5,420.3-185.6,420.4-185.9,420.4z M-186.2,420.4l-1.4,0c0.2,0.4,0.4,0.6,0.7,0.8c0.2,0.1,0.3,0.2,0.5,0.2
			c0.1,0,0.3,0,0.4-0.1c0.1-0.1,0.1-0.2,0.1-0.3C-185.9,420.8-186,420.6-186.2,420.4z"/>
		<path d="M-189.2,415.3l0.3-2.3c0.1-0.5,0.2-0.8,0.4-1.1c0.2-0.3,0.5-0.4,0.8-0.4c0.5,0.1,0.7,0.4,0.8,1c0.2-0.8,0.6-1.2,1.2-1.1
			c0.4,0,0.6,0.2,0.8,0.6c0.1,0.4,0.2,0.8,0.1,1.4l-0.3,2.3l-0.2,0c0-0.2,0-0.3-0.1-0.4c-0.1-0.1-0.2-0.1-0.4-0.1l-2.4-0.3
			c-0.3,0-0.5,0-0.6,0c-0.1,0-0.2,0.2-0.2,0.3L-189.2,415.3z M-187.1,413.8c0.1-0.7-0.2-1.1-0.7-1.1c-0.5-0.1-0.8,0.3-0.9,0.9
			L-187.1,413.8z M-186.9,413.8l1.3,0.2c0.1,0,0.2,0,0.3,0c0.1,0,0.1-0.1,0.1-0.3c0-0.2,0-0.5-0.2-0.7s-0.4-0.3-0.6-0.3
			c-0.3,0-0.5,0-0.6,0.2C-186.7,413.1-186.8,413.4-186.9,413.8z"/>
		<path d="M-183.6,406.6l-0.2,0c0-0.1,0-0.3,0-0.4c0-0.1-0.2-0.2-0.4-0.2l-3-0.7l-0.3,1.1l1.7,0.4c0.6,0.1,1.1,0.3,1.3,0.4
			c0.2,0.1,0.4,0.3,0.5,0.5c0.1,0.2,0.1,0.4,0.1,0.6c-0.1,0.2-0.2,0.4-0.3,0.5c-0.2,0.1-0.3,0.1-0.5,0.1c-0.2,0-0.3-0.1-0.4-0.3
			c-0.1-0.1-0.1-0.3-0.1-0.4c0.1-0.3,0.3-0.4,0.7-0.3c0.2,0,0.3,0,0.3,0c0-0.1-0.1-0.2-0.2-0.4c-0.2-0.1-0.6-0.3-1.2-0.4l-1.2-0.3
			c-0.3-0.1-0.5-0.1-0.6,0s-0.2,0.2-0.2,0.3l-0.2,0l0.8-3.5l0.2,0c-0.1,0.3,0.1,0.5,0.4,0.6l2.6,0.6c0.2,0,0.3,0.1,0.5,0
			c0.1,0,0.2-0.1,0.2-0.3l0.2,0L-183.6,406.6z"/>
		<path d="M-183.1,397.6l-0.8,2.1c0.5,0.2,1,0.2,1.4,0c0.3-0.1,0.5-0.3,0.6-0.6c0.1-0.2,0.1-0.3,0-0.5c0-0.2-0.2-0.4-0.3-0.6
			l0.1-0.1c0.4,0.4,0.6,0.7,0.7,1c0.1,0.3,0.1,0.6,0,1c-0.2,0.6-0.6,0.9-1.1,1.1c-0.4,0.1-0.9,0.1-1.5-0.1c-0.6-0.2-1.1-0.6-1.4-1.1
			c-0.3-0.5-0.3-1-0.1-1.4c0.1-0.4,0.4-0.7,0.8-0.8C-184.3,397.3-183.7,397.4-183.1,397.6z M-183.7,398.5c-0.4-0.2-0.8-0.2-0.9-0.3
			c-0.2,0-0.3,0-0.5,0.1c-0.1,0-0.1,0.1-0.2,0.2c-0.1,0.1,0,0.3,0.1,0.4c0.2,0.3,0.5,0.5,0.9,0.6l0.1,0.1L-183.7,398.5z"/>
		<path d="M-179.9,395.6l-0.1-0.1c0.1-0.2,0.1-0.3,0-0.4c0-0.1-0.2-0.2-0.4-0.3l-2.3-1.1c-0.2-0.1-0.4-0.2-0.5-0.1
			c-0.1,0-0.2,0.1-0.3,0.3l-0.1-0.1l0.9-1.9l0.1,0.1c-0.1,0.1-0.1,0.2,0,0.3c0,0.1,0.2,0.2,0.4,0.3l1,0.5l0.5-1.1l-1-0.5
			c-0.2-0.1-0.3-0.1-0.4-0.1c-0.1,0-0.2,0.1-0.3,0.2l-0.1-0.1l0.9-1.9l0.1,0.1c-0.1,0.2-0.1,0.3,0,0.4c0,0.1,0.2,0.2,0.3,0.3
			l2.3,1.1c0.2,0.1,0.4,0.2,0.5,0.1s0.2-0.1,0.3-0.3l0.1,0.1l-0.9,1.9l-0.1-0.1c0.1-0.1,0.1-0.2,0-0.3c0-0.1-0.2-0.2-0.4-0.3
			l-1.1-0.5l-0.5,1.1l1.1,0.5c0.2,0.1,0.4,0.2,0.5,0.1c0.1,0,0.2-0.1,0.2-0.2l0.1,0.1L-179.9,395.6z"/>
		<path d="M-175.1,386.8l-0.1-0.1c0.1-0.2,0.1-0.4-0.3-0.7l-1.7-1.1l1,2.1c0.3,0.2,0.6,0.2,0.7,0l0.1,0.1l-1.1,1.8l-0.1-0.1
			c0.1-0.1,0.1-0.3,0.1-0.4c0-0.1-0.2-0.2-0.4-0.4l-2.1-1.4c-0.3-0.2-0.6-0.2-0.8,0.1l-0.1-0.1l1.1-1.8l0.1,0.1
			c-0.1,0.1-0.1,0.2-0.1,0.3c0,0.1,0.2,0.2,0.4,0.3l1.7,1.1l-1.1-2.1c-0.2-0.1-0.3-0.2-0.4-0.2c-0.1,0-0.2,0.1-0.3,0.2l-0.1-0.1
			l1.1-1.8l0.1,0.1c-0.1,0.1-0.1,0.3-0.1,0.4s0.1,0.2,0.3,0.3l2.2,1.4c0.2,0.1,0.4,0.2,0.5,0.2c0.1,0,0.2-0.1,0.3-0.2l0.1,0.1
			L-175.1,386.8z"/>
		<path d="M-171.6,378.6l-1.4,1.7c0.4,0.3,0.9,0.5,1.3,0.5c0.3,0,0.6-0.1,0.7-0.3c0.1-0.1,0.2-0.3,0.2-0.5c0-0.2,0-0.4-0.1-0.7
			l0.2-0.1c0.2,0.5,0.3,0.9,0.3,1.2c0,0.3-0.2,0.6-0.4,0.9c-0.4,0.5-0.9,0.7-1.4,0.6c-0.5,0-0.9-0.2-1.3-0.6
			c-0.5-0.4-0.8-0.9-0.9-1.5c-0.1-0.5,0-1,0.4-1.4c0.3-0.3,0.6-0.5,1.1-0.5C-172.7,378-172.2,378.2-171.6,378.6z M-172.5,379.3
			c-0.4-0.3-0.6-0.5-0.8-0.6c-0.2-0.1-0.3-0.1-0.5-0.1c-0.1,0-0.2,0.1-0.2,0.1c-0.1,0.1-0.1,0.3-0.1,0.4c0.1,0.3,0.3,0.6,0.7,0.9
			l0.1,0.1L-172.5,379.3z"/>
	</g>
</g>
</svg>
