<?xml version="1.0" encoding="utf-8"?>
<!-- Generator: Adobe Illustrator 19.0.0, SVG Export Plug-In . SVG Version: 6.00 Build 0)  -->
<svg version="1.1" id="Capa_1" xmlns="http://www.w3.org/2000/svg" xmlns:xlink="http://www.w3.org/1999/xlink" x="0px" y="0px"
	 viewBox="-210 325.9 173.5 190" style="enable-background:new -210 325.9 173.5 190;" xml:space="preserve">
<g id="XMLID_100_">
	<path d="M-45.1,494.1h-156.3c-2,0-3.8-1-4.8-2.7s-1-3.8,0-5.5l78.1-135.4c1-1.7,2.8-2.8,4.8-2.8l0,0c2,0,3.8,1,4.8,2.7l78.2,135.4
		c1,1.7,1,3.8,0,5.5C-41.3,493-43.1,494.1-45.1,494.1z M-191.9,483.1h137.3l-68.7-118.9L-191.9,483.1z"/>
</g>
<g transform="translate(0,-952.36218)">
	<path d="M-133.6,1358c-1.2,0.1-2.1,1.1-2,2.3v3.8h-2.3c-0.1,0-0.2,0-0.2,0c-1.2,0.1-2.1,1.1-2,2.3v19.8c0,1.3,1,2.3,2.3,2.3h2.3
		v1.5h-10.7c-0.1,0-0.2,0-0.2,0c-0.4,0-0.8,0.2-1.1,0.5l-12.9,9.9c-1,0.8-1.2,2.2-0.4,3.2c0.1,0.2,0.3,0.3,0.4,0.4l12.9,9.9
		c0.4,0.3,0.9,0.5,1.4,0.5h10.7v9.9c0,1.3,1,2.3,2.3,2.3h12.2c1.3,0,2.3-1,2.3-2.3v-9.9h2.3c1.3,0,2.3-1,2.3-2.3v-19.8
		c0-1.3-1-2.3-2.3-2.3h-2.3v-1.5h10.7c0.5,0,1-0.2,1.4-0.5l12.9-9.9c1-0.8,1.2-2.2,0.4-3.2c-0.1-0.2-0.3-0.3-0.4-0.4l-12.9-9.9
		c-0.4-0.3-0.9-0.5-1.4-0.5h-10.7v-3.8c0-1.3-1-2.3-2.3-2.3h-12.2C-133.4,1358-133.5,1358-133.6,1358z M-135.6,1368.7h26.6l9.9,7.6
		l-10,7.6h-26.6V1368.7z M-145.5,1394.5h26.6v15.2h-26.6l-10-7.6L-145.5,1394.5L-145.5,1394.5z"/>
</g>
</svg>
