<?xml version="1.0" encoding="utf-8"?>
<!-- Generator: Adobe Illustrator 19.0.0, SVG Export Plug-In . SVG Version: 6.00 Build 0)  -->
<svg version="1.1" id="Capa_1" xmlns="http://www.w3.org/2000/svg" xmlns:xlink="http://www.w3.org/1999/xlink" x="0px" y="0px"
	 viewBox="-210 325.9 173.5 190" style="enable-background:new -210 325.9 173.5 190;" xml:space="preserve">
<g id="XMLID_100_">
	<path d="M-45.1,494.1h-156.3c-2,0-3.8-1-4.8-2.7s-1-3.8,0-5.5l78.1-135.4c1-1.7,2.8-2.8,4.8-2.8l0,0c2,0,3.8,1,4.8,2.7l78.2,135.4
		c1,1.7,1,3.8,0,5.5C-41.3,493-43.1,494.1-45.1,494.1z M-191.9,483.1h137.3l-68.7-118.9L-191.9,483.1z"/>
</g>
<g>
	<path d="M-104.2,412.2c-4.4-4.7-9.7-6.9-12-6.9c-2.1,0-3.2,0.6-4.1,1.1c-0.8,0.4-1.3,0.7-2.6,0.7h-0.7c-1.3,0-1.9-0.3-2.6-0.7
		c-0.9-0.5-2-1.1-4.1-1.1c-2.3,0-7.6,2.2-12,6.9c-3.4,3.7-7.3,10.1-6.6,20c0.9,11.9,3.9,32.9,14,40.6c4.2,3.1,10.6,2.8,11.6,2.7
		c0.2,0,0.7,0.1,1.4,0.1c2.4,0,7-0.4,10.2-2.8c10.2-7.7,13.1-28.7,14-40.6C-96.9,422.3-100.8,415.9-104.2,412.2z M-100.6,431.9
		c-1.4,19.3-6.1,33.3-12.8,38.4c-3.5,2.7-9.6,2.2-9.7,2.1c-0.1,0-0.2,0-0.3,0c-0.1,0-6.2,0.5-9.7-2.1c-6.7-5.1-11.4-19.1-12.8-38.4
		c-0.7-8.8,2.8-14.5,5.8-17.7c3.9-4.2,8.5-5.9,9.8-5.9c1.3,0,1.9,0.3,2.6,0.7c0.9,0.5,2,1.1,4.1,1.1h0.7c2.1,0,3.2-0.6,4.1-1.1
		c0.8-0.4,1.3-0.7,2.6-0.7c1.3,0,5.9,1.7,9.8,5.9C-103.4,417.5-100,423.2-100.6,431.9z"/>
	<path d="M-112.9,422.1L-112.9,422.1c-3.8-2-7.9-2.7-10.3-2.7l0,0l0,0l0,0l0,0c-2.5,0-6.5,0.7-10.3,2.7l0,0c-2.8,1.5-5.2,3.5-6.9,6
		c-2.5,3.6-3.7,8-3.5,13.1c0.4,9.3,6.2,14,11.1,16.2c4.8,2.2,9.3,2.6,9.5,2.6h0l0,0l0,0l0,0h0c0.2,0,4.7-0.3,9.5-2.6
		c4.9-2.3,10.8-6.9,11.1-16.2c0.2-5.1-1-9.6-3.5-13.1C-107.8,425.6-110.1,423.6-112.9,422.1z M-131.5,456.7c0.1-0.1,0.2-0.1,0.3-0.1
		c0,0,0.1,0,0.1,0c0.1,0,0.1-0.1,0.2-0.1c0,0,0.1,0,0.1,0c0.1,0,0.1,0,0.2-0.1c0,0,0.1,0,0.1,0c0.1,0,0.2,0,0.4,0h3.5
		c1.5,0,2.7,1.1,2.7,2.4v0C-125.2,458.6-128.2,458.1-131.5,456.7L-131.5,456.7z M-113.8,425.4c0,1.3-1.2,2.4-2.7,2.4h-3.5
		c-1.5,0-2.7-1.1-2.7-2.4v-4.8c2.3,0.1,5.6,0.7,8.9,2.4V425.4z M-123.9,425.4c0,1.3-1.2,2.4-2.7,2.4h-3.5c-1.5,0-2.7-1.1-2.7-2.4
		V423c3.3-1.6,6.6-2.3,8.9-2.4V425.4z M-133.9,423.6v1.8c0,1.3-1.2,2.4-2.7,2.4h-2.2C-137.5,426.1-135.8,424.7-133.9,423.6z
		 M-122.7,458.7c0-1.3,1.2-2.4,2.7-2.4h3.5c0.1,0,0.2,0,0.4,0c0,0,0.1,0,0.1,0c0.1,0,0.1,0,0.2,0.1c0,0,0.1,0,0.1,0
		c0.1,0,0.1,0.1,0.2,0.1c0,0,0.1,0,0.1,0c0.1,0,0.2,0.1,0.3,0.1l0,0C-118.3,458.1-121.4,458.6-122.7,458.7L-122.7,458.7z
		 M-110,427.8c-1.5,0-2.7-1.1-2.7-2.4v-1.8c1.9,1.1,3.6,2.5,4.9,4.2L-110,427.8L-110,427.8z"/>
</g>
</svg>
