<?xml version="1.0" encoding="utf-8"?>
<!-- Generator: Adobe Illustrator 19.0.0, SVG Export Plug-In . SVG Version: 6.00 Build 0)  -->
<svg version="1.1" id="Capa_1" xmlns="http://www.w3.org/2000/svg" xmlns:xlink="http://www.w3.org/1999/xlink" x="0px" y="0px"
	 viewBox="-210 325.9 173.5 190" style="enable-background:new -210 325.9 173.5 190;" xml:space="preserve">
<g id="XMLID_100_">
	<path d="M-45.1,494.1h-156.3c-2,0-3.8-1-4.8-2.7s-1-3.8,0-5.5l78.1-135.4c1-1.7,2.8-2.8,4.8-2.8l0,0c2,0,3.8,1,4.8,2.7l78.2,135.4
		c1,1.7,1,3.8,0,5.5C-41.3,493-43.1,494.1-45.1,494.1z M-191.9,483.1h137.3l-68.7-118.9L-191.9,483.1z"/>
</g>
<path d="M-84.2,414.6l0-0.2l-16.5-16.5l-22.5-6l-22.3,6l-0.2,0l-16.5,16.5l-6,22.5l6,22.5l16.5,16.5l22.3,6l0.2,0l22.5-6l16.4-16.4
	l0.1-0.1l6-22.3l0-0.2L-84.2,414.6z M-85.4,458.7l-16,16l-21.8,5.9l-21.8-5.9l-16-16l-5.9-21.8l5.9-21.8l16-16l21.8-5.9l21.8,5.9
	l16,16l5.9,21.8L-85.4,458.7z"/>
<path d="M-86.5,415.7l-15.5-15.5l-21.2-5.7l-21.1,5.6l-0.2,0l-15.5,15.5l-5.7,21.2l5.7,21.2l15.5,15.5l21.1,5.6l0.2,0l21.2-5.7
	l15.4-15.4l0.1-0.1l5.6-21.1l0-0.2l-5.6-21.1L-86.5,415.7z M-87.6,457.5l-15.1,15.1l-20.6,5.5l-20.6-5.5l-15.1-15.1l-5.5-20.6
	l5.5-20.6l15.1-15.1l20.6-5.5l20.6,5.5l15.1,15.1l5.5,20.6L-87.6,457.5z"/>
<path d="M-88.7,416.9l-14.6-14.6l-20-5.3l-19.8,5.3l-0.2,0l-14.6,14.6l-5.3,20l5.3,20l14.6,14.6l19.8,5.3l0.2,0l20-5.3l14.5-14.5
	l0.1-0.1l5.3-19.8l0-0.2l-5.3-19.8L-88.7,416.9z M-89.8,456.2l-14.1,14.1l-19.3,5.2l-19.3-5.2l-14.1-14.1l-5.2-19.3l5.2-19.3
	l14.1-14.1l19.3-5.2l19.3,5.2l14.1,14.1l5.2,19.3L-89.8,456.2z"/>
<path d="M-90.9,418.2l-13.7-13.7l-18.7-5l-18.5,5l-0.2,0l-13.7,13.7l-5,18.7l5,18.7l13.7,13.7l18.5,5l0.2,0l18.7-5l13.6-13.6
	l0.1-0.1l5-18.5l0-0.2l-5-18.5L-90.9,418.2z M-92,454.9l-13.2,13.2l-18,4.8l-18-4.8l-13.2-13.2l-4.8-18l4.8-18l13.2-13.2l18-4.8
	l18,4.8l13.2,13.2l4.8,18L-92,454.9z"/>
<path d="M-105.8,406.7l-17.4-4.7l-17.4,4.7l-12.8,12.8l-4.7,17.4l4.7,17.4l12.8,12.8l17.3,4.6l0.2,0l17.4-4.7l12.6-12.6l0.1-0.1
	l4.6-17.3l0-0.2l-4.7-17.4L-105.8,406.7z M-94.2,453.7l-12.3,12.3l-16.8,4.5l-16.8-4.5l-12.3-12.3l-4.5-16.8l4.5-16.8l12.3-12.3
	l16.8-4.5l16.8,4.5l12.3,12.3l4.5,16.8L-94.2,453.7z"/>
<path d="M-107.1,408.9l-16.2-4.3l-16.2,4.3l-11.8,11.8l-4.3,16.2l4.3,16.2l11.8,11.8l16,4.3l0.2,0l16.2-4.3l11.7-11.7l0.1-0.1
	l4.3-16l0-0.2l-4.3-16.2L-107.1,408.9z M-96.4,452.4l-11.4,11.4l-15.5,4.2l-15.5-4.2l-11.4-11.4l-4.2-15.5l4.2-15.5l11.4-11.4
	l15.5-4.2l15.5,4.2l11.4,11.4l4.2,15.5L-96.4,452.4z"/>
<path d="M-108.4,411.1l-14.9-4l-14.9,4l-10.9,10.9l-4,14.9l4,14.9l10.9,10.9l14.7,3.9l0.2,0l14.9-4l10.8-10.8l0.1-0.1l3.9-14.7
	l0-0.2l-4-14.9L-108.4,411.1z M-98.6,451.1l-10.4,10.4l-14.2,3.8l-14.2-3.8l-10.4-10.4l-3.8-14.2l3.8-14.2l10.4-10.4l14.2-3.8
	l14.2,3.8l10.4,10.4l3.8,14.2L-98.6,451.1z"/>
<path d="M-109.6,413.3l-13.6-3.7l-13.6,3.7l-10,10l-3.7,13.6l3.7,13.6l10,10l13.5,3.6l0.2,0l13.6-3.7l9.9-9.9l0.1-0.1l3.6-13.5
	l0-0.2l-3.7-13.6L-109.6,413.3z M-100.8,449.9l-9.5,9.5l-13,3.5l-13-3.5l-9.5-9.5l-3.5-13l3.5-13l9.5-9.5l13-3.5l13,3.5l9.5,9.5
	l3.5,13L-100.8,449.9z"/>
<path d="M-110.9,415.5l-12.4-3.3l-12.4,3.3l-9.1,9.1l-3.3,12.4l3.3,12.4l9.1,9.1l12.4,3.3l12.4-3.3l8.9-8.9l0.1-0.1l3.3-12.4
	l-3.3-12.4L-110.9,415.5z M-103,448.6l-8.6,8.6l-11.7,3.1l-11.7-3.1l-8.6-8.6l-3.1-11.7l3.1-11.7l8.6-8.6l11.7-3.1l11.7,3.1l8.6,8.6
	l3.1,11.7L-103,448.6z"/>
<path d="M-112.2,417.7l-11.1-3l-11.1,3l-8.1,8.1l-3,11.1l3,11.1l8.1,8.1l11.1,3l11.1-3l8.1-8.1l3-11.1l-3-11.1L-112.2,417.7z
	 M-105.2,447.3l-7.6,7.6l-10.4,2.8l-10.4-2.8l-7.6-7.6l-2.8-10.4l2.8-10.4l7.6-7.6l10.4-2.8l10.4,2.8l7.6,7.6l2.8,10.4L-105.2,447.3
	z"/>
<path d="M-113.4,419.9l-9.8-2.6l-9.8,2.6l-7.2,7.2l-2.6,9.8l2.6,9.8l7.2,7.2l9.8,2.6l9.8-2.6l7.2-7.2l2.6-9.8l-2.6-9.8L-113.4,419.9
	z M-107.4,446.1l-6.7,6.7l-9.2,2.5l-9.2-2.5l-6.7-6.7l-2.5-9.2l2.5-9.2l6.7-6.7l9.2-2.5l9.2,2.5l6.7,6.7l2.5,9.2L-107.4,446.1z"/>
<path d="M-114.7,422.1l-8.6-2.3l-8.6,2.3l-6.3,6.3l-2.3,8.6l2.3,8.6l6.3,6.3l8.6,2.3l8.6-2.3l6.3-6.3l2.3-8.6l-2.3-8.6L-114.7,422.1
	z M-109.6,444.8l-5.8,5.8l-7.9,2.1l-7.9-2.1l-5.8-5.8l-2.1-7.9l2.1-7.9l5.8-5.8l7.9-2.1l7.9,2.1l5.8,5.8l2.1,7.9L-109.6,444.8z"/>
<path d="M-116,424.3l-7.3-2l-7.3,2l-5.3,5.3l-2,7.3l2,7.3l5.3,5.3l7.3,2l7.3-2l5.3-5.3l2-7.3l-2-7.3L-116,424.3z M-111.7,443.5
	l-4.9,4.9l-6.6,1.8l-6.6-1.8l-4.9-4.9l-1.8-6.6l1.8-6.6l4.9-4.9l6.6-1.8l6.6,1.8l4.9,4.9l1.8,6.6L-111.7,443.5z"/>
<path d="M-117.2,426.4l-6-1.6l-6,1.6l-4.4,4.4l-1.6,6l1.6,6l4.4,4.4l6,1.6l6-1.6l4.4-4.4l1.6-6l-1.6-6L-117.2,426.4z M-113.9,442.3
	l-3.9,3.9l-5.4,1.4l-5.4-1.4l-3.9-3.9l-1.4-5.4l1.4-5.4l3.9-3.9l5.4-1.4l5.4,1.4l3.9,3.9l1.4,5.4L-113.9,442.3z"/>
<path d="M-118.5,428.6l-4.8-1.3l-4.8,1.3l-3.5,3.5l-1.3,4.8l1.3,4.8l3.5,3.5l4.8,1.3l4.8-1.3l3.5-3.5l1.3-4.8l-1.3-4.8L-118.5,428.6
	z M-116.1,441l-3,3l-4.1,1.1l-4.1-1.1l-3-3l-1.1-4.1l1.1-4.1l3-3l4.1-1.1l4.1,1.1l3,3l1.1,4.1L-116.1,441z"/>
<path d="M-119.8,430.8l-3.5-0.9l-3.5,0.9l-2.6,2.6l-0.9,3.5l0.9,3.5l2.6,2.6l3.5,0.9l3.5-0.9l2.6-2.6l0.9-3.5l-0.9-3.5L-119.8,430.8
	z M-118.3,439.7l-2.1,2.1l-2.8,0.8l-2.8-0.8l-2.1-2.1l-0.8-2.8l0.8-2.8l2.1-2.1l2.8-0.8l2.8,0.8l2.1,2.1l0.8,2.8L-118.3,439.7z"/>
<path d="M-121,433l-2.2-0.6l-2.2,0.6l-1.6,1.6l-0.6,2.2l0.6,2.2l1.6,1.6l2.2,0.6l2.2-0.6l1.6-1.6l0.6-2.2l-0.6-2.2L-121,433z
	 M-120.5,438.5l-1.2,1.2l-1.6,0.4l-1.6-0.4l-1.2-1.2l-0.4-1.6l0.4-1.6l1.2-1.2l1.6-0.4l1.6,0.4l1.2,1.2l0.4,1.6L-120.5,438.5z"/>
<path d="M-122.3,435.2l-1-0.3l-1,0.3l-0.7,0.7l-0.3,1l0.3,1l0.7,0.7l1,0.3l1-0.3l0.7-0.7l0.3-1l-0.3-1L-122.3,435.2z M-122.7,437.2
	l-0.2,0.2l-0.3,0.1l-0.3-0.1l-0.2-0.2l-0.1-0.3l0.1-0.3l0.2-0.2l0.3-0.1l0.3,0.1l0.2,0.2l0.1,0.3L-122.7,437.2z"/>
</svg>
