<?xml version="1.0" encoding="utf-8"?>
<!-- Generator: Adobe Illustrator 19.0.0, SVG Export Plug-In . SVG Version: 6.00 Build 0)  -->
<svg version="1.1" id="Capa_1" xmlns="http://www.w3.org/2000/svg" xmlns:xlink="http://www.w3.org/1999/xlink" x="0px" y="0px"
	 viewBox="-210 325.9 173.5 190" style="enable-background:new -210 325.9 173.5 190;" xml:space="preserve">
<text transform="matrix(1 0 0 1 87.6401 746.8352)" style="font-family:'MyriadPro-Regular'; font-size:12px;">d-11424</text>
<path d="M-40.3,485.8L-95.6,390l-20.3-35.1l-2.6-4.6c-1-1.7-2.8-2.7-4.8-2.7s-3.8,1.1-4.8,2.8l-2.6,4.5l-25.1,43.5l-50.5,87.5
	c-1,1.7-1,3.8,0,5.5s2.8,2.7,4.8,2.7h156.3c2,0,3.8-1.1,4.8-2.8C-39.3,489.6-39.3,487.5-40.3,485.8z M-191.9,483.1l43.9-76.2
	l24.7-42.7l20,34.7l48.7,84.2H-191.9z"/>
<g>
	<path d="M-119.3,402.1c0.1,0.6-0.2,1.2-0.5,1.6l1.9-0.2c0.4,0,0.8,0.1,1.1,0.2c-0.3-2.3-1.3-3.8-2.3-4.6c-0.8-0.6-1.5-0.9-1.9-1
		v2.1C-120.1,400.4-119.4,401.2-119.3,402.1z"/>
	<path d="M-117.8,422.9l-8.1,0.7c-0.9,0.1-1.5,0.9-1.5,1.7c0.1,0.8,0.8,1.5,1.6,1.5h0.1l8.1-0.7c0.9-0.1,1.5-0.9,1.5-1.7
		C-116.2,423.5-116.9,422.8-117.8,422.9z"/>
	<path d="M-117.8,419.2l-8.1,0.7c-0.9,0.1-1.5,0.9-1.5,1.7c0.1,0.8,0.8,1.5,1.6,1.5h0.1l8.1-0.7c0.9-0.1,1.5-0.9,1.5-1.7
		C-116.2,419.7-116.9,419.1-117.8,419.2z"/>
	<path d="M-117.8,407.9l-8.1,0.7c-0.9,0.1-1.5,0.9-1.5,1.7c0.1,0.8,0.8,1.5,1.6,1.5h0.1l8.1-0.7c0.9-0.1,1.5-0.9,1.5-1.7
		C-116.2,408.5-116.9,407.8-117.8,407.9z"/>
	<path d="M-117.8,404.1l-8.1,0.7c-0.9,0.1-1.5,0.9-1.5,1.7c0.1,0.8,0.8,1.5,1.6,1.5h0.1l8.1-0.7c0.9-0.1,1.5-0.9,1.5-1.7
		C-116.2,404.7-116.9,404.1-117.8,404.1z"/>
	<path d="M-125.8,404.3L-125.8,404.3l4.4-0.4c0.9-0.1,1.5-0.9,1.5-1.7c-0.1-0.9-0.9-1.5-1.7-1.5l-4.3,0.4c-0.9,0.1-1.5,0.9-1.5,1.7
		C-127.3,403.7-126.6,404.3-125.8,404.3z"/>
	<path d="M-117.8,415.4l-8.1,0.7c-0.9,0.1-1.5,0.9-1.5,1.7c0.1,0.8,0.8,1.5,1.6,1.5h0.1l8.1-0.7c0.9-0.1,1.5-0.9,1.5-1.7
		C-116.2,416-116.9,415.3-117.8,415.4z"/>
	<path d="M-117.8,411.7l-8.1,0.7c-0.9,0.1-1.5,0.9-1.5,1.7c0.1,0.8,0.8,1.5,1.6,1.5h0.1l8.1-0.7c0.9-0.1,1.5-0.9,1.5-1.7
		C-116.2,412.2-116.9,411.6-117.8,411.7z"/>
	<path d="M-121.5,400.1V361h-3.2v39.4L-121.5,400.1C-121.6,400.1-121.6,400.1-121.5,400.1z"/>
	<path d="M-111.2,399.3l-1.2-3c-2.4,1-4.2,2.2-5.4,3.2c0.6,0.8,1.1,1.8,1.4,3C-115.4,401.7-113.6,400.3-111.2,399.3z"/>
	<path d="M-121.1,430c-10.3,11.9-16,18-16,26.5s6.9,15.5,15.5,15.5c8.5,0,15.5-6.9,15.5-15.5C-106.1,448-110.8,441.8-121.1,430z
		 M-119.3,426.8c10.8,12.4,16.8,19.7,16.8,29.7c0,10.5-8.6,19.1-19.1,19.1s-19.1-8.6-19.1-19.1c0-9.9,6.5-16.9,17.3-29.3
		L-119.3,426.8z"/>
	<path d="M-103.5,428.1"/>
</g>
</svg>
