<?xml version="1.0" encoding="utf-8"?>
<!-- Generator: Adobe Illustrator 19.0.0, SVG Export Plug-In . SVG Version: 6.00 Build 0)  -->
<svg version="1.1" id="Capa_1" xmlns="http://www.w3.org/2000/svg" xmlns:xlink="http://www.w3.org/1999/xlink" x="0px" y="0px"
	 viewBox="-210 325.9 173.5 190" style="enable-background:new -210 325.9 173.5 190;" xml:space="preserve">
<style type="text/css">
	.st0{fill:#685400;}
	.st1{fill:#564500;}
	.st2{fill:#F9C900;}
	.st3{fill:#FFFFFF;}
	.st4{fill:#826900;}
	.st5{fill:#F4A32C;}
	.st6{fill:#F7E7A1;}
	.st7{fill:#F4D44E;}
</style>
<g>
	<path class="st0" d="M-178.1,482.1c-3.5,0-6.4-2.9-6.4-6.4V366c0-3.5,2.9-6.4,6.4-6.4h109.7c3.5,0,6.4,2.9,6.4,6.4v109.7
		c0,3.5-2.9,6.4-6.4,6.4H-178.1z"/>
	<path class="st1" d="M-68.4,361.1c2.7,0,4.9,2.2,4.9,4.9v109.7c0,2.7-2.2,4.9-4.9,4.9h-109.7c-2.7,0-4.9-2.2-4.9-4.9V366
		c0-2.7,2.2-4.9,4.9-4.9H-68.4 M-68.4,358.1h-109.7c-4.4,0-7.9,3.5-7.9,7.9v109.7c0,4.4,3.5,7.9,7.9,7.9h109.7
		c4.4,0,7.9-3.5,7.9-7.9V366C-60.5,361.7-64,358.1-68.4,358.1L-68.4,358.1z"/>
</g>
<path class="st1" d="M-60.5,385.2c-6.9-11.4-16.8-20.8-28.6-27h-68.3c-11.8,6.2-21.7,15.6-28.6,27v75.4c5.5,9.2,13,17.1,21.9,23
	h81.7c8.9-6,16.4-13.9,21.9-23V385.2z"/>
<circle class="st2" cx="-123.3" cy="420.9" r="73.2"/>
<g id="XMLID_2_">
	<g>
		<path class="st3" d="M-89.6,447.4c-2.5,4.3-4.1,7.1-4.7,8.2h-0.1c-0.3-0.1-0.7-0.2-0.8-0.2c-0.2,0-1.6-0.5-1.9-0.6
			c-0.1,0-0.4-0.1-0.6-0.2c-0.2,0-0.3-0.1-0.3-0.1c-0.1,0-0.2-0.1-0.4-0.1h-0.1c-0.1,0-0.3-0.1-0.4-0.1l-0.7-0.2
			c-0.5-0.2-0.8-0.3-1.3,0.1l-0.6,0.5c-0.8,0.6-2.2,1.6-2.5,1.8c-0.1,0.1-0.3,0.1-0.5,0.3c-1.7,1.1-3.8,2.2-5.8,3
			c-3.3,1.3-6.6,2-10.3,2.3c-0.8,0.1-3.5,0.1-4.3,0c-4.8-0.4-8.9-1.5-13-3.5c-2.1-1-4.3-2.5-5.9-3.8c-0.2-0.2-0.3-0.3-0.4-0.3
			c-0.1-0.1-0.2-0.1-0.3-0.3l-0.4-0.3c-0.2-0.1-0.4-0.2-0.7-0.2h-0.2c-0.2,0-0.4,0.1-1.7,0.6c-0.3,0.1-1.1,0.4-1.8,0.7l-1.8,0.7
			c0,0,0,0-0.1,0c-0.6-1.1-2.3-3.9-4.8-8.2l-4.7-8.2c0.1-0.1,0.3-0.3,0.4-0.4l1.5-1.4c0.2-0.2,0.4-0.4,0.5-0.5l0.3-0.3
			c0.3-0.2,1-0.9,1.1-1l0.6-0.5c0.2-0.2,0.3-0.4,0.2-0.7v-0.3c-0.2-0.9-0.4-2.6-0.4-3.3c0-0.2,0-0.7,0-1.2v-0.6
			c0-1.9,0.1-3.8,0.4-5.7c1.4-9.4,6.7-17.7,14.6-23c2.3-1.5,4.9-2.9,7.4-3.7c0.5-0.2,0.8-0.3,0.9-0.8c0-0.1,0.1-0.3,0.8-4.2
			c0.1-0.6,0.2-1.1,0.3-1.5h9.4c5.8,0,8.5,0,9.5,0c0.2,1.1,0.8,3.4,1.1,4.5l0.3,1.3c0.1,0.5,0.4,0.6,1.2,0.9c1.4,0.6,3.2,1.4,4.3,2
			c3.9,2.1,7.2,5,9.9,8.4c4.3,5.3,6.8,11.7,7.3,18.4c0.1,1.5,0.1,4.1,0,5.3c-0.1,1.2-0.3,2.5-0.5,3.7v0.3c0,0.3,0,0.5,0.2,0.7
			l0.2,0.2c0.1,0.1,0.3,0.3,0.5,0.5c0.2,0.1,0.3,0.3,0.3,0.3s0.2,0.2,0.5,0.4l0.7,0.6c0.2,0.2,0.8,0.6,1.3,1.1l0.4,0.4
			c0.2,0.2,0.4,0.3,0.5,0.4L-89.6,447.4z"/>
	</g>
</g>
<path class="st4" d="M-80.6,437.9c-0.1-0.2-0.1-0.2-3.9-3.4l-1.2-1c0,0,0-0.1,0-0.2c0.4-3,0.5-5.9,0.2-9c-0.7-7.2-3.5-13.9-8-19.6
	c-2.9-3.6-6.6-6.8-10.6-9.1c-1.3-0.7-3-1.6-4.3-2.1c-0.1-0.5-0.4-1.7-0.7-3.1l-0.8-3.5c-0.2-0.6-0.3-0.6-2.5-0.6
	c-1.6,0-4.6,0-10.3,0h-12c-0.4,0-0.7,0.2-0.7,0.6v0.1l0,0c0,0.1-0.3,1.6-0.6,3.3c-0.2,1.3-0.4,2.4-0.5,2.9c-0.1,0-0.1,0.1-0.2,0.1
	c-5.9,2.4-11.2,6.3-15.2,11.3c-4.1,5.2-6.8,11.3-7.8,17.7c0,0.3-0.1,0.6-0.1,0.6c-0.2,0.5-0.3,3.1-0.3,3.1c0,0.9-0.1,3.1,0,4
	c0,0.8,0.1,1.6,0.2,2.6v0.3c-0.3,0.3-0.6,0.6-1,0.9l-2.6,2.4c-1.3,1.2-1.3,1.2-1.3,1.3c-0.3,0.4-0.3,0.4,1,2.7l6,10.4
	c5.2,9,5.2,9,5.6,9c0.1,0,0.2,0,0.9-0.3l1.6-0.6c1.8-0.7,3.1-1.2,3.7-1.4c0.8,0.6,2.3,1.7,3.4,2.4c1.9,1.2,4.4,2.4,6.7,3.3
	c4.2,1.6,8.6,2.4,13.1,2.4c1.5,0,3-0.1,4.5-0.3c3.1-0.4,6.3-1.2,9.1-2.3c0.3-0.1,0.6-0.2,0.6-0.2c0.5-0.1,2.4-1,2.8-1.2
	c2-1,3.7-2.1,5.5-3.4l0.4-0.3h0.1c0.2,0.1,1.9,0.6,2.1,0.7c0.4,0.1,2.3,0.7,2.5,0.8c0.1,0,0.3,0.1,0.5,0.2l0.2,0.1
	c0.2,0.1,0.4,0.1,0.6,0.2c0.4,0.1,0.6,0.2,0.8,0.1c0.3-0.1,0.3-0.1,6.4-10.7c1.8-3.1,6-10.4,6.1-10.6
	C-80.5,438.4-80.5,438.1-80.6,437.9z"/>
<g transform="translate(0.000000,2400.000000) scale(0.100000,-0.100000)">
	<path d="M-810.6,19671.6c-0.9,2-0.9,2-39.3,34.1l-11.8,9.9c0.1,0.4,0.1,0.9,0.2,1.5c4.2,29.7,4.7,59.2,1.6,90.3
		c-7.3,71.7-35,139.5-80.1,196.1c-29,36.3-65.7,67.8-106.4,91c-12.7,7.2-30.1,15.8-42.8,21c-1.2,5.4-3.9,17.2-6.9,30.7l-7.8,34.6
		c-1.8,5.7-2.6,5.7-24.6,5.8c-15.8,0.1-46,0.1-103.2,0.1h-120.4c-3.5,0-6.6-2.4-7.3-5.9l-0.2-1c0-0.1,0-0.2-0.1-0.3
		c-0.1-0.6-2.7-15.6-5.8-33.4c-2.3-13.3-4.2-23.9-5.1-28.9c-0.6-0.3-1.2-0.5-1.9-0.8c-59.3-23.9-111.8-63-151.7-113.1
		c-41.1-51.6-68-112.8-77.6-177c-0.4-2.8-0.9-5.5-0.9-5.7c-1.9-4.7-3.5-30.7-3.5-31c-0.5-8.9-0.5-30.6,0-40c0.4-8,1.1-15.8,2.4-25.9
		l0.4-3.1c-2.9-2.7-6.5-6-10-9.2l-26.4-24.4c-13.1-12-13.3-12.4-13.4-12.7c-3.2-4.2-3.2-4.2,9.8-26.8l60.1-104.1
		c51.7-89.6,51.7-89.6,56.5-89.6c1.2,0,1.8,0,9.2,2.7l16.2,5.9c18.3,6.7,31.5,11.5,37.3,13.6c7.5-6.1,23.5-17.3,34.5-24.2
		c19-11.9,44-24.1,67-32.7c41.7-15.6,86.2-23.6,130.8-23.6c14.9,0,29.7,0.9,44.5,2.7c31.4,3.8,62.9,11.7,91.2,22.9
		c3.1,1.2,5.9,2.3,5.9,2.3c4.5,0.8,24,10.5,27.9,12.4c19.5,9.9,36.8,20.6,54.5,33.8l4.2,3.1c0.4-0.1,0.8-0.3,1.3-0.4
		c1.8-0.6,18.9-5.9,21.4-6.6c4.2-1.3,23.4-7.3,24.8-7.8c0.6-0.2,2.9-0.9,5.1-1.6l1.8-0.6c1.9-0.6,4-1.2,5.5-1.7
		c4-1.3,6.3-1.9,8.4-0.9c3.1,1,3.1,1,64.1,106.6c18,31.1,59.8,103.7,60.8,105.8C-809.8,19667.5-809.8,19669.7-810.6,19671.6z"/>
	<g id="XMLID_1_">
		<g>
			<path class="st3" d="M-900.9,19577.6c-24.9-43.1-41.2-71.1-47.4-81.5c-0.3,0.1-0.6,0.2-1,0.3c-3.4,1.1-6.9,2.1-7.6,2.3
				c-1.6,0.4-16.4,4.9-19.5,5.9c-1.2,0.4-3.5,1.1-5.7,1.7c-1.6,0.5-3.2,1-3.3,1c-0.7,0.3-2.3,0.9-3.7,1.2c-0.5,0.1-1,0.3-1.1,0.3
				c-0.6,0.3-2.6,1-4.4,1.4l-7,2.1c-5.1,1.6-8.1,2.5-12.5-0.7l-6.2-5c-8-6.4-21.6-16.3-24.7-18.1c-1.2-0.5-2.7-1.4-5-2.9
				c-17.1-11-38.2-21.8-57.7-29.5c-33-13-65.6-20.4-102.8-23.2c-7.9-0.5-35.4-0.5-43.3,0c-47.8,3.6-89.2,14.9-130.2,35.5
				c-20.8,10.5-43.1,24.8-59.5,38.2c-1.9,1.7-3.2,2.6-4.1,3c-0.6,0.6-1.7,1.5-2.9,2.5l-3.6,3.1c-1.8,1.5-4.2,2.1-6.5,1.6l-1.8-0.3
				c-2.1-0.5-4.5-1.3-17.1-6c-3.3-1.3-11.5-4.3-18.2-6.7l-18.3-6.7c-0.2-0.1-0.4-0.2-0.6-0.2c-6.4,10.8-22.9,39.2-47.5,81.8
				l-47.3,81.9c1.3,1.2,2.8,2.6,4.3,4.1l14.6,13.8c1.9,1.8,4.3,4,5.4,5l3.5,3.2c2.6,2.4,9.7,9,11,10.3l5.8,5.4
				c1.8,1.8,2.6,4.4,2.1,6.9l-0.5,2.7c-1.7,9-3.8,26.4-3.9,33.2c0,2.2-0.1,6.9-0.2,12l-0.2,6c-0.4,19.4,0.8,38.1,3.7,57.1
				c14.2,93.6,67.4,177.4,145.9,229.9c22.8,15.2,49,28.5,73.7,37.2c4.8,1.7,8.2,2.9,9.5,8c0.2,0.9,0.7,2.6,7.5,42.1
				c1,5.8,2,11.1,2.6,14.9h94.4c58.5,0,85.1,0,94.9-0.2c2.4-10.5,8-34.3,10.5-45.1l2.9-13c1.3-4.9,4.4-6.1,12-9
				c14.5-5.6,31.5-13.5,43.3-20.2c38.6-21.5,72-49.6,99.3-83.5c42.6-52.9,68-116.7,73.5-184.5c1.2-14.7,1.4-40.7,0.4-52.6
				c-0.9-11.7-2.8-25.5-4.8-37.1l-0.5-2.5c-0.4-2.5,0.4-5,2.2-6.7l1.8-1.7c0.9-0.9,3.3-3,5.3-4.7c1.6-1.3,3-2.5,3.3-2.7
				c0.2-0.3,2.4-2.1,4.8-4l7.3-6.1c1.8-1.6,7.5-6.3,13.1-11l4.2-3.5c2.2-1.9,4-3.3,5.3-4.4L-900.9,19577.6z"/>
		</g>
	</g>
	<path d="M-1247.1,20031.1v-19.2l-1.6-0.2c-0.9-0.1-5.1-0.5-9.4-1c-37.8-3.8-76.2-17.7-108.8-39.4c-26.1-17.3-49.5-40.8-66.9-66.9
		c-11.7-17.6-22-38.7-28.5-58.4c-18.1-54.7-16.2-113.4,5.2-166.7c1.5-3.7,4.1-9.6,5.8-13.2c1.7-3.6,3.1-6.6,3.1-6.8
		c0-0.2-8.2-5-18.3-10.8c-10-5.8-18.5-10.7-18.8-11c-0.5-0.3,0.4-2.2,6.8-13.2c4.1-7,7.5-12.8,7.6-12.8s8.7,4.8,19,10.8
		s18.8,10.8,19,10.8c0.1,0,1.8-2.2,3.7-4.8c16.4-23,38.4-44.3,62.3-60.2c17.6-11.7,38.7-22,58.4-28.5c49.8-16.4,102.7-16.4,152.5,0
		c19.7,6.5,40.9,16.8,58.4,28.5c24.2,16.1,45.7,37,62.8,60.9c2.2,3.1,4.1,5.6,4.2,5.6s8.4-4.8,18.5-10.6
		c10.1-5.9,18.6-10.7,18.9-10.9c0.4-0.2,2.2,2.6,7.9,12.5c6.6,11.5,7.3,12.8,6.8,13.2c-0.3,0.3-8.8,5.2-18.9,11
		c-10,5.8-18.2,10.7-18.2,10.8c0,0.2,1.2,2.8,2.8,6c20.7,43.1,27.8,95,19.6,143.2c-5.7,33.6-18.6,66.1-37.5,94.4
		c-15,22.5-34.2,42.8-56.1,59.2c-12.2,9.1-23,15.8-37.3,22.9c-26.4,13.2-54.1,21.3-82.3,24.1c-4.3,0.4-8.5,0.9-9.4,1l-1.6,0.2v19.2
		v19.2h-14.9h-14.9v-18.9H-1247.1z M-1247.1,19923.8v-43.3h-17c-9.9,0-16.9-0.2-16.9-0.3c0.4-1.1,49.4-95.9,49.5-95.9
		s49.1,94.8,49.5,95.9c0.1,0.2-7.3,0.3-17.6,0.3h-17.8v43.3v43.3h1.7c5.3,0,21-2.6,31.6-5.3c14.2-3.5,25.5-7.7,39.3-14.5
		c15.1-7.4,27.2-15.3,40.3-26.1c5.7-4.7,20.4-19.6,25.3-25.7c7.3-9,14-18.8,19.6-28.6c3-5.3,9.1-18,11.4-23.9
		c17.2-43.3,18.6-91.5,4-135.4c-3.3-10-9.3-24.3-10.1-24.3c-0.4,0-68.9,39.5-69.6,40.1c-0.4,0.4,0.8,2.8,7.7,14.8
		c4.6,7.9,8.3,14.4,8.3,14.7c0,0.4,0.3,0.4-8.6,0.7c-3.6,0.1-6.8,0.3-7.1,0.4c-0.3,0-3.7,0.2-7.5,0.3c-3.8,0.2-7.7,0.3-8.8,0.4
		c-1,0.1-4.4,0.3-7.5,0.4s-6.3,0.3-7.3,0.4c-0.9,0.1-4.6,0.3-8.2,0.4s-7.1,0.3-7.8,0.3c-0.7,0-4.1,0.2-7.6,0.4
		c-3.5,0.2-7,0.3-7.7,0.4s-4.5,0.2-8.4,0.4c-3.9,0.1-7.3,0.3-7.6,0.4c-1.4,0.3-13.8,0.6-13.8,0.4c0-0.1,10.6-16.7,23.6-36.9
		c12.9-20.1,26.1-40.5,29.2-45.3c5-7.8,5.6-8.7,6.1-8.1c0.3,0.4,4.3,7.3,9,15.3l8.5,14.7l1.1-0.7c0.6-0.4,16.4-9.5,35-20.2
		s33.8-19.7,33.8-19.9c0-0.6-5.5-8-10-13.5c-4.6-5.6-19.4-20.7-24.8-25.1c-8.2-6.8-17.3-13.2-26.3-18.7
		c-6.3-3.8-21.3-11.2-28.2-13.9c-47.2-18.6-99.2-18.6-146.4,0c-7,2.8-21.9,10.1-28.2,13.9c-9,5.4-18.2,11.9-26.3,18.7
		c-5.3,4.4-19.5,18.7-24.1,24.2c-4.3,5.1-10.2,13-10,13.2c0.1,0.1,15.3,8.9,33.9,19.6s34.3,19.8,34.9,20.2l1.2,0.7l8.1-14.1
		c4.5-7.8,8.3-14.4,8.6-14.8c0.4-0.6,0.7-0.2,2.7,3c1.3,2,4.6,7.2,7.4,11.5s6.9,10.8,9.2,14.4c4,6.2,16.8,26.1,20.1,31.3
		c0.9,1.3,4.6,7.2,8.4,13.1s7.7,12,8.8,13.7c1.1,1.7,2,3.3,2,3.5c0,0.3-0.9,0.3-2.9,0.2c-1.6-0.1-5.2-0.3-7.9-0.4
		c-2.8-0.1-6.3-0.3-7.8-0.4c-3-0.2-8.2-0.4-15.7-0.7c-2.6-0.1-5.9-0.3-7.5-0.4c-1.5-0.1-4.9-0.3-7.5-0.4c-4.7-0.2-9-0.4-15.6-0.7
		c-2-0.1-7.3-0.4-11.9-0.6c-4.5-0.2-9.8-0.4-11.8-0.6c-2-0.1-5.3-0.3-7.3-0.4c-9.1-0.4-12-0.7-12-0.9c0-0.1,3.9-7,8.7-15.3l8.7-15.1
		l-1-0.6c-3.2-2.1-69-39.9-69.3-39.9c-0.4,0-3.9,7.4-6.6,14c-10.9,26.8-15.8,57.4-14,86.1c2.1,33.1,12.2,64.6,29.8,92.9
		c3.8,6.2,9.7,14.3,14.9,20.7c4.9,6,19.6,21,25.3,25.7c13.1,10.9,25.2,18.7,40.3,26.1c13.8,6.8,25.1,11,39.3,14.5
		c10.7,2.7,25.3,5.1,31.1,5.2h2.1L-1247.1,19923.8L-1247.1,19923.8z"/>
</g>
<g>
	<g id="SVGCleanerId_0_1_">
		<path class="st5" d="M-64.6,386.4c-0.1,0-0.3-0.1-0.3-0.3c-2.2-12.1-9.5-19.9-20.8-22c-0.3,0-0.3-0.3-0.3-0.3s0-0.3,0.3-0.3
			c11.3-2.1,18.7-10,20.8-22.2c0-0.3,0.3-0.3,0.3-0.3s0.3,0,0.3,0.3c1.9,10.7,7.7,18,16.8,21.1c1.3,0.4,2.7,0.8,4.1,1.1
			c0.2,0,0.3,0.2,0.3,0.3c0,0.2-0.1,0.3-0.3,0.3c-3.3,0.6-6.2,1.7-8.8,3.2c-8.1,4.8-11,12.9-12.1,18.8
			C-64.3,386.2-64.4,386.4-64.6,386.4L-64.6,386.4z"/>
		<path class="st3" d="M-64.6,342.1c2.1,10.5,7.9,17.7,17,20.7c1.1,0.4,2.3,0.7,3.4,0.9c-3,0.6-5.8,1.7-8.2,3.1
			c-7.9,4.6-11,12.4-12.2,18.4c-2.3-11.6-9.5-19.2-20.4-21.5C-74.1,361.4-66.9,353.8-64.6,342.1 M-64.6,340.4
			c-0.4,0-0.8,0.2-0.8,0.7c-2,11.5-8.8,19.6-20.4,21.7c-0.9,0.2-0.9,1.5,0,1.7c11.5,2.1,18.4,10.2,20.4,21.6
			c0.1,0.6,0.7,0.7,0.8,0.7l0,0c0.4,0,0.8-0.3,0.8-0.7c1-5.9,3.9-13.8,11.8-18.5c2.5-1.5,5.4-2.5,8.6-3.1c0.4-0.1,0.7-0.4,0.7-0.8
			s-0.3-0.8-0.7-0.8c-1.4-0.3-2.8-0.6-4-1c-9.4-3.2-14.7-10.8-16.4-20.7C-63.8,340.7-64.2,340.4-64.6,340.4L-64.6,340.4z"/>
	</g>
</g>
<g>
	<path class="st6" d="M-90.8,390.2c-0.1,0-0.2,0-0.3-0.2c-1.1-3.6-3.5-6.2-6.9-7.3c-0.2-0.1-0.2-0.3-0.2-0.3c0-0.1,0-0.3,0.2-0.3
		c3.4-1.2,5.8-3.7,6.9-7.3c0-0.1,0.2-0.2,0.3-0.2l0,0c0.1,0,0.2,0,0.3,0.2c1.1,3.7,3.5,6.2,6.9,7.3c0.1,0,0.2,0.2,0.2,0.3
		c0,0.2,0,0.2-0.7,0.5c-0.5,0.2-1.3,0.5-2.2,1.2c-2,1.4-3.4,3.4-4.2,6C-90.5,390.1-90.6,390.2-90.8,390.2L-90.8,390.2z"/>
	<path class="st3" d="M-90.8,375.3c1.2,3.5,3.5,5.9,6.7,7.1c0,0,0,0-0.1,0c-0.5,0.2-1.3,0.5-2.3,1.2c-2,1.4-3.4,3.3-4.3,5.8
		c-1.2-3.4-3.5-5.9-6.7-7.1C-94.3,381.1-92,378.7-90.8,375.3 M-90.8,373.9L-90.8,373.9c-0.4,0-0.7,0.2-0.8,0.6c-1,3.3-3.2,5.8-6.6,7
		c-0.8,0.3-0.8,1.4,0,1.6c3.4,1.2,5.5,3.7,6.6,7c0.2,0.5,0.7,0.6,0.8,0.6l0,0c0.4,0,0.7-0.2,0.8-0.6c0.8-2.5,2.1-4.4,4-5.7l0,0
		c2.1-1.4,3.1-1,3.1-2.1c0-0.4-0.2-0.7-0.6-0.8c-3.3-1.1-5.5-3.6-6.6-7C-90.2,374-90.7,373.9-90.8,373.9L-90.8,373.9z"/>
</g>
<g>
	<path class="st7" d="M-98.8,359c-0.1,0-0.2,0-0.3-0.2c-1.1-3.6-3.5-6.2-6.9-7.3c-0.2-0.1-0.2-0.3-0.2-0.3c0-0.1,0-0.3,0.2-0.3
		c3.4-1.2,5.8-3.7,6.9-7.3c0-0.1,0.2-0.2,0.3-0.2l0,0c0.1,0,0.2,0,0.3,0.2c1.1,3.7,3.5,6.2,6.9,7.3c0.1,0,0.2,0.2,0.2,0.3
		c0,0.2,0,0.2-0.7,0.5c-0.5,0.2-1.3,0.5-2.2,1.2l-0.2,0.1c-1.9,1.4-3.3,3.3-4.1,5.9C-98.5,358.9-98.7,359-98.8,359L-98.8,359z"/>
	<path class="st3" d="M-98.8,344c1.2,3.5,3.5,5.9,6.7,7.1c0,0,0,0-0.1,0c-0.5,0.2-1.3,0.5-2.3,1.2c0,0-0.1,0-0.1,0.1l-0.1,0.1
		c-1.9,1.4-3.3,3.3-4.1,5.7c-1.2-3.4-3.5-5.9-6.7-7.1C-102.3,349.9-100,347.5-98.8,344 M-98.8,342.7L-98.8,342.7
		c-0.4,0-0.7,0.2-0.8,0.6c-1,3.3-3.2,5.8-6.6,7c-0.8,0.3-0.8,1.4,0,1.6c3.4,1.2,5.5,3.7,6.6,7c0.2,0.5,0.7,0.6,0.8,0.6l0,0
		c0.4,0,0.7-0.2,0.8-0.6c1.3-4.1,3.9-5.5,4-5.7c2.1-1.4,3.1-1,3.1-2.1c0-0.4-0.2-0.7-0.6-0.8c-3.3-1.1-5.5-3.6-6.6-7
		C-98.2,342.8-98.7,342.7-98.8,342.7L-98.8,342.7z"/>
</g>
</svg>
