<?xml version="1.0" encoding="utf-8"?>
<!-- Generator: Adobe Illustrator 19.0.0, SVG Export Plug-In . SVG Version: 6.00 Build 0)  -->
<svg version="1.1" id="Capa_1" xmlns="http://www.w3.org/2000/svg" xmlns:xlink="http://www.w3.org/1999/xlink" x="0px" y="0px"
	 viewBox="-210 325.9 173.5 190" style="enable-background:new -210 325.9 173.5 190;" xml:space="preserve">
<g id="XMLID_100_">
	<path d="M-45.1,494.1h-156.3c-2,0-3.8-1-4.8-2.7s-1-3.8,0-5.5l78.1-135.4c1-1.7,2.8-2.8,4.8-2.8l0,0c2,0,3.8,1,4.8,2.7l78.2,135.4
		c1,1.7,1,3.8,0,5.5C-41.3,493-43.1,494.1-45.1,494.1z M-191.9,483.1h137.3l-68.7-118.9L-191.9,483.1z"/>
</g>
<path d="M-97.4,439c-0.7-1.5-1.2-3.2-1.5-4.9c0.3-1.8,0.8-3.5,1.5-5.1l0.2-0.6c1-2.8-0.5-4.7-1.5-5.9c-0.8-1-1.2-1.5-1.1-2.1
	c0.6-3.6-0.3-5-1.7-6.6c-0.9-0.9-1.5-2-2-3.2c-1.3-3.5-5.3-3.8-7.9-3.9c-0.6,0-1.2-0.1-1.8-0.2l-0.3-0.2c-1.9-1.7-4.4-2.7-6.9-2.8
	c-2.3,0.1-4.7,0.5-6.9,1.2c-0.6,0.2-1.1,0.3-1.6,0.5l0,0c-2.1-1.1-4.5-1.3-6.8-0.5c-2.3,0.7-4.2,2.2-5.4,4.3
	c-0.3,0.7-0.6,1.4-0.8,2.2c-0.4,1.5-0.6,2.1-2.9,2.7c-1.5,0.5-2.8,1.7-3.3,3.3c-0.4,0.8-0.8,1.5-1.3,2.2c-1.5,1.9-2,4.4-1.3,6.8
	l0.1,0.5c0.3,1,0.2,2.1-0.4,3c-1,1.6-1.1,3.5-0.4,5.2c0.6,1.3,0.3,2.4-0.2,4.1c-0.1,0.4-0.3,0.8-0.4,1.2c-0.7,2.7-1.2,6.1,1.1,8.5
	c2,2.2,5.4,2.6,7.9,1c0.9,0.7,2,1.3,3.1,1.7l0.7,0.3v0.2c0.2,0.4,0.2,1,0.1,1.4c-0.1,0.3-0.2,0.7-0.3,1c-1,2.1-1.1,4.6-0.3,6.8
	c1.8,4.3,4.9,7.9,8.8,10.3c0.8,0.5,1.8,0.8,2.8,0.8c0.8,0,1.6-0.2,2.2-0.7c1.1-0.8,2.1-1.7,3-2.7c1,2,3.1,3.2,5.3,3.3
	c1.5-0.1,3-0.5,4.2-1.4c0.8-0.5,9.9-9.1,6.7-15.7l-1.1-2.3c0.7-1.4,1.8-3.1,2.6-3.3c0.1,0,0.1,0,0.3,0.1c1.3,1.5,3.3,1.9,5.1,1.1
	c2.6-1.2,3.9-4.8,3.7-7.6C-96.3,441.8-96.8,440.4-97.4,439z M-123,463.4c-0.8,2.4-2.4,4.4-4.5,5.8c-0.2,0.1-0.3,0.1-0.5,0.1
	c-0.4,0-0.8-0.1-1.2-0.3c-3.4-2.1-6.1-5.3-7.6-9c-0.9-2,0.2-3.9,0.8-5.8c0.4-1.1,0.3-2.3-0.1-3.3c-0.1-0.3-0.2-0.6-0.3-0.9l0,0
	c-0.5-1.6-0.9-3.3-1.3-4.7c-0.5,0-1,0.1-1.5,0.1c-0.3,0-0.6,0-0.8-0.2c-0.8-0.6-0.4-3,0.3-3.8c0.5-0.5,0.8-1.2,0.9-1.9
	c0.1-1.6,0-3.3-0.1-4.9c-0.1-2,0.2-4,1-5.8c0.6-1.8,1-3.7,1.1-5.6c0.5-3.1,3.1-5.5,6.2-5.7c0.9-0.1,1.8-0.2,2.7-0.2
	c1.5,0,3.1,0.2,4.5,0.8c0.5,0.2,1.1,0.3,1.6,0.3c0.8,0,1.6-0.1,2.4-0.2h0.6c2.9,0,6.5,1.3,5.9,4.1c-0.4,1.9,0,3.8,1.3,5.3
	c0.8,1.1,0,3.6-1.7,4c-1.3-0.9-2.8-1.4-4.3-1.4c-0.7,0-1.5,0.2-2.1,0.4c-2.8,1.2-3.5,3.7-3,6.8c0.3,1.7,0.2,3.5,0.3,5.2
	c0.2,0.8,0.3,1.6,0.3,2.4c-0.2,0.7-0.6,1.4-1,2c-0.5-0.4-1-0.8-1.5-1.3c-0.3-0.4-0.5-0.8-0.8-1.2c-0.7,0-1.2,0.9-1.8,0.9
	c-0.3,0-0.6-0.2-1.1-0.9l-0.2,0.7c0.1,0.5,0.1,1.3,0.4,1.6c0.4,0.3,1,0.5,1.5,0.6c0.1,0,0.2,0,0.3,0c0.2-0.1,0.5-0.1,0.7-0.1
	c0.4,0,0.8,0.3,1,0.7c0.2,0.3,0.9,0.4,1.4,0.4l0,0c0.5,0,1.8-0.8,2.3-0.8h0.1c0.3,0.1,0.7,0.1,1,0.1c1,0,1.7-0.5,1.6-1.8
	c0-0.4,0-0.8-0.1-1.2c-0.4-1.5-2-7.7-2.2-8.9c0.1-0.1,0.3-0.1,0.5-0.1c0.3,0,0.5,0.1,0.8,0.2l0,0c0.4,1.3,0,2.4,2.3,2.5h0.1
	c1.4,0,1.5-1.5,2.1-2.4c0.4,0.1,0.7,0.1,1.2,0.2c0.7,1.7,0.6,5.9,0.4,7.2c-0.3,2.4-0.7,6.7-2.4,8.9c-0.2,0.3-0.5,0.5-0.9,0.5
	c-0.6,0-1.2-0.6-1.3-1.5c-0.1-0.9-0.5-1-1-1c-0.2,0-0.5,0.1-0.7,0.1c-0.3,0.1-0.6,0.2-1,0.2c-0.1,0-0.2,0-0.3-0.1
	c-0.5-0.4-1.1-0.6-1.7-0.7c-0.8,0.1-1.5,0.5-1.9,1.2c-0.5-0.7-1.3-1.1-2.1-1.3c-0.6,0.1-1.2,0.4-1.6,0.9c-0.1,0-0.1,0-0.2,0
	c-0.2,0-0.4-0.1-0.6-0.1c-0.2-0.1-0.4-0.2-0.7-0.2c-0.9,0-1,1.1-1,1.9c0.5,0.1,1,0.1,1.5,0.1c1.2,0,3-0.1,4.5-0.1h0.3
	c1.2,0,2.3,0.1,3.5,0.3c0.2,0.4,0.2,0.9,0,1.4c-0.5,0.3-1.1,0.4-1.7,0.4h-0.1c-0.6,0-1.3-0.3-2-0.3h-0.1c-0.9,0-1.8,0.1-2.7,0.2
	c0,0.3,0,1,0,1.3c0.8,0.1,1.5,0.2,2.3,0.3h0.4c0.3,0,0.7-0.1,1-0.1c1.7,0,2.7,0.6,2.7,1.8c0.1,1.5-1.5,1.9-3.5,2h-0.1
	c-2.1,0-6.4-1.8-8.9-3.9l0,0C-133.4,455.4-129.1,463-123,463.4z M-114.7,434.2l-5-0.1c0,0,0-2.1,2.6-2.1
	C-115,432-114.7,434.2-114.7,434.2z M-114.9,468.3c-0.8,0.6-1.7,0.9-2.7,1c-1.1,0-2-0.8-3-2.4c-0.6-1-1-2-1.6-3.2
	c5.3-1.2,10.4-2.1,12.8-7.1C-107.3,460.7-114.3,467.9-114.9,468.3z M-101.1,448.2c-0.2,0.1-0.8,0.4-1.8-0.6
	c-0.8-0.8-2.1-1.2-3.2-0.8c-1.4,0.6-2.6,1.6-3.3,2.9l0,0l-0.1,0.2c-0.7,1.1-1.2,2.2-1.6,3.4l-1,2.1c-1.1,2.4-3.1,3.5-6,4.3
	c0.4-0.7,0.5-1.5,0.5-2.3c0-0.6-0.2-1.3-0.4-1.9l0.1-0.2c0.5,0.2,1.1,0.4,1.7,0.4c1.3,0,2.4-0.6,3.2-1.6c2-2.6,2.6-6.5,2.9-9.5
	c0-0.3,0.1-0.6,0.1-0.9c0.1-0.9,0.5-6.1-0.6-8.8l-0.5-1.1c1.1-0.8,1.9-1.9,2.3-3.2c0.6-1.6,0.4-3.4-0.6-4.8c-0.7-0.8-1-1.8-0.7-2.8
	c0.4-1.6-0.1-3.4-1.1-4.7c-1.8-2.2-5.2-3-7.7-3h-0.9l-0.8,0.1c-0.5,0-0.9,0.1-1.3,0.1c-0.2,0-0.4,0-0.6,0c-1.8-0.7-3.7-1-5.6-1
	c-1,0-2.1,0.1-3.1,0.2c-4.5,0.3-8.1,3.7-8.9,8.1c-0.1,0.6-0.2,1.2-0.3,1.8c-0.1,1.1-0.3,2.1-0.7,3.2c-0.9,2.2-1.3,4.7-1.2,7.1
	c0,0.3,0,0.7,0,1c0.1,1.2,0.1,2.4,0.1,3.5c0,0.1-0.1,0.2-0.2,0.3c-1.1,1.5-1.7,3.4-1.4,5.3c0.1,0.5,0.2,0.9,0.4,1.4l-0.6,0.6
	c-1.1,1.4-3.2,1.5-4.5,0.4c-0.1-0.1-0.3-0.2-0.4-0.4c-1-1-1.1-2.7-0.3-5.6c0.1-0.4,0.2-0.7,0.3-1.1c0.9-2,0.9-4.3,0-6.3
	c-0.2-0.7-0.1-1.4,0.2-2.1c1-1.5,1.3-3.4,0.9-5.2l-0.1-0.6c-0.5-1.6-0.2-3.3,0.8-4.6c0.6-0.8,1.1-1.7,1.5-2.6
	c0.6-1.3,0.9-1.6,1.4-1.7c3.7-1,4.4-2.6,5-4.8c0.1-0.6,0.3-1.2,0.6-1.7c0.8-1.3,2.1-2.3,3.6-2.7c1.4-0.5,3-0.4,4.4,0.2
	c0.6,0.4,1.3,0.5,2.1,0.4c0.6-0.1,1.2-0.3,1.9-0.5c1.9-0.7,4-1.1,6-1.1c1.9,0,3.7,0.8,5.1,2.1l0.4,0.3c1.1,0.6,2.3,0.9,3.5,0.8
	c2.6,0.1,4.7,0.4,5.3,1.9c0.5,1.6,1.4,3,2.5,4.2c1,1.1,1.4,1.6,1,4.2c-0.2,1.7,0.5,3.3,1.8,4.5c1,1.2,1.4,1.8,1,2.9l-0.2,0.4
	c-0.9,1.9-1.5,4-1.8,6.1c-0.1,1.6,0.8,3.9,1.7,6.1c0.5,1.1,0.9,2.2,1.1,3.3C-99,445.3-100,447.6-101.1,448.2z M-133.3,436.2
	c0.1-0.3,0.7-0.3,1.2-0.5c0.4,1.3,0.6,2.3,1.9,2.3c0.2,0,0.4,0,0.6,0c1.8-0.3,1.1-1.6,1.4-2.9h0.8h0.2c0.9,1.4-0.2,5.4,1.7,7.1
	c0.3-2.1,0.5-4.2,0.6-6.3c0-0.9-0.3-1.8-0.8-2.6c-1.7-1.9-3.5-3-5.4-3c-1.3,0-2.6,0.5-3.6,1.3c-1.3,0.9-2,3.1-1.2,4.4s2.2,3,2.2,3
	c0.5-0.1,0.9-0.3,1.4-0.5C-132.9,437.8-133.1,437-133.3,436.2z M-134.1,434.9c-0.1-1.1,0.6-2.2,1.6-2.5c0.5-0.2,1-0.3,1.5-0.3
	c1,0,1.9,0.4,2.5,1.2C-130.4,433.7-132.3,434.2-134.1,434.9L-134.1,434.9L-134.1,434.9z"/>
</svg>
