<?xml version="1.0" encoding="utf-8"?>
<!-- Generator: Adobe Illustrator 19.0.0, SVG Export Plug-In . SVG Version: 6.00 Build 0)  -->
<svg version="1.1" id="Capa_1" xmlns="http://www.w3.org/2000/svg" xmlns:xlink="http://www.w3.org/1999/xlink" x="0px" y="0px"
	 viewBox="-210 325.9 173.5 190" style="enable-background:new -210 325.9 173.5 190;" xml:space="preserve">
<style type="text/css">
	.st0{clip-path:url(#SVGID_2_);}
	.st1{fill:#FFFFFF;}
</style>
<g>
	<g id="XMLID_100_">
		<path d="M-45.1,494.1h-156.3c-2,0-3.8-1-4.8-2.7s-1-3.8,0-5.5l78.1-135.4c1-1.7,2.8-2.8,4.8-2.8l0,0c2,0,3.8,1,4.8,2.7l78.2,135.4
			c1,1.7,1,3.8,0,5.5C-41.3,493-43.1,494.1-45.1,494.1z M-191.9,483.1h137.3l-68.7-118.9L-191.9,483.1z"/>
	</g>
	<g>
		<g>
			<defs>
				<polygon id="SVGID_1_" points="-191.9,483.1 -54.6,483.1 -123.3,364.2 				"/>
			</defs>
			<clipPath id="SVGID_2_">
				<use xlink:href="#SVGID_1_"  style="overflow:visible;"/>
			</clipPath>
			<path class="st0" d="M-35.1,337.7l3.1-5.3l-3.7-6.4h-7.4l-3.1,5.3h-4.9l-3.1-5.3h-7.4l-3.1,5.3h-4.9l-3.1-5.3H-80l-3,5.3h-5
				l-3.1-5.3h-7.4l-3.1,5.3h-4.9l-3.1-5.3h-7.4l-3.1,5.3h-4.9l-3.1-5.3h-7.4l-3.1,5.3h-4.9l-3.1-5.3h-7.4l-3.1,5.3h-5l-3-5.3h-7.4
				l-3.1,5.3h-4.9l-3.1-5.3h-7.4l-3.1,5.3h-4.9l-3.1-5.3h-7.4l-3.7,6.4l3.1,5.3l-3.1,5.3l3.1,5.3l-3.1,5.3l3.1,5.3l-3.1,5.3l3.1,5.3
				l-3.1,5.3l3.1,5.3l-3.1,5.3l3.1,5.3l-3.1,5.3l3.1,5.3l-3.1,5.4l3.1,5.3l-3.1,5.3l3.1,5.3l-3.1,5.3l3.1,5.3l-3.1,5.4l3.1,5.3
				l-3.1,5.3l3.1,5.3l-3.1,5.3l3.1,5.3l-3.1,5.3l3.1,5.3l-3.1,5.3l3.1,5.3l-3.1,5.3l3.1,5.3l-3.1,5.3l3.7,6.4h6.2l3.1,5.3h7.4
				l3.1-5.3h5l3.1,5.3h7.3l3.1-5.3h5l3.1,5.3h7.3l3.1-5.3h5l3.1,5.3h7.4l3.1-5.3h5l3.1,5.3h7.4l3.1-5.3h5l3.1,5.3h7.4l3.1-5.3h5
				l3,5.3h7.4l3-5.3h5l3.1,5.3h7.4l3.1-5.3h5l3.1,5.3h7.4l3.1-5.3h6.2l3.7-6.4l-3.1-5.3l3.1-5.3l-3.1-5.3l3.1-5.3l-3.1-5.3l3.1-5.3
				l-3.1-5.3l3.1-5.3l-3.1-5.3l3.1-5.3l-3.1-5.3l3.1-5.2l-3.1-5.3l3.1-5.3l-3.1-5.3l3.1-5.3l-3.1-5.3l3.1-5.3l-3.1-5.4l3.1-5.3
				l-3.1-5.3l3.1-5.3l-3.1-5.3l3.1-5.3l-3.1-5.3l3.1-5.3l-3.1-5.3l3.1-5.3l-3.1-5.3l3.1-5.3L-35.1,337.7z M-41.9,328.1h5l2.5,4.3
				l-2.5,4.3h-5l-1.2-2.1l-1.2-2.1L-41.9,328.1z M-51.1,333.4h5l1.2,2.1l1.2,2.1l-1.2,2.1l-1.2,2.1h-5l-1.2-2.1l-1.2-2.1l1.2-2.1
				L-51.1,333.4z M-126.2,420.8l1.2-2.1h5l1.2,2.1l1.2,2.1l-1.2,2.1l-1.2,2.1h-5l-1.2-2.1l-1.2-2.1L-126.2,420.8z M-128,419.8
				l-1.2,2.1h-4.9l-1.2-2.1l-1.2-2.1l1.2-2.1l1.2-2.1h5l1.2,2.1l1.2,2.1L-128,419.8z M-118.2,417.7l1.2-2.1l1.2-2.1h5l1.2,2.1
				l1.2,2.1l-1.2,2.1l-1.2,2.1h-5l-1.2-2.1L-118.2,417.7z M-110.8,411.3h-4.9l-1.2-2.1l-1.2-2.1l1.2-2.1l1.2-2.1h5l1.2,2.1l1.2,2.1
				l-1.2,2.1L-110.8,411.3z M-117.5,412.4l-1.2,2.1l-1.2,2.1h-4.9l-1.2-2.1l-1.2-2.1l1.2-2.1l1.2-2.1h5l1.2,2.1L-117.5,412.4z
				 M-127.9,409.2l-1.2,2.1h-5l-1.2-2.1l-1.2-2.1l1.2-2.1l1.2-2.1h5l1.2,2.1l1.2,2.1L-127.9,409.2z M-136,412.3l-1.2,2.1l-1.2,2.1
				h-4.9l-1.2-2.1l-1.2-2.1l1.2-2.1l1.2-2.1h4.9l1.2,2.1L-136,412.3z M-143.4,418.7h4.9l1.2,2.1l1.2,2.1l-1.2,2.1l-1.2,2.1h-4.9
				l-1.2-2.1l-1.2-2.1l1.2-2.1L-143.4,418.7z M-143.4,429.3h4.9l1.2,2.1l1.2,2.1l-1.2,2.1l-1.2,2.1h-4.9l-1.2-2.1l-1.2-2.1l1.2-2.1
				L-143.4,429.3z M-136.6,428.3l1.2-2.1l1.2-2.1h5l1.2,2.1l1.2,2.1l-2.5,4.3h-5l-1.2-2.1L-136.6,428.3z M-124.9,429.3h5l1.2,2.1
				l1.2,2.1l-1.2,2.1l-1.2,2.1h-5l-1.2-2.1l-1.2-2.1L-124.9,429.3z M-118.2,428.3l1.2-2.1l1.2-2.1h5l1.2,2.1l1.2,2.1l-1.2,2.1
				l-1.2,2.1h-5l-1.2-2.1L-118.2,428.3z M-107.8,431.5l1.2-2.1h4.9l1.2,2.1l1.2,2.1l-1.2,2.1l-1.2,2.1h-4.9l-1.2-2.1l-1.2-2.1
				L-107.8,431.5z M-101.6,427.3h-4.9l-1.2-2.1l-1.2-2.1l1.2-2.1l1.2-2.1h4.9l1.2,2.1l1.2,2.1l-1.2,2.1L-101.6,427.3z M-101.6,416.7
				h-4.9l-1.2-2.1l-1.2-2.1l1.2-2.1l1.2-2.1h4.9l1.2,2.1l1.2,2.1l-1.2,2.1L-101.6,416.7z M-101.6,406h-4.9l-1.2-2.1l-1.2-2.1
				l1.2-2.1l1.2-2.1h4.9l1.2,2.1l1.2,2.1l-1.2,2.1L-101.6,406z M-109.6,398.5l-1.2,2.1h-4.9l-1.2-2.1l-1.2-2.1l1.2-2.1l1.2-2.1h5
				l1.2,2.1l1.2,2.1L-109.6,398.5z M-117.5,401.6l-1.2,2.1l-1.2,2.1h-4.9l-1.2-2.1l-1.2-2.1l1.2-2.1l1.2-2.1h5l1.2,2.1L-117.5,401.6
				z M-127.9,398.4l-1.2,2.1h-5l-1.2-2.1l-1.2-2.1l1.2-2.1l1.2-2.1h5l1.2,2.1l1.2,2.1L-127.9,398.4z M-136,401.6l-1.2,2.1l-1.2,2.1
				h-4.9l-1.2-2.1l-1.2-2.1l1.2-2.1l1.2-2.1h4.9l1.2,2.1L-136,401.6z M-146.3,398.4l-1.2,2.1h-5l-1.2-2.1l-1.2-2.1l1.2-2.1l1.2-2.1
				h5l1.2,2.1l1.2,2.1L-146.3,398.4z M-152.6,402.6h5l1.2,2.1l1.2,2.1l-1.2,2.1l-1.2,2.1h-5l-1.2-2.1l-1.2-2.1l1.2-2.1L-152.6,402.6
				z M-152.6,413.2h5l1.2,2.1l1.2,2.1l-1.2,2.1l-1.2,2.1h-5l-1.2-2.1l-1.2-2.1l1.2-2.1L-152.6,413.2z M-152.6,423.9h5l1.2,2.1
				l1.2,2.1l-1.2,2.1l-1.2,2.1h-5l-1.2-2.1l-1.2-2.1l1.2-2.1L-152.6,423.9z M-152.6,434.5h5l1.2,2.1l1.2,2.1l-1.2,2.1l-1.2,2.1h-5
				l-1.2-2.1l-1.2-2.1l1.2-2.1L-152.6,434.5z M-144.6,442l1.2-2.1h4.9l1.2,2.1l1.2,2.1l-1.2,2.1l-1.2,2.1h-4.9l-1.2-2.1l-1.2-2.1
				L-144.6,442z M-136.6,439l1.2-2.1l1.2-2.1h5l1.2,2.1l1.2,2.1l-2.5,4.2h-5l-1.2-2.1L-136.6,439z M-124.9,440h4.9l1.2,2.1l1.2,2.1
				l-1.2,2.1l-1.2,2.1h-4.9l-1.2-2.1l-1.2-2.1L-124.9,440z M-118.2,439l1.2-2.1l1.2-2.1h5l1.2,2.1l1.2,2.1l-1.2,2.1l-1.2,2.1h-5
				l-1.2-2.1L-118.2,439z M-107.8,442.2l1.2-2.1h4.9l1.2,2.1l1.2,2.1l-1.2,2.1l-1.2,2.1h-4.9l-1.2-2.1l-1.2-2.1L-107.8,442.2z
				 M-99.7,439l1.2-2.1l1.2-2.1h5l1.2,2.1l1.2,2.1l-1.2,2.1l-1.2,2.1h-5l-1.2-2.1L-99.7,439z M-92.3,432.6h-5l-1.2-2.1l-1.2-2.1
				l1.2-2.1l1.2-2.1h4.9l1.2,2.1l1.2,2.1l-1.2,2.1L-92.3,432.6z M-92.3,422h-5l-1.2-2.1l-1.2-2.1l1.2-2.1l1.2-2.1h4.9l1.2,2.1
				l1.2,2.1l-1.2,2.1L-92.3,422z M-92.3,411.3h-5l-1.2-2.1l-1.2-2.1l1.2-2.1l1.2-2.1h4.9l1.2,2.1l1.2,2.1l-1.2,2.1L-92.3,411.3z
				 M-92.3,400.7h-5l-1.2-2.1l-1.2-2.1l1.2-2.1l1.2-2.1h4.9l1.2,2.1l1.2,2.1l-1.2,2.1L-92.3,400.7z M-92.3,390h-5l-1.2-2.1l-1.2-2.1
				l1.2-2.1l1.2-2.1h4.9l1.2,2.1l1.2,2.1l-1.2,2.1L-92.3,390z M-99,391.1l-1.2,2.1l-1.2,2.1h-4.9l-1.2-2.1l-1.2-2.1l1.2-2.1l1.2-2.1
				h4.9l1.2,2.1L-99,391.1z M-109.4,387.9l-1.2,2.1h-5l-1.2-2.1l-1.2-2.1l1.2-2.1l1.2-2.1h5l1.2,2.1l1.2,2.1L-109.4,387.9z
				 M-117.4,391.1l-1.2,2.1l-1.2,2.1h-5l-1.2-2.1l-1.2-2.1l1.2-2.1l1.2-2.1h5l1.2,2.1L-117.4,391.1z M-127.8,387.9l-1.2,2.1h-5.1
				l-1.2-2.1l-1.2-2.1l1.2-2.1l1.2-2.1h5l1.2,2.1l1.2,2.1L-127.8,387.9z M-136,391l-1.2,2.1l-1.2,2.1h-4.9l-1.2-2.1l-1.2-2.1
				l1.2-2.1l1.2-2.1h4.9l1.2,2.1L-136,391z M-146.3,387.8l-1.2,2.1h-5l-1.2-2.1l-1.2-2.1l1.2-2.1l1.2-2.1h5l1.2,2.1l1.2,2.1
				L-146.3,387.8z M-154.3,391l-1.2,2.1l-1.2,2.1h-5.1l-1.2-2.1l-1.2-2.1l1.2-2.1l1.2-2.1h5l1.2,2.1L-154.3,391z M-161.9,397.5h5
				l1.2,2.1l1.2,2.1l-1.2,2.1l-1.2,2.1h-5l-1.2-2.1l-1.2-2.1l1.2-2.1L-161.9,397.5z M-161.9,408.1h5l1.2,2.1l1.2,2.1l-1.2,2.1
				l-1.2,2.1h-5l-1.2-2.1l-1.2-2.1l1.2-2.1L-161.9,408.1z M-161.9,418.8h5l1.2,2.1l1.2,2.1l-1.2,2.1l-1.2,2.1h-5l-1.2-2.1l-1.2-2.1
				l1.2-2.1L-161.9,418.8z M-161.9,429.4h5l1.2,2.1l1.2,2.1l-1.2,2.1l-1.2,2.1h-5l-1.2-2.1l-1.2-2.1l1.2-2.1L-161.9,429.4z
				 M-161.9,440.1h5l1.2,2.1l1.2,2.1l-1.2,2.1l-1.2,2.1h-5l-1.2-2.1l-1.2-2.1l1.2-2.1L-161.9,440.1z M-161.9,450.7h5l1.2,2.1
				l1.2,2.1l-1.2,2.1l-1.2,2.1h-5l-1.2-2.1l-1.2-2.1l1.2-2.1L-161.9,450.7z M-155.2,449.7l1.2-2.1l1.2-2.1h5l1.2,2.1l1.2,2.1
				l-1.2,2.1l-1.2,2.1h-4.9l-1.2-2.1L-155.2,449.7z M-144.8,452.9l1.2-2.1h5.1l1.2,2.1l1.2,2.1l-1.2,2.1l-1.2,2.1h-4.9l-1.2-2.1
				l-1.2-2.1L-144.8,452.9z M-136.8,449.7l1.2-2.1l1.2-2.1h5l1.2,2.1l1.2,2.1l-1.2,2.1l-1.2,2.1h-4.8l-1.2-2.1L-136.8,449.7z
				 M-126.4,452.9l1.2-2.1h5l1.2,2.1l1.2,2.1l-1.2,2.1l-1.2,2.1h-4.7l-2.5-4.3L-126.4,452.9z M-118.4,449.7l1.2-2.1l1.2-2.1h5
				l1.2,2.1l1.2,2.1l-1.2,2.1l-1.2,2.1h-4.8l-1.2-2.1L-118.4,449.7z M-108,452.9l1.2-2.1h4.9l1.2,2.1l1.2,2.1l-1.2,2.1l-1.2,2.1
				h-4.6l-1.2-2.1l-1.2-2.1L-108,452.9z M-100,449.7l1.2-2.1l1.2-2.1h4.9l1.2,2.1l1.2,2.1l-1.2,2.1l-1.2,2.1h-4.7l-1.2-2.1
				L-100,449.7z M-89.7,452.9l1.2-2.1h5.4l1.2,2.1l1.2,2.1l-1.2,2.1l-1.2,2.1h-5l-1.2-2.1l-1.2-2.1L-89.7,452.9z M-83.4,448.7H-88
				l-1.2-2.1l-1.2-2.1l1.2-2.1l1.2-2.1h5l1.2,2.1l1.2,2.1l-1.2,2.1L-83.4,448.7z M-83.4,438H-88l-1.2-2.1l-1.2-2.1l1.2-2.1l1.2-2.1
				h5l1.2,2.1l1.2,2.1l-1.2,2.1L-83.4,438z M-83.4,427.4H-88l-1.2-2.1l-1.2-2.1l1.2-2.1l1.2-2.1h5l1.2,2.1l1.2,2.1l-1.2,2.1
				L-83.4,427.4z M-83.4,416.7H-88l-1.2-2.1l-1.2-2.1l1.2-2.1l1.2-2.1h5l1.2,2.1l1.2,2.1l-1.2,2.1L-83.4,416.7z M-83.4,406.1H-88
				l-1.2-2.1l-1.2-2.1l1.2-2.1l1.2-2.1h5l1.2,2.1l1.2,2.1l-1.2,2.1L-83.4,406.1z M-83,395.4h-5l-1.2-2.1l-1.2-2.1l1.2-2.1l1.2-2.1h5
				l1.2,2.1l1.2,2.1l-1.2,2.1L-83,395.4z M-83,384.7h-5l-1.2-2.1l-1.2-2.1l1.2-2.1l1.2-2.1h5l1.2,2.1l1.2,2.1l-1.2,2.1L-83,384.7z
				 M-91,377.2l-1.2,2.1h-5l-1.2-2.1l-1.2-2.1l1.2-2.1l1.2-2.1h4.9l1.2,2.1l1.2,2.1L-91,377.2z M-99,380.4l-1.2,2.1l-1.2,2.1h-5
				l-1.2-2.1l-1.2-2.1l1.2-2.1l1.2-2.1h4.9l1.2,2.1L-99,380.4z M-109.4,377.2l-1.2,2.1h-5.1l-1.2-2.1l-1.2-2.1l1.2-2.1l1.2-2.1h5
				l1.2,2.1l1.2,2.1L-109.4,377.2z M-117.4,380.4l-1.2,2.1l-1.2,2.1h-5.1l-1.2-2.1l-1.2-2.1l1.2-2.1l1.2-2.1h5l1.2,2.1L-117.4,380.4
				z M-127.8,377.2l-1.2,2.1h-5.2l-1.2-2.1l-1.2-2.1l1.2-2.1l1.2-2.1h5l1.2,2.1l1.2,2.1L-127.8,377.2z M-136,380.3l-1.2,2.1
				l-1.2,2.1h-4.9l-1.2-2.1l-1.2-2.1l1.2-2.1l1.2-2.1h4.9l1.2,2.1L-136,380.3z M-146.3,377.1l-1.2,2.1h-5l-1.2-2.1l-1.2-2.1l1.2-2.1
				l1.2-2.1h5l1.2,2.1l1.2,2.1L-146.3,377.1z M-154.3,380.3l-1.2,2.1l-1.2,2.1h-5.1l-1.2-2.1l-1.2-2.1l1.2-2.1l1.2-2.1h5l1.2,2.1
				L-154.3,380.3z M-164.7,377.1l-1.2,2.1h-5.1l-1.2-2.1l-1.2-2.1l1.2-2.1l1.2-2.1h5l1.2,2.1l1.2,2.1L-164.7,377.1z M-171,381.3h4.9
				l1.2,2.1l1.2,2.1l-1.2,2.1l-1.2,2.1h-5l-1.2-2.1l-1.2-2.1l1.2-2.1L-171,381.3z M-171,392h4.9l1.2,2.1l1.2,2.1l-1.2,2.1l-1.2,2.1
				h-5l-1.2-2.1l-1.2-2.1l1.2-2.1L-171,392z M-171,402.6h4.9l1.2,2.1l1.2,2.1l-1.2,2.1l-1.2,2.1h-5l-1.2-2.1l-1.2-2.1l1.2-2.1
				L-171,402.6z M-171,413.3h4.9l1.2,2.1l1.2,2.1l-1.2,2.1l-1.2,2.1h-5l-1.2-2.1l-1.2-2.1l1.2-2.1L-171,413.3z M-171,423.9h4.9
				l1.2,2.1l1.2,2.1l-1.2,2.1l-1.2,2.1h-5l-1.2-2.1l-1.2-2.1l1.2-2.1L-171,423.9z M-171,434.6h4.9l1.2,2.1l1.2,2.1l-1.2,2.1
				l-1.2,2.3h-5l-1.2-2.1l-1.2-2.1l1.2-2.1L-171,434.6z M-171,445.2h4.9l1.2,2.1l1.2,2.1l-1.2,2.1l-1.2,2.1h-5l-1.2-2.1l-1.2-2.1
				l1.2-2.1L-171,445.2z M-171,455.9h4.9l1.2,2.1l1.2,2.1l-1.2,2.1l-1.2,2.1h-5l-1.2-2.1l-1.2-2.1l1.2-2.1L-171,455.9z M-163,463.3
				l1.2-2.1h5l1.2,2.1l1.2,2.1l-1.2,2.1l-1.2,2.1h-5.2l-1.2-2.1l-1.2-2.1L-163,463.3z M-155,460.2l1.2-2.1l1.2-2.1h5l1.2,2.1
				l1.2,2.1l-1.2,2.1l-1.2,2.1h-5.1l-1.2-2.1L-155,460.2z M-144.6,463.3l1.2-2.1h4.9l1.2,2.1l1.2,2.1l-1.2,2.1l-1.2,2.1h-4.9
				l-1.2-2.1l-1.2-2.1L-144.6,463.3z M-136.6,460.2l1.2-2.1l1.2-2.1h5l2.5,4.3l-1.2,2.1l-1.2,2.1h-5l-1.2-2.1L-136.6,460.2z
				 M-126.2,463.3l1.2-2.1h5l1.2,2.1l1.2,2.1l-1.2,2.1l-1.2,2.1h-4.9l-2.5-4.3L-126.2,463.3z M-118.2,460.2l1.2-2.1l1.2-2.1h5
				l1.2,2.1l1.2,2.1l-1.2,2.1l-1.2,2.1h-5l-1.2-2.1L-118.2,460.2z M-107.8,463.3l1.2-2.1h5l1.2,2.1l1.2,2.1l-1.2,2.1l-1.2,2.1h-4.9
				l-1.2-2.1l-1.2-2.1L-107.8,463.3z M-99.8,460.2l1.2-2.1l1.2-2.1h4.9l1.2,2.1l1.2,2.1l-1.2,2.1l-1.2,2.1h-4.9l-1.2-2.1
				L-99.8,460.2z M-89.4,463.3l1.2-2.1h5.2l1.2,2.1l1.2,2.1l-1.2,2.1l-1.2,2.1h-5l-1.2-2.1l-1.2-2.1L-89.4,463.3z M-81.5,460.2
				l1.2-2.1l1.2-2.1h4.9l1.2,2.1l1.2,2.1l-1.2,2.1l-1.2,2.1h-4.8l-1.2-2.1L-81.5,460.2z M-74,453.8h-4.8l-1.2-2.1l-1.2-2.1l1.2-2.1
				l1.2-2.1h4.9l1.2,2.1l1.2,2.1l-1.2,2.1L-74,453.8z M-74,443.1h-4.8l-1.2-2.1l-1.2-2.1l1.2-2.1l1.2-2.1h5l1.2,2.1l1.2,2.1
				l-1.2,2.1L-74,443.1z M-74,432.5h-4.8l-1.2-2.1l-1.2-2.1l1.2-2.1l1.2-2.1h4.9l1.2,2.1l1.2,2.1l-1.2,2.1L-74,432.5z M-74,421.8
				h-4.8l-1.2-2.1l-1.2-2.1l1.2-2.1l1.2-2.1h4.9l1.2,2.1l1.2,2.1l-1.2,2.1L-74,421.8z M-74,411.2h-4.8l-1.2-2.1l-1.2-2.1l1.2-2.1
				l1.2-2.1h4.9l1.2,2.1l1.2,2.1l-1.2,2.1L-74,411.2z M-74,400.5h-4.8l-1.2-2.1l-1.2-2.1l1.2-2.1l1.2-2.1h4.9l1.2,2.1l1.2,2.1
				l-1.2,2.1L-74,400.5z M-74,389.9h-4.8l-1.2-2.1l-1.2-2.1l1.2-2.1l1.2-2.1h4.9l1.2,2.1l1.2,2.1l-1.2,2.1L-74,389.9z M-74,379.2
				h-4.8l-1.2-2.1l-1.2-2.1l1.2-2.1l1.2-2.1h4.9l1.2,2.1l1.2,2.1l-1.2,2.1L-74,379.2z M-74,368.6h-4.8l-1.2-2.1l-1.2-2.1l1.2-2.1
				l1.2-2.1h4.9l1.2,2.1l1.2,2.1l-1.2,2.1L-74,368.6z M-80.8,369.6l-1.2,2.1l-1.2,2.1H-88l-1.2-2.1l-1.2-2.1l1.2-2.1l1.2-2.1h5
				l1.2,2.1L-80.8,369.6z M-91.2,366.4l-1.2,2.1h-4.9l-1.2-2.1l-1.2-2.1l1.2-2.1l1.2-2.1h4.9l1.2,2.1l1.2,2.1L-91.2,366.4z
				 M-99.1,369.6l-1.2,2.1l-1.2,2.1h-4.8l-1.2-2.1l-1.2-2.1l1.2-2.1l1.2-2.1h4.9l1.2,2.1L-99.1,369.6z M-109.5,366.4l-1.2,2.1h-4.9
				l-1.2-2.1l-1.2-2.1l1.2-2.1l1.2-2.1h5l1.2,2.1l1.2,2.1L-109.5,366.4z M-117.5,369.6l-1.2,2.1l-1.2,2.1h-4.9l-1.2-2.1l-1.2-2.1
				l1.2-2.1l1.2-2.1h5l1.2,2.1L-117.5,369.6z M-127.9,366.4l-1.2,2.1h-5l-1.2-2.1l-1.2-2.1l1.2-2.1l1.2-2.1h5l1.2,2.1l1.2,2.1
				L-127.9,366.4z M-136,369.7l-1.2,2.1l-1.2,2.1h-4.9l-1.2-2.1l-1.2-2.1l1.2-2.1l1.2-2.1h4.9l1.2,2.1L-136,369.7z M-146.3,366.5
				l-1.2,2.1h-5l-1.2-2.1l-1.2-2.1l1.2-2.1l1.2-2.1h5l1.2,2.1l1.2,2.1L-146.3,366.5z M-154.3,369.7l-1.2,2.1l-1.2,2.1h-5.1l-1.2-2.1
				l-1.2-2.1l1.2-2.1l1.2-2.1h5l1.2,2.1L-154.3,369.7z M-164.7,366.5l-1.2,2.1h-5.1l-1.2-2.1l-1.2-2.1l1.2-2.1l1.2-2.1h5l1.2,2.1
				l1.2,2.1L-164.7,366.5z M-172.7,369.7l-1.2,2.1l-1.2,2.1h-5.1l-1.2-2.1l-1.2-2.1l1.2-2.1l1.2-2.1h5l1.2,2.1L-172.7,369.7z
				 M-180.2,376h5l1.2,2.1l1.2,2.1l-1.2,2.1l-1.2,2.1h-5.1l-1.2-2.1l-1.2-2.1l1.2-2.1L-180.2,376z M-180.2,386.7h5l1.2,2.1l1.2,2.1
				l-1.2,2.1l-1.2,2.1h-5.1l-1.2-2.1l-1.2-2.1l1.2-2.1L-180.2,386.7z M-180.2,397.3h5l1.2,2.1l1.2,2.1l-1.2,2.1l-1.2,2.1h-5.1
				l-1.2-2.1l-1.2-2.1l1.2-2.1L-180.2,397.3z M-180.2,408h5l1.2,2.1l1.2,2.1l-1.2,2.1l-1.2,2.1h-5.1l-1.2-2.1l-1.2-2.1l1.2-2.1
				L-180.2,408z M-180.2,418.7h5l1.2,2.1l1.2,2.1l-1.2,2.1l-1.2,2.1h-5.1l-1.2-2.1l-1.2-2.1l1.2-2.1L-180.2,418.7z M-180.2,429.3h5
				l1.2,2.1l1.2,2.1l-1.2,2.1l-1.2,2.1h-5.1l-1.2-2.1l-1.2-2.1L-180.2,429.3z M-180.2,440h5l1.2,2.1l1.2,2.1l-1.2,2.1l-1.2,2.1h-5.1
				l-1.2-2.1l-1.2-2.1L-180.2,440z M-180.2,450.6h5l1.2,2.1l1.2,2.1l-1.2,2.1l-1.2,2.1h-5.1l-2.5-4.3l1.2-2.1L-180.2,450.6z
				 M-180.2,461.3h5l1.2,2.1l1.2,2.1l-1.2,2.1l-1.2,2.1h-5.1l-2.5-4.3l1.2-2.1L-180.2,461.3z M-180.2,471.9h5l1.2,2.1l1.2,2.1
				l-1.2,2.1l-1.2,2.1h-5.1l-1.2-2.1l-1.2-2.1l1.2-2.1L-180.2,471.9z M-173.4,470.9l1.2-2.1l1.2-2.1h4.8l1.2,2.1l1.2,2.1l-1.2,2.1
				l-1.2,2.1h-5l-1.2-2.1L-173.4,470.9z M-163,474.1l1.2-2.1h5l1.2,2.1l1.2,2.1l-1.4,2.3l-1.2,2.1h-5l-1.2-2.1l-1.2-2.1L-163,474.1z
				 M-155,470.9l1.2-2.1l1.2-2.1h5l1.2,2.1l1.2,2.1l-1.2,2.1l-1.2,2.1h-5.1l-1.2-2.1L-155,470.9z M-144.6,474.1l1.2-2.1h4.9l1.2,2.1
				l1.2,2.1l-1.2,2.1l-1.2,2.1h-4.9l-1.2-2.1l-1.2-2.1L-144.6,474.1z M-136.6,470.9l1.2-2.1l1.2-2.1h5l2.5,4.3l-1.2,2.1l-1.2,2.1h-5
				l-1.2-2.1L-136.6,470.9z M-126.3,474.1l1.2-2.1h5l1.2,2.1l1.2,2.1l-1.2,2.1l-1.2,2.1h-4.9l-1.2-2.1l-1.2-2.1L-126.3,474.1z
				 M-118.3,470.9l1.2-2.1l1.2-2.1h5l1.2,2.1l1.2,2.1l-1.2,2.1l-1.2,2.1h-4.9l-1.2-2.1L-118.3,470.9z M-107.9,474.1l1.2-2.1h4.9
				l1.2,2.1l1.2,2.1l-1.2,2.1l-1.2,2.1h-4.8l-1.2-2.1l-1.2-2.1L-107.9,474.1z M-99.9,470.9l1.2-2.1l1.2-2.1h4.9l1.2,2.1l1.2,2.1
				l-1.2,2.1l-1.2,2.1h-4.8l-1.2-2.1L-99.9,470.9z M-89.5,474.1l1.2-2.1h5.3l1.2,2.1l1.2,2.1l-1.2,2.1l-1.2,2.3h-5l-1.2-2.1
				l-1.2-2.1L-89.5,474.1z M-81.5,470.9l1.2-2.1l1.2-2.1h4.9l1.2,2.1l1.2,2.1l-1.2,2.1l-1.2,2.1h-4.8l-1.2-2.1L-81.5,470.9z
				 M-71.1,474.1l1.2-2.1h5l1.2,2.1l1.2,2.1l-1.2,2.1l-1.2,2.1h-4.6l-1.2-2.1l-1.2-2.1L-71.1,474.1z M-64.9,469.9h-4.7l-1.2-2.1
				l-1.2-2.1l1.2-2.1l1.2-2.1h5l1.2,2.1l1.2,2.1l-1.2,2.1L-64.9,469.9z M-64.9,459.3h-4.7l-1.2-2.1l-1.2-2.1l1.2-2.1l1.2-2.1h5
				l1.2,2.1l1.2,2.1l-1.2,2.1L-64.9,459.3z M-64.9,448.6h-4.7l-1.2-2.1l-1.2-2.1l1.2-2.1l1.2-2.1h5l1.2,2.1l1.2,2.1l-1.2,2.1
				L-64.9,448.6z M-64.9,437.9h-4.7l-1.2-2.1l-1.2-2.1l1.2-2.1l1.2-2.1h5l1.2,2.1l1.2,2.1l-1.2,2.1L-64.9,437.9z M-64.9,427.3h-4.7
				l-1.2-2.1l-1.2-2.1l1.2-2.1l1.2-2.1h5l1.2,2.1l1.2,2.1l-1.2,2.1L-64.9,427.3z M-64.9,416.6h-4.7l-1.2-2.1l-1.2-2.1l1.2-2.1
				l1.2-2.1h5l1.2,2.1l1.2,2.1l-1.2,2.1L-64.9,416.6z M-64.9,406h-4.7l-1.2-2.1l-1.2-2.1l1.2-2.1l1.2-2.1h5l1.2,2.1l1.2,2.1
				l-1.2,2.1L-64.9,406z M-64.9,395.3h-4.7l-1.2-2.1l-1.2-2.1l1.2-2.1l1.2-2.1h5l1.2,2.1l1.2,2.1l-1.2,2.1L-64.9,395.3z
				 M-64.9,384.7h-4.7l-1.2-2.1l-1.2-2.1l1.2-2.1l1.2-2.1h5l1.2,2.1l1.2,2.1l-1.2,2.1L-64.9,384.7z M-64.9,374h-4.7l-1.2-2.1
				l-1.2-2.1l1.2-2.1l1.2-2.1h5l1.2,2.1l1.2,2.1l-1.2,2.1L-64.9,374z M-64.9,363.4h-4.7l-1.2-2.1l-1.2-2.1l1.2-2.1l1.2-2.1h5
				l1.2,2.1l1.2,2.1l-1.2,2.1L-64.9,363.4z M-72.6,355.9l-1.2,2.1h-5l-1.2-2.1l-1.2-2.1l1.2-2.1l1.2-2.1h4.9l1.2,2.1l1.2,2.1
				L-72.6,355.9z M-80.6,359.1l-1.2,2.1l-1.2,2.1H-88l-1.2-2.1l-1.2-2.1l1.2-2.1l1.2-2.1h5l1.2,2.1L-80.6,359.1z M-91,355.9
				l-1.2,2.1h-5l-1.2-2.1l-1.2-2.1l1.2-2.1l1.2-2.1h4.9l1.2,2.1l1.2,2.1L-91,355.9z M-99,359.1l-1.2,2.1l-1.2,2.1h-5l-1.2-2.1
				l-1.2-2.1l1.2-2.1l1.2-2.1h4.9l1.2,2.1L-99,359.1z M-109.4,355.9l-1.2,2.1h-5.1l-1.2-2.1l-1.2-2.1l1.2-2.1l1.2-2.1h5l1.2,2.1
				l1.2,2.1L-109.4,355.9z M-117.4,359.1l-1.2,2.1l-1.2,2.1h-5.1l-1.2-2.1l-1.2-2.1l1.2-2.1l1.2-2.1h5l1.2,2.1L-117.4,359.1z
				 M-127.8,355.9l-1.2,2.1h-5.2l-1.2-2.1l-1.2-2.1l1.2-2.1l1.2-2.1h5l1.2,2.1l1.2,2.1L-127.8,355.9z M-136,359l-1.2,2.1l-1.2,2.1
				h-4.9l-1.2-2.1l-1.2-2.1l1.2-2.1l1.2-2.1h4.9l1.2,2.1L-136,359z M-146.3,355.8l-1.2,2.1h-5l-1.2-2.1l-1.2-2.1l1.2-2.1l1.2-2.1h5
				l1.2,2.1l1.2,2.1L-146.3,355.8z M-154.3,359l-1.2,2.1l-1.2,2.1h-5.1l-1.2-2.1l-1.2-2.1l1.2-2.1l1.2-2.1h5l1.2,2.1L-154.3,359z
				 M-164.7,355.8l-1.3,2.2h-5l-1.2-2.1l-1.2-2.1l1.2-2.1l1.2-2.1h5l1.2,2.1l1.2,2.1L-164.7,355.8z M-172.7,359l-1.2,2.1l-1.2,2.1
				h-5.1l-1.2-2.1l-1.2-2.1l1.2-2.1l1.2-2.1h5l1.2,2.1L-172.7,359z M-183.1,355.8l-1.2,2.1h-5.2l-1.2-2.1l-1.2-2.1l1.2-2.1l1.2-2.1
				h5l1.2,2.1l1.2,2.1L-183.1,355.8z M-189.3,360h5l1.2,2.1l1.2,2.1l-1.2,2.1l-1.2,2.1h-5.2l-1.2-2.1l-1.2-2.1l1.2-2.1L-189.3,360z
				 M-189.3,370.6h5l1.2,2.1l1.2,2.1l-1.2,2.1l-1.2,2.1h-5.2l-1.2-2.1l-1.2-2.1l1.2-2.1L-189.3,370.6z M-189.3,381.3h5l1.2,2.1
				l1.2,2.1l-1.2,2.1l-1.2,2.1h-5.2l-1.2-2.1l-1.2-2.1l1.2-2.1L-189.3,381.3z M-189.3,392h5l1.2,2.1l1.2,2.1l-1.2,2.1l-1.2,2.1h-5.2
				l-1.2-2.1l-1.2-2.1l1.2-2.1L-189.3,392z M-189.3,402.6h5l1.2,2.1l1.2,2.1l-1.2,2.1l-1.2,2.1h-5.2l-1.2-2.1l-1.2-2.1l1.2-2.1
				L-189.3,402.6z M-189.3,413.3h5l1.2,2.1l1.2,2.1l-1.2,2.1l-1.2,2.1h-5.2l-1.2-2.1l-1.2-2.1l1.2-2.1L-189.3,413.3z M-189.3,423.9
				h5l1.2,2.1l1.2,2.1l-2.5,4.3h-5.2l-2.5-4.1l1.2-2.1L-189.3,423.9z M-189.3,434.6h5l1.2,2.1l1.2,2.1l-2.7,4.4h-5l-2.5-4.2l1.2-2.1
				L-189.3,434.6z M-189.3,445.2h5l1.2,2.1l1.2,2.1l-1.2,2.1l-1.2,2.1h-5.2l-1.2-2.1l-1.2-2.1l1.2-2.1L-189.3,445.2z M-189.3,455.9
				h5l2.5,4.3l-1.2,2.1l-1.2,2.1h-5.2l-1.2-2.1l-1.2-2.1L-189.3,455.9z M-189.3,466.5h5l2.5,4.3l-1.2,2.1l-1.2,2.1h-5.2l-1.2-2.1
				l-1.2-2.1L-189.3,466.5z M-189.3,477.2h5l1.2,2.1l1.2,2.1l-1.2,2.1l-1.2,2.1h-5.2l-1.2-2.1l-1.2-2.1l1.2-2.1L-189.3,477.2z
				 M-181.6,484.7l1.2-2.1h5l1.2,2.1l1.2,2.1l-1.2,2.1l-1.2,2.1h-5l-2.5-4.3L-181.6,484.7z M-173.6,481.5l1.2-2.1l1.2-2.1h5l1.2,2.1
				l1.2,2.1l-1.2,2.1l-1.2,2.1h-5l-1.2-2.1L-173.6,481.5z M-163.2,484.7l1.2-2.1h5l1.2,2.1l1.2,2.1l-1.2,2.1l-1.2,2.1h-4.9l-1.2-2.1
				l-1.2-2.1L-163.2,484.7z M-155.2,481.5l1.2-2.1l1.2-2.1h5l1.2,2.1l1.2,2.1l-1.2,2.1l-1.2,2.1h-4.9l-1.2-2.1L-155.2,481.5z
				 M-144.8,484.7l1.2-2.1h5.1l1.2,2.1l1.2,2.1l-1.2,2.1l-1.2,2.1h-4.9l-1.2-2.1l-1.2-2.1L-144.8,484.7z M-136.8,481.5l1.2-2.1
				l1.2-2.1h5l1.2,2.1l1.2,2.1l-1.2,2.1l-1.2,2.1h-4.8l-1.2-2.1L-136.8,481.5z M-126.4,484.7l1.2-2.1h5l1.2,2.1l1.2,2.1l-1.2,2.1
				l-1.2,2.1h-4.7l-2.5-4.3L-126.4,484.7z M-118.4,481.5l1.2-2.1l1.2-2.1h5l1.2,2.1l1.2,2.1l-1.2,2.1l-1.2,2.1h-4.7l-1.2-2.1
				L-118.4,481.5z M-108.1,484.7l1.2-2.1h4.9l1.2,2.1l1.2,2.1l-1.2,2.1l-1.2,2.1h-4.6l-1.2-2.1l-1.2-2.1L-108.1,484.7z
				 M-100.1,481.5l1.2-2.1l1.2-2.1h4.9l1.2,2.1l1.2,2.1l-1.2,2.1l-1.2,2.1h-4.6l-1.2-2.1L-100.1,481.5z M-89.2,484.7l1.2-2.1h5
				l1.2,2.1l1.2,2.1l-1.2,2.1l-1.2,2.1h-5l-1.2-2.1l-1.2-2.1L-89.2,484.7z M-81.2,481.5l1.2-2.1l1.2-2.1h4.9l1.2,2.1l1.2,2.1
				l-1.2,2.1l-1.2,2.1h-5l-1.2-2.1L-81.2,481.5z M-70.9,484.7l1.2-2.1h5l1.2,2.1l1.2,2.1l-1.2,2.1l-1.2,2.1h-4.9l-1.2-2.1l-1.2-2.1
				L-70.9,484.7z M-62.9,481.5l1.2-2.1l1.2-2.1h4.9l1.2,2.1l1.2,2.1l-1.2,2.1l-1.2,2.1h-4.9l-1.2-2.1L-62.9,481.5z M-55.4,475.1
				h-4.9l-1.2-2.1l-1.2-2.1l1.2-2.1l1.2-2.1h4.9l1.2,2.1l1.2,2.1l-1.2,2.1L-55.4,475.1z M-55.4,464.5h-4.9l-1.2-2.1l-1.2-2.1
				l1.2-2.1l1.2-2.1h4.9l1.2,2.1l1.2,2.1l-1.2,2.1L-55.4,464.5z M-55.4,453.8h-4.9l-1.2-2.1l-1.2-2.1l1.2-2.1l1.2-2.1h4.9l1.2,2.1
				l1.2,2.1l-1.2,2.1L-55.4,453.8z M-55.4,443.2h-4.9l-1.2-2.1l-1.2-2.1l1.2-2.1l1.2-2.1h4.9l1.2,2.1l1.2,2.1l-1.2,2.1L-55.4,443.2z
				 M-55.4,432.5h-4.9l-1.2-2.1l-1.2-2.1l1.2-2.1l1.2-2.1h4.9l1.2,2.1l1.2,2.1l-1.2,2.1L-55.4,432.5z M-55.4,421.9h-4.9l-1.2-2.1
				l-1.2-2.1l1.2-2.1l1.2-2.1h4.9l1.2,2.1l1.2,2.1l-1.2,2.1L-55.4,421.9z M-55.4,411.2h-4.9l-1.2-2.1l-1.2-2.1l1.2-2.1l1.2-2.1h4.9
				l1.2,2.1l1.2,2.1l-1.2,2.1L-55.4,411.2z M-55.4,400.5h-4.9l-1.2-2.1l-1.2-2.1l1.2-2.1l1.2-2.1h4.9l1.2,2.1l1.2,2.1l-1.2,2.1
				L-55.4,400.5z M-55.4,389.9h-4.9l-1.2-2.1l-1.2-2.1l1.2-2.1l1.2-2.1h4.9l1.2,2.1l1.2,2.1l-1.2,2.1L-55.4,389.9z M-55.4,379.2
				h-4.9l-1.2-2.1l-1.2-2.1l1.2-2.1l1.2-2.1h4.9l1.2,2.1l1.2,2.1l-1.2,2.1L-55.4,379.2z M-55.4,368.6h-4.9l-1.2-2.1l-1.2-2.1
				l1.2-2.1l1.2-2.1h4.9l1.2,2.1l1.2,2.1l-1.2,2.1L-55.4,368.6z M-55.4,357.9h-4.9l-1.2-2.1l-1.2-2.1l1.2-2.1l1.2-2.1h4.9l1.2,2.1
				l1.2,2.1l-1.2,2.1L-55.4,357.9z M-55.4,347.3h-4.9l-1.2-2.1l-1.2-2.1l1.2-2.1l1.2-2.1h4.9l1.2,2.1l1.2,2.1l-1.2,2.1L-55.4,347.3z
				 M-62.2,348.3l-1.2,2.1l-1.2,2.1h-4.9l-1.2-2.1l-1.2-2.1l1.2-2.1l1.2-2.1h5l1.2,2.1L-62.2,348.3z M-72.6,345.1l-1.2,2.1h-5
				l-1.2-2.1l-1.2-2.1l1.2-2.1l1.2-2.1h4.9l1.2,2.1l1.2,2.1L-72.6,345.1z M-80.6,348.3l-1.2,2.1l-1.2,2.1h-5l-1.2-2.1l-1.2-2.1
				l1.2-2.1l1.2-2.1h5l1.2,2.1L-80.6,348.3z M-90.9,345.1l-1.2,2.1h-5.1l-1.2-2.1l-1.2-2.1l1.2-2.1l1.2-2.1h4.9l1.2,2.1l1.2,2.1
				L-90.9,345.1z M-98.9,348.3l-1.2,2.1l-1.2,2.1h-5l-1.2-2.1l-1.2-2.1l1.2-2.1l1.2-2.1h4.9l1.2,2.1L-98.9,348.3z M-109.3,345.1
				l-1.2,2.1h-5.1l-1.2-2.1l-1.2-2.1l1.2-2.1l1.2-2.1h5l1.2,2.1l1.2,2.1L-109.3,345.1z M-117.3,348.3l-1.2,2.1l-1.2,2.1h-5.1
				l-1.2-2.1l-1.2-2.1l1.2-2.1l1.2-2.1h5l1.2,2.1L-117.3,348.3z M-127.7,345.1l-1.2,2.1h-5.2l-1.2-2.1l-1.2-2.1l1.2-2.1l1.2-2.1h5
				l1.2,2.1l1.2,2.1L-127.7,345.1z M-136,348.4l-1.2,2.1l-1.2,2.1h-4.9l-1.2-2.1l-1.2-2.1l1.2-2.1l1.2-2.1h4.9l1.2,2.1L-136,348.4z
				 M-146.3,345.2l-1.2,2.1h-5l-1.2-2.1l-1.2-2.1l1.2-2.1l1.2-2.1h5l1.2,2.1l1.2,2.1L-146.3,345.2z M-154.3,348.4l-1.2,2.1l-1.2,2.1
				h-5.1l-1.2-2.1l-1.2-2.1l1.2-2.1l1.2-2.1h5l1.2,2.1L-154.3,348.4z M-164.7,345.2l-1.2,2.1h-5.1l-1.2-2.1l-1.2-2.1l1.2-2.1
				l1.2-2.1h5l1.2,2.1l1.2,2.1L-164.7,345.2z M-172.7,348.4l-1.2,2.1l-1.2,2.1h-5.1l-1.2-2.1l-1.2-2.1l1.2-2.1l1.2-2.1h5l1.2,2.1
				L-172.7,348.4z M-183.1,345.2l-1.2,2.1h-5.2l-1.2-2.1l-1.2-2.1l1.2-2.1l1.2-2.1h5l1.2,2.1l1.2,2.1L-183.1,345.2z M-191.1,348.4
				l-1.2,2.1l-1.2,2.1h-5.2l-1.2-2.1l-1.2-2.1l1.2-2.1l1.2-2.1h5l1.2,2.1L-191.1,348.4z M-198.5,354.7h5l1.2,2.1l1.2,2.1l-1.2,2.1
				l-1.2,2.1h-5.2l-1.2-2.1l-1.2-2.1l1.2-2.1L-198.5,354.7z M-198.5,365.4h5l1.2,2.1l1.2,2.1l-1.2,2.1l-1.2,2.1h-5.2l-1.2-2.1
				l-1.2-2.1l1.2-2.1L-198.5,365.4z M-198.5,376h5l1.2,2.1l1.2,2.1l-1.2,2.1l-1.2,2.1h-5.2l-1.2-2.1l-1.2-2.1l1.2-2.1L-198.5,376z
				 M-198.5,386.7h5l1.2,2.1l1.2,2.1l-1.2,2.1l-1.2,2.1h-5.2l-1.2-2.1l-1.2-2.1l1.2-2.1L-198.5,386.7z M-198.5,397.3h5l1.2,2.1
				l1.2,2.1l-1.2,2.1l-1.2,2.1h-5.2l-1.2-2.1l-1.2-2.1l1.2-2.1L-198.5,397.3z M-198.5,408h5l1.2,2.1l1.2,2.1l-1.2,2.1l-1.2,2.1h-5.2
				l-1.2-2.1l-1.2-2.1l1.2-2.1L-198.5,408z M-198.5,418.7h5l1.2,2.1l1.2,2.1l-1.2,2.1l-1.2,2.1h-5.2l-1.2-2.1l-1.2-2.1l1.2-2.1
				L-198.5,418.7z M-198.5,429.3h5l2.5,4.3l-1.2,2.1l-1.2,2.1h-5.2l-1.2-2.1l-1.2-2.1L-198.5,429.3z M-198.5,440h5l2.5,4.3l-1.2,2.1
				l-1.2,2.1h-5.2l-1.2-2.1l-1.2-2.1L-198.5,440z M-198.5,450.6h5l1.2,2.1l1.2,2.1l-2.5,4.3h-5.2l-2.5-4.3l1.2-2.1L-198.5,450.6z
				 M-198.5,461.3h5l1.2,2.1l1.2,2.1l-2.5,4.3h-5.2l-2.5-4.3l1.2-2.1L-198.5,461.3z M-198.5,471.9h5l1.2,2.1l1.2,2.1l-1.2,2.1
				l-1.2,2.1h-5.2l-1.2-2.1l-1.2-2.1l1.2-2.1L-198.5,471.9z M-198.5,482.6h5l1.2,2.1l1.2,2.1l-2.5,4.3h-5.2l-2.5-4.3l1.2-2.1
				L-198.5,482.6z M-198.5,493.2h5l1.2,2.1l1.2,2.1l-2.5,4.3h-5.2l-2.5-4.3l1.2-2.1L-198.5,493.2z M-191.8,492.2l2.5-4.3h5l2.5,4.3
				l-1.2,2.1l-1.2,2.1h-5.2l-1.2-2.1L-191.8,492.2z M-181.4,495.4l1.2-2.1h5l1.2,2.1l1.2,2.1l-1.2,2.1l-1.2,2.1h-5.1l-2.5-4.3
				L-181.4,495.4z M-173.4,492.2l1.2-2.1l1.2-2.1h4.8l1.2,2.1l1.2,2.1l-1.2,2.1l-1.2,2.1h-5l-1.2-2.1L-173.4,492.2z M-163,495.4
				l1.2-2.1h5l1.2,2.1l1.2,2.1l-1.2,2.1l-1.2,2.1h-5.1l-1.2-2.1l-1.2-2.1L-163,495.4z M-155,492.2l1.2-2.1l1.2-2.1h5l1.2,2.1
				l1.2,2.1l-1.2,2.1l-1.2,2.1h-5.1l-1.2-2.1L-155,492.2z M-144.6,495.4l1.2-2.1h4.9l1.2,2.1l1.2,2.1l-1.2,2.1l-1.2,2.1h-4.9
				l-1.2-2.1l-1.2-2.1L-144.6,495.4z M-136.6,492.2l1.2-2.1l1.2-2.1h5l2.5,4.3l-1.2,2.1l-1.2,2.1h-5l-1.2-2.1L-136.6,492.2z
				 M-126.3,495.4l1.2-2.1h5l1.2,2.1l1.2,2.1l-1.2,2.1l-1.2,2.1h-4.9l-2.5-4.3L-126.3,495.4z M-118.3,492.2l1.2-2.1l1.2-2.1h5
				l1.2,2.1l1.2,2.1l-1.2,2.1l-1.2,2.1h-4.9l-1.2-2.1L-118.3,492.2z M-107.9,495.4l1.2-2.1h5l1.2,2.1l1.2,2.1l-1.2,2.1l-1.2,2.1
				h-4.8l-1.2-2.1l-1.2-2.1L-107.9,495.4z M-99.9,492.2l1.2-2.1l1.2-2.1h4.9l1.2,2.1l1.2,2.1l-1.2,2.1l-1.2,2.1h-4.8l-1.2-2.1
				L-99.9,492.2z M-89.5,495.4l1.2-2.1h5.3l1.2,2.1l1.2,2.1l-1.2,2.1l-1.2,2.1h-5l-1.2-2.1l-1.2-2.1L-89.5,495.4z M-81.5,492.2
				l1.2-2.1l1.2-2.1h4.9l1.2,2.1l1.2,2.1l-1.2,2.1l-1.2,2.1h-4.8l-1.2-2.1L-81.5,492.2z M-71.1,495.4l1.2-2.1h5l1.2,2.1l1.2,2.1
				l-1.2,2.1l-1.2,2.1h-4.6l-1.2-2.1l-1.2-2.1L-71.1,495.4z M-63.1,492.2l1.2-2.1l1.2-2.1h4.9l1.2,2.1l1.2,2.1l-1.2,2.1l-1.2,2.1
				h-4.6l-1.2-2.1L-63.1,492.2z M-52.8,495.4l1.2-2.1h5l1.2,2.1l1.2,2.1l-1.2,2.1l-1.2,2.1h-4.5l-1.2-2.1l-1.2-2.1L-52.8,495.4z
				 M-46.5,491.2h-4.6l-1.2-2.1l-1.2-2.1l1.2-2.1l1.2-2.1h5l1.2,2.1l1.2,2.1l-1.2,2.1L-46.5,491.2z M-46.5,480.6h-4.6l-1.2-2.1
				l-1.2-2.1l1.2-2.1l1.2-2.1h5l1.2,2.1l1.2,2.1l-1.2,2.1L-46.5,480.6z M-46.5,469.9h-4.6l-1.2-2.1l-1.2-2.1l1.2-2.1l1.2-2.1h5
				l1.2,2.1l1.2,2.1l-1.2,2.1L-46.5,469.9z M-46.5,459.3h-4.6l-1.2-2.1l-1.2-2.1l1.2-2.1l1.2-2.1h5l1.2,2.1l1.2,2.1l-1.2,2.1
				L-46.5,459.3z M-46.5,448.6h-4.6l-1.2-2.1l-1.2-2.1l1.2-2.1l1.2-2.1h5l1.2,2.1l1.2,2.1l-1.2,2.1L-46.5,448.6z M-46.5,437.9h-4.6
				l-1.2-2.1l-1.2-2.1l1.2-2.1l1.2-2.1h5l1.2,2.1l1.2,2.1l-1.2,2.1L-46.5,437.9z M-46.5,427.3h-4.6l-1.2-2.1l-1.2-2.1l1.2-2.1
				l1.2-2.1h5l1.2,2.1l1.2,2.1l-1.2,2.1L-46.5,427.3z M-46.5,416.6h-4.6l-1.2-2.1l-1.2-2.1l1.2-2.1l1.2-2.1h5l1.2,2.1l1.2,2.1
				l-1.2,2.1L-46.5,416.6z M-46.5,406h-4.6l-1.2-2.1l-1.2-2.1l1.2-2.1l1.2-2.1h5l1.2,2.1l1.2,2.1l-1.2,2.1L-46.5,406z M-46.5,395.3
				h-4.6l-1.2-2.1l-1.2-2.1l1.2-2.1l1.2-2.1h5l1.2,2.1l1.2,2.1l-1.2,2.1L-46.5,395.3z M-46.5,384.7h-4.6l-1.2-2.1l-1.2-2.1l1.2-2.1
				l1.2-2.1h5l1.2,2.1l1.2,2.1l-1.2,2.1L-46.5,384.7z M-46.5,374h-4.6l-1.2-2.1l-1.2-2.1l1.2-2.1l1.2-2.1h5l1.2,2.1l1.2,2.1
				l-1.2,2.1L-46.5,374z M-46.5,363.4h-4.6l-1.2-2.1l-1.2-2.1l1.2-2.1l1.2-2.1h5l1.2,2.1l1.2,2.1l-1.2,2.1L-46.5,363.4z
				 M-46.5,352.7h-4.6l-1.2-2.1l-1.2-2.1l1.2-2.1l1.2-2.1h5l1.2,2.1l1.2,2.1l-1.2,2.1L-46.5,352.7z M-60.3,328.1h4.9l2.5,4.3
				l-1.2,2.1l-1.2,2.1h-4.9l-1.2-2.1l-1.2-2.1L-60.3,328.1z M-69.6,333.4h5l1.2,2.1l1.2,2.1l-1.2,2.1l-1.2,2.1h-5l-1.2-2.1l-1.2-2.1
				l1.2-2.1L-69.6,333.4z M-78.9,328.1h4.9l2.5,4.3l-1.2,2.1l-1.2,2.1h-4.9l-1.2-2.1l-1.2-2.1L-78.9,328.1z M-88,333.4h5l1.2,2.1
				l1.2,2.1l-1.2,2.1l-1.2,2.1h-5l-1.2-2.1l-1.2-2.1l1.2-2.1L-88,333.4z M-97.3,328.1h4.9l2.5,4.3l-1.2,2.1l-1.2,2.1h-4.9l-1.2-2.1
				l-1.2-2.1L-97.3,328.1z M-106.5,333.4h4.9l1.2,2.1l1.2,2.1l-1.2,2.1l-1.2,2.1h-4.9l-1.2-2.1l-1.2-2.1l1.2-2.1L-106.5,333.4z
				 M-115.7,328.1h5l2.5,4.3l-1.2,2.1l-1.2,2.1h-4.9l-1.2-2.1l-1.2-2.1L-115.7,328.1z M-124.9,333.4h5l1.2,2.1l1.2,2.1l-1.2,2.1
				l-1.2,2.1h-5l-1.2-2.1l-1.2-2.1l1.2-2.1L-124.9,333.4z M-134.2,328.1h5l2.5,4.3l-1.2,2.1l-1.2,2.1h-4.9l-1.2-2.1l-1.2-2.1
				L-134.2,328.1z M-143.4,333.4h4.9l1.2,2.1l1.2,2.1l-1.2,2.1l-1.2,2.1h-4.9l-1.2-2.1l-1.2-2.1l1.2-2.1L-143.4,333.4z
				 M-152.6,328.1h5l2.5,4.3l-1.2,2.1l-1.2,2.1h-4.9l-1.2-2.1l-1.2-2.1L-152.6,328.1z M-161.9,333.4h5l1.2,2.1l1.2,2.1l-1.2,2.1
				l-1.2,2.1h-5l-1.2-2.1l-1.2-2.1l1.2-2.1L-161.9,333.4z M-171.1,328.1h5l2.5,4.3l-1.2,2.1l-1.2,2.1h-5l-1.2-2.1l-1.2-2.1
				L-171.1,328.1z M-180.3,333.4h5l1.2,2.1l1.2,2.1l-1.2,2.1l-1.2,2.1h-5l-1.2-2.1l-1.2-2.1l1.2-2.1L-180.3,333.4z M-189.6,328.1h5
				l2.5,4.3l-1.2,2.1l-1.2,2.1h-4.9l-1.2-2.1l-1.2-2.1L-189.6,328.1z M-198.8,333.4h5l1.2,2.1l1.2,2.1l-1.2,2.1l-1.2,2.1h-5
				l-1.2-2.1l-1.2-2.1l1.2-2.1L-198.8,333.4z M-210.5,332.4l2.5-4.3h5l2.5,4.3l-1.2,2.1l-1.2,2.1h-4.9L-210.5,332.4z M-210.5,343
				l2.5-4.3h5l1.2,2.1l1.2,2.1l-1.2,2.1l-1.2,2.1h-5L-210.5,343z M-210.5,353.7l2.5-4.3h5l1.2,2.1l1.2,2.1l-1.2,2.1l-1.2,2.1h-5
				L-210.5,353.7z M-210.5,364.3l2.5-4.3h5l1.2,2.1l1.2,2.1l-1.2,2.1l-1.2,2.1h-5L-210.5,364.3z M-210.5,375l2.5-4.3h5l1.2,2.1
				l1.2,2.1l-1.2,2.1l-1.2,2.1h-5L-210.5,375z M-210.5,385.6l2.5-4.3h5l1.2,2.1l1.2,2.1l-1.2,2.1l-1.2,2.1h-5L-210.5,385.6z
				 M-210.5,396.3l2.5-4.3h5l1.2,2.1l1.2,2.1l-1.2,2.1l-1.2,2.1h-5L-210.5,396.3z M-210.5,406.9l2.5-4.3h5l1.2,2.1l1.2,2.1l-1.2,2.1
				l-1.2,2.1h-5L-210.5,406.9z M-210.5,417.6l2.5-4.3h5l1.2,2.1l1.2,2.1l-1.2,2.1l-1.2,2.1h-5L-210.5,417.6z M-210.5,428.2l2.5-4.3
				h5l1.2,2.1l1.2,2.1l-2.5,4.3h-5L-210.5,428.2z M-210.5,438.9l2.5-4.2h5l1.2,2.1l1.2,2.1l-2.5,4.3h-5L-210.5,438.9z M-210.5,449.6
				l2.5-4.3h5l1.2,2.1l1.2,2.1l-1.2,2.1l-1.2,2.1h-5L-210.5,449.6z M-210.5,460.2l2.5-4.2h5l2.5,4.3l-1.2,2.1l-1.2,2.1h-4.9
				L-210.5,460.2z M-210.5,470.9l2.5-4.2h5l2.5,4.3l-1.2,2.1l-1.2,2.1h-4.9L-210.5,470.9z M-210.5,481.5l2.5-4.2h5l1.2,2.1l1.2,2.1
				l-1.2,2.1l-1.2,2.1h-5L-210.5,481.5z M-210.5,492.2l2.5-4.2h5l2.5,4.3l-1.2,2.1l-1.2,2.1h-4.9L-210.5,492.2z M-203.1,507.1h-5
				l-2.5-4.2l2.5-4.3h5l2.5,4.3l-1.2,2.1L-203.1,507.1z M-193.8,512.5h-4.9l-2.5-4.3l1.2-2.1l1.2-2.1h5l1.2,2.1l1.2,2.1
				L-193.8,512.5z M-184.6,507.1h-4.9l-1.2-2.1l-1.2-2.1l2.5-4.3h5l2.5,4.3l-1.2,2.1L-184.6,507.1z M-175.4,512.5h-4.9l-2.5-4.3
				l1.2-2.1l1.2-2.1h5l1.2,2.1l1.2,2.1L-175.4,512.5z M-166.1,507.2h-5l-1.2-2.1l-1.2-2.1l1.2-2.1l1.2-2.1h5l1.2,2.1l1.2,2.1
				l-1.2,2.1L-166.1,507.2z M-156.9,512.5h-5.1l-2.5-4.3l1.2-2.1l1.2-2.1h5l1.2,2.1l1.2,2.1L-156.9,512.5z M-147.6,507.2h-5
				l-1.2-2.1l-1.2-2.1l1.2-2.1l1.2-2.1h5l1.2,2.1l1.2,2.1l-1.2,2.1L-147.6,507.2z M-138.4,512.5h-5l-2.5-4.3l1.2-2.1l1.2-2.1h4.9
				l1.2,2.1l1.2,2.1L-138.4,512.5z M-129.2,507.2h-5l-1.2-2.1l-1.2-2.1l1.2-2.1l1.2-2.1h5l2.5,4.3l-1.2,2.1L-129.2,507.2z
				 M-120,512.5h-5l-2.5-4.3l1.2-2.1l1.2-2.1h5l1.2,2.1l1.2,2.1L-120,512.5z M-110.7,507.2h-5l-1.2-2.1l-1.2-2.1l1.2-2.1l1.2-2.1h5
				l1.2,2.1l1.2,2.1l-1.2,2.1L-110.7,507.2z M-101.5,512.5h-5l-2.5-4.3l1.2-2.1l1.2-2.1h4.9l1.2,2.1l1.2,2.1L-101.5,512.5z
				 M-92.3,507.2h-5l-1.2-2.1l-1.2-2.1l1.2-2.1l1.2-2.1h4.9l1.2,2.1l1.2,2.1l-1.2,2.1L-92.3,507.2z M-83,512.5h-5l-2.5-4.3l1.2-2.1
				l1.2-2.1h5l1.2,2.1l1.2,2.1L-83,512.5z M-73.8,507.2h-5.1l-1.2-2.1l-1.2-2.1l1.2-2.1l1.2-2.1h4.9l1.2,2.1l1.2,2.1l-1.2,2.1
				L-73.8,507.2z M-64.5,512.5h-5l-2.5-4.3l1.2-2.1l1.2-2.1h5l1.2,2.1l1.2,2.1L-64.5,512.5z M-55.3,507.2h-5l-1.2-2.1l-1.2-2.1
				l1.2-2.1l1.2-2.1h4.9l1.2,2.1l1.2,2.1l-1.2,2.1L-55.3,507.2z M-46.1,512.5h-5l-2.5-4.3l1.2-2.1l1.2-2.1h5l1.2,2.1l1.2,2.1
				L-46.1,512.5z M-34.4,502.9l-2.6,4.3h-5l-1.2-2.1l-1.2-2.1l1.2-2.1l1.2-2.1h5L-34.4,502.9z M-34.4,492.2l-2.6,4.3h-5l-1.2-2.1
				l-1.2-2.1l1.2-2.1l1.2-2.1h5L-34.4,492.2z M-34.4,481.6l-2.6,4.3h-5l-1.2-2.1l-1.2-2.1l1.2-2.1l1.2-2.1h5L-34.4,481.6z
				 M-34.4,470.9l-2.6,4.3h-5l-1.2-2.1l-1.2-2.1l1.2-2.1l1.2-2.1h5L-34.4,470.9z M-34.4,460.3l-2.6,4.3h-5l-1.2-2.1l-1.2-2.1
				l1.2-2.1l1.2-2.1h5L-34.4,460.3z M-34.4,449.6l-2.6,4.3h-5l-1.2-2.1l-1.2-2.1l1.2-2.1l1.2-2.1h5L-34.4,449.6z M-34.4,439
				l-2.6,4.2h-5l-1.2-2.1l-1.2-2.1l1.2-2.1l1.2-2.1h5L-34.4,439z M-34.4,428.3l-2.6,4.3h-5l-1.2-2.1l-1.2-2.1l1.2-2.1l1.2-2.1h5
				L-34.4,428.3z M-34.4,417.7l-2.6,4.2h-5l-1.2-2.1l-1.2-2.1l1.2-2.1l1.2-2.1h5L-34.4,417.7z M-34.4,407l-2.6,4.2h-5l-1.2-2.1
				l-1.2-2.1l1.2-2.1l1.2-2.1h5L-34.4,407z M-34.4,396.4l-2.6,4.2h-5l-1.2-2.1l-1.2-2.1l1.2-2.1l1.2-2.1h5L-34.4,396.4z
				 M-34.4,385.7l-2.6,4.2h-5l-1.2-2.1l-1.2-2.1l1.2-2.1l1.2-2.1h5L-34.4,385.7z M-34.4,375.1l-2.6,4.2h-5l-1.2-2.1l-1.2-2.1
				l1.2-2.1l1.2-2.1h5L-34.4,375.1z M-34.4,364.4l-2.6,4.2h-5l-1.2-2.1l-1.2-2.1l1.2-2.1l1.2-2.1h5L-34.4,364.4z M-34.4,353.8
				l-2.6,4.2h-5l-1.2-2.1l-1.2-2.1l1.2-2.1l1.2-2.1h5L-34.4,353.8z M-36.9,347.3h-5l-1.2-2.1l-1.2-2.1l1.2-2.1l1.2-2.1h5l2.5,4.3
				L-36.9,347.3z"/>
		</g>
	</g>
</g>
<g transform="translate(0,-952.36218)">
	<path d="M-129.2,1361.1h-2.6c-0.2,0-0.3,0-0.4,0h-0.1c-4.9,0.2-8.8,4.3-8.8,9.2c0,0.7,0.2,1.3,0.3,1.9c-4.8,1.5-8.3,6-8.3,11.3
		c0,1.5,0.4,3,0.9,4.3c-2.5,2.2-4.2,5.4-4.2,9c0,4.6,2.7,8.5,6.5,10.5c0.4,4.3,4.1,7.8,8.5,7.8c0.4,0,0.8-0.1,1.2-0.2
		c0.7,2.5,2.9,4.4,5.6,4.4c3,0,5.5-2.2,5.9-5.1c0-0.1,0-0.2,0.1-0.4v0c0-0.1,0-0.3,0-0.4v-47.6
		C-124.6,1363.2-126.7,1361.1-129.2,1361.1z M-98.3,1387.9c0.5-1.3,0.9-2.8,0.9-4.3c0-5.3-3.5-9.8-8.3-11.3c0.1-0.6,0.3-1.2,0.3-1.9
		c0-4.9-3.9-9-8.8-9.2h-0.1c-0.1,0-0.2,0-0.4,0h-2.6c-2.5,0-4.6,2.1-4.6,4.6v47.6c0,0.2,0,0.3,0,0.4v0c0,0.2,0,0.3,0.1,0.4
		c0.4,2.9,2.9,5.1,5.9,5.1c2.7,0,4.9-1.9,5.6-4.4c0.4,0.1,0.8,0.2,1.2,0.2c4.5,0,8.1-3.4,8.5-7.8c3.8-2,6.5-5.9,6.5-10.5
		C-94.1,1393.3-95.8,1390.1-98.3,1387.9z M-102.4,1405.4c-0.5,0.2-0.8,0.7-0.8,1.2c0,3.3-2.7,5.9-6,5.9c-0.6,0-1.2-0.1-1.8-0.3
		c-0.7-0.2-1.4,0.2-1.6,0.9c0,0.1-0.1,0.2-0.1,0.4c0,0,0,0.1,0,0.2v0c0,0,0,0.1,0,0.2c-0.2,1.6-1.6,2.9-3.3,2.9
		c-1.7,0-3-1.2-3.3-2.9c0-0.1,0-0.2,0-0.2v0c0-0.1,0-0.1,0-0.2v-47.6c0-1.1,0.9-2,2-2h2.6c0,0,0.1,0,0.2,0c0,0,0,0,0.1,0
		c3.5,0.1,6.3,3,6.3,6.6c0,0.8-0.2,1.6-0.5,2.4c-0.3,0.7,0.1,1.5,0.8,1.7c0.1,0,0.1,0.1,0.2,0.1c4.2,0.8,7.4,4.6,7.4,9.1
		c0,1.5-0.3,2.8-0.9,4.1c-0.3,0.6-0.1,1.3,0.4,1.7c2.3,1.7,3.8,4.4,3.8,7.5C-96.8,1400.7-99.1,1403.9-102.4,1405.4z"/>
	<path class="st1" d="M-96.8,1396.9c0,3.8-2.3,7.1-5.6,8.5c-0.5,0.2-0.8,0.7-0.8,1.2c0,3.3-2.7,5.9-6,5.9c-0.6,0-1.2-0.1-1.8-0.3
		c-0.7-0.2-1.4,0.2-1.6,0.9c0,0.1-0.1,0.2-0.1,0.4c0,0,0,0.1,0,0.2v0c0,0,0,0.1,0,0.2c-0.2,1.6-1.6,2.9-3.3,2.9
		c-1.7,0-3-1.2-3.3-2.9c0-0.1,0-0.2,0-0.2v0c0-0.1,0-0.1,0-0.2v-47.6c0-1.1,0.9-2,2-2h2.6c0,0,0.1,0,0.2,0c0,0,0,0,0.1,0
		c3.5,0.1,6.3,3,6.3,6.6c0,0.8-0.2,1.6-0.5,2.4c-0.3,0.7,0.1,1.5,0.8,1.7c0.1,0,0.1,0.1,0.2,0.1c4.2,0.8,7.4,4.6,7.4,9.1
		c0,1.5-0.3,2.8-0.9,4.1c-0.3,0.6-0.1,1.3,0.4,1.7C-98.3,1391-96.8,1393.8-96.8,1396.9z"/>
	<path class="st1" d="M-127.2,1365.8v47.6c0,0,0,0.1,0,0.2v0c0,0,0,0.1,0,0.2c-0.2,1.6-1.6,2.9-3.3,2.9c-1.7,0-3-1.2-3.3-2.9
		c0-0.1,0-0.2,0-0.2v0c0-0.1,0-0.1,0-0.2c0-0.7-0.6-1.3-1.3-1.3c-0.1,0-0.3,0-0.4,0.1c-0.6,0.2-1.2,0.3-1.8,0.3
		c-3.3,0-5.9-2.6-6-5.9c0-0.5-0.3-1-0.8-1.2c-3.3-1.4-5.6-4.7-5.6-8.5c0-3.1,1.5-5.8,3.8-7.5c0.5-0.4,0.7-1.1,0.4-1.7
		c-0.6-1.2-1-2.6-1-4.1c0-4.5,3.2-8.2,7.4-9.1c0.7-0.2,1.2-0.8,1-1.6c0-0.1,0-0.1-0.1-0.2c-0.3-0.8-0.5-1.5-0.5-2.4
		c0-3.6,2.8-6.4,6.3-6.6c0,0,0,0,0.1,0c0.1,0,0.2,0,0.2,0h2.6C-128.1,1363.8-127.2,1364.7-127.2,1365.8z"/>
</g>
</svg>
