<?xml version="1.0" encoding="utf-8"?>
<!-- Generator: Adobe Illustrator 19.0.0, SVG Export Plug-In . SVG Version: 6.00 Build 0)  -->
<svg version="1.1" id="Capa_1" xmlns="http://www.w3.org/2000/svg" xmlns:xlink="http://www.w3.org/1999/xlink" x="0px" y="0px"
	 viewBox="-210 325.9 173.5 190" style="enable-background:new -210 325.9 173.5 190;" xml:space="preserve">
<g>
	<path d="M-132.5,420.9c1,1.9,2.7,3.6,4.8,4.8h0c1.5,0.8,3.3,1.4,5.2,1.4c1.9,0,3.7-0.5,5.2-1.4h0c2.1-1.2,3.8-2.9,4.8-4.8h37.1
		v-2.2v-3.3v-1h-37.4h-3.3c-1.2,0-1.5,0.8-1.7,1.3c-0.1,0.5-0.4,1.4-0.7,1.8c-0.8,1.3-2.3,1.9-4.1,1.9c-1.8,0-3.3-0.7-4.1-1.9
		c-0.3-0.4-0.6-1.3-0.7-1.8c-0.1-0.5-0.4-1.3-1.7-1.3h-3.3h-36.6h-4v1v3.3v2.2h4H-132.5z"/>
	<path d="M-123.3,349c-39.7,0-71.9,32.2-71.9,71.9s32.2,71.9,71.9,71.9s71.9-32.2,71.9-71.9S-83.5,349-123.3,349z M-123.1,488.7
		c-37.5,0-67.9-30.4-67.9-67.9c0-37.5,30.4-67.9,67.9-67.9c37.5,0,67.9,30.4,67.9,67.9C-55.2,458.2-85.6,488.7-123.1,488.7z"/>
	<path d="M-109.9,425.7c-3.1,3.2-7.8,6.2-12.6,6.2c-4.8,0-9.5-3-12.6-6.2h-51.8c2.5,33,30.1,59,63.7,59c33.6,0,61.2-26,63.7-59
		H-109.9z"/>
</g>
<g>
	<path d="M-123,377.1c20.6,0,37,16.8,37,37.4h6.3l8.8-12.2l-13-6.7l2.9-14.7l-15.1-0.4l-3.8-14.3l-13.5,5.9l-9.7-11.4l-10.1,11.4
		l-13.5-5.9l-3.8,14.3l-14.7,0.4l2.5,14.7l-13,6.7l8.8,12.2h6.3C-160.5,393.9-143.7,377.1-123,377.1z"/>
</g>
<g>
	<path d="M-103.8,398.2c-11.2,15-27.7,15-38.8,0C-130.1,384-116.4,384-103.8,398.2z M-107.8,398.4c-9.8-10.3-21.1-10.3-30.9,0
		C-130,409.1-116.5,409.1-107.8,398.4z"/>
	<path d="M-123.3,391.7c3.8,0,6.8,3.1,6.8,6.8c0,3.7-3.1,6.8-6.8,6.8s-6.8-3.1-6.8-6.8C-130.1,394.8-127,391.7-123.3,391.7z
		 M-123.3,393.7c-2.7,0-4.9,2.1-4.9,4.9c0,2.7,2.1,4.8,4.9,4.8c2.7,0,4.9-2.1,4.9-4.8C-118.4,395.8-120.6,393.7-123.3,393.7z"/>
	<path d="M-123.3,395.6c1.6,0,2.9,1.3,2.9,2.9c0,1.6-1.3,2.9-2.9,2.9s-2.9-1.3-2.9-2.9C-126.2,396.9-124.9,395.6-123.3,395.6z"/>
</g>
</svg>
