<?xml version="1.0" encoding="utf-8"?>
<!-- Generator: Adobe Illustrator 19.0.0, SVG Export Plug-In . SVG Version: 6.00 Build 0)  -->
<svg version="1.1" id="Capa_1" xmlns="http://www.w3.org/2000/svg" xmlns:xlink="http://www.w3.org/1999/xlink" x="0px" y="0px"
	 viewBox="-210 325.9 173.5 190" style="enable-background:new -210 325.9 173.5 190;" xml:space="preserve">
<g id="XMLID_100_">
	<path d="M-45.1,494.1h-156.3c-2,0-3.8-1-4.8-2.7s-1-3.8,0-5.5l78.1-135.4c1-1.7,2.8-2.8,4.8-2.8l0,0c2,0,3.8,1,4.8,2.7l78.2,135.4
		c1,1.7,1,3.8,0,5.5C-41.3,493-43.1,494.1-45.1,494.1z M-191.9,483.1h137.3l-68.7-118.9L-191.9,483.1z"/>
</g>
<g>
	<path d="M-119.9,429.3c0.9,0,1.7-0.7,1.7-1.7s-0.7-1.7-1.7-1.7s-1.7,0.7-1.7,1.7S-120.8,429.3-119.9,429.3z"/>
	<path d="M-126.6,425.9c-0.9,0-1.7,0.7-1.7,1.7s0.7,1.7,1.7,1.7s1.7-0.7,1.7-1.7S-125.7,425.9-126.6,425.9z"/>
	<path d="M-132.7,424.5c1.4,0,2.1-0.5,4-1c2.3-0.8,3.8-2.9,3.8-5.2c0-3-2.5-5.5-5.5-5.5h-2.2c-3,0-5.5,2.5-5.5,5.5v0.7
		C-138.2,422.1-135.5,424.5-132.7,424.5z"/>
	<path d="M-117.8,423.4l2.2,0.7c3.6,1.2,7.3-1.5,7.3-5.2v-0.7c0-3-2.5-5.5-5.5-5.5h-2.2c-3,0-5.5,2.5-5.5,5.5
		C-121.6,420.6-120.1,422.7-117.8,423.4z"/>
	<path d="M-95.1,456.1c3.7,0,6.6-3,6.6-6.6c0-2.4-1.3-4.6-3.4-5.8c0.5-3.9-2.6-7.5-6.6-7.5c-4.4,0-7.5,4.3-6.4,8.2l-18.5,7.9
		l-18.5-7.9c1.1-4.2-2.1-8.2-6.4-8.2c-4,0-7.1,3.6-6.6,7.5c-5.2,2.9-4.3,11.1,2,12.3c2.3,0.4,5-0.3,6.6-2.6l10.2,4.4l-10.2,4.4
		c-1.2-1.7-3.2-2.7-5.3-2.7c-3.7,0-6.6,3-6.6,6.6c0,2.4,1.3,4.6,3.4,5.8c-0.5,3.9,2.6,7.5,6.6,7.5c4.4,0,7.5-4.2,6.4-8.2l18.5-7.9
		l18.5,7.9c-1.1,4.2,2.1,8.2,6.4,8.2c4,0,7.1-3.6,6.6-7.5c5.2-2.9,4.3-11.1-2-12.3c-2.3-0.4-5,0.3-6.6,2.6l-10.2-4.4l10.2-4.4
		C-99.2,455.1-97.2,456.1-95.1,456.1z M-144.5,468.7c-0.9,0.4-1.3,1.5-0.8,2.4c1.4,2.4-0.4,4.9-2.8,4.9c-2.3,0-4-2.3-3.1-4.5
		c0.4-0.9-0.1-2-1.1-2.2c-1.4-0.4-2.5-1.7-2.5-3.2c0-1.8,1.5-3.3,3.3-3.3c1.4,0,2.6,0.8,3.1,2.1c0.3,0.9,1.3,1.3,2.2,0.9l44.2-18.9
		c0.9-0.4,1.3-1.5,0.8-2.4c-1.4-2.4,0.4-4.9,2.8-4.9c2.3,0,4,2.3,3.1,4.5c-0.4,0.9,0.1,2,1.1,2.2c1.4,0.4,2.5,1.7,2.5,3.2
		c0,1.8-1.5,3.3-3.3,3.3c-1.4,0-2.6-0.8-3.1-2.1c-0.3-0.9-1.3-1.3-2.2-0.9l-15.1,6.5L-144.5,468.7z"/>
	<path d="M-136.3,432.3l1.1,0c0.2,0.3,0.4,0.7,0.4,1v5.2c0,2.7,2.2,5,5,5h13.3c2.7,0,5-2.2,5-5v-5.3c0-0.3,0.1-0.6,0.3-0.9l1.3,0
		c4.2,1.1,8.3-2,8.3-6.4c0-1.5-0.5-2.9-1.4-4c0.9-2.7,1.4-6.6,1.4-9.2c0-11.9-9.6-18.2-21.6-18.2c-11.9,0-21.6,6.3-21.6,18.2
		c0,2.6,0.5,6.5,1.4,9.2c-0.9,1.2-1.4,2.6-1.4,4C-144.8,430.3-140.5,433.5-136.3,432.3z M-140,421.6c-0.9-2.2-1.5-6.2-1.5-8.9
		c0-11,9.4-14.9,18.2-14.9c8.8,0,18.2,3.9,18.2,14.9c0,2.7-0.6,6.7-1.5,8.9c-0.3,0.7-0.1,1.4,0.4,1.9c0.7,0.6,1.1,1.5,1.1,2.4
		c0,2.2-2.2,3.8-4.3,3.1c-0.2,0-0.3-0.1-0.5-0.1c-1.8,0.1-2.3-0.2-3,0.3c-1.4,0.9-2.2,2.3-2.2,3.9v5.3c0,0.9-0.7,1.7-1.7,1.7h-1.7
		v-6c0-0.9-0.7-1.7-1.7-1.7c-0.9,0-1.7,0.7-1.7,1.7v6h-3.3v-6c0-0.9-0.7-1.7-1.7-1.7c-0.9,0-1.7,0.7-1.7,1.7v6h-1.7
		c-0.9,0-1.7-0.7-1.7-1.7v-5.2c0-2.5-1.9-4.4-3.1-4.4c0,0-2,0-2,0c-0.7,0-1.2,0.6-2.6,0.1c0,0,0,0-0.1,0c-1.3-0.5-2.2-1.7-2.2-3.1
		c0-0.9,0.4-1.8,1.1-2.4C-139.9,423-139.7,422.3-140,421.6z"/>
</g>
</svg>
