<?xml version="1.0" encoding="utf-8"?>
<!-- Generator: Adobe Illustrator 19.0.0, SVG Export Plug-In . SVG Version: 6.00 Build 0)  -->
<svg version="1.1" id="Capa_1" xmlns="http://www.w3.org/2000/svg" xmlns:xlink="http://www.w3.org/1999/xlink" x="0px" y="0px"
	 viewBox="-210 325.9 173.5 190" style="enable-background:new -210 325.9 173.5 190;" xml:space="preserve">
<g id="XMLID_100_">
	<path d="M-45.1,494.1h-156.3c-2,0-3.8-1-4.8-2.7s-1-3.8,0-5.5l78.1-135.4c1-1.7,2.8-2.8,4.8-2.8l0,0c2,0,3.8,1,4.8,2.7l78.2,135.4
		c1,1.7,1,3.8,0,5.5C-41.3,493-43.1,494.1-45.1,494.1z M-191.9,483.1h137.3l-68.7-118.9L-191.9,483.1z"/>
</g>
<path d="M-123.3,408.3c-19.7,0-35.6,15.9-35.6,35.6s15.9,35.6,35.6,35.6s35.6-15.9,35.6-35.6S-103.5,408.3-123.3,408.3z
	 M-117.7,475.8v-12.5h4.2c1.7,0,2.2-0.9,0.9-2.2l-8.4-8.3c-1.3-1.3-3.3-1.3-4.6,0l-8.4,8.3c-1.3,1.3-0.9,2.2,0.9,2.2h3.9v12.4
	c-13.1-2.4-23.6-12.8-26-26h12.4v3.9c0,1.8,0.9,2.2,2.2,0.9l8.3-8.4c1.3-1.3,1.2-3.3-0.1-4.6l-8.3-8.4c-1.3-1.3-2.2-0.9-2.2,0.9v4.2
	h-12.4c2.3-13.3,12.7-23.9,26-26.4v12.4h-3.9c-1.8,0-2.2,0.9-0.9,2.2l8.4,8.3c1.3,1.3,3.3,1.2,4.6-0.1l8.4-8.3
	c1.3-1.3,0.9-2.2-0.9-2.2h-4.2V412c13.5,2.3,24.1,12.9,26.4,26.4h-12.5v-4.2c0-1.7-0.9-2.2-2.2-0.9l-8.3,8.4c-1.3,1.3-1.3,3.3,0,4.6
	l8.3,8.4c1.3,1.3,2.2,0.9,2.2-0.9v-3.9h12.4C-93.9,463-104.4,473.5-117.7,475.8z"/>
</svg>
