<?xml version="1.0" encoding="utf-8"?>
<!-- Generator: Adobe Illustrator 19.0.0, SVG Export Plug-In . SVG Version: 6.00 Build 0)  -->
<svg version="1.1" id="Capa_1" xmlns="http://www.w3.org/2000/svg" xmlns:xlink="http://www.w3.org/1999/xlink" x="0px" y="0px"
	 viewBox="-210 325.9 173.5 190" style="enable-background:new -210 325.9 173.5 190;" xml:space="preserve">
<g>
	<rect x="-133.7" y="416.4" width="5.8" height="2.2"/>
	<rect x="-133.7" y="413.1" width="5.8" height="2"/>
	<rect x="-137.7" y="423.8" width="6.2" height="2.2"/>
	<rect x="-141.3" y="413.1" width="5.8" height="2"/>
	<rect x="-141.3" y="416.4" width="5.8" height="2.2"/>
	<rect x="-116.1" y="417.8" width="9.9" height="1.8"/>
	<path d="M-45.8,368v-19.7L-70.3,369c-13.5,11.4-25.1,21.3-26,22l-1.4,1.2c-1.8-1.6-3.7-3-5.7-4.2c1.3-1.6,8.2-9.9,16.5-19.7
		l16.7-19.8l-8.8-0.1c-6.7-0.1-8.9,0-9.3,0.4c-0.2,0.3-5.3,8.5-11.2,18.4c-5.1,8.5-9.4,15.6-10.6,17.6c-2.4-0.9-4.8-1.5-7.4-1.9
		c0.5-3.9,4.5-31.8,4.9-33.6l0.2-1h-11h-11l0.2,1c0.3,1.7,4.4,29.6,4.9,33.6c-2.5,0.4-5,1-7.4,1.9c-1.2-1.9-5.5-9.1-10.6-17.6
		c-5.9-9.9-11-18.2-11.2-18.4c-0.3-0.4-2.5-0.4-9.3-0.4l-8.8,0.1l16.7,19.8c8.3,9.8,15.2,18,16.5,19.7c-2,1.2-4,2.7-5.7,4.2
		l-1.4-1.2c-0.8-0.7-12.5-10.6-26-22l-24.5-20.7V368c3.1,2,6.3,4,9.6,6l37.3,23.4l-1,1.3c-0.6,0.7-1.5,2.1-2,3
		c-0.6,1-1.2,1.7-1.4,1.6c-0.2-0.1-16.6-7.2-36.5-15.8c-2-0.9-4-1.8-6-2.6v13.6l4.4,1.3c33.7,9.8,35.7,10.4,35.5,11.1
		c-0.1,0.4-0.4,1.9-0.7,3.4c-0.3,1.5-0.6,2.7-0.7,2.8c-0.1,0.1-15.6-0.9-34.4-2.2c-1.4-0.1-2.8-0.2-4.1-0.3v12.5
		c1.3-0.1,2.6-0.2,3.9-0.3c19-1.3,34.5-2.3,34.6-2.2c0.1,0.1,0.4,1.4,0.7,2.8c0.3,1.5,0.6,3,0.7,3.4c0.2,0.7-0.3,0.9-8.8,3.4
		c-4.5,1.3-17.8,5.2-31.1,9v13.5c1.9-0.8,3.9-1.7,5.9-2.6c19.9-8.6,36.3-15.7,36.5-15.7c0.2,0,1.3,1.3,2.4,2.9l2,3l-38.7,24.2
		c-2.8,1.8-5.5,3.5-8.2,5.1v19.7l24.5-20.7c13.5-11.4,25.2-21.3,26-22l1.4-1.2c1.8,1.6,3.7,3,5.7,4.2c-1.3,1.6-8.2,9.8-16.5,19.7
		l-16.7,19.8l8.8,0.1c6.8,0.1,8.9,0,9.3-0.4c0.2-0.3,5.3-8.5,11.2-18.4c5.1-8.5,9.4-15.7,10.6-17.6c2.4,0.9,4.8,1.5,7.4,1.9
		c-0.5,3.9-4.5,31.8-4.9,33.6l-0.2,1h11h11l-0.2-1c-0.3-1.7-4.4-29.6-4.9-33.6c2.5-0.4,5-1,7.4-1.9c1.2,1.9,5.5,9.1,10.6,17.6
		c5.9,9.9,11,18.2,11.2,18.4c0.3,0.4,2.5,0.4,9.3,0.4l8.8-0.1l-16.7-19.8c-8.3-9.8-15.2-18.1-16.5-19.7c2-1.2,4-2.7,5.7-4.2l1.4,1.2
		c0.8,0.7,12.5,10.6,26,22l24.5,20.7v-19.7c-2.6-1.7-5.4-3.4-8.2-5.1l-38.7-24.2l2-3c1.1-1.6,2.2-2.9,2.4-2.9
		c0.2,0,16.7,7.1,36.5,15.7c2,0.9,4,1.7,5.9,2.6v-13.5c-13.3-3.9-26.7-7.7-31.1-9c-8.4-2.4-9-2.7-8.8-3.4c0.1-0.4,0.4-2,0.7-3.4
		c0.3-1.5,0.6-2.7,0.7-2.8c0.1-0.1,15.7,0.9,34.6,2.2c1.3,0.1,2.6,0.2,3.9,0.3v-12.5c-1.4,0.1-2.8,0.2-4.1,0.3
		c-18.8,1.3-34.3,2.3-34.4,2.2c-0.1-0.1-0.4-1.4-0.7-2.8c-0.3-1.5-0.6-3-0.7-3.4c-0.2-0.7,1.8-1.3,35.5-11.1l4.4-1.3v-13.6
		c-2,0.8-4,1.7-6,2.6c-19.8,8.6-36.3,15.7-36.5,15.8c-0.2,0.1-0.9-0.6-1.4-1.6c-0.5-1-1.5-2.3-2-3l-1-1.3l37.3-23.4
		C-52.1,372-48.9,370-45.8,368z M-143.1,411.8L-143.1,411.8h1.8h13.4h1.8h0v8.7h0v0.2h-1.8v-0.5h-13.4c0,0,0,0,0,0c0,0,0,0,0,0v0.5
		h-1.8V411.8z M-142.9,432.1l-0.5-1.5l6.3-2.3l0.5,1.5L-142.9,432.1z M-126.2,432.1l-6.3-2.3l0.5-1.5l6.3,2.3L-126.2,432.1z
		 M-124.2,427.8L-124.2,427.8L-124.2,427.8l-18.1,0l-2.6,0v0h0V426h5.8v-2.2h-4.7v-1.5h4.7v-1.6h0c0.1-0.4,0.3-0.5,0.7-0.5
		c0.4,0,0.6,0.1,0.7,0.5h0v0.2c0,0.1,0,0.2,0,0.3v1.1h6.2v-1.5h0c0.1-0.5,0.2-0.7,0.7-0.7c0.5,0,0.7,0.2,0.7,0.7h0v0.2
		c0,0.1,0,0.2,0,0.2v1.1h4.7v0.5c0,0.1,0,0.2,0,0.3c0,0.1,0,0.2,0,0.3v0.4h-4.7v2.2h5.8v0.6c0,0.1,0,0.2,0,0.3V427.8z M-102.5,423.1
		v0.8v1v3.4c0,0.4-0.4,0.8-0.8,0.8h0h-0.1h-0.6h-3.1h0v0c-0.4,0-0.8-0.4-0.8-0.8c0-0.4,0.4-0.8,0.8-0.8h2.9v-3h-6.1v3.1
		c0,3.1,0,3.1-0.9,3.1c-0.9,0-0.9,0-0.9-3.1v-3.1h-5.8v2.4c0,0.7,0,1.1,0,1.3v0.9h-1.8v-5.9h0l0-0.1h7.7v-1c0-0.3,0-0.5-0.1-0.6
		h-3.9c0,0,0,0,0,0.1v0.4h-1.8v-4c0,0,0,0,0-0.1h0v-1.7h13.4v1.7h0v0.4h0v3.7h-0.7c0,0,0,0-0.1,0c0,0,0,0,0,0h-1v-0.5c0,0,0,0,0,0
		h-4c0,0.1,0,0.3,0,0.6v1l3.9,0L-102.5,423.1L-102.5,423.1L-102.5,423.1z M-101.6,413.4v1.8v2.2h-1.5v-2.2h-16.2v2.3h-1.6v-2.3v-1.8
		v-0.1h4.6l-3.5-2l0.8-1.3l4.1,2.3l-0.6,1h3.3v-3.6h1.9v3.6h3.5l-0.6-1l4.1-2.3l0.8,1.3l-3.5,2h4.5V413.4z"/>
</g>
</svg>
