<?xml version="1.0" encoding="utf-8"?>
<!-- Generator: Adobe Illustrator 19.0.0, SVG Export Plug-In . SVG Version: 6.00 Build 0)  -->
<svg version="1.1" id="Capa_1" xmlns="http://www.w3.org/2000/svg" xmlns:xlink="http://www.w3.org/1999/xlink" x="0px" y="0px"
	 viewBox="-210 325.9 173.5 190" style="enable-background:new -210 325.9 173.5 190;" xml:space="preserve">
<g id="XMLID_100_">
	<path d="M-45.1,494.1h-156.3c-2,0-3.8-1-4.8-2.7s-1-3.8,0-5.5l78.1-135.4c1-1.7,2.8-2.8,4.8-2.8l0,0c2,0,3.8,1,4.8,2.7l78.2,135.4
		c1,1.7,1,3.8,0,5.5C-41.3,493-43.1,494.1-45.1,494.1z M-191.9,483.1h137.3l-68.7-118.9L-191.9,483.1z"/>
</g>
<g>
	<path d="M-75.5,438.1l-13.9-14.5c-2.3-2.5-4.8-4.9-7.4-7.1c-0.9-0.7-1.8-1.4-2.8-2.1c-1.7-1.2-3.3-2.5-4.8-4
		c-0.5-0.5-0.9-0.9-1.4-1.4c-0.8-0.9-1.7-1.8-2.7-2.6c-2.6-2.1-5.7-3.6-8.9-4.6h-0.2h-0.1h-0.1c0,0-0.1,0.1-0.1,0.1l0,0l0,0
		c-2.3,2.5-4.8,4.8-7.4,6.9c-2.2,1.8-4.3,3.6-6.3,5.6c-1,1.1-2,2.3-3,3.4l-0.1,0.1l-1.3-0.6c-0.5-0.2-1-0.4-1.6-0.7
		c-2-0.7-3.8-1.9-5.3-3.4l0,0l0,0l-0.1-0.1h-0.1l0,0h-0.1h-0.1h-0.1h-0.1l0,0c-3.1,1.4-5.8,3.4-7.9,6c-0.6,0.7-1.1,1.4-1.5,2.1
		c-1.5,2.1-2.6,3.7-5.3,4.8c-0.7,0.4-1.3,0.9-1.9,1.5c-0.4,0.4-0.9,0.8-1.4,1.2c-0.9,0.5-1.7,1.1-2.3,1.8c-3.1,3.1-5.6,6.6-7.4,10.5
		c-0.1,0.2,0,0.5,0.2,0.7c0.1,0,0.1,0,0.2,0c0.2,0,0.4-0.1,0.4-0.3c1.8-3.8,4.3-7.3,7.2-10.3c0.6-0.7,1.3-1.2,2.1-1.6
		c0.6-0.4,1.1-0.8,1.6-1.4c0.5-0.5,1-0.9,1.6-1.3c3-1.2,4.2-3,5.8-5.2c0.4-0.6,0.9-1.3,1.5-2c1.9-2.2,4.2-4.1,6.8-5.3v1.4h-0.1
		c-2.8,1.4-4.6,4-6.4,6.5c-0.6,0.9-1.2,1.8-1.9,2.6c-0.8,1.1-1.8,2.1-2.7,3c-1.7,1.9-3.6,3.7-5.6,5.2l-0.8,0.5
		c-0.9,0.6-1.7,1.2-2.5,2c-0.5,0.6-0.9,1.2-1.3,1.9l-3.3,5.3l-0.2,0.1l-0.1,0.1c-0.2,0.5-0.4,1-0.8,1.4l-0.1,0.2
		c-0.2,0.2-0.4,0.5-0.5,0.8c-0.1,0.1-0.1,0.3-0.1,0.4c0,0.1-0.1,0.3-0.1,0.4c-0.2,0.2-0.2,0.5,0,0.7c0.1,0.1,0.2,0.1,0.3,0.2
		c0.1,0,0.3-0.1,0.4-0.2c0.2-0.2,0.3-0.5,0.4-0.8c0-0.1,0-0.2,0.1-0.3c0.1-0.2,0.2-0.4,0.4-0.5l0.1-0.2c0.4-0.4,0.7-1,0.9-1.5
		l3.5-5.6c0.4-0.6,0.8-1.2,1.2-1.7c0.7-0.7,1.5-1.3,2.3-1.8c0.3-0.2,0.6-0.4,0.8-0.6c2.1-1.6,4-3.3,5.8-5.3c0.9-1,1.9-2,2.8-3.1
		c0.7-0.8,1.3-1.7,1.9-2.6c1.7-2.4,3.3-4.6,5.6-5.9c0,1.2,0.1,2.4,0.1,3.6c-0.5,0.3-0.9,0.7-1.4,1c-1.5,1-2.9,2.2-4,3.7
		c-1.3,1.9-2.8,3.7-4.4,5.5l-0.4,0.4c-0.2,0.2-0.2,0.5,0,0.7c0,0,0,0,0,0c0.1,0.1,0.2,0.1,0.3,0.1c0.1,0,0.3-0.1,0.4-0.2l0.4-0.4
		c1.6-1.8,3.1-3.6,4.4-5.6c1.1-1.4,2.3-2.5,3.8-3.4l0.9-0.6c0.1,1.3,0.2,2.7,0.3,4l-2.3,2c-1.4,1.2-2.8,2.6-4,4
		c-0.4,0.5-0.8,1-1.1,1.5c-0.4,0.5-0.6,0.8-0.9,1.2c-1,1.3-2.1,2.4-3.3,3.6c-0.7,0.7-1.4,1.4-2,2c-1.9,1.8-3.2,4-3.9,6.5l-0.2,0.2
		c-1.1,1.2-2.2,2.3-3.3,3.4s-2.2,2.2-3.3,3.4c-0.2,0.2-0.2,0.5,0,0.7c0,0,0,0,0,0c0.1,0.1,0.2,0.2,0.4,0.2c0.1,0,0.3-0.1,0.4-0.2
		c1.1-1.1,2.2-2.2,3.3-3.4c1.1-1.1,2.1-2.2,3.2-3.3l0.5-0.4v-0.2c0.6-2.4,1.9-4.5,3.7-6.2c0.7-0.7,1.3-1.4,2-2
		c1.2-1.1,2.3-2.4,3.4-3.6c0.3-0.4,0.6-0.9,0.9-1.3c0.3-0.4,0.7-1,1.1-1.5c1.2-1.4,2.5-2.7,3.9-3.8l2.4-2.1l0,0
		c3.6-1.7,6.2-4.8,8.8-7.8c1-1.1,1.9-2.3,3-3.4c2-2,4-3.8,6.2-5.6c2.4-1.9,4.7-4,6.8-6.2c0.3,0.8,0.5,1.6,0.7,2.4l0,0l-4.5,4.5
		c-0.9,0.9-1.8,1.7-2.7,2.5c-0.5,0.4-1.1,0.8-1.7,1.2c-1.2,0.8-2.3,1.7-3.3,2.7l-0.3,0.1l-0.1,0.1c-1,1.4-2.2,2.6-3.6,3.7l-9.4,8.4
		c-1.1,0.9-2,1.9-2.8,3c-0.2,0.3-0.3,0.5-0.4,0.8c-0.1,0.3-0.3,0.5-0.4,0.8c-0.4,0.5-0.8,1.1-1.2,1.6c-1.1,1.3-2.3,2.7-3.6,4
		l-0.4,0.4c-0.5,0.5-1,1.1-1.5,1.6c-0.4,0.5-0.8,1.1-1.2,1.7l-3.1,4.8l-0.1,0.4c-0.1,0.2-0.1,0.2-0.3,0.3c-0.2,0.1-0.4,0.2-0.5,0.4
		c-2.8,2.6-5.3,5.5-7.7,8.5c-0.2,0.2-0.1,0.5,0.1,0.7c0.1,0.1,0.2,0.1,0.3,0.1c0.2,0,0.3-0.1,0.4-0.2c2.3-3,4.9-5.8,7.6-8.4
		c0.1-0.1,0.2-0.2,0.4-0.2c0.3-0.2,0.6-0.4,0.8-0.8l0.1-0.3l3.1-4.8c0.3-0.5,0.7-1.1,1.1-1.6c0.5-0.5,0.9-1.1,1.5-1.5l0.4-0.4
		c1.3-1.3,2.5-2.7,3.6-4c0.5-0.5,0.9-1.1,1.3-1.7c0.2-0.3,0.3-0.5,0.5-0.8c0.2-0.3,0.3-0.5,0.4-0.7c0.7-1.1,1.6-2,2.6-2.8l9.4-8.4
		c1.3-1.1,2.6-2.4,3.6-3.7l0.2-0.1l0.2-0.1c0.9-1,2-1.9,3.2-2.6c0.6-0.4,1.2-0.8,1.8-1.3c1-0.8,1.9-1.7,2.8-2.6l4.1-4.1
		c0.2,0.9,0.3,1.8,0.5,2.6c-1.2,0.9-2.3,1.9-3.2,3.1c-0.3,0.4-0.6,0.8-0.9,1.1c-1.5,1.5-3,3-4.7,4.3c-0.2,0.2-0.2,0.5-0.1,0.7
		c0.1,0.1,0.2,0.2,0.4,0.2c0.1,0,0.2,0,0.3-0.1c1.7-1.3,3.3-2.8,4.7-4.4c0.3-0.4,0.7-0.8,1-1.1c0.8-1,1.6-1.9,2.6-2.7
		c0.1,0.9,0.1,1.7,0.1,2.6c0,0.3,0,0.6,0,1c-0.1,0-0.1,0-0.2,0.1c-3,2.3-5.8,5-8.4,7.9c-1.8,1.9-3.7,3.9-5.7,5.7l-0.7,0.6
		c-1.1,0.9-2.1,1.9-3,3c-0.2,0.2-0.1,0.5,0.1,0.7c0.1,0.1,0.2,0.1,0.3,0.1c0.2,0,0.3-0.1,0.4-0.2c0.9-1,1.8-2,2.8-2.8l0.8-0.7
		c2-1.8,3.9-3.8,5.7-5.8c2.4-2.7,5-5.2,7.8-7.4v0.4c0,1.2-0.1,2.4,0,3.6c0,0-0.1,0.1-0.1,0.1c-2.1,2.1-4.1,4.3-5.9,6.6l-0.5,0.6
		c-0.5,0.7-1,1.4-1.6,2c-0.5,0.5-1,0.9-1.5,1.4l-0.7,0.6c-2.7,2.7-5.1,5.6-7.4,8.6c-0.1,0.2-0.1,0.5,0.2,0.7
		c0.1,0.1,0.2,0.1,0.3,0.1c0.2,0,0.3-0.1,0.4-0.2c2.2-2.9,4.7-5.7,7.2-8.4l0.7-0.6c0.6-0.5,1.1-0.9,1.6-1.5c0.6-0.7,1.1-1.3,1.6-2.1
		l0.4-0.6c1.7-2.1,3.4-4.1,5.3-6.1c0,0.1,0,0.3,0,0.4c0.1,0.7,0.2,1.4,0.4,2.1s0.3,1.6,0.4,2.4c-1.3,1.3-2.6,2.6-3.9,3.8
		c-1.3,1.2-2.7,2.6-4.1,4c-0.8,0.7-1.5,1.5-2.1,2.4c-0.2,0.3-0.4,0.7-0.7,1c-0.2,0.3-0.4,0.6-0.5,0.9l-0.5,0.7
		c-0.3,0.3-0.5,0.7-0.7,1c-0.1,0.2-0.2,0.4-0.3,0.5s-0.3,0.4-0.4,0.7c-0.4,0.5-0.8,1-1.2,1.4l-0.6,0.6c-1.7,1.6-3.3,3.5-4.5,5.5
		c-0.2,0.4-0.4,0.7-0.5,1.1s-0.3,0.7-0.5,1c-0.5,0.9-1,1.7-1.5,2.5l-2.8,4.1l-0.1,0.2c-0.3,0.7-0.8,1.2-1.3,1.7
		c-0.8,0.6-1.3,1.5-1.6,2.4c0,0.2-0.1,0.4-0.1,0.6c0,0.2-0.1,0.4-0.1,0.6c-0.3,0.6-0.6,1.1-1.1,1.4l-0.1,0.1c-2.7,2.8-5,5.9-6.9,9.3
		c-0.1,0.2-0.1,0.5,0.2,0.7c0,0,0,0,0,0c0.1,0,0.2,0.1,0.3,0.1c0.2,0,0.3-0.1,0.4-0.2c1.8-3.3,4.1-6.4,6.7-9.1l0.1-0.1
		c0.6-0.5,1.1-1.1,1.4-1.9c0.1-0.2,0.1-0.5,0.1-0.7c0-0.2,0.1-0.3,0.1-0.5c0.3-0.8,0.8-1.4,1.4-1.9c0.6-0.6,1.2-1.3,1.5-2.1l2.8-4.2
		c0.6-0.8,1.1-1.7,1.6-2.6c0.2-0.3,0.3-0.7,0.5-1c0.2-0.3,0.3-0.7,0.5-1.1c1.2-2,2.7-3.8,4.4-5.4l0.6-0.7c0.5-0.5,0.9-1,1.3-1.5
		c0.2-0.2,0.3-0.5,0.4-0.7l0.3-0.5c0.2-0.3,0.4-0.6,0.7-1c0.2-0.3,0.4-0.5,0.5-0.7c0.2-0.3,0.4-0.6,0.6-0.9c0.2-0.3,0.4-0.6,0.6-1
		c0.6-0.8,1.3-1.5,2-2.2c1.4-1.4,2.7-2.6,4.1-3.9c1.1-1,2.2-2.1,3.3-3.2c0,0.5-0.1,1-0.3,1.5c-0.4,1.2-0.9,2.3-1.6,3.3l-0.2,0.4
		c-1.5,2.4-2.8,4.9-4,7.4l-0.6,0.5c-1.4,1.1-2.6,2.3-3.8,3.6c-4.1,5.3-7.8,10.9-11.1,16.8l-0.1,0.3c-1.5,3.2-3.5,6.2-5.8,8.8
		l-0.1,0.1c-0.4,0.4-0.7,0.9-1,1.4c-0.1,0.1-0.2,0.3-0.2,0.5c-0.1,0.3-0.3,0.6-0.4,0.8c-0.1,0.1-0.3,0.2-0.5,0.3l-0.2,0.1
		c-1.2,0.8-2.1,2-2.5,3.4c-0.1,0.3,0.1,0.5,0.4,0.6c0,0,0,0,0,0h0.1c0.2,0,0.4-0.2,0.5-0.4c0.3-1.2,1-2.2,2-2.8l0.1-0.1
		c0.2-0.1,0.5-0.3,0.7-0.5c0.3-0.3,0.5-0.7,0.7-1.1c0.1-0.1,0.1-0.3,0.2-0.4c0.2-0.4,0.5-0.8,0.9-1.2l0.1-0.1c2.4-2.8,4.4-5.8,6-9.1
		l0.1-0.2c3.3-5.8,7-11.3,11-16.5c0.8-0.9,1.6-1.8,2.6-2.6c-0.6,1.4-1.2,2.7-1.8,4.1c-2.6,6.1-5.3,12.4-9.5,17.6l-0.1,0.1
		c-0.8,0.6-1.2,1.6-1.2,2.6c0,0.5-0.2,1-0.4,1.5c-0.2,0.4-0.5,0.8-0.9,1.1l-2.9,2.8c-0.6,0.6-1.1,1.2-1.6,1.9
		c-0.2,0.4-0.4,0.7-0.6,1.1c-0.1,0.1-0.2,0.3-0.2,0.5c-0.5,0.9-1.1,1.8-1.8,2.6c-0.2,0.2-0.2,0.5,0,0.7c0,0,0,0,0,0
		c0.1,0.1,0.2,0.1,0.3,0.1c0.1,0,0.3-0.1,0.4-0.2c0.8-0.8,1.5-1.8,2-2.8c0.1-0.2,0.2-0.3,0.2-0.5c0.2-0.3,0.3-0.7,0.5-1
		c0.4-0.6,0.9-1.2,1.5-1.7l2.9-2.9c0.4-0.4,0.8-0.8,1.1-1.3c0.3-0.6,0.4-1.2,0.5-1.8c0.1-0.8,0.2-1.5,0.8-1.9l0.2-0.1l0.1-0.1
		c4.3-5.3,7-11.7,9.7-17.9c1.9-4.7,4.1-9.3,6.6-13.6l0.2-0.4c0.8-1.1,1.4-2.3,1.8-3.6c0.1-0.5,0.2-1,0.2-1.5l0,0
		c0.3,0.2,0.6,0.6,0.8,0.9c0.2,0.4,0.4,0.8,0.7,1.2c0.2,0.3,0.5,0.5,0.8,0.8l0.2,0.2c1.1,1.1,2.1,2.2,3.1,3.4
		c0.1,0.1,0.2,0.2,0.4,0.2c0.1,0,0.2,0,0.3-0.1c0.2-0.2,0.3-0.5,0.1-0.7c-1-1.3-2-2.4-3.2-3.5l-0.2-0.2c-0.2-0.2-0.5-0.4-0.7-0.7
		c-0.2-0.3-0.4-0.6-0.6-1c-0.3-0.4-0.6-0.8-1-1.2c-0.3-0.2-0.6-0.5-0.8-0.8c-0.1-0.9-0.3-1.7-0.4-2.6c-0.1-0.7-0.3-1.4-0.4-2
		c-0.2-1.7-0.2-3.4-0.2-5.1c0-0.9,0-1.7,0-2.6c0-0.9,0-1.5-0.1-2.2l0.1,0.1l0.1,0.2c0.6,1,1.3,1.9,2.2,2.6c0.1,0.1,0.2,0.1,0.3,0.1
		c0.2,0,0.3-0.1,0.4-0.2c0.2-0.2,0.1-0.5-0.1-0.7c-0.8-0.7-1.5-1.4-2-2.4l-0.1-0.2c-0.2-0.5-0.6-1-1.1-1.4c-0.3-2.2-0.8-4.3-1.5-6.4
		c2.8,0.9,5.5,2.3,7.8,4.2c0.9,0.8,1.8,1.6,2.6,2.5c0.5,0.5,0.9,1,1.4,1.5c1.5,1.4,3.2,2.8,4.9,4c0.9,0.7,1.8,1.4,2.7,2.1
		c2.6,2.2,5,4.5,7.3,7l13.9,14.6c0.1,0.1,0.2,0.2,0.4,0.2c0.1,0,0.3-0.1,0.3-0.1C-75.4,438.6-75.4,438.3-75.5,438.1z M-142.2,425.1
		c-0.1-1.2-0.2-2.3-0.3-3.5l0.5,0.2c0.4,0.1,0.8,0.3,1.1,0.6c0.1,0.1,0.2,0.1,0.3,0.1c0.1,0,0.3-0.1,0.4-0.2c0.2-0.2,0.2-0.5,0-0.7
		c-0.4-0.3-0.9-0.5-1.4-0.7c-0.3-0.1-0.7-0.3-0.9-0.4c-0.1-1.9-0.1-3.8-0.1-5.7c1.4,1.2,3,2.2,4.8,2.8c0.7,0.3,1.1,0.5,1.6,0.7
		l1.1,0.5C-137.1,421.3-139.5,423.5-142.2,425.1z"/>
	<path d="M-157,436.1c0.9-0.8,1.8-1.6,2.4-2.6c0.2-0.2,0.2-0.5,0-0.7s-0.5-0.2-0.7,0c0,0-0.1,0.1-0.1,0.1c-0.6,0.9-1.4,1.7-2.3,2.4
		c-0.2,0.2-0.2,0.5-0.1,0.7c0,0,0,0,0,0c0.1,0.1,0.2,0.2,0.4,0.2C-157.2,436.2-157.1,436.2-157,436.1z"/>
	<path d="M-93.4,424.3c0.1,0,0.3-0.1,0.4-0.2c0.2-0.2,0.2-0.5,0-0.7c0,0,0,0,0,0c-2-1.8-3.9-3.8-5.6-5.9c-0.2-0.2-0.5-0.2-0.7-0.1
		c0,0,0,0,0,0c-0.2,0.2-0.2,0.5-0.1,0.7c0,0,0,0,0,0c1.8,2.1,3.7,4,5.7,5.9C-93.7,424.2-93.6,424.2-93.4,424.3z"/>
	<path d="M-115.6,455.5c-0.2-0.2-0.4-0.3-0.5-0.5v-0.2c0-0.2-0.1-0.4-0.2-0.6c-0.1-0.2-0.3-0.4-0.4-0.6l-0.1-0.1
		c-0.6-0.7-1-1.4-1.4-2.3c-0.5-1.2-1.2-2.3-2.2-3.1c-0.2-0.1-0.5-0.1-0.7,0.2c-0.1,0.2-0.1,0.5,0.1,0.6c0.8,0.8,1.5,1.7,1.9,2.8
		c0.4,0.9,0.9,1.7,1.5,2.5l0.1,0.1c0.1,0.1,0.2,0.2,0.3,0.4c0.1,0.1,0.1,0.3,0.1,0.4l0.1,0.2c0.2,0.4,0.5,0.8,0.9,1
		c0.1,0.1,0.3,0.2,0.4,0.3c0.1,0.1,0.2,0.1,0.4,0.1c0.3,0,0.5-0.2,0.5-0.5c0-0.1-0.1-0.2-0.1-0.3
		C-115.2,455.8-115.4,455.7-115.6,455.5z"/>
	<path d="M-118.6,447.5c-0.3-0.1-0.5,0.1-0.6,0.3c0,0,0,0,0,0c-0.1,0.5,0.1,1.1,0.6,1.4c0.1,0.1,0.2,0.2,0.4,0.2
		c0.1,0.1,0.3,0.1,0.4,0.3c0.1,0.1,0.2,0.2,0.2,0.3l0.1,0.1c0.2,0.3,0.3,0.6,0.4,0.9c0.2,0.6,0.5,1.2,1,1.7c0.1,0.1,0.2,0.1,0.3,0.1
		c0.3,0,0.5-0.2,0.5-0.5c0-0.2-0.1-0.3-0.2-0.4c-0.3-0.4-0.5-0.8-0.7-1.3c-0.1-0.4-0.3-0.7-0.5-1.1l-0.1-0.1
		c-0.1-0.2-0.2-0.3-0.4-0.5c-0.2-0.2-0.4-0.3-0.6-0.4c-0.1,0-0.2-0.1-0.3-0.2c-0.2-0.1-0.2-0.2-0.2-0.3
		C-118.1,447.8-118.3,447.6-118.6,447.5C-118.5,447.5-118.6,447.5-118.6,447.5z"/>
	<path d="M-155.5,454.5l5.5-6.8c0.4-0.5,0.8-1,1.1-1.5c0.2-0.4,0.4-0.8,0.5-1.2l0.2-0.4c0.4-0.9,0.9-1.8,1.4-2.7
		c0.8-1.6,1.9-3.1,3.1-4.5c0.7-0.7,1.4-1.4,2.2-2c0.6-0.5,1.2-1,1.8-1.5c1.1-1.1,2.2-2.4,3.2-3.7c1.3-1.8,2.8-3.5,4.6-4.8
		c0.3-0.2,0.6-0.4,0.9-0.6c0.7-0.4,1.3-0.8,1.9-1.3c0.5-0.5,0.9-1,1.3-1.5c0.4-0.7,1-1.3,1.7-1.8c0.2-0.2,0.3-0.5,0.1-0.7
		c-0.2-0.2-0.5-0.3-0.7-0.1c-0.7,0.6-1.4,1.2-1.9,2c-0.4,0.5-0.8,1-1.2,1.4c-0.5,0.5-1.1,0.9-1.7,1.2c-0.3,0.2-0.6,0.4-0.9,0.6
		c-1.9,1.4-3.5,3.1-4.8,5c-0.9,1.3-1.9,2.4-3.1,3.5c-0.6,0.5-1.2,1-1.7,1.5c-0.8,0.6-1.6,1.3-2.3,2.1c-1.2,1.4-2.3,3-3.2,4.7
		c-0.6,0.9-1,1.9-1.5,2.8l-0.2,0.4c-0.1,0.3-0.3,0.7-0.4,1c-0.3,0.5-0.6,0.9-1,1.3l-2.5,3.2l-0.1,0.1c-3.6,3.5-6.8,7.3-9.5,11.5
		c-0.1,0.2-0.1,0.5,0.1,0.7c0.1,0.1,0.2,0.1,0.3,0.1c0.2,0,0.3-0.1,0.4-0.2c2.1-3.3,4.5-6.3,7.2-9.2L-155.5,454.5z"/>
	<path d="M-163.9,445.5l0.1-0.2l0.1-0.1c1.2-2.8,2.8-5.4,4.8-7.7c0.2-0.2,0.1-0.5-0.1-0.7s-0.5-0.1-0.7,0.1c-2,2.4-3.6,5-4.9,7.9
		l-0.1,0.2c-0.7,0.9-1.4,1.7-2.2,2.5c-0.8,0.8-1.5,1.6-2.1,2.4c-0.2,0.2-0.1,0.5,0.1,0.7c0.1,0.1,0.2,0.1,0.3,0.1
		c0.2,0,0.3-0.1,0.4-0.2c0.6-0.8,1.3-1.6,2-2.3C-165.4,447.4-164.6,446.5-163.9,445.5z"/>
	<path d="M-150.7,455.8l0.7-0.6c0.7-0.6,1.3-1.3,1.8-2l0.1-0.2v-0.1c0.1-0.5,0.4-1,0.7-1.5l1.1-1.8c1-1.7,2.1-3.3,3.4-4.9
		c0.4-0.4,0.7-0.8,1.1-1.3c0.6-0.6,1.1-1.3,1.7-2c1-1.3,1.8-2.6,2.5-3.7c0.7-1.2,1.6-2.4,2.5-3.6c0.2-0.2,0.2-0.5,0-0.7c0,0,0,0,0,0
		c-0.2-0.2-0.5-0.2-0.7,0c-1,1.2-1.9,2.4-2.6,3.7c-0.7,1.1-1.5,2.3-2.5,3.6c-0.5,0.7-1.1,1.3-1.6,1.9c-0.4,0.4-0.8,0.9-1.1,1.3
		c-1.2,1.6-2.4,3.3-3.4,5l-1.1,1.8c-0.4,0.6-0.7,1.2-0.8,2l0,0c-0.4,0.6-1,1.2-1.6,1.7l-0.7,0.6c-0.8,0.8-1.6,1.7-2.3,2.7l-6,7.7
		c-0.2,0.2-0.1,0.5,0.1,0.7c0.1,0.1,0.2,0.1,0.3,0.1c0.2,0,0.3-0.1,0.4-0.2l6-7.7C-152.2,457.4-151.5,456.6-150.7,455.8z"/>
	<path d="M-143.7,454.8c4.1-6.1,5.7-8.3,8.5-11.9c0.2-0.2,0.1-0.5-0.1-0.7c-0.2-0.2-0.5-0.1-0.7,0.1c-2.8,3.6-4.4,5.8-8.6,12.1
		l-0.1,0.1v0.1l-11.5,14.5c-0.2,0.2-0.1,0.5,0.1,0.7c0.1,0.1,0.2,0.1,0.3,0.1c0.2,0,0.3-0.1,0.4-0.2l11.7-14.7V454.8z"/>
	<path d="M-89.8,464.1c-0.7-0.3-1.3-0.8-1.8-1.4c-0.1-0.1-0.2-0.3-0.3-0.5c-0.3-0.5-0.6-0.9-1.1-1.2c-0.4-0.2-0.7-0.3-1.1-0.3
		c-0.4-0.1-0.7-0.1-0.9-0.3c-0.2-0.2-0.5-0.2-0.7-0.1c-0.2,0.2-0.2,0.5-0.1,0.7c0.4,0.4,1,0.6,1.5,0.6c0.3,0,0.5,0.1,0.8,0.2
		c0.3,0.2,0.6,0.5,0.7,0.8c0.1,0.2,0.2,0.4,0.4,0.5c0.6,0.7,1.3,1.3,2.1,1.7c0.7,0.3,1.3,0.8,1.8,1.4c0.1,0.1,0.2,0.2,0.4,0.2
		c0.1,0,0.2,0,0.3-0.1c0.2-0.2,0.3-0.5,0.1-0.7C-88.3,465.1-89,464.5-89.8,464.1z"/>
	<path d="M-90.5,441.7c-0.2-0.2-0.5-0.2-0.7,0c-0.2,0.2-0.2,0.5,0,0.7c0,0,0,0,0,0l6.7,5.9c0.1,0.1,0.2,0.1,0.3,0.1
		c0.3,0,0.5-0.2,0.5-0.5c0-0.1-0.1-0.3-0.2-0.4L-90.5,441.7z"/>
	<path d="M-119.8,475.1c-0.4-0.4-0.7-0.9-1-1.4c-0.1-0.3-0.3-0.6-0.4-0.9c-0.1-0.3-0.2-0.6-0.4-0.9c-0.4-0.8-0.9-1.5-1.6-2.1
		c-0.2-0.2-0.5-0.1-0.7,0.1c-0.2,0.2-0.2,0.5,0,0.7c0.6,0.5,1,1.1,1.4,1.8c0.1,0.3,0.2,0.5,0.3,0.8c0.1,0.3,0.3,0.7,0.4,1
		c0.3,0.6,0.7,1.1,1.1,1.6l1.9,2.5c0.1,0.1,0.2,0.2,0.4,0.2c0.1,0,0.2,0,0.3-0.1c0.2-0.2,0.3-0.5,0.1-0.7L-119.8,475.1z"/>
	<path d="M-94.1,438.7c-0.2-0.2-0.5-0.3-0.7-0.1c-0.2,0.2-0.3,0.5-0.1,0.7c0.6,0.8,1.3,1.5,2.2,2c0.1,0,0.2,0.1,0.3,0.1
		c0.2,0,0.3-0.1,0.4-0.2c0.1-0.2,0.1-0.5-0.2-0.7C-92.9,440-93.6,439.4-94.1,438.7z"/>
</g>
</svg>
