<?xml version="1.0" encoding="utf-8"?>
<!-- Generator: Adobe Illustrator 19.0.0, SVG Export Plug-In . SVG Version: 6.00 Build 0)  -->
<svg version="1.1" id="Capa_1" xmlns="http://www.w3.org/2000/svg" xmlns:xlink="http://www.w3.org/1999/xlink" x="0px" y="0px"
	 viewBox="-210 325.9 173.5 190" style="enable-background:new -210 325.9 173.5 190;" xml:space="preserve">
<g id="XMLID_100_">
	<path d="M-45.1,494.1h-156.3c-2,0-3.8-1-4.8-2.7s-1-3.8,0-5.5l78.1-135.4c1-1.7,2.8-2.8,4.8-2.8l0,0c2,0,3.8,1,4.8,2.7l78.2,135.4
		c1,1.7,1,3.8,0,5.5C-41.3,493-43.1,494.1-45.1,494.1z M-191.9,483.1h137.3l-68.7-118.9L-191.9,483.1z"/>
</g>
<g>
	<g>
		<path d="M-102.1,415.9c1.2,0,2.1,0.9,2.1,2.1s-0.9,2.1-2.1,2.1h0c-0.2,0-0.4,0.2-0.4,0.4l-1.5,41c-0.1,3-2.6,5.4-5.6,5.4h-27
			c-3,0-5.5-2.4-5.6-5.4l-1.5-41c0-0.2-0.2-0.4-0.4-0.4h0c-1.2,0-2.1-0.9-2.1-2.1s0.9-2.1,2.1-2.1h10.3c0.2,0,0.5-0.2,0.5-0.4
			l0.7-2.4c0.7-2.5,3.2-4.4,5.8-4.4h7.6c2.6,0,5.1,1.9,5.8,4.4l0.7,2.4c0.1,0.2,0.3,0.4,0.5,0.4H-102.1z M-124.9,427.8v28.7
			c0,0.9,0.8,1.7,1.7,1.7s1.7-0.8,1.7-1.7v-28.7c0-0.9-0.8-1.7-1.7-1.7S-124.9,426.8-124.9,427.8z M-134.2,427.8l0.8,28.7
			c0,0.9,0.8,1.7,1.7,1.6c0.9,0,1.7-0.8,1.6-1.7l-0.8-28.7c0-0.9-0.8-1.7-1.7-1.6S-134.3,426.9-134.2,427.8z M-115.6,427.7
			l-0.8,28.7c0,0.9,0.7,1.7,1.6,1.7c0.9,0,1.7-0.7,1.7-1.6l0.8-28.7c0-0.9-0.7-1.7-1.6-1.7C-114.8,426-115.6,426.8-115.6,427.7z
			 M-128.8,415.9h11.2c0.2,0,0.4-0.2,0.3-0.4l-0.4-1.3c-0.2-0.7-1-1.3-1.7-1.3h-7.6c-0.7,0-1.5,0.6-1.7,1.3l-0.4,1.3
			C-129.2,415.8-129.1,415.9-128.8,415.9z"/>
	</g>
</g>
</svg>
