<?xml version="1.0" encoding="utf-8"?>
<!-- Generator: Adobe Illustrator 19.0.0, SVG Export Plug-In . SVG Version: 6.00 Build 0)  -->
<svg version="1.1" id="Capa_1" xmlns="http://www.w3.org/2000/svg" xmlns:xlink="http://www.w3.org/1999/xlink" x="0px" y="0px"
	 viewBox="-210 325.9 173.5 190" style="enable-background:new -210 325.9 173.5 190;" xml:space="preserve">
<g id="XMLID_100_">
	<path d="M-45.1,494.1h-156.3c-2,0-3.8-1-4.8-2.7s-1-3.8,0-5.5l78.1-135.4c1-1.7,2.8-2.8,4.8-2.8l0,0c2,0,3.8,1,4.8,2.7l78.2,135.4
		c1,1.7,1,3.8,0,5.5C-41.3,493-43.1,494.1-45.1,494.1z M-191.9,483.1h137.3l-68.7-118.9L-191.9,483.1z"/>
</g>
<g>
	<path d="M-104.1,452.2c-0.7-0.7-1.8-0.7-2.4,0c-0.7,0.7-0.7,1.8,0,2.4l3.9,3.9l-3.9,3.9c-0.7,0.7-0.7,1.8,0,2.4
		c0.3,0.3,0.7,0.5,1.2,0.5c0.5,0,0.9-0.1,1.2-0.5l3.9-3.9l3.9,3.9c0.3,0.3,0.7,0.5,1.2,0.5c0.5,0,0.9-0.1,1.2-0.5
		c0.7-0.7,0.7-1.8,0-2.4l-4-3.8l3.9-3.9c0.7-0.7,0.7-1.8,0-2.4c-0.7-0.7-1.8-0.7-2.4,0l-3.9,3.9L-104.1,452.2z"/>
	<path d="M-86.8,439.3c0-0.1,0-0.1-0.1-0.1c0-0.1-0.1-0.1-0.1-0.2c0,0,0-0.1-0.1-0.1c-0.1-0.1-0.1-0.2-0.2-0.3l-10.2-10.2
		c-0.1-0.1-0.1-0.1-0.3-0.2h-0.1c-0.1-0.1-0.1-0.1-0.2-0.1H-98c-0.1,0-0.1-0.1-0.2-0.1c-0.1,0-0.2,0-0.3,0h-11.9V423
		c0-0.1,0-0.2,0-0.3c0-0.1-0.1-0.1-0.1-0.2s0-0.1-0.1-0.1c0-0.1-0.1-0.1-0.1-0.2c0,0,0-0.1-0.1-0.1c-0.1-0.1-0.1-0.2-0.2-0.3
		l-10.2-10.2c-0.1-0.1-0.1-0.1-0.3-0.2h-0.1c-0.1-0.1-0.1-0.1-0.2-0.1h-0.1c-0.1,0-0.1-0.1-0.2-0.1c-0.1,0-0.2,0-0.3,0h-23.8
		c-1-0.1-1.7,0.6-1.7,1.6v40.7c0,1,0.7,1.7,1.7,1.7h1.7v3.4c0,3.7,3.1,6.8,6.8,6.8h5.1h1l-1,1l-1.2,1.2c-0.7,0.7-0.7,1.8,0,2.4
		c0.3,0.3,0.7,0.5,1.2,0.5s0.9-0.1,1.2-0.5l5.1-5.1c0.1-0.1,0.1-0.1,0.2-0.3c0-0.1,0.1-0.1,0.1-0.1c0-0.1,0.1-0.1,0.1-0.2
		s0.1-0.1,0.1-0.1c0-0.1,0.1-0.1,0.1-0.1c0.1-0.2,0.1-0.5,0-0.7c0-0.1,0-0.1-0.1-0.1c0-0.1,0-0.1-0.1-0.1c0-0.1-0.1-0.1-0.1-0.2
		s-0.1-0.1-0.1-0.1c-0.1-0.1-0.1-0.2-0.2-0.3l-5.1-5.1c-0.7-0.7-1.8-0.7-2.4,0c-0.7,0.7-0.7,1.8,0,2.4l1.2,1.2l1,1h-1h-5.1
		c-1.9,0-3.4-1.5-3.4-3.4v-3.4h17v15.3c0,1,0.7,1.7,1.7,1.7h34c1,0,1.7-0.7,1.7-1.7v-30.6c0-0.1,0-0.2,0-0.3
		C-86.8,439.5-86.8,439.4-86.8,439.3z M-96.9,433.8l4.4,4.4h-4.4V433.8z M-120.6,416.8l4.4,4.4h-4.4V416.8z M-144.4,451.8v-37.3
		h20.4v8.5c0,1,0.7,1.7,1.7,1.7h8.5v27.2H-144.4z M-90.1,468.7h-30.6v-13.6h8.5c1,0,1.7-0.7,1.7-1.7v-22.1h10.2v8.5
		c0,1,0.7,1.7,1.7,1.7h8.5V468.7z"/>
</g>
</svg>
