<?xml version="1.0" encoding="utf-8"?>
<!-- Generator: Adobe Illustrator 19.0.0, SVG Export Plug-In . SVG Version: 6.00 Build 0)  -->
<svg version="1.1" id="Capa_1" xmlns="http://www.w3.org/2000/svg" xmlns:xlink="http://www.w3.org/1999/xlink" x="0px" y="0px"
	 viewBox="-210 325.9 173.5 190" style="enable-background:new -210 325.9 173.5 190;" xml:space="preserve">
<style type="text/css">
	.st0{clip-path:url(#SVGID_1_);}
</style>
<g id="XMLID_100_">
	<path d="M-45.1,494.1h-156.3c-2,0-3.8-1-4.8-2.7s-1-3.8,0-5.5l78.1-135.4c1-1.7,2.8-2.8,4.8-2.8l0,0c2,0,3.8,1,4.8,2.7l78.2,135.4
		c1,1.7,1,3.8,0,5.5C-41.3,493-43.1,494.1-45.1,494.1z M-191.9,483.1h137.3l-68.7-118.9L-191.9,483.1z"/>
</g>
<g>
	<g>
		<defs>
			<rect id="SVGID_3_" x="-165.8" y="419.6" width="84.5" height="67.2"/>
		</defs>
		<clipPath id="SVGID_1_">
			<use xlink:href="#SVGID_3_"  style="overflow:visible;"/>
		</clipPath>
		<path class="st0" d="M-131.1,473.1c-0.6-2.6-1.6-7.8-8.6-12.8c-0.7-0.5-1.6-1.4-2.1-2.1l-7.8-10.1c-0.8-1.4-2.7-1.8-4.2-0.9
			c-1.5,0.9-1.9,2.8-1.1,4.2l7.5,12.3c0.2,0.4,0.1,0.9-0.3,1.2c-0.4,0.2-0.8,0.1-1.1-0.3l-0.3-0.5c0,0-5.7-7.8-8.5-13.9
			c-0.5-1.1-0.8-2.2-0.9-3.5c0-0.2,0-0.4,0-0.6c-0.1-2.8-0.5-6.8-1-9.6c-0.1-0.8-0.5-3.7-1.3-4.6c-1.2-1.3-2.7-1-3.7-0.2
			c-0.8,0.7-1.2,1.7-1.1,2.8l2.2,21.2l0.1,0.8c0.4,2.7,1.7,4.9,3.5,6.8l12.6,15.1l0.2,7c0,0.6,0.5,1.1,1.1,1.1l13.2,0.1
			c0.6,0,1.1-0.5,1.1-1.1l0.5-8.5c0.1-0.9,0.1-1.8,0.1-2.5C-131.1,473.7-131.1,473.1-131.1,473.1L-131.1,473.1z M-131.1,473.1"/>
	</g>
	<path d="M-100.8,426.7c-0.6-1.4-1.4-2.7-2.5-3.7c-1.1-1.1-2.3-1.9-3.7-2.5c-1.3-0.6-2.8-0.8-4.2-0.8c-1.5,0-2.9,0.3-4.2,0.8
		c-1.4,0.6-2.7,1.4-3.7,2.5l-0.9,0.9l3.6,3.6l0.9-0.9c1.2-1.2,2.7-1.8,4.4-1.8c1.7,0,3.2,0.6,4.4,1.8c1.2,1.2,1.8,2.7,1.8,4.4
		c0,1.7-0.6,3.2-1.8,4.4c-1.2,1.2-2.7,1.8-4.4,1.8c-1.7,0-3.2-0.6-4.4-1.8L-128,423c-1.1-1.1-2.3-1.9-3.7-2.5
		c-1.3-0.6-2.8-0.8-4.2-0.8c-1.5,0-2.9,0.3-4.2,0.8c-1.4,0.6-2.7,1.4-3.7,2.5c-1.1,1.1-1.9,2.3-2.5,3.7c-0.6,1.3-0.8,2.8-0.8,4.2
		c0,1.5,0.3,2.9,0.8,4.2c0.6,1.4,1.4,2.7,2.5,3.7c1.1,1.1,2.3,1.9,3.7,2.5c1.3,0.6,2.8,0.8,4.2,0.8c1.5,0,2.9-0.3,4.2-0.8
		c1.4-0.6,2.7-1.4,3.7-2.5l0.8-0.8l-3.6-3.6l-0.8,0.8c-1.2,1.2-2.7,1.8-4.4,1.8s-3.2-0.6-4.4-1.8c-1.2-1.2-1.8-2.7-1.8-4.4
		s0.6-3.2,1.8-4.4c1.2-1.2,2.7-1.8,4.4-1.8s3.2,0.6,4.4,1.8l12.4,12.4c1.1,1.1,2.3,1.9,3.7,2.5c1.3,0.6,2.8,0.8,4.2,0.8
		c1.5,0,2.9-0.3,4.2-0.8c1.4-0.6,2.7-1.4,3.7-2.5c1.1-1.1,1.9-2.3,2.5-3.7c0.6-1.3,0.8-2.8,0.8-4.2
		C-100,429.4-100.2,428-100.8,426.7L-100.8,426.7z M-100.8,426.7"/>
	<path d="M-155.8,435.5c-0.3-1.1-0.9-1.9-2-2.2c0.2,0.7,0.4,1.5,0.5,2.2c0.4,2.4,1,6.7,1,9c0,0.2,0,0.5,0,0.7
		c0.3-0.2,0.5-0.5,0.8-0.6c0.4-0.2,0.8-0.4,1.2-0.6c0,0,0-0.1,0.1-0.1C-154.5,441.8-155.3,437.7-155.8,435.5L-155.8,435.5z
		 M-155.8,435.5"/>
	<path d="M-82.5,431.6c-1-0.8-2.5-1.1-3.7,0.2c-0.8,0.9-1.2,3.8-1.3,4.6c-0.5,2.8-0.9,6.8-1,9.6c0,0.2,0,0.4,0,0.6
		c-0.1,1.2-0.4,2.4-0.9,3.5c-2.8,6.2-8.5,13.9-8.5,13.9l-0.3,0.5c-0.2,0.3-0.7,0.5-1.1,0.3c-0.4-0.2-0.6-0.8-0.3-1.2l7.5-12.3
		c0.8-1.4,0.3-3.3-1.1-4.2c-1.5-0.9-3.4-0.4-4.2,0.9l-7.8,10.1c-0.5,0.7-1.5,1.6-2.1,2.1c-7,5.1-8,10.2-8.6,12.9
		c0,0-0.1,0.6-0.1,1.4c0,0.7,0,1.6,0.1,2.5l0.5,8.5c0,0.6,0.5,1.1,1.1,1.1l13.2-0.1c0.6,0,1.1-0.5,1.1-1.1l0.2-7l12.6-15.1
		c1.9-2,3.1-4.2,3.5-6.8l0.1-0.8l2.2-21.2C-81.3,433.3-81.7,432.2-82.5,431.6L-82.5,431.6z M-82.5,431.6"/>
	<path d="M-95.5,438.6c-0.3,1.3-1.3,4.2-1.5,5.6c0.6-0.2,1.2-0.3,1.9-0.4c0-0.1,0-0.2,0-0.3l0.1-1c0.2-1.5,1.1-4.5,1.5-6.1
		C-94.6,436.7-95.3,437.5-95.5,438.6L-95.5,438.6z M-95.5,438.6"/>
	<path d="M-91.3,435.5c-0.6,2.1-1.3,6.3-1.6,8.5c0,0,0,0.1,0.1,0.1c0.4,0.1,0.8,0.3,1.2,0.6c0.3,0.2,0.6,0.4,0.8,0.6
		c0-0.2,0-0.5,0-0.7c0.1-2.3,0.6-6.6,1-9c0.1-0.7,0.3-1.5,0.5-2.2C-90.4,433.7-91,434.5-91.3,435.5L-91.3,435.5z M-91.3,435.5"/>
	<path d="M-151.6,438.6c-0.3-1.1-0.9-1.9-2-2.2c0.3,1.6,1.2,4.5,1.5,6.1l0.1,1.1c0,0.1,0,0.2,0,0.3c0.6,0,1.3,0.2,1.9,0.4
		C-150.3,442.7-151.3,439.9-151.6,438.6L-151.6,438.6z M-151.6,438.6"/>
</g>
</svg>
