<?xml version="1.0" encoding="utf-8"?>
<!-- Generator: Adobe Illustrator 19.0.0, SVG Export Plug-In . SVG Version: 6.00 Build 0)  -->
<svg version="1.1" id="Capa_1" xmlns="http://www.w3.org/2000/svg" xmlns:xlink="http://www.w3.org/1999/xlink" x="0px" y="0px"
	 viewBox="-210 325.9 173.5 190" style="enable-background:new -210 325.9 173.5 190;" xml:space="preserve">
<g id="XMLID_100_">
	<path d="M-45.1,494.1h-156.3c-2,0-3.8-1-4.8-2.7s-1-3.8,0-5.5l78.1-135.4c1-1.7,2.8-2.8,4.8-2.8l0,0c2,0,3.8,1,4.8,2.7l78.2,135.4
		c1,1.7,1,3.8,0,5.5C-41.3,493-43.1,494.1-45.1,494.1z M-191.9,483.1h137.3l-68.7-118.9L-191.9,483.1z"/>
</g>
<g>
	<path d="M-114.8,437.1c0,4.7-3.8,8.4-8.4,8.4s-8.4-3.8-8.4-8.4c0-4.7,3.8-8.4,8.4-8.4C-118.6,428.6-114.8,432.4-114.8,437.1z"/>
</g>
<g>
	<g>
		<path d="M-167.3,436.9c24.4,32,63.8,32,88.1,0C-103.5,404.9-143,404.9-167.3,436.9z M-85.4,437.1l-7.8-0.4l-4,2.9l3,2.4l6.4-1.2
			c0.3-0.1,0.7,0.2,0.7,0.5c0.1,0.3-0.2,0.7-0.5,0.7l-6.7,1.3c0,0-0.1,0-0.1,0c-0.1,0-0.3,0-0.4-0.1l-3.6-2.9l-9.3,0.3c0,0,0,0,0,0
			c-0.3,1.2-0.7,2.4-1.2,3.5c0,0,0,0,0,0l5.2,0.5c0.1,0,0.2,0,0.2,0.1l4.2,2.2l4.6-0.4c0.4,0,0.6,0.2,0.7,0.6c0,0.3-0.2,0.6-0.6,0.7
			l-4.8,0.4c0,0,0,0-0.1,0c-0.1,0-0.2,0-0.3-0.1l-4.3-2.3l-5.6-0.5c-1.1,1.8-2.5,3.4-4.1,4.7h0l3.4,3.1l4.1,0.6l2.8-1.7
			c0.3-0.2,0.7-0.1,0.8,0.2c0.2,0.3,0.1,0.7-0.2,0.8l-3,1.8c-0.1,0.1-0.2,0.1-0.3,0.1c0,0-0.1,0-0.1,0l-4.1-0.6l0.2,2.6
			c0,0.3-0.2,0.6-0.6,0.6c0,0,0,0,0,0c-0.3,0-0.6-0.3-0.6-0.6l-0.2-3.4l-3.2-2.9c-2.1,1.4-4.6,2.3-7.3,2.5l1,3
			c0.1,0.2,0,0.4-0.1,0.5l-1.4,2c-0.1,0.2-0.3,0.3-0.5,0.3c-0.1,0-0.2,0-0.4-0.1c-0.3-0.2-0.3-0.6-0.2-0.9l1.3-1.8l-1-3
			c-0.1,0-0.1,0-0.2,0c-2.9,0-5.5-0.8-7.9-2.1c0,0,0,0,0,0l-0.7,3.5c0,0.2-0.1,0.3-0.3,0.4l-3.6,2c-0.1,0.1-0.2,0.1-0.3,0.1
			c-0.2,0-0.4-0.1-0.5-0.3c-0.2-0.3-0.1-0.7,0.2-0.8l3.4-1.8l0.8-3.6c-2.5-1.7-4.5-4-5.7-6.8l-5.6,4.8l-1.2,4.3
			c-0.1,0.3-0.3,0.5-0.6,0.5c-0.1,0-0.1,0-0.2,0c-0.3-0.1-0.5-0.4-0.4-0.8l1-3.5l-5.5,0.1c0,0,0,0,0,0c-0.3,0-0.6-0.3-0.6-0.6
			c0-0.3,0.3-0.6,0.6-0.6l6-0.1c0,0,0,0,0-0.1l2.6-2.2l-4.3-1.1l-8.5,1.5c0,0-0.1,0-0.1,0c-0.3,0-0.6-0.2-0.6-0.5
			c-0.1-0.3,0.2-0.7,0.5-0.7l8.6-1.5c0.1,0,0.2,0,0.3,0l5.3,1.4l2.4-2c-0.5-1.3-0.8-2.7-0.9-4.2l-6.1-0.4l-6.9,1.6c0,0-0.1,0-0.1,0
			c0,0-0.1,0-0.1,0l-9.1-1.8c-0.3-0.1-0.6-0.4-0.5-0.7s0.4-0.6,0.7-0.5l8.9,1.7l5.7-1.3l-6.1-3.6l-6.3-0.1c-0.3,0-0.6-0.3-0.6-0.6
			c0-0.3,0.3-0.6,0.6-0.6l6.4,0.1c0.1,0,0.2,0,0.3,0.1l7.6,4.5l5.4,0.4c0-2,0.4-3.8,1-5.5l-4.2-3.6h-6.3c-0.1,0-0.3,0-0.4-0.1
			l-2.5-1.8c-0.3-0.2-0.3-0.6-0.1-0.9c0.2-0.3,0.6-0.3,0.9-0.1l2.3,1.7h5.9l0.8-3.3l-2.3-2.6c-0.2-0.3-0.2-0.6,0.1-0.9
			c0.3-0.2,0.6-0.2,0.9,0.1l2.5,2.9c0.1,0.2,0.2,0.4,0.1,0.5l-0.9,3.7l3.7,3.2c1.5-3.3,4.1-5.9,7.4-7.6c0,0,0,0,0,0l-2.7-3.5
			l-3.3-0.9c-0.3-0.1-0.5-0.4-0.4-0.8c0.1-0.3,0.4-0.5,0.8-0.4l2.9,0.8l0.6-2.1c0.1-0.3,0.4-0.5,0.8-0.4c0.3,0.1,0.5,0.4,0.4,0.8
			l-0.7,2.4l2.8,3.7c0,0,0,0,0,0c1.9-0.8,3.9-1.2,6.1-1.2c1.7,0,3.4,0.3,4.9,0.8c0,0,0,0,0,0l1-1.5c0,0,0,0,0,0l-2-4
			c-0.2-0.3,0-0.7,0.3-0.8c0.3-0.2,0.7,0,0.8,0.3l1.7,3.4l2.3-3.3c0.2-0.3,0.6-0.4,0.9-0.2c0.3,0.2,0.4,0.6,0.2,0.9l-3.9,5.7h0
			c1.9,0.8,3.6,1.9,5,3.3c0,0,0,0,0,0c0,0,0,0,0,0l3.3-2.6l0.6-3.8c0.1-0.3,0.4-0.6,0.7-0.5c0.3,0.1,0.6,0.4,0.5,0.7l-0.5,3.6l3.1,1
			l3.9-2.5c0.3-0.2,0.7-0.1,0.8,0.2c0.2,0.3,0.1,0.7-0.2,0.8l-4.1,2.6c-0.2,0.1-0.3,0.1-0.5,0.1l-3.6-1.1l-3.1,2.5
			c1.7,1.9,3,4.2,3.6,6.8c0.1,0.2,0.1,0.4,0.2,0.7c3-1.1,7-2.6,8.1-2.8l3.5-4.9c0.2-0.3,0.6-0.3,0.9-0.1c0.3,0.2,0.3,0.6,0.1,0.9
			l-2.9,4.1c2.8,0,9-0.1,9-0.1v0c0,0,0,0,0,0c0.3,0,0.6,0.3,0.6,0.6c0,0.3-0.3,0.6-0.6,0.6c0,0,0,0,0,0v0c0,0-9.6,0.1-10.2,0.1
			c-0.5,0.1-4.4,1.5-8.2,2.9c0.1,0.7,0.1,1.3,0.1,2c0,0.8-0.1,1.5-0.2,2.2l8.9-0.3l4.8-3.5c0.1-0.1,0.3-0.1,0.4-0.1l8,0.4
			c0.3,0,0.6,0.3,0.6,0.6C-84.8,436.8-85,437.1-85.4,437.1z"/>
		<path d="M-139.3,437.1c0,0.4,0,0.8,0.1,1.2h0L-139.3,437.1z"/>
	</g>
</g>
<g>
	<path d="M-157.2,465.9l-6.9-4.9l12-6.5l-8.5-6.1l-15.3,10.1l4.8,3.4l-9.9,7.9L-157.2,465.9z M-157.2,465.9"/>
</g>
<g>
	<path d="M-136.2,474.9l-8.1-2.2l9-10.2l-10.1-2.8l-11,14.7l5.7,1.6l-6.6,10.8L-136.2,474.9z M-136.2,474.9"/>
</g>
<g>
	<path d="M-112.1,475.1l-8.4-0.1l6.2-12.1l-10.5-0.1l-6.9,17l5.9,0.1l-3.6,12.2L-112.1,475.1z M-112.1,475.1"/>
</g>
<g>
	<path d="M-89.4,465.8l-7.7,3.4l0.5-13.6l-9.6,4.3l0.9,18.3l5.4-2.4l1.8,12.6L-89.4,465.8z M-89.4,465.8"/>
</g>
<g>
	<path d="M-71,452.2l-6,5.9l-4.2-12.9l-7.5,7.3l7.2,16.9l4.3-4.1l6,11.2L-71,452.2z M-71,452.2"/>
</g>
</svg>
