<?xml version="1.0" encoding="utf-8"?>
<!-- Generator: Adobe Illustrator 19.0.0, SVG Export Plug-In . SVG Version: 6.00 Build 0)  -->
<svg version="1.1" id="Capa_1" xmlns="http://www.w3.org/2000/svg" xmlns:xlink="http://www.w3.org/1999/xlink" x="0px" y="0px"
	 viewBox="-210 325.9 173.5 190" style="enable-background:new -210 325.9 173.5 190;" xml:space="preserve">
<g id="XMLID_100_">
	<path d="M-45.1,494.1h-156.3c-2,0-3.8-1-4.8-2.7s-1-3.8,0-5.5l78.1-135.4c1-1.7,2.8-2.8,4.8-2.8l0,0c2,0,3.8,1,4.8,2.7l78.2,135.4
		c1,1.7,1,3.8,0,5.5C-41.3,493-43.1,494.1-45.1,494.1z M-191.9,483.1h137.3l-68.7-118.9L-191.9,483.1z"/>
</g>
<g>
	<g>
		<path d="M-122.2,462.1c-8.8,0-16-2.3-19.1-6.1c-2.5,1.8-5.1,3.1-7.2,3.2c-2.2,0.1-4-1-5.1-3c-2.1-3.9-1.5-11.5,4.5-19.8
			c1-1.3,9.5-12.6,14.6-10.9c2.1,0.7,3.2,3.3,3.2,8.3h-1c0-4-0.9-6.9-2.5-7.4c-3.1-1-9.2,4.8-13.5,10.6c-5.8,7.9-6.4,15-4.4,18.7
			c0.9,1.7,2.4,2.6,4.2,2.5c1.9-0.1,4.3-1.4,6.6-3.1c-0.4-0.6-0.6-1.1-0.8-1.8c-1.2-4,1.7-8.4,8.1-11.9c7.3-4,14.9-6.4,20.5-6.7
			c0.5-0.8,0.9-1.5,1.4-2.2c5.7-9.2,6-9.5,6.6-9.1c0.6,0.3,0.8,0.4-3.3,9.7c-0.3,0.6-0.5,1.2-0.8,1.8c1.9,0.3,3.3,0.9,4.2,2
			c1.4,1.7,2,5.1-3.5,11.9c-6.4,7.9-8,9-9,8.4s-1.3-2.8,6.9-21.4c-0.6,0-1.2,0-1.9,0c-9.1,14.6-14.2,21.8-16.5,20.9
			c-1.3-0.5-2.1-1.2-2.4-2c-0.4-1.1,0.1-2.3,0.7-3.5c0.4-0.9,0.9-1.9,0.8-2.7c0-0.1,0-0.1,0-0.1l0,0c-0.6,0-3,2-5,3.5
			c-1.4,1.1-2.9,2.4-4.5,3.5c3.2,3.8,11.5,6.6,23.5,5.4c22.3-2.2,33.6-22.1,33.7-22.3l0.9,0.5c-0.1,0.2-11.7,20.6-34.5,22.8
			C-118.7,462-120.5,462.1-122.2,462.1z M-110.6,435.6c-7.3,16.5-7.8,20.3-7.4,20.3l0,0c0.5,0,2.2-1.2,7.7-8c4-4.9,5.1-8.6,3.5-10.6
			C-107.5,436.4-108.9,435.9-110.6,435.6z M-130.9,447.4c0.1,0,0.3,0,0.4,0.1c0.2,0.1,0.5,0.3,0.6,0.9c0.1,1.1-0.4,2.2-0.9,3.2
			s-0.9,1.9-0.6,2.7c0.2,0.5,0.8,1,1.9,1.4c1.9,0.7,9.8-11.6,14.9-19.9c-5.4,0.5-12.5,2.8-19.4,6.6c-6,3.3-8.8,7.2-7.7,10.7
			c0.2,0.5,0.4,1,0.7,1.5c1.6-1.1,3.1-2.4,4.5-3.5C-133.6,448.7-132,447.4-130.9,447.4z M-112.6,434.8c0.5,0,1,0,1.4,0.1
			c0.3-0.7,0.6-1.3,0.9-2c1.4-3.2,2.3-5.3,2.9-6.6c-1.1,1.7-2.8,4.4-4.4,7c-0.3,0.6-0.7,1.1-1,1.6
			C-112.8,434.8-112.7,434.8-112.6,434.8z"/>
	</g>
	<g>
		<path d="M-165.6,461.3c-2.1,0-4.1-1-5.7-2.8c-1-1.1-1.2-2.4-0.7-3.8c1.3-3.8,8.4-8.4,18-12.4c1.5-6.3,1.8-11.1,0.3-20l1-0.2
			c1.5,8.8,1.2,13.7-0.1,19.7c8.3-3.4,18.2-6.3,27.9-7.9l0.2,1c-9.9,1.6-20.1,4.6-28.3,8c-0.5,2.1-1.2,4.4-1.9,7.1
			c-1.7,6.2-5,10.2-8.9,11.1C-164.5,461.3-165.1,461.3-165.6,461.3z M-154.4,443.4c-9,3.8-15.5,8.1-16.7,11.6
			c-0.4,1.1-0.2,2,0.5,2.8c1.8,2,4,2.8,6.3,2.3c3.5-0.8,6.6-4.7,8.1-10.3C-155.4,447.5-154.8,445.4-154.4,443.4z"/>
	</g>
</g>
</svg>
