<?xml version="1.0" encoding="utf-8"?>
<!-- Generator: Adobe Illustrator 19.0.0, SVG Export Plug-In . SVG Version: 6.00 Build 0)  -->
<svg version="1.1" id="Capa_1" xmlns="http://www.w3.org/2000/svg" xmlns:xlink="http://www.w3.org/1999/xlink" x="0px" y="0px"
	 viewBox="-210 325.9 173.5 190" style="enable-background:new -210 325.9 173.5 190;" xml:space="preserve">
<g id="XMLID_100_">
	<path d="M-45.1,494.1h-156.3c-2,0-3.8-1-4.8-2.7s-1-3.8,0-5.5l78.1-135.4c1-1.7,2.8-2.8,4.8-2.8l0,0c2,0,3.8,1,4.8,2.7l78.2,135.4
		c1,1.7,1,3.8,0,5.5C-41.3,493-43.1,494.1-45.1,494.1z M-191.9,483.1h137.3l-68.7-118.9L-191.9,483.1z"/>
</g>
<g>
	<g>
		<path d="M-108.7,442.4c-0.7,0-1.4-0.3-1.9-0.8l-23.1-23.1c-0.9-0.9-1-2.4-0.2-3.5l17-22.6c0.9-1.2,2.6-1.4,3.8-0.5
			c1.2,0.9,1.4,2.6,0.5,3.8l-15.6,20.8l19.8,19.8l20.8-15.6c1.2-0.9,2.9-0.6,3.7,0.5c0.9,1.2,0.6,2.9-0.5,3.8l-22.6,17
			C-107.5,442.3-108.1,442.4-108.7,442.4z"/>
	</g>
	<g>
		<path d="M-162.2,472.9c-0.7,0-1.4-0.3-1.9-0.8c-1-1-1-2.7,0-3.8c1.6-1.9,7-17.7,11.3-31.9c0.2-0.6,0.6-1.2,1.1-1.5l22.9-14.3
			c1.3-0.8,2.9-0.4,3.7,0.9c0.8,1.3,0.4,2.9-0.9,3.7l-22,13.7c-3,9.8-9.5,30.4-12.3,33.2C-160.9,472.6-161.5,472.9-162.2,472.9z"/>
	</g>
	<g>
		<path d="M-162.2,472.9c-0.7,0-1.4-0.3-1.9-0.8c-1-1-1-2.8,0-3.8l26.5-26.5c1-1,2.7-1,3.8,0c1,1,1,2.7,0,3.8l-16.8,16.8
			c6.8-2.4,14.6-4.9,19.6-6.4l13.7-22c0.8-1.3,2.4-1.6,3.7-0.9c1.3,0.8,1.6,2.4,0.9,3.7l-14.3,22.9c-0.3,0.5-0.9,1-1.5,1.1
			c-14.2,4.3-30,9.7-31.9,11.3C-160.9,472.7-161.6,472.9-162.2,472.9z"/>
	</g>
	<g>
		<path d="M-137.8,439.8c1.7-1.7,4.3-1.7,6,0c1.7,1.7,1.7,4.3,0,6c-1.7,1.7-4.3,1.7-6,0C-139.5,444.2-139.5,441.5-137.8,439.8z"/>
	</g>
</g>
</svg>
