<?xml version="1.0" encoding="utf-8"?>
<!-- Generator: Adobe Illustrator 19.0.0, SVG Export Plug-In . SVG Version: 6.00 Build 0)  -->
<svg version="1.1" id="Capa_1" xmlns="http://www.w3.org/2000/svg" xmlns:xlink="http://www.w3.org/1999/xlink" x="0px" y="0px"
	 viewBox="-210 325.9 173.5 190" style="enable-background:new -210 325.9 173.5 190;" xml:space="preserve">
<g id="XMLID_100_">
	<path d="M-45.1,494.1h-156.3c-2,0-3.8-1-4.8-2.7s-1-3.8,0-5.5l78.1-135.4c1-1.7,2.8-2.8,4.8-2.8l0,0c2,0,3.8,1,4.8,2.7l78.2,135.4
		c1,1.7,1,3.8,0,5.5C-41.3,493-43.1,494.1-45.1,494.1z M-191.9,483.1h137.3l-68.7-118.9L-191.9,483.1z"/>
</g>
<g>
	<path d="M-93.1,451h-2.4c-2.4-3.8-5.3-6.9-5.3-7c-0.5-0.6-1.4-0.8-2.2-0.5l-3.4,1.4v-4c0-0.5,0-1.1-0.1-1.6l3.8-1.6
		c0.6-0.3,1-0.8,1.1-1.4c0-0.1,1.4-8,6.1-11.5c0.8-0.6,1-1.8,0.4-2.7c-0.6-0.8-1.8-1-2.7-0.4c-4.8,3.6-6.7,10.3-7.3,12.9l-2.4,1.1
		c-1.3-2.5-3.4-4.6-6-5.8v-0.9c0-2.9-1.7-5.4-4.3-6.9v-2.4c3.2-1,11-3.6,14.9-6.7c0.8-0.6,1-1.9,0.3-2.7c-0.6-0.8-1.9-1-2.7-0.3
		c-4.3,3.4-14.8,6.4-15,6.4c-0.8,0.3-1.4,1-1.4,1.8v2.6c-0.5-0.1-1-0.1-1.4-0.1c-0.5,0-1,0-1.4,0.1v-2.6c0-0.8-0.5-1.6-1.4-1.8
		c-0.1,0-10.6-3-15-6.4c-0.8-0.6-2-0.5-2.7,0.3c-0.6,0.8-0.5,2,0.3,2.7c3.9,3.1,11.7,5.7,14.9,6.7v2.4c-2.6,1.4-4.3,4-4.3,6.9v0.9
		c-2.6,1.2-4.8,3.3-6,5.8l-2.4-1.1c-0.6-2.6-2.5-9.2-7.3-12.9c-0.8-0.6-2.1-0.5-2.7,0.4c-0.6,0.8-0.5,2.1,0.4,2.7
		c4.7,3.5,6.1,11.4,6.1,11.5c0.1,0.6,0.5,1.2,1.1,1.4l3.8,1.6c-0.1,0.5-0.1,1.1-0.1,1.6v4l-3.4-1.4c-0.7-0.4-1.6-0.2-2.2,0.5
		c-0.1,0.2-2.9,3.2-5.3,7h-2.4c-1.1,0-1.9,0.8-1.9,1.9c0,1.1,0.8,1.9,1.9,1.9h3.4c0.6,0,1.3-0.4,1.6-0.9c1.5-2.6,3.4-5,4.5-6.3
		l3.5,1.5v5l-5.9,3.4c-0.8,0.5-1.2,1.4-0.8,2.4c0.1,0.2,1.9,4.8,3.5,8.5l-2.4,2.8c-0.7,0.8-0.6,2,0.2,2.7c0.4,0.4,0.8,0.5,1.3,0.5
		c0.5,0,1.1-0.2,1.4-0.6l3.4-3.7c0.5-0.5,0.6-1.4,0.3-2.1c-1.2-2.4-2.6-5.9-3.4-7.8l3-1.6c1.6,7.6,8.4,13.3,16.5,13.3
		s14.9-5.7,16.5-13.3l3,1.6c-0.8,2-2.2,5.3-3.4,7.8c-0.4,0.7-0.2,1.5,0.3,2.1l3.4,3.7c0.4,0.5,0.9,0.6,1.4,0.6
		c0.5,0,0.9-0.2,1.3-0.5c0.8-0.7,0.9-1.9,0.2-2.7l-2.4-2.8c1.7-3.6,3.4-8.2,3.5-8.5c0.4-0.9,0-1.9-0.8-2.4l-5.9-3.4v-5l3.5-1.5
		c1.1,1.3,3,3.6,4.5,6.3c0.4,0.5,1,0.9,1.6,0.9h3.4c1.1,0,1.9-0.8,1.9-1.9C-91.2,451.9-92,451-93.1,451z M-123.2,424.5
		c3.2,0,5.8,2,5.8,4.4c-0.4,0-0.7-0.1-1.1-0.1h-9.5c-0.4,0-0.7,0-1.1,0.1C-128.9,426.5-126.3,424.5-123.2,424.5z M-127.9,432.7h9.5
		c2.8,0,5.3,1.4,6.9,3.6c-3.9,0.4-7.4,2.4-10.1,5.9c-0.5,0.7-1,1.4-1.4,2c-0.4-0.6-0.9-1.4-1.4-2c-2.7-3.5-6.3-5.5-10.1-5.9
		C-133.2,434.2-130.7,432.7-127.9,432.7z M-136.1,454.8v-13.7c0-0.3,0-0.6,0.1-0.9h0.1c3.3,0,6.1,1.4,8.4,4.3
		c1.4,1.8,2.3,3.7,2.5,4.4v18.7C-131.3,466.7-136.1,461.3-136.1,454.8z M-110.1,454.8c0,6.5-4.8,12-11.1,12.9V449
		c0.3-0.7,1.1-2.5,2.5-4.4c2.4-2.9,5.2-4.3,8.4-4.3h0.1c0,0.3,0.1,0.6,0.1,0.9V454.8L-110.1,454.8z"/>
</g>
</svg>
