<?xml version="1.0" encoding="utf-8"?>
<!-- Generator: Adobe Illustrator 19.0.0, SVG Export Plug-In . SVG Version: 6.00 Build 0)  -->
<svg version="1.1" id="Capa_1" xmlns="http://www.w3.org/2000/svg" xmlns:xlink="http://www.w3.org/1999/xlink" x="0px" y="0px"
	 viewBox="-210 325.9 173.5 190" style="enable-background:new -210 325.9 173.5 190;" xml:space="preserve">
<g id="XMLID_100_">
	<path d="M-45.1,494.1h-156.3c-2,0-3.8-1-4.8-2.7s-1-3.8,0-5.5l78.1-135.4c1-1.7,2.8-2.8,4.8-2.8l0,0c2,0,3.8,1,4.8,2.7l78.2,135.4
		c1,1.7,1,3.8,0,5.5C-41.3,493-43.1,494.1-45.1,494.1z M-191.9,483.1h137.3l-68.7-118.9L-191.9,483.1z"/>
</g>
<g>
	<path d="M-148.6,468.5h5.9v-23c1.2-0.7,2.5-1.6,4-2.7c0.3-18.8-9.8-32.2-9.8-32.2V468.5z"/>
	<path d="M-119.4,460.9c1.6-4.7,2-10.3-1.5-15c-2.7-3.7-2.8-9.4-2.7-10.8l3.9-12l-5-12.8l-5,12.8l3.9,11.9c0,1.4,0,7.1-2.7,10.9
		c-3.5,4.7-3.1,10.2-1.5,14.9c0,0-0.1,0-0.1,0c-2.1,0-3.8,1.7-3.8,3.8c0,2.1,1.7,3.8,3.8,3.8c2.1,0,3.8-1.7,3.8-3.8
		c0-1-0.4-2-1.1-2.6c-1.9-4.5-2.9-10.2,0.6-14.8c1-1.3,1.7-2.9,2.2-4.4c0.5,1.5,1.2,3.1,2.2,4.4c3.2,4.3,2.5,9.5,0.9,13.9
		c-1.5,0.5-2.5,1.9-2.5,3.6c0,2.1,1.7,3.8,3.8,3.8c2.1,0,3.8-1.7,3.8-3.8C-116.5,462.8-117.7,461.3-119.4,460.9z"/>
	<path d="M-97.9,450.3c0-1.9-2.8-2.5-6-3.2c-1.3-0.3-3.4-0.7-4.2-1.2c0.7-0.4,2.9-0.9,4.2-1.2c3.2-0.7,6-1.3,6-3.2
		c0-1.9-2.8-2.5-6-3.2c-1.3-0.3-3.4-0.7-4.2-1.2c0.7-0.4,2.9-0.9,4.2-1.2l0.2,0c0.5-0.1,0.8-0.5,0.8-1v-3.4h1v-19.1h-4v19.1h0.9v2.6
		c-2.9,0.6-5.3,1.3-5.3,3c0,1.9,2.8,2.5,6,3.2c1.3,0.3,3.4,0.7,4.2,1.2c-0.7,0.4-2.9,0.9-4.2,1.2c-3.2,0.7-6,1.3-6,3.2
		s2.8,2.5,6,3.2c1.3,0.3,3.4,0.7,4.2,1.2c-0.7,0.4-2.9,0.9-4.2,1.2c-3.2,0.7-6,1.3-6,3.2c0,1.9,2.8,2.5,6,3.2
		c1.3,0.3,3.4,0.7,4.2,1.2c-0.7,0.4-2.9,0.9-4.2,1.2c-3.2,0.7-6,1.3-6,3.2c0,1.9,2.8,2.5,6,3.2c1.3,0.3,3.4,0.7,4.2,1.2
		c-0.7,0.4-2.9,0.9-4.2,1.2c-3.2,0.7-6,1.3-6,3.2c0,0.6,0.5,1,1,1c0.5,0,1-0.4,1-0.9c0.5-0.5,2.9-1,4.4-1.3c3.2-0.7,6-1.3,6-3.2
		c0-1.9-2.8-2.5-6-3.2c-1.3-0.3-3.4-0.7-4.2-1.2c0.7-0.4,2.9-0.9,4.2-1.2c3.2-0.7,6-1.3,6-3.2c0-1.9-2.8-2.5-6-3.2
		c-1.3-0.3-3.4-0.7-4.2-1.2c0.7-0.4,2.9-0.9,4.2-1.2C-100.7,452.8-97.9,452.2-97.9,450.3z"/>
</g>
</svg>
