<?xml version="1.0" encoding="utf-8"?>
<!-- Generator: Adobe Illustrator 19.0.0, SVG Export Plug-In . SVG Version: 6.00 Build 0)  -->
<svg version="1.1" id="Capa_1" xmlns="http://www.w3.org/2000/svg" xmlns:xlink="http://www.w3.org/1999/xlink" x="0px" y="0px"
	 viewBox="-210 325.9 173.5 190" style="enable-background:new -210 325.9 173.5 190;" xml:space="preserve">
<g id="XMLID_100_">
	<path d="M-45.1,494.1h-156.3c-2,0-3.8-1-4.8-2.7s-1-3.8,0-5.5l78.1-135.4c1-1.7,2.8-2.8,4.8-2.8l0,0c2,0,3.8,1,4.8,2.7l78.2,135.4
		c1,1.7,1,3.8,0,5.5C-41.3,493-43.1,494.1-45.1,494.1z M-191.9,483.1h137.3l-68.7-118.9L-191.9,483.1z"/>
</g>
<path d="M-130.9,474.9l7.7-7.8l7.7,7.8c0.9,0.9,2.4,0.9,3.3,0l7.7-7.8l5.3,5.5c1.5,1.5,4,0.4,4-1.6v-38.7c0-15.4-12.6-28.2-28-28.2
	c-15.4,0-27.9,12.5-27.9,27.9V471c0,2.1,2.5,3.1,4,1.6l5.3-5.5l7.7,7.8C-133.3,475.8-131.8,475.8-130.9,474.9z M-111.6,427.4
	c3.8,0,7,3.1,7,7c0,3.8-3.1,7-7,7s-7-3.1-7-7C-118.6,430.6-115.5,427.4-111.6,427.4z M-134.9,427.4c3.8,0,7,3.1,7,7c0,3.8-3.1,7-7,7
	s-7-3.1-7-7C-141.9,430.6-138.7,427.4-134.9,427.4z"/>
</svg>
