<?xml version="1.0" encoding="utf-8"?>
<!-- Generator: Adobe Illustrator 19.0.0, SVG Export Plug-In . SVG Version: 6.00 Build 0)  -->
<svg version="1.1" id="Capa_1" xmlns="http://www.w3.org/2000/svg" xmlns:xlink="http://www.w3.org/1999/xlink" x="0px" y="0px"
	 viewBox="-210 325.9 173.5 190" style="enable-background:new -210 325.9 173.5 190;" xml:space="preserve">
<style type="text/css">
	.st0{fill:none;}
</style>
<g id="XMLID_100_">
	<path d="M-45.1,494.1h-156.3c-2,0-3.8-1-4.8-2.7s-1-3.8,0-5.5l78.1-135.4c1-1.7,2.8-2.8,4.8-2.8l0,0c2,0,3.8,1,4.8,2.7l78.2,135.4
		c1,1.7,1,3.8,0,5.5C-41.3,493-43.1,494.1-45.1,494.1z M-191.9,483.1h137.3l-68.7-118.9L-191.9,483.1z"/>
</g>
<path class="st0" d="M-102.4,455l12.2-11.9l-12.2-12.1l-0.7-0.7l0.8-0.7l15.4-14.3l-6.2-6.7l-15.7,14.5l-0.8,0.7l-0.8-0.8
	l-12.8-12.8l-13.1,12.9l-0.7,0.8l-0.8-0.7l-15.4-14.7l-6.2,6.7l15.3,14.4l0.8,0.7l-0.8,0.8l-12,12.1l12,12l0.8,0.8l-0.8,0.7
	l-15.4,14.4l6.3,6.7l15.5-14.6l0.8-0.7l0.8,0.8l12.9,12.8l13-12.9l0.8-0.8l0.8,0.7l15.4,14.6l6.3-6.7l-15.4-14.5l-0.8-0.7
	L-102.4,455z M-108.1,423.7l14.8-13.8l4.8,5.1l-14.7,13.6l-0.6,0.6l-5-5L-108.1,423.7z M-135.5,423.7l12.3-12.2l12.1,12.1l1.7,1.7
	l5,5l1.4,1.4l11.3,11.4l-11.4,11.2l-0.6,0.6l-5.1-4.9l0.6-0.6l6.5-6.3l-6.3-6.3l-1.6-1.6l-5-5l-1.6-1.6l-7-7l-7.1,7l-0.6,0.6
	l-5.1-4.9L-135.5,423.7z M-109.1,448.6l-0.8,0.8l-0.8-0.7l-5.8-5.5l6.1-5.7l0.8-0.7l0.8,0.8l5.6,5.6L-109.1,448.6z M-116.3,430.1
	l-0.8,0.8l-6.2,5.9l-6.3-5.9l-0.8-0.7l0.8-0.8l6.3-6.2l6.2,6.2L-116.3,430.1z M-138.4,462.4l-14.7,13.9l-4.9-5.1l14.6-13.7l0.7-0.6
	l5,5L-138.4,462.4z M-111,462.4l-12.2,12.1l-12.1-12l-1.6-1.6l-5-5l-1.5-1.5l-11.3-11.3l11.3-11.3l0.7-0.7l5.1,4.9l-0.7,0.7
	l-6.4,6.4l6.4,6.4l1.6,1.6l5,5l1.5,1.5l7.1,7.1l7.1-7l0.8-0.8l5.1,5L-111,462.4z M-137.6,437.4l0.8-0.8l0.8,0.7l6,5.8l-6,5.6
	l-0.8,0.7l-0.8-0.8l-5.6-5.6L-137.6,437.4z M-130.3,455.9l0.8-0.7l6.3-5.8l6.3,5.9l0.8,0.7l-0.8,0.8l-6.3,6.2l-6.3-6.3L-130.3,455.9
	z M-103.2,457.2l14.7,13.9l-4.9,5.1l-14.6-13.9l-1.6-1.5l-5.1-4.9l-0.3-0.3l-0.4-0.3l-0.8-0.7l-6.9-6.5l-0.2-0.2l-7,6.5l-0.6,0.6
	l-5-5l0.6-0.6l6.7-6.2l0.2-0.2l-6.9-6.5l-1.6-1.5l-5.1-4.9l-1.6-1.5l-14.4-13.9l4.8-5.1l14.6,13.8l1.7,1.6l5.1,4.9l1.5,1.4l6.9,6.5
	l0.2,0.2l7-6.6l0.7-0.6l5.1,5.1l-0.7,0.6l-6.9,6.4l6.6,6.3l1.7,1.6l5.1,4.9L-103.2,457.2z"/>
<polygon class="st0" points="-109.9,447.9 -104.8,443 -109.7,438.2 -115,443.1 "/>
<polygon class="st0" points="-136.8,438.1 -141.7,443 -136.8,448 -131.5,443.1 "/>
<polygon class="st0" points="-128.7,455.9 -123.3,461.5 -117.8,456.1 -123.3,450.9 "/>
<polygon class="st0" points="-117.8,430.1 -123.3,424.7 -128.7,430.1 -123.3,435.2 "/>
<polygon points="-116.2,457.5 -123.3,464.5 -130.3,457.4 -131.8,455.9 -136.8,450.9 -138.3,449.4 -144.7,443.1 -138.3,436.6 
	-137.6,436 -142.8,431.1 -143.5,431.8 -154.7,443.1 -143.4,454.4 -141.9,455.9 -136.9,460.9 -135.4,462.5 -123.3,474.6 -111,462.4 
	-110.3,461.8 -115.5,456.8 "/>
<polygon points="-130.3,428.6 -123.3,421.6 -116.3,428.6 -114.7,430.2 -109.7,435.2 -108.2,436.7 -101.8,443.1 -108.3,449.4 
	-109,450 -103.8,454.9 -103.2,454.3 -91.8,443.1 -103.2,431.7 -104.6,430.3 -109.6,425.3 -111.2,423.6 -123.3,411.5 -135.5,423.7 
	-136.2,424.3 -130.9,429.2 "/>
<polygon points="-103.1,428.7 -88.5,415.1 -93.2,409.9 -108.1,423.7 -108.8,424.3 -103.8,429.3 "/>
<polygon points="-143.4,457.4 -158,471.1 -153.2,476.2 -138.4,462.4 -137.7,461.8 -142.8,456.8 "/>
<polygon points="-104.6,455.9 -109.7,450.9 -111.5,449.4 -118.1,443.1 -111.2,436.7 -110.5,436.1 -115.7,431 -116.3,431.6 
	-123.3,438.2 -123.4,438 -130.3,431.6 -131.8,430.2 -136.9,425.3 -138.6,423.7 -153.3,409.9 -158,415.1 -143.5,428.8 -141.9,430.3 
	-136.8,435.2 -135.2,436.6 -128.4,443.1 -128.5,443.3 -135.2,449.5 -135.9,450.1 -130.8,455 -130.2,454.4 -123.3,447.9 
	-123.1,448.1 -116.3,454.5 -115.5,455.3 -115.1,455.6 -114.7,455.9 -109.6,460.9 -108,462.4 -93.3,476.2 -88.5,471.1 -103.2,457.2 
	"/>
<path d="M-88.7,443.1l-12.9-12.9l16.1-15l-7.7-8.3l-16.5,15.3l-13.6-13.6l-13.8,13.7l-16.3-15.4l-7.7,8.3l16,15.1l-12.7,12.8
	l12.8,12.8l-16,15.1l7.8,8.3l16.3-15.4l13.7,13.7l13.8-13.8l16.2,15.4l7.8-8.3l-16.1-15.2L-88.7,443.1z M-87,471l-6.3,6.7
	l-15.4-14.6l-0.8-0.7l-0.8,0.8l-13,12.8l-12.9-12.9l-0.8-0.8l-0.8,0.7l-15.4,14.7l-6.3-6.7l15.4-14.4l0.8-0.7l-0.9-0.8l-12-12l12-12
	l0.8-0.8l-0.8-0.7l-15.4-14.5l6.2-6.7l15.4,14.6l0.8,0.7l0.8-0.8l13.1-12.9l12.8,12.8l0.8,0.8l0.8-0.7l15.6-14.6l6.2,6.7l-15.3,14.4
	l-0.8,0.8l0.8,0.8l12.1,12.1l-12.2,11.9l-0.8,0.8l0.8,0.7L-87,471z"/>
<path d="M-123.3,449.4l-6.3,5.8l-0.8,0.7l0.8,0.8l6.3,6.3l6.3-6.2l0.8-0.8l-0.8-0.7L-123.3,449.4z M-123.3,461.5l-5.5-5.5l5.5-5.1
	l5.5,5.2L-123.3,461.5z"/>
<path d="M-136,437.3l-0.8-0.7l-0.8,0.8l-5.7,5.7l5.6,5.6l0.8,0.8l0.8-0.7l6-5.6L-136,437.3z M-136.8,448l-4.9-4.9l4.9-4.9l5.2,5
	L-136.8,448z"/>
<path d="M-123.3,436.7l6.2-5.9l0.8-0.7l-0.8-0.8l-6.2-6.2l-6.3,6.2l-0.8,0.8l0.8,0.7L-123.3,436.7z M-123.3,424.7l5.4,5.4l-5.4,5.2
	l-5.5-5.2L-123.3,424.7z"/>
<path d="M-109.6,436.7l-0.8,0.7l-6.1,5.7l5.8,5.5l0.8,0.7l0.8-0.8l5.8-5.6l-5.6-5.6L-109.6,436.7z M-109.9,447.9l-5.1-4.8l5.3-4.9
	l4.8,4.8L-109.9,447.9z"/>
</svg>
