<?xml version="1.0" encoding="utf-8"?>
<!-- Generator: Adobe Illustrator 19.0.0, SVG Export Plug-In . SVG Version: 6.00 Build 0)  -->
<svg version="1.1" id="Capa_1" xmlns="http://www.w3.org/2000/svg" xmlns:xlink="http://www.w3.org/1999/xlink" x="0px" y="0px"
	 viewBox="-210 325.9 173.5 190" style="enable-background:new -210 325.9 173.5 190;" xml:space="preserve">
<g id="XMLID_100_">
	<path d="M-45.1,494.1h-156.3c-2,0-3.8-1-4.8-2.7s-1-3.8,0-5.5l78.1-135.4c1-1.7,2.8-2.8,4.8-2.8l0,0c2,0,3.8,1,4.8,2.7l78.2,135.4
		c1,1.7,1,3.8,0,5.5C-41.3,493-43.1,494.1-45.1,494.1z M-191.9,483.1h137.3l-68.7-118.9L-191.9,483.1z"/>
</g>
<path d="M-90.6,455.9c-2.1-2.7-10.9-5-21-6.1c3.6-1.1,7-2.7,10.2-4.8c5.7-3.8,9.8-8.9,11.1-13.6v-0.1c0.1-0.6,0.2-1.3,0.1-2
	c-0.3-2.4-2.2-4.5-4.7-4.8c-0.7-0.1-1.4-0.1-2.2,0.1c-0.8,0.2-1.7-0.1-2.2-0.7c-0.6-0.6-0.7-1.6-0.4-2.4c0.4-1.1,0.6-2.2,0.5-3.4
	c-0.4-3.3-2.9-6-6.2-6.3c-2.2-0.2-4.3,0.5-5.8,2c-0.6,0.6-1.5,0.9-2.3,0.6h-0.2c-0.9-0.3-1.4-0.9-1.6-1.7c-0.3-1.9-1.3-3.6-2.7-4.8
	c-1.4-1.2-3.3-1.9-5.2-1.9s-3.7,0.6-5.2,1.9c-1.4,1.2-2.4,2.9-2.7,4.8c-0.1,0.8-0.7,1.5-1.6,1.7l-0.1,0.1c-0.8,0.2-1.7,0-2.3-0.6
	c-1.5-1.5-3.7-2.3-5.8-2c-3.3,0.4-6,3-6.2,6.3c-0.1,1.1,0.1,2.3,0.5,3.4c0.4,0.8,0.2,1.7-0.4,2.4c-0.6,0.6-1.4,0.9-2.2,0.7
	c-0.7-0.1-1.4-0.2-2.2-0.1c-2.4,0.4-4.4,2.3-4.7,4.8c-0.1,0.6-0.1,1.4,0.1,2c1.2,4.7,5.3,9.8,11.1,13.6c3.2,2.1,6.6,3.7,10.2,4.8
	c-10.2,1.1-18.9,3.4-21.1,6.2c-0.4,0.5-0.4,1-0.2,1.6c0.1,0.1,0.1,0.3,0.3,0.4l0,0c0,0,0,0.1,0.1,0.1l0,0c0.5,0.7,3.7,5.1,9.7,5.1
	c0.1,0,0.1,0,0.2,0c2,2.7,6.5,7.2,13.1,5.4c1.3-0.4,1.9,0.2,3.2,1.5c1.3,1.4,3,3.2,6.5,3.2s5.2-1.9,6.5-3.2c1.2-1.3,1.8-1.9,3.2-1.5
	c6.6,1.8,11.1-2.7,13.1-5.4c0.1,0,0.1,0,0.2,0c6,0,9.2-4.4,9.7-5.1l0,0c0-0.1,0.1-0.1,0.1-0.1l0,0c0.1-0.1,0.2-0.3,0.3-0.4
	c0.2-0.5,0.1-1.1-0.2-1.5L-90.6,455.9z M-154.3,429.6c0.2-1.5,1.4-2.7,2.9-2.9c0.1,0,0.4-0.1,0.5-0.1c0.3,0,0.6,0,0.8,0.1
	c1.6,0.4,3.3-0.1,4.4-1.4c1.1-1.3,1.4-3,0.7-4.6c-0.3-0.7-0.4-1.5-0.4-2.4c0.2-2.3,2.1-4.2,4.3-4.4c1.5-0.1,3,0.4,4,1.4
	c1.2,1.2,2.9,1.7,4.5,1.1l0.1-0.1c1.7-0.5,2.8-1.9,3.1-3.4c0.2-1.4,0.9-2.6,2-3.5c2.1-1.8,5.5-1.8,7.5,0c1.1,0.9,1.8,2.2,2,3.5
	c0.3,1.7,1.4,2.9,3.1,3.4l0.1,0.1c1.6,0.5,3.3,0.1,4.5-1.1c1.1-1.1,2.5-1.6,4-1.4c2.3,0.3,4.1,2.1,4.3,4.4c0.1,0.8,0,1.6-0.4,2.4
	c-0.6,1.6-0.4,3.4,0.7,4.6c1.1,1.3,2.8,1.8,4.4,1.4c0.4-0.1,0.9-0.1,1.4-0.1c1.4,0.2,2.7,1.4,2.9,2.9c0.1,0.4,0,0.8-0.1,1.2
	c-1.9,7.5-11.9,15.6-23.7,17.8c0-0.5-0.1-0.9-0.1-1.4c5.5-4.7,11.1-12.4,14.2-19.1c0.2-0.6,0-1.2-0.5-1.4c-0.6-0.3-1.2,0-1.4,0.5
	c-3.3,7.2-8.4,13.7-13,17.8c-0.4-0.8-1.1-1.5-1.8-2.2c2-5.7,4.2-13.9,4.1-23c0-0.6-0.5-1.1-1.1-1.1s-1.1,0.5-1.1,1.1
	c0.1,8.5-1.9,16.4-3.9,21.9c-0.9-0.4-1.8-0.5-2.7-0.5c-0.8,0-1.5,0.1-2.2,0.4c-1.9-5.3-3.9-13.1-3.7-21.5c0-0.6-0.5-1.1-1.1-1.1
	c-0.6-0.1-1.1,0.5-1.1,1.1c-0.1,8.9,1.9,17,3.9,22.7c-0.9,0.6-1.5,1.3-2.1,2.2c-4.5-4.2-9.4-10.5-12.6-17.5
	c-0.2-0.6-0.9-0.8-1.4-0.5c-0.6,0.2-0.8,0.9-0.5,1.4c2.9,6.4,8.3,13.9,13.6,18.7c-0.1,0.6-0.2,1.1-0.2,1.7
	c-11.6-2.4-21.2-10.5-23.1-17.7C-154.3,430.5-154.3,430.1-154.3,429.6z M-114.1,460.6h-0.1c-1.1,0.1-2.7,0.5-3.2,1.4
	c0,0-0.3,0.4-1.7,0.8c-1.1,0.3-2.7,0.5-4.2,0.5c-1.5,0-3-0.1-4.2-0.5c-1.4-0.4-1.7-0.8-1.7-0.8c-0.5-0.9-2-1.3-3.2-1.4h-0.1
	c-0.4-0.1-0.7-0.1-1.1-0.1l0,0c-1,0-1.9,0.1-2.7,0.4c-0.5,0.1-1.2,0.3-1.9,0.4c-0.9,0.1-1.7,0.1-2.7,0.1c-1.6-0.1-2.8-0.4-3.5-0.6
	c-0.3-0.1-0.5-0.2-0.6-0.3c0.4-0.4,0.6-0.9,0.5-1.4c-0.1-0.2-0.1-0.5-0.4-0.8l0,0c-0.1-0.1-0.1-0.1-0.2-0.2l0,0
	c-0.1-0.1-0.1-0.1-0.2-0.1c0,0-0.1,0-0.1-0.1c-0.1-0.1-0.1-0.1-0.2-0.1c0,0-0.1,0-0.1-0.1c-0.1,0-0.1-0.1-0.1-0.1
	c2.2-2.2,8-4.8,15.6-5.8c0.3,0.6,0.6,1.1,1.1,1.7c0.5,0.6,1.1,1.1,1.7,1.4c1.1,0.7,2.5,1.1,4,1.1c1.6,0,3.1-0.5,4.3-1.4
	c0.6-0.4,1.1-0.9,1.6-1.5c0.4-0.4,0.6-0.9,0.9-1.4c8,1.1,13.8,3.9,15.7,6l0,0c-0.1,0.1-0.3,0.1-0.4,0.3l0,0
	c-0.1,0.1-0.1,0.2-0.2,0.3l0,0c-0.1,0.1-0.1,0.2-0.1,0.3l0,0c0,0.1-0.1,0.2-0.1,0.3c-0.1,0.5,0.1,0.9,0.5,1.4
	c-0.1,0.1-0.4,0.2-0.6,0.3c-0.7,0.3-1.9,0.5-3.4,0.6c-0.4,0-0.9,0-1.3,0c-0.5,0-0.9-0.1-1.4-0.1c-0.7-0.1-1.4-0.2-1.9-0.4
	c-0.8-0.3-1.8-0.4-2.8-0.4C-113.4,460.5-113.8,460.5-114.1,460.6z M-128.9,448.9c0-0.1,0-0.1,0-0.1c0-0.1,0-0.2,0-0.3
	c0.1-0.8,0.3-1.6,0.6-2.2c0.3-0.6,0.7-1,1.1-1.4c0.6-0.5,1.2-0.9,1.9-1.1c0.4-0.1,0.9-0.2,1.4-0.2c0.7,0,1.4,0.1,2,0.4
	c0.7,0.3,1.4,0.7,1.9,1.3c0.4,0.4,0.6,0.9,0.9,1.4c0.3,0.6,0.5,1.4,0.5,2.2c0,0.1,0,0.1,0,0.1s0,0.1,0,0.1s0,0.2,0,0.3s0,0.1,0,0.2
	c0,0.2-0.1,0.4-0.1,0.6c0,0.1-0.1,0.2-0.1,0.3s0,0.1-0.1,0.2c-0.1,0.2-0.2,0.4-0.3,0.6c-0.1,0.1-0.1,0.1-0.1,0.2
	c0,0.1-0.1,0.1-0.1,0.1c-0.1,0.1-0.1,0.2-0.3,0.4c-0.4,0.6-1,1.1-1.7,1.4c-0.7,0.4-1.6,0.6-2.4,0.6c-0.7,0-1.4-0.1-2.1-0.4
	c-0.7-0.3-1.3-0.8-1.8-1.4c-0.2-0.2-0.4-0.4-0.5-0.6c0-0.1-0.1-0.1-0.1-0.1c-0.1-0.1-0.1-0.2-0.1-0.3c-0.1-0.2-0.2-0.4-0.3-0.6
	c0-0.1,0-0.1-0.1-0.1c-0.1-0.1-0.1-0.2-0.1-0.4s-0.1-0.4-0.1-0.6c0-0.1,0-0.1,0-0.1C-128.8,449.2-128.9,449.1-128.9,448.9z
	 M-151.4,459.4c0.6,0,1.1,0,1.7,0c0.6-0.1,1.3,0,1.9,0.1c0.2,0,0.4,0.1,0.6,0.1c-0.3,0.5-0.3,1-0.2,1.3
	C-149,460.7-150.4,460.1-151.4,459.4z M-113.2,466.5c-2.7-0.7-4,0.8-5.3,2.2c-1.2,1.3-2.4,2.5-4.9,2.5s-3.6-1.3-4.8-2.6
	c-1.2-1.4-2.7-2.9-5.3-2.2c-4.4,1.1-7.5-1-9.5-3c0.9,0.1,1.7,0.2,2,0.2l0,0l0,0l0,0c1.2,0.1,2.4-0.1,3.6-0.2
	c0.6-0.1,1.2-0.2,1.7-0.4c0.7-0.2,1.9-0.4,2.9-0.2h0.1h0.1c0.9,0.1,1.4,0.3,1.5,0.4c0.4,0.8,1.4,1.4,3,1.8c1.4,0.4,3,0.6,4.7,0.6
	l0,0c1.7,0,3.4-0.2,4.7-0.6c1.5-0.4,2.5-1,3-1.8c0.1-0.1,0.6-0.3,1.5-0.4h0.1c0.3,0,0.5-0.1,0.8-0.1c0.8,0,1.6,0.1,2.2,0.3
	c1.4,0.4,3.4,0.6,5.3,0.6l0,0c0.3,0,1.1-0.1,2-0.2C-105.6,465.5-108.8,467.6-113.2,466.5z M-99.3,460.9c0.1-0.3,0.1-0.8-0.2-1.3l0,0
	c0.6-0.1,1.6-0.2,2.4-0.1c0.6,0.1,1.1,0.1,1.7,0C-96.3,460.1-97.7,460.7-99.3,460.9z"/>
</svg>
