<?xml version="1.0" encoding="utf-8"?>
<!-- Generator: Adobe Illustrator 19.0.0, SVG Export Plug-In . SVG Version: 6.00 Build 0)  -->
<svg version="1.1" id="Capa_1" xmlns="http://www.w3.org/2000/svg" xmlns:xlink="http://www.w3.org/1999/xlink" x="0px" y="0px"
	 viewBox="-210 325.9 173.5 190" style="enable-background:new -210 325.9 173.5 190;" xml:space="preserve">
<g id="XMLID_100_">
	<path d="M-45.1,494.1h-156.3c-2,0-3.8-1-4.8-2.7s-1-3.8,0-5.5l78.1-135.4c1-1.7,2.8-2.8,4.8-2.8l0,0c2,0,3.8,1,4.8,2.7l78.2,135.4
		c1,1.7,1,3.8,0,5.5C-41.3,493-43.1,494.1-45.1,494.1z M-191.9,483.1h137.3l-68.7-118.9L-191.9,483.1z"/>
</g>
<rect x="-125.4" y="411.6" width="4.3" height="5.4"/>
<path d="M-99.8,420.9c-1.4-1.4-3.3-2.3-5.4-2.5h-3.5v-5h-4.3v5H-130v4.3h5.3v22h-7.2v-34.9h-4.3v8.6h-12.9v4.3h12.9v22h-7.2v-20.6
	h-4.3v20.6h-1.4v4.3h12.9v5h-1.4v4.3h20.9c4.3,0,7.8-3.5,7.8-7.8v-1.5h3.5c4.5-0.3,8-4,8-8.5v-14.2
	C-97.5,424.2-98.4,422.3-99.8,420.9z M-124.7,454.1h-7.2v-5h7.2V454.1z M-101.7,440.6c0,2.3-1.9,4.2-4.2,4.2h-12.9v4.3h5.7v1.5
	c0,1.9-1.6,3.5-3.5,3.5h-3.7v-31.3h7.2v20.6h4.3v-20.6h3c2.3,0,4.2,1.9,4.2,4.2V440.6z"/>
<g>
	<path d="M-98.6,463.4c-3,0-5.5,2.4-5.5,5.5c0,3,2.4,5.5,5.5,5.5c3,0,5.5-2.4,5.5-5.5C-93.1,465.9-95.6,463.4-98.6,463.4z
		 M-98.6,472.9c-2.2,0-4-1.8-4-4c0-2.2,1.8-4,4-4c2.2,0,4,1.8,4,4C-94.6,471.1-96.4,472.9-98.6,472.9z"/>
	<circle cx="-147.9" cy="468.9" r="5.5"/>
	<circle cx="-135.6" cy="468.9" r="5.5"/>
	<circle cx="-123.3" cy="468.9" r="5.5"/>
	<circle cx="-110.9" cy="468.9" r="5.5"/>
</g>
</svg>
