<?xml version="1.0" encoding="utf-8"?>
<!-- Generator: Adobe Illustrator 19.0.0, SVG Export Plug-In . SVG Version: 6.00 Build 0)  -->
<svg version="1.1" id="Capa_1" xmlns="http://www.w3.org/2000/svg" xmlns:xlink="http://www.w3.org/1999/xlink" x="0px" y="0px"
	 viewBox="-210 325.9 173.5 190" style="enable-background:new -210 325.9 173.5 190;" xml:space="preserve">
<g>
	<path d="M-47.5,439.2c-1.5-1.3-2.8-2.3-2.9-2.4c-0.1-0.1-0.1-0.2,0-1.3c0.8-5.9,0.9-11.7,0.3-17.8c-1.4-14.2-6.9-27.4-15.8-38.6
		c-5.7-7.2-12.9-13.3-20.9-17.9c-2.5-1.4-6-3.1-8.5-4.2c-0.3-0.1-0.6-0.3-0.7-0.4c0-0.1-0.7-3.1-1.5-6.8c-0.8-3.7-1.5-6.8-1.5-6.8
		c0-0.1-1.3-0.1-24.2-0.1h-24.2v0.2c0,0.1-0.5,3.1-1.2,6.7c-0.6,3.6-1.1,6.5-1.2,6.6c0,0.1-0.5,0.3-1.1,0.5
		c-11.6,4.7-22.1,12.5-29.9,22.3c-8.1,10.1-13.4,22.2-15.3,34.9c-0.1,0.7-0.2,1.4-0.3,1.5c-0.1,0.4-0.4,3.2-0.6,5.7
		c-0.1,1.7-0.1,6.1,0,7.9c0.1,1.6,0.2,3.2,0.5,5.1l0.2,1.4l-0.3,0.3c-0.6,0.6-1.5,1.3-2.3,2.1c-0.5,0.4-1.1,1-1.4,1.3
		c-0.6,0.6-0.7,0.7-3.9,3.6c-1.4,1.3-2.5,2.3-2.5,2.4c0,0,0.9,1.7,2.1,3.7s6.6,11.4,12.1,20.9s10,17.3,10,17.3s0.6-0.2,1.3-0.5
		c0.7-0.2,2.1-0.8,3.3-1.2c6.6-2.4,8.2-3,8.3-3c0,0,0.3,0.2,0.5,0.4c1.4,1.1,4.7,3.5,6.9,4.9c3.7,2.3,8.6,4.7,13.2,6.4
		c10.9,4.1,23,5.5,34.5,4.1c6.2-0.7,12.4-2.3,18-4.5c0.7-0.3,1.4-0.5,1.5-0.6c0.4-0.1,2.8-1.2,5.2-2.4c3.8-1.9,7.2-4,10.7-6.7
		l1.4-1.1l0.4,0.1c0.2,0.1,0.5,0.1,0.6,0.2c0.4,0.1,3.8,1.2,4.3,1.3c0.9,0.3,4.9,1.5,5.1,1.6c0.1,0,0.5,0.2,1,0.3
		c0.4,0.1,1.1,0.3,1.5,0.5c0.4,0.1,0.7,0.2,0.8,0.2c0.1,0,24.2-41.8,24.2-41.9C-40.1,445.5-41.5,444.2-47.5,439.2z M-45.4,447.1
		c0,0.1-4.6,7.9-10.1,17.5c-6,10.4-10.1,17.4-10.1,17.4c-0.1,0-0.7-0.2-1.3-0.4c-0.7-0.2-1.3-0.4-1.5-0.4c-0.3-0.1-3.4-1-4-1.2
		c-0.2-0.1-0.7-0.2-1.1-0.3c-0.4-0.1-0.7-0.2-0.8-0.3c-0.1,0-0.3-0.1-0.5-0.1s-0.4-0.1-0.5-0.1s-0.4-0.1-0.7-0.2
		c-0.3-0.1-0.9-0.3-1.4-0.4c-0.9-0.3-0.9-0.3-1.1-0.1c-0.1,0.1-0.7,0.5-1.3,1c-1.8,1.5-5.2,3.9-5.4,3.9c0,0-0.4,0.2-0.7,0.4
		c-3.5,2.3-7.9,4.5-11.9,6.1c-6.8,2.7-13.5,4.2-21.1,4.8c-1.7,0.1-7.2,0.1-8.9,0c-9.8-0.7-18.4-3.1-26.7-7.3
		c-4.3-2.2-8.9-5.1-12.3-7.9c-0.3-0.2-0.6-0.4-0.6-0.5c0,0-0.4-0.3-0.8-0.7l-0.7-0.6l-0.4,0.1c-0.3,0.1-0.8,0.2-3.2,1.1
		c-0.7,0.3-2.3,0.9-3.7,1.3c-1.3,0.5-3,1.1-3.7,1.3c-0.7,0.3-1.3,0.5-1.3,0.5s-4.6-7.9-10.2-17.5l-10.1-17.5l0.3-0.2
		c0.1-0.1,0.8-0.8,1.5-1.4c0.7-0.6,1.5-1.4,1.7-1.6c0.3-0.3,0.8-0.8,1.2-1.1c0.4-0.4,0.9-0.8,1.1-1s0.5-0.5,0.7-0.6
		c0.5-0.5,2-1.8,2.2-2c0.1-0.1,0.4-0.4,0.7-0.7l0.5-0.5l-0.1-0.5c-0.4-1.9-0.8-5.5-0.8-7c0-0.6,0-2.2-0.1-3.6
		c-0.1-4,0.1-7.8,0.7-11.7c2.9-19.3,13.8-36.4,30-47.2c4.7-3.2,10-5.8,15.1-7.6c0.9-0.3,0.9-0.3,1-0.6c0.1-0.3,0.6-3,1.5-8.3
		c0.4-2.1,0.7-4,0.7-4.1v-0.2h20.2c19.2,0,20.2,0,20.3,0.1c0.1,0.2,1.8,7.5,2.4,10.1c0.3,1.3,0.6,2.5,0.6,2.6
		c0.1,0.2,0.1,0.3,1.5,0.8c3,1.1,6.5,2.8,8.9,4.1c7.9,4.4,14.8,10.2,20.4,17.2c8.7,10.8,14,24,15.1,37.9c0.2,3,0.3,8.3,0.1,10.8
		c-0.2,2.4-0.6,5.2-1,7.6l-0.1,0.5l0.3,0.3c0.2,0.2,0.6,0.6,1,0.9s0.7,0.6,0.8,0.6c0,0,0.4,0.4,0.9,0.7c0.4,0.3,1.1,0.9,1.5,1.2
		c0.4,0.3,1.7,1.4,2.9,2.4C-45.1,447.1-45.3,446.9-45.4,447.1z"/>
	<path d="M-76.2,449.3c-1.3-0.8-2.5-1.5-3.1-1.8c3.2-6.5,5-13.8,5-21.5c0-8.9-2.4-17.2-6.5-24.5c-0.6-1.1-1.3-2.2-2-3.3
		c-3-4.5-6.9-8.6-11.3-11.9c-2.4-1.8-4.6-3.2-7.5-4.6c-5.3-2.6-10.9-4.3-16.5-4.8c-0.9-0.1-1.7-0.2-1.9-0.2h-0.3v-3.9v-3.9h-3h-3
		v3.9v3.9h-0.3c-0.2,0-1,0.1-1.9,0.2c-7.6,0.8-15.3,3.6-21.9,7.9c-4.6,3.1-8.8,7-12.1,11.5c-6.3,8.3-10,18.5-10,29.7
		c0,7.9,1.9,15.3,5.2,21.9c-0.7,0.4-1.8,1.1-3.1,1.8c-2,1.2-3.7,2.2-3.8,2.2c-0.1,0.1,0.1,0.4,1.4,2.6c0.8,1.4,1.5,2.6,1.5,2.6
		s1.7-1,3.8-2.2c1.3-0.8,2.5-1.4,3.2-1.8c8.8,13.3,23.9,22,40.9,22c17.2,0,32.4-8.9,41.1-22.4c0.7,0.4,1.8,1,3.2,1.8
		c2,1.2,3.7,2.2,3.8,2.2c0.1,0,0.4-0.5,1.6-2.5c1.3-2.3,1.5-2.6,1.4-2.7C-72.5,451.4-74.2,450.4-76.2,449.3z M-115.6,464.2
		c-0.4,0.1-0.9,0.2-1.3,0.2c-0.3,0-0.5,0.1-0.8,0.1c-0.2,0-0.3,0-0.5,0.1c-5.4,0.7-10.8,0.3-16.1-1.2c-0.1,0-0.3-0.1-0.4-0.1
		c-0.3-0.1-0.6-0.2-1-0.3c-15.6-5.1-27-19.8-27-37.2c0-21.6,17.5-39.1,39.1-39.1s39.1,17.5,39.1,39.1
		C-84.3,444.8-97.8,460.5-115.6,464.2L-115.6,464.2z"/>
	<path d="M-91.1,448c-0.4-0.7-1.1-1.4-1.9-1.9c1.3-1.1,1.9-2.4,1.9-3.9c0-1.2-0.3-2.2-1-3.1c-0.6-0.7-1.4-1.2-2.3-1.7h3.1v-19.6h0
		l-0.1-20.5h-5.8l-6.7,11.2l-6.9-11.2h-5.8v18.6l-8.2-18.6h-7l-9.1,20.7c-0.9-0.3-1.9-0.4-2.9-0.5c0.3-0.2,0.6-0.4,0.9-0.7
		c1.5-1.4,2.3-3.5,2.3-6.4v-12.9h-14.2v5.4h7.2v8c0,0.9-0.1,1.5-0.5,1.9c-0.4,0.4-1,0.6-1.7,0.6c-0.6,0-1.2-0.2-1.7-0.5
		c-0.5-0.4-1.1-0.9-1.6-1.6l-3.9,4.5c0.9,1.1,2,1.8,3.3,2.4c1,0.3,2.1,0.6,3.3,0.7c-1.6,0.8-2.9,2-3.7,3.5c-0.9,1.6-1.4,3.3-1.4,5.3
		s0.5,3.7,1.4,5.3c0.9,1.4,2.1,2.6,3.7,3.5c-1.2,0.2-2.2,0.5-3.1,1c-1.5,0.8-2.6,1.9-3.3,3.3l5,2.5c0.3-0.5,0.7-1,1.2-1.3
		s1.1-0.5,1.7-0.5s1.1,0.1,1.4,0.4c0.3,0.2,0.5,0.6,0.5,1.1c0,0.4-0.1,0.8-0.3,1.2c-0.2,0.4-0.6,0.9-1.2,1.5l-7.1,6.6v4.1h15.7v-5.1
		v-0.1h-6.7l2.8-2.5c1.4-1.2,2.2-2.3,2.7-3.2c0.5-0.9,0.7-1.9,0.7-3c0-1.2-0.3-2.3-1-3.2c-0.4-0.6-0.9-1.1-1.5-1.5
		c1.2-0.1,2.4-0.4,3.4-0.9c1.5-0.7,2.7-1.6,3.7-2.9l-4.2-3.7c-1.2,1.5-2.7,2.3-4.3,2.3c-1.3,0-2.5-0.4-3.3-1.3
		c-0.9-0.9-1.3-2.1-1.3-3.6s0.5-2.7,1.3-3.6c0.8-0.9,1.9-1.3,3.3-1.3c1.7,0,3.1,0.8,4.3,2.3l4.2-3.7c-1-1.3-2.2-2.2-3.7-2.9
		c-0.1-0.1-0.3-0.1-0.4-0.1h6.2l1.4-3.7h8l1.2,2.6c-0.3,0-0.6,0-0.8,0c-2.1,0-4,0.4-5.7,1.3c-1.6,0.9-2.9,2.1-3.9,3.7
		c-0.9,1.6-1.4,3.3-1.4,5.3s0.4,3.7,1.4,5.3c0.9,1.6,2.1,2.7,3.8,3.6c-1.6,0-3.2,0.4-4.5,1.2c-1.3,0.8-2.3,2-3.1,3.5
		c-0.7,1.5-1.1,3.4-1.1,5.5c0,2.1,0.3,4,1.1,5.5c0.7,1.5,1.8,2.7,3.1,3.5c1.4,0.8,2.9,1.2,4.6,1.2s3.3-0.4,4.6-1.2s2.3-2,3.1-3.5
		c0.7-1.5,1.1-3.4,1.1-5.5c0-2.1-0.3-4-1.1-5.5c-0.7-1.4-1.7-2.5-2.9-3.3c0.3,0,0.6,0,0.9,0c1.4,0,2.7-0.2,3.9-0.6v4.5h3.4v14.6h6.6
		v-19h6c-0.9,0.4-1.6,1-2.1,1.7c-0.7,0.9-1,1.9-1,3.1c0,1.6,0.6,2.9,1.9,3.9c-0.8,0.5-1.4,1.1-1.9,1.9c-0.5,0.8-0.7,1.6-0.7,2.6
		c0,1.2,0.4,2.3,1.1,3.3c0.7,1,1.8,1.7,3.1,2.2c1.4,0.5,2.9,0.8,4.6,0.8s3.3-0.3,4.6-0.8c1.3-0.5,2.4-1.2,3.1-2.2
		c0.7-0.9,1.1-2,1.1-3.3C-90.4,449.6-90.6,448.8-91.1,448z M-130.5,409.6l2-5.3l2,5.3H-130.5z M-129.7,451.6c-1.5,0-2.2-1.7-2.2-5
		s0.7-5,2.2-5s2.2,1.7,2.2,5S-128.3,451.6-129.7,451.6z M-121.9,431.9c-0.7,0.4-1.4,0.6-2.2,0.6c-0.8,0-1.5-0.2-2.2-0.6
		c-0.7-0.4-1.2-1-1.6-1.7c-0.4-0.7-0.6-1.6-0.6-2.6s0.2-1.9,0.6-2.6c0.4-0.7,1-1.3,1.6-1.7c0.6-0.4,1.4-0.6,2.2-0.6
		c0.8,0,1.5,0.2,2.2,0.6c0.7,0.4,1.2,1,1.6,1.7c0.4,0.7,0.6,1.6,0.6,2.6s-0.2,1.9-0.6,2.6C-120.7,430.9-121.2,431.5-121.9,431.9z
		 M-118.9,436.8c0.1-0.1,0.3-0.1,0.5-0.2c1.6-0.9,2.9-2.1,3.9-3.7c0.9-1.6,1.4-3.3,1.4-5.3s-0.4-3.7-1.4-5.3
		c-0.9-1.6-2.2-2.8-3.9-3.7c-0.2-0.1-0.4-0.2-0.6-0.2h2.4h1.1h5v18.4H-118.9z M-110.1,417.8v-8.7l4.6,7.4h3.1l4.7-7.7v17.9l-7.4-8.9
		H-110.1z M-104.1,437.4v-8.9l6.7,8c-0.6-0.1-1.1-0.1-1.8-0.1c-1.6,0-3,0.2-4.2,0.7C-103.7,437.2-103.9,437.3-104.1,437.4z
		 M-97.7,442.5c0,0.5-0.1,0.9-0.4,1.2c-0.3,0.3-0.6,0.4-1.1,0.4c-0.4,0-0.8-0.1-1.1-0.4c-0.3-0.3-0.4-0.7-0.4-1.2s0.1-0.9,0.4-1.2
		c0.3-0.3,0.7-0.4,1.1-0.4c0.4,0,0.8,0.1,1.1,0.4C-97.8,441.6-97.7,442-97.7,442.5z M-97.6,451.9c-0.4,0.4-0.9,0.5-1.6,0.6
		c-0.7,0-1.2-0.2-1.6-0.6c-0.4-0.4-0.6-0.9-0.6-1.5c0-0.6,0.2-1.1,0.6-1.5c0.4-0.4,1-0.6,1.6-0.6c0.7,0,1.2,0.2,1.6,0.6
		c0.4,0.4,0.6,0.9,0.6,1.5C-97,451-97.2,451.5-97.6,451.9z"/>
</g>
</svg>
