<?xml version="1.0" encoding="utf-8"?>
<!-- Generator: Adobe Illustrator 19.0.0, SVG Export Plug-In . SVG Version: 6.00 Build 0)  -->
<svg version="1.1" id="Capa_1" xmlns="http://www.w3.org/2000/svg" xmlns:xlink="http://www.w3.org/1999/xlink" x="0px" y="0px"
	 viewBox="-210 325.9 173.5 190" style="enable-background:new -210 325.9 173.5 190;" xml:space="preserve">
<g id="XMLID_100_">
	<path d="M-45.1,494.1h-156.3c-2,0-3.8-1-4.8-2.7s-1-3.8,0-5.5l78.1-135.4c1-1.7,2.8-2.8,4.8-2.8l0,0c2,0,3.8,1,4.8,2.7l78.2,135.4
		c1,1.7,1,3.8,0,5.5C-41.3,493-43.1,494.1-45.1,494.1z M-191.9,483.1h137.3l-68.7-118.9L-191.9,483.1z"/>
</g>
<g>
	<path d="M-123.3,410.6c-18.3,0-33.3,14.9-33.3,33.3c0,18.3,14.9,33.3,33.3,33.3S-90,462.2-90,443.9
		C-90,425.6-104.9,410.6-123.3,410.6z M-123.3,470.2c-14.5,0-26.3-11.8-26.3-26.3c0-14.5,11.8-26.3,26.3-26.3S-97,429.4-97,443.9
		C-97,458.4-108.8,470.2-123.3,470.2z"/>
	<path d="M-138.2,431.4c3.3,2.2,7.8,1.4,10-1.9c1.6-2.4,0.1-4-1-2.4c-2.4,3.6-7.3,4.5-10.9,2.1c-0.1-0.1-0.3-0.2-0.4-0.3
		C-139.9,429.9-139.2,430.8-138.2,431.4z"/>
	<path d="M-108.3,431.4c1-0.7,1.8-1.5,2.3-2.5c-0.1,0.1-0.3,0.2-0.4,0.3c-3.6,2.4-8.5,1.5-10.9-2.1c-1.1-1.6-2.6,0-1,2.4
		C-116.1,432.8-111.6,433.7-108.3,431.4z"/>
	<path d="M-128,444.9c0.3-1.1,0.2-4.2-8.7-9.5l-1.1,1.8c4.4,2.7,8.2,6,7.8,7.1c-0.3,1.1-5.4,1.7-10.6,1.4l-0.1,2.1
		c0.7,0,1.9,0.1,3.2,0.1C-133.8,447.8-128.8,447.4-128,444.9z"/>
	<path d="M-116.5,444.3c-0.3-1.1,3.4-4.4,7.8-7.1l-1.1-1.8c-8.9,5.3-9.1,8.4-8.7,9.5c0.8,2.5,5.8,2.9,9.5,2.9c1.3,0,2.5-0.1,3.2-0.1
		l-0.1-2.1C-111.1,446-116.2,445.3-116.5,444.3z"/>
	<path d="M-123.3,463.3c5.4,0,9.8-4.4,9.8-9.8h-19.7C-133.1,458.9-128.7,463.3-123.3,463.3z"/>
</g>
</svg>
