<?xml version="1.0" encoding="utf-8"?>
<!-- Generator: Adobe Illustrator 19.0.0, SVG Export Plug-In . SVG Version: 6.00 Build 0)  -->
<svg version="1.1" id="Capa_1" xmlns="http://www.w3.org/2000/svg" xmlns:xlink="http://www.w3.org/1999/xlink" x="0px" y="0px"
	 viewBox="-210 325.9 173.5 190" style="enable-background:new -210 325.9 173.5 190;" xml:space="preserve">
<g>
	<path d="M-114.8,429.9c-0.9,0-1.7-0.5-2.2-1.2c-0.5-0.8-0.5-1.7-0.1-2.5l25.4-50.8l-33.5-0.6l-27.7,65.2l30.2,0c0,0,0,0,0,0
		c0.8,0,1.6,0.4,2.1,1.1c0.5,0.7,0.6,1.6,0.3,2.4l-17.7,47.6l50.6-61.1H-114.8z"/>
	<path d="M-60.9,395.5C-60.9,395.5-60.9,395.5-60.9,395.5c-0.4,0.1-0.9,0.2-1.4,0.3c-0.1,0-0.2,0-0.2,0c-0.5,0.1-1.1,0.1-1.6,0.1
		c-7.5,0-13.7-6.1-13.7-13.7c0-0.6,0-1.1,0.1-1.7c0-0.2,0.1-0.3,0.1-0.5c0.1-0.4,0.1-0.8,0.2-1.1c0-0.2,0.1-0.4,0.2-0.6
		c0.1-0.4,0.2-0.7,0.4-1.1c0.1-0.2,0.1-0.3,0.2-0.5c0.2-0.5,0.5-1,0.7-1.5c0-0.1,0.1-0.1,0.1-0.2c0.2-0.4,0.5-0.8,0.8-1.2
		c0.1-0.1,0.2-0.3,0.3-0.4c0.2-0.3,0.5-0.6,0.7-0.8c0.1-0.1,0.3-0.3,0.4-0.4c0.1-0.1,0.2-0.2,0.2-0.2
		c-11.5-13.6-28.1-21.3-46.1-21.3c-27.2,0-50.8,17.9-58.2,43.8c0.5,0.2,1.1,0.5,1.6,0.7c0.2,0.1,0.4,0.2,0.6,0.3
		c0.5,0.3,1,0.7,1.5,1c0.2,0.2,0.4,0.4,0.6,0.6c0.3,0.3,0.7,0.6,1,1c0.2,0.2,0.4,0.5,0.6,0.7c0.3,0.3,0.5,0.7,0.8,1.1
		c0.2,0.3,0.3,0.5,0.5,0.8c0.2,0.4,0.4,0.8,0.6,1.2c0.1,0.3,0.2,0.5,0.3,0.8c0.2,0.5,0.3,1,0.4,1.5c0.1,0.2,0.1,0.5,0.2,0.7
		c0.1,0.8,0.2,1.5,0.2,2.3c0,0.9-0.1,1.7-0.2,2.5c0,0.3-0.1,0.5-0.2,0.8c-0.1,0.5-0.3,1.1-0.5,1.6c-0.1,0.3-0.2,0.6-0.4,0.8
		c-0.2,0.5-0.4,0.9-0.7,1.3c-0.2,0.3-0.3,0.5-0.5,0.8c-0.3,0.4-0.6,0.8-0.9,1.1c-0.2,0.2-0.4,0.5-0.6,0.7c-0.4,0.4-0.7,0.7-1.1,1
		c-0.2,0.2-0.5,0.4-0.7,0.5c-0.5,0.3-0.9,0.6-1.4,0.8c-0.2,0.1-0.4,0.2-0.7,0.4c-0.7,0.3-1.5,0.6-2.3,0.8
		c3.6,23.4,20.7,42.7,43.6,49l9.1-24.4l-30.4,0c0,0,0,0,0,0c-0.9,0-1.7-0.4-2.2-1.2c-0.5-0.7-0.6-1.6-0.2-2.4l29.9-70.4
		c0.4-1,1.3-1.6,2.4-1.6c0,0,0,0,0,0l39.4,0.6c0.9,0,1.7,0.5,2.2,1.2c0.5,0.8,0.5,1.7,0.1,2.5l-25.4,50.7h28.7c1,0,1.9,0.6,2.3,1.5
		c0.4,0.9,0.3,2-0.3,2.8l-35.3,42.7c31.4-2.1,56.3-28.4,56.3-60.3C-58.8,405.9-59.5,400.6-60.9,395.5z"/>
	<path d="M-60.4,389.8c3-1.4,4.8-4.3,4.8-7.6c0-4.7-3.8-8.5-8.5-8.5c-1.4,0-2.8,0.4-4.1,1.1c-2.3,1.3-3.9,3.6-4.2,6.2
		c-0.1,0.4-0.1,0.8-0.1,1.2c0,4.7,3.8,8.5,8.5,8.5C-62.8,390.7-61.5,390.4-60.4,389.8z"/>
	<path d="M-173.9,407.3c0-4.2-3-7.7-7.1-8.4c-0.5-0.1-0.9-0.1-1.4-0.1c-4.7,0-8.5,3.8-8.5,8.5c0,4.7,3.8,8.5,8.5,8.5
		c0.1,0,0.2,0,0.3,0C-177.5,415.6-173.9,411.9-173.9,407.3z"/>
</g>
</svg>
