<?xml version="1.0" encoding="utf-8"?>
<!-- Generator: Adobe Illustrator 19.0.0, SVG Export Plug-In . SVG Version: 6.00 Build 0)  -->
<svg version="1.1" id="Capa_1" xmlns="http://www.w3.org/2000/svg" xmlns:xlink="http://www.w3.org/1999/xlink" x="0px" y="0px"
	 viewBox="-210 325.9 173.5 190" style="enable-background:new -210 325.9 173.5 190;" xml:space="preserve">
<g id="XMLID_100_">
	<path d="M-45.1,494.1h-156.3c-2,0-3.8-1-4.8-2.7s-1-3.8,0-5.5l78.1-135.4c1-1.7,2.8-2.8,4.8-2.8l0,0c2,0,3.8,1,4.8,2.7l78.2,135.4
		c1,1.7,1,3.8,0,5.5C-41.3,493-43.1,494.1-45.1,494.1z M-191.9,483.1h137.3l-68.7-118.9L-191.9,483.1z"/>
</g>
<g>
	<path d="M-92,432.3c0-4.4-3.2-8.1-7.3-8.8c0.1-0.5,0.1-0.9,0.1-1.4c0-5.2-4.2-9.4-9.4-9.4c-1.3,0-2.7,0.3-3.9,0.8
		c-1.9-4.1-6.1-6.9-10.8-6.9c-4.7,0-8.9,2.8-10.8,6.9c-1.2-0.5-2.5-0.8-3.9-0.8c-5.2,0-9.4,4.2-9.4,9.4c0,0.5,0,1,0.1,1.4
		c-4.2,0.8-7.3,4.5-7.3,8.8c0,4.4,3.1,8,7.2,8.8c0,0.1,0,0.2,0,0.3c0,5.2,4.2,9.4,9.4,9.4c2.1,0,4.2-0.7,5.8-2
		c0.8,0.9,1.7,1.6,2.7,2.2v10c-8.6,1.1-14.1,4.4-14.1,8.4c0,3.9,5.2,7.1,13.4,8.3c-0.1,0.3-0.2,0.6-0.3,0.9c-0.8,2-2.1,3.8-3.7,5.2
		c-0.6,0.5-0.6,1.4-0.1,2c0.3,0.3,0.7,0.5,1,0.5c0.3,0,0.7-0.1,0.9-0.3c1.9-1.7,3.4-3.8,4.4-6.2c0.2-0.5,0.4-1.1,0.5-1.6
		c1.3,0.1,2.6,0.2,4,0.2c1.3,0,2.7-0.1,4-0.2c0.2,0.5,0.3,1.1,0.5,1.6c1,2.4,2.5,4.5,4.4,6.2c0.3,0.2,0.6,0.3,0.9,0.3
		c0.4,0,0.8-0.2,1-0.5c0.5-0.6,0.5-1.5-0.1-2c-1.6-1.4-2.9-3.2-3.7-5.2c-0.1-0.3-0.2-0.6-0.3-0.9c8.2-1.2,13.4-4.4,13.4-8.3
		c0-4.1-5.5-7.3-14.1-8.4v-10c1-0.6,1.9-1.3,2.7-2.2c1.6,1.3,3.7,2,5.8,2c5.2,0,9.4-4.2,9.4-9.4c0-0.1,0-0.2,0-0.3
		C-95.1,440.3-92,436.7-92,432.3L-92,432.3z M-140.7,469.4c0-2.1,4.2-4.6,11.3-5.6v9.6c0,0.5,0,1-0.1,1.6
		C-136.5,474-140.7,471.4-140.7,469.4L-140.7,469.4z M-105.8,469.4c0,2-4.2,4.6-11.2,5.6c-0.1-0.5-0.1-1-0.1-1.6v-9.6
		C-110,464.8-105.8,467.3-105.8,469.4L-105.8,469.4z M-119.8,475.3c-2.3,0.2-4.6,0.2-6.9,0c0.1-0.6,0.1-1.2,0.1-1.9v-21.2
		c1.1,0.3,2.2,0.5,3.3,0.5c1.1,0,2.3-0.2,3.3-0.5v21.2C-119.9,474-119.9,474.7-119.8,475.3L-119.8,475.3z M-100.8,438.5l-1.6,0
		l0.3,1.6c0.1,0.4,0.1,0.8,0.1,1.3c0,3.6-3,6.6-6.6,6.6c-1.9,0-3.7-0.8-4.9-2.2l-1.2-1.3l-1,1.5c-1.7,2.5-4.5,4-7.5,4
		s-5.8-1.5-7.5-4l-1-1.5l-1.2,1.3c-1.3,1.4-3.1,2.2-4.9,2.2c-3.6,0-6.6-3-6.6-6.6c0-0.4,0-0.8,0.1-1.3l0.3-1.6l-1.6,0
		c-3.4-0.1-6-2.8-6-6.2c0-3.4,2.8-6.2,6.2-6.2l2.1,0l-0.7-1.9c-0.3-0.7-0.4-1.4-0.4-2.2c0-3.6,3-6.6,6.6-6.6c1.4,0,2.7,0.4,3.8,1.2
		l1.6,1.1l0.5-1.9c1.1-3.8,4.7-6.5,8.7-6.5c4,0,7.6,2.7,8.7,6.5l0.5,1.9l1.6-1.1c1.1-0.8,2.4-1.2,3.8-1.2c3.6,0,6.6,3,6.6,6.6
		c0,0.8-0.1,1.5-0.4,2.2l-0.7,1.9l2,0l0.1,0c3.4,0,6.2,2.8,6.2,6.2C-94.8,435.7-97.4,438.4-100.8,438.5L-100.8,438.5z M-100.8,438.5
		"/>
</g>
<g>
	<path d="M-125,433.4l-1.2,1.3v3.8h-5.1v-15.4h5.1v5.6l5.1-5.6h5.7l-6.2,6.8l6.5,8.6h-6L-125,433.4z"/>
</g>
</svg>
