<?xml version="1.0" encoding="utf-8"?>
<!-- Generator: Adobe Illustrator 19.0.0, SVG Export Plug-In . SVG Version: 6.00 Build 0)  -->
<svg version="1.1" id="Capa_1" xmlns="http://www.w3.org/2000/svg" xmlns:xlink="http://www.w3.org/1999/xlink" x="0px" y="0px"
	 viewBox="-210 325.9 173.5 190" style="enable-background:new -210 325.9 173.5 190;" xml:space="preserve">
<style type="text/css">
	.st0{fill:#FF000D;}
	.st1{fill:#FFFFFF;}
</style>
<g>
	<polygon id="XMLID_1_" class="st0" points="-201.4,488.5 -123.3,353.2 -45.1,488.5 	"/>
	<path d="M-45.1,494h-156.3c-2,0-3.8-1-4.8-2.8c-1-1.7-1-3.8,0-5.5l78.1-135.3c1-1.7,2.8-2.8,4.8-2.8c0,0,0,0,0,0c2,0,3.8,1,4.8,2.7
		l78.2,135.3c1,1.7,1,3.8,0,5.5S-43.1,494-45.1,494z M-191.9,483h137.2l-68.7-118.8L-191.9,483z"/>
</g>
<g id="XMLID_176_">
	<g id="XMLID_188_">
		<g id="XMLID_195_">
			<path d="M-95.7,428c0.4,0.7,0.2,1.6-0.5,2l-5.2,3c-0.2,0.1-0.5,0.2-0.8,0.2c-0.5,0-1-0.3-1.3-0.8c-0.4-0.7-0.2-1.6,0.5-2l5.2-3
				C-97.1,427.1-96.2,427.3-95.7,428z"/>
			<path d="M-96.3,439.5c0.7,0.4,1,1.3,0.5,2c-0.3,0.5-0.8,0.8-1.3,0.8c-0.3,0-0.5-0.1-0.8-0.2l-5.2-3c-0.7-0.4-1-1.3-0.5-2.1
				c0.4-0.7,1.3-1,2-0.5L-96.3,439.5z"/>
		</g>
		<g id="XMLID_196_">
		</g>
	</g>
	<g id="XMLID_177_">
		<g id="XMLID_182_">
			<path d="M-101.4,445.5v23.4c0,2.9-2.3,5.2-5.2,5.2h-33.2c-2.9,0-5.2-2.3-5.2-5.2v-23.4c0-2.9,2.3-5.2,5.2-5.2h0.6v-9.9
				c0-8.9,7.1-16.1,15.8-16.2c0.1,0,0.1,0,0.2,0c4.3,0,8.2,1.6,11.3,4.6c3.1,3,4.8,7.1,4.8,11.4v1c0,2.9-2.3,5.3-5.3,5.3
				s-5.3-2.4-5.3-5.3v-0.8c0-3-2.4-5.6-5.4-5.6c-1.5,0-2.9,0.5-4,1.6c-1.1,1-1.6,2.4-1.6,3.9v10.1h22.1
				C-103.8,440.3-101.4,442.7-101.4,445.5z M-112.8,465.9l-7.5-10l7.1-7.8h-6.5l-5.8,6.5v-6.5h-5.9v17.8h5.9v-4.4l1.3-1.5l4.4,5.9
				H-112.8z"/>
			<polygon class="st1" points="-120.3,456 -112.8,465.9 -119.8,465.9 -124.2,460 -125.6,461.5 -125.6,465.9 -131.5,465.9 
				-131.5,448.1 -125.6,448.1 -125.6,454.6 -119.7,448.1 -113.2,448.1 			"/>
		</g>
		<g id="XMLID_183_">
		</g>
	</g>
</g>
</svg>
