<?xml version="1.0" encoding="utf-8"?>
<!-- Generator: Adobe Illustrator 19.0.0, SVG Export Plug-In . SVG Version: 6.00 Build 0)  -->
<svg version="1.1" id="Capa_1" xmlns="http://www.w3.org/2000/svg" xmlns:xlink="http://www.w3.org/1999/xlink" x="0px" y="0px"
	 viewBox="-210 325.9 173.5 190" style="enable-background:new -210 325.9 173.5 190;" xml:space="preserve">
<g id="XMLID_100_">
	<path d="M-45.1,494.1h-156.3c-2,0-3.8-1-4.8-2.7s-1-3.8,0-5.5l78.1-135.4c1-1.7,2.8-2.8,4.8-2.8l0,0c2,0,3.8,1,4.8,2.7l78.2,135.4
		c1,1.7,1,3.8,0,5.5C-41.3,493-43.1,494.1-45.1,494.1z M-191.9,483.1h137.3l-68.7-118.9L-191.9,483.1z"/>
</g>
<g transform="translate(0,-952.36218)">
	<path d="M-142,1367.2c0,7.5,4.4,13.9,10.7,16.9v37.6l7.2,8.9l8.8-12.5l-4.5-5.4l4.5-5.4l-4.5-5.4l4.5-5.4v-12.6
		c6.3-3,10.7-9.4,10.7-16.9c0-10.4-8.4-18.8-18.8-18.8S-142,1356.8-142,1367.2z M-128.6,1360.9c0-3,2.4-5.4,5.4-5.4s5.4,2.4,5.4,5.4
		c0,3-2.4,5.4-5.4,5.4S-128.6,1363.9-128.6,1360.9z"/>
</g>
</svg>
