<?xml version="1.0" encoding="utf-8"?>
<!-- Generator: Adobe Illustrator 19.0.0, SVG Export Plug-In . SVG Version: 6.00 Build 0)  -->
<svg version="1.1" id="Capa_1" xmlns="http://www.w3.org/2000/svg" xmlns:xlink="http://www.w3.org/1999/xlink" x="0px" y="0px"
	 viewBox="-210 325.9 173.5 190" style="enable-background:new -210 325.9 173.5 190;" xml:space="preserve">
<g id="XMLID_100_">
	<path d="M-45.1,494.1h-156.3c-2,0-3.8-1-4.8-2.7s-1-3.8,0-5.5l78.1-135.4c1-1.7,2.8-2.8,4.8-2.8l0,0c2,0,3.8,1,4.8,2.7l78.2,135.4
		c1,1.7,1,3.8,0,5.5C-41.3,493-43.1,494.1-45.1,494.1z M-191.9,483.1h137.3l-68.7-118.9L-191.9,483.1z"/>
</g>
<path d="M-150.8,423c-0.3,0.2-0.5,0.5-0.8,0.7l-0.3,0.3c-0.5,0.5-0.9,0.9-1.3,1.4c-6.2,7.6-5.7,18.7,1.1,25.8l0,0l0,0
	c0.1,0.1,0.1,0.2,0.2,0.2l27.8,27.9c0.4,0.4,1.2,0.4,1.6,0c0,0,0,0,0,0l8.5-8.5c0,0,0,0,0.1-0.1l19.3-19.3c7.5-7.6,7.5-19.9,0-27.5
	l-0.3-0.3c-7.5-7.6-19.7-7.6-27.3-0.1c0,0-0.1,0.1-0.1,0.1l-0.9,1l-0.9-1c-7.2-7.2-18.8-7.6-26.4-0.9L-150.8,423z M-150.2,425.6
	l0.2-0.2c2.2,3.1,4.8,5.8,7.7,8.1c0.5,0.4,1.1,0.3,1.5-0.1l2.9-2.9c0.5-0.5,1.3-0.5,1.8,0c0.5,0.5,0.5,1.3,0,1.8l-2.9,2.9
	c-0.4,0.4-0.4,1.2,0,1.6c0,0,0,0,0,0l8.6,8.6c0.5,0.5,0.5,1.3,0,1.8c-0.5,0.5-1.3,0.5-1.8,0l0,0l-6.1-6.1l-1.6,1.6l6.1,6.1
	c0.5,0.5,0.5,1.3,0,1.8c-0.5,0.5-1.3,0.5-1.8,0l0,0l-6.1-6.1l-1.6,1.6l6.1,6.1c0.5,0.5,0.5,1.3,0,1.8c-0.5,0.5-1.3,0.5-1.8,0l0,0
	l-6.1-6.1l-1.6,1.6l6.1,6.1c0.5,0.5,0.5,1.3,0,1.8c-0.5,0.4-1.2,0.5-1.7,0.1l-8-8c-6-6.3-6.4-16-1-22.8
	C-151,426.5-150.6,426-150.2,425.6z M-117.2,469.1c-0.5-0.5-0.5-1.3,0-1.8l6.1-6.1l-1.6-1.6l-6.1,6.1l0,0c-0.5,0.5-1.3,0.5-1.8,0
	c-0.5-0.5-0.5-1.3,0-1.8l6.1-6.1l-1.6-1.6l-6.1,6.1l0,0c-0.5,0.5-1.3,0.5-1.8,0c-0.5-0.5-0.5-1.3,0-1.8l6.1-6.1l-1.6-1.6l-6.1,6.1
	l0,0c-0.5,0.5-1.3,0.5-1.8,0c-0.5-0.5-0.5-1.3,0-1.8l8.6-8.6c0.4-0.4,0.4-1.2,0-1.6c0,0,0,0,0,0l-2.9-2.9c-0.5-0.5-0.5-1.3,0-1.8
	c0.5-0.5,1.3-0.5,1.8,0l2.9,2.9c0.4,0.4,1.1,0.4,1.5,0.1c6.8-5.3,11.6-12.8,13.7-21.1l0.5-2c0.4,0.2,0.9,0.4,1.3,0.7
	c0,0,0.1,0.1,0.1,0.1c0.4,0.2,0.7,0.5,1.1,0.7c0.1,0.1,0.2,0.2,0.3,0.2c0.3,0.2,0.6,0.4,0.9,0.7c0.2,0.1,0.3,0.3,0.5,0.4
	c0.2,0.2,0.4,0.4,0.6,0.6l0.3,0.3c6.7,6.7,6.7,17.5,0,24.3l-19.2,19.3C-116,469.6-116.7,469.5-117.2,469.1z M-125.8,425.4l1.8,1.8
	c0.5,0.4,1.2,0.4,1.6,0l1.8-1.8c4.5-4.5,11.1-6.1,17.2-4.2l-0.6,2.3c-1.9,7.5-6.1,14.3-12.1,19.3l-2.1-2.1c-1.4-1.4-3.6-1.4-5,0
	c-1.4,1.4-1.4,3.6,0,5c0,0,0,0,0,0l2,2l-7.8,7.8c-1.4,1.4-1.4,3.6,0,5c0.6,0.6,1.5,1,2.4,1c0.1,1.9,1.6,3.4,3.4,3.4
	c0.1,1.9,1.6,3.4,3.4,3.4c0,1.4,0.9,2.6,2.1,3.1l-5.5,5.6l-17-17c0.4-0.2,0.8-0.4,1.1-0.7v0c0.6-0.6,1-1.5,1-2.4
	c1.9-0.1,3.4-1.6,3.4-3.4c1.9-0.1,3.4-1.6,3.4-3.4c2-0.1,3.5-1.7,3.4-3.7c0-0.9-0.4-1.8-1-2.4l-7.8-7.8l2-2c1.4-1.4,1.4-3.6,0-5
	c-1.4-1.4-3.6-1.4-5,0l-2.1,2.1c-2.5-2.1-4.7-4.5-6.6-7.2C-141.5,418.6-131.9,419.3-125.8,425.4z"/>
</svg>
