<?xml version="1.0" encoding="utf-8"?>
<!-- Generator: Adobe Illustrator 19.0.0, SVG Export Plug-In . SVG Version: 6.00 Build 0)  -->
<svg version="1.1" id="Capa_1" xmlns="http://www.w3.org/2000/svg" xmlns:xlink="http://www.w3.org/1999/xlink" x="0px" y="0px"
	 viewBox="-210 325.9 173.5 190" style="enable-background:new -210 325.9 173.5 190;" xml:space="preserve">
<g id="XMLID_100_">
	<path d="M-45.1,494.1h-156.3c-2,0-3.8-1-4.8-2.7s-1-3.8,0-5.5l78.1-135.4c1-1.7,2.8-2.8,4.8-2.8l0,0c2,0,3.8,1,4.8,2.7l78.2,135.4
		c1,1.7,1,3.8,0,5.5C-41.3,493-43.1,494.1-45.1,494.1z M-191.9,483.1h137.3l-68.7-118.9L-191.9,483.1z"/>
</g>
<g>
	<path d="M-93.7,431.2v-3.9l-0.3-1.1c-0.1-0.1-1.4-2.4-4-4.7c-2-1.8-4.8-3.6-8.4-4.3V410c-15.7,1.1-17.3,13.4-17.3,13.4v0.1
		c0,0,0,0-0.1,0c-0.6-0.7-1.2-1.4-2-2.1c-2.6-2.3-6.6-4.7-11.9-4.7c-5.3,0-9.3,2.4-11.8,4.7c-2.5,2.3-3.8,4.6-3.9,4.7l-0.3,1.1v3.9
		h-2v32.5H-91v-32.5H-93.7z M-143.9,457.1c1.7-1,3.8-1.8,6.4-1.8c2.5,0,4.7,0.7,6.4,1.8H-143.9z M-125.8,455.6
		c-2.6-2.3-6.6-4.6-11.8-4.6h0c-5.1,0-9,2.3-11.6,4.5v-27.6c0.4-0.7,1.4-2,2.9-3.3c2-1.8,4.9-3.4,8.7-3.4c3.9,0,6.9,1.8,9,3.6
		c1,0.9,1.8,1.9,2.4,2.6c0.2,0.2,0.3,0.5,0.4,0.6V455.6z M-109.8,413.8v32.7c0,0-5.9-1-11.5,4.1v-25.3
		C-121.4,425.3-119.3,415.7-109.8,413.8L-109.8,413.8z M-116.2,457.1c1.7-1,3.8-1.8,6.4-1.8c2.5,0,4.7,0.7,6.4,1.8H-116.2z
		 M-98,455.6c-2.6-2.3-6.6-4.6-11.8-4.6c-5.1,0-9,2.3-11.6,4.5v-0.2c4.9-6.6,15.1-4.9,15.1-4.9v-28.8c2.2,0.7,4,1.8,5.5,3.1
		c1,0.9,1.8,1.9,2.3,2.6c0.2,0.2,0.3,0.5,0.5,0.6V455.6z M-98,455.6"/>
</g>
</svg>
