<?xml version="1.0" encoding="utf-8"?>
<!-- Generator: Adobe Illustrator 19.0.0, SVG Export Plug-In . SVG Version: 6.00 Build 0)  -->
<svg version="1.1" id="Capa_1" xmlns="http://www.w3.org/2000/svg" xmlns:xlink="http://www.w3.org/1999/xlink" x="0px" y="0px"
	 viewBox="-210 325.9 173.5 190" style="enable-background:new -210 325.9 173.5 190;" xml:space="preserve">
<g id="XMLID_100_">
	<path d="M-45.1,494.1h-156.3c-2,0-3.8-1-4.8-2.7s-1-3.8,0-5.5l78.1-135.4c1-1.7,2.8-2.8,4.8-2.8l0,0c2,0,3.8,1,4.8,2.7l78.2,135.4
		c1,1.7,1,3.8,0,5.5C-41.3,493-43.1,494.1-45.1,494.1z M-191.9,483.1h137.3l-68.7-118.9L-191.9,483.1z"/>
</g>
<path d="M-112.5,449.7l-8.1-8l0.1-0.1c5.6-6.2,9.5-13.3,11.9-20.9h9.4v-6.4h-22.4v-6.4h-6.4v6.4h-22.4v6.4h35.7
	c-2.2,6.2-5.5,12-10.1,17.2c-3-3.3-5.4-6.9-7.4-10.7h-6.4c2.3,5.2,5.5,10.1,9.5,14.6l-16.3,16.1l4.5,4.5l16-16l10,10L-112.5,449.7
	L-112.5,449.7z M-94.4,433.5h-6.4l-14.4,38.4h6.4l3.6-9.6h15.2l3.6,9.6h6.4L-94.4,433.5z M-102.8,455.9l5.2-13.9l5.2,13.9H-102.8z"
	/>
</svg>
