<?xml version="1.0" encoding="utf-8"?>
<!-- Generator: Adobe Illustrator 19.0.0, SVG Export Plug-In . SVG Version: 6.00 Build 0)  -->
<svg version="1.1" id="Capa_1" xmlns="http://www.w3.org/2000/svg" xmlns:xlink="http://www.w3.org/1999/xlink" x="0px" y="0px"
	 viewBox="-210 325.9 173.5 190" style="enable-background:new -210 325.9 173.5 190;" xml:space="preserve">
<g id="XMLID_100_">
	<path d="M-45.1,494.1h-156.3c-2,0-3.8-1-4.8-2.7s-1-3.8,0-5.5l78.1-135.4c1-1.7,2.8-2.8,4.8-2.8l0,0c2,0,3.8,1,4.8,2.7l78.2,135.4
		c1,1.7,1,3.8,0,5.5C-41.3,493-43.1,494.1-45.1,494.1z M-191.9,483.1h137.3l-68.7-118.9L-191.9,483.1z"/>
</g>
<g>
	<g transform="translate(-1077.000000, -712.000000)">
		<g transform="translate(1077.000000, 712.000000)">
			<path d="M-103.4,457.3c0.3,0.5,0.2,1.1-0.3,1.4l-2.4,1.6l1.7,3.1c0.3,0.5,0.1,1.1-0.4,1.4c-0.2,0.1-0.3,0.1-0.5,0.1
				c-0.3,0-0.7-0.2-0.9-0.5l-6-10.4l-2.6,1.8c-0.2,0.1-0.4,0.2-0.6,0.2c-0.3,0-0.6-0.2-0.8-0.4c-0.3-0.5-0.2-1.1,0.3-1.4l2.7-1.8
				l-5.1-8.8c-0.3-0.5-0.1-1.1,0.4-1.4c0.5-0.3,1.1-0.1,1.4,0.4l1.3,2.2l2.3-1.5c0.5-0.3,1.1-0.2,1.4,0.3c0.3,0.5,0.2,1.1-0.3,1.4
				l-2.4,1.6l7,12.3l2.3-1.5C-104.3,456.8-103.7,456.9-103.4,457.3 M-128.4,443.4l-5.1,8.8l2.7,1.8c0.5,0.3,0.6,0.9,0.3,1.4
				c-0.2,0.3-0.5,0.4-0.8,0.4c-0.2,0-0.4-0.1-0.6-0.2l-2.6-1.8l-6,10.4c-0.2,0.3-0.5,0.5-0.9,0.5c-0.2,0-0.3,0-0.5-0.1
				c-0.5-0.3-0.6-0.9-0.4-1.4l1.7-3.1l-2.4-1.6c-0.5-0.3-0.6-0.9-0.3-1.4c0.3-0.5,0.9-0.6,1.4-0.3l2.3,1.5l7-12.3l-2.4-1.6
				c-0.5-0.3-0.6-0.9-0.3-1.4c0.3-0.5,0.9-0.6,1.4-0.3l2.3,1.5l1.3-2.2c0.3-0.5,0.9-0.6,1.4-0.4
				C-128.3,442.3-128.1,442.9-128.4,443.4 M-93.6,445.1l-5-4c-0.2-0.1-0.4-0.2-0.6-0.2h-7c-1.6-2.4-3.2-4.5-4.6-6.2
				c-2.4-3-5.5-5.3-9-6.7c0.1,0,0.2-0.1,0.2-0.1c0.1,0,0.2,0.1,0.3,0.1c0,0,0.1,0,0.1,0l7.3-0.7c2.6-0.2,5.1-1.1,7.3-2.6
				c2-1.3,3.7-3.2,4.9-5.3l2.3-4c0.3-0.5,0.1-1.1-0.4-1.4c-0.5-0.3-1.1-0.1-1.4,0.4l-2.3,4c-1.1,1.8-2.5,3.4-4.3,4.6
				c-1.9,1.3-4.1,2-6.4,2.2l-5.6,0.5c0.3-0.6,0.4-1.2,0.4-1.9c0,0,0-0.1,0-0.1c1.7-0.4,3-2,3-3.9c0-2.2-1.8-4-4-4c-0.6,0-1,0.4-1,1
				c0,0.6,0.4,1,1,1c1.1,0,2,0.9,2,2c0,0.9-0.7,1.7-1.5,1.9c-0.9-1.7-3-2.9-5.5-2.9s-4.5,1.2-5.5,2.9c-0.9-0.2-1.5-1-1.5-1.9
				c0-1.1,0.9-2,2-2c0.6,0,1-0.4,1-1c0-0.6-0.4-1-1-1c-2.2,0-4,1.8-4,4c0,1.9,1.3,3.4,3,3.9c0,0,0,0.1,0,0.1c0,0.7,0.2,1.3,0.4,1.9
				l-5.6-0.5c-2.3-0.2-4.5-1-6.4-2.2c-1.8-1.2-3.2-2.8-4.3-4.6l-2.3-4c-0.3-0.5-0.9-0.6-1.4-0.4c-0.5,0.3-0.6,0.9-0.4,1.4l2.3,4
				c1.2,2.1,2.9,3.9,4.9,5.3c2.2,1.4,4.7,2.3,7.3,2.6l7.3,0.7c0,0,0.1,0,0.1,0c0.1,0,0.2,0,0.3-0.1c0.1,0.1,0.2,0.1,0.2,0.1
				c-3.5,1.4-6.6,3.7-9,6.7c-1.4,1.7-2.9,3.8-4.6,6.2h-7c-0.2,0-0.4,0.1-0.6,0.2l-5,4c-0.4,0.3-0.5,1-0.2,1.4
				c0.2,0.2,0.5,0.4,0.8,0.4c0.2,0,0.4-0.1,0.6-0.2l4.7-3.8h5.3c-4.4,7-8.7,16.1-8.7,25c0,0.1,0,3.3,2.5,5c2,1.4,5,1.4,8.9-0.1
				c0.4-0.2,9.5-4.2,14.6-9.2v-34.8c0.3,0,0.7,0.1,1,0.1c0.3,0,0.7,0,1-0.1v34.8c5.1,5,14.2,9,14.6,9.2c1.9,0.7,3.6,1.1,5.1,1.1
				c1.5,0,2.7-0.3,3.7-1c2.5-1.7,2.5-4.8,2.5-5c0-8.9-4.3-18-8.7-25h5.3l4.7,3.8c0.2,0.1,0.4,0.2,0.6,0.2c0.3,0,0.6-0.1,0.8-0.4
				C-93.1,446.1-93.2,445.5-93.6,445.1"/>
		</g>
	</g>
</g>
</svg>
