<?xml version="1.0" encoding="utf-8"?>
<!-- Generator: Adobe Illustrator 19.0.0, SVG Export Plug-In . SVG Version: 6.00 Build 0)  -->
<svg version="1.1" id="Capa_1" xmlns="http://www.w3.org/2000/svg" xmlns:xlink="http://www.w3.org/1999/xlink" x="0px" y="0px"
	 viewBox="-210 325.9 173.5 190" style="enable-background:new -210 325.9 173.5 190;" xml:space="preserve">
<g id="XMLID_100_">
	<path d="M-45.1,494.1h-156.3c-2,0-3.8-1-4.8-2.7s-1-3.8,0-5.5l78.1-135.4c1-1.7,2.8-2.8,4.8-2.8l0,0c2,0,3.8,1,4.8,2.7l78.2,135.4
		c1,1.7,1,3.8,0,5.5C-41.3,493-43.1,494.1-45.1,494.1z M-191.9,483.1h137.3l-68.7-118.9L-191.9,483.1z"/>
</g>
<path d="M-132.7,413.8c0,0,6.8-18.3,10-16.3c3.2,2,3.6,7,1.1,12.1c-2.3,4.7-5.3,8.1-5.3,8.1c2,1.7,2.5,6.4,0.8,10.1
	c0,0,9.7-2,19.1,3.8c9.4,5.8,13.6,14.3,13.6,21.5c0,7.2-2.1,15.5-9.8,15.5h-21.2c-0.5,0-0.9-0.4-0.8-0.9c0.4-3,2.8-4.6,7.4-4.6
	c-2.6-0.6-5.5-4.3-5.9-6.6c-3.4,3.7-5.2,9.1-5.8,11.2c-0.1,0.5-0.6,0.8-1.1,0.8h-6.7c-0.8,0-1.5-0.7-1.3-1.4c0.8-2.9,4.3-1,4.3-11.9
	c0-6-10.8-10.2-6.2-24.2c0,0-9-0.3-8.4-5.9C-148.4,419.4-138.4,412.6-132.7,413.8z"/>
</svg>
