<?xml version="1.0" encoding="utf-8"?>
<!-- Generator: Adobe Illustrator 19.0.0, SVG Export Plug-In . SVG Version: 6.00 Build 0)  -->
<svg version="1.1" id="Capa_1" xmlns="http://www.w3.org/2000/svg" xmlns:xlink="http://www.w3.org/1999/xlink" x="0px" y="0px"
	 viewBox="-210 325.9 173.5 190" style="enable-background:new -210 325.9 173.5 190;" xml:space="preserve">
<g id="XMLID_100_">
	<path d="M-45.1,494.1h-156.3c-2,0-3.8-1-4.8-2.7s-1-3.8,0-5.5l78.1-135.4c1-1.7,2.8-2.8,4.8-2.8l0,0c2,0,3.8,1,4.8,2.7l78.2,135.4
		c1,1.7,1,3.8,0,5.5C-41.3,493-43.1,494.1-45.1,494.1z M-191.9,483.1h137.3l-68.7-118.9L-191.9,483.1z"/>
</g>
<g>
	<path d="M-115.9,462.1v1.9c0,1.5-1.1,2.8-2.5,3l-0.5,1.7c-0.3,0.9-1.1,1.6-2.1,1.6h-4.6c-1,0-1.8-0.7-2.1-1.6l-0.5-1.7
		c-1.4-0.2-2.6-1.5-2.6-3v-1.9c0-1,0.8-1.8,1.8-1.8h11.1C-116.7,460.3-115.9,461.1-115.9,462.1L-115.9,462.1z M-107.3,436.7
		c0,4.3-1.7,8.2-4.5,11c-2.1,2.2-3.5,5-3.9,7.9c-0.2,1.3-1.3,2.2-2.6,2.2h-9.9c-1.3,0-2.4-0.9-2.6-2.2c-0.5-3-1.8-5.8-3.9-7.9
		c-2.7-2.8-4.4-6.6-4.4-10.9c-0.1-8.9,6.9-16,15.8-16.1C-114.5,420.7-107.3,427.9-107.3,436.7L-107.3,436.7z M-121.5,427.1
		c0-1-0.8-1.8-1.8-1.8c-6.3,0-11.5,5.1-11.5,11.5c0,1,0.8,1.8,1.8,1.8c1,0,1.8-0.8,1.8-1.8c0-4.4,3.5-7.9,7.9-7.9
		C-122.3,428.9-121.5,428.1-121.5,427.1L-121.5,427.1z M-123.3,415.6c1,0,1.8-0.8,1.8-1.8v-6.3c0-1-0.8-1.8-1.8-1.8
		c-1,0-1.8,0.8-1.8,1.8v6.3C-125,414.8-124.2,415.6-123.3,415.6L-123.3,415.6z M-144.4,436.7c0-1-0.8-1.8-1.8-1.8h-6.3
		c-1,0-1.8,0.8-1.8,1.8c0,1,0.8,1.8,1.8,1.8h6.3C-145.2,438.5-144.4,437.7-144.4,436.7L-144.4,436.7z M-94.1,434.9h-6.3
		c-1,0-1.8,0.8-1.8,1.8c0,1,0.8,1.8,1.8,1.8h6.3c1,0,1.8-0.8,1.8-1.8C-92.3,435.7-93.1,434.9-94.1,434.9L-94.1,434.9z M-140.7,451.6
		l-4.5,4.5c-0.7,0.7-0.7,1.8,0,2.5c0.3,0.3,0.8,0.5,1.3,0.5c0.5,0,0.9-0.2,1.3-0.5l4.5-4.5c0.7-0.7,0.7-1.8,0-2.5
		C-138.9,450.9-140,450.9-140.7,451.6L-140.7,451.6z M-107.1,422.3c0.5,0,0.9-0.2,1.3-0.5l4.5-4.5c0.7-0.7,0.7-1.8,0-2.5
		c-0.7-0.7-1.8-0.7-2.5,0l-4.5,4.5c-0.7,0.7-0.7,1.8,0,2.5C-108,422.1-107.5,422.3-107.1,422.3L-107.1,422.3z M-140.7,421.7
		c0.3,0.3,0.8,0.5,1.3,0.5c0.5,0,0.9-0.2,1.3-0.5c0.7-0.7,0.7-1.8,0-2.5l-4.5-4.5c-0.7-0.7-1.8-0.7-2.5,0c-0.7,0.7-0.7,1.8,0,2.5
		L-140.7,421.7z M-105.8,451.6c-0.7-0.7-1.8-0.7-2.5,0c-0.7,0.7-0.7,1.8,0,2.5l4.5,4.5c0.3,0.3,0.8,0.5,1.3,0.5
		c0.5,0,0.9-0.2,1.3-0.5c0.7-0.7,0.7-1.8,0-2.5L-105.8,451.6z M-105.8,451.6"/>
</g>
</svg>
