<?xml version="1.0" encoding="utf-8"?>
<!-- Generator: Adobe Illustrator 19.0.0, SVG Export Plug-In . SVG Version: 6.00 Build 0)  -->
<svg version="1.1" id="Capa_1" xmlns="http://www.w3.org/2000/svg" xmlns:xlink="http://www.w3.org/1999/xlink" x="0px" y="0px"
	 viewBox="-210 325.9 173.5 190" style="enable-background:new -210 325.9 173.5 190;" xml:space="preserve">
<style type="text/css">
	.st0{clip-path:url(#SVGID_1_);}
</style>
<g id="XMLID_100_">
	<path d="M-45.1,494.1h-156.3c-2,0-3.8-1-4.8-2.7s-1-3.8,0-5.5l78.1-135.4c1-1.7,2.8-2.8,4.8-2.8l0,0c2,0,3.8,1,4.8,2.7l78.2,135.4
		c1,1.7,1,3.8,0,5.5C-41.3,493-43.1,494.1-45.1,494.1z M-191.9,483.1h137.3l-68.7-118.9L-191.9,483.1z"/>
	<g>
		<g>
			<defs>
				<rect id="SVGID_3_" x="-145.7" y="394.3" width="44.9" height="77"/>
			</defs>
			<clipPath id="SVGID_1_">
				<use xlink:href="#SVGID_3_"  style="overflow:visible;"/>
			</clipPath>
			<path class="st0" d="M-122.5,394.9c-0.1-0.9-1.5-0.9-1.6,0c-3.5,28.4-21.6,34.3-21.6,54.1c0,12.2,10.3,22.1,22.4,22.1
				c12.1,0,22.4-9.9,22.4-22.1C-100.9,429.2-118.9,423.4-122.5,394.9L-122.5,394.9z M-125.9,426.4c-0.2,0.9-0.5,1.8-0.8,2.7
				c-1.6,5.7-3.4,12.2-3.4,19.6c0,4-2.4,5.5-4.6,5.5c-2.6,0-4.6-2.1-4.6-4.7c0-8.8,4.3-14.6,8-19.7c1.2-1.6,2.3-3.1,3.2-4.6
				c0.4-0.7,1.5-0.7,2,0C-125.9,425.6-125.8,426-125.9,426.4L-125.9,426.4z M-125.9,426.4"/>
		</g>
	</g>
</g>
</svg>
