<?xml version="1.0" encoding="utf-8"?>
<!-- Generator: Adobe Illustrator 19.0.0, SVG Export Plug-In . SVG Version: 6.00 Build 0)  -->
<svg version="1.1" id="Capa_1" xmlns="http://www.w3.org/2000/svg" xmlns:xlink="http://www.w3.org/1999/xlink" x="0px" y="0px"
	 viewBox="-210 325.9 173.5 190" style="enable-background:new -210 325.9 173.5 190;" xml:space="preserve">
<g id="XMLID_100_">
	<path d="M-45.1,494.1h-156.3c-2,0-3.8-1-4.8-2.7s-1-3.8,0-5.5l78.1-135.4c1-1.7,2.8-2.8,4.8-2.8l0,0c2,0,3.8,1,4.8,2.7l78.2,135.4
		c1,1.7,1,3.8,0,5.5C-41.3,493-43.1,494.1-45.1,494.1z M-191.9,483.1h137.3l-68.7-118.9L-191.9,483.1z"/>
	<g>
		<path d="M-103.7,421.3c0-10.8-8.7-19.5-19.5-19.5s-19.5,8.7-19.5,19.5c0,15.4,19.5,38.3,19.5,38.3S-103.7,436.6-103.7,421.3
			L-103.7,421.3z M-132.9,420.1c0-5.3,4.3-9.6,9.6-9.6c5.3,0,9.6,4.3,9.6,9.6c0,5.3-4.3,9.6-9.6,9.6
			C-128.6,429.7-132.9,425.4-132.9,420.1L-132.9,420.1z M-132.9,420.1"/>
		<path d="M-118.5,420.1c0,2.6-2.1,4.7-4.7,4.7c-2.6,0-4.7-2.1-4.7-4.7c0-2.6,2.1-4.7,4.7-4.7C-120.6,415.4-118.5,417.5-118.5,420.1
			L-118.5,420.1z M-118.5,420.1"/>
		<path d="M-112.2,452.8c-1.6,2.3-3.1,4.3-4.3,5.9c12.3,0.7,20.4,3.4,23.4,5.4c-3.5,2.3-14,5.6-30.1,5.6c-16.1,0-26.6-3.3-30.1-5.6
			c3-2,11.1-4.6,23.4-5.4c-1.2-1.6-2.7-3.6-4.3-5.9c-15.2,1.5-26.2,6-26.2,11.3c0,6.5,16.7,11.8,37.2,11.8
			c20.6,0,37.3-5.3,37.3-11.8C-86,458.8-97,454.3-112.2,452.8L-112.2,452.8z M-112.2,452.8"/>
	</g>
</g>
</svg>
