<?xml version="1.0" encoding="utf-8"?>
<!-- Generator: Adobe Illustrator 19.0.0, SVG Export Plug-In . SVG Version: 6.00 Build 0)  -->
<svg version="1.1" id="Capa_1" xmlns="http://www.w3.org/2000/svg" xmlns:xlink="http://www.w3.org/1999/xlink" x="0px" y="0px"
	 viewBox="-210 325.9 173.5 190" style="enable-background:new -210 325.9 173.5 190;" xml:space="preserve">
<g id="XMLID_100_">
	<path d="M-45.1,494.1h-156.3c-2,0-3.8-1-4.8-2.7s-1-3.8,0-5.5l78.1-135.4c1-1.7,2.8-2.8,4.8-2.8l0,0c2,0,3.8,1,4.8,2.7l78.2,135.4
		c1,1.7,1,3.8,0,5.5C-41.3,493-43.1,494.1-45.1,494.1z M-191.9,483.1h137.3l-68.7-118.9L-191.9,483.1z"/>
</g>
<path d="M-96.3,429.5c-0.4,0.1-0.7,0.2-1.1,0.1l-18.4-3.9c-0.8-0.2-1.5-0.8-1.6-1.6c-0.1-0.8,0.3-1.6,1.1-2l17-8.5
	c1-0.5,2.2-0.1,2.7,0.9c0.5,1,0.1,2.2-0.9,2.7l-11.8,5.8l12.9,2.6c1.1,0.2,1.8,1.3,1.5,2.4C-95.2,428.7-95.7,429.2-96.3,429.5z"/>
<path d="M-130,423.3c-0.3,0.1-0.6,0.1-0.9,0.1l-18.8-1.7c-1.1-0.1-1.9-1.1-1.8-2.2s1.1-1.9,2.2-1.8l13.1,1.2l-9.6-9.2
	c-0.8-0.8-0.9-2-0.1-2.8c0.8-0.8,2-0.9,2.8-0.1l13.7,13.1c0.7,0.6,0.8,1.5,0.4,2.3C-129.1,422.8-129.5,423.2-130,423.3z"/>
<path d="M-103.7,441.9c-0.3-0.4-0.7-0.7-1.3-0.8l-39.1-5.8c-0.4,0-0.9,0-1.3,0.4c-0.4,0.4-0.6,0.7-0.6,1.3
	c-0.1,0.1-0.7,21.4,17.5,24.2c18.1,2.7,24.8-17.6,25-17.7C-103.4,442.8-103.4,442.3-103.7,441.9z"/>
</svg>
