<?xml version="1.0" encoding="utf-8"?>
<!-- Generator: Adobe Illustrator 19.0.0, SVG Export Plug-In . SVG Version: 6.00 Build 0)  -->
<svg version="1.1" id="Capa_1" xmlns="http://www.w3.org/2000/svg" xmlns:xlink="http://www.w3.org/1999/xlink" x="0px" y="0px"
	 viewBox="-210 325.9 173.5 190" style="enable-background:new -210 325.9 173.5 190;" xml:space="preserve">
<style type="text/css">
	.st0{clip-path:url(#SVGID_1_);}
</style>
<g id="XMLID_100_">
	<path d="M-45.1,494.1h-156.3c-2,0-3.8-1-4.8-2.7s-1-3.8,0-5.5l78.1-135.4c1-1.7,2.8-2.8,4.8-2.8l0,0c2,0,3.8,1,4.8,2.7l78.2,135.4
		c1,1.7,1,3.8,0,5.5C-41.3,493-43.1,494.1-45.1,494.1z M-191.9,483.1h137.3l-68.7-118.9L-191.9,483.1z"/>
</g>
<g>
	<g>
		<defs>
			<rect id="SVGID_3_" x="-152.2" y="415.3" width="57.8" height="58"/>
		</defs>
		<clipPath id="SVGID_1_">
			<use xlink:href="#SVGID_3_"  style="overflow:visible;"/>
		</clipPath>
		<path class="st0" d="M-145.2,440.2l5.9-5.9l-3.2-3.2c-1.6-1.6-1.6-4.3,0-5.9c1.6-1.6,4.3-1.6,5.9,0l14.3,14.3l5.9-5.9l-14.3-14.3
			c-4.9-4.9-12.9-4.9-17.8,0c-4.9,4.9-4.9,12.9,0,17.8L-145.2,440.2z M-145.2,440.2"/>
		<path class="st0" d="M-101.3,448.5l-5.9,5.9l3.2,3.2c1.6,1.6,1.6,4.3,0,5.9c-1.6,1.6-4.3,1.6-5.9,0l-14.3-14.3l-5.9,5.9l14.3,14.3
			c2.5,2.5,5.7,3.7,8.9,3.7c3.2,0,6.5-1.2,8.9-3.7c4.9-4.9,4.9-12.9,0-17.8L-101.3,448.5z M-101.3,448.5"/>
		<path class="st0" d="M-109.9,425.1c1.6-1.6,4.3-1.6,5.9,0c1.6,1.6,1.6,4.3,0,5.9l-14.3,14.3l5.9,5.9L-98,437
			c4.9-4.9,4.9-12.9,0-17.8c-4.9-4.9-12.9-4.9-17.8,0l-3.2,3.2l5.9,5.9L-109.9,425.1z M-109.9,425.1"/>
		<path class="st0" d="M-136.6,463.7c-1.6,1.6-4.3,1.6-5.9,0c-1.6-1.6-1.6-4.3,0-5.9l14.3-14.3l-5.9-5.9l-14.3,14.3
			c-4.9,4.9-4.9,12.9,0,17.8c2.5,2.5,5.7,3.7,8.9,3.7c3.2,0,6.5-1.2,8.9-3.7l3.2-3.2l-5.9-5.9L-136.6,463.7z M-136.6,463.7"/>
	</g>
</g>
</svg>
