<?xml version="1.0" encoding="utf-8"?>
<!-- Generator: Adobe Illustrator 19.0.0, SVG Export Plug-In . SVG Version: 6.00 Build 0)  -->
<svg version="1.1" id="Capa_1" xmlns="http://www.w3.org/2000/svg" xmlns:xlink="http://www.w3.org/1999/xlink" x="0px" y="0px"
	 viewBox="-210 325.9 173.5 190" style="enable-background:new -210 325.9 173.5 190;" xml:space="preserve">
<style type="text/css">
	.st0{fill:none;}
</style>
<g id="XMLID_100_">
	<path d="M-45.1,494.1h-156.3c-2,0-3.8-1-4.8-2.7s-1-3.8,0-5.5l78.1-135.4c1-1.7,2.8-2.8,4.8-2.8l0,0c2,0,3.8,1,4.8,2.7l78.2,135.4
		c1,1.7,1,3.8,0,5.5C-41.3,493-43.1,494.1-45.1,494.1z M-191.9,483.1h137.3l-68.7-118.9L-191.9,483.1z"/>
</g>
<rect x="-164.2" y="404" class="st0" width="81.8" height="81.8"/>
<g transform="translate(0,-952.36218)">
	<path d="M-150.3,1368.9v12.1h15.5v-12.1H-150.3z M-111.8,1368.9v12.1h15.5v-12.1H-111.8z M-150.3,1383.8v14.8c0,15,12,27,27,27
		s27-12,27-27v-14.8h-15.5v15.5c0,6.4-5.1,11.5-11.5,11.5s-11.5-5.1-11.5-11.5v-15.5H-150.3z"/>
</g>
</svg>
