<?xml version="1.0" encoding="utf-8"?>
<!-- Generator: Adobe Illustrator 19.0.0, SVG Export Plug-In . SVG Version: 6.00 Build 0)  -->
<svg version="1.1" id="Capa_1" xmlns="http://www.w3.org/2000/svg" xmlns:xlink="http://www.w3.org/1999/xlink" x="0px" y="0px"
	 viewBox="-210 325.9 173.5 190" style="enable-background:new -210 325.9 173.5 190;" xml:space="preserve">
<g>
	<path d="M-110,480.8l-0.4-0.2l-0.2,0.3c-4,5.3-10.8,4.8-13.3-0.9c-2.1-4.8-0.7-11.7,2.8-13.7c3.4-1.9,7.1-0.3,9.5,4.2l0.4,0.7h0.4
		h0.4V468v-3.2h-0.5c-0.5,0-0.6,0-0.9,0.3c-0.8,0.6-1.5,0.7-3.5,0.2c-2.1-0.5-3.4-0.7-4.7-0.5c-11.6,1.5-12.2,18.5-0.7,20.7
		c4.3,0.8,8.6-0.8,11-4.1l0.3-0.4L-110,480.8z M-120.1,485.2c-1.7-0.2-3.8-1.1-5.2-2.4c-4.8-4.1-4.3-12.5,0.9-15.9
		c0.9-0.6,3-1.6,2.6-1.3c0,0-0.4,0.3-0.8,0.5c-7.7,5.3-6.5,15.7,2.2,18.8C-119.8,485.2-119.8,485.2-120.1,485.2z"/>
	<path d="M-132.2,465.9l0.6-0.1l0-0.4V465l-3.1,0l-3.1,0l-3.1,7.6c-1.7,4.2-3.1,7.6-3.2,7.6c0,0-1.4-3.1-3-7.1
		c-1.6-3.9-3.1-7.4-3.2-7.6l-0.2-0.5h-3.2h-3.2v0.4v0.4h0.4c0.8,0,1.9,0.4,2.5,1l0.3,0.3l0,7.2c0,6.5,0,7.2-0.2,7.6
		c-0.4,1.4-1.3,2.3-2.6,2.5l-0.4,0.1v0.4v0.4h3.6h3.6v-0.4v-0.4l-0.6-0.2c-1.2-0.4-2-1.2-2.4-2.2c-0.3-1-0.4-1.6-0.3-7.9l0-6
		l3.5,8.5l3.5,8.5l0.4,0l0.4,0l1.9-4.6c3.9-9.8,5.2-12.9,5.3-13c0.1-0.1,0,15.5-0.1,15.7c-0.3,0.6-1,0.9-2,1l-0.6,0v0.4v0.4h4.6h4.6
		v-0.4v-0.4l-0.6-0.1c-1.3-0.1-1.9-0.5-2.1-1.2c-0.2-0.7-0.1-15.9,0.1-16.3C-133.8,466.3-133.3,466-132.2,465.9z M-145.5,484.3
		c-0.1,0.2,0.1,0.6-3.6-8c-4.1-9.8-4-9.6-5.1-10.2l-0.4-0.2l0.5,0c0.3,0,0.6,0.1,0.9,0.1c1.1,0.3,1,0.2,4.8,9.3
		C-145,483.8-145,483.6-145.5,484.3z M-136.4,466.2c-0.1,0.2-0.1,2.5-0.1,8.8c0,8.4,0,8.5-0.2,8.9c-0.2,0.5-0.6,0.7-1.2,0.6l-0.5,0
		l0.3-0.2c0.2-0.1,0.4-0.4,0.5-0.6l0.2-0.4l0-8.3c0-9.3,0-8.7,0.6-9c0.2-0.1,0.5-0.2,0.5-0.1C-136.3,465.9-136.3,466-136.4,466.2z"
		/>
	<path d="M-90.5,467.4l-0.9-2.3l-8.3,0c-4.6,0-8.3,0-8.3,0c0,0-0.1,0.2-0.1,0.4v0.3l0.9,0c1.3,0.1,1.9,0.4,2.2,1.3
		c0.2,0.5,0.1,15.5,0,16c-0.3,0.9-1.1,1.3-2.6,1.3h-0.4v0.4v0.4l5.1,0l5.1,0v-0.4v-0.4l-0.9,0c-2.6-0.1-2.6-0.2-2.6-5.4v-3.8l2.1,0
		c3.5,0.1,4.1,0.4,4.4,2.7l0.1,0.6h0.5h0.5v-3.8v-3.8h-0.5h-0.5v0.2c0,1.3-0.8,2.5-1.9,2.9c-0.8,0.3-1.2,0.3-3,0.3h-1.7l0-3.6l0-3.6
		l0.2-0.4c0.4-0.7,1-0.9,2.7-0.9c2.5,0,4.8,1,7,3.1l0.7,0.7l0.5,0l0.5,0L-90.5,467.4z M-103.6,475.3v8.1l-0.2,0.4
		c-0.3,0.5-0.6,0.7-1.2,0.7c-0.5,0-0.5,0-0.3-0.1c0.8-0.6,0.7-0.1,0.7-9.1c0-9.1,0-8.7-0.8-9.3l-0.2-0.2l0.6,0c0.6,0,0.6,0,0.9,0.3
		C-103.5,466.8-103.6,466.4-103.6,475.3z M-92.2,467.6c-0.8-0.6-1.6-1.1-2.5-1.5l-0.8-0.3l1.3,0l1.3,0l0.7,1.1
		c0.4,0.6,0.7,1.1,0.6,1.1C-91.5,468.1-91.8,467.9-92.2,467.6z"/>
	<path d="M-112.2,466.2c0,0.1,0,0.6,0,1.1v1l-1-1l-1-1l0.7-0.1c0.4,0,0.8-0.1,0.9-0.1C-112.3,466-112.3,466-112.2,466.2"/>
	<path d="M-94.8,474.7c0,1.2,0,1.4-0.1,1.3c-0.4-0.6-1.3-1.2-1.7-1.2c-0.3,0-0.1-0.1,0.5-0.4c0.5-0.3,0.7-0.4,1-0.7
		c0.2-0.2,0.3-0.4,0.3-0.4C-94.8,473.3-94.8,473.9-94.8,474.7"/>
	<path d="M-153.4,483c0.1,0.5,0.6,1.1,0.9,1.3l0.3,0.2l-1.5,0l-1.5,0l0.2-0.2c0.5-0.4,1-0.8,1.2-1.2
		C-153.5,482.6-153.5,482.6-153.4,483"/>
</g>
<g>
	<path d="M-152.5,488c0.3-0.1,0.7-0.1,1-0.1c0.6,0,0.9,0.1,1.2,0.3c0.2,0.2,0.3,0.5,0.3,0.8c0,0.5-0.3,0.9-0.8,1.1v0
		c0.3,0.1,0.5,0.4,0.6,0.8c0.1,0.6,0.2,1,0.3,1.1h-0.6c-0.1-0.1-0.2-0.5-0.3-1c-0.1-0.6-0.3-0.8-0.8-0.8h-0.5v1.8h-0.5V488z
		 M-152,489.8h0.5c0.6,0,0.9-0.3,0.9-0.8c0-0.5-0.4-0.8-1-0.8c-0.3,0-0.4,0-0.5,0V489.8z"/>
	<path d="M-148.9,490.7c0,0.7,0.5,1,1,1c0.4,0,0.6-0.1,0.8-0.2l0.1,0.4c-0.2,0.1-0.5,0.2-1,0.2c-0.9,0-1.5-0.6-1.5-1.5
		c0-0.9,0.5-1.6,1.4-1.6c1,0,1.2,0.9,1.2,1.4c0,0.1,0,0.2,0,0.3H-148.9z M-147.3,490.3c0-0.3-0.1-0.9-0.8-0.9
		c-0.5,0-0.8,0.5-0.8,0.9H-147.3z"/>
	<path d="M-146.1,487.7h0.5v4.4h-0.5V487.7z"/>
	<path d="M-144.1,488.2c0,0.2-0.1,0.3-0.3,0.3c-0.2,0-0.3-0.1-0.3-0.3c0-0.2,0.1-0.3,0.3-0.3C-144.2,487.9-144.1,488-144.1,488.2z
		 M-144.7,492v-3h0.5v3H-144.7z"/>
	<path d="M-142.9,490.7c0,0.7,0.5,1,1,1c0.4,0,0.6-0.1,0.8-0.2l0.1,0.4c-0.2,0.1-0.5,0.2-1,0.2c-0.9,0-1.5-0.6-1.5-1.5
		c0-0.9,0.5-1.6,1.4-1.6c1,0,1.2,0.9,1.2,1.4c0,0.1,0,0.2,0,0.3H-142.9z M-141.3,490.3c0-0.3-0.1-0.9-0.8-0.9
		c-0.5,0-0.8,0.5-0.8,0.9H-141.3z"/>
	<path d="M-140.1,492v-2.6h-0.4v-0.4h0.4v-0.1c0-0.4,0.1-0.8,0.3-1c0.2-0.2,0.5-0.3,0.7-0.3c0.2,0,0.4,0,0.5,0.1l-0.1,0.4
		c-0.1,0-0.2-0.1-0.3-0.1c-0.5,0-0.6,0.4-0.6,0.9v0.2h0.7v0.4h-0.7v2.6H-140.1z"/>
	<path d="M-138.9,492.8c0.1-0.4,0.3-1,0.4-1.5l0.6-0.1c-0.1,0.5-0.4,1.2-0.6,1.5L-138.9,492.8z"/>
	<path d="M-135.7,489.1l0.4,1.5c0.1,0.3,0.2,0.6,0.2,0.9h0c0.1-0.3,0.2-0.6,0.3-0.9l0.5-1.5h0.5l0.5,1.5c0.1,0.4,0.2,0.7,0.3,1h0
		c0-0.3,0.1-0.6,0.2-1l0.4-1.5h0.5l-1,3h-0.5l-0.5-1.4c-0.1-0.3-0.2-0.6-0.3-1h0c-0.1,0.4-0.2,0.7-0.3,1l-0.5,1.4h-0.5l-0.9-3
		H-135.7z"/>
	<path d="M-131.4,487.7h0.5v1.9h0c0.1-0.2,0.2-0.3,0.4-0.4c0.2-0.1,0.4-0.2,0.6-0.2c0.4,0,1,0.2,1,1.3v1.8h-0.5v-1.7
		c0-0.5-0.2-0.9-0.7-0.9c-0.4,0-0.6,0.2-0.7,0.5c0,0.1,0,0.2,0,0.3v1.8h-0.5V487.7z"/>
	<path d="M-127.7,490.7c0,0.7,0.5,1,1,1c0.4,0,0.6-0.1,0.8-0.2l0.1,0.4c-0.2,0.1-0.5,0.2-1,0.2c-0.9,0-1.5-0.6-1.5-1.5
		c0-0.9,0.5-1.6,1.4-1.6c1,0,1.2,0.9,1.2,1.4c0,0.1,0,0.2,0,0.3H-127.7z M-126.1,490.3c0-0.3-0.1-0.9-0.8-0.9
		c-0.5,0-0.8,0.5-0.8,0.9H-126.1z"/>
	<path d="M-124.9,490c0-0.4,0-0.7,0-0.9h0.5l0,0.6h0c0.1-0.4,0.5-0.7,0.8-0.7c0.1,0,0.1,0,0.2,0v0.5c-0.1,0-0.1,0-0.2,0
		c-0.4,0-0.7,0.3-0.7,0.7c0,0.1,0,0.2,0,0.3v1.6h-0.5V490z"/>
	<path d="M-122.7,490.7c0,0.7,0.5,1,1,1c0.4,0,0.6-0.1,0.8-0.2l0.1,0.4c-0.2,0.1-0.5,0.2-1,0.2c-0.9,0-1.5-0.6-1.5-1.5
		c0-0.9,0.5-1.6,1.4-1.6c1,0,1.2,0.9,1.2,1.4c0,0.1,0,0.2,0,0.3H-122.7z M-121.1,490.3c0-0.3-0.1-0.9-0.8-0.9
		c-0.5,0-0.8,0.5-0.8,0.9H-121.1z"/>
	<path d="M-118,488.2c0,0.2-0.1,0.3-0.3,0.3c-0.2,0-0.3-0.1-0.3-0.3c0-0.2,0.1-0.3,0.3-0.3C-118.1,487.9-118,488-118,488.2z
		 M-118.6,492v-3h0.5v3H-118.6z"/>
	<path d="M-116.5,488.2v0.9h0.8v0.4h-0.8v1.6c0,0.4,0.1,0.6,0.4,0.6c0.1,0,0.2,0,0.3,0l0,0.4c-0.1,0-0.3,0.1-0.5,0.1
		c-0.3,0-0.5-0.1-0.6-0.2c-0.2-0.2-0.2-0.4-0.2-0.8v-1.6h-0.5v-0.4h0.5v-0.7L-116.5,488.2z"/>
	<path d="M-113.8,492c0-0.2,0-0.5,0-0.8v-3.6h0.5v1.9h0c0.2-0.3,0.5-0.5,1-0.5c0.7,0,1.3,0.6,1.3,1.5c0,1.1-0.7,1.6-1.3,1.6
		c-0.4,0-0.8-0.2-1-0.6h0l0,0.5H-113.8z M-113.3,490.9c0,0.1,0,0.1,0,0.2c0.1,0.4,0.4,0.6,0.8,0.6c0.6,0,0.9-0.5,0.9-1.1
		c0-0.6-0.3-1.1-0.9-1.1c-0.4,0-0.7,0.3-0.8,0.7c0,0.1,0,0.1,0,0.2V490.9z"/>
	<path d="M-110,490.7c0,0.7,0.5,1,1,1c0.4,0,0.6-0.1,0.8-0.2l0.1,0.4c-0.2,0.1-0.5,0.2-1,0.2c-0.9,0-1.5-0.6-1.5-1.5
		c0-0.9,0.5-1.6,1.4-1.6c1,0,1.2,0.9,1.2,1.4c0,0.1,0,0.2,0,0.3H-110z M-108.4,490.3c0-0.3-0.1-0.9-0.8-0.9c-0.5,0-0.8,0.5-0.8,0.9
		H-108.4z"/>
	<path d="M-107.2,487.7h0.5v4.4h-0.5V487.7z"/>
	<path d="M-103.1,490.5c0,1.1-0.8,1.6-1.5,1.6c-0.8,0-1.4-0.6-1.4-1.5c0-1,0.7-1.6,1.5-1.6C-103.6,489-103.1,489.6-103.1,490.5z
		 M-105.4,490.6c0,0.7,0.4,1.1,0.9,1.1c0.5,0,0.9-0.5,0.9-1.2c0-0.5-0.3-1.1-0.9-1.1S-105.4,490-105.4,490.6z"/>
	<path d="M-102.4,489.9c0-0.3,0-0.6,0-0.8h0.5l0,0.5h0c0.1-0.3,0.5-0.6,1-0.6c0.4,0,1.1,0.2,1.1,1.3v1.8h-0.5v-1.7
		c0-0.5-0.2-0.9-0.7-0.9c-0.4,0-0.6,0.3-0.7,0.6c0,0.1,0,0.2,0,0.3v1.8h-0.5V489.9z"/>
	<path d="M-96.4,489.1c0,0.2,0,0.5,0,0.8v1.7c0,0.7-0.1,1.1-0.4,1.4c-0.3,0.3-0.7,0.4-1.1,0.4c-0.4,0-0.8-0.1-1-0.2l0.1-0.4
		c0.2,0.1,0.5,0.2,0.9,0.2c0.6,0,1-0.3,1-1v-0.3h0c-0.2,0.3-0.5,0.5-0.9,0.5c-0.7,0-1.3-0.6-1.3-1.5c0-1,0.7-1.6,1.3-1.6
		c0.5,0,0.8,0.3,0.9,0.5h0l0-0.4H-96.4z M-96.9,490.2c0-0.1,0-0.2,0-0.2c-0.1-0.3-0.4-0.6-0.8-0.6c-0.5,0-0.9,0.4-0.9,1.1
		c0,0.6,0.3,1.1,0.9,1.1c0.3,0,0.6-0.2,0.8-0.6c0-0.1,0-0.2,0-0.3V490.2z"/>
	<path d="M-95.6,491.5c0.2,0.1,0.4,0.2,0.7,0.2c0.4,0,0.6-0.2,0.6-0.4c0-0.3-0.2-0.4-0.6-0.5c-0.5-0.2-0.8-0.5-0.8-0.8
		c0-0.5,0.4-0.9,1-0.9c0.3,0,0.6,0.1,0.7,0.2l-0.1,0.4c-0.1-0.1-0.3-0.2-0.6-0.2c-0.3,0-0.5,0.2-0.5,0.4c0,0.2,0.2,0.4,0.6,0.5
		c0.5,0.2,0.8,0.5,0.8,0.9c0,0.5-0.4,0.9-1.1,0.9c-0.3,0-0.6-0.1-0.8-0.2L-95.6,491.5z"/>
</g>
<path id="path0" d="M-130.9,335c-20.1,2.9-38.2,14.8-47.4,31.1c-2.6,4.6-1,7.1,10.5,16.5c10.6,8.7,15,10.3,24.5,8.9
	c5.7-0.8,8.4-0.5,17.2,2.3c5.1,1.6,5.4,1.8,5.6,3.3c0.2,1.5-4,1.4-7-0.2c-1.4-0.7-2.3-0.7-2.6,0c-1.3,3.5,7.9,4.9,18.2,2.7
	c5.2-1.1,4.7-1.4,5.3,2.6c0.9,6.2-0.1,12.6-2.2,14.5c-2.9,2.7-16.4,3.1-27.5,0.9c-10.1-2-28.6-11.3-43-21.7
	c-7.3-5.3-7.6-5.2-7.7,2.5c-0.6,53.9,63.7,83.5,105.4,48.5c9-7.5,20-25,20-31.7c0-2.4-7.3,0.6-10.2,4.2c-2.5,3.1-5.1,5.6-6.8,6.3
	c-2.8,1.3-8.5,3.2-10.2,3.4l-1.8,0.3l0.2-2.9c0.3-3.6,1.3-8,1.9-8.4c0.2-0.2,1.9-1,3.6-1.8c3.8-1.7,4.9-2.5,4.3-3.5
	c-0.7-1-1.4-1-4.4,0.4l-2.8,1.3l0-1c0-0.6,0.1-1.2,0.3-1.4c0.6-0.8,8.1-2.8,10.4-2.7c2.3,0.1,8.8-2.2,15.2-5.4l2.4-1.2l0-6.4
	c-0.2-29.1-21.3-54.3-50.8-60.7C-113.9,335.1-127.6,334.5-130.9,335 M-117.5,337.7c27.1,2.8,49.3,22.7,54.2,48.8
	c0.9,4.8,1.1,4.4-3.6,8.2c-8.6,6.8-9.5,7-12.3,2.9c-2.9-4.3-9.1-9.4-14.6-12c-1.2-0.6-4.1-2.7-6.5-4.7c-5.8-4.9-15.1-11.7-20.1-14.7
	c-7.7-4.6-22.8-10.5-24.3-9.5c-1.8,1.2-3.8,10.3-3.5,15.9c0.2,3.4,0.1,3.8-0.4,3.6c-0.3-0.1-1.7-0.7-3-1.1
	c-5.9-2.3-10.7-5.5-15.5-10.3c-4.5-4.5-4.6-3.8,1-9.4C-152.8,342.2-135.4,335.9-117.5,337.7 M-135.8,362.1
	c9.8,3.7,14.7,6.5,24.9,14.2c8.7,6.6,9.4,7.2,8.6,7.5c-1.9,0.7-14.8-0.6-18.7-1.9c-4.1-1.4-13.9-11.3-18.8-19.1
	C-141.9,359.7-142.1,359.7-135.8,362.1 M-141.9,364.9c3.6,5.6,9.8,12.7,13.6,15.6c9.6,7.5,20,14,22.2,14c0.8,0,3.1,3,4.5,5.8
	l1.3,2.6l-1.3,1.2c-1.7,1.6-2.1,1.5-2.1-0.2c0-2.1-0.7-5.8-1.4-6.9c-0.8-1.4-1.7-1.5-6.3-0.5c-6,1.3-6,1.3-6.5-1
	c-0.5-2.2-0.6-2.3-7.1-4.4c-6.2-2.1-10.8-3-14.3-3.1l-2.8,0l-0.8-2c-2.1-5.1-3-15.4-1.8-21.2C-144,361.1-144.3,361.1-141.9,364.9
	 M-167.3,368.8c5.3,4.6,9.7,7.3,16.1,9.5l3.4,1.2l1,4c0.5,2.2,1.1,4.3,1.3,4.7c0.2,0.6-0.1,0.7-3.4,0.6c-5.5,0-8.4-1.4-15.5-7.2
	c-2-1.6-4.6-3.8-6-4.9c-1.3-1.1-3.3-3.1-4.4-4.5l-2.1-2.6l1-1.8c0.6-1,1.5-2.5,2.1-3.4l1.1-1.6l1.6,2
	C-170.2,366-168.5,367.7-167.3,368.8 M-62.1,399.9c-0.3,1.8-0.7,2-6.2,4c-1.1,0.4-3,1.1-4.2,1.7l-2.2,1l-0.7-1.5
	c-1-1.9-1-1.9,0.8-1.9c1.6,0,4-1.6,9.8-6.3l2.4-2l0.3,1.7C-62,397.5-61.9,399-62.1,399.9 M-178.7,400c10,7,29.8,17.5,35.9,19.1
	c13.8,3.5,29.3,3.7,35.5,0.5c1.2-0.6,3.3-5.5,3.6-8.3l0.2-2.5l1.9-1.1l1.9-1.1l0.3,1.6c0.5,3,0.3,6-0.4,7.4
	c-2.2,4.1-1.7,10.4,1.2,14.5c0.8,1.1,0.8,1.5,0.8,12.6V454l-3.1,1.2c-34.7,13.9-74.2-7.6-82-44.5c-1-4.7-1.5-14.6-0.7-14.1
	C-183.4,396.7-181.1,398.3-178.7,400 M-65.9,419.8c-1,2.6-3.7,8.3-4.4,9.1c-0.6,0.7-0.6,0.5-0.6-2.5c0-3.6,1.2-5.8,3.9-7.5
	C-65.4,417.9-65.2,418-65.9,419.8 M-95.9,419c0,0-0.2,1.8-0.6,3.9c-0.8,4.6-1.6,4.6-1.9,0C-98.5,419-97.5,417.4-95.9,419
	 M-74.7,433.2l0,2.5l-2.5,3l-2.5,3l-0.2-2.1c-0.1-1.1-0.3-3.8-0.3-6l0-4l1.5-0.5c0.8-0.3,2-0.8,2.5-1.2l1.1-0.7l0.2,1.8
	C-74.9,429.9-74.7,431.9-74.7,433.2 M-85.6,439.2l0,7.5l-2.2,1.5c-3.5,2.5-3.3,2.8-3.5-4.5c-0.1-3.6-0.1-7.6,0-8.9l0.2-2.4l2.3-0.2
	c1.2-0.1,2.5-0.2,2.7-0.3C-85.7,431.7-85.6,433.6-85.6,439.2"/>
</svg>
