<?xml version="1.0" encoding="utf-8"?>
<!-- Generator: Adobe Illustrator 19.0.0, SVG Export Plug-In . SVG Version: 6.00 Build 0)  -->
<svg version="1.1" id="Capa_1" xmlns="http://www.w3.org/2000/svg" xmlns:xlink="http://www.w3.org/1999/xlink" x="0px" y="0px"
	 viewBox="-210 325.9 173.5 190" style="enable-background:new -210 325.9 173.5 190;" xml:space="preserve">
<g id="XMLID_100_">
	<path d="M-45.1,494.1h-156.3c-2,0-3.8-1-4.8-2.7s-1-3.8,0-5.5l78.1-135.4c1-1.7,2.8-2.8,4.8-2.8l0,0c2,0,3.8,1,4.8,2.7l78.2,135.4
		c1,1.7,1,3.8,0,5.5C-41.3,493-43.1,494.1-45.1,494.1z M-191.9,483.1h137.3l-68.7-118.9L-191.9,483.1z"/>
</g>
<path d="M-128,484.3C-128,484.3-128,484.3-128,484.3c-1.8-0.1-3.5-0.2-5.1-0.4c-0.5,0-0.8-0.4-0.8-0.9c0-0.5,0.4-0.8,0.9-0.8
	c1.6,0.1,3.3,0.3,5,0.4c0.5,0,0.8,0.4,0.8,0.9C-127.2,483.9-127.5,484.3-128,484.3z M-137.9,483.4C-138,483.4-138,483.4-137.9,483.4
	c-1.9-0.2-3.5-0.4-5.1-0.7c-0.5-0.1-0.8-0.5-0.7-1c0.1-0.5,0.5-0.8,1-0.7c1.5,0.2,3.2,0.5,4.9,0.7c0.5,0.1,0.8,0.5,0.7,0.9
	C-137.2,483.1-137.5,483.4-137.9,483.4z M-147.8,481.8c-0.1,0-0.1,0-0.2,0c-1.8-0.4-3.5-0.9-4.9-1.4c-0.4-0.2-0.7-0.6-0.5-1.1
	c0.2-0.4,0.6-0.7,1.1-0.5c1.4,0.5,2.9,0.9,4.7,1.3c0.4,0.1,0.7,0.5,0.6,1C-147.1,481.6-147.4,481.8-147.8,481.8z M-157.1,478.3
	c-0.2,0-0.3-0.1-0.5-0.2c-1.6-1.2-2.4-2.5-2.4-3.9c0-0.4,0.1-0.9,0.2-1.3c0.2-0.4,0.6-0.7,1.1-0.5c0.4,0.2,0.7,0.6,0.5,1.1
	c-0.1,0.3-0.1,0.5-0.1,0.8c0,0.9,0.6,1.7,1.7,2.5c0.4,0.3,0.4,0.8,0.2,1.2C-156.6,478.2-156.8,478.3-157.1,478.3z M-155.5,470.5
	c-0.3,0-0.5-0.1-0.7-0.4c-0.2-0.4-0.1-0.9,0.3-1.2c1.3-0.8,2.9-1.6,4.7-2.2c0.4-0.2,0.9,0.1,1.1,0.5c0.2,0.4-0.1,0.9-0.5,1.1
	c-1.6,0.6-3.2,1.3-4.4,2C-155.2,470.5-155.4,470.5-155.5,470.5z M-146.2,467.1c-0.4,0-0.8-0.3-0.8-0.7c-0.1-0.5,0.2-0.9,0.7-1
	c1.8-0.3,3.6-0.4,5.2-0.4c0.5,0,0.8,0.4,0.8,0.9c0,0.5-0.4,0.8-0.9,0.8c-1.5,0-3.1,0.1-4.8,0.4
	C-146.1,467.1-146.1,467.1-146.2,467.1z M-136.2,466.8c-0.5,0-0.8-0.3-0.8-0.8c0-0.5,0.4-0.8,0.8-0.8c1.7,0,3.4-0.2,4.9-0.3
	c0.5-0.1,0.9,0.3,0.9,0.7c0.1,0.5-0.3,0.8-0.7,0.9C-132.7,466.6-134.4,466.8-136.2,466.8C-136.2,466.8-136.2,466.8-136.2,466.8z
	 M-126.3,465.5c-0.4,0-0.7-0.2-0.8-0.6c-0.1-0.4,0.1-0.9,0.6-1c1.7-0.5,3.1-1.1,4.4-1.9c0.4-0.2,0.9-0.1,1.1,0.3
	c0.2,0.4,0.1,0.9-0.3,1.1c-1.4,0.8-3,1.5-4.8,2.1C-126.1,465.4-126.2,465.5-126.3,465.5z M-118,460.2c-0.2,0-0.3-0.1-0.5-0.2
	c-0.4-0.3-0.5-0.8-0.2-1.2c0.9-1.2,1.5-2.7,1.8-4.2c0.1-0.5,0.5-0.7,1-0.7c0.5,0.1,0.8,0.5,0.7,1c-0.3,1.8-1.1,3.5-2.1,4.9
	C-117.5,460-117.8,460.2-118,460.2z M-116,450.6c-0.4,0-0.8-0.3-0.8-0.7c-0.3-1.5-0.7-3.1-1.4-4.6c-0.2-0.4,0-0.9,0.4-1.1
	c0.4-0.2,0.9,0,1.1,0.4c0.8,1.6,1.3,3.3,1.6,5c0.1,0.5-0.2,0.9-0.7,1C-116,450.6-116,450.6-116,450.6z M-149.5,448.3
	c-1.1,0-2.1-0.2-3-0.5c-0.4-0.2-0.6-0.6-0.5-1.1c0.2-0.4,0.6-0.6,1.1-0.5c1.2,0.5,2.7,0.5,4.5,0.2c0.5-0.1,0.9,0.2,1,0.7
	c0.1,0.5-0.2,0.9-0.7,1C-148,448.2-148.8,448.3-149.5,448.3z M-95,448c-0.1,0-0.1,0-0.2,0c-0.4-0.1-0.7-0.6-0.6-1
	c0.3-1,0.5-1.9,0.7-2.8c0.1-0.4,0.6-0.7,1-0.6c0.4,0.1,0.7,0.6,0.6,1c-0.2,0.9-0.4,1.8-0.7,2.8C-94.3,447.7-94.6,448-95,448z
	 M-142.5,446.6c-0.3,0-0.6-0.2-0.8-0.5c-0.2-0.4,0-0.9,0.5-1.1c1.3-0.5,2.7-1.2,4.5-2.1c0.4-0.2,0.9,0,1.1,0.4
	c0.2,0.4,0,0.9-0.4,1.1c-1.8,0.9-3.3,1.6-4.6,2.2C-142.3,446.5-142.4,446.6-142.5,446.6z M-155.8,444.5c-0.3,0-0.6-0.1-0.7-0.4
	c-0.9-1.5-1.6-3.1-2.1-4.8c-0.1-0.4,0.1-0.9,0.6-1c0.4-0.1,0.9,0.1,1,0.6c0.5,1.6,1.1,3,1.9,4.4c0.2,0.4,0.1,0.9-0.3,1.1
	C-155.5,444.5-155.7,444.5-155.8,444.5z M-133.6,442.1c-0.3,0-0.6-0.2-0.7-0.4c-0.2-0.4-0.1-0.9,0.3-1.1c1.5-0.8,3.1-1.6,4.6-2.2
	c0.4-0.2,0.9,0,1.1,0.4c0.2,0.4,0,0.9-0.4,1.1c-1.4,0.6-3,1.4-4.4,2.2C-133.3,442.1-133.4,442.1-133.6,442.1z M-120.2,441.6
	c-0.2,0-0.5-0.1-0.6-0.3c-1.2-1.4-2.5-2.4-3.5-2.5c-0.5-0.1-0.8-0.5-0.7-1c0.1-0.5,0.5-0.8,1-0.7c1.4,0.2,3,1.3,4.5,3.1
	c0.3,0.4,0.3,0.9-0.1,1.2C-119.8,441.6-120,441.6-120.2,441.6z M-93.3,440.3c-0.1,0-0.1,0-0.2,0c-0.5-0.1-0.8-0.5-0.7-1
	c0.3-1.8,0.6-3.4,0.7-4.9c0-0.5,0.4-0.8,0.9-0.7c0.5,0,0.8,0.5,0.7,0.9c-0.2,1.5-0.4,3.2-0.7,5C-92.5,440-92.9,440.3-93.3,440.3z
	 M-158.7,435c-0.4,0-0.8-0.3-0.8-0.8c-0.1-0.7-0.1-1.3-0.1-2c0-1,0.1-2.1,0.2-3.1c0-0.5,0.5-0.8,0.9-0.7c0.5,0,0.8,0.5,0.7,0.9
	c-0.1,1-0.2,2-0.2,2.9c0,0.6,0,1.3,0.1,1.9C-157.9,434.6-158.2,435-158.7,435C-158.7,435-158.7,435-158.7,435z M-92.4,430
	c-0.4,0-0.8-0.2-0.8-0.6c-0.1-1.8-0.4-3.3-0.9-4.6c-0.2-0.4,0.1-0.9,0.5-1c0.4-0.2,0.9,0.1,1.1,0.5c0.5,1.4,0.9,3,1,5
	C-91.5,429.8-91.9,430-92.4,430C-92.4,430-92.4,430-92.4,430z M-157.7,425.1c-0.1,0-0.1,0-0.2,0c-0.4-0.1-0.7-0.6-0.6-1
	c0.5-1.7,1-3.3,1.7-4.8c0.2-0.4,0.7-0.6,1.1-0.4c0.4,0.2,0.6,0.7,0.4,1.1c-0.7,1.5-1.2,3-1.6,4.6
	C-157,424.9-157.3,425.1-157.7,425.1z M-118.3,422.2c-0.6,0-1.2,0-1.7-0.1c-0.4,0-0.8-0.1-1.2-0.2c-0.5-0.1-0.8-0.5-0.7-1
	c0.1-0.5,0.5-0.8,1-0.7c0.4,0.1,0.7,0.1,1.1,0.1c1,0.1,2.2,0.1,3.7,0c0.5,0,0.9,0.3,0.9,0.8c0,0.5-0.3,0.9-0.8,0.9
	C-116.8,422.2-117.6,422.2-118.3,422.2z M-96.4,421.6c-0.1,0-0.3,0-0.4-0.1c-1.1-0.7-2.6-1.1-4.4-1.2c-0.5,0-0.8-0.4-0.8-0.9
	c0-0.5,0.4-0.8,0.9-0.8c2.1,0.1,3.8,0.6,5.2,1.4c0.4,0.2,0.5,0.8,0.3,1.1C-95.8,421.5-96.1,421.6-96.4,421.6z M-111.1,421.4
	c-0.4,0-0.8-0.3-0.8-0.7c-0.1-0.5,0.2-0.9,0.7-1l0.9-0.1c1.4-0.2,2.8-0.5,4.1-0.6c0.5-0.1,0.9,0.3,0.9,0.7c0.1,0.5-0.3,0.9-0.7,0.9
	c-1.3,0.2-2.7,0.4-4.1,0.6l-0.9,0.1C-111,421.4-111,421.4-111.1,421.4z M-125.8,420.4c-0.1,0-0.3,0-0.4-0.1
	c-1.5-0.7-2.9-1.7-4.3-2.9c-0.3-0.3-0.4-0.8-0.1-1.2c0.3-0.3,0.8-0.4,1.2-0.1c1.3,1.1,2.6,2,3.9,2.7c0.4,0.2,0.6,0.7,0.4,1.1
	C-125.2,420.3-125.5,420.4-125.8,420.4z M-153.6,416c-0.2,0-0.3,0-0.5-0.1c-0.4-0.3-0.5-0.8-0.2-1.2c1-1.5,2.1-2.8,3.3-4
	c0.3-0.3,0.9-0.3,1.2,0c0.3,0.3,0.3,0.9,0,1.2c-1.1,1-2.1,2.3-3.1,3.7C-153.1,415.9-153.3,416-153.6,416z M-133.4,414.1
	c-0.2,0-0.5-0.1-0.6-0.3l-0.3-0.3c-1.1-1.2-2.1-2.3-3.2-3.2c-0.4-0.3-0.4-0.8-0.1-1.2s0.8-0.4,1.2-0.1c1.1,0.9,2.2,2.1,3.3,3.3
	l0.3,0.3c0.3,0.3,0.3,0.9-0.1,1.2C-133,414-133.2,414.1-133.4,414.1z M-146.3,409.3c-0.3,0-0.6-0.2-0.8-0.5c-0.2-0.4,0-0.9,0.4-1.1
	c1.4-0.6,2.9-1,4.3-1c0.3,0,0.6,0,1,0c0.5,0,0.8,0.5,0.7,0.9c0,0.5-0.5,0.7-0.9,0.7c-0.3,0-0.5-0.1-0.8-0.1c0,0,0,0,0,0
	c-1.2,0-2.4,0.3-3.7,0.9C-146.1,409.3-146.2,409.3-146.3,409.3z M-117.9,485.1C-118,485.1-118,485.1-117.9,485.1
	c-1.8-0.1-3.5-0.2-5.1-0.4c-0.5,0-0.8-0.4-0.8-0.9c0-0.5,0.4-0.8,0.9-0.8c1.6,0.1,3.3,0.3,5,0.4c0.5,0,0.8,0.4,0.8,0.9
	C-117.1,484.8-117.5,485.1-117.9,485.1z"/>
<path d="M-95,461.5c-0.6,0-1.2-0.3-1.5-0.9l-2-4.1l-4.1,2c-0.8,0.4-1.8,0.1-2.2-0.8c-0.4-0.8-0.1-1.8,0.8-2.2l4.1-2l-2-4.1
	c-0.4-0.8-0.1-1.8,0.8-2.2c0.8-0.4,1.8-0.1,2.2,0.8l2,4.1l4.1-2c0.8-0.4,1.8-0.1,2.2,0.8s0.1,1.8-0.8,2.2l-4.1,2l2,4.1
	c0.4,0.8,0.1,1.8-0.8,2.2C-94.5,461.4-94.8,461.5-95,461.5z"/>
</svg>
