<?xml version="1.0" encoding="utf-8"?>
<!-- Generator: Adobe Illustrator 19.0.0, SVG Export Plug-In . SVG Version: 6.00 Build 0)  -->
<svg version="1.1" id="Capa_1" xmlns="http://www.w3.org/2000/svg" xmlns:xlink="http://www.w3.org/1999/xlink" x="0px" y="0px"
	 viewBox="-210 325.9 173.5 190" style="enable-background:new -210 325.9 173.5 190;" xml:space="preserve">
<g>
	<path d="M-79.5,428.8c-1.9,0-3.4,0.7-4.8,2c-1.3,1.3-2,2.9-2,4.8v5h13.4v-5c0-1.9-0.7-3.4-2-4.8C-76.1,429.4-77.7,428.8-79.5,428.8
		z"/>
	<path d="M-131.2,365.2l-10.6-14.8l-0.9-1.3h-49.4v121.6h137.7V365.2H-131.2z M-64.4,458.2c0,0.7-0.2,1.3-0.7,1.8
		c-0.5,0.5-1.1,0.7-1.8,0.7h-25.2c-0.7,0-1.3-0.2-1.8-0.7c-0.5-0.5-0.7-1.1-0.7-1.8V443c0-0.7,0.2-1.3,0.7-1.8
		c0.5-0.5,1.1-0.7,1.8-0.7h0.8v-5c0-3.2,1.2-6,3.5-8.3c2.3-2.3,5.1-3.5,8.3-3.5c3.2,0,6,1.2,8.3,3.5c2.3,2.3,3.5,5.1,3.5,8.3v5h0.8
		c0.7,0,1.3,0.2,1.8,0.7c0.5,0.5,0.7,1.1,0.7,1.8V458.2z M-59,381.2h-60.7l-8.2-11.5H-59V381.2z"/>
</g>
<g>
	<path d="M-164.1,495h-5.5l-6.9-9.6c-0.5,0-0.9,0-1.3,0c-0.1,0-0.3,0-0.4,0c-0.2,0-0.3,0-0.5,0v6c0,1.3,0.1,2.1,0.4,2.4
		c0.4,0.4,1,0.7,1.7,0.7h0.8v0.6h-8.8v-0.6h0.8c0.9,0,1.5-0.3,1.9-0.8c0.2-0.3,0.3-1.1,0.3-2.2v-13.3c0-1.3-0.1-2.1-0.4-2.4
		c-0.4-0.4-1-0.7-1.8-0.7h-0.8v-0.6h7.5c2.2,0,3.8,0.2,4.8,0.5c1,0.3,1.9,0.9,2.6,1.8c0.7,0.9,1.1,1.9,1.1,3.1
		c0,1.3-0.4,2.4-1.2,3.3c-0.8,0.9-2.1,1.6-3.8,2l4.2,5.9c1,1.4,1.8,2.3,2.5,2.7c0.7,0.4,1.6,0.7,2.7,0.8V495z M-178.7,484.5
		c0.2,0,0.4,0,0.5,0c0.1,0,0.3,0,0.3,0c2,0,3.4-0.4,4.4-1.3c1-0.8,1.5-1.9,1.5-3.2c0-1.3-0.4-2.3-1.2-3.1c-0.8-0.8-1.9-1.2-3.2-1.2
		c-0.6,0-1.4,0.1-2.4,0.3V484.5z"/>
	<path d="M-160.5,492.1c0.5,0,0.9,0.2,1.2,0.5c0.3,0.3,0.5,0.7,0.5,1.2c0,0.5-0.2,0.9-0.5,1.2c-0.3,0.3-0.7,0.5-1.2,0.5
		c-0.5,0-0.9-0.2-1.2-0.5c-0.3-0.3-0.5-0.7-0.5-1.2c0-0.5,0.2-0.9,0.5-1.2C-161.4,492.3-161,492.1-160.5,492.1z"/>
	<path d="M-142.5,488.2h-7.9l-1.4,3.2c-0.3,0.8-0.5,1.4-0.5,1.8c0,0.3,0.1,0.6,0.4,0.8s0.9,0.4,1.9,0.5v0.6h-6.5v-0.6
		c0.9-0.2,1.4-0.3,1.7-0.6c0.5-0.5,1.1-1.5,1.7-3l7.2-16.9h0.5l7.1,17.1c0.6,1.4,1.1,2.3,1.6,2.7c0.5,0.4,1.1,0.6,2,0.7v0.6h-8.1
		v-0.6c0.8,0,1.4-0.2,1.7-0.4c0.3-0.2,0.4-0.5,0.4-0.8c0-0.4-0.2-1.1-0.6-2.1L-142.5,488.2z M-142.9,487l-3.5-8.3l-3.6,8.3H-142.9z"
		/>
	<path d="M-130.4,492.1c0.5,0,0.9,0.2,1.2,0.5c0.3,0.3,0.5,0.7,0.5,1.2c0,0.5-0.2,0.9-0.5,1.2c-0.3,0.3-0.7,0.5-1.2,0.5
		s-0.9-0.2-1.2-0.5c-0.3-0.3-0.5-0.7-0.5-1.2c0-0.5,0.2-0.9,0.5-1.2S-130.9,492.1-130.4,492.1z"/>
	<path d="M-116.9,494.5v0.6h-8.8v-0.6h0.7c0.8,0,1.5-0.2,1.8-0.7c0.2-0.3,0.4-1.1,0.4-2.3v-13.3c0-1-0.1-1.7-0.2-2.1
		c-0.1-0.3-0.3-0.5-0.6-0.7c-0.4-0.2-0.9-0.4-1.4-0.4h-0.7v-0.6h8.8v0.6h-0.7c-0.8,0-1.4,0.2-1.8,0.7c-0.3,0.3-0.4,1.1-0.4,2.3v13.3
		c0,1,0.1,1.7,0.2,2.1c0.1,0.3,0.3,0.5,0.6,0.7c0.4,0.2,0.9,0.4,1.4,0.4H-116.9z"/>
	<path d="M-112.3,492.1c0.5,0,0.9,0.2,1.2,0.5s0.5,0.7,0.5,1.2c0,0.5-0.2,0.9-0.5,1.2c-0.3,0.3-0.7,0.5-1.2,0.5
		c-0.5,0-0.9-0.2-1.2-0.5c-0.3-0.3-0.5-0.7-0.5-1.2c0-0.5,0.2-0.9,0.5-1.2S-112.8,492.1-112.3,492.1z"/>
	<path d="M-94.2,474v7.1h-0.6c-0.2-1.4-0.5-2.4-1-3.3c-0.5-0.8-1.1-1.4-2-1.9c-0.9-0.5-1.8-0.7-2.7-0.7c-1,0-1.9,0.3-2.6,1
		s-1,1.4-1,2.2c0,0.6,0.2,1.2,0.7,1.7c0.6,0.8,2.1,1.8,4.5,3c1.9,1,3.2,1.8,3.9,2.4c0.7,0.5,1.2,1.2,1.6,1.9
		c0.4,0.7,0.6,1.5,0.6,2.3c0,1.6-0.6,2.9-1.8,4c-1.2,1.1-2.8,1.7-4.7,1.7c-0.6,0-1.2,0-1.7-0.1c-0.3-0.1-1-0.2-1.9-0.6
		c-1-0.3-1.6-0.5-1.9-0.5c-0.3,0-0.5,0.1-0.6,0.2c-0.1,0.2-0.3,0.5-0.3,0.9h-0.6v-7h0.6c0.3,1.5,0.6,2.6,1.1,3.3
		c0.4,0.7,1.1,1.3,2,1.8s1.9,0.7,3,0.7c1.3,0,2.3-0.3,3-1s1.1-1.5,1.1-2.4c0-0.5-0.1-1-0.4-1.5s-0.7-1-1.3-1.4
		c-0.4-0.3-1.5-0.9-3.2-1.9c-1.8-1-3-1.8-3.7-2.4c-0.7-0.6-1.3-1.2-1.7-1.9c-0.4-0.7-0.6-1.5-0.6-2.3c0-1.5,0.6-2.7,1.7-3.8
		c1.1-1.1,2.6-1.6,4.3-1.6c1.1,0,2.2,0.3,3.5,0.8c0.6,0.3,1,0.4,1.2,0.4c0.3,0,0.5-0.1,0.6-0.2c0.2-0.2,0.3-0.5,0.4-0.9H-94.2z"/>
	<path d="M-87.3,492.1c0.5,0,0.9,0.2,1.2,0.5c0.3,0.3,0.5,0.7,0.5,1.2c0,0.5-0.2,0.9-0.5,1.2c-0.3,0.3-0.7,0.5-1.2,0.5
		c-0.5,0-0.9-0.2-1.2-0.5c-0.3-0.3-0.5-0.7-0.5-1.2c0-0.5,0.2-0.9,0.5-1.2S-87.8,492.1-87.3,492.1z"/>
	<path d="M-69.3,488.2h-7.9l-1.4,3.2c-0.3,0.8-0.5,1.4-0.5,1.8c0,0.3,0.1,0.6,0.4,0.8c0.3,0.2,0.9,0.4,1.9,0.5v0.6h-6.5v-0.6
		c0.9-0.2,1.4-0.3,1.7-0.6c0.5-0.5,1.1-1.5,1.7-3l7.2-16.9h0.5l7.1,17.1c0.6,1.4,1.1,2.3,1.6,2.7c0.5,0.4,1.1,0.6,2,0.7v0.6h-8.1
		v-0.6c0.8,0,1.4-0.2,1.7-0.4c0.3-0.2,0.4-0.5,0.4-0.8c0-0.4-0.2-1.1-0.6-2.1L-69.3,488.2z M-69.7,487l-3.5-8.3l-3.6,8.3H-69.7z"/>
</g>
</svg>
