<?xml version="1.0" encoding="utf-8"?>
<!-- Generator: Adobe Illustrator 19.0.0, SVG Export Plug-In . SVG Version: 6.00 Build 0)  -->
<svg version="1.1" id="Capa_1" xmlns="http://www.w3.org/2000/svg" xmlns:xlink="http://www.w3.org/1999/xlink" x="0px" y="0px"
	 viewBox="-210 325.9 173.5 190" style="enable-background:new -210 325.9 173.5 190;" xml:space="preserve">
<g>
	<path d="M-47.5,439.2c-1.5-1.3-2.8-2.3-2.9-2.4c-0.1-0.1-0.1-0.2,0-1.3c0.8-5.9,0.9-11.7,0.3-17.8c-1.4-14.2-6.9-27.4-15.8-38.6
		c-5.7-7.2-12.9-13.3-20.9-17.9c-2.5-1.4-6-3.1-8.5-4.2c-0.3-0.1-0.6-0.3-0.7-0.4c0-0.1-0.7-3.1-1.5-6.8c-0.8-3.7-1.5-6.8-1.5-6.8
		c0-0.1-1.3-0.1-24.2-0.1h-24.2v0.2c0,0.1-0.5,3.1-1.2,6.7c-0.6,3.6-1.1,6.5-1.2,6.6c0,0.1-0.5,0.3-1.1,0.5
		c-11.6,4.7-22.1,12.5-29.9,22.3c-8.1,10.1-13.4,22.2-15.3,34.9c-0.1,0.7-0.2,1.4-0.3,1.5c-0.1,0.4-0.4,3.2-0.6,5.7
		c-0.1,1.7-0.1,6.1,0,7.9c0.1,1.6,0.2,3.2,0.5,5.1l0.2,1.4l-0.3,0.3c-0.6,0.6-1.5,1.3-2.3,2.1c-0.5,0.4-1.1,1-1.4,1.3
		c-0.6,0.6-0.7,0.7-3.9,3.6c-1.4,1.3-2.5,2.3-2.5,2.4c0,0,0.9,1.7,2.1,3.7s6.6,11.4,12.1,20.9s10,17.3,10,17.3s0.6-0.2,1.3-0.5
		c0.7-0.2,2.1-0.8,3.3-1.2c6.6-2.4,8.2-3,8.3-3c0,0,0.3,0.2,0.5,0.4c1.4,1.1,4.7,3.5,6.9,4.9c3.7,2.3,8.6,4.7,13.2,6.4
		c10.9,4.1,23,5.5,34.5,4.1c6.2-0.7,12.4-2.3,18-4.5c0.7-0.3,1.4-0.5,1.5-0.6c0.4-0.1,2.8-1.2,5.2-2.4c3.8-1.9,7.2-4,10.7-6.7
		l1.4-1.1l0.4,0.1c0.2,0.1,0.5,0.1,0.6,0.2c0.4,0.1,3.8,1.2,4.3,1.3c0.9,0.3,4.9,1.5,5.1,1.6c0.1,0,0.5,0.2,1,0.3
		c0.4,0.1,1.1,0.3,1.5,0.5c0.4,0.1,0.7,0.2,0.8,0.2c0.1,0,24.2-41.8,24.2-41.9C-40.1,445.5-41.5,444.2-47.5,439.2z M-45.4,447.1
		c0,0.1-4.6,7.9-10.1,17.5c-6,10.4-10.1,17.4-10.1,17.4c-0.1,0-0.7-0.2-1.3-0.4c-0.7-0.2-1.3-0.4-1.5-0.4c-0.3-0.1-3.4-1-4-1.2
		c-0.2-0.1-0.7-0.2-1.1-0.3c-0.4-0.1-0.7-0.2-0.8-0.3c-0.1,0-0.3-0.1-0.5-0.1s-0.4-0.1-0.5-0.1s-0.4-0.1-0.7-0.2
		c-0.3-0.1-0.9-0.3-1.4-0.4c-0.9-0.3-0.9-0.3-1.1-0.1c-0.1,0.1-0.7,0.5-1.3,1c-1.8,1.5-5.2,3.9-5.4,3.9c0,0-0.4,0.2-0.7,0.4
		c-3.5,2.3-7.9,4.5-11.9,6.1c-6.8,2.7-13.5,4.2-21.1,4.8c-1.7,0.1-7.2,0.1-8.9,0c-9.8-0.7-18.4-3.1-26.7-7.3
		c-4.3-2.2-8.9-5.1-12.3-7.9c-0.3-0.2-0.6-0.4-0.6-0.5c0,0-0.4-0.3-0.8-0.7l-0.7-0.6l-0.4,0.1c-0.3,0.1-0.8,0.2-3.2,1.1
		c-0.7,0.3-2.3,0.9-3.7,1.3c-1.3,0.5-3,1.1-3.7,1.3c-0.7,0.3-1.3,0.5-1.3,0.5s-4.6-7.9-10.2-17.5l-10.1-17.5l0.3-0.2
		c0.1-0.1,0.8-0.8,1.5-1.4c0.7-0.6,1.5-1.4,1.7-1.6c0.3-0.3,0.8-0.8,1.2-1.1c0.4-0.4,0.9-0.8,1.1-1s0.5-0.5,0.7-0.6
		c0.5-0.5,2-1.8,2.2-2c0.1-0.1,0.4-0.4,0.7-0.7l0.5-0.5l-0.1-0.5c-0.4-1.9-0.8-5.5-0.8-7c0-0.6,0-2.2-0.1-3.6
		c-0.1-4,0.1-7.8,0.7-11.7c2.9-19.3,13.8-36.4,30-47.2c4.7-3.2,10-5.8,15.1-7.6c0.9-0.3,0.9-0.3,1-0.6c0.1-0.3,0.6-3,1.5-8.3
		c0.4-2.1,0.7-4,0.7-4.1v-0.2h20.2c19.2,0,20.2,0,20.3,0.1c0.1,0.2,1.8,7.5,2.4,10.1c0.3,1.3,0.6,2.5,0.6,2.6
		c0.1,0.2,0.1,0.3,1.5,0.8c3,1.1,6.5,2.8,8.9,4.1c7.9,4.4,14.8,10.2,20.4,17.2c8.7,10.8,14,24,15.1,37.9c0.2,3,0.3,8.3,0.1,10.8
		c-0.2,2.4-0.6,5.2-1,7.6l-0.1,0.5l0.3,0.3c0.2,0.2,0.6,0.6,1,0.9s0.7,0.6,0.8,0.6c0,0,0.4,0.4,0.9,0.7c0.4,0.3,1.1,0.9,1.5,1.2
		c0.4,0.3,1.7,1.4,2.9,2.4C-45.1,447.1-45.3,446.9-45.4,447.1z"/>
	<path d="M-76.2,449.3c-1.3-0.8-2.5-1.5-3.1-1.8c3.2-6.5,5-13.8,5-21.5c0-8.9-2.4-17.2-6.5-24.5c-0.6-1.1-1.3-2.2-2-3.3
		c-3-4.5-6.9-8.6-11.3-11.9c-2.4-1.8-4.6-3.2-7.5-4.6c-5.3-2.6-10.9-4.3-16.5-4.8c-0.9-0.1-1.7-0.2-1.9-0.2h-0.3v-3.9v-3.9h-3h-3
		v3.9v3.9h-0.3c-0.2,0-1,0.1-1.9,0.2c-7.6,0.8-15.3,3.6-21.9,7.9c-4.6,3.1-8.8,7-12.1,11.5c-6.3,8.3-10,18.5-10,29.7
		c0,7.9,1.9,15.3,5.2,21.9c-0.7,0.4-1.8,1.1-3.1,1.8c-2,1.2-3.7,2.2-3.8,2.2c-0.1,0.1,0.1,0.4,1.4,2.6c0.8,1.4,1.5,2.6,1.5,2.6
		s1.7-1,3.8-2.2c1.3-0.8,2.5-1.4,3.2-1.8c8.8,13.3,23.9,22,40.9,22c17.2,0,32.4-8.9,41.1-22.4c0.7,0.4,1.8,1,3.2,1.8
		c2,1.2,3.7,2.2,3.8,2.2c0.1,0,0.4-0.5,1.6-2.5c1.3-2.3,1.5-2.6,1.4-2.7C-72.5,451.4-74.2,450.4-76.2,449.3z M-115.6,464.2
		c-0.4,0.1-0.9,0.2-1.3,0.2c-0.3,0-0.5,0.1-0.8,0.1c-0.2,0-0.3,0-0.5,0.1c-5.4,0.7-10.8,0.3-16.1-1.2c-0.1,0-0.3-0.1-0.4-0.1
		c-0.3-0.1-0.6-0.2-1-0.3c-15.6-5.1-27-19.8-27-37.2c0-21.6,17.5-39.1,39.1-39.1s39.1,17.5,39.1,39.1
		C-84.3,444.8-97.8,460.5-115.6,464.2L-115.6,464.2z"/>
	<path d="M-108.9,404.8c-0.8,0-1.5,0.2-2.1,0.5l0.1-7.4c0-2.5-2.1-4.6-4.8-4.6c-1.1,0-2.2,0.4-3,1c-0.7-1.7-2.4-2.8-4.4-2.8
		c-2.7,0-4.8,2-4.8,4.6v0.9c-0.8-0.5-1.7-0.8-2.6-0.8c-2.6,0-4.7,2-4.7,4.6l-0.1,17.5c-1.8-0.5-3.9,0.2-5,0.8
		c-2.1,1.4-2.3,4.4-1.6,12.8c0.5,5.8,1.1,9.4,1.7,11.5c0,0.1,0,0.1,0,0.2c2.7,7.7,9.3,12.6,17.4,12.6c4.9,0,9.6-1.9,13-5.4
		s5.3-8.2,5.3-13.2l0.2-28.3C-104.2,406.9-106.3,404.8-108.9,404.8z M-134.6,422.7c0.2,4.2,0,8.3,0,8.5c0,0.3,0.1,0.6,0.3,0.8
		c0.2,0.2,0.5,0.4,0.8,0.3c0.3,0,2.7-0.1,5.2,0.9c3.4,1.3,5.2,3.9,5.5,7.6v1.7c0,0.6,0.5,1.1,1.1,1.1s1.1-0.5,1.1-1.1v-1.2
		c6.4-0.6,9.5-5.8,9.6-6.1l0.2-0.4l-0.2-0.3c-0.2-0.2-4.1-6.1-10.8-6.1c-2.4,0-4.9,0.8-7.5,2.2c-1.2-0.3-2.3-0.4-3-0.5
		c0-1.4,0.1-4.5,0-7.6c-0.1-1.1-0.3-1.8-0.6-2.4l0.1-19.2c0-1.4,1.1-2.4,2.6-2.4s2.6,1.1,2.6,2.4c0,0.1,0,0.1,0,0.2v19.3
		c0,0.6,0.5,1.1,1.1,1.1c0.3,0,0.5-0.1,0.8-0.3s0.3-0.5,0.3-0.8v-24.2c0-1.4,1.1-2.4,2.6-2.4s2.6,1.1,2.6,2.5v1.7l0,0v0.1l-0.2,21.9
		c0,0.3,0.1,0.5,0.3,0.8s0.5,0.3,0.8,0.3c0.3,0,0.5-0.1,0.8-0.3s0.3-0.5,0.4-0.8l0.2-21.9c0-1.4,1.1-2.4,2.6-2.4s2.6,1.1,2.6,2.4
		l-0.2,23.9c0,0.3,0.1,0.5,0.3,0.8s0.5,0.3,0.8,0.3l0,0c0.6,0,1.1-0.5,1.1-1.1l0.1-12.4c0-0.1,0-0.1,0-0.2c0-1.1,0.5-2.4,2.1-2.4
		c1.4,0,2.6,1.1,2.6,2.4l-0.2,28.3c0,9.3-7.1,16.5-16.2,16.5c-7,0-12.9-4.2-15.3-10.8c0-0.1,0-0.2-0.1-0.2
		c-0.7-1.9-1.3-5.5-1.7-11.2c-0.6-7.5-0.5-10.2,0.6-10.8c0.8-0.5,2.5-1,3.6-0.5C-135,421-134.7,421.7-134.6,422.7z M-120.8,439.9
		c-0.1-0.8-0.2-1.4-0.4-2.1c1.4-0.3,2.4-1.5,2.4-3c0-0.5-0.1-0.9-0.3-1.3c-0.2,0.3-0.6,0.5-1.1,0.5c-0.8,0-1.4-0.6-1.4-1.4
		c0-0.4,0.2-0.7,0.3-0.9c-0.2-0.1-0.5-0.1-0.8-0.1c-1,0-1.9,0.5-2.5,1.2c-1-0.8-2.1-1.4-3.3-1.8c2-1,3.9-1.4,5.8-1.4
		c5.2,0,8.6,3.9,9.5,5.2C-113.2,436-116,439.5-120.8,439.9z"/>
	<polygon points="-87.9,402.3 -84.1,407 -160.6,451.2 -164.4,446.5 	"/>
</g>
</svg>
