<?xml version="1.0" encoding="utf-8"?>
<!-- Generator: Adobe Illustrator 19.0.0, SVG Export Plug-In . SVG Version: 6.00 Build 0)  -->
<svg version="1.1" id="Capa_1" xmlns="http://www.w3.org/2000/svg" xmlns:xlink="http://www.w3.org/1999/xlink" x="0px" y="0px"
	 viewBox="-210 325.9 173.5 190" style="enable-background:new -210 325.9 173.5 190;" xml:space="preserve">
<path d="M-68.7,474.2c-0.9-3.6-6.9-3.7-9.5-11.5c-2.5-7.8-9.1-7.1-7.1-13.5c2-6.4,0.2-12.2-1.2-16.7c-1.4-4.6,3.5-8.9-0.5-15.5
	c-0.8-1.3-2.5-2.4-4.8-3.2c4.3-1.1,8-2.6,9.8-4.5c7.1-7.7,1.2-18.4,4.6-25.5c3.4-7.1,9.2-20.6-5.5-17.2
	c-13.6,3.1-32.6,29.1-37.9,42.6c-0.2-1.7-0.7-3-1.3-3.8c1.1-0.4,1.9-1.3,1.9-2.4c0-0.4-0.1-0.7-0.3-1.1c0.1-0.2,0.1-0.4,0.1-0.6
	c0-0.7-0.4-1.3-0.8-1.3c-0.3,0-0.5,0.3-0.7,0.6c-0.4-0.2-0.7-0.2-1.2-0.3c0.2-1.1,1-2.1,1.8-3c0.9-1,1.7-2.1,2-3.6
	c0.2-0.1,0.4-0.5,0.4-0.9c0-0.5-0.3-1-0.6-1s-0.6,0.4-0.6,1c0,0.3,0.1,0.6,0.2,0.7c-0.3,1.3-1.1,2.4-1.9,3.4
	c-0.6,0.8-1.2,1.5-1.6,2.4c-0.4-0.9-1-1.6-1.6-2.4c-0.8-1-1.7-2-1.9-3.4c0.1-0.2,0.2-0.4,0.2-0.7c0-0.5-0.3-1-0.6-1
	c-0.3,0-0.6,0.4-0.6,1c0,0.4,0.2,0.8,0.4,0.9c0.3,1.4,1.2,2.5,2,3.6c0.8,1,1.5,1.9,1.8,3c-0.4,0-0.8,0.1-1.2,0.3
	c-0.1-0.4-0.4-0.6-0.7-0.6c-0.4,0-0.8,0.6-0.8,1.3c0,0.2,0,0.4,0.1,0.6c-0.2,0.3-0.3,0.7-0.3,1.1c0,1.1,0.8,2,1.9,2.4
	c-0.6,0.8-1.1,2.1-1.3,3.8c-5.3-13.6-24.3-39.5-37.9-42.6c-14.7-3.4-8.9,10.1-5.5,17.2c3.4,7.1-2.5,17.8,4.6,25.5
	c1.8,2,5.4,3.5,9.8,4.5c-2.3,0.8-4,1.9-4.8,3.2c-4.1,6.6,0.8,11-0.5,15.5s-3.2,10.3-1.2,16.7c2,6.4-4.6,5.7-7.1,13.5
	c-2.5,7.8-8.6,7.9-9.5,11.5c-1,4.2,6.4-0.9,11-8.3c8.4-13.5,15.5-4.4,19.8-11c4.2-6.6,6.5,0.2,14.7-14.9c2.3-4.1,4-8.1,5.2-11.7
	c0.1,0.3,0.1,0.6,0.2,0.9c0.7,2.4,1.9,3,1.9,5.2c0,2.5,0.8,4.5,1.7,4.5c1,0,1.7-2,1.7-4.5c0-2.2,1.2-2.7,1.9-5.1
	c0.1-0.3,0.2-0.7,0.3-1c1.3,3.6,3,7.6,5.2,11.7c8.2,15.1,10.5,8.3,14.7,14.9c4.2,6.6,11.3-2.5,19.8,11
	C-75.1,473.3-67.7,478.4-68.7,474.2z"/>
</svg>
