<?xml version="1.0" encoding="utf-8"?>
<!-- Generator: Adobe Illustrator 19.0.0, SVG Export Plug-In . SVG Version: 6.00 Build 0)  -->
<svg version="1.1" id="Capa_1" xmlns="http://www.w3.org/2000/svg" xmlns:xlink="http://www.w3.org/1999/xlink" x="0px" y="0px"
	 viewBox="-210 325.9 173.5 190" style="enable-background:new -210 325.9 173.5 190;" xml:space="preserve">
<style type="text/css">
	.st0{fill:#FFFFFF;}
</style>
<rect x="-203.6" y="340.6" width="160.7" height="160.7"/>
<g>
	<polygon class="st0" points="-159.7,428.3 -162,428.3 -162,402.5 -161.8,402.5 -154.6,429.1 -149.4,429.1 -143.2,402.6 
		-143.1,402.6 -143.1,428.3 -145.3,428.3 -145.3,429.1 -132.8,429.1 -132.8,428.3 -135.1,428.3 -135.1,401.1 -132.8,401.1 
		-132.8,400.3 -143.8,400.3 -148.7,421.5 -154.2,400.3 -165.3,400.3 -165.3,401.1 -163,401.1 -163,428.3 -165.3,428.3 -165.3,429.1 
		-159.7,429.1 	"/>
	<path class="st0" d="M-116,429.5c1.8,0,3.5-0.2,5.3-0.6s2.7-0.6,3-0.6c0.3,0,0.5,0.1,0.6,0.2c0.1,0.1,0.3,0.3,0.5,0.6h0.5l0.3-9.2
		h-0.7c-2.5,5.9-5.3,8.8-8.3,8.8c-2.2,0-3.9-1.1-5-3.3s-1.7-5.3-1.7-9.2V413c0-8.2,2.1-12.3,6.4-12.3c1.7,0,3.2,0.7,4.5,2.2
		c1.3,1.5,2.6,3.6,3.8,6.4h0.7l-0.3-8.9h-0.5c-0.2,0.3-0.3,0.5-0.5,0.6c-0.1,0.1-0.3,0.2-0.6,0.2c-0.3,0-1.2-0.2-2.8-0.6
		c-1.6-0.4-3.2-0.6-4.9-0.6c-4.3,0-7.8,1.3-10.3,3.9c-2.6,2.6-3.8,6.4-3.8,11.2c0,4.8,1.2,8.5,3.7,10.9
		C-123.9,428.3-120.5,429.5-116,429.5z"/>
	<path class="st0" d="M-79.7,424.6c-0.5-1-1.2-2-2.1-3c0.4-1.6,0.6-3.5,0.6-5.5h2.3v-0.7h-5.7v0.7h2.6c0,1.6-0.2,3.2-0.6,4.8
		c-1-1-2.7-2.2-5.1-3.8c-1.2-0.7-2-1.2-2.4-1.5c3.5-1.2,5.3-3,5.3-5.3c0-1.3-0.5-2.4-1.6-3.2c-1.1-0.8-2.7-1.2-4.9-1.2
		c-2.2,0-4,0.5-5.4,1.6c-1.5,1.1-2.2,2.6-2.2,4.7s1,4,2.9,5.7c-1.9,0.4-3.2,1.1-4,2c-0.8,0.9-1.2,2.1-1.2,3.5c0,2.1,0.9,3.7,2.6,4.7
		c1.7,1,4,1.5,6.9,1.5s5.2-1,6.8-2.9c1.2,1.6,1.7,3.1,1.7,4.6c0,1.5-0.3,2.8-0.9,3.8c-0.6,1-1.4,1.5-2.5,1.5c-1.2,0-1.6-0.6-1.2-1.7
		h1.1c0.1-0.5,0.2-0.9,0.2-1.2c0-1.6-0.9-2.4-2.6-2.4c-0.8,0-1.4,0.3-1.9,0.8c-0.5,0.5-0.8,1.2-0.8,2.1c0,0.9,0.4,1.7,1.2,2.3
		c0.8,0.6,1.9,0.9,3.3,0.9c2.1,0,4-0.9,5.7-2.8c1.7-1.9,2.5-4,2.5-6.3C-79,426.7-79.3,425.5-79.7,424.6z M-93.7,407.3
		c0.6-0.5,1.3-0.8,2.1-0.8c1.9,0,2.9,1.3,2.9,3.9c0,1.3-0.1,2.3-0.3,3c-0.2,0.7-0.8,1.3-1.7,1.7c-1.5-1-2.5-1.9-3-2.6
		s-0.8-1.6-0.8-2.8C-94.6,408.6-94.3,407.8-93.7,407.3z M-91,428.6c-1.7,0-3-0.5-3.9-1.4c-0.9-0.9-1.3-2.5-1.3-4.6s0.2-3.6,0.5-4.3
		c0.9,0.7,2.8,2.1,6,4.2c1.8,1.2,3.2,2.4,4.2,3.4C-86.8,427.7-88.6,428.6-91,428.6z"/>
	<path class="st0" d="M-51.8,426c3.2-2.2,4.8-6.2,4.8-11.8c0-5-1.3-8.5-4-10.7c-2.6-2.2-6.6-3.2-11.8-3.2h-12.7v0.8h2.7v27.2h-2.7
		v0.8h11.6C-58.8,429.1-54.8,428.1-51.8,426z M-64.8,401.1h1c2.1,0,3.6,0.3,4.8,0.9c2.4,1.3,3.5,5,3.5,11.2v2.4
		c0,4.6-0.6,7.9-1.8,9.9c-1.2,2-3.2,2.9-5.9,2.9h-1.6V401.1z"/>
	<polygon class="st0" points="-196.7,441.8 -196.4,441.8 -196.4,444.7 -197.9,441.7 -199.6,441.7 -199.6,441.8 -199.3,441.8 
		-199.3,445.8 -199.6,445.8 -199.6,445.9 -198.8,445.9 -198.8,445.8 -199.1,445.8 -199.1,442 -197,445.9 -196.2,445.9 -196.2,441.8 
		-195.9,441.8 -195.9,441.7 -196.7,441.7 	"/>
	<path class="st0" d="M-191.1,445.4c-0.3,0.2-0.6,0.3-0.9,0.3h-0.2v-1.9h0.1c0.2,0,0.4,0.1,0.5,0.2s0.2,0.3,0.3,0.6h0.1v-1.8h-0.1
		c-0.1,0.2-0.1,0.4-0.3,0.6c-0.1,0.1-0.3,0.2-0.5,0.2h-0.2v-1.9h0.2c0.4,0,0.6,0.1,0.8,0.2c0.2,0.1,0.4,0.4,0.5,0.8h0.1l-0.1-1.2
		h-3.1v0.1h0.4v3.9h-0.4v0.1h3.3l0-1.3h-0.1C-190.7,444.9-190.8,445.2-191.1,445.4z"/>
	<polygon class="st0" points="-183.8,441.8 -183.2,441.8 -183.9,444.6 -184.8,441.8 -184.4,441.8 -184.4,441.7 -186.3,441.7 
		-186.3,441.8 -185.9,441.8 -185.6,442.9 -186.1,444.7 -187,441.8 -186.6,441.8 -186.6,441.7 -188.6,441.7 -188.6,441.8 
		-188.3,441.8 -186.8,445.9 -186.3,445.9 -185.5,443.2 -184.6,445.9 -184.1,445.9 -183,441.8 -182.6,441.8 -182.6,441.7 
		-183.8,441.7 	"/>
	<polygon class="st0" points="-175.2,441.8 -174.6,441.8 -175.5,443.7 -176.3,441.8 -175.9,441.8 -175.9,441.7 -177.8,441.7 
		-177.8,441.8 -177.5,441.8 -176.5,443.9 -176.5,445.8 -176.9,445.8 -176.9,445.9 -175,445.9 -175,445.8 -175.3,445.8 -175.3,443.8 
		-174.4,441.8 -174,441.8 -174,441.7 -175.2,441.7 	"/>
	<path class="st0" d="M-170.4,441.6c-0.6,0-1.1,0.2-1.5,0.6c-0.4,0.4-0.5,0.9-0.5,1.6c0,0.7,0.2,1.2,0.5,1.6
		c0.3,0.4,0.8,0.5,1.5,0.5s1.2-0.2,1.5-0.6c0.3-0.4,0.5-0.9,0.5-1.6c0-0.7-0.2-1.2-0.5-1.6S-169.7,441.6-170.4,441.6z M-169.7,444
		c0,0.7,0,1.1-0.1,1.4c-0.1,0.3-0.3,0.4-0.6,0.4c-0.3,0-0.5-0.1-0.6-0.3c-0.1-0.1-0.1-0.2-0.1-0.4c0-0.2-0.1-0.6-0.1-1v-0.4
		c0-0.5,0-0.8,0-1c0-0.2,0-0.3,0.1-0.4c0-0.1,0.1-0.2,0.1-0.3s0.1-0.1,0.2-0.2s0.2,0,0.3,0s0.2,0,0.3,0c0.1,0.1,0.3,0.2,0.3,0.4
		c0.1,0.2,0.1,0.7,0.1,1.4V444z"/>
	<path class="st0" d="M-162.4,445.5c0,0.1-0.1,0.1-0.2,0.1c-0.1,0-0.1,0-0.1-0.1c0-0.1,0-0.2,0-0.4v-0.3c0-0.3-0.1-0.6-0.2-0.7
		c-0.1-0.1-0.4-0.2-0.7-0.3v0c0.3,0,0.6-0.1,0.8-0.3c0.2-0.1,0.3-0.4,0.3-0.7s-0.1-0.6-0.3-0.7c-0.1-0.1-0.2-0.1-0.5-0.2
		c-0.2-0.1-0.6-0.1-1.1-0.1h-1.8v0.1h0.4v4h-0.4v0.1h2v-0.1h-0.4v-2h0.3c0.2,0,0.3,0.1,0.3,0.2c0.1,0.1,0.1,0.3,0.1,0.5v0.4
		c0,0.4,0.1,0.7,0.2,0.9s0.4,0.2,0.7,0.2c0.3,0,0.5-0.1,0.7-0.2c0.1-0.1,0.2-0.3,0.2-0.7l-0.1,0
		C-162.4,445.3-162.4,445.4-162.4,445.5z M-163.9,442.8c0,0.3-0.1,0.5-0.2,0.7c-0.1,0.1-0.3,0.2-0.5,0.2h-0.2v-1.8h0.2
		c0.2,0,0.4,0.1,0.5,0.2c0.1,0.1,0.2,0.3,0.2,0.6V442.8z"/>
	<polygon class="st0" points="-157.7,442.9 -156.7,441.8 -156.3,441.8 -156.3,441.7 -157.4,441.7 -157.4,441.8 -156.9,441.8 
		-158.6,443.7 -158.6,443.7 -158.6,441.8 -158.3,441.8 -158.3,441.7 -160.1,441.7 -160.1,441.8 -159.8,441.8 -159.8,445.8 
		-160.1,445.8 -160.1,445.9 -158.3,445.9 -158.3,445.8 -158.6,445.8 -158.6,443.9 -158.6,443.9 -157.6,445.8 -157.9,445.8 
		-157.9,445.9 -156,445.9 -156,445.8 -156.3,445.8 	"/>
	<rect x="-150.4" y="441.1" class="st0" width="0.2" height="5.5"/>
	<path class="st0" d="M-141.9,445.4c-0.2,0.2-0.5,0.3-0.8,0.3h-0.2v-3.9h0.6v-0.1h-2.2v0.1h0.4v3.9h-0.4v0.1h3.2l0.1-1.4h-0.1
		C-141.5,444.9-141.7,445.2-141.9,445.4z"/>
	<path class="st0" d="M-137,441.6c-0.6,0-1.1,0.2-1.5,0.6c-0.4,0.4-0.5,0.9-0.5,1.6c0,0.7,0.2,1.2,0.5,1.6c0.3,0.4,0.8,0.5,1.5,0.5
		s1.2-0.2,1.5-0.6c0.3-0.4,0.5-0.9,0.5-1.6c0-0.7-0.2-1.2-0.5-1.6S-136.4,441.6-137,441.6z M-136.3,444c0,0.7,0,1.1-0.1,1.4
		c-0.1,0.3-0.3,0.4-0.6,0.4c-0.3,0-0.5-0.1-0.6-0.3c-0.1-0.1-0.1-0.2-0.1-0.4c0-0.2-0.1-0.6-0.1-1v-0.4c0-0.5,0-0.8,0-1
		c0-0.2,0-0.3,0.1-0.4c0-0.1,0.1-0.2,0.1-0.3s0.1-0.1,0.2-0.2s0.2,0,0.3,0s0.2,0,0.3,0c0.1,0.1,0.3,0.2,0.3,0.4
		c0.1,0.2,0.1,0.7,0.1,1.4V444z"/>
	<polygon class="st0" points="-130,441.8 -129.6,441.8 -129.6,444.7 -131.2,441.7 -132.9,441.7 -132.9,441.8 -132.5,441.8 
		-132.5,445.8 -132.9,445.8 -132.9,445.9 -132,445.9 -132,445.8 -132.4,445.8 -132.4,442 -130.3,445.9 -129.5,445.9 -129.5,441.8 
		-129.1,441.8 -129.1,441.7 -130,441.7 	"/>
	<path class="st0" d="M-125.2,441.7h-1.9v0.1h0.4v4h-0.4v0.1h1.7c0.7,0,1.3-0.2,1.8-0.5c0.5-0.3,0.7-0.9,0.7-1.7
		c0-0.7-0.2-1.2-0.6-1.6C-123.9,441.8-124.4,441.7-125.2,441.7z M-124.1,443.9c0,0.7-0.1,1.2-0.3,1.4c-0.2,0.3-0.5,0.4-0.9,0.4h-0.2
		v-4h0.1c0.3,0,0.5,0,0.7,0.1c0.3,0.2,0.5,0.7,0.5,1.6V443.9z"/>
	<path class="st0" d="M-118.6,441.6c-0.6,0-1.1,0.2-1.5,0.6c-0.4,0.4-0.5,0.9-0.5,1.6c0,0.7,0.2,1.2,0.5,1.6
		c0.3,0.4,0.8,0.5,1.5,0.5s1.2-0.2,1.5-0.6c0.3-0.4,0.5-0.9,0.5-1.6c0-0.7-0.2-1.2-0.5-1.6S-117.9,441.6-118.6,441.6z M-117.9,444
		c0,0.7,0,1.1-0.1,1.4c-0.1,0.3-0.3,0.4-0.6,0.4c-0.3,0-0.5-0.1-0.6-0.3c-0.1-0.1-0.1-0.2-0.1-0.4c0-0.2-0.1-0.6-0.1-1v-0.4
		c0-0.5,0-0.8,0-1c0-0.2,0-0.3,0.1-0.4s0.1-0.2,0.1-0.3c0.1-0.1,0.1-0.1,0.2-0.2s0.2,0,0.3,0s0.2,0,0.3,0c0.1,0.1,0.3,0.2,0.3,0.4
		c0.1,0.2,0.1,0.7,0.1,1.4V444z"/>
	<polygon class="st0" points="-111.5,441.8 -111.2,441.8 -111.2,444.7 -112.8,441.7 -114.4,441.7 -114.4,441.8 -114.1,441.8 
		-114.1,445.8 -114.4,445.8 -114.4,445.9 -113.6,445.9 -113.6,445.8 -113.9,445.8 -113.9,442 -111.9,445.9 -111,445.9 -111,441.8 
		-110.7,441.8 -110.7,441.7 -111.5,441.7 	"/>
	<rect x="-105" y="441.1" class="st0" width="0.2" height="5.5"/>
	<polygon class="st0" points="-96.8,441.8 -96.4,441.8 -96.4,443.7 -97.6,443.7 -97.6,441.8 -97.3,441.8 -97.3,441.7 -99.2,441.7 
		-99.2,441.8 -98.8,441.8 -98.8,445.8 -99.2,445.8 -99.2,445.9 -97.3,445.9 -97.3,445.8 -97.6,445.8 -97.6,443.8 -96.4,443.8 
		-96.4,445.8 -96.8,445.8 -96.8,445.9 -94.9,445.9 -94.9,445.8 -95.3,445.8 -95.3,441.8 -94.9,441.8 -94.9,441.7 -96.8,441.7 	"/>
	<path class="st0" d="M-90.7,441.6c-0.6,0-1.1,0.2-1.5,0.6c-0.4,0.4-0.5,0.9-0.5,1.6c0,0.7,0.2,1.2,0.5,1.6c0.3,0.4,0.8,0.5,1.5,0.5
		s1.2-0.2,1.5-0.6s0.5-0.9,0.5-1.6c0-0.7-0.2-1.2-0.5-1.6S-90.1,441.6-90.7,441.6z M-90,444c0,0.7,0,1.1-0.1,1.4
		c-0.1,0.3-0.3,0.4-0.6,0.4c-0.3,0-0.5-0.1-0.6-0.3c-0.1-0.1-0.1-0.2-0.1-0.4s-0.1-0.6-0.1-1v-0.4c0-0.5,0-0.8,0-1
		c0-0.2,0-0.3,0.1-0.4c0-0.1,0.1-0.2,0.1-0.3c0.1-0.1,0.1-0.1,0.2-0.2s0.2,0,0.3,0s0.2,0,0.3,0c0.1,0.1,0.3,0.2,0.3,0.4
		c0.1,0.2,0.1,0.7,0.1,1.4V444z"/>
	<polygon class="st0" points="-83.6,441.8 -83.3,441.8 -83.3,444.7 -84.9,441.7 -86.5,441.7 -86.5,441.8 -86.2,441.8 -86.2,445.8 
		-86.5,445.8 -86.5,445.9 -85.7,445.9 -85.7,445.8 -86.1,445.8 -86.1,442 -84,445.9 -83.2,445.9 -83.2,441.8 -82.8,441.8 
		-82.8,441.7 -83.6,441.7 	"/>
	<path class="st0" d="M-78.5,444.2h0.4v1.2c0,0.2,0,0.3-0.1,0.4s-0.2,0.1-0.4,0.1c-0.3,0-0.5-0.2-0.6-0.5c-0.2-0.3-0.2-0.8-0.2-1.4
		v-0.5c0-1.2,0.3-1.8,0.9-1.8c0.2,0,0.5,0.1,0.7,0.3c0.2,0.2,0.4,0.5,0.6,0.9h0.1l0-1.3h-0.1c0,0,0,0.1-0.1,0.1c0,0-0.1,0-0.1,0
		c0,0-0.2,0-0.4-0.1c-0.2-0.1-0.5-0.1-0.7-0.1c-0.6,0-1.1,0.2-1.5,0.6c-0.4,0.4-0.6,0.9-0.6,1.6s0.2,1.2,0.5,1.6
		c0.4,0.4,0.9,0.5,1.5,0.5c0.2,0,0.4,0,0.7-0.1s0.4-0.1,0.5-0.1c0.1,0,0.2,0.1,0.3,0.2h0.1v-1.7h0.2v-0.1h-1.7V444.2z"/>
	<polygon class="st0" points="-69.3,442.9 -68.3,441.8 -68,441.8 -68,441.7 -69,441.7 -69,441.8 -68.5,441.8 -70.2,443.7 
		-70.3,443.7 -70.3,441.8 -69.9,441.8 -69.9,441.7 -71.8,441.7 -71.8,441.8 -71.4,441.8 -71.4,445.8 -71.8,445.8 -71.8,445.9 
		-69.9,445.9 -69.9,445.8 -70.3,445.8 -70.3,443.9 -70.2,443.9 -69.2,445.8 -69.5,445.8 -69.5,445.9 -67.6,445.9 -67.6,445.8 
		-67.9,445.8 	"/>
	<path class="st0" d="M-63.9,441.6c-0.6,0-1.1,0.2-1.5,0.6c-0.4,0.4-0.5,0.9-0.5,1.6c0,0.7,0.2,1.2,0.5,1.6c0.3,0.4,0.8,0.5,1.5,0.5
		s1.2-0.2,1.5-0.6s0.5-0.9,0.5-1.6c0-0.7-0.2-1.2-0.5-1.6S-63.2,441.6-63.9,441.6z M-63.1,444c0,0.7,0,1.1-0.1,1.4
		c-0.1,0.3-0.3,0.4-0.6,0.4c-0.3,0-0.5-0.1-0.6-0.3c-0.1-0.1-0.1-0.2-0.1-0.4s-0.1-0.6-0.1-1v-0.4c0-0.5,0-0.8,0-1
		c0-0.2,0-0.3,0.1-0.4s0.1-0.2,0.1-0.3c0.1-0.1,0.1-0.1,0.2-0.2c0.1,0,0.2,0,0.3,0s0.2,0,0.3,0c0.1,0.1,0.3,0.2,0.3,0.4
		c0.1,0.2,0.1,0.7,0.1,1.4V444z"/>
	<polygon class="st0" points="-56.8,441.8 -56.5,441.8 -56.5,444.7 -58,441.7 -59.7,441.7 -59.7,441.8 -59.4,441.8 -59.4,445.8 
		-59.7,445.8 -59.7,445.9 -58.9,445.9 -58.9,445.8 -59.2,445.8 -59.2,442 -57.1,445.9 -56.3,445.9 -56.3,441.8 -56,441.8 -56,441.7 
		-56.8,441.7 	"/>
	<path class="st0" d="M-51.7,444.2h0.4v1.2c0,0.2,0,0.3-0.1,0.4s-0.2,0.1-0.4,0.1c-0.3,0-0.5-0.2-0.6-0.5c-0.2-0.3-0.2-0.8-0.2-1.4
		v-0.5c0-1.2,0.3-1.8,0.9-1.8c0.2,0,0.5,0.1,0.7,0.3c0.2,0.2,0.4,0.5,0.6,0.9h0.1l0-1.3h-0.1c0,0,0,0.1-0.1,0.1c0,0-0.1,0-0.1,0
		c0,0-0.2,0-0.4-0.1c-0.2-0.1-0.5-0.1-0.7-0.1c-0.6,0-1.1,0.2-1.5,0.6c-0.4,0.4-0.6,0.9-0.6,1.6s0.2,1.2,0.5,1.6
		c0.4,0.4,0.9,0.5,1.5,0.5c0.2,0,0.4,0,0.7-0.1s0.4-0.1,0.5-0.1c0.1,0,0.2,0.1,0.3,0.2h0.1v-1.7h0.2v-0.1h-1.7V444.2z"/>
	<path class="st0" d="M-169,396.5h-25.2v37.8h-6.9v1.3H-93v-1.3H-169V396.5z M-170.2,434.2l-17.6-3.5v-29.2l17.6-3.5V434.2z"/>
	<path class="st0" d="M-184.1,418c1.1,0,2-0.9,2-2c0-1.1-0.9-2-2-2c-1.1,0-2,0.9-2,2C-186.1,417.1-185.2,418-184.1,418z
		 M-184.1,415.4c0.4,0,0.7,0.3,0.7,0.7c0,0.4-0.3,0.7-0.7,0.7c-0.4,0-0.7-0.3-0.7-0.7C-184.8,415.7-184.5,415.4-184.1,415.4z"/>
	<rect x="-79.5" y="434.3" class="st0" width="32.4" height="1.3"/>
</g>
</svg>
