<?xml version="1.0" encoding="utf-8"?>
<!-- Generator: Adobe Illustrator 19.0.0, SVG Export Plug-In . SVG Version: 6.00 Build 0)  -->
<svg version="1.1" id="Capa_1" xmlns="http://www.w3.org/2000/svg" xmlns:xlink="http://www.w3.org/1999/xlink" x="0px" y="0px"
	 viewBox="-210 325.9 173.5 190" style="enable-background:new -210 325.9 173.5 190;" xml:space="preserve">
<g id="XMLID_100_">
	<path d="M-45.1,494.1h-156.3c-2,0-3.8-1-4.8-2.7s-1-3.8,0-5.5l78.1-135.4c1-1.7,2.8-2.8,4.8-2.8l0,0c2,0,3.8,1,4.8,2.7l78.2,135.4
		c1,1.7,1,3.8,0,5.5C-41.3,493-43.1,494.1-45.1,494.1z M-191.9,483.1h137.3l-68.7-118.9L-191.9,483.1z"/>
</g>
<g>
	<path d="M-130.5,432.5h-4.5V428c0-0.5-0.4-0.9-0.9-0.9s-0.9,0.4-0.9,0.9v4.5h-4.5c-0.5,0-0.9,0.4-0.9,0.9s0.4,0.9,0.9,0.9h4.5v4.5
		c0,0.5,0.4,0.9,0.9,0.9s0.9-0.4,0.9-0.9v-4.5h4.5c0.5,0,0.9-0.4,0.9-0.9S-130,432.5-130.5,432.5L-130.5,432.5z"/>
	<path d="M-149.3,419.8v52.3H-97v-52.3H-149.3z M-105.2,434.3H-116c-0.5,0-0.9-0.4-0.9-0.9s0.4-0.9,0.9-0.9h10.8
		c0.5,0,0.9,0.4,0.9,0.9S-104.7,434.3-105.2,434.3z M-124.2,470.3h-23.4v-23.4h23.4V470.3z M-124.2,445h-23.4v-23.4h23.4V445z
		 M-98.9,470.3h-23.4v-23.4h23.4V470.3z"/>
	<path d="M-116,462.2h10.8c0.5,0,0.9-0.4,0.9-0.9s-0.4-0.9-0.9-0.9H-116c-0.5,0-0.9,0.4-0.9,0.9C-116.9,461.8-116.5,462.2-116,462.2
		L-116,462.2z"/>
	<path d="M-116,456.8h10.8c0.5,0,0.9-0.4,0.9-0.9s-0.4-0.9-0.9-0.9H-116c-0.5,0-0.9,0.4-0.9,0.9S-116.5,456.8-116,456.8L-116,456.8z
		"/>
	<path d="M-147.6,446.9v23.4h23.4v-23.4H-147.6z M-130.9,462.6c0.4,0.4,0.4,0.9,0,1.3c-0.1,0.2-0.4,0.3-0.6,0.3s-0.4-0.1-0.6-0.3
		l-3.9-3.9l-3.9,3.9c-0.1,0.2-0.4,0.3-0.6,0.3s-0.4-0.1-0.6-0.3c-0.4-0.4-0.4-0.9,0-1.3l3.9-3.9l-3.9-3.9c-0.4-0.4-0.4-0.9,0-1.3
		c0.4-0.4,0.9-0.4,1.3,0l3.9,3.9l3.9-3.9c0.4-0.4,0.9-0.4,1.3,0c0.3,0.3,0.3,0.9-0.2,1.3l-3.9,3.9L-130.9,462.6z"/>
</g>
</svg>
