<?xml version="1.0" encoding="utf-8"?>
<!-- Generator: Adobe Illustrator 19.0.0, SVG Export Plug-In . SVG Version: 6.00 Build 0)  -->
<svg version="1.1" id="Capa_1" xmlns="http://www.w3.org/2000/svg" xmlns:xlink="http://www.w3.org/1999/xlink" x="0px" y="0px"
	 viewBox="-210 325.9 173.5 190" style="enable-background:new -210 325.9 173.5 190;" xml:space="preserve">
<style type="text/css">
	.st0{clip-path:url(#SVGID_1_);}
</style>
<g id="XMLID_100_">
	<path d="M-45.1,494.1h-156.3c-2,0-3.8-1-4.8-2.7s-1-3.8,0-5.5l78.1-135.4c1-1.7,2.8-2.8,4.8-2.8l0,0c2,0,3.8,1,4.8,2.7l78.2,135.4
		c1,1.7,1,3.8,0,5.5C-41.3,493-43.1,494.1-45.1,494.1z M-191.9,483.1h137.3l-68.7-118.9L-191.9,483.1z"/>
</g>
<g>
	<g>
		<defs>
			<rect id="SVGID_3_" x="-154.4" y="407.8" width="72.3" height="71.6"/>
		</defs>
		<clipPath id="SVGID_1_">
			<use xlink:href="#SVGID_3_"  style="overflow:visible;"/>
		</clipPath>
		<path class="st0" d="M-149.7,433.9c0.4,1.3,0.9,2.6,1.6,3.7l-1.9,2.4c-0.6,0.8-0.6,1.9,0.1,2.6l3.3,3.3c0.7,0.7,1.8,0.8,2.6,0.1
			l2.4-1.9c1.2,0.7,2.5,1.3,3.9,1.6l0.4,3.1c0.1,1,1,1.7,1.9,1.7h4.6c1,0,1.8-0.7,1.9-1.7l0.3-3c1.5-0.4,2.9-0.9,4.2-1.7l2.3,1.8
			c0.8,0.6,1.9,0.6,2.6-0.1l3.3-3.3c0.7-0.7,0.8-1.8,0.1-2.6l-1.8-2.3c0.7-1.3,1.3-2.7,1.7-4.1l2.8-0.3c1-0.1,1.7-1,1.7-1.9v-4.6
			c0-1-0.7-1.8-1.7-1.9l-2.7-0.3c-0.4-1.4-0.9-2.8-1.6-4l1.7-2.1c0.6-0.8,0.6-1.9-0.1-2.6l-3.3-3.3c-0.7-0.7-1.8-0.8-2.6-0.1
			l-2.1,1.6c-1.3-0.8-2.8-1.4-4.3-1.8l-0.3-2.7c-0.1-1-1-1.7-1.9-1.7h-4.6c-1,0-1.8,0.7-1.9,1.7l-0.3,2.7c-1.5,0.4-3,1-4.4,1.8
			l-2.1-1.7c-0.8-0.6-1.9-0.6-2.6,0.1l-3.3,3.3c-0.7,0.7-0.8,1.8-0.1,2.6l1.8,2.3c-0.7,1.3-1.3,2.7-1.6,4.1l-2.9,0.3
			c-1,0.1-1.7,1-1.7,1.9v4.6c0,1,0.7,1.8,1.7,1.9L-149.7,433.9z M-132.9,421.4c4.2,0,7.7,3.4,7.7,7.7c0,4.2-3.4,7.7-7.7,7.7
			c-4.2,0-7.7-3.4-7.7-7.7C-140.5,424.8-137.1,421.4-132.9,421.4L-132.9,421.4z M-132.9,421.4"/>
		<path class="st0" d="M-87.1,435.1l-2.4-2.1c-0.8-0.6-1.9-0.6-2.6,0.1l-1.3,1.3c-1.1-0.6-2.3-0.9-3.6-1.2l-0.4-1.9
			c-0.2-1-1.1-1.6-2.1-1.6l-3.2,0.3c-1,0.1-1.7,0.9-1.8,1.9l-0.1,1.9c-1.2,0.4-2.4,1-3.4,1.8l-1.6-1.1c-0.8-0.5-1.9-0.4-2.6,0.4
			l-2.1,2.5c-0.6,0.8-0.6,1.9,0.1,2.6l1.4,1.5c-0.5,1.1-0.8,2.3-1,3.4l-2,0.4c-1,0.2-1.6,1.1-1.6,2.1l0.3,3.2c0.1,1,0.9,1.7,1.9,1.8
			l2.2,0.1c0.4,1,0.9,2,1.5,2.9l-1.2,1.8c-0.5,0.8-0.4,1.9,0.4,2.6l2.4,2.1c0.8,0.6,1.9,0.6,2.6-0.1l1.6-1.5c1,0.5,2.1,0.9,3.3,1.1
			l0.4,2.2c0.2,1,1.1,1.6,2.1,1.6l3.2-0.3c1-0.1,1.7-0.9,1.8-1.9l0.1-2.1c1.2-0.4,2.3-1,3.3-1.7l1.8,1.2c0.8,0.5,1.9,0.4,2.6-0.4
			l2.1-2.4c0.6-0.8,0.6-1.9-0.1-2.6l-1.4-1.5c0.5-1.1,0.9-2.3,1.1-3.5l1.9-0.4c1-0.2,1.6-1.1,1.6-2.1l-0.3-3.2
			c-0.1-1-0.9-1.7-1.9-1.8l-1.9-0.1c-0.4-1.1-0.9-2.2-1.6-3.2l1.1-1.6C-86.2,436.8-86.4,435.7-87.1,435.1L-87.1,435.1z M-99.1,453.5
			c-3.4,0.3-6.5-2.3-6.8-5.7c-0.3-3.4,2.3-6.5,5.7-6.8c3.4-0.3,6.5,2.3,6.8,5.7C-93.1,450.2-95.7,453.2-99.1,453.5L-99.1,453.5z
			 M-99.1,453.5"/>
	</g>
	<path d="M-138.5,462.1c-1,0.1-1.7,0.9-1.7,1.9l0,2c0,1,0.7,1.8,1.7,1.9l1.4,0.2c0.2,0.9,0.6,1.7,1,2.5l-0.9,1.1
		c-0.6,0.8-0.6,1.9,0.1,2.6l1.4,1.4c0.7,0.7,1.8,0.8,2.6,0.2l1.2-0.9c0.8,0.5,1.7,0.9,2.6,1.1l0.2,1.5c0.1,1,0.9,1.7,1.9,1.7l2,0
		c1,0,1.8-0.7,1.9-1.7l0.2-1.4c1-0.2,1.9-0.6,2.8-1.1l1.1,0.9c0.8,0.6,1.9,0.6,2.6-0.1l1.4-1.4c0.7-0.7,0.8-1.8,0.2-2.6l-0.8-1.1
		c0.5-0.9,0.9-1.8,1.2-2.7l1.3-0.1c1-0.1,1.7-0.9,1.7-1.9l0-2c0-1-0.7-1.8-1.7-1.9l-1.3-0.2c-0.2-0.9-0.6-1.9-1.1-2.7l0.8-1
		c0.6-0.8,0.6-1.9-0.1-2.6l-1.4-1.4c-0.7-0.7-1.8-0.8-2.6-0.2l-0.9,0.7c-0.9-0.5-1.8-0.9-2.8-1.2l-0.1-1.2c-0.1-1-0.9-1.7-1.9-1.7
		l-2,0c-1,0-1.8,0.7-1.9,1.7l-0.2,1.2c-1,0.3-2,0.7-2.9,1.2l-1-0.8c-0.8-0.6-1.9-0.6-2.6,0.1l-1.4,1.4c-0.7,0.7-0.8,1.8-0.2,2.6
		l0.8,1.1c-0.5,0.9-0.9,1.8-1.1,2.7L-138.5,462.1z M-125.8,459.8c2.8,0,5.1,2.4,5,5.2c0,2.8-2.3,5.1-5.2,5c-2.8,0-5.1-2.3-5-5.2
		C-131,462.1-128.7,459.8-125.8,459.8L-125.8,459.8z M-125.8,459.8"/>
</g>
</svg>
