<?xml version="1.0" encoding="utf-8"?>
<!-- Generator: Adobe Illustrator 19.0.0, SVG Export Plug-In . SVG Version: 6.00 Build 0)  -->
<svg version="1.1" id="Capa_1" xmlns="http://www.w3.org/2000/svg" xmlns:xlink="http://www.w3.org/1999/xlink" x="0px" y="0px"
	 viewBox="-210 325.9 173.5 190" style="enable-background:new -210 325.9 173.5 190;" xml:space="preserve">
<g id="XMLID_100_">
	<path d="M-45.1,494.1h-156.3c-2,0-3.8-1-4.8-2.7s-1-3.8,0-5.5l78.1-135.4c1-1.7,2.8-2.8,4.8-2.8l0,0c2,0,3.8,1,4.8,2.7l78.2,135.4
		c1,1.7,1,3.8,0,5.5C-41.3,493-43.1,494.1-45.1,494.1z M-191.9,483.1h137.3l-68.7-118.9L-191.9,483.1z"/>
	<g>
		<path d="M-109.9,441.7h-6.7V435c0-0.7-0.6-1.3-1.3-1.3h-10.7c-0.7,0-1.3,0.6-1.3,1.3v6.7h-6.7c-0.7,0-1.3,0.6-1.3,1.3v10.7
			c0,0.7,0.6,1.3,1.3,1.3h6.7v6.7c0,0.7,0.6,1.3,1.3,1.3h10.7c0.7,0,1.3-0.6,1.3-1.3V455h6.7c0.7,0,1.3-0.6,1.3-1.3V443
			C-108.5,442.3-109.1,441.7-109.9,441.7z"/>
		<path d="M-98.8,425.6h-13.7v-3.8c0-3.1-2.5-5.5-5.6-5.5h-10.6c-3,0-5.2,2.3-5.2,5.5v3.8h-13.7c-4.3,0-7.7,3.5-7.7,7.7v30.1
			c0,4.3,3.5,7.7,7.7,7.7h48.8c4.3,0,7.7-3.5,7.7-7.7v-30.1C-91.1,429.1-94.6,425.6-98.8,425.6z M-131.3,421.8
			c0-1.4,0.8-2.9,2.5-2.9h10.6c1.6,0,3,1.3,3,2.9v3.8h-16.1V421.8z M-93.8,463.4c0,2.8-2.3,5-5,5h-48.8c-2.8,0-5-2.3-5-5v-30.1
			c0-2.8,2.3-5,5-5h48.8c2.8,0,5,2.3,5,5V463.4z"/>
	</g>
</g>
</svg>
