<?xml version="1.0" encoding="utf-8"?>
<!-- Generator: Adobe Illustrator 19.0.0, SVG Export Plug-In . SVG Version: 6.00 Build 0)  -->
<svg version="1.1" id="Capa_1" xmlns="http://www.w3.org/2000/svg" xmlns:xlink="http://www.w3.org/1999/xlink" x="0px" y="0px"
	 viewBox="-210 325.9 173.5 190" style="enable-background:new -210 325.9 173.5 190;" xml:space="preserve">
<g id="XMLID_100_">
	<path d="M-45.1,494.1h-156.3c-2,0-3.8-1-4.8-2.7s-1-3.8,0-5.5l78.1-135.4c1-1.7,2.8-2.8,4.8-2.8l0,0c2,0,3.8,1,4.8,2.7l78.2,135.4
		c1,1.7,1,3.8,0,5.5C-41.3,493-43.1,494.1-45.1,494.1z M-191.9,483.1h137.3l-68.7-118.9L-191.9,483.1z"/>
</g>
<g>
	<path d="M-130.3,420.2h5.3l-8.5-9.8c-0.7-0.8-2-0.9-2.8-0.2c-0.8,0.7-0.9,2-0.2,2.8L-130.3,420.2z"/>
	<path d="M-112.4,417.2c0.8-0.8,0.8-2,0-2.8c-0.8-0.8-2-0.8-2.8,0l-5.8,5.8h5.6L-112.4,417.2z"/>
	<path d="M-97.4,422.4h-25.9h-25.9c-2.5,0-4.5,2-4.5,4.5v32.4c0,2.5,2,4.5,4.5,4.5h7h37.8h7c2.5,0,4.5-2,4.5-4.5v-32.4
		C-92.8,424.4-94.9,422.4-97.4,422.4z M-110.7,454.4c0,1.7-1.4,3.1-3.1,3.1h-30c-1.7,0-3.1-1.4-3.1-3.1V432c0-1.7,1.4-3.1,3.1-3.1
		h30c1.7,0,3.1,1.4,3.1,3.1V454.4z M-97.8,447.4c0,0.4-0.3,0.7-0.7,0.7h-6.6c-0.4,0-0.7-0.3-0.7-0.7v-5c0-0.4,0.3-0.7,0.7-0.7h6.6
		c0.4,0,0.7,0.3,0.7,0.7V447.4z M-97.8,436.9c0,0.4-0.3,0.7-0.7,0.7h-6.6c-0.4,0-0.7-0.3-0.7-0.7v-5c0-0.4,0.3-0.7,0.7-0.7h6.6
		c0.4,0,0.7,0.3,0.7,0.7V436.9z"/>
	<path d="M-149.1,467.9c0,1.3,1,2.3,2.3,2.3h2.3c1.3,0,2.3-1,2.3-2.3v-1.8h-7V467.9z"/>
	<path d="M-104.4,467.9c0,1.3,1,2.3,2.3,2.3h2.3c1.3,0,2.3-1,2.3-2.3v-1.8h-7V467.9L-104.4,467.9z"/>
</g>
</svg>
