<?xml version="1.0" encoding="utf-8"?>
<!-- Generator: Adobe Illustrator 19.0.0, SVG Export Plug-In . SVG Version: 6.00 Build 0)  -->
<svg version="1.1" id="Capa_1" xmlns="http://www.w3.org/2000/svg" xmlns:xlink="http://www.w3.org/1999/xlink" x="0px" y="0px"
	 viewBox="-210 325.9 173.5 190" style="enable-background:new -210 325.9 173.5 190;" xml:space="preserve">
<g>
	<g id="XMLID_100_">
		<path d="M-45.1,494.1h-156.3c-2,0-3.8-1-4.8-2.7s-1-3.8,0-5.5l78.1-135.4c1-1.7,2.8-2.8,4.8-2.8l0,0c2,0,3.8,1,4.8,2.7l78.2,135.4
			c1,1.7,1,3.8,0,5.5C-41.3,493-43.1,494.1-45.1,494.1z M-191.9,483.1h137.3l-68.7-118.9L-191.9,483.1z"/>
	</g>
	<path d="M-106.4,409.5c-1,0-2,0.3-2.8,0.7l0.1-9.7c0-3.3-2.8-6.1-6.3-6.1c-1.5,0-2.9,0.5-3.9,1.3c-0.9-2.2-3.2-3.7-5.8-3.7
		c-3.5,0-6.3,2.7-6.3,6.1v1.2c-1-0.6-2.2-1-3.4-1c-3.4,0-6.2,2.7-6.2,6.1l-0.1,23.1c-2.4-0.7-5.2,0.2-6.6,1.1
		c-2.8,1.8-3,5.8-2.1,16.9c0.6,7.6,1.4,12.4,2.3,15.2c0,0.1,0,0.1,0,0.2c3.5,10.2,12.3,16.6,22.9,16.6c6.5,0,12.6-2.5,17.1-7.1
		s7-10.8,7-17.4l0.2-37.3C-100.2,412.3-103,409.5-106.4,409.5z M-140.3,433.1c0.2,5.6,0,11,0,11.2c0,0.4,0.1,0.8,0.4,1.1
		c0.3,0.3,0.7,0.5,1.1,0.4c0.4,0,3.6-0.1,6.9,1.2c4.5,1.7,6.9,5.1,7.2,10v2.2c0,0.8,0.6,1.4,1.4,1.4s1.4-0.6,1.4-1.4v-1.6
		c8.5-0.8,12.5-7.7,12.7-8l0.3-0.5l-0.3-0.4c-0.2-0.3-5.4-8-14.3-8c-3.2,0-6.5,1-9.9,2.9c-1.6-0.4-3-0.5-4-0.6c0-1.9,0.1-5.9,0-10
		c-0.1-1.4-0.4-2.4-0.8-3.2l0.1-25.3c0-1.8,1.5-3.2,3.4-3.2s3.4,1.5,3.4,3.2c0,0.1,0,0.1,0,0.2v25.5c0,0.8,0.6,1.4,1.4,1.4
		c0.4,0,0.7-0.1,1-0.4s0.4-0.6,0.4-1v-31.9c0-1.8,1.5-3.2,3.4-3.2s3.4,1.5,3.4,3.3v2.2l0,0v0.1l-0.2,28.8c0,0.4,0.1,0.7,0.4,1
		s0.6,0.4,1,0.4s0.7-0.1,1-0.4s0.4-0.6,0.5-1l0.2-28.9c0-1.8,1.5-3.2,3.4-3.2s3.4,1.5,3.4,3.2l-0.2,31.5c0,0.4,0.1,0.7,0.4,1
		s0.6,0.4,1,0.4l0,0c0.8,0,1.4-0.6,1.4-1.4l0.1-16.4c0-0.1,0-0.1,0-0.2c0-1.5,0.7-3.2,2.8-3.2c1.9,0,3.4,1.5,3.4,3.2l-0.2,37.3
		c0,12.2-9.4,21.7-21.3,21.7c-9.2,0-17-5.5-20.1-14.3c0-0.1,0-0.2-0.1-0.3c-0.9-2.5-1.7-7.3-2.3-14.8c-0.8-9.9-0.7-13.4,0.8-14.3
		c1.1-0.7,3.3-1.3,4.7-0.6C-140.8,430.8-140.4,431.7-140.3,433.1z M-122,455.8c-0.1-1-0.3-1.9-0.5-2.8c1.8-0.4,3.1-2,3.1-4
		c0-0.6-0.1-1.2-0.4-1.7c-0.3,0.4-0.8,0.7-1.4,0.7c-1,0-1.8-0.8-1.8-1.8c0-0.5,0.2-0.9,0.4-1.2c-0.3-0.1-0.6-0.1-1-0.1
		c-1.3,0-2.5,0.6-3.3,1.6c-1.3-1.1-2.8-1.9-4.3-2.4c2.6-1.3,5.1-1.9,7.6-1.9c6.8,0,11.3,5.2,12.5,6.8
		C-112,450.6-115.7,455.2-122,455.8z"/>
</g>
</svg>
