<?xml version="1.0" encoding="utf-8"?>
<!-- Generator: Adobe Illustrator 19.0.0, SVG Export Plug-In . SVG Version: 6.00 Build 0)  -->
<svg version="1.1" id="Capa_1" xmlns="http://www.w3.org/2000/svg" xmlns:xlink="http://www.w3.org/1999/xlink" x="0px" y="0px"
	 viewBox="-210 325.9 173.5 190" style="enable-background:new -210 325.9 173.5 190;" xml:space="preserve">
<g id="XMLID_100_">
	<path d="M-45.1,494.1h-156.3c-2,0-3.8-1-4.8-2.7s-1-3.8,0-5.5l78.1-135.4c1-1.7,2.8-2.8,4.8-2.8l0,0c2,0,3.8,1,4.8,2.7l78.2,135.4
		c1,1.7,1,3.8,0,5.5C-41.3,493-43.1,494.1-45.1,494.1z M-191.9,483.1h137.3l-68.7-118.9L-191.9,483.1z"/>
</g>
<g>
	<path d="M-110.4,424.4h11.1l-5.9-7.7l5.9-7.7h-11.1v-0.5c0-3.5-2.8-6.5-6.2-6.5c-3.4,0-6.2,2.9-6.2,6.5v13.9
		c-1-0.7-2.1-1.1-3.4-1.1c-1.9,0-3.5,0.9-4.7,2.2c-1.1-1.3-2.8-2.2-4.7-2.2c-1.9,0-3.5,0.9-4.7,2.2c-1.2-1.3-2.8-2.2-4.7-2.2
		c-3.3,0-6.1,2.7-6.2,6.1l0,0.2v27.1c0,13.1,10.3,22.3,25.2,22.3c14.8,0,25.2-9.2,25.2-22.3v-15.5c0-1-0.8-2.1-1.3-2.6
		c-1.1-0.9-4.6-1.6-8.3-2.2l0-0.1L-110.4,424.4L-110.4,424.4z M-119.7,424.4h6.2v9.7c-1.3-0.2-2.6-0.3-3.6-0.4c-1-0.1-1.9-0.1-2.6,0
		V424.4z M-105.6,421.3h-13.7v-9.2h13.7l-3.5,4.6L-105.6,421.3z M-116.6,405.1c1.7,0,3.1,1.5,3.1,3.4v0.5h-6.2v-0.5
		C-119.7,406.6-118.3,405.1-116.6,405.1L-116.6,405.1z M-126.2,424.4c1.8,0,3.2,1.5,3.2,3.4v6.3l0.1,0.6c-1.1,0.8-1.7,1.8-2.1,2.7
		c-0.4,1.2-0.5,2.4-0.2,3.6c-0.3,0.1-0.6,0.1-0.9,0.1c-1.7,0-3.1-1.4-3.2-3.2v-10.3l-0.1-0.5C-129,425.6-127.7,424.4-126.2,424.4
		L-126.2,424.4z M-135.5,424.4c1.6,0,2.9,1.3,3.1,2.9l0,0.5v10.4l0.1,0.4c-0.3,1.5-1.5,2.6-3,2.6c-1.7,0-3.1-1.4-3.2-3.2v-10.4
		l0-0.2C-138.4,425.7-137.2,424.4-135.5,424.4L-135.5,424.4z M-148.1,434.1v-6.3c0-1.9,1.4-3.4,3.2-3.4c1.6,0,2.9,1.3,3.1,2.9l0,0.5
		v10.7c-0.3,1.5-1.5,2.7-3.1,2.7c-1.8,0-3.2-1.5-3.2-3.4V434.1z M-104.2,438.9l0.2,0.3v15.5c0,11.3-9.1,19.2-22.1,19.2
		c-13,0-22.1-7.9-22.1-19.2v-11.4c0.9,0.6,2,0.9,3.2,0.9c1.9,0,3.6-0.9,4.7-2.2c1.1,1.4,2.8,2.2,4.7,2.2c1.9,0,3.6-0.9,4.7-2.2
		c1.1,1.4,2.8,2.2,4.7,2.2c0.8,0,1.6-0.2,2.3-0.5c0.7,0.8,1.6,1.5,2.7,1.9l9.8,2.7c0.8,0.2,1.7-0.3,1.9-1.1c0.2-0.8-0.3-1.7-1.1-1.9
		l-9.7-2.7c-1.7-0.6-2.7-2.5-2.1-4.2c0.2-0.6,0.8-2.2,4.7-1.7C-111.8,437.3-105.2,438.3-104.2,438.9L-104.2,438.9z M-104.2,438.9"/>
</g>
</svg>
