<?xml version="1.0" encoding="utf-8"?>
<!-- Generator: Adobe Illustrator 19.0.0, SVG Export Plug-In . SVG Version: 6.00 Build 0)  -->
<svg version="1.1" id="Capa_1" xmlns="http://www.w3.org/2000/svg" xmlns:xlink="http://www.w3.org/1999/xlink" x="0px" y="0px"
	 viewBox="-210 325.9 173.5 190" style="enable-background:new -210 325.9 173.5 190;" xml:space="preserve">
<g id="XMLID_100_">
	<path d="M-45.1,494.1h-156.3c-2,0-3.8-1-4.8-2.7s-1-3.8,0-5.5l78.1-135.4c1-1.7,2.8-2.8,4.8-2.8l0,0c2,0,3.8,1,4.8,2.7l78.2,135.4
		c1,1.7,1,3.8,0,5.5C-41.3,493-43.1,494.1-45.1,494.1z M-191.9,483.1h137.3l-68.7-118.9L-191.9,483.1z"/>
</g>
<g>
	<path d="M-116.4,432.4c0.4-0.4,0.6-0.9,0.6-1.5v-20.4c0-1.1-0.9-2.1-2.1-2.1H-130c-1.1,0-2.1,0.9-2.1,2.1v20.4
		c0,0.6,0.2,1.1,0.6,1.5c0,0,6.1,6.1,6.1,6.1c0.8,0.8,2.1,0.8,2.9,0C-122.5,438.4-116.3,432.3-116.4,432.4z M-123.9,435.3
		c-0.7,0-1.3-0.6-1.3-1.3c0-0.7,0.6-1.3,1.3-1.3c0.7,0,1.3,0.6,1.3,1.3C-122.7,434.7-123.2,435.3-123.9,435.3z"/>
	<path d="M-137.3,447.3c0.1,0,7.6-3.9,7.6-3.9c1-0.5,1.4-1.8,0.9-2.8c0,0-4-7.8-3.9-7.6c-0.2-0.5-0.7-0.8-1.2-1l-19.4-6.3
		c-1.1-0.4-2.2,0.2-2.6,1.3l-3.7,11.5c-0.4,1.1,0.2,2.2,1.3,2.6l19.4,6.3C-138.3,447.6-137.8,447.5-137.3,447.3z M-134.7,440.2
		c0.2-0.7,0.9-1,1.6-0.8c0.7,0.2,1,0.9,0.8,1.6c-0.2,0.7-0.9,1-1.6,0.8C-134.5,441.6-134.9,440.9-134.7,440.2z"/>
	<path d="M-126.4,449.4c-0.2-1.1-1.2-1.9-2.4-1.7c0,0-8.6,1.4-8.5,1.3c-0.5,0.1-1,0.4-1.3,0.8l-12,16.5c-0.7,0.9-0.5,2.2,0.5,2.9
		l9.8,7.1c0.9,0.7,2.2,0.5,2.9-0.5l12-16.5c0.3-0.5,0.5-1,0.4-1.5C-125.1,457.8-126.4,449.4-126.4,449.4z M-129.2,452.9
		c-0.4,0.6-1.2,0.7-1.8,0.3c-0.6-0.4-0.7-1.2-0.3-1.8c0.4-0.6,1.2-0.7,1.8-0.3C-128.9,451.5-128.8,452.3-129.2,452.9z"/>
	<path d="M-110,450.4c-0.3-0.5-0.8-0.7-1.3-0.8c-0.1,0-8.5-1.3-8.5-1.3c-1.1-0.2-2.2,0.6-2.4,1.7c0,0-1.4,8.6-1.3,8.5
		c-0.1,0.5,0,1.1,0.4,1.5l12,16.5c0.7,0.9,2,1.1,2.9,0.5l9.8-7.1c0.9-0.7,1.1-2,0.5-2.9L-110,450.4z M-117.6,453.7
		c-0.6,0.4-1.4,0.3-1.8-0.3c-0.4-0.6-0.3-1.4,0.3-1.8c0.6-0.4,1.4-0.3,1.8,0.3C-116.9,452.5-117,453.3-117.6,453.7z"/>
	<path d="M-88.4,439.2l-3.7-11.5c-0.4-1.1-1.5-1.7-2.6-1.3l-19.4,6.3c-0.5,0.2-1,0.6-1.2,1c0,0.1-3.9,7.6-3.9,7.6
		c-0.5,1-0.1,2.3,0.9,2.8c0,0,7.8,3.9,7.6,3.9c0.5,0.2,1,0.3,1.6,0.1l19.4-6.3C-88.7,441.4-88.1,440.2-88.4,439.2z M-114.2,442.5
		c-0.7,0.2-1.4-0.1-1.6-0.8c-0.2-0.7,0.2-1.4,0.8-1.6c0.7-0.2,1.4,0.1,1.6,0.8C-113.1,441.6-113.5,442.3-114.2,442.5z"/>
</g>
</svg>
