<?xml version="1.0" encoding="utf-8"?>
<!-- Generator: Adobe Illustrator 19.0.0, SVG Export Plug-In . SVG Version: 6.00 Build 0)  -->
<svg version="1.1" id="Capa_1" xmlns="http://www.w3.org/2000/svg" xmlns:xlink="http://www.w3.org/1999/xlink" x="0px" y="0px"
	 viewBox="-210 325.9 173.5 190" style="enable-background:new -210 325.9 173.5 190;" xml:space="preserve">
<g id="XMLID_100_">
	<path d="M-45.1,494.1h-156.3c-2,0-3.8-1-4.8-2.7s-1-3.8,0-5.5l78.1-135.4c1-1.7,2.8-2.8,4.8-2.8l0,0c2,0,3.8,1,4.8,2.7l78.2,135.4
		c1,1.7,1,3.8,0,5.5C-41.3,493-43.1,494.1-45.1,494.1z M-191.9,483.1h137.3l-68.7-118.9L-191.9,483.1z"/>
</g>
<g transform="matrix( 1, 0, 0, 1, 0,0) ">
	<g>
		<g id="a">
			<path d="M-94,426.2c-0.3-0.6-1.2-0.8-2.6-0.8c-3.4,0.1-6.7,0.8-9.9,2.1c-6.6,2.5-11.4,5.7-14.5,9.6c-0.2,0.3-0.7,0.8-1.2,1.5v0
				l-0.1-0.6c0-0.1-0.1-0.2-0.2-0.2c0,0-0.1-0.1-0.2-0.1c0,0-0.1,0.1-0.2,0.2c0,0.1,0,0.1,0,0.1h-0.7c0,0,0-0.1,0-0.1
				c-0.1-0.1-0.1-0.1-0.2-0.2c-0.1,0-0.2,0-0.2,0.1c-0.1,0-0.2,0.1-0.2,0.2l-0.1,0.6v0c-0.6-0.7-1-1.2-1.2-1.5
				c-3.1-3.9-7.9-7.1-14.5-9.6c-3.2-1.3-6.5-2-9.9-2.1c-1.4,0-2.3,0.3-2.6,0.8v0c-0.3,0.4-0.4,0.8-0.4,1.3c-0.2,1,0.4,2.7,1.9,5v0
				c1.9,2.5,4.3,6.2,7.3,11.1v0.1c1,1.4,1.8,2.3,2.2,2.5c0.5,0.3,1.3,0.5,2.3,0.5c1,0,1.6,0,1.6,0.1c0,0.1-0.2,0.3-0.7,0.8
				c-0.6,0.7-0.9,1.4-0.9,2.2v0c-0.2,1.7,0.6,3.9,2.6,6.6l0,0.1c0.9,0.9,1.7,1.5,2.4,1.8c0.6,0.4,1.5,0.5,2.6,0.3
				c1,0,1.8-0.3,2.4-0.7c0,0,0,0,0.1,0l2.6-4c0,0,0,0,0,0c0.2-0.5,0.3-1.3,0.2-2.4c-0.1-1.3-0.1-2.1,0-2.4c0.2-0.7,0.5-1.3,0.9-2
				l0.1,0c0.5-0.9,0.9-1.5,1.3-1.7c0.1,0.2,0,1-0.1,2.5c-0.1,2.3-0.2,3.9-0.1,4.6l0.3,1.7l-0.1,0.6c0,0,0,0.1,0.1,0.1l0.3,0.8
				c0,0.1,0,0.1,0.1,0.2c0.1,0,0.1,0,0.2,0c0.1,0,0.2-0.1,0.3-0.2c0,0,0-0.1,0-0.1h0.3c0,0,0,0.1,0,0.1c0,0.1,0.1,0.1,0.2,0.2
				c0.1,0,0.2,0,0.2,0c0.1-0.1,0.2-0.1,0.2-0.2l0.3-0.8c0-0.1,0-0.1,0-0.1l-0.1-0.6l0.3-1.7c0.1-0.8,0-2.3-0.2-4.6
				c-0.2-1.5-0.2-2.3-0.1-2.5c0.3,0.2,0.8,0.7,1.3,1.7l0.1,0c0.4,0.6,0.8,1.3,0.9,2c0.1,0.3,0.1,1.1,0,2.4c-0.1,1-0.1,1.8,0.2,2.4v0
				l2.6,4c0,0,0.1,0,0.1,0c0.6,0.5,1.4,0.7,2.4,0.7c1.2,0.2,2.1,0.1,2.7-0.3c0.6-0.3,1.4-0.9,2.4-1.8v-0.1c2-2.7,2.9-4.9,2.6-6.6v0
				c0-0.8-0.3-1.5-0.9-2.2c-0.4-0.4-0.7-0.7-0.7-0.8c0-0.1,0.6-0.1,1.6-0.1c1,0,1.7-0.2,2.3-0.5c0.4-0.2,1.1-1,2.2-2.5v-0.1
				c2.9-4.9,5.4-8.5,7.3-11.1v0c1.4-2.3,2.1-4,1.9-5C-93.5,427-93.7,426.6-94,426.2L-94,426.2z"/>
		</g>
	</g>
</g>
</svg>
