<?xml version="1.0" encoding="utf-8"?>
<!-- Generator: Adobe Illustrator 19.0.0, SVG Export Plug-In . SVG Version: 6.00 Build 0)  -->
<svg version="1.1" id="Capa_1" xmlns="http://www.w3.org/2000/svg" xmlns:xlink="http://www.w3.org/1999/xlink" x="0px" y="0px"
	 viewBox="-210 325.9 173.5 190" style="enable-background:new -210 325.9 173.5 190;" xml:space="preserve">
<g id="XMLID_100_">
	<path d="M-45.1,494.1h-156.3c-2,0-3.8-1-4.8-2.7s-1-3.8,0-5.5l78.1-135.4c1-1.7,2.8-2.8,4.8-2.8l0,0c2,0,3.8,1,4.8,2.7l78.2,135.4
		c1,1.7,1,3.8,0,5.5C-41.3,493-43.1,494.1-45.1,494.1z M-191.9,483.1h137.3l-68.7-118.9L-191.9,483.1z"/>
</g>
<g>
	<path d="M-105.8,448.6c8.6-1,15.3-8.3,15.3-17.1c0-1.1-0.9-1.9-1.9-1.9h-13.4V448.6z"/>
	<path d="M-140.7,429.6h-13.4c-1.1,0-1.9,0.9-1.9,1.9c0,8.8,6.7,16.2,15.3,17.1V429.6z"/>
	<path d="M-105.3,456.4c-0.7-0.5-1.4-1.1-1.8-1.9c-0.8-1.1-1.2-2.5-1.2-3.9c0-0.9-0.6-1.6-1.4-1.8v-0.1v-21.1h-27.2v21.1v0
		c0,0-0.1,0-0.1,0c-1.1,0-1.9,0.9-1.9,1.9c0,1.3-0.4,2.6-1,3.6c-0.5,0.8-1.2,1.5-2,2.1H-105.3L-105.3,456.4z"/>
	<path d="M-155.8,462.2v6c0,1.1,0.9,1.9,1.9,1.9h61.4c1.1,0,1.9-0.9,1.9-1.9v-6c0-1.1-0.9-1.9-1.9-1.9h-61.4
		C-154.9,460.3-155.8,461.1-155.8,462.2z"/>
</g>
</svg>
