<?xml version="1.0" encoding="utf-8"?>
<!-- Generator: Adobe Illustrator 19.0.0, SVG Export Plug-In . SVG Version: 6.00 Build 0)  -->
<svg version="1.1" id="Capa_1" xmlns="http://www.w3.org/2000/svg" xmlns:xlink="http://www.w3.org/1999/xlink" x="0px" y="0px"
	 viewBox="-210 325.9 173.5 190" style="enable-background:new -210 325.9 173.5 190;" xml:space="preserve">
<g id="XMLID_100_">
	<path d="M-45.1,494.1h-156.3c-2,0-3.8-1-4.8-2.7s-1-3.8,0-5.5l78.1-135.4c1-1.7,2.8-2.8,4.8-2.8l0,0c2,0,3.8,1,4.8,2.7l78.2,135.4
		c1,1.7,1,3.8,0,5.5C-41.3,493-43.1,494.1-45.1,494.1z M-191.9,483.1h137.3l-68.7-118.9L-191.9,483.1z"/>
</g>
<g>
	<path d="M-105.6,439c0-7-5.6-12.6-12.6-12.7c-5.7,0-10.5,3.8-12.1,8.9c-2.4-2.5-5.7-3.9-9.1-3.9c-6.9,0-12.5,5.5-12.7,12.4
		c-3.8,1.5-9.1,5.5-9.1,15.6c0,0.8,0.6,1.4,1.4,1.4h49.3c0.7,0,1.3-0.5,1.4-1.3c0-0.3,0.5-5.5-2.6-9.7
		C-108.1,447.6-105.6,443.6-105.6,439z M-118.2,429.1c5.4,0,9.8,4.4,9.8,9.8c0,3.8-2.2,7.1-5.4,8.7c-0.4-0.3-0.9-0.7-1.4-1
		c-0.2-6.2-5.2-11.1-11.4-11.1c-0.3,0-0.6,0-0.8,0.1C-126.1,431.8-122.4,429.1-118.2,429.1z"/>
	<path d="M-118.2,422c1,0,1.9-0.8,1.9-1.9v-6.8c0-1-0.8-1.9-1.9-1.9c-1,0-1.9,0.8-1.9,1.9v6.8C-120.1,421.2-119.2,422-118.2,422z"/>
	<path d="M-131.9,427c0.4,0.4,0.8,0.5,1.3,0.5s1-0.2,1.3-0.5c0.7-0.7,0.7-1.9,0-2.7l-3.6-3.6c-0.7-0.7-1.9-0.7-2.7,0
		c-0.7,0.7-0.7,1.9,0,2.7L-131.9,427z"/>
	<path d="M-103.5,448.7c-0.7-0.7-1.9-0.7-2.7,0c-0.7,0.7-0.7,1.9,0,2.7l2.8,2.8c0.4,0.4,0.8,0.5,1.3,0.5s1-0.2,1.3-0.5
		c0.7-0.7,0.7-1.9,0-2.7L-103.5,448.7z"/>
	<path d="M-93.2,435.5h-6.8c-1,0-1.9,0.8-1.9,1.9c0,1,0.8,1.9,1.9,1.9h6.8c1,0,1.9-0.8,1.9-1.9C-91.4,436.3-92.2,435.5-93.2,435.5z"
		/>
	<path d="M-105.5,426.8c0.5,0,1-0.2,1.3-0.5l2.9-2.9c0.7-0.7,0.7-1.9,0-2.7c-0.7-0.7-1.9-0.7-2.7,0l-2.9,2.9c-0.7,0.7-0.7,1.9,0,2.7
		C-106.5,426.7-106,426.8-105.5,426.8z"/>
</g>
</svg>
