<?xml version="1.0" encoding="utf-8"?>
<!-- Generator: Adobe Illustrator 19.0.0, SVG Export Plug-In . SVG Version: 6.00 Build 0)  -->
<svg version="1.1" id="Capa_1" xmlns="http://www.w3.org/2000/svg" xmlns:xlink="http://www.w3.org/1999/xlink" x="0px" y="0px"
	 viewBox="-210 325.9 173.5 190" style="enable-background:new -210 325.9 173.5 190;" xml:space="preserve">
<g id="XMLID_100_">
	<path d="M-45.1,494.1h-156.3c-2,0-3.8-1-4.8-2.7s-1-3.8,0-5.5l78.1-135.4c1-1.7,2.8-2.8,4.8-2.8l0,0c2,0,3.8,1,4.8,2.7l78.2,135.4
		c1,1.7,1,3.8,0,5.5C-41.3,493-43.1,494.1-45.1,494.1z M-191.9,483.1h137.3l-68.7-118.9L-191.9,483.1z"/>
</g>
<g>
	<path d="M-124.1,458.1c0-0.5,0.4-0.9,0.9-0.9h12.6c0.5,0,0.9,0.4,0.9,0.9c0,0.5-0.4,0.9-0.9,0.9h-12.6
		C-123.7,459-124.1,458.6-124.1,458.1z M-117.1,448.2c0.4,0.4,0.9,0.4,1.3,0l2.4-2.4l0.8,0.8l-2.4,2.4c-0.4,0.4-0.4,0.9,0,1.3
		l1.1,1.1c0.4,0.4,0.9,0.4,1.3,0l2.4-2.4l1.4,1.4c0.3,0.3,0.9,0.3,1.2,0c0.3-0.3,0.3-0.9,0-1.2l-8.9-8.9c-0.3-0.3-0.9-0.3-1.2,0
		c-0.3,0.3-0.3,0.9,0,1.2l1.9,1.9l-2.4,2.4c-0.4,0.4-0.4,0.9,0,1.3L-117.1,448.2z M-89.5,427.9l-5.3-5.3c-0.4-0.4-0.9-0.4-1.3,0
		c-0.4,0.4-0.4,0.9,0,1.3l0.5,0.5l-3.5,3.4l-1.7-1.7c-0.5-0.5-1.2-0.5-1.7,0l-12.6,12.4c-0.5,0.5-0.5,1.2,0,1.7l7.9,7.9
		c0.5,0.5,1.2,0.5,1.7,0l2.4-2.3c-1.3-0.7-2.2-2.1-2.2-3.7c0-2.4,1.9-4.3,4.3-4.3c1.6,0,3,0.9,3.8,2.2l4.3-4.3
		c0.5-0.5,0.5-1.2,0-1.7l-1.7-1.7l3.4-3.5l0.5,0.5c0.4,0.4,0.9,0.4,1.3,0C-89.2,428.8-89.2,428.2-89.5,427.9z M-98.5,441.9
		c0-1.4-1.2-2.6-2.6-2.6c-1.4,0-2.6,1.2-2.6,2.6c0,1.4,1.2,2.6,2.6,2.6C-99.6,444.5-98.5,443.4-98.5,441.9z M-103.5,474.3h-19.6
		c-1.3,0-2.3,1-2.3,2.3s1,2.3,2.3,2.3h19.6c1.3,0,2.3-1,2.3-2.3C-101.2,475.3-102.2,474.3-103.5,474.3z M-101.3,446.3
		c0.5,1.6,0.8,3.3,0.8,5.1c0,8.3-6.2,15.2-14.2,16.3v-7.7h-4.4v12.3h2.2c11.5,0,20.9-9.4,20.9-20.9c0-2.5-0.4-4.9-1.3-7.2
		C-98.1,445.5-99.6,446.3-101.3,446.3z M-137.9,410.9c-10.7,0-19.4,8.7-19.4,19.4s8.7,19.4,19.4,19.4s19.4-8.7,19.4-19.4
		S-127.2,410.9-137.9,410.9z M-137.9,446.1c-8.8,0-15.9-7.1-15.9-15.9s7.1-15.9,15.9-15.9c8.8,0,15.9,7.1,15.9,15.9
		C-122,439-129.1,446.1-137.9,446.1z M-130.8,434.9c0.2,1.4,0.3,2.5-1.6,2.6c-1.9,0.1-1.9-1.1-2-2.5c0-1.4,0-2.6,1.6-2.6
		C-131.2,432.4-131,433.5-130.8,434.9z M-125.9,438.5c-0.5-0.1-0.9-0.2-1.4-0.3c0.1-0.7,0-1.4-0.1-2.2l0.6,0c0.2,0,0.4-0.2,0.4-0.4
		c0-0.2-0.2-0.4-0.4-0.4l-0.7,0c0-0.2-0.1-0.4-0.1-0.6l-0.1-0.4c-0.1-0.4-0.2-0.8-0.3-1.2c0.2,0,0.5,0.1,0.7,0.1c0,0,0,0,0.1,0
		c0.2,0,0.3-0.1,0.4-0.3c0-0.2-0.1-0.4-0.3-0.4c-0.4-0.1-0.7-0.1-1.1-0.2c-0.2-0.6-0.4-1.1-0.6-1.6l0.5,0c0,0,0,0,0,0
		c0.2,0,0.4-0.2,0.4-0.4c0-0.2-0.1-0.4-0.4-0.4l-1-0.1c-0.5-0.7-1.1-1.2-1.9-1.4c0.1-0.3,0.3-0.5,0.4-0.7c0.1-0.2,0-0.4-0.1-0.5
		s-0.4,0-0.5,0.1c-0.2,0.3-0.3,0.6-0.5,0.9c-0.2,0-0.5-0.1-0.7-0.1c-0.3,0-0.7,0-1,0c0-0.3,0-0.6,0-0.9c0-0.2-0.2-0.4-0.4-0.4
		c-0.2,0-0.4,0.2-0.4,0.4c0,0.4,0,0.7,0,1.1c-0.8,0.2-1.4,0.7-1.8,1.3c-0.3-0.2-0.6-0.4-0.9-0.6c-0.2-0.1-0.4-0.1-0.5,0.1
		c-0.1,0.2-0.1,0.4,0.1,0.5c0.3,0.2,0.6,0.4,0.9,0.6c0,0,0,0,0,0c-0.3,0.7-0.5,1.6-0.6,2.4l-1.2,0c0,0,0,0,0,0
		c-0.2,0-0.4,0.2-0.4,0.4c0,0.2,0.2,0.4,0.4,0.4l1.1,0c0,0.5-0.1,1-0.1,1.4c0,0.2,0,0.5,0,0.7c0,0.1,0,0.3,0,0.4
		c-0.4,0-0.8,0.1-1.2,0.1c-0.2,0-0.4,0.2-0.4,0.4c0,0.2,0.2,0.4,0.4,0.4c0,0,0,0,0,0c0.4,0,0.8-0.1,1.1-0.1c0,0.8,0,1.5,0.2,2.1
		c-0.5,0.2-1,0.5-1.5,0.7c-0.2,0.1-0.3,0.3-0.2,0.5c0.1,0.1,0.2,0.2,0.3,0.2c0.1,0,0.1,0,0.2,0c0.5-0.2,1-0.5,1.4-0.7
		c0.1,0.3,0.4,0.7,0.6,0.9c0.7,0.7,1.8,1.1,3.3,1.1c0,0,0.1,0,0.1,0c-0.1,0.2-0.1,0.3-0.2,0.5c-0.1,0.2,0,0.4,0.2,0.5
		c0,0,0.1,0,0.1,0c0.2,0,0.3-0.1,0.4-0.3c0.1-0.2,0.2-0.5,0.3-0.8c0,0,0,0,0.1,0c0.9-0.1,1.7-0.2,2.4-0.4c0.2,0.3,0.4,0.6,0.6,0.8
		c0.1,0.1,0.2,0.1,0.3,0.1c0.1,0,0.2,0,0.2-0.1c0.2-0.1,0.2-0.4,0.1-0.5c-0.2-0.2-0.3-0.4-0.5-0.6c0.6-0.3,1-0.6,1.3-1.1
		c0.2-0.3,0.3-0.5,0.4-0.8c0.5,0.1,1,0.2,1.4,0.3c0,0,0,0,0.1,0c0.2,0,0.3-0.1,0.4-0.3C-125.6,438.7-125.7,438.5-125.9,438.5z
		 M-129.1,438.9c-0.5,0.7-1.6,1.1-3.3,1.2c-0.3,0-0.6,0-0.8,0c-1.1,0-1.8-0.2-2.2-0.6c-0.7-0.7-0.6-2.2-0.6-3.8c0-0.2,0-0.5,0-0.7
		c0.1-3.8,0.9-5.3,2.8-5.3c0.1,0,0.2,0,0.3,0c2.4,0.2,2.9,1.8,3.6,5l0.1,0.4C-128.8,436.6-128.5,438-129.1,438.9z M-144.1,429.7
		c0,1.4-0.9,1.5-1.9,1.5c-1.1,0.1-1.9,0.1-2-1.2c-0.1-1.3,0.8-1.4,1.9-1.5C-145,428.4-144.1,428.4-144.1,429.7z M-140.3,427.4
		c-0.2,0.1-0.3,0.2-0.5,0.4c-0.1-0.5-0.3-0.8-0.6-1.1c-0.1-0.2-0.3-0.3-0.5-0.4c0-0.3,0-0.7,0-1c0-0.2-0.2-0.4-0.4-0.4
		c-0.2,0-0.4,0.2-0.4,0.4c0,0.2,0,0.4,0,0.6c-0.5-0.1-1-0.2-1.4-0.2c-0.1-0.2-0.1-0.5-0.2-0.7c-0.1-0.2-0.3-0.3-0.5-0.2
		c-0.2,0.1-0.3,0.3-0.2,0.5c0.1,0.2,0.1,0.3,0.2,0.5c-0.5,0-1,0.1-1.6,0.2l0,0c-0.1,0-0.2,0-0.3,0c0-0.1,0-0.2,0-0.3
		c0-0.2-0.2-0.3-0.4-0.3c-0.2,0-0.3,0.2-0.3,0.4c0,0.1,0,0.2,0,0.3c-0.7,0.1-1.4,0.2-1.9,0.4c-0.1-0.2-0.3-0.4-0.4-0.6
		c-0.1-0.2-0.3-0.2-0.5-0.1c-0.2,0.1-0.2,0.3-0.1,0.5c0.1,0.2,0.2,0.3,0.3,0.5c-0.4,0.2-0.7,0.5-0.9,0.8c-0.1,0.2-0.2,0.3-0.3,0.5
		c-0.2-0.1-0.4-0.1-0.6-0.2c-0.2-0.1-0.4,0-0.5,0.2s0,0.4,0.2,0.5c0.2,0.1,0.4,0.1,0.6,0.2c0,0.4,0,0.8,0,1.2c-0.1,0-0.2,0-0.3,0.1
		c-0.2,0-0.3,0.3-0.3,0.5c0,0.2,0.2,0.3,0.4,0.3c0,0,0.1,0,0.1,0c0.1,0,0.2,0,0.3-0.1c0.3,1.1,0.9,1.9,1.7,2.4
		c0.1,0.1,0.3,0.1,0.4,0.2c-0.1,0.2-0.1,0.4-0.2,0.6c0,0.2,0.1,0.4,0.3,0.5c0,0,0.1,0,0.1,0c0.2,0,0.3-0.1,0.4-0.3
		c0-0.2,0.1-0.4,0.1-0.6c0.4,0.1,0.9,0.1,1.3,0.2c0,0.2,0,0.5,0.1,0.7c0,0.2,0.2,0.3,0.4,0.3c0,0,0,0,0,0c0.2,0,0.4-0.2,0.3-0.4
		c0-0.2,0-0.4-0.1-0.6c0.2,0,0.4,0,0.5,0c0.3,0,0.6,0,0.9,0c0,0.3,0,0.6,0.1,0.8c0,0.2,0.2,0.3,0.4,0.3c0,0,0,0,0,0
		c0.2,0,0.4-0.2,0.3-0.4c0-0.3,0-0.6-0.1-0.8c0.5-0.1,1-0.2,1.5-0.4c0.1,0.1,0.1,0.3,0.2,0.4l0.2,0.4c0.1,0.1,0.2,0.2,0.4,0.2
		c0,0,0.1,0,0.1,0c0.2-0.1,0.3-0.3,0.2-0.5l-0.2-0.4c-0.1-0.2-0.1-0.4-0.2-0.6c0.5-0.4,0.9-0.9,1.2-1.7c0.2,0,0.4,0.1,0.6,0.1
		c0,0,0,0,0,0c0.2,0,0.4-0.1,0.4-0.3c0-0.2-0.1-0.4-0.3-0.4c-0.2,0-0.4,0-0.5-0.1c0.1-0.3,0.1-0.6,0.1-1c0-0.3,0-0.6,0-0.9
		c0.3-0.2,0.5-0.4,0.8-0.6c0.2-0.1,0.2-0.4,0.1-0.5C-139.9,427.3-140.2,427.3-140.3,427.4z M-142.2,429.4c-0.2,2.7-1.4,2.9-3.8,2.9
		c-0.2,0-0.5,0-0.7,0c-2,0-2.9-0.3-3.3-2.3c-0.1-0.7-0.1-1.2,0.2-1.5c0.5-0.7,1.9-0.9,3.6-1.1l0,0c0.8-0.1,1.5-0.2,2.1-0.2
		c0.8,0,1.3,0.1,1.5,0.4C-142.2,428-142.1,428.6-142.2,429.4z M-137.7,422.4c-0.9-0.1-1.6-0.2-1.5-1.2c0.1-1,0.8-1.1,1.7-1
		c0.9,0,1.7,0.1,1.5,1.2C-136.2,422.5-136.9,422.5-137.7,422.4z M-139,425.1c0.2,0,0.3-0.2,0.3-0.4c0,0,0-0.1,0-0.1
		c0.3,0,0.5,0.1,0.8,0.1l0.1,0c0,0,0.1,0,0.1,0c0,0.1,0,0.1,0,0.2c0,0.2,0.2,0.4,0.4,0.4c0,0,0,0,0,0c0.2,0,0.4-0.2,0.4-0.4
		c0,0,0-0.1,0-0.1c0.2,0,0.4,0,0.7,0c0.2,0,0.3,0,0.5,0c0,0.2,0.1,0.4,0.1,0.5c0,0.2,0.2,0.3,0.4,0.3c0,0,0,0,0.1,0
		c0.2,0,0.3-0.2,0.3-0.4c0-0.2-0.1-0.4-0.1-0.5c0.5-0.2,0.9-0.5,1.2-0.9c0,0,0.1,0.1,0.1,0.1c0.1,0.1,0.2,0.1,0.3,0.1
		c0.1,0,0.2,0,0.3-0.1c0.1-0.2,0.1-0.4,0-0.5c-0.1-0.1-0.2-0.2-0.3-0.2c0.2-0.4,0.3-0.8,0.4-1.3c0.1,0,0.1,0,0.2,0
		c0.2,0,0.4-0.2,0.3-0.4c0-0.2-0.2-0.3-0.4-0.3c0.1-0.9-0.1-1.6-0.5-2.1c-0.2-0.2-0.3-0.3-0.5-0.5c0.1-0.2,0.2-0.4,0.3-0.6
		c0.1-0.2,0-0.4-0.1-0.5c-0.2-0.1-0.4,0-0.5,0.1c-0.1,0.2-0.2,0.4-0.4,0.6c-0.4-0.1-0.8-0.2-1.2-0.2c0-0.1,0-0.3,0-0.4
		c0-0.2-0.1-0.4-0.3-0.4c-0.2,0-0.4,0.1-0.4,0.3c0,0.2,0,0.3-0.1,0.5c-0.1,0-0.2,0-0.3,0c-0.1,0-0.2,0-0.3,0c-0.3,0-0.5,0-0.7,0
		c0-0.2,0-0.3,0-0.5c0-0.2-0.2-0.4-0.4-0.4c-0.2,0-0.4,0.2-0.4,0.4c0,0.2,0,0.3,0,0.5c-0.5,0-1,0.1-1.5,0.3
		c-0.1-0.2-0.2-0.3-0.3-0.5c-0.1-0.2-0.3-0.2-0.5-0.1c-0.2,0.1-0.2,0.3-0.1,0.5c0.1,0.1,0.2,0.3,0.3,0.5c-0.1,0.1-0.2,0.2-0.4,0.3
		c-0.2,0.2-0.4,0.5-0.5,0.8c-0.2,0-0.3-0.1-0.5-0.1c-0.2,0-0.4,0.1-0.4,0.3c0,0.2,0.1,0.4,0.3,0.4c0.1,0,0.3,0,0.4,0.1
		c0,0.2,0,0.4,0,0.7c0,0.2,0,0.3,0,0.5c-0.1,0.1-0.2,0.1-0.4,0.2c-0.2,0.1-0.3,0.3-0.2,0.5c0.1,0.1,0.2,0.2,0.3,0.2
		c0.1,0,0.1,0,0.2,0c0.1,0,0.1-0.1,0.2-0.1c0.2,0.6,0.5,1,0.9,1.3c0,0.2,0,0.3,0,0.5c0,0.2,0.2,0.4,0.4,0.4c0,0,0,0,0,0
		c0.2,0,0.4-0.2,0.4-0.4c0,0,0,0,0,0c0.2,0.1,0.5,0.2,0.7,0.2c0,0.2,0.1,0.3,0.1,0.5C-139.4,425-139.2,425.1-139,425.1
		C-139,425.1-139,425.1-139,425.1z M-140.6,421c0-0.5,0.1-0.9,0.3-1.1c0.5-0.5,1.7-0.5,3-0.6c0.1,0,0.2,0,0.3,0c1,0,2,0,2.3,0.5
		c0.3,0.3,0.2,1,0.1,1.6c-0.4,1.9-1.1,1.9-1.7,1.9c-0.4,0-0.8-0.1-1.3-0.1l-0.1,0C-139.8,422.9-140.6,422.6-140.6,421z"/>
</g>
</svg>
