<?xml version="1.0" encoding="utf-8"?>
<!-- Generator: Adobe Illustrator 19.0.0, SVG Export Plug-In . SVG Version: 6.00 Build 0)  -->
<svg version="1.1" id="Capa_1" xmlns="http://www.w3.org/2000/svg" xmlns:xlink="http://www.w3.org/1999/xlink" x="0px" y="0px"
	 viewBox="-210 325.9 173.5 190" style="enable-background:new -210 325.9 173.5 190;" xml:space="preserve">
<g id="XMLID_100_">
	<path d="M-45.1,494.1h-156.3c-2,0-3.8-1-4.8-2.7s-1-3.8,0-5.5l78.1-135.4c1-1.7,2.8-2.8,4.8-2.8l0,0c2,0,3.8,1,4.8,2.7l78.2,135.4
		c1,1.7,1,3.8,0,5.5C-41.3,493-43.1,494.1-45.1,494.1z M-191.9,483.1h137.3l-68.7-118.9L-191.9,483.1z"/>
</g>
<g>
	<path d="M-102.8,438.5c0,1.5,0,2.9,0,4.2h14.5l3.2-7.9v-0.4h-17.7C-102.8,435.8-102.8,437.2-102.8,438.5L-102.8,438.5z
		 M-102.8,438.5"/>
	<path d="M-143.3,438.5c0-1.3,0-2.7,0-4.1h-18.1v0.4l3.4,7.9h14.7C-143.3,441.3-143.3,440-143.3,438.5L-143.3,438.5z M-143.3,438.5"
		/>
	<path d="M-143.3,447.3h-12.8l3.5,8.3h9.9c0-0.2-0.1-0.4-0.1-0.5C-143.1,452.8-143.2,450.4-143.3,447.3L-143.3,447.3z M-143.3,447.3
		"/>
	<path d="M-103.4,455.5h9.6l3.5-8.3h-12.6c-0.1,3.1-0.2,5.6-0.5,7.7C-103.3,455.2-103.3,455.4-103.4,455.5L-103.4,455.5z
		 M-103.4,455.5"/>
	<path d="M-141.6,459.9h-9.1l3.5,8.3h12.5c-1.3-1-2.5-2-3.4-2.9C-139.7,463.7-140.8,462-141.6,459.9L-141.6,459.9z M-141.6,459.9"/>
	<path d="M-111.3,468.2H-99l3.5-8.3h-8.9c-0.8,2.1-1.9,3.8-3.4,5.3C-108.8,466.1-110,467.2-111.3,468.2L-111.3,468.2z M-111.3,468.2
		"/>
	<path d="M-135.3,462.3c3.5,3.5,12.2,9.3,12.2,9.3s8.7-5.8,12.2-9.3c4.4-4.3,3.9-10.3,3.9-29.2l-16.1-6.8l-16.1,6.8
		C-139.1,452-139.7,458-135.3,462.3L-135.3,462.3z M-135.3,462.3"/>
</g>
</svg>
