<?xml version="1.0" encoding="utf-8"?>
<!-- Generator: Adobe Illustrator 19.0.0, SVG Export Plug-In . SVG Version: 6.00 Build 0)  -->
<svg version="1.1" id="Capa_1" xmlns="http://www.w3.org/2000/svg" xmlns:xlink="http://www.w3.org/1999/xlink" x="0px" y="0px"
	 viewBox="-210 325.9 173.5 190" style="enable-background:new -210 325.9 173.5 190;" xml:space="preserve">
<g id="XMLID_100_">
	<path d="M-45.1,494.1h-156.3c-2,0-3.8-1-4.8-2.7s-1-3.8,0-5.5l78.1-135.4c1-1.7,2.8-2.8,4.8-2.8l0,0c2,0,3.8,1,4.8,2.7l78.2,135.4
		c1,1.7,1,3.8,0,5.5C-41.3,493-43.1,494.1-45.1,494.1z M-191.9,483.1h137.3l-68.7-118.9L-191.9,483.1z"/>
</g>
<path d="M-98.1,416.7c-1.1-1.2-2.6-1.8-4.2-1.8h-41.9c-3.3,0.1-5.9,2.8-6.1,6v42c0.1,3.3,2.8,5.9,6.1,6h41.9c3.3-0.1,5.9-2.7,6-6
	v-42C-96.3,419.3-96.9,417.8-98.1,416.7z M-102.3,462.9h-21v-18h-6.1v9l-11.9-12l12-12v9h6v-18h21V462.9z M-117.2,444.9h-6.1V439
	h6.1v-9l11.9,11.9l-12,12L-117.2,444.9z"/>
</svg>
