<?xml version="1.0" encoding="utf-8"?>
<!-- Generator: Adobe Illustrator 19.0.0, SVG Export Plug-In . SVG Version: 6.00 Build 0)  -->
<svg version="1.1" id="Capa_1" xmlns="http://www.w3.org/2000/svg" xmlns:xlink="http://www.w3.org/1999/xlink" x="0px" y="0px"
	 viewBox="-210 325.9 173.5 190" style="enable-background:new -210 325.9 173.5 190;" xml:space="preserve">
<g id="XMLID_100_">
	<path d="M-45.1,494.1h-156.3c-2,0-3.8-1-4.8-2.7s-1-3.8,0-5.5l78.1-135.4c1-1.7,2.8-2.8,4.8-2.8l0,0c2,0,3.8,1,4.8,2.7l78.2,135.4
		c1,1.7,1,3.8,0,5.5C-41.3,493-43.1,494.1-45.1,494.1z M-191.9,483.1h137.3l-68.7-118.9L-191.9,483.1z"/>
</g>
<g>
	<polygon points="-123.7,420.2 -133,426.4 -123.7,432.6 -114.4,426.4 	"/>
	<polygon points="-134.8,438.6 -125.9,444.5 -125.9,436.5 -134.8,430.6 	"/>
	<path d="M-86.2,452l-8.9-16.8c0.2-1.4,0.3-2.9,0.3-4.4c0-15.9-12.9-28.8-28.8-28.8s-28.8,12.9-28.8,28.8c0,7.9,3.2,15.4,8.9,20.8
		v23.9c0,1.2,1,2.2,2.2,2.2h26.6c1.2,0,2.2-1,2.2-2.2v-7h11.1c3.7,0,6.7-3,6.7-6.7v-6.7h6.7c0.8,0,1.5-0.4,1.9-1.1
		C-85.9,453.5-85.9,452.7-86.2,452z M-103.8,440.3c-0.3,1.2-1.5,1.9-2.7,1.6l-2.4-0.6c-0.6,0.6-12.9,8.7-13.6,9.2c0,0-0.1,0-0.1,0
		c-0.8,0.4-1.4,0.4-2.2,0c0,0-0.1,0-0.1,0c-0.7-0.5-13-8.6-13.6-9.2l-2.4,0.6c-1.2,0.3-2.4-0.4-2.7-1.6c-0.3-1.2,0.4-2.4,1.6-2.7
		l2.8-0.7v-10.5c0-0.7,0.5-1.5,1-1.8l12.3-8.2v-3.2c0-1.2,1-2.2,2.2-2.2c1.2,0,2.2,1,2.2,2.2v3.2c0.7,0.5,11.8,7.9,12.4,8.3
		c0.5,0.4,0.9,1.1,0.9,1.7v10.5l2.8,0.7C-104.2,437.9-103.5,439.1-103.8,440.3z"/>
	<polygon points="-121.5,444.5 -112.6,438.6 -112.6,430.6 -121.5,436.5 	"/>
</g>
</svg>
