<?xml version="1.0" encoding="utf-8"?>
<!-- Generator: Adobe Illustrator 19.0.0, SVG Export Plug-In . SVG Version: 6.00 Build 0)  -->
<svg version="1.1" id="Capa_1" xmlns="http://www.w3.org/2000/svg" xmlns:xlink="http://www.w3.org/1999/xlink" x="0px" y="0px"
	 viewBox="-210 325.9 173.5 190" style="enable-background:new -210 325.9 173.5 190;" xml:space="preserve">
<style type="text/css">
	.st0{clip-path:url(#SVGID_1_);}
</style>
<g id="XMLID_100_">
	<path d="M-45.1,494.1h-156.3c-2,0-3.8-1-4.8-2.7s-1-3.8,0-5.5l78.1-135.4c1-1.7,2.8-2.8,4.8-2.8l0,0c2,0,3.8,1,4.8,2.7l78.2,135.4
		c1,1.7,1,3.8,0,5.5C-41.3,493-43.1,494.1-45.1,494.1z M-191.9,483.1h137.3l-68.7-118.9L-191.9,483.1z"/>
</g>
<g>
	<g>
		<defs>
			<rect id="SVGID_3_" x="-153.5" y="406.5" width="70.5" height="70.5"/>
		</defs>
		<clipPath id="SVGID_1_">
			<use xlink:href="#SVGID_3_"  style="overflow:visible;"/>
		</clipPath>
		<path class="st0" d="M-84,467.1l-16.9-17.5c-1.2-1.3-2.7-1.8-3.4-1.1c-0.7,0.6-2.2,0.1-3.4-1.1l-0.2-0.2c7.6-10,6.8-24.2-2.3-33.3
			c-9.9-9.9-26-9.9-35.9,0c-9.9,9.9-9.9,26,0,35.9c9.2,9.2,23.8,9.9,33.8,1.9l0.1,0.1c1.2,1.3,1.7,2.8,1,3.4c-0.7,0.6-0.2,2.2,1,3.4
			l16.9,17.5c1.2,1.3,3.2,1.3,4.5,0.1l4.7-4.6C-82.8,470.3-82.8,468.3-84,467.1L-84,467.1z M-115.7,444.1c-6.8,6.8-17.9,6.8-24.8,0
			c-6.8-6.8-6.8-17.9,0-24.8c6.8-6.8,17.9-6.8,24.8,0C-108.9,426.2-108.9,437.3-115.7,444.1L-115.7,444.1z M-115.7,444.1"/>
	</g>
</g>
</svg>
