<?xml version="1.0" encoding="utf-8"?>
<!-- Generator: Adobe Illustrator 19.0.0, SVG Export Plug-In . SVG Version: 6.00 Build 0)  -->
<svg version="1.1" id="Capa_1" xmlns="http://www.w3.org/2000/svg" xmlns:xlink="http://www.w3.org/1999/xlink" x="0px" y="0px"
	 viewBox="-210 325.9 173.5 190" style="enable-background:new -210 325.9 173.5 190;" xml:space="preserve">
<g id="XMLID_100_">
	<path d="M-45.1,494.1h-156.3c-2,0-3.8-1-4.8-2.7s-1-3.8,0-5.5l78.1-135.4c1-1.7,2.8-2.8,4.8-2.8l0,0c2,0,3.8,1,4.8,2.7l78.2,135.4
		c1,1.7,1,3.8,0,5.5C-41.3,493-43.1,494.1-45.1,494.1z M-191.9,483.1h137.3l-68.7-118.9L-191.9,483.1z"/>
</g>
<path d="M-123.3,407.1c-20.3,0-36.7,16.5-36.7,36.7s16.5,36.7,36.7,36.7c20.3,0,36.7-16.5,36.7-36.7
	C-86.5,423.6-103,407.1-123.3,407.1z M-123.3,477.1c-18.3,0-33.2-14.9-33.2-33.2s14.9-33.2,33.2-33.2c18.3,0,33.2,14.9,33.2,33.2
	S-105,477.1-123.3,477.1z"/>
<path d="M-123.2,451.4c-9.9,0-18.4,5.9-22.2,14.4c1.1,0.2,2.3,0.3,3.5,0.3c7.5,0,14.2-3.4,18.6-8.7c4.5,5.3,11.2,8.7,18.7,8.7
	c1.2,0,2.4-0.1,3.5-0.3C-104.9,457.3-113.4,451.4-123.2,451.4z"/>
<path d="M-123.3,421.6c-5.7,0-10.4,4.6-10.4,10.4c0,5.7,4.6,10.4,10.4,10.4c5.7,0,10.4-4.6,10.4-10.4
	C-112.9,426.2-117.5,421.6-123.3,421.6z M-123.3,440.1c-4.5,0-8.1-3.6-8.1-8.1c0-4.5,3.6-8.1,8.1-8.1c4.5,0,8.1,3.6,8.1,8.1
	C-115.1,436.5-118.8,440.1-123.3,440.1z"/>
<path d="M-119.4,429.6c-0.3,0.4-0.7,0.6-1.2,0.6c-0.8,0-1.5-0.7-1.5-1.5c0-0.4,0.1-0.7,0.4-1c-0.5-0.2-0.9-0.2-1.5-0.2
	c-2.5,0-4.5,2-4.5,4.5s2,4.5,4.5,4.5c2.5,0,4.5-2,4.5-4.5C-118.8,431.1-119,430.3-119.4,429.6z"/>
</svg>
