<?xml version="1.0" encoding="utf-8"?>
<!-- Generator: Adobe Illustrator 19.0.0, SVG Export Plug-In . SVG Version: 6.00 Build 0)  -->
<svg version="1.1" id="Capa_1" xmlns="http://www.w3.org/2000/svg" xmlns:xlink="http://www.w3.org/1999/xlink" x="0px" y="0px"
	 viewBox="-210 325.9 173.5 190" style="enable-background:new -210 325.9 173.5 190;" xml:space="preserve">
<g id="XMLID_100_">
	<path d="M-45.1,494.1h-156.3c-2,0-3.8-1-4.8-2.7s-1-3.8,0-5.5l78.1-135.4c1-1.7,2.8-2.8,4.8-2.8l0,0c2,0,3.8,1,4.8,2.7l78.2,135.4
		c1,1.7,1,3.8,0,5.5C-41.3,493-43.1,494.1-45.1,494.1z M-191.9,483.1h137.3l-68.7-118.9L-191.9,483.1z"/>
</g>
<g>
	<path d="M-119.9,456c-2.2,0.4-4.4,0.4-6.6,0v6.2h-4.9l8.2,14.3l8.2-14.2h-4.9V456z"/>
	<path d="M-126.6,418.6c2.2-0.4,4.4-0.4,6.6,0v-5h4.9l-8.2-14.2l-8.2,14.2h4.9V418.6z"/>
	<path d="M-142,434.6h-5.5v-4.9l-14.2,8.2l14.2,8.2v-4.9h5.7C-142.3,439-142.3,436.8-142,434.6z"/>
	<path d="M-84.8,437.9l-14.2-8.2v4.9h-5.5c0.3,2.2,0.2,4.4-0.2,6.6h5.7v4.9L-84.8,437.9z"/>
	<circle cx="-123.3" cy="430.8" r="6.9"/>
	<path d="M-108.4,449h-29.7v-1.1c0-4.9,3.9-8.8,8.8-8.8l0,0h12.1c4.9,0,8.8,3.9,8.8,8.8V449z"/>
</g>
</svg>
