<?xml version="1.0" encoding="utf-8"?>
<!-- Generator: Adobe Illustrator 19.0.0, SVG Export Plug-In . SVG Version: 6.00 Build 0)  -->
<svg version="1.1" id="Capa_1" xmlns="http://www.w3.org/2000/svg" xmlns:xlink="http://www.w3.org/1999/xlink" x="0px" y="0px"
	 viewBox="-210 325.9 173.5 190" style="enable-background:new -210 325.9 173.5 190;" xml:space="preserve">
<text transform="matrix(1 0 0 1 87.6401 746.8352)" style="font-family:'MyriadPro-Regular'; font-size:12px;">d-11424</text>
<path d="M-40.3,485.8L-95.6,390l-20.3-35.1l-2.6-4.6c-1-1.7-2.8-2.7-4.8-2.7s-3.8,1.1-4.8,2.8l-2.6,4.5l-25.1,43.5l-50.5,87.5
	c-1,1.7-1,3.8,0,5.5s2.8,2.7,4.8,2.7h156.3c2,0,3.8-1.1,4.8-2.8C-39.3,489.6-39.3,487.5-40.3,485.8z M-191.9,483.1l43.9-76.2
	l24.7-42.7l20,34.7l48.7,84.2H-191.9z"/>
<g>
	<path d="M-108.3,454.5c0.1,1.4,1.3,2.4,2.7,2.4c0.1,0,0.2,0,0.2,0c1.5-0.1,2.6-1.4,2.4-2.9c-0.1-1-0.2-2.1-0.3-3
		c-1.8,0.8-4.1,0.9-5.3,0.9C-108.5,452.8-108.4,453.6-108.3,454.5z"/>
	<path d="M-109.3,429.9c-1.1-1.6-2.2-2.7-3.2-3.4c-1.5,2.3-2.3,3.7-2.3,6.8c0,0.4,0,0.8,0,1.3c0,0,0,0,0.1,0.1
		c0.1,0.1,0.2,0.1,0.4,0.2c0.1,0.1,0.3,0.2,0.5,0.2v-2.4c0.6,0.9,1.3,2,1.9,3.7c1.2,3.1,2.5,7.8,3.3,14.7c1.2,0,3.6-0.2,5.2-1
		C-104.7,439.4-106.9,433.5-109.3,429.9z"/>
	<polygon points="-119.5,425.1 -126.3,425.1 -122.9,429.7 	"/>
	<path d="M-131,434.5c0-0.4,0-0.9,0-1.3c0-3-0.8-4.5-2.3-6.8c-1.7,1.2-3.6,3.4-5.2,7.1c-0.5,1.1-0.9,2.3-1.4,3.7l-2.4-1.3l-5.3,13.7
		l-0.6-0.2l-0.4,1l-0.7-0.3l-2.8,7.2l1.4,0.5l-0.3,0.8l0.7,0.3l-0.3,0.9l-0.7-0.3l-5.9,17l0.7,0.3l-3,7.8l1.2,0.5l3-7.8l0.8,0.3
		l7-16.6l-0.7-0.3l0.4-1c0.4,0.1,1,0.1,1.7,0.3c1.3,0.2,5.5,3.6,5.5,3.6s2.4-1.6,2-2.4c-0.3-0.8-4.6-4-4.6-4l0.5-2.1
		c0.3,0.9,1.2,1.6,2.3,1.7c0.1,0,0.2,0,0.2,0c1.4,0,2.5-1,2.7-2.4c0.1-0.9,0.2-1.7,0.2-2.5c-1.2,0-3.4-0.2-5.3-0.9
		c0,0.3-0.1,0.6-0.1,0.9c-0.7,0-1.2-0.1-1.3-0.4c-0.1-0.3,0.7-1.6,1.7-3.3c-0.1,0.6-0.1,1.1-0.2,1.7c1.6,0.8,4.1,1,5.2,1
		c1.2-10.3,3.3-15.6,5-18.1c0.1-0.1,0.1-0.2,0.2-0.2v2.4C-131.5,434.8-131.2,434.6-131,434.5C-131,434.5-131,434.5-131,434.5z"/>
	<path d="M-134.4,474.6l3.1,0.3l-0.1,0.9l-3.1-0.3l-0.1,1.3l3.1,0.3l-0.1,0.9l-3.1-0.3l-0.1,1.3l3.1,0.3l-0.1,0.9l-3.1-0.3l-0.1,1.3
		l3.1,0.3l-0.1,0.9l-3.1-0.3l-0.1,0.9c-0.2,2.3,1.4,4.3,3.7,4.5c2.3,0.2,4.3-1.4,4.5-3.7l1.7-17.8l-8.2-0.8L-134.4,474.6z"/>
	<polygon points="-133.3,463.2 -125.1,463.9 -124.7,459.3 -132.9,458.5 	"/>
	<path d="M-118.8,483.6c0.2,2.3,2.2,3.9,4.5,3.7c2.3-0.2,3.9-2.2,3.7-4.5l-0.1-0.9l-3.1,0.3l-0.1-0.9l3.1-0.3l-0.1-1.3l-3.1,0.3
		l-0.1-0.9l3.1-0.3l-0.1-1.3l-3.1,0.3l-0.1-0.9l3.1-0.3l-0.1-1.3l-3.1,0.3l-0.1-0.9l3.1-0.3l-0.9-9.6l-8.2,0.8L-118.8,483.6z"/>
	<polygon points="-120.6,463.9 -112.4,463.2 -112.9,458.5 -121.1,459.3 	"/>
	<polygon points="-131.9,448.3 -132.7,456.6 -124.5,457.4 -124.1,453 -121.7,453 -121.2,457.4 -113,456.6 -113.8,448.3 	"/>
	<path d="M-122.9,416.8c-3,0-5.5-1-6.3-1.9c-0.5,0.2-0.9,0.5-1.2,0.7c0,0,0,0,0,0.1c0,4.1,3.4,7.5,7.5,7.5s7.5-3.4,7.5-7.5
		c0,0,0,0,0-0.1c-0.3-0.2-0.7-0.4-1.2-0.7C-117.4,415.8-119.9,416.8-122.9,416.8z"/>
	<path d="M-124.5,447.4v-15.6l1.1-1.5l-3.8-5.3c0,0,0,0,0,0c-0.1,0-0.3,0-0.5,0c-1,0-3,0.2-5,1.1c1.5,2.2,2.4,3.9,2.4,7.1
		c0,0.4,0,0.9,0,1.3c0,0.3-0.2,0.4-0.4,0.5c-0.2,0.1-0.4,0.2-0.6,0.3c-0.4,0.2-0.8,0.4-1,0.5c0,0,0,0-0.1,0c-0.1,1.5-0.2,3-0.2,4.5
		c0,3.1,0.2,5.9,0.3,6.9H-124.5z M-129.8,446.1h-1v-2.7h1V446.1z M-127.5,446.1h-1v-2.7h1V446.1z"/>
	<path d="M-113.9,435.7c-0.3-0.2-0.7-0.3-1.1-0.5c-0.2-0.1-0.4-0.3-0.5-0.6c0-0.5,0-0.9,0-1.3c0-3.2,0.9-4.8,2.4-7.1
		c-1.9-1-4-1.1-5-1.1c-0.2,0-0.4,0-0.5,0l-5.2,7v15.4h10.2c0.1-1,0.3-3.8,0.3-6.9c0-1.5-0.1-3-0.2-4.5c0,0,0,0-0.1-0.1
		C-113.6,435.9-113.8,435.8-113.9,435.7z M-123,446.6v-14.1h1.2v14.1H-123z M-117.3,446.1h-1v-2.7h1V446.1z M-114.9,446.1h-1v-2.7h1
		V446.1z"/>
	<path d="M-134.4,463.5l0.6-5.4c0.1-0.7-0.4-1.4-1.2-1.5l-0.8-0.1c-0.7-0.1-1.4,0.4-1.5,1.2l-0.6,5.4c-0.1,0.7,0.4,1.4,1.2,1.5
		l0.8,0.1C-135.2,464.8-134.5,464.3-134.4,463.5z"/>
	<path d="M-108.5,457.8c-0.1-0.7-0.7-1.3-1.5-1.2l-0.8,0.1c-0.7,0.1-1.3,0.7-1.2,1.5l0.6,5.4c0.1,0.7,0.7,1.3,1.5,1.2l0.8-0.1
		c0.7-0.1,1.3-0.7,1.2-1.5L-108.5,457.8z"/>
	<path d="M-130,424.5l0.6-0.2c0.6-0.2,0.9-0.8,0.7-1.4c-0.2-0.6-0.8-0.9-1.4-0.7l-2.6,0.9c-0.6,0.2-0.9,0.8-0.7,1.4
		c0.2,0.5,0.6,0.7,1.1,0.7c0.1,0,0.2,0,0.3,0L-130,424.5z"/>
	<path d="M-113.4,425.3c0.5,0,0.9-0.3,1.1-0.7c0.2-0.6-0.1-1.2-0.7-1.4l-2.6-0.9c-0.6-0.2-1.2,0.1-1.4,0.7c-0.2,0.6,0.1,1.2,0.7,1.4
		l0.6,0.2l2.1,0.7C-113.6,425.2-113.5,425.3-113.4,425.3z"/>
	<path d="M-126.5,413.2c1.7,0,3.7,0,3.7,0s2,0,3.7,0c1.3,0,3.5,1.3,4.6,1.9c0.4,0.2,0.7,0.4,0.7,0.4s0.9-1.5-1-7.2
		c-1.8-5.6-8-5.2-8-5.2s-6.1-0.4-8,5.2c-1.8,5.6-1,7.2-1,7.2s0.3-0.2,0.7-0.4C-130.1,414.4-127.8,413.2-126.5,413.2z M-126.8,406.3
		c0.2,0,7.8,0,7.8,0v0c2.1,0,3.9,1.4,3.9,3.2c0,1.8-1.8,3.2-3.9,3.2c-2,0-3.7-1.3-3.9-3c0,0,0,0,0,0c-0.2,1.7-1.9,2.9-3.9,2.9
		c-2.1,0-3.9-1.4-3.9-3.2C-130.6,407.7-128.9,406.3-126.8,406.3z"/>
	<path d="M-130,409.5c0,0.7,0.3,1.3,0.9,1.8c0.6,0.5,1.4,0.8,2.3,0.8c0.9,0,1.7-0.3,2.3-0.8c0.6-0.5,0.9-1.1,0.9-1.8
		c0-0.1,0.1-0.2,0.1-0.3c0,0,0.1-0.1,0.1-0.1c0.1,0,0.1,0,0.1,0c0.1,0,0.1,0,0.2,0c0.1,0,0.2,0,0.3,0c0.1,0,0.2,0,0.3,0.1
		c0,0,0.1,0.1,0.2,0.3c0,0.7,0.3,1.3,0.9,1.8c0.6,0.5,1.4,0.8,2.3,0.8c0.9,0,1.7-0.3,2.3-0.8c0.6-0.5,0.9-1.1,0.9-1.8
		c0-0.7-0.3-1.3-0.9-1.8c-0.6-0.5-1.4-0.8-2.3-0.8h0c0,0-7.6,0-7.8,0c-0.9,0-1.7,0.3-2.3,0.8C-129.6,408.2-130,408.8-130,409.5z"/>
</g>
</svg>
