<?xml version="1.0" encoding="utf-8"?>
<!-- Generator: Adobe Illustrator 19.0.0, SVG Export Plug-In . SVG Version: 6.00 Build 0)  -->
<svg version="1.1" id="Capa_1" xmlns="http://www.w3.org/2000/svg" xmlns:xlink="http://www.w3.org/1999/xlink" x="0px" y="0px"
	 viewBox="-210 325.9 173.5 190" style="enable-background:new -210 325.9 173.5 190;" xml:space="preserve">
<g id="XMLID_100_">
	<path d="M-45.1,494.1h-156.3c-2,0-3.8-1-4.8-2.7s-1-3.8,0-5.5l78.1-135.4c1-1.7,2.8-2.8,4.8-2.8l0,0c2,0,3.8,1,4.8,2.7l78.2,135.4
		c1,1.7,1,3.8,0,5.5C-41.3,493-43.1,494.1-45.1,494.1z M-191.9,483.1h137.3l-68.7-118.9L-191.9,483.1z"/>
</g>
<g>
	<g>
		<path d="M-112.4,447.5c0.2,0.1,0.4,0.2,0.7,0.2c0.4,0,0.8-0.2,1.1-0.6c0.3-0.5,0.6-0.9,0.9-1.2c0.5-0.5,0.6-1.3,0.1-1.8
			s-1.3-0.6-1.8-0.1s-1,1-1.4,1.7C-113.1,446.3-113,447.1-112.4,447.5z"/>
		<path d="M-112.4,447.5c0.2,0.1,0.4,0.2,0.7,0.2c0.4,0,0.8-0.2,1.1-0.6c0.3-0.5,0.6-0.9,0.9-1.2c0.5-0.5,0.6-1.3,0.1-1.8
			s-1.3-0.6-1.8-0.1s-1,1-1.4,1.7C-113.1,446.3-113,447.1-112.4,447.5z"/>
		<path d="M-112.4,447.5c0.2,0.1,0.4,0.2,0.7,0.2c0.4,0,0.8-0.2,1.1-0.6c0.3-0.5,0.6-0.9,0.9-1.2c0.5-0.5,0.6-1.3,0.1-1.8
			s-1.3-0.6-1.8-0.1s-1,1-1.4,1.7C-113.1,446.3-113,447.1-112.4,447.5z"/>
		<path d="M-112.4,447.5c0.2,0.1,0.4,0.2,0.7,0.2c0.4,0,0.8-0.2,1.1-0.6c0.3-0.5,0.6-0.9,0.9-1.2c0.5-0.5,0.6-1.3,0.1-1.8
			s-1.3-0.6-1.8-0.1s-1,1-1.4,1.7C-113.1,446.3-113,447.1-112.4,447.5z"/>
		<path d="M-112.4,447.5c0.2,0.1,0.4,0.2,0.7,0.2c0.4,0,0.8-0.2,1.1-0.6c0.3-0.5,0.6-0.9,0.9-1.2c0.5-0.5,0.6-1.3,0.1-1.8
			s-1.3-0.6-1.8-0.1s-1,1-1.4,1.7C-113.1,446.3-113,447.1-112.4,447.5z"/>
		<path d="M-112.4,447.5c0.2,0.1,0.4,0.2,0.7,0.2c0.4,0,0.8-0.2,1.1-0.6c0.3-0.5,0.6-0.9,0.9-1.2c0.5-0.5,0.6-1.3,0.1-1.8
			s-1.3-0.6-1.8-0.1s-1,1-1.4,1.7C-113.1,446.3-113,447.1-112.4,447.5z"/>
		<path d="M-112.4,447.5c0.2,0.1,0.4,0.2,0.7,0.2c0.4,0,0.8-0.2,1.1-0.6c0.3-0.5,0.6-0.9,0.9-1.2c0.5-0.5,0.6-1.3,0.1-1.8
			s-1.3-0.6-1.8-0.1s-1,1-1.4,1.7C-113.1,446.3-113,447.1-112.4,447.5z"/>
		<path d="M-112.4,447.5c0.2,0.1,0.4,0.2,0.7,0.2c0.4,0,0.8-0.2,1.1-0.6c0.3-0.5,0.6-0.9,0.9-1.2c0.5-0.5,0.6-1.3,0.1-1.8
			s-1.3-0.6-1.8-0.1s-1,1-1.4,1.7C-113.1,446.3-113,447.1-112.4,447.5z"/>
		<path d="M-112.4,447.5c0.2,0.1,0.4,0.2,0.7,0.2c0.4,0,0.8-0.2,1.1-0.6c0.3-0.5,0.6-0.9,0.9-1.2c0.5-0.5,0.6-1.3,0.1-1.8
			s-1.3-0.6-1.8-0.1s-1,1-1.4,1.7C-113.1,446.3-113,447.1-112.4,447.5z"/>
	</g>
	<g>
		<path d="M-146.9,434.9c-1.8,0-3.3,1.5-3.3,3.3s1.5,3.3,3.3,3.3s3.3-1.5,3.3-3.3S-145,434.9-146.9,434.9z M-146.9,438.9
			c-0.4,0-0.8-0.3-0.8-0.8c0-0.4,0.3-0.8,0.8-0.8c0.4,0,0.8,0.3,0.8,0.8C-146.1,438.6-146.4,438.9-146.9,438.9z"/>
	</g>
	<g>
		<path d="M-88.9,453.6c0.5-1.6,0.7-3.3,0.7-5.3c0-7.6-3.5-16.9-13.3-20.4c-8.8-3.1-17.4-1.3-24.4,0.1c-3,0.6-5.6,1.2-7.7,1.2
			c0.1-0.7,0.1-1.5-0.2-2.2c-0.5-1.7-2.1-3-4.1-3.2c-1.1-0.1-3.8,0.1-6.2,3.3c-0.5,0.1-3.4,0.7-7,2.6c-3.5,1.9-8.3,5.4-11.1,11.8
			c-0.2,0.4-0.1,0.9,0.1,1.2c0.1,0.2,2.2,3,6.7,4l0,0c2.2,2.4,5.2,3.8,8.5,3.8c0.6,0,1.2,0,1.7-0.1c0.6-0.1,1.2-0.2,1.8-0.4
			c0,0.1,0.1,0.1,0.1,0.2c4.4,6.2,10.9,8.1,12.2,8.5c0.4,1,0.9,1.9,1.3,2.6c0,0,0,0,0,0.1h-0.1l-0.3,0.1c-1.9,0.4-3.2,2-3.2,3.9v0.5
			c0,0.7,0.6,1.3,1.3,1.3h6.2c1.2,0,2.2-0.8,2.5-1.9s0.7-2.7,1-4.4c0.6,0.1,1.5,0.1,2.5,0.1c2.1,0,4.9-0.2,7.5-1.2
			c0.1,0.1,0.2,0.2,0.3,0.4c0.1,0.1,0.2,0.2,0.3,0.2c-1.2,0.4-2.1,1.3-2.4,2.5l-0.9,2.6c-0.1,0.4-0.1,0.8,0.2,1.1
			c0.2,0.3,0.6,0.5,1,0.5h10.9c1.3,0,2.4-1,2.6-2.3l0.2-1.9c2.2-0.3,4.1-0.9,5.7-1.9c1.1,0.2,3.7,0.7,6.1,1.7
			c2.8,1.1,4.4,2.5,4.4,3.6c0,0.6-0.4,1.5-1.7,2.6c-3.4,2.9-9.5,4.1-12.8,4.5c-7.9,1.1-18,0.7-30-1.2c-0.7-0.1-1.3,0.3-1.4,1
			c-0.1,0.7,0.3,1.3,1,1.5c9.9,2.1,18.6,3.2,26.2,3.2c2.3,0,4.5-0.1,6.6-0.3c8.9-0.9,13.7-3.4,16.2-5.4c2.4-1.9,3.8-4.3,3.8-6.5
			C-76.2,458.2-85.4,454.7-88.9,453.6z M-125.8,464.5h-4.7c0.2-0.3,0.5-0.5,0.9-0.6l0.3-0.1c0.7-0.1,1.3-0.5,1.7-1.1l2.2,0.3
			C-125.5,463.6-125.6,464-125.8,464.5L-125.8,464.5z M-121.8,458.3c0.3-1.8,0.6-3.6,0.8-5.2c0.1-0.7-0.4-1.3-1.1-1.4
			s-1.3,0.4-1.4,1.1c-0.3,2.5-0.8,5.4-1.3,7.8l-2.5-0.4c0-0.1-0.1-0.1-0.1-0.2c-1.1-1.9-2.8-5.7-2.8-9.1c0-0.7-0.6-1.3-1.3-1.3
			s-1.3,0.6-1.3,1.3c0,1.6,0.3,3.2,0.7,4.7c-2.2-0.9-5.9-2.8-8.8-6.6c1.8-0.9,3.2-2.2,3.9-3.7c0.3-0.6,0-1.4-0.6-1.7
			c-0.6-0.3-1.4,0-1.7,0.6c-0.9,1.8-3.4,3.3-6.1,3.6c-1.3,0.2-3.5,0.2-5.6-0.9c0.7,0,1.3-0.1,2.1-0.3c0.7-0.1,1.1-0.8,1-1.5
			s-0.8-1.1-1.5-1c-5.9,1.1-9-1.4-10.2-2.5c2-4.2,5.2-7.5,9.5-9.8c1.7-0.9,3.3-1.5,4.4-1.9c0.1,0.3,0.3,0.7,0.6,0.8
			c0.6,0.3,1.4,0.1,1.7-0.5c2.1-3.9,4.2-4.1,5.1-4c0.9,0.1,1.7,0.7,1.9,1.4c0.2,0.8,0.1,1.3-0.1,1.5c-0.5,0.8-1.9,1.5-3.8,1.9
			c-0.7,0.1-1.1,0.8-1,1.5c0.1,0.6,0.6,1,1.2,1c0.1,0,0.2,0,0.3,0c2-0.4,3.5-1.1,4.5-2c2.6,0.3,5.9-0.4,9.7-1.2
			c6.6-1.4,14.9-3.1,23-0.2c3.9,1.4,6.9,3.8,8.9,7.3c1.8,3.1,2.8,6.8,2.8,10.7c0,3.7-1.1,6.8-3.1,8.8c-2,2.1-4.9,3.2-8.7,3.2
			c-3.6,0.1-6.2-0.7-7.8-2.2c-1.3-1.3-1.9-3.3-1.8-6.3c0-0.7-0.5-1.3-1.2-1.3l0,0c-0.7,0-1.2,0.5-1.3,1.2c-0.1,2.2,0.2,4,0.9,5.5
			C-116.7,458.5-120.1,458.4-121.8,458.3z M-103,464.5h-9.2l0.3-1c0.2-0.5,0.5-0.8,1-0.9l2.1-0.5c1.6,0.6,3.6,0.9,5.8,0.9h0.1
			L-103,464.5C-102.9,464.5-102.9,464.5-103,464.5z M-81.6,470.3c-2.3,1.9-5.3,3.1-8.7,3.9c3.1-1.1,5-2.3,6.2-3.3
			c1.7-1.4,2.6-3,2.6-4.5c0-4.3-6.6-6.5-10.4-7.4c0.8-0.9,1.5-1.8,2.1-2.9c2.9,0.9,11.1,3.8,11.1,9.8
			C-78.8,467.2-79.8,468.8-81.6,470.3z"/>
	</g>
</g>
</svg>
