<?xml version="1.0" encoding="utf-8"?>
<!-- Generator: Adobe Illustrator 19.0.0, SVG Export Plug-In . SVG Version: 6.00 Build 0)  -->
<svg version="1.1" id="Capa_1" xmlns="http://www.w3.org/2000/svg" xmlns:xlink="http://www.w3.org/1999/xlink" x="0px" y="0px"
	 viewBox="-210 325.9 173.5 190" style="enable-background:new -210 325.9 173.5 190;" xml:space="preserve">
<style type="text/css">
	.st0{clip-path:url(#SVGID_1_);}
</style>
<g id="XMLID_100_">
	<path d="M-45.1,494.1h-156.3c-2,0-3.8-1-4.8-2.7s-1-3.8,0-5.5l78.1-135.4c1-1.7,2.8-2.8,4.8-2.8l0,0c2,0,3.8,1,4.8,2.7l78.2,135.4
		c1,1.7,1,3.8,0,5.5C-41.3,493-43.1,494.1-45.1,494.1z M-191.9,483.1h137.3l-68.7-118.9L-191.9,483.1z"/>
</g>
<g>
	<g>
		<defs>
			<rect id="SVGID_3_" x="-160.4" y="408.7" width="57.7" height="64.1"/>
		</defs>
		<clipPath id="SVGID_1_">
			<use xlink:href="#SVGID_3_"  style="overflow:visible;"/>
		</clipPath>
		<path class="st0" d="M-102.8,422.8v-12.3c0-0.6-0.3-1.1-0.7-1.5c-0.5-0.3-1.1-0.4-1.6-0.3l-36.5,11.6c-0.7,0.2-1.3,0.9-1.3,1.7
			v35.8c-1.9-1.3-4.4-2-6.9-2c-2.7,0-5.3,0.8-7.3,2.3c-2.1,1.6-3.3,3.7-3.3,6.1s1.2,4.5,3.3,6.1c2,1.5,4.5,2.3,7.3,2.3
			c2.7,0,5.3-0.8,7.3-2.3c2.1-1.6,3.3-3.7,3.3-6.1v-28.5l32.9-10.5v21c-1.9-1.3-4.4-2-6.9-2c-2.7,0-5.3,0.8-7.3,2.3
			c-2.1,1.6-3.3,3.7-3.3,6.1c0,2.3,1.2,4.5,3.3,6.1c2,1.5,4.5,2.3,7.3,2.3c2.7,0,5.3-0.8,7.3-2.3c2.1-1.6,3.3-3.7,3.3-6.1V422.8z
			 M-113.3,457.4"/>
	</g>
</g>
</svg>
