<?xml version="1.0" encoding="utf-8"?>
<!-- Generator: Adobe Illustrator 19.0.0, SVG Export Plug-In . SVG Version: 6.00 Build 0)  -->
<svg version="1.1" id="Capa_1" xmlns="http://www.w3.org/2000/svg" xmlns:xlink="http://www.w3.org/1999/xlink" x="0px" y="0px"
	 viewBox="-210 325.9 173.5 190" style="enable-background:new -210 325.9 173.5 190;" xml:space="preserve">
<style type="text/css">
	.st0{fill:none;stroke:#000000;stroke-width:2;}
	.st1{stroke:#000000;stroke-width:1;}
</style>
<g id="XMLID_100_">
	<path d="M-45.1,494.1h-156.3c-2,0-3.8-1-4.8-2.7s-1-3.8,0-5.5l78.1-135.4c1-1.7,2.8-2.8,4.8-2.8l0,0c2,0,3.8,1,4.8,2.7l78.2,135.4
		c1,1.7,1,3.8,0,5.5C-41.3,493-43.1,494.1-45.1,494.1z M-191.9,483.1h137.3l-68.7-118.9L-191.9,483.1z"/>
</g>
<g transform="translate(-27.874263,-61.413743)">
	<path class="st0" d="M-79.1,486.5c-13.1,0-23.7,9.1-23.7,20.4c0,0,0,0,0,0c0,5.4,2.5,10.5,6.8,14.3c-0.5,2.7-2.2,9.2-9.1,13.3
		c11.1-1.1,17.5-5.9,19.7-8c2.1,0.5,4.2,0.8,6.3,0.8c13.1,0,23.7-9.1,23.7-20.4c0,0,0,0,0,0C-55.4,495.7-66,486.5-79.1,486.5
		C-79.1,486.5-79.1,486.5-79.1,486.5z"/>
	<path class="st1" d="M-119,482.3c5.7,0,10.4,4,10.4,8.9c0,0,0,0,0,0c0,2.3-1.1,4.6-3,6.3c0.2,1.2,1,4,4,5.8
		c-4.9-0.5-7.6-2.6-8.6-3.5c-0.9,0.2-1.8,0.3-2.8,0.3c-5.7,0-10.4-4-10.4-8.9c0,0,0,0,0,0C-129.4,486.3-124.7,482.3-119,482.3
		C-119,482.3-119,482.3-119,482.3z"/>
</g>
</svg>
