<?xml version="1.0" encoding="utf-8"?>
<!-- Generator: Adobe Illustrator 19.0.0, SVG Export Plug-In . SVG Version: 6.00 Build 0)  -->
<svg version="1.1" id="Capa_1" xmlns="http://www.w3.org/2000/svg" xmlns:xlink="http://www.w3.org/1999/xlink" x="0px" y="0px"
	 viewBox="-210 325.9 173.5 190" style="enable-background:new -210 325.9 173.5 190;" xml:space="preserve">
<g id="XMLID_100_">
	<path d="M-45.1,494.1h-156.3c-2,0-3.8-1-4.8-2.7s-1-3.8,0-5.5l78.1-135.4c1-1.7,2.8-2.8,4.8-2.8l0,0c2,0,3.8,1,4.8,2.7l78.2,135.4
		c1,1.7,1,3.8,0,5.5C-41.3,493-43.1,494.1-45.1,494.1z M-191.9,483.1h137.3l-68.7-118.9L-191.9,483.1z"/>
</g>
<g>
	<path d="M-122.2,488h-2.4c-0.4,0-0.8-0.3-0.8-0.7l-3.2-24.2l-3-3.4l-3.5,3v6.5c0,0.2-0.1,0.4-0.2,0.5l-6.3,7.1v2.1
		c0,0.2-0.1,0.4-0.2,0.6l-3.8,4c-0.2,0.2-0.5,0.3-0.7,0.2c-0.3,0-0.5-0.2-0.6-0.5l-1.1-2.4c-0.1-0.3-0.1-0.7,0.2-0.9l1.4-1.4v-0.5
		l-2.6,2.3c-0.2,0.2-0.5,0.2-0.8,0.2l-2.9-0.9c-0.3-0.1-0.5-0.3-0.6-0.6c-0.1-0.3,0-0.6,0.2-0.8l5.2-4.9c0.2-0.1,0.4-0.2,0.6-0.2
		h3.1l4.3-5.5v-5.2l-3-0.6l-1.9,1.9v1.9c0,0.2-0.1,0.4-0.2,0.5l-3.1,3.5c-0.2,0.2-0.6,0.3-0.9,0.2c-0.3-0.1-0.5-0.4-0.6-0.7
		l-0.3-2.9c0-0.2,0-0.4,0.2-0.6l0.5-0.7h-0.3l-2.1,1.6c-0.2,0.2-0.5,0.2-0.7,0.1l-2.9-0.8c-0.3-0.1-0.5-0.3-0.6-0.6s0-0.6,0.2-0.8
		l4.6-4.2c0.2-0.1,0.3-0.2,0.6-0.2h2.6l3.2-3.2c0.2-0.2,0.4-0.2,0.6-0.2l5.9,0.1l2-3.2c-0.2-0.5-0.5-1.2-0.8-2l-3.4-1
		c-0.2,0-0.3-0.1-0.4-0.3l-2.2-2.6h-1.7l-3,3c-0.2,0.2-0.4,0.2-0.6,0.2h-5.4l-2.2,2.2c-0.2,0.2-0.4,0.2-0.6,0.2h-4.9
		c-0.3,0-0.6-0.2-0.7-0.4c-0.1-0.3-0.1-0.6,0-0.8l1.6-2.4c0.2-0.2,0.4-0.4,0.7-0.4h1.3l0.8-0.8l-0.8-0.8h-2.9
		c-0.3,0-0.5-0.1-0.7-0.4l-1.6-2.4c-0.2-0.3-0.2-0.6,0-0.8c0.1-0.3,0.4-0.4,0.7-0.4h6.5c0.2,0,0.4,0.1,0.6,0.2l2.2,2.2h3.4l1.6-1.6
		h-2.9c-0.3,0-0.5-0.1-0.7-0.3l-2.4-3.3c-0.2-0.2-0.2-0.6-0.1-0.9c0.1-0.3,0.4-0.5,0.7-0.5h8.2c0.3,0,0.5,0.1,0.7,0.3l2.2,2.9h2
		c0.2,0,0.5,0.1,0.6,0.3l2,2.4l0.8-0.5c0.2-1.3,0.6-2.4,1.3-3.7l-5.9-7.5h-6.5c-0.2,0-0.4-0.1-0.6-0.2l-6.1-6.3h-3.1
		c-0.2,0-0.4-0.1-0.6-0.3l-4-4.2c-0.2-0.2-0.3-0.5-0.2-0.8c0.1-0.3,0.3-0.5,0.5-0.6l2.9-1c0.3-0.1,0.7,0,0.9,0.2l1.5,1.7h0.2v-1.6
		l-2.4-2.7c-0.2-0.2-0.3-0.5-0.2-0.8l1-2.9c0.1-0.3,0.3-0.5,0.6-0.5c0.3-0.1,0.6,0,0.8,0.2l5,5.2c0.1,0.2,0.2,0.4,0.2,0.6v3.2
		l5.3,5.9h5.8l0.4-3.4l-1.3-1.5h-3.1c-0.2,0-0.4-0.1-0.6-0.2l-3.5-3.5c-0.2-0.2-0.3-0.5-0.2-0.8c0.1-0.3,0.3-0.5,0.6-0.6l2.9-0.7
		c0.3-0.1,0.7,0.1,0.9,0.3l0.9,1.3v-2l-1.8-2.1c-0.2-0.2-0.2-0.5-0.2-0.8l0.9-2.9c0.1-0.3,0.3-0.5,0.6-0.6c0.3-0.1,0.6,0,0.8,0.2
		l4.3,4.6c0.1,0.2,0.2,0.4,0.2,0.6v3.1l3,2.6c0.2,0.2,0.3,0.4,0.3,0.7l-0.8,7.7l5.2,4.7c1.4-0.9,2.9-1.5,4.5-1.7l0.3-0.7l-3.1-2.1
		c-0.2-0.2-0.4-0.4-0.4-0.7v-2l-2.9-2.2c-0.2-0.2-0.3-0.4-0.3-0.7v-8.2c0-0.3,0.2-0.6,0.5-0.7c0.3-0.1,0.6-0.1,0.9,0.1l3.3,2.4
		c0.2,0.2,0.3,0.4,0.3,0.7v2.9l1.6-1.6v-3.4l-2.2-2.2c-0.2-0.2-0.2-0.4-0.2-0.6v-6.5c0-0.3,0.2-0.6,0.4-0.7c0.3-0.1,0.6-0.1,0.8,0
		l2.4,1.6c0.2,0.2,0.4,0.4,0.4,0.7v2.9l0.8,0.8l0.8-0.8v-1.3c0-0.3,0.1-0.5,0.4-0.7l2.4-1.6c0.3-0.2,0.6-0.2,0.8,0
		c0.3,0.1,0.4,0.4,0.4,0.7v4.9c0,0.2-0.1,0.4-0.2,0.6l-2.2,2.2v5.4c0,0.2-0.1,0.4-0.2,0.6l-3,3v1.7l3.2,2.2c0.1,0.1,0.2,0.2,0.3,0.4
		l1.3,3.4c1.1,0.4,2,0.9,2.8,1.4l2.3-1.7v-3.7c0-0.2,0.1-0.4,0.3-0.6l2.4-2.2l-0.6-7.8c0-0.2,0-0.4,0.2-0.6l1.9-2.3v-3.2
		c0-0.2,0.1-0.4,0.3-0.6l4.9-4.6c0.2-0.2,0.5-0.3,0.8-0.2c0.3,0.1,0.5,0.3,0.6,0.5l0.9,2.9c0.1,0.3,0,0.6-0.2,0.9l-2.3,2.1v1.8h1.6
		l0.9-1.1c0.2-0.2,0.4-0.3,0.7-0.3l2.9,0.3c0.3,0,0.6,0.2,0.7,0.5c0.1,0.3,0,0.6-0.2,0.8l-3.5,3.6c-0.2,0.2-0.4,0.2-0.6,0.2h-3.1
		l-1.3,1.6l0.1,1.7h7.8l3.7-5.6v-3.2c0-0.2,0.1-0.4,0.3-0.6l5.6-5.2c0.2-0.2,0.5-0.3,0.8-0.2c0.3,0.1,0.5,0.3,0.6,0.5l1,2.9
		c0.1,0.3,0,0.7-0.2,0.9l-3,2.6v1.3h1.9l1.5-1.5c0.2-0.2,0.5-0.3,0.7-0.2l2.9,0.6c0.3,0.1,0.5,0.3,0.6,0.6c0.1,0.3,0,0.6-0.2,0.8
		l-4,4.3c-0.2,0.2-0.4,0.3-0.6,0.3h-3.1l-6.1,6.3c-0.2,0.2-0.4,0.2-0.6,0.2h-6.7l-5.1,3.8v3.6c0,0.1,0,0.3-0.1,0.4l-2.4,4.6
		c0.1,0.1,0.2,0.3,0.2,0.4c0.3,0.4,0.6,0.9,0.8,1.4l5,1.9c0.2,0.1,0.3,0.2,0.4,0.3l2.2,3.3h1.7l3-3c0.2-0.2,0.4-0.2,0.6-0.2h5.4
		l2.2-2.2c0.2-0.2,0.4-0.2,0.6-0.2h4.9c0.3,0,0.6,0.2,0.7,0.4c0.1,0.3,0.1,0.6,0,0.8l-1.6,2.4c-0.2,0.2-0.4,0.4-0.7,0.4h-1.3
		L-90,448l0.8,0.8h2.9c0.3,0,0.5,0.1,0.7,0.4l1.6,2.4c0.2,0.3,0.2,0.6,0,0.8c-0.1,0.3-0.4,0.4-0.7,0.4h-6.5c-0.2,0-0.4-0.1-0.6-0.2
		l-2.2-2.2h-3.4l-1.6,1.6h2.9c0.3,0,0.5,0.1,0.7,0.3l2.4,3.3c0.2,0.2,0.2,0.6,0.1,0.9c-0.1,0.3-0.4,0.5-0.7,0.5h-8.2
		c-0.3,0-0.5-0.1-0.7-0.3l-2.2-2.9h-2c-0.3,0-0.5-0.1-0.7-0.4l-2.1-3.1l-2.7,0.9c-0.4,1.2-0.9,2.4-1.4,3.3l3.2,4.1h6.5
		c0.2,0,0.4,0.1,0.6,0.2l6.1,6.3h3.1c0.2,0,0.4,0.1,0.6,0.2l4,3.8c0.2,0.2,0.3,0.5,0.2,0.8c-0.1,0.3-0.3,0.5-0.6,0.6l-2.9,0.6
		c-0.2,0-0.4,0-0.6-0.1l-1.5-1h-1.9l2.7,2.6c0.2,0.2,0.3,0.5,0.2,0.7l-0.5,2.9c-0.1,0.3-0.3,0.5-0.5,0.6c-0.3,0.1-0.6,0-0.8-0.2
		l-5.8-5.2c-0.2-0.2-0.3-0.4-0.3-0.6v-3.2l-3.6-4.2h-5.8l-0.4,3.4l1.3,1.5h3.1c0.2,0,0.4,0.1,0.5,0.2l3.5,3.1
		c0.2,0.2,0.3,0.6,0.2,0.9s-0.4,0.5-0.7,0.6l-2.9,0.3c-0.2,0-0.4,0-0.6-0.2l-0.9-0.7h-1.7v0.4l2.1,2.1c0.2,0.2,0.3,0.5,0.2,0.7
		l-0.5,2.9c-0.1,0.3-0.3,0.5-0.5,0.6c-0.3,0.1-0.6,0-0.8-0.2l-5.1-4.6c-0.2-0.2-0.3-0.4-0.3-0.6v-3.2l-1.4-1.7
		c-0.1-0.2-0.2-0.4-0.2-0.6l0.8-7.8l-2.2-2.3c-0.7,0.4-1.5,0.8-2.4,1.1l-1.8,2l0.8,25.8c0,0.2-0.1,0.4-0.2,0.6
		C-121.8,487.9-122,488-122.2,488z M-123.9,486.4h0.9l-0.8-25.3c0-0.2,0.1-0.4,0.2-0.6l2.2-2.4c0.1-0.1,0.2-0.2,0.3-0.2
		c1.2-0.5,2.2-0.9,2.8-1.4c0.3-0.2,0.8-0.2,1.1,0.1l3,3c0.2,0.2,0.3,0.4,0.2,0.7l-0.8,7.8l1.4,1.6c0.1,0.1,0.2,0.3,0.2,0.5v3.1
		l3.8,3.4l0.2-1l-2.1-2c-0.2-0.2-0.2-0.4-0.2-0.6v-1.5c0-0.5,0.4-0.8,0.8-0.8h2.8c0.2,0,0.3,0.1,0.5,0.2l0.9,0.7l0.7-0.1l-1.8-1.6
		h-3.2c-0.2,0-0.5-0.1-0.6-0.3l-1.7-2.1c-0.1-0.2-0.2-0.4-0.2-0.6l0.6-4.4c0.1-0.4,0.4-0.7,0.8-0.7h6.9c0.2,0,0.5,0.1,0.6,0.3
		l4.1,4.7c0.1,0.1,0.2,0.3,0.2,0.5v3.1l4.4,4l0.2-1l-2.7-2.6c-0.2-0.2-0.3-0.4-0.3-0.6v-1.1c0-0.5,0.4-0.8,0.8-0.8h3.1
		c0.2,0,0.3,0,0.4,0.1l1.5,0.9l1-0.2l-2.7-2.5h-3.1c-0.2,0-0.4-0.1-0.6-0.2l-6.1-6.3h-6.6c-0.3,0-0.5-0.1-0.6-0.3l-3.8-4.9
		c-0.2-0.3-0.2-0.7,0-1c0.7-0.9,1.2-2.3,1.6-3.7c0.1-0.3,0.3-0.5,0.5-0.6l3.7-1.3c0.3-0.1,0.7,0,0.9,0.3l2.2,3.2h2
		c0.3,0,0.5,0.1,0.7,0.3l2.2,2.9h6.1l-1.2-1.6h-4.5c-0.3,0-0.6-0.2-0.8-0.5c-0.1-0.3-0.1-0.7,0.2-0.9l3.3-3.3
		c0.2-0.2,0.4-0.2,0.6-0.2h4.1c0.2,0,0.4,0.1,0.6,0.2l2.2,2.2h4.7l-0.5-0.8h-2.8c-0.2,0-0.4-0.1-0.6-0.2l-1.6-1.6
		c-0.3-0.3-0.3-0.8,0-1.2l1.6-1.6c0.2-0.2,0.4-0.2,0.6-0.2h1.2l0.5-0.8h-3l-2.2,2.2c-0.2,0.2-0.4,0.2-0.6,0.2H-99l-3,3
		c-0.2,0.2-0.4,0.2-0.6,0.2h-2.4c-0.3,0-0.5-0.1-0.7-0.4l-2.3-3.5l-5.1-1.9c-0.2-0.1-0.4-0.3-0.5-0.5c-0.1-0.4-0.4-0.9-0.7-1.4
		c-0.2-0.3-0.4-0.6-0.5-0.9c-0.1-0.2-0.1-0.5,0-0.8l2.6-4.8v-3.8c0-0.3,0.1-0.5,0.3-0.7l5.7-4.2c0.1-0.1,0.3-0.2,0.5-0.2h6.6
		l6.1-6.3c0.2-0.2,0.4-0.2,0.6-0.2h3.1l2.8-3l-1.1-0.2l-1.4,1.4c-0.2,0.1-0.4,0.2-0.6,0.2h-3.1c-0.5,0-0.8-0.4-0.8-0.8v-2.5
		c0-0.2,0.1-0.5,0.3-0.6l2.9-2.5l-0.4-1.2l-4.4,4.1v3.1c0,0.2,0,0.3-0.1,0.4l-4.1,6.2c-0.2,0.2-0.4,0.4-0.7,0.4h-9
		c-0.4,0-0.8-0.3-0.8-0.8l-0.1-2.8c0-0.2,0.1-0.4,0.2-0.6l1.7-2.1c0.2-0.2,0.4-0.3,0.6-0.3h3.1l2.1-2.1l-0.8-0.1l-0.9,1.1
		c-0.2,0.2-0.4,0.3-0.6,0.3h-2.8c-0.5,0-0.8-0.4-0.8-0.8v-3c0-0.2,0.1-0.5,0.3-0.6l2.2-2l-0.4-1.1l-3.7,3.5v3.1
		c0,0.2-0.1,0.4-0.2,0.5l-1.8,2.3l0.6,7.8c0,0.2-0.1,0.5-0.3,0.7l-2.4,2.2v3.7c0,0.3-0.1,0.5-0.3,0.7l-3.1,2.3c-0.3,0.2-0.7,0.2-1,0
		c-1-0.7-2-1.3-3.2-1.7c-0.2-0.1-0.4-0.3-0.5-0.5l-1.3-3.5l-3.4-2.3c-0.2-0.2-0.4-0.4-0.4-0.7v-2.4c0-0.2,0.1-0.4,0.2-0.6l3-3v-5.4
		c0-0.2,0.1-0.4,0.2-0.6l2.2-2.2v-3l-0.8,0.5v1.2c0,0.2-0.1,0.4-0.2,0.6l-1.6,1.6c-0.3,0.3-0.8,0.3-1.2,0l-1.6-1.6
		c-0.2-0.2-0.2-0.4-0.2-0.6v-2.8l-0.8-0.5v4.7l2.2,2.2c0.2,0.2,0.2,0.4,0.2,0.6v4.1c0,0.2-0.1,0.4-0.2,0.6l-3.3,3.3
		c-0.2,0.2-0.6,0.3-0.9,0.2c-0.3-0.1-0.5-0.4-0.5-0.8v-4.5l-1.6-1.2v6.1l2.9,2.2c0.2,0.2,0.3,0.4,0.3,0.7v2l3.3,2.2
		c0.3,0.2,0.4,0.6,0.3,1l-0.7,1.8c-0.1,0.3-0.4,0.5-0.6,0.5c-1.7,0.2-3.3,0.9-4.8,1.9c-0.3,0.2-0.7,0.2-1-0.1l-6-5.4
		c-0.2-0.2-0.3-0.4-0.3-0.7l0.8-7.7l-2.9-2.6c-0.2-0.2-0.3-0.4-0.3-0.6v-3.1l-3.1-3.4l-0.3,1.1l1.7,2c0.1,0.1,0.2,0.3,0.2,0.5v3.2
		c0,0.5-0.4,0.8-0.8,0.8h-1.2c-0.3,0-0.5-0.1-0.7-0.4l-0.8-1.2l-0.9,0.2l2.2,2.2h3.1c0.2,0,0.5,0.1,0.6,0.3l1.7,2.1
		c0.1,0.2,0.2,0.4,0.2,0.6l-0.6,4.4c-0.1,0.4-0.4,0.7-0.8,0.7h-6.9c-0.2,0-0.5-0.1-0.6-0.3l-5.7-6.4c-0.1-0.1-0.2-0.3-0.2-0.5v-3.1
		l-3.8-4l-0.4,1.1l2.3,2.5c0.1,0.1,0.2,0.3,0.2,0.6v2.7c0,0.5-0.4,0.8-0.8,0.8h-1.4c-0.2,0-0.5-0.1-0.6-0.3l-1.4-1.5l-1.2,0.4
		l2.9,3.1h3.1c0.2,0,0.4,0.1,0.6,0.2l6.1,6.3h6.6c0.3,0,0.5,0.1,0.6,0.3l6.4,8.2c0.2,0.3,0.2,0.6,0.1,0.9c-0.8,1.4-1.2,2.6-1.4,4
		c0,0.2-0.2,0.5-0.4,0.6l-1.7,1.1c-0.3,0.2-0.8,0.1-1.1-0.2l-2.2-2.7h-2.1c-0.3,0-0.5-0.1-0.7-0.3l-2.2-2.9h-6.1l1.2,1.6h4.5
		c0.3,0,0.6,0.2,0.8,0.5c0.1,0.3,0.1,0.7-0.2,0.9l-3.3,3.3c-0.2,0.2-0.4,0.2-0.6,0.2h-4.1c-0.2,0-0.4-0.1-0.6-0.2l-2.2-2.2h-4.7
		l0.5,0.8h2.8c0.2,0,0.4,0.1,0.6,0.2l1.6,1.6c0.3,0.3,0.3,0.8,0,1.2l-1.6,1.6c-0.2,0.2-0.4,0.2-0.6,0.2h-1.2l-0.5,0.8h3l2.2-2.2
		c0.2-0.2,0.4-0.2,0.6-0.2h5.4l3-3c0.2-0.2,0.4-0.2,0.6-0.2h2.4c0.2,0,0.5,0.1,0.6,0.3l2.3,2.7l3.6,1c0.3,0.1,0.5,0.3,0.6,0.5
		c0.3,1.1,1,2.6,1,2.6c0.1,0.2,0.1,0.5-0.1,0.8l-2.4,4c-0.2,0.2-0.4,0.4-0.7,0.4l-6-0.1l-3.2,3.2c-0.2,0.2-0.4,0.2-0.6,0.2h-2.6
		l-3.3,3l1.1,0.3l2-1.5c0.1-0.1,0.3-0.2,0.5-0.2h1.5c0.5,0,0.8,0.4,0.8,0.8v0.8c0,0.2-0.1,0.3-0.2,0.5l-0.7,0.9l0.1,0.7l1.6-1.8
		v-1.9c0-0.2,0.1-0.4,0.2-0.6l2.4-2.4c0.2-0.2,0.5-0.3,0.7-0.2l4.1,0.8c0.4,0.1,0.7,0.4,0.7,0.8v6.2c0,0.2-0.1,0.4-0.2,0.5l-4.7,6.1
		c-0.2,0.2-0.4,0.3-0.6,0.3h-3.1l-3.9,3.7l1.1,0.3l2.5-2.2c0.1-0.1,0.3-0.2,0.5-0.2h1.1c0.5,0,0.8,0.4,0.8,0.8v1.6
		c0,0.2-0.1,0.4-0.2,0.6l-1.2,1.2l0.3,0.8l2.8-2.9v-2.1c0-0.2,0.1-0.4,0.2-0.5l6.3-7.1v-6.6c0-0.2,0.1-0.5,0.3-0.6l4.4-3.8
		c0.3-0.3,0.8-0.3,1.1,0.1l3.7,4.2c0.1,0.1,0.2,0.3,0.2,0.4L-123.9,486.4z M-125.5,453.7c-3.6,0-6.5-2.9-6.5-6.5s2.9-6.5,6.5-6.5
		s6.5,2.9,6.5,6.5S-121.9,453.7-125.5,453.7z M-125.5,442.3c-2.7,0-4.9,2.2-4.9,4.9s2.2,4.9,4.9,4.9s4.9-2.2,4.9-4.9
		S-122.8,442.3-125.5,442.3z M-125.5,450.4c-0.5,0-0.8-0.4-0.8-0.8c0-0.5,0.4-0.8,0.8-0.8c1.1,0,1.6-1.2,1.6-1.6
		c0-0.5,0.4-0.8,0.8-0.8s0.8,0.4,0.8,0.8C-122.2,448.3-123.3,450.4-125.5,450.4z"/>
</g>
</svg>
