<?xml version="1.0" encoding="utf-8"?>
<!-- Generator: Adobe Illustrator 19.0.0, SVG Export Plug-In . SVG Version: 6.00 Build 0)  -->
<svg version="1.1" id="Capa_1" xmlns="http://www.w3.org/2000/svg" xmlns:xlink="http://www.w3.org/1999/xlink" x="0px" y="0px"
	 viewBox="-210 325.9 173.5 190" style="enable-background:new -210 325.9 173.5 190;" xml:space="preserve">
<style type="text/css">
	.st0{fill:#BE0411;}
</style>
<path class="st0" d="M-40.4,485.8l-78.1-135.3c-1-1.7-2.8-2.8-4.8-2.8s-3.8,1-4.8,2.8l-78.1,135.3c-1,1.7-1,3.8,0,5.5
	s2.8,2.8,4.8,2.8h156.2c2,0,3.8-1,4.8-2.8C-39.4,489.6-39.4,487.5-40.4,485.8z M-123.3,364.2l28.9,50l-10.6,10.6
	c-4.8-4.4-11.3-7.1-18.3-7.1c-7,0-13.5,2.7-18.3,7.1l-10.6-10.6L-123.3,364.2z M-139.4,426.9c4.3-3.9,10-6.2,16.2-6.2
	c6.2,0,11.9,2.4,16.2,6.2l-16.2,16.2L-139.4,426.9z M-107.3,463.3c-4.3,3.7-9.8,6-15.9,6c-6.1,0-11.6-2.3-15.9-6l15.9-15.9
	L-107.3,463.3z M-125.4,445.2l-15.9,15.9c-3.9-4.3-6.2-10-6.2-16.2c0-6.1,2.3-11.6,6-15.9L-125.4,445.2z M-141.3,465.4
	c4.8,4.3,11.1,6.8,18,6.8c6.9,0,13.2-2.6,18-6.8l17.7,17.7h-71.4L-141.3,465.4z M-121.1,445.2l16.2-16.2c3.7,4.3,6,9.8,6,15.9
	c0,6.2-2.4,11.9-6.2,16.2L-121.1,445.2z M-153.7,416.9l10,10c-4.3,4.8-6.8,11.1-6.8,18c0,7,2.7,13.5,7.1,18.3l-19.8,19.8h-28.7
	L-153.7,416.9z M-83.3,483l-19.8-19.8c4.4-4.8,7.1-11.3,7.1-18.3c0-6.9-2.6-13.2-6.8-18l10-10l38.2,66.1H-83.3z"/>
</svg>
