<?xml version="1.0" encoding="utf-8"?>
<!-- Generator: Adobe Illustrator 19.0.0, SVG Export Plug-In . SVG Version: 6.00 Build 0)  -->
<svg version="1.1" id="Capa_1" xmlns="http://www.w3.org/2000/svg" xmlns:xlink="http://www.w3.org/1999/xlink" x="0px" y="0px"
	 viewBox="-210 325.9 173.5 190" style="enable-background:new -210 325.9 173.5 190;" xml:space="preserve">
<style type="text/css">
	.st0{clip-path:url(#SVGID_2_);}
</style>
<g id="XMLID_100_">
	<path d="M-45.1,494.1h-156.3c-2,0-3.8-1-4.8-2.7s-1-3.8,0-5.5l78.1-135.4c1-1.7,2.8-2.8,4.8-2.8l0,0c2,0,3.8,1,4.8,2.7l78.2,135.4
		c1,1.7,1,3.8,0,5.5C-41.3,493-43.1,494.1-45.1,494.1z M-191.9,483.1h137.3l-68.7-118.9L-191.9,483.1z"/>
</g>
<g>
	<defs>
		<polygon id="SVGID_1_" points="-191.9,483.1 -54.6,483.1 -123.3,364.2 		"/>
	</defs>
	<clipPath id="SVGID_2_">
		<use xlink:href="#SVGID_1_"  style="overflow:visible;"/>
	</clipPath>
	<path class="st0" d="M-123.3,326.1c-57.9,0-104.8,46.9-104.8,104.8s46.9,104.8,104.8,104.8s104.8-46.9,104.8-104.8l0,0
		C-18.5,373-65.4,326.1-123.3,326.1z M-115.8,435.8h1v-1c0-0.3,0.2-0.5,0.6-0.5c0.3,0,0.5,0.2,0.5,0.5v1h1c0.3,0,0.5,0.2,0.5,0.6
		c0,0.3-0.2,0.5-0.5,0.5h-1v1c0,0.3-0.2,0.6-0.5,0.6c-0.3,0-0.6-0.2-0.6-0.5c0,0,0,0,0,0v-1h-1c-0.3,0-0.5-0.2-0.5-0.6
		C-116.4,436.1-116.1,435.8-115.8,435.8z M-108.2,448.6c-4.8,9.2-16.2,12.8-25.4,8c-9.2-4.8-12.8-16.2-8-25.4
		c3.2-6.2,9.7-10.1,16.7-10.1h0.6c0.3,0,0.5,0.3,0.5,0.6c0,0.1,0,0.2-0.1,0.3c-5.3,9.7-1.8,16.5,0.8,19.8c3.8,4.7,10,7.4,14.2,6.2
		c0.3-0.1,0.6,0,0.7,0.3C-108,448.3-108.1,448.5-108.2,448.6z M-103.3,427.1h-1.7v1.6c0,0.3-0.2,0.5-0.6,0.5c-0.3,0-0.5-0.2-0.5-0.5
		v-1.7h-1.6c-0.3,0-0.5-0.2-0.5-0.6c0-0.3,0.2-0.5,0.5-0.5h1.7v-1.6c0-0.3,0.2-0.5,0.6-0.5c0.3,0,0.5,0.2,0.5,0.5v1.6h1.7
		c0.3,0,0.5,0.2,0.5,0.6C-102.8,426.8-103,427.1-103.3,427.1L-103.3,427.1z"/>
	<use xlink:href="#SVGID_1_"  style="overflow:visible;fill:none;stroke:#FFFFFF;stroke-miterlimit:10;"/>
</g>
</svg>
