<?xml version="1.0" encoding="utf-8"?>
<!-- Generator: Adobe Illustrator 19.0.0, SVG Export Plug-In . SVG Version: 6.00 Build 0)  -->
<svg version="1.1" id="Capa_1" xmlns="http://www.w3.org/2000/svg" xmlns:xlink="http://www.w3.org/1999/xlink" x="0px" y="0px"
	 viewBox="-210 325.9 173.5 190" style="enable-background:new -210 325.9 173.5 190;" xml:space="preserve">
<g id="XMLID_100_">
	<path d="M-45.1,494.1h-156.3c-2,0-3.8-1-4.8-2.7s-1-3.8,0-5.5l78.1-135.4c1-1.7,2.8-2.8,4.8-2.8l0,0c2,0,3.8,1,4.8,2.7l78.2,135.4
		c1,1.7,1,3.8,0,5.5C-41.3,493-43.1,494.1-45.1,494.1z M-191.9,483.1h137.3l-68.7-118.9L-191.9,483.1z"/>
</g>
<g>
	<path d="M-158.9,437.7c1.1,0,2-0.9,2-2c0-1.1-0.9-2-2-2c-1.1,0-2,0.9-2,2C-160.9,436.9-160,437.7-158.9,437.7"/>
	<path d="M-149.4,437.7c1.1,0,2-0.9,2-2c0-1.1-0.9-2-2-2c-1.1,0-2,0.9-2,2C-151.4,436.9-150.5,437.7-149.4,437.7"/>
	<path d="M-139.9,437.7c1.1,0,2-0.9,2-2c0-1.1-0.9-2-2-2c-1.1,0-2,0.9-2,2C-141.9,436.9-141,437.7-139.9,437.7"/>
	<path d="M-130.4,437.7c1.1,0,2-0.9,2-2c0-1.1-0.9-2-2-2c-1.1,0-2,0.9-2,2C-132.4,436.9-131.5,437.7-130.4,437.7"/>
	<path d="M-120.9,437.7c1.1,0,2-0.9,2-2c0-1.1-0.9-2-2-2c-1.1,0-2,0.9-2,2C-122.9,436.9-122,437.7-120.9,437.7"/>
	<path d="M-104.9,435.7c0,1-0.8,1.9-1.9,1.9s-1.9-0.8-1.9-1.9s0.8-1.9,1.9-1.9S-104.9,434.7-104.9,435.7 M-117.3,474.8l-6-0.1
		l5.6-4.8L-117.3,474.8z M-71.2,483.9l-4.1-15.8c0,0-3.6-12.1-18.6-13.5l0.9-9.7c0,0,11-9.1-0.7-19.4c0,0-10.6-6.2-17.2,3.9
		c0,0-1.5,2.5-1.5,6.3l-2.5,5.4c0,0-1.5,2.1,1.1,2.3h1.5l-0.1,3.7c0,0,0.4,4,4.2,4.3h2.5v3.1l-0.4,0c-15.6,1.1-29,17.1-29,17.1
		s-1.7,2-2,2.5c-1,1.6-1.2,3.7-0.5,5.5c1,2.4,3.1,4.3,6.1,4.3h47.2l0.7-10.3l2.1,10.2L-71.2,483.9L-71.2,483.9z"/>
</g>
</svg>
