<?xml version="1.0" encoding="utf-8"?>
<!-- Generator: Adobe Illustrator 19.0.0, SVG Export Plug-In . SVG Version: 6.00 Build 0)  -->
<svg version="1.1" id="Capa_1" xmlns="http://www.w3.org/2000/svg" xmlns:xlink="http://www.w3.org/1999/xlink" x="0px" y="0px"
	 viewBox="-210 325.9 173.5 190" style="enable-background:new -210 325.9 173.5 190;" xml:space="preserve">
<g id="XMLID_100_">
	<path d="M-45.1,494.1h-156.3c-2,0-3.8-1-4.8-2.7s-1-3.8,0-5.5l78.1-135.4c1-1.7,2.8-2.8,4.8-2.8l0,0c2,0,3.8,1,4.8,2.7l78.2,135.4
		c1,1.7,1,3.8,0,5.5C-41.3,493-43.1,494.1-45.1,494.1z M-191.9,483.1h137.3l-68.7-118.9L-191.9,483.1z"/>
</g>
<path d="M-114.3,419.2c-0.9-0.5-2.1-0.2-2.6,0.7c-0.5,0.9-0.2,2.1,0.7,2.6c5.3,3,8.7,8.5,9.3,14.4c-1.4-0.1-3-0.6-3.7-1.6
	c-0.2-0.3-0.2-1.1-0.2-1.9c0-1.7-0.1-4-2.1-5.7c-2.5-2.2-6.1-0.7-7.8,0.5c-0.9,0.6-1.1,1.8-0.5,2.7s1.8,1.1,2.7,0.5
	c0.8-0.5,2.5-1.3,3.1-0.8c0.6,0.6,0.7,1.4,0.7,2.8c0,1.2,0.1,2.6,0.8,3.8c1.3,2.2,3.7,3.1,5.7,3.4c-0.8,1.1-1.9,2.3-3.2,3
	c-2.1,1-4.1,1.1-4.7,0.8c-0.9-0.5-1-2.5-1-3.3c0.1-1.1-0.7-2-1.8-2.1c-1.1-0.1-2,0.7-2.1,1.8c0,0.5-0.3,4.1,1.9,6.3
	c-0.2,1.9-2.4,2.5-2.7,2.6c-1,0.3-1.6,1.3-1.4,2.3c0.2,0.9,1,1.4,1.9,1.4c0.2,0,0.3,0,0.5-0.1c1.7-0.5,4.6-2,5.4-5
	c0.1,0,0.1,0,0.2,0c1.8,0,3.8-0.6,5.4-1.4c0.5-0.2,1-0.6,1.4-0.9c-1.6,3.8-4.3,7-8,9.1c-0.9,0.5-1.2,1.7-0.7,2.6c0.4,0.6,1,1,1.7,1
	c0.3,0,0.7-0.1,1-0.3c7-4.1,11.4-11.6,11.4-19.7C-102.9,430.8-107.3,423.2-114.3,419.2z M-87.9,440.2c-4.1,0-7,0.9-9.2,2
	c0.1-1.1,0.2-2.2,0.2-3.3c0-1.1-0.1-2.2-0.2-3.3c2.2,1.1,5.1,2,9.2,2c1.1,0,1.9-0.9,1.9-1.9c0-1.1-0.9-1.9-1.9-1.9
	c-7.6,0-10.1-3.4-10.8-4.7c-4-10.8-14.4-18.4-26.5-18.4c-8,0-15.6,3.4-21,9.3c-7.5,3.3-12.3,10.7-12.3,18.9
	c0,8.2,4.8,15.6,12.3,18.9c5.4,5.9,13,9.3,21,9.3c12.1,0,22.5-7.7,26.5-18.4c0.7-1.2,3.1-4.7,10.8-4.7c1.1,0,1.9-0.9,1.9-1.9
	C-86,441-86.9,440.2-87.9,440.2z M-146.8,447.3c0.2,0.8-0.4,2.2-1.4,2.8c-0.3,0.2-1.2,0.7-2.6-0.5c-2.5-3-3.9-6.7-3.9-10.7
	c0-4,1.4-7.8,3.9-10.7c1.5-1.2,2.3-0.7,2.6-0.5c1,0.6,1.5,2,1.4,2.8c-0.7,2.6-0.9,5.6-0.9,8.4S-147.4,444.7-146.8,447.3z
	 M-144.3,423.4c0.3-0.1,0.5-0.3,0.7-0.5c0.8-0.9,1.6-1.7,2.5-2.5c-0.2,1.3-0.2,2.7-0.1,4c-0.2,0-0.4-0.1-0.5-0.1
	c-1.1,0-2.1,0.5-2.9,1.4c-0.4-0.5-0.9-1-1.5-1.3c-0.1,0-0.1-0.1-0.2-0.1C-145.6,424-145,423.6-144.3,423.4z M-143.6,454.9
	c-0.2-0.2-0.4-0.4-0.7-0.5c-0.7-0.3-1.3-0.6-1.9-1c0.1,0,0.1-0.1,0.2-0.1c0.6-0.4,1.1-0.8,1.5-1.3c0.8,0.9,1.7,1.4,2.9,1.4
	c0.2,0,0.4,0,0.5-0.1c-0.1,1.3-0.1,2.6,0.1,4C-141.9,456.6-142.8,455.8-143.6,454.9z M-141.6,449.6c-0.7-0.6-2.3-4.2-2.3-10.7
	c0-6.5,1.5-10.1,2.3-10.7c1.3,0.2,3.9,4.2,3.9,10.7C-137.7,445.4-140.3,449.3-141.6,449.6z M-125.2,463.3c-3.3,0-6.5-0.7-9.4-1.9
	c-1.1-0.7-1.9-1.7-2.3-3.1c-1.1-3.4,0.1-7.8,0.6-8.7l0,0c1.5-2.7,2.5-6.4,2.5-10.6c0-4.3-1-8.1-2.6-10.8c-0.5-1.2-1.5-5.3-0.5-8.5
	c0.5-1.6,1.3-2.6,2.6-3.3c2.9-1.2,6-1.8,9.1-1.8c13.5,0,24.4,10.9,24.4,24.4C-100.8,452.3-111.7,463.3-125.2,463.3z"/>
</svg>
