<?xml version="1.0" encoding="utf-8"?>
<!-- Generator: Adobe Illustrator 19.0.0, SVG Export Plug-In . SVG Version: 6.00 Build 0)  -->
<svg version="1.1" id="Capa_1" xmlns="http://www.w3.org/2000/svg" xmlns:xlink="http://www.w3.org/1999/xlink" x="0px" y="0px"
	 viewBox="-210 325.9 173.5 190" style="enable-background:new -210 325.9 173.5 190;" xml:space="preserve">
<g id="XMLID_100_">
	<path d="M-45.1,494.1h-156.3c-2,0-3.8-1-4.8-2.7s-1-3.8,0-5.5l78.1-135.4c1-1.7,2.8-2.8,4.8-2.8l0,0c2,0,3.8,1,4.8,2.7l78.2,135.4
		c1,1.7,1,3.8,0,5.5C-41.3,493-43.1,494.1-45.1,494.1z M-191.9,483.1h137.3l-68.7-118.9L-191.9,483.1z"/>
</g>
<path d="M-100,448.6c-2.1-0.4-4.4-0.2-6.5,0.6c-3.2,1.1-5.6,3.3-6.6,5.9l-2.7-0.1c0,0,0,0-0.1,0c-1.7-0.1-4.3-1.6-5.7-4.2
	c-1.1-2-1.7-5.3,1.1-9.6l21.6-32.4c0,0,0,0,0-0.1c2-3.2,2.9-5.5,2.1-9.4c-0.3-1.3-1.5-2.1-2.8-1.8c-1.3,0.3-2.1,1.5-1.8,2.8
	c0.5,2.2,0.2,3.4-1.4,5.9l-21.6,32.4c0,0,0,0,0,0c-4.3,6.6-2.7,11.9-1.3,14.4c2,3.9,6,6.6,9.7,6.8l9.9,0.6c0,0,0.1,0,0.1,0
	c0.1,0,0.2,0,0.3,0c0.4,0,0.8,0.2,1.1,0.4c0.3,0.3,0.5,1.1,0.4,2c-0.1,1.3,0.9,2.4,2.2,2.6c0.1,0,0.1,0,0.2,0c1.2,0,2.3-0.9,2.4-2.2
	c0.2-2.3-0.4-4.2-1.6-5.6c-0.8-0.9-2.4-2-5-2c-0.1,0-0.2,0-0.2,0l-1.2-0.1c0.7-0.7,1.7-1.3,2.8-1.7c1.1-0.4,4.8-1.4,7.8,1.7
	c0.9,0.9,2.4,1,3.3,0.1c0.9-0.9,1-2.4,0.1-3.3C-95.4,450.3-97.6,449.1-100,448.6z"/>
<path d="M-86.9,450.4C-86.9,450.5-87,450.5-86.9,450.4C-86.9,450.5-86.9,450.5-86.9,450.4z"/>
<path d="M-87.5,443.1c-0.7-1.7-1.9-3.1-3.4-4.1c-0.7-0.5-1.5-0.9-2.3-1.3c-1.6-0.7-3.2-1.2-4.8-1.6l0,0c-0.2,0-0.4-0.1-0.5-0.1
	c-1.3,0-2.4,1-2.4,2.4c0,1.3,1,2.4,2.4,2.4c1.5,0,3,0.1,4.4,0.3c1.4,0.3,2.6,0.8,3.7,1.5c2.8,1.6,3.8,7.1,3.8,7.9
	C-86.1,448.6-86.5,445-87.5,443.1z"/>
<circle cx="-134.1" cy="453.2" r="2.4"/>
<circle cx="-144.4" cy="451.4" r="2.4"/>
<circle cx="-136.8" cy="442.7" r="2.4"/>
<circle cx="-147.1" cy="460.7" r="2.4"/>
<circle cx="-127.3" cy="460.3" r="2.4"/>
<circle cx="-118.9" cy="462.8" r="2.4"/>
<circle cx="-158.9" cy="429.6" r="2.4"/>
<circle cx="-137.1" cy="428" r="2.4"/>
<circle cx="-149" cy="438.4" r="2.4"/>
<circle cx="-157.3" cy="451.2" r="2.4"/>
<circle cx="-147.8" cy="418.5" r="2.4"/>
<circle cx="-136.1" cy="462.5" r="2.4"/>
</svg>
