<?xml version="1.0" encoding="utf-8"?>
<!-- Generator: Adobe Illustrator 19.0.0, SVG Export Plug-In . SVG Version: 6.00 Build 0)  -->
<svg version="1.1" id="Capa_1" xmlns="http://www.w3.org/2000/svg" xmlns:xlink="http://www.w3.org/1999/xlink" x="0px" y="0px"
	 viewBox="-210 325.9 173.5 190" style="enable-background:new -210 325.9 173.5 190;" xml:space="preserve">
<style type="text/css">
	.st0{fill:#010100;}
</style>
<g id="XMLID_100_">
	<path d="M-45.1,494.1h-156.3c-2,0-3.8-1-4.8-2.7s-1-3.8,0-5.5l78.1-135.4c1-1.7,2.8-2.8,4.8-2.8l0,0c2,0,3.8,1,4.8,2.7l78.2,135.4
		c1,1.7,1,3.8,0,5.5C-41.3,493-43.1,494.1-45.1,494.1z M-191.9,483.1h137.3l-68.7-118.9L-191.9,483.1z"/>
</g>
<path class="st0" d="M-143.4,455.5c1,1,1,2.5,0,3.5l-1.4,1.4v3.1c0,0.7-0.3,1.3-0.7,1.8l-4.4,4.4c-0.4,0.4-0.7,0.6-1.3,0.7
	c-0.5,0.2-0.5,0.9-0.5,1.1v7.8c0,1.4-1.1,2.5-2.5,2.5H-166c-1.4,0-2.5-1.1-2.5-2.5v-8l-2.6-2.6c-0.5-0.5-0.7-1.1-0.7-1.8v-6.2
	c0,0,0-0.1,0-0.1l-1-6.1c-0.1-0.9,0.2-1.7,0.9-2.3l0.9-0.7v-5.1c0-0.7,0.3-1.3,0.7-1.8l5.1-5.1c1-1,2.5-1,3.5,0c1,1,1,2.5,0,3.5
	l-2.5,2.5c0,0,0,0,0,0c-0.8,0-1.6,0.3-2.2,0.8l-0.7,1.9l1.3-1.1c1.1-0.9,2.6-0.7,3.5,0.3c0.9,1,0.7,2.6-0.3,3.5l-4.6,3.8
	c-0.8,0.1-1.5,0.4-2,0.9l-0.6,2l1.3-1.3c1-1,2.5-1,3.5,0c1,1,1,2.5,0,3.5l-1.8,1.8v3.1l1-1.5v-1.2l1.5-1.5c0.2-0.2,0.3-0.3,0.4-0.5
	c0-0.1,0.1-0.1,0.1-0.2c0.1-0.1,0.2-0.3,0.2-0.4c0-0.1,0-0.1,0.1-0.2c0.1-0.2,0.1-0.4,0.2-0.6c0,0,0,0,0,0c0-0.2,0.1-0.4,0.1-0.6
	c0-0.1,0-0.1,0-0.2c0-0.1,0-0.3,0-0.4c0-0.1,0-0.1,0-0.2c0-0.2-0.1-0.4-0.2-0.6c0,0,0,0,0,0c-0.2-0.4-0.4-0.8-0.8-1.1
	c-0.4-0.4-0.9-0.7-1.4-0.9l3.2-2.7h2.1c0.9,0,1.7-0.7,1.7-1.7c0,0,0,0,0,0V449c0-0.7,0.3-1.3,0.7-1.8l4.5-4.5
	c0.2-0.2,0.4-0.4,0.7-0.5l2.3-1.1c1.2-0.6,2.7,0,3.3,1.2c0.6,1.2,0,2.7-1.2,3.3l-1.9,0.9l-3.5,3.5v8.9l1.9,1.9h2.1v-1.4
	c0-0.7,0.3-1.3,0.7-1.8l2.1-2.1C-145.9,454.6-144.4,454.6-143.4,455.5z M-139.3,441.7c-3.1,0-5.7,2.5-5.7,5.7c0,3.1,2.5,5.7,5.7,5.7
	c3.1,0,5.7-2.5,5.7-5.7C-133.7,444.3-136.2,441.7-139.3,441.7z M-92.7,451.5v-10.4c5.2-4.3,8.4-10.8,8.4-18
	c0-13-10.5-23.5-23.5-23.5c-13,0-23.5,10.5-23.5,23.5v4.6l-5.2,8.5l0,0c-0.2,0.4-0.4,0.9-0.4,1.4c0,1.5,1.2,2.8,2.8,2.8h2.8v1.7
	h12.1c2.5,0,4.6,2,4.6,4.6c0,2.5-2,4.6-4.6,4.6h-12.1v0.8c0,5.3,4.3,9.5,9.5,9.5h4.2V472c0,0,0,0,0,0c0,0,0,0,0,0
	c0,1.3,1,2.3,2.3,2.3c0.4,0,0.8-0.1,1.2-0.3l0.1-0.1l20.1-11.7l0.1-0.1c0.6-0.4,1-1.1,1-1.8c0,0,0-0.1,0-0.1c0,0,0-0.1,0-0.1V452
	L-92.7,451.5L-92.7,451.5z"/>
</svg>
