<?xml version="1.0" encoding="utf-8"?>
<!-- Generator: Adobe Illustrator 19.0.0, SVG Export Plug-In . SVG Version: 6.00 Build 0)  -->
<svg version="1.1" id="Capa_1" xmlns="http://www.w3.org/2000/svg" xmlns:xlink="http://www.w3.org/1999/xlink" x="0px" y="0px"
	 viewBox="-210 325.9 173.5 190" style="enable-background:new -210 325.9 173.5 190;" xml:space="preserve">
<style type="text/css">
	.st0{fill:#010002;}
</style>
<g id="XMLID_4_">
	<path id="XMLID_18_" class="st0" d="M-90,390.6c-0.3-1.8-0.9-3.5-1.8-5c0.2-0.9,0.4-1.8,0.4-2.8c0-5.7-4.6-10.3-10.3-10.3
		c-1.5,0-2.9,0.3-4.2,0.9c-3-4.4-8-7.1-13.4-7.1c-2.1,0-4.1,0.4-6.1,1.2c-3-2.5-6.9-3.8-10.8-3.8c-9.4,0-17.1,7.7-17.1,17.1
		c0,0.3,0,0.6,0,0.9c-2.1,2.7-3.4,5.9-3.6,9.4c-3.5,1.8-5.7,5.4-5.7,9.4v0.3c0,5.8,4.8,10.6,10.6,10.6h25.9c0.1,1.1,0.3,4.6,0,10.8
		c-0.4,7.5-10.5,13-10.6,13.1l-3,2c-0.1,0.1-0.4,0.2-0.6,0.5c-0.2,0.4-0.2,1,0.1,1.7c0.2,0.4,0.4,0.7,0.8,0.9c1,0.4,2.4-0.3,2.5-0.4
		c0,0,2.7-1.3,3.5-1.5c0.1,0,0.2,0,0.2,0c0,0.1,0,0.4-0.2,0.7c-0.3,0.6-1.7,2.8-1.7,2.8c-0.1,0.1-0.7,1.3,1.1,3.7
		c0.5,0.7,1.2,1,1.8,1c0,0,0,0,0,0c0.9,0,1.6-0.6,1.8-0.9c0.2-0.3,0.4-0.5,0.7-0.7l2.5-2.7c5.9-6.5,16.1-2.2,16.2-2.2l6.7,3.2l0.1,0
		c0,0,1.1,0.3,1.8-0.2c0.4-0.3,0.7-0.7,0.7-1.3c0.2-1.5-0.3-2-2.8-4.1c-0.9-0.7-1.9-1.6-3.3-2.9c-5.3-4.7-5-11.2-5-11.2v-12.2h18.8
		c5.8,0,10.6-4.8,10.6-10.6v-0.3C-83.2,396.1-85.9,392.1-90,390.6z M-84.2,400.8c0,5.3-4.3,9.6-9.6,9.6h-58.1
		c-5.3,0-9.6-4.3-9.6-9.6v-0.3c0-3.7,2.1-7,5.4-8.6l0.3-0.1l0-0.3c0.1-3.4,1.3-6.6,3.5-9.2l0.1-0.2l0-0.2c0-0.4,0-0.7,0-1
		c0-8.9,7.2-16.1,16.1-16.1c3.8,0,7.5,1.3,10.4,3.8l0.2,0.2l0.3-0.1c1.9-0.8,3.9-1.2,5.9-1.2c5.2,0,9.9,2.6,12.8,7l0.2,0.4l0.4-0.2
		c1.3-0.7,2.7-1,4.2-1c5.1,0,9.3,4.2,9.3,9.3c0,0.9-0.1,1.8-0.4,2.7l-0.1,0.2l0.1,0.2c1,1.6,1.6,3.3,1.8,5.1l0,0.3l0.3,0.1
		c3.9,1.3,6.5,5,6.5,9.1V400.8z"/>
	<circle id="XMLID_19_" class="st0" cx="-120.8" cy="391.9" r="14.7"/>
	<path d="M-197.9,346.5l74.6,150l74.6-150H-197.9z M-53,349.2l-70.3,141.3l-70.3-141.3H-53z"/>
</g>
</svg>
