<?xml version="1.0" encoding="utf-8"?>
<!-- Generator: Adobe Illustrator 19.0.0, SVG Export Plug-In . SVG Version: 6.00 Build 0)  -->
<svg version="1.1" id="Capa_1" xmlns="http://www.w3.org/2000/svg" xmlns:xlink="http://www.w3.org/1999/xlink" x="0px" y="0px"
	 viewBox="-210 325.9 173.5 190" style="enable-background:new -210 325.9 173.5 190;" xml:space="preserve">
<style type="text/css">
	.st0{fill:none;}
</style>
<g id="XMLID_100_">
	<path d="M-45.1,494.1h-156.3c-2,0-3.8-1-4.8-2.7s-1-3.8,0-5.5l78.1-135.4c1-1.7,2.8-2.8,4.8-2.8l0,0c2,0,3.8,1,4.8,2.7l78.2,135.4
		c1,1.7,1,3.8,0,5.5C-41.3,493-43.1,494.1-45.1,494.1z M-191.9,483.1h137.3l-68.7-118.9L-191.9,483.1z"/>
</g>
<rect x="-164.2" y="404" class="st0" width="81.8" height="81.8"/>
<g>
	<path d="M-102.7,454.3l12.3-3l-32.7-13.5l13.5,32.7l3.1-12.3l9.2,9.2c0.5,0.5,1.3,0.5,1.8,0l2.1-2.1c0.5-0.5,0.5-1.3,0-1.8
		L-102.7,454.3z"/>
	<path d="M-116.6,460.2c0.2-0.3,0.4-0.6,0.6-0.9l-1.6-3.8c-1.7,3.6-3.8,5.6-5.6,5.6c-1.9,0-4-2.2-5.7-5.9c-0.8-1.7-1.5-3.6-1.9-5.8
		c2.4,0.4,5,0.5,7.7,0.5c1.1,0,2.2,0,3.3-0.1l-1.3-3.1c-0.7,0-1.3,0-2,0c-2.9,0-5.7-0.2-8.4-0.7c-0.4-2.7-0.7-5.5-0.7-8.4
		c0-2.9,0.2-5.7,0.7-8.4c2.7-0.4,5.5-0.7,8.4-0.7c2.9,0,5.7,0.2,8.4,0.7c0.4,2.7,0.7,5.5,0.7,8.4c0,0.7,0,1.3,0,1.9l3.1,1.3
		c0.1-1,0.1-2.1,0.1-3.3c0-2.7-0.1-5.3-0.5-7.7c2.1,0.5,4,1.2,5.8,1.9c3.7,1.7,5.9,3.8,5.9,5.7s-2.1,3.9-5.6,5.6l3.8,1.6
		c0.3-0.2,0.6-0.4,0.9-0.6c-0.1,0.3-0.1,0.6-0.3,0.8l3,1.2c0.9-2.7,1.4-5.6,1.4-8.6c-0.1-14.4-12-26.3-26.6-26.3
		s-26.5,11.8-26.5,26.5c0,14.7,11.8,26.5,26.5,26.5c3,0,5.9-0.5,8.6-1.4l-1.2-3C-116,460-116.3,460.1-116.6,460.2z M-106.6,421.3
		c2.8,2.8,4.8,6.2,5.9,10c-2.7-2-6.7-3.6-11.3-4.6c-1-4.7-2.6-8.6-4.6-11.3C-112.9,416.5-109.5,418.5-106.6,421.3z M-123.1,414.5
		c1.9,0,4,2.2,5.7,5.9c0.8,1.7,1.5,3.6,1.9,5.8c-2.4-0.4-5-0.5-7.7-0.5s-5.3,0.1-7.7,0.5c0.5-2.1,1.2-4,1.9-5.8
		C-127.2,416.7-125,414.5-123.1,414.5z M-139.6,421.3c2.8-2.8,6.2-4.8,10-5.9c-2,2.7-3.6,6.7-4.6,11.3c-4.7,1-8.6,2.6-11.3,4.6
		C-144.4,427.6-142.4,424.2-139.6,421.3z M-140.5,432.1c1.7-0.8,3.6-1.5,5.8-1.9c-0.4,2.4-0.5,5-0.5,7.7c0,2.7,0.1,5.3,0.5,7.7
		c-2.1-0.5-4-1.2-5.8-1.9c-3.7-1.7-5.9-3.8-5.9-5.7C-146.4,436.1-144.2,433.8-140.5,432.1z M-139.6,454.3c-2.8-2.8-4.8-6.2-5.9-10
		c2.7,2,6.7,3.6,11.3,4.6c1,4.7,2.6,8.6,4.6,11.3C-133.3,459.1-136.8,457.1-139.6,454.3z"/>
</g>
</svg>
