<?xml version="1.0" encoding="utf-8"?>
<!-- Generator: Adobe Illustrator 19.0.0, SVG Export Plug-In . SVG Version: 6.00 Build 0)  -->
<svg version="1.1" id="Capa_1" xmlns="http://www.w3.org/2000/svg" xmlns:xlink="http://www.w3.org/1999/xlink" x="0px" y="0px"
	 viewBox="-210 325.9 173.5 190" style="enable-background:new -210 325.9 173.5 190;" xml:space="preserve">
<g id="XMLID_100_">
	<path d="M-45.1,494.1h-156.3c-2,0-3.8-1-4.8-2.7s-1-3.8,0-5.5l78.1-135.4c1-1.7,2.8-2.8,4.8-2.8l0,0c2,0,3.8,1,4.8,2.7l78.2,135.4
		c1,1.7,1,3.8,0,5.5C-41.3,493-43.1,494.1-45.1,494.1z M-191.9,483.1h137.3l-68.7-118.9L-191.9,483.1z"/>
</g>
<g>
	<path d="M-98.3,433c-2.9,0-5.2-2.3-5.2-5.2c0-1.3,0.4-2.4,1.2-3.4c-4.2-4.5-9.8-7.6-16-8.7c-0.7,2.1-2.7,3.6-5,3.6s-4.3-1.5-5-3.6
		c-6.2,1.1-11.7,4.2-16,8.7c0.8,0.9,1.2,2.1,1.2,3.4c0,2.9-2.3,5.2-5.2,5.2c-0.5,0-1-0.1-1.4-0.2c-1.5,3.5-2.2,7.2-2.2,11.1
		c0,4.1,0.9,8.1,2.5,11.8c0.4-0.1,0.7-0.1,1.1-0.1c2.9,0,5.2,2.3,5.2,5.2c0,1.1-0.3,2.1-0.9,2.9c4.2,4.4,9.6,7.3,15.6,8.3
		c0.7-2.1,2.7-3.6,5-3.6s4.3,1.5,5,3.6c6-1.1,11.4-4,15.6-8.3c-0.6-0.8-0.9-1.9-0.9-2.9c0-2.9,2.3-5.2,5.2-5.2c0.4,0,0.7,0,1.1,0.1
		c1.7-3.7,2.5-7.7,2.5-11.8c0-3.9-0.8-7.6-2.2-11.1C-97.3,433-97.8,433-98.3,433z M-95.2,430.8c1.9,4.1,2.9,8.5,2.9,13.1
		c0,4.9-1.1,9.6-3.2,13.8l-0.5,1.1l-1.1-0.5c-0.4-0.2-0.8-0.3-1.2-0.3c-1.6,0-2.8,1.3-2.8,2.8c0,0.8,0.3,1.5,0.9,2.1l0.9,0.8
		l-0.8,0.9c-4.9,5.5-11.6,9.1-18.9,10.1l-1.3,0.2l-0.1-1.3c-0.1-1.5-1.3-2.6-2.8-2.6s-2.7,1.2-2.8,2.6l-0.1,1.3l-1.3-0.2
		c-7.4-1-14-4.6-18.9-10.1l-0.8-0.9l0.9-0.8c0.6-0.5,0.9-1.3,0.9-2.1c0-1.6-1.3-2.8-2.8-2.8c-0.4,0-0.8,0.1-1.2,0.3l-1.1,0.5
		l-0.5-1.1c-2.1-4.3-3.2-9-3.2-13.8c0-4.6,1-9.1,2.9-13.1l0.6-1.2l1.1,0.7c0.4,0.3,0.9,0.4,1.4,0.4c1.6,0,2.8-1.3,2.8-2.8
		c0-0.9-0.4-1.8-1.2-2.3l-1.1-0.8l0.9-1c4.9-5.7,11.8-9.5,19.4-10.6l1.3-0.2l0.1,1.3c0.1,1.5,1.3,2.6,2.8,2.6s2.7-1.2,2.8-2.6
		l0.1-1.3l1.3,0.2c7.6,1,14.4,4.8,19.4,10.6l0.9,1l-1.1,0.8c-0.7,0.5-1.2,1.4-1.2,2.3c0,1.6,1.3,2.8,2.8,2.8c0.5,0,1-0.1,1.4-0.4
		l1.1-0.7L-95.2,430.8z"/>
	<path d="M-123.3,419.3c-2.9,0-5.2-2.3-5.2-5.2s2.3-5.2,5.2-5.2s5.2,2.3,5.2,5.2S-120.4,419.3-123.3,419.3z"/>
	<path d="M-123.3,478.9c-2.9,0-5.2-2.3-5.2-5.2s2.3-5.2,5.2-5.2s5.2,2.3,5.2,5.2S-120.4,478.9-123.3,478.9z"/>
	<path d="M-148.2,433c-2.9,0-5.2-2.3-5.2-5.2c0-2.9,2.3-5.2,5.2-5.2c2.9,0,5.2,2.3,5.2,5.2C-143,430.7-145.3,433-148.2,433z"/>
	<path d="M-98.3,466c-2.9,0-5.2-2.3-5.2-5.2s2.3-5.2,5.2-5.2c2.9,0,5.2,2.3,5.2,5.2S-95.4,466-98.3,466z"/>
	<path d="M-148.2,466c-2.9,0-5.2-2.3-5.2-5.2s2.3-5.2,5.2-5.2c2.9,0,5.2,2.3,5.2,5.2S-145.3,466-148.2,466z"/>
	<path d="M-98.3,433c-2.9,0-5.2-2.3-5.2-5.2c0-2.9,2.3-5.2,5.2-5.2c2.9,0,5.2,2.3,5.2,5.2C-93.1,430.7-95.4,433-98.3,433z"/>
	<path d="M-128.2,446.1c-2.8-1.8-4.7-5-4.7-8.6c0-5.5,4.3-10.1,9.7-10.1c5.3,0,9.7,4.5,9.7,10.1c0,3.7-1.9,6.9-4.7,8.6l7.3,4.5
		c1.9,1.2,3,3.2,3,5.4c0,2-1.6,3.6-3.6,3.6H-135c-2,0-3.6-1.6-3.6-3.6c0-2.2,1.1-4.3,3-5.4L-128.2,446.1z"/>
</g>
</svg>
