<?xml version="1.0" encoding="utf-8"?>
<!-- Generator: Adobe Illustrator 19.0.0, SVG Export Plug-In . SVG Version: 6.00 Build 0)  -->
<svg version="1.1" id="Capa_1" xmlns="http://www.w3.org/2000/svg" xmlns:xlink="http://www.w3.org/1999/xlink" x="0px" y="0px"
	 viewBox="-210 325.9 173.5 190" style="enable-background:new -210 325.9 173.5 190;" xml:space="preserve">
<g id="XMLID_100_">
	<path d="M-45.1,494.1h-156.3c-2,0-3.8-1-4.8-2.7s-1-3.8,0-5.5l78.1-135.4c1-1.7,2.8-2.8,4.8-2.8l0,0c2,0,3.8,1,4.8,2.7l78.2,135.4
		c1,1.7,1,3.8,0,5.5C-41.3,493-43.1,494.1-45.1,494.1z M-191.9,483.1h137.3l-68.7-118.9L-191.9,483.1z"/>
</g>
<path d="M-93.1,425.7c-0.6-0.1-13.3-3-26.1,3.2c-4.6-13.3-15.6-20.1-16.1-20.4c-0.9-0.5-2-0.5-2.9,0c-0.7,0.5-18.2,11.3-18.2,32.3
	c0,21,17.5,31.8,18.2,32.3c0.3,0.2,0.6,0.3,1,0.3c0.6,0.1,3.7,0.8,8.1,0.8c7.4,0,18.6-1.8,27.8-10.9c15.1-14.9,10.5-34.7,10.3-35.5
	C-91.2,426.8-92,426-93.1,425.7z M-150.8,440.9c0-14.6,10.3-23.7,14.1-26.6c3,2.2,9.8,8.1,12.7,17.5c0,0,0,0,0,0
	c-0.8,0.5-1.6,1.1-2.3,1.7c-0.2,0.2-0.4,0.3-0.6,0.5c-0.7,0.6-1.5,1.3-2.2,1.9c-0.5,0.5-1.1,1.1-1.6,1.6c-0.1,0.2-0.3,0.3-0.4,0.5
	c-0.4,0.4-0.7,0.8-1,1.3c-0.1,0.2-0.3,0.3-0.4,0.5c-0.4,0.6-0.8,1.1-1.2,1.7c0,0.1-0.1,0.1-0.1,0.2c0,0.1-0.1,0.1-0.1,0.2v-12.6
	c0-1.5-1.2-2.8-2.8-2.8c-1.5,0-2.8,1.2-2.8,2.8v5.5l-2.4-2.4c-1.1-1.1-2.8-1-3.9,0.1c-1.1,1.1-1,2.8,0.1,3.9l6.3,6.1v5.6l-2.3-2.6
	c-1-1.1-2.7-1.3-3.9-0.3c-1.1,1-1.3,2.7-0.3,3.9l6.3,7.2c0,0,0,0.1,0,0.1c0,0.1,0,0.3-0.1,0.4c-0.1,0.5-0.2,1-0.2,1.5
	c0,0.1,0,0.2,0,0.4c0,0.4-0.1,0.8-0.1,1.2c0,0.2,0,0.3,0,0.5c0,0.4,0,0.7-0.1,1.1c0,0.1,0,0.2,0,0.4c0,0.5,0,0.9,0,1.3
	c0,0.1,0,0.2,0,0.4c0,0.3,0,0.6,0,0.9c0,0.1,0,0.1,0,0.2C-144.6,460.2-150.8,452.2-150.8,440.9z M-105.2,459.4
	c-8.9,8.8-20.3,9.6-26.4,9.2c2.2-2.9,5.7-7.1,10-11.6c1.6-0.7,7.1-2.7,13.9-3.3c1.5-0.1,2.6-1.5,2.5-3c-0.1-1.5-1.4-2.6-3-2.5
	c-1.8,0.2-3.5,0.4-5.1,0.7c2.9-2.6,5.9-5,9.1-7.1c1.3-0.8,1.6-2.6,0.7-3.8c-0.8-1.3-2.6-1.6-3.8-0.7c-4.6,3.1-8.9,6.8-12.9,10.5
	c0-0.6,0-1.2-0.1-1.8c-0.2-1.5-1.5-2.6-3-2.5c-1.5,0.2-2.6,1.5-2.5,3c0.4,4.2-0.5,7-0.9,7.9c-3.2,3.5-5.9,6.7-7.9,9.3
	c0,0,0-0.1,0-0.1c0-0.1,0-0.1,0-0.2c0-0.4,0-0.9,0-1.4c0-0.1,0-0.1,0-0.2c0-0.5,0.1-1,0.1-1.5c0-0.1,0-0.2,0-0.3
	c0-0.5,0.1-1.1,0.2-1.6c0-0.1,0-0.1,0-0.2c0.1-0.4,0.1-0.9,0.2-1.4c0.1-0.2,0.1-0.4,0.1-0.6c0.1-0.6,0.2-1.1,0.4-1.7
	c0-0.1,0.1-0.2,0.1-0.4c0.2-0.6,0.3-1.2,0.5-1.8c0,0,0-0.1,0.1-0.1c0.2-0.6,0.4-1.2,0.7-1.8c0-0.1,0.1-0.2,0.1-0.3
	c0.3-0.6,0.5-1.2,0.8-1.8c0.1-0.1,0.1-0.2,0.2-0.4c0.3-0.6,0.7-1.3,1-1.9c0,0,0,0,0-0.1c0.4-0.6,0.8-1.2,1.2-1.8
	c0.1-0.1,0.2-0.2,0.2-0.3c0.4-0.6,0.9-1.2,1.4-1.8c0.1-0.1,0.2-0.2,0.3-0.3c0.5-0.6,1.1-1.2,1.7-1.8c0.9-0.9,1.8-1.7,2.8-2.4
	c0.1-0.1,0.2-0.2,0.3-0.3c0.4-0.3,0.7-0.6,1.1-0.8c0.5-0.3,1-0.7,1.5-1l0,0c0,0,0,0,0,0c9.2-5.6,19.3-5,23.3-4.5
	C-95.4,435.6-94.7,449.1-105.2,459.4z"/>
</svg>
