<?xml version="1.0" encoding="utf-8"?>
<!-- Generator: Adobe Illustrator 19.0.0, SVG Export Plug-In . SVG Version: 6.00 Build 0)  -->
<svg version="1.1" id="Capa_1" xmlns="http://www.w3.org/2000/svg" xmlns:xlink="http://www.w3.org/1999/xlink" x="0px" y="0px"
	 viewBox="-210 325.9 173.5 190" style="enable-background:new -210 325.9 173.5 190;" xml:space="preserve">
<g id="XMLID_100_">
	<path d="M-45.1,494.1h-156.3c-2,0-3.8-1-4.8-2.7s-1-3.8,0-5.5l78.1-135.4c1-1.7,2.8-2.8,4.8-2.8l0,0c2,0,3.8,1,4.8,2.7l78.2,135.4
		c1,1.7,1,3.8,0,5.5C-41.3,493-43.1,494.1-45.1,494.1z M-191.9,483.1h137.3l-68.7-118.9L-191.9,483.1z"/>
</g>
<path d="M-90.1,431.5c0.4-6.4-5.1-8.3-5.1-8.3s-1.2-2.2-2.5-2.5c-1.3-0.3-2.7,0-2.7,0c-0.4-1.6-3.5-0.1-3.6-1.1
	c-0.1-1-2.9,1.3-3.2,0.3c-0.3-1-1.4,1.4-2.8,0.5c-1.4-0.9-2.3,2-3,0.6c-0.7-1.4-2.2,0.4-2.7-0.2c-0.5-0.7-2.2,1.2-3.1-0.1
	c-0.9-1.2-2.8,0.9-2.8,0.1s-3.3,0.4-3.3-0.4c0-0.8-3,0.9-3,0c0-0.9-2.6,1.4-2.9-0.1c-0.3-1.4-2,1-2.5-0.2c-0.5-1.2-1.9,1.8-2.3,0.9
	c-0.4-0.9-1.7,1.7-2,1.2c-0.2-0.4-1.9,1.5-2.3,1.4c-0.4-0.1-1.9,1.2-1.9,1.2s-1.4,1.5-1.9,1.1c-0.4-0.4-1.3,1-2.1,0.7
	c-0.8-0.3-1.3,1.3-1.9,0.8c-0.6-0.5-0.9,2.2-1.4,1.2c-0.6-1-0.5,1.1-1.4,0.9c-0.9-0.1-0.3,1.6-0.9,0.8c-0.6-0.8-1.6,0.7-1.9,1.3
	c-0.3,0.7-1.3,0.8-1.3,0.8c-1.6-0.8-1.7,1.3-1.7,1.3c0,1-1.4,1.4-1.4,1.4c-4.9,4.1-1.4,8-1.4,8c0.7,2.6,0.7,7.2,0.7,7.2
	c0.1,4.2,4,4.8,4,4.8c1.2,0.4,3.8-4,3.8-4c0-1.2,4.8-3.5,5.5-4c0.7-0.5,0.1-1.7,0.6-1.4c0.5,0.3,1.7-0.5,1.7-0.5c3.4-5.2,6,0,6,0
	c1.3,2.5,3.2,3.8,4.7,4.4c-0.2,0.2-0.3,0.6-0.3,1c-0.1,0.6,0,1.4,0.7,2.1c-0.1,1.1-0.4,3.1-1.4,3.7c-1.3,0.9-1,1.3-0.4,1.5
	c0,0,0.1,0,0.1,0c0.2,0.1,0.6,0.1,1.1,0.2c-0.3,0.7-0.7,1.3-1.2,1.7c-1.9,1.4-1.4,1.9-0.5,2.2c0.1,0,0.1,0,0.2,0.1
	c1,0.3,5.6,0.8,4.8-2.1c0,0,0-6.2,0.9-9.8c1.7-0.4,2.6-2.5,2.6-2.5c14.1,4.2,18.1-1.6,18.1-1.6c4.6-0.5,2.9,1.8,3.8,2.6
	c0.3,0.3,0.9,0.4,1.6,0.5c-0.5,0.9-2.5,4.5-4.6,5c-2.3,0.4-2,1.1-1.4,1.7c0,0,1.1,0.4,1.1,0.4s2.8-0.8,4.2-0.3c0,0,1.8-3.9,3.7-6.8
	c0.3,0,0.5,0,0.5,0c0.1,0.1,0.3,0.3,0.3,0.6c-0.4,0.7-0.6,2,0.6,2.9c0.1,0.3,0.2,0.5,0.2,0.7c-0.1,1.4-0.5,5.1-2.1,6.3
	c-1.9,1.4-1.4,1.9-0.5,2.2c0.1,0,0.1,0,0.2,0.1c1,0.3,5.6,0.8,4.8-2.1c0,0,0-4.2,0.5-7.7c0.3-0.4,0.6-0.9,0.9-1.4
	c4.8-7.7,0.6-10.8,1.9-12.7C-90.8,436.4-90.1,431.5-90.1,431.5z"/>
</svg>
