<?xml version="1.0" encoding="utf-8"?>
<!-- Generator: Adobe Illustrator 19.0.0, SVG Export Plug-In . SVG Version: 6.00 Build 0)  -->
<svg version="1.1" id="Capa_1" xmlns="http://www.w3.org/2000/svg" xmlns:xlink="http://www.w3.org/1999/xlink" x="0px" y="0px"
	 viewBox="-210 325.9 173.5 190" style="enable-background:new -210 325.9 173.5 190;" xml:space="preserve">
<g id="XMLID_100_">
	<path d="M-45.1,494.1h-156.3c-2,0-3.8-1-4.8-2.7s-1-3.8,0-5.5l78.1-135.4c1-1.7,2.8-2.8,4.8-2.8l0,0c2,0,3.8,1,4.8,2.7l78.2,135.4
		c1,1.7,1,3.8,0,5.5C-41.3,493-43.1,494.1-45.1,494.1z M-191.9,483.1h137.3l-68.7-118.9L-191.9,483.1z"/>
</g>
<path d="M-75.9,462.1c0.5-2.6-1.1-5.1-3.7-5.8c-2-24.3-23.4-42.3-47.6-40.3c-20.5,1.7-37.1,17.4-40,37.7c-3.7,1.4-5.5,5.6-4,9.3
	c1.1,2.7,3.7,4.5,6.6,4.5h21.3c1.7,0,3.1-1.4,3.1-3.1c0.1-0.9-0.3-1.8-1-2.4c0.4-2.1-0.6-4.3-2.5-5.4c1.8-11.2,12.2-18.8,23.4-17
	c8,1.3,14.5,7.2,16.6,15c-3.1,2.4-3.6,6.9-1.2,10c1.4,1.7,3.4,2.7,5.6,2.7h21.3c1.7,0,3.1-1.4,3.1-3.1
	C-74.8,463.5-75.2,462.6-75.9,462.1z M-123.5,418c20.2,0,37.4,14.4,41.2,34.2c-0.8-0.5-1.8-0.8-2.8-0.8h-0.2
	c-0.4-0.7-0.9-1.3-1.5-1.8c-5.7-20.2-26.8-32-47-26.3c-13.1,3.7-23.3,14.2-26.6,27.4c-0.3-0.1-0.6-0.1-0.9-0.1
	c-1.5,0-2.9,0.9-3.5,2.2C-161.3,432.7-143.9,418-123.5,418L-123.5,418z M-97.2,450.8c-5.1-14.5-20.9-22.2-35.4-17.1
	c-8.2,2.9-14.6,9.4-17.3,17.7c-0.1,0-0.3,0-0.4,0h-0.2c-0.6-1.2-1.6-2.1-2.9-2.6c6.1-16.6,24.5-25,41.1-18.8
	c8.9,3.3,15.8,10.4,19,19.3c-0.6,0.4-1.2,0.9-1.7,1.5c-0.3-0.1-0.7-0.1-1-0.1C-96.4,450.6-96.8,450.6-97.2,450.8L-97.2,450.8z
	 M-92.6,448.8c-6.1-17.1-24.9-26-42-19.8c-9.1,3.3-16.4,10.4-19.7,19.5c-1.7-0.4-3.6,0-5,1.1c5.6-19.7,26.2-31.2,46-25.5
	c12.1,3.5,21.6,12.8,25.3,24.8c-0.8-0.3-1.6-0.5-2.4-0.5C-91.1,448.4-91.9,448.5-92.6,448.8z M-142.8,461.2c0,0.3,0,0.7-0.2,1
	l-0.2,0.7l0.7,0.3c0.4,0.2,0.7,0.6,0.7,1.1v0c0,0.7-0.6,1.4-1.4,1.4h-21.3c-3-0.1-5.3-2.6-5.3-5.6c0.1-2.9,2.4-5.2,5.3-5.3h1
	l0.1-0.7c0.2-1.1,1.1-1.9,2.2-1.9c0.4,0,0.7,0.1,1,0.2l0.7,0.3l0.4-0.7c0.7-1.3,2.1-2.1,3.5-2.1c1.6,0,3.1,1,3.7,2.5l0.2,0.6
	l0.7-0.1c0.2,0,0.4,0,0.6,0c2,0,3.6,1.6,3.6,3.6v1.1l0.8,0C-144.2,457.9-142.8,459.4-142.8,461.2z M-123.5,437.3
	c-10.4,0-19.5,7.2-22,17.3c-0.6-1.6-2-2.7-3.6-3.1c4.6-14.1,19.9-21.8,34-17.2c8,2.6,14.3,8.9,17.1,16.8c-0.8,0.5-1.4,1.2-1.7,2.1
	c-0.7,0-1.4,0.2-2,0.4C-104.6,444-113.4,437.3-123.5,437.3z M-76.6,464.4c0,0.7-0.6,1.4-1.4,1.4h-21.3c-3-0.1-5.3-2.6-5.3-5.6
	c0.1-2.9,2.4-5.2,5.3-5.3h1l0.1-0.7c0.2-1.1,1.1-1.9,2.2-1.9c0.4,0,0.7,0.1,1,0.2l0.7,0.3l0.4-0.7c0.7-1.3,2.1-2.1,3.5-2.1
	c1.6,0,3.1,1,3.7,2.5l0.2,0.6l0.7-0.1c0.2,0,0.4,0,0.6,0c2,0,3.6,1.6,3.6,3.6v1.1l0.8,0c1.8,0.1,3.2,1.6,3.2,3.4c0,0.3,0,0.7-0.2,1
	l-0.2,0.7l0.7,0.3C-76.8,463.4-76.5,463.8-76.6,464.4L-76.6,464.4L-76.6,464.4z"/>
</svg>
