<?xml version="1.0" encoding="utf-8"?>
<!-- Generator: Adobe Illustrator 19.0.0, SVG Export Plug-In . SVG Version: 6.00 Build 0)  -->
<svg version="1.1" id="Capa_1" xmlns="http://www.w3.org/2000/svg" xmlns:xlink="http://www.w3.org/1999/xlink" x="0px" y="0px"
	 viewBox="-210 325.9 173.5 190" style="enable-background:new -210 325.9 173.5 190;" xml:space="preserve">
<g id="XMLID_100_">
	<path d="M-45.1,494.1h-156.3c-2,0-3.8-1-4.8-2.7s-1-3.8,0-5.5l78.1-135.4c1-1.7,2.8-2.8,4.8-2.8l0,0c2,0,3.8,1,4.8,2.7l78.2,135.4
		c1,1.7,1,3.8,0,5.5C-41.3,493-43.1,494.1-45.1,494.1z M-191.9,483.1h137.3l-68.7-118.9L-191.9,483.1z"/>
</g>
<path d="M-108.3,462.6l-2.1-13.7c29.7-3.6,29-31,11-45.5c8,10.5,11.7,27.7-13.1,30.8l-2.1-14l-18.1,24.4
	C-132.7,444.5-108.3,462.6-108.3,462.6z"/>
<path d="M-166,485.7c-8-10.5-11.7-27.7,13.1-30.8l2.1,14l18.1-24.4l-24.4-18l2,13.7C-184.8,443.9-184.1,471.3-166,485.7z"/>
</svg>
