<?xml version="1.0" encoding="utf-8"?>
<!-- Generator: Adobe Illustrator 19.0.0, SVG Export Plug-In . SVG Version: 6.00 Build 0)  -->
<svg version="1.1" id="Capa_1" xmlns="http://www.w3.org/2000/svg" xmlns:xlink="http://www.w3.org/1999/xlink" x="0px" y="0px"
	 viewBox="-210 325.9 173.5 190" style="enable-background:new -210 325.9 173.5 190;" xml:space="preserve">
<style type="text/css">
	.st0{clip-path:url(#SVGID_1_);}
</style>
<g id="XMLID_100_">
	<path d="M-45.1,494.1h-156.3c-2,0-3.8-1-4.8-2.7s-1-3.8,0-5.5l78.1-135.4c1-1.7,2.8-2.8,4.8-2.8l0,0c2,0,3.8,1,4.8,2.7l78.2,135.4
		c1,1.7,1,3.8,0,5.5C-41.3,493-43.1,494.1-45.1,494.1z M-191.9,483.1h137.3l-68.7-118.9L-191.9,483.1z"/>
</g>
<g>
	<g>
		<defs>
			<rect id="SVGID_3_" x="-162.3" y="403.1" width="78" height="83.3"/>
		</defs>
		<clipPath id="SVGID_1_">
			<use xlink:href="#SVGID_3_"  style="overflow:visible;"/>
		</clipPath>
		<path class="st0" d="M-84.6,446.4c-0.5-0.5-1.3-0.5-1.8,0c-1.5,1.5-3.2,3.2-3.7,3.7c-4.3,1.6-9.2-1.1-12.8-3.1
			c-0.5-0.3-1.1-0.6-1.5-0.8c-3.4-1.8-5.1-1.5-6.7-0.6c-0.5-1-1-1.9-1.6-2.8c0.5-0.3,1.4-0.6,2.5-0.6c0.8,0,2.2,0.5,3.7,0.9
			c2.3,0.7,5.2,1.7,8,1.7c4.7,0,6-1.4,6.3-1.9c0.1-0.1,0.1-0.2,0.1-0.3l1.3-5.2c0.2-0.7-0.2-1.4-0.9-1.6c-0.7-0.2-1.4,0.2-1.6,0.9
			l-1.2,4.8c-0.3,0.2-1.4,0.7-4,0.7c-2.4,0-4.9-0.8-7.2-1.5c-1.8-0.6-3.3-1.1-4.5-1.1c-1.8,0-3.2,0.6-4,1.1c-0.3-0.3-0.6-0.7-0.9-1
			c2-2.5,2.7-4.9,3.2-6.7c0.4-1.3,0.7-2.3,1.3-2.8c0.3-0.3,0.7-0.7,1.3-1.2c7.4-7,12.5-12,13.3-13.4c0.2-0.4,0.5-1,0.9-1.7
			c0.7-1.4,1.7-3.4,2.6-5.1c1.5-2.5,2.1-2.9,2.2-3c0.7-0.2,1.1-0.9,0.9-1.6c-0.2-0.7-0.9-1.1-1.6-0.9c-1.8,0.5-3.6,3.5-6.5,9.4
			c-0.3,0.7-0.6,1.3-0.8,1.6c-0.5,0.9-4.8,5.2-12.8,12.8c-0.5,0.5-1,0.9-1.3,1.2c-1.1,1-1.5,2.4-2,4c-0.5,1.7-1.1,3.7-2.7,5.7
			c-0.3-0.2-0.6-0.4-0.9-0.6c0.9-1.2,1.8-3.6,0.9-7.9c-0.7-3.3-2.3-7.1-4.4-7.9c-0.4-0.1-0.8-0.1-1.1,0.1c-0.3,0.2-0.6,0.5-0.6,0.8
			c-0.1-0.4-0.3-0.7-0.6-0.9c-0.3-0.2-0.7-0.2-1.1-0.1c-2.1,0.8-3.8,4.7-4.4,7.9c-0.9,4.4,0,6.7,0.9,7.9c-0.3,0.2-0.6,0.4-0.9,0.6
			c-1.6-2.1-2.2-4-2.7-5.7c-0.5-1.6-0.9-3-2-4c-0.3-0.3-0.7-0.7-1.3-1.2c-8-7.6-12.3-11.9-12.8-12.8c-0.2-0.3-0.5-0.9-0.8-1.6
			c-2.9-5.9-4.7-9-6.5-9.4c-0.7-0.2-1.4,0.2-1.6,0.9c-0.2,0.7,0.2,1.4,0.9,1.6c0.1,0.1,0.8,0.5,2.2,3c1,1.7,1.9,3.6,2.6,5.1
			c0.4,0.7,0.7,1.3,0.9,1.7c0.8,1.4,5.9,6.4,13.3,13.4c0.5,0.5,1,0.9,1.3,1.2c0.6,0.5,0.9,1.6,1.3,2.8c0.5,1.8,1.3,4.2,3.2,6.7
			c-0.3,0.3-0.6,0.7-0.9,1c-0.8-0.5-2.2-1.1-4-1.1c-1.2,0-2.8,0.5-4.5,1.1c-2.3,0.7-4.8,1.5-7.2,1.5c-2.6,0-3.7-0.5-4-0.7l-1.2-4.8
			c-0.2-0.7-0.9-1.1-1.6-0.9c-0.7,0.2-1.1,0.9-0.9,1.6l1.3,5.2c0,0.1,0.1,0.2,0.1,0.3c0.3,0.6,1.6,1.9,6.3,1.9c2.8,0,5.6-0.9,8-1.7
			c1.5-0.5,2.9-0.9,3.7-0.9c1.1,0,2,0.3,2.5,0.6c-0.6,0.9-1.1,1.8-1.6,2.8c-1.6-0.9-3.3-1.2-6.7,0.6c-0.5,0.3-1,0.5-1.5,0.8
			c-3.6,2-8.4,4.7-12.8,3.1c-0.5-0.5-2.2-2.2-3.7-3.7c-0.5-0.5-1.3-0.5-1.8,0c-0.5,0.5-0.5,1.3,0,1.8c4,4.1,4,4.1,4.3,4.2
			c1.3,0.5,2.7,0.8,4,0.8c4.1,0,8.1-2.2,11.2-3.9c0.5-0.3,1-0.6,1.5-0.8c2.6-1.4,3.4-1.2,4.4-0.5c-0.4,1.1-0.8,2.2-1.1,3.3
			c-0.1,0-0.2,0-0.3,0c-2.9,0.7-4.1,4.6-6,11c-1,3.3-2.2,7.4-4,11.9c-0.4,1-4.1,6.7-6.4,10.1c-0.4,0.6-0.2,1.4,0.4,1.8
			c0.2,0.1,0.5,0.2,0.7,0.2c0.4,0,0.8-0.2,1.1-0.6c1-1.5,6-9.1,6.6-10.7c1.8-4.6,3-8.8,4.1-12.1c1.1-3.7,2-6.7,3-8.2
			c-0.3,1.9-0.5,3.7-0.5,5.6c0,5.4,1.6,9.8,4.6,12.8c2.7,2.7,6.6,4.1,11,4.1c4.5,0,8.3-1.4,11-4.1c3-3,4.6-7.4,4.6-12.8
			c0-1.8-0.2-3.7-0.5-5.6c1,1.5,1.9,4.6,3,8.2c1,3.3,2.3,7.5,4.1,12.1c0.6,1.5,5.6,9.1,6.6,10.7c0.3,0.4,0.7,0.6,1.1,0.6
			c0.2,0,0.5-0.1,0.7-0.2c0.6-0.4,0.8-1.2,0.4-1.8c-2.3-3.4-6-9.2-6.4-10.1c-1.8-4.6-3-8.6-4-11.9c-1.9-6.4-3.1-10.3-6-11
			c-0.1,0-0.2,0-0.3,0c-0.3-1.1-0.7-2.2-1.1-3.3c1-0.6,1.9-0.8,4.4,0.5c0.5,0.2,1,0.5,1.5,0.8c3.1,1.7,7,3.9,11.2,3.9
			c1.3,0,2.7-0.2,4-0.8c0.3-0.1,0.4-0.1,4.3-4.2C-84.1,447.7-84.1,446.9-84.6,446.4L-84.6,446.4z M-126.3,436
			c-1-0.9-1.2-3.3-0.7-6.1c0.4-1.9,1-3.4,1.6-4.5l0.8,4c0.1,0.6,0.7,1,1.3,1h0c0.6,0,1.2-0.4,1.3-1.1l0.8-3.9
			c0.6,1.1,1.2,2.6,1.6,4.4c0.6,2.8,0.3,5.2-0.7,6.1c0,0-0.1,0.1-0.1,0.1c-0.9-0.3-1.9-0.5-2.8-0.5c-1,0-2,0.2-2.9,0.5
			C-126.2,436.1-126.2,436-126.3,436L-126.3,436z M-114.1,471.3c-2.2,2.2-5.4,3.4-9.2,3.4c-3.8,0-7-1.2-9.2-3.4
			c-2.5-2.5-3.8-6.2-3.8-10.9c0-2.5,0.4-5.2,1.1-7.8c0.5,1.1,1.1,2.1,1.8,3c0.3,0.3,0.6,0.5,1,0.5c0.3,0,0.6-0.1,0.8-0.3
			c0.6-0.5,0.6-1.3,0.2-1.8c-1.4-1.7-2.1-3.7-2.3-5.8c0.4-1,0.9-1.9,1.4-2.8c2.6-4.5,5.8-7,9-7c3.2,0,6.4,2.6,9,7
			c0.5,0.9,1,1.8,1.4,2.8c-0.4,5.4-4.9,9.7-10.4,9.7c-1.2,0-2.4-0.2-3.5-0.6c-0.7-0.2-1.4,0.1-1.7,0.8c-0.2,0.7,0.1,1.4,0.8,1.7
			c1.4,0.5,2.8,0.7,4.3,0.7c5.3,0,9.9-3.2,11.9-7.8c0.7,2.6,1.1,5.3,1.1,7.8C-110.2,465.1-111.5,468.8-114.1,471.3L-114.1,471.3z
			 M-114.1,471.3"/>
	</g>
</g>
</svg>
