<?xml version="1.0" encoding="utf-8"?>
<!-- Generator: Adobe Illustrator 19.0.0, SVG Export Plug-In . SVG Version: 6.00 Build 0)  -->
<svg version="1.1" id="Capa_1" xmlns="http://www.w3.org/2000/svg" xmlns:xlink="http://www.w3.org/1999/xlink" x="0px" y="0px"
	 viewBox="-210 325.9 173.5 190" style="enable-background:new -210 325.9 173.5 190;" xml:space="preserve">
<style type="text/css">
	.st0{clip-path:url(#SVGID_2_);}
</style>
<g id="XMLID_100_">
	<path d="M-45.1,494.1h-156.3c-2,0-3.8-1-4.8-2.7s-1-3.8,0-5.5l78.1-135.4c1-1.7,2.8-2.8,4.8-2.8l0,0c2,0,3.8,1,4.8,2.7l78.2,135.4
		c1,1.7,1,3.8,0,5.5C-41.3,493-43.1,494.1-45.1,494.1z M-191.9,483.1h137.3l-68.7-118.9L-191.9,483.1z"/>
</g>
<g>
	<defs>
		<polygon id="SVGID_1_" points="-191.9,483.1 -54.6,483.1 -123.3,364.2 		"/>
	</defs>
	<clipPath id="SVGID_2_">
		<use xlink:href="#SVGID_1_"  style="overflow:visible;"/>
	</clipPath>
	<g class="st0">
		<g>
			<polygon points="-187.6,345.3 -177.7,350.9 -167.8,345.3 -157.9,350.9 -148,345.3 -138.1,350.9 -128.2,345.3 -118.3,350.9 
				-108.4,345.3 -98.5,350.9 -88.6,345.3 -78.7,350.9 -68.8,345.3 -58.9,350.9 -48.9,345.3 -39.6,350.6 -38.5,348.6 -48.9,342.8 
				-58.9,348.3 -68.8,342.8 -78.7,348.3 -88.6,342.8 -98.5,348.3 -108.4,342.8 -118.3,348.3 -128.2,342.8 -138.1,348.3 -148,342.8 
				-157.9,348.3 -167.8,342.8 -177.7,348.3 -187.6,342.8 -197.6,348.3 -206.9,343.1 -208,345 -197.6,350.9 			"/>
			<polygon points="-58.9,355.4 -68.8,349.8 -78.7,355.4 -88.6,349.8 -98.5,355.4 -108.4,349.8 -118.3,355.4 -128.2,349.8 
				-138.1,355.4 -148,349.8 -157.9,355.4 -167.8,349.8 -177.7,355.4 -187.6,349.8 -197.6,355.4 -206.9,350.1 -208,352.1 
				-197.6,357.9 -187.6,352.4 -177.7,357.9 -167.8,352.4 -157.9,357.9 -148,352.4 -138.1,357.9 -128.2,352.4 -118.3,357.9 
				-108.4,352.4 -98.5,357.9 -88.6,352.4 -78.7,357.9 -68.8,352.4 -58.9,357.9 -48.9,352.4 -39.6,357.6 -38.5,355.7 -48.9,349.8 			
				"/>
			<polygon points="-58.9,362.4 -68.8,356.9 -78.7,362.4 -88.6,356.9 -98.5,362.4 -108.4,356.9 -118.3,362.4 -128.2,356.9 
				-138.1,362.4 -148,356.9 -157.9,362.4 -167.8,356.9 -177.7,362.4 -187.6,356.9 -197.6,362.4 -206.9,357.2 -208,359.1 -197.6,365 
				-187.6,359.4 -177.7,365 -167.8,359.4 -157.9,365 -148,359.4 -138.1,365 -128.2,359.4 -118.3,365 -108.4,359.4 -98.5,365 
				-88.6,359.4 -78.7,365 -68.8,359.4 -58.9,365 -48.9,359.4 -39.6,364.7 -38.5,362.7 -48.9,356.9 			"/>
			<polygon points="-58.9,369.5 -68.8,363.9 -78.7,369.5 -88.6,363.9 -98.5,369.5 -108.4,363.9 -118.3,369.5 -128.2,363.9 
				-138.1,369.5 -148,363.9 -157.9,369.5 -167.8,363.9 -177.7,369.5 -187.6,363.9 -197.6,369.5 -206.9,364.3 -208,366.2 -197.6,372 
				-187.6,366.5 -177.7,372 -167.8,366.5 -157.9,372 -148,366.5 -138.1,372 -128.2,366.5 -118.3,372 -108.4,366.5 -98.5,372 
				-88.6,366.5 -78.7,372 -68.8,366.5 -58.9,372 -48.9,366.5 -39.6,371.7 -38.5,369.8 -48.9,363.9 			"/>
			<polygon points="-58.9,376.5 -68.8,371 -78.7,376.5 -88.6,371 -98.5,376.5 -108.4,371 -118.3,376.5 -128.2,371 -138.1,376.5 
				-148,371 -157.9,376.5 -167.8,371 -177.7,376.5 -187.6,371 -197.6,376.5 -206.9,371.3 -208,373.2 -197.6,379.1 -187.6,373.5 
				-177.7,379.1 -167.8,373.5 -157.9,379.1 -148,373.5 -138.1,379.1 -128.2,373.5 -118.3,379.1 -108.4,373.5 -98.5,379.1 
				-88.6,373.5 -78.7,379.1 -68.8,373.5 -58.9,379.1 -48.9,373.5 -39.6,378.8 -38.5,376.8 -48.9,371 			"/>
			<polygon points="-58.9,383.6 -68.8,378.1 -78.7,383.6 -88.6,378.1 -98.5,383.6 -108.4,378.1 -118.3,383.6 -128.2,378.1 
				-138.1,383.6 -148,378.1 -157.9,383.6 -167.8,378.1 -177.7,383.6 -187.6,378.1 -197.6,383.6 -206.9,378.4 -208,380.3 
				-197.6,386.1 -187.6,380.6 -177.7,386.1 -167.8,380.6 -157.9,386.1 -148,380.6 -138.1,386.1 -128.2,380.6 -118.3,386.1 
				-108.4,380.6 -98.5,386.1 -88.6,380.6 -78.7,386.1 -68.8,380.6 -58.9,386.1 -48.9,380.6 -39.6,385.8 -38.5,383.9 -48.9,378.1 			
				"/>
			<polygon points="-58.9,390.6 -68.8,385.1 -78.7,390.6 -88.6,385.1 -98.5,390.6 -108.4,385.1 -118.3,390.6 -128.2,385.1 
				-138.1,390.6 -148,385.1 -157.9,390.6 -167.8,385.1 -177.7,390.6 -187.6,385.1 -197.6,390.6 -206.9,385.4 -208,387.3 
				-197.6,393.2 -187.6,387.6 -177.7,393.2 -167.8,387.6 -157.9,393.2 -148,387.6 -138.1,393.2 -128.2,387.6 -118.3,393.2 
				-108.4,387.6 -98.5,393.2 -88.6,387.6 -78.7,393.2 -68.8,387.6 -58.9,393.2 -48.9,387.6 -39.6,392.9 -38.5,390.9 -48.9,385.1 			
				"/>
			<polygon points="-58.9,397.7 -68.8,392.2 -78.7,397.7 -88.6,392.2 -98.5,397.7 -108.4,392.2 -118.3,397.7 -128.2,392.2 
				-138.1,397.7 -148,392.2 -157.9,397.7 -167.8,392.2 -177.7,397.7 -187.6,392.2 -197.6,397.7 -206.9,392.5 -208,394.4 
				-197.6,400.2 -187.6,394.7 -177.7,400.2 -167.8,394.7 -157.9,400.2 -148,394.7 -138.1,400.2 -128.2,394.7 -118.3,400.2 
				-108.4,394.7 -98.5,400.2 -88.6,394.7 -78.7,400.2 -68.8,394.7 -58.9,400.2 -48.9,394.7 -39.6,399.9 -38.5,398 -48.9,392.2 			
				"/>
			<polygon points="-58.9,404.8 -68.8,399.2 -78.7,404.8 -88.6,399.2 -98.5,404.8 -108.4,399.2 -118.3,404.8 -128.2,399.2 
				-138.1,404.8 -148,399.2 -157.9,404.8 -167.8,399.2 -177.7,404.8 -187.6,399.2 -197.6,404.8 -206.9,399.5 -208,401.5 
				-197.6,407.3 -187.6,401.8 -177.7,407.3 -167.8,401.8 -157.9,407.3 -148,401.8 -138.1,407.3 -128.2,401.8 -118.3,407.3 
				-108.4,401.8 -98.5,407.3 -88.6,401.8 -78.7,407.3 -68.8,401.8 -58.9,407.3 -48.9,401.8 -39.6,407 -38.5,405.1 -48.9,399.2 			
				"/>
			<polygon points="-58.9,411.8 -68.8,406.3 -78.7,411.8 -88.6,406.3 -98.5,411.8 -108.4,406.3 -118.3,411.8 -128.2,406.3 
				-138.1,411.8 -148,406.3 -157.9,411.8 -167.8,406.3 -177.7,411.8 -187.6,406.3 -197.6,411.8 -206.9,406.6 -208,408.5 
				-197.6,414.3 -187.6,408.8 -177.7,414.3 -167.8,408.8 -157.9,414.3 -148,408.8 -138.1,414.3 -128.2,408.8 -118.3,414.3 
				-108.4,408.8 -98.5,414.3 -88.6,408.8 -78.7,414.3 -68.8,408.8 -58.9,414.3 -48.9,408.8 -39.6,414 -38.5,412.1 -48.9,406.3 			
				"/>
			<polygon points="-58.9,418.9 -68.8,413.3 -78.7,418.9 -88.6,413.3 -98.5,418.9 -108.4,413.3 -118.3,418.9 -128.2,413.3 
				-138.1,418.9 -148,413.3 -157.9,418.9 -167.8,413.3 -177.7,418.9 -187.6,413.3 -197.6,418.9 -206.9,413.6 -208,415.6 
				-197.6,421.4 -187.6,415.9 -177.7,421.4 -167.8,415.9 -157.9,421.4 -148,415.9 -138.1,421.4 -128.2,415.9 -118.3,421.4 
				-108.4,415.9 -98.5,421.4 -88.6,415.9 -78.7,421.4 -68.8,415.9 -58.9,421.4 -48.9,415.9 -39.6,421.1 -38.5,419.2 -48.9,413.3 			
				"/>
			<polygon points="-58.9,425.9 -68.8,420.4 -78.7,425.9 -88.6,420.4 -98.5,425.9 -108.4,420.4 -118.3,425.9 -128.2,420.4 
				-138.1,425.9 -148,420.4 -157.9,425.9 -167.8,420.4 -177.7,425.9 -187.6,420.4 -197.6,425.9 -206.9,420.7 -208,422.6 
				-197.6,428.5 -187.6,422.9 -177.7,428.5 -167.8,422.9 -157.9,428.5 -148,422.9 -138.1,428.5 -128.2,422.9 -118.3,428.5 
				-108.4,422.9 -98.5,428.5 -88.6,422.9 -78.7,428.5 -68.8,422.9 -58.9,428.5 -48.9,422.9 -39.6,428.2 -38.5,426.2 -48.9,420.4 			
				"/>
			<polygon points="-58.9,433 -68.8,427.4 -78.7,433 -88.6,427.4 -98.5,433 -108.4,427.4 -118.3,433 -128.2,427.4 -138.1,433 
				-148,427.4 -157.9,433 -167.8,427.4 -177.7,433 -187.6,427.4 -197.6,433 -206.9,427.7 -208,429.7 -197.6,435.5 -187.6,430 
				-177.7,435.5 -167.8,430 -157.9,435.5 -148,430 -138.1,435.5 -128.2,430 -118.3,435.5 -108.4,430 -98.5,435.5 -88.6,430 
				-78.7,435.5 -68.8,430 -58.9,435.5 -48.9,430 -39.6,435.2 -38.5,433.3 -48.9,427.4 			"/>
			<polygon points="-58.9,440 -68.8,434.5 -78.7,440 -88.6,434.5 -98.5,440 -108.4,434.5 -118.3,440 -128.2,434.5 -138.1,440 
				-148,434.5 -157.9,440 -167.8,434.5 -177.7,440 -187.6,434.5 -197.6,440 -206.9,434.8 -208,436.7 -197.6,442.6 -187.6,437 
				-177.7,442.6 -167.8,437 -157.9,442.6 -148,437 -138.1,442.6 -128.2,437 -118.3,442.6 -108.4,437 -98.5,442.6 -88.6,437 
				-78.7,442.6 -68.8,437 -58.9,442.6 -48.9,437 -39.6,442.3 -38.5,440.3 -48.9,434.5 			"/>
			<polygon points="-58.9,447.1 -68.8,441.5 -78.7,447.1 -88.6,441.5 -98.5,447.1 -108.4,441.5 -118.3,447.1 -128.2,441.5 
				-138.1,447.1 -148,441.5 -157.9,447.1 -167.8,441.5 -177.7,447.1 -187.6,441.5 -197.6,447.1 -206.9,441.8 -208,443.8 
				-197.6,449.6 -187.6,444.1 -177.7,449.6 -167.8,444.1 -157.9,449.6 -148,444.1 -138.1,449.6 -128.2,444.1 -118.3,449.6 
				-108.4,444.1 -98.5,449.6 -88.6,444.1 -78.7,449.6 -68.8,444.1 -58.9,449.6 -48.9,444.1 -39.6,449.3 -38.5,447.4 -48.9,441.5 			
				"/>
			<polygon points="-58.9,454.1 -68.8,448.6 -78.7,454.1 -88.6,448.6 -98.5,454.1 -108.4,448.6 -118.3,454.1 -128.2,448.6 
				-138.1,454.1 -148,448.6 -157.9,454.1 -167.8,448.6 -177.7,454.1 -187.6,448.6 -197.6,454.1 -206.9,448.9 -208,450.8 
				-197.6,456.7 -187.6,451.1 -177.7,456.7 -167.8,451.1 -157.9,456.7 -148,451.1 -138.1,456.7 -128.2,451.1 -118.3,456.7 
				-108.4,451.1 -98.5,456.7 -88.6,451.1 -78.7,456.7 -68.8,451.1 -58.9,456.7 -48.9,451.1 -39.6,456.4 -38.5,454.4 -48.9,448.6 			
				"/>
			<polygon points="-58.9,461.2 -68.8,455.6 -78.7,461.2 -88.6,455.6 -98.5,461.2 -108.4,455.6 -118.3,461.2 -128.2,455.6 
				-138.1,461.2 -148,455.6 -157.9,461.2 -167.8,455.6 -177.7,461.2 -187.6,455.6 -197.6,461.2 -206.9,456 -208,457.9 -197.6,463.7 
				-187.6,458.2 -177.7,463.7 -167.8,458.2 -157.9,463.7 -148,458.2 -138.1,463.7 -128.2,458.2 -118.3,463.7 -108.4,458.2 
				-98.5,463.7 -88.6,458.2 -78.7,463.7 -68.8,458.2 -58.9,463.7 -48.9,458.2 -39.6,463.4 -38.5,461.5 -48.9,455.6 			"/>
			<polygon points="-58.9,468.2 -68.8,462.7 -78.7,468.2 -88.6,462.7 -98.5,468.2 -108.4,462.7 -118.3,468.2 -128.2,462.7 
				-138.1,468.2 -148,462.7 -157.9,468.2 -167.8,462.7 -177.7,468.2 -187.6,462.7 -197.6,468.2 -206.9,463 -208,464.9 -197.6,470.8 
				-187.6,465.2 -177.7,470.8 -167.8,465.2 -157.9,470.8 -148,465.2 -138.1,470.8 -128.2,465.2 -118.3,470.8 -108.4,465.2 
				-98.5,470.8 -88.6,465.2 -78.7,470.8 -68.8,465.2 -58.9,470.8 -48.9,465.2 -39.6,470.5 -38.5,468.5 -48.9,462.7 			"/>
			<polygon points="-58.9,475.3 -68.8,469.8 -78.7,475.3 -88.6,469.8 -98.5,475.3 -108.4,469.8 -118.3,475.3 -128.2,469.8 
				-138.1,475.3 -148,469.8 -157.9,475.3 -167.8,469.8 -177.7,475.3 -187.6,469.8 -197.6,475.3 -206.9,470.1 -208,472 -197.6,477.8 
				-187.6,472.3 -177.7,477.8 -167.8,472.3 -157.9,477.8 -148,472.3 -138.1,477.8 -128.2,472.3 -118.3,477.8 -108.4,472.3 
				-98.5,477.8 -88.6,472.3 -78.7,477.8 -68.8,472.3 -58.9,477.8 -48.9,472.3 -39.6,477.5 -38.5,475.6 -48.9,469.8 			"/>
			<polygon points="-58.9,482.4 -68.8,476.8 -78.7,482.4 -88.6,476.8 -98.5,482.4 -108.4,476.8 -118.3,482.4 -128.2,476.8 
				-138.1,482.4 -148,476.8 -157.9,482.4 -167.8,476.8 -177.7,482.4 -187.6,476.8 -197.6,482.4 -206.9,477.1 -208,479 -197.6,484.9 
				-187.6,479.3 -177.7,484.9 -167.8,479.3 -157.9,484.9 -148,479.3 -138.1,484.9 -128.2,479.3 -118.3,484.9 -108.4,479.3 
				-98.5,484.9 -88.6,479.3 -78.7,484.9 -68.8,479.3 -58.9,484.9 -48.9,479.3 -39.6,484.6 -38.5,482.7 -48.9,476.8 			"/>
			<polygon points="-58.9,489.4 -68.8,483.9 -78.7,489.4 -88.6,483.9 -98.5,489.4 -108.4,483.9 -118.3,489.4 -128.2,483.9 
				-138.1,489.4 -148,483.9 -157.9,489.4 -167.8,483.9 -177.7,489.4 -187.6,483.9 -197.6,489.4 -206.9,484.2 -208,486.1 
				-197.6,491.9 -187.6,486.4 -177.7,491.9 -167.8,486.4 -157.9,491.9 -148,486.4 -138.1,491.9 -128.2,486.4 -118.3,491.9 
				-108.4,486.4 -98.5,491.9 -88.6,486.4 -78.7,491.9 -68.8,486.4 -58.9,491.9 -48.9,486.4 -39.6,491.6 -38.5,489.7 -48.9,483.9 			
				"/>
			<polygon points="-58.9,496.5 -68.8,490.9 -78.7,496.5 -88.6,490.9 -98.5,496.5 -108.4,490.9 -118.3,496.5 -128.2,490.9 
				-138.1,496.5 -148,490.9 -157.9,496.5 -167.8,490.9 -177.7,496.5 -187.6,490.9 -197.6,496.5 -206.9,491.2 -208,493.2 -197.6,499 
				-187.6,493.5 -177.7,499 -167.8,493.5 -157.9,499 -148,493.5 -138.1,499 -128.2,493.5 -118.3,499 -108.4,493.5 -98.5,499 
				-88.6,493.5 -78.7,499 -68.8,493.5 -58.9,499 -48.9,493.5 -39.6,498.7 -38.5,496.8 -48.9,490.9 			"/>
		</g>
	</g>
</g>
</svg>
