<?xml version="1.0" encoding="utf-8"?>
<!-- Generator: Adobe Illustrator 19.0.0, SVG Export Plug-In . SVG Version: 6.00 Build 0)  -->
<svg version="1.1" id="Capa_1" xmlns="http://www.w3.org/2000/svg" xmlns:xlink="http://www.w3.org/1999/xlink" x="0px" y="0px"
	 viewBox="-210 325.9 173.5 190" style="enable-background:new -210 325.9 173.5 190;" xml:space="preserve">
<g id="XMLID_100_">
	<path d="M-45.1,494.1h-156.3c-2,0-3.8-1-4.8-2.7s-1-3.8,0-5.5l78.1-135.4c1-1.7,2.8-2.8,4.8-2.8l0,0c2,0,3.8,1,4.8,2.7l78.2,135.4
		c1,1.7,1,3.8,0,5.5C-41.3,493-43.1,494.1-45.1,494.1z M-191.9,483.1h137.3l-68.7-118.9L-191.9,483.1z"/>
</g>
<path d="M-89.9,466.6h-1.9c0-1.4-0.8-2.6-1.8-3.2v-8.3v-32c0-7.3-5.9-13.2-13.1-13.2h-31.9c-7.2,0-13.1,5.9-13.1,13.1v32v8.3
	c-1.1,0.7-1.8,1.9-1.8,3.2h-2.8c-2.1,0-3.8,1.7-3.8,3.8v0.9c0,0.5,0.3,0.9,0.9,0.9c0.5,0,0.9-0.3,0.9-0.9v-0.9
	c0-1.2,0.9-2.1,2.1-2.1h3c1.2,0,2.1,0.9,2.1,2.1v0.3c-1.4,0.6-2.4,2-2.4,3.6v0.9c0,0.5,0.3,0.9,0.9,0.9c0.5,0,0.9-0.3,0.9-0.9v-0.9
	c0-1.2,0.9-2.1,2.1-2.1h3.1c1.2,0,2.1,0.9,2.1,2.1v0.9c0,0.5,0.3,0.9,0.9,0.9s0.9-0.3,0.9-0.9v-0.9c0-2-1.4-3.5-3.3-3.8l0,0
	c0-1.2,0.9-2.1,2.1-2.1h3c1.2,0,2.1,0.9,2.1,2.1v0.5c-1.1,0.7-1.9,1.9-1.9,3.3v0.9c0,0.5,0.3,0.9,0.9,0.9c0.5,0,0.9-0.3,0.9-0.9
	v-0.9c0-1.2,0.9-2.1,2.1-2.1h3.1c1.2,0,2.1,0.9,2.1,2.1v0.9c0,0.5,0.3,0.9,0.9,0.9c0.5,0,0.9-0.3,0.9-0.9v-0.9c0-2-1.4-3.5-3.3-3.8
	l0,0c0-1.2,0.9-2.1,2.1-2.1h3c1.2,0,2.1,0.9,2.1,2.1v0.5c-1.1,0.7-1.9,1.9-1.9,3.3v0.9c0,0.5,0.3,0.9,0.9,0.9s0.9-0.3,0.9-0.9v-0.9
	c0-1.2,0.9-2.1,2.1-2.1h3.1c1.2,0,2.1,0.9,2.1,2.1v0.9c0,0.5,0.3,0.9,0.9,0.9s0.9-0.3,0.9-0.9v-0.9c0-2-1.4-3.5-3.3-3.8l0,0
	c0-1.2,0.9-2.1,2.1-2.1h3c1.2,0,2.1,0.9,2.1,2.1v0.5c-1.1,0.7-1.9,1.9-1.9,3.3v0.9c0,0.5,0.3,0.9,0.9,0.9s0.9-0.3,0.9-0.9v-0.9
	c0-1.2,0.9-2.1,2.1-2.1h3c1.2,0,2.1,0.9,2.1,2.1v0.9c0,0.5,0.3,0.9,0.9,0.9s0.9-0.3,0.9-0.9v-0.9c0-2-1.4-3.5-3.3-3.8l0,0
	c0-1.2,0.9-2.1,2.1-2.1h3c1.2,0,2.1,0.9,2.1,2.1v0.5c-1.1,0.7-1.9,1.9-1.9,3.3v0.9c0,0.5,0.3,0.9,0.9,0.9s0.9-0.3,0.9-0.9v-0.9
	c0-1.2,0.9-2.1,2.1-2.1h3c1.2,0,2.1,0.9,2.1,2.1v0.9c0,0.5,0.3,0.9,0.9,0.9s0.9-0.3,0.9-0.9v-0.9c0-2-1.4-3.5-3.3-3.8l0,0
	c0-1.2,0.9-2.1,2.1-2.1h3c1.2,0,2.1,0.9,2.1,2.1v0.9c0,0.5,0.3,0.9,0.9,0.9s0.9-0.3,0.9-0.9v-0.9C-86,468.3-87.8,466.6-89.9,466.6z
	 M-98,437.1c-4.7-3.7-8.6-19.6-8.7-19.7c0-0.1-0.1-0.2-0.1-0.3c0.9-0.9,1.6-1.7,2.1-2.6c1.1,5.5,3.9,17.5,8,22.6H-98z M-100.7,438.8
	h0.6c-0.8,1-1.8,2.7-2.9,4.9H-142c-1.3-2.3-2.6-3.9-3.4-4.9h0.2c0.5,0,0.9-0.3,0.9-0.9c0-0.4-0.3-0.7-0.6-0.8c4.5-4.6,8-14.8,9-18.2
	c3.4,2,8.1,3.1,13.4,3.1c5.9,0,11.1-1.4,14.5-3.7c0.6,2.5,3.7,13.9,7.8,18.8h-0.3c-0.5,0-0.9,0.3-0.9,0.9
	C-101.4,438.5-101.1,438.8-100.7,438.8z M-122.6,420.3c-8.6,0-15.9-3.5-16.9-7.8c2,1.2,9.1,4.8,17.7,4.8c5,0,10.6-1.3,16-4.9
	C-106.5,416.8-114,420.3-122.6,420.3z M-137.6,411.6h29.9C-120.1,419.3-133.2,413.9-137.6,411.6z M-137.5,418
	c-0.9,2.9-5.1,15.8-10.1,19.2h-1.2c4.2-5.2,7-17.6,8.1-23C-140.2,415.6-139,416.8-137.5,418z M-150,440.4c1.3,2,3.3,6.1,5.4,13.8
	h-5.4C-150,454.2-150,440.4-150,440.4z M-142.9,454.2L-142.9,454.2c-2.4-8.9-4.9-13.4-6.2-15.4h1.4c1,1.1,5.3,6,8.4,15.4H-142.9z
	 M-97.9,438.8h1.5c-1.4,2-3.8,6.5-6.2,15.4l0,0h-2.4C-102.5,444.8-98.9,440-97.9,438.8z M-95.3,440.2v14h-5.6
	C-98.7,446.2-96.6,442.1-95.3,440.2z M-95.3,423.1v13.2c-4.5-5.2-7.5-20.6-8.2-24.1C-98.7,413.4-95.3,417.9-95.3,423.1z
	 M-142.1,412.2c-0.7,3.6-3.6,18.4-7.9,23.7v-12.9C-150,418-146.7,413.6-142.1,412.2z M-147.8,470.5h-1.6c0-1.6-0.9-3-2.4-3.5v-0.3
	c0-1.2,0.9-2.1,2.1-2.1h3c1.2,0,2.1,0.9,2.1,2.1l0,0C-146.4,467-147.8,468.6-147.8,470.5z M-135.1,470.5h-1.9c-0.1,0-0.2,0-0.3,0
	l0,0c0-1.4-0.8-2.6-1.9-3.3v-0.5c0-1.2,0.9-2.1,2.1-2.1h3c1.2,0,2.1,0.9,2.1,2.1l0,0C-133.6,467-135.1,468.6-135.1,470.5z
	 M-122.3,470.5h-1.9c-0.1,0-0.2,0-0.3,0l0,0c0-1.4-0.8-2.6-1.9-3.3v-0.5c0-1.2,0.9-2.1,2.1-2.1h3c1.2,0,2.1,0.9,2.1,2.1l0,0
	C-120.8,467-122.3,468.6-122.3,470.5z M-109.5,470.5h-1.9c-0.1,0-0.2,0-0.3,0l0,0c0-1.4-0.8-2.6-1.9-3.3v-0.5c0-1.2,0.9-2.1,2.1-2.1
	h3c1.2,0,2.1,0.9,2.1,2.1l0,0C-108.1,467-109.5,468.6-109.5,470.5z M-104.5,466.6c0-2.1-1.7-3.8-3.8-3.8h-3c-2.1,0-3.8,1.7-3.8,3.8
	l0,0c-0.1,0-0.2,0-0.3,0h-1.9c0-2.1-1.7-3.8-3.8-3.8h-3c-2.1,0-3.8,1.7-3.8,3.8l0,0c-0.1,0-0.2,0-0.3,0h-1.9c0-2.1-1.7-3.8-3.8-3.8
	h-3c-2.1,0-3.8,1.7-3.8,3.8l0,0c-0.1,0-0.2,0-0.3,0h-1.9c0-2.1-1.7-3.8-3.8-3.8h-3c-0.1,0-0.3,0-0.3,0v-7h54.7v7c-0.1,0-0.3,0-0.3,0
	h-3c-2.1,0-3.8,1.7-3.8,3.8l0,0c-0.1,0-0.2,0-0.3,0H-104.5z M-96.8,470.5h-1.9c-0.1,0-0.2,0-0.3,0l0,0c0-1.4-0.8-2.6-1.9-3.3v-0.5
	c0-1.2,0.9-2.1,2.1-2.1h3c1.2,0,2.1,0.9,2.1,2.1l0,0C-95.3,467-96.8,468.6-96.8,470.5z"/>
</svg>
