<?xml version="1.0" encoding="utf-8"?>
<!-- Generator: Adobe Illustrator 19.0.0, SVG Export Plug-In . SVG Version: 6.00 Build 0)  -->
<svg version="1.1" id="Capa_1" xmlns="http://www.w3.org/2000/svg" xmlns:xlink="http://www.w3.org/1999/xlink" x="0px" y="0px"
	 viewBox="-210 325.9 173.5 190" style="enable-background:new -210 325.9 173.5 190;" xml:space="preserve">
<g id="XMLID_100_">
	<path d="M-45.1,494.1h-156.3c-2,0-3.8-1-4.8-2.7s-1-3.8,0-5.5l78.1-135.4c1-1.7,2.8-2.8,4.8-2.8l0,0c2,0,3.8,1,4.8,2.7l78.2,135.4
		c1,1.7,1,3.8,0,5.5C-41.3,493-43.1,494.1-45.1,494.1z M-191.9,483.1h137.3l-68.7-118.9L-191.9,483.1z"/>
</g>
<g>
	<path d="M-123.3,432.6c-4.4,0-7.9,3.5-7.9,7.9c0,4.4,3.5,7.9,7.9,7.9c4.4,0,7.9-3.5,7.9-7.9C-115.3,436.2-118.9,432.6-123.3,432.6
		L-123.3,432.6z M-102.1,424.7h-6.3c-0.9,0-1.8-0.7-2.1-1.5l-1.6-4.9c-0.3-0.8-1.2-1.5-2.1-1.5h-18c-0.9,0-1.8,0.7-2.1,1.5l-1.6,4.9
		c-0.3,0.8-1.2,1.5-2.1,1.5h-6.3c-2.9,0-5.3,2.4-5.3,5.3v23.8c0,2.9,2.4,5.3,5.3,5.3h42.2c2.9,0,5.3-2.4,5.3-5.3V430
		C-96.9,427.1-99.2,424.7-102.1,424.7L-102.1,424.7z M-123.3,453.7c-7.3,0-13.2-5.9-13.2-13.2c0-7.3,5.9-13.2,13.2-13.2
		c7.3,0,13.2,5.9,13.2,13.2C-110.1,447.8-116,453.7-123.3,453.7L-123.3,453.7z M-104,433.7c-1,0-1.8-0.8-1.8-1.8
		c0-1,0.8-1.8,1.8-1.8c1,0,1.8,0.8,1.8,1.8C-102.1,432.8-103,433.7-104,433.7L-104,433.7z M-104,433.7"/>
</g>
</svg>
