<?xml version="1.0" encoding="utf-8"?>
<!-- Generator: Adobe Illustrator 19.0.0, SVG Export Plug-In . SVG Version: 6.00 Build 0)  -->
<svg version="1.1" id="Capa_1" xmlns="http://www.w3.org/2000/svg" xmlns:xlink="http://www.w3.org/1999/xlink" x="0px" y="0px"
	 viewBox="-210 325.9 173.5 190" style="enable-background:new -210 325.9 173.5 190;" xml:space="preserve">
<g id="XMLID_100_">
	<path d="M-45.1,494.1h-156.3c-2,0-3.8-1-4.8-2.7s-1-3.8,0-5.5l78.1-135.4c1-1.7,2.8-2.8,4.8-2.8l0,0c2,0,3.8,1,4.8,2.7l78.2,135.4
		c1,1.7,1,3.8,0,5.5C-41.3,493-43.1,494.1-45.1,494.1z M-191.9,483.1h137.3l-68.7-118.9L-191.9,483.1z"/>
</g>
<g>
	<path d="M-85.8,434.8c-1.6-6.1-10.3-7.6-16.6-7.8c0.1-10.3-2.5-16.6-7.3-17.9c-4.9-1.3-11.1,3-16.8,11.6c-5.9-3.4-11.1-5-14.9-4.8
		c-1-1.4-2.7-2.3-4.5-2.3c-3.1,0-5.6,2.5-5.6,5.6c0,1.8,0.9,3.5,2.3,4.5c-0.3,3.8,1.4,9,4.8,14.9c-8.6,5.7-13,11.9-11.6,16.8
		c1.2,4.6,7.1,7.1,16.6,7.3c0,0.8,0,1.6,0,2.3c-2.2,0.8-3.7,2.8-3.7,5.3c0,3.1,2.5,5.6,5.6,5.6c0.3,0,0.7,0,1-0.1
		c1.4,2.4,3.2,3.9,5.4,4.5c6.4,1.7,13.2-6.2,16.8-11.7c5.9,3.3,15.6,7.3,20.3,2.5c4.7-4.7,0.7-14.5-2.5-20.4c1.6-1,3-2.1,4.2-3.1
		c0.7,0.3,1.4,0.4,2.1,0.4c3.1,0,5.6-2.5,5.6-5.6c0-1.3-0.4-2.5-1.2-3.5C-85.5,437.5-85.4,436.1-85.8,434.8z M-88.5,435.5
		c0.1,0.5,0.2,1.1,0.1,1.6c-0.6-0.2-1.2-0.3-1.8-0.3c-3.1,0-5.6,2.5-5.6,5.6c0,1.3,0.4,2.5,1.2,3.4c-1,0.8-2.1,1.6-3.4,2.4
		c-1.7-2.7-3.6-5.4-5.7-8c0.7-3.7,1.1-7.2,1.2-10.5C-94.6,430-89.4,432.2-88.5,435.5z M-115.3,464.8c-2-1.2-4-2.6-5.9-4.1
		c1.6-0.3,3.2-0.7,4.8-1.2c1.5-0.4,3-0.9,4.6-1.4C-112.9,460.5-114.1,462.7-115.3,464.8z M-140.3,418.7c3.1,0.1,7.5,1.6,12.4,4.4
		c-1.7,2.9-3.3,6.1-4.6,9.4c-3.4,1.3-6.5,2.9-9.4,4.6c-2.8-4.9-4.3-9.3-4.4-12.4C-143,425.1-140,422.2-140.3,418.7z M-119.6,428.7
		c-1.6,0.3-3.2,0.7-4.8,1.1c-1.5,0.4-3.1,0.9-4.6,1.4c1-2.3,2.2-4.6,3.4-6.7C-123.6,425.8-121.6,427.1-119.6,428.7z M-106.1,437.5
		c-1.1-1.3-2.3-2.5-3.5-3.7c-1.2-1.2-2.4-2.3-3.6-3.4c2.7-0.4,5.4-0.6,7.9-0.6C-105.4,432.2-105.7,434.8-106.1,437.5z M-117.2,456.9
		c-2.3,0.6-4.6,1.1-6.9,1.6c-1.8-1.5-3.6-3.2-5.3-4.8c-1.7-1.7-3.4-3.6-5-5.4c0.5-2,1-4.2,1.7-6.7c0.6-2.3,1.3-4.5,2.2-6.7
		c2.2-0.8,4.5-1.6,6.7-2.2c2.3-0.6,4.6-1.1,6.9-1.6c1.8,1.5,3.6,3.2,5.3,4.8c1.7,1.7,3.3,3.5,4.8,5.3c-0.4,2.3-1,4.6-1.6,6.9
		c-0.6,2.2-1.3,4.5-2.2,6.7C-112.7,455.5-114.9,456.3-117.2,456.9z M-133.9,436.1c-0.5,1.5-1,3-1.4,4.6c-0.5,1.7-0.9,3.3-1.2,4.7
		c-1.5-1.9-2.9-3.9-4.1-5.8C-138.5,438.3-136.3,437.2-133.9,436.1z M-135.1,451.6c1.2,1.4,2.5,2.7,3.8,4c1.2,1.2,2.4,2.4,3.7,3.5
		c-3.1,0.5-6.1,0.8-8.8,0.8C-136.2,457.5-135.8,454.8-135.1,451.6z M-105.6,448.7c0.4-1.6,0.8-3.2,1.2-4.8c1.5,2,2.8,3.9,4.1,5.9
		c-2.1,1.2-4.3,2.4-6.6,3.4C-106.4,451.7-106,450.2-105.6,448.7z M-117,414c1.7-1.4,4.3-2.9,6.5-2.3c3.4,0.9,5.3,6.5,5.2,15.2
		c-3.4,0.1-7,0.4-10.8,1c-2.7-2.2-5.4-4.1-8.1-5.8C-121.8,418.7-119.3,415.9-117,414z M-145.9,416.4c1.5,0,2.8,1.2,2.8,2.8
		c0,1.5-1.3,2.8-2.8,2.8c-1.6,0-2.8-1.3-2.8-2.8C-148.7,417.7-147.5,416.4-145.9,416.4z M-153.4,454.7c-0.6-2.2,0.9-4.8,2.3-6.5
		c1.9-2.4,4.6-4.8,8.1-7.1c1.6,2.6,3.5,5.2,5.6,7.8c-1,4.3-1.6,8-1.9,11.1C-147.3,459.8-152.5,457.9-153.4,454.7z M-140.3,470.3
		c0-1.6,1.2-2.8,2.8-2.8c1.5,0,2.8,1.3,2.8,2.8c0,1.6-1.3,2.8-2.8,2.8C-139.1,473.1-140.3,471.8-140.3,470.3z M-123.9,475.3
		c-1.8,1.4-4.3,2.9-6.6,2.3c-1.4-0.4-2.5-1.4-3.5-3c1.3-1,2.1-2.6,2.1-4.3c0-2.8-2-5.1-4.7-5.5c0-0.6,0-1.3,0-2.1
		c3.7-0.1,7.6-0.5,11.8-1.3c2.7,2.2,5.4,4.1,8.1,5.7C-119.1,470.7-121.5,473.5-123.9,475.3z M-96,469.1c-2.5,2.5-9.1,1.4-16.9-2.9
		c1.7-2.9,3.3-6.1,4.6-9.4c3.2-1.3,6.4-2.9,9.3-4.6C-94.6,460-93.4,466.6-96,469.1z M-90.2,445.2c-1.5,0-2.8-1.2-2.8-2.8
		c0-1.5,1.3-2.8,2.8-2.8c1.5,0,2.8,1.3,2.8,2.8C-87.4,444-88.7,445.2-90.2,445.2z"/>
	<path d="M-120.5,437.7c-3.9,0-7,3.1-7,7c0,3.9,3.1,7,7,7c3.9,0,7-3.1,7-7C-113.5,440.8-116.6,437.7-120.5,437.7z M-120.5,448.9
		c-2.3,0-4.2-1.9-4.2-4.2c0-2.3,1.9-4.2,4.2-4.2c2.3,0,4.2,1.9,4.2,4.2C-116.3,447-118.1,448.9-120.5,448.9z"/>
</g>
</svg>
