<?xml version="1.0" encoding="utf-8"?>
<!-- Generator: Adobe Illustrator 19.0.0, SVG Export Plug-In . SVG Version: 6.00 Build 0)  -->
<svg version="1.1" id="Capa_1" xmlns="http://www.w3.org/2000/svg" xmlns:xlink="http://www.w3.org/1999/xlink" x="0px" y="0px"
	 viewBox="-210 325.9 173.5 190" style="enable-background:new -210 325.9 173.5 190;" xml:space="preserve">
<g id="XMLID_100_">
	<path d="M-45.1,494.1h-156.3c-2,0-3.8-1-4.8-2.7s-1-3.8,0-5.5l78.1-135.4c1-1.7,2.8-2.8,4.8-2.8l0,0c2,0,3.8,1,4.8,2.7l78.2,135.4
		c1,1.7,1,3.8,0,5.5C-41.3,493-43.1,494.1-45.1,494.1z M-191.9,483.1h137.3l-68.7-118.9L-191.9,483.1z"/>
</g>
<path d="M-92.4,453.9c-3.4,0-5.1,1.9-6.5,3.5c-1.4,1.5-2.1,2.2-3.8,2.2s-2.4-0.7-3.8-2.2c-1.3-1.5-3.1-3.5-6.5-3.5
	c-3.4,0-5.1,1.9-6.5,3.5c-1.4,1.5-2.1,2.2-3.8,2.2s-2.4-0.7-3.8-2.2s-3.1-3.5-6.5-3.5s-5.1,1.9-6.5,3.5c-1.4,1.5-2.1,2.2-3.8,2.2
	s-2.4-0.7-3.8-2.2s-3.1-3.5-6.5-3.5c-1,0-1.9,0.8-1.9,1.9c0,1,0.8,1.9,1.9,1.9c1.7,0,2.4,0.7,3.8,2.2c1.3,1.5,3.1,3.5,6.5,3.5
	c3.4,0,5.1-1.9,6.5-3.5c1.4-1.5,2.1-2.2,3.8-2.2s2.4,0.7,3.8,2.2c1.3,1.5,3.1,3.5,6.5,3.5s5.1-1.9,6.5-3.5c1.4-1.5,2.1-2.2,3.8-2.2
	s2.4,0.7,3.8,2.2c1.3,1.5,3.1,3.5,6.5,3.5s5.1-1.9,6.5-3.5c1.4-1.5,2.1-2.2,3.8-2.2c1,0,1.9-0.8,1.9-1.9
	C-90.5,454.7-91.3,453.9-92.4,453.9L-92.4,453.9z"/>
<path d="M-92.4,466.9c-3.4,0-5.1,1.9-6.5,3.5c-1.4,1.5-2.1,2.2-3.8,2.2s-2.4-0.7-3.8-2.2c-1.3-1.5-3.1-3.5-6.5-3.5
	c-3.4,0-5.1,1.9-6.5,3.5c-1.4,1.5-2.1,2.2-3.8,2.2c-1.7,0-2.4-0.7-3.8-2.2c-1.3-1.5-3.1-3.5-6.5-3.5s-5.1,1.9-6.5,3.5
	c-1.4,1.5-2.1,2.2-3.8,2.2s-2.5-0.7-3.8-2.2s-3.1-3.5-6.5-3.5c-1,0-1.9,0.8-1.9,1.9c0,1,0.8,1.9,1.9,1.9c1.7,0,2.4,0.7,3.8,2.2
	c1.3,1.5,3.1,3.5,6.5,3.5s5.1-1.9,6.5-3.5c1.4-1.5,2.1-2.2,3.8-2.2s2.4,0.7,3.8,2.2c1.3,1.5,3.1,3.5,6.5,3.5c3.4,0,5.1-1.9,6.5-3.5
	c1.4-1.5,2.1-2.2,3.8-2.2s2.4,0.7,3.8,2.2c1.3,1.5,3.1,3.5,6.5,3.5s5.1-1.9,6.5-3.5c1.4-1.5,2.1-2.2,3.8-2.2c1,0,1.9-0.8,1.9-1.9
	C-90.5,467.8-91.3,466.9-92.4,466.9L-92.4,466.9z"/>
<path d="M-132.4,407.2c1.2,0,2.4,0.7,2.9,1.8c0.5,0.9,1.6,1.3,2.5,0.9s1.3-1.6,0.9-2.5c-1.7-3.5-5.9-4.9-9.3-3.2
	c-2.4,1.2-3.9,3.6-3.9,6.3v36.7c0,1,0.8,1.9,1.9,1.9c1,0,1.9-0.8,1.9-1.9v-4.3h20.4v4.3c0,1,0.8,1.9,1.9,1.9c1,0,1.9-0.8,1.9-1.9
	v-36.8c0-1.8,1.5-3.2,3.3-3.2c1.2,0,2.4,0.7,2.9,1.8c0.5,0.9,1.6,1.3,2.5,0.9c0.9-0.5,1.3-1.6,0.9-2.5c-1.7-3.5-5.9-4.9-9.3-3.2
	c-2.4,1.2-3.9,3.6-3.9,6.2v6.9h-20.4v-6.9C-135.7,408.6-134.2,407.2-132.4,407.2z M-135.7,439.1V432h20.4v7.2H-135.7z M-115.2,421.1
	v7.2h-20.4v-7.2H-115.2z"/>
</svg>
