<?xml version="1.0" encoding="utf-8"?>
<!-- Generator: Adobe Illustrator 19.0.0, SVG Export Plug-In . SVG Version: 6.00 Build 0)  -->
<svg version="1.1" id="Capa_1" xmlns="http://www.w3.org/2000/svg" xmlns:xlink="http://www.w3.org/1999/xlink" x="0px" y="0px"
	 viewBox="-210 325.9 173.5 190" style="enable-background:new -210 325.9 173.5 190;" xml:space="preserve">
<g id="XMLID_100_">
	<path d="M-45.1,494.1h-156.3c-2,0-3.8-1-4.8-2.7s-1-3.8,0-5.5l78.1-135.4c1-1.7,2.8-2.8,4.8-2.8l0,0c2,0,3.8,1,4.8,2.7l78.2,135.4
		c1,1.7,1,3.8,0,5.5C-41.3,493-43.1,494.1-45.1,494.1z M-191.9,483.1h137.3l-68.7-118.9L-191.9,483.1z"/>
</g>
<text transform="matrix(1 0 0 1 87.6401 746.8352)" style="font-family:'MyriadPro-Regular'; font-size:12px;">d-11424</text>
<g>
	<g>
		<path d="M-128,394.6c-0.2-2.2,1.6-4.3,3.8-4.6c1-0.1,2.1-0.1,3.1,0.3c1.6,0.7,2.8,2.5,2.6,4.3c0.5,0.1,0.9,0.1,1.4,0.2
			c1.7,0.4,3,1.9,3.3,3.6c0.2,1.2,0.1,2.5-0.6,3.6c-0.8,1.4-2.5,2.3-4.1,2.2c0,1.8,0,3.7,0,5.5c0.6,0.3,1.2,0.4,1.8,0.7
			c4.4,1.9,7.9,5.8,9.2,10.4c1.9,0,3.7,0,5.6,0c0-1.2,0.4-2.4,1.1-3.2c0.9-1,2.2-1.6,3.6-1.5c1.3-0.1,2.7,0.4,3.6,1.4
			c0.9,0.9,1.3,2.1,1.3,3.4c2.2-0.1,4.3,1.5,4.7,3.7c0.1,1.2,0.2,2.4-0.4,3.5c-0.8,1.5-2.5,2.5-4.2,2.4c0,0.9-0.2,1.8-0.6,2.5
			c-0.7,1.1-1.8,1.9-3.1,2.1c-1.3,0.2-2.7,0.1-3.8-0.7c-1.3-0.9-2.1-2.4-2-4c-1.9,0-3.7,0-5.6,0c-1.5,5.2-5.8,9.5-11,11
			c-0.1,1.9,0,3.7,0,5.6c0,9.5,0,19,0,28.4c1.4,0,2.8-0.1,4.2,0c0.9,2.9,1.8,5.7,2.7,8.6c0.1,0.3,0.2,0.6,0.2,0.9
			c-7.9,0-15.8,0-23.7,0c0-0.4,0.1-0.7,0.2-1c0.9-2.8,1.8-5.7,2.7-8.5c1.4,0,2.7,0,4.1,0c0-0.1,0-0.3,0-0.4c0-11.2,0-22.4,0-33.7
			c-0.6-0.3-1.3-0.5-1.9-0.8c-4.2-1.9-7.6-5.6-9-10c-0.1-0.1-0.1-0.4-0.3-0.4c-1.8,0-3.6,0-5.4,0c0.1,1.6-0.7,3.2-2.1,4
			c-0.9,0.6-2,0.8-3,0.7c-1.8,0-3.5-1.1-4.1-2.8c-0.3-0.6-0.3-1.3-0.4-2c-1.5,0.1-3.1-0.7-3.9-2c-0.7-0.9-0.8-2-0.8-3.1
			c-0.1-2.4,2.2-4.6,4.7-4.4c0.1-0.9,0.2-1.8,0.7-2.6c0.7-1.2,1.9-2,3.3-2.1c1-0.1,2.1-0.1,3,0.4c1.6,0.7,2.6,2.5,2.6,4.3
			c0.3,0.1,0.7,0,1,0c1.5,0,3,0,4.5,0c0.8-2.4,2.1-4.7,3.8-6.6c2-2.1,4.5-3.6,7.2-4.5c0-1.7,0-3.4,0-5c0-0.2,0-0.3-0.1-0.5
			c-2.2,0.2-4.2-1.5-4.6-3.6c-0.2-1.2-0.2-2.5,0.5-3.6c0.7-1.2,1.9-2.1,3.3-2.3C-128.6,394.7-128.3,394.6-128,394.6z M-124.6,418.4
			c-2.2,0.4-4.1,1.9-5.1,3.8c-0.9,1.7-1,3.7-0.4,5.5c0.6,2,2.2,3.7,4.2,4.4c1.2,0.5,2.5,0.7,3.8,0.4c2.4-0.3,4.5-2,5.5-4.2
			c0.8-1.7,0.9-3.8,0.2-5.6c-0.5-1.4-1.5-2.6-2.7-3.4C-120.8,418.5-122.7,418-124.6,418.4z"/>
	</g>
</g>
</svg>
