<?xml version="1.0" encoding="utf-8"?>
<!-- Generator: Adobe Illustrator 19.0.0, SVG Export Plug-In . SVG Version: 6.00 Build 0)  -->
<svg version="1.1" id="Capa_1" xmlns="http://www.w3.org/2000/svg" xmlns:xlink="http://www.w3.org/1999/xlink" x="0px" y="0px"
	 viewBox="-210 325.9 173.5 190" style="enable-background:new -210 325.9 173.5 190;" xml:space="preserve">
<g id="XMLID_100_">
	<path d="M-45.1,494.1h-156.3c-2,0-3.8-1-4.8-2.7s-1-3.8,0-5.5l78.1-135.4c1-1.7,2.8-2.8,4.8-2.8l0,0c2,0,3.8,1,4.8,2.7l78.2,135.4
		c1,1.7,1,3.8,0,5.5C-41.3,493-43.1,494.1-45.1,494.1z M-191.9,483.1h137.3l-68.7-118.9L-191.9,483.1z"/>
</g>
<path d="M-98.6,417L-98.6,417C-98.6,417-98.6,417-98.6,417C-98.6,417-98.6,417-98.6,417c-6.7-6.4-15.4-9.9-24.7-9.9
	c-4.1,0-8.1,0.7-11.9,2l0,0l0,0h0c0,0,0,0,0,0c-14.3,5-23.9,18.6-23.9,33.7c0,2.7,0.3,5.4,0.9,8.1c0,0,0,0,0,0
	c0.9,3.9,2.4,7.6,4.6,11c0.4,0.6,0.7,1.1,1.1,1.6c5.7,8,14.3,13.3,24,14.7c1.7,0.2,3.4,0.4,5.1,0.4c6.5,0,12.9-1.8,18.4-5.1
	c0,0,0,0,0,0c10.9-6.5,17.4-18,17.4-30.7C-87.5,433-91.4,423.8-98.6,417L-98.6,417z M-126.4,475.4c0-0.4,0.1-0.9,0.1-1.4
	c0-9.4-7.7-17.1-17.1-17.1c-2.9,0-5.7,0.7-8.2,2.1c-1.3-2.2-2.3-4.6-3-7c0,0,0.1,0,0.1,0c0.6-0.1,1.1-0.3,1.7-0.4
	c0.1,0,0.2-0.1,0.3-0.1c0.5-0.2,1-0.4,1.5-0.6c0.1,0,0.1-0.1,0.2-0.1c0.5-0.2,1-0.5,1.4-0.7c0,0,0,0,0,0c0.4-0.2,0.9-0.5,1.2-0.7
	c0,0,0.1-0.1,0.1-0.1c0.4-0.2,0.7-0.5,1-0.7c0,0,0.1-0.1,0.1-0.1c0.3-0.2,0.5-0.4,0.7-0.6c0,0,0.1-0.1,0.1-0.1
	c0.2-0.2,0.3-0.3,0.5-0.4c0,0,0,0,0,0c0.1-0.1,0.2-0.2,0.2-0.2c0.2-0.2,5.1-5.2,5.1-12c0-5,4.8-6.2,5-6.3c2.6-0.6,7.4-3.7,7.4-10.8
	c0-0.4,0-0.7-0.1-1.1c0-0.1,0-0.2,0-0.3c0-0.2-0.1-0.5-0.1-0.7c0-0.1-0.1-0.2-0.1-0.4c-0.1-0.2-0.1-0.4-0.2-0.6
	c0-0.1-0.1-0.2-0.1-0.3c-0.1-0.2-0.1-0.4-0.2-0.5c0-0.1-0.1-0.2-0.1-0.3c-0.1-0.2-0.2-0.3-0.3-0.5c0-0.1-0.1-0.2-0.1-0.2
	c-0.1-0.2-0.3-0.4-0.4-0.6c0,0,0-0.1-0.1-0.1c-0.2-0.2-0.3-0.4-0.5-0.6c-0.1-0.1-0.1-0.1-0.2-0.2c-0.1-0.1-0.3-0.3-0.4-0.4
	c0,0,0,0-0.1-0.1c2.5-0.6,5.1-0.9,7.7-0.9c7.4,0,14.5,2.5,20.3,7c0,0,0,0,0,0c0,0-0.1,0-0.1,0c-0.3,0.1-0.5,0.2-0.8,0.3
	c-0.1,0-0.2,0.1-0.3,0.1c-0.2,0.1-0.5,0.2-0.7,0.3c-0.1,0-0.2,0.1-0.3,0.1c-0.3,0.2-0.6,0.3-1,0.5c0,0-0.1,0.1-0.1,0.1
	c-0.3,0.2-0.5,0.3-0.8,0.5c-0.1,0.1-0.2,0.1-0.3,0.2c-0.2,0.2-0.4,0.3-0.7,0.5c-0.1,0.1-0.2,0.2-0.3,0.2c-0.3,0.3-0.6,0.6-0.9,0.9
	c0,0-0.1,0.1-0.1,0.1c-0.2,0.3-0.5,0.6-0.7,0.9c-0.1,0.1-0.2,0.2-0.2,0.3c-0.2,0.3-0.3,0.5-0.5,0.8c-0.1,0.1-0.1,0.2-0.2,0.4
	c-0.2,0.4-0.4,0.8-0.6,1.3c0,0,0,0.1,0,0.1c-0.2,0.4-0.3,0.9-0.4,1.4c0,0.2-0.1,0.3-0.1,0.5c-0.1,0.4-0.1,0.8-0.2,1.2
	c0,0.2,0,0.3-0.1,0.5c-0.1,0.6-0.1,1.2-0.1,1.8c0,10.5-7,10.9-7.8,10.9c-2.7,0-7.8,1.6-7.8,7.8c0,6.1,5.1,7.8,7.8,7.8
	c0.1,0,7.8,0.1,7.8,4.7c0,0.7,0,1.3,0.1,1.9c0,0.2,0,0.4,0.1,0.5c0,0.4,0.1,0.8,0.1,1.2c0,0.2,0.1,0.4,0.1,0.5
	c0.1,0.4,0.2,0.8,0.2,1.1c0,0.1,0.1,0.2,0.1,0.3c0.1,0.4,0.3,0.9,0.4,1.3c0,0.1,0.1,0.2,0.1,0.3c0.1,0.3,0.3,0.6,0.4,0.8
	c0.1,0.1,0.1,0.2,0.2,0.3c0.1,0.2,0.3,0.4,0.4,0.6c0.1,0.1,0.1,0.2,0.2,0.3c0.2,0.2,0.4,0.5,0.5,0.7c0,0,0,0,0,0.1
	c0.2,0.2,0.4,0.4,0.6,0.6c0,0,0,0,0.1,0.1C-114.2,474.8-120.3,476-126.4,475.4z"/>
</svg>
