<?xml version="1.0" encoding="utf-8"?>
<!-- Generator: Adobe Illustrator 19.0.0, SVG Export Plug-In . SVG Version: 6.00 Build 0)  -->
<svg version="1.1" id="Capa_1" xmlns="http://www.w3.org/2000/svg" xmlns:xlink="http://www.w3.org/1999/xlink" x="0px" y="0px"
	 viewBox="-210 325.9 173.5 190" style="enable-background:new -210 325.9 173.5 190;" xml:space="preserve">
<g id="XMLID_100_">
	<path d="M-45.1,494.1h-156.3c-2,0-3.8-1-4.8-2.7s-1-3.8,0-5.5l78.1-135.4c1-1.7,2.8-2.8,4.8-2.8l0,0c2,0,3.8,1,4.8,2.7l78.2,135.4
		c1,1.7,1,3.8,0,5.5C-41.3,493-43.1,494.1-45.1,494.1z M-191.9,483.1h137.3l-68.7-118.9L-191.9,483.1z"/>
</g>
<g>
	<path d="M-148.5,417c1.6-2.6,3.8-4.6,6.7-6.2c3.7-2.1,8.6-3.3,14.5-3.7c7.3-0.5,13.5,0.8,18.7,4.1c4.6,2.9,7.7,6.9,9.2,11.9
		c0.2,0.6,0.4,1.2,0.5,1.8c-0.4,0.4-0.8,0.8-1.2,1.4c0,0,0,0.1,0,0.1c-0.6,0.9-1.1,1.9-1.3,3c0,0,0,0.1,0,0.1
		c-0.1,0.4-0.5,3.1-1.2,8.1c-1.2,1.7-2.1,2.8-2.4,3.3c-0.2,0.2-0.3,0.5-0.3,0.8c-0.4-0.1-0.9-0.1-1.4-0.1c-1.2,0-3.1,0.7-5.5,2.2
		l0,0c-3.6,2.2-6,3.7-7.4,4.4h0c-0.6,0.3-1.2,0.7-1.9,1c-0.8-0.2-1.6-0.5-2.3-0.9c-1-0.5-2.8-2.3-5.5-5.3c-2.1,0.9-3.6,2.6-4.4,5
		c-4.9,2-10.2,2.7-15.7,2.1l-1.1-6.6c-0.4-0.5-1-1.6-2-3.3c-0.2-0.4-0.4-0.6-0.5-0.7c1.2-1.7,2.2-3.5,2.9-5.4
		c-0.8-2.8-1.1-5.5-0.9-8.3C-151,422.5-150.1,419.6-148.5,417z M-146,429.2c-0.2,0.5-0.2,1.3-0.2,2.3c0,1.7,0.2,3.1,0.7,4.3
		c0.6,1.5,1.4,2.2,2.3,2.2c1,0,2.4-0.9,4.3-2.6c1.9-1.8,2.9-3.3,2.9-4.4c0-1-1-1.9-2.9-2.8c-1.7-0.8-3.2-1.2-4.5-1.2
		c-0.1,0-0.2,0-0.3,0.1c-0.1,0-0.1,0-0.1,0c-0.1,0-0.3,0.1-0.4,0.1c0,0-0.1,0-0.1,0.1c-0.3,0.1-0.5,0.3-0.7,0.5
		C-145.6,428.3-145.8,428.7-146,429.2z"/>
	<path d="M-96.8,426.2c0.5-0.4,1.3-0.4,2.2,0c1,0.4,1.4,1.8,1.3,4.1c0,1.8-0.1,5.7-0.2,11.8c0,0.2,0,0.4,0,0.6
		c-2.3,4.4-4.3,8.9-6.1,13.5c-0.4,1-1,1.8-1.9,2.3c-3,1.7-6.2,3.7-9.8,6c-1.8,1.2-3.4,2.4-5,3.4c-2.6,2.1-4.6,4-6,5.7
		c-0.2,0.3-0.4,0.5-0.6,0.8h-16.2c3.6-5.8,5.9-10.8,7.1-15c0.4-1.5,1.2-2.8,2.3-3.8c0.5-0.4,1.2-0.9,2.2-1.6
		c0.4-0.2,1.5-0.7,3.5-1.4c2-0.8,3.8-1.6,5.3-2.4c1.4-0.7,3.9-2.2,7.5-4.5c2.1-1.2,3.7-1.9,4.8-2c1.1-0.1,2,0.4,2.8,1.5
		c0.4,0.6,0.6,1.3,0.4,2.2c-0.2,1.2-0.9,2.3-2.3,3.3c-1.7,1-2.9,1.8-3.6,2.2c-1.1,0.7-2.9,1.9-5.1,3.7c-0.8,0.6-1.4,1.3-2,2l-0.7,1
		c0.3-0.2,0.7-0.4,1-0.6c5.9-3.6,9.7-6,11.4-7.1c1.7-1.1,2.7-2.5,3.1-3.9c0.3-1.4,0.1-2.7-0.5-3.7c-0.4-0.6-0.9-1.2-1.7-1.8
		c0.4-0.5,1.3-1.7,2.6-3.6c0.7-5.2,1.1-8,1.2-8.4c0.3-0.9,0.6-1.8,1.1-2.6C-97.9,426.9-97.4,426.4-96.8,426.2z"/>
</g>
</svg>
