<?xml version="1.0" encoding="utf-8"?>
<!-- Generator: Adobe Illustrator 19.0.0, SVG Export Plug-In . SVG Version: 6.00 Build 0)  -->
<svg version="1.1" id="Capa_1" xmlns="http://www.w3.org/2000/svg" xmlns:xlink="http://www.w3.org/1999/xlink" x="0px" y="0px"
	 viewBox="-210 325.9 173.5 190" style="enable-background:new -210 325.9 173.5 190;" xml:space="preserve">
<style type="text/css">
	.st0{fill:none;}
</style>
<g id="XMLID_100_">
	<path d="M-45.1,494.1h-156.3c-2,0-3.8-1-4.8-2.7s-1-3.8,0-5.5l78.1-135.4c1-1.7,2.8-2.8,4.8-2.8l0,0c2,0,3.8,1,4.8,2.7l78.2,135.4
		c1,1.7,1,3.8,0,5.5C-41.3,493-43.1,494.1-45.1,494.1z M-191.9,483.1h137.3l-68.7-118.9L-191.9,483.1z"/>
</g>
<g>
	<polygon class="st0" points="-124.1,410.3 -107.2,424.5 -97.7,420.5 	"/>
	<path class="st0" d="M-107.9,426.7l-7,6.1l1.5,0.5l-0.5,1.3l-2.2-0.8l-14.6,12.7l0.5,2.6l-1.4,0.3l-0.4-1.8l-7.8,6.8l4.8,1.4
		l2.7-1.8l0.8,1.1l-1.7,1.3l5.6,1.6l-1.7-2.4l1.1-0.8l2.1,2.9l-0.8,0.6l20.7,6.1l1.8-1.6l0.9,1.1l-1.2,1l2.8,0.8l-0.4-2.8l-0.1,0.1
		l-0.9-1.1l0.8-0.7l-3.4-22l-0.3,0.3l-2.5-2.5l1-1l1.6,1.6l-0.6-4l-0.8,0.9l-1.1-0.9l1.6-1.8L-107.9,426.7z M-130.2,454.5
		L-130.2,454.5l-0.8-1.1l0.3-0.1l-0.4-2.2l1.4-0.3l0.3,1.5l1.1-1l0.8,1l-1.6,1.4 M-126.4,451.3l-0.9-1.1l2.7-2.3l0.9,1.1
		L-126.4,451.3z M-122.7,448l-0.9-1.1l2.7-2.3l0.9,1.1L-122.7,448z M-119,444.8l-0.9-1.1l2.7-2.3l0.9,1.1L-119,444.8z M-115.2,441.5
		l-0.9-1.1l2.7-2.3l0.9,1.1L-115.2,441.5z"/>
	<path class="st0" d="M-103,466.9l-2.9-0.8l-0.3,0.2l-0.4-0.4l-17.6-5.2l0.8,1.2l-1.1,0.8l-1.9-2.7l-9.9-2.9l0.7,1.1l-2.9,2
		l-0.8-1.1l2.8-1.9l-4.5-1.3l-4,7.1l0.4-0.3l0.8,1.1l-1.6,1.1l27.9,7.6l-0.4-0.6l1.1-0.8l1.1,1.6l0.1-0.1l0.1,0.1l1.3-0.6l-0.4-0.4
		l2.7-2.3l0.9,1.1l-0.5,0.4L-103,466.9z M-142.5,462.9l-0.8-1.1l2.9-2l0.8,1.1L-142.5,462.9z M-123.6,463.8l1.1-0.8l2.1,2.9
		l-1.1,0.8L-123.6,463.8z M-118.8,470.7l-2.1-2.9l1.1-0.8l2.1,2.9L-118.8,470.7z M-108.1,466.1l0.5,0.5l0.5,0.6l-2.7,2.3l-1-1.1
		L-108.1,466.1z"/>
	<path class="st0" d="M-152.1,430.3l0.9-0.3l0.4,1.3l-3,0.8l12.9,21.5l8.8-7.6V446h0.1l15.2-13.2l0.2-0.6l0.4,0.1l7.9-6.9
		l-19.2-16.1l-1,2.3l-1.3-0.6l0.1-0.4L-152.1,430.3z M-132.3,416.9l1.3,0.6l-1.3,3.3l-1.3-0.6L-132.3,416.9z M-134.2,421.4l1.3,0.6
		l-1.3,3.3l-1.3-0.6L-134.2,421.4z M-149.5,431.1l-0.4-1.3l3.4-1l0.4,1.3L-149.5,431.1z M-144.8,429.8l-0.4-1.3l3.4-1l0.4,1.3
		L-144.8,429.8z M-140,428.4l-0.4-1.3l3.4-1l0.4,1.3L-140,428.4z M-136.5,426.9l0.4-0.8l0.6,0.3l0.2-0.6l3.2,1.1l-0.5,1.3l-2.1-0.7
		l0.5,2.4l-1.4,0.3l-0.6-3.2L-136.5,426.9z M-135.2,431.5l1.4-0.3l0.7,3.5l-1.4,0.3L-135.2,431.5z M-134.2,436.4l1.4-0.3l0.7,3.5
		l-1.4,0.3L-134.2,436.4z M-132.6,444.7l-0.7-3.5l1.4-0.3l0.7,3.5L-132.6,444.7z M-121.4,430.6l3.3,1.1l-0.4,1.3l-3.3-1.2
		L-121.4,430.6z M-126.1,429l3.3,1.1l-0.5,1.3l-3.3-1.2L-126.1,429z M-127.5,428.5l-0.5,1.3l-3.3-1.1l0.5-1.3L-127.5,428.5z
		 M-129.1,412.9l-1.3,3.3l-1.3-0.6l1.4-3.3L-129.1,412.9z"/>
	<polygon class="st0" points="-142,454.9 -153.2,436.2 -146.8,463.2 	"/>
	<path class="st0" d="M-97.6,423.5l-1.1-0.9l0.2-0.2l-8.1,3.5l0.8,5.7l0.4,0.4l-0.3,0.4l1.1,7.4l0.2-0.2l2.5,2.5l-1,0.9l-1.5-1.4
		l2.8,18.6l0.6-0.6l0.9,1.1l-1.3,1.1l0.5,3l5.6-8.3l-0.9-1.1l2.7-2.3l0.3,0.3l0.5-0.7l-2-1.9l0.9-1.1l1,0.9l-3.8-28.6L-97.6,423.5z
		 M-104.3,430.9l-1.1-0.9l2.4-2.6l1.1,0.9L-104.3,430.9z M-102,426.3l2.4-2.6l1.1,0.9l-2.4,2.6L-102,426.3z M-101.6,444l1-1l2.5,2.4
		l-0.9,1.1L-101.6,444z M-98.7,459.8l-0.9-1.1l2.7-2.3l0.9,1.1L-98.7,459.8z M-95.5,449.9l-2.5-2.5l1-1l2.5,2.5L-95.5,449.9z"/>
	<path d="M-100.4,467.1l9.6-14.3l-4.3-32.8l-33-12.7l-27.7,24.3l8.2,34l31.6,8.7l0.3,0.1l15.2-7.1L-100.4,467.1L-100.4,467.1z
		 M-92.5,450.7l-1-0.9l-0.9,1.1l2,1.9l-0.5,0.7l-0.3-0.3l-2.7,2.3l0.9,1.1l-5.6,8.3l-0.5-3l1.3-1.1l-0.8-1.1l-0.6,0.6l-2.8-18.6
		l1.5,1.4l1-1l-2.5-2.5l-0.2,0.2l-1.1-7.4l0.3-0.4l-0.4-0.4l-0.8-5.7l8.1-3.5l-0.2,0.2l1.1,0.9l1.3-1.5L-92.5,450.7z M-115.6,472.6
		l-1.1-1.6l-1.1,0.8l0.4,0.6l-27.9-7.6l1.6-1.1l-0.8-1.2l-0.4,0.3l4-7.1l4.4,1.3l-2.8,1.9l0.8,1.1l2.9-2l-0.7-1.1l9.9,2.9l1.8,2.6
		l1.1-0.8l-0.8-1.2l17.6,5.2l0.4,0.4l0.3-0.2l2.9,0.8l-8.5,4l0.5-0.4l-0.9-1.1l-2.7,2.3l0.4,0.4L-115.6,472.6 M-107.7,434.6l0.8-0.9
		l0.6,4l-1.6-1.6l-1,1l2.5,2.5l0.3-0.3l3.4,22l-0.8,0.7l0.9,1.1l0.1-0.1l0.4,2.8l-2.8-0.9l1.1-1l-0.9-1.1l-1.8,1.6l-20.7-6.1
		l0.8-0.6l-2.1-2.9l-1.1,0.8l1.7,2.4l-5.6-1.6l1.8-1.2l-0.8-1.1l-2.7,1.8l-4.8-1.4l7.8-6.8l0.4,1.8l1.4-0.3l-0.5-2.6L-116,434
		l2.2,0.8l0.5-1.3l-1.5-0.5l7-6.1l0.8,5.1l-1.6,1.8L-107.7,434.6z M-107.2,424.5l-17-14.3l26.5,10.2L-107.2,424.5z M-117,432.8
		l-15.1,13.3h-0.1v0.1l-8.7,7.6l-12.9-21.4l3-0.8l-0.4-1.3l-0.9,0.3l22.4-19.7l-0.1,0.4l1.3,0.6l1-2.3l19.2,16.1l-8,6.9 M-142,454.9
		l-4.7,8.3l-6.5-27L-142,454.9z"/>
	<rect x="-118.8" y="441.3" transform="matrix(0.6571 0.7538 -0.7538 0.6571 293.4994 240.9232)" width="1.4" height="3.5"/>
	<rect x="-144" y="426.8" transform="matrix(0.2705 0.9627 -0.9627 0.2705 308.0732 450.5706)" width="1.4" height="3.5"/>
	<path d="M-108.9,435.3"/>
	<path d="M-108.6,435.6"/>
	<polyline points="-109.3,434.8 -112,433.9 -112.5,435.1 -110.8,435.8 -112.4,437.2 -111.5,438.3 -109,436.1 	"/>
	<path d="M-109.6,434.7"/>
	<path d="M-109.3,435"/>
	<rect x="-115.1" y="438" transform="matrix(0.6574 0.7536 -0.7536 0.6574 292.2412 236.8542)" width="1.4" height="3.5"/>
	<rect x="-148.7" y="428.2" transform="matrix(0.27 0.9629 -0.9629 0.27 305.9225 456.3891)" width="1.4" height="3.5"/>
	<rect x="-134" y="442.1" transform="matrix(0.1996 0.9799 -0.9799 0.1996 328.114 483.9709)" width="3.5" height="1.4"/>
	<rect x="-139.2" y="425.5" transform="matrix(0.2705 0.9627 -0.9627 0.2705 310.2914 445.0251)" width="1.4" height="3.5"/>
	<rect x="-133.9" y="436.2" transform="matrix(-0.98 0.1992 -0.1992 -0.98 -176.4682 893.7065)" width="1.4" height="3.5"/>
	<rect x="-134.9" y="431.4" transform="matrix(-0.9799 0.1997 -0.1997 -0.9799 -179.1389 884.3989)" width="1.4" height="3.5"/>
	<polyline points="-136.2,426.9 -135.5,430.1 -134.1,429.8 -134.6,427.5 -132.6,428.2 -132.1,426.9 -135.3,425.7 	"/>
	<rect x="-98.1" y="447.4" transform="matrix(0.7224 0.6915 -0.6915 0.7224 283.1295 190.9774)" width="3.5" height="1.4"/>
	<polygon points="-120.7,467.8 -118.8,470.7 -117.6,469.9 -119.6,467 	"/>
	<rect x="-122.7" y="463.1" transform="matrix(-0.8173 0.5763 -0.5763 -0.8173 46.1719 915.0471)" width="1.4" height="3.5"/>
	<rect x="-122.5" y="444.5" transform="matrix(0.6571 0.7538 -0.7538 0.6571 294.6262 244.8642)" width="1.4" height="3.5"/>
	<rect x="-98.5" y="456.3" transform="matrix(0.6555 0.7552 -0.7552 0.6555 312.223 231.6668)" width="1.4" height="3.5"/>
	<polygon points="-98.1,445.3 -100.7,442.9 -101.6,444 -99,446.4 	"/>
	<rect x="-142.2" y="459.5" transform="matrix(0.566 0.8244 -0.8244 0.566 318.9008 316.8249)" width="1.4" height="3.5"/>
	<rect x="-126.3" y="447.8" transform="matrix(0.6561 0.7547 -0.7547 0.6561 296.0774 249.3552)" width="1.4" height="3.5"/>
	<polygon points="-107.2,467.2 -107.7,466.6 -108.1,466.1 -110.8,468.5 -109.8,469.5 	"/>
	<polyline points="-129.1,453.6 -127.5,452.2 -128.4,451.1 -129.6,452.1 -129.9,450.6 -131.3,450.9 -130.9,453.1 -131.1,453.3 
		-130.3,454.5 	"/>
	<rect x="-131.1" y="427.9" transform="matrix(0.9445 0.3285 -0.3285 0.9445 133.6228 66.2634)" width="3.5" height="1.4"/>
	<rect x="-126.4" y="429.5" transform="matrix(-0.9445 -0.3284 0.3284 -0.9445 -383.6248 795.6172)" width="3.5" height="1.4"/>
	<rect x="-131.1" y="412.5" transform="matrix(0.9219 0.3875 -0.3875 0.9219 150.328 82.9032)" width="1.4" height="3.5"/>
	<rect x="-121.7" y="431.1" transform="matrix(-0.9445 -0.3285 0.3285 -0.9445 -375.1113 800.2858)" width="3.5" height="1.4"/>
	<rect x="-101" y="423.7" transform="matrix(-0.7405 -0.6721 0.6721 -0.7405 -460.5164 673.0847)" width="1.4" height="3.5"/>
	<rect x="-134.9" y="421.6" transform="matrix(-0.9218 -0.3877 0.3877 -0.9218 -422.1088 761.53)" width="1.4" height="3.5"/>
	<rect x="-104.3" y="427.3" transform="matrix(0.7402 0.6724 -0.6724 0.7402 261.5998 181.1502)" width="1.4" height="3.5"/>
	<rect x="-133.1" y="417" transform="matrix(-0.9218 -0.3877 0.3877 -0.9218 -416.7079 753.5538)" width="1.4" height="3.5"/>
</g>
</svg>
