<?xml version="1.0" encoding="utf-8"?>
<!-- Generator: Adobe Illustrator 19.0.0, SVG Export Plug-In . SVG Version: 6.00 Build 0)  -->
<svg version="1.1" id="Capa_1" xmlns="http://www.w3.org/2000/svg" xmlns:xlink="http://www.w3.org/1999/xlink" x="0px" y="0px"
	 viewBox="-210 325.9 173.5 190" style="enable-background:new -210 325.9 173.5 190;" xml:space="preserve">
<g id="XMLID_100_">
	<path d="M-45.1,494.1h-156.3c-2,0-3.8-1-4.8-2.7s-1-3.8,0-5.5l78.1-135.4c1-1.7,2.8-2.8,4.8-2.8l0,0c2,0,3.8,1,4.8,2.7l78.2,135.4
		c1,1.7,1,3.8,0,5.5C-41.3,493-43.1,494.1-45.1,494.1z M-191.9,483.1h137.3l-68.7-118.9L-191.9,483.1z"/>
</g>
<path d="M-137.1,403.1c-0.9,1.5-1.8,3.1-2.6,4.7c-0.8,1.5-1.5,3.2-2.3,4.8c0.1,0,0.2,0.1,0.3,0.1c0.5-0.7,0.9-1.5,1.4-2.2
	c3.1-4.6,6.7-8.9,11.3-12.2c2.5-1.7,5.1-3,8-3.5c4.6-0.7,8.4,0.5,11.8,3.6c4.6,4.2,7.1,9.5,8.7,15.4c1.5,5.7,1.8,11.3,1.5,17.1
	c-0.7,13-5,24.9-13.1,35.2c-2.6,3.2-5.5,6.1-9,8.1c-6.6,3.7-13.3,3.2-19.1-1.8c-5.1-4.4-8.5-9.9-10-16.5c-0.5-2.4-0.6-4.9-0.8-7.4
	c-0.5-6.1-0.2-12.1,1-18.1c1.8-9.1,5.1-17.7,10.8-25.2c0.6-0.9,1.5-1.7,2.2-2.6C-137.3,403-137.2,403.1-137.1,403.1z M-110.7,435
	c-0.1,0-0.2-0.1-0.2-0.1c0-0.2,0.1-0.4,0.1-0.5c1.3-5.7,1.9-11.4,1.7-17.1c-0.1-3-0.6-6-1.8-8.8c-1.1-2.5-2.7-4.5-5.3-5.6
	c-3.6-1.5-7.1-0.9-10.3,1.2c-3.6,2.4-6.3,5.7-8.7,9.4c-2.6,4.2-4.6,8.7-6.3,13.3c-2.7,7.3-4.6,14.8-4.2,22.7
	c0.3,5.4,1.5,10.5,4.3,15.2c3.8,6.7,10.5,8.8,16.5,6.8c0.2-0.1,0.5-0.2,0.6-0.3c-0.3-0.2-0.5-0.2-0.7-0.2c-5.3-0.5-9.4-2.7-12.4-7.2
	c-2.1-3.2-3.1-6.7-3.6-10.5c0-0.1,0-0.2,0.1-0.5c0.6,1.4,1.2,2.7,1.9,3.9c1.6,3.1,3.6,5.9,6.5,7.9c2.5,1.7,5.1,2.5,8,1.3
	c1.2-0.5,2.3-1.1,3.3-1.9c4.5-3.6,7.6-8.2,10.2-13.1c1.6-3,2.7-6.2,3.6-9.5c2.1-7.1,2.9-14.4,1.8-21.8c-0.3-1.8-0.6-3.6-1-5.4
	c-0.1,0-0.2,0-0.3,0C-106.6,421.6-107.2,428.5-110.7,435z"/>
</svg>
