<?xml version="1.0" encoding="utf-8"?>
<!-- Generator: Adobe Illustrator 19.0.0, SVG Export Plug-In . SVG Version: 6.00 Build 0)  -->
<svg version="1.1" id="Capa_1" xmlns="http://www.w3.org/2000/svg" xmlns:xlink="http://www.w3.org/1999/xlink" x="0px" y="0px"
	 viewBox="-210 325.9 173.5 190" style="enable-background:new -210 325.9 173.5 190;" xml:space="preserve">
<g id="XMLID_100_">
	<path d="M-45.1,494.1h-156.3c-2,0-3.8-1-4.8-2.7s-1-3.8,0-5.5l78.1-135.4c1-1.7,2.8-2.8,4.8-2.8l0,0c2,0,3.8,1,4.8,2.7l78.2,135.4
		c1,1.7,1,3.8,0,5.5C-41.3,493-43.1,494.1-45.1,494.1z M-191.9,483.1h137.3l-68.7-118.9L-191.9,483.1z"/>
</g>
<path d="M-145.5,411.6c-1-7.4,7.6,1,7.6,6.1c0,2-2.5,5.7-4.4,5.7C-143.4,423.4-144.5,419-145.5,411.6z M-132.5,414.1
	c-4.4,0-3.6,9.3-1.5,9.3C-132.8,423.4-128.1,414.1-132.5,414.1z M-125.6,414.2c-4.8-0.3-3.3,7.5-1.7,7.5
	C-124.9,421.7-121.7,414.4-125.6,414.2z M-100.5,411.6c1-7.4-7.6,1-7.6,6.1c0,2,2.5,5.7,4.4,5.7C-102.6,423.4-101.5,419-100.5,411.6
	z M-112,423.4c2.1,0,2.9-9.3-1.5-9.3C-117.9,414.1-113.2,423.4-112,423.4z M-118.8,421.7c1.6,0,3.1-7.9-1.7-7.5
	C-124.3,414.4-121.1,421.7-118.8,421.7z M-140.1,480.9c-0.5-3.3-3.9-7.5-5.8-11.4c-3-6.1-4.9-11.4-5.4-11.7
	c-3.3-1.2-8.1,23.4,4.7,28.8C-142.6,488.4-139.5,484.4-140.1,480.9z M-135.1,473c-2.4,0-4.2,10.5-0.2,12.6
	C-129.7,488.5-133.8,473-135.1,473z M-129.9,477.6c-1.6-0.1-2.7,7,0.6,7.3C-126,485.1-129,477.6-129.9,477.6z M-125.7,479.3
	c-1.1-0.1-2.5,6,0.7,5.9C-122.4,485.2-124.1,479.4-125.7,479.3z M-99.2,486.7c12.8-5.4,8-30.1,4.7-28.8c-0.6,0.2-2.5,5.6-5.4,11.7
	c-1.9,3.9-5.3,8.1-5.8,11.4C-106.3,484.4-103.2,488.4-99.2,486.7z M-110.5,485.6c4-2,2.1-12.6-0.2-12.6
	C-112,473-116.1,488.5-110.5,485.6z M-116.5,484.9c3.3-0.2,2.2-7.4,0.6-7.3C-116.8,477.6-119.8,485.1-116.5,484.9z M-120.9,485.3
	c3.2,0,1.7-6,0.7-5.9C-121.7,479.4-123.4,485.2-120.9,485.3z M-147.7,417.8c1.2-8.8-13.4-15.4-15.8,1.8c-2.4,17.2,3.5,34.8,5.2,34.8
	c1.4,0,3.6-11.2,6.1-21.3C-150.6,426.7-148.2,421.2-147.7,417.8z M-93.8,433.1c2.6,10,4.8,21.3,6.1,21.3c1.7,0,7.6-17.7,5.2-34.8
	c-2.4-17.2-17-10.6-15.8-1.8C-97.8,421.2-95.4,426.7-93.8,433.1z"/>
</svg>
