<?xml version="1.0" encoding="utf-8"?>
<!-- Generator: Adobe Illustrator 19.0.0, SVG Export Plug-In . SVG Version: 6.00 Build 0)  -->
<svg version="1.1" id="Capa_1" xmlns="http://www.w3.org/2000/svg" xmlns:xlink="http://www.w3.org/1999/xlink" x="0px" y="0px"
	 viewBox="-210 325.9 173.5 190" style="enable-background:new -210 325.9 173.5 190;" xml:space="preserve">
<g id="XMLID_100_">
	<path d="M-45.1,494.1h-156.3c-2,0-3.8-1-4.8-2.7s-1-3.8,0-5.5l78.1-135.4c1-1.7,2.8-2.8,4.8-2.8l0,0c2,0,3.8,1,4.8,2.7l78.2,135.4
		c1,1.7,1,3.8,0,5.5C-41.3,493-43.1,494.1-45.1,494.1z M-191.9,483.1h137.3l-68.7-118.9L-191.9,483.1z"/>
</g>
<g>
	<g>
		<path d="M-148,454.6c0.6,0,1.2-0.5,1.2-1.2v-0.1c0-0.6-0.5-1.1-1.2-1.1c-0.6,0-1.2,0.6-1.2,1.2S-148.6,454.6-148,454.6z"/>
	</g>
	<g>
		<path d="M-148,450.8c0.6,0,1.2-0.5,1.2-1.2v-0.1c0-0.6-0.5-1.1-1.2-1.1c-0.6,0-1.2,0.6-1.2,1.2S-148.6,450.8-148,450.8z"/>
	</g>
	<g>
		<path d="M-143.8,450.8c0.6,0,1.1-0.5,1.1-1.2c0,0,0-0.1,0-0.1c0-0.6-0.5-1.1-1.1-1.1c0,0-0.1,0-0.1,0c-0.6,0-1.2,0.6-1.2,1.2
			S-144.5,450.8-143.8,450.8C-143.8,450.8-143.8,450.8-143.8,450.8z"/>
	</g>
	<g>
		<path d="M-139.7,448.4C-139.7,448.4-139.7,448.4-139.7,448.4c-0.7,0-1.2,0.5-1.2,1.2s0.5,1.2,1.2,1.2c0,0,0.1,0,0.1,0
			c0.6,0,1.1-0.5,1.1-1.2c0,0,0-0.1,0-0.1C-138.6,448.9-139.1,448.5-139.7,448.4z"/>
	</g>
	<g>
		<path d="M-135.6,448.4C-135.6,448.4-135.6,448.4-135.6,448.4c-0.7,0-1.2,0.5-1.2,1.2s0.5,1.2,1.2,1.2c0,0,0.1,0,0.1,0
			c0.6,0,1.1-0.5,1.1-1.2c0,0,0-0.1,0-0.1C-134.5,448.9-135,448.4-135.6,448.4z"/>
	</g>
	<g>
		<path d="M-131.5,448.4C-131.5,448.4-131.5,448.4-131.5,448.4c-0.7,0-1.2,0.5-1.2,1.2s0.5,1.2,1.2,1.2c0,0,0.1,0,0.1,0
			c0.6,0,1.1-0.5,1.1-1.2c0,0,0-0.1,0-0.1C-130.4,448.9-130.9,448.4-131.5,448.4z"/>
	</g>
	<g>
		<path d="M-127.4,450.7c0.6,0,1.2-0.5,1.2-1.2s-0.5-1.2-1.2-1.2h-0.1c-0.6,0-1.2,0.5-1.2,1.2S-128.1,450.7-127.4,450.7
			L-127.4,450.7z"/>
	</g>
	<g>
		<path d="M-98.5,454.6c0.6,0,1.2-0.5,1.2-1.2s-0.5-1.2-1.2-1.2s-1.2,0.5-1.2,1.1v0.1C-99.7,454.1-99.2,454.6-98.5,454.6z"/>
	</g>
	<g>
		<path d="M-98.5,450.8c0.6,0,1.2-0.5,1.2-1.2s-0.5-1.2-1.2-1.2s-1.2,0.5-1.2,1.1v0.1C-99.7,450.3-99.2,450.8-98.5,450.8z"/>
	</g>
	<g>
		<path d="M-102.6,448.4C-102.7,448.4-102.7,448.4-102.6,448.4c-0.7,0-1.2,0.5-1.2,1.1c0,0,0,0.1,0,0.1c0,0.6,0.5,1.1,1.1,1.2
			c0,0,0.1,0,0.1,0c0.6,0,1.2-0.5,1.2-1.2S-102,448.4-102.6,448.4z"/>
	</g>
	<g>
		<path d="M-106.7,448.4C-106.8,448.4-106.8,448.4-106.7,448.4c-0.7,0-1.2,0.5-1.2,1.1c0,0,0,0.1,0,0.1c0,0.6,0.5,1.1,1.1,1.2
			c0,0,0.1,0,0.1,0c0.6,0,1.2-0.5,1.2-1.2S-106.1,448.4-106.7,448.4z"/>
	</g>
	<g>
		<path d="M-110.8,448.4C-110.9,448.4-110.9,448.4-110.8,448.4c-0.7,0-1.2,0.5-1.2,1.1c0,0,0,0.1,0,0.1c0,0.6,0.5,1.1,1.1,1.2
			c0,0,0.1,0,0.1,0c0.6,0,1.2-0.5,1.2-1.2S-110.2,448.4-110.8,448.4z"/>
	</g>
	<g>
		<path d="M-115,448.4C-115,448.4-115,448.4-115,448.4c-0.7,0-1.2,0.5-1.2,1.1c0,0,0,0.1,0,0.1c0,0.6,0.5,1.1,1.1,1.2
			c0,0,0.1,0,0.1,0c0.6,0,1.2-0.5,1.2-1.2S-114.3,448.4-115,448.4z"/>
	</g>
	<g>
		<path d="M-119.1,450.7c0.6,0,1.2-0.5,1.2-1.2s-0.5-1.2-1.2-1.2h-0.1c-0.6,0-1.2,0.5-1.2,1.2S-119.8,450.7-119.1,450.7
			L-119.1,450.7z"/>
	</g>
	<g>
		<path d="M-124.4,453.4c0,0.6,0.5,1.2,1.2,1.2s1.2-0.5,1.2-1.2v0c0-0.6-0.5-1.2-1.2-1.2S-124.4,452.8-124.4,453.4L-124.4,453.4z"/>
	</g>
	<g>
		<path d="M-124.4,449.6c0,0.6,0.5,1.2,1.2,1.2s1.2-0.5,1.2-1.2v-0.1c0-0.6-0.5-1.2-1.2-1.2S-124.4,448.9-124.4,449.6L-124.4,449.6z
			"/>
	</g>
	<g>
		<path d="M-123.3,446.9c0.6,0,1.2-0.5,1.2-1.2v0c0-0.6-0.5-1.2-1.2-1.2s-1.2,0.5-1.2,1.2v0C-124.4,446.4-123.9,446.9-123.3,446.9z"
			/>
	</g>
	<g>
		<circle cx="-148" cy="462.7" r="7"/>
	</g>
	<g>
		<circle cx="-123.3" cy="462.7" r="7"/>
	</g>
	<g>
		<circle cx="-98.5" cy="462.7" r="7"/>
	</g>
	<g>
		<path d="M-123.3,400.1c-12,0-21.6,9.7-21.6,21.6c0,12,9.7,21.6,21.6,21.6c12,0,21.6-9.7,21.6-21.6
			C-101.6,409.8-111.3,400.1-123.3,400.1z M-128.3,411.8c1.1,0,1.9,0.9,1.9,1.9c0,1.1-0.9,1.9-1.9,1.9c-1.1,0-1.9-0.9-1.9-1.9
			C-130.2,412.7-129.3,411.8-128.3,411.8z M-121.4,421.2c-0.6,0-1.2-0.1-1.8-0.2c-0.3-0.1-0.6-0.1-1-0.1c-1,0-2.2,0.4-3.1,1
			c-1,0.7-1.8,1.6-2.2,2.7c-0.6,1.5-1.2,2.9-1.7,3.9c-0.2,0.6-0.4,1-0.5,1.3h20.1l0,0c0.6,0,1.2,0.5,1.2,1.2s-0.5,1.2-1.2,1.2h-23.2
			c-0.3,0-0.6-0.1-0.8-0.3c-0.2-0.2-0.3-0.5-0.3-0.8v-19.4c0-0.6,0.5-1.2,1.2-1.2c0.6,0,1.2,0.5,1.2,1.2v16.8c0.4-1,1.1-2.7,2-4.7
			c0.7-1.5,1.8-2.8,3.1-3.7c1.3-0.9,2.9-1.4,4.4-1.4c0.5,0,1,0.1,1.5,0.2c0.4,0.1,0.8,0.1,1.3,0.1c1,0,1.9-0.3,2.6-0.7
			c0.7-0.5,1.2-1.1,1.4-1.8c0.3-0.9,0.5-1.7,0.7-2.4l-5-1.2l7.8-5.3l4.4,8.4l-5.1-1.3c-0.2,0.7-0.5,1.6-0.8,2.6
			c-0.4,1.3-1.3,2.4-2.4,3.1C-118.7,420.9-120,421.2-121.4,421.2z M-120.2,426.9c0,1.1-0.9,1.9-1.9,1.9c-1.1,0-1.9-0.9-1.9-1.9
			c0-1.1,0.9-1.9,1.9-1.9C-121,425-120.2,425.8-120.2,426.9z"/>
	</g>
</g>
</svg>
