<?xml version="1.0" encoding="utf-8"?>
<!-- Generator: Adobe Illustrator 19.0.0, SVG Export Plug-In . SVG Version: 6.00 Build 0)  -->
<svg version="1.1" id="Capa_1" xmlns="http://www.w3.org/2000/svg" xmlns:xlink="http://www.w3.org/1999/xlink" x="0px" y="0px"
	 viewBox="-210 325.9 173.5 190" style="enable-background:new -210 325.9 173.5 190;" xml:space="preserve">
<g id="XMLID_100_">
	<path d="M-45.1,494.1h-156.3c-2,0-3.8-1-4.8-2.7s-1-3.8,0-5.5l78.1-135.4c1-1.7,2.8-2.8,4.8-2.8l0,0c2,0,3.8,1,4.8,2.7l78.2,135.4
		c1,1.7,1,3.8,0,5.5C-41.3,493-43.1,494.1-45.1,494.1z M-191.9,483.1h137.3l-68.7-118.9L-191.9,483.1z"/>
</g>
<g>
	<g>
		<path d="M-108.5,443.3c1.4-0.5,2.9-1,3.8-2.2c0.9-1.3,0.9-2.9,1-4.4c0-1,0-1.9,0.2-2.6c0.2-0.7,0.7-1.4,1.3-2.1
			c0.9-1.2,1.9-2.6,1.9-4.3c0-1.7-1-3-1.9-4.3c-0.6-0.8-1.1-1.5-1.3-2.1c-0.2-0.7-0.2-1.6-0.2-2.6c0-1.6,0-3.2-1-4.4
			c-0.9-1.3-2.5-1.8-4-2.3c-0.9-0.3-1.8-0.6-2.4-1c-0.6-0.4-1.1-1.2-1.7-1.9c-0.9-1.2-1.9-2.6-3.4-3.1c-0.4-0.1-0.9-0.2-1.3-0.2
			c-1.1,0-2.1,0.3-3.2,0.7c-0.9,0.3-1.8,0.6-2.6,0.6s-1.7-0.3-2.6-0.6c-1-0.3-2.1-0.7-3.2-0.7c-0.5,0-0.9,0.1-1.3,0.2
			c-1.6,0.5-2.6,1.9-3.4,3.1c-0.6,0.8-1.1,1.5-1.7,1.9c-0.6,0.4-1.5,0.7-2.4,1c-1.4,0.5-3,1-4,2.3c-0.9,1.3-0.9,2.9-1,4.4
			c0,1,0,1.9-0.2,2.6c-0.2,0.7-0.7,1.4-1.3,2.1c-0.9,1.2-1.9,2.6-1.9,4.3c0,1.7,1,3,1.9,4.3c0.6,0.8,1.1,1.5,1.3,2.1
			c0.2,0.7,0.2,1.6,0.2,2.6c0,1.6,0,3.2,1,4.4c0.9,1.3,2.5,1.8,4,2.3c0,0,0,0,0.1,0l-6.7,24.4c-0.1,0.4,0,0.9,0.4,1.1
			c0.3,0.3,0.8,0.3,1.2,0.1l6.2-3.5l3.5,6.2c0.2,0.3,0.6,0.5,0.9,0.5c0,0,0.1,0,0.1,0c0.4-0.1,0.8-0.4,0.9-0.8l6.3-22.8
			c0.6-0.2,1.1-0.3,1.7-0.3c0.5,0,1.1,0.1,1.7,0.3l6.4,22.8c0.1,0.4,0.5,0.7,0.9,0.8c0,0,0.1,0,0.1,0c0.4,0,0.7-0.2,0.9-0.5l3.6-6.2
			l6.3,3.5c0.4,0.2,0.9,0.2,1.2-0.1c0.3-0.3,0.5-0.7,0.4-1.1L-108.5,443.3z M-132.6,468.3l-2.8-4.9c-0.3-0.5-1-0.7-1.5-0.4l-4.9,2.8
			l6-21.6c0.1,0.1,0.2,0.1,0.3,0.2c0.6,0.4,1.1,1.2,1.7,1.9c0.9,1.2,1.9,2.6,3.4,3.1c0.4,0.1,0.9,0.2,1.3,0.2c0.6,0,1.1-0.1,1.7-0.2
			L-132.6,468.3z M-126.5,446.9c-1.2,0.4-2.4,0.7-3.1,0.5c-0.9-0.3-1.6-1.3-2.4-2.3c-0.6-0.9-1.3-1.8-2.2-2.4c-0.9-0.6-1.9-1-3-1.3
			c-1.2-0.4-2.4-0.8-2.9-1.5c-0.5-0.7-0.5-1.9-0.5-3.2c0-1.1,0-2.2-0.4-3.3c-0.3-1-1-1.9-1.6-2.8c-0.8-1-1.5-2-1.5-3s0.7-1.9,1.5-3
			c0.6-0.9,1.3-1.8,1.6-2.8c0.3-1,0.3-2.2,0.4-3.3c0-1.3,0-2.5,0.5-3.2c0.5-0.7,1.7-1.1,2.9-1.5c1-0.3,2.1-0.7,3-1.3
			c0.9-0.6,1.5-1.5,2.2-2.4c0.8-1,1.5-2,2.4-2.3c0.8-0.3,1.9,0.1,3.1,0.5c1.1,0.3,2.1,0.7,3.3,0.7c1.1,0,2.2-0.3,3.3-0.7
			c1.2-0.4,2.4-0.7,3.1-0.5c0.9,0.3,1.6,1.3,2.4,2.3c0.6,0.9,1.3,1.8,2.2,2.4c0.9,0.6,1.9,1,3,1.3c1.2,0.4,2.4,0.8,2.9,1.5
			c0.5,0.7,0.5,1.9,0.5,3.2c0,1.1,0,2.2,0.4,3.3c0.3,1,1,1.9,1.6,2.8c0.8,1,1.5,2,1.5,3c0,1-0.7,1.9-1.5,3c-0.6,0.9-1.3,1.8-1.6,2.8
			c-0.3,1-0.3,2.2-0.4,3.3c0,1.3,0,2.5-0.5,3.2c-0.5,0.7-1.7,1.1-2.9,1.5c-1,0.3-2.1,0.7-3,1.3c-0.9,0.6-1.5,1.5-2.2,2.4
			c-0.8,1-1.5,2-2.4,2.3c-0.8,0.3-1.9-0.1-3.1-0.5c-1.1-0.3-2.1-0.7-3.3-0.7C-124.4,446.2-125.5,446.5-126.5,446.9z M-109.5,463
			c-0.5-0.3-1.2-0.1-1.5,0.4l-2.9,4.9l-5.3-19c0.5,0.1,1.1,0.2,1.7,0.2c0.5,0,0.9-0.1,1.3-0.2c1.6-0.5,2.6-1.9,3.4-3.1
			c0.6-0.8,1.1-1.5,1.7-1.9c0.1-0.1,0.3-0.2,0.5-0.3l6.1,21.7L-109.5,463z"/>
		<path d="M-108.3,427.6c0-8.2-6.7-14.9-14.9-14.9c-8.2,0-14.9,6.7-14.9,14.9c0,8.2,6.7,14.9,14.9,14.9S-108.3,435.8-108.3,427.6z"
			/>
	</g>
</g>
</svg>
