<?xml version="1.0" encoding="utf-8"?>
<!-- Generator: Adobe Illustrator 19.0.0, SVG Export Plug-In . SVG Version: 6.00 Build 0)  -->
<svg version="1.1" id="Capa_1" xmlns="http://www.w3.org/2000/svg" xmlns:xlink="http://www.w3.org/1999/xlink" x="0px" y="0px"
	 viewBox="-210 325.9 173.5 190" style="enable-background:new -210 325.9 173.5 190;" xml:space="preserve">
<style type="text/css">
	.st0{fill:none;}
</style>
<g id="XMLID_100_">
	<path d="M-45.1,494.1h-156.3c-2,0-3.8-1-4.8-2.7s-1-3.8,0-5.5l78.1-135.4c1-1.7,2.8-2.8,4.8-2.8l0,0c2,0,3.8,1,4.8,2.7l78.2,135.4
		c1,1.7,1,3.8,0,5.5C-41.3,493-43.1,494.1-45.1,494.1z M-191.9,483.1h137.3l-68.7-118.9L-191.9,483.1z"/>
</g>
<g>
	<path class="st0" d="M-124.3,423.7l0-10.1l-16.5,6l-11.3,14.2l9.5,3.1L-124.3,423.7z M-141.8,423.9c0.6-0.5,1.4-0.4,1.9,0.2
		l1.2,1.4l2.2-1.8l-1.2-1.4c-0.5-0.6-0.4-1.4,0.2-1.9c0.6-0.5,1.4-0.4,1.9,0.2l2,2.5c0,0,0,0,0,0c0,0,0,0,0,0l2,2.5
		c0.5,0.6,0.4,1.4-0.2,1.9c-0.2,0.2-0.5,0.3-0.8,0.3c-0.4,0-0.8-0.2-1-0.5l-1.2-1.4l-3.2,2.6c-0.2,0.2-0.5,0.3-0.8,0.3
		c-0.4,0-0.8-0.2-1-0.5l-2-2.5C-142.5,425.2-142.4,424.3-141.8,423.9z"/>
	<path class="st0" d="M-145.2,448.6c0.2-0.1,0.3-0.2,0.3-0.3c0-0.1,0.1-0.2,0-0.4l-0.4-1.2c-0.1-0.2-0.3-0.4-0.5-0.4
		c-0.1,0-0.1,0-0.2,0l-2.1,0.8c-0.2,0.1-0.3,0.2-0.3,0.3c0,0.1-0.1,0.2,0,0.4l0.4,1.2c0.1,0.2,0.2,0.3,0.3,0.3c0.1,0,0.2,0.1,0.4,0
		L-145.2,448.6z"/>
	<circle class="st0" cx="-123" cy="448.7" r="2.5"/>
	<path class="st0" d="M-143.4,439.5l-9.6-3.1l0.3,17.1l10.3,15.6l5.9-8.1L-143.4,439.5z M-150.6,449.9l-0.4-1.2
		c-0.3-0.8-0.3-1.7,0.1-2.5c0.4-0.8,1-1.4,1.8-1.7l2.1-0.8c1.7-0.6,3.5,0.3,4.1,1.9c0,0,0,0,0,0l0.4,1.2c0.3,0.8,0.3,1.7-0.1,2.5
		c-0.4,0.8-1,1.4-1.8,1.7l-2.1,0.8c-0.4,0.1-0.7,0.2-1.1,0.2c-0.5,0-0.9-0.1-1.4-0.3C-149.7,451.3-150.3,450.7-150.6,449.9z
		 M-140.9,455l-3.5,1.3l2.8,2.3c0.6,0.5,0.6,1.3,0.2,1.9c-0.3,0.3-0.6,0.5-1,0.5c-0.3,0-0.6-0.1-0.8-0.3l-4.6-3.8
		c-0.4-0.3-0.5-0.8-0.5-1.2c0.1-0.5,0.4-0.9,0.9-1l5.6-2c0.7-0.2,1.4,0.1,1.7,0.8C-139.9,454-140.2,454.7-140.9,455z"/>
	<path class="st0" d="M-134,459.8h22l6.8-20.9L-123,426l-17.8,12.9L-134,459.8z M-128.1,441c0-2.8,2.3-5.1,5.1-5.1s5.1,2.3,5.1,5.1
		c0,1.5-0.7,2.9-1.7,3.8c1,0.9,1.7,2.3,1.7,3.8c0,2.8-2.3,5.1-5.1,5.1s-5.1-2.3-5.1-5.1c0-1.5,0.7-2.9,1.7-3.8
		C-127.5,443.9-128.1,442.6-128.1,441z"/>
	<path class="st0" d="M-121.6,413.6l0,10.1l18.2,13.3l9.5-3.1l-2.6-3.3l-8.6-10.9L-121.6,413.6z M-105.3,426.1
		c-0.5,0.7-1.5,1.1-3,1.3l0.3,0.2c0.6,0.4,0.7,1.2,0.3,1.8c-0.3,0.4-0.7,0.6-1.1,0.6c-0.3,0-0.5-0.1-0.8-0.2l-3.7-2.6
		c-0.5-0.3-0.7-1-0.5-1.5c0.2-0.6,0.8-0.9,1.4-0.8c1.8,0.2,3.8,0.1,4.6-0.1c-0.1-0.2-0.3-0.4-0.6-0.6c-0.4-0.3-0.7-0.4-0.9-0.4
		c-0.4,0.4-1.1,0.5-1.7,0.1c-0.6-0.4-0.7-1.2-0.3-1.8c0.8-1.2,2.7-1.2,4.4,0c0.7,0.5,1.2,1.1,1.5,1.7
		C-104.8,424.5-104.8,425.4-105.3,426.1z"/>
	<circle class="st0" cx="-123" cy="441" r="2.5"/>
	<path class="st0" d="M-109.6,460.9l5.9,8.1l10.3-15.6l0.3-17.1l-9.6,3.1L-109.6,460.9z M-102.2,448.4l2.3,4.2l0.7-2
		c0.3-0.7,1-1,1.7-0.8c0.7,0.3,1,1,0.8,1.7l-1.8,4.7c-0.2,0.5-0.6,0.8-1.1,0.9c0,0-0.1,0-0.1,0c-0.5,0-0.9-0.3-1.2-0.7l-3.7-6.7
		c-0.4-0.6-0.1-1.4,0.5-1.8C-103.4,447.5-102.6,447.7-102.2,448.4z"/>
	<path class="st0" d="M-134.3,462.5l-5.8,8.1l17.1,4.1l17.1-4.1l-5.8-8.1H-134.3z M-126.7,470c0.8,0,1.3-0.2,1.4-0.4
		c0.1-0.6,0.6-1.1,1.3-1.1c0.7,0,1.3,0.6,1.3,1.3c0,1.6-1.7,2.8-4,2.8c-2.3,0-4-1.2-4-2.8c0-1.1,0.8-2.2,2.5-3.6h-1.2
		c-0.7,0-1.3-0.6-1.3-1.3c0-0.7,0.6-1.3,1.3-1.3h5.5c0.6,0,1.1,0.4,1.3,1c0.2,0.6-0.1,1.2-0.6,1.5c-2.2,1.2-4.3,2.9-4.7,3.7
		C-127.8,469.8-127.3,470-126.7,470z M-112.6,469.3l-5.5,3.2c-0.2,0.1-0.4,0.2-0.7,0.2c-0.2,0-0.5-0.1-0.7-0.2
		c-0.4-0.2-0.7-0.7-0.7-1.1v-6.4c0-0.7,0.6-1.3,1.3-1.3s1.3,0.6,1.3,1.3v4.1l3.5-2c0.6-0.4,1.4-0.2,1.8,0.5
		C-111.8,468.1-112,468.9-112.6,469.3z"/>
	<path d="M-128.1,448.7c0,2.8,2.3,5.1,5.1,5.1s5.1-2.3,5.1-5.1c0-1.5-0.7-2.9-1.7-3.8c1-0.9,1.7-2.3,1.7-3.8c0-2.8-2.3-5.1-5.1-5.1
		s-5.1,2.3-5.1,5.1c0,1.5,0.7,2.9,1.7,3.8C-127.5,445.8-128.1,447.2-128.1,448.7z M-123,451.2c-1.4,0-2.5-1.1-2.5-2.5
		c0-1.4,1.1-2.5,2.5-2.5s2.5,1.1,2.5,2.5C-120.5,450.1-121.6,451.2-123,451.2z M-123,438.5c1.4,0,2.5,1.1,2.5,2.5s-1.1,2.5-2.5,2.5
		c-1.4,0-2.5-1.1-2.5-2.5S-124.4,438.5-123,438.5z"/>
	<path d="M-123.3,466c0.5-0.3,0.8-0.9,0.6-1.5c-0.2-0.6-0.7-1-1.3-1h-5.5c-0.7,0-1.3,0.6-1.3,1.3c0,0.7,0.6,1.3,1.3,1.3h1.2
		c-1.7,1.4-2.5,2.5-2.5,3.6c0,1.6,1.7,2.8,4,2.8c2.3,0,4-1.2,4-2.8c0-0.7-0.6-1.3-1.3-1.3c-0.7,0-1.2,0.5-1.3,1.1
		c-0.2,0.1-0.6,0.4-1.4,0.4c-0.7,0-1.1-0.2-1.3-0.3C-127.5,468.9-125.4,467.3-123.3,466z"/>
	<path d="M-106.7,421.9c-1.7-1.2-3.6-1.2-4.4,0c-0.4,0.6-0.3,1.4,0.3,1.8c0.5,0.4,1.2,0.3,1.7-0.1c0.2,0,0.5,0.1,0.9,0.4
		c0.3,0.2,0.5,0.4,0.6,0.6c-0.8,0.2-2.8,0.3-4.6,0.1c-0.6-0.1-1.2,0.3-1.4,0.8c-0.2,0.6,0,1.2,0.5,1.5l3.7,2.6
		c0.2,0.2,0.5,0.2,0.8,0.2c0.4,0,0.8-0.2,1.1-0.6c0.4-0.6,0.3-1.4-0.3-1.8l-0.3-0.2c1.5-0.2,2.5-0.6,3-1.3c0.5-0.7,0.5-1.6,0.1-2.4
		C-105.5,423-106,422.4-106.7,421.9z"/>
	<path d="M-146.4,451.8l2.1-0.8c0.8-0.3,1.5-0.9,1.8-1.7c0.4-0.8,0.4-1.6,0.1-2.5l-0.4-1.2c0,0,0,0,0,0c-0.6-1.7-2.4-2.5-4.1-1.9
		l-2.1,0.8c-0.8,0.3-1.5,0.9-1.8,1.7c-0.4,0.8-0.4,1.6-0.1,2.5l0.4,1.2c0.3,0.8,0.9,1.5,1.7,1.8c0.4,0.2,0.9,0.3,1.4,0.3
		C-147.2,452-146.8,452-146.4,451.8z M-147.8,449.3c-0.1,0-0.2-0.1-0.3-0.3l-0.4-1.2c-0.1-0.2,0-0.4,0-0.4c0-0.1,0.1-0.2,0.3-0.3
		l2.1-0.8c0.1,0,0.1,0,0.2,0c0.2,0,0.5,0.1,0.5,0.4l0.4,1.2c0.1,0.2,0,0.4,0,0.4c0,0.1-0.1,0.2-0.3,0.3l-2.1,0.8
		C-147.5,449.4-147.7,449.4-147.8,449.3z"/>
	<path d="M-114,467l-3.5,2v-4.1c0-0.7-0.6-1.3-1.3-1.3s-1.3,0.6-1.3,1.3v6.4c0,0.5,0.3,0.9,0.7,1.1c0.2,0.1,0.4,0.2,0.7,0.2
		c0.2,0,0.5-0.1,0.7-0.2l5.5-3.2c0.6-0.4,0.8-1.2,0.5-1.8C-112.5,466.8-113.4,466.6-114,467z"/>
	<path d="M-140.1,453.3c-0.2-0.7-1-1-1.7-0.8l-5.6,2c-0.4,0.2-0.8,0.5-0.9,1c-0.1,0.5,0.1,0.9,0.5,1.2l4.6,3.8
		c0.2,0.2,0.5,0.3,0.8,0.3c0.4,0,0.8-0.2,1-0.5c0.5-0.6,0.4-1.4-0.2-1.9l-2.8-2.3l3.5-1.3C-140.2,454.7-139.9,454-140.1,453.3z"/>
	<path d="M-140,428.2c0.3,0.3,0.6,0.5,1,0.5c0.3,0,0.6-0.1,0.8-0.3l3.2-2.6l1.2,1.4c0.3,0.3,0.6,0.5,1,0.5c0.3,0,0.6-0.1,0.8-0.3
		c0.6-0.5,0.6-1.3,0.2-1.9l-2-2.5c0,0,0,0,0,0c0,0,0,0,0,0l-2-2.5c-0.5-0.6-1.3-0.6-1.9-0.2c-0.6,0.5-0.6,1.3-0.2,1.9l1.2,1.4
		l-2.2,1.8l-1.2-1.4c-0.5-0.6-1.3-0.6-1.9-0.2c-0.6,0.5-0.6,1.3-0.2,1.9L-140,428.2z"/>
	<path d="M-104,447.8c-0.6,0.4-0.9,1.2-0.5,1.8l3.7,6.7c0.2,0.4,0.7,0.7,1.2,0.7c0,0,0.1,0,0.1,0c0.5,0,1-0.4,1.1-0.9l1.8-4.7
		c0.3-0.7-0.1-1.4-0.8-1.7c-0.7-0.3-1.4,0.1-1.7,0.8l-0.7,2l-2.3-4.2C-102.6,447.7-103.4,447.5-104,447.8z"/>
	<path d="M-97.2,425.4l0.2,0.3C-97,425.6-97.1,425.5-97.2,425.4z"/>
	<path d="M-90.4,434.1c0-0.2-0.1-0.3-0.2-0.5l-3.8-4.8l-2.5-3.2l-0.2-0.3l-6.1-7.7c-0.2-0.2-0.4-0.3-0.6-0.4l-18.6-6.8
		c-0.2-0.1-0.3-0.1-0.5-0.1c-0.2,0-0.3,0-0.5,0.1l-18.6,6.8c-0.2,0.1-0.4,0.2-0.6,0.4l-12.7,15.9c-0.1,0.1-0.2,0.3-0.2,0.4
		c-0.1,0.2-0.1,0.3-0.1,0.5l0.4,19.3c0,0.3,0.1,0.5,0.2,0.7l11.6,17.5c0.1,0.1,0.2,0.3,0.4,0.4c0.1,0.1,0.3,0.2,0.5,0.2l19.3,4.7
		c0.1,0,0.2,0,0.3,0c0.1,0,0.2,0,0.3,0l19.3-4.7c0.2,0,0.3-0.1,0.5-0.2c0.1-0.1,0.3-0.2,0.4-0.4l11.6-17.5c0.1-0.2,0.2-0.5,0.2-0.7
		l0.4-19.3C-90.3,434.4-90.4,434.3-90.4,434.1z M-121.6,413.6l16.5,6l8.6,10.9l2.6,3.3l-9.5,3.1l-18.2-13.3L-121.6,413.6z M-123,426
		l17.8,12.9l-6.8,20.9h-22l-6.8-20.9L-123,426z M-140.9,419.6l16.5-6l0,10.1l-18.2,13.3l-9.5-3.1L-140.9,419.6z M-152.7,453.5
		l-0.3-17.1l9.6,3.1l7,21.4l-5.9,8.1L-152.7,453.5z M-123,474.7l-17.1-4.1l5.8-8.1h22.6l5.8,8.1L-123,474.7z M-93.3,453.5
		l-10.3,15.6l-5.9-8.1l7-21.4l9.6-3.1L-93.3,453.5z"/>
</g>
</svg>
