<?xml version="1.0" encoding="utf-8"?>
<!-- Generator: Adobe Illustrator 19.0.0, SVG Export Plug-In . SVG Version: 6.00 Build 0)  -->
<svg version="1.1" id="Capa_1" xmlns="http://www.w3.org/2000/svg" xmlns:xlink="http://www.w3.org/1999/xlink" x="0px" y="0px"
	 viewBox="-210 325.9 173.5 190" style="enable-background:new -210 325.9 173.5 190;" xml:space="preserve">
<path d="M-53.1,368.9c-8.3,0.4-13.3,0.6-14.8,0.6c-1.7,0-6.5-0.2-14.6-0.6l-0.6,0.6v3.1l0.6,0.6c5.6,0.1,9.1,0.4,10.2,0.7
	c1.2,0.3,1.8,1.1,1.8,2.4c0,1.1-0.9,5.3-2.7,12.6c-1.8,7.3-3.3,13.1-4.6,17.6l-10.6,37.1l-0.1-0.3l-21.9-51.4
	c-2.7-7.8-5.4-15.8-8-24h-4.6c-2.2,6.2-4.4,12.3-6.6,18.3c-1.6,3.8-3.2,7.6-4.8,11.4l-19.3,43.8l-1.2,2.6l-10.3-45.4
	c-0.8-3.3-1.6-7.6-2.6-12.9c-0.9-5.3-1.4-8.4-1.4-9.4c0-1.2,0.5-2,1.6-2.3c1.1-0.3,4.2-0.6,9.5-0.8l0.6-0.6v-3.1l-0.6-0.6
	c-7.5,0.4-13.3,0.6-17.2,0.6c-5.3,0-11.3-0.2-18.1-0.6l-0.6,0.6v3.1l0.6,0.6c3.9,0.5,6.5,1,7.7,1.5c1.2,0.5,2.3,3.1,3.4,7.8
	l13.7,58.5l4.8,22.2c-0.9,1.8-1.6,3-2,3.5c-0.8,0.9-1.7,1.5-2.7,1.8c-1,0.3-3.2,0.5-6.7,0.5l-0.6,0.6v3.7l0.6,0.6
	c5.3-0.4,10.6-0.6,15.8-0.6c4.6,0,10,0.2,16.1,0.6l0.6-0.6v-3.7l-0.6-0.6c-5.2,0-8.4-0.4-9.7-0.9c-0.3-0.1-0.6-0.3-0.8-0.5l2.9-8.2
	c1.2-3.3,2.8-7.6,4.8-12.9l2.5-6.5h37.2c2.7,7.7,6,17.1,9.8,28.4c-1.6,0.3-4.7,0.5-9.4,0.6l-0.6,0.6v3.7l0.6,0.6
	c7.9-0.2,15.7-0.4,23.6-0.6c4,0,8.6,0.2,13.6,0.6l0.6-0.6v-3.7l-0.6-0.6c-3,0-5-0.2-5.9-0.5c-0.9-0.3-1.6-0.7-2.2-1.3
	c-0.6-0.6-1.7-2.4-3.2-5.6c-1.5-3-2.7-5.8-3.9-8.3l3.2-12c2.8-10.6,4.7-17.6,5.8-21.1l7.3-24l4.1-13.2c1.2-4,2.2-6.5,2.8-7.3
	c0.7-0.8,1.4-1.4,2.3-1.8c0.9-0.4,2.7-0.7,5.4-0.7l0.6-0.5v-3.2L-53.1,368.9z M-138.6,426.7l14.2-35.1l15.7,42.5h-32.7L-138.6,426.7
	z"/>
</svg>
