<?xml version="1.0" encoding="utf-8"?>
<!-- Generator: Adobe Illustrator 19.0.0, SVG Export Plug-In . SVG Version: 6.00 Build 0)  -->
<svg version="1.1" id="Capa_1" xmlns="http://www.w3.org/2000/svg" xmlns:xlink="http://www.w3.org/1999/xlink" x="0px" y="0px"
	 viewBox="-210 325.9 173.5 190" style="enable-background:new -210 325.9 173.5 190;" xml:space="preserve">
<text transform="matrix(1 0 0 1 87.6401 746.8352)" style="font-family:'MyriadPro-Regular'; font-size:12px;">d-11424</text>
<path d="M-40.3,485.8L-95.6,390l-20.3-35.1l-2.6-4.6c-1-1.7-2.8-2.7-4.8-2.7s-3.8,1.1-4.8,2.8l-2.6,4.5l-25.1,43.5l-50.5,87.5
	c-1,1.7-1,3.8,0,5.5s2.8,2.7,4.8,2.7h156.3c2,0,3.8-1.1,4.8-2.8C-39.3,489.6-39.3,487.5-40.3,485.8z M-191.9,483.1l43.9-76.2
	l24.7-42.7l20,34.7l48.7,84.2H-191.9z"/>
<g>
	<g>
		<path d="M-97.7,460.6c-0.5,0-0.9-0.2-1.3-0.5l-19.2-15.6c-0.5-0.4-0.8-1-0.8-1.6s0.3-1.2,0.8-1.6l19.3-15.6
			c0.7-0.6,1.8-0.6,2.5-0.1c0.8,0.6,1.1,1.5,0.8,2.4l-1.7,4.6l16.4-2.6l0,0c0.9-0.1,1.7,0.1,2.4,0.7c0.7,0.6,1,1.4,1,2.3v19.8
			c0,0.9-0.4,1.7-1,2.3s-1.5,0.8-2.4,0.7l-16.4-2.6l1.7,4.6c0.3,0.9,0,1.9-0.8,2.4C-96.8,460.5-97.3,460.6-97.7,460.6z
			 M-115.5,442.9l15.8,12.8l-1.4-3.8c-0.1-0.2-0.1-0.4-0.1-0.5c0-0.5,0.1-0.9,0.5-1.2c0.3-0.3,0.8-0.5,1.3-0.4l18.9,3V433l-18.9,3
			c-0.5,0.1-1-0.1-1.3-0.4s-0.5-0.8-0.4-1.3c0-0.1,0-0.2,0.1-0.3l1.4-3.8L-115.5,442.9z"/>
	</g>
	<g>
		<path d="M-149,460.6c-0.4,0-0.8-0.1-1.2-0.4c-0.8-0.6-1.1-1.5-0.7-2.4l1.7-4.6l-16.4,2.6c-0.9,0.1-1.7-0.1-2.4-0.7
			c-0.7-0.6-1-1.4-1-2.3V433c0-0.9,0.4-1.7,1-2.3c0.7-0.6,1.5-0.8,2.4-0.7l16.4,2.6l-1.7-4.6c-0.3-0.9,0-1.9,0.8-2.4
			c0.8-0.6,1.8-0.5,2.5,0.1l19.3,15.6c0.5,0.4,0.8,1,0.8,1.6s-0.3,1.2-0.8,1.6l-19.2,15.6C-148.1,460.4-148.5,460.6-149,460.6z"/>
	</g>
</g>
<g>
	<g>
		<path d="M-123.2,438.7c-0.8,0-1.5-0.7-1.5-1.5v-33.6c0-0.8,0.7-1.5,1.5-1.5s1.5,0.7,1.5,1.5v33.6
			C-121.7,438-122.4,438.7-123.2,438.7z"/>
	</g>
	<g>
		<path d="M-117.8,435.8c-0.2,0-0.5-0.1-0.7-0.2c-0.7-0.4-1-1.3-0.6-2l10.7-19.2c0.4-0.7,1.3-1,2-0.6s1,1.3,0.6,2l-10.7,19.2
			C-116.7,435.5-117.3,435.8-117.8,435.8z"/>
	</g>
	<g>
		<path d="M-128.7,435.8c-0.5,0-1-0.3-1.3-0.8l-10.7-19.2c-0.4-0.7-0.1-1.6,0.6-2s1.6-0.1,2,0.6l10.7,19.2c0.4,0.7,0.1,1.6-0.6,2
			C-128.2,435.8-128.5,435.8-128.7,435.8z"/>
	</g>
	<g>
		<g>
			<path d="M-123.2,483.7c-0.8,0-1.5-0.7-1.5-1.5v-33.6c0-0.8,0.7-1.5,1.5-1.5s1.5,0.7,1.5,1.5v33.6
				C-121.7,483.1-122.4,483.7-123.2,483.7z"/>
		</g>
		<g>
			<path d="M-139.4,472.2c-0.2,0-0.5-0.1-0.7-0.2c-0.7-0.4-1-1.3-0.6-2l10.7-19.2c0.4-0.7,1.3-1,2-0.6s1,1.3,0.6,2l-10.7,19.2
				C-138.4,471.9-138.9,472.2-139.4,472.2z"/>
		</g>
		<g>
			<path d="M-107.1,472.2c-0.5,0-1-0.3-1.3-0.8l-10.7-19.2c-0.4-0.7-0.1-1.6,0.6-2s1.6-0.1,2,0.6l10.7,19.2c0.4,0.7,0.1,1.6-0.6,2
				C-106.6,472.2-106.8,472.2-107.1,472.2z"/>
		</g>
	</g>
</g>
</svg>
