<?xml version="1.0" encoding="utf-8"?>
<!-- Generator: Adobe Illustrator 19.0.0, SVG Export Plug-In . SVG Version: 6.00 Build 0)  -->
<svg version="1.1" id="Capa_1" xmlns="http://www.w3.org/2000/svg" xmlns:xlink="http://www.w3.org/1999/xlink" x="0px" y="0px"
	 viewBox="-210 325.9 173.5 190" style="enable-background:new -210 325.9 173.5 190;" xml:space="preserve">
<g id="XMLID_100_">
	<path d="M-45.1,494.1h-156.3c-2,0-3.8-1-4.8-2.7s-1-3.8,0-5.5l78.1-135.4c1-1.7,2.8-2.8,4.8-2.8l0,0c2,0,3.8,1,4.8,2.7l78.2,135.4
		c1,1.7,1,3.8,0,5.5C-41.3,493-43.1,494.1-45.1,494.1z M-191.9,483.1h137.3l-68.7-118.9L-191.9,483.1z"/>
</g>
<g>
	<path d="M-152.6,415.2c5.1,0,10.1,0,15.2,0c0.1,3.1,1.3,6.1,3.6,8.5c2.2,2.2,4.9,3.5,7.8,4c0,6.8,0,13.7,0,20.5c0,0,0,0.1,0,0.1
		c-0.2,3,5.8,2.2,6.6-0.2c0,0,0-0.1,0-0.1c0-0.1,0.1-0.2,0.1-0.3c0.5-9,8.4-16.9,17.5-12.2c6.7,3.4,9.4,11.8,6.6,18.6
		c-2.3,5.6-8.2,9.3-11.7,14.1c-3.4,4.6-4.9,9.5-5.1,15.2c-0.1,3.2,6.6,2.1,6.7-0.6c0.3-11.2,7.3-15.7,13.8-23.7
		c5.1-6.3,5.6-15.4,0.8-22c-7.2-10-20.6-9.1-28.7-2.1c0-2.5,0-5,0-7.5c2.3-0.6,4.4-1.6,6.3-3.1c2.9-2.4,4.6-5.7,5-9.2
		c4.3,0,8.6,0,12.9,0c2.9,0,6.9-4.5,2.4-4.5c-5.2,0-10.3,0-15.5,0c-0.5-2.2-1.6-4.4-3.3-6.2c-5.8-5.4-14.6-5.7-20.8-0.7
		c-2.2,1.8-3.8,4.2-4.6,6.9c-4.4,0-8.9,0-13.3,0C-153.1,410.8-157.1,415.2-152.6,415.2z M-127.7,420.8c-1.6-1.5-2.6-3.5-2.9-5.6
		c1.5,0,3.1,0,4.6,0c0,2.3,0,4.6,0,6.9C-126.6,421.8-127.2,421.3-127.7,420.8z M-116,419.7c-0.9,1.4-2,2.3-3.3,2.9
		c0-2.5,0-4.9,0-7.4c1.6,0,3.2,0,4.7,0C-114.6,416.8-115,418.3-116,419.7z M-129.3,408.5c2.8-4.3,8.1-4.4,11.7-1.1
		c0.9,1,1.6,2.1,2.2,3.3c-5,0-10,0-14.9,0C-130.1,410-129.8,409.2-129.3,408.5z"/>
</g>
</svg>
