<?xml version="1.0" encoding="utf-8"?>
<!-- Generator: Adobe Illustrator 19.0.0, SVG Export Plug-In . SVG Version: 6.00 Build 0)  -->
<svg version="1.1" id="Capa_1" xmlns="http://www.w3.org/2000/svg" xmlns:xlink="http://www.w3.org/1999/xlink" x="0px" y="0px"
	 viewBox="-210 325.9 173.5 190" style="enable-background:new -210 325.9 173.5 190;" xml:space="preserve">
<style type="text/css">
	.st0{clip-path:url(#SVGID_1_);}
</style>
<g id="XMLID_100_">
	<path d="M-45.1,494.1h-156.3c-2,0-3.8-1-4.8-2.7s-1-3.8,0-5.5l78.1-135.4c1-1.7,2.8-2.8,4.8-2.8l0,0c2,0,3.8,1,4.8,2.7l78.2,135.4
		c1,1.7,1,3.8,0,5.5C-41.3,493-43.1,494.1-45.1,494.1z M-191.9,483.1h137.3l-68.7-118.9L-191.9,483.1z"/>
</g>
<g>
	<g>
		<defs>
			<rect id="SVGID_3_" x="-162.7" y="404.6" width="78.8" height="74.2"/>
		</defs>
		<clipPath id="SVGID_1_">
			<use xlink:href="#SVGID_3_"  style="overflow:visible;"/>
		</clipPath>
		<path class="st0" d="M-117.5,440.8c-0.9-1.5-2.3-2.7-4.1-3.1c-0.5-0.1-1.1-0.2-1.6-0.2c-1.2,0-2.4,0.3-3.5,0.9
			c-1.5,0.9-2.7,2.3-3.1,4.1c-0.5,1.7-0.2,3.5,0.7,5.1c0.9,1.5,2.3,2.7,4.1,3.1c1.7,0.5,3.5,0.2,5.1-0.7
			C-116.7,448.1-115.6,444-117.5,440.8L-117.5,440.8z M-117.5,440.8"/>
		<path class="st0" d="M-130.5,435.9c0.5-0.5,1.1-0.9,1.8-1.3c2.5-1.5,5.5-1.9,8.3-1.1c1.7,0.4,3.2,1.2,4.4,2.3l13.2-22.9
			c0.3-0.5,0.4-1.1,0.2-1.6c-0.1-0.5-0.5-1-1-1.3c-12.2-7-27.2-7-39.4,0c-0.5,0.3-0.9,0.8-1,1.3c-0.1,0.5-0.1,1.1,0.2,1.6
			L-130.5,435.9z M-130.5,435.9"/>
		<path class="st0" d="M-84.5,442.6c-0.4-0.4-0.9-0.6-1.5-0.6h-26.5c0.9,4.5-1.1,9.2-5.3,11.7c-0.6,0.4-1.3,0.7-2,0.9l13.2,22.9
			c0.3,0.5,0.8,0.9,1.3,1c0.2,0,0.3,0.1,0.5,0.1c0.4,0,0.8-0.1,1.1-0.3c12.1-7,19.7-20.1,19.7-34.1C-83.9,443.6-84.1,443-84.5,442.6
			L-84.5,442.6z M-84.5,442.6"/>
		<path class="st0" d="M-132.8,449.6c-1.3-2.3-1.8-5-1.3-7.6h-26.5c-1.2,0-2.1,1-2.1,2.1c0,6.9,1.8,13.7,5.3,19.7
			c3.5,6,8.4,11,14.4,14.4c0.3,0.2,0.7,0.3,1,0.3c0.8,0,1.5-0.4,1.9-1.1l13.2-22.9C-129.3,453.7-131.5,452-132.8,449.6L-132.8,449.6
			z M-132.8,449.6"/>
	</g>
</g>
</svg>
