<?xml version="1.0" encoding="utf-8"?>
<!-- Generator: Adobe Illustrator 19.0.0, SVG Export Plug-In . SVG Version: 6.00 Build 0)  -->
<svg version="1.1" id="Capa_1" xmlns="http://www.w3.org/2000/svg" xmlns:xlink="http://www.w3.org/1999/xlink" x="0px" y="0px"
	 viewBox="-210 325.9 173.5 190" style="enable-background:new -210 325.9 173.5 190;" xml:space="preserve">
<g id="XMLID_100_">
	<path d="M-45.1,494.1h-156.3c-2,0-3.8-1-4.8-2.7s-1-3.8,0-5.5l78.1-135.4c1-1.7,2.8-2.8,4.8-2.8l0,0c2,0,3.8,1,4.8,2.7l78.2,135.4
		c1,1.7,1,3.8,0,5.5C-41.3,493-43.1,494.1-45.1,494.1z M-191.9,483.1h137.3l-68.7-118.9L-191.9,483.1z"/>
</g>
<path d="M-94.7,461.3c-0.6,0-1.2,0.5-1.2,1.2c-0.2,0-0.3,0-0.5,0.1c-1.4,0.5-2.8-1-4.2-1.4c-1.5-0.4-6.1,1.5-6.1,1.5
	s12.5-7.7,10.3-17.7c-0.6-2.9-9.5,1-14.1,3.3c0,0,0,0,0,0c0.5-3.7-0.2-6.9-1.1-9.7c2.3,1.1,5,1,8.1,1.8c3.7,1,3.4-3.4,0.9-9.3
	c-0.8-2-4.6-7.3-4.5-9.1c0.1-1.3,2-3.7,2.9-5.1c0.1,0,0.2,0.1,0.3,0.1c0.5,0,0.9-0.4,0.9-0.9s-0.4-0.9-0.9-0.9
	c-0.5,0-0.9,0.4-0.9,0.9c0,0,0,0.1,0,0.1c-1.1,1-2.5,3.4-2.5,3.4c-0.2-1.5,1.4-4.1,1.9-5.6l0,0c0.5,0,0.9-0.4,0.9-0.9
	c0-0.5-0.4-0.9-0.9-0.9c-0.5,0-0.9,0.4-0.9,0.9c0,0.2,0.1,0.4,0.2,0.5c-1,1.5-2.6,5.3-2.6,5.3c-0.2-1.9,0.3-4.4,0.6-5.7
	c0.4-0.1,0.7-0.5,0.7-0.9c0-0.5-0.4-0.9-0.9-0.9c-0.5,0-0.9,0.4-0.9,0.9c0,0.3,0.1,0.5,0.3,0.7c-0.5,1.2-0.9,3.7-0.9,8.1
	c0,6.1,1.9,10.4,2.7,11.9c0,0,0,0,0-0.1c-1.4-2.1-5.6-3.5-7-3.9c0-2,0.3-3.8,0.4-4.4c0.3-1.2,1.1-3.2-0.6-5.1
	c-0.7-0.7-2.7-1.7-3.9-3.3c-2-2.7-4.2-2.3-4.2-2.3s-2.1-0.4-4.1,2.3c-1.2,1.6-3.1,2.5-3.8,3.3c-1.7,1.9-0.9,4-0.6,5.1
	c0.2,0.6,0.4,2.4,0.4,4.5c-1.7,0.5-5.5,1.9-6.8,3.8c0,0,0,0,0,0.1c0.8-1.5,2.7-5.8,2.7-11.9c0-4.3-0.4-6.9-0.9-8.1
	c0.2-0.2,0.3-0.4,0.3-0.7c0-0.5-0.4-0.9-1-0.9c-0.5,0-1,0.4-1,0.9c0,0.4,0.3,0.8,0.7,0.9c0.2,1.4,0.8,3.8,0.6,5.7
	c0,0-1.6-3.8-2.6-5.3c0.1-0.2,0.2-0.3,0.2-0.5c0-0.5-0.4-0.9-1-0.9c-0.5,0-1,0.4-1,0.9c0,0.5,0.4,0.9,1,0.9l0,0
	c0.4,1.5,2,4.1,1.9,5.6c0,0-1.4-2.5-2.5-3.4c0,0,0-0.1,0-0.1c0-0.5-0.4-0.9-1-0.9c-0.5,0-1,0.4-1,0.9c0,0.5,0.4,0.9,1,0.9
	c0.1,0,0.2,0,0.3-0.1c0.9,1.4,2.9,3.8,2.9,5.1c0.1,1.8-3.7,7.2-4.6,9.1c-2.4,5.9-2.8,10.3,1,9.3c3-0.8,5.7-0.7,8-1.7
	c-0.9,2.7-1.5,6-1,9.6c0,0.2,0.1,0.4,0.1,0.5c-4.9-2.2-14.7-6.2-15.4-3.4c-2.4,9.6,11,17.1,11,17.1s-4.9-1.8-6.5-1.4
	c-1.6,0.4-3,1.8-4.5,1.3c-0.2-0.1-0.4-0.1-0.6-0.1c-0.1-0.6-0.6-1.1-1.3-1.1c-0.7,0-1.3,0.5-1.3,1.2c0,0.7,0.6,1.2,1.3,1.2
	c0.1,0,0.3,0,0.4-0.1c0.1,0.1,0.2,0.1,0.3,0.2c2.4,1.1,6.1-0.6,8.1,0c2.7,0.8,14,3.1,10.1-1.3l-4.4-4.6c3.4,3.3,9.1,7.9,12.6,5.8
	c0.6,0.7,1.1,1.3,1.9,1.3c0.9,0,1.5-0.7,2.2-1.6c3.2,3,9-2,12.3-5.6l-4.1,4.7c-3.7,4.6,6.9,2.1,9.4,1.4c1.8-0.6,5.3,1.2,7.5,0
	c0.1-0.1,0.2-0.1,0.3-0.2c0.1,0,0.3,0.1,0.4,0.1c0.7,0,1.2-0.6,1.2-1.3C-93.5,461.9-94,461.3-94.7,461.3z"/>
</svg>
