<?xml version="1.0" encoding="utf-8"?>
<!-- Generator: Adobe Illustrator 19.0.0, SVG Export Plug-In . SVG Version: 6.00 Build 0)  -->
<svg version="1.1" id="Capa_1" xmlns="http://www.w3.org/2000/svg" xmlns:xlink="http://www.w3.org/1999/xlink" x="0px" y="0px"
	 viewBox="-210 325.9 173.5 190" style="enable-background:new -210 325.9 173.5 190;" xml:space="preserve">
<g id="XMLID_100_">
	<path d="M-45.1,494.1h-156.3c-2,0-3.8-1-4.8-2.7s-1-3.8,0-5.5l78.1-135.4c1-1.7,2.8-2.8,4.8-2.8l0,0c2,0,3.8,1,4.8,2.7l78.2,135.4
		c1,1.7,1,3.8,0,5.5C-41.3,493-43.1,494.1-45.1,494.1z M-191.9,483.1h137.3l-68.7-118.9L-191.9,483.1z"/>
</g>
<g>
	<path d="M-88.5,477.7h-15.2c0-0.3,0.1-0.6,0.1-0.9c0-3.4-2.8-6.3-6.3-6.3c-0.1,0-0.2,0-0.3,0c0.3-16.5,0.4-19.5,0.5-20
		c1.2-4.3,3-8.4,5.5-12.1l7.7-11.6c0.5-0.8,0.8-1.8,0.8-2.7c0-1.4-0.6-2.8-1.6-3.7c-1-0.9-2.3-1.3-3.6-1.3c-1.3,0.1-2.6,0.7-3.4,1.7
		l-3.3,3.7l3.6-11c0.2-0.5,0.3-1.1,0.3-1.7c0-2.1-1.3-4.1-3.2-4.9c-1.4-0.6-2.9-0.6-4.3,0c-1.4,0.6-2.4,1.8-2.9,3.2l-1.9,5.6
		l0.6-10.5c0-0.1,0-0.2,0-0.3c0-3.1-2.4-5.6-5.5-5.7c-3.1-0.1-5.7,2.3-5.9,5.4l-0.4,7.1l-0.8-5.1c-0.4-2.7-2.7-4.6-5.4-4.6
		c-0.4,0-0.7,0-1.1,0.1c-2.8,0.6-4.6,3.1-4.3,5.9l2.3,20.6c0,0.4-0.2,0.6-0.3,0.6c-0.1,0.1-0.4,0.2-0.7-0.1c-1.8-1.4-4-3.2-5.8-4.6
		c-1.2-1-2.8-1.4-4.4-1.2c-1.6,0.2-3,1.1-3.9,2.4l-0.1,0.1c-0.9,1.3-1.2,2.8-0.9,4.4c0.3,1.5,1.2,2.8,2.5,3.7l0.5,0.3
		c3.2,2,5.9,4.9,7.7,8.3c0.7,1.4,1.8,2.6,3.1,3.4c1.1,0.8,1.9,2,2.1,3.4l0.3,20.9c-0.1,0-0.2,0-0.2,0c-4,0-7.2,3.2-7.2,7.2
		c0,0.1,0,0.2,0,0.2H-158c-0.8,0-1.4,0.6-1.4,1.4c0,0.8,0.6,1.4,1.4,1.4h69.6c0.8,0,1.4-0.6,1.4-1.4
		C-87.1,478.3-87.7,477.7-88.5,477.7z M-133.8,449.3c0,0,0-0.1,0-0.1c-0.3-2.2-1.5-4.2-3.3-5.4c-0.9-0.6-1.6-1.4-2.2-2.4
		c-2-3.8-5-7-8.7-9.4l-0.5-0.3c-0.7-0.4-1.1-1.1-1.3-1.9c-0.2-0.8,0-1.6,0.4-2.2l0.1-0.1c0.5-0.7,1.2-1.1,2-1.3
		c0.8-0.1,1.6,0.1,2.2,0.6c1.8,1.4,4,3.2,5.8,4.6c0.3,0.2,1.6,0.8,1.8,0.9c1.2,0.5,2.7,0.8,4.2,1.1c5.4,1.1,10.9,2.3,11.3,10.2
		c0,0.7,0.7,1.3,1.4,1.3c0,0,0,0,0.1,0c0.8,0,1.4-0.7,1.3-1.5c-0.5-10-8-11.6-13.5-12.8c-0.5-0.1-1-0.2-1.5-0.3
		c0.3-0.6,0.5-1.3,0.4-2l-2.3-20.6c-0.2-1.3,0.8-2.6,2.1-2.9c0.2,0,0.4-0.1,0.5-0.1c1.3,0,2.4,1,2.6,2.2l2.2,14.5
		c0.1,0.9,0.9,1.6,1.9,1.5c0.9,0,1.7-0.8,1.7-1.7l0.9-16.6c0.1-1.6,1.4-2.8,3-2.8c1.6,0.1,2.8,1.3,2.8,2.9c0,0.1,0,0.1,0,0.2
		l-0.8,15.4c-0.1,1.1,0.7,2,1.7,2.2c1,0.2,2.1-0.4,2.4-1.4l3.5-10.1c0.2-0.7,0.7-1.2,1.4-1.5c0.7-0.3,1.4-0.3,2,0
		c0.9,0.4,1.5,1.3,1.5,2.3c0,0.3,0,0.5-0.1,0.8l-4.4,13.3c-0.3,1.1,0.1,2.2,1,2.7c1,0.5,2.1,0.3,2.9-0.5l4.8-5.6
		c0.4-0.4,0.9-0.7,1.5-0.7c0.6,0,1.1,0.2,1.6,0.6c0.5,0.4,0.7,1,0.7,1.6c0,0.4-0.1,0.8-0.4,1.2l-7.7,11.6c-2.6,4-4.6,8.3-5.9,13
		c-0.1,0.3-0.2,0.9-0.6,21.5c-0.4,0.3-0.8,0.6-1.2,0.9c-1.3-1.3-3.1-2-5-2c-2.1,0-4,0.9-5.4,2.4c-0.9-0.5-1.9-0.8-2.9-0.8
		c-1.3,0-2.4,0.4-3.4,1.2c-0.7-0.9-1.6-1.6-2.6-2.1L-133.8,449.3z M-140.9,477.5c0-2.4,2-4.4,4.4-4.4c1.8,0,3.5,1.1,4.1,2.8
		c0.2,0.5,0.7,0.9,1.2,0.9c0.5,0,1.1-0.2,1.3-0.7c0.5-0.9,1.4-1.4,2.4-1.4c0.8,0,1.6,0.3,2.1,1c0.3,0.3,0.8,0.5,1.2,0.5
		c0.5-0.1,0.9-0.3,1.1-0.7c0.8-1.4,2.2-2.3,3.9-2.3c1.6,0,3,0.8,3.8,2.2c0.3,0.4,0.7,0.7,1.2,0.7c0.5,0,1-0.3,1.2-0.7
		c0.6-1.2,1.8-1.9,3.1-1.9c1.9,0,3.5,1.6,3.5,3.5c0,0.3,0,0.6-0.1,0.9h-34.4C-140.9,477.6-140.9,477.6-140.9,477.5z"/>
	<path d="M-101.4,469.8c2.3,0,4.1-1.9,4.1-4.1s-1.9-4.1-4.1-4.1s-4.1,1.9-4.1,4.1S-103.7,469.8-101.4,469.8z M-101.4,464.3
		c0.7,0,1.3,0.6,1.3,1.3c0,0.7-0.6,1.3-1.3,1.3s-1.3-0.6-1.3-1.3C-102.7,464.9-102.1,464.3-101.4,464.3z"/>
	<path d="M-144.4,463.6c2.6,0,4.7-2.1,4.7-4.7c0-2.6-2.1-4.7-4.7-4.7s-4.7,2.1-4.7,4.7C-149.1,461.5-147,463.6-144.4,463.6z
		 M-144.4,457c1.1,0,1.9,0.9,1.9,1.9c0,1.1-0.9,1.9-1.9,1.9s-1.9-0.9-1.9-1.9C-146.3,457.8-145.5,457-144.4,457z"/>
	<circle cx="-96.5" cy="470.6" r="1.4"/>
	<circle cx="-106" cy="449" r="1.4"/>
	<circle cx="-149.3" cy="467" r="1.4"/>
	<circle cx="-146.7" cy="444" r="1.4"/>
</g>
</svg>
