<?xml version="1.0" encoding="utf-8"?>
<!-- Generator: Adobe Illustrator 19.0.0, SVG Export Plug-In . SVG Version: 6.00 Build 0)  -->
<svg version="1.1" id="Capa_1" xmlns="http://www.w3.org/2000/svg" xmlns:xlink="http://www.w3.org/1999/xlink" x="0px" y="0px"
	 viewBox="-210 325.9 173.5 190" style="enable-background:new -210 325.9 173.5 190;" xml:space="preserve">
<g id="XMLID_100_">
	<path d="M-45.1,494.1h-156.3c-2,0-3.8-1-4.8-2.7s-1-3.8,0-5.5l78.1-135.4c1-1.7,2.8-2.8,4.8-2.8l0,0c2,0,3.8,1,4.8,2.7l78.2,135.4
		c1,1.7,1,3.8,0,5.5C-41.3,493-43.1,494.1-45.1,494.1z M-191.9,483.1h137.3l-68.7-118.9L-191.9,483.1z"/>
</g>
<path d="M-123.3,474.8c16.5,0,29.9-13.4,29.9-29.9s-13.4-29.9-29.9-29.9s-29.9,13.4-29.9,29.9S-139.8,474.8-123.3,474.8z
	 M-104.8,442.2c0.1,0.9,0.2,1.8,0.2,2.7c0,8.4-5.8,16.2-14.7,18.2c-0.7,0.2-1.4,0.2-2.1,0.3c-0.3,0-0.5,0.2-0.5,0.5
	c-0.1,0.5-0.2,1-0.3,1.4c-0.1,0.6-0.4,0.7-0.9,0.3c-2.5-2.2-4.9-4.4-7.4-6.6c-0.4-0.4-0.4-0.7,0.2-0.9c3.1-1,6.2-2.1,9.4-3.1
	c0.6-0.2,0.8,0,0.7,0.6c0,0.2-0.1,0.5-0.1,0.7c-0.1,0.6,0.2,0.8,0.7,0.6c0.5-0.2,1.1-0.4,1.6-0.6c4-1.9,6.4-5.1,7.3-9.5
	c0.1-0.6,0.1-1.1,0.1-1.7l2.6,2.4c0.2,0.2,0.5,0.3,0.8,0.3c0.1,0,0.2,0,0.4-0.1c0.4-0.1,0.7-0.5,0.8-0.9l1.1-5.2
	C-104.8,442-104.8,442.1-104.8,442.2z M-134.7,430c2.5-1.9,5.4-3.2,8.6-3.6c7.2-0.9,13.1,1.6,17.6,7.3c0.4,0.6,0.5,0.6,1.2,0.4
	c0.4-0.1,0.8-0.3,1.1-0.4c0.6-0.2,0.8,0.1,0.7,0.7c-0.2,0.8-0.3,1.5-0.5,2.3c-0.5,2.4-1,4.9-1.6,7.3c-0.1,0.5-0.4,0.7-0.8,0.3
	c-2.5-2.2-5-4.4-7.4-6.6c-0.4-0.4-0.3-0.7,0.2-0.8c0.2-0.1,0.5-0.1,0.7-0.2c0.6-0.2,0.7-0.6,0.2-1c-1.6-1.5-3.5-2.6-5.7-3.1
	c-1-0.2-2-0.3-3-0.4c-2.1,0.1-4,0.6-5.8,1.5l0.8-3.4c0.1-0.4,0-0.8-0.4-1.1c-0.3-0.3-0.8-0.4-1.2-0.2l-5.2,1.7
	C-135.1,430.3-134.9,430.2-134.7,430z M-140.8,436.5c-0.3-0.3-0.6-0.5-0.9-0.8c-0.5-0.4-0.4-0.8,0.2-0.9c2.8-0.9,5.6-1.8,8.4-2.7
	c0.4-0.1,0.7-0.2,1.1-0.3c0.4-0.1,0.7,0,0.6,0.5c-0.1,0.8-0.3,1.5-0.4,2.3c-0.5,2.5-1,4.9-1.5,7.3c0,0.1,0,0.3-0.1,0.4
	c-0.1,0.3-0.4,0.4-0.7,0.2c-0.2-0.2-0.5-0.4-0.7-0.6c-0.4-0.3-0.8-0.2-0.9,0.3c-0.2,1-0.3,2-0.4,2.7c0.2,4.9,2.2,8.5,6,11l-3.3,1
	c-0.4,0.1-0.7,0.5-0.8,0.9c-0.1,0.4,0,0.8,0.4,1.1l4,3.6c-6.2-2.4-10.2-7-11.7-13.6c-0.9-3.8-0.4-7.5,1.1-11.1
	C-140.2,437-140.2,437-140.8,436.5z"/>
</svg>
