<?xml version="1.0" encoding="utf-8"?>
<!-- Generator: Adobe Illustrator 19.0.0, SVG Export Plug-In . SVG Version: 6.00 Build 0)  -->
<svg version="1.1" id="Capa_1" xmlns="http://www.w3.org/2000/svg" xmlns:xlink="http://www.w3.org/1999/xlink" x="0px" y="0px"
	 viewBox="-210 325.9 173.5 190" style="enable-background:new -210 325.9 173.5 190;" xml:space="preserve">
<g id="XMLID_100_">
	<path d="M-45.1,494.1h-156.3c-2,0-3.8-1-4.8-2.7s-1-3.8,0-5.5l78.1-135.4c1-1.7,2.8-2.8,4.8-2.8l0,0c2,0,3.8,1,4.8,2.7l78.2,135.4
		c1,1.7,1,3.8,0,5.5C-41.3,493-43.1,494.1-45.1,494.1z M-191.9,483.1h137.3l-68.7-118.9L-191.9,483.1z"/>
</g>
<g>
	<path d="M-154.3,422.5v36.6h62v-36.6H-154.3z M-150,426.7h53.5v4.2H-150V426.7z M-148.6,440.8c0-2.1,0.6-4,1.5-5.6h5.5
		c-1.7,1.3-2.8,3.3-2.8,5.6c0,2.3,1.1,4.3,2.8,5.6h-5.5C-148.1,444.8-148.6,442.8-148.6,440.8L-148.6,440.8z M-113.4,435.1v11.3
		h-19.7v-11.3H-113.4z M-99.4,435.1c1,1.7,1.5,3.6,1.5,5.6s-0.6,4-1.5,5.6h-5.5c1.7-1.3,2.8-3.3,2.8-5.6c0-2.3-1.1-4.3-2.8-5.6
		H-99.4z M-109.2,443.6V438c1.6,0,2.8,1.3,2.8,2.8S-107.6,443.6-109.2,443.6L-109.2,443.6z M-137.3,438v5.6c-1.6,0-2.8-1.3-2.8-2.8
		S-138.9,438-137.3,438L-137.3,438z M-137.3,438"/>
</g>
</svg>
