<?xml version="1.0" encoding="utf-8"?>
<!-- Generator: Adobe Illustrator 19.0.0, SVG Export Plug-In . SVG Version: 6.00 Build 0)  -->
<svg version="1.1" id="Capa_1" xmlns="http://www.w3.org/2000/svg" xmlns:xlink="http://www.w3.org/1999/xlink" x="0px" y="0px"
	 viewBox="-210 325.9 173.5 190" style="enable-background:new -210 325.9 173.5 190;" xml:space="preserve">
<style type="text/css">
	.st0{clip-path:url(#SVGID_1_);}
</style>
<g id="XMLID_100_">
	<path d="M-45.1,494.1h-156.3c-2,0-3.8-1-4.8-2.7s-1-3.8,0-5.5l78.1-135.4c1-1.7,2.8-2.8,4.8-2.8l0,0c2,0,3.8,1,4.8,2.7l78.2,135.4
		c1,1.7,1,3.8,0,5.5C-41.3,493-43.1,494.1-45.1,494.1z M-191.9,483.1h137.3l-68.7-118.9L-191.9,483.1z"/>
</g>
<g>
	<g>
		<defs>
			<rect id="SVGID_3_" x="-152.7" y="409" width="58.9" height="67.5"/>
		</defs>
		<clipPath id="SVGID_1_">
			<use xlink:href="#SVGID_3_"  style="overflow:visible;"/>
		</clipPath>
		<path class="st0" d="M-93.8,426h-19.5l-10-17l-10,17h-19.5l9.7,16.7l-9.7,16.7h19.5l10,17l10-17h19.5l-9.7-16.7L-93.8,426z
			 M-123.2,421.1l2.9,4.8h-5.8L-123.2,421.1z M-142.3,454l2.9-4.8l2.7,4.8H-142.3z M-139.4,436.3l-2.9-4.8h5.6L-139.4,436.3z
			 M-123.2,464.4l-2.9-4.8h5.8L-123.2,464.4z M-116.8,454h-12.9l-6.3-11.2l6.3-11.2h12.9l6.3,11.2L-116.8,454z M-109.8,454l2.7-4.8
			l2.9,4.8H-109.8z M-107.1,436.3l-2.7-4.8h5.6L-107.1,436.3z M-107.1,436.3"/>
	</g>
</g>
</svg>
