<?xml version="1.0" encoding="utf-8"?>
<!-- Generator: Adobe Illustrator 19.0.0, SVG Export Plug-In . SVG Version: 6.00 Build 0)  -->
<svg version="1.1" id="Capa_1" xmlns="http://www.w3.org/2000/svg" xmlns:xlink="http://www.w3.org/1999/xlink" x="0px" y="0px"
	 viewBox="-210 325.9 173.5 190" style="enable-background:new -210 325.9 173.5 190;" xml:space="preserve">
<g id="XMLID_100_">
	<path d="M-45.1,494.1h-156.3c-2,0-3.8-1-4.8-2.7s-1-3.8,0-5.5l78.1-135.4c1-1.7,2.8-2.8,4.8-2.8l0,0c2,0,3.8,1,4.8,2.7l78.2,135.4
		c1,1.7,1,3.8,0,5.5C-41.3,493-43.1,494.1-45.1,494.1z M-191.9,483.1h137.3l-68.7-118.9L-191.9,483.1z"/>
</g>
<g>
	<path d="M-93.6,422.2c-1.1-1.3-2.7-1.7-4.6-1.2c-4.4,1.1-7.8,4.1-10.3,9c-0.8,1.6-2,2.4-3.6,2.4c-1.2,0-2.1-0.4-2.3-0.5
		c-2.7-1.5-5.8-2.3-8.9-2.3s-6.2,0.8-8.9,2.3c-0.2,0.1-1.1,0.5-2.3,0.5c-1.6,0-2.8-0.8-3.6-2.4c-2.5-5-5.9-7.9-10.3-9
		c-1.9-0.5-3.5,0-4.6,1.2c-1.4,1.6-1.8,4.5-1.2,8.1l0,0c0.3,1.4,0.6,2.8,0.8,4.1c0.1,0.5,0.1,0.9,0.1,1.5c0,0.8,0,1.7,0.3,2.6
		c0.3,0.9,0.9,1.4,1.4,1.9c0.3,0.3,0.7,0.6,0.8,1c0.1,0.2,0.2,0.5,0.2,0.8c0.1,0.4,0.2,0.9,0.5,1.4c0.8,1.4,3.7,4.2,6.2,4.2
		c0.7,0,1.4-0.3,1.9-0.7c3.4-3.3-0.1-7.1-1.9-9.1l-0.2-0.3c-0.5-0.5-0.8-1.3-1-2.2c-0.1-0.4-0.3-0.8-0.4-1.3c-0.4-0.9-0.9-1.5-1.4-2
		c-0.6-0.7-1.1-1.3-1.1-2.2c-0.1-1,0.2-2.1,0.5-2.5c0.1-0.1,0.1-0.1,0.1-0.1c0,0,0.3,0,0.7,0.4c0.9,0.8,1.7,1.9,2.6,2.9
		c0.5,0.6,0.9,1.2,1.4,1.8c1.4,1.6,3.1,3.5,4.8,5.3c0.2,0.2,0.4,0.4,0.6,0.7c0.5,0.5,0.9,1,1.5,1.5c0.3,0.2,0.6,0.4,0.8,0.6
		c0.7,0.5,0.8,0.5,0.9,1.4c0.1,0.5,0.1,1.1,0.1,1.6c0,0.5,0.1,1,0.1,1.5c0.2,2.2,0.7,4.4,1.3,6.7c0.2,0.7,0.4,1.3,0.6,1.8
		c0.6,1.9,1,3.1,0.4,5.1c-0.7,2.5-1.1,6.1,1,8.7l0.8,4.7c0.1,0.5,0.7,4.1,5.7,4.8l1.5,0l0.1,0c5-0.8,5.6-4.4,5.7-4.8l0.8-4.7
		c2.1-2.6,1.7-6.2,1-8.7c-0.6-2-0.2-3.2,0.4-5.1c0.2-0.6,0.4-1.2,0.5-1.8c0.6-2.3,1-4.6,1.3-6.7c0.1-0.5,0.1-1,0.1-1.5
		c0-0.6,0.1-1.1,0.1-1.6c0.1-0.9,0.2-0.9,0.9-1.4c0.2-0.1,0.5-0.3,0.8-0.6c0.6-0.4,1.1-1,1.5-1.5c0.2-0.2,0.4-0.5,0.6-0.7
		c1.7-1.8,3.4-3.7,4.8-5.3c0.5-0.6,1-1.2,1.4-1.8c0.8-1,1.7-2.1,2.5-2.9c0.5-0.4,0.7-0.4,0.7-0.4c0,0,0.1,0,0.1,0.1
		c0.4,0.4,0.6,1.5,0.5,2.5c-0.1,0.9-0.6,1.5-1.1,2.2c-0.5,0.6-1,1.2-1.3,2c-0.2,0.4-0.3,0.8-0.5,1.3c-0.3,0.8-0.5,1.6-1,2.2
		l-0.2,0.3c-1.9,2-5.3,5.8-1.9,9.1c0.5,0.5,1.1,0.7,1.9,0.7c2.5,0,5.4-2.7,6.2-4.2c0.3-0.5,0.4-1,0.5-1.4c0.1-0.3,0.1-0.6,0.2-0.8
		c0.1-0.3,0.5-0.6,0.8-1c0.5-0.5,1.1-1.1,1.4-1.9c0.3-0.9,0.3-1.7,0.3-2.6c0-0.5,0-1,0.1-1.5c0.2-1.3,0.5-2.7,0.8-4.1l0,0
		C-91.8,426.7-92.2,423.9-93.6,422.2z M-114,437.9c0,0.1-0.1,0.2-0.1,0.2c-0.3,0.4-0.7,0.6-1,1c-0.3,0.5-0.6,1-0.7,1.6
		c-0.1,0.3-0.1,0.6-0.2,0.9c-0.1,0.6-0.1,1.2-0.2,1.9c0,0.5-0.1,0.9-0.1,1.3c-0.2,2-0.6,4.1-1.2,6.2c-0.2,0.6-0.3,1.2-0.5,1.7
		c-0.6,2-1.3,4.1-0.5,7.1c0.5,1.8,0.8,4.2-0.5,5.7l-0.5,0.5l-0.9,5.8c0,0.1-0.3,1.4-2.5,1.8h-0.8c-2.2-0.4-2.5-1.6-2.5-1.8l-0.9-5.7
		l-0.5-0.5c-1.3-1.5-1-3.9-0.5-5.7c0.8-3,0.2-5.1-0.5-7.1c-0.2-0.5-0.3-1.1-0.5-1.7c-0.6-2.1-1-4.2-1.2-6.2c0-0.4-0.1-0.8-0.1-1.3
		c0-0.6-0.1-1.2-0.2-1.8c-0.1-0.8-0.3-1.7-0.8-2.4c-0.3-0.4-0.7-0.8-1.1-1.1c-0.7-0.6-0.5-2,0.3-2.4c0.3-0.1,0.5-0.1,0.8-0.2
		c0.3-0.1,0.5-0.2,0.8-0.3l0.1-0.1c4.3-2.4,10-2.5,14.4,0c0,0,0.1,0.1,0.1,0.1c0.9,0.4,1.8,0.4,2,1.6
		C-113.8,437.1-113.9,437.5-114,437.9z"/>
	<path d="M-119.1,443.4c0-0.7,0.1-1.4,0.2-2.1c0.1-0.8,0.3-1.6,0.6-2.2c0.2-0.4,0.2-0.8,0-1.2c-0.2-0.4-0.4-0.6-0.8-0.8l-0.1,0
		c-1.2-0.4-2.5-0.6-3.9-0.6c-1.4,0-2.7,0.2-4,0.7c-0.4,0.1-0.6,0.4-0.8,0.7c-0.2,0.4-0.2,0.8,0,1.2c0.3,0.7,0.5,1.5,0.6,2.3
		c0.1,0.7,0.1,1.4,0.2,2c0,0.5,0.1,0.9,0.1,1.2c0.2,1.8,0.6,3.8,1.1,5.8c0.1,0.5,0.3,1,0.5,1.5c0.7,2.3,1.6,5,0.5,8.8
		c-0.5,1.6-0.3,2.7-0.2,2.9c0.5,0.6,1.2,0.9,2,0.9h0.2c0.8,0,1.5-0.3,2-0.9c0.2-0.2,0.3-1.2-0.1-2.9c-1.1-3.9-0.2-6.6,0.5-8.8
		c0.2-0.5,0.3-1,0.5-1.5c0.5-2,0.9-3.9,1.1-5.8C-119.2,444.2-119.2,443.8-119.1,443.4z"/>
</g>
</svg>
