<?xml version="1.0" encoding="utf-8"?>
<!-- Generator: Adobe Illustrator 19.0.0, SVG Export Plug-In . SVG Version: 6.00 Build 0)  -->
<svg version="1.1" id="Capa_1" xmlns="http://www.w3.org/2000/svg" xmlns:xlink="http://www.w3.org/1999/xlink" x="0px" y="0px"
	 viewBox="-210 325.9 173.5 190" style="enable-background:new -210 325.9 173.5 190;" xml:space="preserve">
<path d="M-45.1,494.1h-156.3c-2,0-3.8-1-4.8-2.7s-1-3.8,0-5.5l78.1-135.4c1-1.7,2.8-2.8,4.8-2.8l0,0c2,0,3.8,1,4.8,2.7l78.2,135.4
	c1,1.7,1,3.8,0,5.5C-41.3,493-43.1,494.1-45.1,494.1z M-191.9,483.1h137.3l-68.7-118.9L-191.9,483.1z"/>
<path d="M-99.6,466.4c-0.4-0.4-1.1-1-1.4-1.4c-0.3-0.4-1.2-0.9-1.7-1.1c-0.5-0.2-1.5-0.6-1.9-1c-0.4-0.4-1.2-1.1-1.4-1.5
	c-0.2-0.4-1.4-1.2-1.4-1.2c0.1-0.2,0.1-0.8,0.1-0.8s0.7,0.4,0.9,0.7c0.2,0.4,1,0.7,1,0.7c-0.1-0.5-0.9-2.2-0.9-2.2
	c1.1-0.4,3.2,0.2,3.2,0.2c-0.4-1.1-2.8-2-2.8-2c0.1-0.3,2.3-0.4,2.3-0.4c-0.7-1-3.3-0.7-3.3-0.7c0.1-0.3,0.7-0.7,0.7-0.7
	s-0.9,0-1.5,0.4c-0.7,0.4-1.1-0.2-1.5-0.8c-0.4-0.7-2.3-3.5-3.2-4.5c-0.9-0.9-2-0.8-2.6-0.4c-0.6,0.4-1,3.6-1,3.6
	c-3.3-4.5-5.2-5.3-5.8-5.6s-1.5-1.6-1.5-1.6c0.9-0.1,1.5,0.7,1.5,0.7c-0.1-1.1-1.1-1.9-1.5-2c-0.4-0.1-1.8-0.6-1-0.8
	c0.8-0.2,1.6,0.5,1.6,0.5c-0.8-1.5-2.3-1.5-3.1-1.6c-0.8-0.1-4.7-1.5-6-1.7c-1.3-0.2-2,0.5-2,0.5c-1.9-0.6-2.8,0.1-3,0.1
	c-13.9-11.1-9.5-19.3-4.1-24.7c5.3-5.4,13.7-4,23.4-3.3c9.7,0.7,15.8-3.1,15.8-3.1s-1.5-1.3-5.1-0.6c-10.9,2-31.9-7.9-41.7,6.2
	c-10.9,15.6,0.2,29.3,2.4,31.8c0.1,0.9,0,1.5,0,1.5c-1.3-2.2-2.6-2.3-3.3-2.3s-2.1,0.9-2,2.1c0.1,1.2-0.1,3.9-0.2,5.2
	c-0.1,1.3,0.3,2.8,0.4,3.7s0.1,2.4,0.1,2.4c0.7-0.9,0.8-2.3,1.3-2c0.9,0.9,0.6,3.2,0.6,3.2c0.9-0.9,1.1-3,1.1-3
	c0.5,0.3,1.1,2.2,1.1,2.2c0.3-0.8,0.2-2.6,0.2-2.6c0.5,0.1,0.9,0.9,0.9,0.9c0.2-0.7-0.3-2.2-0.3-2.2c2.8,3.1,3.6,1.9,4.4,0.8
	c0.8-1.1,1.3-3.7,1.3-3.7c0.2,1.9,2.9,4.2,4.4,5.5c1.6,1.3,5.4,3.4,5.4,3.4c-1.7,1.7-0.4,2.9,0.8,4.4c1.3,1.6,2.6,2.2,3.1,2.4
	c0.5,0.2,0.3,0.9,0.3,0.9c-0.5,0.3-1,1.3-1,1.3c0.2-0.2,1.1-0.3,1.1-0.3s-0.7,1.7-0.7,2.2c0,0.5,0.3,0.9,0.3,0.9
	c0-0.4,0.5-1.3,0.8-1.7c0.4-0.4,0.5,0.8,0.6,1.8c0.1,0.9,1,1.8,1,1.8s0.1-1.2,0.1-2.2c0-0.9,0.6-1.2,1-1.2c0.5,0,0.3,0.5,0.8,0.8
	c0.5,0.4,0.6,1,0.6,1c0.3-0.5,0.1-1.6-0.1-2.1c-0.2-0.5-0.2-1.7-0.2-1.7c0.3-0.1,1.6-0.3,1.6-0.3c-0.1-0.3-0.7-0.7-1.8-1
	c-1.1-0.3-1.7-2-2-2.4c-0.3-0.4-1.7-1.9-1.7-1.9c1.1,0,2.7-0.9,2.7-0.9s1.1,1.1,2.4,1.1c0.8,0,1.7,0.6,2.2,1.1s3.4,2.6,5.6,2.5
	c2.2-0.2,5,0.8,5.9,1.1s2.7,0.4,3.7,0.4c0.7,0,3.5,0.1,4.3-1.8C-98.6,467.5-99.2,466.9-99.6,466.4z"/>
</svg>
