<?xml version="1.0" encoding="utf-8"?>
<!-- Generator: Adobe Illustrator 19.0.0, SVG Export Plug-In . SVG Version: 6.00 Build 0)  -->
<svg version="1.1" id="Capa_1" xmlns="http://www.w3.org/2000/svg" xmlns:xlink="http://www.w3.org/1999/xlink" x="0px" y="0px"
	 viewBox="-210 325.9 173.5 190" style="enable-background:new -210 325.9 173.5 190;" xml:space="preserve">
<text transform="matrix(1 0 0 1 87.6401 746.8352)" style="font-family:'MyriadPro-Regular'; font-size:12px;">d-11424</text>
<path d="M-40.3,485.8L-95.6,390l-20.3-35.1l-2.6-4.6c-1-1.7-2.8-2.7-4.8-2.7s-3.8,1.1-4.8,2.8l-2.6,4.5l-25.1,43.5l-50.5,87.5
	c-1,1.7-1,3.8,0,5.5s2.8,2.7,4.8,2.7h156.3c2,0,3.8-1.1,4.8-2.8C-39.3,489.6-39.3,487.5-40.3,485.8z M-191.9,483.1l43.9-76.2
	l24.7-42.7l20,34.7l48.7,84.2H-191.9z"/>
<circle cx="-149.1" cy="423.8" r="3"/>
<path d="M-152.7,455.9c0,0.9,0.8,1.7,1.7,1.7c0.9,0,1.7-0.8,1.7-1.7l0-14.2h0.8l0,14.2c0,0.9,0.8,1.7,1.7,1.7s1.7-0.8,1.7-1.7
	l0-24.4h0.7v9c0,1.8,2.4,1.8,2.4,0v-9.2c0-2-1.2-4-3.5-4l-6.7,0c-2.1,0-3.5,1.7-3.5,3.9v9.2c0,1.8,2.4,1.8,2.4,0v-9h0.8
	L-152.7,455.9z"/>
<rect x="-125.8" y="352.5" width="1.7" height="134.2"/>
<circle cx="-112.3" cy="423.7" r="3"/>
<path d="M-115.8,455.9c0,0.9,0.8,1.7,1.7,1.7c0.9,0,1.7-0.8,1.7-1.7l0-14.2h0.8l0,14.2c0,0.9,0.8,1.7,1.7,1.7c0.9,0,1.7-0.8,1.7-1.7
	l0-24.4h0.7v9c0,1.8,2.4,1.8,2.4,0v-9.2c0-2-1.2-4-3.5-4l-6.7,0c-2.1,0-3.5,1.7-3.5,3.9v9.2c0,1.8,2.4,1.8,2.4,0v-9h0.8
	L-115.8,455.9z"/>
<circle cx="-97.7" cy="423.8" r="3"/>
<path d="M-101.3,455.9c0,0.9,0.8,1.7,1.7,1.7c0.9,0,1.7-0.8,1.7-1.7l0-14.2h0.8l0,14.2c0,0.9,0.8,1.7,1.7,1.7c0.9,0,1.7-0.8,1.7-1.7
	l0-24.4h0.7v9c0,1.8,2.4,1.8,2.4,0v-9.2c0-2-1.2-4-3.5-4l-6.7,0c-2.1,0-3.5,1.7-3.5,3.9v9.2c0,1.8,2.4,1.8,2.4,0v-9h0.8
	L-101.3,455.9z"/>
</svg>
