<?xml version="1.0" encoding="utf-8"?>
<!-- Generator: Adobe Illustrator 19.0.0, SVG Export Plug-In . SVG Version: 6.00 Build 0)  -->
<svg version="1.1" id="Capa_1" xmlns="http://www.w3.org/2000/svg" xmlns:xlink="http://www.w3.org/1999/xlink" x="0px" y="0px"
	 viewBox="-210 325.9 173.5 190" style="enable-background:new -210 325.9 173.5 190;" xml:space="preserve">
<path d="M-52.5,480.3c1.4-3.3,1.2-7.9-0.6-12.1c-2.9-7-9.2-11.1-14-9.1c-0.1,0-0.1,0.1-0.2,0.1c-2.8-4-5.9-7.7-9.3-11.1
	c2.4-3.3,1.1-9-3.1-13.2c-2.2-2.2-4.7-3.6-7.3-4.1c-2.7-0.5-5,0-6.6,1.6c-0.5,0.5-0.9,1.1-1.2,1.8c-3.5-2-7.1-3.7-10.9-5.2
	c0,0,0,0,0-0.1c0.3-1.6-0.1-3.3-1.1-4.9c-1.7-2.5-5-4.5-8.7-5.2c-3-0.6-6-0.4-8.4,0.6c-2.2,0.9-3.8,2.4-4.4,4.2
	c-2.7-0.2-5.3-0.4-7.8-0.4l-3.6,0c-1-2.9-4.7-5-9.2-5c-3.4,0-6.4,1.3-8.1,3.2c-5.3-2.5-9.2-7.2-10.8-12.8c3.2-0.6,5.7-4.5,5.7-9.4
	c0,0,0,0,0,0c0-3.1-1.1-6-2.8-7.8c-0.5-0.5-1-0.8-1.5-1.1c3.3-6.7,10.2-11.1,17.8-11.1c6.4,0,11.6,5.2,11.6,11.6
	c0,8.7-7.1,15.7-15.7,15.7c-0.3,0-0.6,0.2-0.8,0.5c-0.1,0.3-0.1,0.7,0.2,0.9c7.2,7.2,18.9,7.2,26,0c0.2-0.2,0.3-0.4,0.5-0.6
	c0.3,0.2,0.6,0.3,0.9,0.5c0.6,0.3,1.2,0.4,1.9,0.4c3,0,6.1-2.6,7.8-6.6c0,0,0,0,0,0c0.9-2.3,1.2-4.7,0.8-6.8
	c-0.4-2.2-1.6-3.8-3.3-4.5c0,0,0,0-0.1,0c0.7-5.3-0.1-10.6-2.2-15.5c0.3-0.2,0.6-0.4,0.9-0.7c1.3-1.3,1.8-3.2,1.3-5.4
	c-0.4-2.1-1.6-4.2-3.4-5.9c-2.2-2.2-5-3.5-7.5-3.5c0,0,0,0,0,0c-1.4,0-2.7,0.5-3.6,1.3c-3.6-2.3-7.5-4-11.7-4.9c0,0,0-0.1,0-0.1
	c0-3.7-4.2-6.6-9.5-6.6c0,0,0,0,0,0c-3.1,0-6,1.1-7.8,2.8c-1.1,1.1-1.7,2.4-1.7,3.8c0,0.3,0,0.6,0.1,0.9c-5.5,1.7-10.5,4.8-14.5,8.8
	c-0.8,0.8-1.5,1.6-2.2,2.4c-0.3-0.3-0.7-0.5-1.1-0.6c-1.7-0.7-3.6-0.4-5.5,0.9c-1.8,1.2-3.2,3.1-4.2,5.4c-1.8,4.3-1.1,8.8,1.5,10.7
	c-2.5,7.6-3.1,15.7-1.7,23.6c-0.1,0-0.2,0-0.3,0.1c-1.7,0.7-2.9,2.3-3.3,4.5c-0.4,2.1-0.1,4.5,0.8,6.8c0,0,0,0,0,0
	c0.9,2.3,2.4,4.2,4.2,5.4c1.2,0.8,2.5,1.2,3.6,1.2c0.6,0,1.3-0.1,1.9-0.4c0,0,0,0,0.1,0c1.9,2.9,3.9,5.5,6.2,7.7c1,1,2.1,2,3.3,3
	c-0.2,0.3-0.4,0.6-0.5,0.9c-0.5,1.3-0.5,2.7,0.1,4.1c1,2.3,3.2,4.4,6.1,5.6c1.6,0.7,3.3,1,4.8,1c2.7,0,5-1,6.1-2.8
	c4.2,1.3,8.5,2,12.8,2.1c0.1,3.9,4.3,7.7,9.9,8.9c1.1,0.2,2.2,0.3,3.2,0.3c3.8,0,7.1-1.4,8.7-3.6c3.3,1.9,6.3,4.1,8.9,6.8
	c0.2,0.2,0.3,0.3,0.5,0.5c-0.6,0.8-1.1,1.7-1.6,2.7c-1.2,2.9-1.4,6.4-0.7,9.9c0,0,0,0,0,0c1.4,6.8,6,11.8,10.7,11.8
	c0.1,0,0.1,0,0.2,0c-0.2,2.5-0.7,4.9-1.5,7.3c-0.1,0.3,0,0.5,0.1,0.7c0.2,0.2,0.4,0.3,0.7,0.3h51.8c0.2,0,0.5-0.1,0.6-0.3
	c0.2-0.2,0.2-0.4,0.2-0.7c-0.5-2.5-1.1-5-1.8-7.6C-54.2,483.2-53.2,481.9-52.5,480.3z M-88.8,432.2c0.5,0,1,0.1,1.6,0.2
	c2.2,0.4,4.5,1.8,6.5,3.7c3.9,3.9,5,9,2.6,11.5c0,0,0,0,0,0c0,0,0,0,0,0.1c-0.1,0.1-0.1,0.1-0.2,0.2c-0.1,0.1-0.2,0.1-0.3,0.2
	c-0.1,0.1-0.2,0.1-0.3,0.2c-0.1,0-0.1,0.1-0.2,0.1c-0.2,0.1-0.3,0.2-0.5,0.2c0,0,0,0,0,0c-1,0.4-2.2,0.4-3.5,0.2
	c-2.2-0.4-4.5-1.8-6.5-3.7c-0.1-0.1-0.1-0.2-0.2-0.2c-0.2-0.2-0.4-0.5-0.7-0.7c-0.1-0.1-0.2-0.2-0.3-0.3c-2.1-2.7-3.1-5.8-2.5-8.2
	c0,0,0,0,0-0.1c0.2-0.8,0.6-1.4,1.1-2C-91.5,432.7-90.3,432.2-88.8,432.2z M-123.1,420.9c1.3-0.5,2.9-0.8,4.5-0.8c1,0,2,0.1,2.9,0.3
	c3.3,0.7,6.2,2.4,7.7,4.5c0.8,1.2,1.1,2.5,0.9,3.6c0,0.1-0.1,0.3-0.1,0.4c0,0.1-0.1,0.1-0.1,0.2c-0.9,2.5-4.2,4-8,4
	c-0.1,0-0.3,0-0.4,0c-0.1,0-0.3,0-0.4,0c-0.6,0-1.3-0.1-1.9-0.3h0c-4-0.8-7.2-3.1-8.2-5.6c0,0,0,0,0-0.1c-0.1-0.2-0.1-0.4-0.2-0.6
	c0-0.1,0-0.1,0-0.2c0-0.1-0.1-0.3-0.1-0.4c0-0.1,0-0.2,0-0.3c0-0.1,0-0.2,0-0.3c0-0.1,0-0.3,0-0.4c0-0.1,0-0.2,0-0.3
	C-126.4,423.1-125.1,421.8-123.1,420.9z M-148.7,419.9c3.9,0,7.2,1.9,7.7,4.2c0,0,0,0.1,0,0.1l0,0.1c0,0.2,0.1,0.3,0.1,0.4
	c0,2.7-3.6,4.9-7.8,4.9c-4.2,0-7.8-2.3-7.8-4.9c0-0.2,0-0.3,0-0.5c0.1-0.5,0.3-1,0.6-1.4c0,0,0,0,0,0
	C-154.6,421.1-151.8,419.9-148.7,419.9z M-163.5,399.3c0,4.3-2.2,7.8-4.9,7.8c0,0,0,0,0,0c0,0-0.1,0-0.1,0c-0.7,0-1.3-0.3-1.9-0.7
	c-0.1,0-0.1-0.1-0.2-0.1c-0.1-0.1-0.2-0.1-0.2-0.2c-1.5-1.3-2.6-3.9-2.6-6.8c0-4.3,2.2-7.8,4.9-7.8c0,0,0.1,0,0.1,0
	c0.1,0,0.3,0,0.4,0c0.1,0,0.2,0,0.3,0.1c0.6,0.2,1.2,0.5,1.8,1.1C-164.4,394.1-163.5,396.6-163.5,399.3z M-116.8,395.4
	c0.3,1.8,0.1,3.8-0.7,5.8c-1.7,4-5,6.4-7.5,5.3c-0.3-0.1-0.7-0.4-0.9-0.6c0,0,0,0,0-0.1c-1.3-1.2-1.7-3.5-1.3-5.9c0,0,0-0.1,0-0.1
	c0.1-0.3,0.1-0.7,0.2-1c0-0.1,0-0.1,0.1-0.2c0.1-0.4,0.3-0.8,0.4-1.2c0,0,0-0.1,0-0.1c0.1-0.3,0.3-0.6,0.4-0.9
	c0-0.1,0.1-0.2,0.1-0.2c0.2-0.3,0.3-0.6,0.5-0.8c0.1-0.1,0.1-0.2,0.2-0.3c0.2-0.2,0.3-0.5,0.5-0.7c0.1-0.1,0.2-0.2,0.3-0.3
	c0.1-0.1,0.3-0.3,0.4-0.4c0.2-0.2,0.4-0.3,0.5-0.5c0,0,0.1-0.1,0.1-0.1c1.2-0.9,2.6-1.4,3.8-1.1c0,0,0.1,0,0.1,0
	c0.1,0,0.3,0.1,0.4,0.1C-117.9,392.6-117.1,393.7-116.8,395.4z M-129.3,361.2C-129.3,361.2-129.3,361.2-129.3,361.2
	c2.1,0,4.4,1.1,6.3,3c0,0,0,0,0,0c1.5,1.5,2.5,3.3,2.9,5.1c0.3,1.6,0,3-0.9,3.9c-0.3,0.3-0.6,0.5-1,0.7c0,0-0.1,0-0.1,0
	c-1.6,0.7-3.8,0.2-5.8-1.1c-0.1-0.1-0.2-0.1-0.3-0.2c-0.2-0.1-0.4-0.3-0.6-0.5c-0.1-0.1-0.2-0.2-0.3-0.3c-0.2-0.2-0.4-0.4-0.7-0.6
	c-0.1-0.1-0.1-0.1-0.2-0.2c-0.6-0.6-1.1-1.2-1.5-1.8c0,0,0-0.1-0.1-0.1c-0.1-0.2-0.2-0.3-0.3-0.5c0-0.1-0.1-0.1-0.1-0.2
	c-0.1-0.2-0.2-0.3-0.2-0.5c0-0.1-0.1-0.1-0.1-0.2c-0.1-0.2-0.1-0.3-0.2-0.5c0-0.1,0-0.1-0.1-0.2c-0.1-0.2-0.1-0.3-0.2-0.5
	c0-0.1,0-0.1,0-0.2c0-0.2-0.1-0.3-0.1-0.5c0-0.1,0-0.1,0-0.2c0-0.1,0-0.2,0-0.3c0-0.1,0-0.2,0-0.4c0,0,0-0.1,0-0.1
	c-0.1-1.1,0.2-2.1,0.8-2.8c0,0,0-0.1,0.1-0.1c0,0,0.1-0.1,0.1-0.1C-131.4,361.5-130.4,361.2-129.3,361.2z M-160.7,353.2
	c1.5-1.5,3.9-2.3,6.6-2.3c4.3,0,7.8,2.2,7.8,4.9c0,0.1,0,0.3,0,0.4c0,0.1-0.1,0.1-0.1,0.2c-0.3,1.7-2,3.1-4.2,3.8c0,0-0.1,0-0.1,0
	c-0.2,0.1-0.3,0.1-0.5,0.1c-0.1,0-0.2,0-0.3,0.1c-0.1,0-0.2,0.1-0.4,0.1c-0.2,0-0.3,0.1-0.5,0.1c-0.1,0-0.1,0-0.2,0
	c-0.5,0.1-1,0.1-1.5,0.1c-0.1,0-0.1,0-0.2,0c-0.3,0-0.6,0-1-0.1c-0.1,0-0.2,0-0.3,0c-0.4,0-0.7-0.1-1-0.2c-0.1,0-0.2,0-0.2-0.1
	c-2.4-0.6-4.2-1.8-4.9-3.5c0,0,0-0.1-0.1-0.1c-0.1-0.3-0.2-0.7-0.2-1C-161.9,354.9-161.4,354-160.7,353.2z M-189.4,374.1
	c0.8-2,2.1-3.6,3.6-4.6c1.4-0.9,2.8-1.2,4-0.7c0.4,0.2,0.8,0.4,1.1,0.7c0,0,0,0.1,0.1,0.1c1.3,1.5,1.6,4.3,0.8,7c0,0,0,0,0,0
	c-0.1,0.4-0.3,0.8-0.4,1.2c-0.4,1-0.9,1.9-1.5,2.7c-1.3,1.7-2.9,2.7-4.4,2.9c-0.6,0.1-1.1,0-1.7-0.2c-0.1-0.1-0.2-0.1-0.2-0.1
	c0,0-0.1,0-0.1,0C-190.3,381.8-190.9,377.8-189.4,374.1z M-188.8,423.1c-1.5-1-2.8-2.6-3.6-4.6c-0.8-2-1.1-4-0.7-5.8
	c0.3-1.6,1.1-2.8,2.3-3.3c0.2-0.1,0.4-0.1,0.6-0.2c0,0,0.1,0,0.1,0c2.1-0.3,4.5,1.3,6.1,4c0.1,0.1,0.2,0.3,0.2,0.4
	c0.1,0.1,0.1,0.2,0.2,0.3c0.1,0.3,0.2,0.5,0.4,0.8c0,0,0,0,0,0c0.2,0.4,0.3,0.9,0.5,1.3c0,0,0,0,0,0.1c0.1,0.4,0.2,0.9,0.3,1.3
	c0,0,0,0,0,0.1c0.1,0.4,0.1,0.8,0.1,1.2c0,0,0,0,0,0.1c0,2.1-0.6,3.9-2,4.8c0,0-0.1,0.1-0.1,0.1c-0.1,0.1-0.3,0.1-0.4,0.2
	C-186,424.2-187.4,424-188.8,423.1z M-168.3,445.1L-168.3,445.1c-2.5-1-4.4-2.8-5.2-4.7c-0.4-1-0.5-2-0.1-2.9c0.1-0.4,0.4-0.7,0.6-1
	c0.1,0,0.1-0.1,0.2-0.1c1.5-1.4,4.3-1.7,7.1-0.9c0,0,0,0,0,0c0.4,0.1,0.8,0.3,1.2,0.4c0.4,0.2,0.7,0.3,1.1,0.5
	c3,1.6,4.9,4.4,4.4,6.6c0,0,0,0,0,0c0,0.1-0.1,0.3-0.1,0.4C-160.2,446-164.4,446.7-168.3,445.1z M-135.1,454.2
	c-5.2-1-8.9-4.5-8.6-7.8c0-0.1,0-0.1,0-0.2c0-0.1,0-0.2,0-0.2c0.7-3.4,5.6-5.4,11-4.3c2.7,0.5,5,1.7,6.6,3.3c1,1,1.6,2,1.8,3
	c0.2,0.6,0.2,1.2,0.1,1.8c0,0.2-0.1,0.4-0.2,0.6c0,0.1-0.1,0.2-0.2,0.4C-125.7,453.6-130.2,455.1-135.1,454.2z M-114.7,472.1
	c-0.6-3.2-0.4-6.4,0.6-9c0.4-1,1-1.9,1.6-2.6c0,0,0.1,0,0.1-0.1c0.9-0.9,1.9-1.5,2.9-1.7c1.6-0.3,3.2,0.1,4.7,1.2
	c0.2,0.1,0.3,0.3,0.5,0.4c0.1,0.1,0.2,0.1,0.2,0.2c0.1,0.1,0.2,0.2,0.2,0.2c2,1.9,3.7,4.8,4.4,8.4c0.3,1.5,0.4,3,0.3,4.5
	c-0.1,2.4-0.8,4.6-1.9,6.2c-1,1.5-2.3,2.4-3.7,2.7C-109,483.3-113.4,478.6-114.7,472.1z M-56.8,482.8
	C-56.8,482.8-56.8,482.8-56.8,482.8c-0.1,0-0.2,0.1-0.2,0.1c-0.1,0-0.1,0.1-0.1,0.1c-1.4,0.6-3,0.5-4.6-0.2c-3-1.2-5.7-4.2-7.2-8
	c0,0,0,0,0,0c-0.1-0.4-0.3-0.7-0.4-1.1c-1.8-5.4-0.9-10.8,2.4-12.7c0.1,0,0.1-0.1,0.2-0.2c0.1-0.1,0.3-0.2,0.4-0.2
	c0.6-0.3,1.3-0.4,2-0.4c3.6,0,7.7,3.4,9.8,8.6c1.6,3.8,1.8,7.8,0.6,10.8C-54.6,481.1-55.6,482.2-56.8,482.8z"/>
</svg>
