<?xml version="1.0" encoding="utf-8"?>
<!-- Generator: Adobe Illustrator 19.0.0, SVG Export Plug-In . SVG Version: 6.00 Build 0)  -->
<svg version="1.1" id="Capa_1" xmlns="http://www.w3.org/2000/svg" xmlns:xlink="http://www.w3.org/1999/xlink" x="0px" y="0px"
	 viewBox="-210 325.9 173.5 190" style="enable-background:new -210 325.9 173.5 190;" xml:space="preserve">
<g id="XMLID_100_">
	<path d="M-45.1,494.1h-156.3c-2,0-3.8-1-4.8-2.7s-1-3.8,0-5.5l78.1-135.4c1-1.7,2.8-2.8,4.8-2.8l0,0c2,0,3.8,1,4.8,2.7l78.2,135.4
		c1,1.7,1,3.8,0,5.5C-41.3,493-43.1,494.1-45.1,494.1z M-191.9,483.1h137.3l-68.7-118.9L-191.9,483.1z"/>
</g>
<g>
	<circle cx="-119.5" cy="403.4" r="5.2"/>
	<path d="M-98.5,411.9L-98.5,411.9c-0.3-0.5-0.9-0.7-1.4-0.5l-8.2,2.8c-0.3,0.1-0.5,0.1-0.8,0c-1.9-0.7-9.9-3.4-10.4-3.7l0,0
		l-1.4-0.6c-0.4-0.2-0.9-0.3-1.4-0.2l-4.9,0.9c-0.3,0.1-0.7,0.3-0.8,0.7c0,0-2.9,5.1-3.2,9.6c-0.4,8,1.1,12.9,1.1,12.9
		c0.9,3.2,2.7,9.4,3.2,11.1c0.1,0.3,0.1,0.5-0.1,0.8l-1.7,3.7c0,0.1-0.2,0.1-0.3,0.1l-13.6-6c-0.1,0-0.2-0.1-0.3-0.1l-11.2-1.2
		c-0.2,0-0.4,0-0.6,0.1l-7.3,4.4c0,0-0.1,0-0.1,0.1c0,0,0,0-0.1,0c0,0,0,0,0,0.1c-0.1,0.1-0.5,0.3-0.5,0.7c0,0.4,0,8.8,0,8.9
		l2.4,9.5c0.1,0.3,0.4,0.6,0.8,0.7l46.9,8.3c0.1,0,0.1,0,0.2,0c0.2,0,0.4-0.1,0.5-0.2l6.9-5.3c0.3-0.2,0.2-0.7,0.2-0.9
		c0,0,0.3-7.9,0.3-8c0,0,0,0-0.1-0.1c-0.1-0.1-0.1-0.1-0.2-0.2c0,0-0.1,0-0.1-0.1c0,0-0.1,0-0.1-0.1l-18.3-8
		c-0.1-0.1-0.2-0.2-0.1-0.3l3.2-5.2c0.3-0.4,0.3-0.9,0.3-1.4l-2-8.4c-0.3-0.9,0.7-1.8,1.6-1.4l7.7,3.2c0.3,0.2,0.6,0.4,0.6,0.9
		l1.5,12.5c0.1,0.5,0.5,0.7,1,0.7h1.6c0.6,0,1.1-0.5,1.1-1.1v-15.6c0-0.4-0.3-0.9-0.7-1l-11.9-5.4c-0.3-0.2-0.6-0.4-0.7-0.9
		l-0.9-4.2c0-0.2,0-0.3,0-0.5l0.1-0.3c0.3-0.7,1-1,1.7-0.8l4.3,2c0.3,0.2,0.6,0.2,0.9,0.1l9.3-2.9c0.7-0.2,1-0.9,0.8-1.5l-0.1-0.3
		c-0.2-0.5-0.7-0.9-1.3-0.8l-7.8,0.9c-0.3,0-0.5,0-0.7-0.2l-4.5-2.4c-0.4-0.3-0.6-0.8-0.5-1.2c0.2-0.5,0.8-0.9,1.3-0.7l7.5,2.5
		c0.3,0.1,0.6,0.1,0.9-0.1l9.8-4.9C-98.3,413.3-98.2,412.5-98.5,411.9z M-160,448.1l6.3-3.6h0.1l10.7,1.2c0,0,0,0,0.1,0l13.5,5.9
		c0.1,0,0.2,0.2,0.1,0.3l-2.2,4.8c0,0.1-0.2,0.1-0.3,0.1l-10.6-4.4c-0.1,0-0.2-0.1-0.3-0.1l-11.1-1.2c-0.3,0-0.4,0-0.7,0.2l-3.9,2.1
		c-0.1,0.1-0.3,0-0.3-0.1l-1.4-4.9C-160.1,448.1-160.1,448.1-160,448.1z M-158.1,455.2l4.4-2.5h0.1l10.7,1.2c0,0,0,0,0.1,0l10.4,4.3
		c0.1,0,0.2,0.2,0.1,0.3l-0.5,0.9c-0.2,0.4-0.1,0.9,0.2,1.1l-25.4-5.1V455.2z M-128.8,461.4L-128.8,461.4l0.8-1.2
		c0.1-0.1,0.2-0.1,0.3-0.1l6.7,2.8L-128.8,461.4z M-107.2,461.3l-5,3.2c-0.1,0-0.1,0-0.2,0l-14.4-6.1c-0.1,0-0.2-0.2-0.1-0.3
		l2.7-4.4c0.1-0.1,0.2-0.1,0.3-0.1l16.8,7.2C-107,461.1-107,461.3-107.2,461.3z"/>
</g>
</svg>
