<?xml version="1.0" encoding="utf-8"?>
<!-- Generator: Adobe Illustrator 19.0.0, SVG Export Plug-In . SVG Version: 6.00 Build 0)  -->
<svg version="1.1" id="Capa_1" xmlns="http://www.w3.org/2000/svg" xmlns:xlink="http://www.w3.org/1999/xlink" x="0px" y="0px"
	 viewBox="-210 325.9 173.5 190" style="enable-background:new -210 325.9 173.5 190;" xml:space="preserve">
<g id="XMLID_100_">
	<path d="M-45.1,494.1h-156.3c-2,0-3.8-1-4.8-2.7s-1-3.8,0-5.5l78.1-135.4c1-1.7,2.8-2.8,4.8-2.8l0,0c2,0,3.8,1,4.8,2.7l78.2,135.4
		c1,1.7,1,3.8,0,5.5C-41.3,493-43.1,494.1-45.1,494.1z M-191.9,483.1h137.3l-68.7-118.9L-191.9,483.1z"/>
</g>
<g>
	<path d="M-106.4,421.8L-106.4,421.8c-0.3-0.2-0.7-0.5-1-0.7l0,0l0,0l0,0l0,0c-9.5-6.6-22-6.6-31.5,0l0,0l0,0l0,0l0,0
		c-0.4,0.2-0.7,0.5-1,0.7l0,0c-9.2,7-13.1,19-9.8,30l0,0l0,0l0,0l0,0c0.1,0.4,0.2,0.8,0.4,1.2l0,0l0,0l0,0c3.8,11,14,18.4,25.6,18.6
		l0,0c0.2,0,0.4,0,0.6,0c0.2,0,0.4,0,0.6,0l0,0c11.6-0.2,21.8-7.7,25.6-18.6l0,0l0,0l0,0c0.1-0.4,0.3-0.8,0.4-1.2l0,0l0,0l0,0l0,0
		C-93.3,440.7-97.2,428.8-106.4,421.8L-106.4,421.8z M-98.3,452h-17.4l3.4-10.3L-98.3,452C-98.3,451.9-98.3,452-98.3,452z
		 M-123.2,470.1L-123.2,470.1L-123.2,470.1l-5.5-16.6h10.9L-123.2,470.1z M-148.2,452C-148.2,452-148.2,451.9-148.2,452l14.1-10.3
		l3.4,10.3H-148.2z M-138.6,422.6l14.1,10.2l-8.8,6.4L-138.6,422.6C-138.7,422.6-138.6,422.6-138.6,422.6z M-117.3,452h-11.8
		l-3.7-11.3l9.6-7l9.6,7L-117.3,452z M-113.2,439.2l-8.8-6.4l14.1-10.2c0,0,0.1,0,0.1,0.1L-113.2,439.2z M-109.3,421.7l-14,10.2
		l-14-10.2C-128.7,416.3-117.8,416.3-109.3,421.7z M-140,423.7l5.3,16.4l-14,10.2C-151.2,440.5-147.8,430.1-140,423.7L-140,423.7z
		 M-147.7,453.5h17.4l5.4,16.5C-135.1,469.4-143.9,463-147.7,453.5z M-121.6,470.1l5.4-16.5l17.4,0
		C-102.6,463-111.4,469.4-121.6,470.1z M-97.8,450.3l-14-10.2l5.3-16.4C-98.7,430.1-95.3,440.5-97.8,450.3z"/>
	<path d="M-123.3,408.9c-19.3,0-35,15.7-35,35c0,19.3,15.7,35,35,35s35-15.7,35-35C-88.3,424.6-103.9,408.9-123.3,408.9z
		 M-99.6,467.5c-13.1,13.1-34.3,13.1-47.3,0c-13.1-13.1-13.1-34.3,0-47.3c13.1-13.1,34.3-13.1,47.3,0c6.3,6.3,9.8,14.8,9.8,23.7
		C-89.8,452.8-93.3,461.3-99.6,467.5z"/>
	<polygon points="-111.6,417 -111.6,417 -111.6,417 	"/>
	<polygon points="-125.1,412.6 -125.1,412.6 -125.1,412.6 	"/>
	<polygon points="-132.5,413.1 -132.5,413.1 -132.5,413.1 	"/>
	<polygon points="-128.9,412.1 -128.9,412.1 -128.9,412.1 	"/>
	<polygon points="-151.1,427.8 -151.1,427.8 -151.1,427.8 	"/>
	<polygon points="-154.4,449.4 -154.4,449.4 -154.4,449.4 	"/>
	<polygon points="-147.2,464 -147.2,464 -147.2,464 	"/>
	<path d="M-99.8,423.3c-0.1-0.4-0.3-0.7-0.6-1l0,0c-0.2-0.2-0.3-0.4-0.4-0.6c-0.2-0.3-0.4-0.7-0.7-0.9c-0.2-0.2-0.5-0.3-0.8-0.4
		c-0.3,0-0.6-0.1-0.9-0.1c-0.1,0-0.2,0-0.3,0l0,0c-0.4-0.3-0.8-0.7-1.3-1.1c0-0.1,0-0.2-0.1-0.2c0-0.2-0.1-0.6-0.1-0.9
		c0-0.2-0.1-0.4-0.2-0.5c-0.1-0.2-0.3-0.4-0.5-0.6c-0.2-0.1-0.4-0.2-0.6-0.2c-0.2,0-0.3,0-0.5,0c-0.3,0-0.5,0-0.7,0
		c-0.1,0-0.1,0-0.2,0l0,0c-0.2-0.1-0.4-0.3-0.6-0.5c-0.3-0.2-0.6-0.4-0.9-0.6c-0.2-0.1-0.5-0.2-0.7-0.2c-0.3,0-0.5,0-0.8,0.1
		c-0.2,0-0.3,0.1-0.5,0.1l0,0c0,0-0.1-0.1-0.1-0.1c-0.1-0.1-0.2-0.4-0.4-0.6c-0.1-0.1-0.2-0.3-0.3-0.4c-0.2-0.1-0.3-0.3-0.5-0.3l0,0
		c-0.2-0.1-0.4-0.2-0.7-0.4c-0.3-0.2-0.6-0.4-1-0.5c-0.7-0.2-1.4-0.2-1.8-0.3c-0.3-0.1-0.5-0.2-0.7-0.3c-0.3-0.2-0.7-0.3-1-0.3
		c-0.2,0-0.3,0-0.5,0c-0.5,0-0.9,0.1-1.2,0.1l-0.2,0c-0.3,0-0.5,0-0.8,0c-0.2,0-0.5,0-0.7,0c-0.1,0-0.3,0-0.4,0l-0.1,0
		c-0.3,0-0.6,0.1-0.8,0.3c-0.3,0.2-0.5,0.3-0.7,0.5c-0.1,0.1-0.1,0.1-0.2,0.1l0,0l0,0c-0.2-0.1-0.4-0.2-0.6-0.3
		c-0.2-0.1-0.3-0.2-0.5-0.2c-0.2-0.1-0.4-0.1-0.7-0.1l-0.1,0c-0.3,0-0.5,0.1-0.8,0.2c-0.2,0.2-0.5,0.3-0.7,0.5
		c-0.1,0-0.1,0.1-0.2,0.1c-0.1,0-0.1-0.1-0.1-0.1c-0.2-0.2-0.4-0.4-0.7-0.7c-0.1-0.1-0.3-0.2-0.4-0.4c-0.2-0.1-0.5-0.2-0.7-0.2
		l-0.2,0c-0.2,0-0.4,0.1-0.6,0.3c-0.2,0.2-0.4,0.4-0.5,0.7c-0.2,0.3-0.3,0.7-0.4,0.9c0,0,0,0,0,0c-0.2-0.1-0.4-0.3-0.6-0.4
		c-0.2-0.1-0.3-0.2-0.5-0.3c-0.2-0.1-0.5-0.2-0.7-0.2c-0.1,0-0.2,0-0.3,0c-0.3,0.1-0.5,0.3-0.7,0.5c-0.2,0.2-0.4,0.5-0.6,0.7
		c-0.1,0.1-0.1,0.1-0.2,0.2l0,0c-0.5,0.2-1.1,0.3-1.7,0.6l0,0l-0.1,0c-0.2,0-0.3,0-0.5-0.1c-0.2,0-0.5-0.1-0.7-0.1
		c-0.3,0-0.5,0.1-0.8,0.2l0,0c-0.3,0.1-0.5,0.3-0.6,0.6c-0.2,0.3-0.3,0.5-0.4,0.8c0,0.1-0.1,0.2-0.1,0.2l0,0l0,0
		c-0.6,0.4-1.1,0.8-1.5,1.1l0,0c-0.2,0.1-0.4,0.2-0.7,0.3c-0.4,0.1-0.7,0.3-1,0.5l0,0c-0.1,0-0.1,0.1-0.2,0.1
		c-0.2,0-0.4,0.1-0.7,0.1c-0.4,0.1-0.7,0.2-1,0.4l0,0c-0.2,0.2-0.4,0.4-0.5,0.7c-0.1,0.3-0.2,0.6-0.3,0.8c0,0.1-0.1,0.2-0.1,0.2
		l0,0.1l0,0c-0.2,0.2-0.4,0.3-0.6,0.5c-0.3,0.2-0.6,0.4-0.8,0.7c-0.4,0.4-0.8,0.8-1.3,1.3l0,0c-0.2,0.2-0.3,0.5-0.3,0.8
		c0,0.3,0,0.6,0,0.9c0,0.1,0,0.2,0,0.3l0,0c-0.1,0.2-0.3,0.3-0.5,0.4c-0.3,0.2-0.6,0.5-0.8,0.8l0,0c-0.1,0-0.2,0.1-0.2,0.1
		c-0.2,0.1-0.5,0.1-0.8,0.2c-0.2,0.1-0.3,0.1-0.5,0.2c-0.2,0.1-0.3,0.3-0.4,0.5c-0.2,0.4-0.3,0.8-0.3,1.2c0,0.2,0,0.4-0.1,0.6l0,0
		c-0.1,0.2-0.1,0.4-0.1,0.6c0,0.4,0.1,0.7,0.2,1c0.1,0.2,0.1,0.3,0.1,0.5c-0.2,0.5-0.4,1.1-0.6,1.6c0,0-0.1,0.1-0.1,0.1
		c-0.1,0.1-0.3,0.3-0.6,0.4c-0.3,0.2-0.5,0.5-0.6,0.9l0,0c-0.1,0.2-0.2,0.4-0.4,0.5c-0.3,0.3-0.5,0.7-0.6,1.1v0
		c-0.1,0.5-0.3,1.1-0.4,1.8l0,0c0,0.1,0,0.2,0,0.2c0,0.3,0.1,0.5,0.2,0.8c0.1,0.3,0.3,0.5,0.4,0.7c0,0.1,0.1,0.1,0.1,0.2l0,0
		c0,0.1,0,0.2,0,0.3c0,0.3,0,0.6,0.1,0.9c0,0.2,0.1,0.4,0.1,0.6l0,0.1c0,0.2-0.1,0.4-0.2,0.5c-0.1,0.2-0.2,0.3-0.3,0.5
		c-0.1,0.2-0.1,0.5-0.1,0.7c0,0.2,0.1,0.5,0.1,0.7c0.1,0.2,0.2,0.5,0.3,0.7c0.1,0.1,0.1,0.2,0.1,0.3c0,0.1,0,0.1-0.1,0.2
		c-0.1,0.1-0.2,0.3-0.3,0.6c-0.2,0.3-0.3,0.6-0.3,1l0,0.2l0,0c0,0.2,0,0.3,0,0.5c0,0.1,0,0.3,0,0.5c0,0.3,0,0.6,0.1,0.9
		c0,0.3,0.2,0.5,0.3,0.7c0.2,0.2,0.3,0.4,0.5,0.6c0.1,0.1,0.1,0.1,0.2,0.2l0,0.1c0,0.1,0,0.1-0.1,0.2c-0.1,0.2-0.2,0.4-0.3,0.6
		c-0.2,0.3-0.3,0.6-0.3,0.9c0,0.1,0,0.2,0.1,0.4l0,0c0.1,0.2,0.2,0.4,0.3,0.5c0.2,0.2,0.4,0.3,0.6,0.4c0.3,0.1,0.6,0.2,0.8,0.3
		c0,0,0,0,0.1,0c0,0,0,0,0,0.1c-0.1,0.2-0.2,0.4-0.4,0.7c-0.2,0.3-0.3,0.6-0.3,1c0,0.2,0,0.3,0.1,0.5l0,0c0.1,0.2,0.2,0.3,0.4,0.5
		c0.2,0.2,0.4,0.3,0.7,0.4c0.3,0.1,0.6,0.2,0.8,0.3c0.1,0,0.1,0,0.2,0.1c0.1,0.2,0.1,0.4,0.1,0.6c0,0.4,0.1,0.8,0.3,1.1l0,0
		c0,0.1,0,0.1,0.1,0.2c0,0.2,0,0.4,0.1,0.7c0,0.3,0.1,0.7,0.3,1c0.2,0.3,0.5,0.6,0.8,0.8c0.2,0.1,0.4,0.3,0.5,0.5l0,0
		c0.4,0.5,0.9,1,1.2,1.4c0.2,0.2,0.4,0.4,0.7,0.5c0.3,0.1,0.5,0.2,0.8,0.2c0.1,0,0.2,0,0.2,0.1l0,0l0,0c0,0,0.1,0.1,0.1,0.2
		c0.1,0.1,0.1,0.4,0.2,0.6c0.1,0.3,0.3,0.7,0.5,0.9c0.3,0.3,0.7,0.5,1,0.6c0.2,0.1,0.4,0.2,0.6,0.3l0,0c0.2,0.2,0.4,0.4,0.5,0.6
		c0.2,0.3,0.5,0.5,0.8,0.8l0,0c0.1,0.1,0.3,0.3,0.4,0.5c0.2,0.4,0.5,0.7,0.8,1l0,0c0.2,0.2,0.4,0.3,0.6,0.5c0.3,0.2,0.5,0.4,0.8,0.6
		l0,0c0.2,0.1,0.5,0.2,0.7,0.2c0.3,0,0.5,0,0.8,0c0.1,0,0.2,0,0.4,0.1c0,0,0.1,0.1,0.1,0.2c0.1,0.2,0.2,0.4,0.4,0.7
		c0.1,0.1,0.2,0.3,0.3,0.4c0.1,0.2,0.3,0.3,0.5,0.4l0,0c0.2,0.1,0.3,0.1,0.5,0.1c0.3,0,0.5-0.1,0.7-0.2c0.3-0.1,0.6-0.3,0.8-0.4
		c0.1,0,0.2-0.1,0.2-0.1c0,0,0,0.1,0.1,0.1c0.1,0.2,0.2,0.5,0.4,0.8c0.1,0.2,0.2,0.3,0.3,0.4c0.2,0.2,0.4,0.3,0.6,0.4l0,0
		c0.6,0.2,1.3,0.3,1.8,0.4c0.1,0,0.2,0,0.3,0c0.2,0,0.5-0.1,0.7-0.1c0.3-0.1,0.5-0.2,0.7-0.3c0.1,0,0.1-0.1,0.2-0.1l0.1,0l0,0v0
		c0.1,0,0.3,0,0.4,0c0.5,0,0.9-0.1,1.2-0.1l0.1,0l0,0c0.5,0,1,0.2,1.8,0.3c0.2,0,0.4,0.1,0.6,0.2c0.2,0.1,0.3,0.2,0.5,0.2
		c0.2,0.1,0.5,0.1,0.7,0.1c0.3,0,0.5-0.1,0.8-0.2c0.2-0.1,0.5-0.3,0.7-0.5c0.1,0,0.1-0.1,0.2-0.1l0,0l0,0c0,0,0.1,0,0.1,0
		c0.1,0.1,0.3,0.2,0.6,0.3c0.3,0.2,0.6,0.3,1,0.3l0.2,0l0,0c0.1,0,0.1,0,0.2,0c0.3,0,0.6,0.1,1.1,0.1c0.2,0,0.4,0,0.5,0
		c0.4-0.1,0.7-0.2,1.1-0.4c0.2-0.1,0.4-0.2,0.6-0.3c0.2-0.1,0.5-0.2,0.7-0.3c0.2-0.2,0.4-0.3,0.6-0.5c0.1-0.1,0.2-0.2,0.3-0.2l0.1,0
		c0.2,0,0.3,0,0.5,0.1c0.3,0.1,0.5,0.1,0.8,0.1c0.2,0,0.4,0,0.6-0.1l0,0c0.1,0,0.1,0,0.2,0c0.2,0,0.5,0.1,0.9,0.1
		c0.3,0,0.5,0,0.8-0.1c0.2-0.1,0.3-0.2,0.5-0.3c0.2-0.2,0.3-0.4,0.4-0.6c0.1-0.3,0.2-0.6,0.3-0.8c0,0,0-0.1,0-0.1
		c0.2,0,0.3,0.1,0.5,0.1c0.3,0.1,0.7,0.2,1,0.2c0.2,0,0.5-0.1,0.7-0.2l0,0c0.2-0.1,0.4-0.3,0.6-0.5c0.2-0.2,0.3-0.4,0.4-0.7
		c0.1-0.1,0.1-0.2,0.2-0.3c0.6-0.4,1-0.8,1.4-1.1l0,0l0.1,0c0.2,0,0.5,0,0.9,0c0.2,0,0.3,0,0.5-0.1c0.2,0,0.4-0.1,0.6-0.3l0,0
		c0.2-0.2,0.4-0.4,0.4-0.7c0-0.2,0.1-0.4,0.1-0.6c0-0.3,0-0.6,0-0.8c0-0.1,0-0.1,0-0.2c0,0,0.1,0,0.1,0c0.2,0,0.4-0.1,0.7-0.2
		c0.4-0.1,0.7-0.3,1-0.5c0,0,0.1-0.1,0.2-0.1c0.1-0.1,0.4-0.1,0.7-0.3c0.3-0.1,0.7-0.3,0.9-0.6c0.1-0.2,0.2-0.4,0.3-0.6
		c0-0.2,0.1-0.3,0.1-0.5c0-0.4-0.1-0.7,0-0.9c0,0,0-0.1,0-0.1c0.2-0.2,0.3-0.4,0.5-0.5c0.3-0.2,0.5-0.5,0.7-0.8
		c0.4-0.6,0.6-1.1,0.9-1.6c0.1-0.2,0.3-0.3,0.5-0.4c0.4-0.2,0.7-0.6,0.9-0.9c0.3-0.6,0.5-1.2,0.7-1.7c0.3-0.6,0.4-1.2,0.6-1.7
		c0-0.1,0.1-0.1,0.1-0.1c0.1-0.1,0.3-0.3,0.5-0.5c0.3-0.2,0.5-0.6,0.6-0.9c0-0.1,0-0.2,0-0.3c0-0.3-0.1-0.6-0.3-0.9
		c-0.2-0.3-0.5-0.6-0.6-0.8c-0.1-0.1-0.1-0.1-0.1-0.2c0,0,0,0,0.1-0.1c0.2-0.1,0.4-0.3,0.7-0.5c0.1-0.1,0.3-0.2,0.4-0.4
		c0.2-0.2,0.3-0.4,0.3-0.6c0-0.1,0-0.2,0-0.3c0-0.4-0.1-0.7-0.3-1.1c-0.1-0.2-0.1-0.4-0.2-0.5l0,0l0-0.2c0-0.4-0.1-0.8-0.3-1.1
		c-0.1-0.2-0.1-0.3-0.2-0.5l0,0l0,0l0,0c0.1-0.2,0.2-0.4,0.3-0.6c0.1-0.2,0.2-0.3,0.3-0.5c0.1-0.2,0.2-0.5,0.2-0.7
		c0-0.3-0.1-0.5-0.2-0.8c-0.1-0.2-0.3-0.5-0.4-0.7c0-0.1-0.1-0.1-0.1-0.2l0,0l0,0c0.1-0.2,0.3-0.4,0.4-0.6c0.1-0.1,0.2-0.3,0.3-0.5
		c0.1-0.2,0.2-0.5,0.2-0.7l0-0.1l0,0c0-0.3-0.2-0.6-0.3-0.8c-0.2-0.2-0.4-0.5-0.6-0.7c-0.1-0.1-0.1-0.1-0.2-0.2l0,0
		c-0.1-0.6-0.2-1.1-0.4-1.7c0.1-0.2,0.2-0.4,0.4-0.6c0.1-0.2,0.2-0.3,0.3-0.5c0.1-0.2,0.2-0.5,0.2-0.7c0-0.1,0-0.2,0-0.3
		c-0.1-0.4-0.3-0.7-0.5-1c-0.1-0.2-0.3-0.4-0.4-0.7c-0.1-0.2-0.1-0.5-0.2-0.8c-0.1-0.4-0.1-0.7-0.3-1.1c-0.2-0.5-0.4-1.1-0.7-1.7
		c-0.1-0.2-0.2-0.3-0.3-0.4c-0.2-0.1-0.4-0.3-0.6-0.3c-0.3-0.1-0.6-0.2-0.8-0.2c-0.1,0-0.1,0-0.2-0.1c-0.1-0.2-0.1-0.4-0.2-0.6
		c-0.1-0.4-0.2-0.8-0.4-1.1l0,0c-0.1-0.2-0.1-0.4-0.1-0.6c0-0.2,0-0.4-0.1-0.6c0-0.3-0.1-0.5-0.3-0.7c-0.2-0.3-0.5-0.4-0.8-0.5
		c-0.3-0.1-0.6-0.1-1-0.2c-0.1,0-0.2,0-0.3-0.1l0,0C-99.6,423.7-99.7,423.5-99.8,423.3z M-104.8,419.1L-104.8,419.1L-104.8,419.1
		L-104.8,419.1z M-147.9,425.5L-147.9,425.5L-147.9,425.5L-147.9,425.5z M-151.3,431.8L-151.3,431.8L-151.3,431.8L-151.3,431.8z
		 M-151.8,435.4L-151.8,435.4L-151.8,435.4L-151.8,435.4z M-152.9,447.4L-152.9,447.4L-152.9,447.4L-152.9,447.4z M-119.8,473.4
		L-119.8,473.4L-119.8,473.4L-119.8,473.4z M-98.9,425.6c0.1,0,0.1,0,0.2,0.1c0,0,0,0.1,0,0.1c0,0.2,0,0.4,0,0.7
		c0,0.4,0.1,0.7,0.3,1c0.1,0.2,0.2,0.4,0.2,0.6c0.1,0.4,0.2,0.7,0.4,1.1c0.2,0.3,0.4,0.5,0.7,0.6c0.4,0.2,0.7,0.2,0.9,0.3
		c0.1,0,0.2,0.1,0.2,0.1c0.2,0.4,0.4,1,0.6,1.6c0.1,0.2,0.1,0.5,0.2,0.7c0,0.3,0.1,0.7,0.2,1c0.1,0.3,0.3,0.7,0.5,1
		c0.1,0.2,0.2,0.4,0.3,0.6c0,0.1-0.1,0.1-0.1,0.2c-0.1,0.2-0.3,0.4-0.4,0.6c-0.2,0.3-0.3,0.6-0.3,1c0,0.1,0,0.2,0,0.3
		c0.1,0.6,0.3,1.1,0.4,1.7c0.1,0.3,0.2,0.5,0.4,0.8c0.2,0.3,0.4,0.5,0.6,0.6c0,0.1,0.1,0.1,0.1,0.2c-0.1,0.2-0.3,0.4-0.4,0.6
		c-0.1,0.1-0.2,0.3-0.3,0.5c-0.1,0.2-0.2,0.5-0.2,0.7l0,0.1c0,0.3,0.1,0.5,0.2,0.7c0.2,0.3,0.3,0.5,0.4,0.7c0,0.1,0.1,0.1,0.1,0.2
		l0,0l0,0c-0.1,0.2-0.2,0.3-0.3,0.5c-0.1,0.2-0.2,0.3-0.3,0.5c-0.1,0.2-0.2,0.5-0.2,0.7l0,0.1c0,0.4,0.1,0.8,0.3,1.1
		c0.1,0.2,0.1,0.3,0.2,0.5l0,0l0,0.2c0,0.4,0.1,0.7,0.3,1.1c0.1,0.2,0.1,0.3,0.2,0.5c-0.2,0.2-0.4,0.3-0.6,0.4
		c-0.2,0.1-0.3,0.2-0.5,0.4c-0.2,0.2-0.4,0.4-0.4,0.7c0,0.1,0,0.2,0,0.3c0,0.3,0.1,0.6,0.3,0.9c0.2,0.3,0.5,0.6,0.6,0.8
		c0.1,0.1,0.1,0.1,0.2,0.2c0,0,0,0,0,0c-0.1,0.1-0.3,0.3-0.5,0.5c-0.3,0.2-0.5,0.5-0.6,0.9c-0.2,0.6-0.4,1.1-0.6,1.6
		c-0.3,0.6-0.4,1.2-0.6,1.6c-0.1,0.2-0.3,0.3-0.4,0.4c-0.4,0.2-0.7,0.5-0.9,0.9c-0.3,0.6-0.6,1.1-0.8,1.5c-0.1,0.2-0.3,0.4-0.5,0.5
		c-0.3,0.2-0.5,0.5-0.7,0.7l0,0c-0.1,0.2-0.2,0.4-0.2,0.6c0,0.2,0,0.3,0,0.5c0,0.4,0.1,0.7,0,0.9c0,0,0,0.1,0,0.1c0,0-0.1,0-0.1,0.1
		c-0.1,0.1-0.4,0.1-0.6,0.2c-0.3,0.1-0.6,0.3-0.9,0.5l0,0c0,0-0.1,0-0.1,0.1c-0.1,0-0.4,0.1-0.7,0.1c-0.4,0.1-0.7,0.2-1,0.5l0,0
		c-0.2,0.2-0.3,0.4-0.4,0.7c0,0.2-0.1,0.4-0.1,0.6c0,0.3,0,0.6,0,0.8c0,0.1,0,0.1,0,0.1c0,0,0,0,0,0c-0.2,0-0.5,0-0.9,0
		c-0.2,0-0.3,0-0.5,0c-0.2,0-0.4,0.1-0.6,0.2c-0.6,0.4-0.9,0.9-1.3,1.1c-0.2,0.1-0.4,0.3-0.5,0.5c-0.2,0.3-0.3,0.5-0.4,0.7
		c0,0.1-0.1,0.2-0.2,0.2c-0.2,0-0.3-0.1-0.5-0.1c-0.3-0.1-0.7-0.2-1-0.2c-0.2,0-0.4,0-0.6,0.1c-0.2,0.1-0.3,0.2-0.4,0.3
		c-0.1,0.2-0.3,0.4-0.4,0.6c-0.1,0.3-0.2,0.6-0.3,0.8c0,0,0,0.1-0.1,0.1c0,0-0.1,0-0.1,0c-0.2,0-0.5-0.1-0.9-0.1
		c-0.2,0-0.5,0-0.7,0.1l0,0l-0.1,0c-0.2,0-0.3,0-0.5-0.1c-0.3-0.1-0.5-0.1-0.8-0.1c-0.2,0-0.3,0-0.5,0.1c-0.4,0.2-0.8,0.4-1.1,0.7
		c-0.1,0.1-0.2,0.2-0.3,0.3c0,0-0.1,0.1-0.1,0.1c-0.4,0.1-0.7,0.2-1,0.4c-0.2,0.1-0.4,0.2-0.6,0.3c-0.1,0-0.2,0-0.3,0
		c-0.3,0-0.6-0.1-1.1-0.1c-0.1,0-0.3,0-0.4,0v0c0,0-0.1,0-0.1,0c-0.1-0.1-0.3-0.2-0.6-0.3c-0.3-0.2-0.6-0.3-1-0.3l-0.1,0h0
		c-0.3,0-0.5,0.1-0.8,0.2c-0.3,0.2-0.5,0.3-0.7,0.5c-0.1,0-0.1,0.1-0.2,0.1l0,0c-0.1,0-0.1,0-0.2,0c-0.1,0-0.3-0.2-0.6-0.3
		c-0.3-0.2-0.6-0.3-0.9-0.3c-0.5,0-1-0.2-1.7-0.3c-0.1,0-0.2,0-0.3,0c-0.5,0-0.9,0.1-1.2,0.1c-0.1,0-0.1,0-0.2,0l0,0
		c-0.1,0-0.2,0-0.2,0c-0.2,0-0.5,0.1-0.7,0.1c-0.3,0.1-0.5,0.2-0.7,0.3c-0.1,0-0.1,0.1-0.2,0.1l-0.1,0l0,0c-0.6-0.1-1.1-0.2-1.6-0.4
		c-0.1-0.1-0.1-0.1-0.1-0.2c-0.1-0.2-0.2-0.5-0.4-0.7c-0.1-0.2-0.2-0.3-0.3-0.4c-0.1-0.2-0.3-0.3-0.5-0.4c-0.1,0-0.3-0.1-0.4-0.1
		c-0.3,0-0.5,0.1-0.7,0.2c-0.3,0.1-0.6,0.3-0.8,0.4c-0.1,0-0.2,0.1-0.2,0.1c-0.1-0.1-0.2-0.3-0.3-0.6c-0.1-0.2-0.2-0.3-0.3-0.5
		c-0.1-0.2-0.3-0.4-0.5-0.5l0,0c-0.2-0.1-0.5-0.2-0.7-0.2c-0.3,0-0.6,0-0.8,0c-0.1,0-0.2,0-0.3-0.1c-0.2-0.1-0.4-0.3-0.6-0.5
		c-0.2-0.2-0.5-0.4-0.8-0.6l0,0c-0.1-0.1-0.3-0.3-0.3-0.5c-0.2-0.4-0.4-0.7-0.8-1l0,0c-0.2-0.1-0.3-0.3-0.5-0.5
		c-0.2-0.3-0.4-0.5-0.7-0.7l0,0c-0.3-0.2-0.7-0.4-1-0.5c-0.2-0.1-0.4-0.2-0.5-0.3c0,0-0.1-0.1-0.1-0.1c-0.1-0.1-0.1-0.3-0.2-0.6
		c-0.1-0.3-0.3-0.6-0.5-0.9c-0.2-0.2-0.4-0.3-0.7-0.4c-0.3-0.1-0.6-0.2-0.8-0.2c-0.1,0-0.1,0-0.2-0.1l0,0l0,0
		c-0.4-0.5-0.8-0.9-1.1-1.3l0,0c-0.2-0.3-0.5-0.5-0.8-0.8c-0.2-0.1-0.3-0.3-0.5-0.5c0-0.1,0-0.1-0.1-0.2c0-0.1,0-0.4-0.1-0.7
		c0-0.3-0.1-0.7-0.3-1l0,0c-0.1-0.2-0.1-0.4-0.1-0.6c0-0.4-0.1-0.8-0.3-1.1c-0.1-0.2-0.2-0.3-0.4-0.4c-0.2-0.1-0.4-0.3-0.7-0.3
		c-0.3-0.1-0.6-0.2-0.8-0.2l0,0c0,0,0,0,0,0c0.1-0.2,0.2-0.4,0.4-0.7c0.2-0.3,0.3-0.6,0.3-1c0-0.1,0-0.3-0.1-0.4l0,0
		c-0.1-0.2-0.2-0.4-0.3-0.5c-0.2-0.2-0.4-0.3-0.6-0.4c-0.3-0.1-0.6-0.2-0.8-0.3c0,0,0,0,0,0c0,0,0,0,0-0.1c0.1-0.2,0.2-0.4,0.3-0.6
		c0.2-0.3,0.3-0.6,0.3-0.9c0-0.1,0-0.2,0-0.3c-0.1-0.2-0.2-0.5-0.3-0.7c-0.2-0.3-0.4-0.5-0.5-0.6c-0.1-0.1-0.1-0.1-0.1-0.2l0-0.1
		l0,0c0-0.2,0-0.4,0-0.6c0-0.1,0-0.3,0-0.5c0-0.2,0-0.4,0-0.7c0-0.1,0-0.1,0.1-0.2c0.1-0.1,0.2-0.3,0.3-0.6c0.2-0.3,0.3-0.6,0.3-1
		l0-0.1v0c0-0.4-0.2-0.8-0.4-1.2c-0.1-0.1-0.1-0.2-0.2-0.3c0-0.1,0-0.1,0-0.2c0-0.1,0-0.1,0-0.2c0.1-0.1,0.2-0.3,0.3-0.6
		c0.2-0.3,0.3-0.6,0.3-1l0-0.2c0-0.3,0-0.6-0.1-0.9c0-0.2-0.1-0.4-0.1-0.6l0-0.1l0,0l0-0.2c0-0.3-0.1-0.5-0.2-0.8
		c-0.1-0.3-0.3-0.5-0.4-0.7c0-0.1-0.1-0.1-0.1-0.2l0,0c0.1-0.5,0.3-1.1,0.4-1.7v0c0.1-0.2,0.2-0.3,0.3-0.5c0.3-0.3,0.5-0.7,0.6-1
		l0,0l0,0c0.2-0.2,0.3-0.3,0.5-0.4c0.1-0.1,0.3-0.2,0.4-0.4c0.2-0.2,0.3-0.4,0.4-0.6l0,0c0.2-0.6,0.4-1,0.6-1.6l0,0
		c0.1-0.2,0.1-0.4,0.1-0.5c0-0.4-0.1-0.7-0.2-1c-0.1-0.2-0.1-0.3-0.1-0.5c0.1-0.4,0.2-0.8,0.2-1.1c0-0.2,0-0.4,0.1-0.6
		c0.1,0,0.1-0.1,0.2-0.1c0.2-0.1,0.5-0.1,0.7-0.2c0.2-0.1,0.3-0.1,0.5-0.2c0.2-0.1,0.3-0.3,0.5-0.4l0,0c0.1-0.2,0.3-0.3,0.5-0.4
		c0.3-0.2,0.6-0.5,0.8-0.8l0,0c0.2-0.2,0.3-0.5,0.3-0.8c0-0.4,0-0.7,0-0.9c0-0.1,0-0.2,0-0.2l0,0c0.3-0.4,0.8-0.8,1.2-1.3
		c0.2-0.2,0.4-0.3,0.6-0.4c0.3-0.2,0.6-0.4,0.8-0.6l0,0c0.2-0.2,0.3-0.4,0.4-0.7c0.1-0.3,0.2-0.6,0.2-0.8c0-0.1,0-0.2,0.1-0.2l0,0
		l0,0c0.2-0.1,0.4-0.1,0.6-0.1c0.4,0,0.8-0.2,1.1-0.4l0,0c0.2-0.1,0.4-0.2,0.6-0.3c0.3-0.1,0.7-0.3,1-0.5c0.6-0.4,1-0.8,1.4-1l0,0
		c0.2-0.1,0.4-0.4,0.6-0.6c0.2-0.3,0.3-0.6,0.4-0.8c0-0.1,0.1-0.1,0.1-0.2l0,0l0.1,0c0.2,0,0.3,0,0.5,0.1c0.2,0,0.5,0.1,0.7,0.1
		c0.2,0,0.5,0,0.7-0.1l0,0c0.5-0.2,1-0.4,1.6-0.6l0,0c0.3-0.1,0.5-0.3,0.7-0.5c0.2-0.3,0.4-0.5,0.5-0.7c0,0,0.1-0.1,0.1-0.1
		c0.2,0.1,0.4,0.3,0.7,0.5c0.2,0.1,0.3,0.2,0.5,0.3c0.2,0.1,0.5,0.2,0.7,0.2c0.1,0,0.2,0,0.3,0c0.2-0.1,0.4-0.2,0.6-0.3
		c0.2-0.2,0.3-0.4,0.4-0.7c0.1-0.3,0.3-0.6,0.4-0.8c0.2,0.2,0.4,0.4,0.7,0.7c0.1,0.1,0.3,0.2,0.4,0.4c0.2,0.1,0.5,0.2,0.7,0.2l0.1,0
		l0,0c0.3,0,0.5-0.1,0.7-0.3c0.3-0.2,0.5-0.4,0.7-0.5c0.1,0,0.1-0.1,0.2-0.1l0,0l0,0c0.2,0.1,0.4,0.2,0.6,0.3
		c0.2,0.1,0.3,0.2,0.5,0.2c0.2,0.1,0.4,0.1,0.7,0.1c0.3,0,0.6-0.1,0.8-0.3c0.3-0.2,0.5-0.3,0.7-0.5c0.1-0.1,0.1-0.1,0.2-0.1l0,0
		c0.2,0,0.3,0,0.4,0c0.2,0,0.5,0,0.7,0c0.2,0,0.4,0,0.6,0c0.1,0,0.2,0,0.4,0c0.5,0,0.9-0.1,1.2-0.1c0.1,0,0.2,0,0.2,0
		c0.2,0.1,0.5,0.1,0.7,0.2c0.3,0.2,0.6,0.3,1,0.4c0.7,0.2,1.3,0.2,1.7,0.3c0.2,0.1,0.4,0.2,0.6,0.3c0.3,0.2,0.6,0.4,0.9,0.5l0,0l0,0
		c0.1,0.2,0.3,0.4,0.4,0.5c0.1,0.2,0.2,0.3,0.3,0.4c0.2,0.2,0.3,0.3,0.6,0.4c0.2,0.1,0.4,0.1,0.7,0.1c0.3,0,0.5,0,0.8-0.1
		c0.2,0,0.3-0.1,0.5-0.1l0,0c0.2,0.1,0.4,0.3,0.6,0.4c0.3,0.2,0.5,0.4,0.8,0.6l0,0c0.3,0.2,0.7,0.2,1,0.2c0.3,0,0.5,0,0.7,0
		c0.1,0,0.1,0,0.2,0c0,0.1,0,0.1,0,0.2c0,0.2,0.1,0.5,0.1,0.9c0,0.2,0.1,0.4,0.1,0.5c0.1,0.2,0.2,0.4,0.4,0.6l0,0
		c0.4,0.3,0.8,0.7,1.3,1.1c0.2,0.2,0.5,0.3,0.8,0.3c0.4,0.1,0.7,0.1,0.9,0.1c0.1,0,0.2,0,0.2,0l0,0c0.1,0.2,0.3,0.3,0.4,0.5
		c0.2,0.3,0.4,0.6,0.6,0.9l0,0c0.1,0.2,0.2,0.4,0.3,0.6c0.1,0.4,0.3,0.7,0.6,1c0.2,0.2,0.5,0.4,0.8,0.5
		C-99.5,425.5-99.1,425.5-98.9,425.6z"/>
	<polygon points="-110.2,469.8 -110.2,469.8 -110.2,469.8 	"/>
	<polygon points="-94.2,445.6 -94.2,445.6 -94.2,445.6 	"/>
	<polygon points="-97.5,424.7 -97.5,424.7 -97.5,424.7 	"/>
	<polygon points="-139.5,419.1 -139.5,419.1 -139.5,419.1 	"/>
	<polygon points="-144.3,463.8 -144.3,463.8 -144.3,463.8 	"/>
	<polygon points="-149.3,457 -149.3,457 -149.3,457 	"/>
	<polygon points="-126.6,472.7 -126.6,472.7 -126.6,472.7 	"/>
</g>
</svg>
