<?xml version="1.0" encoding="utf-8"?>
<!-- Generator: Adobe Illustrator 19.0.0, SVG Export Plug-In . SVG Version: 6.00 Build 0)  -->
<svg version="1.1" id="Capa_1" xmlns="http://www.w3.org/2000/svg" xmlns:xlink="http://www.w3.org/1999/xlink" x="0px" y="0px"
	 viewBox="-210 325.9 173.5 190" style="enable-background:new -210 325.9 173.5 190;" xml:space="preserve">
<path d="M-85.5,394.8c-8.4-3.7-19.7-5.5-19.7-5.5c4.1-1.4,11,0.7,14.9,1.7c8.4,1.8,17.4,1.1,25.9-4.8c7-4.8,6.9-12.7,6.9-12.7
	c-1.5,2.6-12.7,14.5-33.1,9.9c-9-2.1-17.5-2.1-22.6-1.9c0.6-5.1,0.1-11.4-2.8-17.9c0,0-8.8,21.5-23.9,24.5c-1.7,3-5,8.3-11,12.7
	c-4.6,3.4-9.1,5.2-12.7,6.3c-2.6,0.8-3.7,3.9-2.2,6.1c2.2,3.3,5.8,7.2,11.2,8.8c0,0-2.1-4.8-1.4-7.2c0,0,2.8,3.3,9.2,3
	c0,0-3.6-2.2-3.4-5.7c0,0,3.4,3,9.1,2.6c0,0-3.7-1-3.4-5.4c0,0,7-1,13.2,1.2c-1.4,0.6-2.9,1.2-4.4,2.2c-3.2,1.8-5.5,3.7-7.4,5.5
	c-0.6,0.4-1.5,1.1-2.9,1.5c-2.3,0.6-4.3-0.3-4.8-0.6c0,0,1.1,2.3,2.6,3c1.5,0.7-1.8,1.7-4.4,1.1c-2.6-0.4-5.4-1.7-5.4-1.7
	c0.1,0.3,1.4,5.7,6.5,7.4c0.8,0.3,1.5,0.4,2.2,0.6c3,0.3,5.9-1.4,7.2-4.1c0-0.1,0.1-0.3,0.3-0.4c0,0,1.4-2.6,4.4-5
	c3.2-2.5,9.5-4.6,17.5-4.6c4.1,2.3,6.9,7,6.2,11.7c-0.4,2.8-1.8,5.1-3.2,7.3c-4.1,6.6-13.9,8.3-21,10.3c-5.9,1.7-12,3.2-18.1,4.1
	c-5,0.8-9.8,1.5-14.5,3.7c-5.9,3-11,7.9-14.5,13.9c-1.4,2.5-2.5,5.2-3.3,8c-0.1,0.4-0.4,3.2-0.7,3.3c15.4-9.7,23.6-6.9,48.9-5.9
	c25.4,1.1,34.2-14.1,34.2-14.1c-0.7,6.2-10.1,17.1-10.1,17.1c16.3-3.3,24.8-31.9,24.8-31.9c1.7,9.8-6.2,23.4-6.2,23.4
	c29.2-29.5,7.3-53.4,7.3-53.4c8.8,3.2,14.9,17,14.9,17c0.3-4.8-0.1-9.8-2.2-14.2c-1.1-2.3-2.5-4.4-4.4-6.2c-1.9-1.9-4.3-3.3-6.8-4.6
	c-1.7-0.8-3.3-1.8-5-2.9c-0.8-0.6-1.7-1.1-2.3-1.7s-1.8-1.1-2.3-1.9c0.7-0.1,1.7,0.3,2.2,0.4c0.8,0.3,1.5,0.4,2.2,0.7
	c1.5,0.6,2.9,1.1,4.4,1.5c1.7,0.6,3.3,1,5,1.4c17.5,4.4,23.9-5.5,23.9-5.5C-64.9,400.9-77.1,398.6-85.5,394.8z M-131.6,393.9
	l-0.3,1.4c-0.3,1-0.8,1.9-1.8,2.3l-3.7,1.8c-1.1,0.6-1.9-0.8-1.1-1.7l5.1-4.8C-132.7,392.1-131.5,392.8-131.6,393.9z"/>
</svg>
