<?xml version="1.0" encoding="utf-8"?>
<!-- Generator: Adobe Illustrator 19.0.0, SVG Export Plug-In . SVG Version: 6.00 Build 0)  -->
<svg version="1.1" id="Capa_1" xmlns="http://www.w3.org/2000/svg" xmlns:xlink="http://www.w3.org/1999/xlink" x="0px" y="0px"
	 viewBox="-210 325.9 173.5 190" style="enable-background:new -210 325.9 173.5 190;" xml:space="preserve">
<g>
	<path d="M-187.7,435.6h27.3v30.6h32.7v17.1h44.7l-17.4-17.9c-6.7-0.8-12.6-2.7-17.7-5.7c-6.8-4.1-10.2-8.9-10.2-14.7
		c0-5.7,3.4-10.6,10.2-14.7c3-1.8,6.3-3.2,10-4.2v24.7h29.8v-24.6c3.5,1,6.7,2.3,9.6,4.1c5.8,3.5,9.2,7.5,10,12.2v-84h-81.9
		L-187.7,435.6L-187.7,435.6z M-143.4,394.6c1.8,0,3.2,0.6,4.5,1.9c1.2,1.2,1.9,2.7,1.9,4.5c0,1.8-0.6,3.2-1.9,4.4
		c-1.2,1.2-2.7,1.9-4.5,1.9s-3.2-0.6-4.4-1.9c-1.2-1.2-1.9-2.7-1.9-4.4c0-1.8,0.6-3.2,1.9-4.5C-146.6,395.3-145.2,394.6-143.4,394.6
		L-143.4,394.6z"/>
	<path d="M-58.8,474.1v-26.7c-0.9,4.7-4.2,8.7-10,12.2c-0.9,0.5-1.7,1-2.6,1.4L-58.8,474.1L-58.8,474.1z"/>
</g>
</svg>
