<?xml version="1.0" encoding="utf-8"?>
<!-- Generator: Adobe Illustrator 19.0.0, SVG Export Plug-In . SVG Version: 6.00 Build 0)  -->
<svg version="1.1" id="Capa_1" xmlns="http://www.w3.org/2000/svg" xmlns:xlink="http://www.w3.org/1999/xlink" x="0px" y="0px"
	 viewBox="-210 325.9 173.5 190" style="enable-background:new -210 325.9 173.5 190;" xml:space="preserve">
<g id="XMLID_100_">
	<path d="M-45.1,494.1h-156.3c-2,0-3.8-1-4.8-2.7s-1-3.8,0-5.5l78.1-135.4c1-1.7,2.8-2.8,4.8-2.8l0,0c2,0,3.8,1,4.8,2.7l78.2,135.4
		c1,1.7,1,3.8,0,5.5C-41.3,493-43.1,494.1-45.1,494.1z M-191.9,483.1h137.3l-68.7-118.9L-191.9,483.1z"/>
</g>
<g>
	<path d="M-130.3,432.8c-0.4-0.2-1.1-0.3-1.9-0.3h-4.5v5.2h4.4c0.9,0,1.5-0.1,1.9-0.3c0.8-0.4,1.1-1.1,1.1-2.2
		C-129.3,434-129.6,433.2-130.3,432.8z"/>
	<path d="M-100.6,414.9h-45.3c-4.1,0-7.3,3.1-7.3,6.9v34.5c0,3.8,3.3,6.9,7.3,6.9h4.8v10.2c0,0.6,0.4,1.2,1,1.5
		c0.3,0.1,0.5,0.1,0.7,0.1c0.4,0,0.8-0.1,1.1-0.3l15.1-11.5h22.5c4.1,0,7.3-3.1,7.3-6.9v-34.5C-93.3,418-96.5,414.9-100.6,414.9z
		 M-124.8,448.6h-4.5c-0.1-0.4-0.2-0.8-0.3-1.1c-0.1-0.5-0.1-1.1-0.2-1.7V444c0-1.3-0.2-2.1-0.7-2.5c-0.4-0.4-1.2-0.6-2.3-0.6h-4
		v7.6h-4v-19.5h9.3c1.3,0,2.3,0.2,3.1,0.5c0.7,0.3,1.3,0.7,1.8,1.3c0.4,0.5,0.7,1.1,1,1.7c0.3,0.6,0.3,1.3,0.3,2.1
		c0,0.9-0.3,1.9-0.7,2.7c-0.5,0.9-1.3,1.5-2.3,1.9c0.9,0.3,1.5,0.9,1.9,1.5c0.4,0.7,0.5,1.7,0.5,3.1v1.3c0,0.9,0.1,1.5,0.1,1.8
		c0.1,0.5,0.3,0.9,0.7,1.1L-124.8,448.6L-124.8,448.6z M-105.7,441c0,2.1-0.3,3.7-0.9,4.8c-1.2,2.1-3.5,3.2-6.9,3.2
		c-3.3,0-5.7-1.1-6.9-3.2c-0.7-1.1-0.9-2.7-0.9-4.8v-11.9h4.1V441c0,1.3,0.1,2.3,0.5,2.9c0.5,1.1,1.5,1.7,3.2,1.7
		c1.7,0,2.7-0.5,3.2-1.7c0.3-0.6,0.5-1.6,0.5-2.9v-11.9h4.1C-105.7,429.1-105.7,441-105.7,441z"/>
</g>
</svg>
