<?xml version="1.0" encoding="utf-8"?>
<!-- Generator: Adobe Illustrator 19.0.0, SVG Export Plug-In . SVG Version: 6.00 Build 0)  -->
<svg version="1.1" id="Capa_1" xmlns="http://www.w3.org/2000/svg" xmlns:xlink="http://www.w3.org/1999/xlink" x="0px" y="0px"
	 viewBox="-210 325.9 173.5 190" style="enable-background:new -210 325.9 173.5 190;" xml:space="preserve">
<polygon points="-174.8,443.6 -124.8,493.7 -74.7,443.6 "/>
<path d="M-121.7,342.4l-80,80l77,77l80-80L-121.7,342.4z M-124.8,496.5l-74.2-74.2l77.2-77.2l74.2,74.2L-124.8,496.5z"/>
<g>
	<path d="M-167.2,421.3c-0.3,0.2-0.4,0.5-0.4,1c0,0.4,0.1,0.7,0.4,0.9s0.7,0.3,1.2,0.3h2.2v-2.5h-2.2
		C-166.5,421.1-166.9,421.2-167.2,421.3z"/>
	<path d="M-121.7,348.1l-74.3,74.3l18.2,18.2h106.2l21.2-21.2L-121.7,348.1z M-131.7,400.1c0-1.1,0.8-1.9,1.9-1.9
		c-1,0-1.9-0.8-1.9-1.9v-12.2c0-0.6,0.2-1.1,0.6-1.4c-1.6-2.5,0.1-5.1,1.6-7.6c0.8-1.4,2-2.6,3.5-3.3V368h7.5v3.8
		c1.4,0.7,2.6,1.9,3.5,3.3c1.5,2.5,3.2,5.1,1.5,7.6c0.4,0.3,0.6,0.8,0.6,1.4v12.2c0,1-0.8,1.9-1.9,1.9c1,0,1.9,0.8,1.9,1.9v3.8
		c0,1-0.8,1.9-1.9,1.9h-15.1c-1,0-1.9-0.8-1.9-1.9V400.1z M-170.8,423.5c-0.1,0.3-0.3,0.6-0.5,0.9c-0.2,0.2-0.6,0.4-0.9,0.6
		c-0.4,0.1-0.8,0.2-1.3,0.2h-7.1v-1.7h7.1c0.4,0,0.8-0.1,1-0.3c0.2-0.2,0.4-0.5,0.4-0.9c0-0.4-0.1-0.7-0.4-0.9
		c-0.2-0.2-0.6-0.3-1-0.3h-4.4c-0.4,0-0.8-0.1-1.2-0.2c-0.4-0.1-0.7-0.3-0.9-0.6c-0.2-0.2-0.4-0.5-0.6-0.9s-0.2-0.7-0.2-1.1
		c0-0.4,0.1-0.7,0.2-1.1c0.1-0.3,0.3-0.6,0.6-0.8c0.2-0.2,0.6-0.4,0.9-0.6c0.4-0.1,0.8-0.2,1.3-0.2h6.8v1.7h-6.8
		c-0.4,0-0.7,0.1-0.9,0.3c-0.2,0.2-0.3,0.5-0.3,0.9c0,0.4,0.1,0.6,0.3,0.9s0.5,0.3,0.9,0.3h4.4c1,0,1.7,0.2,2.2,0.7
		c0.5,0.5,0.8,1.1,0.8,2.1C-170.6,422.8-170.6,423.2-170.8,423.5z M-160.4,425.2h-5.9c-0.5,0-0.9-0.1-1.3-0.2
		c-0.4-0.1-0.7-0.3-1-0.6s-0.5-0.6-0.6-0.9c-0.1-0.4-0.2-0.8-0.2-1.2c0-0.5,0.1-1,0.4-1.4c0.3-0.4,0.6-0.6,1.1-0.8
		c-0.4-0.1-0.7-0.3-0.9-0.6c-0.3-0.3-0.4-0.8-0.4-1.4c0-0.4,0.1-0.8,0.2-1.1c0.1-0.3,0.4-0.6,0.6-0.8s0.6-0.4,1-0.5
		c0.4-0.1,0.8-0.2,1.3-0.2h1.8v1.6h-1.9c-0.9,0-1.3,0.4-1.3,1.2c0,0.4,0.1,0.6,0.3,0.9c0.2,0.2,0.6,0.3,1,0.3h5.1v1.4h-1.1v2.5h1.7
		V425.2z M-149.7,417.4h-5.2c-0.4,0-0.8,0.1-1.2,0.2c-0.4,0.2-0.7,0.4-0.9,0.6c-0.3,0.3-0.5,0.6-0.6,1c-0.1,0.4-0.2,0.8-0.2,1.2
		c0,0.4,0.1,0.9,0.2,1.2c0.1,0.4,0.4,0.7,0.6,1c0.3,0.3,0.6,0.5,0.9,0.6c0.4,0.2,0.8,0.2,1.2,0.2h5.2v1.7h-5.2
		c-0.7,0-1.3-0.1-1.8-0.4c-0.6-0.2-1.1-0.6-1.5-1c-0.4-0.4-0.7-0.9-1-1.5c-0.2-0.6-0.3-1.2-0.3-1.9c0-0.7,0.1-1.3,0.3-1.9
		c0.2-0.6,0.6-1.1,1-1.5c0.4-0.4,0.9-0.7,1.5-0.9c0.6-0.2,1.2-0.3,1.8-0.3h5.2V417.4z M-134.6,420.5c-0.2,0.4-0.4,0.8-0.7,1.1
		c-0.3,0.3-0.7,0.5-1.1,0.7c-0.4,0.2-0.9,0.3-1.5,0.3h-3.8V421h3.8c0.6,0,1-0.2,1.4-0.5s0.5-0.8,0.5-1.3c0-0.5-0.2-1-0.5-1.3
		s-0.8-0.5-1.4-0.5h-5v7.9h-1.6v-9.5h6.7c0.5,0,1,0.1,1.5,0.2c0.4,0.2,0.8,0.4,1.1,0.7c0.3,0.3,0.5,0.6,0.7,1.1
		c0.2,0.4,0.2,0.9,0.2,1.4C-134.4,419.6-134.4,420.1-134.6,420.5z M-125.1,425.2h-8.1v-9.5h1.7v7.9h6.4V425.2z M-114,425.2l-1.4-2.4
		h-4.5l0.8-1.3h2.9l-2.1-3.6l-4.3,7.3h-1.9l5.5-9.1c0.1-0.2,0.2-0.3,0.3-0.4c0.1-0.1,0.3-0.1,0.5-0.1s0.3,0,0.5,0.1
		c0.1,0.1,0.2,0.2,0.3,0.4l5.5,9.1H-114z M-101.1,423.5c-0.1,0.3-0.3,0.6-0.5,0.9c-0.2,0.2-0.6,0.4-0.9,0.6s-0.8,0.2-1.3,0.2h-7.1
		v-1.7h7.1c0.4,0,0.8-0.1,1-0.3c0.2-0.2,0.4-0.5,0.4-0.9c0-0.4-0.1-0.7-0.4-0.9c-0.2-0.2-0.6-0.3-1-0.3h-4.4c-0.4,0-0.8-0.1-1.2-0.2
		c-0.4-0.1-0.7-0.3-0.9-0.6c-0.2-0.2-0.4-0.5-0.6-0.9c-0.1-0.3-0.2-0.7-0.2-1.1c0-0.4,0.1-0.7,0.2-1.1c0.1-0.3,0.3-0.6,0.6-0.8
		c0.2-0.2,0.6-0.4,0.9-0.6c0.4-0.1,0.8-0.2,1.3-0.2h6.8v1.7h-6.8c-0.4,0-0.7,0.1-0.9,0.3c-0.2,0.2-0.3,0.5-0.3,0.9
		c0,0.4,0.1,0.6,0.3,0.9s0.5,0.3,0.9,0.3h4.4c1,0,1.7,0.2,2.2,0.7c0.5,0.5,0.8,1.1,0.8,2.1C-100.9,422.8-101,423.2-101.1,423.5z
		 M-91.1,417.4h-3.6v7.9h-1.7v-7.9h-3.6v-1.7h8.9V417.4z M-88.3,425.2h-1.7v-9.5h1.7V425.2z M-77,417.4h-5.2c-0.4,0-0.8,0.1-1.2,0.2
		c-0.4,0.2-0.7,0.4-0.9,0.6s-0.5,0.6-0.6,1s-0.2,0.8-0.2,1.2c0,0.4,0.1,0.9,0.2,1.2c0.1,0.4,0.4,0.7,0.6,1c0.3,0.3,0.6,0.5,0.9,0.6
		c0.4,0.2,0.8,0.2,1.2,0.2h5.2v1.7h-5.2c-0.7,0-1.3-0.1-1.8-0.4s-1.1-0.6-1.5-1c-0.4-0.4-0.7-0.9-1-1.5c-0.2-0.6-0.3-1.2-0.3-1.9
		c0-0.7,0.1-1.3,0.3-1.9c0.2-0.6,0.6-1.1,1-1.5c0.4-0.4,0.9-0.7,1.5-0.9c0.6-0.2,1.2-0.3,1.8-0.3h5.2V417.4z M-66.3,424.4
		c-0.2,0.2-0.6,0.4-0.9,0.6s-0.8,0.2-1.3,0.2h-7.1v-1.7h7.1c0.4,0,0.8-0.1,1-0.3c0.2-0.2,0.4-0.5,0.4-0.9c0-0.4-0.1-0.7-0.4-0.9
		c-0.2-0.2-0.6-0.3-1-0.3h-4.4c-0.4,0-0.8-0.1-1.2-0.2c-0.4-0.1-0.7-0.3-0.9-0.6c-0.2-0.2-0.4-0.5-0.6-0.9c-0.1-0.3-0.2-0.7-0.2-1.1
		c0-0.4,0.1-0.7,0.2-1.1c0.1-0.3,0.3-0.6,0.6-0.8c0.2-0.2,0.6-0.4,0.9-0.6c0.4-0.1,0.8-0.2,1.3-0.2h6.8v1.7h-6.8
		c-0.4,0-0.7,0.1-0.9,0.3c-0.2,0.2-0.3,0.5-0.3,0.9c0,0.4,0.1,0.6,0.3,0.9s0.5,0.3,0.9,0.3h4.4c1,0,1.7,0.2,2.2,0.7
		c0.5,0.5,0.8,1.1,0.8,2.1c0,0.4-0.1,0.8-0.2,1.1C-65.9,423.9-66.1,424.2-66.3,424.4z"/>
</g>
</svg>
