<?xml version="1.0" encoding="utf-8"?>
<!-- Generator: Adobe Illustrator 19.0.0, SVG Export Plug-In . SVG Version: 6.00 Build 0)  -->
<svg version="1.1" id="Capa_1" xmlns="http://www.w3.org/2000/svg" xmlns:xlink="http://www.w3.org/1999/xlink" x="0px" y="0px"
	 viewBox="-210 325.9 173.5 190" style="enable-background:new -210 325.9 173.5 190;" xml:space="preserve">
<style type="text/css">
	.st0{clip-path:url(#SVGID_1_);}
</style>
<g id="XMLID_100_">
	<path d="M-45.1,494.1h-156.3c-2,0-3.8-1-4.8-2.7s-1-3.8,0-5.5l78.1-135.4c1-1.7,2.8-2.8,4.8-2.8l0,0c2,0,3.8,1,4.8,2.7l78.2,135.4
		c1,1.7,1,3.8,0,5.5C-41.3,493-43.1,494.1-45.1,494.1z M-191.9,483.1h137.3l-68.7-118.9L-191.9,483.1z"/>
</g>
<g>
	<g>
		<defs>
			<rect id="SVGID_3_" x="-151.2" y="404.4" width="62.7" height="73.6"/>
		</defs>
		<clipPath id="SVGID_1_">
			<use xlink:href="#SVGID_3_"  style="overflow:visible;"/>
		</clipPath>
		<path class="st0" d="M-124.6,431.9c3.1,0,5.5-2.5,5.5-5.5c0-3.1-2.5-5.5-5.5-5.5c-3.1,0-5.5,2.5-5.5,5.5
			C-130.1,429.4-127.7,431.9-124.6,431.9L-124.6,431.9z M-124.6,431.9"/>
		<path class="st0" d="M-142.4,468.6v7.4c0,1.1,0.9,2,2,2h28.8c1.1,0,2-0.9,2-2v-7.2h8c3.2,0,5.8-2.6,5.8-5.8v-10.2l4.7-0.1
			c1.9,0,3-2,2.2-3.7l-5.1-9.7c-1.1-2.2-1.7-4.6-1.7-7c0-15.4-12.6-27.9-28-27.8c-15.4,0.1-27.7,12.7-27.5,28.1
			c0,4.4,1.1,8.6,3,12.3C-144.4,452.2-142.4,460.3-142.4,468.6L-142.4,468.6z M-139.3,425.4c0-0.5,0.3-1,0.8-1.2l3-1.3
			c0.3-0.1,0.6-0.4,0.7-0.7c0,0,0-0.1,0-0.1c0.1-0.3,0.1-0.7,0-1l-1.2-3c-0.2-0.5-0.1-1,0.3-1.4l1.4-1.4c0.4-0.4,0.9-0.5,1.4-0.3
			l3.1,1.2c0.3,0.1,0.7,0.1,1,0c0,0,0.1,0,0.1,0c0.3-0.1,0.6-0.4,0.7-0.7l1.3-3c0.2-0.5,0.7-0.8,1.2-0.8h2c0.5,0,1,0.3,1.2,0.8
			l1.3,3.1c0.1,0.3,0.4,0.6,0.7,0.7c0,0,0,0,0,0c0.3,0.1,0.7,0.1,1,0l3.1-1.3c0.5-0.2,1-0.1,1.4,0.3l1.4,1.4
			c0.4,0.4,0.5,0.9,0.3,1.4l-1.2,3.1c-0.1,0.3-0.1,0.7,0,1c0,0,0,0,0,0c0.1,0.3,0.4,0.6,0.7,0.7l3.1,1.3c0.5,0.2,0.8,0.7,0.8,1.2v2
			c0,0.5-0.3,1-0.8,1.2l-3.1,1.3c-0.3,0.1-0.6,0.4-0.7,0.7l0,0c-0.1,0.3-0.1,0.7,0,1l1.3,3.1c0.2,0.5,0.1,1-0.3,1.4l-1.4,1.4
			c-0.4,0.4-0.9,0.5-1.4,0.3l-3.1-1.2c-0.3-0.1-0.7-0.1-1,0c0,0,0,0-0.1,0c-0.3,0.1-0.6,0.4-0.7,0.7l-1.3,3.1
			c-0.2,0.5-0.7,0.8-1.2,0.8h-2c-0.5,0-1-0.3-1.2-0.8l-1.3-3c-0.1-0.3-0.4-0.6-0.7-0.7c0,0-0.1,0-0.1,0c-0.3-0.1-0.7-0.1-1,0l-3,1.3
			c-0.5,0.2-1,0.1-1.4-0.3l-1.4-1.4c-0.4-0.4-0.5-0.9-0.3-1.4l1.2-3.1c0.1-0.3,0.1-0.7,0-1c0,0,0-0.1,0-0.1
			c-0.1-0.3-0.4-0.6-0.7-0.7l-3-1.3c-0.5-0.2-0.8-0.7-0.8-1.2L-139.3,425.4L-139.3,425.4z M-139.3,425.4"/>
	</g>
</g>
</svg>
