<?xml version="1.0" encoding="utf-8"?>
<!-- Generator: Adobe Illustrator 19.0.0, SVG Export Plug-In . SVG Version: 6.00 Build 0)  -->
<svg version="1.1" id="Capa_1" xmlns="http://www.w3.org/2000/svg" xmlns:xlink="http://www.w3.org/1999/xlink" x="0px" y="0px"
	 viewBox="-210 325.9 173.5 190" style="enable-background:new -210 325.9 173.5 190;" xml:space="preserve">
<g id="svgg">
	<path d="M-89.5,369.8c0.4,0,0-1.3-0.4-1.5c-0.3-0.2-0.8-0.1-0.8,0.1C-90.7,368.6-89.7,369.8-89.5,369.8z"/>
	<path d="M-85.1,381.7c0.3-0.3,0.4-0.3,1.6-0.3h1.2v0.3c0,0.3,0,0.4,0.2,0.4c0.4,0.1,0.7-0.1,0.5-0.3c-0.3-0.4,0.2-0.6,1-0.5
		c0.4,0.1,1,0.1,1.4,0.1c0.8,0,0.9,0.3,0.3,0.8c-0.4,0.4-0.1,0.5,0.3,0.2c0.8-0.6,1-1.9,0.4-2.5c-0.3-0.3-0.7-0.3-0.5,0
		c0.2,0.4,0.2,0.4-0.5,0.7c-1.6,0.8-3.4,0.2-2.7-0.9c0.2-0.2,0.2-0.3,0-0.4c-0.1-0.1-0.2-0.3-0.1-0.5c0-0.2,0-0.4-0.1-0.5
		c-0.3-0.2-0.2-0.6,0.1-0.8c0.2-0.2,0.3-0.1,0.8,0.4c0.6,0.7,0.7,0.7,0.7,0.3c0-0.3-0.6-1-1.5-1.6c-0.2-0.2-0.3-0.4-0.3-0.5
		c0-0.3,0.4-0.4,0.7-0.2c0.6,0.5,0.7,0.3,0.2-0.5c-0.5-0.7-0.5-0.7,0-1.3c0.5-0.7,0.3-1-0.3-0.4c-0.5,0.5-0.8,0.4-0.7-0.2
		c0.1-0.5,0.1-0.6-0.2-0.6c-0.3,0-0.3,0.1-0.2,0.7c0.1,0.8,0,0.9-0.7,0.7c-0.6-0.3-0.7-0.1-0.2,0.3c0.5,0.4,0.5,0.4,0.2,1
		c-0.3,0.4-0.3,0.7,0.2,0.3c0.3-0.3,0.6-0.3,0.6,0.1c0,0.3-0.2,0.5-0.6,0.9s-0.7,0.7-0.7,1c-0.1,0.7,0,0.7,0.3,0.2
		c0.3-0.6,0.9-0.9,1.1-0.6c0.3,0.3,0.2,0.7-0.1,1c-0.2,0.3-0.2,0.3-0.1,0.5c0.1,0.1,0.2,0.3,0.1,0.3c0,0.1,0,0.3,0.2,0.6
		c0.4,0.9,0,1-1.9,1.1c-0.8,0-0.8,0-0.9-0.4c-0.3-0.9-0.6-0.6-0.5,0.4C-85.5,382-85.5,382.1-85.1,381.7z"/>
	<path d="M-87.9,462c-0.2-0.1-0.3-0.3-0.3-0.4c-0.3-1.3-1.1-2-2.3-1.8c-1.3,0.2-1.6,0.7-0.3,0.6c1.7-0.1,2.2,0.9,1.6,2.9
		c-0.4,1.6-1.4,1.8-2.8,0.7c-0.7-0.5-0.9-0.9-0.7-1.6c0.2-0.7-0.1-2.2-0.4-2.6c-0.3-0.3-0.3-0.4-0.2-0.7c0.2-0.2,0.2-0.2,0-0.1
		c-0.6,0.3-0.9-0.6-0.3-1.2c0.3-0.3,0.4-0.4,0.3-0.5c0,0-0.2,0.1-0.4,0.3c-0.4,0.4-0.6,0.4-1.2,0c-0.7-0.5-0.8-0.5-0.8-0.3
		c0,0.1,0.2,0.4,0.3,0.7l0.3,0.5l-0.3,0.3c-0.5,0.4-0.5,0.5,0.1,0.3c0.4-0.1,0.5,0,0.8,0.3c0.2,0.3,0.4,0.6,0.6,0.8
		c0.4,0.4,0.6,1.1,0.5,2.2c-0.2,1.7,1.3,3.2,3.2,3.1c0.7,0,0.9-0.1,1-0.4c0.1-0.3,0.3-0.3,0.5-0.3c0.3,0,0.3,0,0.3-0.3
		c-0.1-0.3-0.1-0.9,0-1.6c0.2-0.8,0.2-0.8,0.6-0.5l0.4,0.3l-0.3-0.3C-87.5,462.3-87.8,462.1-87.9,462z"/>
	<path d="M-77.8,390.3c0.8,0.8,0,1.5-0.9,0.8c-0.3-0.2-0.5-0.5-0.5-0.6c0.1-0.9-0.3-1.5-0.5-0.7c-0.3,1,0.7,2.2,1.6,2.2
		c1.3,0,1.7-0.9,0.9-1.8c-0.8-1-0.4-2.3,0.8-2.3c0.9,0,1.3,0.9,1.2,2.8c-0.1,2.7,1.6,4.2,3,2.8c0.3-0.3,0.3-0.5,0.4-1.3
		c0.1-1,0.2-1.2,0.5-1c0.6,0.3,0.8,1.6,0.3,2.2c-0.3,0.4,0,0.3,0.4-0.2c0.5-0.5,0.5-0.7,0.2-1.8c-0.4-1.5-1.9-1.5-2.1,0
		c-0.2,0.9-0.5,1.6-0.9,1.6c-1.5,0.2-1.7-3.1-0.3-3.4c2.1-0.4,2.6-4.4,0.6-4.4c-0.8,0-1-0.6-0.5-1.1c0.2-0.3,0.2-0.3,0-0.3
		c-0.1,0-0.3,0.2-0.5,0.3c-0.6,0.7-0.3,1.3,0.5,1.6c1.4,0.4,1.6,1.2,0.5,2.4c-0.6,0.7-1.1,0.6-2.2-0.4c-0.8-0.8-0.9-0.9-1.5-0.9
		C-77.8,386.9-78.9,389.3-77.8,390.3z"/>
	<path d="M-83.3,456.8c-1.6-1.6-1.6-1.6-1-2.7c0.5-1.1,0.8-0.9,0.8,0.5c0,0.9,0.1,1.2,0.3,1.4c0.3,0.3,0.4,0.2,0.2-0.2
		c-0.6-1.1-0.1-2.4,1.2-3c0.6-0.3,0.7-0.3,0.3-0.4c-0.5-0.2-2.4-0.3-2.6-0.2c-0.1,0.1-0.2,0.2-0.2,0.3c0,0.3-0.6,1.1-0.9,1.5
		c-0.2,0.1-0.3,0.2-0.5,0c-0.2-0.1-0.4-0.1-0.6-0.1c-0.2,0-0.5,0-0.6-0.1c-0.3-0.3-0.8,0.3-0.8,1c0,0.6,0.2,0.7,0.8,0.2
		c0.9-0.7,1.9-0.3,1.9,0.7c0,0.9-0.5,1.1-1.3,0.7c-0.3-0.2-0.4-0.2-0.6,0c-0.3,0.3,0,0.7,0.6,0.7c0.3,0,0.6,0.1,0.7,0.1
		c0.2,0.1,0.3-0.1,0.6-0.4c0.4-0.6,0.5-0.7,0.7-0.4c0.1,0.2,2.4,1.7,2.5,1.7C-81.9,458.1-82.5,457.5-83.3,456.8z"/>
	<path d="M-70,400.9c0-0.1-0.1-0.2-0.3-0.2s-0.3-0.3-0.4-0.4c-0.1-0.2-0.3-0.4-0.5-0.5c-0.5-0.2-0.4-0.5,0.3-1.3
		c0.8-0.9,0.9-0.9,0.4-0.9c-0.2,0-0.6,0.3-0.9,0.7c-3.1,3.2-2.5,8.3,1.1,10.2c0.7,0.3,0.9,0.3,0.3-0.1c-1.1-0.8-1.8-1.6-1.3-1.6
		c0.1,0,0.3-0.2,0.3-0.5c0.2-0.3,0.4-0.6,0.8-0.8s0.9-0.6,1.1-0.9c0.3-0.3,0.7-0.6,0.9-0.7c0.4-0.1,0.7-1.1,0.3-1.3
		c-0.2-0.1-0.4-0.3-0.6-0.5c-0.2-0.2-0.6-0.5-0.9-0.7C-69.7,401.1-70,400.9-70,400.9z M-71.6,400.2c0.3-0.3,0.6,0.1,0.5,0.4
		c-0.1,0.1-0.2,0.3-0.3,0.3C-71.6,400.9-71.7,400.5-71.6,400.2z M-72.6,401.7c0.3-0.9,0.5-1,0.9-0.6c0.1,0.1,0.3,0.3,0.5,0.3
		c0.3,0,0.3,0.2,0.3,0.6c0,0.5,0,0.6-0.3,0.5c-0.3-0.1-0.3,0-0.3,0.2c0,0.3-0.7,0.3-1.3,0C-72.8,402.5-72.8,402.2-72.6,401.7z
		 M-72.5,403.1c0.1,0,0.2,0.2,0.2,0.3c0,0.3-0.3,0.3-0.3,0C-72.7,403.1-72.7,403.1-72.5,403.1z M-71.5,406.1c-0.1,0-0.2-0.2-0.2-0.3
		s0.1-0.3,0.2-0.2c0.1,0.1,0.2,0.2,0.2,0.3S-71.4,406.1-71.5,406.1z M-70.1,404.4c-0.4,0.3-0.9,0.5-1,0.6c-0.5,0.5-0.9,0.6-1.3,0.1
		c-0.3-0.6-0.3-0.7,0.3-1.2s0.9-0.5,0.9,0c0,0.3,0.1,0.3,0.3,0.2c0.2-0.1,0.4-0.2,0.7-0.3c0.3-0.1,0.5-0.3,0.6-0.4
		c0.2-0.3,0.7-0.3,0.8-0.1C-68.8,403.7-69.2,404-70.1,404.4z M-68.8,402.4c0.3,0.3,0,0.5-0.7,0.5c-0.8,0-0.8-0.1-0.4-0.4
		C-69.7,402.2-69,402.2-68.8,402.4z M-69.7,402.1c0,0.1-0.1,0.2-0.2,0.2c-0.1,0-0.3-0.1-0.3-0.3C-70.2,401.8-69.8,401.8-69.7,402.1z
		"/>
	<path d="M-98.6,366.1c0.2,0.3,0.5,0.1,0.4-0.3c-0.1-0.3,0-0.4,0.2-0.6c0.5-0.4,0.3-0.5-0.3-0.2C-98.9,365.2-99,365.6-98.6,366.1z"
		/>
	<path d="M-125.5,359.9c0.3,0.1,0.4,0.2,0.3,0.4c-0.3,0.9-0.3,1.4-0.3,2.4c0.1,1.3,0.3,1.6,0.7,1.1c0.1-0.2,0.3-0.3,0.4-0.3
		c0.1,0,0.3-0.1,0.5-0.3c0.3-0.2,0.3-0.2,1.3,0.3c1.2,0.7,1.4,0.9,1.3,1.6c-0.1,0.5,0,0.6,0.3,0.7c0.4,0.2,0.9-0.3,0.7-0.7
		c-0.3-0.5-0.2-0.7,0.7-1.2c0.8-0.4,0.9-0.5,1.2-0.3c0.9,0.3,1.3-0.2,0.6-0.8c-0.3-0.3-0.3-0.3-1.2,0.2c-1.3,0.6-1.6,0.5-1.6-0.3
		c0-0.5,0.2-0.7,1.2-1.2c0.7-0.3,0.9-0.6,1.6-1.6c0.7-1.1,1.6-0.6,1,0.6c-0.4,0.9-0.4,1-0.1,1.6c0.3,0.4,0.5,0.3,0.5-0.3
		c0-0.7,0.2-1,0.9-2c1.1-1.5,2.3-1.9,4.2-1.5c0.8,0.2,0.9,0.1,0.4-0.3c-0.8-0.8-4.1-0.8-4.4,0c-0.2,0.4-0.5,0.2-1.1-0.8l-0.7-0.9
		l0.3-0.4c0.3-0.5,0.3-0.6,0-0.6c-0.7,0-0.9,1.4-0.3,2.2c0.5,0.8,0.5,1-0.2,1.1c-0.5,0-0.5,0-0.8-0.6c-0.3-0.9-1-1.6-1.9-2.3
		c-0.9-0.7-0.7-0.7-1.4-0.1c-1.1,0.9-1.8,1.7-2.2,2.4c-0.9,1.6-2,1.1-1.4-0.6c0.3-1,0.2-1.8-0.3-1.8c-0.3,0-0.3,0.1-0.2,0.6
		c0.1,0.3,0.1,0.5-0.1,0.9c-0.1,0.3-0.2,0.8-0.1,1c0.1,0.3,0,0.7-0.2,0.9C-125.9,359.8-126,359.7-125.5,359.9z M-120.9,356.8
		c0.2,0.2,0.2,0.2,0.3,0c0.2-0.5,1.3,0.2,1.8,1c0.6,1.2-0.1,3.4-1.1,3.4c-0.3,0-0.5-0.6-0.4-1.6c0.1-0.3,0-0.6-0.1-0.7
		c-0.3-0.3-0.3,0.1-0.2,0.7c0.2,0.6,0.1,1.2-0.2,1.6c-0.4,0.6-2.5-1-2.1-1.7c0.1-0.2,0.1-0.3,0-0.4
		C-123.7,358.4-121.6,356.1-120.9,356.8z M-124.6,362.5c0.3-0.4,0.3-0.8,0.2-0.9c-0.2-0.2-0.2-0.3,0.2-0.9c0.3-0.5,0.5-0.6,0.9-0.2
		c0.2,0.2,0.3,0.3,0.4,0.5c0.1,0.1,0.3,0.3,0.6,0.3c0.7,0.2,1.1,0.7,1.1,1.5c0,0.9-0.3,0.9-1.3,0.1c-0.9-0.7-1.4-0.8-1.7-0.2
		c-0.3,0.4-0.4,0.5-0.5,0.3C-124.8,363.1-124.7,362.8-124.6,362.5z"/>
	<path d="M-129.8,359.5c-1,0.1-1.1,0.1-1.6,0.5c-0.6,0.6-1.7,2.8-1.7,3.4c0,0.3,0.3,0.2,0.4-0.2c0.1-0.2,0.3-0.6,0.3-0.8
		c0.1-0.3,0.3-0.6,0.3-0.8c0.3-0.9,1.2-1.6,2.4-1.6s1.5,0.6,1.5,3.7c0,1.6,0.1,1.8,0.5,1.5c0.3-0.2,0.2-3.6-0.1-6
		c-0.1-0.7-0.2-1.5-0.2-1.8c-0.1-0.9-1.5-1.4-2.8-0.8c-0.5,0.3-1.3,0.8-1.2,0.9c0.1,0.1,1-0.3,1.2-0.4c0.3-0.3,1.6-0.1,1.9,0.2
		c0.3,0.3,0.5,1.8,0.3,2C-128.6,359.4-129.2,359.5-129.8,359.5z"/>
	<path d="M-91.8,452.1c0.1,0,0.5-0.3,0.9-0.6c0.4-0.3,0.9-0.6,0.9-0.6s0.5-0.4,0.9-0.9c0.4-0.5,1.3-1.4,1.9-1.9
		c0.7-0.6,1.4-1.4,1.6-1.7c0.3-0.4,0.9-1,1.3-1.5c0.5-0.4,0.9-0.9,1.1-1.4c0.2-0.3,0.4-0.9,0.6-1.2c0.2-0.3,0.4-0.7,0.5-0.9
		c0.2-0.4,1.2-2.2,2.2-3.6c0.5-0.7,0.9-1.5,1.1-2.1c0.2-0.5,0.3-1.1,0.5-1.4c0.1-0.2,0.3-0.6,0.3-0.9c0.1-0.3,0.4-1.1,0.8-2
		c0.3-0.9,0.8-1.8,0.9-2.2s0.3-0.9,0.4-1c0.2-0.3,0.3-0.7,0.3-0.9c0.1-0.3,0.3-1,0.4-1.6c0.2-0.5,0.4-1.3,0.5-1.6
		c0.1-0.3,0.2-0.7,0.3-0.8c0.1-0.1,0.1-0.6,0.2-1.2c0-0.6,0.2-1.6,0.3-2.4c0.3-1.6,0.4-7.2,0.1-8c-0.1-0.3-0.2-1.2-0.2-2.2
		c-0.1-1.6-0.3-3.4-0.6-5.2c-0.2-0.8-1.6-4.7-2.1-5.9c-0.3-0.9-0.9-2.5-1.1-3.2c-0.1-0.2-0.3-0.6-0.4-0.8c-0.2-0.3-0.3-0.5-0.3-0.5
		c0-0.3-1.8-3.7-2.1-4.1c-0.2-0.2-0.5-0.8-0.9-1.4s-0.8-1.3-1-1.5c-0.3-0.2-0.6-0.7-0.9-0.9c-0.8-1.1-1.3-1.9-1.8-2.5
		c-0.3-0.3-0.8-1-1.1-1.6c-0.3-0.5-0.9-1.1-1.1-1.2c-0.3-0.2-0.5-0.4-0.6-0.7c-0.1-0.3-0.3-0.4-0.4-0.4c-0.2,0-0.4-0.2-0.7-0.4
		c-0.3-0.3-0.6-0.5-0.9-0.7c-0.3-0.2-0.8-0.5-1.2-0.9c-0.4-0.3-0.9-0.8-1.1-0.9c-0.2-0.1-0.7-0.4-1.1-0.9c-1.1-1-3-2.4-3.6-2.6
		c-0.2-0.1-0.9-0.5-1.7-0.9s-1.6-0.9-1.9-1c-0.3-0.1-0.9-0.3-1.4-0.6c-0.4-0.3-1.2-0.4-1.6-0.5c-0.8-0.1-2.4-0.9-3.1-1.6
		c-0.1-0.1-0.6-0.3-1.1-0.4c-0.5-0.1-1.2-0.3-1.5-0.3c-0.3-0.1-1.3-0.3-2.2-0.4c-0.9-0.2-1.8-0.3-2-0.5c-0.3-0.2-0.9-0.3-2.8-0.3
		c-1.4-0.1-2.8-0.2-3.2-0.3c-0.9-0.2-4-0.2-4.8,0.1c-0.3,0.1-1.8,0.3-3.2,0.3c-1.5,0.1-2.8,0.2-2.9,0.3c-0.2,0.1-0.7,0.2-1.1,0.2
		c-0.8,0-1.7,0.2-2.5,0.4c-0.3,0.1-0.9,0.3-1.4,0.3c-0.5,0.1-1,0.3-1.2,0.3c-0.8,0.3-2.3,1-2.4,1c-0.1,0-0.3,0.2-0.6,0.3
		c-0.5,0.3-2,0.9-2.2,0.9c-0.1,0-0.3,0.1-0.5,0.3c-0.2,0.2-0.9,0.4-1.5,0.7c-0.6,0.3-1.4,0.6-1.7,0.8c-0.3,0.2-1,0.5-1.6,0.8
		c-0.5,0.3-1.4,0.8-2,1.1c-0.5,0.4-1.6,1.1-2.2,1.6c-1.2,0.9-3.8,3.1-4.1,3.5c-0.1,0.1-0.4,0.4-0.9,0.8c-1,0.8-2.5,2.2-2.9,3
		c-0.2,0.3-0.9,1.1-1.6,1.8c-1,0.9-1.6,1.6-2.3,2.9c-0.6,0.9-1.4,2.2-1.9,2.8c-0.9,1.3-1.9,3.1-2,3.8c-0.1,0.3-0.3,1-0.7,1.7
		c-0.3,0.7-0.6,1.5-0.6,1.6c0,0.2-0.2,0.6-0.4,0.9c-0.6,0.9-0.9,1.8-1,4.1c-0.2,2-0.3,2.8-0.8,4.1c-0.1,0.3-0.3,1-0.3,1.6
		c-0.1,0.5-0.3,1.4-0.3,1.8c-0.1,0.4-0.2,1-0.2,1.3c0,0.3-0.1,0.8-0.2,1.2c-0.5,1.7-0.3,6.2,0.5,8.5c0.1,0.3,0.3,1,0.3,1.6
		c0.1,0.5,0.3,1.5,0.6,2c0.3,0.5,0.4,1.4,0.5,1.9c0.1,0.7,0.3,1.3,0.9,2.5c0.4,0.9,1.1,2.3,1.5,3.2c0.3,0.9,0.8,1.9,1,2.2
		c0.2,0.4,0.3,0.9,0.3,0.9s0.1,0.3,0.3,0.3c0.2,0.1,0.4,0.5,0.7,1c0.3,0.4,0.7,1.2,1,1.6c0.3,0.4,0.9,1.2,1,1.7
		c0.7,1.3,1.2,2.1,2,2.7c0.4,0.3,0.9,0.8,1.2,1c0.3,0.3,1.4,1.4,2.4,2.5c1,1,2,2.1,2,2.2c0.1,0.3,0.9,1,1.7,1.6s2.7,2,3.6,2.8
		c1.1,0.9,2.9,2.1,3.4,2.1c0.2,0,0.4,0.1,0.5,0.2c0.1,0.1,0.3,0.3,0.6,0.3c0.3,0.1,0.5,0.3,0.6,0.4c0.2,0.2,0.5,0.4,1.1,0.6
		c0.5,0.2,1.2,0.5,1.6,0.7c0.3,0.3,1.1,0.5,1.7,0.7c0.6,0.2,1.4,0.4,1.8,0.6c0.4,0.2,0.9,0.3,1,0.3s0.8,0.2,1.3,0.4
		c0.6,0.3,1.2,0.4,1.6,0.4c0.3,0,0.8,0.1,1,0.2c0.9,0.3,4.2,1.1,5.2,1.3c0.5,0.1,1.4,0.2,1.9,0.3c1.1,0.3,6.4,0.3,8.5,0
		c0.9-0.1,1.6-0.1,2,0c0.7,0.2,3-0.2,4-0.6c0.3-0.2,1-0.3,1.6-0.5c2.4-0.6,2.8-0.7,3.9-1.2c0.6-0.3,1.2-0.5,1.4-0.5
		c0.2,0,0.3-0.1,0.3-0.1c0.1-0.1,0.3-0.2,0.6-0.3c0.9-0.3,2.4-1.1,3.3-1.6c0.4-0.3,0.9-0.5,1-0.5c0.2,0,0.3-0.1,0.5-0.2
		c0.1-0.1,0.6-0.3,1.1-0.6c0.5-0.2,1-0.5,1.2-0.7s0.8-0.5,1.4-0.8c1.2-0.6,2.8-1.6,3.4-2.1C-92.2,452.3-91.9,452.1-91.8,452.1z
		 M-95.1,453c-1.6,1-1.7,1-1.6,0.2c0.2-0.9,0.2-2.6-0.1-2.8c-0.3-0.3-0.4-0.1-0.2,0.4c0.2,0.4,0.2,0.6,0,0.9
		c-0.1,0.2-0.2,0.4-0.1,0.6c0.1,0.2,0,0.3-0.1,0.4c-0.1,0.1-0.2,0.3-0.2,0.4c0,0.3-1.1,1.4-1.6,1.6c-0.7,0.3-0.8,0.2-0.9-0.5
		c-0.1-0.8,0.3-1.5,1.4-2.7c1-1,1-1.6,0.3-3.1c-0.7-1.2-1.6-1.9-1.6-1.2c0,0.2,0.1,0.4,1.2,1.7c0.3,0.3,0.3,0.5,0.3,0.6
		c-0.1,0-0.2,0.2-0.2,0.3c0,0.4-1,2.1-1.5,2.2c-0.3,0.2-1,1.5-1,2c0,0.3-0.1,0.5-0.1,0.5c-0.3,0.3-0.7-1.3-0.4-2.3
		c0.2-0.6,0.1-0.7-0.2-1.2c-0.2-0.3-0.3-0.6-0.3-0.7c0-0.1-0.1-0.3-0.3-0.6c-0.3-0.4-0.2-0.7,0.1-0.4c0.3,0.3,0.5,0.2,0.4-0.7
		c0-0.6,0-1,0.2-1.2c0.2-0.3,0.2-0.3-0.4-0.9c-0.7-0.7-0.7-1-0.1-0.7c0.2,0.1,0.1-0.1-0.3-0.4c-0.6-0.6-1-0.8-1.2-0.3
		c-0.1,0.3-0.3,0.3-0.6-0.1c-0.3-0.3-0.4-0.3-1.5,0c-1.5,0.4-1.5,0.4-1.7,0.3c-0.1-0.1-0.3-0.4-0.3-0.7c0-0.3,0-0.4-0.2-0.3
		c-1.1,0.9,1.2,2.2,3,1.6c1.5-0.4,2.2,0.3,1.7,1.7c-0.3,1.1-0.3,1.8-0.2,2.3c0.2,0.4,0.1,0.6-0.2,0.3c-0.5-0.5-0.5,0.2-0.1,0.8
		c0.5,0.6,0.6,0.9,0.3,2c-0.3,0.9-0.5,1.2-0.9,0.8c-0.1-0.1-0.3-0.2-0.3-0.2s-0.3-0.2-0.5-0.3c-0.4-0.4-0.5-0.3-0.3,0.3
		c0.1,0.3,0.2,0.6,0.2,0.9c0,0.2,0.1,0.4,0.2,0.5c0.2,0.1,0.5,1.9,0.3,1.9c-0.3,0-0.6-0.3-0.9-0.8c-0.2-0.3-0.3-0.6-0.5-0.7
		c-0.1-0.1-0.2-0.3-0.2-0.5c0-0.7-0.4-1.3-0.6-1.1c-0.1,0.1-0.2,0.3-0.2,0.3c0,1.1-0.5,1.5-1.2,0.9c-0.2-0.2-0.4-0.3-0.5-0.3
		c-0.2,0-0.3-0.1-0.3-0.3c-0.1-0.3-0.4-0.8-0.7-0.8c-0.7,0-1.7-2.2-1.7-3.9c0-1.2,0-1.3-0.4-1.6c-0.7-0.6-1.1-0.9-1.2-0.7
		c-0.1,0.1,0,0.2,0.1,0.3c0.6,0.2,0.8,0.5,0.8,1.6c0,0.9,0,1-0.3,0.9c-0.3-0.1,0,0.9,0.5,1.5l0.4,0.4l-0.3,0.1
		c-0.5,0.1-0.5,0.4,0.1,1c0.6,0.6,0.6,0.7,0.3,0.7c-0.2,0-0.3,0.1-0.3,0.2c0,0.2,0.1,0.2,0.3,0.2c0.3-0.1,0.5,0.1,1,0.5
		c0.3,0.3,0.8,0.6,0.8,0.6c0.3,0,1.1,0.8,1.1,1c0,0.2,0.2,0.4,0.3,0.7c0.6,0.7,0.5,1.3,0,0.9c-0.3-0.3-0.9-0.3-0.9,0
		c0,0.1-0.2,0.1-0.3,0.1c-0.8-0.2-1.1-0.3-1.1-0.6c0-0.3-0.6-0.9-0.9-0.9c-0.2,0-0.3-0.2-0.5-0.4c-0.3-0.6-0.6-0.8-1.1-0.8
		c-0.3,0-0.4,0-0.4-0.2c0-0.6-2.2-1.2-2.7-0.8c-0.2,0.2,0.2,0.3,0.9,0.3c0.3,0,0.6,0.3,1.1,0.7c0.4,0.3,0.9,0.7,0.9,0.7
		c0.5,0,1.6,1,1.6,1.6c0.1,0.4,0.2,0.6,0.6,0.9c0.3,0.2,0.5,0.4,0.5,0.5c0,0.3-0.9,0.7-1.3,0.5c-0.4-0.3-0.6-0.2-0.6,0.3
		c0,0.5,0,0.5-0.9,0c-0.9-0.4-1.5-1.1-1.7-1.8c-0.2-0.5-0.7-0.9-1.3-0.9c-0.6-0.1-0.6,0.1,0,0.3c0.3,0.2,0.5,0.3,0.7,0.8
		c0.1,0.3,0.3,0.8,0.6,1.1c0.2,0.3,0.3,0.6,0.3,0.7c0,0.1,0.2,0.3,0.3,0.4c0.7,0.5,0.3,0.7-1.9,0.7c-1,0-3.4,0.1-5.2,0.2
		c-3.3,0.2-3.5,0.2-5.5-0.3c-0.3-0.1-0.9-0.2-1.3-0.2c-0.3,0-1-0.1-1.6-0.3c-0.4-0.2-1.1-0.3-1.6-0.4c-1.1-0.2-4.3-1-4.9-1.3
		c-0.3-0.1-0.7-0.3-0.9-0.3c-0.5,0-1.3-0.8-1.3-1.3c0-0.7,0.3-0.9,1.4-0.9c1.4,0,2.8-0.2,3.3-0.4c0.2-0.1,0.4-0.2,0.7-0.1
		c0.3,0.1,2.5-2,2.5-2.4c0-0.3,0-0.2-0.3,0.1c-0.9,1.3-2,2-2.1,1.4c-0.1-0.4-0.6-0.3-1.3,0.3c-0.4,0.3-0.5,0.3-0.7-0.5
		c-0.1-0.3-0.2-0.8-0.3-0.9c-0.5-0.6-0.7-0.1-0.2,0.6c0.3,0.4,0.3,0.4,0.1,0.8c-0.3,0.3-0.6,0.4-0.7,0.3c-0.1-0.1-0.5-0.2-1-0.2
		c-0.7,0-1-0.1-1.1-0.2c-0.1-0.1-0.3-0.2-0.5-0.2c-0.8,0-0.9-0.7-0.4-1.4c0.3-0.3,0.4-0.4,0.9-0.4c0.7,0,0.7-0.1,0.5-0.6
		s0.2-0.9,0.6-0.9c0.2,0,0.3-0.1,0.3-0.3c0.2-0.3,0.3-0.4,1-0.4c0.4,0,0.8-0.1,1.3-0.4c0.3-0.3,0.9-0.4,1-0.5
		c0.2-0.1,0.4-0.2,0.4-0.3c0.1-0.3,0.3-0.9,0.5-1.2c0.3-0.6-0.2-2.1-0.9-2.6c-0.6-0.5-0.8-0.1-0.2,0.4c1.5,1.4-1,4.5-2.9,3.6
		c-0.3-0.2-0.4-0.1-0.9,0.1c-0.8,0.3-0.8,0.1,0-0.9c0.9-1.1,1.1-1.7,1.1-2.8c0-1.1,0.3-1.5,1.2-1.6c0.3-0.1,0.7-0.2,0.9-0.3
		c0.2-0.1,0.5-0.1,0.9-0.1c0.4,0.1,0.5,0.1,0.4-0.1c0-0.1,0-0.3,0.1-0.3c0.3-0.3-0.1-0.7-0.4-0.6c-0.3,0.1-1-0.7-1-1
		c0-0.2-0.1-0.3-0.3-0.3c-0.2-0.1-0.3-0.1-0.4-0.2c-0.2-0.1-0.2,0-0.2,0.3c0.1,0.8-0.2,1.1-1.2,1.5c-1.4,0.4-1.5,0.6-1.6,2.2
		c-0.2,2.8-2.5,5-2.5,2.4c0-0.4-0.1-1-0.3-1.4c-0.8-1.7,0-3.5,1.3-3.4c0.6,0.1,0.6-0.2,0.1-0.6c-0.4-0.3-1.5-0.2-1.5,0.3
		c0,0.1-0.2,0.3-0.4,0.6c-0.3,0.3-0.4,0.5-0.4,1c0,0.4-0.1,0.7-0.3,0.7c-0.2,0.1-0.2,0.2-0.1,0.4c0.3,0.5,0.5,2,0.3,2.1
		c-0.1,0.1-0.1,0.3,0,0.6c0.1,0.6,0.1,1-0.1,1.2c-0.1,0.1-0.1,0.3,0,0.5c0.2,0.7-0.5,2.7-1,2.7c-0.9,0-1.4-1.1-1.6-3.1
		c-0.1-1.1-0.5-2.3-0.6-1.6c0,0.2-0.1,0.3-0.2,0.3c-0.1,0-0.1,0.1-0.1,0.2c0.1,0.1,0.1,0.3,0.2,0.4c0.2,0.4-0.5,0.5-0.9,0.2
		c-0.3-0.2-0.7-0.4-1-0.5c-0.7-0.2-0.8-0.6-0.3-1.3c0.5-0.6,0-0.8-0.6-0.3c-0.7,0.7-0.3,1.8,0.6,2c1.3,0.3,2.2,1.1,1.9,1.9
		c-0.1,0.2-0.2,0.6-0.2,0.9c0,1.4-1.8,2.1-3.2,1.2c-0.3-0.2-0.8-0.4-1.1-0.6c-0.3-0.2-0.5-0.3-0.6-0.4c-0.1-0.1-0.7-0.6-1.5-1.2
		c-0.8-0.6-1.6-1.2-1.7-1.5s-0.9-1-1.6-1.7c-0.7-0.7-1.4-1.6-1.6-1.9c-0.3-0.3-0.7-0.9-1-1.1c-0.3-0.3-0.8-0.8-1.1-1
		c-0.3-0.3-0.6-0.5-0.7-0.5c-0.3,0-1.1-0.9-1.6-1.7c-0.3-0.5-0.7-1.3-1-1.8c-1.4-2-3.6-5.9-3.6-6.5c0-0.1-0.5-1.2-1.1-2.5
		c-0.8-1.7-1.2-2.7-1.3-3.4c-0.1-0.6-0.3-1.5-0.6-1.9c-0.2-0.4-0.3-0.9-0.3-1.1c0-0.5-0.5-2.6-0.8-3.2c-0.4-0.9-0.4-6.5,0-6.6
		c0.3-0.1,1.4,0.8,1.3,1.1c0,0.2,0.2,0.6,0.4,1c1.5,2.3,2.2,3,1.2,1.1c-0.3-0.4-0.3-0.5-0.1-0.7c0.2-0.1,0.1-0.3-0.1-0.7
		c-0.4-0.8-0.2-1.1,0.4-0.8c0.5,0.3,0.5,0.3,0.5,0c0-0.6,1.6,0.9,2.1,1.8c0.1,0.3,0.3,0.5,0.3,0.5s0.3,0,0.3,0.1
		c0.2,0.1,0.3,0,0.2-0.3c-0.1-0.3,0-0.4,0.4-0.4c0.3,0,0.6-0.1,0.7-0.1c0.2-0.1,0.3-0.1,0.5,0c0.2,0.1,0.4,0.1,0.8-0.1
		c1.1-0.3,1.7-0.3,2.2,0c0.3,0.3,0.5,0.3,1,0.3c0.8,0,0.7-0.3-0.2-0.4c-0.3-0.1-0.7-0.3-0.9-0.4c-0.4-0.5-0.2-0.7,0.5-0.3
		c0.6,0.3,1,0.3,1.5,0.2c0.3-0.2-0.1-0.6-0.6-0.6c-0.2,0-0.6-0.1-0.9-0.2c-0.7-0.3-1-0.3-1.9,0.1c-0.8,0.3-1.3,0.4-2.3,0.2
		c-0.8-0.2-1.5-0.6-1.1-0.8c0.4-0.1,1.9-0.4,2.5-0.5c0.8-0.1,1.5-0.6,0.8-0.6c-0.1,0-0.4-0.2-0.6-0.3c-0.3-0.3-0.6-0.3-1.4-0.3
		c-0.5,0-1,0-1.1-0.1c-0.1-0.1-0.5-0.2-0.9-0.2c-0.5-0.1-0.9-0.2-1.1-0.3s-0.3-0.2-0.5-0.2s-0.3,0-0.4-0.1c-0.1-0.1-0.3,0-0.5,0.2
		l-0.3,0.3l-0.3-0.3c-0.2-0.2-0.4-0.3-0.7-0.3s-0.4-0.1-0.5-0.2c-0.2-0.3,0.5-0.7,1-0.7c0.3,0,0.6,0,0.8,0c0.9,0,1,0,1.4,0.3
		c0.9,0.8,2,0.9,2,0.3c0-0.3,1.8-0.5,3.1-0.3c1.3,0.3,2.2,0.3,2.2,0.2c0-0.3-1.2-0.9-1.7-0.9c-0.3,0-0.9-0.1-1.2-0.3
		c-0.3-0.2-0.9-0.3-1.3-0.3c-0.3-0.1-0.9-0.3-1.2-0.4c-0.4-0.3-0.6-0.3-0.7-0.2c-0.3,0.3-0.5,0.2-0.9-0.1c-0.2-0.1-0.4-0.3-0.8-0.3
		c-0.5,0-1.1-0.3-0.7-0.3c0.1,0,0.3-0.2,0.6-0.3c0.3-0.3,0.6-0.3,1.2-0.3c0.6,0,0.8-0.1,1-0.3c0.2-0.3,0.5-0.3,1-0.4
		c0.4-0.1,0.9-0.2,1-0.3c0.3-0.2,0.5-0.2,0.9-0.2c0.3,0.1,0.6,0,0.8-0.1c0.3-0.2,0.3-0.1,0.7,0.1c0.4,0.3,0.4,0.3,0.8-0.1
		c0.3-0.4,0.7-0.3,1.7,0.3c0.3,0.3,0.4,0.3,0.3,0.1c-0.2-0.4-0.9-1-1-1c-0.1,0-0.5-0.2-0.9-0.4c-1.2-0.8-4.2-0.4-6.7,0.9
		c-0.3,0.2-0.9,0.3-1.3,0.3c-0.3,0-0.9,0.1-1.4,0.2c-1.5,0.4-1.7,0.3-1.3-1c0.1-0.3,0.3-1.8,0.4-3.3c0.3-2.6,0.3-2.6,0.9-4.1
		c0.9-2.2,1.7-3.9,1.9-4.1c0.1-0.2,0.2-0.3,0.2-0.4c0-0.4,1.8-3.5,2.5-4.4c0.2-0.2,0.3-0.4,0.4-0.7c0.1-0.2,0.6-0.9,1.1-1.4
		c0.5-0.5,1-1.2,1.2-1.6c0.9-1.6,5.9-6.7,7.2-7.2c0.3-0.1,0.3-0.1-0.2,0.4c-0.3,0.3-0.5,0.7-0.5,0.8c0,0.1-0.2,0.5-0.4,1
		c-0.3,0.4-0.4,0.9-0.4,1c0,0.1-0.1,0.5-0.3,0.8c-0.3,0.7-0.1,0.9,0.3,0.3c0.3-0.3,0.5-0.4,0.7-0.3s0.3,0,0.3-0.2
		c0.1-0.1,0.2-0.3,0.3-0.3s0.3-0.1,0.3-0.4c0-0.3,0.1-0.4,0.2-0.4c0.6,0,0.4,2-0.2,2.3c-0.4,0.3-0.6,2.3-0.2,3
		c0.2,0.3,0.2,0.4,0,0.8c-0.3,0.7,0.4,1.8,1.2,1.8c0.3,0,0-0.3-0.3-0.4c-0.4-0.2-0.4-0.2-0.3-0.9c0.1-0.5,0-0.9-0.1-0.9
		c-0.2-0.1-0.2-0.6,0-0.9c0.1-0.2,0.3,0.1,0.9,0.8c1.2,1.5,1.8,2.1,1.9,2c0.1-0.1-0.3-0.5-0.8-1.1c-0.5-0.6-0.9-1.1-0.9-1.3
		c0-0.2-0.2-0.4-0.3-0.7c-0.4-0.3-0.4-0.4-0.2-0.8c0.2-0.3,0.2-0.3,0.7,0.1c0.7,0.4,0.9,0.3,0.5-0.3c-0.3-0.4-0.4-0.7-0.6-2.1
		l-0.1-0.5l0.5,0.4c0.6,0.4,0.9,0.4,0.3-0.1c-0.2-0.2-0.3-0.4-0.3-0.6c0-0.2-0.1-0.5-0.3-0.8c-0.2-0.3-0.3-0.6-0.2-0.8
		c0.1-0.5,0.3-0.3,0.4,0.3c0.1,0.3,0.2,0.7,0.3,0.8c0.1,0.1,0.3,0.3,0.3,0.6c0.1,0.3,0.3,0.5,0.3,0.5c0.2,0,0.2-0.1-0.2-0.7
		c-0.2-0.3-0.3-0.7-0.3-1.1c0.1-0.7,0.1-0.7,0.3-0.3c0.1,0.3,0.3,0.6,0.5,0.9c0.2,0.3,0.3,0.5,0.3,0.5c0,0.1,0.3,0.4,0.5,0.9
		c0.7,1.1,0.9,2.1,0.6,3c-0.1,0.4-0.2,1.2-0.2,1.7c0.1,0.9,0,0.9-0.4,1.4s-0.5,0.5-0.5,1.2c0,0.9,0.3,0.9,0.3,0.2
		c0.1-0.9,0.7-0.9,0.9-0.1c0.1,0.5,0.1,0.7-0.3,1.6c-0.3,0.5-0.3,0.5,0,0.4c0.3-0.1,1,0.6,1,0.9c0,0.1,0.3,0.5,0.5,0.9
		c0.4,0.6,0.5,0.7,0.3,1c-0.1,0.3-0.1,0.5,0.2,1c0.2,0.3,0.3,0.8,0.3,0.9c0,0.1,0.1,0.3,0.2,0.5c0.3,0.4,0.3-0.3-0.1-1
		c-0.2-0.4-0.3-0.7-0.2-0.8c0.1-0.1,0.2-0.3,0.2-0.6c0-0.4,0-0.4,0.3-0.3c0.3,0.1,1.2,0,1.4-0.2c0.2-0.2-0.6-0.4-1.1-0.3
		c-0.6,0-1.3-0.4-1.3-0.8c0-0.1-0.1-0.3-0.3-0.3c-0.4-0.3-0.7-2-0.3-2c0.3,0,1,0.9,1.6,1.7c0.3,0.6,0.7,0.9,0.7,0.5
		c0-0.1,0.2-0.1,0.3-0.1c0.4,0.1,0.9-0.1,0.7-0.3c-0.1-0.1-0.3-0.1-0.5,0c-0.3,0.1-0.4,0.1-0.8-0.3c-0.2-0.3-0.8-0.9-1.3-1.5
		c-0.9-1-1.1-1.4-1.1-3.3c0-1.2,0.5-0.9,0.8,0.4c0.1,0.3,0.4,0.8,1.4,1.7c0.7,0.7,1.3,1.3,1.3,1.5c0,0.3,0.3,0.3,0.3,0.1
		c0.1-0.2,0.1-0.2,0.3,0c0.2,0.1,0.6,0.3,0.9,0.5l0.7,0.3l0.2-0.3c0.2-0.4,0-0.6-0.3-0.3c-0.5,0.3-1.4-0.3-2-1.3
		c-0.3-0.4-0.7-0.9-0.8-0.9c-0.3-0.2-0.3-0.5-0.1-0.5c0.1,0,0.3,0.1,0.3,0.3c0.2,0.2,0.2,0.2,0.2,0.1c0-0.3-0.6-0.9-1-0.9
		s-0.4-0.1-0.6-0.7c0-0.2-0.3-0.7-0.6-1.2c-0.5-0.8-0.5-0.9-0.6-2c0-0.7-0.2-1.2-0.3-1.3c-0.1-0.1-0.2-0.3-0.2-0.7
		c0-0.3-0.1-0.6-0.2-0.7c-0.1-0.1-0.1-0.2-0.1-0.3c0.2-0.2,0.8,0.6,0.9,1.2c0.2,0.5,0.9,1.9,1.5,2.5c0.2,0.2,0.4,0.6,0.6,0.9
		c0.5,1.3,0.9,1.4,0.5,0.2c-0.2-0.5,0.2-0.3,0.6,0.3c0.3,0.3,0.4,0.8,0.4,0.9c0,0.2,0.1,0.3,0.3,0.5c0.1,0.1,0.3,0.4,0.5,0.9
		c0.3,0.5,0.3,0.6,0.3,0.3c0-0.5,0.4-0.3,0.6,0.2c0.3,1.1,1.7,3.3,2,3c0.1-0.1-0.1-0.2-0.3-0.3c-0.7-0.7-0.3-0.8,0.5-0.1
		c0.4,0.3,0.9,0.7,0.9,0.7c0.1,0,0.4,0.3,0.7,0.5c0.5,0.5,0.9,0.6,0.9,0.3c0-0.3-2-2.2-2.7-2.4c-1-0.3-1.2-0.6-2.6-3.4
		c-0.2-0.3-0.8-1-1.4-1.7c-1.5-1.6-2.3-2.6-2.3-3.1c0-0.6,0.4-0.3,1,0.8c0.3,0.4,0.6,0.9,0.9,1.1s0.5,0.4,0.5,0.5
		c0.1,0.1,0.5,0.5,0.9,1c0.4,0.4,1,1,1.3,1.2c0.6,0.6,1,0.3,0.5-0.5c-0.3-0.4-0.3-0.4,0-0.4c0.1,0,0.3-0.1,0.5-0.3
		c0.3-0.3,0.9,0.3,0.9,0.9c0,0.3,0,0.3,0.2-0.1c0.3-0.8,1.3-0.2,1.5,0.9c0.1,0.3,0.2,0.6,0.3,0.8c0.2,0.2,0.3,0.4,0.3,0.6
		c0.1,0.5,0.3,0.6,0.4,0.3c0.1-0.2,0-0.5-0.2-0.9c-0.2-0.4-0.3-0.6-0.2-0.7c0.2-0.2-2.4-2.9-2.8-3c-0.2-0.1-0.6,0.1-1,0.3
		c-0.4,0.2-0.8,0.3-0.9,0.3c-0.3,0-2.1-1.6-3-2.8c-0.3-0.5-0.9-1.1-1.1-1.3c-0.7-0.5-0.6-0.8,0.2-0.8c0.7,0,1.6,0.9,1.6,1.6
		c0,0.2,0.1,0.4,0.3,0.6c0.7,0.8,0.9-0.2,0.3-1.1c-0.3-0.3-0.5-0.8-0.7-0.9c-0.2-0.3-0.5-0.4-1.2-0.7c-0.5-0.2-1-0.4-1-0.5
		c-0.1-0.3,0.1-0.3,0.4-0.2c0.3,0.3,0.6,0.3,0.6,0.1c0-0.1-0.2-0.2-0.3-0.3c-1.1-0.4-2.1-1.1-1.8-1.3c0.2-0.2,1.1,0.1,1.7,0.5
		c0.3,0.3,0.7,0.4,0.8,0.4c0.1,0,0.3,0.1,0.6,0.2c0.3,0.1,0.5,0.3,0.6,0.3c0.3,0.1,1.8,2,1.8,2.3c0,0.4,0.3,0.5,0.5,0.2
		c0.3-0.3,0.2-0.3,1.7,1c0.5,0.4,1,0.9,1.1,1.1c0.1,0.2,0.3,0.3,0.5,0.5c0.3,0.2,0.4,0.4,0.4,0.6c0,0.2,0.1,0.3,0.2,0.3
		c0.3,0,0.3-0.3,0.1-0.6c-0.3-0.4-0.3-0.8,0-0.9c0.4-0.2,0.3-0.5-0.2-0.4c-0.7,0.2-2.2-1.1-1.6-1.4c0.3-0.1-0.2-0.3-0.4-0.3
		c-0.1,0-0.3-0.1-0.5-0.3c-0.2-0.2-0.5-0.4-0.7-0.5c-0.4-0.2-1.2-1.4-1-1.6c0.1-0.1,0.3-0.1,0.5,0c0.3,0.2,0.3,0.2-0.1-0.3
		c-0.6-0.8-1-1-1.4-1c-0.2,0-0.4-0.1-0.5-0.1c-0.2-0.1-0.6-0.3-1.1-0.3c-0.9-0.3-1.2-0.4-1.2-0.7c0-0.2,2.2-0.1,3.1,0.1l0.5,0.1
		l-0.7-0.7l0.4-0.2c0.8-0.3-1.1-0.6-2.1-0.3c-0.2,0.1-0.5,0-0.8-0.1c-0.8-0.3,0.2-1.4,1.1-1.2c0.4,0.1,0.8-0.1,0.5-0.3
		c-0.3-0.3-1.8,0.1-2,0.4c-0.3,0.6-1.6,0.7-1.6,0.2c0-0.2-0.1-0.3-0.2-0.4c-0.4-0.3,0.3-0.8,3.1-2.1c0.4-0.2,1.5-0.7,2.2-1
		c2.7-1.2,3-1.5,4-1.8c0.5-0.3,1.2-0.4,1.6-0.5c0.3-0.1,0.8-0.2,0.9-0.3c1.7-1,10.8-1.7,17.5-1.2c1,0.1,2.6,0.2,3.5,0.2
		c1.9,0.1,5.3,0.9,6.5,1.6c0.3,0.2,0.6,0.3,0.6,0.3c0.1,0,0.5,0.3,1,0.5c0.5,0.3,1.2,0.5,1.5,0.6c0.3,0.1,0.9,0.3,1.5,0.5
		c0.5,0.3,1.3,0.5,1.7,0.7c3.5,1.1,6.5,2.8,6.3,3.6c-0.2,0.6-0.5,0.9-1,0.6c-0.3-0.1-0.5-0.2-0.6-0.1c-0.3,0.1-0.7-0.3-0.7-0.6
		c0-0.4-0.3-0.4-0.4,0c-0.2,0.5-0.2,1.1,0.1,1.6c0.4,0.7-1.6,2.5-2.4,2c-0.3-0.2-0.4-0.2-0.6-0.1c-0.7,0.3-1,0.4-1.2,0.4
		c-0.1,0-0.4,0.1-0.7,0.3c-0.3,0.2-0.8,0.4-1.2,0.5c-1.2,0.3-1.6,1.5-0.9,3.2l0.3,0.9l-0.4,0.9c-0.3,0.5-0.4,1-0.4,1.3
		c0,0.3-0.1,0.4-0.3,0.5c-0.2,0-0.3,0.3-0.4,0.4c-0.3,0.7-1.3,0.2-1.5-0.8c-0.3-1.2-0.2-1.6,0.2-2.2c0.4-0.6,0.3-0.8-0.3-0.4
		c-1.4,0.8-0.8,4,0.9,4.7c0.8,0.3,1.9-0.1,1.8-0.7c-0.1-0.3,0-0.3,0.3-0.5c0.4-0.2,0.4-0.2,0.3-0.6c-0.1-0.2-0.1-0.3,0.1-0.3
		c0.2-0.1,0.2-0.2,0.2-0.4c-0.1-0.3,0-0.3,0.2-0.3c0.4,0,0.7-0.3,0.6-0.8c-0.1-0.3,0-0.3,0.2-0.3c0.2,0,0.3-0.1,0.2-0.3
		c-0.1-0.2-0.1-0.6-0.1-0.8c0-0.3-0.1-0.5-0.2-0.8c-0.3-0.5-0.3-0.7,0.3-1c0.3-0.2,0.5-0.4,0.5-0.6c0.1-0.3,1.6-0.3,1.6,0
		c0.1,0.2,0.2,0.3,0.4,0.2c0.2-0.1,0.3,0,0.5,0.2c0.1,0.1,0.3,0.2,0.3,0.2c0.2,0,0.1-0.1-0.2-0.4c-0.4-0.5-0.3-0.8,0.2-0.6
		c0.6,0.3,1.2,0.3,1.2,0s0.3-0.3,0.7-0.1c0.3,0.2,0.3,0.1,0.5-0.2c0.1-0.2,0.3-0.3,0.5-0.3c0.2,0,0.3-0.1,0.4-0.3
		c0.1-0.3,0.2-0.3,0.4,0c0.4,0.3,0.8,0.3,0.8-0.1s0.2-0.4,0.6,0.1c0.2,0.3,0.7,0.5,0.9,0.6c0.9,0.3,1,0.3,1,0.8c0,0.3,0,0.3-0.3,0.3
		c-0.2,0-0.3,0-0.4,0.1c0,0.1,0.1,0.2,0.3,0.2c0.9,0.1,0.6,0.9-0.3,0.9c-0.4,0-0.8,0.4-0.4,0.5c0.6,0.2,0.7,0.4,0.3,0.9
		c-0.3,0.3-0.4,0.3-0.7,0.1c-0.3-0.3-0.5-0.2-0.3,0.2c0.3,0.4,0.2,0.5-0.2,0.4c-0.3-0.1-0.3,0-0.2,0.3c0.3,0.9,0.3,0.9,0,0.7
		c-0.2-0.1-0.4-0.3-0.7-0.3l-0.4-0.1l0.3,0.3c0.3,0.3,0.3,0.3,0.1,0.8c-0.2,0.3-0.2,0.6-0.2,0.9c0.1,0.3,0.1,0.3-0.2,0.3
		c-0.2-0.1-0.3,0-0.3,0.3c0,0.3-0.1,0.4-0.2,0.4s-0.2,0.2-0.2,0.4c0,0.3-0.1,0.5-0.3,0.7c-0.2,0.1-0.3,0.3-0.3,0.5
		c0,0.2-0.2,0.3-0.4,0.5c-0.4,0.3-0.4,0.3-0.5,0.9c0,0.3-0.1,0.4-0.3,0.3c-0.2,0-0.4,0-0.6,0c-0.9,0.1-1.2,0-1.6-0.3
		c-0.3-0.3-0.4-0.3-0.7-0.3c-0.3,0.1-0.4,0-0.6-0.3l-0.3-0.4l-0.6,0.4c-0.4,0.3-0.6,0.6-0.6,0.9c-0.1,2.2,0,3.1,0.3,3.4
		c0.3,0.4,0.4,0.3,0.5-0.9c0.1-1.9,0.5-2.2,2-1.6c2.8,1.3,3.8,0.6,5.3-3.6c0.3-0.9,0.5-1.4,0.8-1.5c0.7-0.3,1.4-0.9,1.6-1.5
		c0.1-0.3,0.3-0.7,0.4-0.8s0.3-0.3,0.3-0.6s0.2-0.5,0.4-0.6c0.2-0.1,0.4-0.3,0.5-0.4c0.1-0.2,0.3-0.3,0.4-0.2c0.3,0.1,2.1-0.7,2.2-1
		c0.1-0.3,0-0.3-0.4-0.2c-0.3,0.1-0.4,0.1-0.9-0.3c-0.7-0.4-0.7-0.6-0.1-0.8c0.4-0.2,0.5-0.3,0.3-0.7c-0.7-1.2,2.1,0.3,2.9,1.6
		c0.5,0.9,2,2.8,2.3,3.2c0.2,0.2,0.5,0.6,0.7,0.9c0.2,0.3,0.6,0.9,0.9,1.2c0.3,0.3,0.7,0.9,0.9,1.1c0.1,0.3,0.4,0.7,0.6,0.9
		c0.4,0.5,1.1,1.8,1.1,2c0,0.1,0.3,0.6,0.7,1.3c0.4,0.7,0.9,1.8,1.2,2.7c0.3,0.8,0.8,2.1,1,2.8c0.3,0.8,0.7,1.6,0.7,1.8
		c0.3,1.1,0.6,1.9,0.9,2.8c0.4,0.9,0.4,1.1,0.4,2.8v1.7l-0.4,0.4c-0.7,0.6-0.8,0.5-2-0.7c-1.1-1.2-1.3-1.6-0.6-1.6
		c0.9-0.1,0.3-0.8-0.9-1.2c-0.3-0.1-0.9-0.3-1-0.4c-0.2-0.1-0.5-0.2-0.7-0.2c-0.3,0-0.6-0.1-0.9-0.2c-0.3-0.1-0.7-0.1-1.1,0
		c-0.4,0.1-0.7,0.1-0.9,0c-0.3-0.1-0.4-0.1-0.5,0c-0.3,0.3-0.4,0.2-0.3-0.2c0.1-0.4-0.1-0.4-0.3-0.1c-0.3,0.3-1.2,2.2-1.2,2.5
		c0,0.1-0.3,0.6-0.5,1.1c-0.3,0.5-0.4,0.9-0.3,0.9c0.2,0,0.9-0.8,1.6-1.7c0.7-0.9,1-1.1,2.8-1.2c0.9-0.1,1.2,0,1.3,0.2
		c0.1,0.1,0.2,0.3,0.3,0.3c0.1,0.1,0.2,0.2,0.2,0.3s0.1,0.3,0.4,0.2c0.3,0,0.4,0,0.4,0.3c0,0.2,0.2,0.5,0.4,0.7c1,1,0.1,1.4-1.3,0.3
		c-0.9-0.6-4.3-0.6-4.6,0c-0.1,0.3,0,0.3,0.7,0.2c0.4-0.1,0.8-0.1,0.9,0c0.2,0.1,0.2,0.2-0.1,0.2c-0.2,0-0.5,0.1-0.8,0.3
		c-2.2,1.4-3.7,1.8-4.6,1.4c-0.6-0.3-1.2-0.5-1.8-0.6l-0.6-0.1l0.4,0.3c0.3,0.2,0.6,0.3,0.8,0.3c0.9,0,1.6,0.9,1,1.3
		c-0.6,0.4-0.2,0.4,0.7,0c0.4-0.3,1-0.5,1.3-0.6c0.3-0.1,0.6-0.3,0.8-0.4c0.3-0.3,0.6-0.3,0.3,0.1c-0.3,0.3,0.2,0.4,0.5,0.1
		c0.4-0.4,0.6-0.3,0.2,0.3c-0.2,0.2-0.3,0.3-0.3,0.3c0.3,0,1-0.5,1.2-0.8c0.3-0.3,0.5-0.4,0.7-0.2c0,0.1,0.2,0.1,0.5-0.2
		c0.5-0.5,0.8-0.5,0.8,0c0,0.3,0.1,0.3,0.3,0.3c0.3-0.1,0.5,0.2,0.3,0.4c-0.2,0.2-0.2,0.3,0.1,0.4c0.3,0.3,0.7,0,0.7-0.5
		c0-0.7,0.7-1.1,0.9-0.6c0.1,0.2,0.3,0.3,0.5,0.3c0.3,0,0.4,0.1,0.5,0.3c0.1,0.2,0.2,0.2,0.4,0.2c0.3-0.1,0.4,0,0.8,0.3
		c0.5,0.5,0.4,0.7-0.1,0.6c-0.3-0.1-0.4,0.1-0.9,0.4c-0.3,0.3-0.8,0.6-1.1,0.8c-0.3,0.2-0.8,0.5-1,0.8c-0.6,0.5-1,0.7-1.5,0.4
		c-0.3-0.2-0.5-0.1-0.3,0.2c0.1,0.1,0.2,0.3,0.2,0.3s0.2,0.3,0.4,0.3c0.3,0.1,0.4,0.3,0.5,0.4c0.1,0.4,0.4,0.3,0.5-0.3
		c0.3-1.6,4.1-3.1,4.1-1.7c0,0.5-0.8,1-1.5,0.9c-1.1-0.2-2.3,0.8-1.7,1.3c0.4,0.3,0.6,0.3,1-0.2c0.3-0.3,0.4-0.3,0.7-0.3
		c0.2,0.1,0.4,0.2,0.5,0.3c0.9,0.3-0.2,0.7-1.7,0.7c-1.1,0-1.4,0-1.4,0.3c0,0.2,0.1,0.3,0.4,0.3c0.5,0,1,0.3,0.9,0.6
		c-0.1,0.1-0.3,0.1-0.4,0.1c-0.2-0.1-0.5-0.1-0.8-0.2c-0.3,0-0.7-0.1-0.9-0.1c-0.2,0-0.6-0.3-0.9-0.5c-0.3-0.3-0.6-0.4-0.6-0.4
		c-0.1,0-0.3-0.3-0.7-0.7c-0.8-0.9-2.2-1.6-2.5-1.2c-0.1,0.1-0.3,0.1-0.4,0.1c-0.3-0.1-0.3,0-0.3,0.2c0,0.2,0.1,0.3,0.4,0.2
		c0.8,0,1.6,0.3,1.9,0.9c0.3,0.4,1.9,1.8,2.1,1.8c0.2,0,1.1,0.9,1.1,1.1c0,0.6-2.2,0.7-2.8,0.1c-0.3-0.3-0.5-0.3-0.7-0.1
		c-0.1,0.2-0.1,0.2-0.3,0c-0.3-0.2-1.7,0.3-1.7,0.6c0,0.2,1.4,0,1.6-0.2c0.3-0.2,0.8,0,1.4,0.4c0.9,0.6,1,1.1,0.3,0.7
		c-0.3-0.2-0.5-0.2-0.6-0.1c-0.2,0.1-0.4,0.2-0.7,0.2c-0.3,0-0.8,0.2-0.8,0.4c0,0,0.4,0.1,0.9,0.1c0.5,0,1.1,0,1.5,0.1
		c0.3,0,0.7-0.1,0.9-0.2c0.3-0.1,0.3-0.1,0.6,0.1c0.3,0.3,0.4,0.2,0.5-0.4c0.1-0.5,0.5-0.4,0.5,0.1c0,0.9,0.4,0.3,0.6-0.9
		c0.1-0.6,0.5-0.9,1.3-0.8c0.3,0,0.4,0,0.4-0.1c0-0.4,0.3-0.7,0.6-0.7c0.2,0,0.4-0.1,0.5-0.2s0.3-0.2,0.5-0.2c0.3,0,0.4-0.2,0.5-0.4
		c0.3-0.5,0.7-0.9,0.7-0.6c0,0.1-0.1,0.3-0.2,0.5c-0.1,0.2-0.2,0.4-0.2,0.7c0,0.7-1.2,1.8-2.1,1.8c-0.9,0-1,0.3-0.2,0.5
		c0.9,0.2,1.5,0.1,2.1-0.5c0.6-0.7,0.9-0.5,0.5,0.6c0,0.1,0.1,0.3,0.2,0.4c0.3,0.3,1.1-1,1.3-2.2c0.2-0.9,0.5-0.8,0.3,0.1
		c-0.1,1.1-0.3,2.7-0.4,2.8c0,0.1-0.1,0.6-0.2,1.3c-0.1,1.1-0.4,2.3-1,3.9c-0.2,0.3-0.3,0.8-0.3,1c0,0.2-0.2,0.8-0.4,1.3
		s-0.4,1-0.4,1.2c0,0.2-0.3,0.9-0.6,1.6c-0.3,0.7-0.8,1.7-0.9,2.2c-0.2,0.5-0.3,1-0.4,1.2c-0.1,0.1-0.2,0.3-0.2,0.5
		c-0.1,0.7-0.3,1.2-0.9,2.1c-0.8,1-1.7,2.6-2.4,3.9c-0.3,0.5-0.7,1.4-0.9,1.8c-0.3,0.7-0.9,1.2-2.2,2.4c-0.9,0.9-1.7,1.6-1.7,1.7
		c-0.1,0.3-2.2,2.4-2.6,2.5c-0.2,0.1-0.3,0.2-0.4,0.3c-0.3,0.3-2.3,1.9-2.5,1.9C-93.7,452.1-94.3,452.5-95.1,453z M-167.3,414.5
		c0-0.2,0.3-0.1,0.5,0.2c0.3,0.3,0.3,0.3-0.1,0.1C-167.1,414.7-167.3,414.5-167.3,414.5z M-153,382.1c0,0.4-0.2,0.4-0.4,0.1
		c-0.3-0.6-0.1-1.3,0.3-1.3c0.2,0,0.2,0.1,0.1,0.4C-152.9,381.6-153,381.9-153,382.1z"/>
	<path d="M-140.1,362.2c0.8-0.1,1.9,1.1,2.6,2.7c0.4,0.9,0,2-0.7,1.6c-0.3-0.1-0.4-0.1-0.9,0.1c-0.6,0.3-0.7,0.5-0.1,0.4
		c0.6,0,0.6,0.2,0.1,0.5c-0.6,0.3-0.4,0.4,0.4,0.2c1-0.3,1.6-0.6,1.9-1.1c0.3-0.5,0.4-0.5,2.8-0.9c0.9-0.1,1.2-0.3,1.4-0.4
		c0.3-0.4,0.3-0.5-0.1-0.3c-0.3,0.2-0.6,0.2-1.3,0.2c-0.5,0-1.2,0-1.6,0.1c-0.7,0.2-0.9,0.1-1.1-0.6c-0.2-0.3-0.3-0.5-0.4-0.5
		c-0.2,0-0.3-0.2-0.3-0.6c0-0.5,0-0.6,0.3-0.6c0.3,0,1.2-0.9,1.2-1.2c0-0.9-1.1-0.7-1.8,0.4c-0.2,0.3-0.2,0.3-0.5-0.1
		c-0.2-0.2-0.4-0.3-0.5-0.3c-0.1,0-0.1-0.1-0.1-0.3c0.1-0.2,0.2-0.4,0.2-0.7c0.4-1.7,0.5-1.7,1.6-1.7c0.9,0,1-0.2,0.3-0.6
		c-0.9-0.3-1-0.3-1.6,0.3c-0.3,0.3-0.8,0.9-1,1.6c-0.6,1.1-0.8,1.2-1.5,0.8c-0.3-0.2-0.3-0.2-0.6,0
		C-142,361.5-141,362.3-140.1,362.2z"/>
	<path d="M-135.8,364.8c0.8,0.1,1.4-0.9,0.9-1.5c-0.3-0.3-0.5-0.2-0.9,0.3C-136.5,364.2-136.5,364.7-135.8,364.8z"/>
	<path d="M-81.9,456.5c-0.4-0.3-0.7-0.3-0.7-0.3c0,0.2,0.8,0.8,0.9,0.8C-81.3,457-81.4,456.8-81.9,456.5z"/>
	<path d="M-110.7,362.9c0-1.9-2.1-4-3.4-3.4c-1,0.4-0.4,3.1,0.7,3.1c0.8,0,1-0.7,0.3-0.8c-0.7-0.1-0.9-0.6-0.5-1.1
		c0.4-0.6,1-0.3,1.9,0.9c0.8,1.2-0.9,3-2.6,2.8c-0.7-0.1-0.8,0.2-0.3,0.6c0.4,0.3,0.9,0.3,1.4,0.2c0.5-0.3,1.1,0,1.7,0.7
		c0.8,0.9,1.6,0.9,3.6,0.1c0.7-0.3,1.6-0.5,1.8-0.5c0.4,0,1.1-0.3,1.4-0.8c0.4-0.6-0.1-2.2-0.8-2.2c-0.5,0.1-0.7,0.4-0.3,0.6
		c0.9,0.4,0.7,1.5-0.4,1.6c-0.4,0.1-0.8,0.2-0.9,0.3c-0.5,0.4-2.4,0.9-2.6,0.6c-0.1-0.1-0.4-0.3-0.8-0.5c-1.1-0.6-0.5-1.1,0.6-0.6
		c0.4,0.2,0.6,0.1,0.3-0.3c-0.2-0.2-0.2-0.3,0-0.6c0.3-0.4,0.1-0.5-0.5-0.3C-110.5,363.5-110.7,363.4-110.7,362.9z"/>
	<path d="M-149.6,366.3c0.6,0.3,1.2-0.4,0.7-0.9c-0.7-0.6-0.2-1.4,0.9-1.3c0.9,0.1,1.1,0.3,1.6,1.2l0.3,0.7l-0.3,0.4
		c-0.5,0.6-1.4,2.1-1.4,2.3c0,0.9,0.9,1.3,1.6,0.6c0.3-0.4,0.3-0.3-0.2-0.6c-0.6-0.2-0.7-0.9-0.1-1.6c0.6-0.9,0.7-0.8,1.3,0.3
		c0.6,1,1.2,1.6,1.6,1.6c0.3,0,1.8-1.6,2-2.3c0.1-0.3,0.3-0.8,0.3-0.9c0.3-0.8-0.9-1.5-1.4-0.7c-0.3,0.3-0.3,0.3,0,0.5
		c0.6,0.4,0.6,0.5,0.5,0.9c-0.1,0.6-0.8,1.7-1,1.7c-0.2,0-0.3-0.2-1.6-2.4l-0.5-0.9l0.3-0.9c0.2-0.4,0.4-1.1,0.6-1.6
		c0.6-1.6-0.1-2.8-1-1.7c-0.3,0.3-0.3,0.6,0,0.6c0.9,0,0.8,0.9-0.1,2.7c-0.2,0.3-0.3,0.3-0.7-0.3c-0.6-1-2.2-0.9-3,0.2
		C-150.1,365.2-150.3,366-149.6,366.3z"/>
	<path d="M-96.2,363.3l0.6-0.1v0.7c0,0.9,0.3,1.1,1.2,1.1c0.9,0,1.1,0.6,0.3,1.2c-0.5,0.4-1.6,2.2-1.6,2.9c0,1.3,0.8,2.4,2.4,3.4
		c1,0.7,1.3,1.2,1.3,2.7c0,0.4,0.1,0.8,0.1,0.8c0.3,0,0.4-0.9,0.4-2c0-1.2,0.3-1.7,0.9-1.9c0.4-0.1,1.5-1.6,1.3-1.8
		c-0.3-0.3-1.2-0.1-1.2,0.3c0.1,0.4-0.3,0.9-0.6,0.8c-0.1,0-0.3,0-0.5,0.2c-0.7,0.4-1.2,0.4-1.3,0c-0.1-0.2-0.3-0.5-0.5-0.7
		c-0.3-0.2-0.4-0.4-0.4-0.5c0-0.2-0.2-0.3-0.4-0.3c-0.5-0.2-0.7-0.8-0.2-0.7c0.4,0.1,0.7-0.1,0.5-0.3c-0.2-0.3,0-0.7,0.3-0.9
		c0.3-0.2,0.3-0.3-0.2-0.5c-0.5-0.2-0.5-0.3-0.1-0.6c0.3-0.2,0.4-0.2,0.7-0.1c0.6,0.2,1-0.3,0.9-1c-0.1-0.8,0.4-0.5,0.7,0.3
		c0.2,0.4,0.5,0,0.5-0.6c0-0.6-0.2-0.8-0.9-0.9c-0.3-0.1-0.6-0.2-0.7-0.3c-0.2-0.3-1.1-0.4-1.6-0.3c-0.6,0.1-0.9-0.2-0.8-0.9
		l0.1-0.6h-0.5c-0.3,0-0.7,0.1-0.9,0.3C-96.9,363.2-96.8,363.3-96.2,363.3z"/>
	<path d="M-92.3,369.6c-0.3,0.3-0.3,0.9-0.1,1c0.3,0.2,0.8-0.1,0.9-0.3C-91.2,369.5-91.9,369-92.3,369.6z"/>
	<path d="M-109.2,360.4c0.1-0.1-0.6-1.2-0.8-1.2c0,0-0.1,0.1-0.1,0.2C-110,359.5-109.3,360.5-109.2,360.4z"/>
	<path d="M-103.7,366.2c0.3-0.9,0.3-0.9,0.8-0.8c0.3,0.2,0.3,0.6-0.1,1.5c-0.2,0.3-0.3,0.7-0.3,0.8c0,0.3,0.3,0,0.6-0.6
		c0.5-1,0.6-1.1,1.3-0.8c0.7,0.3,0.8,0.7,0.4,1.3c-0.3,0.4-0.3,0.4-0.5,0.2c-0.2-0.2-0.3-0.2-0.3-0.1c0,0.1,0.2,0.3,0.3,0.3
		c0.5,0.3,0.4,0.6-0.4,1.1c0,0,0,0.2,0.1,0.4c0.1,0.3,0.1,0.5,0,0.7c-0.1,0.2-0.1,0.4-0.1,0.4c0.2,0.2,1-0.8,1.3-1.4
		c0.2-0.4,0.3-0.4,0.6-0.4c0.6,0.1,0.7-0.2,0.2-0.6c-0.8-0.6-0.3-1.6,0.6-1c0.2,0.2,0.4,0.3,0.6,0.3c0.2,0.1,0.3,0.2,0.2,0.6
		c-0.1,0.6,0,0.5,0.6-0.4c0.8-1.5,1.2-0.9,0.4,0.6c-0.3,0.5-0.3,0.8-0.1,0.7c0.2-0.1,1.1-2.2,1.1-2.6c0-0.2-0.3-0.3-0.5,0
		c-0.1,0.1-0.2,0.1-0.3,0c-0.3-0.2-0.3-0.1-0.5,0.5c-0.3,0.8-0.8,0.7-1.5-0.2c-0.7-0.9-0.7-1-0.2-1.4c0.3-0.3,0.4-0.3,0.2-0.5
		c-0.3-0.3-0.1-1.7,0.3-2.3c0.5-0.8,0.2-2-0.3-1.4c-0.2,0.2-0.4,0.9-0.6,1.6c-0.3,1.3-0.5,1.5-0.7,0.8c-0.2-0.6-0.3-0.5-0.3,0.1
		c0,0.6-0.3,0.9-0.7,0.6c-0.3-0.3-0.5-0.3-0.7,0.1c-0.3,0.5-0.8,0.4-0.7-0.2c0-0.3,0-0.4-0.1-0.4c-0.2,0-1.2,2.4-1.2,2.8
		C-104.2,367.3-104,367.1-103.7,366.2z M-101.3,364.9c0.6-0.3,0.8-0.3,0.9,0.2c0.2,0.6,0,0.8-0.7,0.8
		C-102.2,365.8-102.2,365.4-101.3,364.9z"/>
	<path d="M-79.6,454.3c-0.2-0.1-0.2-0.3-0.2-0.6c0.1-0.3,0-0.4-0.3-0.7c-0.4-0.4-0.8-0.6-0.8-0.4c0,0.1,0.1,0.2,0.3,0.2
		c0.4,0.1,0.4,1.4,0,1.4c-0.2,0-0.4,0.1-0.6,0.3c-0.2,0.2-0.4,0.2-0.6,0.1c-0.2-0.1-0.3,0-0.3,0.1c0,0.1,0.2,0.2,0.3,0.3
		c0.2,0,0.3,0.2,0.4,0.3c0.3,0.3,0.4,0.3,0.4,0c0-0.3,0.4-0.5,0.9-0.4C-79.3,454.9-79.1,454.7-79.6,454.3z"/>
	<path d="M-64.4,416.4l-1.6,0.1c-3.2,0.2-3.2,0.2-3.4-0.7s0.2-1.1,1.6-1.2c1.2-0.1,1.3-0.1,1.6,0.3c0.4,0.5,1,0.4,1-0.2
		c0-0.9-0.3-0.9-1.8-0.6c-2,0.5-2.6,0.1-2.8-1.6c-0.1-1.2,0-1.4,1.1-1.4c0.9,0,1,0.1,1.3,0.8c0.2,0.6,0.3,0.7,0.6,0.2
		c0.2-0.3,0.2-0.4,0.1-0.8c-0.3-0.7-0.3-0.7-1.8-0.7c-1,0-1.4-0.1-1.6-0.2c-0.3-0.3-0.3-0.3-0.7,0.2c-0.3,0.3-0.3,0.4-0.2,0.7
		c0.2,0.4,0.3,8,0.1,8.2c-0.1,0.1-0.3,0.2-0.4,0.2s-0.4,0.2-0.6,0.3c-0.3,0.4-0.9,0.3-0.9-0.2c-0.1-0.5-0.3-0.5-0.4-0.1
		c-0.4,0.9,0.5,1.7,1.7,1.4c0.3-0.1,1-0.3,1.6-0.3c1.2-0.1,1.4-0.3,1.1-1.2c-0.1-0.3-0.2-0.9-0.2-1.3v-0.6l0.9-0.1
		c1.8-0.2,2.8,0.2,3,0.9c0.2,0.5,0.4,0.4,0.7-0.3c0.3-0.6,0.3-0.6-0.1-1.2L-64.4,416.4z"/>
	<path d="M-68.5,426.2c0,0.1,0.2,0.3,0.4,0.3c0.6,0.3,0.7,0.8,0.5,1.9c-0.3,1.2-0.5,1.5-1,1c-0.2-0.2-0.4-0.3-0.6-0.3
		c-0.1,0-0.4-0.1-0.7-0.3l-0.5-0.3v-1.4c0-1.1,0.1-1.5,0.3-2c0.3-0.7,0.4-1,0.2-2.2l-0.2-0.8l-0.3,0.4c-0.7,0.9-0.8,1.4-0.7,2.3
		c0.2,1.3,0.2,1.4,0.1,2.5v1l-0.8,0.3c-0.4,0.2-0.9,0.5-1,0.7c-0.4,0.3-0.7,0.3-1-0.5c-0.6-1.4-0.3-2.7,0.4-2.7
		c0.2,0,0.3-0.1,0.3-0.2c0-0.2-0.9-0.1-1.1,0.2c-0.6,0.6-0.5,1.7,0.2,3c0.4,0.8,0.4,0.9,0.3,1.6c-0.1,1,1,2.7,2.2,3l0.4,0.2
		l-0.1,1.5c-0.1,1.6,0,2.1,0.3,2.1c0.2,0,0.2-0.3,0.2-1.7c0-1.9,0-2,0.5-1.9c0.3,0.1,0.3,0,0.4-0.2c0.2-0.7,1.2-0.9,1.2-0.3
		c0,0.2,0,0.2,0.2,0c0.1-0.1,0.2-0.4,0.2-0.8c0-0.3,0.1-0.9,0.1-1.1c0.1-0.3,0.1-0.7,0-0.9c-0.1-0.3-0.1-0.5,0.3-1
		c0.3-0.5,0.4-0.7,0.4-1.9v-1.4l-0.5-0.3C-68.1,426.1-68.4,426-68.5,426.2z M-72.2,429.8c0.5-0.6,1.2-0.6,1.3-0.1
		c0.3,1.2-0.5,1.8-1.4,1C-72.8,430.3-72.8,430.3-72.2,429.8z M-71.2,433.4c-0.3,0-1.6-0.9-1.7-1.4c-0.2-0.6,0.4-1.2,0.7-0.7
		c0.1,0.1,0.3,0.2,0.5,0.3C-70.9,431.7-70.3,433.4-71.2,433.4z M-70.3,429.9c0.1-0.7,0.5-0.8,1.1-0.2c0.5,0.4,0.5,0.7,0,1
		C-70,431.3-70.5,431-70.3,429.9z M-70.3,433.5c-0.6-0.3-0.2-1.9,0.5-1.9c0.2,0,0.5-0.1,0.7-0.2c0.4-0.3,0.6-0.3,0.6,0.3
		C-68.4,432.5-69.7,433.7-70.3,433.5z"/>
	<path d="M-57.8,410.7c-0.1-2.6-0.3-5.6-0.5-6.4c-0.1-0.5-0.3-1.6-0.4-2.2c-0.1-0.7-0.3-1.7-0.5-2.3c-0.2-0.6-0.3-1.4-0.5-1.8
		c-0.3-0.9-0.3-1.4-0.9-2.5c-0.2-0.4-0.3-0.9-0.3-1.1s-0.3-0.8-0.6-1.4c-0.3-0.6-0.7-1.6-0.9-2.3c-0.4-1.6-1.6-4.1-2.3-4.9
		c-0.3-0.3-0.7-0.9-0.9-1.2c-0.2-0.3-0.5-0.9-0.8-1.4c-0.3-0.4-0.8-1.2-1.1-1.9c-0.8-1.4-2-3.3-2.1-3.3c-0.2,0-1.1-1.4-1.2-1.7
		c-0.1-0.3-0.3-0.6-0.6-0.9c-0.6-0.6-2-2.3-2.3-2.8c-0.2-0.2-0.4-0.5-0.6-0.6c-0.2-0.2-0.8-0.7-1.2-1.1c-0.4-0.5-1.1-1.1-1.6-1.5
		s-1-0.8-1.4-1c-0.3-0.3-1.2-1-1.8-1.6c-0.7-0.6-1.6-1.4-2-1.6c-0.4-0.3-0.9-0.6-0.9-0.8c-0.3-0.3-1.6-1.5-2.8-2.2
		c-0.4-0.3-1.2-0.8-1.6-1c-1.2-0.8-2-1.3-2.9-1.7c-0.4-0.3-1.1-0.6-1.5-0.9c-0.3-0.3-0.9-0.6-1.3-0.8c-0.3-0.2-1.1-0.7-1.7-1
		c-0.6-0.4-1.1-0.8-1.3-0.8c-0.3,0-2.5-1.2-2.9-1.6c-0.2-0.2-0.5-0.3-0.7-0.3c-0.3,0-1.2-0.3-1.2-0.5s-0.7-0.4-1.6-0.5
		s-2-0.4-4.2-1.3c-2.1-0.8-2.1-0.8-3.6-0.9c-0.8-0.1-2.1-0.2-2.8-0.3c-0.8-0.1-2-0.2-2.8-0.1c-2.2,0.1-7.8-0.3-11.6-0.9
		c-1-0.2-3-0.3-3.5-0.1c-0.1,0-1.1,0.1-2.3,0.2c-1.2,0.1-2.6,0.3-2.9,0.3c-0.3,0.1-1,0.3-1.4,0.3c-0.5,0.1-0.9,0.3-1.4,0.7
		c-0.6,0.5-0.8,0.6-1.1,0.5c-0.6-0.2-1.7,0.3-3.1,1.2c-0.8,0.5-1.6,0.9-2.2,1.1c-0.5,0.2-1.3,0.5-1.6,0.8c-0.3,0.3-1.2,0.7-1.7,0.9
		c-0.6,0.3-1.4,0.7-1.7,0.9c-0.3,0.3-0.8,0.4-0.8,0.4c-0.1,0-0.3,0.2-0.7,0.3c-0.3,0.2-0.6,0.3-0.8,0.3s-0.6,0.3-1,0.5
		c-0.4,0.3-1,0.6-1.3,0.7c-1,0.4-2.4,1.3-2.6,1.7c-0.2,0.4-0.8,1.1-1,1.1c-0.1,0-0.3,0.2-0.4,0.3c-0.3,0.3-1.9,1.4-2.2,1.4
		c-0.1,0-0.5,0.3-1,0.7c-0.5,0.3-1.4,0.9-2,1.1c-1.1,0.4-1.2,0.6-2,1.9c-0.2,0.3-0.3,0.3-0.6,0.3c-0.3-0.1-0.4,0.1-1.1,0.7
		c-0.4,0.5-1,0.9-1.6,1.2c-1.5,0.7-2.7,2.5-1.2,1.8c0.7-0.3,0.5,0.1-0.6,1.2c-1.5,1.6-2.3,2.7-2.2,3c0.1,0.2-0.1,0.4-0.4,0.7
		c-1.2,0.9-1.7,1.6-1.7,2.1c0,0.3-0.3,0.9-0.8,1.7c-0.4,0.7-1.1,1.7-1.5,2.2c-0.3,0.6-0.9,1.5-1.4,2c-1.6,2.2-1.8,2.5-1.7,3.2
		c0.1,0.5,0,0.8-0.4,1.7c-0.3,0.6-0.5,1.2-0.5,1.3c0,0.3-0.7,2.3-1.3,3.7c-0.4,1.1-0.7,1.6-1.4,4.1c-0.3,0.8-0.7,2.2-0.9,3.1
		c-0.3,0.9-0.6,1.9-0.6,2.2c-0.1,0.6-0.5,1.5-0.8,1.5c-0.1,0-0.1,0.2-0.1,0.4c0.1,0.3,0,0.4-0.1,0.4c-0.1,0-0.2-0.1-0.2-0.3
		s-0.1-0.3-0.2-0.3c-0.1,0-0.2,0-0.3,0.1c0,0.3,0,0.5,0,0.8c0.3,0,0.5,0.1,0.7,0.2c0.4,0.3-0.4,3-0.9,3c-0.1,0.9-0.3,1.6-0.3,2.5
		c0.2-0.1,0.4,0,0.5,0.4c0.2,0.5,0.1,1.6-0.3,1.8c-0.3,0.2-0.2,0.2,0.2,0.6c0.4,0.3,0.4,0.4,0.3,1.2c-0.1,0.4-0.1,1.6-0.2,2.6
		c0,0.9-0.1,1.8-0.1,1.9c0,0.2-0.3,0.3-0.6,0.1c0,0.1,0.1,0.3,0.1,0.3c0.2-0.1,0.3-0.1,0.4,0c0.1,0,0.3,1.2,0.4,2.7
		c0.2,1.5,0.4,2.8,0.5,3.1c0.1,0.3,0.3,0.8,0.3,1c0.2,0.7,0.5,2.1,0.9,3.4c0.2,0.5,0.3,1.6,0.4,2.2c0.3,1.6,1.4,5.4,2,6.6
		c0.3,0.5,0.6,1.4,0.6,1.6c0,0.1,0.3,0.5,0.5,0.9c0.6,0.9,0.9,1.6,1.6,3.5c0.3,0.8,0.8,2,1,2.7c0.3,0.7,0.7,1.6,0.9,2
		s0.3,0.8,0.5,0.9c0.1,0.1,0.5,0.9,0.9,1.6c0.3,0.8,0.9,1.9,1.3,2.4c0.3,0.5,0.7,1.1,0.8,1.3c0.2,0.3,0.7,1.1,1.3,2.1
		c0.3,0.5,0.6,0.7,0.6,0.3c0-0.1-0.2-0.4-0.4-0.8c-0.4-0.7-0.8-1.4-0.4-1c0.1,0.1,0.3,0.4,0.5,0.8c0.2,0.3,0.7,1,1.2,1.6
		c0.4,0.5,0.9,1.1,0.9,1.4c0.2,0.5,1.6,2.2,1.8,2.2c0.2,0,0.7,0.7,1.5,2.2c0.5,0.9,1.8,2.2,2.2,2.2c0.1,0,0.5,0.3,0.9,0.8
		s1,0.9,1.5,1.1c0.8,0.3,3.4,2.2,6.3,4.2c0.4,0.3,0.8,0.5,0.9,0.5c0.1,0,0.4,0.2,0.7,0.4c1.4,1.1,3,1.9,4.3,2.2
		c0.3,0.1,0.9,0.3,1.6,0.6c0.6,0.3,1.7,0.9,2.5,1.3c0.8,0.4,1.8,0.9,2.3,0.9c0.4,0.1,1.1,0.3,1.6,0.5c0.9,0.4,2.1,0.9,2.7,0.9
		c0.4,0,1.1,0.2,2.8,0.6c0.6,0.2,1.3,0.3,1.5,0.3c0.2,0,0.8,0.3,1.3,0.5c0.5,0.3,1.1,0.5,1.3,0.5c0.3,0,0.6,0.3,0.6,0.5
		c0,0.1,0.2,0.2,0.3,0.2c0.2,0,0.4,0.1,0.6,0.3c0.2,0.1,0.4,0.3,0.7,0.4c0.3,0.1,0.4,0.3,0.4,0.5c0,0.3,0.2,0.3,0.6,0.4
		c0.6,0.2,0.9,0.3,1.1,0.8c0.1,0.2,0.5,0.4,0.9,0.6l0.8,0.3l-0.1,1.4c-0.1,0.8-0.2,1.5-0.2,1.6c-0.2,0.3-0.3,1.9-0.1,1.9
		c0.3,0,1-0.9,1.1-1.5c0-0.3,0.1-0.7,0.2-0.9c0-0.3,0.3-0.8,0.6-1.1c0.3-0.3,0.5-0.7,0.5-0.9c0-0.5,0.4-0.8,1.1-0.8
		c1.6,0,1.9,0.5,1.9,3.1c0,1,0.1,2.1,0.2,2.2s0.2,0.4,0.2,0.6c0,0.5,0.3,0.4,0.5-0.2c0.3-0.5,0.3-1.6,0.3-3.8c0-2.1,1.8-2.8,2.5-0.9
		c0.2,0.3,0.4,0.9,0.7,1.4c0.3,0.3,0.5,0.9,0.6,1.1c0.2,0.4,1.2,1.6,1.3,1.5c0,0-0.1-0.6-0.3-1.3c-0.6-2.2-0.6-3.9,0-3.9
		c0.8,0,2.2-0.8,2.4-1.4c0.2-0.4,1.1-0.9,1.8-1c0.4,0,1.1-0.3,2.1-0.7c0.8-0.3,1.7-0.8,2.1-0.9c0.3-0.2,1.2-0.5,1.9-0.9
		c0.9-0.4,1.4-0.6,1.7-0.5c0.3,0.1,0.6,0,0.9-0.3c0.4-0.3,0.8-0.3,1.2-0.3c0.3,0,0.9-0.1,0.9-0.2c1-0.6,2.8-0.9,2.9-0.7
		c0.2,0.3,0.4,0.3,0.3-0.1c-0.1-0.4,0.6-1,1.8-1.6c0.4-0.2,1.5-0.7,2.4-1.2s1.8-0.9,2-0.9s0.3-0.1,0.3-0.2c0.1-0.2,1.9-1.4,2.2-1.5
		c0.2-0.1,0.7-0.3,1.2-0.7c0.5-0.3,0.9-0.5,0.9-0.5c0,0,0.4-0.3,0.9-0.6s0.9-0.6,1-0.6c0.2,0,1.5-0.9,1.9-1.3
		c0.2-0.2,0.4-0.3,0.7-0.3c0.4,0,2.1-0.9,2.8-1.5c0.3-0.3,0.8-0.5,0.9-0.7c0.3-0.1,0.8-0.6,1.2-1.1s1.1-1.3,1.6-1.7s0.9-1,1-1.3
		c0.1-0.3,0.3-0.6,0.6-0.8c0.4-0.4,0.8-0.9,0.8-1.5c0-0.2,0.2-0.7,0.4-1c0.5-0.8,2.8-3.8,4.3-5.7c0.9-1.2,1.6-2.5,3.6-6.5
		c0.5-0.9,1.3-2.8,1.3-3c0-0.1,0.2-0.4,0.3-0.9s0.5-1.3,0.7-1.9c0.2-0.7,0.5-1.4,0.6-1.6c0.2-0.2,0.3-0.7,0.3-1
		c0.1-0.3,0.5-1.6,1.1-2.9s1-2.3,1-2.4c0-0.1,0.1-0.5,0.3-0.9s0.4-1.7,0.6-2.8c0.5-2.8,0.6-3.2,0.8-4.4c0.1-0.6,0.2-1.5,0.3-1.8
		C-57.9,422.7-57.6,414.5-57.8,410.7z M-126.9,479.9c0,0.2-0.1,1-0.1,2c0,0.9,0,1.7,0,1.7s-2.8-1.1-3.3-1.4
		c-1.5-0.6-1.2-0.9,1.7-2.2C-127.2,479.5-126.8,479.5-126.9,479.9z M-121,483l-0.3,0.8l-0.8,0.1c-0.9,0.2-2.1-0.2-2.2-0.6
		c0-0.1-0.3-0.5-0.4-0.9c-0.5-1.1-0.3-2.6,0.4-2.8c0.9-0.3,2.5-0.2,3,0.4C-120.6,480.6-120.5,481.8-121,483z M-119.1,483.5
		c-0.1-0.1,0-0.3,0-0.7c0.1-0.6,0-2-0.2-2.6c-0.2-0.4,0.3-0.4,1.4,0c1.3,0.4,2.9,1.2,2.8,1.4C-115.3,482.1-118.8,483.7-119.1,483.5z
		 M-63,419c0,0.3-0.2,2.7-0.3,5.2c-0.2,3-0.3,4.7-0.4,4.8c-0.1,0.2-0.3,0.7-0.3,1.1c-0.1,0.4-0.3,0.9-0.3,1
		c-0.2,0.5-0.5,1.6-0.6,2.2c-0.1,0.3-0.4,1.4-0.9,2.3s-0.8,1.8-0.8,1.9s-0.3,0.7-0.6,1.3c-0.3,0.7-0.6,1.2-0.6,1.3s-0.3,0.7-0.5,1.4
		c-0.3,0.7-0.8,2-1,2.8c-0.6,1.6-0.8,2.2-1.6,3.2c-0.5,0.8-1.4,2-2,3c-0.7,1.3-1.7,2.8-2.2,3.4c-0.3,0.3-0.5,0.6-0.5,0.7
		c0,0.1-0.2,0.3-0.3,0.6c-0.2,0.3-0.3,0.5-0.3,0.5c0,0.1-1,1.7-1.6,2.8c-0.3,0.5-0.8,1-1.1,1.3c-0.3,0.2-0.5,0.5-0.7,0.7
		c-0.5,0.9-5,4.7-5.7,4.7c-0.1,0-0.3,0.1-0.3,0.2c-0.1,0.1-0.4,0.3-0.8,0.5c-0.9,0.3-2.2,1.5-2.2,1.9c-0.1,0.3-0.4,0.5-2.8,2.1
		c-1,0.7-4.2,2.4-5.2,2.8c-0.4,0.2-0.9,0.3-0.9,0.4c-0.3,0.2-3.5,1.6-4.7,1.9c-0.6,0.2-1.4,0.4-1.7,0.6c-0.3,0.1-1,0.3-1.5,0.4
		c-0.4,0.1-1.1,0.3-1.6,0.4c-0.3,0.1-0.9,0.2-1.1,0.2c-0.3,0-0.8,0.1-1.2,0.3c-0.4,0.2-0.8,0.3-0.9,0.2c-0.1,0-0.7,0.1-1.5,0.3
		c-0.8,0.2-1.6,0.3-1.8,0.3c-0.3,0-0.8,0.1-1.1,0.3c-0.9,0.3-2.1,0.3-3.5-0.2c-2.5-0.8-6.3-1.1-8-0.7c-0.3,0.1-1.3,0.3-2.2,0.5
		c-1.7,0.4-1.7,0.4-5.9-0.4c-6.8-1.4-14.8-4.7-20.1-8.2c-0.4-0.3-0.9-0.5-0.9-0.5c-0.1,0-0.3-0.2-0.5-0.4c-0.2-0.3-0.6-0.5-0.8-0.6
		c-0.3-0.1-0.4-0.3-0.4-0.3c0-0.1-0.4-0.4-0.9-0.8c-3.3-2.3-8.6-7.5-10.9-10.4c-0.3-0.3-0.9-1.2-1.4-1.8c-5.1-6.6-9.3-15.7-11-23.7
		c-1.1-5-1.4-6.6-1.6-10.4c-0.1-1.4-0.2-2.8-0.2-3.4c-0.2-1.7,0.4-8.9,0.8-10c0.1-0.3,0.2-1,0.3-1.6c0.1-0.6,0.3-1.6,0.5-2.3
		c0.2-0.7,0.4-1.6,0.6-1.9c1.2-4.4,1.6-5.6,2.6-7.8c0.3-0.5,0.6-1.4,0.8-1.8s0.5-1.4,0.9-2c0.3-0.6,0.5-1.2,0.6-1.4
		c0.1-0.1,0.3-0.7,0.7-1.3c0.3-0.6,1-1.8,1.6-2.8c0.5-0.9,1.2-2.1,1.5-2.5c0.3-0.4,0.7-1.1,0.9-1.5c0.2-0.3,0.5-1,0.9-1.4
		c0.3-0.3,0.9-1.3,1.4-2.1c1-1.6,4-4.8,4.8-5.4c0.3-0.3,0.9-0.8,1.2-1.1c0.3-0.4,0.9-0.9,1.2-1.1c0.3-0.2,0.8-0.6,1.1-0.9
		c0.3-0.3,0.9-0.7,1.2-0.9c0.3-0.3,1.1-0.8,1.6-1.1c1.6-1.2,4.4-3,5.7-3.7c0.7-0.3,1.5-0.8,1.6-1c0.5-0.4,2.7-1.8,3.7-2.3
		c0.4-0.2,1.1-0.5,1.5-0.7c0.3-0.2,0.9-0.4,1.3-0.5c1.4-0.4,2.5-0.9,2.9-1.3c0.6-0.5,0.9-0.7,2.5-0.9c0.7-0.1,1.6-0.3,2.1-0.4
		c1.9-0.6,2.5-0.6,8.5-0.5c3.2,0,7.1,0.1,8.6,0.2l2.8,0.1l1,0.5c0.8,0.4,1.3,0.5,2.1,0.6c0.6,0.1,1.4,0.2,1.8,0.2
		c0.3,0.1,1.2,0.2,1.9,0.3c1.2,0.2,3.2,0.6,4.7,1c0.4,0.1,1.2,0.3,1.8,0.3s1.3,0.3,1.6,0.4c0.3,0.2,1.3,0.4,2.2,0.5
		c1.7,0.3,3.7,1.1,3.9,1.6c0.1,0.3,1.3,1.1,1.6,1.1c0.1,0,0.4,0.2,0.8,0.4c0.3,0.3,0.9,0.5,1.2,0.7c0.9,0.3,4.3,2.6,5.3,3.6
		c0.3,0.3,0.9,0.9,1.4,1.2c1.1,0.9,4.7,4.7,5.3,5.3c0.3,0.3,0.5,0.7,0.7,0.8c0.7,0.3,2.1,1.9,2.8,3c1,1.7,1.6,2.5,2.4,3.5
		c0.4,0.5,1.3,1.6,1.9,2.6s1.2,1.7,1.4,1.8c0.2,0.1,0.4,0.5,0.6,0.9s0.6,1.4,1,2.2c0.3,0.8,0.8,1.6,0.9,2.1s0.4,0.9,0.7,1.1
		c0.3,0.3,0.4,0.5,0.4,0.7s0.2,0.6,0.3,0.9c0.2,0.3,0.4,0.9,0.5,1.3c0.5,1.8,0.8,2.8,0.8,2.9c0,0.1,0.2,0.7,0.4,1.4
		c0.6,1.6,1,3.4,1.2,5.2c0.1,0.8,0.3,1.9,0.4,2.4c0.4,1.6,0.5,2.1,0.6,3.8c0,0.9,0.2,1.9,0.2,2.2C-62.7,412-62.8,416.8-63,419z"/>
	<path d="M-123.2,480.8c-0.4,0.2-0.8,0.9-0.6,1.3c0.4,1,1.6,0.9,1.9-0.2C-121.7,481.3-122.6,480.6-123.2,480.8z"/>
	<path d="M-72.1,443c-0.2,0.1-0.4,0.1-0.5,0.1c-0.2,0-0.4,0-0.6,0c-0.3,0-0.3-0.1-0.3-0.3c0-0.2-0.2-0.4-0.3-0.5
		c-0.3-0.1-0.3-0.3-0.3-1c0.1-1.6-0.3-2.8-0.7-2.1c-0.1,0.2-0.1,0.6-0.1,0.9c0.1,0.6,0.1,0.7-0.2,0.7c-0.2,0-0.4,0.1-0.6,0.2
		c-0.3,0.2-0.3,0.2-0.6,0c-0.3-0.2-0.3-0.2-0.6,0.1c-0.3,0.3-0.3,0.3-0.9-0.3c-0.7-0.8-1-0.6-0.9,0.4c0.1,0.7,0.3,0.9,1.1,1
		c0.6,0.1,0.9,0.3,0.6,0.5c-0.1,0.1-0.3,0.1-0.6-0.1c-0.5-0.3-0.9-0.2-0.9,0.2c0,0.2,0.2,0.3,0.6,0.5c1.4,0.6,0.5,0.9-1,0.4
		c-0.3-0.1-0.3,0-0.4,0.6c-0.1,0.4-0.2,0.9-0.3,0.9c-0.1,0.2-0.1,0.3,0.3,0.3c0.4,0.1,0.5,0,0.5-0.6c0-0.7,0.1-0.7,0.9-0.6
		c0.6,0.1,0.8,0.2,1,0.5c0.3,0.5,0.1,1-0.4,0.9c-0.6-0.1-0.9,0.1-1.3,0.6c-0.3,0.6-0.6,2.1-0.3,2.2c0.2,0.1,0.6-0.4,0.6-0.9
		c0-0.2,0.2-0.5,0.3-0.7l0.3-0.3l0.3,0.3c0.2,0.3,0.3,0.9,0.3,1.6c0.1,0.7,0.2,1.4,0.2,1.6c0,0.3,0.3-1,0.3-2.2
		c0.1-0.9,0.2-1.3,0.5-1.3c0.1,0,0.1,0.2,0,0.3c-0.1,0.3,0,0.3,0.2,0.3c0.2,0,0.3,0.1,0.2,0.3c-0.1,0.3,0,0.4,0.1,0.6
		c0.1,0.1,0.3,0.5,0.3,0.8c0.1,0.5,0.1,0.5,0.3,0.3c0.4-0.4,0.3-2.5-0.3-3.4c-0.6-0.9-0.6-1.2-0.1-1.1c0.2,0.1,0.3,0,0.3-0.1
		c0-0.1-0.2-0.3-0.3-0.3c-0.4-0.2-0.5-1-0.2-1.5c0.2-0.3,0.3-0.3,0.8,0.3c0.7,0.7,1.6,0.8,2.4,0.2C-71.9,443.2-71.6,442.9-72.1,443z
		"/>
	<path d="M-125.7,379.4c0.4-0.3,1.2-0.9,1.8-1.2c1-0.7,1.2-0.9,0.9-1.3c-0.3-0.4-0.6-0.2-2.2,1.4
		C-126.8,380-126.9,380.4-125.7,379.4z"/>
	<path d="M-114,467.4c-0.4,0-0.6,0.8-0.3,1.1c0.3,0.3,0,0.6-0.4,0.6c-0.6,0-1.7-1.6-1.7-2.7c0-2-0.8-3-2.1-2.9
		c-1.3,0.1-1.4,0.3-1.5,1.8c-0.1,1.4-0.2,1.6-0.8,1.3c-0.2-0.1-0.5-0.1-0.9-0.2c-0.4,0-0.7-0.1-0.8-0.3c-0.2-0.3-0.2-1.6,0-1.8
		c0.2-0.2,0-0.6-0.3-0.9c-0.4-0.3-0.5,0.1-0.6,1.6l-0.1,1.4h-1c-1.3,0.1-1.7-0.3-1.8-1.9c-0.2-1.7-0.1-1.6-1.2-1.8
		c-0.4-0.1-0.7,0-0.9,0.2c-0.7,0.5-1.2,1.8-1.2,3.4c-0.1,2.2-0.9,2.2-1.3,0c-0.1-0.8-0.6-1.2-1.1-0.8c-0.3,0.3-0.2,0.5,0.2,0.4
		c0.3-0.1,0.3,0.1,0.3,0.9c0.1,1.3,0.3,1.8,0.8,1.9c0.2,0.1,0.4,0.1,0.5,0.2c0.8,0.3,1.6-1.4,1.6-3.2c0.1-1.6,0.2-1.9,0.7-1.9
		c0.5,0,0.7,0.8,0.6,2.2c-0.1,1.1,0,1.4,0.5,1.1c0.3-0.2,0.6,0.1,0.3,0.4c-0.2,0.4,0.1,0.5,0.5,0.3c0.3-0.2,0.3-0.2,0.4,0
		c0.1,0.2,0.2,0.2,0.4,0c0.3-0.1,0.3-0.1,0.5,0.1c0.1,0.2,0.3,0.3,0.5,0.3c0.3,0,0.6,0.3,0.6,0.5c0,0.1-0.3,0.2-0.6,0.3
		c-1,0.2-1,0.8-0.1,0.8c1.2,0,0.9,0.7-0.4,0.8c-0.9,0.1-1.3,0.3-1.3,0.6c0,0.3,0.4,0.5,0.7,0.3c0.3-0.2,1.6,0.1,1.6,0.3
		c0,0.2-0.2,0.3-1.4,0.3c-1.5,0.1-2.1,0.3-2.2,0.8c-0.1,0.3,0.3,0.5,0.7,0.3c0.2-0.1,0.8-0.2,1.5-0.2c1.5,0,1.6,0.1,1.5,1.2
		c-0.1,0.9,0.1,1.4,0.5,1.4c0.6,0,0.8-1,0.4-2c-0.2-0.5,0.3-0.7,1.9-0.7c1.4,0,1.6,0,1.7-0.3c0.3-0.4,0.2-0.5-1.7-0.6
		c-1.9-0.1-2.2-0.2-1.9-0.6c0.2-0.2,0.5-0.3,1.1-0.3c1.6,0,1.6-0.8,0-0.9c-1.2-0.1-1.6-0.6-0.6-0.8c0.9-0.2,0.9-0.9,0-0.9
		c-0.4,0-0.5,0-0.5-0.4c0-0.3,0.1-0.4,0.3-0.4c0.2,0,0.5-0.1,0.7-0.2c0.2-0.2,0.3-0.2,0.5-0.1c0.6,0.3,2.2,0,2.1-0.5
		c-0.1-0.3,0-0.3,0.3-0.5c0.3-0.1,0.3-0.2,0.3-0.3c-0.1-0.2-0.2-0.5-0.2-0.9c-0.1-1.3,1-0.3,1.3,1c0.4,2.5,2,4.1,3,3
		C-114,469.3-113.8,467.4-114,467.4z"/>
	<path d="M-99.7,386c-0.5,0.4-0.6,0.9-0.1,0.5c0.2-0.1,0.4-0.3,0.7-0.4c0.6-0.3,0.7-0.3,0.4-0.5C-99,385.5-99,385.5-99.7,386z"/>
	<path d="M-101.3,387.5c0.5-0.8,0.4-0.9-0.2-0.5c-0.2,0.2-0.3,0.3-0.3,0.6C-101.8,388.1-101.7,388.1-101.3,387.5z"/>
	<path d="M-100.8,389.2c0.1,0,1.1-1.3,1-1.3c0,0-0.3,0.2-0.6,0.5C-100.8,388.8-100.9,389.2-100.8,389.2z"/>
	<path d="M-122.7,373.1c0-0.2-1.2-2.3-1.5-2.6c-0.2-0.2-0.2-0.2-0.2,0c0,0.3,0.9,2.7,1.1,2.8C-123.1,373.5-122.7,373.2-122.7,373.1z
		"/>
	<path d="M-109.7,465.8c-1.5,0.2-1.8,0.1-1.8-0.3c0-0.2,0.3-0.2,1.4-0.2c1.3,0,1.9-0.2,1.7-0.3c-0.2-0.2-1-0.2-2.1-0.1
		c-0.6,0.1-1.6,0.1-2.2,0.1c-1.2,0-1.6,0.3-0.9,0.7c0.4,0.3,0.3,0.4-0.1,0.4c-0.3,0-0.6,0.2-0.8,0.3c-0.4,0.3-0.5,0.6-0.1,0.4
		c0.3-0.2,1.9-0.1,2.2,0.1c0.3,0.2,0.2,0.7-0.3,1.6c-0.4,0.9-0.3,1.2,0.2,1.3c0.3,0.1,0.3,0.1,0.3,0.7c0,0.3,0.2,0.5,0.4,0.8
		c0.3,0.3,0.4,0.5,0.3,0.8c-0.2,0.6,0.4,0.9,0.8,0.4c0.3-0.3,0.3-0.4,0.2-0.6c-0.1-0.1-0.2-0.4-0.1-0.9c0.1-0.4,0-0.8-0.1-1
		c-0.3-0.7,0.3-1.4,2.1-2.5C-106.7,466.3-107.2,465.5-109.7,465.8z M-110.6,466.9c-0.2-0.3-0.1-0.4,0.5-0.4c0.3,0,0.4,0.1,0.5,0.3
		C-109.4,467.2-110.3,467.4-110.6,466.9z"/>
	<path d="M-154.9,370.2c0.4-1,2.1-2.8,2.4-2.8c1.3,0,2.5,2.3,1.6,3.2c-0.3,0.3-1-0.4-1.3-1.1c-0.3-0.9-0.9-0.1-0.9,1.2
		c-0.1,0.8-0.2,1-0.4,1.3c-0.4,0.3-0.4,0.7-0.1,0.9c0.4,0.3,0.1,0.6-0.3,0.5c-1.1-0.3-0.7,1,0.4,1.4c0.4,0.2,0.9-0.3,0.6-0.7
		c-0.3-0.4-0.1-0.8,0.5-0.8c0.6-0.1,0.8-0.4,0.3-0.8c-0.3-0.3-0.3-0.6-0.1-0.9c0.2-0.1,0.3,0,0.8,0.5c0.8,0.9,1.6,0.9,1,0
		c-0.3-0.3-0.3-0.4,0.3-1.3c1.5-2.2-1.1-5.6-3-4c-0.9,0.8-2.2,2.9-2.1,3.5C-155.1,370.8-155.1,370.8-154.9,370.2z"/>
	<path d="M-124.6,376.8c-0.2-0.2-0.6-0.2-1.1,0.1c-0.3,0.1-0.7,0.3-0.9,0.5c-1.2,0.6-0.7,0.7,1,0.2
		C-124.7,377.3-124.4,377-124.6,376.8z"/>
	<path d="M-96.8,468.7c-0.2-0.4-0.5-0.6-0.8-0.4c-0.3,0.3-1.6,0.2-1.8-0.1c-0.3-0.3-0.1-0.6,0.7-0.9c0.4-0.2,1-0.5,1.4-0.7
		c0.9-0.4,1-1.1,0.3-0.9c-0.4,0.1-0.4,0.1-0.6-0.6c-0.3-0.7-0.6-1.2-0.6-0.9c0,0.1,0.2,0.5,0.3,0.9c0.3,0.9,0.2,1.2-0.3,0.7
		c-0.3-0.3-0.5-0.3-0.5,0c0,0.7-0.6,1.3-0.8,0.8c-0.2-0.4,0.2-1.3,0.4-1.3c0.3,0.1,0.4-0.2,0-0.4c-0.3-0.3-0.3-0.4-0.3-1.9v-1.6
		l0.4-0.1c0.6-0.1,0.9-0.5,0.4-0.9c-0.2-0.2-0.3-0.3-0.3-0.4c0-0.6-1.1-1.1-1.5-0.7c-0.1,0.2-0.3,0.4-0.3,0.6
		c-0.1,0.2-0.2,0.5-0.3,0.7c-0.3,0.4-0.2,0.7,0.3,0.8l0.4,0.1v1.3c0,3.2-0.3,3.6-1,2c-0.7-1.6-0.8-1.7-0.3-2
		c0.3-0.3,0.3-0.7-0.1-0.7c-1,0-2,1.3-0.9,1.3c0.4,0,0.5,0,1.2,1.5c1.1,2.4,1.1,2.4-0.9,3.1c-1.1,0.3-1.6-0.2-0.9-0.9
		c0.4-0.4,0.3-0.8-0.1-1c-0.4-0.3-0.7-0.1-0.9,0.6c-0.1,0.3-0.2,0.6-0.3,0.6c-0.1,0.1,0,0.3,0.2,0.4c0.2,0.2,0.4,0.5,0.6,0.7
		c0.2,0.2,0.4,0.4,0.6,0.5c0.3,0.1,0.3,0.3,0.3,0.5c0,0.6,0.2,0.7,1.2,0.6l0.9-0.1l0.2,0.5c0.3,0.6,0.5,0.7,0.5,0.2
		c0-0.8,0.7-1,1-0.3c0.3,0.4,0.5,0.6,0.4,0.2c-0.1-0.2-0.1-0.4-0.2-0.5c-0.2-0.6,1.3-0.9,1.6-0.3c0.1,0.2,0.3,0.3,0.3,0.3
		c0.1,0,0.1-0.1-0.1-0.3C-96.5,469.3-96.7,468.9-96.8,468.7z M-98.8,460.1c0.3,0.2,0.3,0.3,0.1,0.3c-0.3,0.2-0.5,0.1-0.5-0.3
		C-99.3,459.8-99.2,459.8-98.8,460.1z M-101.1,469.3c-1,0-0.9-0.5,0.3-1c0.7-0.3,1.2-0.2,1.2,0.4C-99.7,469-100.4,469.3-101.1,469.3
		z M-99.8,460.5c-0.3,0-0.4-0.4-0.2-0.6c0.2-0.2,0.3-0.1,0.3,0c0,0.1,0,0.3,0.1,0.3C-99.6,460.5-99.7,460.5-99.8,460.5z"/>
	<path d="M-124.5,382c0.2-0.2,0.4-0.5,0.5-0.9c0.1-0.3,0.3-0.9,0.7-1.4c0.5-0.9,0.7-1.6,0.3-1.6c-0.1,0-0.3,0-0.3,0.1
		c-0.1,0.1-0.8,1.8-1.3,3.4C-124.8,382.4-124.8,382.4-124.5,382z"/>
	<path d="M-98.5,384.5c0.1-0.3-0.1-0.2-0.6,0.1c-0.3,0.1-0.5,0.2-0.6,0.2c-0.3-0.1-0.9,0.3-0.9,0.5
		C-100.6,385.6-98.6,385-98.5,384.5z"/>
	<path d="M-118.9,374.7c0.1,0.3,0.8,0.3,1.6-0.2c0.4-0.3,0.9-0.4,1-0.4s0.3-0.1,0.3-0.2c0.3-0.3-0.1-0.3-1.4,0.1
		C-118.5,374.3-118.9,374.5-118.9,374.7z"/>
	<path d="M-120.1,375c0.2,0,2.2-2,2.8-2.8c0.4-0.5-0.1-0.4-0.9,0.3c-0.3,0.3-1,0.8-1.5,1C-120.6,374.1-120.9,375-120.1,375z"/>
	<path d="M-117.1,377.2c-0.4-0.2-0.9-0.3-0.9-0.4c-0.1-0.2-0.7-0.2-0.9,0c-0.1,0.2,0.2,0.5,0.5,0.5c0.2,0,0.4,0.1,0.7,0.2
		s0.8,0.3,1.1,0.3C-115.6,378-115.9,377.6-117.1,377.2z"/>
	<path d="M-120.3,373.4c0.2,0,0.4-0.6,0.9-1.8c0.7-1.8,0.9-2.7,0.3-1.6c-0.7,1.3-1.3,2.4-1.5,2.7
		C-120.8,373-120.7,373.4-120.3,373.4z"/>
	<path d="M-120.6,378.3c-0.3,0.3-0.1,0.7,0.6,1.8c1.1,1.8,1.3,1.6,0.4-0.5C-120.1,378.4-120.3,378-120.6,378.3z"/>
	<path d="M-121.5,374.2c0.3-0.2,0.3-0.3,0-2.8c-0.2-2-0.3-2.5-0.5-1.3c-0.1,0.9-0.3,3.1-0.3,3.6
		C-122.2,374.1-121.8,374.3-121.5,374.2z"/>
	<path d="M-122.3,377c0.5,0.2,0.5,0.3,0.3,0.5c-0.2,0.2-0.3,0.4-0.2,0.9c0.1,0.3,0.2,1.4,0.3,2.3c0.1,0.9,0.2,1.8,0.2,1.8
		c0.2,0.2,0.3-0.2,0.3-1.9c0.1-1,0.2-2.1,0.2-2.3c0.1-0.3,0-0.6-0.1-0.8c-0.2-0.2-0.2-0.3,0.1-0.3c1.7-0.9,0.8-3.3-0.9-2.5
		C-123.4,375.1-123.4,376.5-122.3,377z"/>
	<path d="M-160.3,421.3c-0.1,0.2,0.2,0.4,0.5,0.4c0.3,0,0.8-0.3,0.7-0.4C-159.3,421.1-160.3,421.1-160.3,421.3z"/>
	<path d="M-118.3,378.3c-1.5-1.6-1.8-1.7-2.2-1.4c-0.3,0.3-0.1,0.5,1.1,1.5C-116.4,380.5-116.2,380.5-118.3,378.3z"/>
	<path d="M-119.8,375.5c-0.5,0.3,0,0.6,1,0.6c3.3,0,4.2-0.2,3.4-0.4C-116,375.5-119.6,375.3-119.8,375.5z"/>
	<path d="M-123.4,375c0.1,0,0.5-0.4,0.5-0.5c0-0.3-0.3-0.6-0.8-0.9c-0.3-0.1-0.8-0.4-1-0.8c-1.5-1.2-2.3-1.6-1.6-0.8
		C-125.4,373-123.5,375-123.4,375z"/>
	<path d="M-178.4,426.2c0.5-0.8,0.7-0.9,1.3-0.3c0.5,0.4,0.6,0.4,1.3,0.3c1.3-0.2,1.3-0.8-0.1-0.8c-0.8,0-0.8-0.3,0-0.3
		c1.2-0.2,1.2-0.7,0-0.7c-0.8,0-0.9-0.3-0.2-0.3c0.4,0,0.4-0.1,0.4-0.6c-0.1-0.7,0.3-0.7,0.6-0.1c0.3,0.4,0.5,0.5,0.7,0.3
		c0.1-0.1,0.3-0.2,0.3-0.2c0.2,0,0.3-0.1,0.2-0.3c-0.1-0.2,0-0.3,0.2-0.3c0.2-0.1,0.3-0.2,0.3-0.4c0-0.4-0.4-0.9-0.5-0.6
		c-0.3,1-1,0.9-0.9-0.2c0-0.4,0-0.9-0.1-0.9c-0.2-0.3-0.6-0.1-0.6,0.3c0,0.5-0.2,0.8-0.4,0.7c-0.1-0.1-0.2-0.3-0.2-0.4
		c0-0.5-0.5-0.9-0.7-0.5c-0.1,0.2-0.1,0.4-0.1,0.5c0.3,0.8,0.3,1.2,0,1.5c-0.2,0.2-0.4,0.3-0.5,0.5c-0.2,0.2-0.3,0.2-0.4,0.1
		c-0.3-0.3-0.3-0.8,0.2-1c0.6-0.3,0.6-2.1,0-2.1c-0.1,0-0.1,0.3-0.1,0.7c0,1-0.4,1.4-1.2,0.8c-0.3-0.3-0.4-0.3-0.3-0.5
		c0.3-0.4,0.1-0.5-0.3-0.2c-0.3,0.3-0.5,0.3-0.7,0.3c-0.3-0.2-0.5,0.1-0.7,1l-0.1,0.7l0.5-0.5c0.5-0.5,0.9-0.4,0.9,0.2
		c0,0.4-0.6,1.6-0.9,1.6c-0.2,0.1-0.3,0.2-0.2,0.3c0.1,0.2,1.2-0.3,1.4-0.7c0.3-0.3,0.6-0.4,0.9-0.2c0.3,0.3,0.2,0.5-0.4,1.3
		c-0.4,0.4-0.6,0.8-0.6,1C-179.2,426.8-178.8,426.8-178.4,426.2z"/>
	<path d="M-178.9,417.1c0.1,0,0.1,0.2-0.1,0.5c-0.4,0.9-0.2,0.9,0.7,0.2c1-0.9,2.2-0.8,2.4,0.3c0.2,0.9,0.4,0.8,0.4-0.1
		s0.2-0.9,0.7-0.3c0.2,0.3,0.4,0.4,0.4,0.3s-0.2-0.3-0.3-0.5c-0.2-0.2-0.3-0.4-0.3-0.6c0-0.4-0.8-0.9-1.5-0.9c-1,0-1.4-1-0.4-1.2
		c0.6-0.1,0.6-0.3,0-0.4c-0.6-0.2-0.5-0.3,0.2-0.5c0.9-0.2,0.9-0.3-0.1-0.4c-0.5-0.1-0.3-0.3,0.3-0.3c0.2,0,0.4-0.1,0.4-0.1
		c0.1-0.2-0.3-0.3-0.8-0.3c-0.5,0-0.7-0.3-0.3-0.7c1.1-1.2-0.3-3.4-1.5-2.2c-0.4,0.4-0.3,1.2,0.2,2c0.3,0.5,0.4,0.7,0.3,0.9
		c-0.2,0.2-0.2,0.3,0,0.4c0.2,0.2,0.1,0.3-0.1,0.4c-0.2,0.3-0.2,0.3,0,0.4c0.2,0.2,0.2,0.3,0,0.5c-0.2,0.3-0.2,0.3,0.1,0.5
		c0.5,0.6,0.2,1.2-0.9,1.4C-179.6,416.5-179.6,416.8-178.9,417.1z M-178.1,411.4c-0.4-0.3-0.1-1.6,0.5-1.6c0.1,0,0.3,0.2,0.5,0.4
		C-176.5,411.1-177.4,412-178.1,411.4z"/>
	<path d="M-178.8,405.6c-0.2,0.7,0.3,0.9,2.4,0.9c2,0,2,0,1.8,0.7c-0.2,0.7,0,0.6,0.4-0.1c0.3-0.5,0.3-0.6,0.6-0.5
		c0.2,0.1,0.3,0.1,0.4,0.1s0.1,0.2,0,0.4l-0.1,0.4l0.5-0.5c0.4-0.4,0.6-0.5,1-0.5c0.3,0,0.6-0.1,0.8-0.3c0.3-0.3,0.3-0.4-0.3-0.7
		c-0.4-0.2-0.5-0.3-0.5-0.9c0-0.7-0.5-2-0.8-2.1c-0.1,0-0.2-0.2-0.2-0.3c0-0.3,0.5-0.3,0.9,0c0.2,0.1,0.3,0.2,0.4,0.2
		c0.3-0.1-0.8-1-1.3-1.1c-1-0.3-2.6-0.1-3.3,0.3c-0.9,0.5-1.5,1.1-1.7,1.7c-0.3,0.6-0.5,0.7-0.5,0.3c0-0.2-0.1-0.2-0.3-0.2
		s-0.3,0.2-0.3,0.4c0,0.2-0.1,0.4-0.1,0.5c-0.1,0.1-0.1,0.3,0.1,0.3C-178.8,405.1-178.7,405.4-178.8,405.6z M-176.3,405.5
		c-0.2,0.2-0.3-0.1-0.1-0.3c0.1-0.3,0.1-0.3,0.2,0C-176.2,405.3-176.2,405.4-176.3,405.5z M-174.8,405.8c-0.6,0-0.9-0.4-0.5-0.9
		c0.3-0.5,0.8-0.4,0.9,0.1C-174.2,405.6-174.3,405.8-174.8,405.8z M-173.4,405.3c-0.2,0.3-0.3,0.3-0.3-0.2c0-0.9-1.1-1.6-1.8-1
		c-0.4,0.3-0.5,0.2-0.1-0.3s0.9-0.4,1.5,0.1C-173.6,404.1-173.2,404.9-173.4,405.3z M-173.7,402.6c1,0.4,2,2.7,1.3,3.1
		c-0.3,0.2-0.4-0.2-0.4-0.9c0-2.7-3.9-2.7-4.3,0c-0.1,0.8-0.3,0.8-0.3,0C-177.5,403.1-175.3,401.8-173.7,402.6z"/>
	<path d="M-93.2,437.4c-0.2,0.2-0.3,0.2-0.4-0.1c-0.1-0.1-0.3-0.6-0.5-1c-0.3-0.4-0.4-0.9-0.4-1.1c0-0.2-0.1-0.3-0.3-0.3
		c-0.3-0.1-1.8-1.9-1.8-2.2c0-0.1,0.1-0.5,0.3-0.8c0.2-0.3,0.3-0.7,0.3-0.9c0-0.2,0.1-0.4,0.2-0.5c0.1-0.1,0.2-0.4,0.3-0.9
		c0.2-0.8,0.5-1.2,1.3-1.6c1.4-0.7,1.4-0.9,0.1-0.5c-0.5,0.2-0.9,0.3-0.9,0.3c-0.1,0-0.3-0.4-0.5-1c-0.4-1.1-0.4-1.2,0.3-1.5
		c0.6-0.2,0.7-0.5,0.2-0.4c-0.3,0.1-0.5,0.2-0.6,0.3c-0.3,0.3-0.3,0.3-1.1-0.5c-0.9-0.9-1.7-1.3-2.4-1.3c-0.7,0.1-0.7,0.3,0.1,0.6
		c0.6,0.3,1.9,1.6,1.7,1.6c-0.2,0.2-1.4,0.7-1.5,0.7c-0.1,0-0.3,0.2-0.7,0.3c-0.9,0.5-1.2,0.1-1.2-2.3c0-0.6,0.7-2.6,1.2-3.4
		c0.6-0.9,0.3-0.9-0.4-0.1c-0.3,0.4-0.8,1.1-0.9,1.4c-0.9,1.6-0.9,1.5-0.9,3.5c0,1.8,0,2-0.3,2.1c-0.2,0-0.3,0.2-0.3,0.2
		c0,0.1,0.1,0.1,0.3,0c0.3-0.1,0.3-0.1,0.5,0.2c0.6,0.9,0.3,1.3-0.9,1.9c-1.1,0.4-0.4,0.8,0.7,0.3c0.9-0.3,0.9-0.4,1.8,0.9
		c0.4,0.7,1,1.3,1.3,1.5c0.6,0.3,0.6,0.5,0.2,1c-0.7,0.9-1.1,4.2-0.8,6.3c0.1,0.4,0,0.6-0.3,0.9l-0.3,0.3l0.4-0.1
		c0.5-0.1,0.7,0.1,1.3,1.3c0.4,0.9,0.6,0.8,0.5-0.2c-0.1-0.4-0.2-0.9-0.3-1c-0.2-0.3,0.3-0.7,1.1-1.2c0.3-0.1,0.6-0.4,0.9-0.7
		c0.7-0.7,1.4-0.8,1.5-0.3c0.2,0.6,0,4.9-0.3,5.5c-0.2,0.5-0.2,0.6,0,0.7c0.2,0.1,0.2,0.2,0,0.6c-0.1,0.3-0.2,0.6-0.2,0.7
		s-0.2,0.5-0.4,0.9c-0.4,0.8-0.4,0.9,0,0.7c1.1-0.6,2-3.8,2-7.7c0-2.8,0-2.9,0.3-3.3l0.3-0.3h-0.1
		C-92.9,437.2-93.1,437.3-93.2,437.4z M-99.8,428.7l-0.3-0.6c-0.4-0.8-0.3-0.9,0.9-1.3c0.6-0.2,1.3-0.5,1.5-0.6
		c0.4-0.3,0.6-0.3,0.9,0.5c0.3,0.7,0.2,1.3-0.4,1.3c-0.2,0-0.5,0.1-0.8,0.3c-0.3,0.2-0.8,0.3-1.1,0.3L-99.8,428.7z M-98.7,430.5
		c0-0.1-0.1-0.2-0.2-0.3c-0.3-0.3,0-0.7,0.4-0.8c0.2-0.1,0.5-0.2,0.7-0.3c0.5-0.4,1-0.3,1.1,0.3c0.1,0.6-0.7,2.3-1,2.4
		C-98,431.7-98.7,430.8-98.7,430.5z M-98.5,437.3c-0.3-0.3,0.8-3.4,1.1-3.4c0.1,0,0.3,0.2,0.5,0.3c0.9,0.9,1,1.4,0.2,1.7
		c-0.3,0.1-0.8,0.5-1.1,0.8C-98.2,437.1-98.5,437.4-98.5,437.3z M-95.4,438.4c-0.3,0.3-0.7,0.6-0.8,0.6s-0.4,0.3-0.9,0.6
		c-0.8,0.6-1,0.6-1.1-0.2c-0.3-1.3-0.3-1.4,0.9-2.2c0.6-0.4,1.2-0.9,1.3-0.9c0.1-0.1,0.3-0.3,0.3-0.3s0.3,0.4,0.4,0.9l0.4,0.9
		L-95.4,438.4z"/>
	<path d="M-171.6,433.9c0.1,0,0-0.3-0.2-0.8c-0.6-1.5-0.4-1.9,0.3-1c0.6,0.6,0.7,0.6,0.5-0.3c-0.1-0.5-0.2-0.7-0.6-0.9
		c-0.3-0.2-0.6-0.5-0.7-0.8l-0.3-0.4l-0.1,0.5c-0.1,0.6-0.3,0.8-0.9,0.5c-0.7-0.3-0.7-1.1-0.1-1.1c0.8,0,0.9-1.1,0.3-1.4
		c-0.3-0.1-0.5-0.3-0.6-0.3c-0.1,0-0.2,0.1-0.3,0.3c-0.1,0.3-0.3,0.3-0.6,0.3c-0.3,0-0.6,0.2-0.8,0.3c-0.3,0.2-0.5,0.3-0.6,0.2
		c-0.3-0.1-0.3-0.6-0.1-0.7c0.2-0.1,0.4-0.6,0.3-0.6c-0.1,0-0.3,0.2-0.6,0.3c-0.3,0.2-0.5,0.4-0.5,0.6c0,0.2-0.3,0.4-0.6,0.7
		c-0.9,0.5-1.1,0.9-1.1,1.2c0,0.3,0,0.3,0.3-0.1c0.5-0.6,1.7-0.1,1.4,0.6c-0.1,0.1-0.2,0.4-0.3,0.6c-0.1,0.3-0.3,0.4-0.6,0.4
		c-0.6,0.1-0.8,0.7-0.4,1.3c0.1,0.3,0.3,0.6,0.3,0.8c0,0.5,0.3,1,0.4,1c0.2,0,0.1-1.3-0.1-2.3c-0.1-0.3,0-0.4,0.2-0.3
		c0.4,0.1,1-0.2,1-0.3c0-0.8,1.3,0,1.6,0.9c0.1,0.4,0.3,0.5,0.6,0.7c0.7,0.3,0.9,0,0.9-1.2c0-0.6,0-1,0.1-1c0.2,0,0.6,0.3,0.6,0.4
		C-172.8,432.4-171.8,433.9-171.6,433.9z M-174.6,432.8c-0.3-0.6-0.3-1,0.1-1c0.3,0,0.3,0.1,0.3,0.6
		C-174.1,433.4-174.2,433.5-174.6,432.8z M-174,431.1c-0.5,0.3-1.1,0.3-1.7,0c-0.7-0.3-0.7-0.7-0.1-0.9c0.6-0.3,0.9-0.3,0.9,0
		c0,0.2,0.1,0.2,0.4,0.2c0.3-0.1,0.4,0,0.7,0.3l0.3,0.3L-174,431.1z"/>
	<path d="M-177.8,403.2c0.2-0.2,0.3-0.4,0.3-0.6c0-0.2,0-0.3,0.2-0.4c0.1-0.1,0.2-0.2,0.1-0.3s0-0.3,0.2-0.3
		c0.2-0.1,0.3-0.2,0.3-0.4c-0.1-0.4-0.3-0.5-0.7-0.1C-178.3,401.9-178.4,403.8-177.8,403.2z"/>
	<path d="M-170.7,386.1c0.1,0,0.3,0.2,0.6,0.4c0.4,0.3,0.6,0.4,1.1,0.3c0.3-0.1,0.7-0.1,0.7-0.1c0.1,0,0.1,0.2,0.1,0.4
		c0,0.3,0.1,0.4,0.2,0.4c0.2,0,0.2,0.2,0.2,0.4c0,0.3,0.1,0.4,0.2,0.5c0.2,0.1,0.5-0.4,0.3-0.6c0-0.1,0-0.3,0.1-0.4l0.1-0.3l0.6,0.3
		c0.3,0.2,0.6,0.3,0.6,0.4c0,0.3,0.3,0.2,0.9-0.3c0.8-0.6,0.8-0.8,0.1-0.8c-0.5,0-1-0.2-1.2-0.5c-0.1-0.2-0.3-0.2-0.6-0.1
		c-0.3,0.1-0.5,0-0.6-0.2c-0.1-0.3,0.7-1,1-1c0.2,0,0.3-0.2,0.4-0.3s0.3-0.4,0.6-0.5c0.5-0.3,0.7-0.7,0.3-0.7
		c-0.3,0-1.8,0.8-2.2,1.1c-0.3,0.3-0.5-0.4-0.4-1c0.1-0.3,0-0.7-0.1-0.8c-0.3-0.3-0.5,0.1-0.5,0.7c0,1-0.6,1.4-1.2,0.8
		c-0.2-0.2-0.5-0.4-0.8-0.6c-0.3-0.2-0.4-0.4-0.4-0.7c-0.2-0.9-0.6-1.1-1-0.6c-0.3,0.4-0.3,0.4,0,1.3c0.3,0.6,0.3,0.6,0.7,0.6
		c0.3,0,0.6,0.2,0.9,0.4c0.9,0.8,0.5,1.2-0.7,0.6c-0.8-0.3-1.1-0.3-1.3,0C-172.1,385.3-171,386.1-170.7,386.1z M-168.8,385.1
		c0.3-0.4,0.5-0.3,0.5,0.3c0,0.5-0.2,0.8-0.5,0.8C-169,386.2-169,385.5-168.8,385.1z"/>
	<path d="M-162.4,376.2c0.3,0.4,0.9,1.1,1.3,1.6l0.8,0.8l0.8-1c1.1-1.5,1.6-1.8,1.2-0.9c-0.2,0.5-0.1,2.2,0.2,2.4
		c0.3,0.3,0.6-0.2,0.4-1c-0.2-1.2,0-1.3,0.9-0.3c1.3,1.3,1.9,0.6,0.7-0.8c-0.6-0.7-0.7-1-0.2-1c0.2,0,0.3,0.1,0.5,0.3
		c0.6,0.7,1.1,0.1,0.5-0.7c-0.3-0.5-0.4-0.5-1.2-0.4l-0.9,0.1l0.4-0.7c0.3-0.4,0.6-0.9,0.9-1.1c0.5-0.5,0.6-0.4-0.4-1.7
		c-1.5-1.8-1.9-2.2-2.3-1.7c-0.3,0.3-0.2,0.3,0.3,0.7c0.4,0.3,1.8,2.1,1.8,2.3c0,0.3-1.3,1.8-1.5,1.6c-0.1-0.1-0.1-0.3,0.2-0.4
		c0.9-1,0.6-1.9-0.3-0.9c-0.5,0.6-0.7,0.3-0.5-0.6c0.5-2.4-2.2-2.7-3.4-0.3c-0.7,1.2,0.9,2.8,2.2,2.2c0.5-0.3,0.6,0.1,0.2,0.8
		c-0.7,1-0.3,1.5,0.5,0.6s0.7-0.1-0.2,0.9c-0.5,0.5-0.5,0.5-2-0.9c-0.7-0.8-1.4-1.3-1.5-1.3c-0.2,0.1-0.2,0.9,0,0.9
		C-163,375.5-162.7,375.9-162.4,376.2z M-161.3,373.6c-0.3-0.2-0.3-0.5-0.2-0.9c0.1-0.3,1,0.5,1,0.9
		C-160.4,373.7-160.9,373.7-161.3,373.6z M-159.6,372.6c-0.1,0.1-1-0.8-1-1c0-0.3,0.5-0.4,0.9,0
		C-159.4,371.8-159.3,372.5-159.6,372.6z"/>
	<path d="M-166.8,381.2c0.8-0.3,1.5-0.3,1.8-0.1c0.2,0.1,0.4,0.2,0.6,0.2c0.4,0,0.5,0.2,0.3,0.6c-0.2,0.3-0.1,0.3,0.4,0.7
		c0.6,0.4,0.6,0.4,0.4,0.9c-0.2,0.4,0,0.8,0.4,0.5c0.2-0.1,0.3-0.1,0.5-0.1c0.3,0,0.4-0.5,0.2-1.3c-0.1-0.3-0.2-0.9-0.1-1.3
		c0.1-0.8,0.3-0.9,0.3-0.3c0.1,0.4,0.4,0.6,0.4,0.3c0-0.2,0.1-0.3,0.3-0.2c0.3,0.1,0.3,0,0.3-0.3c0-0.3,0.2-0.4,0.9-0.1
		c0.5,0.2-0.3-0.5-1.4-1.3c-0.5-0.3-1.4-1-1.9-1.5c-0.8-0.7-1.2-0.9-1.2-0.6c0,0.2,0.8,1.2,1.4,1.8c0.7,0.7,0.7,0.6,0.2,1.3
		c-0.3,0.5-0.4,0.5-0.6,0.3c-0.2-0.2-0.2-0.3,0.1-0.6c0.3-0.3,0.3-0.4,0.2-0.6c-0.3-0.6-0.9-0.4-0.9,0.3c0,0.7-0.3,0.8-0.8,0.2
		l-0.4-0.4l-0.7,0.3c-0.9,0.4-0.9,0.4-0.8-0.1c0.2-0.7-0.2-0.5-0.6,0.3C-167.6,381.3-167.6,381.5-166.8,381.2z"/>
	<path d="M-175,396.1c-0.3,0.3-0.2,1.1,0.3,1.1c0.1,0,0.9-0.9,1.3-1.6c0.1-0.1,0.5-0.2,0.9-0.3c1.1-0.1,2.8-0.6,2.8-0.9
		c0-0.2-0.2-0.2-1.4-0.1c-1.6,0.1-1.6,0.1-0.9-0.9c0.6-0.8,0.9-0.9,1.4-0.9s1.3-0.2,1.5-0.4c0.2-0.3-0.1-0.6-0.5-0.5
		c-1.2,0.3-1.3,0.2-0.5-1c0.8-1.2,0.5-1.7-0.3-0.7c-0.3,0.3-0.5,0.6-0.6,0.8c-0.3,0.5-0.7,0.2-0.4-0.3c0.3-0.7-0.3-1-0.6-0.4
		c-0.2,0.3-0.2,0.4,0,1.2l0.3,0.9l-0.4,0.5c-0.3,0.3-0.5,0.5-0.6,0.5c-0.2,0-0.4-1.1-0.3-1.2c0.2-0.2-0.2-0.4-0.5-0.4
		c-0.5,0-0.5,0.4-0.2,1.5c0.6,1.6,0.1,2.2-0.5,0.7c-0.4-1-0.5-1.2-0.9-1.2c-0.4,0-0.4,0.4,0.1,1.7
		C-174.6,395.4-174.6,395.7-175,396.1z"/>
	<path d="M-98.3,409.4c0.8-1.2,2-0.5,2,1.1c0,0.5,0.1,0.8,0.2,0.7c0.6-0.2,0.7-2.1,0.1-2.8c-0.4-0.6-0.4-0.9,0.3-1.5
		c0.3-0.3,0.5-0.6,0.5-0.6c-0.2-0.2-1.1,0.4-1.6,0.8c-0.3,0.3-0.6,0.5-0.9,0.6c-0.4,0.2-1.6,1.2-2.9,2.5c-0.9,0.9-1.2,1-1.5,0.4
		l-0.2-0.3l-0.1,0.3c-0.1,0.3-0.1,0.3-0.9,0.3s-0.9,0-1-0.3c-0.6-1.1-2-2-4-2.5c-1-0.3-2-0.6-2.1-0.7c-0.2-0.2-0.4-0.2-0.8-0.1
		c-0.5,0.1-2.7-0.5-2.8-0.8c0-0.1-0.3-0.2-0.7-0.3c-1.2-0.3-2.2-1.3-2-1.9c0.1-0.2,0-0.3-0.2-0.3c-0.1-0.1-0.3-0.3-0.3-0.4
		c0-0.2-0.1-0.3-0.3-0.4c-0.8-0.3-0.2-2.1,0.9-2.6c0.6-0.3,2.6-0.8,3.1-0.8c0.4,0,0.5-0.1,0.6-0.3c0.1-0.4,1.5-1.6,1.6-1.4
		c0.1,0.1,0.2,0.3,0.2,0.4c0,0.2,0.1,0.3,0.2,0.3c0.3,0,0.3,0.1,0.3-1.6c0-0.8,0.1-1.6,0.2-1.9c0.2-0.4,0.2-0.6,0-0.9
		c-0.1-0.3-0.4-1-0.7-1.8c-0.6-1.6-1.4-2.6-2.8-3.6c-1.5-1-1.9-2.2-1.3-3.5c0.3-0.5,0.3-0.8-0.3-1.4l-0.3-0.4l0.1,0.9
		c0.1,0.7,0,0.9-0.3,1.6c-0.6,1.5-0.3,2.8,1.1,3.7c2.8,2,3.9,4.8,2.6,6.7c-0.3,0.5-1.8,1.6-2.3,1.7c-0.3,0.1-0.7,0.3-0.9,0.4
		c-0.3,0.2-0.9,0.4-1.4,0.5c-0.9,0.2-0.9,0.2-1.6,1c-0.3,0.4-0.7,0.9-0.7,0.9c-1.3,0.2-1.7,0.2-2.4,0.1c-0.5-0.1-0.7,0-1.2,0.3
		c-0.7,0.4-0.5,0.4-1.3-0.3c-0.4-0.4-1-0.8-2.2-1.3c-2.2-0.9-3.3-2.1-3.3-3.2c0-1,0.7-2.8,1.5-3.8c0.8-1,1-1.7,0.8-2.2
		c-0.1-0.2-0.1-0.4-0.1-0.7c0-0.5-0.3-0.9-1-1.7c-0.7-0.8-0.9-1.6-0.4-2.3c0.4-0.6,0.3-0.7-0.3-0.1c-1.1,1.1-1.1,2.1,0.1,3.4
		c0.9,1,1,1.6,0.7,2.1c-1.2,1.5-1.6,2-1.8,2.7c-0.2,0.4-0.3,0.9-0.3,1c0,0.1-0.1,0.3-0.2,0.6c-0.5,0.7-0.5,1.7-0.1,2.1
		c0.3,0.3,0.3,0.3,0.2,0.8c-0.3,0.6,0,1.2,0.3,1.1c0.5-0.2,1.7,0.9,1.3,1.1c-0.3,0.2-0.1,0.3,0.3,0.3c0.9-0.2,3.2,0.8,3.2,1.3
		s-0.9,1.3-1.3,1.2c-0.3-0.1-0.4-0.1-0.3,0.2c0.2,0.3,0.1,0.3-0.2,0.6c-0.3,0.2-0.3,0.3-0.2,0.4c0.5,0.5-0.3,0.9-1.4,0.9
		c-0.7-0.1-0.9,0-1.6,0.4c-0.4,0.3-1,0.6-1.3,0.7c-0.3,0.1-0.6,0.3-0.8,0.5s-0.4,0.4-0.6,0.4c-0.2,0.1-0.3,0.3-0.4,0.8
		c-0.2,0.4-0.3,0.8-0.9,1.3c-0.4,0.3-1,1-1.4,1.6c-1.1,1.6-1.6,2.1-2.8,2.2c-0.7,0.1-1.9-0.3-2.4-0.8c-0.2-0.2-0.3-0.3-0.4-0.3
		c-0.1,0-0.3-0.3-0.6-0.5c-0.3-0.4-0.4-0.5-0.6-0.3c-0.2,0.3-0.3,0.3-0.9-0.2c-1.2-0.6-1.9-0.6-2.6-0.2c-0.6,0.4-0.9,0.4-1.3,0.2
		c-0.5-0.4-2-0.2-2.5,0.4c-0.2,0.3-0.2,0.3,0.2,0.2c1.5-0.4,2.2-0.1,1.1,0.5c-0.7,0.4-1.7,1.6-1.7,2.1c0,0.3,0.1,0.3,0.7-0.3
		c0.4-0.4,0.8-0.7,0.9-0.7c0.1,0,0.3-0.1,0.6-0.2c2.8-1.2,3-1.3,3.7-0.9c0.2,0.1,0.7,0.3,1.2,0.6c0.5,0.2,1.2,0.6,1.6,0.9
		c0.3,0.3,0.9,0.6,1.3,0.7c0.3,0.1,0.7,0.3,0.9,0.3c1.2,0.6,4.1-0.3,4.1-1.5c0-0.3,1.1-1.4,1.5-1.4c0.3,0,0.3-0.1,0.3-0.4
		c0-0.3,0.1-0.6,0.3-0.8c0.2-0.2,0.5-0.6,0.8-0.9c0.9-1.3,2.8-2.3,4.1-2.3c1.3-0.1,1.4,0,0.6,0.7c-0.9,0.9-1.8,2.7-2.8,5.3
		c-1.8,4.8-2,9-0.5,12c1.2,2.3,0.9,6.5-0.6,8c-0.3,0.3-0.6,0.7-0.6,0.8c0,0.6-2.2,2.1-3,2c-0.5,0-0.5,0-0.3,0.3
		c0.5,0.7,2.5,0,3.4-1.2c0.2-0.3,0.8-0.9,1.2-1.5s1-1.3,1.4-1.8c0.6-1,0.8-0.9,0.7,0.3c-0.1,0.9,0.1,0.9,0.6-0.3
		c0.3-0.9,0.3-1.8-0.3-3c-0.5-1.1-0.4-2.2,0.1-2.2c0.5,0,0.3-0.4-0.4-0.9c-0.9-0.6-1.1-1.3-1.3-3.6c-0.1-0.9-0.2-1.7-0.3-1.9
		c-0.1-0.3-0.1-0.3,0.1-0.7c0.2-0.3,0.2-0.4,0.1-0.7c-0.1-0.3-0.1-0.5,0.1-1c0.1-0.3,0.3-0.8,0.3-0.9c0-0.2,0.2-0.6,0.3-1
		c0.2-0.3,0.5-1,0.6-1.6c0.3-0.8,0.5-1.4,1.6-3.7c0.6-1.4,1.1-0.7,0.9,1c-0.1,0.8-0.1,0.9,0.2,1.3c0.3,0.3,0.3,0.6,0.3,0.9
		c-0.1,0.3,0,0.5,0.2,0.6c0.1,0.1,0.2,0.3,0.2,0.6s0.1,0.5,0.2,0.7s0.1,0.3-0.1,0.3c-0.3,0-0.3,0.3,0.3,0.7c0.6,0.4,0.7,1.1,0.3,1.3
		c-0.2,0.1-0.3,0.2-0.2,0.3c0.1,0.3,0,0.3-0.3,0.3c-0.5,0-0.6,0.3-0.1,0.5c0.9,0.3,1.5,0.9,0.6,0.9c-0.3,0-0.4,0-0.4,0.1
		s0.2,0.3,0.4,0.5c0.5,0.3,0.5,0.6,0.1,0.5c-0.2,0-0.3,0-0.3,0c0,0.2,0.3,0.4,0.5,0.4c0.7,0,1,0.7,0.9,1.6c-0.1,0.9,0.1,1.4,0.3,1
		c0.3-0.6,0.9,0.6,0.7,1.7c-0.1,0.5-0.1,0.6,0.3,0.9c0.4,0.3,0.5,2.4,0.2,3c-0.3,0.3-0.3,2.7-0.1,3.6c0.7,3.4,0.7,3.3-0.1,5.3
		l-0.5,1.4v2.4c0,2.8,0.3,4.1,1,5.6c0.8,1.6,1,4.1,0.5,6.5c-0.4,2.2-0.3,3.5,0.3,1.9c1-3.6,1-8.1,0-10.1c-0.7-1.4-0.7-2.3,0-4.1
		c0.1-0.3,0.3-0.8,0.3-1.2c0.1-0.3,0.3-1.3,0.6-1.9c0.3-1.1,0.4-1.4,0.4-3.1c0-1.9-0.1-2.2-0.5-3.7c-0.3-0.7-0.3-0.9-0.1-1.2
		c0.4-0.9,0.7-2.2,0.8-4.1c0.1-3,0.3-3.8,1.2-3.5c0.3,0.1,0.4-0.3,0.1-0.7c-0.3-0.4-0.3-0.9,0.2-1.3c0.4-0.5,0.4-0.7,0.2-0.7
		c-0.3,0-0.3,0,0.2-0.7c0.4-0.6,0.4-0.8,0.1-0.8s-0.3-0.2,0-0.9c0.1-0.2,0-0.3-0.2-0.2c-0.4,0.1-0.4-0.2,0-0.6
		c0.7-0.7,0.6-0.9-0.2-0.5c-0.4,0.2-0.3-0.3,0.3-0.9c0.5-0.4,0.5-0.6,0.4-0.8c-0.2-0.2-0.1-0.3,0.1-0.7c0.1-0.3,0.2-0.6,0.2-0.8
		s0.1-0.4,0.2-0.8c0.3-0.4,0.3-0.5,0.1-0.7c-0.2-0.2-0.2-0.3,0-0.7c0.3-0.4,0.3-0.5,0.1-0.7c-0.3-0.3,0.2-0.9,0.6-0.9
		c0.6,0,2.8,4.9,3.1,6.8c0.1,0.6,0.3,1.2,0.3,1.3c0.1,0.2,0.3,1.6,0.6,3.6c0.1,0.7,0.1,0.8-0.5,1.4c-0.3,0.3-0.8,0.9-0.9,1.4
		c-0.3,0.4-0.4,0.9-0.6,0.9c-0.3,0.4-0.9,3-0.6,3.2c0.1,0.1,0.2,0.3,0.2,0.5c0,0.8,0.3,1.1,0.5,0.6c0.1-0.4,0.3-0.3,0.8,0.8
		c1.2,2.5,3.6,4.6,4.4,3.7c0.1-0.2,0-0.3-0.4-0.3c-1-0.3-2.6-2.1-3.4-3.9s0.2-5,1.3-4.1c0.5,0.5,0.5-0.1-0.1-0.9
		c-0.2-0.2-0.1-0.4,0.5-1.5c0.8-1.5,0.9-2.8,0.4-4.5c-0.1-0.4-0.3-1.5-0.4-2.2c-0.3-2.1-0.9-3.3-2.8-6.5c-1-1.8-0.8-2.2,1.2-1.4
		c1,0.4,2.2,0.6,4.7,0.8c1.2,0.1,1.4,0.3,2.8,1.7l1.1,1.2h0.9C-102.1,413.1-99.5,411.3-98.3,409.4z M-119.4,408.1
		c-0.2,0.3-0.3,0.6-0.3,0.8c0,0.2-0.1,0.7-0.3,1.1c-0.1,0.4-0.3,1-0.3,1.3c-0.1,0.3-0.3,0.8-0.4,1c-0.2,0.3-0.3,0.7-0.3,0.9
		c0,0.3-0.3,0.4-0.3,0.2c-0.1-0.1,0-0.5,0.1-0.9c0.1-0.5,0.1-0.8,0-0.9c-0.1-0.2-0.1-0.3,0-0.4c0.2-0.2,0.2-0.3,0-0.5
		c-0.1-0.2-0.1-0.4,0-0.9c0.2-0.8,0-1-0.5-0.5c-0.3,0.4-0.5,1.4-0.5,2.8c0,0.9-0.3,2.5-0.5,2.2c-0.1-0.2-0.2-0.4-0.3-0.5
		c-0.1-0.2-0.2-0.3-0.2-0.5c0-0.2-0.1-0.3-0.2-0.3c-0.1-0.1-0.1-0.3-0.1-0.6c0.1-0.5,0.1-0.5-0.2-0.5c-0.3,0-0.4-1.6-0.1-2.3
		c0.3-0.5,0.3-0.5-0.1-0.9c-0.4-0.5-0.2-1.6,0.3-1.6c0.3,0,0.4-0.3,0.4-1.2c0-0.3,0-0.8,0.1-0.9c0.2-0.2,0.5-0.3,0.5,0
		c0,0.1,0.3,0.2,0.6,0.2c0.7,0,1.3,0.2,1.6,0.5c0.1,0.1,0.3,0.2,0.4,0.2c0.3,0,0.3,0.4,0,0.8c-0.3,0.4-0.1,0.9,0.3,0.9
		C-118.9,407-118.9,407.4-119.4,408.1z"/>
	<path d="M-144.6,459.8c-0.7,0.4-0.9,0.3-1.5-0.7c-0.7-1.2-1.6-2.2-2.3-2.6c-0.6-0.3-0.7-0.4-0.3-0.7c0.7-0.5,0-0.5-1.1,0
		c-0.4,0.3-0.9,0.4-1,0.3c-0.6-0.2-2.1,1.2-2.5,2.2l-0.2,0.5h-1c-1.8,0-2.5,0.7-2.1,2.2c0,0,0.2-0.2,0.3-0.5c0.6-1.4,2.4-1.3,2,0.1
		c-0.8,2.7-0.3,5.2,1.1,6.5c0.7,0.6,0.9,0.7,2.2,1l0.6,0.2l-0.1,0.9c-0.1,1.3,0.1,1.3,0.4,0.1c0.3-0.9,0.3-1,1.4-1.1
		c2.2-0.3,4.5-4,3.9-6.1c-0.3-1.1,0.3-2.4,1.1-2.4c0.2,0,0.3-0.1,0.3-0.2C-143.5,459.3-144,459.4-144.6,459.8z M-152.5,458.5
		c0.8-1.6,2.2-1.9,3.7-0.8c1.3,0.9,2.3,2.6,1.8,3c-0.5,0.3-1.7,0.2-2.2-0.3c-0.5-0.5-0.8-0.5-1.6,0c-0.8,0.5-0.9,0.5-1.6-0.2
		C-152.9,459.3-152.9,459.3-152.5,458.5z M-150.8,466.8c-0.9,0.9-3.4-1.8-3.4-3.5c0-1.3,0.5-2.8,1-2.8c0.1,0,0.5,0.3,0.9,0.9
		c1.4,1.5,1.8,3.2,0.9,3.5c-0.5,0.2-0.5,0.4-0.1,0.4C-150.8,465.4-150.3,466.4-150.8,466.8z M-150.9,461.6c-0.1-0.6,0.5-0.9,0.9-0.5
		c0.3,0.3,0.2,0.6-0.1,0.9C-150.3,462.2-150.8,462-150.9,461.6z M-147.8,466.4c-1.6,1.3-2.4,1.2-2.2-0.2c0.1-1,0.2-1.1,1-1.4
		c0.7-0.3,1-1,0.5-1.2c-0.1,0-0.2,0.1-0.1,0.2c0.2,0.7-0.9,0.8-1.2,0.1c-0.5-1.2,0.7-2.1,3.2-2.4c0.1,0,0.3,0.1,0.3,0.3
		C-145.7,462.9-146.5,465.3-147.8,466.4z"/>
	<path d="M-125.9,376.1l2.2,0.1v-0.3c0-0.4-0.6-0.4-3.1-0.3c-1.3,0.1-1.7,0.3-1.6,0.4C-128.2,376-127.1,376.1-125.9,376.1z"/>
	<path d="M-127.3,374c0.2,0.1,0.8,0.3,1.3,0.6c0.9,0.4,1.6,0.5,1.6,0.1c0-0.2-0.3-0.3-0.9-0.5c-1.5-0.4-2.2-0.6-2.2-0.4
		C-127.8,373.7-127.6,373.9-127.3,374z"/>
	<path d="M-155.4,420.1h-0.5c-0.3,0-0.5,0.1-0.6,0.2c-0.3,0.4,0.3,0.5,0.8,0.2L-155.4,420.1z"/>
	<path d="M-148.5,423.4c-0.2,0.1-0.7,0.2-1.1,0.2c-0.8,0.1-0.9,0.2-1.6,0.9c-1,0.9-1.9,1.3-2.7,0.9c-0.6-0.3-2.3-0.3-2.3,0
		c0,0.1,0.3,0.3,0.8,0.6c1.2,0.7,1.5,1,1.6,2.2c0.1,1.3,0,1.4-1.1,1.1c-0.6-0.2-0.9-0.2-1,0c-0.2,0.2,0.1,0.6,0.5,0.6
		c0.2,0,0.6,0.2,0.9,0.3l0.6,0.3v3.4l-0.6,0.1c-1,0.1-0.8,0.4,0.3,0.6c0.3,0.1,0.3,0.9,0.6,8.3c0.1,2.1,0.2,3.6,0.3,3.5
		c0.6-0.4,0.9-2.7,0.9-7c0-4,0-4.1,1.1-4c0.9,0.1,0.9-0.1,0-0.7c-0.8-0.5-0.8-0.5-0.9-1.9c-0.2-2,0.6-2.2,2.5-0.9
		c0.6,0.4,0.7,0.3,0.2-0.4c-0.4-0.6-1.1-1-2-1.2c-0.7-0.2-0.8-0.3-0.8-1.8v-1.3h0.4c0.3,0,0.7-0.1,1.4-0.4c0.2-0.1,0.3-0.1,0.4-0.1
		c0.3,0.2,0.7-0.1,0.8-0.4c0.1-0.3,0.2-0.3,0.3-0.3c0.2,0,0.4,0,0.7-0.1c0.3-0.1,0.4-0.2,0.6-0.1c0.1,0.1,0.3,0.2,0.6,0.2
		c0.2,0,0.4,0.1,0.5,0.2c0.1,0.1,0.3,0.2,0.4,0.2c0.2,0,0.3,0.1,0.4,0.3c0.1,0.2,0.3,0.3,0.6,0.4l0.4,0.3v0.9
		c-0.1,1.1,0.1,1.2,0.8,0.3c0.9-1.2,0.9-2.4,0.3-3.1C-145.3,424.2-147.8,423.1-148.5,423.4z"/>
	<path d="M-167.1,445.4c0.3,0,0.8,0.4,0.8,0.7c0,0.3,0.3,0.3,0.4,0c0.3-0.9,1.4-0.3,1.2,0.7c-0.1,0.9,0.3,0.9,0.7,0
		c0.3-0.7,0.8-1.2,1.1-1.4c0.5-0.3,0.4-0.4-0.9-1.8c-0.2-0.2-0.4-0.3-0.5-0.3c-0.3,0.1-0.3,0.5,0,0.5c0.3,0,1,0.9,0.9,1.1
		c-0.1,0.1-0.7,0.1-1.6-0.1c-0.8-0.1-1.6-0.3-2-0.3l-0.6-0.1v-2.7l0.4-0.1c2.1-0.5,1.6-4.1-0.6-3.9c-0.7,0.1-0.8,0-1.4-0.6
		c-0.6-0.6-0.7-0.7-1.3-0.7c-0.3,0-0.8,0-0.9-0.1c-0.2-0.1-0.4,0-0.7,0.3c-0.5,0.4-0.3,0.6,0.3,0.3c0.4-0.2,0.6-0.3,1.1-0.1
		c1.4,0.4,1.5,0.6,0.8,1.4s-1,1.5-0.9,2.4c0,0.5,0.9,1,1.6,1c0.9,0,0.9,0.2,0.8,1.6c-0.2,1.3-0.7,1.4-0.9,0.2
		c-0.1-0.3-0.2-0.6-0.2-0.6c-0.2,0-0.4,0.4-0.3,0.6c0,0.1,0,0.3-0.1,0.3c-0.1,0.1-0.2,0.3-0.2,0.3c0,0.1-0.1,0.2-0.2,0.2
		c-0.2,0-0.2-0.2-0.2-0.9c0-1,0-1-1.1-1.2c-0.6-0.1-0.6,0.2-0.1,0.4c0.3,0.2,0.3,0.3,0.3,1.2c0,1.2,0.1,1.4,1,1.4
		c1.6,0,2.1,0.3,2,1.9c0,1-0.1,1-0.4,0.9c-0.3,0-0.4,0-0.4,0.3c-0.2,0.4,0.1,0.6,0.7,0.3c1-0.5,1.1-0.7,1.1-2.1
		C-167.5,445.4-167.4,445.4-167.1,445.4z M-169.2,438.6c0.4-0.3,1.1-0.4,1.1-0.3c0,0,0,0.2,0.1,0.3c0.2,0.3-0.3,0.7-1,0.7
		C-169.8,439.3-169.9,439-169.2,438.6z M-169,441.1c-1.6-0.2-1.3-1.3,0.3-1.4c0.6,0,0.6,0,0.7,0.5
		C-167.9,440.9-168.2,441.2-169,441.1z M-167.8,438.4c0.3-0.3,0.4-0.3,0.8,0.1c0.5,0.4,0.4,0.7-0.2,0.7
		C-167.8,439.1-168,438.7-167.8,438.4z M-167.8,440.8c0-0.9,0.3-1.2,1.1-1c0.6,0.2,0.2,1.1-0.7,1.3
		C-167.7,441.2-167.8,441.2-167.8,440.8z"/>
	<path d="M-155.2,409.9c0.3,0,0.2-0.3-0.3-0.9c-0.3-0.6-0.5-0.7-0.5-0.4S-155.3,409.9-155.2,409.9z"/>
	<path d="M-134.7,468.1c-0.3,0-0.3-0.9,0.1-2.5c0.3-1.4,0.3-1.8,0.2-1.7c-0.1,0-1,2.8-1.1,3.4c-0.1,0.5-0.3,0.8-0.8,0.7
		c-0.3-0.1-0.3-0.3,0.2-1.2c0.4-0.8,0.6-1.6,0.3-1.6c-0.1,0-0.3,0.3-0.6,0.8s-0.6,0.9-0.7,1.1l-0.3,0.3l-0.4-0.7
		c-0.5-0.9-0.8-0.9-1.4-0.1c-0.6,0.8-0.7,0.8-1.4-0.2c-0.6-0.9-0.9-1.1-1.4-1.1c-0.3,0-0.3-0.1-0.3-0.9c0-0.9-0.2-1.6-0.4-1.6
		c-0.1,0-0.2,0-0.2,0c0,1.4-0.2,3.6-0.3,4.3c-0.3,1.7-0.3,4.7,0,4.7c0.2,0,0.3,0.1,0.3,0.3c0.3,0.5,0.5,0,0.3-0.8
		c-0.1-0.3-0.3-1-0.3-1.4c-0.3-1.1-0.1-1.5,0.9-1.5s1,0.2,0.3,0.9c-0.9,0.7-0.9,0.9-0.3,0.9c0.3,0,0.6-0.2,1.2-0.7
		c0.9-0.9,0.8-0.9,1.1,0c0.4,0.9,0.9,1.2,1.3,0.5c0.1-0.2,0.3-0.4,0.5-0.6l0.4-0.3l0.3,0.5c0.4,0.7,0.8,0.8,0.6,0.3
		c-0.1-0.2-0.2-0.5-0.2-0.7c-0.1-0.3,0-0.3,0.3-0.3h0.3l-0.1,1.6c0,0.9-0.1,1.8-0.2,2.1c-0.3,0.6-0.2,0.8,0.1,0.8
		c0.2,0,0.3,0.1,0.4,0.2c0.3,0.3,0.5-0.3,0.3-1.5c-0.1-0.7-0.2-1.3-0.1-1.9c0.2-1,0-0.9,1.8-0.8c0.6,0.1,0.9,0,0.9,0
		C-132.8,469-134.4,468.1-134.7,468.1z M-141.7,467.5c-0.9-0.1-1-0.3-0.7-1.6c0.2-0.7,0.3-0.7,0.9,0.2
		C-140.5,467.4-140.6,467.6-141.7,467.5z M-138.4,468.8c-0.1,0.3-0.3,0.3-0.5,0.1c-0.2-0.3-0.1-0.3,0.2-0.3
		C-138.4,468.6-138.3,468.7-138.4,468.8z M-138.4,467.9c-0.3,0-0.7-0.3-0.6-0.5c0.2-0.3,0.6-0.2,0.7,0.1
		C-138.1,467.7-138.2,467.9-138.4,467.9z"/>
	<path d="M-156,454.2c0-0.1-0.8-0.2-1.6-0.2h-1.6l-0.2-0.8c-0.5-2.2-1.3-3.2-2.8-3.4c-0.8-0.2-0.9-0.3-0.8-1.2
		c0.3-1.1,0.1-1.8-0.2-1.3c0,0.1-0.2,0.6-0.3,1.1c-0.3,1.2-0.2,1.1-1.2,1.5c-0.4,0.2-0.8,0.3-0.8,0.3c-0.1,0.2-0.5,0.2-0.5-0.1
		c0-0.1-0.1-0.3-0.2-0.6c-0.3-0.6-0.4-0.2-0.3,0.5c0.1,0.5,0.1,0.6-0.2,0.9c-0.5,0.6-0.9,1.5-0.9,2.1c0,0.7,0.2,0.7,0.5-0.1
		c0.3-0.7,0.6-0.9,0.6-0.3c0,0.2,0.1,0.4,0.2,0.4c0.1,0.1,0.2-0.1,0.1-0.3c-0.1-1.3,0.1-1.6,1.2-2.2c0.9-0.4,1-0.3,0.7,0.8
		c-0.1,0.4-0.3,0.9-0.3,1.1v0.3l0.2-0.3c0.1-0.2,0.3-0.8,0.4-1.2c0.3-1.2,0.9-1.3,2-0.1c1.2,1.2,2,3,1.4,3c-0.3,0-1.2,0.3-1,0.4
		c0.1,0.1,0.3,0.1,0.7,0.1h0.6l0.1,0.6c0,0.4,0,0.7-0.3,0.9c-0.2,0.2-0.3,0.5-0.3,0.8c-0.1,0.3-0.3,0.7-0.4,0.9
		c-0.2,0.3-0.3,0.6-0.3,0.6c0.2,0.2,0.9-0.7,1.2-1.1c0.3-0.7,0.4-0.7,2.3-0.3c0.3,0.1,0.3,0,0.3-0.1c0-0.2-0.6-0.4-1.4-0.5l-0.6-0.1
		l0.1-0.8c0.1-1.1,0.2-1.2,1.8-1.1C-156.5,454.6-156,454.5-156,454.2z"/>
</g>
</svg>
