<?xml version="1.0" encoding="utf-8"?>
<!-- Generator: Adobe Illustrator 19.0.0, SVG Export Plug-In . SVG Version: 6.00 Build 0)  -->
<svg version="1.1" id="Capa_1" xmlns="http://www.w3.org/2000/svg" xmlns:xlink="http://www.w3.org/1999/xlink" x="0px" y="0px"
	 viewBox="-210 325.9 173.5 190" style="enable-background:new -210 325.9 173.5 190;" xml:space="preserve">
<g id="XMLID_100_">
	<path d="M-45.1,494.1h-156.3c-2,0-3.8-1-4.8-2.7s-1-3.8,0-5.5l78.1-135.4c1-1.7,2.8-2.8,4.8-2.8l0,0c2,0,3.8,1,4.8,2.7l78.2,135.4
		c1,1.7,1,3.8,0,5.5C-41.3,493-43.1,494.1-45.1,494.1z M-191.9,483.1h137.3l-68.7-118.9L-191.9,483.1z"/>
</g>
<g>
	<polygon points="-118.3,428.8 -111.3,435.8 -104.4,428.8 -111.3,421.8 	"/>
	<polygon points="-96.1,420.5 -103.1,413.5 -110.1,420.5 -103.1,427.5 	"/>
	<polygon points="-94.8,405.2 -101.8,412.2 -94.8,419.2 -87.8,412.2 	"/>
	<polygon points="-112.7,420.5 -119.7,413.5 -126.7,420.5 -119.7,427.5 	"/>
	<polygon points="-104.4,412.2 -111.4,405.2 -118.4,412.2 -111.4,419.2 	"/>
	<polygon points="-96.1,403.9 -103.1,396.9 -110.1,403.9 -103.1,410.9 	"/>
	<polygon points="-168.4,478.8 -161.4,485.8 -154.4,478.8 -161.4,471.8 	"/>
	<polygon points="-160.1,470.5 -153.1,477.5 -146.1,470.5 -153.1,463.6 	"/>
	<polygon points="-151.8,462.3 -144.8,469.2 -137.8,462.3 -144.8,455.3 	"/>
	<polygon points="-169.7,463.5 -176.7,470.5 -169.7,477.5 -162.7,470.5 	"/>
	<polygon points="-154.4,462.2 -161.4,455.2 -168.4,462.2 -161.4,469.2 	"/>
	<polygon points="-146.2,453.9 -153.2,446.9 -160.1,453.9 -153.2,460.9 	"/>
	<polygon points="-138.2,417.9 -156,435.7 -125.9,465.8 -108.1,448 	"/>
	<path d="M-114.6,459.4c-5.3,5.3-5.3,14,0,19.3l19.3-19.3C-100.6,454.1-109.3,454.1-114.6,459.4z"/>
</g>
</svg>
