<?xml version="1.0" encoding="utf-8"?>
<!-- Generator: Adobe Illustrator 19.0.0, SVG Export Plug-In . SVG Version: 6.00 Build 0)  -->
<svg version="1.1" id="Capa_1" xmlns="http://www.w3.org/2000/svg" xmlns:xlink="http://www.w3.org/1999/xlink" x="0px" y="0px"
	 viewBox="-210 325.9 173.5 190" style="enable-background:new -210 325.9 173.5 190;" xml:space="preserve">
<g id="XMLID_100_">
	<path d="M-45.1,494.1h-156.3c-2,0-3.8-1-4.8-2.7s-1-3.8,0-5.5l78.1-135.4c1-1.7,2.8-2.8,4.8-2.8l0,0c2,0,3.8,1,4.8,2.7l78.2,135.4
		c1,1.7,1,3.8,0,5.5C-41.3,493-43.1,494.1-45.1,494.1z M-191.9,483.1h137.3l-68.7-118.9L-191.9,483.1z"/>
</g>
<text transform="matrix(1 0 0 1 87.6401 746.8352)" style="font-family:'MyriadPro-Regular'; font-size:12px;">d-11424</text>
<g>
	<path d="M-116.7,468.2c1.5-0.1,2.9,0.3,4.2,1c6.3-3.9,10.4-11,10-18.9c-0.1-1.3-0.3-2.6-0.6-3.9c-5.4-1.4-12.7-2-20.4-1.5
		c-8.3,0.5-15.2,2-20.1,3.9c-0.2,1.3-0.2,2.7-0.2,4c0.3,5.5,2.8,10.6,6.9,14.3c3.9,3.5,8.9,5.3,14.1,5.2
		C-121.7,469.9-119.3,468.3-116.7,468.2z"/>
	<path d="M-116.6,469.7c-3.3,0.2-5.8,3-5.6,6.3c0.1,1.6,0.8,3,2,4.1s2.7,1.6,4.3,1.5c3.3-0.2,5.8-3,5.6-6.3c-0.1-1.6-0.8-3-2-4.1
		c-0.3-0.3-0.6-0.5-1-0.7C-114.3,469.9-115.4,469.6-116.6,469.7z"/>
	<path d="M-158.6,445.8c0.3,0.2,0.7,0.3,1,0.2c1-0.1,1.8-0.9,1.7-2c0-0.7-0.4-1.2-0.9-1.5c-0.3-0.2-0.7-0.3-1-0.2
		c-1,0.1-1.8,0.9-1.7,2C-159.4,444.9-159.1,445.5-158.6,445.8z"/>
	<path d="M-128.1,482.7c-0.8,1.4-2.6,1.9-4,1.1c-1.4-0.8-1.9-2.6-1.1-4c0.8-1.4,2.6-1.9,4-1.1C-127.8,479.5-127.3,481.3-128.1,482.7
		z"/>
	<g>
		<path d="M-104,462.5c0.4-0.6,0.7-1.3,1-1.9c6.7-2.4,10.2-5.5,10-8.7c0-1.3-0.7-2.5-1.9-3.5c-1.6-1.4-4.2-2.6-7.5-3.5c0,0,0,0,0,0
			c-5.6-1.5-13.2-2.1-21.2-1.7c-8.3,0.6-15.6,2.1-20.9,4.2c-0.1,0-0.2,0.1-0.3,0.1c-5.3,2.2-8.5,5.1-8.3,8c0.1,1.8,1.4,3.5,3.8,4.8
			c1.8,1,4.2,1.9,7.1,2.5c0.4,0.6,0.7,1.2,1.2,1.7c-14.7-1.5-24.6-5.7-24.8-10.8c-0.1-2.5,2-5.1,5.8-7.4c0.2,0.2,0.5,0.5,0.8,0.6
			c0.6,0.3,1.2,0.5,1.9,0.4c1.8-0.1,3.3-1.7,3.2-3.6c0-0.1,0-0.2-0.1-0.3c3.7-1.5,11.9-3.6,11.9-3.6l1.2-1.6
			c3.9-5.5,10.1-8.8,16.8-9.3c6.7-0.4,13.1,2.2,17.7,7.2l1.3,1.5c10.4,1,18.8,3.5,22.7,7c1.4,1.3,2.1,2.6,2.2,3.9
			C-80.2,453.9-89.6,459.3-104,462.5z"/>
	</g>
</g>
<g>
	<path d="M-127,430.8c-0.1-0.5-0.6-1.3-0.8-1.7c-0.1-0.2-1.2-1.3-1.4-1.5c-0.2-0.4-0.4-0.6-0.5-0.9c-0.2-0.3-0.3-0.7-0.5-1.1
		c0,0-0.2-1-0.2-1.2c-0.1-0.4-0.2-0.8-0.3-1.2c-0.1-0.4-0.3-1-0.4-1.5c-0.2,0.2-0.2,1.3-0.3,1.5c-0.1,0.5,0,1,0,1.5
		c0,0.2,0.2,1.2,0.2,1.4c0.1,0.5,0.5,1.5,0.7,1.9c0.2,0.4-2.3-0.7-3.1-1.8c-0.6-0.8-2.6-2.3-4.6-5c-0.3-0.4-1.1-1.1-1.1-1.6
		c-0.5,0.7,0.4,2.9,0.7,3.3c0.3,0.5,0.8,1.1,1.2,1.5c0.2,0.2,1.5,1.8,1.5,1.8l0,0c-0.8-0.4-1.4-0.7-2.5-1.4
		c-0.3-0.2-0.6-0.4-0.8-0.5c-1.3-1.5-2.6-4.1-3.1-5c-0.5-0.9-1-1.8-1.2-2.8c-0.1-0.2-0.1-1.2-0.2-1.5c0-0.4,0-0.9,0.4-1.4
		c-0.1,0-0.3,0.1-0.4,0.1c-0.1,0.1-0.3,0.2-0.4,0.3c-0.2,0.2-0.3,0.5-0.5,0.8c-0.1,0.3-0.2,0.6-0.3,0.9c0,0.1-0.1,0.8-0.1,0.9
		c0,0.6,0.1,1.2,0.3,1.8c0.1,0.4,0.2,0.7,0.3,1.1c-0.4-0.5-1.6-1.7-1.9-2.5c-0.1-0.3-0.2-1.2-0.2-2c0.1-0.7,0.3-1.3,0.5-2.1
		c0-0.2,0.8-3.6,1-3.7c0.1-0.1,0.9-1.7,1-1.7c0,0,0.7-0.8,0.8-1c0.1-0.2,1.3-1.9,1.4-2.2c0.2-0.7-0.2-0.8-0.2-0.8
		c-0.3-0.1-0.4-0.1-0.5-0.1c-0.5,0.2-1.8,1.7-1.8,1.7c-0.6,0.7-1.1,1-1.1,1c-0.5,0.3-1.3,0-1.6-0.7c-0.1-0.4-0.1-0.7-0.1-1
		c0-1,0.2-1.8,0.3-2.5c0-0.1,0.4-1.8,0.3-2.5c-0.1,0-0.8,1-1,1.5c0,0-0.8,1.8-0.9,2.8c-0.1,0.9-0.1,1.8,0.1,2.6
		c0.2,0.8,0.4,1.2,0.5,1.9c0,0.8,0.1,2.1,0,2.9c0,0.8-0.1,1.3-0.4,2.1c0,0-0.3,1-0.4,1.3c-0.3,1.1-1.6-0.2-1.6-0.2
		c-0.7-0.8-1.1-1.3-1.7-2.3c-0.2-0.7-0.2-1.1-0.2-1.4c0-1,0.2-3,0.4-4c0.1-1,0.2-3.6,0-5.5c0-0.2,0-0.8-0.1-1.1
		c-0.1,0-1.6,5.1-1.7,6.2c-0.1,1-0.6,2.9-0.7,4c-1.4-1-1.7-2.2-1.7-2.2c-0.6,0.3-0.2,1.9,0,2.4c0.6,1.7,2.2,3.7,2.2,3.8
		c0.6,1,1.3,1.9,2,2.7c0.1,0.1,2.6,2.8,2.9,3.1c0.4,0.3,3.4,3.3,4.6,4.2c0.9,0.6,6.4,4.1,9.1,5c1,0.3,3.5,1.8,3.8,2
		c0.4,0.3,1.5,1.1,1.6,1.4l0.1,0l0.3,0.1c0,0,2.4-1.5,2.3-2C-127,430.9-127,430.9-127,430.8z"/>
	<path d="M-90.6,408.2c0,0-0.3,1.1-1.7,2.2c0-1.1-0.5-3-0.7-4c-0.1-1.1-1.6-6.2-1.7-6.2c-0.1,0.3-0.1,1-0.1,1.1
		c-0.1,1.9-0.1,4.6,0,5.5c0.1,1,0.4,3,0.4,4c0,0.4,0,0.8-0.2,1.4c-0.5,0.9-1,1.5-1.7,2.3c0,0-1.3,1.3-1.6,0.2
		c-0.1-0.3-0.4-1.3-0.4-1.3c-0.4-0.8-0.4-1.3-0.4-2.1c0-0.8,0-2.1,0-2.9c0.1-0.7,0.3-1.1,0.5-1.9c0.2-0.8,0.3-1.8,0.1-2.6
		c0-1.1-0.9-2.8-0.9-2.8c-0.2-0.5-0.9-1.5-1-1.5c-0.1,0.7,0.3,2.4,0.3,2.5c0.2,0.7,0.3,1.6,0.3,2.5c0,0.3,0,0.6-0.1,1
		c-0.3,0.7-1.1,1-1.6,0.7c0,0-0.5-0.3-1.1-1c0,0-1.4-1.5-1.8-1.7c-0.1,0-0.2-0.1-0.5,0.1c0,0-0.4,0.2-0.2,0.8
		c0.1,0.3,1.3,2.1,1.4,2.2c0.1,0.2,0.8,1,0.8,1c0.1,0.1,0.9,1.7,1,1.7c0.1,0.1,0.9,3.6,1,3.7c0.2,0.8,0.3,1.4,0.5,2.1
		c0,0.8-0.1,1.7-0.2,2c-0.3,0.8-1.5,2-1.9,2.5c0.2-0.4,0.2-0.7,0.3-1.1c0.2-0.6,0.3-1.2,0.3-1.8c0-0.2-0.1-0.8-0.1-0.9
		c-0.1-0.3-0.1-0.6-0.2-0.9c-0.1-0.3-0.3-0.6-0.5-0.8c-0.1-0.1-0.2-0.2-0.3-0.3c-0.1-0.1-0.3-0.1-0.4-0.1c0.4,0.5,0.5,1,0.4,1.4
		c0,0.3-0.1,1.3-0.2,1.5c-0.3,0.9-0.7,1.9-1.2,2.8c-0.5,0.9-1.9,3.5-3.1,5c-0.2,0.2-0.5,0.3-0.8,0.5c-1.1,0.7-1.7,0.9-2.5,1.4l0,0
		c0,0,1.4-1.7,1.5-1.8c0.3-0.4,0.9-1,1.2-1.5c0.2-0.5,1.2-2.6,0.7-3.3c0,0.5-0.8,1.3-1.1,1.6c-2.1,2.8-4,4.2-4.6,5
		c-0.8,1-3.3,2.1-3.1,1.8c0.2-0.5,0.6-1.4,0.7-1.9c0.1-0.2,0.2-1.2,0.2-1.4c0-0.5,0.1-1,0-1.5c0-0.3-0.1-1.4-0.3-1.5
		c-0.1,0.5-0.3,1.1-0.4,1.5c-0.1,0.4-0.2,0.8-0.3,1.2c-0.1,0.2-0.2,1.2-0.2,1.2c-0.2,0.4-0.3,0.8-0.5,1.1c-0.2,0.3-0.3,0.6-0.5,0.9
		c-0.1,0.2-1.2,1.3-1.4,1.5c-0.2,0.4-0.8,1.2-1,1.7c0,0.1-0.1,0.2-0.1,0.3c0,0.5,2.5,1.8,2.5,1.8l0.3-0.1l0.1,0
		c0.1-0.3,1.2-1.2,1.6-1.4c0.3-0.2,2.9-1.6,3.8-2c2.7-0.9,8.2-4.4,9.1-5c1.2-0.9,4.2-3.9,4.6-4.2c0.3-0.3,2.8-3,2.9-3.1
		c0.7-0.8,1.4-1.7,2-2.7c0.1-0.1,1.7-2.1,2.2-3.8C-90.4,410.1-90.1,408.5-90.6,408.2z"/>
</g>
</svg>
