<?xml version="1.0" encoding="utf-8"?>
<!-- Generator: Adobe Illustrator 19.0.0, SVG Export Plug-In . SVG Version: 6.00 Build 0)  -->
<svg version="1.1" id="Capa_1" xmlns="http://www.w3.org/2000/svg" xmlns:xlink="http://www.w3.org/1999/xlink" x="0px" y="0px"
	 viewBox="-210 325.9 173.5 190" style="enable-background:new -210 325.9 173.5 190;" xml:space="preserve">
<path d="M-110.2,361.6c-2.6,1.6-4.6,2.2-4.6,2.2l-0.9-2.8l-2.8,2.3l-4.7-11.3V352l0,0l0,0l0-0.1l0,0v0.1l-4.7,11.3l-2.8-2.3h0
	l-0.9,2.8c0,0-2.6-1-4.5-2.2c-1.9-1.2-5.3-3.8-5.3-3.8l5.2,12.9l0.3,2.3c0,0,6.8-1.6,12.9-1.6c6.1,0,12.5,1.5,12.5,1.5l0.5-2.3
	l5.1-12.7C-105,357.8-107.5,360-110.2,361.6z M-121.4,367.7l-1.9,1.7l-1.9-1.7v-3.7l1.9-1.7l1.9,1.7V367.7z"/>
<path d="M-142.5,390.4c-6.3-0.4-8.1-1.4-12.6-1.7c-4.5-0.3-7.2,0.8-11.5,0.8c-4.4,0-7.1,0.1-11.2,0.1c-8.1,0-14.8-4.2-14.8-4.2
	s11.2,3,18.2,2c5.1-0.7,15.8-1.4,15.8-1.4s-4.2-2.7-6.2-4.2s-4.5-4-5.9-5.3c-0.6-0.6-0.7-0.6-0.9-0.8c-0.3-0.1-0.4-0.3-1.1-0.3
	c-2.3-0.4-7.7-1.1-11.2-2.3c-5.7-1.8-10.5-4.7-13.5-7c-5.5-4.4-8.9-8.3-8.9-8.3s10.7,8.1,17.8,11.3c7.1,3.3,15.7,3.3,15.7,3.3
	s-0.3-1.6-1.4-4.8c-0.7-2.3-1.8-5.7-2.3-7.6c-0.3-0.8-0.3-0.7-0.6-0.9c-0.3-0.3-0.3-0.4-1-0.4c-2.5,0.1-8.2,0.1-11.8-1.2
	c-3.8-1.4-5.6-2.9-8.7-5.4c-3.4-2.7-7.5-7.9-7.5-7.9s0.8-0.4,8.4,6.6c8.2,7.5,20.3,5.4,20.3,5.4s-0.9-3.7-2-6.5
	c-1.1-2.7-5.8-12.9-5.8-12.9s5.9,6.9,8.7,13.9c1.9,5,5.2,17.7,6.7,21s13.5,10.8,13.5,10.8s-2.6-4.2-2.8-11.7
	c-0.1-4.7,0.1-10.4,0.5-14.1c0.6-6.2-5.9-16.1-5.9-16.1s3.8,3.4,6.5,9.9c2.7,6.5,1,13.9,1.8,20.7c0.8,6.8,4.7,12.9,4.7,12.9
	s5.8,1.8,8.5,2.5c10.7,2.8,17.7,3.8,17.7,3.8S-138.3,390.6-142.5,390.4z"/>
<path d="M-121.2,390.4c0,0,7-1.1,17.7-3.8c2.7-0.7,8.5-2.5,8.5-2.5s3.9-6.2,4.7-12.9c0.8-6.9-0.9-14.2,1.8-20.7
	c2.7-6.5,6.5-9.9,6.5-9.9s-6.5,9.9-5.9,16.1c0.4,3.7,0.6,9.4,0.5,14.1c-0.2,7.6-2.8,11.7-2.8,11.7s12-7.6,13.5-10.8s4.8-16,6.7-21
	c2.8-7,8.7-13.9,8.7-13.9s-4.7,10.2-5.8,12.9c-1.1,2.8-2,6.5-2,6.5s12.1,2.1,20.3-5.4c7.6-6.9,8.4-6.6,8.4-6.6s-4.1,5.2-7.5,7.9
	c-3.1,2.5-4.9,4-8.7,5.4c-3.6,1.3-9.3,1.3-11.8,1.2c-0.7,0-0.7,0.1-1,0.4c-0.4,0.2-0.4,0.1-0.6,0.9c-0.5,1.9-1.6,5.4-2.3,7.6
	c-1.1,3.3-1.4,4.8-1.4,4.8s8.6,0,15.7-3.3s17.8-11.3,17.8-11.3s-3.4,4-8.9,8.3c-3,2.3-7.8,5.2-13.5,7c-3.5,1.2-8.8,1.9-11.2,2.3
	c-0.7,0-0.8,0.1-1.1,0.3c-0.2,0.2-0.4,0.2-0.9,0.8c-1.4,1.3-3.9,3.7-5.9,5.3c-2,1.6-6.2,4.2-6.2,4.2s10.7,0.7,15.8,1.4
	c7.1,1,18.2-2,18.2-2s-6.8,4.2-14.8,4.2c-4.1,0-6.9-0.1-11.2-0.1c-4.2,0-6.9-1.1-11.5-0.8c-4.5,0.3-6.3,1.3-12.6,1.7
	C-108.2,390.6-121.2,390.4-121.2,390.4z"/>
<path d="M-104,385.6c-3-7.7-10.5-13.1-19.2-13.1c-8.8,0-16.3,5.5-19.3,13.3c-1.5,3.1-2.4,6.5-2.4,10.2v4.1l4.4-2.2l4.3,2.2l4.3-2.2
	l4.4,2.2l4.3-2.2l4.4,2.2l4.3-2.2l4.3,2.2l4.3-2.2l4.4,2.2v-4.1C-101.5,392.2-102.4,388.7-104,385.6z"/>
<g>
	<path d="M-127.9,464.3c-1.7,0-3.2,1.4-3.2,3.2s1.4,3.2,3.2,3.2c1.7,0,3.2-1.4,3.2-3.2S-126.2,464.3-127.9,464.3z M-127.9,469.8
		c0,0-1.1-1.1-1.1-2.4c0-1.3,1.1-2.4,1.1-2.4s1.1,1.1,1.1,2.4C-126.9,468.8-127.9,469.8-127.9,469.8z"/>
	<path d="M-130.7,464.7c-2,0.8-3.5,2.2-4.1,2.8c0.6,0.6,2.1,2,4.1,2.8c-0.7-0.7-1.2-1.7-1.2-2.8
		C-131.9,466.4-131.4,465.4-130.7,464.7z"/>
	<path d="M-112.9,435c-4.2,1.7-7.4,4.8-8.7,6c1.2,1.3,4.5,4.3,8.6,6c-1.6-1.5-2.5-3.7-2.5-6C-115.5,438.7-114.5,436.6-112.9,435z"/>
	<path d="M-98.6,441.1c0,2.4-1,4.5-2.5,6c4.2-1.7,7.4-4.8,8.6-6c-1.2-1.2-4.5-4.3-8.6-6C-99.5,436.6-98.6,438.7-98.6,441.1z"/>
	<path d="M-107,434.3c-3.7,0-6.7,3-6.7,6.7c0,3.7,3,6.7,6.7,6.7c3.7,0,6.7-3,6.7-6.7C-100.3,437.4-103.3,434.3-107,434.3z
		 M-107,446.1c0,0-2.3-2.3-2.3-5c0-2.8,2.3-5,2.3-5s2.3,2.3,2.3,5C-104.8,443.8-107,446.1-107,446.1z"/>
	<path d="M-130.4,450.6c0-2.6-2.1-4.7-4.7-4.7c-2.6,0-4.7,2.1-4.7,4.7c0,2.6,2.1,4.7,4.7,4.7C-132.5,455.2-130.4,453.1-130.4,450.6z
		 M-136.6,450.6c0-1.9,1.6-3.5,1.6-3.5s1.6,1.6,1.6,3.5c0,1.9-1.6,3.5-1.6,3.5S-136.6,452.5-136.6,450.6z"/>
	<path d="M-130.9,454.7c2.9-1.2,5.2-3.3,6-4.2c-0.8-0.9-3.1-3-6-4.2c1.1,1.1,1.8,2.5,1.8,4.2C-129.2,452.2-129.8,453.7-130.9,454.7z
		"/>
	<path d="M-139.1,446.4c-2.9,1.2-5.2,3.3-6,4.2c0.8,0.9,3.1,3,6,4.2c-1.1-1.1-1.8-2.5-1.8-4.2C-140.9,448.9-140.2,447.4-139.1,446.4
		z"/>
	<path d="M-135,436.4c2.4,0,4.4-2,4.4-4.4s-2-4.4-4.4-4.4c-2.4,0-4.4,2-4.4,4.4S-137.4,436.4-135,436.4z M-135,428.8
		c0,0,1.5,1.5,1.5,3.3c0,1.8-1.5,3.3-1.5,3.3s-1.5-1.5-1.5-3.3C-136.5,430.3-135,428.8-135,428.8z"/>
	<path d="M-140.5,432.1c0-1.5,0.6-2.9,1.6-3.9c-2.7,1.1-4.8,3.1-5.6,3.9c0.8,0.8,2.9,2.8,5.6,3.9
		C-139.9,435-140.5,433.6-140.5,432.1z"/>
	<path d="M-93.4,397.5c-1.3,9-6.5,16.8-14,21.4l5.8-5.2V404l-4.4-2.2l-4.3,2.2l-4.3-2.2l-4.3,2.2l-4.4-2.2l-4.3,2.2l-4.3-2.2
		l-4.4,2.2l-4.3-2.2l-4.4,2.2v9.8l6.5,5.6c-7.8-4.6-13.3-12.5-14.6-21.8c-28,7.8-47.8,26.1-47.8,47.5v17.4c0.7-0.1,1.4-0.1,2.2-0.1
		c10.7,0,19.4,7.7,19.4,17.2v5.9c3.2-3.6,7.8-5.9,12.9-5.9c8.9,0,16.2,6.7,17.1,15.3c2.6-1.5,5.5-2.4,8.7-2.4
		c9.5,0,17.2,7.7,17.2,17.2c0-9.5,7.7-17.2,17.2-17.2c3.2,0,6.2,0.9,8.7,2.4c1-8.6,8.3-15.3,17.1-15.3c5.2,0,9.8,2.3,12.9,5.9v-5.9
		c0-9.5,8.7-17.2,19.4-17.2c0.7,0,1.4,0,2.2,0.1V445C-45.6,423.6-65.4,405.3-93.4,397.5z M-145.7,431.7c0.2-0.2,4.8-5.5,10.7-5.5
		c5.8,0,10.5,5.3,10.7,5.5l0.3,0.4l-0.3,0.4c-0.2,0.2-4.8,5.5-10.7,5.5c-5.8,0-10.5-5.3-10.7-5.5l-0.3-0.4L-145.7,431.7z
		 M-146.4,450.9l-0.3-0.4l0.3-0.4c0.2-0.2,5.1-5.9,11.4-5.9c6.2,0,11.2,5.6,11.4,5.9l0.3,0.4l-0.3,0.4c-0.2,0.2-5.1,5.9-11.4,5.9
		C-141.3,456.8-146.2,451.2-146.4,450.9z M-120.2,467.7c-0.1,0.2-3.5,4-7.7,4c-4.2,0-7.5-3.8-7.7-4l-0.2-0.3l0.2-0.3
		c0.1-0.2,3.5-4,7.7-4c4.2,0,7.5,3.8,7.7,4l0.2,0.3L-120.2,467.7z M-107.8,457.9c-0.1,0.2-3.5,4-7.7,4c-4.2,0-7.5-3.8-7.7-4
		l-0.2-0.3l0.2-0.3c0.1-0.2,3.5-4,7.7-4c4.2,0,7.5,3.8,7.7,4l0.2,0.3L-107.8,457.9z M-90.6,441.6c-0.3,0.3-7.4,8.4-16.4,8.4
		c-9,0-16.1-8.1-16.4-8.4l-0.5-0.6l0.5-0.6c0.3-0.3,7.4-8.4,16.4-8.4c9,0,16.1,8.1,16.4,8.4l0.5,0.6L-90.6,441.6z"/>
	<path d="M-131.2,436c2.7-1.1,4.8-3.1,5.6-3.9c-0.8-0.8-2.9-2.8-5.6-3.9c1,1,1.6,2.4,1.6,3.9C-129.5,433.6-130.2,435-131.2,436z"/>
	<path d="M-111.5,457.7c0,1.1-0.5,2.1-1.2,2.8c2-0.8,3.5-2.2,4.1-2.8c-0.6-0.6-2.1-2-4.1-2.8C-112,455.6-111.5,456.6-111.5,457.7z"
		/>
	<path d="M-118.3,454.8c-2,0.8-3.5,2.2-4.1,2.8c0.6,0.6,2.1,2,4.1,2.8c-0.7-0.7-1.2-1.7-1.2-2.8C-119.5,456.6-119,455.6-118.3,454.8
		z"/>
	<path d="M-115.5,454.5c-1.7,0-3.2,1.4-3.2,3.2c0,1.7,1.4,3.2,3.2,3.2c1.7,0,3.2-1.4,3.2-3.2C-112.4,455.9-113.8,454.5-115.5,454.5z
		 M-115.5,460c0,0-1.1-1.1-1.1-2.4c0-1.3,1.1-2.4,1.1-2.4s1.1,1.1,1.1,2.4C-114.5,459-115.5,460-115.5,460z"/>
	<path d="M-124,467.5c0,1.1-0.5,2.1-1.2,2.8c2-0.8,3.5-2.2,4.1-2.8c-0.6-0.6-2.1-2-4.1-2.8C-124.4,465.4-124,466.4-124,467.5z"/>
</g>
</svg>
