<?xml version="1.0" encoding="utf-8"?>
<!-- Generator: Adobe Illustrator 19.0.0, SVG Export Plug-In . SVG Version: 6.00 Build 0)  -->
<svg version="1.1" id="Capa_1" xmlns="http://www.w3.org/2000/svg" xmlns:xlink="http://www.w3.org/1999/xlink" x="0px" y="0px"
	 viewBox="-210 325.9 173.5 190" style="enable-background:new -210 325.9 173.5 190;" xml:space="preserve">
<g id="XMLID_100_">
	<path d="M-45.1,494.1h-156.3c-2,0-3.8-1-4.8-2.7s-1-3.8,0-5.5l78.1-135.4c1-1.7,2.8-2.8,4.8-2.8l0,0c2,0,3.8,1,4.8,2.7l78.2,135.4
		c1,1.7,1,3.8,0,5.5C-41.3,493-43.1,494.1-45.1,494.1z M-191.9,483.1h137.3l-68.7-118.9L-191.9,483.1z"/>
</g>
<path d="M-93.3,433.1c-0.6-10.8-4.9-20.1-16.1-21.2c-5.1-0.5-10.1,0.4-12.9,2.8c0.8-0.2,1.7-0.6,2.5-0.2c-0.9,0.8-1.9,1.3-2.6,2.3
	c-3.7,4.8-1.4,14,3.8,15.7c0.4-0.1-0.3-0.7-0.2-1.1c1.1,0.7,2.2,1.6,3.8,1.9c-1.6-1.4-2.7-6.1,0.9-6.8c5.9-1.2,7.6,5,7.2,10.6
	c-0.3,4.2-1.9,6.6-4.3,8.9c-2.4,2.3-5.1,4-6.4,6.8c-1.1-8.6-6.7-14.3-10.2-21.2c-1.1-2.2-2.5-4.4-3.2-6.4c-0.5-1.6-0.3-3.6-1.5-5.1
	c2.7-0.9,1.8-4.8,2.1-7.8c-0.3,0.5-0.9,0.3-0.4-0.2c-1.7,1.2-5.6,1.7-6.1,4.7c-2.3-0.7-4.7,0.2-6.2,1.3c-1.3,1-2.1,2.5-3.2,3.6
	c-0.8,0.9-2.1,1.5-2.3,2.5c-0.5,3.1,2.7,5,6.4,4.9c0.1,1.9-2.3,2.9-2.3,5.3c0.2,0.5,0.7-0.2,0.8-0.4c-0.5,1.3-0.7,4-0.2,6.1
	c-2.7,0-5,2-4.2,4.9c0.1,0.5,0.7,0.9,1.1,1.3c0.2-0.9,0-0.6,0.9-0.2c0.4-0.7,0-2.1,0.8-2.5c2.1-0.9,2.9,2.8,4.9,3.6
	c1.1,0.4,1.5-1.1,1.9-0.4c1.5,3.9-2.4,6.9-2.8,10.6c-0.4,3.5,0.6,6.1,2.3,8.3c0,0-1,0.1-1.1,0.9c-0.1,0.9-1.5,0-1.9,1.3
	c0.3,0.4,1.2-0.2,1.5-0.4c0.6,0.2-0.4,0.3-0.2,0.8c0.1,0,0.3,0,0.4,0c2-0.6,4.9-0.7,7.4-0.8c-0.6,0.9,1,0.4,1,0.4
	c0.4-0.2,1.1-0.2,1.8-0.2c0,0,0,0,0,0c1.6,0,3.3,0.1,4.3-0.4c0.2-0.9,0.1-1,0.6-1.7c0.7,0,1.7,0.2,2.1,0c3.1-1.8,5.2-6.1,9.6-6.8
	c0,0-0.4-0.3-1-0.1c1-0.8,2.3-1.3,4-1.4c-0.3-0.4-1.3-0.1-1.9-0.2c8.1-5.1,18.1-9.2,19.1-21.6C-93.2,434.9-93.2,434.1-93.3,433.1z"
	/>
</svg>
