<?xml version="1.0" encoding="utf-8"?>
<!-- Generator: Adobe Illustrator 19.0.0, SVG Export Plug-In . SVG Version: 6.00 Build 0)  -->
<svg version="1.1" id="Capa_1" xmlns="http://www.w3.org/2000/svg" xmlns:xlink="http://www.w3.org/1999/xlink" x="0px" y="0px"
	 viewBox="-210 325.9 173.5 190" style="enable-background:new -210 325.9 173.5 190;" xml:space="preserve">
<g id="XMLID_100_">
	<path d="M-45.1,494.1h-156.3c-2,0-3.8-1-4.8-2.7s-1-3.8,0-5.5l78.1-135.4c1-1.7,2.8-2.8,4.8-2.8l0,0c2,0,3.8,1,4.8,2.7l78.2,135.4
		c1,1.7,1,3.8,0,5.5C-41.3,493-43.1,494.1-45.1,494.1z M-191.9,483.1h137.3l-68.7-118.9L-191.9,483.1z"/>
	<g transform="translate(0.000000,2400.000000) scale(0.100000,-0.100000)">
		<path d="M-895,19500.8c-0.7,1.6-0.7,1.6-31.4,27.3l-9.4,7.9c0.1,0.3,0.1,0.7,0.2,1.2c3.4,23.8,3.8,47.4,1.3,72.2
			c-5.8,57.4-28,111.6-64.1,156.9c-23.2,29-52.6,54.2-85.1,72.8c-10.2,5.8-24.1,12.6-34.2,16.8c-1,4.3-3.1,13.8-5.5,24.6l-6.2,27.7
			c-1.4,4.6-2.1,4.6-19.7,4.6c-12.6,0.1-36.8,0.1-82.5,0.1h-96.3c-2.8,0-5.3-1.9-5.8-4.7l-0.2-0.8c0-0.1,0-0.2-0.1-0.2
			c-0.1-0.5-2.2-12.5-4.6-26.7c-1.8-10.6-3.4-19.1-4.1-23.1c-0.5-0.2-1-0.4-1.5-0.6c-47.4-19.1-89.4-50.4-121.3-90.5
			c-32.9-41.3-54.4-90.2-62.1-141.6c-0.3-2.2-0.7-4.4-0.7-4.6c-1.5-3.8-2.8-24.6-2.8-24.8c-0.4-7.1-0.4-24.5,0-32
			c0.3-6.4,0.9-12.6,1.9-20.7l0.3-2.5c-2.3-2.2-5.2-4.8-8-7.4l-21.1-19.5c-10.5-9.6-10.6-9.9-10.7-10.2c-2.6-3.4-2.6-3.4,7.8-21.4
			l48.1-83.3c41.4-71.7,41.4-71.7,45.2-71.7c1,0,1.4,0,7.4,2.2l13,4.7c14.6,5.4,25.2,9.2,29.8,10.9c6-4.9,18.8-13.8,27.6-19.4
			c15.2-9.5,35.2-19.3,53.6-26.2c33.4-12.5,69-18.9,104.6-18.9c11.9,0,23.8,0.7,35.6,2.2c25.1,3,50.3,9.4,73,18.3
			c2.5,1,4.7,1.8,4.7,1.8c3.6,0.6,19.2,8.4,22.3,9.9c15.6,7.9,29.4,16.5,43.6,27l3.4,2.5c0.3-0.1,0.6-0.2,1-0.3
			c1.4-0.5,15.1-4.7,17.1-5.3c3.4-1,18.7-5.8,19.8-6.2c0.5-0.2,2.3-0.7,4.1-1.3l1.4-0.5c1.5-0.5,3.2-1,4.4-1.4c3.2-1,5-1.5,6.7-0.7
			c2.5,0.8,2.5,0.8,51.3,85.3c14.4,24.9,47.8,82.9,48.6,84.6C-894.5,19497.5-894.4,19499.3-895,19500.8z M-1037.8,19370.3
			c-0.4,0.1-0.8,0.2-0.9,0.2c-0.5,0.2-2.1,0.8-3.5,1.1l-5.7,1.7c-4,1.2-6.5,2-10-0.6l-5-4c-6.4-5.2-17.3-13-19.8-14.6
			c-1-0.4-2.2-1-4-2.2c-13.7-8.8-30.5-17.4-46.2-23.7c-26.4-10.4-52.5-16.3-82.2-18.6c-6.3-0.5-28.3-0.5-34.6,0
			c-38.2,2.9-71.4,11.8-104.1,28.4c-16.7,8.4-34.6,19.8-47.6,30.5c-1.6,1.4-2.6,2.1-3.3,2.5c-0.6,0.4-1.4,1.1-2.3,2l-2.9,2.5
			c-1.4,1.2-3.3,1.7-5.1,1.3l-1.4-0.3c-1.8-0.4-3.6-1-13.7-4.8c-2.7-1-9.3-3.4-14.6-5.4l-14.7-5.4c-0.2-0.1-0.3-0.1-0.5-0.2
			c-5.1,8.6-18.3,31.4-38,65.4l-37.8,65.5c1,1,2.2,2.1,3.4,3.3l11.7,11c1.5,1.4,3.4,3.2,4.3,4l2.8,2.6c2,1.9,7.7,7.2,8.8,8.2
			l4.6,4.4c1.4,1.4,2.2,3.4,1.8,5.5l-0.4,2.2c-1.4,7.2-3,21.2-3.1,26.6c0,1.7-0.1,5.5-0.2,9.6l-0.1,4.8c-0.3,15.5,0.6,30.5,2.9,45.7
			c11.4,74.9,53.9,141.9,116.7,183.9c18.2,12.2,39.2,22.8,59,29.8c3.8,1.4,6.6,2.3,7.6,6.5c0.2,0.6,0.5,2,6,33.7
			c0.8,4.6,1.5,8.8,2.1,11.9h75.5c46.7,0,68.1,0,75.8-0.2c2-8.4,6.4-27.4,8.4-36.1l2.4-10.5c1-3.9,3.5-4.9,9.5-7.2
			c11.6-4.5,25.2-10.8,34.7-16.1c30.9-17.2,57.6-39.8,79.4-66.9c34-42.3,54.4-93.3,58.8-147.6c1-11.8,1.1-32.6,0.3-42.2
			c-0.8-9.3-2.2-20.4-3.8-29.7l-0.3-2c-0.3-1.9,0.3-3.9,1.7-5.4l1.4-1.4c0.8-0.7,2.7-2.4,4.3-3.8c1.3-1,2.4-2,2.6-2.2
			c0.2-0.2,1.9-1.7,3.8-3.2l5.8-4.8c1.5-1.3,6.1-5.1,10.5-8.8l3.4-2.8c1.8-1.5,3.2-2.6,4.2-3.5l-38-65.8
			c-19.9-34.5-33-56.9-37.9-65.2c-0.2,0.1-0.5,0.2-0.8,0.2c-2.7,0.8-5.5,1.7-6.1,1.8c-1.3,0.3-13.2,3.9-15.6,4.7
			c-1,0.3-2.8,0.9-4.6,1.4c-1.3,0.4-2.5,0.8-2.6,0.8l0,0C-1035.3,19369.6-1036.7,19370.1-1037.8,19370.3z"/>
		<path d="M-1244.2,19788.3v-15.4l-1.3-0.2c-0.7-0.1-4.1-0.4-7.5-0.8c-30.2-3-61-14.2-87-31.5c-20.9-13.8-39.6-32.6-53.5-53.5
			c-9.4-14.1-17.6-31-22.8-46.7c-14.5-43.8-13-90.7,4.2-133.3c1.2-3,3.3-7.7,4.6-10.6c1.4-2.9,2.5-5.3,2.5-5.4c0-0.1-6.6-4-14.6-8.6
			c-8-4.6-14.8-8.6-15-8.8c-0.4-0.2,0.3-1.8,5.4-10.6c3.3-5.6,6-10.2,6.1-10.2s7,3.8,15.2,8.6c8.2,4.8,15,8.6,15.2,8.6
			c0.1,0,1.4-1.8,3-3.8c13.1-18.5,30.7-35.4,49.8-48.2c14.1-9.4,31-17.6,46.7-22.8c39.8-13.1,82.1-13.1,122,0
			c15.8,5.2,32.7,13.4,46.7,22.8c19.4,12.9,36.6,29.6,50.2,48.7c1.8,2.5,3.3,4.5,3.4,4.5s6.7-3.8,14.8-8.5
			c8.1-4.7,14.9-8.6,15.1-8.7c0.3-0.2,1.8,2.1,6.3,10c5.3,9.1,5.8,10.2,5.4,10.6c-0.2,0.2-7,4.2-15.1,8.8c-8,4.6-14.6,8.6-14.6,8.6
			c0,0.1,1,2.2,2.2,4.8c16.6,34.5,22.2,76,15.7,114.5c-4.6,26.9-14.9,52.9-30,75.5c-12,18-27.4,34.2-44.9,47.4
			c-9.8,7.3-18.4,12.6-29.8,18.3c-21.1,10.6-43.3,17-65.8,19.3c-3.4,0.3-6.8,0.7-7.5,0.8l-1.3,0.2v15.4v15.4h-11.9h-11.9
			L-1244.2,19788.3L-1244.2,19788.3L-1244.2,19788.3z M-1244.2,19702.5v-34.6h-13.6c-7.9,0-13.5-0.1-13.5-0.2
			c0.3-0.9,39.5-76.7,39.6-76.7s39.3,75.8,39.6,76.7c0.1,0.2-5.8,0.2-14.1,0.2h-14.2v34.6v34.6h1.4c4.2,0,16.8-2.1,25.3-4.2
			c11.4-2.8,20.4-6.2,31.4-11.6c12.1-5.9,21.8-12.2,32.2-20.9c4.6-3.8,16.3-15.7,20.2-20.6c5.8-7.2,11.2-15,15.7-22.9
			c2.4-4.2,7.3-14.4,9.1-19.1c13.8-34.6,14.9-73.2,3.2-108.3c-2.6-8-7.4-19.4-8.1-19.4c-0.3,0-55.1,31.6-55.7,32.1
			c-0.3,0.3,0.6,2.2,6.2,11.8c3.7,6.3,6.6,11.5,6.6,11.8c0,0.3,0.2,0.3-6.9,0.6c-2.9,0.2-5.4,0.2-5.7,0.3c-0.2,0-3,0.2-6,0.2
			c-3,0.1-6.2,0.2-7,0.3c-0.8,0.1-3.5,0.2-6,0.3c-2.5,0.1-5,0.2-5.8,0.3c-0.7,0.1-3.7,0.2-6.6,0.3c-2.9,0.1-5.7,0.2-6.2,0.2
			s-3.3,0.2-6.1,0.3c-2.8,0.1-5.6,0.2-6.2,0.3c-0.6,0.1-3.6,0.2-6.7,0.3c-3.1,0.1-5.8,0.2-6.1,0.3c-1.1,0.2-11,0.5-11,0.3
			c0-0.2,8.5-13.4,18.9-29.5c10.3-16.1,20.9-32.4,23.4-36.2c4-6.2,4.5-7,4.9-6.5c0.2,0.3,3.4,5.8,7.2,12.2l6.8,11.8l0.9-0.6
			c0.5-0.3,13.1-7.6,28-16.2s27-15.8,27-15.9c0-0.5-4.4-6.4-8-10.8c-3.7-4.5-15.5-16.6-19.8-20.1c-6.6-5.4-13.8-10.6-21-15
			c-5-3-17-9-22.6-11.1c-37.8-14.9-79.3-14.9-117.1,0c-5.6,2.2-17.5,8.1-22.6,11.1c-7.2,4.3-14.6,9.5-21,15
			c-4.2,3.5-15.6,15-19.3,19.4c-3.4,4.1-8.2,10.4-8,10.6c0.1,0.1,12.2,7.1,27.1,15.7c14.9,8.6,27.4,15.8,27.9,16.2l1,0.6l6.5-11.3
			c3.6-6.2,6.6-11.5,6.9-11.8c0.3-0.5,0.6-0.2,2.2,2.4c1,1.6,3.7,5.8,5.9,9.2c2.2,3.4,5.5,8.6,7.4,11.5c3.2,5,13.4,20.9,16.1,25
			c0.7,1,3.7,5.8,6.7,10.5c3,4.7,6.2,9.6,7,11c0.9,1.4,1.6,2.6,1.6,2.8c0,0.2-0.7,0.2-2.3,0.2c-1.3-0.1-4.2-0.2-6.3-0.3
			c-2.2-0.1-5-0.2-6.2-0.3c-2.4-0.2-6.6-0.3-12.6-0.6c-2.1-0.1-4.7-0.2-6-0.3c-1.2-0.1-3.9-0.2-6-0.3c-3.8-0.2-7.2-0.3-12.5-0.6
			c-1.6-0.1-5.8-0.3-9.5-0.5c-3.6-0.2-7.8-0.3-9.4-0.5c-1.6-0.1-4.2-0.2-5.8-0.3c-7.3-0.3-9.6-0.6-9.6-0.7c0-0.1,3.1-5.6,7-12.2
			l7-12.1l-0.8-0.5c-2.6-1.7-55.2-31.9-55.4-31.9c-0.3,0-3.1,5.9-5.3,11.2c-8.7,21.4-12.6,45.9-11.2,68.9
			c1.7,26.5,9.8,51.7,23.8,74.3c3,5,7.8,11.4,11.9,16.6c3.9,4.8,15.7,16.8,20.2,20.6c10.5,8.7,20.2,15,32.2,20.9
			c11,5.4,20.1,8.8,31.4,11.6c8.6,2.2,20.2,4.1,24.9,4.2h1.7L-1244.2,19702.5L-1244.2,19702.5z"/>
	</g>
</g>
</svg>
