<?xml version="1.0" encoding="utf-8"?>
<!-- Generator: Adobe Illustrator 19.0.0, SVG Export Plug-In . SVG Version: 6.00 Build 0)  -->
<svg version="1.1" id="Capa_1" xmlns="http://www.w3.org/2000/svg" xmlns:xlink="http://www.w3.org/1999/xlink" x="0px" y="0px"
	 viewBox="-210 325.9 173.5 190" style="enable-background:new -210 325.9 173.5 190;" xml:space="preserve">
<g id="svgg">
	<path id="path0" d="M-132.6,342.9c-54,6.3-85.3,64.7-60.8,113.5c29.7,59.2,116,56.6,142.3-4.3C-27.3,396.8-72.7,336-132.6,342.9
		 M-118.2,343.6c17.6,3.7,26.2,24.4,16.3,39.4c-11.7,17.9-39.4,14-45.9-6.4C-153.6,358-137.1,339.6-118.2,343.6 M-135.3,344.9
		c-0.1,0.3-0.5,0.6-0.8,0.6s-0.7-0.3-0.8-0.6c-0.1-0.3,0.2-0.6,0.8-0.6C-135.5,344.3-135.2,344.5-135.3,344.9 M-109.7,344.9
		c-0.1,0.3-0.5,0.6-0.8,0.6s-0.7-0.3-0.8-0.6c-0.1-0.3,0.2-0.6,0.8-0.6S-109.6,344.5-109.7,344.9 M-137.5,345.7c0,1.1-1.2,1.7-1.9,1
		c-0.7-0.7-0.1-1.9,1-1.9C-137.8,344.7-137.5,345-137.5,345.7 M-107.1,345.9c0,1.4-1.8,1.2-2-0.2c-0.1-0.9,0-1,0.9-0.9
		C-107.5,344.9-107.1,345.3-107.1,345.9 M-140.7,346.1c1.5,1.5,0.6,3.2-1.6,3.2c-1.7,0-2.3-2.8-0.8-3.6
		C-141.9,345-141.7,345.1-140.7,346.1 M-103.6,345.7c1.6,0.8,1,3.6-0.7,3.6c-2,0-2.9-1.5-1.8-3.1
		C-105.4,345.1-104.9,345-103.6,345.7 M-145,348.1c2.3,2.3,0.8,6.2-2.4,6.2c-1.8,0-3.8-1.7-3.8-3.2
		C-151.2,347.7-147.3,345.8-145,348.1 M-97.6,347.5c2.3,1,2.6,4.7,0.6,6.1c-2.5,1.8-5.8,0-5.8-3
		C-102.8,347.8-100.2,346.3-97.6,347.5 M-151.9,350c0,0.6-0.4,1-1,1.1c-1,0.1-1.5-1.1-0.7-1.9C-153,348.5-151.9,349.1-151.9,350
		 M-92.8,350.1c0.1,0.8-0.1,1-0.8,1c-1.1,0-1.6-0.7-1.2-1.7C-94.4,348.5-93,348.9-92.8,350.1 M-153.2,352c5.4,2.5,6.5,8.9,2.2,12.9
		c-4.5,4.2-11.6,1.9-13-4.1C-165.4,354.7-158.8,349.4-153.2,352 M-86.9,352.3c1.6,0.8,2.6,1.7,3.4,3.1c4.5,8-6.1,15.9-12.4,9.2
		C-102,358.1-94.8,348.3-86.9,352.3 M-146.7,356.1c-0.2,1.1-1.1,1.1-1.6-0.1c-0.5-1-0.4-1.1,0.6-0.9
		C-147,355.3-146.6,355.6-146.7,356.1 M-98.3,355.8c-0.8,1.1-1.4,1.2-1.6,0.2c-0.1-0.4,0.3-0.8,0.9-0.9c0.6-0.1,1.1-0.2,1.2-0.3
		C-97.7,354.8-97.9,355.3-98.3,355.8 M-164.5,356.7c0.2,0.9-1.1,1.6-1.8,0.9s-0.1-2,0.9-1.8C-165,355.9-164.6,356.3-164.5,356.7
		 M-80,356.7c0.2,0.9-1.1,1.6-1.8,0.9s-0.1-2,0.9-1.8C-80.5,355.9-80.1,356.3-80,356.7 M-165.9,358.8c2.3,2,0.7,6.1-2.4,6.1
		c-1.4,0-3-1.9-3-3.4C-171.3,358.5-168,357-165.9,358.8 M-76.4,358.9c0.6,0.6,1,1.5,1,2.5c0,3.6-5.1,4.6-6.3,1.2
		C-82.8,359.2-78.9,356.5-76.4,358.9 M-172.2,361.3c-0.1,0.3,0.1,0.9,0.2,1.3c1,2.2-1.8,3.8-2.9,1.7c-0.6-1.1,0.4-2.7,1.7-2.7
		c0.4,0,0.5-0.2,0.4-0.5c-0.2-0.3-0.1-0.5,0.2-0.5C-172.4,360.7-172.2,361-172.2,361.3 M-72,362.5c1.1,1.3,0.2,2.9-1.5,2.7
		c-1.5-0.2-2-2.1-0.7-3C-73.1,361.5-72.9,361.5-72,362.5 M-163.6,364.3c-0.2,1-1,0.9-1.2-0.1c-0.1-0.4,0.2-0.7,0.6-0.7
		C-163.7,363.5-163.5,363.8-163.6,364.3 M-81.8,364.3c-0.2,1-1,0.9-1.2-0.1c-0.1-0.4,0.2-0.7,0.6-0.7
		C-82,363.5-81.7,363.8-81.8,364.3 M-175.4,365.3c0,0.6-0.3,0.9-0.9,0.9c-0.6,0-0.9-0.3-0.9-0.9c0-0.6,0.3-0.9,0.9-0.9
		C-175.7,364.4-175.4,364.7-175.4,365.3 M-69.4,365.3c0,0.6-0.3,0.9-0.9,0.9c-0.6,0-0.9-0.3-0.9-0.9c0-0.6,0.3-0.9,0.9-0.9
		C-69.7,364.4-69.4,364.7-69.4,365.3 M-164.2,365.8c14.4,2.6,22.3,18.6,15.6,31.7c-6.9,13.6-25.6,16-35.8,4.6
		C-198.3,386.7-184.6,362.1-164.2,365.8 M-149.8,366c0,0.4-0.2,0.7-0.5,0.7c-0.3,0-0.5-0.3-0.5-0.7c0-0.4,0.2-0.7,0.5-0.7
		C-150,365.3-149.8,365.6-149.8,366 M-95.9,366c0,0.4-0.2,0.7-0.5,0.7c-0.3,0-0.5-0.3-0.5-0.7c0-0.4,0.2-0.7,0.5-0.7
		C-96.1,365.3-95.9,365.6-95.9,366 M-74.6,365.8c10.3,1.9,18,11.2,18,21.7c0,19.5-23.5,29.3-37.3,15.6
		C-109.1,387.8-95.7,361.9-74.6,365.8 M-177.7,366.3c0,0.3-0.5,0.8-1.1,1.1c-1.3,0.6-1.4,0.5-0.4-0.8
		C-178.3,365.6-177.7,365.5-177.7,366.3 M-67.5,366.7c1.1,1.2,1,1.4-0.4,0.8c-0.6-0.3-1.1-0.8-1.1-1.1
		C-69,365.5-68.4,365.6-67.5,366.7 M-150.4,367.2c0.7,0.7,0.7,2.3,0,3c-1.2,1.2-3.6,0.3-3.6-1.3C-153.9,367.1-151.5,366-150.4,367.2
		 M-93.4,367.4c1.4,1.4,0.6,3.4-1.3,3.4c-0.5,0-1.2-0.2-1.5-0.5c-0.3-0.3-0.5-1-0.5-1.5C-96.8,366.8-94.8,366-93.4,367.4
		 M-154.4,368.3c0,0.4-0.2,0.7-0.4,0.7c-0.6,0-1-0.7-0.6-1.1C-154.9,367.4-154.4,367.6-154.4,368.3 M-91.3,368.3
		c0,0.2-0.2,0.5-0.5,0.6s-0.5-0.2-0.5-0.6c0-0.4,0.2-0.7,0.5-0.6S-91.3,368-91.3,368.3 M-149.5,371.7c0.3,0.6-0.7,1.4-1.3,1
		c-0.2-0.1-0.4-0.5-0.4-0.9C-151.2,371.1-150,371-149.5,371.7 M-95.4,371.9c0,0.4-0.2,0.8-0.4,0.9c-0.6,0.4-1.6-0.5-1.3-1
		C-96.6,371-95.4,371.1-95.4,371.9 M-190.5,384.7c0,0.4-0.4,0.7-0.9,0.7c-0.9,0-1.2-0.5-0.6-1.1C-191.4,383.8-190.5,384-190.5,384.7
		 M-54.5,384.8c0.1,0.3-0.2,0.6-0.8,0.6c-0.6,0-1-0.3-1-0.7C-56.2,383.8-54.7,384-54.5,384.8 M-144.4,385c-0.1,0.3-0.4,0.5-0.6,0.5
		c-0.2,0-0.5-0.2-0.6-0.5c-0.1-0.3,0.2-0.5,0.6-0.5C-144.6,384.5-144.3,384.7-144.4,385 M-101,385c-0.1,0.3-0.4,0.5-0.6,0.5
		c-0.2,0-0.5-0.2-0.6-0.5c-0.1-0.3,0.2-0.5,0.6-0.5C-101.2,384.5-100.9,384.7-101,385 M-191.6,386.1c0.9,0.4,0.9,2.3,0,2.7
		c-1.5,0.6-2.6-1.3-1.4-2.4C-192.5,385.8-192.6,385.8-191.6,386.1 M-142.8,386.9c0.4,0.6,0.3,0.9-0.2,1.5c-0.9,0.9-2.2,0.4-2.2-0.9
		C-145.2,385.8-143.7,385.5-142.8,386.9 M-102.1,386.1c0.9,0.4,0.9,2.3,0,2.7c-1.5,0.6-2.6-1.3-1.4-2.4
		C-102.9,385.8-103,385.8-102.1,386.1 M-53.2,386.9c0.4,0.6,0.3,1-0.3,1.5c-1,1-2.2,0.5-2.2-0.9C-55.7,385.8-54.2,385.4-53.2,386.9
		 M-143.4,389.5c3.7-2,7.7,3.1,5,6.5c-2.9,3.6-9.1,0.3-7.3-4c0.3-0.8,0.6-1.8,0.6-2.3c0-0.7,0.1-0.7,0.4-0.3
		C-144.5,389.9-144.2,389.9-143.4,389.5 M-103.1,389.6c0.7,0.4,1,0.4,1.3-0.1c0.3-0.4,0.4-0.4,0.4,0.3c0,0.5,0.2,1.6,0.6,2.3
		c1.7,4.3-4.5,7.6-7.3,4C-111,392.6-107,387.5-103.1,389.6 M-191.3,390c1.2,0.7,1.2,3.4,0,4.1c-1.9,1-4.1-0.1-4.1-2.1
		C-195.5,389.9-193.4,388.9-191.3,390 M-51.9,390.2c2.2,2.2-0.7,5.3-3.4,3.8c-1.2-0.6-1.2-3.4-0.1-4.1
		C-54.2,389.3-52.7,389.4-51.9,390.2 M-133.8,393.4c0.8,1,0,2.2-1.4,2.2s-2.2-1.3-1.4-2.2c0.3-0.4,1-0.7,1.4-0.7
		C-134.7,392.7-134.1,393-133.8,393.4 M-110,393.4c0.8,1,0,2.2-1.4,2.2c-1.4,0-2.2-1.3-1.4-2.2c0.3-0.4,1-0.7,1.4-0.7
		C-111,392.7-110.4,393-110,393.4 M-195.4,395c-0.8,0.8-1.7,0-1-0.8c0.4-0.5,0.7-0.5,1-0.2C-195,394.4-195,394.7-195.4,395
		 M-131.5,394.8c0,0.8-0.7,0.9-1.1,0.2c-0.4-0.6,0.2-1.5,0.7-1.1C-131.7,394-131.5,394.4-131.5,394.8 M-114.1,395.1
		c-0.7,0.7-1.2,0.2-0.8-0.8c0.2-0.6,0.4-0.7,0.8-0.2C-113.7,394.4-113.7,394.7-114.1,395.1 M-50.1,394.3c0.3,0.8-0.5,1.4-1.2,0.8
		c-0.5-0.5-0.1-1.5,0.5-1.5C-50.5,393.6-50.2,393.9-50.1,394.3 M-189.5,394.5c0,0.6-0.5,1-1,0.7c-0.5-0.3-0.1-1.1,0.6-1.1
		C-189.7,394.1-189.5,394.2-189.5,394.5 M-56.1,394.7c-0.1,0.5-0.7,0.4-0.9-0.1c-0.1-0.3,0.1-0.5,0.4-0.4
		C-56.3,394.2-56.1,394.5-56.1,394.7 M-190,396.2c1.6,0.9,2.8,3.8,2.4,5.5c-1.6,6.4-10.7,5.4-10.7-1.1
		C-198.2,396.5-193.7,394-190,396.2 M-118,396.5c7.7,3.6,9.8,13.4,4.2,19.7c-9,10.3-25.5,1.1-21.6-12.1
		C-133.3,397.2-124.7,393.4-118,396.5 M-50,397c2.8,2.8,1.8,7.2-1.9,8.8c-4.3,1.8-8.5-2.6-6.8-7C-57.2,395.1-52.7,394.3-50,397
		 M-131.1,396.6c0,0.4-0.3,0.7-0.7,0.7c-0.4,0-0.7-0.3-0.7-0.7c0-0.4,0.3-0.7,0.7-0.7C-131.4,395.9-131.1,396.2-131.1,396.6
		 M-114.2,396.6c0,0.4-0.3,0.7-0.7,0.7c-0.4,0-0.7-0.3-0.7-0.7c0-0.4,0.3-0.7,0.7-0.7C-114.5,395.9-114.2,396.2-114.2,396.6
		 M-145.1,397.3c0.7,1,0.1,2.2-1.1,2.2c-0.5,0-1.3,0.4-1.6,0.8c-0.5,0.7-0.7,0.7-1.2,0.2c-0.5-0.5-0.4-0.6,0.5-0.9
		c0.7-0.2,1-0.5,0.8-0.9C-148.4,397-146.1,395.7-145.1,397.3 M-133.6,396.6c0.9,0.4,0.9,2.4,0,2.8c-1.6,0.6-2.9-1.1-1.8-2.3
		C-134.6,396.3-134.6,396.3-133.6,396.6 M-111.2,397.1c1.2,1.2-0.1,2.9-1.8,2.3c-0.9-0.3-1-2.4-0.2-2.8
		C-112.2,396.3-112,396.3-111.2,397.1 M-99.1,397.2c0.3,0.5,0.4,1.2,0.2,1.5c-0.2,0.4,0.1,0.8,0.8,0.9c0.9,0.2,0.9,0.4,0.5,0.9
		c-0.5,0.5-0.7,0.4-1.2-0.2c-0.3-0.4-1.1-0.8-1.7-0.9c-0.8-0.1-1.2-0.5-1.3-1.2C-102,396.4-100,395.7-99.1,397.2 M-136.9,398.6
		c2,1.6,2,4.2-0.1,5.8c-1.2,0.9-3.2,0.7-4.4-0.5C-144.5,400.7-140.4,395.9-136.9,398.6 M-104.9,399.2c1.8,2.2,0.1,5.9-2.8,5.9
		c-1.8,0-3.9-2.4-3.5-4.1C-110.5,397.9-106.8,396.9-104.9,399.2 M-143.6,400.6c0.2,0.3,0.4,1,0.4,1.5c0,1.3-2.7,0.8-2.9-0.5
		C-146.3,400.3-144.3,399.4-143.6,400.6 M-101,400.4c1,0.7,0.4,2-1.1,2.4c-1.2,0.2-1.4,0.2-1.4-0.7
		C-103.4,400.3-102.4,399.5-101,400.4 M-146.7,401.9c-0.3,0.8-1.3,1-1.3,0.2c0-0.4,0.3-0.7,0.7-0.7
		C-146.9,401.4-146.6,401.6-146.7,401.9 M-98.6,402.1c0,0.8-1,0.7-1.3-0.2c-0.1-0.3,0.1-0.5,0.5-0.5
		C-99,401.4-98.6,401.7-98.6,402.1 M-184.8,403.7c0,1.3-1.9,1.9-2.3,0.7c-0.5-1.2,0.2-2.2,1.3-2C-185,402.5-184.8,402.8-184.8,403.7
		 M-59.6,403.7c0,0.8-0.3,1.2-1,1.3c-1.1,0.2-1.8-0.8-1.3-2C-61.5,401.7-59.6,402.3-59.6,403.7 M-198.2,403.9c0,0.4-0.3,0.7-0.7,0.7
		c-0.7,0-0.9-0.5-0.4-1.1C-198.8,403-198.2,403.2-198.2,403.9 M-143.3,404.1c12,4.5,8.8,22.4-4.1,22.4c-3.5,0-5.3-0.7-7.8-3
		C-164.7,415-155.2,399.7-143.3,404.1 M-93.6,404.9c10.5,5.7,6.4,21.6-5.6,21.6c-10.6,0-15.7-12.6-8.1-20
		C-103.6,403-98.2,402.4-93.6,404.9 M-47.1,404c0.1,0.3-0.1,0.5-0.5,0.5c-0.4,0-0.7-0.3-0.7-0.7C-48.4,403.1-47.4,403.2-47.1,404
		 M-196.4,406c1.1,1.1,1.1,1.3,0.2,2.6c-1.2,1.7-3.9,0.9-3.9-1.3C-200.1,405.3-197.9,404.5-196.4,406 M-47.3,405.8
		c1.4,1.4,0.4,3.9-1.6,3.9c-0.8,0-2.3-1.6-2.3-2.4C-51.1,405.7-48.4,404.6-47.3,405.8 M-180.8,406.7c10.3,3.6,13.4,17.3,5.6,25.1
		c-9.6,9.6-26,2.8-26-10.8C-201.2,410.4-190.9,403.1-180.8,406.7 M-136.6,406.2c0,0.9-0.9,1.4-1.5,0.8c-0.3-0.3-0.3-0.7-0.2-1
		C-137.7,405.3-136.6,405.4-136.6,406.2 M-108.5,406.4c0,1-1.3,0.8-1.5-0.2c-0.1-0.6,0.1-0.8,0.7-0.7
		C-108.8,405.7-108.5,406-108.5,406.4 M-54,407.4c13.3,6.3,10.5,26-4.1,28.7c-14.4,2.6-23.7-15.5-13.2-25.9
		C-66.8,405.6-60.1,404.5-54,407.4 M-160.2,409.6c-0.9,1.1-1.5,1.2-1.5,0.3c0-0.6,0.6-0.9,1.9-1.1
		C-159.6,408.7-159.8,409.1-160.2,409.6 M-85.4,409.2c0.2,0,0.4,0.3,0.4,0.7c0,1-0.6,0.9-1.6-0.3c-0.7-0.9-0.8-1-0.1-0.7
		C-86.1,409-85.6,409.2-85.4,409.2 M-198.9,410.8c0,0.5-0.4,0.9-0.8,1c-0.8,0.2-1.2-1.2-0.5-1.9
		C-199.7,409.4-198.9,409.9-198.9,410.8 M-171.4,410.7c0.2,1-1.3,1.6-1.8,0.7c-0.4-0.7,0.4-1.9,1.1-1.7
		C-171.7,409.8-171.4,410.3-171.4,410.7 M-162.2,410.5c1,1.9-1.1,2.5-2.7,0.7c-0.7-0.8-0.8-1.1-0.3-0.9c0.4,0.2,0.9,0.1,1-0.2
		C-163.7,409.3-162.7,409.5-162.2,410.5 M-82.4,410c0.1,0.2,0.6,0.3,1,0.1c0.5-0.2,0.4,0.2-0.4,1c-1.3,1.4-2.7,1.3-2.7-0.1
		C-84.5,409.7-83.1,409-82.4,410 M-73.7,410.1c0.6,0.6,0.3,1.8-0.6,1.8c-0.8,0-1.3-0.8-0.9-1.6C-74.9,409.5-74.3,409.4-73.7,410.1
		 M-46.2,410.9c0.1,0.6-0.1,1-0.5,1c-0.9,0-1.4-0.8-1-1.7C-47.4,409.3-46.4,409.7-46.2,410.9 M-166.1,411.1c2.4,2.2,1.2,5.8-2,5.8
		c-3.1,0-4.4-4-2-5.9C-168.5,409.8-167.5,409.8-166.1,411.1 M-76.6,411c2.4,1.9,1.1,5.9-2,5.9c-3.2,0-4.4-3.7-2-5.8
		C-79.1,409.8-78.1,409.8-76.6,411 M-159.2,411.2c-0.1,0.4-0.4,0.6-0.7,0.4c-0.6-0.4-0.5-1.1,0.3-1.1
		C-159.2,410.5-159.1,410.8-159.2,411.2 M-86.3,411c0,0.8-0.8,1-1.1,0.3c-0.2-0.4,0-0.7,0.4-0.7C-86.6,410.5-86.3,410.7-86.3,411
		 M-159.9,412.5c0.3,0.4,0.3,0.8,0.1,1.2c-0.2,0.4-0.3,0.8-0.2,1c0.1,0.2-0.3,0.1-0.9-0.2c-1.6-0.7-1.6-2.7,0-2.7
		C-160.7,411.9-160.2,412.2-159.9,412.5 M-84.6,413.1c0.1,0.6-0.2,1.1-1.1,1.5c-0.7,0.3-1.1,0.4-1,0.2c0.1-0.2,0-0.7-0.2-1
		c-0.5-0.8,0.3-1.9,1.3-1.7C-85,412.1-84.7,412.6-84.6,413.1 M-200.1,413.4c-0.7,1.4-0.8,1.4-0.8,0.1c0-0.7,0.3-1.2,0.6-1.2
		C-199.7,412.3-199.7,412.5-200.1,413.4 M-45.8,413.5c0,1.1,0,1.1-0.6,0.3c-0.8-1-0.8-1.5,0-1.5C-46,412.3-45.8,412.8-45.8,413.5
		 M-160.5,415.8c1.3,1.3,1.4,2.4,0.5,3.7c-0.4,0.5-0.6,1-0.5,1.1c0.6,0.6-3.3-0.3-4-0.9c-1.2-1.1-1-3.1,0.4-4.2
		C-162.6,414.4-161.9,414.4-160.5,415.8 M-82.5,415.6c2.2,1.7,1.1,5-1.6,5c-2.8,0-4-2.8-2-4.8C-84.7,414.4-84.1,414.4-82.5,415.6
		 M-133.8,416.5c0,0.2-0.3,0.4-0.7,0.4c-0.7,0-0.9-0.5-0.4-1.1C-134.5,415.5-133.8,415.9-133.8,416.5 M-111.4,416.5
		c0,0.2-0.3,0.4-0.7,0.4c-0.7,0-0.9-0.5-0.4-1.1C-112.2,415.5-111.4,415.9-111.4,416.5 M-168.1,418.1c0.5,0.6,0.5,0.8-0.2,1.5
		c-0.7,0.7-0.8,0.7-1.4-0.1C-170.8,418-169.2,416.7-168.1,418.1 M-131.7,418.5c1.6,2.4-2,4.8-3.6,2.5c-0.7-1.1-0.5-2.1,0.5-3
		C-133.7,417.1-132.5,417.3-131.7,418.5 M-111.8,417.9c1.1,0.9,1.3,2,0.5,3c-1.6,2.3-5.2-0.1-3.6-2.5
		C-114.1,417.3-112.9,417.1-111.8,417.9 M-76.8,418c0.9,1.1-0.6,2.6-1.6,1.6c-0.7-0.6-0.7-0.9-0.2-1.5
		C-77.8,417.2-77.4,417.2-76.8,418 M-165.4,420.2c0.2,0.9-1.1,1.6-1.8,0.9s-0.1-2,0.9-1.8C-165.9,419.4-165.5,419.8-165.4,420.2
		 M-79.3,419.9c0.3,0.9,0,1.6-0.9,1.6c-0.8,0-1.3-0.8-1-1.6C-80.8,419-79.6,419-79.3,419.9 M-158.5,420.6c0,0.2-0.3,0.4-0.7,0.4
		c-0.7,0-0.9-0.5-0.4-1.1C-159.2,419.6-158.5,420-158.5,420.6 M-129.3,420.3c0,0.4-0.3,0.7-0.7,0.7c-0.4,0-0.7-0.3-0.7-0.7
		c0-0.4,0.3-0.7,0.7-0.7C-129.6,419.7-129.3,420-129.3,420.3 M-116,420.3c0,0.4-0.3,0.7-0.7,0.7c-0.4,0-0.7-0.3-0.7-0.7
		c0-0.4,0.3-0.7,0.7-0.7C-116.3,419.7-116,420-116,420.3 M-86.8,420.6c0,0.2-0.3,0.4-0.7,0.4c-0.7,0-0.9-0.5-0.4-1.1
		C-87.5,419.6-86.8,420-86.8,420.6 M-157.1,423c8,5.3,3.2,18-6.5,17.1c-9.3-0.9-11.3-14.1-2.7-17.9
		C-163.7,421.1-159.5,421.4-157.1,423 M-135.6,422.2c0,0.4-0.3,0.7-0.7,0.7c-0.4,0-0.7-0.3-0.7-0.7c0-0.4,0.3-0.7,0.7-0.7
		C-136,421.5-135.6,421.8-135.6,422.2 M-118.9,422.8c5.7,4.1,2.6,13.5-4.4,13.5c-7.5,0-10.3-10-3.9-13.8
		C-124.8,421.1-121,421.3-118.9,422.8 M-109.6,422.2c0,0.4-0.3,0.7-0.7,0.7c-0.4,0-0.7-0.3-0.7-0.7c0-0.4,0.3-0.7,0.7-0.7
		C-109.9,421.5-109.6,421.8-109.6,422.2 M-80.5,422.2c3.6,1.5,5.6,4.6,5.6,8.8c0,8.1-9.3,12.2-15.4,6.8
		C-98.3,430.8-90.3,418.1-80.5,422.2 M-128.8,422.4c0,0.6-0.8,1-1.4,0.7c-0.3-0.2-0.3-0.5-0.2-0.7
		C-130,421.8-128.8,421.8-128.8,422.4 M-116.4,422.6c0,0.7-1.1,0.6-1.3-0.2c-0.1-0.4,0.1-0.6,0.6-0.5
		C-116.8,422.1-116.4,422.4-116.4,422.6 M-130.8,423.6c1.2,1.8-1.4,3.9-2.9,2.4c-0.8-0.8-0.7-2.5,0.3-3.1
		C-132.4,422.2-131.5,422.5-130.8,423.6 M-113.2,422.9c1,0.6,1.2,2.4,0.2,3.2c-1.6,1.4-4-0.9-2.7-2.6
		C-115,422.3-114.5,422.2-113.2,422.9 M-135,423.8c0.2,0.3,0,0.6-0.4,0.7c-0.9,0.3-1.4,0-0.9-0.7C-136,423.2-135.3,423.2-135,423.8
		 M-110.3,423.8c0.4,0.7-0.1,1-0.9,0.7c-0.4-0.2-0.6-0.5-0.4-0.7C-111.3,423.2-110.7,423.2-110.3,423.8 M-134.7,426.2
		c2.5,1.7,3.4,3.3,3.4,6.1c0,9-13.1,9.5-13.8,0.5C-145.5,427-139.3,423.1-134.7,426.2 M-104.9,426.2c4.7,2.7,4.5,10.1-0.4,12.4
		c-4.8,2.3-10.1-1-10.1-6.3C-115.3,426.7-109.7,423.4-104.9,426.2 M-148.8,428.1c0.5,1,0.4,1.3-0.4,2.1c-1.3,1.3-3.3,0.5-3.3-1.1
		C-152.5,426.8-149.7,426.1-148.8,428.1 M-94.5,427.6c0.8,0.9,0.2,2.8-1,3.2c-1.5,0.5-3-1.2-2.3-2.7
		C-97.2,426.8-95.5,426.5-94.5,427.6 M-146.7,428c-0.3,0.8-1.3,1-1.3,0.2c0-0.4,0.3-0.7,0.7-0.7C-146.9,427.4-146.6,427.7-146.7,428
		 M-98.6,428.1c0,0.8-1,0.7-1.3-0.2c-0.1-0.3,0.1-0.5,0.5-0.5C-99,427.4-98.6,427.7-98.6,428.1 M-145.6,429.3
		c-0.2,0.9-1.5,1.3-1.5,0.5c0-0.3,1.1-1.3,1.7-1.4C-145.4,428.3-145.4,428.7-145.6,429.3 M-99.6,429.7c0,0.8-1.3,0.4-1.5-0.5
		c-0.2-0.8-0.1-0.8,0.6-0.4C-100,429.1-99.6,429.5-99.6,429.7 M-199.3,429.8c0.2,0.3,0,0.7-0.3,0.9c-0.7,0.4-1.4-0.4-1-1
		C-200.4,429.1-199.7,429.2-199.3,429.8 M-45.9,429.6c0.4,0.7-0.5,1.7-1.1,1.2c-0.3-0.3-0.4-0.8-0.2-1
		C-46.9,429.2-46.3,429.1-45.9,429.6 M-146.4,432.2c0,1.2-0.2,1.4-1.4,1.4c-1.4,0-2-0.9-1.4-2.3
		C-148.6,429.9-146.4,430.7-146.4,432.2 M-97.5,432.2c0,1.2-0.2,1.4-1.4,1.4c-1.4,0-2-0.9-1.4-2.3
		C-99.8,429.9-97.5,430.7-97.5,432.2 M-197.6,432.1c0.4,0.6,0.3,1-0.3,1.5c-1.4,1.4-3.4-0.4-2.2-1.9
		C-199.3,430.9-198.3,431-197.6,432.1 M-151.2,432c0,0.2-0.3,0.4-0.7,0.4c-0.7,0-0.9-0.5-0.4-1.1C-151.9,431-151.2,431.4-151.2,432
		 M-94.1,432c0,0.2-0.3,0.4-0.7,0.4c-0.7,0-0.9-0.5-0.4-1.1C-94.8,431-94.1,431.4-94.1,432 M-46.4,432.1c0.4,0.6,0.3,1-0.3,1.5
		c-1.4,1.4-3.4-0.4-2.2-1.9C-48.1,430.9-47.1,431-46.4,432.1 M-173.9,432.6c-0.2,0.3-0.4,0.9-0.4,1.2c0,0.8-1.6,1.2-1.6,0.4
		c0-0.6,1.4-2.2,2-2.2C-173.7,432-173.7,432.2-173.9,432.6 M-71.7,432.8c0.5,0.4,0.9,1.1,0.9,1.4c0,0.8-1.6,0.5-1.6-0.4
		c0-0.4-0.2-0.9-0.4-1.2C-73.3,431.8-72.8,431.9-71.7,432.8 M-149.8,433.4c0,0.2-0.3,0.4-0.7,0.4c-0.7,0-0.9-0.5-0.4-1.1
		C-150.5,432.4-149.8,432.8-149.8,433.4 M-95.4,433.4c0,0.2-0.3,0.4-0.7,0.4c-0.7,0-0.9-0.5-0.4-1.1
		C-96.2,432.4-95.4,432.8-95.4,433.4 M-171.8,434.7c0.4,0.7,0.3,0.8-0.6,0.8c-0.6,0-1.1-0.4-1.1-0.8
		C-173.7,433.5-172.3,433.6-171.8,434.7 M-73.2,434.6c-0.1,0.5-0.6,0.8-1.2,0.9c-0.8,0-0.9-0.1-0.5-0.8
		C-74.3,433.6-72.9,433.5-73.2,434.6 M-193.7,435.5c1.2,1.5,1.2,2.5,0,4c-1.8,2.2-4.9,1.4-5.7-1.6
		C-200.1,434.9-195.7,433-193.7,435.5 M-146.7,435.1c5.5,2.8,3.7,11.5-2.4,11.5c-2.9,0-4.6-1-5.8-3.3
		C-157.6,438-152,432.4-146.7,435.1 M-128.8,434.9c0.7,0.9,0.2,2.1-0.9,2.1c-1,0-1.5-1-1.1-2.1
		C-130.6,434.1-129.5,434.1-128.8,434.9 M-115.8,435.7c0,0.8-0.3,1.2-1,1.3c-1.2,0.2-1.8-1.1-1-2
		C-116.9,433.9-115.8,434.3-115.8,435.7 M-94.8,434.9c3.2,1.3,4.6,4.9,3.1,8.2c-2.6,5.9-11.5,4.1-11.5-2.3
		C-103.2,436-99.1,433.1-94.8,434.9 M-48,435.5c1.1,1.4,0.9,2.9-0.3,4.4c-1.1,1.2-3.7,0.9-4.8-0.7C-55.6,435.9-50.5,432.2-48,435.5
		 M-175.8,435.5c2,1.8-0.2,5-2.6,3.9c-2.1-1-1.3-4.6,1.1-4.6C-176.9,434.7-176.2,435.1-175.8,435.5 M-67.9,435.3
		c1.4,1.1,1.2,3.2-0.3,4c-2.3,1.3-4.5-1.7-2.7-3.7C-70.1,434.6-69,434.5-67.9,435.3 M-190.6,436.8c0.1,0.2-0.3,0.7-0.9,1
		c-0.6,0.3-0.9,0.5-0.7,0.3c0.2-0.2,0.1-0.8-0.1-1.4c-0.4-1-0.3-1,0.6-0.7C-191.2,436.3-190.7,436.6-190.6,436.8 M-170.7,436.9
		c1,0.9,1,1.6,0.1,2.6c-1.7,1.7-4.3,0.1-3.6-2.2c0.2-0.6,0.3-1.1,0.3-1.3C-174,435.5-171.5,436.2-170.7,436.9 M-72.7,436
		c0,0.2,0.1,0.8,0.3,1.4c0.8,2.3-1.8,3.9-3.6,2.2c-1.3-1.3-0.3-3.1,2-3.5c0.6-0.1,1.2-0.2,1.3-0.3C-72.7,435.7-72.7,435.8-72.7,436
		 M-180.4,436.8c0,0.4-0.3,0.7-0.7,0.7c-0.7,0-0.9-0.5-0.4-1.1C-181,435.9-180.4,436.1-180.4,436.8 M-64.9,436.9
		c0.1,0.3-0.1,0.5-0.5,0.5c-0.4,0-0.7-0.3-0.7-0.7C-66.2,435.9-65.2,436.1-64.9,436.9 M-54.5,437.4c0,0.8-0.1,0.9-0.7,0.4
		c-0.4-0.3-0.8-0.6-0.9-0.7c-0.1-0.1,0-0.3,0.2-0.6C-55.5,435.8-54.6,436.3-54.5,437.4 M-182,437.9c5.7,2.6,7.7,9.1,4.6,14.4
		c-3.7,6.3-12.9,6.4-17.1,0.2C-199.7,444.5-190.7,433.9-182,437.9 M-121,437.7c3,1.6,3.5,5.5,0.8,7.7c-4.2,3.5-10.1-1.5-7.3-6
		C-126,437.1-123.5,436.4-121,437.7 M-56.1,438.3c9.9,5.1,5.6,19.5-5.5,18.7c-3.3-0.2-5.9-1.8-7.6-4.7
		C-74.4,443.5-65.1,433.6-56.1,438.3 M-128.4,438.1c0.7,0.8,0.2,1.6-0.9,1.6c-1,0-1.5-1.1-0.8-1.8
		C-129.4,437.3-129,437.3-128.4,438.1 M-116.6,438c0.7,0.7,0.2,1.8-0.8,1.8c-1.1,0-1.6-0.8-0.9-1.6
		C-117.6,437.3-117.3,437.3-116.6,438 M-131.5,439.5c3.5,1.8,3.8,6.5,0.5,8.2c-2.1,1.1-4,0.9-5.5-0.6
		C-140.3,443.4-136.2,437.1-131.5,439.5 M-111.2,439.5c4.7,2.2,2.8,9.3-2.4,8.8c-4.8-0.5-5.9-6.1-1.8-8.6
		C-113.6,438.7-113.1,438.6-111.2,439.5 M-140.4,440c0.3,0.9-0.6,2.1-1.5,1.7c-0.7-0.3-0.9-1.6-0.3-2.1
		C-141.7,439.1-140.7,439.3-140.4,440 M-104.2,440.5c0.1,0.5-0.2,1.1-0.5,1.2c-0.9,0.3-1.8-0.8-1.5-1.8
		C-105.8,438.9-104.4,439.3-104.2,440.5 M-175.4,440.9c0,0.4-0.3,0.7-0.7,0.7c-0.8,0-1.3-0.7-0.9-1.1
		C-176.4,440-175.4,440.2-175.4,440.9 M-173.6,441.1c0,1-0.7,1.2-1.1,0.5c-0.3-0.5,0.1-1.4,0.7-1.4
		C-173.8,440.2-173.6,440.6-173.6,441.1 M-163,442.3c6.4,6.9-3.4,16.3-10.1,9.7c-1.8-1.8-2.5-4.4-1.9-6.7
		C-173.6,440.2-166.7,438.4-163,442.3 M-73.7,442.1c6.2,6-1.4,15.5-8.7,11c-2-1.2-3.5-4.5-3.1-6.9
		C-84.7,440.6-77.7,438.2-73.7,442.1 M-71.9,441.1c0,0.3-0.3,0.7-0.6,0.8c-0.3,0.1-0.6-0.2-0.6-0.8s0.2-0.9,0.6-0.8
		C-72.2,440.4-71.9,440.8-71.9,441.1 M-69.7,440.9c0,0.2-0.3,0.5-0.7,0.6c-0.5,0.1-0.8-0.1-0.8-0.6
		C-71.2,440.1-69.9,440.1-69.7,440.9 M-159,441.3c0.4,0.5,0.4,0.9,0,1.6c-0.6,1.1-1.7,1.1-2.4-0.1
		C-162.4,441.2-160.2,439.8-159,441.3 M-156.2,441.4c0,0.4-0.2,0.7-0.5,0.7s-0.5-0.3-0.5-0.7c0-0.4,0.2-0.7,0.5-0.7
		S-156.2,441-156.2,441.4 M-85.1,441.4c0.3,0.9-0.4,2.2-1.4,2.4c-1,0.2-1.9-1.6-1.2-2.5C-86.9,440.4-85.4,440.5-85.1,441.4
		 M-196.2,442.5c0,0.8-0.3,1.1-0.9,1.1c-1.1,0-1.5-1.5-0.6-2.1C-196.8,440.9-196.2,441.3-196.2,442.5 M-48.9,441.5
		c0.8,0.5,0.5,2.1-0.5,2.3c-0.9,0.2-1.5-0.9-1.1-2C-50.2,441-49.8,441-48.9,441.5 M-138.8,443c0,0.6-0.3,0.9-0.9,0.9
		s-0.9-0.3-0.9-0.9c0-0.6,0.3-0.9,0.9-0.9S-138.8,442.3-138.8,443 M-106,443c0,0.6-0.3,0.9-0.9,0.9s-0.9-0.3-0.9-0.9
		c0-0.6,0.3-0.9,0.9-0.9S-106,442.3-106,443 M-155.8,443.8c0.2,1.3-1.1,1.9-2,0.9c-0.9-0.9-0.3-2.3,0.9-2.1
		C-156.3,442.7-155.9,443.1-155.8,443.8 M-88.4,443.2c0.3,0.9-0.5,2-1.4,2c-0.8,0-1.3-1.1-0.9-2.1
		C-90.4,442.3-88.8,442.3-88.4,443.2 M-138.5,445.9c2.9,3.3-0.8,8.3-4.9,6.6c-2.9-1.2-3.5-4.4-1.1-6.7
		C-142.6,443.9-140.3,443.9-138.5,445.9 M-102,445.9c1.7,1.7,1.9,2.8,0.9,4.8c-1.9,3.7-8,2.3-8-1.9
		C-109.2,444.7-104.9,443-102,445.9 M-152.3,447.2c4.6,4.6-1.9,11.5-6.8,7.2c-3.4-3-1.2-8.7,3.4-8.7
		C-154.2,445.7-153.5,446-152.3,447.2 M-127,446.4c0,0.4-0.3,0.7-0.7,0.7c-0.8,0-1.3-0.7-0.9-1.1C-127.9,445.4-127,445.7-127,446.4
		 M-118.2,446.4c0,0.2-0.3,0.5-0.7,0.6c-0.5,0.1-0.8-0.1-0.8-0.6C-119.7,445.6-118.3,445.6-118.2,446.4 M-87.6,447
		c3.4,3,1.2,8.7-3.4,8.7c-1.5,0-2.2-0.3-3.4-1.6C-99,449.6-92.4,442.7-87.6,447 M-148.5,448.3c-0.2,1.2-1.7,1.3-1.7,0.2
		c0-0.7,0.3-0.9,0.9-0.9C-148.7,447.5-148.4,447.8-148.5,448.3 M-121.5,448c2.2,1.2,1.9,4.6-0.6,5.9c-1.1,0.6-1.4,0.6-2.5,0
		C-128.7,451.6-125.7,445.7-121.5,448 M-96.4,448.5c0,1.2-1.5,1-1.7-0.2c-0.1-0.5,0.1-0.8,0.8-0.8
		C-96.7,447.5-96.4,447.8-96.4,448.5 M-126.9,448.7c0,0.7-1.1,0.6-1.3-0.2c-0.1-0.4,0.1-0.6,0.6-0.5
		C-127.3,448.1-126.9,448.4-126.9,448.7 M-118.3,448.4c0,0.6-0.8,1-1.4,0.7c-0.3-0.2-0.3-0.5-0.2-0.7
		C-119.5,447.8-118.3,447.9-118.3,448.4 M-135.3,449.3c0.1,0.3-0.2,0.5-0.8,0.5c-0.9,0-1.2-0.5-0.6-1.1
		C-136.3,448.3-135.5,448.6-135.3,449.3 M-128.2,449.7c0.9,0.8,1,4.9,0.1,5c-3.5,0.6-3.7,0.6-4.7-0.4
		C-136.1,451.3-131.6,446.8-128.2,449.7 M-113.6,449.9c1.1,1.3,1,3.3-0.2,4.5c-1,0.9-1.2,1-4.7,0.4c-0.7-0.1-0.8-4-0.2-4.8
		C-117.3,448.3-115,448.3-113.6,449.9 M-109.7,449.3c0.1,0.3-0.2,0.5-0.8,0.5c-0.9,0-1.2-0.5-0.6-1.1
		C-110.7,448.3-109.9,448.6-109.7,449.3 M-146.8,449.6c0.3,0.9-0.1,1.3-1,1c-0.4-0.2-0.6-0.6-0.4-1
		C-147.8,448.7-147.1,448.7-146.8,449.6 M-98.5,449.6c0.2,0.4,0,0.8-0.4,1c-0.9,0.3-1.3-0.1-1-1C-99.5,448.7-98.8,448.7-98.5,449.6
		 M-134.3,451.2c0,0.2-0.3,0.4-0.7,0.4c-0.7,0-0.9-0.5-0.4-1.1C-135,450.2-134.3,450.6-134.3,451.2 M-111,451.2
		c0,0.2-0.3,0.4-0.7,0.4c-0.7,0-0.9-0.5-0.4-1.1C-111.7,450.2-111,450.6-111,451.2 M-144.9,452.6c1.4,1.4,1.4,3.7-0.1,5.2
		c-3.2,3.2-8.1-1.4-5.2-5C-149,451.3-146.5,451.2-144.9,452.6 M-96.6,452.8c2.4,2.4,0.5,6.2-3,6.2c-1.4,0-3.2-2-3.2-3.7
		C-102.8,452-98.9,450.4-96.6,452.8 M-175.4,452.5c0,0.6-0.5,1-1,0.7c-0.5-0.3-0.1-1.1,0.6-1.1
		C-175.6,452.1-175.4,452.3-175.4,452.5 M-134.7,453c1.9,1.9,0.5,5-2.3,5c-1.3,0-3.2-1.7-3.2-3C-140.2,452.6-136.5,451.2-134.7,453
		 M-107.4,453.3c2.4,3-1.8,6.5-4.5,3.8c-1.9-1.9-0.5-5,2.3-5C-108.7,452.1-108,452.5-107.4,453.3 M-70.3,452.7
		c-0.1,0.5-0.7,0.4-0.9-0.1c-0.1-0.3,0.1-0.5,0.4-0.4C-70.5,452.3-70.3,452.5-70.3,452.7 M-172,454.8c0,0.8-0.3,1.2-1,1.3
		c-1.1,0.2-1.8-0.8-1.3-2C-173.8,452.9-172,453.5-172,454.8 M-162.7,454.8c0.1,0.7-0.1,1-0.8,1c-1.2,0-1.7-0.8-0.9-1.6
		C-163.7,453.2-162.9,453.5-162.7,454.8 M-142,454.1c0,0.4-0.2,0.7-0.4,0.7c-0.6,0-1-0.7-0.6-1.1C-142.6,453.2-142,453.4-142,454.1
		 M-103.6,454.1c0,0.2-0.2,0.5-0.5,0.6s-0.5-0.2-0.5-0.6c0-0.4,0.2-0.7,0.5-0.6C-103.8,453.6-103.6,453.9-103.6,454.1 M-82.2,454.1
		c0.7,0.8,0.2,1.6-0.9,1.6c-0.6,0-0.9-0.3-0.9-0.8C-84,453.4-83.1,453-82.2,454.1 M-72.4,454.8c0,0.8-0.3,1.2-1,1.3
		c-1.1,0.2-1.8-0.8-1.3-2C-74.3,452.9-72.4,453.5-72.4,454.8 M-175.5,455.2c0.2,1.4-0.5,2.1-1.7,1.7c-1.2-0.4-1.6-1.6-0.9-2.4
		C-177.2,453.5-175.6,454-175.5,455.2 M-160.1,455.1c0,0.5-0.4,0.9-0.8,1c-0.8,0.2-1.2-1.2-0.5-1.9
		C-160.8,453.7-160.1,454.2-160.1,455.1 M-85,455.2c0.1,0.6-0.1,1-0.5,1c-0.9,0-1.4-0.8-1-1.7C-86.2,453.6-85.2,454-85,455.2
		 M-68.5,454.5c1,1.2-0.9,3.2-2.2,2.3c-0.5-0.3-0.6-2.2-0.2-2.7C-70.4,453.7-69.1,453.9-68.5,454.5 M-165.4,455.8
		c0.8,0.5,1.8,1.6,2.2,2.5c2,4.9-4.1,9.4-8,5.8C-176,459.8-170.9,452.4-165.4,455.8 M-140.7,455.5c0,0.4-0.4,0.6-0.9,0.6
		c-0.7-0.1-0.8-0.2-0.4-0.7C-141.3,454.6-140.7,454.7-140.7,455.5 M-121.2,457c-0.1,3.9-4.1,4-4.2,0l-0.1-2.1h2.2h2.2L-121.2,457
		 M-104.7,455.4c0.4,0.4,0.3,0.6-0.4,0.7c-0.5,0-0.9-0.2-0.9-0.6C-106,454.7-105.3,454.6-104.7,455.4 M-75.8,455.9
		c5.4,3.7,0.4,11.8-5.5,8.8c-3.4-1.8-3.4-6.9,0-8.9C-79.2,454.6-77.7,454.6-75.8,455.9 M-152.9,456.7c-0.1,0.5-0.5,0.9-0.9,0.9
		c-0.9,0-0.8-1.3,0.2-1.5c0.4-0.1,0.8-0.2,0.9-0.3C-152.7,455.8-152.7,456.2-152.9,456.7 M-127.1,456.3c1.9,1.9-0.7,5.3-2.9,3.8
		c-2.1-1.4-1.3-4.4,1.1-4.4C-128.1,455.7-127.4,456-127.1,456.3 M-116.1,456.3c1.9,1.9-0.7,5.3-2.9,3.8c-2.1-1.4-1.3-4.4,1.1-4.4
		C-117.2,455.7-116.4,456-116.1,456.3 M-92.3,456.9c0,0.9-1.2,0.8-1.5-0.2c-0.2-0.7,0-0.8,0.6-0.6
		C-92.6,456.2-92.3,456.6-92.3,456.9 M-155.5,457.3c1.7,1.5,1.7,3.9,0.1,5.6c-3,3-7.9-0.1-6.4-4.1c0.4-1.1,0.4-1.5,0-1.8
		c-0.4-0.2-0.2-0.3,0.4-0.1c0.5,0.2,1.1,0.1,1.3-0.2C-159.5,455.8-156.8,456.2-155.5,457.3 M-85.7,457.6c2,2.4,1.4,5-1.3,6.2
		c-4,1.7-7.5-3.7-4.2-6.5C-89.3,455.7-87.2,455.8-85.7,457.6 M-190.6,457.2c-0.1,0.3-0.5,0.6-0.8,0.6c-0.3,0-0.7-0.3-0.8-0.6
		c-0.1-0.3,0.2-0.6,0.8-0.6C-190.8,456.7-190.5,456.9-190.6,457.2 M-139.8,457.6c1.7,1.7,0.4,4.6-2,4.6c-1.4,0-2.5-1.1-2.5-2.6
		C-144.3,457-141.6,455.8-139.8,457.6 M-103.1,457.4c1,0.9,1.1,3,0.1,4c-1,1-2.8,0.9-3.9-0.2C-109.3,458.8-105.7,455.1-103.1,457.4
		 M-54.5,457.2c-0.1,0.3-0.5,0.6-0.8,0.6c-0.3,0-0.7-0.3-0.8-0.6c-0.1-0.3,0.2-0.6,0.8-0.6C-54.7,456.7-54.3,456.9-54.5,457.2
		 M-176.9,458c5.8,3.5,3.3,12.3-3.5,12.3c-6.7,0-9.1-8.6-3.4-12.4C-182,456.8-178.8,456.8-176.9,458 M-151.2,457.8
		c0,0.4-0.2,0.6-0.5,0.5c-0.8-0.3-1-1.3-0.2-1.3C-151.5,457.1-151.2,457.4-151.2,457.8 M-94.2,457.7c-0.3,0.8-1.3,1-1.3,0.2
		c0-0.4,0.3-0.7,0.7-0.7S-94.1,457.4-94.2,457.7 M-62.9,457.9c5.8,3.4,3.4,12.5-3.3,12.4c-3.7,0-6.8-3-6.8-6.6
		C-73.1,458.8-67.2,455.4-62.9,457.9 M-187.4,458.1c1.2,1.2,0.3,3.6-1.3,3.6c-0.4,0-1.1-0.4-1.6-0.9
		C-191.9,458.9-189.1,456.3-187.4,458.1 M-56.1,458.7c0.4,0.9,0.4,1.3-0.3,2.1c-1.4,1.6-3.4,0.9-3.4-1.1
		C-59.8,457.4-57,456.7-56.1,458.7 M-131.9,459c0.7,1.2,0,3.1-1.3,3.4c-1.3,0.3-2.9-0.8-2.9-2.1C-136.1,458.3-132.9,457.3-131.9,459
		 M-111.2,458.7c0.9,0.9,0.9,2,0,3c-1.4,1.6-3.8,0.5-3.8-1.6C-115.1,458.1-112.7,457.3-111.2,458.7 M-148.4,459.7
		c1.8,1.7,0.5,5.2-2,5.2c-1.8,0-3.1-1.2-3.1-2.9C-153.5,459.3-150.3,457.9-148.4,459.7 M-94,459.7c1,0.9,1.1,3.2,0.1,4.3
		c-1.7,1.9-5.2,0.4-5.2-2.2C-99.1,459.3-95.9,458-94,459.7 M-146.2,459.8c0,0.6-0.5,1-1,0.7c-0.5-0.3-0.1-1.1,0.6-1.1
		C-146.3,459.4-146.2,459.6-146.2,459.8 M-99.5,460c-0.1,0.5-0.7,0.4-0.9-0.1c-0.1-0.3,0.1-0.5,0.4-0.4
		C-99.7,459.6-99.5,459.8-99.5,460 M-121.3,460.9c0.5,0,0.7,0.1,0.3,0.2c-0.3,0.1-0.6,0.7-0.6,1.3c0,1.4-1.5,2.3-2.7,1.6
		c-0.5-0.3-0.9-1-0.9-1.6c0-0.6-0.2-1.2-0.3-1.3c-0.2-0.1-0.1-0.1,0.2-0.1c0.3,0.1,0.8-0.1,1.1-0.3c0.4-0.2,1-0.3,1.3-0.1
		C-122.5,460.8-121.8,460.9-121.3,460.9 M-136.1,461.9c1.4,1.7-1.2,4.4-3,3c-0.8-0.7-0.9-2.3-0.1-3.1
		C-138.5,461-136.8,461.1-136.1,461.9 M-125.9,462.3c0.7,1.2-1.2,2.8-2.5,2.1c-0.9-0.5-1.2-2.2-0.5-2.9
		C-128.4,460.9-126.4,461.4-125.9,462.3 M-117.5,462.6c0.2,1.8-1,2.6-2.4,1.6c-0.6-0.4-1.1-1-1.1-1.3
		C-121,460.9-117.7,460.7-117.5,462.6 M-107.4,461.8c0.8,0.8,0.7,2.4-0.1,3.1c-1.7,1.4-4.4-1.2-3-3
		C-109.8,461.1-108.2,461-107.4,461.8 M-143.5,462.4c1.8,1.2,0.8,4.3-1.3,4.3c-1.3,0-2.8-1.7-2.4-2.9
		C-146.7,461.8-145.2,461.2-143.5,462.4 M-100.4,462.3c1.3,1,1.4,2.5,0.4,3.5c-1.1,1.1-2.2,1.2-3.3,0.2
		C-105.4,464-102.7,460.5-100.4,462.3 M-187.7,462.8c0,0.4-0.2,0.7-0.4,0.7c-0.6,0-1-0.7-0.6-1.1
		C-188.3,461.9-187.7,462.1-187.7,462.8 M-57.9,462.8c0,0.2-0.2,0.5-0.5,0.6c-0.3,0.1-0.5-0.2-0.5-0.6c0-0.4,0.2-0.7,0.5-0.6
		C-58.1,462.3-57.9,462.6-57.9,462.8 M-130.2,463.3c1.1,1.3-0.4,3.3-2,2.7c-1.7-0.6-1.1-3.4,0.7-3.4
		C-131.1,462.6-130.5,462.9-130.2,463.3 M-113.7,463.3c1.1,1.3-0.4,3.3-2,2.7c-1.7-0.6-1.1-3.4,0.7-3.4
		C-114.7,462.6-114,462.9-113.7,463.3 M-162.6,464.9c0,0.5-0.3,0.9-0.7,0.9c-0.7,0-0.9-1-0.4-1.5
		C-163.1,463.7-162.6,464-162.6,464.9 M-160.4,464.5c-0.3,0.8-1.3,1-1.3,0.2c0-0.4,0.3-0.7,0.7-0.7
		C-160.6,464-160.3,464.2-160.4,464.5 M-154.8,464.7c0,0.4-0.2,0.7-0.4,0.7c-0.6,0-1-0.7-0.6-1.1
		C-155.4,463.7-154.8,463.9-154.8,464.7 M-90.8,464.7c0,0.2-0.2,0.5-0.5,0.6c-0.3,0.1-0.5-0.2-0.5-0.6c0-0.4,0.2-0.7,0.5-0.6
		C-91,464.1-90.8,464.4-90.8,464.7 M-84.9,464.7c0,0.8-1,0.7-1.3-0.2c-0.1-0.3,0.1-0.5,0.5-0.5C-85.3,464-84.9,464.3-84.9,464.7
		 M-82.7,465c0.1,0.5-0.1,0.8-0.6,0.8c-0.4,0-0.7-0.4-0.7-1C-84,463.7-83,463.9-82.7,465 M-170.3,465.8c0.6,0,0.9,0.3,0.9,0.9
		c0,1.3-1.3,1.1-1.8-0.3c-0.4-1.2-0.6-2.3-0.1-1.2C-171.3,465.5-170.8,465.8-170.3,465.8 M-155.8,466.1c1.2,1.6,1.2,2.7-0.2,4.1
		c-2,2-5.3,0.6-5.3-2.1C-161.2,465.1-157.6,463.8-155.8,466.1 M-139.3,465.5c1.2,1.5-0.6,3.7-2.2,2.7c-1.6-1-1-3.4,0.8-3.4
		C-140.2,464.9-139.6,465.2-139.3,465.5 M-133.5,466.3c0.1,0.9-0.1,1.3-0.8,1.5c-1.7,0.5-2.9-1.2-1.7-2.4
		C-135,464.5-133.6,465-133.5,466.3 M-125.3,466.1c0,1.6-1.3,2.5-2.3,1.5c-1-1-0.4-2.1,1.1-2.4c0.7-0.1,1.2-0.2,1.2-0.3
		C-125.3,464.9-125.3,465.4-125.3,466.1 M-122.2,466.3c0,0.8-0.3,1.2-1,1.3c-1.1,0.2-1.8-0.8-1.3-2
		C-124,464.3-122.2,464.9-122.2,466.3 M-118.5,466.2c0.4,1.1-1,2.3-1.9,1.6c-1.4-0.9-1.1-2.8,0.4-2.5
		C-119.4,465.3-118.7,465.8-118.5,466.2 M-110.3,465.9c0.7,1.1-0.6,2.4-1.9,2c-0.9-0.3-1.3-2-0.6-2.7
		C-112.4,464.6-110.9,465.1-110.3,465.9 M-104.6,465.5c1.2,1.5-0.6,3.7-2.2,2.7c-1.6-1-1-3.4,0.8-3.4
		C-105.5,464.9-104.9,465.2-104.6,465.5 M-86.3,465.8c1.9,1.9,0.3,5.5-2.4,5.5c-1.1,0-3.1-2-3.1-3.1
		C-91.8,465.5-88.2,463.9-86.3,465.8 M-75.3,466.4c-0.5,1.4-1.9,1.6-1.9,0.3c0-0.6,0.3-0.9,0.9-0.9c0.5,0,0.9-0.2,0.9-0.5
		s0.1-0.4,0.2-0.3C-75,465.1-75.1,465.8-75.3,466.4 M-150.4,466c1,0.7,1.4,3.1,0.6,3.6c-0.2,0.1-0.4,0.5-0.3,0.8
		c0.1,0.3,0,0.4-0.1,0.2c-0.1-0.2-0.8-0.3-1.5-0.3c-2.5,0-3.6-2.4-1.8-4.1C-152.4,465.2-151.7,465.1-150.4,466 M-93.2,466.3
		c1.7,1.7,0.7,4.1-1.8,4.1c-0.7,0-1.4,0.2-1.5,0.3c-0.1,0.2-0.1,0.1-0.1-0.2c0.1-0.3-0.1-0.7-0.3-0.8c-0.8-0.5-0.5-2.9,0.6-3.6
		C-94.9,465.1-94.3,465.2-93.2,466.3 M-163,467.1c1.4,1.4,1.7,2.7,0.8,4.3c-1.9,3.6-7.2,2.4-7.2-1.7
		C-169.4,466.1-165.6,464.6-163,467.1 M-78.3,466.9c2.4,2.4,0.7,6.7-2.6,6.6c-3.6,0-5.2-3.9-2.7-6.4
		C-81.9,465.4-79.9,465.3-78.3,466.9 M-128.9,467.5c0.2,1.3-1.1,1.9-2.1,0.9c-0.6-0.6-0.6-0.8-0.1-1.5
		C-130.3,465.9-129.1,466.3-128.9,467.5 M-115.5,466.9c0.5,0.5,0.5,0.8,0,1.4c-1.1,1.4-2.8,0.3-2.1-1.4c0.1-0.4,0.6-0.7,0.9-0.7
		S-115.9,466.6-115.5,466.9 M-171.9,467.4c0.2,0.4,0,1-0.2,1.2c-0.6,0.6-2.2-0.7-1.7-1.5C-173.4,466.5-172.2,466.6-171.9,467.4
		 M-145.5,467.3c1.4,1,0.8,3.3-0.8,3.4c-2.2,0.3-3.2-1.6-1.6-3.1C-146.9,466.5-146.6,466.5-145.5,467.3 M-98.6,467.6
		c1.1,1.1,1.1,1.4,0.3,2.5c-1,1.4-3.3,0.8-3.4-0.8C-102,467-100.2,466.1-98.6,467.6 M-72.8,467.2c0.5,0.8-1,2.1-1.7,1.5
		c-0.3-0.3-0.4-0.8-0.2-1.2C-74.4,466.6-73.3,466.5-72.8,467.2 M-136.3,469c0,0.9-0.3,1.2-1.3,1.3c-1.2,0.1-1.9-1.4-0.9-2.4
		C-137.8,467.1-136.3,467.9-136.3,469 M-107.9,469.1c0.1,1.1,0,1.3-1,1.3c-1.3,0-1.9-0.9-1.4-2.1C-109.9,467-108,467.7-107.9,469.1
		 M-131.8,469.2c0,1.1-1.5,1.5-2.1,0.6c-0.5-0.8,0.4-1.9,1.4-1.7C-132.1,468.3-131.8,468.7-131.8,469.2 M-112.9,468.6
		c0.7,0.7,0.2,1.8-0.8,1.8c-1,0-1.5-0.7-1.2-1.6C-114.6,468-113.6,467.9-112.9,468.6 M-141.7,469.1c1.5,1.5-0.3,3.7-2,2.5
		c-0.7-0.5-0.8-0.8-0.3-1.8C-143.4,468.4-142.6,468.2-141.7,469.1 M-125.2,469.6c0.2,1-1.3,1.6-1.8,0.7c-0.4-0.7,0.4-1.9,1.1-1.7
		C-125.6,468.8-125.3,469.2-125.2,469.6 M-122.4,469.4c0,0.6-0.3,0.9-0.9,0.9s-0.9-0.3-0.9-0.9c0-0.6,0.3-0.9,0.9-0.9
		S-122.4,468.8-122.4,469.4 M-119.6,468.9c0,0.2,0.1,0.8,0.1,1.3c0.1,0.7-0.1,0.9-0.7,0.7c-1.1-0.3-1.4-0.9-1.1-1.7
		C-121.1,468.5-119.7,468.3-119.6,468.9 M-102.7,469.7c0.5,1,0.4,1.3-0.3,1.8c-1.7,1.2-3.5-1-2-2.5
		C-104.1,468.2-103.2,468.4-102.7,469.7 M-170.9,470.6c3.5,2.9,1.5,7.9-3.1,8c-1.5,0-2.2-0.3-3.1-1.1
		C-181.3,473.2-175.5,466.7-170.9,470.6 M-128,470.5c-0.1,0.6-0.5,1-0.8,1c-0.4,0-0.8-0.5-0.8-1c-0.1-0.8,0.1-1,0.8-1
		C-128,469.4-127.9,469.7-128,470.5 M-117,470.5c-0.1,0.6-0.5,1-0.8,1c-0.4,0-0.8-0.5-0.8-1c-0.1-0.8,0.1-1,0.8-1
		C-117.1,469.4-116.9,469.7-117,470.5 M-69.7,470.6c3.2,3,1.4,8-3,8c-4.6,0-6.5-5-3.1-8C-73.9,469.1-71.4,469-69.7,470.6
		 M-134.3,470.6c0.5,0.6,0.5,0.8-0.1,1.4c-0.8,0.8-1.7,0.5-1.7-0.7C-136.1,469.8-135.2,469.5-134.3,470.6 M-110.6,471
		c0.3,1.3-0.7,1.9-1.6,1.1c-0.6-0.6-0.7-0.9-0.2-1.5C-111.6,469.7-110.8,469.9-110.6,471 M-138.7,471.1c0.9,0.9,0.5,2-0.7,2
		c-1.1,0-1.6-1.2-0.8-2.1C-139.5,470.2-139.5,470.2-138.7,471.1 M-106.1,472.4c-0.3,0.9-1.9,0.9-2.3,0c-0.1-0.4,0.1-1,0.5-1.4
		C-107,470.1-105.6,471.2-106.1,472.4 M-159.4,472c0,0.9-0.8,0.8-1-0.2c-0.2-0.6,0-0.8,0.4-0.6C-159.7,471.3-159.4,471.7-159.4,472
		 M-130.2,471.5c0,0.4-0.3,0.8-0.7,1c-0.9,0.3-1.8-0.5-1.4-1.2C-131.8,470.6-130.2,470.7-130.2,471.5 M-114.4,471.7
		c0,1-1.8,0.9-2-0.2c-0.1-0.6,0.1-0.8,0.9-0.7C-114.9,471-114.4,471.4-114.4,471.7 M-86.2,471.7c-0.1,0.5-0.4,0.9-0.6,0.9
		c-0.6,0-0.5-1.3,0.2-1.5c0.3-0.1,0.6-0.2,0.6-0.3C-86,470.8-86,471.2-86.2,471.7 M-179.1,472.3c0.1,0.4-0.2,0.9-0.6,1.1
		c-0.9,0.4-2.1-0.6-1.8-1.5C-181.1,471-179.3,471.3-179.1,472.3 M-150.4,471.8c1.5,1.5-0.2,4-2.2,3.3c-1.1-0.4-1.7-2.3-0.9-3.2
		C-152.8,471.1-151.1,471.1-150.4,471.8 M-124.9,472.2c0,0.4-0.4,0.7-0.8,0.8c-0.8,0.2-1.1-0.8-0.5-1.4
		C-125.7,471.1-124.9,471.5-124.9,472.2 M-122.5,472.1c-0.1,0.4-0.5,0.8-0.8,0.8c-0.4,0-0.7-0.4-0.8-0.8c-0.1-0.6,0.1-0.8,0.8-0.8
		S-122.4,471.5-122.5,472.1 M-120.2,472.3c0.1,0.4-0.1,0.8-0.5,0.8c-0.8,0-1.4-0.7-1-1.4C-121.3,471-120.4,471.4-120.2,472.3
		 M-93.2,472c1.4,1.7-1.2,4.4-3,3c-0.8-0.7-0.9-2.3-0.1-3.1C-95.5,471.1-93.8,471.1-93.2,472 M-65.1,471.9c0.3,0.8-0.8,1.8-1.7,1.5
		c-0.7-0.3-0.9-1.3-0.4-1.8C-66.7,471-65.4,471.3-65.1,471.9 M-160.9,472.9c-0.4,0.4-1.3-0.3-1-0.8c0.2-0.3,0.4-0.3,0.8,0
		C-160.8,472.4-160.7,472.8-160.9,472.9 M-155.1,472.4c1.8,1.8-0.3,5-2.7,3.9c-0.6-0.3-1.2-1-1.4-1.7
		C-159.8,472.4-156.8,470.8-155.1,472.4 M-145.8,472.5c0.4,1-0.4,2.1-1.7,2.5c-1.1,0.3-1.8-1.5-1.1-2.8
		C-148.2,471.4-146.1,471.7-145.8,472.5 M-142.5,473.8c0,0.6-0.3,1.2-0.8,1.3c-1.1,0.4-2.2-0.8-1.7-1.9c0.2-0.5,0.3-1,0.3-1.2
		c0-0.2,0.4-0.1,1.1,0.2C-142.9,472.6-142.5,473.2-142.5,473.8 M-127,472.9c0,0.4-0.4,0.7-0.9,0.7c-1,0-1.3-1.2-0.3-1.5
		C-127.5,471.8-127,472.1-127,472.9 M-117.8,472.9c0,0.3-0.4,0.6-0.9,0.6c-0.9,0-1.2-0.9-0.6-1.5
		C-118.9,471.6-117.8,472.2-117.8,472.9 M-101.9,472.1c0,0.2,0.1,0.7,0.3,1.2c0.5,1.1-0.7,2.3-1.7,1.9c-1.1-0.4-1-2.2,0.3-2.8
		C-101.8,471.7-101.8,471.7-101.9,472.1 M-97.9,473.6c0,1.6,0,1.6-1.1,1.3c-2.4-0.6-2.6-3.4-0.2-3.1
		C-98.1,471.9-98,472.2-97.9,473.6 M-87.9,472.6c1.1,1.2,0.6,3.1-0.9,3.8c-2.4,1.1-4.6-2.1-2.7-3.9
		C-90.6,471.5-88.9,471.5-87.9,472.6 M-84.9,472.8c-0.6,0.6-1.2,0.1-0.7-0.6c0.2-0.3,0.5-0.4,0.8-0.2
		C-84.6,472.2-84.6,472.5-84.9,472.8 M-136.2,472.7c0.7,0.7,0.2,1.8-0.8,1.8c-0.5,0-0.9-0.3-0.9-0.8
		C-137.9,472.2-137.1,471.8-136.2,472.7 M-132.4,473.1c0,0.5-0.2,1-0.4,1.1c-0.7,0.4-1.6-0.5-1.3-1.3
		C-133.7,471.9-132.4,472-132.4,473.1 M-112.4,473.2c0.1,0.5-0.1,0.8-0.8,0.8s-0.9-0.3-0.9-0.9C-114.2,471.9-112.7,472-112.4,473.2
		 M-108.8,473.5c0.1,0.7-0.1,1-0.8,1c-1.1,0-1.6-1.1-0.9-1.8C-109.7,472-109,472.3-108.8,473.5 M-129.3,473.8c0,0.4-0.3,0.7-0.7,0.7
		c-0.8,0-1.3-0.7-0.9-1.1C-130.2,472.8-129.3,473.1-129.3,473.8 M-115.9,473.8c0,0.2-0.3,0.5-0.7,0.6c-0.5,0.1-0.8-0.1-0.8-0.6
		C-117.4,473-116,473-115.9,473.8 M-160.7,474.1c1.3,1,1.4,2.8,0.3,4.1c-1.8,2.2-5,1-5-1.9C-165.3,474.1-162.5,472.7-160.7,474.1
		 M-139.8,474.5c0,1.1-1.3,1.7-1.8,0.9c-0.5-0.9,0-1.8,1-1.8C-140.1,473.6-139.8,473.9-139.8,474.5 M-124.7,474.2
		c0,0.4-0.3,0.7-0.7,0.7c-0.7,0-0.9-0.5-0.4-1.1C-125.2,473.3-124.7,473.5-124.7,474.2 M-122.6,474c0.3,0.5-0.5,1.1-1.1,0.7
		c-0.5-0.3-0.2-1.1,0.5-1.1C-123.1,473.6-122.8,473.8-122.6,474 M-120.7,474.4c0.1,0.3-0.1,0.5-0.5,0.5c-0.4,0-0.7-0.3-0.7-0.7
		C-121.9,473.4-121,473.5-120.7,474.4 M-104.9,474.2c0.4,0.9-0.4,1.8-1.2,1.5c-1.1-0.4-0.9-2.1,0.1-2.1
		C-105.5,473.6-105,473.8-104.9,474.2 M-82.3,474.3c2.1,1.4,0.7,5.2-1.9,5.2c-1.5,0-3.1-2.1-2.8-3.6
		C-86.5,473.7-84.3,472.9-82.3,474.3 M-165.8,474.7c0,0.4-0.2,0.7-0.4,0.7c-0.6,0-1-0.7-0.6-1.1C-166.3,473.8-165.8,474-165.8,474.7
		 M-134,475c0,0.4-0.4,0.7-0.8,0.8c-0.8,0.2-1.1-0.8-0.5-1.4C-134.9,473.8-134,474.2-134,475 M-132.2,476.1c-1,1-1.4,1.1-1.8,0.7
		c-0.4-0.4-0.3-0.6,0.4-0.8c0.5-0.1,1.1-0.7,1.2-1.2c0.2-0.8,0.4-0.9,0.8-0.4C-131,474.8-131.2,475.2-132.2,476.1 M-126.5,475
		c0,0.2-0.3,0.4-0.7,0.4c-0.7,0-0.9-0.5-0.4-1.1C-127.2,474-126.5,474.4-126.5,475 M-118.7,475c0,0.2-0.3,0.4-0.7,0.4
		c-0.7,0-0.9-0.5-0.4-1.1C-119.5,474-118.7,474.4-118.7,475 M-114.2,475.2c0,0.4,0.3,0.7,0.7,0.7c0.4,0,0.7,0.2,0.7,0.4
		c0,0.2,0.5,1,1.1,1.7c1.2,1.3,1.5,2.2,0.7,1.9c-0.3-0.1-0.5-0.3-0.5-0.5s-0.9-1.2-2.1-2.4c-1.2-1.1-2-2.2-1.8-2.5
		C-114.9,473.9-114.2,474.3-114.2,475.2 M-111.1,475.1c0.1,0.4-0.1,0.8-0.5,0.8c-0.8,0-1.4-0.7-1-1.4
		C-112.2,473.8-111.2,474.2-111.1,475.1 M-79.9,474.7c0,0.2-0.2,0.5-0.5,0.6c-0.3,0.1-0.5-0.2-0.5-0.6c0-0.4,0.2-0.7,0.5-0.6
		C-80.1,474.2-79.9,474.5-79.9,474.7 M-137.5,475.8c0,0.5-0.3,0.9-0.7,0.9c-0.8,0-1.3-0.8-0.9-1.4
		C-138.6,474.6-137.5,474.9-137.5,475.8 M-128.3,475.3c0,0.5-2.3,2-2.6,1.7c-0.4-0.4,0.3-1.3,0.8-1c0.2,0.1,0.5-0.1,0.6-0.4
		C-129.3,474.9-128.3,474.7-128.3,475.3 M-117.1,475.6c0.1,0.4,0.4,0.6,0.6,0.4c0.4-0.2,1.1,0.6,0.8,0.9c-0.4,0.4-2.6-0.9-2.6-1.5
		C-118.3,474.7-117.4,474.8-117.1,475.6 M-107.4,475.7c0.3,0.8-1.3,1.3-1.7,0.5c-0.2-0.3-0.3-0.8-0.1-1
		C-109,474.7-107.7,475-107.4,475.7 M-167.4,475.8c0.3,0.5-0.5,1.1-1.1,0.7c-0.5-0.3-0.2-1.1,0.5-1.1
		C-167.9,475.4-167.6,475.6-167.4,475.8 M-146.9,475.7c0.9,0.4,0.9,2.3,0,2.7c-1.5,0.6-2.6-1.3-1.4-2.4
		C-147.7,475.3-147.8,475.3-146.9,475.7 M-122.9,476.1c0,0.4-0.2,0.7-0.5,0.7c-0.3,0-0.5-0.3-0.5-0.7c0-0.4,0.2-0.7,0.5-0.7
		C-123.1,475.4-122.9,475.7-122.9,476.1 M-98,476.4c0.4,0.6,0.3,0.9-0.2,1.5c-0.9,0.9-2.2,0.4-2.2-0.9
		C-100.5,475.3-98.9,475-98,476.4 M-77.9,475.8c0.3,0.5-0.5,1.1-1.1,0.7c-0.5-0.3-0.2-1.1,0.5-1.1C-78.3,475.4-78,475.6-77.9,475.8
		 M-154,476.4c-0.1,0.3,0.1,1,0.4,1.5c1,1.4,0.1,3-1.7,3c-2.1,0-2.2-3.4-0.2-3.9c0.6-0.2,1.1-0.5,1.1-0.7c0-0.2,0.1-0.4,0.3-0.4
		S-153.9,476.1-154,476.4 M-149.8,476.5c1,1.1,0.4,2.3-1.1,2.3c-1.4,0-2-0.9-1.4-2.3C-152,475.7-150.5,475.7-149.8,476.5
		 M-143.2,477c0,1.4-1.8,1.2-2-0.2c-0.1-0.9,0-1,0.9-0.9C-143.5,476-143.2,476.4-143.2,477 M-135.5,476.2c0.4,0.7-0.5,1.7-1.1,1.2
		c-0.3-0.3-0.4-0.8-0.2-1C-136.5,475.8-135.8,475.7-135.5,476.2 M-109.8,476.3c0.2,0.3,0.1,0.7-0.2,1c-0.6,0.6-1.6-0.4-1.1-1.2
		C-110.8,475.7-110.2,475.8-109.8,476.3 M-101.4,476.8c0,1.1-1.2,1.7-1.9,1c-0.7-0.7-0.1-1.9,1-1.9
		C-101.7,475.8-101.4,476.1-101.4,476.8 M-94.3,477.4c0,1.2-0.2,1.4-1.4,1.4c-1.5,0-2.1-1.2-1.1-2.3
		C-95.8,475.3-94.3,475.9-94.3,477.4 M-91,476.9c1.9,0.6,1.7,3.9-0.3,3.9c-1.8,0-2.7-1.6-1.7-3c0.3-0.5,0.5-1.2,0.4-1.6
		c-0.1-0.5-0.1-0.5,0.2-0.2C-92.2,476.4-91.6,476.8-91,476.9 M-140.7,477.2c0,0.5-0.2,1-0.4,1.1c-0.7,0.4-1.6-0.5-1.3-1.3
		C-142,476-140.7,476.1-140.7,477.2 M-104.3,477c0.3,0.8-0.7,1.7-1.3,1.3c-0.2-0.1-0.4-0.6-0.4-1.1C-106,476.1-104.7,476-104.3,477
		 M-166.3,477.9c2.9,2.1,1.7,6.1-1.9,6.1c-2.8,0-4.1-4.1-1.8-5.9C-168.6,477-167.7,477-166.3,477.9 M-138.4,477.8
		c0,0.3-0.2,0.8-0.3,0.9c-0.2,0.2-0.3,0.7-0.3,1.1c0,0.4-0.3,0.8-0.6,0.9c-0.7,0.2-0.8-1.1-0.2-1.5c0.2-0.1,0.3-0.7,0.2-1.2
		c-0.2-0.6,0-0.9,0.5-0.9C-138.7,477.2-138.4,477.5-138.4,477.8 M-133.8,477.7c0,0.3-0.3,0.6-0.7,0.7c-0.4,0.1-0.6,0.4-0.4,0.6
		s0,0.5-0.3,0.7c-0.9,0.5-1-0.1-0.2-1.3C-134.6,477.2-133.8,476.8-133.8,477.7 M-130,478.8c-0.5,0.3-1,0.5-1.3,0.3
		c-0.2-0.1-0.1-0.4,0.2-0.5c0.4-0.1,0.9-0.5,1.1-0.9c0.3-0.5,0.5-0.6,0.6-0.1C-129.2,477.9-129.5,478.5-130,478.8 M-115.6,478.6
		c0.3,0,0.4,0.2,0.3,0.4c-0.4,0.6-2.1-0.5-2-1.4c0-0.6,0.1-0.5,0.6,0.1C-116.4,478.2-115.9,478.6-115.6,478.6 M-107,478.1
		c-0.1,0.5-0.1,1,0.2,1.2c0.6,0.4,0.5,1.7-0.2,1.5c-0.3-0.1-0.6-0.5-0.6-0.9c0-0.4-0.2-0.9-0.3-1.1c-0.6-0.6-0.4-1.6,0.4-1.6
		C-107,477.2-106.8,477.5-107,478.1 M-76.6,478.2c3.1,2.4,0.1,7-3.6,5.6c-1-0.4-2.1-2.7-1.8-3.7C-80.9,477.4-78.6,476.5-76.6,478.2
		 M-136.6,478.8c0,0.4-0.2,0.7-0.4,0.7c-0.6,0-1-0.7-0.6-1.1C-137.1,477.9-136.6,478.1-136.6,478.8 M-133,479.2
		c-0.4,0.3-0.7,0.7-0.7,0.9c-0.1,0.6-0.6,1-0.6,0.4c0-0.9,1.1-2.3,1.5-2C-132.5,478.6-132.6,478.9-133,479.2 M-112.4,480.3
		c0,0.3-0.2,0.5-0.4,0.3c-0.3-0.2-0.4-0.5-0.2-0.7c0.1-0.2-0.1-0.5-0.5-0.7c-0.4-0.2-0.6-0.5-0.4-0.8
		C-113.6,478-112.4,479.4-112.4,480.3 M-109.1,478.8c0,0.2-0.2,0.5-0.5,0.6c-0.3,0.1-0.5-0.2-0.5-0.6c0-0.4,0.2-0.7,0.5-0.6
		C-109.3,478.3-109.1,478.6-109.1,478.8 M-143.5,479.9c0.1,0.6-0.1,1-0.5,1c-0.9,0-1.4-0.8-1-1.7
		C-144.7,478.2-143.7,478.7-143.5,479.9 M-101.6,479.8c0,0.5-0.4,0.9-0.8,1c-0.8,0.2-1.2-1.2-0.5-1.9
		C-102.4,478.3-101.6,478.8-101.6,479.8 M-157.8,479.8c2.2,2.2-0.7,5.2-3,3.1c-1-0.9-1-1.5-0.1-2.8
		C-160.1,478.9-158.8,478.7-157.8,479.8 M-145.9,480.2c0,1.4-1.8,1.2-2-0.2c-0.1-0.9,0-1,0.9-0.9
		C-146.3,479.2-145.9,479.6-145.9,480.2 M-141,479.3c0.4,0.4-0.6,1.6-1.1,1.3c-0.6-0.4-0.5-1.6,0.2-1.6
		C-141.6,479-141.1,479.2-141,479.3 M-104.1,479.6c0,0.3-0.1,0.7-0.3,0.9c-0.4,0.4-1.6-0.6-1.3-1.1
		C-105.3,478.8-104.1,479-104.1,479.6 M-98.6,480c0,1.1-1.2,1.7-1.9,1c-0.7-0.7-0.1-1.9,1-1.9C-98.9,479-98.6,479.3-98.6,480
		 M-85.6,480.2c0.7,1.1,0.7,1.2,0,2.3c-1.3,1.9-3.9,1.3-3.9-1C-89.5,479.1-86.9,478.3-85.6,480.2 M-172.2,480.2
		c0,0.4-0.3,0.7-0.7,0.7c-0.4,0-0.7-0.3-0.7-0.7c0-0.4,0.3-0.7,0.7-0.7C-172.5,479.5-172.2,479.8-172.2,480.2 M-148.9,480.3
		c0.6,1.1,0,2.1-1.1,1.8c-1-0.2-1.4-1.7-0.6-2.3C-149.7,479.3-149.4,479.4-148.9,480.3 M-131.5,479.8c0,0.3-1.2,1.6-1.6,1.6
		c-0.1,0,0-0.4,0.3-0.9C-132.3,479.6-131.5,479.2-131.5,479.8 M-113.5,481.2c-0.2,0.2-1.6-1.1-1.6-1.5c0-0.2,0.4,0,0.9,0.5
		C-113.7,480.6-113.4,481.1-113.5,481.2 M-96,479.9c0.9,0.5,0.5,2.1-0.6,2.3c-1.1,0.2-1.7-0.8-1.1-1.8
		C-97.2,479.4-96.9,479.3-96,479.9 M-73.1,480.2c0,0.4-0.3,0.7-0.7,0.7c-0.4,0-0.7-0.3-0.7-0.7c0-0.4,0.3-0.7,0.7-0.7
		C-73.4,479.5-73.1,479.8-73.1,480.2 M-137,480.4c0,0.3-0.3,0.5-0.7,0.5s-0.7-0.2-0.7-0.5c0-0.3,0.3-0.5,0.7-0.5
		S-137,480.2-137,480.4 M-108.2,480.4c0,0.3-0.3,0.5-0.7,0.5s-0.7-0.2-0.7-0.5c0-0.3,0.3-0.5,0.7-0.5S-108.2,480.2-108.2,480.4
		 M-152.1,481.5c0.9,1,0.4,2.3-0.9,2.3c-1.4,0-2.3-1.3-1.4-2.2C-153.7,480.7-152.8,480.7-152.1,481.5 M-92.2,481.6
		c0.8,1,0,2.2-1.4,2.2c-1.2,0-1.7-1.3-0.9-2.3C-93.8,480.7-93,480.7-92.2,481.6 M-143.2,482.2c0,1-1.3,0.8-1.5-0.2
		c-0.1-0.6,0.1-0.8,0.7-0.7C-143.6,481.5-143.2,481.9-143.2,482.2 M-141.1,482c0,0.4-0.3,0.7-0.7,0.7c-0.4,0-0.7-0.3-0.7-0.7
		c0-0.4,0.3-0.7,0.7-0.7C-141.4,481.3-141.1,481.6-141.1,482 M-139.3,482c0,0.4-0.2,0.7-0.5,0.7s-0.5-0.3-0.5-0.7
		c0-0.4,0.2-0.7,0.5-0.7S-139.3,481.6-139.3,482 M-106.4,482c0,0.4-0.2,0.7-0.5,0.7c-0.3,0-0.5-0.3-0.5-0.7c0-0.4,0.2-0.7,0.5-0.7
		C-106.6,481.3-106.4,481.6-106.4,482 M-104.1,482c0,0.4-0.3,0.7-0.7,0.7s-0.7-0.3-0.7-0.7c0-0.4,0.3-0.7,0.7-0.7
		S-104.1,481.6-104.1,482 M-101.8,482c0,0.4-0.2,0.8-0.5,1c-0.6,0.4-1.5-0.5-1.1-1.1C-103,481.1-101.8,481.2-101.8,482
		 M-145.3,482.8c0.1,0.5-0.1,0.8-0.8,0.8c-0.7,0-0.9-0.3-0.9-0.9C-147.1,481.5-145.6,481.6-145.3,482.8 M-99.6,482.7
		c0,0.6-0.3,0.9-0.9,0.9c-0.9,0-1.2-0.9-0.6-1.5C-100.5,481.5-99.6,481.8-99.6,482.7 M-161.3,483.2c0.8,0.8,0.6,2.9-0.4,3.8
		c-2.1,1.9-5.3-1.3-3.4-3.4C-164.2,482.6-162.2,482.4-161.3,483.2 M-147.6,483.7c0.2,0.9-1.1,1.6-1.8,0.9c-0.7-0.7-0.1-2,0.9-1.8
		C-148.1,482.9-147.7,483.3-147.6,483.7 M-96.9,483.7c0.2,0.9-1.1,1.6-1.8,0.9c-0.7-0.7-0.1-2,0.9-1.8
		C-97.4,482.9-97,483.3-96.9,483.7 M-81.5,483.6c1.1,1.2,0.5,3.2-1.3,3.8c-2.2,0.8-4.2-2.5-2.5-4.2
		C-84.5,482.4-82.4,482.6-81.5,483.6 M-154.9,484c0.9,1.7-0.6,3.2-2.3,2.3c-1-0.5-1.2-1.8-0.3-2.6C-156.7,482.9-155.4,483-154.9,484
		 M-141.1,483.8c0,0.4-0.2,0.7-0.5,0.7c-0.3,0-0.5-0.3-0.5-0.7c0-0.4,0.2-0.7,0.5-0.7C-141.3,483.2-141.1,483.5-141.1,483.8
		 M-104.6,483.8c0,0.4-0.2,0.7-0.5,0.7c-0.3,0-0.5-0.3-0.5-0.7c0-0.4,0.2-0.7,0.5-0.7C-104.8,483.2-104.6,483.5-104.6,483.8
		 M-89.1,483.7c0.8,0.8,0.7,2.1-0.3,2.6c-1.7,0.9-3.2-0.6-2.3-2.3C-91.2,483-90,482.9-89.1,483.7 M-142.9,484.3
		c0,0.2-0.2,0.5-0.5,0.6c-0.3,0.1-0.5-0.2-0.5-0.6c0-0.4,0.2-0.7,0.5-0.6C-143.1,483.8-142.9,484.1-142.9,484.3 M-102.8,484.3
		c0,0.4-0.2,0.7-0.4,0.7c-0.6,0-1-0.7-0.6-1.1C-103.3,483.4-102.8,483.6-102.8,484.3 M-150.2,484.8c0.9,1-0.5,2.5-1.6,1.6
		c-0.9-0.7-0.9-1.7-0.1-2C-151,484-150.9,484-150.2,484.8 M-144.6,484.7c0.3,0.8-0.5,1.4-1.2,0.8c-0.5-0.5-0.1-1.5,0.5-1.5
		C-145.1,484.1-144.8,484.4-144.6,484.7 M-100.7,484.6c0.4,0.6-0.5,1.5-1.1,1.1c-0.5-0.3-0.2-1.6,0.4-1.6
		C-101.2,484.1-100.8,484.3-100.7,484.6 M-94.8,484.3c0.9,0.4,0.9,1.3,0,2c-1,0.9-2.5-0.5-1.6-1.6C-95.7,484-95.8,484-94.8,484.3
		 M-120.1,485.5c1.5,0.8,2.3,1.6,3.1,3.1c4.2,8.4-7.2,14.7-12.6,6.9c-2.8-4.1,1.1-11,6.3-11C-122.7,484.5-121.2,485-120.1,485.5
		 M-146.8,485.7c0.4,1.1-0.5,1.8-1.2,0.9c-0.6-0.7-0.3-1.6,0.5-1.6C-147.2,485-146.9,485.3-146.8,485.7 M-98.4,485.5
		c0.4,0.7-0.7,2-1.3,1.4c-0.5-0.5-0.1-1.9,0.5-1.9C-98.9,485-98.6,485.2-98.4,485.5 M-142.5,486c-0.1,0.5-0.7,0.4-0.9-0.1
		c-0.1-0.3,0.1-0.5,0.4-0.4C-142.7,485.6-142.4,485.8-142.5,486 M-103.2,485.8c0,0.6-0.5,1-1,0.7c-0.5-0.3-0.1-1.1,0.6-1.1
		C-103.4,485.4-103.2,485.6-103.2,485.8 M-144.1,487.3c-0.3,0.4-0.4,0.4-0.7-0.1c-0.5-0.8,0-1.5,0.6-0.9
		C-144,486.5-143.9,487-144.1,487.3 M-157.7,486.9c1.4,1.4,0,3.4-1.9,2.9c-1.3-0.3-1.8-1.4-1.2-2.6
		C-160.2,486.2-158.5,486.1-157.7,486.9 M-152.4,487.1c0.4,1-0.7,2.1-1.7,1.7c-0.8-0.3-1-1.6-0.5-2.2
		C-153.9,486.1-152.6,486.4-152.4,487.1 M-148.7,487.1c0.4,1-0.5,1.9-1.2,1.2c-0.6-0.6-0.2-1.9,0.5-1.9
		C-149.2,486.3-148.9,486.7-148.7,487.1 M-101.7,487c-0.1,0.4-0.4,0.6-0.7,0.4c-0.6-0.4-0.5-1.1,0.3-1.1
		C-101.7,486.3-101.5,486.6-101.7,487 M-96.5,487.1c0.4,1-0.6,1.9-1.3,1.2c-0.6-0.6-0.2-1.9,0.5-1.9
		C-97,486.3-96.7,486.7-96.5,487.1 M-91.8,487.4c0,1.3-1.3,1.9-2.2,1c-0.9-0.9-0.3-2.1,1-2.1C-92,486.3-91.8,486.6-91.8,487.4
		 M-85.9,487.2c0.6,1.2,0.1,2.3-1.2,2.6c-1.9,0.5-3.3-1.6-1.9-2.9C-88.1,486.1-86.4,486.2-85.9,487.2 M-145.5,487.7
		c0.3,0.5-0.5,1.1-1.1,0.7c-0.5-0.3-0.2-1.1,0.5-1.1C-145.9,487.3-145.6,487.5-145.5,487.7 M-99.8,487.7c0.3,0.5-0.5,1.1-1.1,0.7
		c-0.5-0.3-0.2-1.1,0.5-1.1C-100.3,487.3-100,487.5-99.8,487.7 M-142.3,489.9c-0.3,0.3-1.6-1.2-1.6-1.8c0-0.3,0.4-0.1,0.9,0.5
		C-142.5,489.3-142.2,489.8-142.3,489.9 M-103.4,489.3c-1.1,1.1-1.3,0.8-0.4-0.5c0.4-0.7,0.9-1,1-0.7
		C-102.8,488.4-103,488.9-103.4,489.3 M-154.9,489.2c1.3,1.3,0.4,2.9-1.3,2.4c-1.3-0.4-0.9-3,0.5-3
		C-155.6,488.6-155.2,488.9-154.9,489.2 M-150.3,489.5c0,1-1.5,1.3-2.1,0.5c-0.4-0.7,0.2-1.4,1.2-1.4
		C-150.6,488.6-150.3,488.9-150.3,489.5 M-147.1,489.3c0,0.4-0.3,0.7-0.7,0.7c-0.4,0-0.7-0.3-0.7-0.7s0.3-0.7,0.7-0.7
		C-147.4,488.6-147.1,488.9-147.1,489.3 M-143.4,490.9c0,0.3-0.5,0-1.1-0.5c-0.6-0.6-1-1.2-0.9-1.5
		C-145.1,488.5-143.4,490.2-143.4,490.9 M-101.9,490.2c-0.6,0.6-1.1,0.9-1.2,0.7c-0.2-0.6,1.4-2.3,1.8-2
		C-101.1,489.1-101.4,489.6-101.9,490.2 M-98.2,489.3c0,0.4-0.3,0.7-0.7,0.7c-0.4,0-0.7-0.3-0.7-0.7s0.3-0.7,0.7-0.7
		C-98.5,488.6-98.2,488.9-98.2,489.3 M-94.3,489.5c0,0.4-0.5,0.8-1,0.8c-0.8,0.1-1-0.1-1-0.8c0-0.8,0.2-0.9,1-0.8
		C-94.8,488.8-94.3,489.2-94.3,489.5 M-90.1,489.2c1.2,1.2-0.2,3.3-1.7,2.4c-0.9-0.6-0.2-3,0.9-3C-90.7,488.6-90.4,488.9-90.1,489.2
		 M-148.5,491.1c0.1,0.4-0.1,0.8-0.5,0.8c-0.8,0-1.4-0.7-1-1.4C-149.6,489.8-148.7,490.2-148.5,491.1 M-145.7,490.7
		c0,0.4-0.2,0.7-0.4,0.7c-0.6,0-1-0.7-0.6-1.1C-146.2,489.8-145.7,490-145.7,490.7 M-99.9,490.7c0,0.2-0.2,0.5-0.5,0.6
		c-0.3,0.1-0.5-0.2-0.5-0.6c0-0.4,0.2-0.7,0.5-0.6C-100.2,490.2-99.9,490.4-99.9,490.7 M-96.6,490.9c0,0.4-0.4,0.7-0.8,0.8
		c-0.8,0.2-1.1-0.8-0.5-1.4C-97.4,489.8-96.6,490.2-96.6,490.9 M-151.9,492.1c0,1.4-1.8,1.2-2-0.2c-0.1-0.9,0-1,0.9-0.9
		C-152.2,491.1-151.9,491.4-151.9,492.1 M-92.7,491.8c0,1.1-1.2,1.7-1.9,1c-0.7-0.7-0.1-1.9,1-1.9C-93,490.9-92.7,491.2-92.7,491.8
		 M-146.7,492.4c-0.2,0.7-1,0.5-1.2-0.3c-0.1-0.5,0.1-0.6,0.6-0.4C-146.9,491.8-146.6,492.1-146.7,492.4 M-98.9,492.7
		c-0.2,0.4-0.5,0.4-0.8,0.1c-0.3-0.3-0.3-0.7-0.1-1c0.2-0.4,0.5-0.4,0.8-0.1C-98.7,492-98.7,492.4-98.9,492.7 M-149.6,493.2
		c0,0.4-0.4,0.7-0.8,0.8c-0.6,0.1-0.8-0.1-0.8-0.8c0-0.7,0.2-0.9,0.8-0.8C-149.9,492.5-149.6,492.8-149.6,493.2 M-142,493.8
		c0,0.2-0.4,0.1-0.9-0.2s-0.9-0.7-0.9-0.9c0-0.2,0.4-0.1,0.9,0.2C-142.5,493.2-142,493.6-142,493.8 M-103.5,493.4
		c-0.5,0.4-1,0.6-1.1,0.4c-0.1-0.1,0.2-0.5,0.7-0.8c0.5-0.4,1-0.6,1.1-0.4C-102.7,492.7-103,493-103.5,493.4 M-95.4,493.2
		c0,0.5-0.3,0.9-0.7,0.9c-0.8,0-1.3-0.8-0.9-1.4C-96.6,491.9-95.4,492.3-95.4,493.2 M-147.7,493.7c0.2,0.3,0.1,0.7-0.1,0.9
		c-0.5,0.5-1.7-0.2-1.3-0.9C-148.8,493.1-148.1,493.1-147.7,493.7 M-97.5,493.7c0.4,0.6-0.8,1.4-1.3,0.9c-0.4-0.4,0-1.4,0.6-1.4
		C-98,493.2-97.6,493.4-97.5,493.7 M-99.6,494.8c0,0.5-0.3,0.6-0.7,0.5c-0.4-0.1-0.7-0.1-0.7,0.2c0,0.2-0.3,0.4-0.7,0.4
		c-1.1,0-0.8-0.7,0.6-1.2c0.7-0.3,1.3-0.5,1.4-0.5C-99.6,494.1-99.6,494.4-99.6,494.8 M-144.3,495.5c0,0.3-0.3,0.5-0.7,0.5
		c-0.4,0-0.7-0.2-0.7-0.5s0.3-0.5,0.7-0.5C-144.6,495-144.3,495.2-144.3,495.5"/>
</g>
</svg>
