<?xml version="1.0" encoding="utf-8"?>
<!-- Generator: Adobe Illustrator 19.0.0, SVG Export Plug-In . SVG Version: 6.00 Build 0)  -->
<svg version="1.1" id="Capa_1" xmlns="http://www.w3.org/2000/svg" xmlns:xlink="http://www.w3.org/1999/xlink" x="0px" y="0px"
	 viewBox="-210 325.9 173.5 190" style="enable-background:new -210 325.9 173.5 190;" xml:space="preserve">
<g id="XMLID_100_">
	<path d="M-45.1,494.1h-156.3c-2,0-3.8-1-4.8-2.7s-1-3.8,0-5.5l78.1-135.4c1-1.7,2.8-2.8,4.8-2.8l0,0c2,0,3.8,1,4.8,2.7l78.2,135.4
		c1,1.7,1,3.8,0,5.5C-41.3,493-43.1,494.1-45.1,494.1z M-191.9,483.1h137.3l-68.7-118.9L-191.9,483.1z"/>
</g>
<path d="M-87.9,431.9c-9.2,3.1-10.9,11.8-11.8,12s-4.1-0.3-5-0.8s0.4-1.5-0.7-1.1c-1.1,0.4-2.4,0.5-2.4,0.5s-10.6-2.6-13.5-3.3
	c-2.9-0.7-2.4-9.3-2.4-9.3s1.2-1,0.6-1c-4.6-0.2-8.5,8.6-9.1,9.1c-0.6,0.6-9.1,0.4-16.9,1c-7.8,0.6-17.9,6.2-17.9,6.2
	c-0.1,2.3,4.7,2.3,6.4,4.3c0,0,0.2,0,0.4-0.1c0,0.1,0.1,0.2,0.2,0.2c0.3,0.3,0,0.1,0-0.3c0.1-0.1,0.3-0.1,0.4-0.2
	c0,0.1,0.1,0.1,0.1,0.2c0.3,0.3,0,0.1,0-0.3c0.1-0.1,0.2-0.1,0.4-0.2c0,0.1,0.1,0.2,0.1,0.2c0.3,0.3,0,0.1,0-0.3
	c0.1-0.1,0.2-0.1,0.3-0.2c0,0.1,0.1,0.2,0.2,0.3c0.3,0.3-0.1,0,0-0.5c0,0,0,0,0,0c0.1,0,0.1-0.1,0.1-0.1s0.1,0,0.2,0
	c0,0.1,0.1,0.3,0.2,0.4c0.3,0.3-0.1,0,0-0.4c0.4-0.1,1-0.2,1.1-0.1c0.2,0.1-0.2,0.6-0.5,0.8c-0.3-0.3-0.1-0.7-0.2-0.3
	c0,0.1,0,0.3,0,0.4c-0.1,0-0.2,0.1-0.3,0.1c0,0,0,0,0,0c-0.4-0.3-0.2-0.8-0.3-0.4c0,0.2,0,0.3,0.1,0.4c-0.1,0-0.2,0-0.4,0.1
	c-0.3-0.3-0.1-0.7-0.2-0.3c0,0.1,0,0.2,0,0.3c-0.1,0-0.3,0.1-0.4,0.1c-0.3-0.3-0.1-0.7-0.2-0.3c0,0.1,0,0.2,0,0.4
	c-0.1,0-0.1,0.1-0.2,0.1c-0.3-0.3-0.2-0.7-0.3-0.3c0,0.2,0,0.3,0.1,0.5c0,0.1-0.1,0.1-0.1,0.2c0.1,0.1,0.2,0.1,0.3,0.2c0,0,0,0,0,0
	l0,0c0,0,0,0,0.1,0c6.8,4,21.6,3.6,21.6,3.6s2,3.5,3.7,5.5c1.6,1.8,17,8,11.7,3.7s-9.2-8.8-3.6-8.8c5.6,0,27-7.8,27-7.8
	s-1,1.4,2.9,5.4c4.3,4.4,9.7,3.6,8.1,3.3c-2.9-0.5-5.2-8.3-5.1-10.2c0-1.8,5.7-11.9,5.7-11.9S-84.1,430.6-87.9,431.9z M-163.3,447.1
	c-0.3,0.1,0-1.1,0.5-1.4C-162.9,446.2-163,446.9-163.3,447.1z M-161.3,445.1c-0.3,0-0.3-0.2-0.3-0.4c0-0.3,0.1-0.5,0.3-0.5
	c0.3,0,0.5,0.2,0.5,0.5C-160.8,444.9-161,445.1-161.3,445.1z M-142.8,446.6l0,0.2c-0.1,0.6-0.1,1.2-0.4,1.7
	c-0.1,0.1-0.2,0.3-0.3,0.4c-0.2,0.3-0.5,0.6-0.5,0.9c0,0.1,0,0.1-0.1,0.1c0,0,0,0,0,0c-0.1,0-0.1,0-0.1-0.1
	c-0.1-0.4,0.2-0.8,0.5-1.1c0.1-0.1,0.2-0.3,0.3-0.4c0.3-0.5,0.3-1,0.4-1.6l0-0.2c0-0.5,0.1-0.9,0-1.4c0-0.3-0.1-0.6-0.3-0.8
	c-0.1-0.1-0.1-0.3-0.2-0.4c-0.1-0.4-0.2-0.7-0.3-1.1c-0.1-0.5-0.2-1-0.4-1.5c0-0.1,0-0.1,0.1-0.2c0.1,0,0.1,0,0.2,0.1
	c0.2,0.5,0.3,1,0.5,1.5c0.1,0.5,0.2,0.8,0.3,1.1c0,0.1,0.1,0.3,0.2,0.4c0.1,0.3,0.2,0.6,0.3,0.9
	C-142.7,445.7-142.7,446.1-142.8,446.6z M-141.2,445.3c-0.2,1.5-0.1,3.6-0.9,4.9c-0.2,0.3-0.3,0-0.1,0c0.1-0.2,0.1-0.4,0.2-0.6
	c0.3-1,0.4-2.3,0.5-3.3c0.1-1,0.1-1.8-0.1-2.7c-0.1-0.4-0.1-0.7-0.1-1.1c0-0.2-0.3-1-0.2-1.2c0.3-0.3,0.4,1.4,0.4,1.5
	C-141.4,443.6-141.1,444.4-141.2,445.3C-141.2,445.2-141.1,445-141.2,445.3z M-140.3,448.4c-0.1,0.3-0.1,0.5-0.1,0.8
	c0,0.3-0.4,0.9-0.4,1.2c0,0.2-0.1-0.1-0.2-0.2c0-0.4,0.2-0.7,0.3-1.1c0.1-0.8,0.2-1.6,0.5-2.4c0.3-1,0.3-2.1,0.3-3.1
	c0-0.4,0-0.8-0.1-1.2c0-0.1-0.7-0.9-0.4-0.9c0.4,0,0.7,1.5,0.7,1.7c0.1,0.9,0,1.8-0.1,2.6C-139.9,446.8-140.2,447.6-140.3,448.4z
	 M-137.3,444.5c0,0,0,0.1,0,0.1c-0.2,0.6-0.4,1.3-0.6,1.9c-0.2,0.6-0.6,1.1-0.8,1.7c-0.1,0.3-0.9,2.1-1.1,2.1
	c-0.3,0,0.5-1.1,0.6-1.3c0.5-1.4,1.2-2.6,1.6-4.1c0.2-0.7,0.5-1.4,0.4-2.1c0-0.2-0.8-1.6-0.4-1.6c0.1,0,0.5,0.9,0.5,1.1
	c0.3,0.7,0.1,1.5-0.2,2.2C-137.4,444.6-137.4,444.5-137.3,444.5z"/>
</svg>
