<?xml version="1.0" encoding="utf-8"?>
<!-- Generator: Adobe Illustrator 19.0.0, SVG Export Plug-In . SVG Version: 6.00 Build 0)  -->
<svg version="1.1" id="Capa_1" xmlns="http://www.w3.org/2000/svg" xmlns:xlink="http://www.w3.org/1999/xlink" x="0px" y="0px"
	 viewBox="-210 325.9 173.5 190" style="enable-background:new -210 325.9 173.5 190;" xml:space="preserve">
<style type="text/css">
	.st0{clip-path:url(#SVGID_1_);fill:#020400;}
</style>
<g id="XMLID_100_">
	<path d="M-45.1,494.1h-156.3c-2,0-3.8-1-4.8-2.7s-1-3.8,0-5.5l78.1-135.4c1-1.7,2.8-2.8,4.8-2.8l0,0c2,0,3.8,1,4.8,2.7l78.2,135.4
		c1,1.7,1,3.8,0,5.5C-41.3,493-43.1,494.1-45.1,494.1z M-191.9,483.1h137.3l-68.7-118.9L-191.9,483.1z"/>
</g>
<g>
	<g>
		<defs>
			<rect id="SVGID_3_" x="-152.8" y="416.3" width="63.2" height="59.1"/>
		</defs>
		<clipPath id="SVGID_1_">
			<use xlink:href="#SVGID_3_"  style="overflow:visible;"/>
		</clipPath>
		<path class="st0" d="M-112.6,445.5v-23c0-1.6-1.3-2.9-2.9-2.9H-150c-1.6,0-2.9,1.3-2.9,2.9v23c0,1.6,1.3,2.9,2.9,2.9h34.5
			C-113.9,448.3-112.6,447.1-112.6,445.5L-112.6,445.5z M-118.3,442.6h-28.8v-17.3h28.8V442.6z M-92.4,442.6c-1.6,0-2.9,1.3-2.9,2.9
			v20.1h-31.6c-1.6,0-2.9,1.3-2.9,2.9c0,1.6,1.3,2.9,2.9,2.9h34.5c1.6,0,2.9-1.3,2.9-2.9v-23C-89.6,443.9-90.9,442.6-92.4,442.6
			L-92.4,442.6z M-101.1,457v-23c0-1.6-1.3-2.9-2.9-2.9c-1.6,0-2.9,1.3-2.9,2.9v20.1h-31.6c-1.6,0-2.9,1.3-2.9,2.9
			c0,1.6,1.3,2.9,2.9,2.9h34.5C-102.3,459.9-101.1,458.6-101.1,457L-101.1,457z M-101.1,457"/>
	</g>
</g>
</svg>
