<?xml version="1.0" encoding="utf-8"?>
<!-- Generator: Adobe Illustrator 19.0.0, SVG Export Plug-In . SVG Version: 6.00 Build 0)  -->
<svg version="1.1" id="Capa_1" xmlns="http://www.w3.org/2000/svg" xmlns:xlink="http://www.w3.org/1999/xlink" x="0px" y="0px"
	 viewBox="-210 325.9 173.5 190" style="enable-background:new -210 325.9 173.5 190;" xml:space="preserve">
<g id="XMLID_100_">
	<path d="M-45.1,494.1h-156.3c-2,0-3.8-1-4.8-2.7c-1-1.7-1-3.8,0-5.5l78.1-135.4c1-1.7,2.8-2.8,4.8-2.8c0,0,0,0,0,0
		c2,0,3.8,1,4.8,2.7l78.2,135.4c1,1.7,1,3.8,0,5.5C-41.3,493-43.1,494.1-45.1,494.1z M-191.9,483.1h137.3l-68.7-118.9L-191.9,483.1z
		"/>
	<path d="M-95.3,462.1l-12.9-12.9c-1.3-1.3-3.1-2.2-5-2.5l5.7-5.7c4,0.7,8.2-0.6,11.1-3.5c3.8-3.8,4.7-9.5,2.5-14.3
		c-0.5-1.1-2-1.4-2.9-0.5l-4.1,4.1h-2.5v-2.5l4.1-4.1c0.9-0.9,0.6-2.4-0.5-2.9c-4.8-2.3-10.5-1.3-14.3,2.5
		c-2.9,2.9-4.2,7.1-3.5,11.1l-7,7l-9.8-9.8l1.3-1.3c0.8-0.8,0.7-2.2-0.3-2.8l-12.7-7.6c-0.7-0.4-1.6-0.3-2.2,0.3l-5.1,5.1
		c-0.6,0.6-0.7,1.5-0.3,2.2l7.6,12.7c0.6,1,2,1.2,2.8,0.3l1.3-1.3l9.8,9.8l-7,7c-4-0.7-8.2,0.6-11.1,3.5c-3.8,3.8-4.7,9.5-2.5,14.3
		c0.5,1.1,2,1.4,2.9,0.5l4.1-4.1h2.5v2.5l-4.1,4.1c-0.9,0.9-0.6,2.4,0.5,2.9c1.7,0.8,3.6,1.2,5.4,1.2c3.3,0,6.5-1.3,8.9-3.7
		c2.9-2.9,4.2-7.1,3.5-11.1l5.7-5.7c0.3,1.9,1.2,3.7,2.5,5l12.8,12.8c3.5,3.5,9.2,3.5,12.7,0C-91.8,471.3-91.8,465.6-95.3,462.1z
		 M-149.8,423.4l3.1-3.1l9.5,5.7c-0.7,0.7-6,6-6.9,6.9L-149.8,423.4z M-139.4,433.2c1.7-1.7,1.2-1.2,2.5-2.5l9.8,9.8l-2.5,2.5
		L-139.4,433.2z M-97.8,472.3c-2.1,2.1-5.5,2.1-7.6,0l-12.8-12.8c-1.8-1.8-2.4-5,0.1-7.5c2.6-2.4,5.7-1.9,7.5-0.1l12.8,12.8
		C-95.7,466.8-95.7,470.2-97.8,472.3z"/>
	<path d="M-113,452.5c-0.7-0.7-1.8-0.7-2.5,0c-0.7,0.7-0.7,1.8,0,2.5l12.7,12.7c0.7,0.7,1.8,0.7,2.5,0c0.7-0.7,0.7-1.8,0-2.5
		L-113,452.5z"/>
</g>
</svg>
