<?xml version="1.0" encoding="utf-8"?>
<!-- Generator: Adobe Illustrator 19.0.0, SVG Export Plug-In . SVG Version: 6.00 Build 0)  -->
<svg version="1.1" id="Capa_1" xmlns="http://www.w3.org/2000/svg" xmlns:xlink="http://www.w3.org/1999/xlink" x="0px" y="0px"
	 viewBox="-210 325.9 173.5 190" style="enable-background:new -210 325.9 173.5 190;" xml:space="preserve">
<style type="text/css">
	.st0{clip-path:url(#SVGID_1_);}
</style>
<g id="XMLID_100_">
	<path d="M-45.1,494.1h-156.3c-2,0-3.8-1-4.8-2.7s-1-3.8,0-5.5l78.1-135.4c1-1.7,2.8-2.8,4.8-2.8l0,0c2,0,3.8,1,4.8,2.7l78.2,135.4
		c1,1.7,1,3.8,0,5.5C-41.3,493-43.1,494.1-45.1,494.1z M-191.9,483.1h137.3l-68.7-118.9L-191.9,483.1z"/>
</g>
<g>
	<g>
		<defs>
			<rect id="SVGID_3_" x="-143" y="449.2" width="48" height="27"/>
		</defs>
		<clipPath id="SVGID_1_">
			<use xlink:href="#SVGID_3_"  style="overflow:visible;"/>
		</clipPath>
		<path class="st0" d="M-95.2,459.6c-0.1-0.3-0.2-0.6-0.5-0.8c-1-1-10.9-9.6-15.6-9.6c-2.5,0-4.3,1.3-5.7,2.3
			c-0.8,0.6-1.6,1.2-2.1,1.2c-0.6,0-1.3-0.5-2.1-1.2c-1.4-1-3.1-2.3-5.7-2.3c-4.7,0-14.6,8.6-15.6,9.6c-0.3,0.3-0.4,0.6-0.5,0.9
			l0,0.4c0,0.5,0.2,0.9,0.5,1.3c0.5,0.5,1.1,1.2,1.8,2.1c1.8,2.2,4.2,5.2,7.7,7.7c4.4,3.2,9.1,4.8,13.9,4.8c4.8,0,9.6-1.7,14.1-5
			c3.5-2.6,6.1-5.7,7.7-7.8c0.6-0.8,2-2.4,2.1-2.6C-95.2,460.5-95.1,460-95.2,459.6L-95.2,459.6z M-106.4,469.2
			c-4.1,3-8.4,4.6-12.8,4.6c-4.4,0-8.6-1.5-12.6-4.4c-3.2-2.3-7.9-7.6-7.7-7.8c0.1-0.1,2.1,0.9,3.1,1.4c4.1,1.9,10.4,4.9,17.1,4.9
			c6.9,0,13.2-3,17.4-5c1-0.5,2.8-1.4,2.8-1.3C-98.8,461.8-103.1,466.8-106.4,469.2L-106.4,469.2z M-99.5,459.6
			c-1.2,0-2.9-0.1-4.8-0.1c-1.6-0.1-3.5-0.3-5.6-0.5c-2.9-0.3-5.8-0.7-8.6-0.7c-0.4,0-0.7,0-1.1,0c-2.6,0-5.6,0.4-8.4,0.7
			c-2.1,0.2-4.1,0.5-5.7,0.5c-1.1,0-1.8,0.1-2.4,0.1c-0.8,0-1.4,0.1-2.3,0.1c-1,0-1.5-0.1-1.1-0.4c1.4-1.2,2.7-2.3,5-3.9
			c3.5-2.5,6.3-3.9,7.7-3.9c1.8,0,3.1,1,4.4,1.9c1.1,0.8,2.2,1.6,3.4,1.6c1.3,0,2.3-0.8,3.4-1.6c1.3-0.9,2.6-1.9,4.4-1.9
			c1.4,0,4.2,1.4,7.7,3.9c2.2,1.6,3.9,2.8,5.1,4C-98.1,459.6-98.6,459.6-99.5,459.6L-99.5,459.6z M-99.5,459.6"/>
	</g>
</g>
<g>
	<path d="M-146.9,430.8c-6.5,0-12.2,3.8-14.9,9.3c2.8,5.5,8.4,9.3,14.9,9.3c6.5,0,12.2-3.8,14.9-9.3
		C-134.8,434.6-140.4,430.8-146.9,430.8L-146.9,430.8z M-139.6,435.7c1.8,1.1,3.2,2.6,4.4,4.4c-1.1,1.8-2.6,3.3-4.4,4.4
		c-2.2,1.4-4.8,2.2-7.4,2.2s-5.2-0.7-7.4-2.2c-1.8-1.1-3.2-2.6-4.4-4.4c1.1-1.8,2.6-3.3,4.4-4.4c0.1-0.1,0.2-0.1,0.3-0.2
		c-0.3,0.8-0.4,1.7-0.4,2.6c0,4.1,3.3,7.5,7.5,7.5c4.1,0,7.5-3.3,7.5-7.5c0-0.9-0.2-1.8-0.4-2.6
		C-139.8,435.6-139.7,435.7-139.6,435.7L-139.6,435.7z M-146.9,437.1c0,1.5-1.3,2.8-2.8,2.8c-1.5,0-2.8-1.3-2.8-2.8s1.3-2.8,2.8-2.8
		C-148.2,434.3-146.9,435.6-146.9,437.1L-146.9,437.1z M-146.9,437.1"/>
</g>
<g>
	<path d="M-116.8,400c-7.1,0-12.9,5.8-12.9,12.9h2.6c0-5.7,4.6-10.3,10.3-10.3s10.3,4.6,10.3,10.3c0,1.3-0.2,2.5-0.7,3.7l-7.1,18.4
		c-1,2.5-3.5,4.2-6.2,4.2h-4.5v2.6h4.5c1.9,0,3.7-0.6,5.3-1.7c1.5-1.1,2.7-2.5,3.3-4.2l7.1-18.4c0.6-1.5,0.9-3,0.9-4.7
		C-103.9,405.7-109.7,400-116.8,400L-116.8,400z M-116.8,400"/>
	<path d="M-123.2,427.3h-1.7v2.6h1.7c3.1,0,5.6-2.5,5.6-5.6c0-2.6-1.8-4.8-4.3-5.4v-6c0-2.8,2.3-5.1,5.1-5.1c2.8,0,5.1,2.3,5.1,5.1
		h2.6c0-4.3-3.5-7.7-7.7-7.7c-4.3,0-7.7,3.5-7.7,7.7v8.5h1.3c1.6,0,3,1.3,3,3C-120.2,425.9-121.6,427.3-123.2,427.3L-123.2,427.3z
		 M-123.2,427.3"/>
</g>
</svg>
