<?xml version="1.0" encoding="utf-8"?>
<!-- Generator: Adobe Illustrator 19.0.0, SVG Export Plug-In . SVG Version: 6.00 Build 0)  -->
<svg version="1.1" id="Capa_1" xmlns="http://www.w3.org/2000/svg" xmlns:xlink="http://www.w3.org/1999/xlink" x="0px" y="0px"
	 viewBox="-210 325.9 173.5 190" style="enable-background:new -210 325.9 173.5 190;" xml:space="preserve">
<g id="XMLID_92_">
	<g id="XMLID_94_">
		<path d="M-45.1,494h-156.3c-2,0-3.8-1-4.8-2.8s-1-3.8,0-5.5l78.2-135.3c1-1.7,2.8-2.7,4.8-2.7c0,0,0,0,0,0c2,0,3.8,1,4.8,2.8
			l78.1,135.3c1,1.7,1,3.8,0,5.5C-41.3,493-43.1,494-45.1,494z M-191.9,483h137.2l-68.6-118.8L-191.9,483z"/>
		<g id="XMLID_95_">
			<path id="XMLID_107_" d="M-117,421.3c0.7,0,1.2-0.6,1.2-1.2c0-0.7-0.6-1.2-1.2-1.2c-0.7,0-1.2,0.6-1.2,1.2
				C-118.3,420.8-117.7,421.3-117,421.3z"/>
			<path id="XMLID_106_" d="M-129.5,421.3c0.7,0,1.2-0.6,1.2-1.2c0-0.7-0.6-1.2-1.2-1.2c-0.6,0-1.2,0.6-1.2,1.2
				C-130.7,420.8-130.1,421.3-129.5,421.3z"/>
			<path id="XMLID_102_" d="M-151.8,450.6c0,2.3,0.9,4.5,2.6,6.1c-0.9,5.1,3.3,10.4,8.6,10.4h0.1c1.8,3,5,5,8.6,5
				c3.7,0,7-2.2,8.7-5.4c1.7,3.2,5,5.4,8.7,5.4c3.5,0,6.8-1.9,8.6-5h0.1c4.7,0,8.7-4.1,8.7-9.1c0-0.4,0-0.8-0.1-1.3
				c1.7-1.6,2.6-3.8,2.6-6.1c0-1.8-0.6-3.5-1.6-5c1.1-1.6,1.6-3.6,1.6-5.3c0-2.6-1.2-5-3.1-6.7c0.4-1.1,0.7-2.1,0.7-3.3
				c0-3.5-2-6.7-5-8.2c0.5-3.8-2-7.2-5.6-8.1c-1.4-3.3-4.6-5.5-7.9-5.5c-3.1,0-5.9,1.8-7.4,4.5c-1.5-2.7-4.3-4.5-7.4-4.5
				c-3.3,0-6.5,2.2-7.9,5.5c-3.7,0.9-6.1,4.4-5.6,8.1c-3,1.5-5,4.7-5,8.2c0,1.1,0.2,2.2,0.7,3.3c-2,1.6-3.1,4.1-3.1,6.7
				c0,1.7,0.5,3.7,1.6,5.3C-151.2,447.1-151.8,448.8-151.8,450.6z M-115.8,411c2.1,0,4,1.3,5.1,2.9c-1.6,0.2-3,1-4.1,2.1
				c-0.5,0.5-0.5,1.3,0,1.8s1.3,0.5,1.8,0c0.9-0.9,2.2-1.5,3.5-1.5c2.7,0,5,2.2,5,5v0.1c-0.4-0.1-0.8-0.1-1.2-0.1
				c-4.7,0-8.7,4.1-8.7,9.1c0,0.7,0.6,1.2,1.2,1.2s1.2-0.6,1.2-1.2c0-3.5,2.9-6.6,6.2-6.6c3.5,0,6.2,3.2,6.2,6.6c0,1-0.3,2.1-0.8,3
				c-0.3,0.6-0.1,1.3,0.4,1.7c1.8,1.1,2.9,3.1,2.9,5.2c0,3.5-2.8,6.6-6.2,6.6c-0.7,0-1.2,0.6-1.2,1.2c0,0.7,0.6,1.2,1.2,1.2
				c2,0,3.8-0.7,5.3-2c0.6,1,0.9,2.1,0.9,3.2c0,1.8-0.8,3.6-2.3,4.7c-0.4,0.3-0.5,0.8-0.4,1.2c0.1,0.5,0.2,1,0.2,1.5
				c0,3.9-3.5,7-6.6,6.5c-0.1,0-0.2,0-0.3,0c-0.5-0.1-1,0.2-1.3,0.7c-1.2,2.6-3.9,4.3-6.7,4.3c-4,0-7.4-3.6-7.4-7.8
				c0-4.1,3.3-7.4,7.4-7.4c0.7,0,1.2-0.6,1.2-1.2c0-0.7-0.6-1.2-1.2-1.2c-3,0-5.6,1.3-7.4,3.4v-23.6c0-1.4,1.1-2.5,2.5-2.5
				c0.7,0,1.2-0.6,1.2-1.2c0-0.7-0.6-1.2-1.2-1.2c-0.9,0-1.8,0.2-2.5,0.7v-9.7C-122,414.1-119.1,411-115.8,411z M-146.4,435.1
				c0.6-0.4,0.7-1.1,0.4-1.7c-0.6-1-0.8-2-0.8-3c0-3.3,2.7-6.6,6.2-6.6c3.3,0,6.2,3.1,6.2,6.6c0,0.7,0.6,1.2,1.2,1.2
				c0.6,0,1.2-0.6,1.2-1.2c0-4.9-4-9.1-8.7-9.1c-0.4,0-0.8,0-1.2,0.1v-0.1c0-2.8,2.2-5,5-5c1.3,0,2.6,0.5,3.5,1.5
				c0.5,0.5,1.3,0.5,1.8,0s0.5-1.3,0-1.8c-1.1-1.1-2.6-1.9-4.1-2.1c1.1-1.6,2.9-2.9,5.1-2.9c3.3,0,6.2,3.1,6.2,6.6v9.7
				c-0.7-0.4-1.6-0.7-2.5-0.7c-0.7,0-1.2,0.6-1.2,1.2c0,0.7,0.6,1.2,1.2,1.2c1.4,0,2.5,1.1,2.5,2.5v23.6c-1.8-2.1-4.5-3.4-7.4-3.4
				c-0.7,0-1.2,0.6-1.2,1.2c0,0.7,0.6,1.2,1.2,1.2c4.1,0,7.4,3.3,7.4,7.4c0,4.2-3.4,7.8-7.4,7.8c-2.9,0-5.5-1.7-6.7-4.3
				c-0.2-0.5-0.7-0.8-1.3-0.7c-0.1,0-0.2,0-0.3,0c-3.5,0.5-7.5-3.5-6.4-8c0.1-0.5,0-0.9-0.4-1.2c-1.4-1.2-2.3-2.9-2.3-4.7
				c0-1.1,0.3-2.2,0.9-3.2c1.5,1.2,3.3,2,5.3,2c0.7,0,1.2-0.6,1.2-1.2c0-0.7-0.6-1.2-1.2-1.2c-3.4,0-6.2-3.1-6.2-6.6
				C-149.3,438.2-148.2,436.2-146.4,435.1z"/>
			<path id="XMLID_101_" d="M-134.6,439c-0.5,1.5-1.9,2.6-3.5,2.6c-0.7,0-1.2,0.6-1.2,1.2c0,0.7,0.6,1.2,1.2,1.2c3,0,5.5-2.2,6.1-5
				c1.7-0.2,3.3-1,4.7-2.1c0.5-0.5,0.6-1.2,0.1-1.8c-0.5-0.5-1.2-0.6-1.8-0.1c-4,3.6-10.3,0.7-10.3-4.6c0-0.7-0.6-1.2-1.2-1.2
				c-0.7,0-1.2,0.6-1.2,1.2C-141.9,434.7-138.7,438.3-134.6,439z"/>
			<path id="XMLID_100_" d="M-140.6,456.8c-0.7,0-1.2,0.6-1.2,1.2c0,0.7,0.6,1.2,1.2,1.2c3.3,0,6.2,3.1,6.2,6.6
				c0,0.7,0.6,1.2,1.2,1.2c0.6,0,1.2-0.6,1.2-1.2C-131.9,461-135.9,456.8-140.6,456.8z"/>
			<path id="XMLID_99_" d="M-130.7,446.9c-4.2,0-7.8,2.3-9.7,5.7c-0.3,0.6-0.1,1.4,0.5,1.7c0.6,0.3,1.4,0.1,1.7-0.5
				c1.5-2.6,4.3-4.4,7.6-4.4c0.7,0,1.2-0.6,1.2-1.2C-129.5,447.5-130,446.9-130.7,446.9z"/>
			<path id="XMLID_98_" d="M-119.2,435.1c-0.5,0.5-0.4,1.3,0.1,1.8c1.3,1.2,2.9,1.9,4.7,2.1c0.5,2.9,3.1,5,6.1,5
				c0.7,0,1.2-0.6,1.2-1.2c0-0.7-0.6-1.2-1.2-1.2c-1.7,0-3.1-1.1-3.5-2.6c4.1-0.7,7.3-4.3,7.3-8.6c0-0.7-0.6-1.2-1.2-1.2
				s-1.2,0.6-1.2,1.2c0,3.4-2.8,6.2-6.2,6.2c-1.5,0-3-0.6-4.1-1.6C-118,434.6-118.8,434.6-119.2,435.1z"/>
			<path id="XMLID_97_" d="M-105.9,456.8c-4.7,0-8.7,4.1-8.7,9.1c0,0.7,0.6,1.2,1.2,1.2c0.7,0,1.2-0.6,1.2-1.2
				c0-3.5,2.9-6.6,6.2-6.6c0.7,0,1.2-0.6,1.2-1.2C-104.6,457.4-105.2,456.8-105.9,456.8z"/>
			<path id="XMLID_96_" d="M-108.3,453.8c0.3,0.6,1.1,0.8,1.7,0.5c0.6-0.3,0.8-1.1,0.5-1.7c-1.9-3.3-5.5-5.7-9.7-5.7
				c-0.7,0-1.2,0.6-1.2,1.2c0,0.7,0.6,1.2,1.2,1.2C-112.5,449.4-109.7,451.2-108.3,453.8z"/>
		</g>
	</g>
</g>
</svg>
