<?xml version="1.0" encoding="utf-8"?>
<!-- Generator: Adobe Illustrator 19.0.0, SVG Export Plug-In . SVG Version: 6.00 Build 0)  -->
<svg version="1.1" id="Capa_1" xmlns="http://www.w3.org/2000/svg" xmlns:xlink="http://www.w3.org/1999/xlink" x="0px" y="0px"
	 viewBox="-210 325.9 173.5 190" style="enable-background:new -210 325.9 173.5 190;" xml:space="preserve">
<path d="M-53.1,405.2c-0.3,0.2-0.2,0.8-0.5,0.9c-0.2-0.2,0.2-0.5-0.3-0.3c0.2,1.1-0.2,1.7,0,2.9c-0.3-0.5-0.3-1.5-0.3-2.2
	c-0.3,0-0.3,0.3-0.3,0.8c-0.3,0,0.2-0.3-0.3-0.3c-0.3,0.3-0.6,0.3-1.2,0.6c-0.2-0.2-0.3-0.3-0.6-0.3c-0.3,0.2-0.8,0.6-1.2,0.3
	c-0.2-0.5,0.6-0.8,0.3-1.2c-0.2,0.8-0.9,1.4-0.9,1.8c-0.2-0.3-0.2,0.2-0.3,0.2c-0.2-0.9,0.8-1.8,0.5-2.3c0.2,0,0.2-0.2,0.3-0.2
	c-0.3-0.2,0-0.5,0-0.8c0.3,0,0.3,0.2,0.5-0.2c-0.2-0.5,0.3-0.5,0.2-1.1c0.2-0.2,0.3,0,0.5-0.5c-0.2,0,0-0.3-0.3-0.2
	c0.2-0.2,0.2-0.5,0.3-0.6c0.2,0,0,0.6,0.3,0.5c-0.2-0.5-0.2-0.6-0.5-0.9c0.2,0,0.5,0,0.6-0.3c-0.3-0.5,0.2-1.1-0.3-1.2
	c0.8,0,0.5-0.6,0.6-1.2c-0.2,0-0.3,0.3-0.5,0c0.2-0.2,0.5-0.2,0.6-0.3c0.3-0.8-0.2-1.4-0.5-2.3c0-0.3,0.3,0.3,0.5,0
	c-0.2-0.2,0-0.6-0.2-0.8c-0.5,0,0.2,0.5-0.5,0.5c0.2-0.5,0-1.2,0-1.7c0.5-0.6,0.2-1.7-0.6-2.3c0,0.2,0,0.3,0.2,0.3
	c0.2,0,0.2-0.2,0.2-0.2c0,0.3,0,0.5-0.2,0.6c0.5,1.5,0,0.8-0.2-0.3c-0.3-0.3-0.3-0.9-0.8-1.2c0-0.3,0-0.5-0.2-0.6
	c-0.3,0-0.3-0.2-0.6-0.2c-0.9-1.5-2.9-2.8-4.5-3.1c-0.2-0.5-1.1-0.8-1.5-0.5c-1.1-0.5-2.3-0.3-3.2-0.8c-1.1,0.5-1.5-0.5-2.3,0.3
	c0-0.2,0-0.3-0.2-0.3c-0.9,0.8-2.3,0.3-3.4,0.9c-0.2-0.2-0.5-0.2-0.8-0.2c-0.5,0.8-2,0.6-2.8,1.4c0.2,0.2,0.2,0.5,0.3,0.6
	c0.8-0.2,1.8-0.2,2.2-0.9c0.2,0,0.2,0.2,0.3,0.2c0.8-0.6,2-1.2,2.9-0.8c0,0.3-0.3,0.3-0.2,0.6c-0.3,0-0.2-0.3-0.6-0.2
	c0,0.3,0.2,0.2,0,0.3c-0.5-0.3-0.8-0.5-1.2-0.2c0,0.2-0.2,0.2-0.2,0.3c0.2,0,0.3,0,0.3,0.2c-0.3-0.2-0.6,0.3-0.8,0
	c0.3,0,0.2-0.2,0.3-0.3c-0.8-0.2-2,0.5-1.8,1.1c-0.3,0-0.5,0.2-0.6,0.2c-0.2-0.2,0.2-0.3-0.2-0.6c-0.2,0-0.3,0-0.6,0.2
	c0,0.3,0,1.1-0.3,0.6c0.3,0,0.3-0.3,0.2-0.5c-1.1,0.5-0.9,0.9-1.8,1.2c-0.2-0.3-0.8,0-0.6,0.3c-0.5-0.2-0.6,0-0.9,0.3
	c0.2,0.3,0.5,0,0.3,0.3c-1.2-0.3-1.4,1.2-2.3,1.4c0,0.2,0.2,0.2,0.2,0.2c-0.8,0.5-1.1,0.8-1.7,1.1c-0.2,0.3,0.2,0.2,0.2,0.3
	c-0.3,0-0.6,0-0.8,0.2c0,0.2,0.2,0.2,0.2,0.3c-0.2,0.2-0.3,0.3-0.8,0.3c-0.2,0.6-0.6,1.2-1.2,1.1c-0.3,0.8-0.9,1.7-1.2,2.2
	c0.2,0.6-0.5,1.1-0.6,1.7c0.2,0,0.3,0,0.3,0.2c-0.2,0.3-0.2,0.6-0.5,0.6c0.2,0.2-0.2,0.9,0.2,0.9c-0.3,0.3-0.2,0.8-0.5,1.2
	c0.2-0.2,0.5,0.6,0,0.3c-0.2,0.3,0.5,0.2,0.3,0.6c-0.5,0.3-0.2,0.6-0.5,0.8c0.2,0,0.2,0.2,0.3,0.2c-0.6,0.3-0.2,1.4-0.6,1.8
	c0.5,0.2,0.6,0.9,0.3,1.4c-0.2-0.2,0.2-0.5-0.2-0.6c-0.2,0.5,0.2,0.5,0.2,0.9c-0.2,0-0.3,0-0.3,0.2c0,0.2,0.5,0.3,0.2,0.5
	c-0.2,0-0.6,0.2-0.6,0.5c0.5,0,0,0.3,0.3,0.3c-0.2,0.2-0.2,0.3-0.3,0.3c0.2,0.5,0.5,1.1,0.6,1.7c0,0.2-0.3,0.2-0.3,0.3
	c0.3,0.5-0.2,0-0.2,0.6c0.2,0,0.2-0.5,0.3-0.2c0,0-0.2,0-0.2,0.2c0.2,0,0.2,0.2,0,0.2c0-0.5-0.3,0.2-0.3,0.3
	c0.2,0.2,0.5,0.2,0.3,0.6c-0.2,0-0.6-0.2-0.5,0.2c0.5,0,0.8,1.1,0.3,1.2c0.2,0.3,0.5,0.5,0.2,0.9c0-0.2-0.5-0.3-0.3-0.2
	c0,0.2,0.2,0.5-0.2,0.5c0-0.3,0-0.3-0.3-0.3c-0.2,0.3,0.5,0.8,0,0.8c-0.5,0.2,0-0.6-0.3-0.8c-0.2,0.2-0.2,0.5-0.3,0.8
	c0.2,0.3,0.5,0.3,0.3,0.8c0.8-0.2,0.9,1.1,0.8,1.5c0.2,0.3-0.8,1.5-0.2,1.7c0.5-0.6,0.9-0.6,0.8-0.9c0.3-0.2,0,0.5-0.2,0.6
	c-0.2,0.5,0.2,0.9,0,1.1c0-0.2-0.3,0.2-0.5,0.2c0,0.3,0.3,0.3,0.5,0.5c0,0.5-0.3,0.6-0.3,0.9c0.3,0.3,0,0.6,0.3,0.9
	c-0.2,0-0.3-0.2-0.3,0c0.3,0.6,0,0.6-0.2,1.2c0.2-0.2,0.3,0.9,0.3,1.1c0-0.2,0-0.3-0.2-0.3c-0.2,0-0.3,0-0.6,0.3
	c0,0.2,0.2,0.2,0.2,0.3c-0.2,0-0.3,0-0.3,0.2c0.2,0.5,0.2,0.3,0,0.8c0.2,0,0.3,0,0.5,0c0.2,0.6,0.2,1.4,0,2c0.2,0,0.2-0.2,0.2,0.2
	c-0.5-0.2-0.5-0.6-0.8-0.8c-0.3,0.3,0.3,0.5,0.2,1.1c0.3,0.3,0.8-0.2,0.8,0.2c-0.3,0.2-0.2,0.3-0.6,0.6c0-0.2,0.2-0.3,0.2-0.6
	c-0.2,0.3-0.5-0.2-0.6,0c0,0.5,0,0.8,0.3,0.8c0,0.3-0.3,0.2-0.2,0.5c0.2,0.2,0.2,0.3,0.5,0.2c0.2,0.5-0.3-0.2-0.3,0.2
	c0.2,0.5,0.5,0.8,0.6,1.4c0.3,0.2,0.3,0,0.5,0.3c-0.5,0.2-0.3,0.9-0.2,1.4c0-0.2,0.2-0.3,0.3-0.3c-0.3,0-0.2-0.3-0.3-0.5
	c0.2,0.2,0.5,0.3,0.5,0.6c-0.8-0.2-0.6,1.7-0.3,2c-0.2,0-0.5-0.2-0.3,0.2c0.2,0.3,0.3-0.2,0.6,0.2c0.2,0.3-0.3,0-0.2,0.3
	c0.5-0.3,0.8,0.9,0.6,1.1c0-0.2-0.2-0.2-0.3-0.2c0.3,0.2-0.2,0.3,0,0.5c0,0,0.2,0,0.2,0.2c0.3,0,0-0.3,0.2-0.3
	c0.2,0.2,0.5,0.9,0.2,1.1c0.2-0.3-0.2-0.6-0.2-0.8c-0.2,0.6-0.9,0.5-0.6,1.2c0.2,0,0.8,0.3,0.8,0.8c0,0.2-0.2,0-0.2,0.2
	c0,0.5,0.5,0.8,0.3,0.9c0,0.5-0.3-0.2-0.3,0.3c0.3,0,0.3,0.2,0.2,0.6c0.5-0.2,0,0.2,0.6,0.3c-0.2,0.8,0,1.2,0.2,1.8
	c0-0.2-0.3,0-0.3,0.2c0.2,0.3,0.2,0.2,0.3,0.3c-0.6,0-0.2-0.6-0.3-0.8c-0.2,0-0.5,0-0.5,0.2c0.2,0.5,0.3,0.8-0.2,1.1
	c0.3,0,0.5,0,0.5,0.3c-0.2,0.3-0.5-0.2-0.6,0.3c0.2,0.3,0.3,0,0.6,0.2c0.2,0.5,0,0.8,0.3,1.2c-0.2,0.2-0.2,0-0.3,0.2
	c0.2,0.3,0.3,0.9,0.5,0.9c-0.2,0-0.2,0.2-0.3,0.3c0,0.3,0.5,0.5,0.3,0.9c0-0.2,0-0.3-0.2-0.3c-0.2,0.2-0.2,0.9,0.2,0.6
	c-0.3,0.5,0,0.6,0.2,1.1c-0.3,0-0.3-0.6-0.5-0.3c0.2,0.2,0.3,0.6-0.2,0.8c0.8,0.3,0,0.8,0.5,1.5c-0.3,0-0.2,0.2-0.3,0.3
	c0.2,0.2,0.3,0.9,0.2,0.8c-0.3,0.3,0-0.6-0.3-0.6c0.2,0.5-0.3,0.2-0.3-0.2c0,0.5,0,0.5-0.2,1.1c0.8,0.2,0.6,1.7,0.2,2.5
	c0.3,0.3,0.3,1.2,0.2,1.7c0-0.2,0-0.3-0.2-0.3c0.2,1.2,0.2,1.5,0.3,2.6c0,0.2-0.3,0-0.3,0.2c0.2,0.2,0.3,0,0.3,0.3
	c-0.3,0.3-0.2-0.2-0.5-0.2c0.2,0.3-0.3,0.2-0.2,0.5c0.3,1.1,0.3,1.7-0.2,2.8c0.2,0,0.3-0.2,0.3,0c-0.8,1.5-0.2,2.6-0.9,3.7
	c0.5,0.3-0.5,0.9-0.2,1.5c-0.2,0-0.5-0.2-0.3,0.2c0,0.2,0.2,0.2,0.3,0.2c-0.3,0.9-0.6,2.3-1.4,2.9c0.3,0.5-0.2,0.8-0.3,0.9
	c0.3,0.3-0.2,0.6-0.2,1.1c0.2,0,0.9,0,0.8,0.2c-0.3,0-0.6,0-0.9,0.2c0,0.2,0.2,0.2,0.2,0.2c-0.5-0.3-1.2,0.6-0.8,0.8
	c-0.3,0.2-0.5-0.2-0.6,0.3c0.6-0.2,0.3,0,0.8,0.2c-0.6,0-1.1,0.2-1.5,0.3c0,0.2,0.2,0.3,0,0.3c-0.2,0-0.8,0.2-0.8,0.3
	c0.2,0,0.3,0,0.3,0.2c-0.3,0-0.6,0.2-0.5,0.5c-0.5,0.2-0.5,0-0.6,0.3c0.2,0,0.2-0.2,0.2,0.2c-0.2,0,0,0.3-0.3,0.3
	c0-0.2,0-0.3-0.2-0.3c-0.2,0.3-0.3,0.6-0.6,0.8c0-0.2,0-0.3-0.2-0.3c-0.3,0.3-0.9,0.5-1.2,0.3c-0.2,0.2-0.3,0.3-0.5,0.5
	c0-0.3-0.3-0.3-0.5-0.2c0.2,0.3-0.2,0.5-0.2,0.6c-0.5-0.3-1.5,0.6-2.2,0.3c0,0.2,0,0.2,0,0.3c-1.2,0.3-1.8,0.3-2.9,0.8
	c-0.3-0.3-0.9,0.5-1.2,0c-0.2,0,0,0.3-0.2,0.3c-0.8-0.3-2,0.5-2.8-0.2c0,0.2-0.2,0-0.2,0c0,0.2,0,0.3-0.2,0.3
	c-0.9-0.3-2.5,0.5-4,0.2c0,0.2,0,0.3-0.2,0.3c-0.6-0.9-1.5-0.3-2.2-0.2c0.2,0-0.2-0.3-0.2-0.3c0,0.2,0,0.3-0.2,0.3
	c-0.2-0.2,0.2-0.3-0.2-0.3s-0.8,0.5-1.4,0.3c-0.2-0.3-0.3-0.5-0.6-0.5c0,0.2,0,0.3-0.2,0.3c0-0.2,0-0.3-0.2-0.3
	c-0.9,0.8-1.2-0.2-2.3-0.3c0.3,0.3-0.5,0-0.2,0.3c-0.2-0.8-0.3-1.1-0.6-0.8c0-0.2,0-0.2,0.2-0.3c-0.5,0.3-0.8-0.6-1.2-0.2
	c-0.3-0.8-1.5-0.3-2.2-0.3c-0.3-0.6-1.4-0.5-1.8-1.1c-0.5,0.3-1.8,0.2-2-0.5c0.2,0.3,0.3-0.2,0.2-0.3c-0.3,0.2-0.3,0-0.6-0.2
	c-0.3,0.2,0.2,0.3-0.2,0.6c0-0.2-0.2-0.2-0.3-0.2c0-0.2,0.2-0.5,0.2-0.8c-0.6-0.3-1.5-0.6-2.3-0.8c0.2-0.2,0.8,0,1.1,0.2
	c0-0.2,0.2-0.5-0.2-0.5c-0.3,0.3-1.2-0.2-1.5,0.2c-0.3-0.3-0.6-0.6-0.9-0.8c0-0.5,0.3,0.2,0.6,0.2c-0.2-0.5-1.2-0.6-1.2-1.2
	c-0.9,0.2-0.9-1.2-1.7-1.1c-0.2,0.3,0.5,0,0.3,0.3c-0.2,0-0.3,0-0.3,0.3c0.6,0.5,1.8,0.9,1.8,1.7c0-0.2,0-0.2-0.2-0.2
	c0.2,0.9,1.4,1.1,1.5,1.7c-1.1-0.8-2.2-1.5-3.1-2.3c-0.9-0.6-2.2-1.5-2.8-2.6c-0.3,0.3-0.6-0.6-0.9-0.3c0-0.5-0.5-0.8-0.6-0.8
	c-0.6-1.2-1.5-2.2-2.2-3.4c-0.2-0.3,0.3-0.2,0.3-0.5c-0.2,0-0.2-0.2-0.3-0.2c-0.2,0,0,0.3-0.2,0.3c-0.2-0.5-0.5-0.8-0.6-1.2
	c0.3,0,0.5,0,0.6-0.5c-0.2-0.3-0.5-0.2-0.8,0c0-0.3-0.5-0.9,0-1.1c0.3,0.2-0.2,0.5,0.2,0.6c0-1.1-0.9-2.3-0.3-3.7
	c-0.3,0-0.3,0.2-0.3-0.2c0-0.2,0.3,0.2,0.3-0.2c-0.3-0.3,0-0.8-0.5-0.9c0.5-0.3,0.2-0.6,0.3-1.2c-0.2,0-0.5,0-0.3-0.3
	c0-0.2,0.3,0,0.3-0.3c0.2-0.5-0.3-0.5-0.3-0.8c-0.2-0.9,0.5-1.5,0.2-2.2c-0.2,0.2,0,0.9-0.2,0.8c0-0.5,0.2-0.8,0.2-1.2
	c0.2-0.2,0.5-0.2,0.5-0.5s-0.2-0.3-0.2-0.5c1.2-5.1,2.3-11.1,3.8-16.1c-0.2,0-0.2,0.2-0.2-0.2c0.5-0.2,0.8-1.2,0.3-0.9
	c1.1-1.1,1.2-3.8,1.8-4.8c0.6-2.3,0.8-5.1,2-6.8c0-0.3-0.3-0.3-0.2-0.6c0.6-0.3,0.6-0.6,0.8-1.4c0-0.2-0.2-0.2-0.3-0.2
	c0-0.5,0.3-0.6,0.5-0.8c0.2-0.6,0.8-1.8,0.9-2.8c0-2.9,1.4-4.5,1.8-6.9c0.2-0.2,0.2,0.2,0.3-0.2c0.2-2.3,1.4-4.6,1.4-6.9
	c-0.2-0.2,0-0.8-0.3-0.8c0-0.9,0.8-2.3,0.2-3.2c0.6-2,0.5-4.5-0.2-6.5c-0.6-0.9-0.8-2-1.4-2.9c-0.2,0-0.2,0-0.3,0
	c-2.5-3.5-8.1-4.2-12-4.6c-0.2-0.2-0.3-0.5-0.5-0.6c0,0.2,0,0.3,0,0.5c-0.3-0.3-0.8-0.8-1.2-0.2c-0.3,0.2,0-0.5-0.3-0.3
	c-5.2,0-11.7,0.5-14.4,4.2c-0.2,0-0.3,0-0.3,0.2c0.2,0.6-0.5,0.9-0.2,1.4c0.6-0.6,1.2-1.4,1.8-1.8c-2.3,1.5-2.9,4.9-3.1,8
	c0.5,1.5,0.3,3.4,0.6,4.8c0.2,2.2,1.4,4.3,1.5,6.6c0,0.3,0.3,0.3,0.3,0.6c0.2,1.8,0.6,3.7,0.8,6c1.1,2,1.1,5.4,2.2,7.4
	c0.2,0.6,0.2,1.5,0.6,2.3c0,0.2-0.2,0.3-0.2,0.6c0.3,0.2,0.3,0.5,0.2,0.8c0.2,0,0.2,0,0.2-0.2c0.3,1.2-0.3,1.8,0.3,2.8
	c-0.2,0.5,0,0.8,0,1.4c0.2,0,0.2,0,0.3,0c0.3,1.4,0,2.8,0.2,3.7c-0.2,0-0.3,0-0.3,0.3c0.5,2.2,0.2,3.5,0.3,6h0.2
	c0.5,9.5-5.4,14.8-13.4,14.9c-3.5,0.2-7.2-0.5-10.5-1.1c0,0.2,0,0.2-0.2,0.2c0,0.5,0.3,0.6,0.3,0.9c-1.1-0.2-2-0.3-3.1-0.5
	c-8.9-3.2-14.8-10-15.7-20.9c-0.3-3.1,0-6.3-0.3-9.5c0-0.2,0.2-0.3,0.2-0.6c-0.5-3.8,0.2-7.5,0.2-11.5c0-3.5-0.2-6.9,0.3-10.1
	c0.3-3.2,0.8-5.8,1.4-8.6c0.6-2.6,0.6-4.9,1.1-7.1c0.5-0.6,0.9-0.9,1.5-1.7c0.5,0,0.6,0.2,0.9-0.2c0.8,0.3,1.2,0.9,1.5,1.7
	c0.6,3.1,1.1,6.3,0.3,9.1c0.6,7.5-0.8,16.6-0.2,24.9c0.2,2.5-0.3,6.3-0.6,8.9c-0.5,6.1,1.5,10.5,4.6,13.5c1.2,0.6,2,1.7,3.5,2
	c3.1,0.5,4.8,1.1,8,1.5c0.2,0,0.5,0,0.6,0c0.2,0.2,0.5,0.2,0.6,0.2c2.2,0.2,3.4,0.2,5.2,0c0-0.2,0.3-0.2,0.3-0.3
	c3.5-0.8,4.5-2.3,4.2-5.7c-0.5-4.3-0.3-9.1-0.8-13.4c0-0.2-0.2-0.3-0.2-0.6c-0.3-4.3-1.4-8-2.3-11.8c-0.3-6.1-2.6-10.1-2.8-16.3
	c-0.3-1.8,0-3.5,0.2-5.2c0.2-2.3,0.5-6.8,1.2-8.3c0.2-0.2,0.2-0.2,0.3-0.3c0.3-1.1,1.1-1.7,1.5-2.6c0.2,0,0.6-0.3,0.5-0.6
	c1.5-0.9,2.9-2.8,4.5-4.2c1.7-1.1,3.4-2,5.2-2.9c1.1,0,2-0.6,3.1-0.8c2.2-0.3,4.9-0.3,7.4-0.2c0.3,0,0.3-0.2,0.6-0.2
	c0.3,0.2,0.8,0.3,1.1,0.2c4.3,0.5,7.7,1.4,11.4,2.3c1.4,1.1,3.2,1.5,4.8,2.5c0,0.2,0,0.3,0.2,0.3c0.2,0,0.3,0,0.6,0
	c2.2,1.1,3.4,2.9,5.1,4.5c0.8,1.4,2.5,5.7,3.2,7.4c0.5,1.2,0.3,2.8,0.2,4.6c0.3,5.4-1.2,10.1-2.8,14.1c-0.6,2.3-1.5,4.2-2.5,6
	c-1.8,5.4-4.2,10.1-5.8,15.7c-0.5,3.5-1.2,6.6-2.2,9.7c-0.2,1.1-0.3,2.8-0.8,3.8c0,1.8-0.5,4-1.1,5.7c0,0.3,0,0.6,0,1.1
	c-0.2,1.4-0.6,2.6-0.8,4c-0.3,2.9,0.9,5.2,2.3,6.9c0.5,0.2,0.9,0,1.1,0.6c-0.2,0-0.3,0-0.3,0.2c1.2,0.9,1.8,2.8,3.5,2.8
	c1.8,1.4,4,2.3,6.3,3.1c-0.5,0.2-0.9-0.5-1.4-0.2c1.2,1.2,2.9,1.2,4.6,1.7c0.6-0.2,1.1,0.2,1.8-0.2c0,0.3-0.2,0.3-0.2,0.6
	c1.4,0.2,2.2,0,3.8,0c0-0.2,0-0.3,0-0.3c0.3,0.3,0.5,0.5,0.9,0.2c0-0.2-0.3,0-0.3-0.2c0.5,0,0.8,0.2,1.2,0.2c0,0.2,0,0.3,0.2,0.3
	c1.2-0.3,4.3,0,6-0.2c0.3,0,0.6-0.3,0.6-0.3c0.5-0.2,1.1-0.2,1.5-0.6c0,0.2,0.2,0.2,0.3,0.2c0.6-0.5,1.2-0.6,1.5-1.2
	c-1.7,0.5-3.7,1.5-5.1,1.2c0.8-0.6,1.8-0.9,2.8-0.9c0.3-0.9,1.2-0.6,1.7-1.5c0,0.3,0.3,0.3,0.3,0.6c-0.2,0.2-0.3-0.3-0.3-0.2
	c0.2,0.2,0.2,0.3,0.3,0.3c0.3-0.5,1.1,0.3,1.2-0.8c-0.3,0-0.9,0.5-1.1,0.2c0.8-0.8,2-0.6,2.3-1.8c0.2-0.2,0.3,0.3,0.3,0.2
	c0-0.8,0.6-1.1,0.9-1.5c-0.2-0.6,0.5-1.5-0.2-1.7c0.2-0.2,0.2-0.3,0.3-0.3c0,0.3,0.5,0.3,0.6,0.2c0-0.2,0-0.2,0.2-0.2
	c-0.6-0.6,0-1.7-0.2-2.6c0.2,0,0.3,0.2,0.3,0c-0.2-0.8,0.2-1.8,0.6-2.3c0.8-2.3,0.3-6.1,0.5-8.9c-0.3,0-0.3-0.3-0.3-0.6
	c0-0.2,0.5,0,0.3-0.3c-0.2,0-0.2,0-0.3,0.2c-0.2-1.1,0.5-1.4-0.2-2.3c0.3-0.5,0.8-1.7,0.3-2.8c0-0.2,0.3-0.2,0.3-0.3
	c-0.2-0.5-0.3-1.2,0.2-1.8c-0.2-1.2-0.6-2.6-0.3-3.5c-1.1-0.8-0.9-1.2-1.2-1.2c-0.3-3.7-0.6-7.7-0.6-11.7c0.3-0.5,0.3-1.2,0.6-1.7
	c-0.3-1.5,0.2-3.8-0.3-5.5c0.2-1.4-0.3-3.2,0.2-4.9c0-0.3-0.3-0.2-0.2-0.5c0.2-0.2,0.2-0.5,0.2-0.8s-0.2-0.3-0.2-0.6
	c0.3-3.1,0.5-5.5,0.8-8.5c-0.2-2.3,0.3-4.9,1.1-6.9c0-2.2,1.4-3.4,1.5-5.1c0.6-1.1,1.2-2.2,2.2-3.1c0,0.2,0.2,0.2,0.3,0.2
	c0-0.8,0.5-1.2,1.1-1.5c-0.2-0.6,0.6-0.8,0.8-1.1c0.3-0.2,0.8-1.1,1.1-1.2c0.8-0.8,1.8-0.9,2-2.2c0.8,0,0.9-0.8,1.5-1.1
	c0.3-0.2,0,0.3,0.3,0.2c-0.2-0.3,0.2-0.2,0.3-0.2c0.9-0.8,2.2-1.7,2.9-2.3c-0.3,0.5-0.6,0.8-0.8,1.2c1.5-0.3,3.2-1.4,4.3-2.2
	c0,0.3-0.3,0.5,0,0.6c0.8-0.2,2.2-0.3,2.3-0.8c0,0.2,0.2,0.2,0.3,0.2c1.1-0.6,2-0.5,3.5-0.3c0.2,0,0-0.3,0.3-0.3
	c0.6,0.3,1.1-0.2,1.7,0c-0.2-0.3,0-0.2,0.2-0.5c0.3,0,0.8,0.2,1.1-0.2c0,0.3-0.6,0-0.3,0.6c0.5,0.2,0.8-0.3,1.1,0
	c0.3-0.2-0.2-0.3,0.2-0.5c0.3,0,1.2-0.2,1.8-0.3c0.3,0.3,1.1,0.5,1.4,0.2c1.7,0.8,3.4,1.4,4.9,2.2c0.3-0.3,1.1,0,1.4,0.2
	c-0.5,0.3-0.6-0.5-1.1-0.2c0.2,0.3,0.2,0.5,0.5,0.6c1.1,0,1.8,0.2,2.6,0.6c0,0.2,0,0.3,0,0.6c0.9,0,1.5,0.6,1.8,1.5
	c0.2,0,0.2-0.2,0.3-0.2c0.2,0.3-0.2,0.3-0.2,0.6c0.2,0.5,0.9,0.3,1.1,0.8c-0.3,0-0.5-0.3-0.6-0.2c0.2,0.3,0.5,0.3,0.5,0.6
	c0.2-0.2,0.2,0,0.5,0c0.2,0.6,0.6,1.1,0.8,1.5c-0.2,0.2-0.3-0.3-0.6,0c0.8,2.3,1.1,5.1,1.4,7.2c-0.3,0-0.5-0.2-0.6,0
	c0,0.2,0.2,0.5-0.2,0.5c-0.2-1.7,0.2-4-1.2-5.5c0.3,0,0.2-0.2,0.3,0.2c-0.2-0.3,0.3-0.2,0.2-0.5c-0.5,0-0.2-0.5-0.3-0.6
	c-0.3,0.3-0.5-0.3-0.6,0.2c-0.2-0.5,0.3-0.2,0.3-0.6c-0.3-0.2-0.3-0.5-0.8-0.5c0,0.3-0.2,0.3-0.2,0.5c0.2,0.3,0.6,0.3,0.5,0.8
	c-0.5,0.2-0.6,1.2,0,1.4c0.2,0.6-0.2,0.9,0.3,1.2c-0.2,0-0.3,0-0.3,0.2c0.3,0.3,0.8,0.8,0.3,1.2c0.2,0.3,0.3,0.2,0.5,0.3
	c-0.2,0,0,0.3-0.2,0.5c0.3,0.2,0.5,0.5,0.2,0.8c0.3,0,0.3,0.8,0.2,1.1c0.2,0.2,0.5,0.2,0.5,0.3c-0.2,0.2-0.3,0.2-0.5,0.3
	c0.2,0.2,0.3,0.3,0.5,0.6c-0.5,0,0.2,0.2,0,0.3c-0.3,0-0.5-0.3-0.6,0c0,0.2,0,0.2,0,0.3c0.2,0,0.5,0,0.6,0c-0.2,0.6,0.2,1.2-0.3,1.7
	c0.6,0.2-0.2,0.8,0.3,1.5c0,0.2-0.5,0-0.3,0.3c0.2,0,0.3,0,0.3,0.2c-0.3,0-0.5,0.2-0.5,0.3c0.5,0,0.5,0.2,0.9,0.2
	c0.2-0.5,0.2-1.1,0.5-1.5c-0.6-0.2-0.8-0.9-0.6-1.2c0.3-0.2,0.3,0.2,0.5,0.3c0-0.3,0.2-0.5,0.3-0.5c-0.2,0.8,0.3,1.8-0.3,2
	c0.2,0,0.2,0.2,0.3,0.2c-0.2,0.2-0.3,0.2-0.3,0.3c0.2,0.2,0.3,0.2,0.5,0.3c-0.3,0,0,0-0.2,0.3c-0.5-0.2-0.2,0.6-0.6,0.8
	c0-0.2,0-0.3-0.2-0.3c-0.2,0.2,0,0.3,0.2,0.5c-0.6,0.2-0.9,1.1-0.6,1.5c0,0.2-0.5-0.3-0.6,0.2c0,0.2,0.5,0,0.3,0.3
	c-0.3,0-0.3,0.2-0.6,0.2c0-0.2,0-0.3-0.2-0.3c-0.2,0.5-0.8,0.5-0.8,0.9c0,0.2,0.5,0.6,0.2,0.6C-53.1,405.2-52.9,405.2-53.1,405.2z
	 M-88.6,442.3c0-0.2-0.2-0.2-0.2,0S-88.7,442.3-88.6,442.3z M-88.7,438.1c0-0.2-0.2-0.3-0.2-0.5c-0.2,0,0,0.2-0.2,0.2
	s-0.2,0-0.2-0.2c-0.5,0.2,0.3,0.3,0,0.3c0,0.2,0,0.2,0.2,0.2S-88.7,438.1-88.7,438.1z M-89.5,422.7v-0.2h-0.2v0.2H-89.5z
	 M-51.2,401.1c-0.2,0-0.3,0-0.6,0c0,0.3,0,0.2,0,0.5C-51.4,401.5-51.2,401.4-51.2,401.1z M-52.2,386.5c0.2,0.2,0-0.5-0.2-0.6
	C-52.5,386.2-52,386.3-52.2,386.5z M-53.7,390.2c-0.2-0.2,0.3-0.3,0.3-0.6c-0.3,0-0.3,0.2-0.6,0.2c0,0.8,0.3,1.2,0,1.8
	c0.5,0,0.8,1.1,0.5,1.5c0.5,0,0.5,0.3,0.6,0.6c0,0.2-0.2-0.2-0.2,0.2c0.2,0.3,0.5,0.3,0.6,0.2c0-0.5-0.3,0-0.5-0.5l0.2-0.2
	c0.2,0,0.2,0.2,0.3,0.2c-0.2-0.5-0.2-0.9-0.2-1.4c-0.2,0-0.3-0.2-0.5-0.2c0.2-0.2,0-0.3,0.3-0.3c0-0.2-0.2-0.3-0.2-0.6
	c-0.2,0-0.3,0-0.5,0c0-0.2,0.2-0.3,0.2-0.6C-53.7,390.8-53.5,389.8-53.7,390.2z M-52.8,400.9c0.2,0,0-0.2,0.2-0.2
	C-52.8,400.8-52.8,400.9-52.8,400.9z M-53.8,385.8C-53.5,385.4-54,386.2-53.8,385.8L-53.8,385.8z M-57.2,383.5c0.2,0,0.8-0.2,1.2,0
	c0.2-0.5,0.2-0.5-0.2-0.8c-0.3,0.2-0.5,0-0.6-0.3c-0.6,0.5-1.1-0.2-1.8-0.2c0-0.2,0-0.3,0-0.3c-0.2,0-1.1-0.2-1.1-0.6
	c-0.6,0.2-0.5-0.6-0.9-0.3c0-0.2,0.2-0.2,0.2-0.5c-0.6,0-0.9,0.2-1.1,0.2c-0.2,0,0-0.3-0.2-0.3c-0.2,0-1.1,0.3-1.5-0.2
	c0.2-0.2,0.5,0.2,0.8,0c0-0.2,0-0.3,0.2-0.3c0-0.3-0.5-0.2-0.8-0.3c0.2,0.3-0.3,0-0.2,0.3c-0.6-0.5-1.2,0-1.8,0.2
	c0,0.6,0.8,0.5,0.9,0.2c0.2,0.2,0.6,0.3,0.8,0.2v0.2c-0.3,0.2-0.5,0.2-0.8-0.2c0.3,0.6,0.9,0.5,1.7,0.8c0-0.2,0-0.2,0-0.3
	c0.2,0,0.2,0.2,0.2,0c0.3,0.2-0.2,0.2,0,0.5c0.6,0.2,1.2,0.3,1.5,0.8c1.1,0.3,2.2,0.5,3.2,0.9v-0.2c0.2,0.2,0,0.8,0.3,0.5
	c0,0.2-0.2,0.2-0.3,0.3c0.5,0.5,1.1,0.8,1.7,1.2c0-0.2,0-0.3-0.2-0.3c0.5,0.2,0.2,1.4,1.4,1.4c0.3,0-0.2,0.2,0,0.3
	c0.2,0,0.2,0.2,0.3,0.2c0.2-0.3-0.2-0.3-0.2-0.5c0-0.3,0.2-0.2,0.2-0.3c0.2,0.5,0.8-0.3,1.2,0.2c0.2-0.8-1.1-0.6-1.5-1.2
	c0-0.2,0.2-0.2,0.2-0.3c-0.5-0.2-0.6-0.3-1.1-0.2c-0.3,0-0.2-0.5-0.3-0.6C-56.5,383.5-56.6,383.9-57.2,383.5z M-53.4,395.7
	c0.2,0,0-0.2,0.2-0.2C-53.4,395.5-53.2,395.7-53.4,395.7z M-53.4,386.9C-53.1,387.1-53.5,386.6-53.4,386.9L-53.4,386.9z
	 M-53.5,386.8c0-0.2,0-0.2,0-0.3c-0.2,0-0.2,0.2-0.2,0C-53.8,386.5-53.7,386.8-53.5,386.8z M-53.7,386.3c0.2,0,0-0.2,0.2-0.2
	C-53.7,386-53.7,386.2-53.7,386.3z M-53.8,388.8c0.3-0.5-0.2-0.9-0.6-0.9c-0.3,0.3,0,0.8,0.2,1.1C-54.2,388.9-54,388.6-53.8,388.8z
	 M-54.2,391.1C-53.8,390.8-54.5,390.9-54.2,391.1L-54.2,391.1z M-54.3,390.3c0.2-0.9-0.6-1.1-0.6-1.8c-0.2,0-0.3,0-0.3,0
	c0-0.2,0.2-0.2,0.2-0.3c-0.2-0.2-0.5-0.3-0.6-0.2c0-0.2,0.2-0.2,0.2-0.3c-0.5-0.2-0.8-0.6-1.4-0.8c0-0.2,0.5,0,0.6-0.2
	c0-0.2,0-0.2,0.2-0.2c0-0.3-0.3-0.3-0.3-0.5c-0.3,0.5-0.8-0.3-1.2,0c0.6,1.2,1.8,2,2.8,2.9c-0.2,0.5,0.2,0.8,0.5,0.8
	c0,0.2-0.2-0.2-0.2,0.2C-54.8,390.2-54.6,390.3-54.3,390.3z M-54.8,387.8c0.2-0.3-0.3-0.6-0.3-0.9c-0.3,0.3,0.3,0.5,0.2,0.9
	C-54.9,387.7-54.8,387.7-54.8,387.8z M-55.1,398c0-0.2,0-0.3-0.2-0.3s-0.2,0.2-0.2,0.3C-55.4,398-55.2,398-55.1,398z M-55.4,386.9
	c0.2,0,0-0.2,0.2-0.2C-55.4,386.8-55.4,386.8-55.4,386.9z M-55.4,386.6c0-0.2,0-0.3,0-0.3c-0.2,0-0.3-0.2-0.3-0.3
	C-55.8,386.2-55.7,386.6-55.4,386.6z M-56.9,389.7c0-0.5-0.5-0.9-0.6-1.5c-0.2,0.3-0.5,0.2-0.5,0.6c-0.5-0.3,0.5-0.5,0.3-0.9
	c-0.5,0-0.8-0.2-1.1-0.2c0,0.2,0.5,0.8,0.5,0.3c0.2,0.2,0.2,0.5,0.2,0.6c-1.4-0.8-2.3-1.7-3.5-2c0.9,0.6,2,1.2,2.9,1.8
	c-0.2,0.3-0.2,0.5,0.3,0.3c-0.2,0.2,0,0.2,0,0.5c0.6-0.3,0.8,0.6,1.2,0.8c-0.5,0.2,0.6,1.1,0.9,0.9c0,0.3,0.2,0.6,0.3,1.1
	c0.2,0,0.3-0.2,0.5-0.2c0-0.6-0.3-0.8-0.3-1.2c-0.3,0-0.2-0.2-0.3,0c-0.2-0.3-0.3-0.8-0.5-1.2C-56.9,389.5-56.9,389.7-56.9,389.7z
	 M-56.5,405.2c0-0.3-0.5-0.3-0.3,0C-56.6,405.2-56.6,405.2-56.5,405.2z M-56.5,395.2c0.2,0,0-0.2,0.2-0.2
	C-56.5,395.1-56.5,395.1-56.5,395.2z M-56.6,391.8c0.2,0,0-0.2,0.2-0.2C-56.6,391.7-56.6,391.8-56.6,391.8z M-59.1,387.7
	c0-0.2-0.2-0.2-0.2-0.3C-59.4,387.4-59.2,387.7-59.1,387.7z M-59.2,384.9c0-0.2-0.2-0.2-0.2-0.3C-59.5,384.6-59.5,385.1-59.2,384.9z
	 M-59.7,386.5c0-0.2,0-0.2,0-0.3c-0.3,0-0.5,0-0.5-0.3c-0.3,0-0.3,0.3-0.6,0.3c0,0.2,0.3,0,0.3,0.3C-60,386.6-60,386.5-59.7,386.5z
	 M-59.8,386.8c0,0,0.2,0.2,0.2,0.3c0.2-0.2,0.5-0.2,0.5-0.5C-59.7,386.5-59.7,386.6-59.8,386.8z M-64,386.5
	c-0.3-0.2,0.2-0.3-0.2-0.3c-0.3,0-1.1,0-1.5-0.5c-0.2,0,0,0.2-0.2,0.3c1.1,0.3,2.2,0.6,2.8,1.2c0.8-0.2,1.1,0.5,1.5,0.6
	c0.3,0.2,0.9,0,0.8,0.6c0.3,0,0.5,0,0.6,0.2c0.3-0.3-0.3-0.3-0.2-0.6c-1.1,0-1.8-1.2-2.6-1.1C-63.1,386.8-63.7,386.3-64,386.5z
	 M-60.6,384C-60.3,384-60.9,384-60.6,384L-60.6,384z M-60.9,386.5c-0.2-0.3-0.3-0.5-0.2-0.8c-0.8,0-1.4-0.9-1.7-0.6
	c-0.2,0-0.2-0.2-0.2-0.3c-1.2-0.2-2.3-0.8-3.7-0.6c1.7,0.6,3.5,0.8,5.1,1.7c-0.5,0.2-0.9,0-1.1,0.6c0.2,0.2,0.3,0.3,0.8,0.3
	c-0.2-0.3,0.2-0.2,0-0.6C-61.4,386.3-61.2,386.3-60.9,386.5z M-62,384.8c0-0.2,0-0.3,0-0.3c-2-0.5-3.4-1.4-5.1-1.2
	c0.8,0.6,2.5,0.6,3.5,1.2C-62.9,384.3-62.6,384.6-62,384.8z M-62.8,385.8c-0.2,0-0.2,0-0.3,0c0,0.3-0.2,0.3,0.2,0.3
	C-62.8,386-62.8,386-62.8,385.8z M-63.4,379.5c-0.2-0.5-1.1-0.5-1.2,0c0.2,0,0.2,0,0.2,0.2C-64.1,379.4-63.8,379.5-63.4,379.5z
	 M-65.2,380c0-0.3-0.6-0.5-0.6-0.2c-0.3,0-1.8-0.6-2.2,0.2c0.8,0,1.5,0.3,1.8,0c0.2,0.2,0.3,0.3,0.8,0.3
	C-65.5,380.2-65.5,380.2-65.2,380z M-66.1,385.4C-66,385.1-66.4,385.5-66.1,385.4L-66.1,385.4z M-67.2,383.4
	c-0.2-0.5-0.5-0.3-1.1-0.3C-68.1,383.4-67.7,383.2-67.2,383.4z M-69.7,380c0.2-0.3-0.5-0.3-0.3,0C-69.8,380-69.8,380-69.7,380z
	 M-76.1,380.9c0.2,0,0-0.2,0.2-0.2C-76.1,380.8-76.1,380.9-76.1,380.9z M-77.2,381.4c0-0.2,0-0.2,0-0.3c-0.3-0.2-0.3,0.2-0.5,0.2
	C-77.7,381.5-77.4,381.4-77.2,381.4z M-77.4,388.9c-0.6-0.3-1.5,0.6-2,0.6c-0.5,0-0.6,0.2-0.9,0.3c0.3,0.5,0,0.2-0.2,0.6
	C-79.2,390.2-78.1,389.5-77.4,388.9z M-78.1,382.2c0-0.3-0.2-0.3-0.2-0.5c-0.2,0-0.3,0.2-0.3,0.3c-0.3,0,0.2-0.2,0-0.3
	c-0.2,0-0.2,0.2-0.3,0.2c0.2,0.5-0.2,0.3-0.3,0.6c-0.5-0.3-0.8,0-1.2,0.3c0,0.2,0.2,0.2,0.2,0.5c0.2-0.3,0.3,0,0.8-0.2
	c0-0.5,0.2-0.2,0.3-0.2C-79.4,382.3-78.3,382.3-78.1,382.2z M-80.6,390.3c-0.2,0-0.2,0.2-0.2,0.2c-0.2,0,0-0.2-0.2-0.2
	c0,0-0.2,0.2-0.3,0.2c0,0.2,0,0.2,0,0.3C-80.9,390.6-80.6,390.6-80.6,390.3z M-82.1,382.9c0.2,0,0-0.2,0.2-0.2
	C-82.1,382.6-82.1,382.8-82.1,382.9z M-85.2,385.4c0.2,0,0-0.2,0.2-0.2C-85.2,385.2-85.2,385.4-85.2,385.4z M-85.4,385.5
	c-0.3,0.2-0.8,0.2-0.8,0.6C-85.7,386-85.4,386-85.4,385.5z M-86.4,386.5c0-0.2-0.2-0.2-0.2-0.5c-0.3,0-0.3,0.2-0.3,0.5
	C-86.7,386.2-86.7,386.6-86.4,386.5z M-88.4,453.5c0.2,0,0.2-0.2,0-0.2S-88.4,453.3-88.4,453.5z M-88.4,453.2c0.2,0,0.2-0.2,0.2-0.3
	C-88.4,453-88.4,453-88.4,453.2z M-88.4,443.5c-0.2,0,0,0.3-0.2,0.3C-88.6,444-88.3,443.6-88.4,443.5z M-88.4,443.3
	c0.2,0,0-0.2,0.2-0.3c-0.2,0,0,0.2-0.2,0.2s-0.2,0-0.2-0.2c-0.2,0-0.2,0-0.2,0.2v0.2C-88.6,443.3-88.4,443.2-88.4,443.3z
	 M-88.7,403.8C-88.6,404.1-89,403.4-88.7,403.8L-88.7,403.8z M-89,443.5c0,0.2-0.2,0.6,0.2,0.6C-88.9,443.8-88.7,443.5-89,443.5z
	 M-89,405.8c0.2,0,0-0.2,0.2-0.2C-89,405.7-89,405.7-89,405.8z M-89.5,421.2c-0.2,0.2-0.2,0.2-0.2,0.5
	C-89.3,421.8-89.5,421.4-89.5,421.2z M-89.8,411.1c0.2,0,0-0.2,0.2-0.2C-89.8,410.7-89.8,410.9-89.8,411.1z M-89.8,449.5
	c0.2,0,0-0.2,0.2-0.2C-89.8,449.3-89.8,449.5-89.8,449.5z M-89.8,428.6c0,0-0.2,0.2-0.3,0.2v0.2c0.2,0,0.2,0,0.2,0.2
	C-89.8,428.9-89.8,428.7-89.8,428.6z M-90,425c-0.2-0.3-0.3-0.5-0.6-0.5c0,0.3,0.3,0.3,0.3,0.6C-90.3,425-90.1,425-90,425z
	 M-90.3,421.7c-0.2-0.2-0.2-0.5-0.2-0.6C-90.4,421.2-90.6,421.7-90.3,421.7z M-100.6,471.3c0.2,0,0-0.2,0.2-0.2
	C-100.6,471.2-100.6,471.2-100.6,471.3z M-101.5,472.5C-101.2,472.2-101.8,472.7-101.5,472.5L-101.5,472.5z M-107.9,474.1
	c0.2,0,0-0.2,0.2-0.2C-107.9,473.9-107.9,474.1-107.9,474.1z M-111.8,482.1c0-0.2,0-0.2,0-0.3c-0.2,0-0.2,0.2-0.3,0.2
	C-112.1,482.1-111.9,482.1-111.8,482.1z M-112.1,473.6c0.2,0,0-0.2,0.2-0.2C-112.1,473.5-111.9,473.5-112.1,473.6z M-112.1,482.1
	c0,0-0.2-0.2-0.2-0.3c-0.3,0.2-0.5-0.2-0.5,0.3C-112.4,482.2-112.4,482.1-112.1,482.1z M-117.6,481.8
	C-117.3,481.6-117.9,481.6-117.6,481.8L-117.6,481.8z M-120.6,397.4c0.2,0,0-0.2,0.2-0.2C-120.6,397.2-120.6,397.4-120.6,397.4z
	 M-120.6,396.6c0.2,0,0-0.2,0.2-0.2C-120.6,396.5-120.6,396.5-120.6,396.6z M-120.6,397.7c0.2,0,0-0.2,0.2-0.2
	C-120.6,397.5-120.6,397.5-120.6,397.7z M-120.7,401.2c0.2,0,0-0.2,0.2-0.2C-120.7,401.1-120.7,401.2-120.7,401.2z M-120.9,400.9
	C-120.6,400.6-121.2,401.1-120.9,400.9L-120.9,400.9z M-121.3,396.9c0.2,0,0.2-0.2,0.2-0.3C-121.3,396.6-121.3,396.8-121.3,396.9z
	 M-121.5,397.8c0.2,0,0-0.2,0.2-0.2C-121.5,397.7-121.5,397.8-121.5,397.8z M-121.5,396.6c0.2,0,0-0.2,0.2-0.2
	C-121.5,396.5-121.5,396.5-121.5,396.6z M-121.5,396.1c0.2,0,0-0.2,0.2-0.2C-121.5,396-121.5,396.1-121.5,396.1z M-121.6,400.8
	C-121.5,401.1-121.9,400.3-121.6,400.8L-121.6,400.8z M-121.8,401.4c0.2,0,0-0.2,0.2-0.2C-121.8,401.2-121.6,401.4-121.8,401.4z
	 M-121.8,400c0.2,0,0-0.2,0.2-0.2C-121.8,399.8-121.8,399.8-121.8,400z M-121.9,398.5c0.2,0,0-0.2,0.2-0.2
	C-121.9,398.3-121.9,398.5-121.9,398.5z M-122.1,401.8c0.2,0,0-0.2,0.2-0.2C-122.1,401.5-122.1,401.7-122.1,401.8z M-122.2,401.1
	C-122.1,400.8-122.5,401.7-122.2,401.1L-122.2,401.1z M-122.4,401.7c0.2,0,0-0.2,0.2-0.2C-122.4,401.5-122.4,401.7-122.4,401.7z
	 M-122.9,398.9c0.2,0,0-0.2,0.2-0.2C-122.9,398.6-122.9,398.8-122.9,398.9z M-123.2,404.6c0.2,0,0.2-0.2,0.2-0.3
	C-123.2,404.3-123.2,404.4-123.2,404.6z M-123.5,400.9c0.2,0,0-0.2,0.2-0.2C-123.5,400.8-123.5,400.9-123.5,400.9z M-123.9,404.4
	c0.2,0,0-0.2,0.2-0.2C-123.9,404.3-123.9,404.3-123.9,404.4z M-124.4,403.4c0.2,0,0-0.2,0.2-0.2
	C-124.4,403.2-124.4,403.4-124.4,403.4z M-124.5,476.8c0.2,0,0-0.2,0.2-0.2C-124.5,476.7-124.5,476.8-124.5,476.8z M-124.5,394
	c0.2,0,0.2-0.2,0.2-0.3C-124.5,393.7-124.5,393.8-124.5,394z M-124.7,400.1c0.2,0,0-0.2,0.2-0.2C-124.7,400-124.5,400-124.7,400.1z
	 M-124.9,390.8c0.2,0,0-0.2,0.2-0.2C-124.9,390.6-124.9,390.8-124.9,390.8z M-125.2,402.9c0.2,0,0-0.2,0.2-0.2
	C-125.2,402.8-125.2,402.9-125.2,402.9z M-125.3,407.5c0.2,0,0-0.2,0.2-0.2C-125.3,407.4-125.3,407.5-125.3,407.5z M-125.6,397.8
	c0.2,0,0-0.2,0.2-0.2C-125.6,397.5-125.6,397.7-125.6,397.8z M-126.5,394.3c0.2,0,0.2-0.2,0.2-0.3
	C-126.5,394-126.5,394.1-126.5,394.3z M-126.7,393.7c0.2,0,0-0.2,0.2-0.2C-126.7,393.5-126.7,393.7-126.7,393.7z M-126.7,409.5
	c0.2,0,0-0.2,0.2-0.2C-126.7,409.4-126.7,409.5-126.7,409.5z M-127.6,392.6c0.2,0,0-0.2,0.2-0.2
	C-127.6,392.5-127.6,392.6-127.6,392.6z M-127.6,412.1c0.2,0,0-0.2,0.2-0.2C-127.6,412-127.6,412.1-127.6,412.1z M-127.8,414
	c0.2,0,0-0.2,0.2-0.2C-127.8,413.8-127.8,413.8-127.8,414z M-127.8,424.3c0.2,0,0-0.2,0.2-0.2C-127.8,424.1-127.8,424.1-127.8,424.3
	z M-127.8,409.7c0.2,0,0-0.2,0.2-0.2C-127.8,409.5-127.8,409.5-127.8,409.7z M-128.1,391.7c0.2,0.2,0-0.2,0-0.3
	C-128.2,391.5-128.1,391.7-128.1,391.7z M-128.5,410.6c0.2,0,0-0.2,0.2-0.2C-128.5,410.4-128.5,410.4-128.5,410.6z M-130.8,418.4
	c0.2,0,0-0.2,0.2-0.2C-130.8,418.3-130.8,418.4-130.8,418.4z M-131.5,477.5c0.2,0,0.2-0.2,0.2-0.3
	C-131.5,477.3-131.5,477.5-131.5,477.5z M-132.7,422.7c0.2,0,0-0.2,0.2-0.2C-132.7,422.6-132.7,422.7-132.7,422.7z M-132.8,477.2
	c0.2,0,0.2-0.2,0.2-0.3C-132.8,476.8-132.7,477-132.8,477.2z M-132.8,476.7c0-0.5-0.6-0.2-0.6-0.6
	C-133.6,476.5-133.2,476.8-132.8,476.7z M-133.2,472.8c0.2,0,0-0.2,0.2-0.2C-133.2,472.7-133.2,472.7-133.2,472.8z M-133.3,387.4
	c0.2,0,0-0.2,0.2-0.2C-133.3,387.2-133.3,387.2-133.3,387.4z M-133.6,476.4c0.2,0-0.2-0.5-0.3-0.3
	C-133.9,476.1-133.8,476.1-133.6,476.4z M-135.8,474.1c-0.2,0.5,0.8,0.8,1.1,1.2C-134.5,474.7-135.5,474.4-135.8,474.1z M-134.7,475
	c0.3-0.2-0.2-0.3-0.2-0.5C-135,474.5-134.7,474.8-134.7,475z M-135.3,474.1c0-0.2-0.2-0.2-0.3-0.2
	C-135.8,474.1-135.5,474.2-135.3,474.1z M-135.9,474.1c-0.2-0.3-0.3-0.5-0.6-0.6C-136.5,473.8-136.4,474.2-135.9,474.1z M-136.2,473
	c0-0.3-0.3-0.3-0.5-0.6c-0.2,0.2-0.2,0.2-0.5,0.2c0.2,0.3,0.5,0.3,0.6,0.6C-136.5,473.2-136.5,472.8-136.2,473z M-136.8,387.2
	c0.2,0,0-0.2,0.2-0.2C-136.8,386.9-136.8,387.1-136.8,387.2z M-137.3,472.5c0.2-0.2,0-0.3,0.2-0.6c-0.5,0-0.8-0.3-1.2-1.1
	c0-0.2,0-0.5-0.2-0.6c-0.3-0.3-0.8-0.8-0.6-1.2c-0.2,0.3-0.3,0-0.3-0.3c-0.6-0.2-0.5-0.5-0.6-0.8c-0.2,0-0.3,0.2-0.6,0.2
	C-139.3,469.2-138.8,471.3-137.3,472.5z M-138.2,444.4c0.2,0,0-0.2,0.2-0.2C-138.2,444.3-138.2,444.4-138.2,444.4z M-140.4,467.8
	c-0.2-0.2,0-0.3-0.3-0.3C-140.7,467.8-140.5,467.8-140.4,467.8z M-151.1,378.3c0.2,0,0-0.2,0.2-0.2
	C-151.1,378.2-151.1,378.2-151.1,378.3z M-153.6,379.5c0.2,0,0-0.2,0.2-0.2C-153.6,379.2-153.6,379.4-153.6,379.5z M-154.5,436.1
	c0.2,0,0-0.2,0.2-0.2C-154.5,436-154.5,436.1-154.5,436.1z M-156.8,380c0.2,0,0-0.2,0.2-0.2C-156.8,379.9-156.8,380-156.8,380z
	 M-158.2,384.3c0.2,0,0-0.2,0.2-0.2C-158.2,384.2-158.2,384.3-158.2,384.3z M-158.8,415.1c0.3-1.2-0.2-2.8-0.3-3.8
	C-159.4,412.3-159.1,414-158.8,415.1z M-160.1,394h-0.2c0,0.2,0.2,0.2,0.2,0.3C-160.1,394.3-159.9,394-160.1,394z M-160.2,407.8
	c0.2,0,0-0.2,0.2-0.2C-160.2,407.7-160.2,407.7-160.2,407.8z M-160.8,405.7c0.2,0,0.2-0.2,0.2-0.3
	C-160.8,405.5-160.8,405.7-160.8,405.7z M-160.8,404.8c0-0.5,0-0.6-0.2-1.1c-0.2,0,0,0.5-0.2,0.6c-0.2-0.2-0.2-0.3-0.2-0.6
	c-0.3,0.2-0.3-0.2-0.6-0.2c0,0.2,0,0.3,0,0.3c0,0.2,0.5,0,0.5,0.2c0,0.2-0.2,0-0.3,0c0,0.2,0,0.3,0,0.3
	C-161.3,405.1-161.1,404.4-160.8,404.8z M-161,402.4C-161.3,402.8-160.8,403.1-161,402.4L-161,402.4z M-161.1,400.8
	c-0.2-0.5,0-1.1-0.6-1.1C-161.6,400.1-161.4,400.6-161.1,400.8z M-161.3,399.7c0-0.2,0-0.5-0.2-0.6c-0.3,0-0.5,0.2-0.3,0.5
	C-161.4,399.4-161.6,399.7-161.3,399.7z M-163.6,450.7C-163.4,450.3-163.7,451-163.6,450.7L-163.6,450.7z M-185.7,451
	c0.2,0,0-0.2,0.2-0.2C-185.7,450.9-185.6,450.9-185.7,451z M-187.4,449.2c0.2,0,0-0.2,0.2-0.2C-187.4,449-187.4,449.2-187.4,449.2z
	 M-187.7,451.3v-0.2C-187.7,451.2-187.7,451.2-187.7,451.3z M-190.6,446.4C-190.2,446.3-190.9,446.3-190.6,446.4L-190.6,446.4z
	 M-191.7,398.9c0.2,0,0-0.2,0.2-0.2C-191.7,398.6-191.7,398.8-191.7,398.9z M-192,412c0.2,0,0-0.2,0.2-0.2
	C-192,411.8-192,412-192,412z M-192.3,445.8C-192,446.1-192.6,445.5-192.3,445.8L-192.3,445.8z M-192.6,409.1c0.2,0,0-0.2,0.2-0.2
	C-192.6,408.8-192.6,408.9-192.6,409.1z M-192.8,408.1c0.2,0,0.2-0.2,0.2-0.3C-192.8,408-192.8,408.1-192.8,408.1z M-192.9,410
	c0.2,0,0-0.2,0.2-0.2C-192.9,409.7-192.9,409.8-192.9,410z M-193.1,446.9C-192.8,446.6-193.4,447-193.1,446.9L-193.1,446.9z
	 M-193.1,418.9c0.2,0,0-0.2,0.2-0.2C-193.1,418.7-193.1,418.7-193.1,418.9z M-193.1,418.4c0.2,0,0.2-0.2,0.2-0.3
	C-193.1,418.1-193.1,418.3-193.1,418.4z M-193.3,407.4c0.2,0,0-0.2,0.2-0.2C-193.3,407.2-193.3,407.2-193.3,407.4z M-193.3,406.1
	c0.2,0,0-0.2,0.2-0.2C-193.3,405.8-193.3,406-193.3,406.1z M-193.4,411.2c0.2,0,0-0.2,0.2-0.2C-193.4,411.1-193.4,411.1-193.4,411.2
	z M-193.6,405.7c0.2,0,0-0.2,0.2-0.2C-193.6,405.4-193.6,405.5-193.6,405.7z M-194,400.8c0.2,0,0-0.2,0.2-0.2
	C-194,400.6-194,400.8-194,400.8z M-194.2,421.4c0.2,0,0-0.2,0.2-0.2C-194.2,421.2-194.2,421.4-194.2,421.4z M-194.2,421
	c0.2,0,0-0.2,0.2-0.2C-194.2,420.9-194.2,421-194.2,421z M-194.2,420.7c0.2,0,0-0.2,0.2-0.2C-194.2,420.4-194.2,420.6-194.2,420.7z
	 M-194.2,416.4c0.2,0,0-0.3,0.2-0.5C-194.3,416-194.2,416.3-194.2,416.4z M-194.5,416c0.2,0,0-0.2,0.2-0.2
	C-194.5,415.8-194.3,416-194.5,416z M-194.5,414.4c0.2,0,0-0.2,0.2-0.2C-194.5,414.1-194.3,414.3-194.5,414.4z M-194.5,405.4
	c0.2,0,0-0.2,0.2-0.2C-194.5,405.2-194.3,405.2-194.5,405.4z M-194.5,407.4C-194.3,407.8-194.6,407.1-194.5,407.4L-194.5,407.4z
	 M-194.5,402.1C-194.3,401.8-194.8,402.4-194.5,402.1L-194.5,402.1z M-194.6,406C-194.9,406.1-194.3,406.4-194.6,406L-194.6,406z
	 M-194.6,400.1C-194.3,399.8-194.9,400.5-194.6,400.1L-194.6,400.1z M-194.6,399.7c0.2,0,0-0.2,0.2-0.2
	C-194.6,399.5-194.6,399.7-194.6,399.7z M-194.6,416.4c0.2,0,0-0.2,0.2-0.2C-194.6,416.3-194.6,416.4-194.6,416.4z M-194.6,414.1
	c0.2,0,0.2-0.2,0.2-0.3C-194.6,413.8-194.6,414-194.6,414.1z M-194.8,402.4C-195.1,402.8-194.5,402.9-194.8,402.4L-194.8,402.4z
	 M-194.8,402.3c0.2,0,0-0.3,0.2-0.5C-194.9,401.8-194.8,402.1-194.8,402.3z M-194.8,400c0.2,0,0.2-0.2,0.2-0.3
	C-194.8,399.7-194.8,399.8-194.8,400z M-194.9,422.1c0.2,0,0-0.2,0.2-0.2C-194.9,422-194.8,422.1-194.9,422.1z M-194.9,416.4
	C-194.6,416.7-195.1,416-194.9,416.4L-194.9,416.4z M-194.9,416c0.2,0,0-0.2,0.2-0.2C-194.9,415.8-194.8,415.8-194.9,416z
	 M-194.9,406.6c0.2,0,0-0.2,0.2-0.2C-194.9,406.3-194.8,406.4-194.9,406.6z M-194.9,414.6C-194.6,414.6-195.4,414.6-194.9,414.6
	L-194.9,414.6z M-194.9,406.9c0.2,0,0-0.2,0.2-0.2C-194.9,406.8-194.9,406.8-194.9,406.9z M-194.9,405.8c0.2,0,0-0.2,0.2-0.2
	C-194.9,405.7-194.9,405.7-194.9,405.8z M-194.9,401.8C-194.8,401.5-195.3,402-194.9,401.8L-194.9,401.8z M-195.1,414.3
	c0.2,0,0-0.2,0.2-0.2C-195.1,414.1-195.1,414.3-195.1,414.3z M-195.1,406.3c0.2,0,0.2-0.2,0.2-0.3
	C-195.1,406.1-195.1,406.3-195.1,406.3z M-195.1,402.6c0.2,0,0.2-0.2,0.2-0.3C-195.1,402.3-195.1,402.4-195.1,402.6z M-195.1,421.7
	c0.2,0,0-0.2,0.2-0.2C-195.1,421.5-195.1,421.7-195.1,421.7z M-195.1,421.2c0.2,0,0-0.2,0.2-0.2C-195.1,421-195.1,421.2-195.1,421.2
	z M-195.1,406.8C-194.9,406.3-195.4,407.2-195.1,406.8L-195.1,406.8z M-195.3,421.8C-194.9,422.6-195.4,421.2-195.3,421.8
	L-195.3,421.8z M-195.4,415.8c0.2,0,0-0.2,0.2-0.2C-195.4,415.7-195.3,415.8-195.4,415.8z M-195.4,415.4c0.2,0,0-0.2,0.2-0.2
	C-195.4,415.1-195.3,415.2-195.4,415.4z M-195.4,405.7c0.2,0,0-0.2,0.2-0.2C-195.4,405.4-195.3,405.5-195.4,405.7z M-195.4,402.9
	c0.2,0,0.2-0.2,0.2-0.3C-195.4,402.6-195.4,402.8-195.4,402.9z M-195.6,423.4c0.2,0,0-0.2,0.2-0.2
	C-195.6,423.2-195.6,423.4-195.6,423.4z M-195.7,416.3C-195.4,416.1-196,416.1-195.7,416.3L-195.7,416.3z M-195.7,414.6
	C-195.4,414.3-195.9,414.9-195.7,414.6L-195.7,414.6z M-195.7,403.1c0.2,0,0-0.2,0.2-0.2C-195.7,402.9-195.7,403.1-195.7,403.1z
	 M-195.9,416.7c0.2,0,0-0.2,0.2-0.2C-195.9,416.6-195.9,416.7-195.9,416.7z M-195.9,415.4c0.2,0,0-0.2,0.2-0.2
	C-195.9,415.2-195.9,415.4-195.9,415.4z M-196,422.4c0.2,0,0-0.2,0.2-0.2C-196,422.3-196,422.3-196,422.4z M-196,417.8
	c0.2,0,0-0.2,0.2-0.2C-196,417.5-196,417.7-196,417.8z M-196.2,414.9c0.2,0,0-0.2,0.2-0.2C-196.2,414.7-196.2,414.9-196.2,414.9z"/>
</svg>
