<?xml version="1.0" encoding="utf-8"?>
<!-- Generator: Adobe Illustrator 19.0.0, SVG Export Plug-In . SVG Version: 6.00 Build 0)  -->
<svg version="1.1" id="Capa_1" xmlns="http://www.w3.org/2000/svg" xmlns:xlink="http://www.w3.org/1999/xlink" x="0px" y="0px"
	 viewBox="-210 325.9 173.5 190" style="enable-background:new -210 325.9 173.5 190;" xml:space="preserve">
<g id="XMLID_100_">
	<path d="M-45.1,494.1h-156.3c-2,0-3.8-1-4.8-2.7s-1-3.8,0-5.5l78.1-135.4c1-1.7,2.8-2.8,4.8-2.8l0,0c2,0,3.8,1,4.8,2.7l78.2,135.4
		c1,1.7,1,3.8,0,5.5C-41.3,493-43.1,494.1-45.1,494.1z M-191.9,483.1h137.3l-68.7-118.9L-191.9,483.1z"/>
</g>
<g>
	<path d="M-138.4,442.2c-8,0-14.4,6.5-14.4,14.4c0,8,6.5,14.4,14.4,14.4c8,0,14.4-6.5,14.4-14.4
		C-123.9,448.7-130.4,442.2-138.4,442.2L-138.4,442.2z M-138.4,468.4c-6.5,0-11.8-5.3-11.8-11.8c0-5.6,3.9-10.3,9.1-11.5l3,2.4
		l-2.2,5.5c-0.2,0.4-0.1,0.9,0.2,1.3c0.3,0.4,0.7,0.6,1.1,0.5l5.8-0.4l1.4,5.6c0.1,0.4,0.4,0.8,0.9,0.9c0.1,0,0.3,0.1,0.4,0.1
		c0.3,0,0.6-0.1,0.8-0.3l3-2.5C-127.4,464-132.4,468.4-138.4,468.4L-138.4,468.4z M-138.4,468.4"/>
	<path d="M-93.7,435.6c0-8-6.5-14.4-14.4-14.4c-8,0-14.4,6.5-14.4,14.4c0,8,6.5,14.4,14.4,14.4C-100.2,450.1-93.7,443.6-93.7,435.6
		L-93.7,435.6z M-108.1,447.4c-1.1,0-2.1-0.2-3.1-0.4l3.8-2.4c0.4-0.2,0.6-0.7,0.6-1.1c0-0.4-0.2-0.9-0.6-1.1l-4.9-3.1l2.2-5.4
		c0.2-0.4,0.1-0.9-0.2-1.3c-0.3-0.4-0.7-0.6-1.2-0.5l-5.8,0.4l-0.8-3.3c2.1-3.3,5.8-5.5,9.9-5.5c6.5,0,11.8,5.3,11.8,11.8
		C-96.3,442.1-101.6,447.4-108.1,447.4L-108.1,447.4z M-108.1,447.4"/>
	<path d="M-88.4,435.6c0-5.4-2.2-10.5-6.1-14.2c-3.9-3.8-9.1-5.7-14.5-5.4c-7.9,0.4-14.8,5.7-17.5,12.9l-3-2.6
		c-0.3-0.3-0.8-0.4-1.3-0.2c-0.4,0.1-0.8,0.5-0.9,0.9l-1.4,5.6l-1.2-0.1v-12.1l3.5,3.5c0.8,0.8,1.8,1.2,2.9,1.2
		c2.3,0,4.1-1.8,4.1-4.1c0-1.1-0.4-2.1-1.2-2.9l-12.3-12.3c-0.5-0.5-1.3-0.5-1.9,0l-12.3,12.3c-0.8,0.8-1.2,1.8-1.2,2.9
		c0,2.3,1.8,4.1,4.1,4.1c1.1,0,2.1-0.4,2.9-1.2l3.5-3.5v16.9c-9.1,1.9-15.8,9.9-15.8,19.3c0,10.9,8.8,19.7,19.7,19.7
		c10.5,0,19.1-8.2,19.6-18.6l2,1.3c0.2,0.1,0.5,0.2,0.7,0.2c0.2,0,0.4-0.1,0.6-0.2c0.4-0.2,0.7-0.7,0.7-1.2v-3.8
		c0.9,0.3,1.7,0.6,2.6,0.8v9.6h-2.6c-2.2,0-3.9,1.8-3.9,3.9c0,2.2,1.8,3.9,3.9,3.9h2.6v2.6c0,2.2,1.8,3.9,3.9,3.9
		c2.2,0,3.9-1.8,3.9-3.9v-2.6h2.6c2.2,0,3.9-1.8,3.9-3.9c0-2.2-1.8-3.9-3.9-3.9h-2.6v-9.6C-95.1,453-88.4,445-88.4,435.6
		L-88.4,435.6z M-138.4,473.7c-9.4,0-17.1-7.7-17.1-17.1c0-8.4,6.3-15.7,14.6-16.9c0.6-0.1,1.1-0.6,1.1-1.3v-21.2
		c0-0.5-0.3-1-0.8-1.2c-0.2-0.1-0.3-0.1-0.5-0.1c-0.3,0-0.7,0.1-0.9,0.4l-5.8,5.8c-0.3,0.3-0.6,0.4-1,0.4c-0.8,0-1.5-0.7-1.5-1.5
		c0-0.4,0.2-0.8,0.4-1l11.4-11.4L-127,420c0.3,0.3,0.4,0.7,0.4,1c0,0.8-0.7,1.5-1.5,1.5c-0.4,0-0.8-0.1-1-0.4l-5.8-5.8
		c-0.4-0.4-0.9-0.5-1.4-0.3c-0.5,0.2-0.8,0.7-0.8,1.2v21.2c0,0.6,0.5,1.2,1.1,1.3c8.3,1.2,14.6,8.5,14.6,16.9
		C-121.3,466-128.9,473.7-138.4,473.7L-138.4,473.7z M-105.5,467.1h3.9c0.7,0,1.3,0.6,1.3,1.3c0,0.7-0.6,1.3-1.3,1.3h-3.9
		c-0.7,0-1.3,0.6-1.3,1.3v3.9c0,0.7-0.6,1.3-1.3,1.3c-0.7,0-1.3-0.6-1.3-1.3v-3.9c0-0.7-0.6-1.3-1.3-1.3h-3.9
		c-0.7,0-1.3-0.6-1.3-1.3c0-0.7,0.6-1.3,1.3-1.3h3.9c0.7,0,1.3-0.6,1.3-1.3v-12c0-0.7-0.5-1.2-1.1-1.3c-8.9-1.3-15.3-9.3-14.6-18.2
		c0.7-8.4,7.8-15.3,16.2-15.7c4.7-0.2,9.2,1.4,12.6,4.7c3.4,3.3,5.3,7.6,5.3,12.4c0,8.4-6.3,15.7-14.6,16.9
		c-0.6,0.1-1.1,0.6-1.1,1.3v12C-106.8,466.5-106.2,467.1-105.5,467.1L-105.5,467.1z M-105.5,467.1"/>
</g>
</svg>
