<?xml version="1.0" encoding="utf-8"?>
<!-- Generator: Adobe Illustrator 19.0.0, SVG Export Plug-In . SVG Version: 6.00 Build 0)  -->
<svg version="1.1" id="Capa_1" xmlns="http://www.w3.org/2000/svg" xmlns:xlink="http://www.w3.org/1999/xlink" x="0px" y="0px"
	 viewBox="-210 325.9 173.5 190" style="enable-background:new -210 325.9 173.5 190;" xml:space="preserve">
<style type="text/css">
	.st0{fill:none;}
</style>
<g id="XMLID_100_">
	<path d="M-45.1,494.1h-156.3c-2,0-3.8-1-4.8-2.7s-1-3.8,0-5.5l78.1-135.4c1-1.7,2.8-2.8,4.8-2.8l0,0c2,0,3.8,1,4.8,2.7l78.2,135.4
		c1,1.7,1,3.8,0,5.5C-41.3,493-43.1,494.1-45.1,494.1z M-191.9,483.1h137.3l-68.7-118.9L-191.9,483.1z"/>
</g>
<g transform="translate(-450 -140)">
	<g>
		<polygon class="st0" points="327.3,597.9 325,597.9 313.6,609.3 313.6,611.6 		"/>
		<path d="M358.1,565.9c-3.2,0-8.3,2.6-11.4,5.7c-3.2,3.2-3.2,5.7,0,5.7c3.2,0,8.3-2.6,11.4-5.7
			C361.3,568.4,361.3,565.9,358.1,565.9z"/>
		<polygon points="315.9,597.9 315.9,600.2 313.6,600.2 313.6,609.3 325,597.9 327.3,597.9 313.6,611.6 313.6,618.5 329.6,602.5 
			331.9,602.5 354.7,579.6 334.1,579.6 		"/>
		<circle cx="303.3" cy="562.5" r="5.7"/>
		<polygon points="311.3,597.9 313.6,597.9 313.6,570.5 293,570.5 293,597.9 295.3,597.9 295.3,620.7 302.1,620.7 302.1,593.3 
			304.4,593.3 304.4,620.7 311.3,620.7 		"/>
	</g>
</g>
</svg>
