<?xml version="1.0" encoding="utf-8"?>
<!-- Generator: Adobe Illustrator 19.0.0, SVG Export Plug-In . SVG Version: 6.00 Build 0)  -->
<svg version="1.1" id="Capa_1" xmlns="http://www.w3.org/2000/svg" xmlns:xlink="http://www.w3.org/1999/xlink" x="0px" y="0px"
	 viewBox="-210 325.9 173.5 190" style="enable-background:new -210 325.9 173.5 190;" xml:space="preserve">
<style type="text/css">
	.st0{fill:none;}
	.st1{fill:#FFFFFF;}
</style>
<path d="M-47.6,439.2c-1.5-1.3-2.8-2.3-2.9-2.4c-0.1-0.1-0.1-0.2,0-1.3c0.8-5.9,0.9-11.7,0.3-17.8c-1.4-14.2-6.9-27.4-15.8-38.6
	c-5.7-7.2-12.9-13.3-20.9-17.9c-2.5-1.4-6-3.1-8.5-4.2c-0.3-0.1-0.6-0.3-0.7-0.4c0-0.1-0.7-3.1-1.5-6.8c-0.8-3.7-1.5-6.8-1.5-6.8
	c0-0.1-1.3-0.1-24.2-0.1h-24.2v0.2c0,0.1-0.5,3.1-1.2,6.7c-0.6,3.6-1.1,6.5-1.2,6.6c0,0.1-0.5,0.3-1.1,0.5
	c-11.6,4.7-22.1,12.5-29.9,22.3c-8.1,10.1-13.4,22.2-15.3,34.9c-0.1,0.7-0.2,1.4-0.3,1.5c-0.1,0.4-0.4,3.2-0.6,5.7
	c-0.1,1.7-0.1,6.1,0,7.9c0.1,1.6,0.2,3.2,0.5,5.1l0.2,1.4l-0.3,0.3c-0.6,0.6-1.5,1.3-2.3,2.1c-0.5,0.4-1.1,1-1.4,1.3
	c-0.6,0.6-0.7,0.7-3.9,3.6c-1.4,1.3-2.5,2.3-2.5,2.4c0,0,0.9,1.7,2.1,3.7c1.2,2,6.6,11.4,12.1,20.9s10,17.3,10,17.3s0.6-0.2,1.3-0.5
	c0.7-0.2,2.1-0.8,3.3-1.2c6.6-2.4,8.2-3,8.3-3c0,0,0.3,0.2,0.5,0.4c1.4,1.1,4.7,3.5,6.9,4.9c3.7,2.3,8.6,4.7,13.2,6.4
	c10.9,4.1,23,5.5,34.5,4.1c6.2-0.7,12.4-2.3,18-4.5c0.7-0.3,1.4-0.5,1.5-0.6c0.4-0.1,2.8-1.2,5.2-2.4c3.8-1.9,7.2-4,10.7-6.7
	l1.4-1.1l0.4,0.1c0.2,0.1,0.5,0.1,0.6,0.2c0.4,0.1,3.8,1.2,4.3,1.3c0.9,0.3,4.9,1.5,5.1,1.6c0.1,0,0.5,0.2,1,0.3
	c0.4,0.1,1.1,0.3,1.5,0.5c0.4,0.1,0.7,0.2,0.8,0.2c0.1,0,24.2-41.8,24.2-41.9C-40.2,445.5-41.6,444.2-47.6,439.2z M-45.5,447.1
	c0,0.1-4.6,7.9-10.1,17.5c-6,10.4-10.1,17.4-10.1,17.4c-0.1,0-0.7-0.2-1.3-0.4c-0.7-0.2-1.3-0.4-1.5-0.4c-0.3-0.1-3.4-1-4-1.2
	c-0.2-0.1-0.7-0.2-1.1-0.3c-0.4-0.1-0.7-0.2-0.8-0.3c-0.1,0-0.3-0.1-0.5-0.1s-0.4-0.1-0.5-0.1s-0.4-0.1-0.7-0.2
	c-0.3-0.1-0.9-0.3-1.4-0.4c-0.9-0.3-0.9-0.3-1.1-0.1c-0.1,0.1-0.7,0.5-1.3,1c-1.8,1.5-5.2,3.9-5.4,3.9c0,0-0.4,0.2-0.7,0.4
	c-3.5,2.3-7.9,4.5-11.9,6.1c-6.8,2.7-13.5,4.2-21.1,4.8c-1.7,0.1-7.2,0.1-8.9,0c-9.8-0.7-18.4-3.1-26.7-7.3
	c-4.3-2.2-8.9-5.1-12.3-7.9c-0.3-0.2-0.6-0.4-0.6-0.5c0,0-0.4-0.3-0.8-0.7l-0.7-0.6l-0.4,0.1c-0.3,0.1-0.8,0.2-3.2,1.1
	c-0.7,0.3-2.3,0.9-3.7,1.3c-1.3,0.5-3,1.1-3.7,1.3c-0.7,0.3-1.3,0.5-1.3,0.5s-4.6-7.9-10.2-17.5l-10.1-17.5l0.3-0.2
	c0.1-0.1,0.8-0.8,1.5-1.4s1.5-1.4,1.7-1.6c0.3-0.3,0.8-0.8,1.2-1.1c0.4-0.4,0.9-0.8,1.1-1c0.2-0.2,0.5-0.5,0.7-0.6
	c0.5-0.5,2-1.8,2.2-2c0.1-0.1,0.4-0.4,0.7-0.7l0.5-0.5l-0.1-0.5c-0.4-1.9-0.8-5.5-0.8-7c0-0.6,0-2.2-0.1-3.6
	c-0.1-4,0.1-7.8,0.7-11.7c2.9-19.3,13.8-36.4,30-47.2c4.7-3.2,10-5.8,15.1-7.6c0.9-0.3,0.9-0.3,1-0.6c0.1-0.3,0.6-3,1.5-8.3
	c0.4-2.1,0.7-4,0.7-4.1v-0.2h20.2c19.2,0,20.2,0,20.3,0.1c0.1,0.2,1.8,7.5,2.4,10.1c0.3,1.3,0.6,2.5,0.6,2.6
	c0.1,0.2,0.1,0.3,1.5,0.8c3,1.1,6.5,2.8,8.9,4.1c7.9,4.4,14.8,10.2,20.4,17.2c8.7,10.8,14,24,15.1,37.9c0.2,3,0.3,8.3,0.1,10.8
	c-0.2,2.4-0.6,5.2-1,7.6l-0.1,0.5l0.3,0.3c0.2,0.2,0.6,0.6,1,0.9s0.7,0.6,0.8,0.6c0,0,0.4,0.4,0.9,0.7c0.4,0.3,1.1,0.9,1.5,1.2
	c0.4,0.3,1.7,1.4,2.9,2.4C-45.2,447.1-45.4,446.9-45.5,447.1z"/>
<line id="XMLID_87_" class="st0" x1="-123.3" y1="400.5" x2="-123.3" y2="396.6"/>
<path id="XMLID_86_" class="st0" d="M-124.6,400.9c0.8-0.3,1.6-0.4,2.5-0.4"/>
<path id="XMLID_85_" class="st0" d="M-122.3,401.3c-0.7,0.3-1.4,0.7-2,1.1"/>
<path id="XMLID_84_" class="st0" d="M-122.5,403c-0.6,0.4-1.1,0.9-1.7,1.4"/>
<path id="XMLID_83_" class="st0" d="M-122.6,405.5c-0.5,0.5-1,1.1-1.5,1.7"/>
<path id="XMLID_81_" class="st0" d="M-122.8,408.1L-122.8,408.1c-0.4,0.5-0.7,0.9-1,1.4"/>
<path id="XMLID_80_" class="st0" d="M-122.9,411.3c-0.3,0.4-0.5,0.8-0.8,1.2"/>
<path id="XMLID_79_" class="st0" d="M-123.1,414c-0.2,0.3-0.4,0.6-0.5,0.9"/>
<path id="XMLID_78_" class="st0" d="M-123.1,410.7c-0.1,0.6-0.3,1.3-0.4,1.9"/>
<path id="XMLID_76_" class="st0" d="M-123.8,407.9L-123.8,407.9c0.3-1,0.6-2,1-3"/>
<path id="XMLID_75_" class="st0" d="M-122.6,400.1c-0.5,1-1,2.1-1.5,3.3"/>
<path id="XMLID_74_" class="st0" d="M-122.5,396.6c-0.6,0.8-1.2,1.7-1.7,2.7"/>
<path id="XMLID_73_" class="st0" d="M-124.5,395.6c0.8-0.9,1.5-1.8,2.3-2.4"/>
<path id="XMLID_72_" class="st0" d="M-121.8,390.1c-0.9,0.4-2,1.1-3.1,2"/>
<path id="XMLID_71_" class="st0" d="M-122.5,389.2c0,0-0.6,0.1-1.6,0.5"/>
<line id="XMLID_70_" class="st0" x1="-123.3" y1="396" x2="-123.3" y2="389.2"/>
<line id="XMLID_69_" class="st0" x1="-123.3" y1="407.9" x2="-123.3" y2="407.9"/>
<line id="XMLID_63_" class="st0" x1="-123.3" y1="402.4" x2="-123.3" y2="402.4"/>
<line id="XMLID_60_" class="st0" x1="-123.3" y1="408.1" x2="-123.3" y2="408.1"/>
<line id="XMLID_57_" class="st0" x1="-123.3" y1="412.5" x2="-123.3" y2="412.5"/>
<line id="XMLID_68_" class="st0" x1="-123.3" y1="400.5" x2="-123.3" y2="396.6"/>
<path id="XMLID_67_" class="st0" d="M-124.6,400.5c0.8,0,1.6,0.1,2.5,0.4"/>
<path id="XMLID_66_" class="st0" d="M-122.3,402.4c-0.7-0.4-1.3-0.8-2-1.1"/>
<path id="XMLID_65_" class="st0" d="M-122.5,404.5c-0.5-0.5-1.1-1-1.7-1.4"/>
<path id="XMLID_64_" class="st0" d="M-122.6,407.2c-0.5-0.6-1-1.1-1.5-1.7"/>
<path id="XMLID_62_" class="st0" d="M-123.9,408.1L-123.9,408.1c0.4,0.5,0.7,0.9,1,1.4"/>
<path id="XMLID_61_" class="st0" d="M-122.9,412.5c-0.2-0.4-0.5-0.8-0.8-1.2"/>
<path id="XMLID_59_" class="st0" d="M-123.6,414L-123.6,414c0.2,0.3,0.4,0.6,0.5,0.9"/>
<path id="XMLID_58_" class="st0" d="M-123.1,412.6c-0.1-0.7-0.3-1.3-0.4-1.9"/>
<path id="XMLID_56_" class="st0" d="M-122.8,407.9L-122.8,407.9c-0.3-1-0.6-2-1-3"/>
<path id="XMLID_55_" class="st0" d="M-122.6,403.4c-0.5-1.2-1-2.3-1.5-3.3"/>
<path id="XMLID_54_" class="st0" d="M-122.5,399.3c-0.6-1-1.2-1.9-1.7-2.7"/>
<path id="XMLID_53_" class="st0" d="M-124.5,393.1c0.7,0.7,1.5,1.5,2.3,2.4"/>
<path id="XMLID_52_" class="st0" d="M-121.8,392.2c-1.1-0.9-2.2-1.6-3.1-2"/>
<path id="XMLID_51_" class="st0" d="M-122.5,389.7c-1-0.4-1.6-0.5-1.6-0.5"/>
<line id="XMLID_50_" class="st0" x1="-123.3" y1="396" x2="-123.3" y2="389.2"/>
<line id="XMLID_49_" class="st0" x1="-123.3" y1="407.9" x2="-123.3" y2="407.9"/>
<line id="XMLID_48_" class="st0" x1="-123.3" y1="402.4" x2="-123.3" y2="402.4"/>
<line id="XMLID_47_" class="st0" x1="-123.3" y1="408.1" x2="-123.3" y2="408.1"/>
<line id="XMLID_46_" class="st0" x1="-123.3" y1="412.5" x2="-123.3" y2="412.5"/>
<line id="XMLID_45_" class="st0" x1="-123.3" y1="414" x2="-123.3" y2="414"/>
<g>
	<path d="M-71.2,452.6c-1.5-0.9-2.8-1.7-3.5-2c3.6-7.3,5.6-15.5,5.6-24.1c0-10-2.7-19.3-7.3-27.5c-0.7-1.2-1.5-2.5-2.2-3.7
		c-3.4-5-7.7-9.6-12.7-13.3c-2.7-2-5.2-3.6-8.4-5.2c-5.9-2.9-12.2-4.8-18.5-5.4c-1-0.1-1.9-0.2-2.1-0.2h-0.3v-4.4v-4.4h-3.4h-3.4
		v4.4v4.4h-0.3c-0.2,0-1.1,0.1-2.1,0.2c-8.5,0.9-17.2,4-24.5,8.9c-5.2,3.5-9.9,7.8-13.6,12.9c-7.1,9.3-11.2,20.7-11.2,33.3
		c0,8.9,2.1,17.2,5.8,24.5c-0.8,0.4-2,1.2-3.5,2c-2.2,1.3-4.1,2.5-4.3,2.5c-0.1,0.1,0.1,0.4,1.6,2.9c0.9,1.6,1.7,2.9,1.7,2.9
		s1.9-1.1,4.3-2.5c1.5-0.9,2.8-1.6,3.6-2c9.9,14.9,26.8,24.7,45.8,24.7c19.3,0,36.3-10,46.1-25.1c0.8,0.4,2,1.1,3.6,2
		c2.2,1.3,4.1,2.5,4.3,2.5c0.1,0,0.4-0.6,1.8-2.8c1.5-2.6,1.7-2.9,1.6-3C-67.1,454.9-69,453.8-71.2,452.6z M-115.4,469.3
		c-0.4,0.1-1,0.2-1.5,0.2c-0.3,0-0.6,0.1-0.9,0.1c-0.2,0-0.3,0-0.6,0.1c-6.1,0.8-12.1,0.3-18-1.3c-0.1,0-0.3-0.1-0.4-0.1
		c-0.3-0.1-0.7-0.2-1.1-0.3c-17.5-5.7-30.3-22.2-30.3-41.7c0-24.2,19.6-43.8,43.8-43.8s43.8,19.6,43.8,43.8
		C-80.3,447.5-95.4,465.1-115.4,469.3L-115.4,469.3z"/>
</g>
<g id="XMLID_15_">
	<g id="XMLID_7_">
		<path id="XMLID_11_" d="M-97,426.9c-2.6-4.8-2.7-7.3-2.7-7.3c-10.2-60.2-23.3-59.8-23.7-59.8c-0.4,0-13.5-0.4-23.7,59.8
			c0,0-0.1,2.6-2.7,7.3c-2.6,4.8-13.7,28.2-11.7,32.7c0,0,6.3-6,13.5-9.3c7.2-3.3,24.5-4.3,24.5-4.3s17.4,1,24.5,4.3
			c7.2,3.3,13.5,9.3,13.5,9.3C-83.2,455.1-94.4,431.7-97,426.9z"/>
		<path id="XMLID_88_" class="st1" d="M-106.8,414.4v-1.6l-0.5,0.7c-0.3-0.4-0.6-0.9-0.9-1.4l0.4-3.1l-1.2,1.9
			c-0.4-0.6-0.8-1.2-1.3-1.9l0.2-3.3l-1.2,1.9c-0.2-0.3-0.5-0.6-0.8-0.9v0l-0.2-4.4l-1.3,2.8c-0.3-0.4-0.7-0.7-1.1-1v-4.8l-1.7,3.4
			c-0.3-0.2-0.6-0.4-0.9-0.6l-0.2-5.5l-1.8,4.4c-0.4-0.2-0.7-0.3-1.1-0.4l-1.3-6.1l-1.1,5.7c-0.2,0-0.4,0-0.5,0c-0.2,0-0.4,0-0.5,0
			l-1.1-5.7l-1.3,6.1c-0.4,0.1-0.7,0.3-1.1,0.4l-1.8-4.4l-0.2,5.5c-0.3,0.2-0.6,0.4-0.9,0.6l-1.7-3.4v4.8c-0.4,0.3-0.7,0.7-1.1,1
			l-1.3-2.8l-0.2,4.4v0c-0.3,0.3-0.5,0.6-0.8,0.9l-1.2-1.9l0.2,3.3c-0.5,0.6-0.9,1.3-1.3,1.9l-1.2-1.9l0.4,3.1
			c-0.3,0.5-0.6,1-0.9,1.4l-0.5-0.7v1.6c-0.5,0.9-0.8,1.4-0.8,1.4c0.2-1.3,0.4-2.5,0.6-3.6l0.7,0.3l-0.3-2.2c0.2-1,0.5-1.9,0.7-2.8
			l1.6,1.9l-0.6-4.8c0.2-0.5,0.4-1,0.6-1.5l1.5,2.6v-5.8c0.2-0.3,0.3-0.6,0.5-0.9l2,3.4l-0.3-6.2c0.2-0.3,0.5-0.7,0.8-1l2,3.7
			l0.3-6.2v0c0.4-0.3,0.7-0.7,1.1-1l2,5.1l1.1-7.1c0.4-0.2,0.8-0.4,1.1-0.5l1.9,6.3l1.9-6.3c0.3,0.1,0.7,0.3,1.1,0.5l1.1,7.1l2-5.1
			c0.4,0.3,0.7,0.6,1.1,1v0l0.3,6.2l2-3.7c0.3,0.3,0.5,0.6,0.8,1l-0.3,6.2l2-3.4c0.2,0.3,0.3,0.6,0.5,0.9v5.8l1.5-2.6
			c0.2,0.5,0.4,1,0.6,1.5l-0.6,4.8l1.6-1.9c0.3,0.9,0.5,1.8,0.7,2.8l-0.3,2.2l0.7-0.3c0.2,1.2,0.4,2.4,0.6,3.6
			C-106.1,415.8-106.3,415.3-106.8,414.4z"/>
	</g>
	<g id="XMLID_12_">
		<g>
			<path id="XMLID_4_" class="st1" d="M-137,380.6c-0.5,0.4-3.4,3.5-3.4,8.6c0,5.1,1.9,1.8,2.2,1.3c0.9-1.7,2.1-4.1,2.3-7.2
				C-135.8,381-136.2,379.8-137,380.6z"/>
			<path id="XMLID_1_" d="M-136.6,380.3c0.5,0,0.8,1.1,0.7,2.9c-0.2,3.1-1.4,5.5-2.3,7.2c-0.2,0.3-0.9,1.6-1.5,1.6
				c-0.4,0-0.8-0.7-0.8-2.8c0-5.1,2.9-8.2,3.4-8.6C-136.9,380.4-136.7,380.3-136.6,380.3 M-136.6,378.3c-0.5,0-1.1,0.1-1.8,0.8
				c-0.4,0.4-4,4-4,10.1c0,1.2,0,4.8,2.8,4.8c1.2,0,2.3-0.9,3.2-2.6c1.1-2.1,2.3-4.7,2.5-8c0.2-2.8-0.5-3.8-1-4.3
				C-135.3,378.6-135.9,378.3-136.6,378.3L-136.6,378.3z"/>
		</g>
		<g>
			<path id="XMLID_5_" class="st1" d="M-110,380.6c0.5,0.4,3.4,3.5,3.4,8.6c0,5.1-1.9,1.8-2.2,1.3c-0.9-1.7-2.1-4.1-2.3-7.2
				C-111.2,381-110.8,379.8-110,380.6z"/>
			<path id="XMLID_2_" d="M-110.4,380.3c0.1,0,0.3,0.1,0.4,0.2c0.5,0.4,3.4,3.5,3.4,8.6c0,2.2-0.3,2.8-0.8,2.8
				c-0.6,0-1.3-1.2-1.5-1.6c-0.9-1.7-2.1-4.1-2.3-7.2C-111.2,381.5-110.9,380.3-110.4,380.3 M-110.4,378.3c-0.7,0-1.3,0.3-1.7,0.8
				c-0.5,0.5-1.1,1.5-1,4.3c0.2,3.3,1.4,5.9,2.5,8c0.9,1.7,2,2.6,3.2,2.6c2.8,0,2.8-3.6,2.8-4.8c0-6.1-3.6-9.7-4-10.1
				C-109.3,378.5-110,378.3-110.4,378.3L-110.4,378.3z"/>
		</g>
	</g>
</g>
<g id="XMLID_13_">
	<path id="XMLID_24_" class="st1" d="M-97.5,435.7l2.7-2.3l-3.4,1.1c-1.7,0.5-4.5,2.8-3.3,7.4l0,0.1c0,0,0.3,0.8-0.1,1.4
		c-0.2,0.4-0.7,0.7-1.4,0.9c-0.1,0-0.5,0-0.7-0.3c-0.2-0.3-0.6-1.2,0.2-3.6c0.2-0.5,1.7-3.4,2.1-7.1c0.5-5.3-1.6-9.5-6.1-12.2
		l-2-1.2l1,2.1c0.4,0.9,1.4,3.6,0.7,5.2c-0.2,0.5-0.6,0.9-1.1,1.1c-0.1-0.2-0.3-0.7-0.2-1.8c0.3-2.8-0.9-4.5-1-4.7
		c-0.2-0.3-3-4.4,1-7.7l1.9-1.6l-2.4,0.3c-0.2,0-4.3,0.6-6.2,5.4c-0.1,0.3-0.4,0.7-0.5,0.9c-0.1-0.1-0.2-0.3-0.2-0.7
		c-0.8-2.9-3.1-3.7-4.2-3.8l-1.1-0.1l0.4,1c0.3,0.8,0.9,3.1,0.1,4.3c-0.4,0.5-1,0.8-1.9,0.8c-0.1,0-0.4,0-0.5-0.4
		c-0.2-0.4-0.5-1.6,1.2-5c3.5-6.9-3.7-11.1-3.8-11.2l-2.3-1.3l1.3,2.3c0.1,0.2,2.8,5-1.8,8.5c-0.1,0.1-3.6,2.7-4.4,5.6
		c-0.3,0.7-0.8,1.4-1.1,1.4c0,0,0,0,0,0c0,0-0.3-0.1-0.6-0.8c-0.2-1.5-1.6-4.3-5.4-4.6l-2.3-0.2l1.8,1.5c0.1,0.1,2.2,1.9-0.5,5.9
		c-0.3,0.4-4.4,6.1-2.1,11c1.9,4-0.3,6.3-0.5,6.4c-0.1,0.1-0.4,0.2-0.5,0.2c0,0-0.1-0.1-0.2-0.4l0-0.1l0-0.1c0,0-0.3-0.6,0-1.5
		c0.8-2,1-6.3-3.5-8.3l-1.8-0.8l0.8,1.8c0.1,0.1,1.6,3.5-0.9,7.5c-2.8,4.6-0.5,7.8-0.2,8.2c0.2,0.3,1.5,2.3,4,4.1
		c2.1,1.5,1.9,3.3,1.9,3.4l0,0c0,0.1-0.1,0.7-0.5,0.8c-0.3,0.1-0.7,0-1-0.1c-1.4-0.7-1-3.5-0.9-3.8l-0.8,0c-0.1,0.3-3.5,7,3.4,11.4
		l0.1,0.1l0.1,0c0.1,0,6,1.9,9.9,5.3v0.5h20.7v-3.4c0.7-0.9,3.9-4.4,7.3-5.6c4.7-1.5,6.3-2.4,7.8-4.1c3.7-4.4,4.3-8.6,1.8-12.5
		C-99.8,437.8-97.6,435.8-97.5,435.7z"/>
	<g id="XMLID_35_">
		<rect id="XMLID_39_" x="-139.2" y="426.5" width="5.9" height="17.8"/>
		<rect id="XMLID_38_" x="-132.7" y="426.5" width="5.9" height="17.8"/>
		<rect id="XMLID_37_" x="-126.3" y="426.5" width="5.9" height="17.8"/>
		<rect id="XMLID_36_" x="-119.8" y="426.5" width="5.9" height="17.8"/>
		<path id="XMLID_42_" d="M-97.6,443c-3.3-5.2-0.6-7.6-0.5-7.7c-0.2,0-4.1,1.4-2.8,6.6c0,0,1,2.6-2,3.3c0,0-3.1,0.3-1.3-5
			c0,0,6.7-12.2-3.7-18.4c0,0,2.8,6.1-1.1,7.4c0,0-1.2,0-0.9-2.7c0.3-2.7-0.9-4.2-0.9-4.2s-3.5-4.8,1.1-8.7c0,0-3.9,0.5-5.7,4.9
			c0,0-1.3,3.2-2.1,0.1c-0.8-3.1-3.6-3.2-3.6-3.2s2.3,6-2.5,6.1c0,0-3.2,0,0-6.4c3.2-6.4-3.5-10.2-3.5-10.2s3.2,5.6-2,9.4
			c0,0-3.5,2.6-4.2,5.2c0,0-1.6,3.8-3,0.6c0,0-0.4-3.7-4.7-4c0,0,2.8,2.2-0.3,6.8c0,0-4.2,5.6-2,10.3c2.2,4.6-0.6,7.3-0.6,7.3
			s-1.3,1.2-1.9-0.5c0,0-0.5-0.9-0.1-2.1c0,0,2-5.1-3.1-7.4c0,0,1.8,3.8-0.9,8.2c-2.7,4.4-0.2,7.4-0.2,7.4s1.3,2.1,3.8,3.9
			c2.6,1.8,2.2,4.1,2.2,4.1s-0.3,2.3-2.5,1.3c-2.1-1-1.2-3.3-1.1-3.6c-0.2,0.4-2.8,5.9,3.5,9.8c0,0,6.3,2,10.4,5.7v12.1h19.2v-14.9
			c0,0,3.6-4.6,7.8-6c4.6-1.5,6.1-2.3,7.5-3.9C-98.1,453.1-94.2,448.4-97.6,443z M-103.9,454.7c-6.3,2.5-9.5,5.2-10.7,6.4v-6.5h7.2
			v-21.8h-5.9V445h-25.8v9.5h5.3v10.1c-0.9-0.7-3.1-2.2-6-3c-3.7-1.1-6-4.1-6.1-4.2c2.7,1.4,3.5-0.9,3.5-0.9s2.6-4.2-3.1-8.3
			c-5-3.5-3-8-2.4-9.1c-0.3,1.4,0.4,8.1,4.8,4.2c4.8-4.4,2.2-10,2.2-10s-2.3-4.9,0-7.5c2.3-2.6,2.9-6.2,2.9-6.2s0.6,5.3,3.9,4.2
			c3.3-1.1,3.6-3.7,3.6-3.7s0.9-3.4,2.9-4.8c2.8-2,3.1-5,3.1-5s0.4,2.4-1.2,4.7s-1.4,4.4-1.4,4.4s0.1,4.8,3.7,4.6
			c4.2-0.2,4.6-3.9,4.6-3.9s0.7,0.4,0.8,1.8c0.1,0.7,0.5,1,1.1,0.9c2.4-0.1,2.6-4.4,3.8-5.5c0,0.1-0.8,2.3,0.3,4.1
			c0,0,1.7,2.1,1.1,4.3c-0.5,1.9-0.3,6.3,3,5.4c4.2-1.1,3.7-4.5,3.7-4.5c3.1,4.6,0.2,11.5,0.2,11.5s-4.4,8.6,0.9,9
			c5.2,0.5,5.4-3.5,5.4-3.5S-95.6,451.4-103.9,454.7z"/>
		<path id="XMLID_100_" class="st1" d="M-98.8,443.7c0,0-0.1,4-5.4,3.5c-5.2-0.5-0.9-9-0.9-9s2.9-6.8-0.2-11.5c0,0,0.6,3.4-3.7,4.5
			c-3.3,0.9-3.5-3.5-3-5.4c0.6-2.2-1.1-4.3-1.1-4.3c-1.1-1.8-0.3-4-0.3-4.1c-1.2,1.1-1.3,5.4-3.8,5.5c-0.5,0-1-0.2-1.1-0.9
			c-0.1-1.5-0.8-1.8-0.8-1.8s-0.4,3.8-4.6,3.9c-3.6,0.2-3.7-4.6-3.7-4.6s-0.3-2.1,1.4-4.4s1.2-4.7,1.2-4.7s-0.3,3-3.1,5
			c-2,1.4-2.9,4.8-2.9,4.8s-0.3,2.6-3.6,3.7c-3.3,1.1-3.9-4.2-3.9-4.2s-0.6,3.6-2.9,6.2c-2.3,2.6,0,7.5,0,7.5s2.6,5.7-2.2,10
			c-4.3,3.9-5.1-2.7-4.8-4.2c-0.6,1.1-2.5,5.5,2.4,9.1c5.7,4.1,3.1,8.3,3.1,8.3s-0.8,2.3-3.5,0.9c0.1,0.1,2.3,3.1,6.1,4.2
			c2.9,0.8,5.2,2.4,6,3v-10.1h-5.3V445h25.8v-12.2h5.9v21.8h-7.2v6.5c1.2-1.1,4.4-3.8,10.7-6.4C-95.6,451.4-98.8,443.7-98.8,443.7z
			 M-133.2,444.4h-5.9v-17.8h5.9V444.4z M-126.8,444.4h-5.9v-17.8h5.9V444.4z M-120.3,444.4h-5.9v-17.8h5.9V444.4z M-113.9,444.4
			h-5.9v-17.8h5.9V444.4z"/>
	</g>
</g>
</svg>
