<?xml version="1.0" encoding="utf-8"?>
<!-- Generator: Adobe Illustrator 19.0.0, SVG Export Plug-In . SVG Version: 6.00 Build 0)  -->
<svg version="1.1" id="Capa_1" xmlns="http://www.w3.org/2000/svg" xmlns:xlink="http://www.w3.org/1999/xlink" x="0px" y="0px"
	 viewBox="-210 325.9 173.5 190" style="enable-background:new -210 325.9 173.5 190;" xml:space="preserve">
<path d="M-71.5,437.9c3.9,4.4,7,9.3,8.1,10c6.4,3.9,9,7.5,10.6,12.6c1.6,5.1,5.4,18.6,5.4,18.6h-53.6l-4.4-15.3
	c-5.4-1.2-9.2-2.9-9.5-5c-0.2-1.9,0-4.4,0.5-7.1c-3.2-0.9-7.9-2.4-8.8-2.7l8.6,30.1h-8.8h-8.8l8.6-30.1c-0.9,0.3-5.5,1.8-8.8,2.7
	c0.5,2.7,0.7,5.2,0.5,7.1c-0.2,2.1-4.1,3.9-9.5,5l-4.4,15.3h-53.6c0,0,3.8-13.5,5.4-18.6c1.6-5.1,4.2-8.7,10.6-12.6
	c1.1-0.7,4.2-5.7,8.1-10c1.1-8,3.6-16.4,8.9-22.9c9.9-12,9.7-11,15.6-33.5c4.9-18.9,21-18.7,27.2-18.8c6.2,0.1,22.2-0.1,27.2,18.8
	c5.9,22.6,5.7,21.6,15.6,33.5C-75.1,421.5-72.6,429.9-71.5,437.9z M-135.3,439.7l1.9,1.2l-0.4,9.2l9.6-3h1.9l9.6,3l-0.4-9.2l1.9-1.2
	c1-2.9,1.9-6.4,3.5-10c-4,6.5-8.9,10.7-15.5,10.7c-6.6,0-11.5-4.2-15.5-10.7C-137.2,433.3-136.3,436.8-135.3,439.7z M-123.2,389.4
	c0,0-1,0-1.7-0.1c-1.7-0.2-4.4-0.6-6.6-1.6c-5.3-2.3-6.6-3.4-8.8,0.3c-2.8,4.6,1.6,9.3-0.1,11.2c-7,7.3,0.4,14.5,2.7,16.1
	c-1.7-0.5-3.1-1.3-4.5-2.3c0,2.3,0.9,8.8,2.9,12.9c4.4,8.8,7.4,9.6,10.7,10.8c1.1,0.4,3.7,0.6,5.4,0.6c1.7,0,4.3-0.2,5.4-0.6
	c3.3-1.3,6.3-2,10.7-10.8c2-4.1,2.9-10.6,2.9-12.9c-1.4,1-2.8,1.8-4.5,2.3c2.3-1.6,9.7-8.8,2.7-16.1c-1.8-1.9,2.7-6.6-0.1-11.2
	c-2.3-3.7-3.5-2.6-8.8-0.3c-2.2,1-4.9,1.4-6.6,1.6C-122.2,389.4-123.2,389.4-123.2,389.4z M-123.2,364.6c-4.4,0-21.6,0.5-25.8,19.6
	c-2.7,12.6-3.6,16.5-5.3,20.5c-2.6,6.1-7.5,10.5-11.9,15.3c-7.8,8.4-7.8,35.8-6,37.8c4.7,5.9,28.3,6.6,36.8,1.6
	c1.7-1,1.9-3.5,1.3-7.1c-0.9,0.2-1.4,0.3-1.4,0.2c0-0.5,0.1-3,0.1-5.7c-4.9-17.5-18.7-48.1-4-62.4c3.5-3.4,5.9,2.1,16.1,2.4
	c10.2-0.3,12.7-5.8,16.2-2.4c14.7,14.4,0.9,44.9-4,62.4c0,2.7,0.1,5.2,0.1,5.7c0,0.1-0.5,0-1.4-0.2c-0.6,3.6-0.4,6.1,1.3,7.1
	c8.5,5,32.1,4.3,36.8-1.6c1.8-2.1,1.8-29.4-6-37.8c-4.4-4.7-9.3-9.2-11.9-15.3c-1.7-4-2.6-7.9-5.3-20.5
	C-101.6,365-118.8,364.6-123.2,364.6z"/>
</svg>
