<?xml version="1.0" encoding="utf-8"?>
<!-- Generator: Adobe Illustrator 19.0.0, SVG Export Plug-In . SVG Version: 6.00 Build 0)  -->
<svg version="1.1" id="Capa_1" xmlns="http://www.w3.org/2000/svg" xmlns:xlink="http://www.w3.org/1999/xlink" x="0px" y="0px"
	 viewBox="-210 325.9 173.5 190" style="enable-background:new -210 325.9 173.5 190;" xml:space="preserve">
<style type="text/css">
	.st0{clip-path:url(#SVGID_1_);}
</style>
<g id="XMLID_100_">
	<path d="M-45.1,494.1h-156.3c-2,0-3.8-1-4.8-2.7s-1-3.8,0-5.5l78.1-135.4c1-1.7,2.8-2.8,4.8-2.8l0,0c2,0,3.8,1,4.8,2.7l78.2,135.4
		c1,1.7,1,3.8,0,5.5C-41.3,493-43.1,494.1-45.1,494.1z M-191.9,483.1h137.3l-68.7-118.9L-191.9,483.1z"/>
</g>
<g>
	<g>
		<defs>
			<rect id="SVGID_3_" x="-150.8" y="393.5" width="55.2" height="76.6"/>
		</defs>
		<clipPath id="SVGID_1_">
			<use xlink:href="#SVGID_3_"  style="overflow:visible;"/>
		</clipPath>
		<path class="st0" d="M-101.7,436.8c-3.7-0.3-2.5,3.6-6.5,3.2c-7.2-0.7-10-5-19.6-5.2c-5.1-0.1-9.8,3.3-11.4,3
			c-2.3-0.4-6.8-2.2-6.6-8.1c0.3-5.8,3.7-9.4,8.8-11.2c5.1-1.7,15.5-6,15.5-14.5c0-8.6-6.3-10.6-8.1-10.6c-1.7,0-1.9,1.7,0.1,2.4
			c2.1,0.7,5.1,4,5.1,7.2c0,3.2-0.4,8.6-12.5,11.9c-12.2,3.4-14,10.4-14,15c0,4.6,2.6,11.9,10.3,12.3c1.4-0.1,1.7,1.1,1.4,2.1
			c-0.3,1.1-0.5,5.9,0.4,8.1c0.9,2.2,0,2.2-1.7,3.1c-1.7,0.9-8.6,4.4-8.6,4.4s-1.5,1.4-0.4,2.9c1.1,1.5,5,7.6,8.2,6
			c1.5-0.9-1.4-3.3-4.1-5.3c-0.6-0.6-1.2-1.5,1-1.7c2.2-0.2,12.2-1.6,12.3-8.9c0-1.4,0.2-1.1,1.5-0.5c1.2,0.6,5.2,1.7,4.7,3.7
			c-0.5,2-0.6,6.6-0.6,8.3c-0.9,0.5-1.5,2.9,2.2,4c3.7,1.1,8.6,2.2,8.5,0.8c-0.1-1.4-4.7-2-7.1-3.1c-1.4-0.6-1-1.5,0.2-4
			c1.2-2.5,3.9-8.7,1.5-10.4c-1-0.5-0.2-1.4,1.7-1c2,0.4,2.7,0.5,1.7,2c-1,1.5-1.6,3.5-0.7,6.5c0.9,3,2.6,8.8,2.6,8.8
			s0.1,1.6,1.9,1.9c1.7,0.3,5.2,0.8,5.1-1.1c-0.1-1.9-2.9-1.4-3.9-1.2c-1,0.1-1.6-1.4-1.4-3.6c0.3-2.2,0.3-8.8,1.9-8.4
			c1.6,0.4,0.1,3.1,7.6,10.4c2.4,2.9,4.1,2.9,6.5,2.7c2.4-0.1,3.1-1.7-1.4-2.5c-2.6-0.3-2.2-0.1-3.5-2.9c-1.2-2.7-3.7-4.8-3.7-6.6
			c0-1.7,2.2-4.1,2.1-8.1c0-1.6,1.1-1.7,2.4-0.9c1.2,0.9,4.6,0.4,6-1.5c1.3-1.9,0.5-3.1-0.8-5C-97.9,439.3-96.9,437.2-101.7,436.8
			L-101.7,436.8z M-101.7,436.8"/>
	</g>
</g>
</svg>
