<?xml version="1.0" encoding="utf-8"?>
<!-- Generator: Adobe Illustrator 19.0.0, SVG Export Plug-In . SVG Version: 6.00 Build 0)  -->
<svg version="1.1" id="Capa_1" xmlns="http://www.w3.org/2000/svg" xmlns:xlink="http://www.w3.org/1999/xlink" x="0px" y="0px"
	 viewBox="-210 325.9 173.5 190" style="enable-background:new -210 325.9 173.5 190;" xml:space="preserve">
<g id="XMLID_100_">
	<path d="M-45.1,494.1h-156.3c-2,0-3.8-1-4.8-2.7s-1-3.8,0-5.5l78.1-135.4c1-1.7,2.8-2.8,4.8-2.8l0,0c2,0,3.8,1,4.8,2.7l78.2,135.4
		c1,1.7,1,3.8,0,5.5C-41.3,493-43.1,494.1-45.1,494.1z M-191.9,483.1h137.3l-68.7-118.9L-191.9,483.1z"/>
</g>
<g>
	<path d="M-110.8,416.3h-31.4v9.1h31.4V416.3z M-112.4,423.8h-28.3v-5.9h28.3V423.8z"/>
	<rect x="-142.1" y="426.7" width="2.8" height="1.6"/>
	<rect x="-137.5" y="426.7" width="19.4" height="1.6"/>
	<rect x="-142.1" y="429.8" width="15.4" height="1.6"/>
	<rect x="-142.1" y="433" width="8.5" height="1.6"/>
	<rect x="-125.8" y="433" width="6.2" height="1.6"/>
	<rect x="-142.1" y="436.2" width="2.8" height="1.6"/>
	<path d="M-103.1,440.1v-9c0.9-0.2,1.6-1,1.6-2v-0.4c0-1.1-0.9-2.1-2.1-2.1h-3v-14.2H-146v25.6h-3.2v24c0,2.6,2.1,4.6,4.6,4.6
		c1.5,0,2.9-0.8,3.7-1.9h9.4v0.6c0,1.1,0.9,2.1,2.1,2.1h0.2c1.1,0,2.1-0.9,2.1-2.1v-0.6h19.7c7,0,12.7-5.7,12.7-12.7
		C-94.7,446.6-98,441.9-103.1,440.1z M-103.1,428.7v0.4c0,0.3-0.2,0.5-0.5,0.5h-1.1v11.7l0.6,0.2c4.3,1.3,7.3,5,7.8,9.4h-22.2
		c0.5-4.4,3.5-8.1,7.8-9.4l0.6-0.2v-11.7h-1.1c-0.3,0-0.5-0.2-0.5-0.5v-0.4c0-0.3,0.2-0.5,0.5-0.5h7.6
		C-103.4,428.3-103.1,428.5-103.1,428.7z M-144.4,414h36.2v12.7h-7.9v1.6h2.9c0,0.2-0.1,0.3-0.1,0.5v0.4c0,0.3,0.1,0.5,0.1,0.7
		h-11.8v1.6h13.2v1.6h-6.2v1.6h6.2v1.6h-4.4v1.6h4.4v1.6h-9.4c-0.3-0.6-0.7-1.1-1.1-1.6h4.2v-1.6h-6c-1.5-1-3.3-1.6-5.2-1.6
		c-1.9,0-3.7,0.6-5.2,1.6h-3.1v1.6h1.3c-0.4,0.5-0.8,1-1.1,1.6h-2.5v-1.3h-4.5V414z M-138.5,442.5h-1.4v-1.6h1.8
		C-138.3,441.4-138.4,442-138.5,442.5z M-141.5,454.4v7.7c0,1.7-1.4,3.1-3.1,3.1c-1.7,0-3.1-1.4-3.1-3.1v-0.5h2.7V460h-2.7v-1.6h1.4
		v-1.6h-1.4v-1.6h2.7v-1.6h-2.7v-1.6h1.4v-1.6h-1.4v-1.6h2.7v-1.6h-2.7v-1.6h1.4v-1.6h-1.4v-1.6h2.7V441h-2.7v-1.3h6.1v6.1h1.6v-1.7
		h1.3c0.1,4.3,3,7.9,7.2,8.9v1.7h-7v1.6h7v1.1h-8.4v-3H-141.5z M-140.1,463.2c0.1-0.4,0.2-0.8,0.2-1.2v-3.1h8.4v1h-7v1.6h7v1.7
		H-140.1z M-128.7,451.7v13.8c0,0.3-0.2,0.5-0.5,0.5h-0.2c-0.3,0-0.5-0.2-0.5-0.5v-13.8l-0.7-0.1c-3.8-0.6-6.5-3.8-6.5-7.6
		c0-4.3,3.5-7.8,7.8-7.8c4.3,0,7.8,3.5,7.8,7.8c0,3.8-2.7,7-6.5,7.6L-128.7,451.7z M-127.1,463.2v-1.7h9V460h-9v-1h6.9v-1.6h-6.9
		v-1.1h5.5v-1.6h-5.5V453c4.1-1,7.1-4.6,7.2-8.9h0.4v-1.6h-0.5c-0.1-0.5-0.2-1.1-0.4-1.6h6.9c-0.8,0.4-1.6,1-2.3,1.6h-2v1.6h0.5
		c-1.8,2.2-2.8,5-2.8,8c0,4.8,2.7,9,6.6,11.2H-127.1z M-107.4,463.2c-6,0-11-4.8-11.1-10.8h22.3
		C-96.5,458.4-101.4,463.2-107.4,463.2z"/>
	<path d="M-111.6,453.7c-1.5,0-2.6,1.2-2.6,2.6c0,1.5,1.2,2.6,2.6,2.6c1.5,0,2.6-1.2,2.6-2.6C-109,454.9-110.2,453.7-111.6,453.7z
		 M-111.6,457.4c-0.6,0-1-0.5-1-1c0-0.6,0.5-1,1-1s1,0.5,1,1C-110.6,456.9-111.1,457.4-111.6,457.4z"/>
	<path d="M-105.6,449.8c1.5,0,2.6-1.2,2.6-2.6s-1.2-2.6-2.6-2.6c-1.5,0-2.6,1.2-2.6,2.6S-107,449.8-105.6,449.8z M-105.6,446.1
		c0.6,0,1,0.5,1,1c0,0.6-0.5,1-1,1s-1-0.5-1-1C-106.6,446.5-106.2,446.1-105.6,446.1z"/>
	<path d="M-104.9,456.8c-1.5,0-2.6,1.2-2.6,2.6s1.2,2.6,2.6,2.6c1.5,0,2.6-1.2,2.6-2.6S-103.5,456.8-104.9,456.8z M-104.9,460.5
		c-0.6,0-1-0.5-1-1c0-0.6,0.5-1,1-1s1,0.5,1,1C-103.9,460-104.3,460.5-104.9,460.5z"/>
	<path d="M-129.3,437.1c-3.8,0-6.8,3.1-6.8,6.8s3.1,6.8,6.8,6.8c3.8,0,6.8-3.1,6.8-6.8S-125.5,437.1-129.3,437.1z M-129.3,449.2
		c-2.9,0-5.3-2.4-5.3-5.3c0-2.9,2.4-5.3,5.3-5.3c2.9,0,5.3,2.4,5.3,5.3C-124,446.8-126.4,449.2-129.3,449.2z"/>
	<rect x="-103" y="412.3" width="1.6" height="1.9"/>
	<rect x="-103" y="416.1" width="1.6" height="1.9"/>
	<rect x="-101.2" y="414.3" width="1.9" height="1.6"/>
	<rect x="-105" y="414.3" width="1.9" height="1.6"/>
	<rect x="-141.5" y="447.1" width="1.6" height="1.9"/>
	<rect x="-141.5" y="450.9" width="1.6" height="1.9"/>
	<rect x="-139.7" y="449.2" width="1.9" height="1.6"/>
	<rect x="-143.5" y="449.2" width="1.9" height="1.6"/>
	<rect x="-99.2" y="420" width="1.6" height="1.9"/>
	<rect x="-99.2" y="423.8" width="1.6" height="1.9"/>
	<rect x="-97.5" y="422" width="1.9" height="1.6"/>
	<rect x="-101.2" y="422" width="1.9" height="1.6"/>
</g>
</svg>
