<?xml version="1.0" encoding="utf-8"?>
<!-- Generator: Adobe Illustrator 19.0.0, SVG Export Plug-In . SVG Version: 6.00 Build 0)  -->
<svg version="1.1" id="Capa_1" xmlns="http://www.w3.org/2000/svg" xmlns:xlink="http://www.w3.org/1999/xlink" x="0px" y="0px"
	 viewBox="-210 325.9 173.5 190" style="enable-background:new -210 325.9 173.5 190;" xml:space="preserve">
<style type="text/css">
	.st0{clip-path:url(#SVGID_1_);}
</style>
<g id="XMLID_100_">
	<path d="M-45.1,494.1h-156.3c-2,0-3.8-1-4.8-2.7s-1-3.8,0-5.5l78.1-135.4c1-1.7,2.8-2.8,4.8-2.8l0,0c2,0,3.8,1,4.8,2.7l78.2,135.4
		c1,1.7,1,3.8,0,5.5C-41.3,493-43.1,494.1-45.1,494.1z M-191.9,483.1h137.3l-68.7-118.9L-191.9,483.1z"/>
</g>
<g>
	<g>
		<defs>
			<rect id="SVGID_3_" x="-170.8" y="403.8" width="95.1" height="82.9"/>
		</defs>
		<clipPath id="SVGID_1_">
			<use xlink:href="#SVGID_3_"  style="overflow:visible;"/>
		</clipPath>
		<path class="st0" d="M-79.5,454.7c1-6.1-0.6-12.2-0.7-12.6c0,0,0,0,0,0c0.5-4.9-2.7-8.3-3.6-9.3c0.4-2,0.2-3.6-0.5-4.9
			c-1.6-2.7-4-3.7-5-4.1c-0.8-3.6-3.6-5.5-4.6-6.1c0-0.2,0-0.4,0-0.6c-0.1-1.9-0.5-3.6-0.8-4.5c2.4-0.4,4.6-0.7,6.6-0.9
			c0.1,0,1.4-0.2,2-1.3c0.4-0.9,0.3-1.9-0.4-3.2c-0.2-0.4-0.9-1.7-2.2-1.7c-0.8,0-1.4,0.5-2,1c-0.6,0.4-1.1,0.9-1.8,0.9
			c-0.3,0-0.8,0.1-1.5,0.2c-4.6,0.7-17.6,2.5-23,2.9c-0.1-1-0.3-3.2,1.4-4.6c0.3-0.2,0.4-0.6,0.3-0.9c-0.1-0.3-0.4-0.6-0.7-0.6
			l-7-0.8c-0.1,0-0.1,0-0.2,0l-7,0.8c-0.3,0-0.6,0.3-0.7,0.6c-0.1,0.3,0,0.7,0.3,0.9c1.6,1.4,1.5,3.6,1.4,4.6
			c-5.4-0.4-18.4-2.3-23-2.9c-0.7-0.1-1.2-0.2-1.5-0.2c-0.6-0.1-1.2-0.5-1.8-0.9c-0.6-0.5-1.3-1-2-1c-1.2,0-1.9,1.3-2.2,1.7
			c-0.7,1.3-0.8,2.4-0.4,3.2c0.6,1.1,1.9,1.3,2,1.3c1.9,0.2,4.1,0.5,6.4,0.9c-0.3,1-0.7,2.6-0.8,4.5c0,0.2,0,0.5,0,0.7
			c-1.1,0.6-3.9,2.4-4.6,6c-1,0.3-3.4,1.3-5,4.1c-0.7,1.2-0.9,2.9-0.6,4.8c-1,1-4.1,4.6-3.6,9.4c-0.3,1.1-1.6,6.8-0.7,12.5
			c-0.8,1.9-7.2,17.5-1.1,25.6c3,3.9,8.4,6.1,15.3,6.2c6,0.1,12.4-1.4,16.7-4c3.1-1.9,5.1-3.4,6.4-4.5c1.7-1.3,2.6-2.1,4.3-2.3
			l1.3,2.9c0.1,0.3,0.4,0.5,0.8,0.5h0c0.3,0,0.6-0.2,0.8-0.5l1.3-2.9c1.7,0.3,2.6,1,4.2,2.3c1.4,1.1,3.3,2.6,6.5,4.5
			c4.2,2.5,10.4,4,16.2,4c0.2,0,0.3,0,0.5,0c6.9-0.1,12.4-2.3,15.3-6.2C-72.4,472.3-78.7,456.7-79.5,454.7L-79.5,454.7z
			 M-87.2,479.6c-9.5,3.4-17.3-1.6-18.8-3.1c-0.5-0.5-0.9-1.3-0.8-1.5c0,0,0.2-0.2,1.1-0.2c0.5,0,1.2,0.1,2.2,0.3
			c0.7,0.1,1.5,0.2,2.2,0.2c7.9,0,15.2-8.3,19-13.6c0.1-0.1,0.2-0.3,0.3-0.4C-78.8,475.4-85.1,478.9-87.2,479.6L-87.2,479.6z
			 M-90.2,430.5c0.5,1.1,0.7,2.9-1.6,5.3c-5.3,5.5-12.1,7.5-16.7,8.2c-4.6,0.7-8.2,0.4-8.9,0.3c-0.5-0.3-0.8-0.7-0.9-1.1
			c-0.1-0.7,0.2-1.5,0.5-1.9C-111,441.8-94,438.3-90.2,430.5L-90.2,430.5z M-96.5,429c-2.6,3-10.8,6.2-20.9,6.1
			c-0.3-0.2-0.9-0.8-1-1.6c-0.1-0.7,0.2-1.4,0.8-2.2c2.2,0,12.6-0.4,19.1-4.6c1.1-0.7,2-1.6,2.7-2.5C-95.3,425-94.7,426.9-96.5,429
			L-96.5,429z M-93.8,409.4c0.7-0.1,1.2-0.2,1.5-0.2c1.1-0.1,1.9-0.8,2.6-1.3c0.4-0.3,0.8-0.6,1-0.6c0.1,0,0.4,0.2,0.7,0.8
			c0.4,0.7,0.5,1.3,0.4,1.7c-0.2,0.4-0.7,0.5-0.7,0.5c-9.6,1.1-26.8,4.4-28.1,4.6c-1.5,0-2.5-0.8-2.9-1.6c-0.3-0.5-0.3-0.8-0.2-0.9
			c0,0,0.1,0,0.3,0c0.2,0,0.3,0,0.6,0C-115.2,412.4-99.1,410.2-93.8,409.4L-93.8,409.4z M-100.4,417.1c-0.1,2.5-1.2,4.1-3.3,5
			c-4.5,1.8-10.3,2.4-12.5,2.5c0-1.3,0-3.8-0.4-5.5c2-0.4,6.8-1.2,9.2-1.8c3.3-0.8,4.6-2.6,5-3.2c0.5-0.1,1-0.2,1.5-0.3
			C-100.7,414.4-100.4,415.6-100.4,417.1L-100.4,417.1z M-158.9,409.8c-0.2-0.3,0-0.9,0.4-1.7c0.4-0.7,0.6-0.8,0.7-0.8
			c0.2,0,0.7,0.3,1,0.6c0.7,0.5,1.5,1.1,2.6,1.3c0.3,0,0.8,0.1,1.5,0.2c5.3,0.7,21.3,3,25,3h0c0.2,0,0.4,0,0.6,0c0.1,0,0.2,0,0.3,0
			c0,0.1,0,0.4-0.2,0.9c-0.4,0.8-1.4,1.6-2.9,1.6c-1.3-0.3-18.6-3.5-28.1-4.6C-158.1,410.3-158.7,410.2-158.9,409.8L-158.9,409.8z
			 M-139.2,417.2c2.4,0.6,7.2,1.5,9.2,1.8c-0.4,1.7-0.4,4.1-0.4,5.5c-2.2-0.1-8.1-0.7-12.5-2.5c-4.4-1.8-3.3-6.9-2.9-8.3
			c0.5,0.1,1,0.2,1.5,0.2C-143.9,414.7-142.5,416.4-139.2,417.2L-139.2,417.2z M-150.6,424.2c0.7,0.9,1.5,1.7,2.5,2.3
			c6.5,4.2,16.9,4.6,19.1,4.6c0.6,0.8,0.9,1.6,0.8,2.2c-0.1,0.8-0.7,1.4-1,1.6c-10.1,0.1-18.3-3-20.9-6.1
			C-151.9,426.9-151.2,425.1-150.6,424.2L-150.6,424.2z M-156.4,430.6c3.6,7.2,18.4,10.6,26,10.6c0.6,0,1.1,0,1.6-0.1
			c0.3,0.5,0.7,1.3,0.5,1.9c-0.1,0.4-0.4,0.8-0.9,1.1c-1.6,0.2-15.9,1.5-25.7-8.5c-1.3-1.3-1.9-2.6-1.9-3.8
			C-156.7,431.5-156.5,431-156.4,430.6L-156.4,430.6z M-164.6,461.4c0.1,0.1,0.2,0.3,0.3,0.4c3.9,5.3,11.2,13.6,19,13.6
			c0.7,0,1.5-0.1,2.2-0.2c2.8-0.6,3.3-0.1,3.3,0c0.1,0.2-0.2,0.9-0.8,1.5c-1.4,1.4-9.3,6.5-18.8,3.1
			C-161.5,478.9-167.8,475.4-164.6,461.4L-164.6,461.4z M-79.8,479.3c-5.9,7.8-21.9,6.5-29.9,1.8c-3.1-1.8-4.9-3.3-6.3-4.4
			c-1.9-1.5-3.1-2.5-5.7-2.7c-0.3,0-0.7,0.2-0.8,0.5l-0.8,1.8l-0.8-1.8c-0.1-0.3-0.5-0.5-0.8-0.5c-2.6,0.2-3.8,1.2-5.8,2.8
			c-1.4,1.1-3.2,2.5-6.3,4.3c-7.9,4.7-24,6-29.9-1.8c-4.5-5.9-1.3-16.9,0.4-21.7c0.2,0.6,0.4,1.1,0.6,1.6c0,0,0,0,0,0
			c-1.7,6.3-1.8,11.6-0.4,15.5c1.2,3.1,3.4,5.4,6.2,6.5c2.6,0.9,5,1.3,7.2,1.3c6.9,0,12-3.5,13.3-4.7c0.7-0.7,1.7-2.2,1.1-3.4
			c-0.8-1.5-3.3-1.2-5.1-0.8c-8,1.7-16.3-8.3-19.5-12.7c-3.3-4.5-2.9-11.2-2.4-15.1c0.3,0.7,0.7,1.4,1.2,2.2
			c-0.3,1.5-1.1,6.7,2.1,11c0.1,0.1,0.2,0.3,0.3,0.4c2.7,3.7,9.2,12.5,18.5,12.5c1.6,0,3.2-0.2,4.9-0.8c9.6-3.2,11-9.7,11-10
			c0.3-1.6-0.2-2.4-0.4-2.6c-0.3-0.3-0.7-0.4-1-0.2c-0.1,0-5.4,2.8-13.7,3.6c-3.5,0.3-8.6-2.2-13.6-6.8c-2.6-2.4-4.9-5.2-6.5-7.7
			c0-0.1-0.1-0.2-0.2-0.3c-1-1.6-1.6-3.1-1.9-4.2c-0.7-3.7,1.2-6.8,2.4-8.3c0.2,0.5,0.4,1.1,0.7,1.6c-0.6,1.3-2.5,6.1,0.6,10.1
			c3.3,4.2,12,11.8,22.4,11.8c0.5,0,1,0,1.5-0.1l0.2,0c2.7-0.2,6.7-0.5,9.4-3.5c1.9-2.1,0.5-4.7-0.4-5.8c-0.2-0.2-0.4-0.3-0.7-0.3
			c-0.3,0-0.6,0.1-1,0.1c-4.5,0.4-14.9,1.3-22.9-4.7c-7.7-5.9-10-12.1-8.4-15c1-1.7,2.4-2.6,3.3-3c0,0.9,0.1,1.8,0.4,2.9
			c-0.4,0.5-1.2,1.6-1.3,3.2c0,1.7,0.7,3.4,2.3,5c5.7,5.8,12.8,7.9,17.7,8.7c2.3,0.3,4.3,0.5,5.9,0.5c2.1,0,3.5-0.2,3.6-0.2
			c0.1,0,0.2,0,0.3-0.1c1.3-0.7,1.8-1.7,1.9-2.4c0.3-1.8-1-3.5-1.1-3.7c-0.2-0.2-0.5-0.3-0.7-0.3c-3,0.4-9.1-0.3-14.9-2.1
			c-6.5-2.1-10.7-5-11.8-8.2c-1.9-5.5,1.1-8.3,2.7-9.3c0.2,1,0.5,2,1,2.9c-1.2,1.4-2.5,4.3,0.2,7.3c3.3,3.8,12.5,6.6,21.6,6.6
			c0.3,0,0.5,0,0.8,0c0.1,0,0.3,0,0.4-0.1c0.1,0,1.7-1.1,2-2.9c0.2-1.3-0.3-2.6-1.4-3.9c-0.2-0.2-0.4-0.3-0.6-0.3
			c-0.1,0-11.9,0-18.6-4.4c-2.6-1.7-3.9-4.3-3.8-7.7c0-1.9,0.5-3.5,0.8-4.3c0.9,0.1,1.8,0.3,2.7,0.4c-0.8,3-0.9,8.1,3.9,10.1
			c5.9,2.4,13.7,2.7,14,2.7c0,0,0,0,0,0c0.2,0,0.4-0.1,0.6-0.2c0.2-0.2,0.2-0.4,0.2-0.6c-0.1-1.4-0.1-5.3,0.5-6.7
			c0.1-0.2,0.1-0.5,0-0.7c-0.1-0.2-0.3-0.4-0.6-0.4c-0.1,0-7-1.2-10-2c-1.2-0.3-2-0.7-2.7-1.1c6.2,1.1,11.2,2,11.3,2.1
			c0.1,0,0.1,0,0.2,0c3,0,4.9-2.3,4.9-4c0-0.5-0.2-0.9-0.5-1.3c-0.2-0.2-0.6-0.5-1.3-0.5c-0.1,0-0.2,0-0.3,0c0,0-0.2,0-0.4,0
			c0,0,0,0,0,0c0.1-1.1,0.2-3-0.9-4.7l5.4-0.6l5.4,0.6c-1.1,1.7-1,3.6-0.9,4.7c0,0,0,0,0,0c-0.2,0-0.3,0-0.4,0c-0.1,0-0.2,0-0.3,0
			c-0.7,0-1.1,0.3-1.3,0.5c-0.3,0.3-0.5,0.8-0.5,1.3c0,1.7,1.9,4,4.9,4c0.1,0,0.1,0,0.2,0c0.1,0,5-1,11.1-2
			c-0.6,0.4-1.5,0.8-2.6,1.1c-3,0.7-9.9,2-10,2c-0.3,0-0.5,0.2-0.6,0.4c-0.1,0.2-0.1,0.5,0,0.7c0.6,1.3,0.6,5.3,0.5,6.7
			c0,0.2,0.1,0.5,0.2,0.6c0.2,0.2,0.4,0.2,0.6,0.2c0,0,0,0,0,0c0.3,0,8.1-0.3,14-2.7c4.8-2,4.7-7.1,3.9-10.1
			c0.9-0.1,1.8-0.3,2.7-0.4c0.6,1.8,2.5,8.4-3,12c-6.7,4.4-18.5,4.4-18.6,4.4c-0.2,0-0.5,0.1-0.6,0.3c-1.1,1.3-1.6,2.6-1.4,3.9
			c0.3,1.8,1.9,2.9,2,2.9c0.1,0.1,0.3,0.1,0.4,0.1c0.3,0,0.5,0,0.8,0c9.1,0,18.3-2.8,21.6-6.6c2.7-3.1,1.5-6.2,0.3-7.7
			c0.4-0.8,0.6-1.7,0.8-2.7c1.6,1.1,4.6,3.9,2.7,9.4c-1.1,3.2-5.3,6.2-11.8,8.2c-5.8,1.9-11.9,2.5-14.9,2.1c-0.3,0-0.6,0.1-0.7,0.3
			c-0.2,0.2-1.5,1.8-1.1,3.7c0.1,0.7,0.6,1.6,1.9,2.4c0.1,0,0.2,0.1,0.3,0.1c0.1,0,1.4,0.2,3.6,0.2c1.6,0,3.6-0.1,5.9-0.5
			c5-0.8,12.1-2.9,17.7-8.7c1.6-1.7,2.4-3.4,2.4-5.1c0-1.7-0.9-2.9-1.3-3.3c0.3-1,0.4-1.9,0.4-2.8c0.9,0.4,2.3,1.3,3.3,3
			c1.7,2.9-0.7,9.1-8.4,15c-8,6.1-18.4,5.1-22.9,4.7c-0.4,0-0.7-0.1-1-0.1c-0.3,0-0.5,0.1-0.7,0.3c-1,1.1-2.3,3.7-0.4,5.8
			c2.7,3,6.7,3.3,9.4,3.5l0.2,0c0.5,0,1,0.1,1.5,0.1c10.4,0,19.1-7.6,22.4-11.8c3.1-4,1.2-8.8,0.6-10.1c0.3-0.5,0.5-1,0.7-1.5
			c1.2,1.4,3.2,4.4,2.4,8.2c-0.2,1.2-0.9,2.7-1.9,4.2c-0.1,0.1-0.1,0.2-0.2,0.3c-1.6,2.5-3.9,5.3-6.5,7.7c-4.7,4.3-9.5,6.8-13,6.8
			c-0.2,0-0.4,0-0.6,0c-8.3-0.8-13.7-3.6-13.7-3.6c-0.3-0.2-0.8-0.1-1,0.2c-0.2,0.2-0.7,0.9-0.4,2.6c0.1,0.3,1.4,6.8,11,10
			c1.7,0.6,3.3,0.8,4.9,0.8c9.3,0,15.8-8.9,18.5-12.5c0.1-0.2,0.2-0.3,0.3-0.4c3.2-4.3,2.4-9.6,2.1-11c0.5-0.7,0.8-1.5,1.2-2.2
			c0.6,3.9,0.9,10.6-2.4,15.1c-3,4-10.3,12.9-17.7,12.9c-0.6,0-1.2-0.1-1.8-0.2c-1.8-0.4-4.3-0.7-5.1,0.8c-0.7,1.2,0.4,2.8,1.1,3.4
			c1.3,1.3,6.4,4.7,13.3,4.7c2.2,0,4.7-0.4,7.2-1.3c2.8-1,5-3.3,6.2-6.5c1.5-4,1.3-9.2-0.4-15.5c0,0,0,0,0,0
			c0.2-0.5,0.4-1.1,0.6-1.6C-78.5,462.4-75.3,473.4-79.8,479.3L-79.8,479.3z M-162.8,450c1.5,2.1,3.5,4.3,5.7,6.4
			c5.4,5,10.8,7.6,14.9,7.3c6.7-0.6,11.4-2.5,13.4-3.3c0,0.1,0,0.3-0.1,0.5c0,0.1-1.2,5.8-9.9,8.7c-10.8,3.5-18.6-7.1-21.6-11.1
			c-0.1-0.2-0.2-0.3-0.3-0.4C-162.8,455.2-163,452-162.8,450L-162.8,450z M-160.4,438c1.5,2.3,3.8,4.7,7,7.1
			c8.5,6.5,19.4,5.5,24,5.1c0.2,0,0.4,0,0.6,0c0.4,0.6,1.2,2.1,0.2,3.2c-2.3,2.5-5.7,2.8-8.3,3l-0.3,0c-9.6,0.7-18.7-6.3-22.4-11.1
			C-161.6,442.8-161,439.8-160.4,438L-160.4,438z M-87,445.3c-3.8,4.8-12.9,11.8-22.4,11.1l-0.3,0c-2.5-0.2-6-0.4-8.3-3
			c-1-1.2-0.3-2.6,0.2-3.2c0.2,0,0.4,0,0.6,0c4.7,0.4,15.5,1.4,24-5.1c3.2-2.4,5.4-4.8,7-7.1C-85.6,439.8-85.1,442.8-87,445.3
			L-87,445.3z M-85.9,457.9c-0.1,0.1-0.2,0.3-0.3,0.4c-2.9,4-10.8,14.7-21.6,11.1c-8.5-2.8-9.9-8.3-9.9-8.7c0-0.2-0.1-0.4-0.1-0.5
			c1.9,0.9,6.7,2.7,13.4,3.3c0.3,0,0.5,0,0.8,0c4,0,9-2.6,14.1-7.3c2.2-2,4.1-4.2,5.7-6.3C-83.7,452-83.9,455.2-85.9,457.9
			L-85.9,457.9z M-85.9,457.9"/>
	</g>
	<path d="M-125.1,430.6h3.9c0.5,0,0.8-0.4,0.8-0.8c0-0.5-0.4-0.8-0.8-0.8h-3.9c-0.5,0-0.8,0.4-0.8,0.8
		C-125.9,430.3-125.5,430.6-125.1,430.6L-125.1,430.6z M-125.1,430.6"/>
	<path d="M-125.1,420.6h3.9c0.5,0,0.8-0.4,0.8-0.8s-0.4-0.8-0.8-0.8h-3.9c-0.5,0-0.8,0.4-0.8,0.8S-125.5,420.6-125.1,420.6
		L-125.1,420.6z M-125.1,420.6"/>
	<path d="M-120,448.4c0.5,0,0.8-0.4,0.8-0.8c0-0.5-0.4-0.8-0.8-0.8h-6.3c-0.5,0-0.8,0.4-0.8,0.8c0,0.5,0.4,0.8,0.8,0.8H-120z
		 M-120,448.4"/>
	<path d="M-125.9,457.3h5.5c0.5,0,0.8-0.4,0.8-0.8c0-0.5-0.4-0.8-0.8-0.8h-5.5c-0.5,0-0.8,0.4-0.8,0.8
		C-126.7,457-126.3,457.3-125.9,457.3L-125.9,457.3z M-125.9,457.3"/>
	<path d="M-125.5,439.5h4.8c0.5,0,0.8-0.4,0.8-0.8c0-0.5-0.4-0.8-0.8-0.8h-4.8c-0.5,0-0.8,0.4-0.8,0.8
		C-126.4,439.2-126,439.5-125.5,439.5L-125.5,439.5z M-125.5,439.5"/>
	<path d="M-119.3,464.6h-7.6c-0.5,0-0.8,0.4-0.8,0.8c0,0.5,0.4,0.8,0.8,0.8h7.6c0.5,0,0.8-0.4,0.8-0.8
		C-118.5,464.9-118.9,464.6-119.3,464.6L-119.3,464.6z M-119.3,464.6"/>
</g>
</svg>
