<?xml version="1.0" encoding="utf-8"?>
<!-- Generator: Adobe Illustrator 19.0.0, SVG Export Plug-In . SVG Version: 6.00 Build 0)  -->
<svg version="1.1" id="Capa_1" xmlns="http://www.w3.org/2000/svg" xmlns:xlink="http://www.w3.org/1999/xlink" x="0px" y="0px"
	 viewBox="-210 325.9 173.5 190" style="enable-background:new -210 325.9 173.5 190;" xml:space="preserve">
<g id="XMLID_100_">
	<path d="M-45.1,494.1h-156.3c-2,0-3.8-1-4.8-2.7s-1-3.8,0-5.5l78.1-135.4c1-1.7,2.8-2.8,4.8-2.8l0,0c2,0,3.8,1,4.8,2.7l78.2,135.4
		c1,1.7,1,3.8,0,5.5C-41.3,493-43.1,494.1-45.1,494.1z M-191.9,483.1h137.3l-68.7-118.9L-191.9,483.1z"/>
</g>
<path d="M-160.7,455.9h13.4l-0.7,3.4l-12.2,15.4h9.6l-0.6,3.3H-165l0.7-3.9l11.8-15h-8.7C-161.3,459.2-160.7,455.9-160.7,455.9z"/>
<path d="M-138.6,441.8h11.4l-0.6,2.9l-10.4,13.1h8.2l-0.6,2.8h-11.7l0.6-3.3l10.1-12.8h-7.4L-138.6,441.8z"/>
<path d="M-145.8,419.7h10.3l-0.5,2.6l-9.4,11.8h7.4l-0.5,2.5h-10.6l0.5-3l9.1-11.5h-6.7C-146.2,422.2-145.8,419.7-145.8,419.7z"/>
<path d="M-130,404h8.2l-0.4,2.1l-7.5,9.4h5.9l-0.4,2h-8.4l0.4-2.4l7.2-9.2h-5.3L-130,404z"/>
<path d="M-115,396h6.6l-0.3,1.7l-6.1,7.6h4.8l-0.3,1.6h-6.8l0.3-1.9l5.8-7.4h-4.3L-115,396z"/>
</svg>
