<?xml version="1.0" encoding="utf-8"?>
<!-- Generator: Adobe Illustrator 19.0.0, SVG Export Plug-In . SVG Version: 6.00 Build 0)  -->
<svg version="1.1" id="Capa_1" xmlns="http://www.w3.org/2000/svg" xmlns:xlink="http://www.w3.org/1999/xlink" x="0px" y="0px"
	 viewBox="-210 325.9 173.5 190" style="enable-background:new -210 325.9 173.5 190;" xml:space="preserve">
<style type="text/css">
	.st0{fill:none;}
</style>
<g>
	<g>
		<path class="st0" d="M-86.3,433.3c-0.5-0.5-1.1-0.9-1.3-1.1l-0.7-0.6c-0.2-0.2-0.4-0.4-0.5-0.4c0,0-0.2-0.1-0.3-0.3
			c-0.2-0.2-0.4-0.4-0.5-0.5l-0.2-0.2c-0.2-0.2-0.2-0.4-0.2-0.7l0-0.2c0.2-1.2,0.4-2.5,0.5-3.7c0.1-1.2,0.1-3.8,0-5.3
			c-0.5-6.8-3.1-13.2-7.3-18.4c-2.7-3.4-6.1-6.2-9.9-8.4c-1.2-0.7-2.9-1.4-4.3-2c-0.7-0.3-1.1-0.4-1.2-0.9l-0.3-1.3
			c-0.2-1.1-0.8-3.5-1-4.5c-1,0-3.6,0-9.5,0h-9.4c-0.1,0.4-0.2,0.9-0.3,1.5c-0.7,4-0.7,4.1-0.7,4.2c-0.1,0.5-0.5,0.6-0.9,0.8
			c-2.5,0.9-5.1,2.2-7.4,3.7c-7.8,5.2-13.2,13.6-14.6,23c-0.3,1.9-0.4,3.8-0.4,5.7l0,0.6c0,0.5,0,1,0,1.2c0,0.7,0.2,2.4,0.4,3.3
			l0.1,0.3c0,0.3-0.1,0.5-0.2,0.7l-0.6,0.5c-0.1,0.1-0.8,0.8-1.1,1l-0.3,0.3c-0.1,0.1-0.3,0.3-0.5,0.5l-1.5,1.4
			c-0.1,0.2-0.3,0.3-0.4,0.4l4.7,8.2c2.5,4.2,4.1,7.1,4.7,8.2c0,0,0,0,0.1,0l1.8-0.7c0.7-0.2,1.5-0.5,1.8-0.7
			c1.3-0.5,1.5-0.5,1.7-0.6l0.2,0c0.2,0,0.5,0,0.6,0.2l0.4,0.3c0.1,0.1,0.2,0.2,0.3,0.2c0.1,0.1,0.2,0.1,0.4,0.3
			c1.6,1.3,3.9,2.8,5.9,3.8c4.1,2.1,8.2,3.2,13,3.5c0.8,0.1,3.5,0.1,4.3,0c3.7-0.3,7-1,10.3-2.3c2-0.8,4.1-1.9,5.8-3
			c0.2-0.1,0.4-0.2,0.5-0.3c0.3-0.2,1.7-1.2,2.5-1.8l0.6-0.5c0.4-0.3,0.7-0.2,1.2-0.1l0.7,0.2c0.2,0,0.4,0.1,0.4,0.1
			c0,0,0.1,0,0.1,0c0.1,0,0.3,0.1,0.3,0.2c0,0,0.2,0,0.3,0.1c0.2,0.1,0.4,0.1,0.6,0.2c0.3,0.1,1.8,0.5,1.9,0.6
			c0.1,0,0.4,0.1,0.8,0.2c0,0,0.1,0,0.1,0c0.6-1,2.2-3.8,4.7-8.1l4.7-8.2c-0.1-0.1-0.3-0.2-0.5-0.4L-86.3,433.3z"/>
		<path d="M-81.1,432.8c-0.1-0.2-0.1-0.2-3.9-3.4l-1.2-1c0,0,0-0.1,0-0.1c0.4-3,0.5-5.9,0.2-9c-0.7-7.2-3.5-13.9-8-19.6
			c-2.9-3.6-6.6-6.8-10.6-9.1c-1.3-0.7-3-1.6-4.3-2.1c-0.1-0.5-0.4-1.7-0.7-3.1l-0.8-3.5c-0.2-0.6-0.3-0.6-2.5-0.6
			c-1.6,0-4.6,0-10.3,0h-12c-0.3,0-0.7,0.2-0.7,0.6l0,0.1c0,0,0,0,0,0c0,0.1-0.3,1.6-0.6,3.3c-0.2,1.3-0.4,2.4-0.5,2.9
			c-0.1,0-0.1,0.1-0.2,0.1c-5.9,2.4-11.2,6.3-15.2,11.3c-4.1,5.2-6.8,11.3-7.8,17.7c0,0.3-0.1,0.5-0.1,0.6c-0.2,0.5-0.3,3.1-0.3,3.1
			c0,0.9,0,3.1,0,4c0,0.8,0.1,1.6,0.2,2.6l0,0.3c-0.3,0.3-0.6,0.6-1,0.9l-2.6,2.4c-1.3,1.2-1.3,1.2-1.3,1.3c-0.3,0.4-0.3,0.4,1,2.7
			l6,10.4c5.2,9,5.2,9,5.6,9c0.1,0,0.2,0,0.9-0.3l1.6-0.6c1.8-0.7,3.1-1.1,3.7-1.4c0.7,0.6,2.3,1.7,3.4,2.4c1.9,1.2,4.4,2.4,6.7,3.3
			c4.2,1.6,8.6,2.4,13.1,2.4c1.5,0,3-0.1,4.4-0.3c3.1-0.4,6.3-1.2,9.1-2.3c0.3-0.1,0.6-0.2,0.6-0.2c0.4-0.1,2.4-1,2.8-1.2
			c1.9-1,3.7-2.1,5.4-3.4l0.4-0.3c0,0,0.1,0,0.1,0c0.2,0.1,1.9,0.6,2.1,0.7c0.4,0.1,2.3,0.7,2.5,0.8c0.1,0,0.3,0.1,0.5,0.2l0.2,0.1
			c0.2,0.1,0.4,0.1,0.5,0.2c0.4,0.1,0.6,0.2,0.8,0.1c0.3-0.1,0.3-0.1,6.4-10.7c1.8-3.1,6-10.4,6.1-10.6C-81,433.2-81,433-81.1,432.8
			z M-90.1,442.3c-2.5,4.3-4.1,7.1-4.7,8.1c0,0-0.1,0-0.1,0c-0.3-0.1-0.7-0.2-0.8-0.2c-0.2,0-1.6-0.5-1.9-0.6
			c-0.1,0-0.3-0.1-0.6-0.2c-0.2-0.1-0.3-0.1-0.3-0.1c0-0.1-0.2-0.2-0.3-0.2c0,0-0.1,0-0.1,0c-0.1,0-0.3-0.1-0.4-0.1l-0.7-0.2
			c-0.5-0.1-0.8-0.2-1.2,0.1l-0.6,0.5c-0.8,0.6-2.2,1.6-2.5,1.8c-0.1,0.1-0.3,0.1-0.5,0.3c-1.7,1.1-3.8,2.2-5.8,3
			c-3.3,1.3-6.6,2-10.3,2.3c-0.8,0.1-3.5,0.1-4.3,0c-4.8-0.4-8.9-1.5-13-3.5c-2.1-1-4.3-2.5-5.9-3.8c-0.2-0.2-0.3-0.3-0.4-0.3
			c-0.1-0.1-0.2-0.1-0.3-0.2l-0.4-0.3c-0.2-0.1-0.4-0.2-0.6-0.2l-0.2,0c-0.2,0.1-0.4,0.1-1.7,0.6c-0.3,0.1-1.2,0.4-1.8,0.7l-1.8,0.7
			c0,0,0,0-0.1,0c-0.6-1.1-2.3-3.9-4.7-8.2l-4.7-8.2c0.1-0.1,0.3-0.3,0.4-0.4l1.5-1.4c0.2-0.2,0.4-0.4,0.5-0.5l0.3-0.3
			c0.2-0.2,1-0.9,1.1-1l0.6-0.5c0.2-0.2,0.3-0.4,0.2-0.7l-0.1-0.3c-0.2-0.9-0.4-2.6-0.4-3.3c0-0.2,0-0.7,0-1.2l0-0.6
			c0-1.9,0.1-3.8,0.4-5.7c1.4-9.4,6.7-17.7,14.6-23c2.3-1.5,4.9-2.8,7.4-3.7c0.5-0.2,0.8-0.3,0.9-0.8c0-0.1,0.1-0.2,0.7-4.2
			c0.1-0.6,0.2-1.1,0.3-1.5h9.4c5.8,0,8.5,0,9.5,0c0.2,1,0.8,3.4,1,4.5l0.3,1.3c0.1,0.5,0.4,0.6,1.2,0.9c1.4,0.6,3.1,1.3,4.3,2
			c3.9,2.1,7.2,5,9.9,8.4c4.2,5.3,6.8,11.7,7.3,18.4c0.1,1.5,0.1,4.1,0,5.3c-0.1,1.2-0.3,2.5-0.5,3.7l0,0.2c0,0.2,0,0.5,0.2,0.7
			l0.2,0.2c0.1,0.1,0.3,0.3,0.5,0.5c0.2,0.1,0.3,0.2,0.3,0.3c0,0,0.2,0.2,0.5,0.4l0.7,0.6c0.2,0.2,0.8,0.6,1.3,1.1l0.4,0.3
			c0.2,0.2,0.4,0.3,0.5,0.4L-90.1,442.3z"/>
		<path d="M-92.2,439.3c0,0-0.9-0.5-1.9-1.1c-1-0.6-1.8-1.1-1.8-1.1l-3.9-2.3c0,0-0.8-0.4-1.8-1c0-0.1,0.1-0.3,0.2-0.5
			c2.1-4.3,2.8-9.5,2-14.3c-0.6-3.4-1.9-6.6-3.7-9.4c-1.5-2.2-3.4-4.3-5.6-5.9c-1.2-0.9-2.3-1.6-3.7-2.3c-2.6-1.3-5.4-2.1-8.2-2.4
			c-0.4,0-0.8-0.1-0.9-0.1l-0.2,0v-2.6l0-4.4v-1.9V388h-1.5h-1.5l0,1.9v1.9l0,4.5l0,2.6l-0.2,0c-0.1,0-0.5,0.1-0.9,0.1
			c-3.8,0.4-7.6,1.8-10.9,3.9c-2.6,1.7-4.9,4.1-6.7,6.7c-1.2,1.8-2.2,3.9-2.8,5.8c-1.8,5.5-1.6,11.3,0.5,16.7c0.1,0.4,0.4,1,0.6,1.3
			c0.1,0.3,0.3,0.6,0.4,0.7c-1.1,0.6-1.9,1.1-1.9,1.1l-3.9,2.2c0,0-0.8,0.5-1.8,1.1c-1,0.6-1.8,1.1-1.9,1.1c0,0,0,0.2,0.7,1.3
			c0.4,0.7,0.7,1.3,0.8,1.3c0,0,0.9-0.5,1.9-1.1c1-0.6,1.9-1.1,1.9-1.1l3.9-2.3c0,0,0.8-0.5,1.9-1.1c0.1,0.1,0.2,0.2,0.3,0.4
			c1.6,2.3,3.8,4.4,6.2,6c1.8,1.2,3.9,2.2,5.8,2.8c5,1.6,10.3,1.6,15.2,0c2-0.6,4.1-1.7,5.8-2.8c2.4-1.6,4.6-3.7,6.3-6.1
			c0.2-0.3,0.5-0.6,0.5-0.6c1,0.6,1.7,1,1.7,1l3.9,2.2c0,0,0.8,0.5,1.8,1.1c1,0.6,1.9,1.1,1.9,1.1c0,0,0.2-0.3,0.8-1.2
			C-92.2,439.5-92.2,439.4-92.2,439.3z M-110.4,438.2c-0.8,0.7-1.7,1.3-2.6,1.9c-0.6,0.4-2.1,1.1-2.8,1.4c-4.7,1.9-9.9,1.9-14.6,0
			c-0.7-0.3-2.2-1-2.8-1.4c-0.9-0.5-1.8-1.2-2.6-1.9c-0.5-0.4-1.9-1.9-2.4-2.4c-0.4-0.4-0.9-1.1-1-1.3c0.6-0.4,1.1-0.6,1.1-0.6
			l0.1-0.1l0.8,1.4c0.4,0.8,0.8,1.4,0.9,1.5c0,0.1,0.1,0,0.3-0.3c0.1-0.2,0.5-0.7,0.7-1.1c0.3-0.4,0.7-1.1,0.9-1.4
			c0.4-0.6,1.7-2.6,2-3.1c0.1-0.1,0.5-0.7,0.8-1.3c0.4-0.6,0.8-1.2,0.9-1.4c0.1-0.2,0.2-0.3,0.2-0.3c0,0-0.1,0-0.3,0
			c-0.2,0-0.5,0-0.8,0c-0.3,0-0.6,0-0.8,0c-0.3,0-0.8,0-1.6,0.1c-0.3,0-0.6,0-0.7,0c-0.1,0-0.5,0-0.7,0c-0.5,0-0.9,0-1.6,0.1
			c-0.2,0-0.7,0-1.2,0.1c-0.4,0-1,0-1.2,0.1c-0.2,0-0.5,0-0.7,0c-0.9,0-1.2,0.1-1.2,0.1c0,0,0.4,0.7,0.9,1.5l0.9,1.5l-0.1,0.1
			c-0.1,0.1-0.5,0.3-1.1,0.7c-0.1-0.2-0.5-0.9-0.7-1.5c-1.1-2.7-1.6-5.7-1.4-8.6c0.2-3.3,1.2-6.5,3-9.3c0.4-0.6,1-1.4,1.5-2.1
			c0.5-0.6,2-2.1,2.5-2.6c1.3-1.1,2.5-1.9,4-2.6c1.4-0.7,2.5-1.1,3.9-1.4c1.1-0.3,2.5-0.5,3.1-0.5h0.2v1.7h-1.7c-1,0-1.7,0-1.7,0
			c0,0.1,4.9,9.6,4.9,9.6c0,0,4.9-9.5,4.9-9.6c0,0-0.7,0-1.8,0h-1.8v-1.6h0.2c0.5,0,2.1,0.3,3.2,0.5c1.4,0.3,2.5,0.8,3.9,1.4
			c1.5,0.7,2.7,1.5,4,2.6c0.6,0.5,2,2,2.5,2.6c0.7,0.9,1.4,1.9,2,2.9c0.3,0.5,0.9,1.8,1.1,2.4c1.7,4.3,1.9,9.1,0.4,13.5
			c-0.3,0.9-0.8,2.2-1,2.4c-0.8-0.4-1.3-0.8-1.3-0.8c0,0,0.1-0.3,0.8-1.5c0.5-0.8,0.8-1.4,0.8-1.5c0,0,0,0-0.9-0.1
			c-0.4,0-0.7,0-0.7,0c0,0-0.4,0-0.7,0c-0.4,0-0.8,0-0.9,0c-0.1,0-0.4,0-0.7,0c-0.3,0-0.6,0-0.7,0c-0.1,0-0.5,0-0.8,0
			c-0.4,0-0.7,0-0.8,0s-0.4,0-0.8,0c-0.3,0-0.7,0-0.8,0c-0.1,0-0.4,0-0.8,0c-0.4,0-0.7,0-0.8,0c-0.1,0-1.4-0.1-1.4,0
			c0,0,1.1,1.7,2.4,3.7c1.3,2,2.6,4,2.9,4.5c0.5,0.8,0.6,0.9,0.6,0.8c0,0,0.4-0.7,0.9-1.5l0.8-1.5l0.1,0.1c0,0,0.5,0.3,1.3,0.7
			c-0.2,0.3-0.7,1-1.1,1.4C-108.4,436.2-109.9,437.7-110.4,438.2z"/>
	</g>
	<g>
		<path d="M-108.4,381.3c0,0,0,0.1,0,0.1c0.3,0.1,0.3,0.2,0.4,0.5l0.8,3.5c0.3,1.3,0.6,2.5,0.7,3.1c1.3,0.5,3,1.4,4.3,2.1
			c4.1,2.3,7.7,5.5,10.6,9.1c4.5,5.7,7.3,12.4,8,19.6c0.3,2.8,0.3,5.5-0.1,8.2h13.1l26.4-46.1H-108.4z M-101.4,389.1
			c-1.1-0.6-2.5-1.3-3.7-1.8c-0.1-0.4-0.2-1-0.3-1.5l-0.2-0.7l-0.5-2h59l-9.1,15.9h-34c-0.1-0.1-0.1-0.2-0.2-0.3
			C-93.3,394.8-97.2,391.5-101.4,389.1z M-88.9,400.5H-57l-7.6,13.3h-18.2C-84,409.1-86,404.6-88.9,400.5z M-71.5,425.8h-10.3
			c0.2-2.2,0.1-4.4-0.1-6.7c-0.1-1.2-0.3-2.4-0.5-3.6h16.9L-71.5,425.8z"/>
		<path d="M-202.4,381.3l26.4,46.1h13.1c-0.3-2.7-0.4-5.4-0.1-8.2c0.7-7.2,3.5-13.9,8-19.6c2.9-3.6,6.6-6.8,10.6-9.1
			c1.3-0.7,3-1.6,4.3-2.1c0.1-0.5,0.4-1.7,0.7-3.1l0.8-3.5c0.1-0.3,0.2-0.4,0.4-0.5c0,0,0-0.1,0-0.1H-202.4z M-156.2,398.6
			c-0.1,0.1-0.1,0.2-0.2,0.3h-34l-9.1-15.9h59l-0.5,2l-0.2,0.7c-0.1,0.6-0.2,1.1-0.3,1.5c-1.2,0.5-2.6,1.2-3.7,1.8
			C-149.3,391.5-153.2,394.8-156.2,398.6z M-163.7,413.9h-18.2l-7.6-13.3h31.8C-160.5,404.6-162.5,409.1-163.7,413.9z M-180.9,415.5
			h16.9c-0.2,1.2-0.4,2.4-0.5,3.6c-0.2,2.3-0.3,4.5-0.1,6.7H-175L-180.9,415.5z"/>
	</g>
	<polygon points="-117.1,431.3 -116.6,432.4 -115.3,432.6 -116.2,433.5 -116,434.8 -117.1,434.2 -118.2,434.8 -118,433.5 
		-118.9,432.6 -117.7,432.4 	"/>
	<polygon points="-122.9,436.8 -122.4,437.9 -121.1,438.1 -122,439 -121.8,440.3 -122.9,439.7 -124.1,440.3 -123.9,439 
		-124.8,438.1 -123.5,437.9 	"/>
	<polygon points="-108.4,418.3 -107.8,419.4 -106.6,419.6 -107.5,420.5 -107.3,421.8 -108.4,421.2 -109.5,421.8 -109.3,420.5 
		-110.2,419.6 -109,419.4 	"/>
	<polygon points="-138.6,417 -138.2,417.9 -137.2,418 -137.9,418.7 -137.7,419.6 -138.6,419.1 -139.4,419.6 -139.3,418.7 
		-139.9,418 -139,417.9 	"/>
	<polygon points="-132.6,416 -132.2,416.9 -131.2,417 -131.9,417.7 -131.8,418.6 -132.6,418.2 -133.5,418.6 -133.3,417.7 -134,417 
		-133,416.9 	"/>
	<polygon points="-124.8,420.5 -124.3,421.3 -123.4,421.5 -124.1,422.1 -123.9,423.1 -124.8,422.6 -125.6,423.1 -125.5,422.1 
		-126.1,421.5 -125.2,421.3 	"/>
	<polygon points="-122.1,418.9 -121.8,419.5 -121.2,419.5 -121.6,420 -121.5,420.6 -122.1,420.3 -122.6,420.6 -122.5,420 
		-122.9,419.5 -122.3,419.5 	"/>
</g>
</svg>
