<?xml version="1.0" encoding="utf-8"?>
<!-- Generator: Adobe Illustrator 19.0.0, SVG Export Plug-In . SVG Version: 6.00 Build 0)  -->
<svg version="1.1" id="Capa_1" xmlns="http://www.w3.org/2000/svg" xmlns:xlink="http://www.w3.org/1999/xlink" x="0px" y="0px"
	 viewBox="-210 325.9 173.5 190" style="enable-background:new -210 325.9 173.5 190;" xml:space="preserve">
<g id="XMLID_100_">
	<path d="M-45.1,494.1h-156.3c-2,0-3.8-1-4.8-2.7s-1-3.8,0-5.5l78.1-135.4c1-1.7,2.8-2.8,4.8-2.8l0,0c2,0,3.8,1,4.8,2.7l78.2,135.4
		c1,1.7,1,3.8,0,5.5C-41.3,493-43.1,494.1-45.1,494.1z M-191.9,483.1h137.3l-68.7-118.9L-191.9,483.1z"/>
	<path d="M-123.3,416.3c-4.6,0-9.1,1.1-13.1,3.2c-1.6-2-4.1-3.2-6.7-3.2c-4.8,0-8.7,3.9-8.7,8.7c0,2.7,1.2,5.1,3.2,6.7
		c-2.1,4-3.2,8.5-3.2,13.1c0,15.7,12.8,28.5,28.5,28.5c4.6,0,9.1-1.1,13.1-3.2c1.6,2,4.1,3.2,6.7,3.2c4.8,0,8.7-3.9,8.7-8.7
		c0-2.7-1.2-5.1-3.2-6.7c2.1-4,3.2-8.5,3.2-13.1C-94.8,429.1-107.5,416.3-123.3,416.3z M-143.1,418.8c2.2,0,4.2,1.1,5.3,3
		c0,0,0,0,0,0c0.6,1,0.9,2.1,0.9,3.2c0,3.4-2.8,6.2-6.2,6.2c-1.2,0-2.2-0.3-3.2-0.9c-1.9-1.1-3-3.1-3-5.3
		C-149.3,421.5-146.5,418.8-143.1,418.8z M-123.3,470.8c-14.3,0-26-11.7-26-26c0-4.1,1-8.2,2.8-11.8c0.3,0.1,0.6,0.2,0.9,0.3
		c0.1,0,0.2,0,0.3,0.1c0.3,0.1,0.5,0.1,0.8,0.2c0.1,0,0.2,0,0.3,0c0.4,0,0.7,0.1,1.1,0.1c4.8,0,8.7-3.9,8.7-8.7c0-0.4,0-0.7-0.1-1.1
		c0-0.1,0-0.2,0-0.3c0-0.3-0.1-0.5-0.2-0.8c0-0.1,0-0.2-0.1-0.3c-0.1-0.3-0.2-0.6-0.3-0.9c3.6-1.9,7.7-2.8,11.8-2.8
		c14.3,0,26,11.7,26,26c0,4.1-1,8.2-2.8,11.8c-0.3-0.1-0.6-0.2-0.9-0.3c-0.1,0-0.2,0-0.3-0.1c-0.3-0.1-0.5-0.1-0.8-0.2
		c-0.1,0-0.2,0-0.3,0c-0.4,0-0.7-0.1-1.1-0.1c-4.8,0-8.7,3.9-8.7,8.7c0,0.4,0,0.7,0.1,1.1c0,0.1,0,0.2,0,0.3c0,0.3,0.1,0.5,0.2,0.8
		c0,0.1,0,0.2,0.1,0.3c0.1,0.3,0.2,0.6,0.3,0.9C-115,469.8-119.1,470.8-123.3,470.8z M-103.4,470.8c-2.2,0-4.2-1.1-5.3-3
		c0,0,0,0,0,0c-0.6-1-0.9-2.1-0.9-3.2c0-3.4,2.8-6.2,6.2-6.2c1.2,0,2.2,0.3,3.2,0.9c1.9,1.1,3,3.1,3,5.3
		C-97.2,468-100,470.8-103.4,470.8z"/>
	<path d="M-123.3,431.1c-7.5,0-13.6,6.1-13.6,13.6c0,7.5,6.1,13.6,13.6,13.6s13.6-6.1,13.6-13.6
		C-109.6,437.2-115.7,431.1-123.3,431.1z M-123.3,455.9c-6.1,0-11.1-5-11.1-11.1c0-6.1,5-11.1,11.1-11.1c6.1,0,11.1,5,11.1,11.1
		C-112.1,450.9-117.1,455.9-123.3,455.9z"/>
</g>
</svg>
