<?xml version="1.0" encoding="utf-8"?>
<!-- Generator: Adobe Illustrator 19.0.0, SVG Export Plug-In . SVG Version: 6.00 Build 0)  -->
<svg version="1.1" id="Capa_1" xmlns="http://www.w3.org/2000/svg" xmlns:xlink="http://www.w3.org/1999/xlink" x="0px" y="0px"
	 viewBox="-210 325.9 173.5 190" style="enable-background:new -210 325.9 173.5 190;" xml:space="preserve">
<g id="XMLID_100_">
	<path d="M-45.1,494.1h-156.3c-2,0-3.8-1-4.8-2.7s-1-3.8,0-5.5l78.1-135.4c1-1.7,2.8-2.8,4.8-2.8l0,0c2,0,3.8,1,4.8,2.7l78.2,135.4
		c1,1.7,1,3.8,0,5.5C-41.3,493-43.1,494.1-45.1,494.1z M-191.9,483.1h137.3l-68.7-118.9L-191.9,483.1z"/>
	<path d="M-141.2,439.7c0.1,0,0.2,0,0.2,0c0.9-0.2,1.8-0.3,2.7-0.4c0.8-0.1,1.3-0.8,1.2-1.5c-0.1-0.8-0.8-1.3-1.5-1.2
		c-1,0.1-1.9,0.3-2.8,0.4c-0.7,0.1-1.2,0.8-1.1,1.6C-142.4,439.2-141.8,439.7-141.2,439.7z"/>
	<path d="M-100.3,440.6c1,0.3,1.8,0.4,2.5,0.7c0.2,0,0.3,0.1,0.4,0.1c0.6,0,1.1-0.4,1.3-1c0.3-0.7-0.2-1.5-0.9-1.8
		c-0.9-0.3-1.8-0.5-2.7-0.8c-0.8-0.2-1.5,0.3-1.7,1C-101.5,439.8-101,440.5-100.3,440.6z"/>
	<path d="M-108.3,439.3c1,0.1,1.8,0.3,2.7,0.4c0.1,0,0.2,0,0.2,0c0.7,0,1.2-0.5,1.3-1.1c0.1-0.7-0.4-1.4-1.1-1.6
		c-0.9-0.2-1.8-0.3-2.8-0.4c-0.7-0.1-1.4,0.4-1.5,1.2C-109.6,438.5-109.1,439.2-108.3,439.3z"/>
	<path d="M-121.9,435.7h-1.3h-1.4c-0.8,0-1.3,0.6-1.3,1.4s0.6,1.3,1.4,1.3h1.4h1.3l0,0c0.8,0,1.3-0.6,1.4-1.3
		C-120.6,436.4-121.2,435.7-121.9,435.7z"/>
	<path d="M-149.2,441.4c0.2,0,0.3,0,0.4-0.1c0.8-0.3,1.7-0.5,2.5-0.7c0.7-0.2,1.1-0.9,1-1.7c-0.2-0.7-0.9-1.1-1.7-1
		c-1,0.3-1.9,0.5-2.7,0.8c-0.7,0.3-1.1,1-0.9,1.8C-150.3,441.1-149.8,441.4-149.2,441.4z"/>
	<path d="M-90.6,443.9L-90.6,443.9c0-18-14.6-32.6-32.6-32.6s-32.6,14.6-32.6,32.6c0,18,14.6,32.6,32.6,32.6S-90.6,461.9-90.6,443.9
		L-90.6,443.9z M-93.4,441.7c-0.4,0.5-0.5,1.2-0.1,1.8c0.1,0.2,0.2,0.3,0.2,0.4c0,1.8-10.5,5.4-29.9,5.4c-1.8,0-3.6,0-5.3-0.1
		c-0.1-1.7-0.1-3.5-0.1-5.3c0-19.4,3.6-29.9,5.4-29.9c0.1,0,0.2,0.1,0.4,0.2c0.3,0.2,0.5,0.4,0.9,0.4c0.4,0,0.7-0.2,1-0.4
		C-106.3,415.1-94.5,427-93.4,441.7z M-127,414.3c-2.5,4.6-3.8,13.8-4.2,21.7c-0.6,0-1.2,0.1-1.8,0.1c-0.8,0.1-1.3,0.7-1.2,1.5
		c0.1,0.7,0.6,1.2,1.3,1.2h0.1c0.5,0,1.1-0.1,1.6-0.1c-0.1,1.8-0.1,3.7-0.1,5.2c0,1.6,0,3.3,0.1,5.2c-14.2-0.8-21.9-3.6-21.9-5.2
		c0-0.1,0.1-0.2,0.2-0.4c0.4-0.5,0.4-1.3-0.1-1.8C-152,427.5-141,415.9-127,414.3z M-152.9,447.6c4.6,2.5,13.8,3.8,21.7,4.2
		c0.4,8,1.7,17.2,4.2,21.7C-140.5,471.9-151.3,461.2-152.9,447.6z M-121.1,473.7c-0.5-0.4-1.2-0.5-1.8-0.1c-0.2,0.1-0.3,0.2-0.4,0.2
		c-1.6,0-4.4-7.7-5.2-21.9c1.8,0.1,3.7,0.1,5.2,0.1c1.6,0,3.3,0,5.2-0.1c0,0.5-0.1,1-0.1,1.5c-0.1,0.8,0.5,1.4,1.2,1.5h0.1
		c0.7,0,1.3-0.5,1.3-1.3c0-0.6,0.1-1.2,0.1-1.8c8-0.4,17.2-1.7,21.7-4.2C-95.3,461.6-106.8,472.6-121.1,473.7z"/>
	<path d="M-116.5,441.1c-0.8,0-1.3,0.6-1.3,1.4v1.4v1.3c0,0.8,0.6,1.4,1.3,1.4l0,0c0.8,0,1.3-0.6,1.4-1.3V444v-1.4
		C-115.1,441.7-115.8,441.1-116.5,441.1z"/>
	<path d="M-119,426.2c0.1,0.9,0.3,1.8,0.4,2.7c0.1,0.7,0.7,1.2,1.3,1.2c0.1,0,0.1,0,0.2,0c0.8-0.1,1.3-0.8,1.2-1.5
		c-0.1-1-0.3-1.8-0.4-2.8c-0.1-0.7-0.9-1.2-1.6-1.1C-118.6,424.8-119.1,425.5-119,426.2z"/>
	<path d="M-117.2,457.7c-0.7-0.1-1.4,0.4-1.5,1.2c-0.1,1-0.3,1.8-0.4,2.7c-0.1,0.7,0.4,1.4,1.1,1.6c0.1,0,0.2,0,0.2,0
		c0.7,0,1.2-0.4,1.3-1.1c0.2-0.9,0.3-1.8,0.4-2.8C-115.8,458.4-116.4,457.7-117.2,457.7z"/>
	<path d="M-118.4,465.8c-0.7-0.2-1.5,0.3-1.7,1c-0.3,1-0.4,1.8-0.7,2.5c-0.3,0.7,0.2,1.5,0.9,1.7c0.2,0,0.3,0.1,0.4,0.1
		c0.6,0,1.1-0.4,1.3-1c0.3-0.9,0.5-1.8,0.8-2.7C-117.2,466.8-117.7,466-118.4,465.8z"/>
	<path d="M-120,420.9c0.2,0.6,0.7,1.1,1.3,1.1c0.1,0,0.2,0,0.4,0c0.7-0.2,1.1-0.9,1-1.7c-0.3-1-0.5-1.9-0.8-2.7
		c-0.3-0.7-1-1.1-1.8-0.9c-0.7,0.3-1.1,1-0.9,1.8C-120.5,419.1-120.2,420-120,420.9z"/>
	<path d="M-118.1,434.3c0.1,0.9,0.1,1.8,0.2,2.7c0,0.4,0.2,0.7,0.4,1c0.3,0.4,0.6,0.6,1.1,0.6c1,0.1,1.8,0.1,2.7,0.2h0.1
		c0.7,0,1.3-0.5,1.3-1.2c0.1-0.8-0.5-1.4-1.2-1.5c-0.6,0-1.1-0.1-1.8-0.1c0-0.6-0.1-1.2-0.1-1.8c-0.1-0.8-0.8-1.3-1.5-1.2
		C-117.6,432.9-118.2,433.5-118.1,434.3z"/>
</g>
</svg>
