<?xml version="1.0" encoding="utf-8"?>
<!-- Generator: Adobe Illustrator 19.0.0, SVG Export Plug-In . SVG Version: 6.00 Build 0)  -->
<svg version="1.1" id="Capa_1" xmlns="http://www.w3.org/2000/svg" xmlns:xlink="http://www.w3.org/1999/xlink" x="0px" y="0px"
	 viewBox="-210 325.9 173.5 190" style="enable-background:new -210 325.9 173.5 190;" xml:space="preserve">
<g id="XMLID_100_">
	<path d="M-45.1,494.1h-156.3c-2,0-3.8-1-4.8-2.7s-1-3.8,0-5.5l78.1-135.4c1-1.7,2.8-2.8,4.8-2.8l0,0c2,0,3.8,1,4.8,2.7l78.2,135.4
		c1,1.7,1,3.8,0,5.5C-41.3,493-43.1,494.1-45.1,494.1z M-191.9,483.1h137.3l-68.7-118.9L-191.9,483.1z"/>
</g>
<g>
	<path d="M-107.5,432c-4.9,1.2-10,4.2-14,8.2c-3.8,3.8-6.6,9.1-7.7,14.5c-1,5.2-0.3,9.6,1.9,11.7c1.5,1.5,4.1,2.3,7.3,2.3
		c1.4,0,2.9-0.2,4.5-0.5c5.4-1.1,10.7-3.9,14.5-7.7c4-4,7-9.1,8.2-14c1.2-5.2,0.5-9.5-2.3-12.3S-102.3,430.7-107.5,432z M-94,440.8
		l-7.7-7.7c2.2,0.2,4.1,1,5.4,2.4C-95,436.8-94.2,438.6-94,440.8z M-128.1,459.5l7.7,7.7c-2.5-0.1-4.6-0.7-5.8-1.9
		C-127.4,464.2-128.1,462.1-128.1,459.5z M-102.2,459.5c-3.1,3.1-7.2,5.5-11.5,6.7l-13.4-13.4c1.2-4.3,3.6-8.4,6.7-11.5
		c3.4-3.4,7.6-6,11.7-7.3l13.7,13.7C-96.2,451.8-98.8,456.1-102.2,459.5z"/>
	<path d="M-103.3,442.4c-0.3-0.3-0.8-0.3-1.1,0l-1.9,1.9l-1.7-1.7c-0.3-0.3-0.8-0.3-1.1,0c-0.3,0.3-0.3,0.8,0,1.1l1.7,1.7l-1.4,1.4
		l-1.7-1.7c-0.3-0.3-0.8-0.3-1.1,0c-0.3,0.3-0.3,0.8,0,1.1l1.7,1.7l-1.4,1.4l-1.7-1.7c-0.3-0.3-0.8-0.3-1.1,0
		c-0.3,0.3-0.3,0.8,0,1.1l1.7,1.7l-1.4,1.4l-1.7-1.7c-0.3-0.3-0.8-0.3-1.1,0c-0.3,0.3-0.3,0.8,0,1.1l1.7,1.7l-1.4,1.4l-1.7-1.7
		c-0.3-0.3-0.8-0.3-1.1,0c-0.3,0.3-0.3,0.8,0,1.1l1.7,1.7l-1.9,1.9c-0.3,0.3-0.3,0.8,0,1.1c0.2,0.2,0.4,0.2,0.5,0.2
		c0.2,0,0.4-0.1,0.5-0.2l1.9-1.9l1.7,1.7c0.2,0.2,0.4,0.2,0.5,0.2c0.2,0,0.4-0.1,0.5-0.2c0.3-0.3,0.3-0.8,0-1.1l-1.7-1.7l1.4-1.4
		l1.7,1.7c0.2,0.2,0.4,0.2,0.5,0.2s0.4-0.1,0.5-0.2c0.3-0.3,0.3-0.8,0-1.1l-1.7-1.7l1.4-1.4l1.7,1.7c0.2,0.2,0.4,0.2,0.5,0.2
		s0.4-0.1,0.5-0.2c0.3-0.3,0.3-0.8,0-1.1l-1.8-1.6l1.4-1.4l1.7,1.7c0.2,0.2,0.4,0.2,0.5,0.2c0.2,0,0.4-0.1,0.5-0.2
		c0.3-0.3,0.3-0.8,0-1.1l-1.7-1.7l1.4-1.4l1.7,1.7c0.2,0.2,0.4,0.2,0.5,0.2s0.4-0.1,0.5-0.2c0.3-0.3,0.3-0.8,0-1.1l-1.7-1.7l1.9-1.9
		C-103,443.3-103,442.7-103.3,442.4z"/>
	<path d="M-105.1,408.9c-5.5,0-9.9,4.5-9.9,9.9c0,5.4,4.4,10,9.9,10s9.9-4.5,9.9-9.9C-95.2,413.4-99.6,408.9-105.1,408.9z
		 M-99.9,412.2c-1.5,1.2-3.3,1.9-5.2,1.9c-1.9,0-3.7-0.7-5.2-1.9c1.5-1.2,3.2-1.9,5.2-1.9C-103.2,410.4-101.3,411.1-99.9,412.2z
		 M-110.2,425.4c1.5-1.2,3.2-1.8,5.1-1.8s3.6,0.6,5.1,1.8c-1.4,1.1-3.2,1.7-5.1,1.7C-107.1,427.2-108.8,426.5-110.2,425.4z
		 M-98.9,424.4c-1.8-1.5-3.9-2.2-6.2-2.2c-2.3,0-4.5,0.8-6.2,2.2c-1.3-1.5-2.2-3.5-2.2-5.6s0.8-4,2.1-5.5c1.8,1.5,4,2.3,6.3,2.3
		s4.6-0.8,6.3-2.3c1.3,1.5,2.1,3.4,2.1,5.5C-96.8,420.9-97.6,422.9-98.9,424.4z"/>
	<path d="M-149.2,448.4c-1.9,1.9-2.9,4.3-2.9,7c0,2.6,1,5.2,2.9,7c1.9,1.9,4.5,2.9,7,2.9s5.1-1,7-2.9c1.9-1.9,2.9-4.3,2.9-7
		c0-2.6-1-5.2-2.9-7c-1.9-1.9-4.3-2.9-7-2.9C-144.9,445.5-147.4,446.5-149.2,448.4z M-150.5,456.5c1.9,0.2,3.6,1,4.9,2.3
		c1.3,1.3,2.1,3,2.3,4.9c-1.8-0.2-3.5-1-4.8-2.4C-149.4,460-150.3,458.3-150.5,456.5z M-136.3,461.3c-1.5,1.5-3.5,2.3-5.5,2.4
		c-0.2-2.2-1.2-4.4-2.8-6c-1.6-1.6-3.7-2.6-6-2.8c0.1-2.1,0.9-4,2.4-5.5c1.5-1.5,3.3-2.3,5.3-2.4c0.2,2.3,1.2,4.5,2.8,6.1
		c1.6,1.6,3.8,2.6,6.1,2.8C-134,458-134.9,459.9-136.3,461.3z M-133.9,454.4c-1.9-0.2-3.6-1-5-2.3c-1.3-1.3-2.2-3.1-2.3-5
		c1.9,0.2,3.6,1,4.9,2.4C-134.9,450.8-134.2,452.5-133.9,454.4z"/>
	<path d="M-123,412.4c-7.1-7.1-18.7-7.1-25.8,0c-7.2,7.1-7.2,18.7-0.1,25.9c3.6,3.6,8.3,5.3,12.9,5.3c4.7,0,9.3-1.8,12.9-5.3
		C-115.9,431.1-115.9,419.5-123,412.4z M-152.5,426.5c4.3-0.4,8.4-2.2,11.7-5.1l3.9,3.9l-11.3,11.2
		C-150.8,433.7-152.3,430.1-152.5,426.5z M-119.3,424.1c-4.3,0.4-8.4,2.2-11.7,5.1l-3.9-3.9l11.3-11.2
		C-121,416.9-119.5,420.5-119.3,424.1z M-135.9,424.2l-3.9-3.9c2.9-3.2,4.8-7.3,5.1-11.7c3.6,0.2,7.2,1.7,10,4.3L-135.9,424.2z
		 M-140.9,419.2l-6.3-6.3c3.1-2.8,6.9-4.2,10.9-4.3C-136.6,412.5-138.3,416.2-140.9,419.2z M-135.9,426.4l3.9,3.9
		c-2.9,3.2-4.8,7.3-5.1,11.7c-3.6-0.2-7.2-1.7-10-4.3L-135.9,426.4z M-130.8,431.4l6.3,6.3c-3.1,2.8-6.9,4.2-10.9,4.3
		C-135.2,438-133.5,434.3-130.8,431.4z M-129.8,430.3c2.9-2.7,6.6-4.3,10.6-4.6c-0.1,3.9-1.5,7.8-4.3,10.9L-129.8,430.3z
		 M-148.2,414.1l6.3,6.3c-2.9,2.7-6.6,4.3-10.6,4.6C-152.5,421-151,417.2-148.2,414.1z"/>
</g>
</svg>
