<?xml version="1.0" encoding="utf-8"?>
<!-- Generator: Adobe Illustrator 19.0.0, SVG Export Plug-In . SVG Version: 6.00 Build 0)  -->
<svg version="1.1" id="Capa_1" xmlns="http://www.w3.org/2000/svg" xmlns:xlink="http://www.w3.org/1999/xlink" x="0px" y="0px"
	 viewBox="-210 325.9 173.5 190" style="enable-background:new -210 325.9 173.5 190;" xml:space="preserve">
<g id="XMLID_100_">
	<path d="M-45.1,494.1h-156.3c-2,0-3.8-1-4.8-2.7s-1-3.8,0-5.5l78.1-135.4c1-1.7,2.8-2.8,4.8-2.8l0,0c2,0,3.8,1,4.8,2.7l78.2,135.4
		c1,1.7,1,3.8,0,5.5C-41.3,493-43.1,494.1-45.1,494.1z M-191.9,483.1h137.3l-68.7-118.9L-191.9,483.1z"/>
</g>
<path d="M-84.7,445.8c-17.5-21.7-16.5-20.5-16.7-20.6c0,0,0,0,0,0l-24.5-20.5c-0.6-0.5-1.5-0.6-2.2-0.3c0,0,0,0,0,0l-16.3,8.2
	c-0.4,0.2-0.7,0.5-0.9,0.9l-8.3,16.4c0,0,0,0,0,0c-0.1,0.3-0.2,0.6-0.2,0.8c0,0,0,0,0,0.1c0,0,0,0,0,0v28.5c0,0.6,0.3,1.2,0.8,1.6
	l16.4,12.3c0,0,0,0,0,0l0,0c0.3,0.3,0.8,0.4,1.2,0.4c0,0,0,0,0,0h28.5c0,0,0,0,0,0c0,0,0,0,0,0l0,0c0.4,0,0.7-0.1,1.1-0.3h0
	l20.5-12.4c0.6-0.4,1-1,1-1.7V447C-84.2,446.6-84.4,446.1-84.7,445.8z M-133.9,469.6l-12.6-31.4l34.5,31.4H-133.9L-133.9,469.6z
	 M-104.8,427.5l-3.1,33.7l-15.3-49.1L-104.8,427.5z M-141.9,415.8l13.6-6.8l17.4,56l-38.3-34.8L-141.9,415.8z M-149.7,441.3
	l9.8,24.3l-9.8-7.4V441.3z M-88.3,458.1l-16.1,9.7l0.4-4.3l2.9-31.6l12.8,15.9V458.1z"/>
</svg>
