<?xml version="1.0" encoding="utf-8"?>
<!-- Generator: Adobe Illustrator 19.0.0, SVG Export Plug-In . SVG Version: 6.00 Build 0)  -->
<svg version="1.1" id="Capa_1" xmlns="http://www.w3.org/2000/svg" xmlns:xlink="http://www.w3.org/1999/xlink" x="0px" y="0px"
	 viewBox="-210 325.9 173.5 190" style="enable-background:new -210 325.9 173.5 190;" xml:space="preserve">
<g id="XMLID_100_">
	<path d="M-45.1,494.1h-156.3c-2,0-3.8-1-4.8-2.7s-1-3.8,0-5.5l78.1-135.4c1-1.7,2.8-2.8,4.8-2.8l0,0c2,0,3.8,1,4.8,2.7l78.2,135.4
		c1,1.7,1,3.8,0,5.5C-41.3,493-43.1,494.1-45.1,494.1z M-191.9,483.1h137.3l-68.7-118.9L-191.9,483.1z"/>
</g>
<path d="M-85.4,409.4l-10.5-6.1c-0.4-0.2-0.9-0.2-1.3,0l-9.3,5.4l-4.9-4.9l-1.9,1.9l4.9,4.9v12.1l-2.2,2.2l1.9,1.9l2.2-2.2l8.7,5
	v6.8h2.6v-6.8l9.9-5.7c0.4-0.2,0.7-0.7,0.7-1.1v-12.2C-84.7,410-85,409.6-85.4,409.4z M-87.3,421.9l-9.2,5.3l-9.2-5.3v-10.6l9.2-5.3
	l9.2,5.3V421.9z"/>
<path d="M-140,460.6l2.2-2.2l-1.9-1.9l-2.2,2.2l-8.7-5v-4.2h-2.6v4.2l-9.9,5.7c-0.4,0.2-0.7,0.7-0.7,1.1v12.2c0,0.5,0.3,0.9,0.7,1.1
	l10.5,6.1c0.4,0.2,0.9,0.2,1.3,0l9.3-5.4l2.9,2.9l1.9-1.9l-2.9-2.9V460.6z M-142.6,471.9l-9.2,5.3l-9.2-5.3v-10.6l9.2-5.3l9.2,5.3
	V471.9z"/>
<path d="M-87.7,450.4l-1.9-1.9l-3.6,3.6l-8.7-5v-11.5l3.6-3.6l-1.9-1.9l-3.6,3.6l-8.7-5v-6.8h-2.6v6.8l-9.2,5.3l-9.2-5.3v-11.5
	l4.9-4.9l-1.9-1.9l-4.9,4.9l-8.7-5v-6.8h-2.6v6.8l-8.7,5l-4.2-4.2l-1.9,1.9l4.2,4.2v12.1l-4.9,4.9l1.9,1.9l4.9-4.9l8.7,5v11.5
	l-3.6,3.6l1.9,1.9l3.6-3.6l8.7,5v6.8h2.6v-6.8l9.2-5.3l9.2,5.3v11.5l-2.9,2.9l1.9,1.9l2.9-2.9l8.7,5v6.8h2.6v-6.8l8.7-5l2.9,2.9
	l1.9-1.9l-2.9-2.9V454L-87.7,450.4z M-154.5,417.9l9.2-5.3l9.2,5.3v10.6l-9.2,5.3l-9.2-5.3V417.9z M-143.9,436.3l9.2-5.3l9.2,5.3
	v10.6l-9.2,5.3l-9.2-5.3V436.3z M-122.9,436.3l9.2-5.3l9.2,5.3v10.6l-9.2,5.3l-9.2-5.3V436.3z M-93.9,465.3l-9.2,5.3l-9.2-5.3v-10.6
	l9.2-5.3l9.2,5.3V465.3z"/>
</svg>
