<?xml version="1.0" encoding="utf-8"?>
<!-- Generator: Adobe Illustrator 19.0.0, SVG Export Plug-In . SVG Version: 6.00 Build 0)  -->
<svg version="1.1" id="Capa_1" xmlns="http://www.w3.org/2000/svg" xmlns:xlink="http://www.w3.org/1999/xlink" x="0px" y="0px"
	 viewBox="-210 325.9 173.5 190" style="enable-background:new -210 325.9 173.5 190;" xml:space="preserve">
<style type="text/css">
	.st0{clip-path:url(#SVGID_2_);}
</style>
<g id="XMLID_100_">
	<path d="M-45.1,494.1h-156.3c-2,0-3.8-1-4.8-2.7s-1-3.8,0-5.5l78.1-135.4c1-1.7,2.8-2.8,4.8-2.8l0,0c2,0,3.8,1,4.8,2.7l78.2,135.4
		c1,1.7,1,3.8,0,5.5C-41.3,493-43.1,494.1-45.1,494.1z M-191.9,483.1h137.3l-68.7-118.9L-191.9,483.1z"/>
</g>
<g>
	<defs>
		<polygon id="SVGID_1_" points="-191.9,483.1 -54.6,483.1 -123.3,364.2 		"/>
	</defs>
	<clipPath id="SVGID_2_">
		<use xlink:href="#SVGID_1_"  style="overflow:visible;"/>
	</clipPath>
	<g class="st0">
		<path d="M-167.4,441.6c-2.1,0-3.9,1.7-3.9,3.9c0,2.1,1.7,3.9,3.9,3.9c2.1,0,3.9-1.7,3.9-3.9C-163.5,443.3-165.2,441.6-167.4,441.6
			z"/>
		<path d="M-52.7,356.8h-19.8c0,0.1-0.1,0.3-0.3,0.3s-0.3-0.1-0.3-0.3h-19.5c0,0.1-0.1,0.3-0.3,0.3c-0.2,0-0.3-0.1-0.3-0.3h-19.5
			c0,0.1-0.1,0.3-0.3,0.3c-0.2,0-0.3-0.1-0.3-0.3h-19.5c0,0.1-0.1,0.3-0.3,0.3s-0.3-0.1-0.3-0.3H-153c0,0.1-0.1,0.3-0.3,0.3
			c-0.2,0-0.3-0.1-0.3-0.3h-19.5c0,0.1-0.1,0.3-0.3,0.3c-0.2,0-0.3-0.1-0.3-0.3h-20.1v20c0,0,0,0,0.1,0c0.2,0,0.3,0.1,0.3,0.3
			c0,0.2-0.1,0.3-0.3,0.3c0,0,0,0-0.1,0v19.5c0,0,0,0,0.1,0c0.2,0,0.3,0.1,0.3,0.3c0,0.2-0.1,0.3-0.3,0.3c0,0,0,0-0.1,0V417
			c0,0,0,0,0.1,0c0.2,0,0.3,0.1,0.3,0.3c0,0.2-0.1,0.3-0.3,0.3c0,0,0,0-0.1,0v19.5c0,0,0,0,0.1,0c0.2,0,0.3,0.1,0.3,0.3
			c0,0.2-0.1,0.3-0.3,0.3c0,0,0,0-0.1,0v19.5c0,0,0,0,0.1,0c0.2,0,0.3,0.1,0.3,0.3c0,0.2-0.1,0.3-0.3,0.3c0,0,0,0-0.1,0v19.5
			c0,0,0,0,0.1,0c0.2,0,0.3,0.1,0.3,0.3c0,0.2-0.1,0.3-0.3,0.3c0,0,0,0-0.1,0v20h20.2c0-0.1,0.1-0.2,0.3-0.2c0.1,0,0.2,0.1,0.3,0.2
			h19.6c0-0.1,0.1-0.2,0.3-0.2s0.2,0.1,0.3,0.2h19.6c0-0.1,0.1-0.2,0.3-0.2s0.2,0.1,0.3,0.2h19.6c0-0.1,0.1-0.2,0.3-0.2
			s0.2,0.1,0.3,0.2h19.6c0-0.1,0.1-0.2,0.3-0.2s0.2,0.1,0.3,0.2h19.6c0-0.1,0.1-0.2,0.3-0.2s0.2,0.1,0.3,0.2h19.8v-20.1
			c0-0.1-0.1-0.1-0.1-0.2c0-0.1,0-0.1,0.1-0.2v-19.8c0-0.1-0.1-0.1-0.1-0.2c0-0.1,0-0.1,0.1-0.2v-19.8c0-0.1-0.1-0.1-0.1-0.2
			c0-0.1,0-0.1,0.1-0.2v-19.8c0-0.1-0.1-0.1-0.1-0.2c0-0.1,0-0.1,0.1-0.2v-19.8c0-0.1-0.1-0.1-0.1-0.2c0-0.1,0-0.1,0.1-0.2v-19.8
			c0-0.1-0.1-0.1-0.1-0.2c0-0.1,0-0.1,0.1-0.2L-52.7,356.8L-52.7,356.8z M-61.1,376.7c0.2,0,0.3,0.1,0.3,0.3c0,0.2-0.1,0.3-0.3,0.3
			c-0.2,0-0.3-0.1-0.3-0.3C-61.4,376.9-61.3,376.7-61.1,376.7z M-61.1,396.9c0.2,0,0.3,0.1,0.3,0.3c0,0.2-0.1,0.3-0.3,0.3
			c-0.2,0-0.3-0.1-0.3-0.3C-61.4,397-61.3,396.9-61.1,396.9z M-61.1,417c0.2,0,0.3,0.1,0.3,0.3c0,0.2-0.1,0.3-0.3,0.3
			c-0.2,0-0.3-0.1-0.3-0.3C-61.4,417.1-61.3,417-61.1,417z M-64,376.7c0.2,0,0.3,0.1,0.3,0.3c0,0.2-0.1,0.3-0.3,0.3
			s-0.3-0.1-0.3-0.3C-64.3,376.9-64.2,376.7-64,376.7z M-64,396.9c0.2,0,0.3,0.1,0.3,0.3c0,0.2-0.1,0.3-0.3,0.3s-0.3-0.1-0.3-0.3
			C-64.3,397-64.2,396.9-64,396.9z M-64,417c0.2,0,0.3,0.1,0.3,0.3c0,0.2-0.1,0.3-0.3,0.3s-0.3-0.1-0.3-0.3
			C-64.3,417.1-64.2,417-64,417z M-66.9,376.7c0.2,0,0.3,0.1,0.3,0.3c0,0.2-0.1,0.3-0.3,0.3s-0.3-0.1-0.3-0.3
			C-67.2,376.9-67,376.7-66.9,376.7z M-66.9,396.9c0.2,0,0.3,0.1,0.3,0.3c0,0.2-0.1,0.3-0.3,0.3s-0.3-0.1-0.3-0.3
			C-67.2,397-67,396.9-66.9,396.9z M-66.9,417c0.2,0,0.3,0.1,0.3,0.3c0,0.2-0.1,0.3-0.3,0.3s-0.3-0.1-0.3-0.3
			C-67.2,417.1-67,417-66.9,417z M-69.8,376.7c0.2,0,0.3,0.1,0.3,0.3c0,0.2-0.1,0.3-0.3,0.3c-0.2,0-0.3-0.1-0.3-0.3
			C-70.1,376.9-69.9,376.7-69.8,376.7z M-69.8,396.9c0.2,0,0.3,0.1,0.3,0.3c0,0.2-0.1,0.3-0.3,0.3c-0.2,0-0.3-0.1-0.3-0.3
			C-70.1,397-69.9,396.9-69.8,396.9z M-69.8,417c0.2,0,0.3,0.1,0.3,0.3c0,0.2-0.1,0.3-0.3,0.3c-0.2,0-0.3-0.1-0.3-0.3
			C-70.1,417.1-69.9,417-69.8,417z M-72.8,359.3c0.2,0,0.3,0.1,0.3,0.3c0,0.2-0.1,0.3-0.3,0.3s-0.3-0.1-0.3-0.3
			C-73.1,359.4-73,359.3-72.8,359.3z M-72.8,362.1c0.2,0,0.3,0.1,0.3,0.3c0,0.2-0.1,0.3-0.3,0.3s-0.3-0.1-0.3-0.3
			C-73.1,362.3-73,362.1-72.8,362.1z M-72.8,365c0.2,0,0.3,0.1,0.3,0.3c0,0.2-0.1,0.3-0.3,0.3s-0.3-0.1-0.3-0.3
			C-73.1,365.2-73,365-72.8,365z M-72.8,367.9c0.2,0,0.3,0.1,0.3,0.3c0,0.2-0.1,0.3-0.3,0.3s-0.3-0.1-0.3-0.3
			C-73.1,368.1-73,367.9-72.8,367.9z M-72.8,370.8c0.2,0,0.3,0.1,0.3,0.3c0,0.2-0.1,0.3-0.3,0.3s-0.3-0.1-0.3-0.3
			C-73.1,370.9-73,370.8-72.8,370.8z M-72.8,373.7c0.2,0,0.3,0.1,0.3,0.3c0,0.2-0.1,0.3-0.3,0.3s-0.3-0.1-0.3-0.3
			C-73.1,373.8-73,373.7-72.8,373.7z M-72.8,376.6c0.1,0,0.2,0.1,0.3,0.2c0.1,0,0.2,0.1,0.2,0.3c0,0.2-0.1,0.3-0.3,0.3
			c-0.1,0-0.2-0.1-0.3-0.2c-0.1,0-0.2-0.1-0.2-0.3C-73.1,376.7-73,376.6-72.8,376.6z M-72.8,379.4c0.2,0,0.3,0.1,0.3,0.3
			c0,0.2-0.1,0.3-0.3,0.3s-0.3-0.1-0.3-0.3C-73.1,379.6-73,379.4-72.8,379.4z M-72.8,382.3c0.2,0,0.3,0.1,0.3,0.3
			c0,0.2-0.1,0.3-0.3,0.3s-0.3-0.1-0.3-0.3C-73.1,382.5-73,382.3-72.8,382.3z M-72.8,385.2c0.2,0,0.3,0.1,0.3,0.3
			c0,0.2-0.1,0.3-0.3,0.3s-0.3-0.1-0.3-0.3C-73.1,385.4-73,385.2-72.8,385.2z M-72.8,388.1c0.2,0,0.3,0.1,0.3,0.3s-0.1,0.3-0.3,0.3
			s-0.3-0.1-0.3-0.3C-73.1,388.2-73,388.1-72.8,388.1z M-72.8,391c0.2,0,0.3,0.1,0.3,0.3c0,0.2-0.1,0.3-0.3,0.3s-0.3-0.1-0.3-0.3
			C-73.1,391.1-73,391-72.8,391z M-72.8,393.9c0.2,0,0.3,0.1,0.3,0.3c0,0.2-0.1,0.3-0.3,0.3s-0.3-0.1-0.3-0.3
			C-73.1,394-73,393.9-72.8,393.9z M-72.8,396.7c0.1,0,0.2,0.1,0.2,0.1c0.1,0,0.3,0.1,0.3,0.3c0,0.2-0.1,0.3-0.3,0.3
			c-0.1,0-0.2-0.1-0.2-0.1c-0.1,0-0.3-0.1-0.3-0.3C-73.1,396.9-73,396.7-72.8,396.7z M-72.8,399.6c0.2,0,0.3,0.1,0.3,0.3
			c0,0.2-0.1,0.3-0.3,0.3s-0.3-0.1-0.3-0.3C-73.1,399.8-73,399.6-72.8,399.6z M-72.8,402.5c0.2,0,0.3,0.1,0.3,0.3
			c0,0.2-0.1,0.3-0.3,0.3s-0.3-0.1-0.3-0.3C-73.1,402.7-73,402.5-72.8,402.5z M-72.8,405.4c0.2,0,0.3,0.1,0.3,0.3
			c0,0.2-0.1,0.3-0.3,0.3s-0.3-0.1-0.3-0.3C-73.1,405.5-73,405.4-72.8,405.4z M-72.8,408.3c0.2,0,0.3,0.1,0.3,0.3
			c0,0.2-0.1,0.3-0.3,0.3s-0.3-0.1-0.3-0.3C-73.1,408.4-73,408.3-72.8,408.3z M-72.8,411.2c0.2,0,0.3,0.1,0.3,0.3
			c0,0.2-0.1,0.3-0.3,0.3s-0.3-0.1-0.3-0.3C-73.1,411.3-73,411.2-72.8,411.2z M-72.8,414c0.2,0,0.3,0.1,0.3,0.3
			c0,0.2-0.1,0.3-0.3,0.3s-0.3-0.1-0.3-0.3C-73.1,414.2-73,414-72.8,414z M-72.8,416.9c0.1,0,0.1,0,0.1,0.1c0,0,0,0,0,0
			c0.2,0,0.3,0.1,0.3,0.3c0,0.2-0.1,0.3-0.3,0.3c-0.1,0-0.1,0-0.1-0.1c0,0,0,0,0,0c-0.2,0-0.3-0.1-0.3-0.3
			C-73.1,417.1-73,416.9-72.8,416.9z M-75.5,376.7c0.2,0,0.3,0.1,0.3,0.3c0,0.2-0.1,0.3-0.3,0.3c-0.2,0-0.3-0.1-0.3-0.3
			C-75.8,376.9-75.7,376.7-75.5,376.7z M-75.5,396.9c0.2,0,0.3,0.1,0.3,0.3c0,0.2-0.1,0.3-0.3,0.3c-0.2,0-0.3-0.1-0.3-0.3
			C-75.8,397-75.7,396.9-75.5,396.9z M-75.5,417c0.2,0,0.3,0.1,0.3,0.3c0,0.2-0.1,0.3-0.3,0.3c-0.2,0-0.3-0.1-0.3-0.3
			C-75.8,417.1-75.7,417-75.5,417z M-78.4,376.7c0.2,0,0.3,0.1,0.3,0.3c0,0.2-0.1,0.3-0.3,0.3s-0.3-0.1-0.3-0.3
			C-78.7,376.9-78.6,376.7-78.4,376.7z M-78.4,396.9c0.2,0,0.3,0.1,0.3,0.3c0,0.2-0.1,0.3-0.3,0.3s-0.3-0.1-0.3-0.3
			C-78.7,397-78.6,396.9-78.4,396.9z M-78.4,417c0.2,0,0.3,0.1,0.3,0.3c0,0.2-0.1,0.3-0.3,0.3s-0.3-0.1-0.3-0.3
			C-78.7,417.1-78.6,417-78.4,417z M-81.3,376.7c0.2,0,0.3,0.1,0.3,0.3c0,0.2-0.1,0.3-0.3,0.3c-0.2,0-0.3-0.1-0.3-0.3
			C-81.6,376.9-81.5,376.7-81.3,376.7z M-81.3,396.9c0.2,0,0.3,0.1,0.3,0.3c0,0.2-0.1,0.3-0.3,0.3c-0.2,0-0.3-0.1-0.3-0.3
			C-81.6,397-81.5,396.9-81.3,396.9z M-81.3,417c0.2,0,0.3,0.1,0.3,0.3c0,0.2-0.1,0.3-0.3,0.3c-0.2,0-0.3-0.1-0.3-0.3
			C-81.6,417.1-81.5,417-81.3,417z M-84.2,376.7c0.2,0,0.3,0.1,0.3,0.3c0,0.2-0.1,0.3-0.3,0.3c-0.2,0-0.3-0.1-0.3-0.3
			C-84.5,376.9-84.3,376.7-84.2,376.7z M-84.2,396.9c0.2,0,0.3,0.1,0.3,0.3c0,0.2-0.1,0.3-0.3,0.3c-0.2,0-0.3-0.1-0.3-0.3
			C-84.5,397-84.3,396.9-84.2,396.9z M-83.8,417.3c0,0.2-0.1,0.3-0.3,0.3c-0.2,0-0.3-0.1-0.3-0.3c0-0.2,0.1-0.3,0.3-0.3
			C-84,417-83.8,417.1-83.8,417.3z M-87,376.7c0.2,0,0.3,0.1,0.3,0.3c0,0.2-0.1,0.3-0.3,0.3c-0.2,0-0.3-0.1-0.3-0.3
			C-87.4,376.9-87.2,376.7-87,376.7z M-89.9,376.7c0.2,0,0.3,0.1,0.3,0.3c0,0.2-0.1,0.3-0.3,0.3c-0.2,0-0.3-0.1-0.3-0.3
			C-90.3,376.9-90.1,376.7-89.9,376.7z M-92.9,359.3c0.2,0,0.3,0.1,0.3,0.3c0,0.2-0.1,0.3-0.3,0.3s-0.3-0.1-0.3-0.3
			C-93.3,359.4-93.1,359.3-92.9,359.3z M-92.9,362.1c0.2,0,0.3,0.1,0.3,0.3c0,0.2-0.1,0.3-0.3,0.3s-0.3-0.1-0.3-0.3
			C-93.3,362.3-93.1,362.1-92.9,362.1z M-92.9,365c0.2,0,0.3,0.1,0.3,0.3c0,0.2-0.1,0.3-0.3,0.3s-0.3-0.1-0.3-0.3
			C-93.3,365.2-93.1,365-92.9,365z M-92.9,367.9c0.2,0,0.3,0.1,0.3,0.3c0,0.2-0.1,0.3-0.3,0.3s-0.3-0.1-0.3-0.3
			C-93.3,368.1-93.1,367.9-92.9,367.9z M-92.9,370.8c0.2,0,0.3,0.1,0.3,0.3c0,0.2-0.1,0.3-0.3,0.3s-0.3-0.1-0.3-0.3
			C-93.3,370.9-93.1,370.8-92.9,370.8z M-92.9,373.7c0.2,0,0.3,0.1,0.3,0.3c0,0.2-0.1,0.3-0.3,0.3s-0.3-0.1-0.3-0.3
			C-93.3,373.8-93.1,373.7-92.9,373.7z M-92.9,376.6c0.2,0,0.3,0.1,0.3,0.3c0.1,0.1,0.1,0.1,0.1,0.2c0,0.2-0.1,0.3-0.3,0.3
			c-0.2,0-0.3-0.1-0.3-0.3c-0.1-0.1-0.1-0.1-0.1-0.2C-93.3,376.7-93.1,376.6-92.9,376.6z M-92.9,379.4c0.2,0,0.3,0.1,0.3,0.3
			c0,0.2-0.1,0.3-0.3,0.3s-0.3-0.1-0.3-0.3C-93.3,379.6-93.1,379.4-92.9,379.4z M-92.9,382.3c0.2,0,0.3,0.1,0.3,0.3
			c0,0.2-0.1,0.3-0.3,0.3s-0.3-0.1-0.3-0.3C-93.3,382.5-93.1,382.3-92.9,382.3z M-92.9,385.2c0.2,0,0.3,0.1,0.3,0.3
			c0,0.2-0.1,0.3-0.3,0.3s-0.3-0.1-0.3-0.3C-93.3,385.4-93.1,385.2-92.9,385.2z M-95.7,376.7c0.2,0,0.3,0.1,0.3,0.3
			c0,0.2-0.1,0.3-0.3,0.3s-0.3-0.1-0.3-0.3C-96,376.9-95.9,376.7-95.7,376.7z M-98.6,376.7c0.2,0,0.3,0.1,0.3,0.3
			c0,0.2-0.1,0.3-0.3,0.3c-0.2,0-0.3-0.1-0.3-0.3C-98.9,376.9-98.8,376.7-98.6,376.7z M-98.6,396.9c0.2,0,0.3,0.1,0.3,0.3
			c0,0.2-0.1,0.3-0.3,0.3c-0.2,0-0.3-0.1-0.3-0.3C-98.9,397-98.8,396.9-98.6,396.9z M-98.6,417c0.2,0,0.3,0.1,0.3,0.3
			c0,0.2-0.1,0.3-0.3,0.3c-0.2,0-0.3-0.1-0.3-0.3C-98.9,417.1-98.8,417-98.6,417z M-101.5,376.7c0.2,0,0.3,0.1,0.3,0.3
			c0,0.2-0.1,0.3-0.3,0.3c-0.2,0-0.3-0.1-0.3-0.3C-101.8,376.9-101.6,376.7-101.5,376.7z M-101.5,396.9c0.2,0,0.3,0.1,0.3,0.3
			c0,0.2-0.1,0.3-0.3,0.3c-0.2,0-0.3-0.1-0.3-0.3C-101.8,397-101.6,396.9-101.5,396.9z M-101.5,417c0.2,0,0.3,0.1,0.3,0.3
			c0,0.2-0.1,0.3-0.3,0.3c-0.2,0-0.3-0.1-0.3-0.3C-101.8,417.1-101.6,417-101.5,417z M-104.3,376.7c0.2,0,0.3,0.1,0.3,0.3
			c0,0.2-0.1,0.3-0.3,0.3c-0.2,0-0.3-0.1-0.3-0.3C-104.7,376.9-104.5,376.7-104.3,376.7z M-104.3,396.9c0.2,0,0.3,0.1,0.3,0.3
			c0,0.2-0.1,0.3-0.3,0.3c-0.2,0-0.3-0.1-0.3-0.3C-104.7,397-104.5,396.9-104.3,396.9z M-104.3,417c0.2,0,0.3,0.1,0.3,0.3
			c0,0.2-0.1,0.3-0.3,0.3c-0.2,0-0.3-0.1-0.3-0.3C-104.7,417.1-104.5,417-104.3,417z M-107.2,376.7c0.2,0,0.3,0.1,0.3,0.3
			c0,0.2-0.1,0.3-0.3,0.3c-0.2,0-0.3-0.1-0.3-0.3C-107.6,376.9-107.4,376.7-107.2,376.7z M-107.2,396.9c0.2,0,0.3,0.1,0.3,0.3
			c0,0.2-0.1,0.3-0.3,0.3c-0.2,0-0.3-0.1-0.3-0.3C-107.6,397-107.4,396.9-107.2,396.9z M-107.2,417c0.2,0,0.3,0.1,0.3,0.3
			c0,0.2-0.1,0.3-0.3,0.3c-0.2,0-0.3-0.1-0.3-0.3C-107.6,417.1-107.4,417-107.2,417z M-110.1,376.7c0.2,0,0.3,0.1,0.3,0.3
			c0,0.2-0.1,0.3-0.3,0.3s-0.3-0.1-0.3-0.3C-110.4,376.9-110.3,376.7-110.1,376.7z M-110.1,396.9c0.2,0,0.3,0.1,0.3,0.3
			c0,0.2-0.1,0.3-0.3,0.3s-0.3-0.1-0.3-0.3C-110.4,397-110.3,396.9-110.1,396.9z M-110.1,417c0.2,0,0.3,0.1,0.3,0.3
			c0,0.2-0.1,0.3-0.3,0.3s-0.3-0.1-0.3-0.3C-110.4,417.1-110.3,417-110.1,417z M-113,359.3c0.2,0,0.3,0.1,0.3,0.3
			c0,0.2-0.1,0.3-0.3,0.3s-0.3-0.1-0.3-0.3C-113.4,359.4-113.2,359.3-113,359.3z M-113,362.1c0.2,0,0.3,0.1,0.3,0.3
			c0,0.2-0.1,0.3-0.3,0.3s-0.3-0.1-0.3-0.3C-113.4,362.3-113.2,362.1-113,362.1z M-113,365c0.2,0,0.3,0.1,0.3,0.3
			c0,0.2-0.1,0.3-0.3,0.3s-0.3-0.1-0.3-0.3C-113.4,365.2-113.2,365-113,365z M-113,367.9c0.2,0,0.3,0.1,0.3,0.3
			c0,0.2-0.1,0.3-0.3,0.3s-0.3-0.1-0.3-0.3C-113.4,368.1-113.2,367.9-113,367.9z M-113,370.8c0.2,0,0.3,0.1,0.3,0.3
			c0,0.2-0.1,0.3-0.3,0.3s-0.3-0.1-0.3-0.3C-113.4,370.9-113.2,370.8-113,370.8z M-113,373.7c0.2,0,0.3,0.1,0.3,0.3
			c0,0.2-0.1,0.3-0.3,0.3s-0.3-0.1-0.3-0.3C-113.4,373.8-113.2,373.7-113,373.7z M-113,376.6c0.2,0,0.3,0.1,0.3,0.3c0,0,0,0,0,0
			c0,0,0.1,0.1,0.1,0.1c0,0.2-0.1,0.3-0.3,0.3c-0.2,0-0.3-0.1-0.3-0.3c0,0,0,0,0,0c0,0-0.1-0.1-0.1-0.1
			C-113.4,376.7-113.2,376.6-113,376.6z M-113,379.4c0.2,0,0.3,0.1,0.3,0.3c0,0.2-0.1,0.3-0.3,0.3s-0.3-0.1-0.3-0.3
			C-113.4,379.6-113.2,379.4-113,379.4z M-113,382.3c0.2,0,0.3,0.1,0.3,0.3c0,0.2-0.1,0.3-0.3,0.3s-0.3-0.1-0.3-0.3
			C-113.4,382.5-113.2,382.3-113,382.3z M-113,385.2c0.2,0,0.3,0.1,0.3,0.3c0,0.2-0.1,0.3-0.3,0.3s-0.3-0.1-0.3-0.3
			C-113.4,385.4-113.2,385.2-113,385.2z M-113,388.1c0.2,0,0.3,0.1,0.3,0.3s-0.1,0.3-0.3,0.3s-0.3-0.1-0.3-0.3
			C-113.4,388.2-113.2,388.1-113,388.1z M-113,391c0.2,0,0.3,0.1,0.3,0.3c0,0.2-0.1,0.3-0.3,0.3s-0.3-0.1-0.3-0.3
			C-113.4,391.1-113.2,391-113,391z M-113,393.9c0.2,0,0.3,0.1,0.3,0.3c0,0.2-0.1,0.3-0.3,0.3s-0.3-0.1-0.3-0.3
			C-113.4,394-113.2,393.9-113,393.9z M-113,396.7c0.2,0,0.3,0.1,0.3,0.3c0,0,0,0,0,0c0,0,0,0.1,0,0.1c0,0.2-0.1,0.3-0.3,0.3
			c-0.2,0-0.3-0.1-0.3-0.3c0,0,0,0,0,0c0,0,0-0.1,0-0.1C-113.4,396.9-113.2,396.7-113,396.7z M-113,399.6c0.2,0,0.3,0.1,0.3,0.3
			c0,0.2-0.1,0.3-0.3,0.3s-0.3-0.1-0.3-0.3C-113.4,399.8-113.2,399.6-113,399.6z M-113,402.5c0.2,0,0.3,0.1,0.3,0.3
			c0,0.2-0.1,0.3-0.3,0.3s-0.3-0.1-0.3-0.3C-113.4,402.7-113.2,402.5-113,402.5z M-113,405.4c0.2,0,0.3,0.1,0.3,0.3
			c0,0.2-0.1,0.3-0.3,0.3s-0.3-0.1-0.3-0.3C-113.4,405.5-113.2,405.4-113,405.4z M-113,408.3c0.2,0,0.3,0.1,0.3,0.3
			c0,0.2-0.1,0.3-0.3,0.3s-0.3-0.1-0.3-0.3C-113.4,408.4-113.2,408.3-113,408.3z M-113,411.2c0.2,0,0.3,0.1,0.3,0.3
			c0,0.2-0.1,0.3-0.3,0.3s-0.3-0.1-0.3-0.3C-113.4,411.3-113.2,411.2-113,411.2z M-113,414c0.2,0,0.3,0.1,0.3,0.3
			c0,0.2-0.1,0.3-0.3,0.3s-0.3-0.1-0.3-0.3C-113.4,414.2-113.2,414-113,414z M-113,416.9c0.1,0,0.2,0,0.2,0.1
			c0.1,0.1,0.1,0.1,0.1,0.2c0,0.2-0.1,0.3-0.3,0.3c-0.1,0-0.2,0-0.2-0.1c-0.1-0.1-0.1-0.1-0.1-0.2
			C-113.4,417.1-113.2,416.9-113,416.9z M-113,419.8c0.2,0,0.3,0.1,0.3,0.3c0,0.2-0.1,0.3-0.3,0.3s-0.3-0.1-0.3-0.3
			C-113.4,420-113.2,419.8-113,419.8z M-113,422.7c0.2,0,0.3,0.1,0.3,0.3c0,0.2-0.1,0.3-0.3,0.3s-0.3-0.1-0.3-0.3
			C-113.4,422.8-113.2,422.7-113,422.7z M-115.9,376.7c0.2,0,0.3,0.1,0.3,0.3c0,0.2-0.1,0.3-0.3,0.3c-0.2,0-0.3-0.1-0.3-0.3
			C-116.2,376.9-116.1,376.7-115.9,376.7z M-115.9,396.9c0.2,0,0.3,0.1,0.3,0.3c0,0.2-0.1,0.3-0.3,0.3c-0.2,0-0.3-0.1-0.3-0.3
			C-116.2,397-116.1,396.9-115.9,396.9z M-115.9,417c0.2,0,0.3,0.1,0.3,0.3c0,0.2-0.1,0.3-0.3,0.3c-0.2,0-0.3-0.1-0.3-0.3
			C-116.2,417.1-116.1,417-115.9,417z M-118.8,376.7c0.2,0,0.3,0.1,0.3,0.3c0,0.2-0.1,0.3-0.3,0.3s-0.3-0.1-0.3-0.3
			C-119.1,376.9-118.9,376.7-118.8,376.7z M-118.8,396.9c0.2,0,0.3,0.1,0.3,0.3c0,0.2-0.1,0.3-0.3,0.3s-0.3-0.1-0.3-0.3
			C-119.1,397-118.9,396.9-118.8,396.9z M-118.8,417c0.2,0,0.3,0.1,0.3,0.3c0,0.2-0.1,0.3-0.3,0.3s-0.3-0.1-0.3-0.3
			C-119.1,417.1-118.9,417-118.8,417z M-121.6,376.7c0.2,0,0.3,0.1,0.3,0.3c0,0.2-0.1,0.3-0.3,0.3c-0.2,0-0.3-0.1-0.3-0.3
			C-122,376.9-121.8,376.7-121.6,376.7z M-121.6,396.9c0.2,0,0.3,0.1,0.3,0.3c0,0.2-0.1,0.3-0.3,0.3c-0.2,0-0.3-0.1-0.3-0.3
			C-122,397-121.8,396.9-121.6,396.9z M-121.6,417c0.2,0,0.3,0.1,0.3,0.3c0,0.2-0.1,0.3-0.3,0.3c-0.2,0-0.3-0.1-0.3-0.3
			C-122,417.1-121.8,417-121.6,417z M-124.5,376.7c0.2,0,0.3,0.1,0.3,0.3c0,0.2-0.1,0.3-0.3,0.3s-0.3-0.1-0.3-0.3
			C-124.9,376.9-124.7,376.7-124.5,376.7z M-124.5,396.9c0.2,0,0.3,0.1,0.3,0.3c0,0.2-0.1,0.3-0.3,0.3s-0.3-0.1-0.3-0.3
			C-124.9,397-124.7,396.9-124.5,396.9z M-124.5,417c0.2,0,0.3,0.1,0.3,0.3c0,0.2-0.1,0.3-0.3,0.3s-0.3-0.1-0.3-0.3
			C-124.9,417.1-124.7,417-124.5,417z M-127.4,376.7c0.2,0,0.3,0.1,0.3,0.3c0,0.2-0.1,0.3-0.3,0.3s-0.3-0.1-0.3-0.3
			C-127.7,376.9-127.6,376.7-127.4,376.7z M-127.4,396.9c0.2,0,0.3,0.1,0.3,0.3c0,0.2-0.1,0.3-0.3,0.3s-0.3-0.1-0.3-0.3
			C-127.7,397-127.6,396.9-127.4,396.9z M-127.4,417c0.2,0,0.3,0.1,0.3,0.3c0,0.2-0.1,0.3-0.3,0.3s-0.3-0.1-0.3-0.3
			C-127.7,417.1-127.6,417-127.4,417z M-130.3,376.7c0.2,0,0.3,0.1,0.3,0.3c0,0.2-0.1,0.3-0.3,0.3s-0.3-0.1-0.3-0.3
			C-130.6,376.9-130.5,376.7-130.3,376.7z M-130.3,396.9c0.2,0,0.3,0.1,0.3,0.3c0,0.2-0.1,0.3-0.3,0.3s-0.3-0.1-0.3-0.3
			C-130.6,397-130.5,396.9-130.3,396.9z M-130.3,417c0.2,0,0.3,0.1,0.3,0.3c0,0.2-0.1,0.3-0.3,0.3s-0.3-0.1-0.3-0.3
			C-130.6,417.1-130.5,417-130.3,417z M-133.1,359.3c0.2,0,0.3,0.1,0.3,0.3c0,0.2-0.1,0.3-0.3,0.3s-0.3-0.1-0.3-0.3
			C-133.5,359.4-133.3,359.3-133.1,359.3z M-133.1,362.1c0.2,0,0.3,0.1,0.3,0.3c0,0.2-0.1,0.3-0.3,0.3s-0.3-0.1-0.3-0.3
			C-133.5,362.3-133.3,362.1-133.1,362.1z M-133.1,365c0.2,0,0.3,0.1,0.3,0.3c0,0.2-0.1,0.3-0.3,0.3s-0.3-0.1-0.3-0.3
			C-133.5,365.2-133.3,365-133.1,365z M-133.1,367.9c0.2,0,0.3,0.1,0.3,0.3c0,0.2-0.1,0.3-0.3,0.3s-0.3-0.1-0.3-0.3
			C-133.5,368.1-133.3,367.9-133.1,367.9z M-133.1,370.8c0.2,0,0.3,0.1,0.3,0.3c0,0.2-0.1,0.3-0.3,0.3s-0.3-0.1-0.3-0.3
			C-133.5,370.9-133.3,370.8-133.1,370.8z M-133.1,373.7c0.2,0,0.3,0.1,0.3,0.3c0,0.2-0.1,0.3-0.3,0.3c-0.2,0-0.3-0.1-0.3-0.3
			C-133.5,373.8-133.3,373.7-133.1,373.7z M-133.5,376.9c0-0.2,0.1-0.3,0.3-0.3s0.3,0.1,0.3,0.3c0,0.1,0,0.1-0.1,0.1c0,0,0,0,0,0
			c0,0.2-0.1,0.3-0.3,0.3c-0.2,0-0.3-0.1-0.3-0.3C-133.5,377-133.5,377-133.5,376.9C-133.5,376.9-133.5,376.9-133.5,376.9z
			 M-133.1,391.6c-0.2,0-0.3-0.1-0.3-0.3c0-0.2,0.1-0.3,0.3-0.3s0.3,0.1,0.3,0.3C-132.8,391.5-133,391.6-133.1,391.6z M-132.8,394.2
			c0,0.2-0.1,0.3-0.3,0.3s-0.3-0.1-0.3-0.3c0-0.2,0.1-0.3,0.3-0.3S-132.8,394-132.8,394.2z M-133.1,388.7c-0.2,0-0.3-0.1-0.3-0.3
			s0.1-0.3,0.3-0.3s0.3,0.1,0.3,0.3C-132.8,388.6-133,388.7-133.1,388.7z M-133.1,385.9c-0.2,0-0.3-0.1-0.3-0.3
			c0-0.2,0.1-0.3,0.3-0.3s0.3,0.1,0.3,0.3C-132.8,385.7-133,385.9-133.1,385.9z M-133.1,383c-0.2,0-0.3-0.1-0.3-0.3
			c0-0.2,0.1-0.3,0.3-0.3s0.3,0.1,0.3,0.3C-132.8,382.8-133,383-133.1,383z M-133.1,380.1c-0.2,0-0.3-0.1-0.3-0.3
			c0-0.2,0.1-0.3,0.3-0.3s0.3,0.1,0.3,0.3C-132.8,380-133,380.1-133.1,380.1z M-133.5,397.1C-133.5,397.1-133.5,397.1-133.5,397.1
			c0-0.2,0.1-0.3,0.3-0.3s0.3,0.1,0.3,0.3c0,0,0,0.1,0,0.1c0,0,0,0,0,0c0,0.2-0.1,0.3-0.3,0.3S-133.5,397.4-133.5,397.1
			C-133.5,397.1-133.5,397.1-133.5,397.1z M-133.1,411.8c-0.2,0-0.3-0.1-0.3-0.3c0-0.2,0.1-0.3,0.3-0.3s0.3,0.1,0.3,0.3
			C-132.8,411.7-133,411.8-133.1,411.8z M-132.8,414.4c0,0.2-0.1,0.3-0.3,0.3s-0.3-0.1-0.3-0.3c0-0.2,0.1-0.3,0.3-0.3
			S-132.8,414.2-132.8,414.4z M-133.1,408.9c-0.2,0-0.3-0.1-0.3-0.3c0-0.2,0.1-0.3,0.3-0.3s0.3,0.1,0.3,0.3
			C-132.8,408.8-133,408.9-133.1,408.9z M-133.1,406c-0.2,0-0.3-0.1-0.3-0.3c0-0.2,0.1-0.3,0.3-0.3s0.3,0.1,0.3,0.3
			C-132.8,405.9-133,406-133.1,406z M-133.1,403.2c-0.2,0-0.3-0.1-0.3-0.3c0-0.2,0.1-0.3,0.3-0.3s0.3,0.1,0.3,0.3
			C-132.8,403-133,403.2-133.1,403.2z M-133.1,400.3c-0.2,0-0.3-0.1-0.3-0.3s0.1-0.3,0.3-0.3s0.3,0.1,0.3,0.3
			C-132.8,400.1-133,400.3-133.1,400.3z M-136.1,376.7c0.2,0,0.3,0.1,0.3,0.3c0,0.2-0.1,0.3-0.3,0.3s-0.3-0.1-0.3-0.3
			C-136.4,376.9-136.2,376.7-136.1,376.7z M-136.1,396.9c0.2,0,0.3,0.1,0.3,0.3c0,0.2-0.1,0.3-0.3,0.3s-0.3-0.1-0.3-0.3
			C-136.4,397-136.2,396.9-136.1,396.9z M-138.9,376.7c0.2,0,0.3,0.1,0.3,0.3c0,0.2-0.1,0.3-0.3,0.3s-0.3-0.1-0.3-0.3
			C-139.3,376.9-139.1,376.7-138.9,376.7z M-138.9,396.9c0.2,0,0.3,0.1,0.3,0.3c0,0.2-0.1,0.3-0.3,0.3s-0.3-0.1-0.3-0.3
			C-139.3,397-139.1,396.9-138.9,396.9z M-141.8,376.7c0.2,0,0.3,0.1,0.3,0.3c0,0.2-0.1,0.3-0.3,0.3c-0.2,0-0.3-0.1-0.3-0.3
			C-142.2,376.9-142,376.7-141.8,376.7z M-141.8,396.9c0.2,0,0.3,0.1,0.3,0.3c0,0.2-0.1,0.3-0.3,0.3c-0.2,0-0.3-0.1-0.3-0.3
			C-142.2,397-142,396.9-141.8,396.9z M-144.7,376.7c0.2,0,0.3,0.1,0.3,0.3c0,0.2-0.1,0.3-0.3,0.3c-0.2,0-0.3-0.1-0.3-0.3
			C-145,376.9-144.9,376.7-144.7,376.7z M-144.7,396.9c0.2,0,0.3,0.1,0.3,0.3c0,0.2-0.1,0.3-0.3,0.3c-0.2,0-0.3-0.1-0.3-0.3
			C-145,397-144.9,396.9-144.7,396.9z M-147.6,376.7c0.2,0,0.3,0.1,0.3,0.3c0,0.2-0.1,0.3-0.3,0.3c-0.2,0-0.3-0.1-0.3-0.3
			C-147.9,376.9-147.8,376.7-147.6,376.7z M-150.5,376.7c0.2,0,0.3,0.1,0.3,0.3c0,0.2-0.1,0.3-0.3,0.3c-0.2,0-0.3-0.1-0.3-0.3
			C-150.8,376.9-150.7,376.7-150.5,376.7z M-153.2,359.3c0.2,0,0.3,0.1,0.3,0.3c0,0.2-0.1,0.3-0.3,0.3s-0.3-0.1-0.3-0.3
			C-153.6,359.4-153.4,359.3-153.2,359.3z M-153.2,362.1c0.2,0,0.3,0.1,0.3,0.3c0,0.2-0.1,0.3-0.3,0.3s-0.3-0.1-0.3-0.3
			C-153.6,362.3-153.4,362.1-153.2,362.1z M-153.2,365c0.2,0,0.3,0.1,0.3,0.3c0,0.2-0.1,0.3-0.3,0.3s-0.3-0.1-0.3-0.3
			C-153.6,365.2-153.4,365-153.2,365z M-153.2,367.9c0.2,0,0.3,0.1,0.3,0.3c0,0.2-0.1,0.3-0.3,0.3s-0.3-0.1-0.3-0.3
			C-153.6,368.1-153.4,367.9-153.2,367.9z M-153.2,370.8c0.2,0,0.3,0.1,0.3,0.3c0,0.2-0.1,0.3-0.3,0.3s-0.3-0.1-0.3-0.3
			C-153.6,370.9-153.4,370.8-153.2,370.8z M-153.2,373.7c0.2,0,0.3,0.1,0.3,0.3c0,0.2-0.1,0.3-0.3,0.3s-0.3-0.1-0.3-0.3
			C-153.6,373.8-153.4,373.7-153.2,373.7z M-153.5,376.8c0-0.1,0.1-0.3,0.3-0.3c0.2,0,0.3,0.1,0.3,0.3c0,0.1-0.1,0.2-0.1,0.2
			c0,0.1-0.1,0.3-0.3,0.3c-0.2,0-0.3-0.1-0.3-0.3C-153.7,377-153.6,376.9-153.5,376.8z M-153.2,391.6c-0.2,0-0.3-0.1-0.3-0.3
			c0-0.2,0.1-0.3,0.3-0.3s0.3,0.1,0.3,0.3C-152.9,391.5-153.1,391.6-153.2,391.6z M-152.9,394.2c0,0.2-0.1,0.3-0.3,0.3
			s-0.3-0.1-0.3-0.3c0-0.2,0.1-0.3,0.3-0.3S-152.9,394-152.9,394.2z M-153.2,388.7c-0.2,0-0.3-0.1-0.3-0.3s0.1-0.3,0.3-0.3
			s0.3,0.1,0.3,0.3S-153.1,388.7-153.2,388.7z M-153.2,385.9c-0.2,0-0.3-0.1-0.3-0.3c0-0.2,0.1-0.3,0.3-0.3s0.3,0.1,0.3,0.3
			C-152.9,385.7-153.1,385.9-153.2,385.9z M-153.2,383c-0.2,0-0.3-0.1-0.3-0.3c0-0.2,0.1-0.3,0.3-0.3s0.3,0.1,0.3,0.3
			C-152.9,382.8-153.1,383-153.2,383z M-153.2,380.1c-0.2,0-0.3-0.1-0.3-0.3c0-0.2,0.1-0.3,0.3-0.3s0.3,0.1,0.3,0.3
			C-152.9,380-153.1,380.1-153.2,380.1z M-156.2,376.7c0.2,0,0.3,0.1,0.3,0.3c0,0.2-0.1,0.3-0.3,0.3s-0.3-0.1-0.3-0.3
			C-156.6,376.9-156.4,376.7-156.2,376.7z M-159.1,376.7c0.2,0,0.3,0.1,0.3,0.3c0,0.2-0.1,0.3-0.3,0.3c-0.2,0-0.3-0.1-0.3-0.3
			C-159.5,376.9-159.3,376.7-159.1,376.7z M-162,376.7c0.2,0,0.3,0.1,0.3,0.3c0,0.2-0.1,0.3-0.3,0.3c-0.2,0-0.3-0.1-0.3-0.3
			C-162.3,376.9-162.2,376.7-162,376.7z M-164.9,376.7c0.2,0,0.3,0.1,0.3,0.3c0,0.2-0.1,0.3-0.3,0.3c-0.2,0-0.3-0.1-0.3-0.3
			C-165.2,376.9-165.1,376.7-164.9,376.7z M-167.8,376.7c0.2,0,0.3,0.1,0.3,0.3c0,0.2-0.1,0.3-0.3,0.3s-0.3-0.1-0.3-0.3
			C-168.1,376.9-168,376.7-167.8,376.7z M-170.7,376.7c0.2,0,0.3,0.1,0.3,0.3c0,0.2-0.1,0.3-0.3,0.3s-0.3-0.1-0.3-0.3
			C-171,376.9-170.8,376.7-170.7,376.7z M-173.4,359.3c0.2,0,0.3,0.1,0.3,0.3c0,0.2-0.1,0.3-0.3,0.3s-0.3-0.1-0.3-0.3
			C-173.7,359.4-173.5,359.3-173.4,359.3z M-173.4,362.1c0.2,0,0.3,0.1,0.3,0.3c0,0.2-0.1,0.3-0.3,0.3s-0.3-0.1-0.3-0.3
			C-173.7,362.3-173.5,362.1-173.4,362.1z M-173.4,365c0.2,0,0.3,0.1,0.3,0.3c0,0.2-0.1,0.3-0.3,0.3s-0.3-0.1-0.3-0.3
			C-173.7,365.2-173.5,365-173.4,365z M-173.4,367.9c0.2,0,0.3,0.1,0.3,0.3c0,0.2-0.1,0.3-0.3,0.3s-0.3-0.1-0.3-0.3
			C-173.7,368.1-173.5,367.9-173.4,367.9z M-173.4,370.8c0.2,0,0.3,0.1,0.3,0.3c0,0.2-0.1,0.3-0.3,0.3s-0.3-0.1-0.3-0.3
			C-173.7,370.9-173.5,370.8-173.4,370.8z M-173.4,373.7c0.2,0,0.3,0.1,0.3,0.3c0,0.2-0.1,0.3-0.3,0.3s-0.3-0.1-0.3-0.3
			C-173.7,373.8-173.5,373.7-173.4,373.7z M-173.6,376.8c0-0.1,0.1-0.2,0.3-0.2c0.2,0,0.3,0.1,0.3,0.3c0,0.1-0.1,0.2-0.2,0.3
			c0,0.1-0.1,0.2-0.3,0.2c-0.2,0-0.3-0.1-0.3-0.3C-173.9,376.9-173.8,376.8-173.6,376.8z M-173.4,391.6c-0.2,0-0.3-0.1-0.3-0.3
			c0-0.2,0.1-0.3,0.3-0.3s0.3,0.1,0.3,0.3C-173,391.5-173.2,391.6-173.4,391.6z M-173,394.2c0,0.2-0.1,0.3-0.3,0.3s-0.3-0.1-0.3-0.3
			c0-0.2,0.1-0.3,0.3-0.3S-173,394-173,394.2z M-173.4,388.7c-0.2,0-0.3-0.1-0.3-0.3s0.1-0.3,0.3-0.3s0.3,0.1,0.3,0.3
			S-173.2,388.7-173.4,388.7z M-173.4,385.9c-0.2,0-0.3-0.1-0.3-0.3c0-0.2,0.1-0.3,0.3-0.3s0.3,0.1,0.3,0.3
			C-173,385.7-173.2,385.9-173.4,385.9z M-173.4,383c-0.2,0-0.3-0.1-0.3-0.3c0-0.2,0.1-0.3,0.3-0.3s0.3,0.1,0.3,0.3
			C-173,382.8-173.2,383-173.4,383z M-173.4,380.1c-0.2,0-0.3-0.1-0.3-0.3c0-0.2,0.1-0.3,0.3-0.3s0.3,0.1,0.3,0.3
			C-173,380-173.2,380.1-173.4,380.1z M-173.6,396.9c0.1-0.1,0.1-0.1,0.2-0.1c0.2,0,0.3,0.1,0.3,0.3c0,0.2-0.1,0.3-0.3,0.3
			c-0.1,0.1-0.1,0.1-0.2,0.1c-0.2,0-0.3-0.1-0.3-0.3C-173.9,397-173.7,396.9-173.6,396.9z M-173.4,411.8c-0.2,0-0.3-0.1-0.3-0.3
			c0-0.2,0.1-0.3,0.3-0.3s0.3,0.1,0.3,0.3C-173,411.7-173.2,411.8-173.4,411.8z M-173,414.4c0,0.2-0.1,0.3-0.3,0.3s-0.3-0.1-0.3-0.3
			c0-0.2,0.1-0.3,0.3-0.3S-173,414.2-173,414.4z M-173.4,408.9c-0.2,0-0.3-0.1-0.3-0.3c0-0.2,0.1-0.3,0.3-0.3s0.3,0.1,0.3,0.3
			C-173,408.8-173.2,408.9-173.4,408.9z M-173.4,406c-0.2,0-0.3-0.1-0.3-0.3c0-0.2,0.1-0.3,0.3-0.3s0.3,0.1,0.3,0.3
			C-173,405.9-173.2,406-173.4,406z M-173.4,403.2c-0.2,0-0.3-0.1-0.3-0.3c0-0.2,0.1-0.3,0.3-0.3s0.3,0.1,0.3,0.3
			C-173,403-173.2,403.2-173.4,403.2z M-173.4,400.3c-0.2,0-0.3-0.1-0.3-0.3s0.1-0.3,0.3-0.3s0.3,0.1,0.3,0.3
			S-173.2,400.3-173.4,400.3z M-173.5,417C-173.5,417-173.5,417-173.5,417c0.1,0,0.1,0,0.2,0c0.2,0,0.3,0.1,0.3,0.3
			c0,0.2-0.1,0.3-0.3,0.3c0,0,0,0,0,0c0,0-0.1,0.1-0.1,0.1c-0.2,0-0.3-0.1-0.3-0.3C-173.9,417.1-173.7,417-173.5,417z M-173.4,432
			c-0.2,0-0.3-0.1-0.3-0.3c0-0.2,0.1-0.3,0.3-0.3s0.3,0.1,0.3,0.3C-173,431.8-173.2,432-173.4,432z M-173,434.5
			c0,0.2-0.1,0.3-0.3,0.3s-0.3-0.1-0.3-0.3c0-0.2,0.1-0.3,0.3-0.3S-173,434.4-173,434.5z M-173.4,429.1c-0.2,0-0.3-0.1-0.3-0.3
			c0-0.2,0.1-0.3,0.3-0.3s0.3,0.1,0.3,0.3C-173,429-173.2,429.1-173.4,429.1z M-173.4,426.2c-0.2,0-0.3-0.1-0.3-0.3s0.1-0.3,0.3-0.3
			s0.3,0.1,0.3,0.3S-173.2,426.2-173.4,426.2z M-173.4,423.3c-0.2,0-0.3-0.1-0.3-0.3c0-0.2,0.1-0.3,0.3-0.3s0.3,0.1,0.3,0.3
			C-173,423.2-173.2,423.3-173.4,423.3z M-173.4,420.5c-0.2,0-0.3-0.1-0.3-0.3c0-0.2,0.1-0.3,0.3-0.3s0.3,0.1,0.3,0.3
			C-173,420.3-173.2,420.5-173.4,420.5z M-173.5,437.1c0.1,0,0.1,0,0.1,0.1c0,0,0,0,0,0c0.2,0,0.3,0.1,0.3,0.3
			c0,0.2-0.1,0.3-0.3,0.3c-0.1,0-0.1,0-0.1-0.1c0,0,0,0,0,0c-0.2,0-0.3-0.1-0.3-0.3C-173.9,437.2-173.7,437.1-173.5,437.1z
			 M-173,440.3c0,0.2-0.1,0.3-0.3,0.3s-0.3-0.1-0.3-0.3c0-0.2,0.1-0.3,0.3-0.3S-173,440.1-173,440.3z M-176.4,376.7
			c0.2,0,0.3,0.1,0.3,0.3c0,0.2-0.1,0.3-0.3,0.3s-0.3-0.1-0.3-0.3C-176.7,376.9-176.6,376.7-176.4,376.7z M-176.4,396.9
			c0.2,0,0.3,0.1,0.3,0.3c0,0.2-0.1,0.3-0.3,0.3s-0.3-0.1-0.3-0.3C-176.7,397-176.6,396.9-176.4,396.9z M-176.4,417
			c0.2,0,0.3,0.1,0.3,0.3c0,0.2-0.1,0.3-0.3,0.3s-0.3-0.1-0.3-0.3C-176.7,417.1-176.6,417-176.4,417z M-176.4,437.1
			c0.2,0,0.3,0.1,0.3,0.3c0,0.2-0.1,0.3-0.3,0.3s-0.3-0.1-0.3-0.3C-176.7,437.2-176.6,437.1-176.4,437.1z M-179.3,376.7
			c0.2,0,0.3,0.1,0.3,0.3c0,0.2-0.1,0.3-0.3,0.3c-0.2,0-0.3-0.1-0.3-0.3C-179.6,376.9-179.5,376.7-179.3,376.7z M-179.3,396.9
			c0.2,0,0.3,0.1,0.3,0.3c0,0.2-0.1,0.3-0.3,0.3c-0.2,0-0.3-0.1-0.3-0.3C-179.6,397-179.5,396.9-179.3,396.9z M-179.3,417
			c0.2,0,0.3,0.1,0.3,0.3c0,0.2-0.1,0.3-0.3,0.3c-0.2,0-0.3-0.1-0.3-0.3C-179.6,417.1-179.5,417-179.3,417z M-179.3,437.1
			c0.2,0,0.3,0.1,0.3,0.3c0,0.2-0.1,0.3-0.3,0.3c-0.2,0-0.3-0.1-0.3-0.3C-179.6,437.2-179.5,437.1-179.3,437.1z M-182.2,376.7
			c0.2,0,0.3,0.1,0.3,0.3c0,0.2-0.1,0.3-0.3,0.3s-0.3-0.1-0.3-0.3C-182.5,376.9-182.4,376.7-182.2,376.7z M-182.2,396.9
			c0.2,0,0.3,0.1,0.3,0.3c0,0.2-0.1,0.3-0.3,0.3s-0.3-0.1-0.3-0.3C-182.5,397-182.4,396.9-182.2,396.9z M-182.2,417
			c0.2,0,0.3,0.1,0.3,0.3c0,0.2-0.1,0.3-0.3,0.3s-0.3-0.1-0.3-0.3C-182.5,417.1-182.4,417-182.2,417z M-182.2,437.1
			c0.2,0,0.3,0.1,0.3,0.3c0,0.2-0.1,0.3-0.3,0.3s-0.3-0.1-0.3-0.3C-182.5,437.2-182.4,437.1-182.2,437.1z M-185.1,376.7
			c0.2,0,0.3,0.1,0.3,0.3c0,0.2-0.1,0.3-0.3,0.3s-0.3-0.1-0.3-0.3C-185.4,376.9-185.3,376.7-185.1,376.7z M-185.1,396.9
			c0.2,0,0.3,0.1,0.3,0.3c0,0.2-0.1,0.3-0.3,0.3s-0.3-0.1-0.3-0.3C-185.4,397-185.3,396.9-185.1,396.9z M-185.1,417
			c0.2,0,0.3,0.1,0.3,0.3c0,0.2-0.1,0.3-0.3,0.3s-0.3-0.1-0.3-0.3C-185.4,417.1-185.3,417-185.1,417z M-185.1,437.1
			c0.2,0,0.3,0.1,0.3,0.3c0,0.2-0.1,0.3-0.3,0.3s-0.3-0.1-0.3-0.3C-185.4,437.2-185.3,437.1-185.1,437.1z M-190.8,477.9
			c-0.2,0-0.3-0.1-0.3-0.3c0-0.2,0.1-0.3,0.3-0.3s0.3,0.1,0.3,0.3C-190.5,477.8-190.7,477.9-190.8,477.9z M-190.8,457.8
			c-0.2,0-0.3-0.1-0.3-0.3c0-0.2,0.1-0.3,0.3-0.3s0.3,0.1,0.3,0.3C-190.5,457.7-190.7,457.8-190.8,457.8z M-190.8,437.7
			c-0.2,0-0.3-0.1-0.3-0.3c0-0.2,0.1-0.3,0.3-0.3s0.3,0.1,0.3,0.3C-190.5,437.6-190.7,437.7-190.8,437.7z M-190.8,417.6
			c-0.2,0-0.3-0.1-0.3-0.3c0-0.2,0.1-0.3,0.3-0.3s0.3,0.1,0.3,0.3C-190.5,417.5-190.7,417.6-190.8,417.6z M-190.8,397.5
			c-0.2,0-0.3-0.1-0.3-0.3s0.1-0.3,0.3-0.3s0.3,0.1,0.3,0.3S-190.7,397.5-190.8,397.5z M-190.8,377.4c-0.2,0-0.3-0.1-0.3-0.3
			c0-0.2,0.1-0.3,0.3-0.3s0.3,0.1,0.3,0.3C-190.5,377.3-190.7,377.4-190.8,377.4z M-188,477.9c-0.2,0-0.3-0.1-0.3-0.3
			c0-0.2,0.1-0.3,0.3-0.3s0.3,0.1,0.3,0.3C-187.6,477.8-187.8,477.9-188,477.9z M-188,457.8c-0.2,0-0.3-0.1-0.3-0.3
			c0-0.2,0.1-0.3,0.3-0.3s0.3,0.1,0.3,0.3C-187.6,457.7-187.8,457.8-188,457.8z M-188,437.7c-0.2,0-0.3-0.1-0.3-0.3
			c0-0.2,0.1-0.3,0.3-0.3s0.3,0.1,0.3,0.3C-187.6,437.6-187.8,437.7-188,437.7z M-188,417.6c-0.2,0-0.3-0.1-0.3-0.3
			c0-0.2,0.1-0.3,0.3-0.3s0.3,0.1,0.3,0.3C-187.6,417.5-187.8,417.6-188,417.6z M-188,397.5c-0.2,0-0.3-0.1-0.3-0.3s0.1-0.3,0.3-0.3
			s0.3,0.1,0.3,0.3S-187.8,397.5-188,397.5z M-188,377.4c-0.2,0-0.3-0.1-0.3-0.3c0-0.2,0.1-0.3,0.3-0.3s0.3,0.1,0.3,0.3
			C-187.6,377.3-187.8,377.4-188,377.4z M-185.1,477.9c-0.2,0-0.3-0.1-0.3-0.3c0-0.2,0.1-0.3,0.3-0.3s0.3,0.1,0.3,0.3
			C-184.7,477.8-184.9,477.9-185.1,477.9z M-185.1,457.8c-0.2,0-0.3-0.1-0.3-0.3c0-0.2,0.1-0.3,0.3-0.3s0.3,0.1,0.3,0.3
			C-184.7,457.7-184.9,457.8-185.1,457.8z M-182.2,477.9c-0.2,0-0.3-0.1-0.3-0.3c0-0.2,0.1-0.3,0.3-0.3s0.3,0.1,0.3,0.3
			C-181.9,477.8-182,477.9-182.2,477.9z M-182.2,457.8c-0.2,0-0.3-0.1-0.3-0.3c0-0.2,0.1-0.3,0.3-0.3s0.3,0.1,0.3,0.3
			C-181.9,457.7-182,457.8-182.2,457.8z M-179.3,477.9c-0.2,0-0.3-0.1-0.3-0.3c0-0.2,0.1-0.3,0.3-0.3c0.2,0,0.3,0.1,0.3,0.3
			C-179,477.8-179.1,477.9-179.3,477.9z M-179.3,457.8c-0.2,0-0.3-0.1-0.3-0.3c0-0.2,0.1-0.3,0.3-0.3c0.2,0,0.3,0.1,0.3,0.3
			C-179,457.7-179.1,457.8-179.3,457.8z M-176.4,477.9c-0.2,0-0.3-0.1-0.3-0.3c0-0.2,0.1-0.3,0.3-0.3s0.3,0.1,0.3,0.3
			C-176.1,477.8-176.2,477.9-176.4,477.9z M-176.4,457.8c-0.2,0-0.3-0.1-0.3-0.3c0-0.2,0.1-0.3,0.3-0.3s0.3,0.1,0.3,0.3
			C-176.1,457.7-176.2,457.8-176.4,457.8z M-176.5,451.7l-7.4,3.6c-0.8,0.4-1.8,0.1-2.3-0.8c-0.4-0.8-0.1-1.8,0.8-2.3l7.4-3.6
			c0.8-0.4,1.8-0.1,2.3,0.8C-175.3,450.3-175.6,451.3-176.5,451.7z M-173.4,495.4c-0.2,0-0.3-0.1-0.3-0.3c0-0.2,0.1-0.3,0.3-0.3
			s0.3,0.1,0.3,0.3C-173,495.3-173.2,495.4-173.4,495.4z M-173.4,492.5c-0.2,0-0.3-0.1-0.3-0.3c0-0.2,0.1-0.3,0.3-0.3
			s0.3,0.1,0.3,0.3C-173,492.4-173.2,492.5-173.4,492.5z M-173.4,489.7c-0.2,0-0.3-0.1-0.3-0.3c0-0.2,0.1-0.3,0.3-0.3
			s0.3,0.1,0.3,0.3C-173,489.5-173.2,489.7-173.4,489.7z M-173.4,486.8c-0.2,0-0.3-0.1-0.3-0.3c0-0.2,0.1-0.3,0.3-0.3
			s0.3,0.1,0.3,0.3C-173,486.6-173.2,486.8-173.4,486.8z M-173.4,483.9c-0.2,0-0.3-0.1-0.3-0.3c0-0.2,0.1-0.3,0.3-0.3
			s0.3,0.1,0.3,0.3C-173,483.7-173.2,483.9-173.4,483.9z M-173.4,481c-0.2,0-0.3-0.1-0.3-0.3c0-0.2,0.1-0.3,0.3-0.3s0.3,0.1,0.3,0.3
			C-173,480.9-173.2,481-173.4,481z M-173.4,478.1c-0.1,0-0.2-0.1-0.3-0.2c-0.1,0-0.2-0.1-0.2-0.3c0-0.2,0.1-0.3,0.3-0.3
			c0.1,0,0.2,0.1,0.3,0.2c0.1,0,0.2,0.1,0.2,0.3C-173,478-173.2,478.1-173.4,478.1z M-173.4,475.2c-0.2,0-0.3-0.1-0.3-0.3
			c0-0.2,0.1-0.3,0.3-0.3s0.3,0.1,0.3,0.3C-173,475.1-173.2,475.2-173.4,475.2z M-173.4,472.4c-0.2,0-0.3-0.1-0.3-0.3
			c0-0.2,0.1-0.3,0.3-0.3s0.3,0.1,0.3,0.3C-173,472.2-173.2,472.4-173.4,472.4z M-173.4,469.5c-0.2,0-0.3-0.1-0.3-0.3
			c0-0.2,0.1-0.3,0.3-0.3s0.3,0.1,0.3,0.3C-173,469.3-173.2,469.5-173.4,469.5z M-173.4,466.6c-0.2,0-0.3-0.1-0.3-0.3
			c0-0.2,0.1-0.3,0.3-0.3s0.3,0.1,0.3,0.3C-173,466.4-173.2,466.6-173.4,466.6z M-173.4,463.7c-0.2,0-0.3-0.1-0.3-0.3
			c0-0.2,0.1-0.3,0.3-0.3s0.3,0.1,0.3,0.3C-173,463.6-173.2,463.7-173.4,463.7z M-173.4,460.8c-0.2,0-0.3-0.1-0.3-0.3
			c0-0.2,0.1-0.3,0.3-0.3s0.3,0.1,0.3,0.3C-173,460.7-173.2,460.8-173.4,460.8z M-173.4,457.9c-0.1,0-0.2-0.1-0.2-0.1
			c-0.1,0-0.3-0.1-0.3-0.3c0-0.2,0.1-0.3,0.3-0.3c0.1,0,0.2,0.1,0.2,0.1c0.1,0,0.3,0.1,0.3,0.3C-173,457.8-173.2,457.9-173.4,457.9z
			 M-173.4,455.1c-0.2,0-0.3-0.1-0.3-0.3c0-0.2,0.1-0.3,0.3-0.3s0.3,0.1,0.3,0.3C-173,454.9-173.2,455.1-173.4,455.1z M-173.4,452.2
			c-0.2,0-0.3-0.1-0.3-0.3s0.1-0.3,0.3-0.3s0.3,0.1,0.3,0.3S-173.2,452.2-173.4,452.2z M-170.7,477.9c-0.2,0-0.3-0.1-0.3-0.3
			c0-0.2,0.1-0.3,0.3-0.3c0.2,0,0.3,0.1,0.3,0.3C-170.3,477.8-170.5,477.9-170.7,477.9z M-170.7,457.8c-0.2,0-0.3-0.1-0.3-0.3
			c0-0.2,0.1-0.3,0.3-0.3c0.2,0,0.3,0.1,0.3,0.3C-170.3,457.7-170.5,457.8-170.7,457.8z M-167.8,477.9c-0.2,0-0.3-0.1-0.3-0.3
			c0-0.2,0.1-0.3,0.3-0.3s0.3,0.1,0.3,0.3C-167.4,477.8-167.6,477.9-167.8,477.9z M-167.8,457.8c-0.2,0-0.3-0.1-0.3-0.3
			c0-0.2,0.1-0.3,0.3-0.3s0.3,0.1,0.3,0.3C-167.4,457.7-167.6,457.8-167.8,457.8z M-164.9,477.9c-0.2,0-0.3-0.1-0.3-0.3
			c0-0.2,0.1-0.3,0.3-0.3s0.3,0.1,0.3,0.3C-164.6,477.8-164.7,477.9-164.9,477.9z M-164.9,457.8c-0.2,0-0.3-0.1-0.3-0.3
			c0-0.2,0.1-0.3,0.3-0.3s0.3,0.1,0.3,0.3C-164.6,457.7-164.7,457.8-164.9,457.8z M-162,477.9c-0.2,0-0.3-0.1-0.3-0.3
			c0-0.2,0.1-0.3,0.3-0.3c0.2,0,0.3,0.1,0.3,0.3C-161.7,477.8-161.8,477.9-162,477.9z M-162,457.8c-0.2,0-0.3-0.1-0.3-0.3
			c0-0.2,0.1-0.3,0.3-0.3c0.2,0,0.3,0.1,0.3,0.3C-161.7,457.7-161.8,457.8-162,457.8z M-167.3,452.4c-2.5,0-4.6-1.3-5.9-3.2
			c-0.1,0-0.1,0.1-0.2,0.1c-0.2,0-0.3-0.1-0.3-0.3c0-0.1,0.1-0.2,0.2-0.3c-0.5-1-0.8-2.1-0.8-3.2c0-3.8,3.1-7,6.9-7
			c3.8,0,7,3.1,7,6.9C-160.4,449.3-163.5,452.4-167.3,452.4z M-170.7,417c0.2,0,0.3,0.1,0.3,0.3c0,0.2-0.1,0.3-0.3,0.3
			s-0.3-0.1-0.3-0.3C-171,417.1-170.8,417-170.7,417z M-171,397.2c0-0.2,0.1-0.3,0.3-0.3c0.2,0,0.3,0.1,0.3,0.3
			c0,0.2-0.1,0.3-0.3,0.3S-171,397.4-171,397.2z M-170.7,437.1c0.2,0,0.3,0.1,0.3,0.3c0,0.2-0.1,0.3-0.3,0.3s-0.3-0.1-0.3-0.3
			C-171,437.2-170.8,437.1-170.7,437.1z M-167.8,417c0.2,0,0.3,0.1,0.3,0.3c0,0.2-0.1,0.3-0.3,0.3s-0.3-0.1-0.3-0.3
			C-168.1,417.1-168,417-167.8,417z M-168.1,397.2c0-0.2,0.1-0.3,0.3-0.3s0.3,0.1,0.3,0.3c0,0.2-0.1,0.3-0.3,0.3
			S-168.1,397.4-168.1,397.2z M-167.8,437.1c0.2,0,0.3,0.1,0.3,0.3c0,0.2-0.1,0.3-0.3,0.3s-0.3-0.1-0.3-0.3
			C-168.1,437.2-168,437.1-167.8,437.1z M-164.9,417c0.2,0,0.3,0.1,0.3,0.3c0,0.2-0.1,0.3-0.3,0.3c-0.2,0-0.3-0.1-0.3-0.3
			C-165.2,417.1-165.1,417-164.9,417z M-165.2,397.2c0-0.2,0.1-0.3,0.3-0.3s0.3,0.1,0.3,0.3c0,0.2-0.1,0.3-0.3,0.3
			C-165.1,397.5-165.2,397.4-165.2,397.2z M-164.9,437.1c0.2,0,0.3,0.1,0.3,0.3c0,0.2-0.1,0.3-0.3,0.3c-0.2,0-0.3-0.1-0.3-0.3
			C-165.2,437.2-165.1,437.1-164.9,437.1z M-162,417c0.2,0,0.3,0.1,0.3,0.3c0,0.2-0.1,0.3-0.3,0.3c-0.2,0-0.3-0.1-0.3-0.3
			C-162.3,417.1-162.2,417-162,417z M-162.3,397.2c0-0.2,0.1-0.3,0.3-0.3s0.3,0.1,0.3,0.3c0,0.2-0.1,0.3-0.3,0.3
			S-162.3,397.4-162.3,397.2z M-162,437.1c0.2,0,0.3,0.1,0.3,0.3c0,0.2-0.1,0.3-0.3,0.3c-0.2,0-0.3-0.1-0.3-0.3
			C-162.3,437.2-162.2,437.1-162,437.1z M-159.1,477.9c-0.2,0-0.3-0.1-0.3-0.3c0-0.2,0.1-0.3,0.3-0.3s0.3,0.1,0.3,0.3
			C-158.8,477.8-158.9,477.9-159.1,477.9z M-159.1,457.8c-0.2,0-0.3-0.1-0.3-0.3c0-0.2,0.1-0.3,0.3-0.3s0.3,0.1,0.3,0.3
			C-158.8,457.7-158.9,457.8-159.1,457.8z M-159.1,417c0.2,0,0.3,0.1,0.3,0.3c0,0.2-0.1,0.3-0.3,0.3c-0.2,0-0.3-0.1-0.3-0.3
			C-159.5,417.1-159.3,417-159.1,417z M-159.5,397.2c0-0.2,0.1-0.3,0.3-0.3c0.2,0,0.3,0.1,0.3,0.3c0,0.2-0.1,0.3-0.3,0.3
			C-159.3,397.5-159.5,397.4-159.5,397.2z M-159.1,437.1c0.2,0,0.3,0.1,0.3,0.3c0,0.2-0.1,0.3-0.3,0.3c-0.2,0-0.3-0.1-0.3-0.3
			C-159.5,437.2-159.3,437.1-159.1,437.1z M-156.2,477.9c-0.2,0-0.3-0.1-0.3-0.3c0-0.2,0.1-0.3,0.3-0.3s0.3,0.1,0.3,0.3
			C-155.9,477.8-156.1,477.9-156.2,477.9z M-156.2,457.8c-0.2,0-0.3-0.1-0.3-0.3c0-0.2,0.1-0.3,0.3-0.3s0.3,0.1,0.3,0.3
			C-155.9,457.7-156.1,457.8-156.2,457.8z M-153.2,495.4c-0.2,0-0.3-0.1-0.3-0.3c0-0.2,0.1-0.3,0.3-0.3s0.3,0.1,0.3,0.3
			C-152.9,495.3-153.1,495.4-153.2,495.4z M-153.2,492.5c-0.2,0-0.3-0.1-0.3-0.3c0-0.2,0.1-0.3,0.3-0.3s0.3,0.1,0.3,0.3
			C-152.9,492.4-153.1,492.5-153.2,492.5z M-153.2,489.7c-0.2,0-0.3-0.1-0.3-0.3c0-0.2,0.1-0.3,0.3-0.3s0.3,0.1,0.3,0.3
			C-152.9,489.5-153.1,489.7-153.2,489.7z M-153.2,486.8c-0.2,0-0.3-0.1-0.3-0.3c0-0.2,0.1-0.3,0.3-0.3s0.3,0.1,0.3,0.3
			C-152.9,486.6-153.1,486.8-153.2,486.8z M-153.2,483.9c-0.2,0-0.3-0.1-0.3-0.3c0-0.2,0.1-0.3,0.3-0.3s0.3,0.1,0.3,0.3
			C-152.9,483.7-153.1,483.9-153.2,483.9z M-153.2,481c-0.2,0-0.3-0.1-0.3-0.3c0-0.2,0.1-0.3,0.3-0.3s0.3,0.1,0.3,0.3
			C-152.9,480.9-153.1,481-153.2,481z M-153.2,478.1c-0.2,0-0.3-0.1-0.3-0.3c-0.1-0.1-0.1-0.1-0.1-0.2c0-0.2,0.1-0.3,0.3-0.3
			c0.2,0,0.3,0.1,0.3,0.3c0.1,0.1,0.1,0.1,0.1,0.2C-152.9,478-153.1,478.1-153.2,478.1z M-153.2,475.2c-0.2,0-0.3-0.1-0.3-0.3
			c0-0.2,0.1-0.3,0.3-0.3s0.3,0.1,0.3,0.3C-152.9,475.1-153.1,475.2-153.2,475.2z M-153.2,472.4c-0.2,0-0.3-0.1-0.3-0.3
			c0-0.2,0.1-0.3,0.3-0.3s0.3,0.1,0.3,0.3C-152.9,472.2-153.1,472.4-153.2,472.4z M-153.2,469.5c-0.2,0-0.3-0.1-0.3-0.3
			c0-0.2,0.1-0.3,0.3-0.3s0.3,0.1,0.3,0.3C-152.9,469.3-153.1,469.5-153.2,469.5z M-153.2,466.6c-0.2,0-0.3-0.1-0.3-0.3
			c0-0.2,0.1-0.3,0.3-0.3s0.3,0.1,0.3,0.3C-152.9,466.4-153.1,466.6-153.2,466.6z M-153.2,463.7c-0.2,0-0.3-0.1-0.3-0.3
			c0-0.2,0.1-0.3,0.3-0.3s0.3,0.1,0.3,0.3C-152.9,463.6-153.1,463.7-153.2,463.7z M-153.2,460.8c-0.2,0-0.3-0.1-0.3-0.3
			c0-0.2,0.1-0.3,0.3-0.3s0.3,0.1,0.3,0.3C-152.9,460.7-153.1,460.8-153.2,460.8z M-153.2,457.9c-0.1,0-0.2-0.1-0.3-0.2
			c-0.1-0.1-0.2-0.1-0.2-0.3c0-0.2,0.1-0.3,0.3-0.3c0.1,0,0.2,0.1,0.3,0.2c0.1,0.1,0.2,0.1,0.2,0.3
			C-152.9,457.8-153.1,457.9-153.2,457.9z M-153.2,455.1c-0.2,0-0.3-0.1-0.3-0.3c0-0.2,0.1-0.3,0.3-0.3s0.3,0.1,0.3,0.3
			C-152.9,454.9-153.1,455.1-153.2,455.1z M-153.2,452.2c-0.2,0-0.3-0.1-0.3-0.3s0.1-0.3,0.3-0.3s0.3,0.1,0.3,0.3
			S-153.1,452.2-153.2,452.2z M-153.2,449.3c-0.2,0-0.3-0.1-0.3-0.3c0-0.2,0.1-0.3,0.3-0.3s0.3,0.1,0.3,0.3
			C-152.9,449.1-153.1,449.3-153.2,449.3z M-153.2,446.4c-0.2,0-0.3-0.1-0.3-0.3c0-0.2,0.1-0.3,0.3-0.3s0.3,0.1,0.3,0.3
			C-152.9,446.3-153.1,446.4-153.2,446.4z M-153.2,443.5c-0.2,0-0.3-0.1-0.3-0.3c0-0.2,0.1-0.3,0.3-0.3s0.3,0.1,0.3,0.3
			C-152.9,443.4-153.1,443.5-153.2,443.5z M-150.5,477.9c-0.2,0-0.3-0.1-0.3-0.3c0-0.2,0.1-0.3,0.3-0.3c0.2,0,0.3,0.1,0.3,0.3
			C-150.2,477.8-150.3,477.9-150.5,477.9z M-150.5,457.8c-0.2,0-0.3-0.1-0.3-0.3c0-0.2,0.1-0.3,0.3-0.3c0.2,0,0.3,0.1,0.3,0.3
			C-150.2,457.7-150.3,457.8-150.5,457.8z M-149.3,438.6l-3.6,1.8c0,0.1-0.1,0.2-0.3,0.2c0,0-0.1,0-0.1,0l-3.4,1.6
			c-0.8,0.4-1.8,0.1-2.3-0.8c-0.4-0.8-0.1-1.8,0.8-2.3l7.4-3.6c0.8-0.4,1.8-0.1,2.2,0.8C-148.1,437.2-148.5,438.2-149.3,438.6z
			 M-156.2,437.1c0.2,0,0.3,0.1,0.3,0.3c0,0.2-0.1,0.3-0.3,0.3s-0.3-0.1-0.3-0.3C-156.6,437.2-156.4,437.1-156.2,437.1z
			 M-156.6,417.3c0-0.2,0.1-0.3,0.3-0.3s0.3,0.1,0.3,0.3c0,0.2-0.1,0.3-0.3,0.3S-156.6,417.5-156.6,417.3z M-153.2,414
			c0.2,0,0.3,0.1,0.3,0.3c0,0.2-0.1,0.3-0.3,0.3s-0.3-0.1-0.3-0.3C-153.6,414.2-153.4,414-153.2,414z M-153.6,411.5
			c0-0.2,0.1-0.3,0.3-0.3s0.3,0.1,0.3,0.3c0,0.2-0.1,0.3-0.3,0.3S-153.6,411.7-153.6,411.5z M-153.4,417
			C-153.4,417-153.4,417-153.4,417c0,0,0.1,0,0.1,0c0.2,0,0.3,0.1,0.3,0.3c0,0.2-0.1,0.3-0.3,0.3c0,0,0,0,0,0c0,0-0.1,0-0.1,0
			c-0.2,0-0.3-0.1-0.3-0.3C-153.7,417.1-153.5,417-153.4,417z M-153.2,432c-0.2,0-0.3-0.1-0.3-0.3c0-0.2,0.1-0.3,0.3-0.3
			s0.3,0.1,0.3,0.3C-152.9,431.8-153.1,432-153.2,432z M-152.9,434.5c0,0.2-0.1,0.3-0.3,0.3s-0.3-0.1-0.3-0.3c0-0.2,0.1-0.3,0.3-0.3
			C-153.1,434.2-152.9,434.4-152.9,434.5z M-153.2,429.1c-0.2,0-0.3-0.1-0.3-0.3c0-0.2,0.1-0.3,0.3-0.3s0.3,0.1,0.3,0.3
			C-152.9,429-153.1,429.1-153.2,429.1z M-153.2,426.2c-0.2,0-0.3-0.1-0.3-0.3s0.1-0.3,0.3-0.3s0.3,0.1,0.3,0.3
			S-153.1,426.2-153.2,426.2z M-153.2,423.3c-0.2,0-0.3-0.1-0.3-0.3c0-0.2,0.1-0.3,0.3-0.3s0.3,0.1,0.3,0.3
			C-152.9,423.2-153.1,423.3-153.2,423.3z M-153.2,420.5c-0.2,0-0.3-0.1-0.3-0.3c0-0.2,0.1-0.3,0.3-0.3s0.3,0.1,0.3,0.3
			C-152.9,420.3-153.1,420.5-153.2,420.5z M-150.8,417.3c0-0.2,0.1-0.3,0.3-0.3c0.2,0,0.3,0.1,0.3,0.3c0,0.2-0.1,0.3-0.3,0.3
			C-150.7,417.6-150.8,417.5-150.8,417.3z M-147.6,477.9c-0.2,0-0.3-0.1-0.3-0.3c0-0.2,0.1-0.3,0.3-0.3c0.2,0,0.3,0.1,0.3,0.3
			C-147.3,477.8-147.4,477.9-147.6,477.9z M-147.6,457.8c-0.2,0-0.3-0.1-0.3-0.3c0-0.2,0.1-0.3,0.3-0.3c0.2,0,0.3,0.1,0.3,0.3
			C-147.3,457.7-147.4,457.8-147.6,457.8z M-147.6,437.7c-0.2,0-0.3-0.1-0.3-0.3c0-0.2,0.1-0.3,0.3-0.3c0.2,0,0.3,0.1,0.3,0.3
			C-147.3,437.6-147.4,437.7-147.6,437.7z M-147.6,417.6c-0.2,0-0.3-0.1-0.3-0.3c0-0.2,0.1-0.3,0.3-0.3c0.2,0,0.3,0.1,0.3,0.3
			C-147.3,417.5-147.4,417.6-147.6,417.6z M-144.7,477.9c-0.2,0-0.3-0.1-0.3-0.3c0-0.2,0.1-0.3,0.3-0.3c0.2,0,0.3,0.1,0.3,0.3
			C-144.4,477.8-144.5,477.9-144.7,477.9z M-144.7,457.8c-0.2,0-0.3-0.1-0.3-0.3c0-0.2,0.1-0.3,0.3-0.3c0.2,0,0.3,0.1,0.3,0.3
			C-144.4,457.7-144.5,457.8-144.7,457.8z M-144.7,437.7c-0.2,0-0.3-0.1-0.3-0.3c0-0.2,0.1-0.3,0.3-0.3c0.2,0,0.3,0.1,0.3,0.3
			C-144.4,437.6-144.5,437.7-144.7,437.7z M-141.8,477.9c-0.2,0-0.3-0.1-0.3-0.3c0-0.2,0.1-0.3,0.3-0.3c0.2,0,0.3,0.1,0.3,0.3
			C-141.5,477.8-141.6,477.9-141.8,477.9z M-141.8,457.8c-0.2,0-0.3-0.1-0.3-0.3c0-0.2,0.1-0.3,0.3-0.3c0.2,0,0.3,0.1,0.3,0.3
			C-141.5,457.7-141.6,457.8-141.8,457.8z M-141.8,437.7c-0.2,0-0.3-0.1-0.3-0.3c0-0.2,0.1-0.3,0.3-0.3c0.2,0,0.3,0.1,0.3,0.3
			C-141.5,437.6-141.6,437.7-141.8,437.7z M-138.9,477.9c-0.2,0-0.3-0.1-0.3-0.3c0-0.2,0.1-0.3,0.3-0.3s0.3,0.1,0.3,0.3
			C-138.6,477.8-138.8,477.9-138.9,477.9z M-138.9,457.8c-0.2,0-0.3-0.1-0.3-0.3c0-0.2,0.1-0.3,0.3-0.3s0.3,0.1,0.3,0.3
			C-138.6,457.7-138.8,457.8-138.9,457.8z M-138.9,437.7c-0.2,0-0.3-0.1-0.3-0.3c0-0.2,0.1-0.3,0.3-0.3s0.3,0.1,0.3,0.3
			C-138.6,437.6-138.8,437.7-138.9,437.7z M-136.1,477.9c-0.2,0-0.3-0.1-0.3-0.3c0-0.2,0.1-0.3,0.3-0.3s0.3,0.1,0.3,0.3
			C-135.7,477.8-135.9,477.9-136.1,477.9z M-136.1,457.8c-0.2,0-0.3-0.1-0.3-0.3c0-0.2,0.1-0.3,0.3-0.3s0.3,0.1,0.3,0.3
			C-135.7,457.7-135.9,457.8-136.1,457.8z M-136.1,437.7c-0.2,0-0.3-0.1-0.3-0.3c0-0.2,0.1-0.3,0.3-0.3s0.3,0.1,0.3,0.3
			C-135.7,437.6-135.9,437.7-136.1,437.7z M-135.7,432.1l-7.4,3.6c-0.8,0.4-1.8,0.1-2.3-0.8c-0.4-0.8-0.1-1.8,0.8-2.3l7.4-3.6
			c0.8-0.4,1.8-0.1,2.3,0.8C-134.5,430.7-134.9,431.7-135.7,432.1z M-145,417.3c0-0.2,0.1-0.3,0.3-0.3c0.2,0,0.3,0.1,0.3,0.3
			c0,0.2-0.1,0.3-0.3,0.3C-144.9,417.6-145,417.5-145,417.3z M-142.2,417.3c0-0.2,0.1-0.3,0.3-0.3c0.2,0,0.3,0.1,0.3,0.3
			c0,0.2-0.1,0.3-0.3,0.3C-142,417.6-142.2,417.5-142.2,417.3z M-139.3,417.3c0-0.2,0.1-0.3,0.3-0.3s0.3,0.1,0.3,0.3
			c0,0.2-0.1,0.3-0.3,0.3S-139.3,417.5-139.3,417.3z M-133.1,495.4c-0.2,0-0.3-0.1-0.3-0.3c0-0.2,0.1-0.3,0.3-0.3s0.3,0.1,0.3,0.3
			C-132.8,495.3-133,495.4-133.1,495.4z M-133.1,492.5c-0.2,0-0.3-0.1-0.3-0.3c0-0.2,0.1-0.3,0.3-0.3s0.3,0.1,0.3,0.3
			C-132.8,492.4-133,492.5-133.1,492.5z M-133.1,489.7c-0.2,0-0.3-0.1-0.3-0.3c0-0.2,0.1-0.3,0.3-0.3s0.3,0.1,0.3,0.3
			C-132.8,489.5-133,489.7-133.1,489.7z M-133.1,486.8c-0.2,0-0.3-0.1-0.3-0.3c0-0.2,0.1-0.3,0.3-0.3s0.3,0.1,0.3,0.3
			C-132.8,486.6-133,486.8-133.1,486.8z M-133.1,483.9c-0.2,0-0.3-0.1-0.3-0.3c0-0.2,0.1-0.3,0.3-0.3s0.3,0.1,0.3,0.3
			C-132.8,483.7-133,483.9-133.1,483.9z M-133.1,481c-0.2,0-0.3-0.1-0.3-0.3c0-0.2,0.1-0.3,0.3-0.3s0.3,0.1,0.3,0.3
			C-132.8,480.9-133,481-133.1,481z M-133.1,478.1c-0.2,0-0.3-0.1-0.3-0.3c0,0,0,0,0,0c0,0-0.1-0.1-0.1-0.1c0-0.2,0.1-0.3,0.3-0.3
			s0.3,0.1,0.3,0.3c0,0,0,0,0,0c0,0,0.1,0.1,0.1,0.1C-132.8,478-133,478.1-133.1,478.1z M-133.1,475.2c-0.2,0-0.3-0.1-0.3-0.3
			c0-0.2,0.1-0.3,0.3-0.3s0.3,0.1,0.3,0.3C-132.8,475.1-133,475.2-133.1,475.2z M-133.1,472.4c-0.2,0-0.3-0.1-0.3-0.3
			c0-0.2,0.1-0.3,0.3-0.3s0.3,0.1,0.3,0.3C-132.8,472.2-133,472.4-133.1,472.4z M-133.1,469.5c-0.2,0-0.3-0.1-0.3-0.3
			c0-0.2,0.1-0.3,0.3-0.3s0.3,0.1,0.3,0.3C-132.8,469.3-133,469.5-133.1,469.5z M-133.1,466.6c-0.2,0-0.3-0.1-0.3-0.3
			c0-0.2,0.1-0.3,0.3-0.3s0.3,0.1,0.3,0.3C-132.8,466.4-133,466.6-133.1,466.6z M-133.1,463.7c-0.2,0-0.3-0.1-0.3-0.3
			c0-0.2,0.1-0.3,0.3-0.3s0.3,0.1,0.3,0.3C-132.8,463.6-133,463.7-133.1,463.7z M-133.1,460.8c-0.2,0-0.3-0.1-0.3-0.3
			c0-0.2,0.1-0.3,0.3-0.3s0.3,0.1,0.3,0.3C-132.8,460.7-133,460.8-133.1,460.8z M-133.1,457.9c-0.2,0-0.3-0.1-0.3-0.3c0,0,0,0,0,0
			c0,0,0-0.1,0-0.1c0-0.2,0.1-0.3,0.3-0.3s0.3,0.1,0.3,0.3c0,0,0,0,0,0c0,0,0,0.1,0,0.1C-132.8,457.8-133,457.9-133.1,457.9z
			 M-133.1,455.1c-0.2,0-0.3-0.1-0.3-0.3c0-0.2,0.1-0.3,0.3-0.3s0.3,0.1,0.3,0.3C-132.8,454.9-133,455.1-133.1,455.1z M-133.1,452.2
			c-0.2,0-0.3-0.1-0.3-0.3s0.1-0.3,0.3-0.3s0.3,0.1,0.3,0.3S-133,452.2-133.1,452.2z M-133.1,449.3c-0.2,0-0.3-0.1-0.3-0.3
			c0-0.2,0.1-0.3,0.3-0.3s0.3,0.1,0.3,0.3C-132.8,449.1-133,449.3-133.1,449.3z M-133.1,446.4c-0.2,0-0.3-0.1-0.3-0.3
			c0-0.2,0.1-0.3,0.3-0.3s0.3,0.1,0.3,0.3C-132.8,446.3-133,446.4-133.1,446.4z M-133.1,443.5c-0.2,0-0.3-0.1-0.3-0.3
			c0-0.2,0.1-0.3,0.3-0.3s0.3,0.1,0.3,0.3C-132.8,443.4-133,443.5-133.1,443.5z M-133.1,440.6c-0.2,0-0.3-0.1-0.3-0.3
			c0-0.2,0.1-0.3,0.3-0.3s0.3,0.1,0.3,0.3C-132.8,440.5-133,440.6-133.1,440.6z M-133.1,437.8c-0.1,0-0.2-0.1-0.2-0.1
			c-0.1-0.1-0.1-0.1-0.1-0.2c0-0.2,0.1-0.3,0.3-0.3c0.1,0,0.2,0.1,0.2,0.1c0.1,0.1,0.1,0.1,0.1,0.2
			C-132.8,437.6-133,437.8-133.1,437.8z M-133.1,434.9c-0.2,0-0.3-0.1-0.3-0.3c0-0.2,0.1-0.3,0.3-0.3c0.2,0,0.3,0.1,0.3,0.3
			C-132.8,434.7-133,434.9-133.1,434.9z M-133.1,432c-0.2,0-0.3-0.1-0.3-0.3c0-0.2,0.1-0.3,0.3-0.3s0.3,0.1,0.3,0.3
			C-132.8,431.8-133,432-133.1,432z M-130.3,477.9c-0.2,0-0.3-0.1-0.3-0.3c0-0.2,0.1-0.3,0.3-0.3c0.2,0,0.3,0.1,0.3,0.3
			C-130,477.8-130.1,477.9-130.3,477.9z M-130.3,457.8c-0.2,0-0.3-0.1-0.3-0.3c0-0.2,0.1-0.3,0.3-0.3c0.2,0,0.3,0.1,0.3,0.3
			C-130,457.7-130.1,457.8-130.3,457.8z M-130.3,437.7c-0.2,0-0.3-0.1-0.3-0.3c0-0.2,0.1-0.3,0.3-0.3c0.2,0,0.3,0.1,0.3,0.3
			C-130,437.6-130.1,437.7-130.3,437.7z M-127.4,477.9c-0.2,0-0.3-0.1-0.3-0.3c0-0.2,0.1-0.3,0.3-0.3s0.3,0.1,0.3,0.3
			C-127.1,477.8-127.2,477.9-127.4,477.9z M-127.4,457.8c-0.2,0-0.3-0.1-0.3-0.3c0-0.2,0.1-0.3,0.3-0.3s0.3,0.1,0.3,0.3
			C-127.1,457.7-127.2,457.8-127.4,457.8z M-127.4,437.7c-0.2,0-0.3-0.1-0.3-0.3c0-0.2,0.1-0.3,0.3-0.3s0.3,0.1,0.3,0.3
			C-127.1,437.6-127.2,437.7-127.4,437.7z M-124.5,477.9c-0.2,0-0.3-0.1-0.3-0.3c0-0.2,0.1-0.3,0.3-0.3s0.3,0.1,0.3,0.3
			C-124.2,477.8-124.3,477.9-124.5,477.9z M-124.5,457.8c-0.2,0-0.3-0.1-0.3-0.3c0-0.2,0.1-0.3,0.3-0.3s0.3,0.1,0.3,0.3
			C-124.2,457.7-124.3,457.8-124.5,457.8z M-124.5,437.7c-0.2,0-0.3-0.1-0.3-0.3c0-0.2,0.1-0.3,0.3-0.3s0.3,0.1,0.3,0.3
			C-124.2,437.6-124.3,437.7-124.5,437.7z M-121.6,477.9c-0.2,0-0.3-0.1-0.3-0.3c0-0.2,0.1-0.3,0.3-0.3c0.2,0,0.3,0.1,0.3,0.3
			C-121.3,477.8-121.5,477.9-121.6,477.9z M-121.6,457.8c-0.2,0-0.3-0.1-0.3-0.3c0-0.2,0.1-0.3,0.3-0.3c0.2,0,0.3,0.1,0.3,0.3
			C-121.3,457.7-121.5,457.8-121.6,457.8z M-121.6,437.7c-0.2,0-0.3-0.1-0.3-0.3c0-0.2,0.1-0.3,0.3-0.3c0.2,0,0.3,0.1,0.3,0.3
			C-121.3,437.6-121.5,437.7-121.6,437.7z M-118.8,477.9c-0.2,0-0.3-0.1-0.3-0.3c0-0.2,0.1-0.3,0.3-0.3s0.3,0.1,0.3,0.3
			C-118.4,477.8-118.6,477.9-118.8,477.9z M-118.8,457.8c-0.2,0-0.3-0.1-0.3-0.3c0-0.2,0.1-0.3,0.3-0.3s0.3,0.1,0.3,0.3
			C-118.4,457.7-118.6,457.8-118.8,457.8z M-118.8,437.7c-0.2,0-0.3-0.1-0.3-0.3c0-0.2,0.1-0.3,0.3-0.3s0.3,0.1,0.3,0.3
			C-118.4,437.6-118.6,437.7-118.8,437.7z M-115.9,477.9c-0.2,0-0.3-0.1-0.3-0.3c0-0.2,0.1-0.3,0.3-0.3c0.2,0,0.3,0.1,0.3,0.3
			C-115.6,477.8-115.7,477.9-115.9,477.9z M-115.9,457.8c-0.2,0-0.3-0.1-0.3-0.3c0-0.2,0.1-0.3,0.3-0.3c0.2,0,0.3,0.1,0.3,0.3
			C-115.6,457.7-115.7,457.8-115.9,457.8z M-115.9,437.7c-0.2,0-0.3-0.1-0.3-0.3c0-0.2,0.1-0.3,0.3-0.3c0.2,0,0.3,0.1,0.3,0.3
			C-115.6,437.6-115.7,437.7-115.9,437.7z M-113,495.4c-0.2,0-0.3-0.1-0.3-0.3c0-0.2,0.1-0.3,0.3-0.3s0.3,0.1,0.3,0.3
			C-112.7,495.3-112.9,495.4-113,495.4z M-113,492.5c-0.2,0-0.3-0.1-0.3-0.3c0-0.2,0.1-0.3,0.3-0.3s0.3,0.1,0.3,0.3
			C-112.7,492.4-112.9,492.5-113,492.5z M-113,489.7c-0.2,0-0.3-0.1-0.3-0.3c0-0.2,0.1-0.3,0.3-0.3s0.3,0.1,0.3,0.3
			C-112.7,489.5-112.9,489.7-113,489.7z M-113,486.8c-0.2,0-0.3-0.1-0.3-0.3c0-0.2,0.1-0.3,0.3-0.3s0.3,0.1,0.3,0.3
			C-112.7,486.6-112.9,486.8-113,486.8z M-113,483.9c-0.2,0-0.3-0.1-0.3-0.3c0-0.2,0.1-0.3,0.3-0.3s0.3,0.1,0.3,0.3
			C-112.7,483.7-112.9,483.9-113,483.9z M-113,481c-0.2,0-0.3-0.1-0.3-0.3c0-0.2,0.1-0.3,0.3-0.3s0.3,0.1,0.3,0.3
			C-112.7,480.9-112.9,481-113,481z M-112.7,477.8c0,0.2-0.1,0.3-0.3,0.3c-0.2,0-0.3-0.1-0.3-0.3c0-0.1,0-0.1,0.1-0.1c0,0,0,0,0,0
			c0-0.2,0.1-0.3,0.3-0.3c0.2,0,0.3,0.1,0.3,0.3C-112.7,477.7-112.7,477.7-112.7,477.8C-112.7,477.8-112.7,477.8-112.7,477.8z
			 M-113,463.1c0.2,0,0.3,0.1,0.3,0.3c0,0.2-0.1,0.3-0.3,0.3s-0.3-0.1-0.3-0.3C-113.4,463.2-113.2,463.1-113,463.1z M-113.4,460.5
			c0-0.2,0.1-0.3,0.3-0.3s0.3,0.1,0.3,0.3c0,0.2-0.1,0.3-0.3,0.3S-113.4,460.7-113.4,460.5z M-113,465.9c0.2,0,0.3,0.1,0.3,0.3
			c0,0.2-0.1,0.3-0.3,0.3s-0.3-0.1-0.3-0.3C-113.4,466.1-113.2,465.9-113,465.9z M-113,468.8c0.2,0,0.3,0.1,0.3,0.3
			s-0.1,0.3-0.3,0.3s-0.3-0.1-0.3-0.3S-113.2,468.8-113,468.8z M-113,471.7c0.2,0,0.3,0.1,0.3,0.3c0,0.2-0.1,0.3-0.3,0.3
			s-0.3-0.1-0.3-0.3C-113.4,471.8-113.2,471.7-113,471.7z M-113,474.6c0.2,0,0.3,0.1,0.3,0.3c0,0.2-0.1,0.3-0.3,0.3
			s-0.3-0.1-0.3-0.3C-113.4,474.7-113.2,474.6-113,474.6z M-112.7,457.6C-112.7,457.6-112.7,457.6-112.7,457.6
			c0,0.2-0.1,0.3-0.3,0.3s-0.3-0.1-0.3-0.3c0,0,0-0.1,0-0.1c0,0,0,0,0,0c0-0.2,0.1-0.3,0.3-0.3c0.2,0,0.3,0.1,0.3,0.3
			C-112.7,457.5-112.7,457.6-112.7,457.6z M-113,442.9c0.2,0,0.3,0.1,0.3,0.3s-0.1,0.3-0.3,0.3s-0.3-0.1-0.3-0.3
			S-113.2,442.9-113,442.9z M-113.4,440.3c0-0.2,0.1-0.3,0.3-0.3s0.3,0.1,0.3,0.3c0,0.2-0.1,0.3-0.3,0.3S-113.4,440.5-113.4,440.3z
			 M-113,445.8c0.2,0,0.3,0.1,0.3,0.3c0,0.2-0.1,0.3-0.3,0.3s-0.3-0.1-0.3-0.3C-113.4,445.9-113.2,445.8-113,445.8z M-113,448.6
			c0.2,0,0.3,0.1,0.3,0.3c0,0.2-0.1,0.3-0.3,0.3s-0.3-0.1-0.3-0.3C-113.4,448.8-113.2,448.6-113,448.6z M-113,451.5
			c0.2,0,0.3,0.1,0.3,0.3c0,0.2-0.1,0.3-0.3,0.3s-0.3-0.1-0.3-0.3C-113.4,451.7-113.2,451.5-113,451.5z M-113,454.4
			c0.2,0,0.3,0.1,0.3,0.3c0,0.2-0.1,0.3-0.3,0.3s-0.3-0.1-0.3-0.3C-113.4,454.5-113.2,454.4-113,454.4z M-110.1,477.9
			c-0.2,0-0.3-0.1-0.3-0.3c0-0.2,0.1-0.3,0.3-0.3s0.3,0.1,0.3,0.3C-109.8,477.8-109.9,477.9-110.1,477.9z M-110.1,457.8
			c-0.2,0-0.3-0.1-0.3-0.3c0-0.2,0.1-0.3,0.3-0.3s0.3,0.1,0.3,0.3C-109.8,457.7-109.9,457.8-110.1,457.8z M-109.3,437.9
			c-0.5,0.8-1.5,1-2.3,0.6l-1.2-0.8c0,0-0.1,0-0.2,0c-0.2,0-0.3-0.1-0.3-0.3c0,0,0,0,0,0l-5.3-3.3c-0.8-0.5-1-1.5-0.6-2.3
			c0.5-0.8,1.5-1,2.3-0.6l7,4.3C-109.1,436.1-108.9,437.1-109.3,437.9z M-113,431.3c0.2,0,0.3,0.1,0.3,0.3c0,0.2-0.1,0.3-0.3,0.3
			s-0.3-0.1-0.3-0.3C-113.4,431.5-113.2,431.3-113,431.3z M-113.4,428.8c0-0.2,0.1-0.3,0.3-0.3s0.3,0.1,0.3,0.3
			c0,0.2-0.1,0.3-0.3,0.3S-113.4,429-113.4,428.8z M-107.2,477.9c-0.2,0-0.3-0.1-0.3-0.3c0-0.2,0.1-0.3,0.3-0.3
			c0.2,0,0.3,0.1,0.3,0.3C-106.9,477.8-107.1,477.9-107.2,477.9z M-107.2,457.8c-0.2,0-0.3-0.1-0.3-0.3c0-0.2,0.1-0.3,0.3-0.3
			c0.2,0,0.3,0.1,0.3,0.3C-106.9,457.7-107.1,457.8-107.2,457.8z M-104.3,477.9c-0.2,0-0.3-0.1-0.3-0.3c0-0.2,0.1-0.3,0.3-0.3
			c0.2,0,0.3,0.1,0.3,0.3C-104,477.8-104.2,477.9-104.3,477.9z M-104.3,457.8c-0.2,0-0.3-0.1-0.3-0.3c0-0.2,0.1-0.3,0.3-0.3
			c0.2,0,0.3,0.1,0.3,0.3C-104,457.7-104.2,457.8-104.3,457.8z M-101.5,477.9c-0.2,0-0.3-0.1-0.3-0.3c0-0.2,0.1-0.3,0.3-0.3
			c0.2,0,0.3,0.1,0.3,0.3C-101.1,477.8-101.3,477.9-101.5,477.9z M-101.5,457.8c-0.2,0-0.3-0.1-0.3-0.3c0-0.2,0.1-0.3,0.3-0.3
			c0.2,0,0.3,0.1,0.3,0.3C-101.1,457.7-101.3,457.8-101.5,457.8z M-98.6,477.9c-0.2,0-0.3-0.1-0.3-0.3c0-0.2,0.1-0.3,0.3-0.3
			c0.2,0,0.3,0.1,0.3,0.3C-98.3,477.8-98.4,477.9-98.6,477.9z M-98.6,457.8c-0.2,0-0.3-0.1-0.3-0.3c0-0.2,0.1-0.3,0.3-0.3
			c0.2,0,0.3,0.1,0.3,0.3C-98.3,457.7-98.4,457.8-98.6,457.8z M-95.7,477.9c-0.2,0-0.3-0.1-0.3-0.3c0-0.2,0.1-0.3,0.3-0.3
			s0.3,0.1,0.3,0.3C-95.4,477.8-95.5,477.9-95.7,477.9z M-95.7,457.8c-0.2,0-0.3-0.1-0.3-0.3c0-0.2,0.1-0.3,0.3-0.3s0.3,0.1,0.3,0.3
			C-95.4,457.7-95.5,457.8-95.7,457.8z M-92.9,495.4c-0.2,0-0.3-0.1-0.3-0.3c0-0.2,0.1-0.3,0.3-0.3s0.3,0.1,0.3,0.3
			C-92.6,495.3-92.7,495.4-92.9,495.4z M-92.9,492.5c-0.2,0-0.3-0.1-0.3-0.3c0-0.2,0.1-0.3,0.3-0.3s0.3,0.1,0.3,0.3
			C-92.6,492.4-92.7,492.5-92.9,492.5z M-92.9,489.7c-0.2,0-0.3-0.1-0.3-0.3c0-0.2,0.1-0.3,0.3-0.3s0.3,0.1,0.3,0.3
			C-92.6,489.5-92.7,489.7-92.9,489.7z M-92.9,486.8c-0.2,0-0.3-0.1-0.3-0.3c0-0.2,0.1-0.3,0.3-0.3s0.3,0.1,0.3,0.3
			C-92.6,486.6-92.7,486.8-92.9,486.8z M-92.9,483.9c-0.2,0-0.3-0.1-0.3-0.3c0-0.2,0.1-0.3,0.3-0.3s0.3,0.1,0.3,0.3
			C-92.6,483.7-92.7,483.9-92.9,483.9z M-92.9,481c-0.2,0-0.3-0.1-0.3-0.3c0-0.2,0.1-0.3,0.3-0.3s0.3,0.1,0.3,0.3
			C-92.6,480.9-92.7,481-92.9,481z M-92.6,477.9c0,0.1-0.1,0.3-0.3,0.3c-0.2,0-0.3-0.1-0.3-0.3c0-0.1,0.1-0.2,0.1-0.2
			c0-0.1,0.1-0.3,0.3-0.3c0.2,0,0.3,0.1,0.3,0.3C-92.5,477.7-92.5,477.8-92.6,477.9z M-92.9,474.6c0.2,0,0.3,0.1,0.3,0.3
			c0,0.2-0.1,0.3-0.3,0.3s-0.3-0.1-0.3-0.3C-93.3,474.7-93.1,474.6-92.9,474.6z M-93.3,472c0-0.2,0.1-0.3,0.3-0.3s0.3,0.1,0.3,0.3
			c0,0.2-0.1,0.3-0.3,0.3S-93.3,472.2-93.3,472z M-89.9,477.9c-0.2,0-0.3-0.1-0.3-0.3c0-0.2,0.1-0.3,0.3-0.3c0.2,0,0.3,0.1,0.3,0.3
			C-89.6,477.8-89.8,477.9-89.9,477.9z M-87,477.9c-0.2,0-0.3-0.1-0.3-0.3c0-0.2,0.1-0.3,0.3-0.3c0.2,0,0.3,0.1,0.3,0.3
			C-86.7,477.8-86.9,477.9-87,477.9z M-87,457.8c-0.2,0-0.3-0.1-0.3-0.3c0-0.2,0.1-0.3,0.3-0.3c0.2,0,0.3,0.1,0.3,0.3
			C-86.7,457.7-86.9,457.8-87,457.8z M-84.2,477.9c-0.2,0-0.3-0.1-0.3-0.3c0-0.2,0.1-0.3,0.3-0.3c0.2,0,0.3,0.1,0.3,0.3
			C-83.8,477.8-84,477.9-84.2,477.9z M-84.2,457.8c-0.2,0-0.3-0.1-0.3-0.3c0-0.2,0.1-0.3,0.3-0.3c0.2,0,0.3,0.1,0.3,0.3
			C-83.8,457.7-84,457.8-84.2,457.8z M-84.2,437.7c-0.2,0-0.3-0.1-0.3-0.3c0-0.2,0.1-0.3,0.3-0.3c0.2,0,0.3,0.1,0.3,0.3
			C-83.8,437.6-84,437.7-84.2,437.7z M-81.3,477.9c-0.2,0-0.3-0.1-0.3-0.3c0-0.2,0.1-0.3,0.3-0.3c0.2,0,0.3,0.1,0.3,0.3
			C-81,477.8-81.1,477.9-81.3,477.9z M-81.3,457.8c-0.2,0-0.3-0.1-0.3-0.3c0-0.2,0.1-0.3,0.3-0.3c0.2,0,0.3,0.1,0.3,0.3
			C-81,457.7-81.1,457.8-81.3,457.8z M-81.3,437.7c-0.2,0-0.3-0.1-0.3-0.3c0-0.2,0.1-0.3,0.3-0.3c0.2,0,0.3,0.1,0.3,0.3
			C-81,437.6-81.1,437.7-81.3,437.7z M-78.4,477.9c-0.2,0-0.3-0.1-0.3-0.3c0-0.2,0.1-0.3,0.3-0.3s0.3,0.1,0.3,0.3
			C-78.1,477.8-78.2,477.9-78.4,477.9z M-78.4,457.8c-0.2,0-0.3-0.1-0.3-0.3c0-0.2,0.1-0.3,0.3-0.3s0.3,0.1,0.3,0.3
			C-78.1,457.7-78.2,457.8-78.4,457.8z M-78.4,437.7c-0.2,0-0.3-0.1-0.3-0.3c0-0.2,0.1-0.3,0.3-0.3s0.3,0.1,0.3,0.3
			C-78.1,437.6-78.2,437.7-78.4,437.7z M-75.5,477.9c-0.2,0-0.3-0.1-0.3-0.3c0-0.2,0.1-0.3,0.3-0.3c0.2,0,0.3,0.1,0.3,0.3
			C-75.2,477.8-75.3,477.9-75.5,477.9z M-75.5,457.8c-0.2,0-0.3-0.1-0.3-0.3c0-0.2,0.1-0.3,0.3-0.3c0.2,0,0.3,0.1,0.3,0.3
			C-75.2,457.7-75.3,457.8-75.5,457.8z M-75.5,437.7c-0.2,0-0.3-0.1-0.3-0.3c0-0.2,0.1-0.3,0.3-0.3c0.2,0,0.3,0.1,0.3,0.3
			C-75.2,437.6-75.3,437.7-75.5,437.7z M-72.8,495.4c-0.2,0-0.3-0.1-0.3-0.3c0-0.2,0.1-0.3,0.3-0.3s0.3,0.1,0.3,0.3
			C-72.5,495.3-72.6,495.4-72.8,495.4z M-72.8,492.5c-0.2,0-0.3-0.1-0.3-0.3c0-0.2,0.1-0.3,0.3-0.3s0.3,0.1,0.3,0.3
			C-72.5,492.4-72.6,492.5-72.8,492.5z M-72.8,489.7c-0.2,0-0.3-0.1-0.3-0.3c0-0.2,0.1-0.3,0.3-0.3s0.3,0.1,0.3,0.3
			C-72.5,489.5-72.6,489.7-72.8,489.7z M-72.8,486.8c-0.2,0-0.3-0.1-0.3-0.3c0-0.2,0.1-0.3,0.3-0.3s0.3,0.1,0.3,0.3
			C-72.5,486.6-72.6,486.8-72.8,486.8z M-72.8,483.9c-0.2,0-0.3-0.1-0.3-0.3c0-0.2,0.1-0.3,0.3-0.3s0.3,0.1,0.3,0.3
			C-72.5,483.7-72.6,483.9-72.8,483.9z M-72.8,481c-0.2,0-0.3-0.1-0.3-0.3c0-0.2,0.1-0.3,0.3-0.3s0.3,0.1,0.3,0.3
			C-72.5,480.9-72.6,481-72.8,481z M-72.5,477.9c0,0.1-0.1,0.2-0.3,0.2c-0.2,0-0.3-0.1-0.3-0.3c0-0.1,0.1-0.2,0.2-0.3
			c0-0.1,0.1-0.2,0.3-0.2c0.2,0,0.3,0.1,0.3,0.3C-72.3,477.8-72.4,477.8-72.5,477.9z M-72.8,463.1c0.2,0,0.3,0.1,0.3,0.3
			c0,0.2-0.1,0.3-0.3,0.3s-0.3-0.1-0.3-0.3C-73.1,463.2-73,463.1-72.8,463.1z M-73.1,460.5c0-0.2,0.1-0.3,0.3-0.3
			c0.2,0,0.3,0.1,0.3,0.3c0,0.2-0.1,0.3-0.3,0.3C-73,460.8-73.1,460.7-73.1,460.5z M-72.8,465.9c0.2,0,0.3,0.1,0.3,0.3
			c0,0.2-0.1,0.3-0.3,0.3s-0.3-0.1-0.3-0.3C-73.1,466.1-73,465.9-72.8,465.9z M-72.8,468.8c0.2,0,0.3,0.1,0.3,0.3s-0.1,0.3-0.3,0.3
			s-0.3-0.1-0.3-0.3S-73,468.8-72.8,468.8z M-72.8,471.7c0.2,0,0.3,0.1,0.3,0.3c0,0.2-0.1,0.3-0.3,0.3s-0.3-0.1-0.3-0.3
			C-73.1,471.8-73,471.7-72.8,471.7z M-72.8,474.6c0.2,0,0.3,0.1,0.3,0.3c0,0.2-0.1,0.3-0.3,0.3s-0.3-0.1-0.3-0.3
			C-73.1,474.7-73,474.6-72.8,474.6z M-72.6,457.8c-0.1,0.1-0.1,0.1-0.2,0.1c-0.2,0-0.3-0.1-0.3-0.3c0-0.2,0.1-0.3,0.3-0.3
			c0.1-0.1,0.1-0.1,0.2-0.1c0.2,0,0.3,0.1,0.3,0.3C-72.3,457.7-72.4,457.8-72.6,457.8z M-72.8,442.9c0.2,0,0.3,0.1,0.3,0.3
			s-0.1,0.3-0.3,0.3s-0.3-0.1-0.3-0.3S-73,442.9-72.8,442.9z M-73.1,440.3c0-0.2,0.1-0.3,0.3-0.3c0.2,0,0.3,0.1,0.3,0.3
			c0,0.2-0.1,0.3-0.3,0.3C-73,440.6-73.1,440.5-73.1,440.3z M-72.8,445.8c0.2,0,0.3,0.1,0.3,0.3c0,0.2-0.1,0.3-0.3,0.3
			s-0.3-0.1-0.3-0.3C-73.1,445.9-73,445.8-72.8,445.8z M-72.8,448.6c0.2,0,0.3,0.1,0.3,0.3c0,0.2-0.1,0.3-0.3,0.3s-0.3-0.1-0.3-0.3
			C-73.1,448.8-73,448.6-72.8,448.6z M-72.8,451.5c0.2,0,0.3,0.1,0.3,0.3c0,0.2-0.1,0.3-0.3,0.3s-0.3-0.1-0.3-0.3
			C-73.1,451.7-73,451.5-72.8,451.5z M-72.8,454.4c0.2,0,0.3,0.1,0.3,0.3c0,0.2-0.1,0.3-0.3,0.3s-0.3-0.1-0.3-0.3
			C-73.1,454.5-73,454.4-72.8,454.4z M-72.6,437.7C-72.7,437.7-72.7,437.7-72.6,437.7c-0.1,0-0.1,0-0.2,0c-0.2,0-0.3-0.1-0.3-0.3
			c0-0.2,0.1-0.3,0.3-0.3c0,0,0,0,0,0c0,0,0.1-0.1,0.1-0.1c0.2,0,0.3,0.1,0.3,0.3C-72.3,437.6-72.5,437.7-72.6,437.7z M-73.1,434.5
			c0-0.2,0.1-0.3,0.3-0.3c0.2,0,0.3,0.1,0.3,0.3c0,0.2-0.1,0.3-0.3,0.3C-73,434.9-73.1,434.7-73.1,434.5z M-69.8,477.9
			c-0.2,0-0.3-0.1-0.3-0.3c0-0.2,0.1-0.3,0.3-0.3c0.2,0,0.3,0.1,0.3,0.3C-69.4,477.8-69.6,477.9-69.8,477.9z M-69.8,457.8
			c-0.2,0-0.3-0.1-0.3-0.3c0-0.2,0.1-0.3,0.3-0.3c0.2,0,0.3,0.1,0.3,0.3C-69.4,457.7-69.6,457.8-69.8,457.8z M-69.8,437.7
			c-0.2,0-0.3-0.1-0.3-0.3c0-0.2,0.1-0.3,0.3-0.3c0.2,0,0.3,0.1,0.3,0.3C-69.4,437.6-69.6,437.7-69.8,437.7z M-66.9,477.9
			c-0.2,0-0.3-0.1-0.3-0.3c0-0.2,0.1-0.3,0.3-0.3s0.3,0.1,0.3,0.3C-66.5,477.8-66.7,477.9-66.9,477.9z M-66.9,457.8
			c-0.2,0-0.3-0.1-0.3-0.3c0-0.2,0.1-0.3,0.3-0.3s0.3,0.1,0.3,0.3C-66.5,457.7-66.7,457.8-66.9,457.8z M-66.9,437.7
			c-0.2,0-0.3-0.1-0.3-0.3c0-0.2,0.1-0.3,0.3-0.3s0.3,0.1,0.3,0.3C-66.5,437.6-66.7,437.7-66.9,437.7z M-64,477.9
			c-0.2,0-0.3-0.1-0.3-0.3c0-0.2,0.1-0.3,0.3-0.3s0.3,0.1,0.3,0.3C-63.7,477.8-63.8,477.9-64,477.9z M-64,457.8
			c-0.2,0-0.3-0.1-0.3-0.3c0-0.2,0.1-0.3,0.3-0.3s0.3,0.1,0.3,0.3C-63.7,457.7-63.8,457.8-64,457.8z M-64,437.7
			c-0.2,0-0.3-0.1-0.3-0.3c0-0.2,0.1-0.3,0.3-0.3s0.3,0.1,0.3,0.3C-63.7,437.6-63.8,437.7-64,437.7z M-61.1,477.9
			c-0.2,0-0.3-0.1-0.3-0.3c0-0.2,0.1-0.3,0.3-0.3c0.2,0,0.3,0.1,0.3,0.3C-60.8,477.8-60.9,477.9-61.1,477.9z M-61.1,457.8
			c-0.2,0-0.3-0.1-0.3-0.3c0-0.2,0.1-0.3,0.3-0.3c0.2,0,0.3,0.1,0.3,0.3C-60.8,457.7-60.9,457.8-61.1,457.8z M-61.1,437.7
			c-0.2,0-0.3-0.1-0.3-0.3c0-0.2,0.1-0.3,0.3-0.3c0.2,0,0.3,0.1,0.3,0.3C-60.8,437.6-60.9,437.7-61.1,437.7z M-61.9,426.7l-6.3,0
			c-0.5,2.3-2.2,4.1-4.4,4.9c0,0,0,0,0,0.1c0,0.2-0.1,0.3-0.3,0.3c-0.1,0-0.3-0.1-0.3-0.2c-0.6,0.2-1.1,0.3-1.8,0.3
			c-3.3,0-6-2.2-6.8-5.2l-7.8,0l0.1,15.5c0.5,0.2,0.9,0.4,1.3,0.6c3.3,2,4.3,6.3,2.3,9.6c-0.9,1.4-2.1,2.4-3.6,2.9l0.1,16
			c0,0.9-0.8,1.7-1.7,1.7c-0.9,0-1.7-0.8-1.7-1.7l0-2c-0.1,0-0.1,0.1-0.2,0.1c-0.2,0-0.3-0.1-0.3-0.3c0-0.2,0.1-0.3,0.3-0.3
			c0.1,0,0.2,0,0.2,0.1l0-2.4c-0.1,0-0.1,0.1-0.2,0.1c-0.2,0-0.3-0.1-0.3-0.3c0-0.2,0.1-0.3,0.3-0.3c0.1,0,0.1,0,0.2,0.1l0-2.4
			c-0.1,0-0.1,0.1-0.2,0.1c-0.2,0-0.3-0.1-0.3-0.3c0-0.2,0.1-0.3,0.3-0.3c0.1,0,0.1,0,0.2,0.1l0-2.4c-0.1,0-0.1,0.1-0.2,0.1
			c-0.2,0-0.3-0.1-0.3-0.3c0-0.2,0.1-0.3,0.3-0.3c0.1,0,0.1,0,0.2,0.1l0-2.4c0,0-0.1,0.1-0.2,0.1c-0.2,0-0.3-0.1-0.3-0.3
			c0-0.1,0.1-0.2,0.2-0.3c0.1-0.1,0.1-0.2,0.3-0.2c0,0,0,0,0.1,0l0-1.5c-0.9-0.1-1.8-0.5-2.6-1c-1.9-1.1-3-3-3.3-5
			c-1.9,0.7-4.1,0.5-6-0.6c-3.3-2-4.3-6.3-2.3-9.6c0.6-1,1.4-1.7,2.3-2.3c0.1-0.1,0.1-0.2,0.3-0.2c0,0,0,0,0,0
			c2.1-1.2,4.8-1.2,7,0.2c1.9,1.1,3,3,3.3,5c0.4-0.1,0.8-0.2,1.3-0.3l0-1.4c0,0-0.1,0-0.1,0c-0.2,0-0.3-0.1-0.3-0.3
			c0-0.2,0.1-0.3,0.3-0.3c0,0,0.1,0,0.1,0l0-2.3c0,0,0,0,0,0c0,0-0.1,0-0.1,0c-0.2,0-0.3-0.1-0.3-0.3c0-0.2,0.1-0.3,0.3-0.3
			c0,0,0,0,0,0c0,0,0.1,0,0.1,0l0-2.2c0,0-0.1,0-0.1,0c-0.2,0-0.3-0.1-0.3-0.3c0-0.2,0.1-0.3,0.3-0.3c0,0,0.1,0,0.1,0l0-2.3
			c0,0-0.1,0-0.1,0c-0.2,0-0.3-0.1-0.3-0.3c0-0.2,0.1-0.3,0.3-0.3c0,0,0.1,0,0.1,0l0-2.3c0,0,0,0-0.1,0c-0.2,0-0.3-0.1-0.3-0.3
			c0-0.2,0.1-0.3,0.3-0.3c0,0,0,0,0.1,0l0-1.7l-27.4,0.1c-0.7,3-3.5,5.3-6.7,5.3c-2.5,0-4.6-1.3-5.9-3.2c-0.1,0.1-0.1,0.1-0.2,0.1
			c-0.2,0-0.3-0.1-0.3-0.3c0-0.2,0.1-0.3,0.3-0.3c-0.5-1-0.8-2.1-0.8-3.2c0-1.3,0.3-2.4,0.9-3.5l-13-12.9c-1.1,0.7-2.3,1.1-3.7,1.1
			c-3.8,0-7-3.1-7-6.9c0-1.4,0.4-2.6,1.1-3.7l-15.3-15.2c-0.7-0.7-0.7-1.7,0-2.4c0.7-0.7,1.7-0.7,2.4,0l15.2,15.1
			c0,0,0.1-0.1,0.2-0.1c0.1,0,0.1,0,0.2,0.1c1-0.5,2.1-0.8,3.2-0.8c3.9,0,7,3.1,7,6.9c0,1.3-0.3,2.4-0.9,3.5l10.6,10.5c0,0,0,0,0,0
			c0.2,0,0.3,0.1,0.3,0.3c0,0,0,0,0,0l2.1,2c1.1-0.7,2.3-1.1,3.7-1.1c3.3,0,6,2.2,6.8,5.2l27.4-0.1v-0.1c0,0,0,0-0.1,0
			c-0.2,0-0.3-0.1-0.3-0.3c0-0.2,0.1-0.3,0.3-0.3c0,0,0,0,0.1,0l0-2.3c0,0,0,0,0,0c-0.2,0-0.3-0.1-0.3-0.3s0.1-0.3,0.3-0.3
			c0,0,0,0,0,0l0-2.2c0,0,0,0,0,0c0,0,0,0,0,0c-0.2,0-0.3-0.1-0.3-0.3c0-0.2,0.1-0.3,0.3-0.3c0,0,0,0,0,0l0-2.3c0,0,0,0,0,0
			c-0.2,0-0.3-0.1-0.3-0.3c0-0.2,0.1-0.3,0.3-0.3c0,0,0,0,0,0l0-2.3c0,0,0,0,0,0c-0.2,0-0.3-0.1-0.3-0.3c0-0.2,0.1-0.3,0.3-0.3
			c0,0,0,0,0,0l0-1.7c-3-0.7-5.3-3.5-5.3-6.7c0-2.1,0.9-4,2.4-5.3c-0.1,0-0.3-0.1-0.3-0.3c0-0.2,0.1-0.3,0.3-0.3s0.3,0.1,0.3,0.3
			c0,0,0,0,0,0c0.7-0.5,1.5-0.9,2.4-1.2l0-1.5c-0.2,0-0.3-0.1-0.3-0.3c0-0.2,0.1-0.3,0.3-0.3l0-2.3c-0.2,0-0.3-0.1-0.3-0.3
			c0-0.2,0.1-0.3,0.3-0.3l0-2.3c-0.2,0-0.3-0.1-0.3-0.3c0-0.2,0.1-0.3,0.3-0.3c0,0,0,0,0,0c0.2-0.7,0.8-1.2,1.6-1.2
			c0.9,0,1.7,0.8,1.7,1.7l0,7.4c0.8,0.2,1.6,0.6,2.2,1c0.1-0.1,0.1-0.2,0.3-0.2c0.2,0,0.3,0.1,0.3,0.3c0,0.1,0,0.2-0.1,0.2
			c1.5,1.3,2.5,3.2,2.5,5.3c0,3.3-2.2,6-5.3,6.8l0,13.9l7.8,0c0.7-3,3.5-5.3,6.7-5.3c3.3,0,6,2.2,6.8,5.2l6.3,0
			c0.9,0,1.7,0.8,1.7,1.7C-60.2,425.9-60.9,426.7-61.9,426.7z M-86.7,437.4c0,0.2-0.1,0.3-0.3,0.3c-0.2,0-0.3-0.1-0.3-0.3
			c0-0.2,0.1-0.3,0.3-0.3C-86.9,437.1-86.7,437.2-86.7,437.4z M-107.6,437.4c0-0.2,0.1-0.3,0.3-0.3c0.2,0,0.3,0.1,0.3,0.3
			c0,0.2-0.1,0.3-0.3,0.3C-107.4,437.7-107.6,437.6-107.6,437.4z M-96,437.4c0-0.2,0.1-0.3,0.3-0.3s0.3,0.1,0.3,0.3
			c0,0.2-0.1,0.3-0.3,0.3S-96,437.6-96,437.4z M-96,417.3c0-0.2,0.1-0.3,0.3-0.3s0.3,0.1,0.3,0.3c0,0.2-0.1,0.3-0.3,0.3
			S-96,417.5-96,417.3z M-86.7,417.3c0,0.2-0.1,0.3-0.3,0.3c-0.2,0-0.3-0.1-0.3-0.3c0-0.2,0.1-0.3,0.3-0.3
			C-86.9,417-86.7,417.1-86.7,417.3z M-58.2,477.9c-0.2,0-0.3-0.1-0.3-0.3c0-0.2,0.1-0.3,0.3-0.3c0.2,0,0.3,0.1,0.3,0.3
			C-57.9,477.8-58,477.9-58.2,477.9z M-58.2,457.8c-0.2,0-0.3-0.1-0.3-0.3c0-0.2,0.1-0.3,0.3-0.3c0.2,0,0.3,0.1,0.3,0.3
			C-57.9,457.7-58,457.8-58.2,457.8z M-58.2,437.7c-0.2,0-0.3-0.1-0.3-0.3c0-0.2,0.1-0.3,0.3-0.3c0.2,0,0.3,0.1,0.3,0.3
			C-57.9,437.6-58,437.7-58.2,437.7z M-58.2,417.6c-0.2,0-0.3-0.1-0.3-0.3c0-0.2,0.1-0.3,0.3-0.3c0.2,0,0.3,0.1,0.3,0.3
			C-57.9,417.5-58,417.6-58.2,417.6z M-58.2,397.5c-0.2,0-0.3-0.1-0.3-0.3s0.1-0.3,0.3-0.3c0.2,0,0.3,0.1,0.3,0.3
			S-58,397.5-58.2,397.5z M-58.2,377.4c-0.2,0-0.3-0.1-0.3-0.3c0-0.2,0.1-0.3,0.3-0.3c0.2,0,0.3,0.1,0.3,0.3
			C-57.9,377.3-58,377.4-58.2,377.4z M-55.3,477.9c-0.2,0-0.3-0.1-0.3-0.3c0-0.2,0.1-0.3,0.3-0.3c0.2,0,0.3,0.1,0.3,0.3
			C-55,477.8-55.2,477.9-55.3,477.9z M-55.3,457.8c-0.2,0-0.3-0.1-0.3-0.3c0-0.2,0.1-0.3,0.3-0.3c0.2,0,0.3,0.1,0.3,0.3
			C-55,457.7-55.2,457.8-55.3,457.8z M-55.3,437.7c-0.2,0-0.3-0.1-0.3-0.3c0-0.2,0.1-0.3,0.3-0.3c0.2,0,0.3,0.1,0.3,0.3
			C-55,437.6-55.2,437.7-55.3,437.7z M-55.3,417.6c-0.2,0-0.3-0.1-0.3-0.3c0-0.2,0.1-0.3,0.3-0.3c0.2,0,0.3,0.1,0.3,0.3
			C-55,417.5-55.2,417.6-55.3,417.6z M-55.3,397.5c-0.2,0-0.3-0.1-0.3-0.3s0.1-0.3,0.3-0.3c0.2,0,0.3,0.1,0.3,0.3
			S-55.2,397.5-55.3,397.5z M-55.3,377.4c-0.2,0-0.3-0.1-0.3-0.3c0-0.2,0.1-0.3,0.3-0.3c0.2,0,0.3,0.1,0.3,0.3
			C-55,377.3-55.2,377.4-55.3,377.4z"/>
		<path d="M-149.9,399.1c-2.1,0-3.9,1.8-3.9,3.9c0,2.1,1.8,3.9,3.9,3.9c2.1,0,3.9-1.7,3.9-3.9C-146,400.8-147.7,399.1-149.9,399.1z
			 M-153.2,403.2c-0.2,0-0.3-0.1-0.3-0.3c0-0.2,0.1-0.3,0.3-0.3s0.3,0.1,0.3,0.3C-152.9,403-153.1,403.2-153.2,403.2z"/>
		<path d="M-74.9,421.2c-2.1,0-3.9,1.7-3.9,3.9c0,2.1,1.7,3.9,3.9,3.9c2.1,0,3.9-1.7,3.9-3.9C-71,422.9-72.8,421.2-74.9,421.2z
			 M-72.8,426.2c-0.2,0-0.3-0.1-0.3-0.3s0.1-0.3,0.3-0.3s0.3,0.1,0.3,0.3S-72.6,426.2-72.8,426.2z M-72.8,423.3
			c-0.2,0-0.3-0.1-0.3-0.3c0-0.2,0.1-0.3,0.3-0.3s0.3,0.1,0.3,0.3C-72.5,423.2-72.6,423.3-72.8,423.3z"/>
		<circle cx="-127.1" cy="425.2" r="3.9"/>
		<path d="M-87.4,402.7c0-2.1-1.8-3.9-3.9-3.9c-2.1,0-3.9,1.8-3.9,3.9c0,2.1,1.7,3.9,3.9,3.9C-89.1,406.6-87.4,404.9-87.4,402.7z
			 M-92.9,406c-0.2,0-0.3-0.1-0.3-0.3c0-0.2,0.1-0.3,0.3-0.3s0.3,0.1,0.3,0.3C-92.6,405.9-92.7,406-92.9,406z M-92.9,403.2
			c-0.2,0-0.3-0.1-0.3-0.3c0-0.2,0.1-0.3,0.3-0.3s0.3,0.1,0.3,0.3C-92.6,403-92.7,403.2-92.9,403.2z M-92.9,400.3
			c-0.2,0-0.3-0.1-0.3-0.3s0.1-0.3,0.3-0.3s0.3,0.1,0.3,0.3S-92.7,400.3-92.9,400.3z"/>
		<path d="M-94.4,446l-2.9-1.8c0.5-1.6-0.2-3.4-1.7-4.4c-1.8-1.1-4.2-0.5-5.3,1.3c-1.1,1.8-0.6,4.2,1.3,5.3c1.5,0.9,3.4,0.7,4.6-0.5
			l2.9,1.8c-0.5,1.6,0.2,3.4,1.7,4.4c1.8,1.1,4.2,0.5,5.3-1.3c1.1-1.8,0.5-4.2-1.3-5.3C-91.2,444.6-93.1,444.8-94.4,446z
			 M-92.9,452.2c-0.2,0-0.3-0.1-0.3-0.3s0.1-0.3,0.3-0.3s0.3,0.1,0.3,0.3S-92.7,452.2-92.9,452.2z M-92.9,449.3
			c-0.2,0-0.3-0.1-0.3-0.3c0-0.2,0.1-0.3,0.3-0.3s0.3,0.1,0.3,0.3C-92.6,449.1-92.7,449.3-92.9,449.3z M-92.9,446.4
			c-0.2,0-0.3-0.1-0.3-0.3c0-0.2,0.1-0.3,0.3-0.3s0.3,0.1,0.3,0.3C-92.6,446.3-92.7,446.4-92.9,446.4z"/>
	</g>
</g>
</svg>
