<?xml version="1.0" encoding="utf-8"?>
<!-- Generator: Adobe Illustrator 19.0.0, SVG Export Plug-In . SVG Version: 6.00 Build 0)  -->
<svg version="1.1" id="Capa_1" xmlns="http://www.w3.org/2000/svg" xmlns:xlink="http://www.w3.org/1999/xlink" x="0px" y="0px"
	 viewBox="-210 325.9 173.5 190" style="enable-background:new -210 325.9 173.5 190;" xml:space="preserve">
<style type="text/css">
	.st0{clip-path:url(#SVGID_1_);}
</style>
<g id="XMLID_100_">
	<path d="M-45.1,494.1h-156.3c-2,0-3.8-1-4.8-2.7s-1-3.8,0-5.5l78.1-135.4c1-1.7,2.8-2.8,4.8-2.8l0,0c2,0,3.8,1,4.8,2.7l78.2,135.4
		c1,1.7,1,3.8,0,5.5C-41.3,493-43.1,494.1-45.1,494.1z M-191.9,483.1h137.3l-68.7-118.9L-191.9,483.1z"/>
</g>
<g>
	<g>
		<defs>
			<rect id="SVGID_3_" x="-158.2" y="407.7" width="69.8" height="73.1"/>
		</defs>
		<clipPath id="SVGID_1_">
			<use xlink:href="#SVGID_3_"  style="overflow:visible;"/>
		</clipPath>
		<path class="st0" d="M-88.9,454.3l-7.3-10.1l7.3-10.1c0.2-0.4,0.3-0.7,0.2-1.2c-0.1-0.4-0.4-0.7-0.8-0.8l-11.9-3.9v-12.5
			c0-0.4-0.2-0.8-0.5-1.1c-0.4-0.3-0.8-0.3-1.2-0.2l-11.9,3.8l-7.3-10.1c-0.2-0.3-0.6-0.5-1.1-0.5c-0.5,0-0.8,0.2-1.1,0.5l-7.3,10.1
			l-11.9-3.8c-0.4-0.2-0.8-0.1-1.2,0.2c-0.4,0.3-0.5,0.6-0.5,1.1v12.5l-11.9,3.9c-0.4,0.1-0.7,0.4-0.8,0.8c-0.1,0.4-0.1,0.8,0.2,1.2
			l7.3,10.1l-7.3,10.1c-0.2,0.3-0.3,0.7-0.2,1.2c0.1,0.4,0.4,0.7,0.8,0.8l11.9,3.9v12.5c0,0.4,0.2,0.8,0.5,1.1
			c0.4,0.3,0.8,0.3,1.2,0.2l11.9-3.8l7.3,10.1c0.3,0.4,0.6,0.5,1.1,0.5c0.4,0,0.8-0.2,1.1-0.5l7.3-10.1l11.9,3.8
			c0.4,0.2,0.8,0.1,1.2-0.2c0.4-0.3,0.5-0.6,0.5-1.1v-12.5l11.9-3.9c0.4-0.1,0.7-0.4,0.8-0.8C-88.6,455-88.7,454.6-88.9,454.3
			L-88.9,454.3z M-101.8,453.3c-1.2,2.9-2.9,5.4-5,7.5c-2.1,2.1-4.6,3.8-7.5,5c-2.9,1.2-5.9,1.9-9.1,1.9c-3.2,0-6.2-0.6-9.1-1.9
			c-2.9-1.2-5.4-2.9-7.5-5s-3.8-4.6-5-7.5c-1.2-2.9-1.9-5.9-1.9-9.1c0-3.2,0.6-6.2,1.9-9.1c1.2-2.9,2.9-5.4,5-7.5
			c2.1-2.1,4.6-3.8,7.5-5c2.9-1.2,5.9-1.9,9.1-1.9c3.2,0,6.2,0.6,9.1,1.9c2.9,1.2,5.4,2.9,7.5,5c2.1,2.1,3.8,4.6,5,7.5
			c1.2,2.9,1.9,5.9,1.9,9.1C-100,447.4-100.6,450.4-101.8,453.3L-101.8,453.3z M-101.8,453.3"/>
	</g>
</g>
</svg>
