<?xml version="1.0" encoding="utf-8"?>
<!-- Generator: Adobe Illustrator 19.0.0, SVG Export Plug-In . SVG Version: 6.00 Build 0)  -->
<svg version="1.1" id="Capa_1" xmlns="http://www.w3.org/2000/svg" xmlns:xlink="http://www.w3.org/1999/xlink" x="0px" y="0px"
	 viewBox="-210 325.9 173.5 190" style="enable-background:new -210 325.9 173.5 190;" xml:space="preserve">
<g id="XMLID_100_">
	<path d="M-45.1,494.1h-156.3c-2,0-3.8-1-4.8-2.7s-1-3.8,0-5.5l78.1-135.4c1-1.7,2.8-2.8,4.8-2.8l0,0c2,0,3.8,1,4.8,2.7l78.2,135.4
		c1,1.7,1,3.8,0,5.5C-41.3,493-43.1,494.1-45.1,494.1z M-191.9,483.1h137.3l-68.7-118.9L-191.9,483.1z"/>
</g>
<path d="M-141.4,456.8h10.8v-8.3h12.1v17.2h12.8v-17.2h17.1v-12.1h-17.1v-17.2h-12.8v11.5h-12.1v-14.7h-10.8v14.7H-156v11.5h14.7
	L-141.4,456.8z M-114.6,440.2v-17.1h5.1v17.2h17.2v4.5h-17.2v17.2h-5.1v-17.2h-17.2v-4.5L-114.6,440.2z"/>
</svg>
