<?xml version="1.0" encoding="utf-8"?>
<!-- Generator: Adobe Illustrator 19.0.0, SVG Export Plug-In . SVG Version: 6.00 Build 0)  -->
<svg version="1.1" id="Capa_1" xmlns="http://www.w3.org/2000/svg" xmlns:xlink="http://www.w3.org/1999/xlink" x="0px" y="0px"
	 viewBox="-210 325.9 173.5 190" style="enable-background:new -210 325.9 173.5 190;" xml:space="preserve">
<g id="XMLID_100_">
	<path d="M-45.1,494.1h-156.3c-2,0-3.8-1-4.8-2.7s-1-3.8,0-5.5l78.1-135.4c1-1.7,2.8-2.8,4.8-2.8l0,0c2,0,3.8,1,4.8,2.7l78.2,135.4
		c1,1.7,1,3.8,0,5.5C-41.3,493-43.1,494.1-45.1,494.1z M-191.9,483.1h137.3l-68.7-118.9L-191.9,483.1z"/>
</g>
<g>
	<path d="M-107.1,438.5c2.4-1,3.6-3.7,2.6-6.1c-1-2.4-3.7-3.6-6.1-2.7c-2.4,1-3.6,3.7-2.6,6.1C-112.2,438.3-109.5,439.5-107.1,438.5
		"/>
	<path d="M-100.6,451.8c0.4,0.2,0.8,0.4,1.2,0.4c0.7,0,1.4-0.4,1.9-1.1l5.1-7.1c0.8-1.1,0.5-2.6-0.5-3.3c-1.1-0.8-2.6-0.5-3.3,0.5
		l-3.5,4.9c0,0-4.5-4.5-6.3-5.6c-2-0.9-4.4-1-5.2-0.9h-10.5c-0.7,0-1.4,0.3-1.9,0.9l-5.5,6.9c-0.8,1-0.7,2.5,0.4,3.3
		c0.4,0.3,1,0.5,1.5,0.5c0.7,0,1.4-0.3,1.9-0.9l4.8-6h3.9c-2.9,4.2-6.9,10-6.9,10.4h0c-0.5,0.8-0.6,1.8-0.2,2.7l2.6,6h-12.1
		c-1.7,0-3,1.4-3,3c0,1.7,1.4,3,3,3h16.7c1,0,2-0.5,2.5-1.4c0.6-0.9,0.7-1.9,0.3-2.9l-2.2-5h9.5l5.6,12.1c0.5,1.1,1.6,1.8,2.8,1.8
		c0.4,0,0.9-0.1,1.3-0.3c1.5-0.7,2.2-2.5,1.5-4l-6.5-13.9c-0.5-1.1-1.6-1.8-2.8-1.8h-5.9l4.8-6.9L-100.6,451.8z"/>
</g>
<g>
	<circle cx="-157.3" cy="417.3" r="1.4"/>
	<circle cx="-152.9" cy="420" r="1.4"/>
	<circle cx="-148.5" cy="428.1" r="1.4"/>
	<circle cx="-148.5" cy="422.7" r="1.4"/>
	<circle cx="-144.1" cy="430.8" r="1.4"/>
	<circle cx="-144.1" cy="425.4" r="1.4"/>
	<circle cx="-113.3" cy="427.5" r="1.4"/>
	<circle cx="-113.3" cy="422.1" r="1.4"/>
	<circle cx="-108.9" cy="424.8" r="1.4"/>
	<circle cx="-104.5" cy="427.5" r="1.4"/>
	<circle cx="-100.1" cy="430.2" r="1.4"/>
	<circle cx="-100.1" cy="435.6" r="1.4"/>
	<circle cx="-113.3" cy="417.3" r="1.4"/>
	<circle cx="-108.9" cy="420" r="1.4"/>
	<circle cx="-108.9" cy="414.6" r="1.4"/>
	<circle cx="-104.5" cy="422.7" r="1.4"/>
	<path d="M-96.1,424.1c-0.7,0-1.4-0.6-1.4-1.4c0-0.7,0.6-1.4,1.4-1.4c0.8,0,1.4,0.6,1.4,1.4C-94.7,423.5-95.3,424.1-96.1,424.1z"/>
	<circle cx="-100.1" cy="425.4" r="1.4"/>
	<circle cx="-100.1" cy="420" r="1.4"/>
	<circle cx="-139.9" cy="427.5" r="1.4"/>
	<circle cx="-139.9" cy="422.1" r="1.4"/>
	<circle cx="-135.5" cy="424.8" r="1.4"/>
	<circle cx="-131.1" cy="427.5" r="1.4"/>
	<circle cx="-126.7" cy="435.6" r="1.4"/>
	<circle cx="-126.7" cy="430.2" r="1.4"/>
	<circle cx="-122.3" cy="432.9" r="1.4"/>
	<circle cx="-117.9" cy="435.6" r="1.4"/>
	<circle cx="-135.5" cy="420" r="1.4"/>
	<circle cx="-131.1" cy="422.7" r="1.4"/>
	<circle cx="-126.7" cy="425.4" r="1.4"/>
	<circle cx="-126.7" cy="420" r="1.4"/>
	<circle cx="-122.3" cy="428.1" r="1.4"/>
	<circle cx="-122.3" cy="422.7" r="1.4"/>
	<circle cx="-117.9" cy="430.8" r="1.4"/>
	<circle cx="-96.1" cy="432.9" r="1.4"/>
	<circle cx="-117.9" cy="425.4" r="1.4"/>
	<circle cx="-117.9" cy="420" r="1.4"/>
</g>
</svg>
