<?xml version="1.0" encoding="utf-8"?>
<!-- Generator: Adobe Illustrator 19.0.0, SVG Export Plug-In . SVG Version: 6.00 Build 0)  -->
<svg version="1.1" id="Capa_1" xmlns="http://www.w3.org/2000/svg" xmlns:xlink="http://www.w3.org/1999/xlink" x="0px" y="0px"
	 viewBox="-210 325.9 173.5 190" style="enable-background:new -210 325.9 173.5 190;" xml:space="preserve">
<g id="XMLID_100_">
	<path d="M-45.1,494.1h-156.3c-2,0-3.8-1-4.8-2.7s-1-3.8,0-5.5l78.1-135.4c1-1.7,2.8-2.8,4.8-2.8l0,0c2,0,3.8,1,4.8,2.7l78.2,135.4
		c1,1.7,1,3.8,0,5.5C-41.3,493-43.1,494.1-45.1,494.1z M-191.9,483.1h137.3l-68.7-118.9L-191.9,483.1z"/>
</g>
<g>
	<path d="M-96,411.8c0.7,0.6,1.6,1.3,2.5,2c-3.2-3.3-6.9-6.1-11-8.2c0.2,0.1,0.3,0.2,0.5,0.3C-101.5,407.5-98.2,409.9-96,411.8z"/>
	<path d="M-100.5,413.9c2.2,1.3,10.8,8.3,13,10.7c1.3,1.4,3.5,6.9,5.3,11.9c-0.7-4.7-2.2-9.1-4.4-13.2c-1.1-1.3-2.6-2.7-3.8-4.1
		c-2.1-2.3-7.1-5.6-10.9-8.8c-3.8-3.2-6.7-5.4-10.7-7.2c-4-1.7-10-2.1-12.2-2.3c0,0-0.1,0-0.1,0c-2.4,0-4.7,0.2-7,0.7
		c6.7,0.7,15.8,2.3,19.7,3.5C-106.2,406.7-102.7,412.6-100.5,413.9z"/>
	<path d="M-86.7,429.2c-1.3-2.2-3.4-5.6-5.2-7.3c-1.8-1.7-2.3-0.8-1.7,0.3c0.5,1,3.1,4.3,4.1,6.4c1.1,2.2,3.8,8.5,4.3,10.1
		c0.5,1.6,1.9,6.8,2.3,8.9c0.4,2.1-0.8,3-0.5,4.3c0.1,0.3,0.2,0.8,0.3,1.5c0.8-3.2,1.3-6.5,1.3-9.9c-0.5-1.4-0.9-2.9-1.5-4.2
		C-84.5,436.4-85.3,431.4-86.7,429.2z"/>
	<path d="M-118.9,406.9c5.2,1.8,7.8,2.7,9.3,3.1c1.5,0.3,2.5,1.2,3.4,1.4c1.9,0.4,0.4-1.1,0.4-1.1c-2-1.2-13.5-5.6-21.9-6.2
		c-3.2-0.2-6.7-0.5-10.1-0.8c-1.2,0.4-2.3,0.9-3.5,1.4c3.3,0.2,10,0.5,11.6,0.8C-127.7,405.9-124.1,405.1-118.9,406.9z"/>
	<path d="M-130,409.5c3.1,0.6,8.1,0.7,12.2,1c4.1,0.3,8.8,3.1,12.2,4.8c3.4,1.6,7.5,6.9,8.8,8.7c1.3,1.9,4.5,8,5.3,9.9
		c0.8,2,4.1,9.6,4.3,11.6c0.1,2,1.3,9.6,1.7,12.2c0.1,0.6,0.1,1.4,0.2,2.4c0.4-0.8,0.7-1.6,1-2.5c-0.4-3.2-1-11.3-1.9-15.3
		c-0.9-4.2-3.9-10.7-5.7-14.1c-1.8-3.3-5.1-8-7.9-10.8c-2.7-2.9-7.8-5.2-10.6-6.6c-2.8-1.4-7.8-2-10.2-2.5
		c-2.4-0.4-11.7-0.9-14.9-1.1c-2.1-0.1-6.4-0.3-9.7-0.5c-1,0.6-2,1.2-2.9,1.9c1.9,0.1,3.9,0.2,5.7,0.3
		C-139.3,409.1-133,408.9-130,409.5z"/>
	<path d="M-87.8,456c-0.6,0-0.4,0.5-0.6,2c-0.1,1.4-0.4,5.1-0.4,8.3c0.7-1.1,1.4-2.2,2-3.3c-0.1-2.1-0.3-4.8-0.5-6.4
		C-87.3,456.7-87.2,456-87.8,456z"/>
	<path d="M-141.9,412.9c3.5,0,9.3,0.5,13.6,0.1c4.3-0.4,8.3,0.1,10.4,0.8c2.2,0.7,6.4,2.9,10,4.6c3.6,1.8,8.6,9.3,10,12.3
		c1.4,3,6.6,13.4,6.8,16.3c0.2,2.9-0.2,9.4-0.3,12.6c0,2.3-0.3,7.2-0.6,11c0.6-0.7,1.2-1.4,1.8-2.2c-0.1-2.5-0.2-4.5-0.2-6.1
		c0-2.9,1.4-7.4,1.9-10.8c0.4-3.4-0.6-7.9-1.5-10.7c-0.9-2.8-3.5-7.3-5.1-10.5c-1.6-3.2-5.1-7.6-6.7-9.4c-1.6-1.8-8.2-6-11-7.3
		c-2.9-1.3-8.7-1.8-11.6-2.2c-2.9-0.4-10.1,0.3-14-0.1c-3.9-0.3-8.2,0.1-10.5-0.4c-0.6-0.1-1.2-0.1-1.9-0.1c-1.1,1-2.2,2-3.3,3
		c0.9-0.2,1.8-0.3,2.6-0.3C-149,413.4-145.4,412.8-141.9,412.9z"/>
	<path d="M-157.1,417.9c3.9-0.6,14.4-0.6,16.4-0.6c2,0,8-0.8,11.3-0.5c3.3,0.2,9.8,0.9,11.1,1.4c1.3,0.5,6.9,3.9,10.5,7.5
		c3.6,3.6,8.3,10.6,9.3,13.9c1,3.3,2.4,6.3,2.8,10c0.4,3.7,1.6,10.6,1,15.6c-0.3,2.4-0.7,6-1,9.4c0.7-0.7,1.5-1.4,2.2-2.1
		c0-0.3,0.1-0.6,0.1-0.8c0.3-2.3,0.9-16.5,0.8-18.9c-0.1-2.4-0.5-8-1.7-11c-1.3-3-4.9-9.6-6.5-12c-1.7-2.4-7.4-9.1-10.8-10.8
		c-3.5-1.7-8.9-3.6-13-3.7c-4.1-0.1-10.7,0.7-12.4,0.4c-1.7-0.4-9.7-0.4-12.1-0.4c-1.4,0-4,0-6.4,0.4c-0.7,0.8-1.3,1.6-1.9,2.4
		C-157.5,418-157.3,418-157.1,417.9z"/>
	<path d="M-96,454.8c-0.3-1.5-1.7-8.8-2.7-11.2c-1-2.4-0.8-3.7-2.5-5.6c-1.7-1.9-4.4-7.4-6.3-9.5c-1.9-2-6-6.1-9.9-7.8
		c-3.9-1.7-9.6-2.5-12.1-2.1c-2.5,0.4-5.4,0.1-10.5,0.5c-5.1,0.4-9.3,0.2-12.2,0.6c-2.6,0.3-5.9,0.6-7.7,1.7c-0.6,1-1.2,2.1-1.7,3.2
		c0.2-0.2,0.4-0.3,0.5-0.5c1.4-1.3,3.7-2.5,4.4-2.9c0.6-0.4,1.1,0.4,0.4,1.4c-0.7,0.9-5.3,4.3-6.8,5.9c-0.1,0.1-0.1,0.1-0.2,0.2
		c-0.5,1.3-0.9,2.7-1.3,4.1c1.9-2.2,6.1-6.3,8.2-8.1c2.2-1.9,6-2.5,9.7-3.3c3.7-0.8,11.2-1.1,13.9-1.2c2.7-0.2,11.1,0.8,14.3,2.2
		c3.3,1.5,9.1,7.5,11.4,10.3c2.2,2.7,4.6,10,4.6,11.1c0,1.1,1.4,4.1,2.1,6.2c0.7,2.1-0.7,3.7-1.1,6.6c-0.4,2.9,0.1,7.7-0.5,10.1
		c-0.7,2.4-0.8,5.7-1.5,8.3c-0.5,1.7-0.8,3.7-1.4,5.7c0.9-0.5,1.9-1,2.8-1.5c0.1-1,0.3-2,0.9-3.3c1.3-3.2,0-2,1.3-3.2
		c1.3-1.2,0.9,0.8,0.9,0.8c-0.2,1.1-0.9,2.9-1.5,4.7c1.1-0.7,2.2-1.5,3.3-2.4c0.6-3.2,1.3-6.8,1.5-8.7
		C-95.5,464.1-95.7,456.3-96,454.8z M-99.2,470.7c-0.7-0.1-0.3-1.2-0.2-2.1c0-0.9-0.6-1.3,0-1.6c0.6-0.2,0.7,1,0.7,1
		C-98.7,469.5-98.5,470.9-99.2,470.7z M-97.8,461.6c-0.1,0.6-0.5,2.3-0.6,1.5c-0.1-0.8-0.7-2.9-0.5-3.7c0.2-0.9,0-1.1,0.1-2.1
		c0.1-1,0.9,0,0.9,0C-97.8,458.7-97.8,461-97.8,461.6z"/>
	<path d="M-103.1,461.8c0.6-4.8,0.4-14.6-0.5-17.4c-0.9-2.8-4-10.5-6.4-13c-2.4-2.5-8.1-7.4-11.2-8.2c-3.1-0.8-10.8-1.4-13.8-0.8
		c-3,0.6-12.8,0.9-16,2.3c-3.2,1.5-8.4,6.4-9.5,8c-0.7,1-3.1,4.1-5.2,6.9c-0.1,1.1-0.1,2.3-0.1,3.5c0,0,0,0,0,0
		c1.6-2.3,3.1-4.4,4.3-6c3.3-4.4,5.6-8.5,12.6-10.5c7.1-1.9,15.5-3.1,19.8-2.7c4.3,0.3,11.4,4.3,13,5.8c1.7,1.6,5.2,3.5,7.5,9
		c2.2,5.5,3.6,12.4,3.4,14.9c-0.2,2.5-0.4,10.3-0.7,12.1c-0.3,1.9-1.4,9.6-2.1,11.3c-0.3,0.7-1.1,3.1-2.1,5.8c0.9-0.3,1.7-0.6,2.6-1
		c1-2.6,1.7-4.8,2.1-6C-104.4,472.6-103.7,466.6-103.1,461.8z"/>
	<path d="M-107.7,469.8c0.4-2.4,1.4-10.5,1.3-12.7c-0.2-2.2-0.9-8.9-1-10.4c-0.2-1.5-2.2-6.4-3.7-8.7c-1.5-2.3-3.2-5.6-5.6-6.7
		c-2.5-1.1-6.6-4.6-8.3-5c-1.7-0.4-3.8-0.9-6.8-0.3c-3,0.6-8.3,1.1-10.5,1.7c-2.2,0.6-9.4,3.1-11.1,4.6c-3.8,3.3-8.3,8.8-8.3,8.8
		c-1,1.4-2.4,3.9-3.9,6.4c0.1,0.8,0.2,1.6,0.3,2.3c0.9-1.6,1.9-3,2.7-4c2.3-2.6,9.3-11,11.1-12.3c1.8-1.3,11.4-3.9,14.8-4.7
		c3.4-0.8,8.4-1.7,10.1-1c1.7,0.7,2,1.4,1.1,1.5c-1,0.1-4.5-0.6-6.6,0c-2.1,0.6-10.9,1.1-15.6,4.7c-4.6,3.5-10.4,10.9-12.5,13.6
		c-0.9,1.2-2.5,4-4.1,6.9c0.2,0.8,0.5,1.7,0.8,2.5c0.4-1,0.9-1.8,1.2-2.3c1.2-1.9,9.2-14.1,12.8-16.6c3.6-2.5,10-5.4,11.8-5.7
		c1.8-0.4,5.2-1.6,8.1-1c2.9,0.5,6.2,1,6.6,0.5c0.4-0.5-0.7-2,0.4-1.7c1.1,0.3,1.1,1.4,1.9,1.8c0.7,0.4,2.9,2.4,2,2.6
		c-0.9,0.3-2.6-1.5-4.1-1.7c-1.5-0.1-5.9-0.7-7.9-0.2c-2,0.4-10.4,2.9-11.6,3.6c-1.2,0.7-7.2,4.5-7.7,4.9c-0.5,0.4,0.8,0.9,0.5,2.5
		c-0.3,1.6-2.7,6.4-3.2,7.6c-0.5,1.2-4.2,10-4.9,11.7c-0.2,0.6-0.8,1.8-1.4,3.1c0.4,0.6,0.8,1.2,1.3,1.8c0.4-1.1,0.8-2.1,1-2.6
		c0.6-1.6,5.4-11.9,6.7-15.1c1.3-3.2,4.8-8.7,6.8-10.1c2.1-1.5,4.5-3.9,8.1-4.4c3.6-0.6,6.3-1.3,9.1-0.2c2.8,1.1,3.7,0.4,5.5,2
		c1.8,1.6,3.5,3.4,4.6,5.5c1,2.1,1.5,4.1,2.1,7.4c0.5,3.3,0.5,6.7,0.8,9.4c0.3,2.7-1,9.4-3,14.3c-1.5,3.7-3.8,8.1-5.1,10.8
		c1.4-0.1,2.8-0.2,4.1-0.5c1.5-2.7,3.1-5.8,3.5-7.3c0.5-2.1,2.1-5.8,2.7-10.6c0.6-4.8,0.3-9.1,0.2-12.5c0-3.4-1.1-7.5-1.9-9.1
		c-0.8-1.5-2-3.9-1.4-4.4c0.5-0.5,1.5,0.9,1.5,0.9c1.2,1.7,2.4,5.4,2.7,7.7c0.3,2.3,0.9,10.2,0.4,12.6c-0.5,2.4-1.4,10.7-2,12.4
		c-0.7,1.7-3.3,7.8-3.9,9.2c-0.1,0.2-0.2,0.5-0.3,0.7c1.2-0.2,2.3-0.5,3.4-0.8c0-0.1,0.1-0.2,0.1-0.3
		C-110.9,480.8-108.1,472.2-107.7,469.8z M-114.5,438.5c-0.4,1.1-1.2,0.6-2-0.5c-0.8-1.1-1.8-1.3-1.1-1.8c0.7-0.5,1.6-0.1,1.6-0.1
		C-115.3,437.4-114.1,437.4-114.5,438.5z"/>
	<path d="M-114.6,458.2c0-2.6-1.8-13.5-2.2-14.7c-0.4-1.3-1.5-1.7-2.4-1.6c-0.9,0.1-0.6,0.8,0.4,3.5c1.1,2.7,1.3,7.8,1.5,10
		c0.2,2.2-0.4,7.8-0.4,9.7c0,1.8-3.1,11.2-4.6,13.7c-0.9,1.5-2.8,4.1-4.4,6.2c0.9,0.1,1.9,0.1,2.8,0.1c0.3,0,0.6,0,0.9,0
		c2.1-3.9,4.5-9.5,5.3-11.4C-116.6,471.3-114.6,460.9-114.6,458.2z"/>
	<path d="M-121.1,469.8c0.7-1.7,2.1-7.8,2.1-11.3c0-3.5-0.6-9.2-0.8-10.9c-0.2-1.8-1.5-6.3-2.7-8.2c-1.2-1.9-4.6-2-7.3-2.6
		c-2.7-0.6-7.3,1.8-9.8,3.1c-2.5,1.3-7.2,8.5-8.5,10.5c-1.3,2.1-4,9.9-5.5,13.6c-0.7,1.7-1.5,4.1-2.2,6.3c0.5,0.6,1,1.1,1.5,1.6
		c1.7-3.9,5.5-11.5,5.9-12.4c0.4-1.1,4.2-8.6,6-13.3c1.8-4.7,4.7-4.5,6-5.4c1.3-0.9,5.4-1.1,6.9-1.4c1.5-0.3,2.8,0.3,4.8,1.1
		c2,0.8,2.4,4.7,3,6.6c0.6,1.9,0.9,6.8,0.9,9.6c0,2.8-1.7,8.4-2.4,11.6c-0.7,3.3-2.8,9.3-3.3,10.6c-0.5,1.3-2.1,2.7-2.5,1.7
		c-0.4-0.9,1.1-2.3,1.7-4.2c0.6-1.9,2.2-7.4,2.8-9.3c0.6-1.9,2-9.5,2.3-11.7c0.3-2.2-0.7-8.9-2.5-12.1c-1.8-3.2-2.5-2.1-4.3-2.3
		c-1.7-0.2-4.7,0.7-7.9,1.4c-3.2,0.7-4.4,5.2-5.4,7.4c-1,2.2-4.2,9.2-4.9,10.9c-0.5,1.2-2.9,8.1-4.9,13.1c0.6,0.5,1.2,1.1,1.8,1.6
		c1.3-2.3,2.6-4.9,3.2-6.5c1-3,1.8-4.9,2.8-4.6c0.9,0.4,0.4,2.5-0.8,5c-0.6,1.4-2,4.5-3.3,7.5c0.6,0.5,1.3,0.9,2,1.4
		c0.6-1,1.1-1.9,1.4-2.5c1.5-2.6,6.5-18.9,7.6-21.5c1.1-2.6,3.6-6.8,4.2-7.8c0.6-1,3.7-2.3,4.1-1.7c0.4,0.6-2.2,2.8-3,3.7
		c-0.8,0.9-3.6,7-5,10.6c-1.4,3.6-4.2,13.5-5.3,16.3c-0.4,0.9-1.2,2.4-2.2,4.1c0.7,0.4,1.4,0.8,2.2,1.2c1-2.1,2-4.3,2.9-6.6
		c2.6-6.3,4.7-13.5,4.9-14c0.2-0.5,1.1-5.7,1.4-6.6c0.4-0.9,1.5-2.2,1.6-0.4c0.1,1.7-1.1,5.5-1.2,6.1c-0.1,0.6-1.4,6.6-1.9,8.6
		c-0.5,2-4.6,12.6-5.1,13.9c0,0.1,0,0.1-0.1,0.2c0.7,0.3,1.3,0.6,2,0.8c1.2-2.9,2.8-7.5,3.9-10.2c1.4-3.4,2.2-7.3,3-10.9
		c0.9-3.7,1.5-9.4,1.5-10c0.1-0.6,0.2-3.5,1.2-3.7c1-0.2,0.2,3.6,0.2,5.7c-0.1,2.1-1.7,7.6-1.6,8.9c0.1,1.3-2.6,8.5-2.8,10
		c-0.1,1.3-2.9,8.6-3.7,10.8c2.8,0.9,5.8,1.5,8.8,1.8c0.9-1.4,1.7-2.8,2.2-3.8C-124,478.1-121.8,471.5-121.1,469.8z M-132.6,443.5
		c-1.2,0.6-2.3,2-3.4,3.5c-1.1,1.6-2.8,4.3-3.2,5.3c-0.4,1.1-2.9,6.8-3.1,9.2c-0.2,2.4-0.9,1.3-1.7-0.4c-0.8-1.7,1.3-3.2,2-5.3
		c0.7-2.2,3.2-7.3,4.2-8.9c0.9-1.6,3.7-3.1,5.1-4.4c0,0,0.6-0.4,1.2,0.4C-130.8,443.6-131.5,442.9-132.6,443.5z M-131.3,483.7
		c-1.2,0.3-1.9,0.6-2.4-0.2c-0.4-0.8,0.8-3.2,1.4-5.1c0.6-1.9,2.3-6.5,3.1-10c0.8-3.5,3-9.7,3-13.1c0-3.4,0.6-4.9,0.3-6.2
		c-0.2-1.3,0.9-0.1,0.9-0.1c0.3,1.5,0.4,5.4-0.1,7.5c-0.5,2.1-2.5,10.8-2.7,11.4c-0.2,0.5-3.4,10-3.6,11.6
		C-131.5,481.1-130.1,483.4-131.3,483.7z"/>
	<path d="M-152.1,446.7c1.4-2.5,1.2-2.1,1-3c-0.1-0.8-1.1-0.6-2,0.4c0,0-1.6,2.6-3.1,4.6c-1.4,2.1-3.8,6.8-4.5,8.6
		c-0.3,0.6-0.8,1.9-1.4,3.3c0.4,1,0.9,1.9,1.4,2.8c1.3-2.7,2.5-5.4,3.3-6.9C-155.5,453-153.5,449.2-152.1,446.7z"/>
</g>
</svg>
