<?xml version="1.0" encoding="utf-8"?>
<!-- Generator: Adobe Illustrator 19.0.0, SVG Export Plug-In . SVG Version: 6.00 Build 0)  -->
<svg version="1.1" id="Capa_1" xmlns="http://www.w3.org/2000/svg" xmlns:xlink="http://www.w3.org/1999/xlink" x="0px" y="0px"
	 viewBox="-210 325.9 173.5 190" style="enable-background:new -210 325.9 173.5 190;" xml:space="preserve">
<g id="XMLID_100_">
	<path d="M-45.1,494.1h-156.3c-2,0-3.8-1-4.8-2.7s-1-3.8,0-5.5l78.1-135.4c1-1.7,2.8-2.8,4.8-2.8l0,0c2,0,3.8,1,4.8,2.7l78.2,135.4
		c1,1.7,1,3.8,0,5.5C-41.3,493-43.1,494.1-45.1,494.1z M-191.9,483.1h137.3l-68.7-118.9L-191.9,483.1z"/>
</g>
<path d="M-82.9,455.2l-2.7-1.3l-1.7-4.1l-0.5-0.2l-10.6-2.7c4.8-2.1,9.2-3.1,9.3-3.1l3.1-0.7l-25-8.3l-0.3,0.1
	c-0.5,0.2-13.5,4.9-17.1,12.7c-14.7-6.4-26.6-4.6-28.9-4.2c-0.4,0.1-0.8,0.4-0.8,0.9c-0.1,0.4,0.2,0.9,0.6,1.1l4,1.7
	c-3.7,0.7-5.4,2.2-5.4,2.2l0.1,0.5c0.2,1.3,0.2,2.5,0.1,3l-2.4,0.3c-0.4,0.1-0.8,0.4-0.9,0.8s0.1,0.9,0.5,1.1l21.1,10.6
	c0,0,24.2-4.5,26-4.6c0.1,0.1,0.3,0.2,0.4,0.3c0.8,0.5,2,1.4,3.5,1.2c1.5-0.3,2.2-1.2,2.7-1.7c0.4-0.4,0.4-0.5,0.6-0.5
	c1.4,0,23.1-2.9,24-3c0,0,0.7-0.3,0.8-0.8C-82.3,455.8-82.6,455.4-82.9,455.2z M-88.6,451.4l1.1,2.6c-3.9,0-15,0.4-19.9,3.5
	c-0.2-0.1-1-0.4-1.1-0.4C-103.6,451.9-91.3,451.4-88.6,451.4z M-87.3,455.8c-6,0.8-13.1,1.8-17,2.2C-99,456-90.3,455.8-87.3,455.8z
	 M-93.8,449.9c-5,0.5-11.7,1.9-15.6,5.5c1.6-3.1,5-5.5,8.4-7.3L-93.8,449.9z M-156.9,453c0-0.1-0.1-0.1-0.1-0.2
	c0.1-0.5,0.1-1.2,0-1.9l17.1,7.2c0,0,15.8-3.9,25.5-0.3c0,0,0,0-0.1,0c-8.1-1.2-22.7,2.6-25,3.3C-141.7,460.1-153.5,454.6-156.9,453
	z M-110.9,436.6l18.5,6.2c-5.5,1.6-16.8,5.8-19.2,13.5c-0.3-0.2-0.7-0.4-1.2-0.8c-2.6-1.7-7.7-4.8-13.8-7.3
	C-123.7,441.7-112.8,437.3-110.9,436.6z M-128.2,449.6c1.5,0.6,2.9,1.2,4.3,1.9c-0.3-0.1-0.5-0.1-0.8-0.2c-4.1-0.6-7.4-0.8-9.9-0.8
	c-2.7,0-4.3,0.2-5,0.3l-14.7-6C-149.3,444.3-139.6,444.5-128.2,449.6z M-139.7,452.6h0.3c0.1,0,5.7-0.9,14.6,0.5
	c2.8,0.4,5.2,1.2,7.2,2c-9.1-1.8-20.2,0.6-22.1,1.1l-16.2-6.7c1.4-0.6,3.6-1.2,6.6-0.8L-139.7,452.6z M-140.2,463.6l-18.1-9.2h0.2
	c2.7,1.2,18,8.3,18.1,8.4l0.3,0.2l0.4-0.1c0.2,0,13.9-3.9,22.5-3.5C-120.1,459.8-126.6,461-140.2,463.6z M-109.2,459.5
	c-0.4,0.5-0.8,0.9-1.6,1.1c-0.7,0.1-1.5-0.4-2.1-0.9c-0.2-0.2-0.4-0.3-0.5-0.4c0.1-0.1,0.3-0.2,0.4-0.3c0.3-0.2,1.2-0.8,2.1-0.8
	c1.2,0,2.2,0.6,2.3,0.6C-108.9,459-109,459.3-109.2,459.5z M-150.2,432.3l3.8-2l3.8,2l-0.7-4.2l3.1-3l-4.2-0.6l-1.9-3.8l-1.9,3.8
	l-4.2,0.6l3.1,3L-150.2,432.3z M-147.1,426.1l0.7-1.4l0.7,1.4l1.6,0.3l-1.2,1.2l0.3,1.6l-1.4-0.8l-1.5,0.8l0.3-1.6l-1.2-1.2
	L-147.1,426.1z M-138.2,438.9l0.8,4.2l2.8-3.2l4.2,0.5l-2.2-3.7l1.8-3.9l-4.2,1l-3.1-2.9l-0.4,4.2l-3.7,2.1L-138.2,438.9z
	 M-136.6,436.2l0.2-1.6l1.2,1.1l1.6-0.4l-0.7,1.5l0.8,1.4l-1.6-0.2l-1.1,1.2l-0.4-1.6l-1.5-0.6L-136.6,436.2z M-113.4,415l2,3.7
	l1.8-3.9l4.2-0.8l-3.2-2.8l0.5-4.2l-3.7,2.1l-3.9-1.9l0.9,4.2l-2.9,3.1L-113.4,415z M-113.1,410.4l1.5,0.7l1.4-0.8l-0.2,1.6l1.2,1.1
	l-1.6,0.3l-0.6,1.5l-0.8-1.4l-1.6-0.2l1.2-1.2L-113.1,410.4z M-131.4,425.8c1.2,0,2.3-1.1,2.3-2.3c0-1.2-1.1-2.3-2.3-2.3
	s-2.3,1-2.3,2.3C-133.7,424.8-132.7,425.8-131.4,425.8z M-131.4,422.8c0.3,0,0.5,0.3,0.5,0.5s-0.3,0.5-0.5,0.5s-0.5-0.2-0.5-0.4
	C-132,423.1-131.7,422.8-131.4,422.8z M-113.5,426.8c-1.2,0-2.3,1.1-2.3,2.3c0,1.2,1.1,2.3,2.3,2.3s2.3-1.1,2.3-2.3
	C-111.2,427.9-112.1,426.8-113.5,426.8z M-113.5,429.6c-0.3,0-0.5-0.3-0.5-0.5s0.3-0.5,0.5-0.5c0.3,0,0.5,0.3,0.5,0.5
	C-112.9,429.5-113.1,429.6-113.5,429.6z M-102.5,424.1c1.5,0,2.7-1.2,2.7-2.7s-1.2-2.7-2.7-2.7c-1.5,0-2.8,1.2-2.8,2.7
	S-104.1,424.1-102.5,424.1z M-102.5,420.3c0.5,0,1,0.4,1,1s-0.4,1-1,1s-1.1-0.4-1.1-1S-103.1,420.3-102.5,420.3z"/>
</svg>
