<?xml version="1.0" encoding="utf-8"?>
<!-- Generator: Adobe Illustrator 19.0.0, SVG Export Plug-In . SVG Version: 6.00 Build 0)  -->
<svg version="1.1" id="Capa_1" xmlns="http://www.w3.org/2000/svg" xmlns:xlink="http://www.w3.org/1999/xlink" x="0px" y="0px"
	 viewBox="-210 325.9 173.5 190" style="enable-background:new -210 325.9 173.5 190;" xml:space="preserve">
<g id="XMLID_100_">
	<path d="M-45.1,494.1h-156.3c-2,0-3.8-1-4.8-2.7s-1-3.8,0-5.5l78.1-135.4c1-1.7,2.8-2.8,4.8-2.8l0,0c2,0,3.8,1,4.8,2.7l78.2,135.4
		c1,1.7,1,3.8,0,5.5C-41.3,493-43.1,494.1-45.1,494.1z M-191.9,483.1h137.3l-68.7-118.9L-191.9,483.1z"/>
</g>
<g>
	<path d="M-148.2,430.6c3.7,0,7.1,1.2,10,3.3c0.4,0.3,0.7,0.6,1.1,0.9c0.7-0.9,1.7-1.4,2.7-1.5c0.2,0,0.3,0,0.5,0
		c3.2,0,11.4,0.5,12.7,0.5c1.8,0.1,3.3,1.5,3.3,3.3c0,1.8-1.5,3.2-3.3,3.3c-4.3,0.2-8,0.4-9.4,0.5c0,0,0,0.1,0,0.1
		c0.1,0.8,0.7,1.4,1.5,1.3c0,0,4.3-0.3,8-0.5c2.1-0.1,3.7-1.4,4.3-3.2c2.2-0.1,4.9-0.2,7.4-0.2c-3,4.3-6.9,9.8-8.8,12.5
		c0,0-1,0-1.1,0c-0.4,0-0.7,0.3-0.7,0.6c0,0.4,0.3,0.7,0.6,0.7c0.3,0,3.8,0.3,7.8,0.6c0.4,0,0.9,0.1,1.3,0.1
		c3.6,0.3,6.1,2.5,7.1,4.9c1.2,2.9,0.2,4.9-2.5,4.9c-4.7,0-37.7,0.6-42.5,0.6c-0.2,0-0.5-0.1-0.5-0.1c-2.1-0.5-3.7-4.3-3.7-9
		c0-4.6,1.6-8.5,3.7-9c0,0,0,0,0,0c0.1,0,0.3-0.1,0.4-0.1c0.2,0,2.7,0,3.7,0c-0.5-0.6-1-1.1-1.6-1.4c-0.6-0.4-1.3-0.6-2.1-0.6
		c-3.7,0-6.3,4.6-6.3,11c0,6.4,2.7,11,6.3,11c0.8,0,1.6-0.3,2.3-0.7c0.6,0,1.3,0,2.1,0c-1.2,1.3-2.8,2.1-4.5,2.1
		c-2.2,0-4.2-1.3-5.5-3.5h-2.3c-1.2-2.4-1.9-5.5-1.9-9c0-3.2,0.6-6,1.6-8.3l0,0h2.3c1.4-2.5,3.4-4,5.8-4c1.4,0,2.7,0.5,3.8,1.5
		c0.3,0.3,0.7,0.6,1,1c0.8-1.2,1.6-2.4,2.3-3.6c-0.3-0.3-0.7-0.6-1-0.9c-1.8-1.4-3.8-2.2-6.1-2.2c-6.9,0-11.9,7-11.9,16.6
		c0,9.6,5,16.6,11.9,16.6c4,0,7.4-2.4,9.5-6.3c0.5,0,1,0,1.6,0c-2.3,4.8-6.3,7.7-11.1,7.7c-5.2,0-9.4-3.5-11.6-9h-2.2
		c-1-2.7-1.5-5.7-1.5-9c0-3,0.4-5.8,1.3-8.3h2.2c2.1-5.8,6.5-9.6,11.8-9.6c2.6,0,4.9,0.9,6.9,2.4c0.4,0.3,0.7,0.6,1.1,0.9
		c1-1.5,1.8-2.7,2.3-3.5c-0.3-0.3-0.7-0.6-1.1-0.9c-2.6-1.9-5.7-3-9.2-3c-10.1,0-17.4,9.3-17.4,22.1c0,12.8,7.3,22.1,17.4,22.1
		c7.1,0,12.9-4.7,15.6-12c0.5,0,1,0,1.5,0c-2.9,8.1-9.2,13.4-17.1,13.4c-10.9,0-18.8-9.9-18.8-23.5S-159,430.6-148.2,430.6z"/>
	<path d="M-108.6,436.7c1.2-1,1.8-2.3,1.8-4c0-1.7-0.7-3.1-1.9-4c0,0,4,0.1,5.2,0.1c2.2,0.1,3.9,1.8,3.9,3.9c0,2.2-1.8,3.9-3.9,3.9
		C-104.8,436.7-108.6,436.7-108.6,436.7z M-128,428.2c0.2,0,0.4,0,0.6,0c3.8,0.1,13.8,0.6,15.3,0.7c2.2,0.1,3.9,1.8,3.9,3.9
		c0,2.2-1.8,3.9-3.9,3.9c-1.2,0-2.8,0.1-4.5,0.2c-0.1-2.4-2.1-4.3-4.6-4.4l-2-0.1c-2.8-0.1-6.8-0.3-9.5-0.4c0.7-1,1.2-1.7,1.2-1.7
		C-130.6,429-129.3,428.3-128,428.2z M-93.9,432.3c-1.5,0.1-3,0.2-4.3,0.2c-0.1-2.8-2.4-5-5.2-5.1c-0.4,0-1.6-0.1-3.1-0.1
		c-2.1-0.1-4.8-0.2-7.3-0.3c0.8-1.1,1.2-1.8,1.2-1.8c0.9-1.3,2.3-2.1,3.8-2.2c0.2,0,0.4,0,0.6,0c4.2,0.1,8.8,0.4,14.3,0.7
		c2.4,0.1,4.3,1.9,4.3,4.3C-89.6,430.4-91.5,432.2-93.9,432.3z"/>
	<path d="M-103.5,427.4c-0.4,0-1.6-0.1-3.1-0.1c-2.1-0.1-4.8-0.2-7.3-0.3c0.8-1.1,1.2-1.8,1.2-1.8c0.9-1.3,2.3-2.1,3.8-2.2
		c0.2,0,0.4,0,0.6,0c4.2,0.1,8.8,0.4,14.3,0.7c2.4,0.1,4.3,1.9,4.3,4.3c0,2.4-1.9,4.2-4.3,4.3c-1.5,0.1-3,0.2-4.3,0.2
		C-98.3,429.8-100.6,427.5-103.5,427.4z"/>
	<path d="M-127.4,428.1c3.8,0.1,13.8,0.6,15.3,0.7c2.2,0.1,3.9,1.8,3.9,3.9c0,2.2-1.8,3.9-3.9,3.9c-1.2,0-2.8,0.1-4.5,0.2
		c-0.1-2.4-2.1-4.3-4.6-4.4l-2-0.1c-2.8-0.1-6.8-0.3-9.5-0.4c0.7-1,1.2-1.7,1.2-1.7c0.8-1.2,2.1-1.9,3.4-2
		C-127.8,428.2-127.6,428.1-127.4,428.1z"/>
</g>
</svg>
