<?xml version="1.0" encoding="utf-8"?>
<!-- Generator: Adobe Illustrator 19.0.0, SVG Export Plug-In . SVG Version: 6.00 Build 0)  -->
<svg version="1.1" id="Capa_1" xmlns="http://www.w3.org/2000/svg" xmlns:xlink="http://www.w3.org/1999/xlink" x="0px" y="0px"
	 viewBox="-210 325.9 173.5 190" style="enable-background:new -210 325.9 173.5 190;" xml:space="preserve">
<g id="XMLID_100_">
	<path d="M-45.1,494.1h-156.3c-2,0-3.8-1-4.8-2.7s-1-3.8,0-5.5l78.1-135.4c1-1.7,2.8-2.8,4.8-2.8l0,0c2,0,3.8,1,4.8,2.7l78.2,135.4
		c1,1.7,1,3.8,0,5.5C-41.3,493-43.1,494.1-45.1,494.1z M-191.9,483.1h137.3l-68.7-118.9L-191.9,483.1z"/>
</g>
<g>
	<path d="M-94.2,440.7c0-4-2.2-7.6-5.7-9.4c0.4-2.4-0.1-4.9-1.6-7c-1.5-2.2-3.8-3.6-6.3-4c-0.2-1.7-0.9-3.4-2.1-4.7
		c-1.6-1.8-3.9-2.8-6.3-2.8c-2.9,0-5.4,1.4-7,3.6c-1.5-2.1-4.1-3.6-7-3.6c-2.4,0-4.7,1-6.3,2.8c-1.2,1.3-2,3-2.1,4.7
		c-2.6,0.4-4.8,1.8-6.3,4c-1.5,2.1-2,4.6-1.6,7c-3.5,1.9-5.7,5.4-5.7,9.4c0,3.5,1.7,6.7,4.5,8.7c-1.6,2.6-1.9,5.7-0.6,8.6
		c1.6,3.6,5,5.9,8.9,5.9c0.3,0,0.6,0,0.9,0c0.2,1.6,0.9,3.1,2.1,4.3c1.6,1.8,3.9,2.8,6.4,2.8c2.9,0,5.4-1.4,7-3.6
		c1.5,2.1,4.1,3.6,7,3.6c2.4,0,4.7-1,6.4-2.8c1.1-1.2,1.8-2.7,2.1-4.3c0.3,0,0.6,0,0.9,0c0,0,0,0,0,0c3.8,0,7.3-2.3,8.9-5.9
		c1.3-2.9,1-6-0.6-8.6C-95.9,447.4-94.2,444.2-94.2,440.7z M-124.8,462.7c0,2.9-2.4,5.2-5.4,5.2c-1.6,0-3.1-0.7-4.1-1.8
		c-0.8-0.8-1.2-1.9-1.3-3c2.8-1.1,3.5-3,4-4.4c0.4-1.2,0.7-1.8,2-2.1c0.8-0.2,1.3-1.1,1.1-1.9c-0.2-0.8-1.1-1.3-1.9-1.1
		c-2.8,0.7-3.5,2.6-4,4c-0.5,1.4-0.9,2.3-3.1,2.9c0,0,0,0,0,0c0,0,0,0,0,0c-0.7,0.2-1.3,0.3-2,0.3c-2.6,0-5-1.6-6.1-4.1
		c-1-2.4-0.6-4.9,1.2-6.8c0.3-0.4,0.5-0.8,0.4-1.3c-0.1-0.5-0.4-0.9-0.8-1.1c-2.7-1.3-4.4-3.9-4.4-6.9c0-3.2,2-6,5-7.1
		c0.8-0.3,1.2-1.1,0.9-1.9c-0.6-1.9-0.3-4,0.8-5.6c1.2-1.7,3.2-2.8,5.4-2.8c2.6,0,3.2,1,4,2.5c0.7,1.3,1.7,3.1,4.4,3.1
		c0.8,0,1.5-0.7,1.5-1.5c0-0.8-0.7-1.5-1.5-1.5c-0.8,0-1-0.2-1.7-1.5c-0.8-1.4-1.9-3.4-5.1-3.9c0.2-1,0.6-1.9,1.3-2.6
		c1-1.1,2.5-1.8,4.1-1.8c3,0,5.4,2.3,5.4,5.2v20.7c-3.6-0.3-4.5-2-5.6-4c-1.1-2-2.4-4.4-6.4-4.9c-0.8-0.1-1.6,0.5-1.7,1.4
		s0.5,1.6,1.4,1.7c2.4,0.3,3.1,1.5,4.1,3.3c0.4,0.7,0.7,1.4,1.2,2c-0.8,0.8-2,1.7-3.4,2.4c-0.8,0.4-1.1,1.3-0.7,2.1
		c0.3,0.5,0.8,0.9,1.4,0.9c0.2,0,0.5-0.1,0.7-0.2c1.7-0.9,3.2-1.9,4.2-3c1.2,0.7,2.7,1.3,4.8,1.5L-124.8,462.7L-124.8,462.7z
		 M-101.7,447.6c-0.4,0.2-0.8,0.6-0.8,1.1c-0.1,0.5,0.1,1,0.4,1.3c1.8,1.9,2.2,4.4,1.2,6.8c-1.1,2.5-3.5,4.1-6.1,4.1c0,0,0,0,0,0
		c-0.6,0-1.3-0.1-2-0.3c0,0,0,0,0,0c0,0,0,0,0,0c-2.2-0.6-2.5-1.5-3.1-2.9c-0.5-1.4-1.2-3.2-4-4c-0.8-0.2-1.7,0.3-1.9,1.1
		c-0.2,0.8,0.3,1.7,1.1,1.9c1.3,0.3,1.5,0.9,2,2.1c0.5,1.4,1.2,3.3,4,4.4c-0.1,1.1-0.6,2.1-1.3,3c-1,1.1-2.5,1.8-4.1,1.8
		c-3,0-5.4-2.3-5.4-5.2v-11c0-2.8,1.5-4.1,2.8-4.5c1.7-0.5,3.4,0.4,4.5,2.2c0.4,0.7,1.4,1,2.1,0.6c0.7-0.4,1-1.4,0.6-2.1
		c-1.7-3-4.9-4.5-7.9-3.7c-0.7,0.2-1.4,0.5-2,0.9v-9.9c3.2,0.3,4.2,1.5,5.4,2.9c1,1.3,2.2,2.7,4.8,3.5c0.2,0,0.3,0.1,0.5,0.1
		c0.6,0,1.3-0.4,1.5-1.1c0.3-0.8-0.2-1.7-1-1.9c-1.7-0.5-2.4-1.4-3.3-2.6c-1.4-1.7-3-3.7-7.7-4v-11.2c0-2.9,2.4-5.2,5.4-5.2
		c1.6,0,3,0.6,4.1,1.8c0.7,0.8,1.1,1.7,1.3,2.6c-3.2,0.5-4.3,2.5-5.1,3.9c-0.7,1.3-0.9,1.5-1.7,1.5c-0.8,0-1.5,0.7-1.5,1.5
		c0,0.8,0.7,1.5,1.5,1.5c2.7,0,3.7-1.8,4.4-3.1c0.8-1.4,1.4-2.5,4-2.5c2.2,0.1,4.1,1.1,5.4,2.8c1.2,1.7,1.5,3.7,0.8,5.6
		c-0.3,0.8,0.1,1.6,0.9,1.9c3,1.2,5,4,5,7.1C-97.2,443.6-98.9,446.3-101.7,447.6z"/>
	<path d="M-106.8,439.3L-106.8,439.3c-0.9,0-1.5,0.7-1.5,1.5c0,0.8,0.7,1.5,1.5,1.5h0c0.8,0,1.5-0.7,1.5-1.5
		C-105.2,440-105.9,439.3-106.8,439.3z"/>
	<path d="M-138.9,445C-138.9,445-139,445-138.9,445c-0.9,0.2-1.4,1-1.2,1.8c0.2,0.7,0.8,1.2,1.5,1.2c0.1,0,0.2,0,0.3,0
		c0.8-0.2,1.4-1,1.2-1.8C-137.3,445.3-138.1,444.8-138.9,445z"/>
	<path d="M-123.3,408.8c0.8,0,1.5-0.7,1.5-1.5v-3.1c0-0.8-0.7-1.5-1.5-1.5s-1.5,0.7-1.5,1.5v3.1
		C-124.8,408.2-124.1,408.8-123.3,408.8z"/>
	<path d="M-141.9,412.7c0.3,0.5,0.8,0.8,1.3,0.8c0.3,0,0.5-0.1,0.8-0.2c0.7-0.4,1-1.4,0.6-2.1l-1.5-2.7c-0.4-0.7-1.4-1-2.1-0.6
		c-0.7,0.4-1,1.4-0.6,2.1L-141.9,412.7z"/>
	<path d="M-156.6,424.4l2.7,1.5c0.2,0.1,0.5,0.2,0.8,0.2c0.5,0,1-0.3,1.3-0.8c0.4-0.7,0.2-1.7-0.6-2.1l-2.7-1.5
		c-0.7-0.4-1.7-0.2-2.1,0.6C-157.6,423-157.3,424-156.6,424.4z"/>
	<path d="M-156.3,441.9c0-0.8-0.7-1.5-1.5-1.5h-3.1c-0.8,0-1.5,0.7-1.5,1.5s0.7,1.5,1.5,1.5h3.1C-157,443.4-156.3,442.7-156.3,441.9
		z"/>
	<path d="M-154,457.9l-2.7,1.5c-0.7,0.4-1,1.4-0.6,2.1c0.3,0.5,0.8,0.8,1.3,0.8c0.3,0,0.5-0.1,0.8-0.2l2.7-1.5
		c0.7-0.4,1-1.4,0.6-2.1C-152.3,457.7-153.2,457.4-154,457.9z"/>
	<path d="M-139.8,470.5c-0.7-0.4-1.7-0.2-2.1,0.6l-1.5,2.7c-0.4,0.7-0.2,1.7,0.6,2.1c0.2,0.1,0.5,0.2,0.8,0.2c0.5,0,1-0.3,1.3-0.8
		l1.5-2.7C-138.8,471.9-139,470.9-139.8,470.5z"/>
	<path d="M-123.3,474.9c-0.8,0-1.5,0.7-1.5,1.5v3.1c0,0.8,0.7,1.5,1.5,1.5s1.5-0.7,1.5-1.5v-3.1
		C-121.7,475.6-122.4,474.9-123.3,474.9z"/>
	<path d="M-104.6,471.1c-0.4-0.7-1.4-1-2.1-0.6c-0.7,0.4-1,1.4-0.6,2.1l1.5,2.7c0.3,0.5,0.8,0.8,1.3,0.8c0.3,0,0.5-0.1,0.8-0.2
		c0.7-0.4,1-1.4,0.6-2.1L-104.6,471.1z"/>
	<path d="M-89.9,459.4l-2.7-1.5c-0.7-0.4-1.7-0.2-2.1,0.6c-0.4,0.7-0.2,1.7,0.6,2.1l2.7,1.5c0.2,0.1,0.5,0.2,0.8,0.2
		c0.5,0,1-0.3,1.3-0.8C-88.9,460.7-89.2,459.8-89.9,459.4z"/>
	<path d="M-85.6,440.4h-3.1c-0.8,0-1.5,0.7-1.5,1.5s0.7,1.5,1.5,1.5h3.1c0.8,0,1.5-0.7,1.5-1.5S-84.8,440.4-85.6,440.4z"/>
	<path d="M-93.3,426.1c0.3,0,0.5-0.1,0.8-0.2l2.7-1.5c0.7-0.4,1-1.4,0.6-2.1c-0.4-0.7-1.4-1-2.1-0.6l-2.7,1.5
		c-0.7,0.4-1,1.4-0.6,2.1C-94.3,425.9-93.8,426.1-93.3,426.1z"/>
	<path d="M-106.7,413.3c0.2,0.1,0.5,0.2,0.8,0.2c0.5,0,1-0.3,1.3-0.8l1.5-2.7c0.4-0.7,0.2-1.7-0.6-2.1c-0.7-0.4-1.7-0.2-2.1,0.6
		l-1.5,2.7C-107.7,411.9-107.5,412.8-106.7,413.3z"/>
</g>
</svg>
