<?xml version="1.0" encoding="utf-8"?>
<!-- Generator: Adobe Illustrator 19.0.0, SVG Export Plug-In . SVG Version: 6.00 Build 0)  -->
<svg version="1.1" id="Capa_1" xmlns="http://www.w3.org/2000/svg" xmlns:xlink="http://www.w3.org/1999/xlink" x="0px" y="0px"
	 viewBox="-210 325.9 173.5 190" style="enable-background:new -210 325.9 173.5 190;" xml:space="preserve">
<g id="XMLID_100_">
	<path d="M-45.1,494.1h-156.3c-2,0-3.8-1-4.8-2.7s-1-3.8,0-5.5l78.1-135.4c1-1.7,2.8-2.8,4.8-2.8l0,0c2,0,3.8,1,4.8,2.7l78.2,135.4
		c1,1.7,1,3.8,0,5.5C-41.3,493-43.1,494.1-45.1,494.1z M-191.9,483.1h137.3l-68.7-118.9L-191.9,483.1z"/>
</g>
<g>
	<g>
		<path d="M-137.6,439.2c9.8,5.3,21.7,5.3,31.5,0c0.7-0.4,0.9-1.2,0.6-1.9c-0.4-0.7-1.2-0.9-1.9-0.6c-9,4.9-19.9,4.9-28.9,0
			c-0.7-0.4-1.5-0.1-1.9,0.6S-138.3,438.9-137.6,439.2L-137.6,439.2z"/>
		<path d="M-121.9,432.1c3.7,0,7.3-0.9,10.5-2.6c0.7-0.4,0.9-1.2,0.6-1.9s-1.2-0.9-1.9-0.6c-5.8,3-12.6,3-18.4,0
			c-0.7-0.4-1.5-0.1-1.9,0.6s-0.1,1.5,0.6,1.9C-129.1,431.2-125.5,432.1-121.9,432.1z"/>
		<path d="M-135.5,432.5c-0.2,0.3-0.2,0.7-0.1,1.1c0.1,0.4,0.3,0.6,0.7,0.8c8.2,4.4,18.1,4.4,26.3,0c0.4-0.2,0.7-0.7,0.7-1.2
			c0-0.5-0.2-1-0.7-1.2s-1-0.3-1.4,0c-7.4,4-16.2,4-23.6,0c-0.3-0.2-0.7-0.2-1.1-0.1C-135.1,431.9-135.4,432.1-135.5,432.5z"/>
		<rect x="-162" y="439" width="9.7" height="34.6"/>
		<path d="M-85,451.8c0,0-0.1-0.1-0.1-0.1c-0.6-0.8-1.7-1.1-2.6-0.7l-25.6,8.5c-0.7,0.2-1.5,0.4-2.2,0.4h-12.3
			c-2.2,0-4.3,0.6-6.1,1.9l-1,0.7c-0.4,0.3-0.9,0.3-1.4,0.1s-0.7-0.7-0.8-1.2s0.2-1,0.6-1.2l1-0.7c2.3-1.5,4.9-2.3,7.7-2.3h8.4
			c0.9-1.2,1-2.8,0.2-4l-0.1-0.2c-1-1.7-2.8-2.7-4.8-2.7h-7.2c-3.2,0-6.3-1.1-8.8-3.1c-2-1.6-4.5-2.5-7-2.5h-2.5v27.7h33.7
			c1.5,0,3-0.4,4.3-1.2l26-15.8c0.6-0.3,1-0.9,1.1-1.6C-84.4,453-84.5,452.3-85,451.8z"/>
		<path d="M-121.9,423.8c7.6,0,13.8-6.2,13.8-13.8s-6.2-13.8-13.8-13.8s-13.8,6.2-13.8,13.8C-135.7,417.6-129.5,423.8-121.9,423.8z
			 M-131.9,405.2c1.4-2.8,3.8-5,6.8-5.9c0.7-0.2,1.5,0.2,1.7,0.9c0.2,0.7-0.2,1.5-0.9,1.7c-2.3,0.7-4.1,2.3-5.1,4.4
			c-0.2,0.5-0.7,0.8-1.3,0.8c-0.2,0-0.4,0-0.6-0.1C-131.9,406.7-132.2,405.9-131.9,405.2z"/>
	</g>
</g>
</svg>
