<?xml version="1.0" encoding="utf-8"?>
<!-- Generator: Adobe Illustrator 19.0.0, SVG Export Plug-In . SVG Version: 6.00 Build 0)  -->
<svg version="1.1" id="Capa_1" xmlns="http://www.w3.org/2000/svg" xmlns:xlink="http://www.w3.org/1999/xlink" x="0px" y="0px"
	 viewBox="-210 325.9 173.5 190" style="enable-background:new -210 325.9 173.5 190;" xml:space="preserve">
<g id="XMLID_100_">
	<path d="M-45.1,494.1h-156.3c-2,0-3.8-1-4.8-2.7s-1-3.8,0-5.5l78.1-135.4c1-1.7,2.8-2.8,4.8-2.8l0,0c2,0,3.8,1,4.8,2.7l78.2,135.4
		c1,1.7,1,3.8,0,5.5C-41.3,493-43.1,494.1-45.1,494.1z M-191.9,483.1h137.3l-68.7-118.9L-191.9,483.1z"/>
</g>
<g>
	<path d="M-122.2,441.5c0,0.6-0.5,1.1-1.1,1.1c-0.6,0-1.1-0.5-1.1-1.1c0-0.6,0.5-1.1,1.1-1.1C-122.7,440.4-122.2,440.9-122.2,441.5
		L-122.2,441.5z M-122.2,441.5"/>
	<path d="M-119,439.3c0,0.6-0.5,1.1-1.1,1.1c-0.6,0-1.1-0.5-1.1-1.1c0-0.6,0.5-1.1,1.1-1.1C-119.4,438.3-119,438.7-119,439.3
		L-119,439.3z M-119,439.3"/>
	<path d="M-125.4,439.3c0,0.6-0.5,1.1-1.1,1.1c-0.6,0-1.1-0.5-1.1-1.1c0-0.6,0.5-1.1,1.1-1.1C-125.9,438.3-125.4,438.7-125.4,439.3
		L-125.4,439.3z M-125.4,439.3"/>
	<path d="M-128.6,437.2c0,0.6-0.5,1.1-1.1,1.1c-0.6,0-1.1-0.5-1.1-1.1c0-0.6,0.5-1.1,1.1-1.1C-129.1,436.1-128.6,436.6-128.6,437.2
		L-128.6,437.2z M-128.6,437.2"/>
	<path d="M-115.7,437.2c0,0.6-0.5,1.1-1.1,1.1c-0.6,0-1.1-0.5-1.1-1.1c0-0.6,0.5-1.1,1.1-1.1C-116.2,436.1-115.7,436.6-115.7,437.2
		L-115.7,437.2z M-115.7,437.2"/>
	<path d="M-112.5,435c0,0.6-0.5,1.1-1.1,1.1c-0.6,0-1.1-0.5-1.1-1.1s0.5-1.1,1.1-1.1C-113,434-112.5,434.5-112.5,435L-112.5,435z
		 M-112.5,435"/>
	<path d="M-131.8,435c0,0.6-0.5,1.1-1.1,1.1c-0.6,0-1.1-0.5-1.1-1.1s0.5-1.1,1.1-1.1C-132.3,434-131.8,434.5-131.8,435L-131.8,435z
		 M-131.8,435"/>
	<path d="M-122.2,437.2c0,0.6-0.5,1.1-1.1,1.1c-0.6,0-1.1-0.5-1.1-1.1c0-0.6,0.5-1.1,1.1-1.1C-122.7,436.1-122.2,436.6-122.2,437.2
		L-122.2,437.2z M-122.2,437.2"/>
	<path d="M-122.2,450.1c0,0.6-0.5,1.1-1.1,1.1c-0.6,0-1.1-0.5-1.1-1.1c0-0.6,0.5-1.1,1.1-1.1C-122.7,449-122.2,449.5-122.2,450.1
		L-122.2,450.1z M-122.2,450.1"/>
	<path d="M-122.2,453.3c0,0.6-0.5,1.1-1.1,1.1c-0.6,0-1.1-0.5-1.1-1.1c0-0.6,0.5-1.1,1.1-1.1C-122.7,452.2-122.2,452.7-122.2,453.3
		L-122.2,453.3z M-122.2,453.3"/>
	<path d="M-122.2,456.5c0,0.6-0.5,1.1-1.1,1.1c-0.6,0-1.1-0.5-1.1-1.1s0.5-1.1,1.1-1.1C-122.7,455.4-122.2,455.9-122.2,456.5
		L-122.2,456.5z M-122.2,456.5"/>
	<path d="M-122.2,459.7c0,0.6-0.5,1.1-1.1,1.1c-0.6,0-1.1-0.5-1.1-1.1c0-0.6,0.5-1.1,1.1-1.1C-122.7,458.7-122.2,459.1-122.2,459.7
		L-122.2,459.7z M-122.2,459.7"/>
	<path d="M-122.2,463c0,0.6-0.5,1.1-1.1,1.1c-0.6,0-1.1-0.5-1.1-1.1c0-0.6,0.5-1.1,1.1-1.1C-122.7,461.9-122.2,462.4-122.2,463
		L-122.2,463z M-122.2,463"/>
	<path d="M-122.2,466.2c0,0.6-0.5,1.1-1.1,1.1c-0.6,0-1.1-0.5-1.1-1.1c0-0.6,0.5-1.1,1.1-1.1C-122.7,465.1-122.2,465.6-122.2,466.2
		L-122.2,466.2z M-122.2,466.2"/>
	<path d="M-97.5,475.8h-3.2v-4.3h-5.4v-11c0-2.9-1.4-5.6-3.9-7.2l-11.4-7.6l11.4-7.6c2.4-1.6,3.9-4.3,3.9-7.2v-11h5.4v-4.3h3.2
		c0.6,0,1.1-0.5,1.1-1.1c0-0.6-0.5-1.1-1.1-1.1H-149c-0.6,0-1.1,0.5-1.1,1.1c0,0.6,0.5,1.1,1.1,1.1h3.2v4.3h5.4v11
		c0,2.9,1.4,5.6,3.9,7.2l11.4,7.6l-11.4,7.6c-2.4,1.6-3.9,4.3-3.9,7.2v11h-5.4v4.3h-3.2c-0.6,0-1.1,0.5-1.1,1.1
		c0,0.6,0.5,1.1,1.1,1.1h51.5c0.6,0,1.1-0.5,1.1-1.1C-96.4,476.3-96.9,475.8-97.5,475.8L-97.5,475.8z M-143.6,417.9v-2.1h40.8v2.1
		H-143.6z M-135.4,436.4c-1.8-1.2-2.9-3.2-2.9-5.4v-11h30.1v11c0,2.2-1.1,4.2-2.9,5.4l-12.1,8.1L-135.4,436.4z M-138.3,460.6
		c0-2.2,1.1-4.2,2.9-5.4l12.1-8.1l12.1,8.1c1.8,1.2,2.9,3.2,2.9,5.4v11h-30.1V460.6z M-143.6,473.7h40.8v2.1h-40.8V473.7z
		 M-143.6,473.7"/>
</g>
</svg>
