<?xml version="1.0" encoding="utf-8"?>
<!-- Generator: Adobe Illustrator 19.0.0, SVG Export Plug-In . SVG Version: 6.00 Build 0)  -->
<svg version="1.1" id="Capa_1" xmlns="http://www.w3.org/2000/svg" xmlns:xlink="http://www.w3.org/1999/xlink" x="0px" y="0px"
	 viewBox="-210 325.9 173.5 190" style="enable-background:new -210 325.9 173.5 190;" xml:space="preserve">
<style type="text/css">
	.st0{fill:none;}
</style>
<g>
	<g>
		<polygon class="st0" points="-86.7,409.7 -82.7,409.8 -84.9,417.8 -88.9,417.7 		"/>
		<polygon class="st0" points="-84.1,400.4 -80.1,400.5 -82.4,408.6 -86.4,408.5 		"/>
		<polygon class="st0" points="-102.3,479.3 -97.8,463.2 -97.3,462.4 -102,479.7 -115.7,479.5 -115.1,479 		"/>
		<polygon class="st0" points="-96.5,458.5 -92.1,442.4 -91.5,441.6 -96.3,458.9 -109.9,458.6 -109.3,458.2 		"/>
		<polygon class="st0" points="-91.2,409.6 -87.6,409.7 -89.8,417.7 -93.4,417.7 		"/>
		<path class="st0" d="M-100.6,483.6l-19-0.4l24.1-87.1l19,0.4L-100.6,483.6z M-95.1,462.1l0.8-2.8l4.9-17.7l0.9-3.1l4.8-17.4
			l0.9-3.1l5.7-20.5l-18-0.4l-5.7,20.5l-0.9,3.1l-4.8,17.4l-0.9,3.1l-4.9,17.7l-0.8,2.8l-5.8,20.8l18,0.4L-95.1,462.1z"/>
		<polygon class="st0" points="-104.2,438.1 -103.6,437.7 -90.9,438 -86.4,421.9 -85.8,421 -90.6,438.3 -100.2,438.2 		"/>
		<path class="st0" d="M-115.4,392.9l2.9-10.1l39.7,0.8l-2.8,10.1L-115.4,392.9z M-73.5,384.2l-38.7-0.8l-2.4,8.8l38.7,0.8
			L-73.5,384.2z"/>
		<polygon class="st0" points="-93.3,434.7 -100.6,434.6 -97.2,422.2 -90,422.4 		"/>
		<polygon class="st0" points="-88.6,400.3 -85,400.4 -87.2,408.5 -90.9,408.4 		"/>
		<polygon class="st0" points="-93.8,400.2 -89.5,400.3 -91.7,408.4 -96,408.3 		"/>
		<polygon class="st0" points="-96.3,409.5 -92,409.6 -94.3,417.6 -98.6,417.6 		"/>
		<polygon class="st0" points="-124.5,437.7 -123.8,437.3 -111.1,437.6 -106.6,421.5 -106,420.6 -110.8,437.9 -120.4,437.8 		"/>
		<polygon class="st0" points="-122.5,478.9 -118.1,462.8 -117.5,462 -122.3,479.3 -135.9,479 -135.3,478.6 		"/>
		<path class="st0" d="M-120.9,483.2l-19.1-0.4l24.1-87.1l19.1,0.4L-120.9,483.2z M-115.4,461.6l0.8-2.8l4.9-17.7l0.9-3.1l4.8-17.4
			l0.9-3.1l5.7-20.5l-18-0.4l-5.7,20.5l-0.9,3.1l-4.8,17.4l-0.9,3.1l-4.9,17.7l-0.8,2.8l-5.8,20.8l18,0.4L-115.4,461.6z"/>
		<polygon class="st0" points="-106.9,409.3 -102.9,409.3 -105.2,417.4 -109.2,417.3 		"/>
		<polygon class="st0" points="-116.8,458.1 -112.3,442 -111.7,441.1 -116.5,458.5 -130.2,458.2 -129.5,457.8 		"/>
		<polygon class="st0" points="-114,399.8 -109.7,399.9 -111.9,408 -116.2,407.9 		"/>
		<polygon class="st0" points="-104.4,400 -100.4,400.1 -102.6,408.2 -106.6,408.1 		"/>
		<polygon class="st0" points="-111.4,409.2 -107.8,409.2 -110,417.3 -113.7,417.2 		"/>
		<polygon class="st0" points="-108.9,399.9 -105.2,400 -107.5,408.1 -111.1,408 		"/>
		<polygon class="st0" points="-116.5,409.1 -112.3,409.2 -114.5,417.2 -118.8,417.2 		"/>
		<polygon points="-112.2,383.4 -73.5,384.2 -75.9,393 -114.6,392.2 		"/>
		<path d="M-133.4,461.3l0.8-2.8l4.9-17.7l0.9-3.1l4.8-17.4l0.9-3.1l5.7-20.5l18,0.4l-5.7,20.5l-0.9,3.1l-4.8,17.4l-0.9,3.1
			l-4.9,17.7l-0.8,2.8l-5.8,20.8l-18-0.4L-133.4,461.3z M-109.7,399.9l-4.3-0.1l-2.2,8.1l4.3,0.1L-109.7,399.9z M-112.3,409.2
			l-4.3-0.1l-2.2,8.1l4.3,0.1L-112.3,409.2z M-105.2,400l-3.6-0.1l-2.2,8.1l3.6,0.1L-105.2,400z M-107.8,409.2l-3.6-0.1l-2.2,8.1
			l3.6,0.1L-107.8,409.2z M-100.4,400.1l-4-0.1l-2.2,8.1l4,0.1L-100.4,400.1z M-102.9,409.3l-4-0.1l-2.2,8.1l4,0.1L-102.9,409.3z
			 M-106,420.6l-0.6,0.9l-4.5,16.1l-12.8-0.3l-0.6,0.4l4.1,0.1l9.6,0.2L-106,420.6z M-122.3,479.3l4.8-17.3l-0.6,0.9l-4.5,16.1
			l-12.8-0.3l-0.6,0.4L-122.3,479.3z M-116.5,458.5l4.8-17.3l-0.6,0.9l-4.5,16.1l-12.8-0.3l-0.6,0.4L-116.5,458.5z"/>
		<path d="M-113.2,461.7l0.8-2.8l4.9-17.7l0.9-3.1l4.8-17.4l0.9-3.1l5.7-20.5l18,0.4l-5.7,20.5l-0.9,3.1l-4.8,17.4l-0.9,3.1
			l-4.9,17.7l-0.8,2.8l-5.8,20.8l-18-0.4L-113.2,461.7z M-89.5,400.3l-4.3-0.1l-2.2,8.1l4.3,0.1L-89.5,400.3z M-92,409.6l-4.3-0.1
			l-2.2,8.1l4.3,0.1L-92,409.6z M-85,400.4l-3.6-0.1l-2.2,8.1l3.6,0.1L-85,400.4z M-87.6,409.7l-3.6-0.1l-2.2,8.1l3.6,0.1
			L-87.6,409.7z M-80.1,400.5l-4-0.1l-2.2,8.1l4,0.1L-80.1,400.5z M-82.7,409.8l-4-0.1l-2.2,8.1l4,0.1L-82.7,409.8z M-85.8,421
			l-0.6,0.9l-4.5,16.1l-12.8-0.3l-0.6,0.4l4.1,0.1l9.6,0.2L-85.8,421z M-102,479.7l4.8-17.3l-0.6,0.9l-4.5,16.1l-12.8-0.3l-0.6,0.4
			L-102,479.7z M-96.3,458.9l4.8-17.3l-0.6,0.9l-4.5,16.1l-12.8-0.3l-0.7,0.4L-96.3,458.9z"/>
	</g>
	<g>
		<polygon class="st0" points="-156.9,419.9 -152.4,403.8 -152.4,402.7 -157.2,420.1 -150.5,424.5 -147.6,426.3 -147.8,425.7 		"/>
		<polygon class="st0" points="-146.4,393.3 -149.2,391.4 -151.5,399.5 -148.6,401.3 		"/>
		<polygon class="st0" points="-162.6,440.5 -158.1,424.3 -158.1,423.3 -162.9,440.7 -153.3,446.9 -153.6,446.2 		"/>
		<polygon class="st0" points="-126.3,395.2 -128.9,393.6 -131.1,401.7 -128.6,403.3 		"/>
		<path class="st0" d="M-171.6,464.3l13.5,8.6l24.3-87.3l-13.5-8.6L-171.6,464.3z M-165.3,442.9l0.8-2.8l4.9-17.8l0.9-3.1l4.9-17.5
			l0.9-3.1l5.7-20.6l12.8,8.2l-5.7,20.6l-0.9,3.1l-4.9,17.5l-0.9,3.1l-4.9,17.8l-0.8,2.8l-5.8,20.9l-12.8-8.2L-165.3,442.9z"/>
		<polygon class="st0" points="-142.3,394.5 -139.3,396.4 -137,388.3 -140,386.4 		"/>
		<polygon class="st0" points="-144.9,403.8 -141.8,405.7 -139.6,397.6 -142.6,395.7 		"/>
		<polygon class="st0" points="-140.6,386 -143.2,384.4 -145.5,392.5 -142.9,394.1 		"/>
		<polygon class="st0" points="-143.2,395.3 -145.8,393.7 -148,401.7 -145.5,403.4 		"/>
		<polygon class="st0" points="-153.6,418.2 -148.4,421.5 -145,409.2 -150.1,405.9 		"/>
		<polygon class="st0" points="-143.8,384 -146.6,382.2 -148.9,390.3 -146.1,392.1 		"/>
		<polygon class="st0" points="-168.4,461.3 -163.9,445.2 -163.9,444.2 -168.8,461.6 -159.1,467.8 -159.4,467.1 		"/>
		<polygon class="st0" points="-128,403.7 -125,405.6 -122.7,397.5 -125.7,395.6 		"/>
		<polygon class="st0" points="-130.6,413 -127.5,414.9 -125.3,406.8 -128.3,404.9 		"/>
		<path class="st0" d="M-157.3,473.5l13.5,8.7l24.3-87.3l-13.5-8.7L-157.3,473.5z M-150.9,452.1l0.8-2.8l4.9-17.8l0.9-3.1l4.9-17.5
			l0.9-3.1l5.7-20.6l12.8,8.2l-5.7,20.6l-0.9,3.1l-4.9,17.5l-0.9,3.1l-4.9,17.8l-0.8,2.8l-5.8,20.9l-12.8-8.2L-150.9,452.1z"/>
		<polygon class="st0" points="-142.5,429.1 -138.1,412.9 -138.1,411.9 -142.9,429.3 -136.2,433.7 -133.3,435.5 -133.5,434.8 		"/>
		<polygon class="st0" points="-128.9,404.5 -131.5,402.8 -133.7,410.9 -131.2,412.6 		"/>
		<polygon class="st0" points="-154.1,470.5 -149.6,454.4 -149.6,453.4 -154.4,470.7 -144.8,477 -145.1,476.3 		"/>
		<polygon class="st0" points="-129.5,393.2 -132.3,391.3 -134.6,399.5 -131.8,401.3 		"/>
		<polygon class="st0" points="-132.1,402.5 -134.9,400.6 -137.2,408.7 -134.3,410.5 		"/>
		<polygon class="st0" points="-148.3,449.7 -143.8,433.5 -143.8,432.5 -148.6,449.9 -139,456.1 -139.2,455.4 		"/>
		<polygon points="-146.1,373.6 -118.7,391.2 -116.2,382.4 -143.6,364.8 		"/>
		<g>
			<polygon class="st0" points="-115.4,392.9 -75.6,393.6 -72.7,383.3 -74.8,383.4 -74.8,383.4 -112.5,382.6 			"/>
			<polygon class="st0" points="-95.6,396.2 -119.7,483.2 -100.6,483.6 -76.6,396.5 			"/>
			<polygon class="st0" points="-115.9,395.7 -140,482.8 -120.9,483.2 -96.8,396.1 			"/>
			<polygon class="st0" points="-116.6,386.2 -116.2,384.4 -116.1,384.4 -115.4,382.1 -118.6,380 -118.6,380 -142.8,364.5 
				-142.7,364.4 -143.7,363.7 -146.6,374 -118.4,392.1 			"/>
			<polygon class="st0" points="-171.6,464.3 -158.1,472.9 -133.8,385.7 -147.3,377 			"/>
			<polygon class="st0" points="-119.4,394.9 -133,386.2 -157.3,473.5 -143.7,482.2 			"/>
		</g>
		<path d="M-138.2,460.3l0.8-2.8l4.9-17.8l0.9-3.1l4.9-17.5l0.9-3.1l5.7-20.6l-12.8-8.2l-5.7,20.6l-0.9,3.1l-4.9,17.5l-0.9,3.1
			l-4.9,17.8l-0.8,2.8l-5.8,20.9l12.8,8.2L-138.2,460.3z M-128.9,393.6l2.6,1.6l-2.3,8.1l-2.6-1.6L-128.9,393.6z M-131.5,402.8
			l2.6,1.6l-2.3,8.1l-2.6-1.7L-131.5,402.8z M-132.3,391.3l2.8,1.8l-2.3,8.1l-2.8-1.8L-132.3,391.3z M-134.9,400.6l2.8,1.8l-2.3,8.1
			l-2.8-1.8L-134.9,400.6z M-154.4,470.7l4.8-17.4l0,1l-4.5,16.1l9,5.8l0.2,0.7L-154.4,470.7z M-148.6,449.9l4.8-17.4l0,1l-4.5,16.1
			l9,5.8l0.2,0.7L-148.6,449.9z M-136.2,433.7l-6.7-4.4l4.8-17.4l0,1l-4.5,16.1l9,5.8l0.2,0.7L-136.2,433.7z M-127.5,414.9l-3-2
			l2.3-8.1l3,1.9L-127.5,414.9z M-125,405.6l-3-1.9l2.3-8.1l3,1.9L-125,405.6z"/>
		<path d="M-152.5,451.1l0.8-2.8l4.9-17.8l0.9-3.1l4.9-17.5l0.9-3.1l5.7-20.6l-12.8-8.2l-5.7,20.6l-0.9,3.1l-4.9,17.5l-0.9,3.1
			l-4.9,17.8l-0.8,2.8l-5.8,20.9l12.8,8.2L-152.5,451.1z M-143.2,384.4l2.6,1.6l-2.3,8.1l-2.6-1.6L-143.2,384.4z M-145,409.2
			l-3.4,12.4l-5.1-3.3l3.5-12.3L-145,409.2z M-145.8,393.7l2.6,1.6l-2.3,8.1l-2.6-1.7L-145.8,393.7z M-146.6,382.2l2.8,1.8l-2.3,8.1
			l-2.8-1.8L-146.6,382.2z M-149.2,391.4l2.8,1.8l-2.3,8.1l-2.8-1.8L-149.2,391.4z M-168.8,461.6l4.8-17.4l0,1l-4.5,16.1l9,5.8
			l0.2,0.7L-168.8,461.6z M-162.9,440.7l4.8-17.4l0,1l-4.5,16.1l9,5.8l0.2,0.7L-162.9,440.7z M-150.5,424.5l-6.7-4.4l4.8-17.4l0,1
			l-4.5,16.1l9,5.8l0.2,0.7L-150.5,424.5z M-141.8,405.7l-3-2l2.3-8.1l3,1.9L-141.8,405.7z M-139.3,396.4l-3-1.9l2.3-8.1l3,1.9
			L-139.3,396.4z"/>
	</g>
	<g>
		<polygon class="st0" points="-157.3,473.5 -143.7,482.2 -119.4,394.9 -133,386.2 		"/>
		<polygon class="st0" points="-171.6,464.3 -158.1,472.9 -133.8,385.7 -147.3,377 		"/>
		<polygon class="st0" points="-115.9,395.7 -140,482.8 -120.9,483.2 -96.8,396.1 		"/>
		<polygon class="st0" points="-74.8,383.4 -112.5,382.6 -115.4,392.9 -75.6,393.6 -72.7,383.3 -74.8,383.4 		"/>
		<polygon class="st0" points="-118.6,380 -142.8,364.5 -142.7,364.4 -143.7,363.7 -146.6,374 -118.4,392.1 -116.6,386.2 
			-116.2,384.4 -116.1,384.4 -115.4,382.1 -118.6,380 		"/>
		<polygon class="st0" points="-95.6,396.2 -119.7,483.2 -100.6,483.6 -76.6,396.5 		"/>
		<rect x="-103.6" y="364.7" width="0" height="0.1"/>
		<polygon points="-103.6,364.7 -103.6,364.6 -103.6,364.7 		"/>
		<g>
			<polygon class="st0" points="-171.6,464.3 -158.1,472.9 -133.8,385.7 -147.3,377 			"/>
			<polygon class="st0" points="-118.6,380 -142.8,364.5 -142.7,364.4 -143.7,363.7 -146.6,374 -118.4,392.1 -116.6,386.2 
				-116.2,384.4 -116.1,384.4 -115.4,382.1 -118.6,380 			"/>
			<polygon class="st0" points="-157.3,473.5 -143.7,482.2 -119.4,394.9 -133,386.2 			"/>
			<polygon class="st0" points="-74.8,383.4 -112.5,382.6 -115.4,392.9 -75.6,393.6 -72.7,383.3 -74.8,383.4 			"/>
			<polygon class="st0" points="-95.6,396.2 -119.7,483.2 -100.6,483.6 -76.6,396.5 			"/>
			<polygon class="st0" points="-101.2,367.5 -102.4,366.7 -102,365.5 -102.6,365.4 -103,367 -101.9,367.8 -102.6,370.4 
				-109.7,370.5 -113.7,367.7 -112.9,364.9 -111.2,364.7 -110.9,363.5 -111.5,363.4 -111.7,364.3 -113.3,364.4 -114.3,367.9 
				-109.9,371.1 -102.2,371.1 			"/>
			<polygon class="st0" points="-115.9,395.7 -140,482.8 -120.9,483.2 -96.8,396.1 			"/>
			<g>
				<polygon class="st0" points="-171.6,464.3 -158.1,472.9 -133.8,385.7 -147.3,377 				"/>
				<polygon class="st0" points="-157.3,473.5 -143.7,482.2 -119.4,394.9 -133,386.2 				"/>
				<polygon class="st0" points="-118.6,380 -142.8,364.5 -142.7,364.4 -143.7,363.7 -146.6,374 -118.4,392.1 -116.6,386.2 
					-116.2,384.4 -116.1,384.4 -115.4,382.1 -118.6,380 				"/>
				<polygon class="st0" points="-74.8,383.4 -112.5,382.6 -115.4,392.9 -75.6,393.6 -72.7,383.3 -74.8,383.4 				"/>
				<polygon class="st0" points="-101.2,367.5 -102.4,366.7 -102,365.5 -102.6,365.4 -103,367 -101.9,367.8 -102.6,370.4 
					-109.7,370.5 -113.7,367.7 -112.9,364.9 -111.2,364.7 -110.9,363.5 -111.5,363.4 -111.7,364.3 -113.3,364.4 -114.3,367.9 
					-109.9,371.1 -102.2,371.1 				"/>
				<polygon class="st0" points="-95.6,396.2 -119.7,483.2 -100.6,483.6 -76.6,396.5 				"/>
				<polygon class="st0" points="-115.9,395.7 -140,482.8 -120.9,483.2 -96.8,396.1 				"/>
				<path d="M-95.4,483.9l-2.4-1.4l25.1-90.6l1.3,0l1.8-6.5l-1.3,0l0.5-1.8l-3.6-2.9l0.3-1.2l-1.7-1.6l0.7-2.4l-26.6-13.4l0.7-2.7
					l3.1-0.5l-5.7-6.6l-7.7,3.2l1.6,1.6l-0.8,3l-29.1-2.6l-0.8,2.9l-1.8,0.1l-0.5,1.7l-3.3,0.5l-0.3,1l-1.1,0.2l-1.8,6.5l0.9,0.6
					l-25.4,91l-2.3-0.1l-1.5,5.5l32.4,21.6l47.6,0.2L-95.4,483.9z M-106.3,360l4.6-0.3l-2,8l-4.9,0.8l-1.9-2.4l2.2-8.2L-106.3,360z
					 M-158.1,472.9l-13.5-8.6l24.3-87.3l13.5,8.6L-158.1,472.9z M-143.7,482.2l-13.5-8.7l24.3-87.3l13.5,8.7L-143.7,482.2z
					 M-116.1,384.4L-116.1,384.4l-0.5,1.8l-1.8,5.9l-28.1-18.2l2.9-10.3l1,0.8l0,0.1l24.2,15.5l0,0l3.2,2L-116.1,384.4z M-140,482.8
					l24.1-87.1l19.1,0.4l-24.1,87.1L-140,482.8z M-119.7,483.2l24.1-87.1l19,0.4l-24.1,87.1L-119.7,483.2z M-75.6,393.6l-39.8-0.7
					l2.9-10.3l37.8,0.8l0,0l2.1,0L-75.6,393.6z"/>
			</g>
		</g>
	</g>
</g>
</svg>
