<?xml version="1.0" encoding="utf-8"?>
<!-- Generator: Adobe Illustrator 19.0.0, SVG Export Plug-In . SVG Version: 6.00 Build 0)  -->
<svg version="1.1" id="Capa_1" xmlns="http://www.w3.org/2000/svg" xmlns:xlink="http://www.w3.org/1999/xlink" x="0px" y="0px"
	 viewBox="-210 325.9 173.5 190" style="enable-background:new -210 325.9 173.5 190;" xml:space="preserve">
<g>
	<path d="M-123.3,405L-123.3,405c-20.8,0-37.6,16.9-37.6,37.6l0,0c0,20.8,16.9,37.6,37.6,37.6l0,0c20.8,0,37.6-16.9,37.6-37.6l0,0
		C-85.6,421.8-102.5,405-123.3,405z M-126.2,423.5c0-1.6,1.3-2.9,2.9-2.9c0.8,0,1.6,0.3,2.1,0.9c0.5,0.5,0.8,1.2,0.8,1.9v1.3
		c0,6.6,0,13.3,0,20c0,1.5-1.3,2.8-2.9,2.8l0,0c-1.6,0-2.9-1.3-2.9-2.8c0-2.5,0-5,0-7.5c0-1.1,0-2.1,0-3.2v-0.8l0,0
		c0-0.7,0-1.5,0-2.2C-126.2,428.5-126.2,426-126.2,423.5z M-119.4,464.3c-11.3,2.2-22.3-5.3-24.4-16.6c0-0.1,0-0.1,0-0.2
		c-1.2-7,0.7-13.3,5.7-18.5c0.6-0.6,1.4-1,2.2-1c0.7,0,1.5,0.3,2,0.8c0.6,0.5,0.9,1.3,0.9,2.1c0,0.8-0.3,1.6-0.9,2.1
		c-2.3,2.4-3.7,5.2-4.2,8.4c-1.2,8.2,4.6,15.9,12.8,17s15.9-4.6,17-12.8c0.6-4.7-0.8-8.9-4.2-12.4c-0.9-1-1.2-1.9-0.9-3.1
		c0.5-1.5,2.1-2.4,3.6-2c0.5,0.1,0.9,0.4,1.2,0.7c3.6,3.6,5.6,8.1,6.1,13.1c0,0.4,0.1,0.8,0.1,1.2c0,0.2,0,0.4,0,0.5
		C-102.4,453.9-109.4,462.4-119.4,464.3z"/>
	<path d="M-51.1,433.7c-3.2,0-6,2.1-7,5h-15.4c-0.2-4.8-1.2-9.5-2.7-13.9c0,0,0.1,0,0.1,0l14.1-6.5l0,0c1.3,1.1,3,1.8,4.8,1.8
		c1,0,2-0.2,2.9-0.6c3.8-1.6,5.6-6,3.9-9.8c-1.2-2.8-4-4.5-6.9-4.5c-1,0-2,0.2-2.9,0.6c-3.3,1.4-5.1,4.9-4.4,8.3l-13.5,6.2
		c-2-4.3-4.6-8.2-7.7-11.8c0.1-0.1,0.3-0.2,0.4-0.3l11.2-11.2c0,0,0,0,0,0c1,0.5,2.1,0.8,3.2,0.8c1.9,0,3.8-0.7,5.3-2.2
		c2.9-2.9,2.9-7.6,0-10.6c-1.5-1.5-3.4-2.2-5.3-2.2c-1.9,0-3.8,0.7-5.3,2.2c-2.3,2.3-2.8,5.7-1.4,8.5c0,0,0,0,0,0l-11.2,11.2
		c-0.1,0.1-0.2,0.2-0.3,0.3c-3.8-3.6-8.2-6.6-13.1-8.9l5.6-13.4c2.8-0.2,5.4-1.9,6.5-4.6c1.5-3.8-0.3-8.2-4.1-9.7
		c-0.9-0.4-1.9-0.5-2.8-0.5c-3,0-5.8,1.8-6.9,4.7c-1.3,3.2-0.2,6.9,2.5,8.8l-5.4,12.9c0,0,0,0,0,0c-4.4-1.5-9-2.5-13.9-2.7
		c0,0,0,0,0-0.1V376c2.9-1,5-3.8,5-7c0-4.1-3.3-7.5-7.5-7.5c-4.1,0-7.5,3.3-7.5,7.5c0,3.2,2.1,6,5,7v15.4c0,0,0,0,0,0.1
		c-5.3,0.3-10.3,1.3-15,3.1c0-0.2-0.1-0.4-0.2-0.6l-6-12c0,0,0,0,0,0c2.3-2.1,3.2-5.5,1.9-8.5c-1.2-2.8-4-4.5-6.9-4.5
		c-1,0-2,0.2-2.9,0.6c-3.8,1.6-5.6,6-4,9.8c1.2,2.8,4,4.5,6.9,4.5c0.1,0,0.2,0,0.3,0l6.2,12.3c0.1,0.1,0.1,0.2,0.2,0.3
		c-4.3,2.1-8.2,4.8-11.6,8l-10.9-10.9c1.5-2.8,1.1-6.4-1.3-8.7c-1.5-1.5-3.4-2.2-5.3-2.2c-1.9,0-3.8,0.7-5.3,2.2
		c-2.9,2.9-2.9,7.6,0,10.6c1.5,1.5,3.4,2.2,5.3,2.2c1,0,2-0.2,2.9-0.6l11,11c-3.2,3.6-6,7.7-8,12.2l-14.6-6.7
		c-0.1-2.8-1.9-5.4-4.7-6.6c-0.9-0.4-1.9-0.5-2.8-0.5c-3,0-5.8,1.8-6.9,4.7c-1.5,3.8,0.3,8.2,4.1,9.7c0.9,0.4,1.9,0.5,2.8,0.5
		c2.3,0,4.6-1.1,6-3l14.1,6.5c0,0,0.1,0,0.1,0c-1.5,4.4-2.5,9-2.7,13.9h-15.4c-1-2.9-3.8-5-7-5c-4.1,0-7.5,3.3-7.5,7.5
		s3.3,7.5,7.5,7.5c3.2,0,6-2.1,7-5c0,0,17.6,0,17.9,0c1.4,0,2.5-1.1,2.5-2.5c0-24.7,20.1-44.8,44.8-44.8c24.7,0,44.8,20.1,44.8,44.8
		c0,1.4,1.1,2.5,2.5,2.5c0.2,0,17.9,0,17.9,0c1,2.9,3.8,5,7,5c4.1,0,7.5-3.3,7.5-7.5S-47,433.7-51.1,433.7z"/>
</g>
</svg>
