<?xml version="1.0" encoding="utf-8"?>
<!-- Generator: Adobe Illustrator 19.0.0, SVG Export Plug-In . SVG Version: 6.00 Build 0)  -->
<svg version="1.1" id="Capa_1" xmlns="http://www.w3.org/2000/svg" xmlns:xlink="http://www.w3.org/1999/xlink" x="0px" y="0px"
	 viewBox="-210 325.9 173.5 190" style="enable-background:new -210 325.9 173.5 190;" xml:space="preserve">
<text transform="matrix(1 0 0 1 87.6401 746.8352)" style="font-family:'MyriadPro-Regular'; font-size:12px;">d-11424</text>
<path d="M-40.3,485.8L-95.6,390l-20.3-35.1l-2.6-4.6c-1-1.7-2.8-2.7-4.8-2.7s-3.8,1.1-4.8,2.8l-2.6,4.5l-25.1,43.5l-50.5,87.5
	c-1,1.7-1,3.8,0,5.5s2.8,2.7,4.8,2.7h156.3c2,0,3.8-1.1,4.8-2.8C-39.3,489.6-39.3,487.5-40.3,485.8z M-191.9,483.1l43.9-76.2
	l24.7-42.7l20,34.7l48.7,84.2H-191.9z"/>
<path d="M-170.5,438.3c0.2-0.1,0.3-0.1,0.3-0.2c0.1-0.1,0.1-0.3,0.5-1.1c0.7-1.5,0.2-0.7,0.7-1.5c0.5-0.7,1.1-2.4,1.4-3
	c0.4-0.6-0.6,0.4,0.4-0.6s2.3-2.4,2.3-2.4s2.4-1.8,2.8-1.6c0.4,0.1,1.3-0.6,2.4-1c1.1-0.4,2.4-1.3,3.9-2.5c0.8-0.7,1.5-1.3,2.1-1.9
	c0.4-0.4,0.8-0.9,1.1-1.4c0.7-1.2,0.5-1,0.8-2.1c0.4-1.1,0.4-1.1,0.4-1.1l-0.5-0.5c0,0-0.1-0.4,0.1-0.7c0.1-0.1,0.3-0.2,0.7-0.2
	c1.1,0.1,2.2,0.2,3,0.2c0.7,0,0.9,0.5,2.4-0.2c1.4-0.7,1.6-0.9,2.8-0.6c1.2,0.2,1.2,0.2,1.2,0.2s-0.1,0.9,0.7,0.7
	c0.9-0.1,0.9-0.1,0.9-0.1l4.1,2.8c0,0,1.4,1.3,1.7,1.7c0.4,0.4,1,1.3,1.5,1.5c0.5,0.2,0,2.2,1.4,1.3c1.3-0.9,2.5-0.8,2.5-0.8
	l1.4,1.3l0,1.2c0,0,0,0.5,0.6,0.9c0.6,0.4-0.5,0,2.1,0.6c2.6,0.6,2.6,0.6,2.6,0.6l2,0.2c0.3-0.1,0.5-0.2,0.6-0.3
	c0.2-0.2,0.1-0.4,0.2-0.4c0,0,0.2,0,0.6,0.3c1.2,0.7,0.4,0.4,1.2,0.7c0.9,0.4,0.5,0,2,0.5c1.5,0.5,0.9,0.4,1.9,0.6
	c0.9,0.2,0.2,1.2,1.2,1.2c1,0,0.3,0.9,1.3,1.1c0.4,0.1,0.4,0.1,0.4,0.1c0,0,0,0,0,0c-0.1,0.1-0.1,0.3,0.8,0.8c1.7,1.1,0.4,2.5,2.2,2
	c1.9-0.4,3-0.8,3-0.8l2.2,0.5l1.5,0.2c0,0-0.1-0.6,0.1-0.8c0.1-0.1,0.2-0.1,0.5,0.2c0.7,0.7,2.7,2.7,2.7,2.7s-0.1,0.9,0.5,0.5
	c0.1,0,0.1-0.1,0.1-0.1c0.2-0.2-0.2-0.3-0.1-0.3c0,0,0.2,0,0.6,0c1.4,0.1,1.4,0.1,1.4,0.1l-0.9-0.9l-0.9-0.9l-0.6-0.6l0.5-1.7
	l1.1-0.4c0,0,0.5,0,0.7,0.7c0.3,0.7,0.1,1.6,0.6,1.8c0.1,0,0.1,0,0.1,0c0,0-0.2-0.3-0.1-0.3c0,0,0.1,0.1,0.5,0.5
	c1.1,1.1,1.1,1.1,1.1,1.1l1.2-1.2c0,0,0.1-0.4,0.4-0.8c0.2-0.2,0.4-0.3,0.7-0.4c0.9-0.1-0.2,1,0.9-0.1c1.1-1.1,0,0,1.1-1.1
	c1.1-1.1,1.1-1.1,1.1-1.1s0.8,0.2,1,0c0.1-0.1,0.1-0.4-0.2-0.8c-0.9-1.3-0.5-0.5-0.9-1.3c-0.4-0.9-2.2,0.3-1.4-1.3
	c0.8-1.6,0.8-1.6,0.8-1.6l0.1-2.7c-0.1-0.2-0.3-0.3-0.4-0.5c0.1,0.1,0.4,0.4,0.4,0.4l0,0.1c0.3,0.4,0.7,1,1.2,1.1c0.7,0.2-1,1.2,1,1
	c2-0.3,2-0.3,2-0.3s-0.6,0.6,0.4,0.4c0,0,0,0,0,0c-0.1,0-0.3,0.1-0.3,0.1c0,0,0.1,0,0.3-0.1c-0.3-0.5-0.5-1-0.8-1.4l-1.3,0.2
	c0,0,0-0.1,0-0.1c-0.2-0.4-0.5-0.6-0.9-0.8c-0.1,0-0.3-0.3-0.5-0.5c-0.1-0.2-0.2-0.3-0.3-0.4l-0.4-0.4l-0.1-0.1
	c-0.5-0.4-1.2-0.4-1.6,0c-0.4,0.5-0.4,1.2,0,1.6l0.1,0.1c0,0,0,0,0,0l-0.1,2.1l-0.7,1.4c-0.2,0.3-0.6,1.2-0.2,1.9
	c0.4,0.7,1.2,0.7,1.6,0.7c0,0,0,0,0.1,0c0.1,0.2,0.2,0.3,0.3,0.5c-0.1,0-0.1,0.1-0.2,0.2l-1.1,1.1l-0.5,0.6l-0.3,0.3
	c-0.1,0-0.3,0-0.4,0c-0.5,0.1-1,0.3-1.3,0.7c-0.3,0.3-0.5,0.7-0.6,1l-0.2,0.2l-0.3-0.3c-0.2-0.2-0.4-0.4-0.6-0.5c0,0,0-0.1,0-0.1
	c0-0.3-0.1-0.6-0.2-1c-0.4-1.1-1.2-1.5-1.8-1.5c-0.1,0-0.2,0-0.4,0.1l-1.1,0.4c-0.2,0.1-0.3,0.2-0.4,0.3c-0.1,0.1-0.2,0.3-0.3,0.5
	l-0.4,1.6l-1-0.9c-0.8-0.8-1.7-0.6-2.1-0.1c-0.1,0.1-0.2,0.2-0.2,0.3l-0.4-0.1l-2.2-0.5c-0.2,0-0.4,0-0.6,0c0,0-1,0.4-2.7,0.7
	c-0.2-0.5-0.5-1.3-1.5-1.9c-0.1-0.1-0.2-0.1-0.3-0.2c0,0,0,0,0-0.1c-0.2-0.6-0.7-0.8-1.1-0.9c-0.2-0.7-0.7-1-1.3-1.1
	c-0.1-0.4-0.5-1-1.4-1.2c-0.4-0.1-0.4-0.1-0.5-0.1c-0.2-0.1-0.5-0.2-1.2-0.4c-0.8-0.3-1.2-0.3-1.5-0.3c-0.1,0-0.1,0-0.4-0.1
	c-0.1,0-0.2-0.1-0.2-0.1c-0.1-0.1-0.4-0.3-0.9-0.6c-0.6-0.3-1.4-0.8-2-0.1c-0.1,0.1-0.2,0.2-0.2,0.3l-1.5-0.2l-2.5-0.6
	c-0.9-0.2-1.3-0.3-1.6-0.3c-0.1,0-0.1-0.1-0.2-0.1c0,0,0,0-0.1,0l0-1.1c0-0.3-0.1-0.6-0.4-0.8l-1.4-1.3c-0.2-0.2-0.4-0.3-0.7-0.3
	c-0.1,0-1.2-0.1-2.6,0.6c-0.1-0.4-0.3-0.8-0.8-1.1c-0.1-0.1-0.5-0.5-0.7-0.8c-0.2-0.2-0.3-0.4-0.5-0.5l-1.7-1.7c0,0-0.1-0.1-0.2-0.1
	l-4.1-2.8c-0.2-0.2-0.5-0.2-0.8-0.2l-0.4,0.1c-0.2-0.3-0.5-0.6-0.8-0.6l-1.2-0.2c-1.5-0.3-1.9-0.1-3.3,0.6l-0.3,0.1
	c-0.6,0.3-0.7,0.3-1,0.2c-0.2-0.1-0.5-0.1-0.9-0.1c-0.7,0-1.8-0.1-2.8-0.2c-0.9-0.1-1.4,0.2-1.7,0.5c-0.5,0.5-0.6,1.3-0.4,1.8
	c0.1,0.2,0.2,0.4,0.3,0.5l-0.1,0.4c-0.1,0.4-0.2,0.6-0.2,0.8c-0.1,0.3-0.1,0.4-0.5,1.1c-0.2,0.4-0.5,0.8-0.9,1.2
	c-0.4,0.4-0.9,0.9-1.6,1.4l-0.5,0.4c-1.7,1.5-2.9,2.1-3.5,2.3c-0.6,0.2-1.1,0.5-1.5,0.7c-0.2,0.1-0.4,0.2-0.5,0.3
	c-0.4,0-1.2,0.2-3.5,1.9c-0.1,0-0.1,0.1-0.2,0.1l-2.3,2.4c-0.4,0.4-0.8,0.8-0.8,1.3c-0.1,0.2-0.2,0.5-0.4,0.8
	c-0.3,0.6-0.6,1.3-0.8,1.6c-0.3,0.4-0.3,0.5-0.4,0.7c0,0-0.1,0.2-0.4,0.9c-0.2,0.4-0.3,0.7-0.4,0.8c-0.1,0.1-0.3,0.2-0.5,0.3
	C-171.1,437.7-170.8,438-170.5,438.3z"/>
<g>
	<g transform="translate(0,-952.36218)">
		<path d="M-139.2,1378.9c-0.1,0-0.2,0.1-0.2,0.2l-0.6,2.9v0l-0.4,1.9l-1.8,0.4h0l-3,0.6c-0.2,0-0.3,0.2-0.2,0.3
			c0,0.1,0.1,0.2,0.2,0.2l3,0.6h0l1.8,0.4l0.4,1.8v0l0.6,2.9c0,0.2,0.2,0.2,0.3,0.2c0.1,0,0.2-0.1,0.2-0.2l0.6-2.9c0,0,0,0,0,0
			l0.3-1.8l1.9-0.4h0l3-0.6c0.2,0,0.3-0.2,0.2-0.3c0-0.1-0.1-0.2-0.2-0.2l-3-0.6h0l-1.9-0.4l-0.3-1.9c0,0,0,0,0,0l-0.6-2.9
			C-138.9,1379-139.1,1378.9-139.2,1378.9L-139.2,1378.9z"/>
	</g>
	<path d="M-139.2,440.9c-4.5,0-8.2-3.7-8.2-8.2c0-4.5,3.7-8.2,8.2-8.2s8.2,3.7,8.2,8.2C-130.9,437.2-134.6,440.9-139.2,440.9z
		 M-139.2,425.1c-4.2,0-7.6,3.4-7.6,7.6c0,4.2,3.4,7.6,7.6,7.6c4.2,0,7.6-3.4,7.6-7.6C-131.6,428.5-135,425.1-139.2,425.1z"/>
</g>
<g>
	<g transform="translate(0,-952.36218)">
		<path d="M-93.6,1406.5c-0.1,0-0.2,0.1-0.2,0.2l-0.6,2.9v0l-0.4,1.9l-1.8,0.4h0l-3,0.6c-0.2,0-0.3,0.2-0.2,0.3
			c0,0.1,0.1,0.2,0.2,0.2l3,0.6h0l1.8,0.4l0.4,1.8v0l0.6,2.9c0,0.2,0.2,0.2,0.3,0.2c0.1,0,0.2-0.1,0.2-0.2l0.6-2.9c0,0,0,0,0,0
			l0.3-1.8l1.9-0.4h0l3-0.6c0.2,0,0.3-0.2,0.2-0.3c0-0.1-0.1-0.2-0.2-0.2l-3-0.6h0l-1.9-0.4l-0.3-1.9c0,0,0,0,0,0l-0.6-2.9
			C-93.3,1406.6-93.4,1406.5-93.6,1406.5L-93.6,1406.5z"/>
	</g>
	<path d="M-93.5,468.6c-4.5,0-8.2-3.7-8.2-8.2c0-4.5,3.7-8.2,8.2-8.2s8.2,3.7,8.2,8.2C-85.3,464.9-89,468.6-93.5,468.6z
		 M-93.5,452.8c-4.2,0-7.6,3.4-7.6,7.6c0,4.2,3.4,7.6,7.6,7.6c4.2,0,7.6-3.4,7.6-7.6C-86,456.2-89.4,452.8-93.5,452.8z"/>
</g>
<g>
	<g transform="translate(0,-952.36218)">
		<path d="M-157.9,1406.5c-0.1,0-0.2,0.1-0.2,0.2l-0.6,2.9v0l-0.4,1.9l-1.8,0.4h0l-3,0.6c-0.2,0-0.3,0.2-0.2,0.3
			c0,0.1,0.1,0.2,0.2,0.2l3,0.6h0l1.8,0.4l0.4,1.8v0l0.6,2.9c0,0.2,0.2,0.2,0.3,0.2c0.1,0,0.2-0.1,0.2-0.2l0.6-2.9c0,0,0,0,0,0
			l0.3-1.8l1.9-0.4h0l3-0.6c0.2,0,0.3-0.2,0.2-0.3c0-0.1-0.1-0.2-0.2-0.2l-3-0.6h0l-1.9-0.4l-0.3-1.9c0,0,0,0,0,0l-0.6-2.9
			C-157.7,1406.6-157.8,1406.5-157.9,1406.5L-157.9,1406.5z"/>
	</g>
	<path d="M-157.9,468.6c-4.5,0-8.2-3.7-8.2-8.2c0-4.5,3.7-8.2,8.2-8.2s8.2,3.7,8.2,8.2C-149.7,464.9-153.4,468.6-157.9,468.6z
		 M-157.9,452.8c-4.2,0-7.6,3.4-7.6,7.6c0,4.2,3.4,7.6,7.6,7.6c4.2,0,7.6-3.4,7.6-7.6C-150.3,456.2-153.7,452.8-157.9,452.8z"/>
</g>
</svg>
