<?xml version="1.0" encoding="utf-8"?>
<!-- Generator: Adobe Illustrator 19.0.0, SVG Export Plug-In . SVG Version: 6.00 Build 0)  -->
<svg version="1.1" id="Capa_1" xmlns="http://www.w3.org/2000/svg" xmlns:xlink="http://www.w3.org/1999/xlink" x="0px" y="0px"
	 viewBox="-210 325.9 173.5 190" style="enable-background:new -210 325.9 173.5 190;" xml:space="preserve">
<g id="XMLID_100_">
	<path d="M-45.1,494.1h-156.3c-2,0-3.8-1-4.8-2.7s-1-3.8,0-5.5l78.1-135.4c1-1.7,2.8-2.8,4.8-2.8l0,0c2,0,3.8,1,4.8,2.7l78.2,135.4
		c1,1.7,1,3.8,0,5.5C-41.3,493-43.1,494.1-45.1,494.1z M-191.9,483.1h137.3l-68.7-118.9L-191.9,483.1z"/>
</g>
<g>
	<path d="M-93.9,455.8l-10.4-9.1c4.8-7.1,6.5-16.2,4-24.2c-3.7-11.9-15-18.4-24.4-19.6c-0.8-0.1-1.5,0.4-1.7,1.1
		c-0.2,0.7,0.2,1.5,0.9,1.8c8.6,3.6,14.6,10,16.5,17.6c0.7,2.7,1.6,9.5-3.1,16.4l-17.7-15.6l6.5-7.5c0.4-0.5,0.5-1.1,0.2-1.6
		c-0.2-0.5-0.8-0.9-1.4-0.9l-12.1-0.1c-0.4,0-0.9,0.2-1.2,0.5l-13.9,16.4c-0.3,0.3-0.4,0.7-0.4,1.1c0,0.4,0.2,0.8,0.5,1l8.2,6.9
		c0.6,0.5,1.6,0.5,2.1-0.2l5.8-6.8l15.1,13.5c-1.9,0.7-3.9,1.1-6.1,1.1c-4.3,0-9.1-1.5-13.5-4.1c-0.6-0.4-1.5-0.2-1.9,0.3
		l-12.8,15.1c-0.3,0.3-0.4,0.7-0.4,1.2c0,0.4,0.3,0.8,0.6,1l5.6,4.2c0.3,0.2,0.6,0.3,0.9,0.3c0.4,0,0.9-0.2,1.2-0.6l8.3-10
		c3.2,1.5,8.2,3,13.6,3c4.8,0,9-1.1,12.5-3.4c0.2-0.2,0.5-0.3,0.7-0.5l10.8,9.7c0.3,0.3,0.6,0.4,1,0.4c0,0,0.1,0,0.1,0
		c0.4,0,0.8-0.2,1.1-0.5l4.9-5.8C-93.3,457.3-93.3,456.3-93.9,455.8z M-134.5,429.8c-0.3-0.3-0.7-0.4-1.1-0.4
		c-0.4,0-0.8,0.2-1.1,0.5l-5.8,6.8l-5.9-4.9l12.4-14.7l8.1,0.1l-5.3,6.2c-0.5,0.6-0.5,1.6,0.1,2.1l19,16.7c-1,1.1-2.1,2.1-3.3,2.9
		L-134.5,429.8z M-114.1,452.1c-3,1.9-6.6,2.9-10.8,2.9c-5.5,0-10.6-1.7-13.3-3.2c-0.6-0.4-1.4-0.2-1.9,0.4l-8.1,9.8l-3.1-2.3
		l10.9-12.9c4.6,2.6,9.4,3.9,14,3.9c6,0,11.2-2.4,15.1-7c7.3-8.6,6.2-17.6,5.3-21.1c-1.1-4.5-3.4-8.5-6.7-12
		c4.2,2.9,7.8,7.2,9.5,12.7C-100,433.7-104.6,446.1-114.1,452.1z M-100,460.6l-9.3-8.3c1.1-1,2.2-2,3.1-3.2l9.1,8L-100,460.6z"/>
</g>
</svg>
