<?xml version="1.0" encoding="utf-8"?>
<!-- Generator: Adobe Illustrator 19.0.0, SVG Export Plug-In . SVG Version: 6.00 Build 0)  -->
<svg version="1.1" id="Capa_1" xmlns="http://www.w3.org/2000/svg" xmlns:xlink="http://www.w3.org/1999/xlink" x="0px" y="0px"
	 viewBox="-210 325.9 173.5 190" style="enable-background:new -210 325.9 173.5 190;" xml:space="preserve">
<g id="XMLID_100_">
	<path d="M-45.1,494.1h-156.3c-2,0-3.8-1-4.8-2.7s-1-3.8,0-5.5l78.1-135.4c1-1.7,2.8-2.8,4.8-2.8l0,0c2,0,3.8,1,4.8,2.7l78.2,135.4
		c1,1.7,1,3.8,0,5.5C-41.3,493-43.1,494.1-45.1,494.1z M-191.9,483.1h137.3l-68.7-118.9L-191.9,483.1z"/>
</g>
<g>
	<path d="M-123.2,465.1c-7.1,1.3-13.8-3.4-15.2-10.4s3.4-13.8,10.4-15.1c7.1-1.3,13.8,3.4,15.2,10.4
		C-111.5,457-116.2,463.8-123.2,465.1z"/>
	<path d="M-88.1,457.4c-0.3,0-0.5,0-0.8-0.1l-65.2-28.7c-0.7-0.3-1-1.1-0.7-1.8c0.3-0.7,1.1-1,1.8-0.7l65.2,28.7
		c0.7,0.3,1,1.1,0.7,1.8C-87.3,457-87.7,457.3-88.1,457.4z"/>
	<path d="M-142.4,433.5c-0.3,0-0.5,0-0.8-0.1l-9.7-4.3c-0.3-0.1-0.6-0.4-0.7-0.8c-0.1-0.3-0.1-0.7,0-1l3.7-8.4
		c0.3-0.7,1.1-1,1.8-0.7l9.7,4.3c0.3,0.1,0.6,0.4,0.7,0.8c0.1,0.3,0.1,0.7,0,1l-3.7,8.4c-0.1,0.3-0.4,0.6-0.8,0.7
		C-142.2,433.5-142.3,433.5-142.4,433.5z M-150.5,427.2l7.2,3.2l2.6-5.9l-7.2-3.2L-150.5,427.2z"/>
	<path d="M-100.3,452c-0.3,0-0.5,0-0.8-0.1l-9.7-4.3c-0.7-0.3-1-1.1-0.7-1.8l3.7-8.4c0.1-0.3,0.4-0.6,0.8-0.7c0.3-0.1,0.7-0.1,1,0
		l9.7,4.3c0.3,0.1,0.6,0.4,0.7,0.8c0.1,0.3,0.1,0.7,0,1l-3.7,8.4C-99.5,451.6-99.9,451.9-100.3,452z M-108.5,445.7l7.2,3.2l2.6-5.9
		l-7.2-3.2L-108.5,445.7z"/>
	<path d="M-90.6,456.3c-0.3,0-0.5,0-0.8-0.1l-9.7-4.3c-0.3-0.1-0.6-0.4-0.7-0.8c-0.1-0.3-0.1-0.7,0-1l3.7-8.4c0.3-0.7,1.1-1,1.8-0.7
		l9.7,4.3c0.3,0.1,0.6,0.4,0.7,0.8c0.1,0.3,0.1,0.7,0,1l-3.7,8.4C-89.8,455.9-90.2,456.2-90.6,456.3z M-98.8,450l7.2,3.2l2.6-5.9
		l-7.2-3.2L-98.8,450z"/>
	<path d="M-91.8,445.7c-0.3,0-0.5,0-0.8-0.1l-9.7-4.3c-0.3-0.1-0.6-0.4-0.7-0.8c-0.1-0.3-0.1-0.7,0-1l3.7-8.4
		c0.1-0.3,0.4-0.6,0.8-0.7c0.3-0.1,0.7-0.1,1,0l9.7,4.3c0.7,0.3,1,1.1,0.7,1.8l-3.7,8.4C-91,445.4-91.3,445.7-91.8,445.7z
		 M-99.9,439.4l7.2,3.2l2.6-5.9l-7.2-3.2L-99.9,439.4z"/>
</g>
</svg>
