<?xml version="1.0" encoding="utf-8"?>
<!-- Generator: Adobe Illustrator 19.0.0, SVG Export Plug-In . SVG Version: 6.00 Build 0)  -->
<svg version="1.1" id="Capa_1" xmlns="http://www.w3.org/2000/svg" xmlns:xlink="http://www.w3.org/1999/xlink" x="0px" y="0px"
	 viewBox="-210 325.9 173.5 190" style="enable-background:new -210 325.9 173.5 190;" xml:space="preserve">
<g id="XMLID_100_">
	<path d="M-45.1,494.1h-156.3c-2,0-3.8-1-4.8-2.7s-1-3.8,0-5.5l78.1-135.4c1-1.7,2.8-2.8,4.8-2.8l0,0c2,0,3.8,1,4.8,2.7l78.2,135.4
		c1,1.7,1,3.8,0,5.5C-41.3,493-43.1,494.1-45.1,494.1z M-191.9,483.1h137.3l-68.7-118.9L-191.9,483.1z"/>
</g>
<g>
	<path d="M-126.6,446.8c-0.1-0.1-0.4-0.2-0.4-0.6v-31.8c0-4.5-3.7-8.2-8.2-8.2s-8.2,3.7-8.2,8.2v31.8c0,0.3-0.2,0.5-0.4,0.5
		c-4.5,2.9-7.3,7.9-7.3,13.3c0,8.7,7.1,15.9,15.9,15.9s15.9-7.1,15.9-15.9C-119.3,454.8-122,449.7-126.6,446.8L-126.6,446.8z
		 M-135.1,473.1c-7.1,0-13-5.8-13-13c0-4.8,2.6-9.2,6.9-11.4l0.2-0.1c0,0,0.6-0.2,0.6-1.2v-33c0-2.9,2.4-5.3,5.3-5.3
		c2.9,0,5.3,2.4,5.3,5.3v33c0,0.9,0.6,1.2,0.6,1.2l0.1,0.1c4.2,2.3,6.9,6.6,6.9,11.4C-122.2,467.3-128,473.1-135.1,473.1
		L-135.1,473.1z M-135.1,473.1"/>
	<path d="M-132.6,454.1c-0.1-0.1-0.4-0.1-0.4-0.6v-32.7c0-1.2-0.9-2.1-2.1-2.1c-1.2,0-2.1,0.9-2.1,2.1v32.7c0,0.5-0.3,0.6-0.5,0.6
		c-2.7,1-4.6,3.7-4.6,6.7c0,4,3.2,7.2,7.2,7.2s7.2-3.2,7.2-7.2C-127.9,457.8-129.8,455.1-132.6,454.1L-132.6,454.1z M-132.6,454.1"
		/>
	<path d="M-113.2,415h11.4c0.6,0,1.2-0.5,1.2-1.2c0-0.6-0.5-1.2-1.2-1.2h-11.4c-0.6,0-1.2,0.5-1.2,1.2
		C-114.3,414.5-113.8,415-113.2,415L-113.2,415z M-113.2,415"/>
	<path d="M-113.2,422.5h15.2c0.6,0,1.2-0.5,1.2-1.2c0-0.6-0.5-1.2-1.2-1.2h-15.2c-0.6,0-1.2,0.5-1.2,1.2
		C-114.3,422-113.8,422.5-113.2,422.5L-113.2,422.5z M-113.2,422.5"/>
	<path d="M-113.2,429.9h11.4c0.6,0,1.2-0.5,1.2-1.2c0-0.6-0.5-1.2-1.2-1.2h-11.4c-0.6,0-1.2,0.5-1.2,1.2
		C-114.3,429.4-113.8,429.9-113.2,429.9L-113.2,429.9z M-113.2,429.9"/>
	<path d="M-97.9,437.4c0.6,0,1.2-0.5,1.2-1.2c0-0.6-0.5-1.2-1.2-1.2h-15.2c-0.6,0-1.2,0.5-1.2,1.2c0,0.6,0.5,1.2,1.2,1.2H-97.9z
		 M-97.9,437.4"/>
	<path d="M-96,458.2l-6.7-8.7c-0.5-0.6-1.1-1-1.9-1c-0.7,0-1.4,0.3-1.9,1l-6.7,8.7c-0.5,0.7-0.7,1.4-0.3,2.1c0.3,0.6,1,1,1.9,1h1.6
		c0.2,0,0.4,0.2,0.4,0.4v9.5c0,1.5,1.2,2.7,2.7,2.7h4.4c1.5,0,2.7-1.2,2.7-2.7v-9.5c0-0.2,0.2-0.4,0.4-0.4h2c0.9,0,1.5-0.4,1.9-1
		C-95.4,459.6-95.5,458.9-96,458.2L-96,458.2z M-98.6,459h-0.9c-1.5,0-2.7,1.2-2.7,2.7v9.5c0,0.2-0.2,0.4-0.4,0.4h-4.4
		c-0.2,0-0.4-0.2-0.4-0.4v-9.5c0-1.5-1.2-2.7-2.7-2.7h-0.5c-0.2,0-0.1-0.1-0.1-0.1l5.8-7.5c0,0,0.2-0.2,0.3-0.2
		c0.2,0,0.3,0.2,0.3,0.2l5.8,7.5C-98.5,458.8-98.4,459-98.6,459L-98.6,459z M-98.6,459"/>
</g>
</svg>
