<?xml version="1.0" encoding="utf-8"?>
<!-- Generator: Adobe Illustrator 19.0.0, SVG Export Plug-In . SVG Version: 6.00 Build 0)  -->
<svg version="1.1" id="Capa_1" xmlns="http://www.w3.org/2000/svg" xmlns:xlink="http://www.w3.org/1999/xlink" x="0px" y="0px"
	 viewBox="-210 325.9 173.5 190" style="enable-background:new -210 325.9 173.5 190;" xml:space="preserve">
<g id="XMLID_100_">
	<path d="M-45.1,494.1h-156.3c-2,0-3.8-1-4.8-2.7s-1-3.8,0-5.5l78.1-135.4c1-1.7,2.8-2.8,4.8-2.8l0,0c2,0,3.8,1,4.8,2.7l78.2,135.4
		c1,1.7,1,3.8,0,5.5C-41.3,493-43.1,494.1-45.1,494.1z M-191.9,483.1h137.3l-68.7-118.9L-191.9,483.1z"/>
</g>
<g>
	<rect x="-124" y="465.6" width="1.6" height="3.7"/>
	<path d="M-123.2,410.4c-17.9,0-32.4,14.5-32.4,32.4c0,17.9,14.5,32.4,32.4,32.4s32.4-14.5,32.4-32.4
		C-90.8,425-105.3,410.4-123.2,410.4z M-123.2,471.8c-15.9,0-28.9-12.9-28.9-28.9c0-15.9,12.9-28.9,28.9-28.9s28.9,12.9,28.9,28.9
		C-94.4,458.8-107.3,471.8-123.2,471.8z"/>
	<rect x="-124" y="416.5" width="1.6" height="3.7"/>
	<rect x="-149.6" y="442.1" width="3.7" height="1.6"/>
	<rect x="-100.6" y="442.1" width="3.7" height="1.6"/>
	<rect x="-142.4" y="424.8" transform="matrix(0.7071 0.7071 -0.7071 0.7071 259.7354 224.0511)" width="3.7" height="1.6"/>
	<rect x="-107.8" y="459.4" transform="matrix(0.7071 0.7071 -0.7071 0.7071 294.4084 209.6892)" width="3.7" height="1.6"/>
	<rect x="-141.4" y="458.4" transform="matrix(0.7071 0.7071 -0.7071 0.7071 284.253 234.2068)" width="1.6" height="3.7"/>
	<rect x="-106.7" y="423.7" transform="matrix(0.7071 0.7071 -0.7071 0.7071 269.8908 199.5337)" width="1.6" height="3.7"/>
	<path d="M-121.2,442.9c0-0.9-0.5-1.6-1.3-1.9l-0.7-16.7L-124,441c-0.8,0.3-1.3,1-1.3,1.9c0,1.1,0.9,2,2,2c0.3,0,0.6-0.1,0.9-0.2
		l6.1,5.2l-5.2-6.1C-121.3,443.5-121.2,443.2-121.2,442.9z"/>
</g>
</svg>
