<?xml version="1.0" encoding="utf-8"?>
<!-- Generator: Adobe Illustrator 19.0.0, SVG Export Plug-In . SVG Version: 6.00 Build 0)  -->
<svg version="1.1" id="Capa_1" xmlns="http://www.w3.org/2000/svg" xmlns:xlink="http://www.w3.org/1999/xlink" x="0px" y="0px"
	 viewBox="-210 325.9 173.5 190" style="enable-background:new -210 325.9 173.5 190;" xml:space="preserve">
<g id="XMLID_100_">
	<path d="M-45.1,494.1h-156.3c-2,0-3.8-1-4.8-2.7s-1-3.8,0-5.5l78.1-135.4c1-1.7,2.8-2.8,4.8-2.8l0,0c2,0,3.8,1,4.8,2.7l78.2,135.4
		c1,1.7,1,3.8,0,5.5C-41.3,493-43.1,494.1-45.1,494.1z M-191.9,483.1h137.3l-68.7-118.9L-191.9,483.1z"/>
</g>
<path d="M-154.6,459.5c-1.4,1.4-2.1,3.2-2.1,5.3c0,4,3.2,7.2,7.2,7.2c2,0,4-0.9,5.3-2.4l25.2-27.7l-9-9L-154.6,459.5z M-90.2,433.3
	l-5.6-5.6c-0.3-0.3-0.6-0.4-1-0.4h-1.4v-1.4c0-0.4-0.1-0.7-0.4-1l-11.2-11.2c-2.2-2.2-6-6-13.6-6c-7.6,0-11,3.5-13.6,6
	c-0.4,0.4-0.5,1-0.3,1.5c0.2,0.5,0.7,0.9,1.3,0.9c11.3,0,12.6,4.8,12.6,8.4c0,3-1.7,5.3-2.8,6.4l9.1,9.1c2.5-1.7,6-3.6,7.6-3.5v1.9
	c0,0.4,0.1,0.7,0.4,1l7,7c0.3,0.3,0.6,0.4,1,0.4h0c0.4,0,0.8-0.2,1-0.5l9.8-11.2C-89.6,434.7-89.6,433.8-90.2,433.3z"/>
</svg>
