<?xml version="1.0" encoding="utf-8"?>
<!-- Generator: Adobe Illustrator 19.0.0, SVG Export Plug-In . SVG Version: 6.00 Build 0)  -->
<svg version="1.1" id="Capa_1" xmlns="http://www.w3.org/2000/svg" xmlns:xlink="http://www.w3.org/1999/xlink" x="0px" y="0px"
	 viewBox="-210 325.9 173.5 190" style="enable-background:new -210 325.9 173.5 190;" xml:space="preserve">
<style type="text/css">
	.st0{clip-path:url(#SVGID_1_);}
</style>
<g id="XMLID_100_">
	<path d="M-45.1,494.1h-156.3c-2,0-3.8-1-4.8-2.7s-1-3.8,0-5.5l78.1-135.4c1-1.7,2.8-2.8,4.8-2.8l0,0c2,0,3.8,1,4.8,2.7l78.2,135.4
		c1,1.7,1,3.8,0,5.5C-41.3,493-43.1,494.1-45.1,494.1z M-191.9,483.1h137.3l-68.7-118.9L-191.9,483.1z"/>
</g>
<g>
	<path d="M-123.6,428.9c-3.5,0-6.1-1.5-6.1-3.5s2.6-3.5,6.1-3.5c3.5,0,6.1,1.5,6.1,3.5C-117.5,427.4-120.2,428.9-123.6,428.9
		L-123.6,428.9z M-123.6,424c-2.4,0-3.9,0.9-3.9,1.4c0,0.4,1.5,1.4,3.9,1.4c2.4,0,3.9-0.9,3.9-1.4C-119.7,425-121.1,424-123.6,424
		L-123.6,424z M-123.6,424"/>
	<path d="M-123.6,435.6c-3.5,0-6.1-1.5-6.1-3.5v-6.7c0-0.6,0.5-1.1,1.1-1.1c0.6,0,1.1,0.5,1.1,1.1v6.7c0,0.4,1.5,1.4,3.9,1.4
		c2.6,0,3.9-1,3.9-1.4v-6.7c0-0.6,0.5-1.1,1.1-1.1s1.1,0.5,1.1,1.1v6.7C-117.5,434.1-120.2,435.6-123.6,435.6L-123.6,435.6z
		 M-123.6,435.6"/>
	<path d="M-109.7,421.2c-3.5,0-6.1-1.5-6.1-3.5c0-2,2.6-3.5,6.1-3.5c3.5,0,6.1,1.5,6.1,3.5C-103.7,419.7-106.3,421.2-109.7,421.2
		L-109.7,421.2z M-109.7,416.3c-2.4,0-3.9,0.9-3.9,1.4c0,0.4,1.5,1.4,3.9,1.4c2.4,0,3.9-0.9,3.9-1.4
		C-105.8,417.3-107.2,416.3-109.7,416.3L-109.7,416.3z M-109.7,416.3"/>
	<path d="M-109.7,427.9c-3.5,0-6.1-1.5-6.1-3.5v-6.7c0-0.6,0.5-1.1,1.1-1.1c0.6,0,1.1,0.5,1.1,1.1v6.7c0,0.4,1.5,1.4,3.9,1.4
		c2.6,0,3.9-1,3.9-1.4v-6.7c0-0.6,0.5-1.1,1.1-1.1c0.6,0,1.1,0.5,1.1,1.1v6.7C-103.7,426.4-106.3,427.9-109.7,427.9L-109.7,427.9z
		 M-109.7,427.9"/>
	<path d="M-137.7,421.2c-3.5,0-6.1-1.5-6.1-3.5c0-2,2.6-3.5,6.1-3.5c3.5,0,6.1,1.5,6.1,3.5C-131.6,419.7-134.3,421.2-137.7,421.2
		L-137.7,421.2z M-137.7,416.4c-2.6,0-3.9,1-3.9,1.4c0,0.4,1.5,1.4,3.9,1.4c2.4,0,3.9-0.9,3.9-1.4
		C-133.8,417.3-135.2,416.4-137.7,416.4L-137.7,416.4z M-137.7,416.4"/>
	<path d="M-137.7,427.9c-3.5,0-6.1-1.5-6.1-3.5v-6.7c0-0.6,0.5-1.1,1.1-1.1c0.6,0,1.1,0.5,1.1,1.1v6.7c0,0.4,1.4,1.4,3.9,1.4
		c2.5,0,3.9-1,3.9-1.4v-6.7c0-0.6,0.5-1.1,1.1-1.1c0.6,0,1.1,0.5,1.1,1.1v6.7C-131.6,426.4-134.3,427.9-137.7,427.9L-137.7,427.9z
		 M-137.7,427.9"/>
	<path d="M-123.5,413.4c-3.5,0-6.1-1.5-6.1-3.5c0-2,2.6-3.5,6.1-3.5c3.5,0,6.1,1.5,6.1,3.5C-117.5,411.9-120.1,413.4-123.5,413.4
		L-123.5,413.4z M-123.5,408.6c-2.4,0-3.9,0.9-3.9,1.4c0,0.4,1.5,1.4,3.9,1.4c2.4,0,3.9-0.9,3.9-1.4
		C-119.6,409.5-121,408.6-123.5,408.6L-123.5,408.6z M-123.5,408.6"/>
	<path d="M-123.5,420.1c-3.5,0-6.1-1.5-6.1-3.5v-6.7c0-0.6,0.5-1.1,1.1-1.1c0.6,0,1.1,0.5,1.1,1.1v6.7c0,0.4,1.5,1.4,3.9,1.4
		c2.4,0,3.9-0.9,3.9-1.4v-6.7c0-0.6,0.5-1.1,1.1-1.1c0.6,0,1.1,0.5,1.1,1.1v6.7C-117.5,418.6-120.1,420.1-123.5,420.1L-123.5,420.1z
		 M-123.5,420.1"/>
	<path d="M-124,475.3c-0.2,0-0.5-0.1-0.7-0.2l-27.3-15.4c-0.4-0.3-0.7-0.7-0.7-1.3v-33c0-0.5,0.3-1,0.7-1.2c0.4-0.3,1-0.3,1.4,0
		l27.3,15.5c0.4,0.3,0.7,0.7,0.7,1.2l0,32.9c0,0.5-0.3,1-0.7,1.2C-123.5,475.3-123.8,475.3-124,475.3L-124,475.3z M-149.9,457.7"/>
	<path d="M-124,475.3c-0.3,0-0.5-0.1-0.7-0.2c-0.4-0.3-0.7-0.7-0.7-1.2V441c0-0.5,0.3-1,0.7-1.3l27.6-15.4c0.4-0.3,1-0.2,1.4,0
		c0.4,0.3,0.7,0.7,0.7,1.2l0,32.9c0,0.5-0.3,1-0.7,1.2l-27.6,15.5C-123.5,475.3-123.8,475.3-124,475.3L-124,475.3z M-122.6,441.8
		v29.6l24.7-13.9l0-29.6L-122.6,441.8z M-122.6,441.8"/>
	<path d="M-96.7,426.8c-0.2,0-0.5-0.1-0.7-0.2l-7.5-4.1c-0.7-0.4-1-1.2-0.6-1.9c0.4-0.7,1.2-1,1.9-0.6l7.5,4.1
		c0.7,0.4,1,1.3,0.6,1.9C-95.7,426.5-96.2,426.8-96.7,426.8L-96.7,426.8z M-96.7,426.8"/>
	<g>
		<defs>
			<rect id="SVGID_3_" x="-152.8" y="406.4" width="59" height="70"/>
		</defs>
		<clipPath id="SVGID_1_">
			<use xlink:href="#SVGID_3_"  style="overflow:visible;"/>
		</clipPath>
		<path class="st0" d="M-114.4,417.5c-0.2,0-0.4-0.1-0.7-0.2l-3.6-1.8c-0.7-0.4-1-1.2-0.6-1.9c0.4-0.7,1.2-1,1.9-0.6l3.6,1.8
			c0.7,0.4,1,1.2,0.6,1.9C-113.4,417.2-113.9,417.5-114.4,417.5L-114.4,417.5z M-114.4,417.5"/>
		<path class="st0" d="M-151.3,426.8c-0.5,0-1-0.3-1.3-0.8c-0.4-0.7-0.1-1.6,0.6-1.9l7.5-4.1c0.7-0.4,1.6-0.1,1.9,0.6
			c0.4,0.7,0.1,1.6-0.6,1.9l-7.5,4.1C-150.8,426.8-151,426.8-151.3,426.8L-151.3,426.8z M-151.3,426.8"/>
	</g>
	<path d="M-133,417.2c-0.5,0-1-0.3-1.3-0.8c-0.4-0.7-0.1-1.6,0.6-1.9l3.9-2c0.7-0.4,1.6-0.1,1.9,0.6c0.4,0.7,0.1,1.6-0.6,1.9l-3.9,2
		C-132.6,417.2-132.8,417.2-133,417.2L-133,417.2z M-133,417.2"/>
</g>
</svg>
