<?xml version="1.0" encoding="utf-8"?>
<!-- Generator: Adobe Illustrator 19.0.0, SVG Export Plug-In . SVG Version: 6.00 Build 0)  -->
<svg version="1.1" id="Capa_1" xmlns="http://www.w3.org/2000/svg" xmlns:xlink="http://www.w3.org/1999/xlink" x="0px" y="0px"
	 viewBox="-210 325.9 173.5 190" style="enable-background:new -210 325.9 173.5 190;" xml:space="preserve">
<style type="text/css">
	.st0{clip-path:url(#SVGID_1_);}
</style>
<g id="XMLID_100_">
	<path d="M-45.1,494.1h-156.3c-2,0-3.8-1-4.8-2.7s-1-3.8,0-5.5l78.1-135.4c1-1.7,2.8-2.8,4.8-2.8l0,0c2,0,3.8,1,4.8,2.7l78.2,135.4
		c1,1.7,1,3.8,0,5.5C-41.3,493-43.1,494.1-45.1,494.1z M-191.9,483.1h137.3l-68.7-118.9L-191.9,483.1z"/>
	<g>
		<g>
			<defs>
				<rect id="SVGID_3_" x="-157.2" y="405.8" width="67.9" height="71"/>
			</defs>
			<clipPath id="SVGID_1_">
				<use xlink:href="#SVGID_3_"  style="overflow:visible;"/>
			</clipPath>
			<path class="st0" d="M-157,439.3l19.2-32.7c0.3-0.5,0.9-0.9,1.5-0.9c0.6,0,1.2,0.3,1.5,0.9l13,22.2l-1.8,0.9l-10.3-18.2
				c-0.4-0.6-1.1-1-1.8-0.9c-0.7,0.1-1.3,0.6-1.5,1.3l-7.1,28.9c-0.1,0.5-0.1,1,0.2,1.4c0.3,0.4,0.7,0.7,1.2,0.9
				c2.3,0.5,4.7,0.8,7.1,0.8c0.2,0,0.5,0,0.7,0l0,2.3c-0.5,0-1,0-1.6,0h0c-6.9,0-13.5-1.6-19.6-4.8c-0.4-0.2-0.7-0.6-0.8-1
				C-157.3,440.1-157.2,439.7-157,439.3L-157,439.3z M-132.2,439c0-0.3,0.2-0.6,0.5-0.8l20.1-10.5c0.2-0.1,0.5-0.1,0.7,0l20.4,9.9
				c0,0,0,0,0,0c0,0,0,0,0.1,0c0,0,0,0,0.1,0c0,0,0.1,0,0.1,0.1c0,0,0.1,0.1,0.1,0.1c0,0,0,0.1,0.1,0.1c0,0,0,0.1,0.1,0.1
				c0,0,0,0.1,0,0.1c0,0,0,0.1,0,0.1c0,0,0,0.1,0,0.1c0,0,0,0,0,0s0,0,0,0v26.1c0,0.3-0.2,0.6-0.5,0.8l-19.8,10.7
				c-0.1,0.1-0.3,0.1-0.4,0.1c-0.2,0-0.3,0-0.4-0.1c-0.1,0-0.1-0.1-0.2-0.2h0c-0.1,0-0.3,0-0.4-0.1l-20-10.5
				c-0.3-0.2-0.5-0.4-0.5-0.8l-0.1-25.1C-132.3,439.2-132.2,439.1-132.2,439C-132.2,439-132.2,439-132.2,439L-132.2,439z
				 M-109.7,473.7l18-9.8v-24.1l-18,10.1V473.7z M-110.6,448.4l17.8-9.9l-18.3-9l-18.2,9.5L-110.6,448.4z M-120.6,415.4
				c0,0.3,0.1,0.6,0.4,0.8l2.9,2.9c0.5,0.5,1.2,0.5,1.7,0c0.2-0.2,0.4-0.5,0.4-0.8c0-0.3-0.1-0.6-0.4-0.9l-1.1-1.1
				c0.7-0.1,1.4-0.1,2.1-0.1c10.8,0,15.5,10.2,15.6,10.3c0.2,0.4,0.6,0.7,1.1,0.7c0.2,0,0.3,0,0.5-0.1c0.6-0.3,0.9-1,0.6-1.6
				c-0.1-0.1-5.4-11.7-17.8-11.7c-0.5,0-1.1,0-1.6,0.1l0.6-0.6c0.2-0.2,0.4-0.5,0.4-0.8c0-0.3-0.1-0.6-0.4-0.9
				c-0.4-0.4-1.2-0.4-1.7,0l-2.9,2.9C-120.5,414.8-120.6,415.1-120.6,415.4L-120.6,415.4z M-120.6,415.4"/>
		</g>
	</g>
</g>
</svg>
