<?xml version="1.0" encoding="utf-8"?>
<!-- Generator: Adobe Illustrator 19.0.0, SVG Export Plug-In . SVG Version: 6.00 Build 0)  -->
<svg version="1.1" id="Capa_1" xmlns="http://www.w3.org/2000/svg" xmlns:xlink="http://www.w3.org/1999/xlink" x="0px" y="0px"
	 viewBox="-210 325.9 173.5 190" style="enable-background:new -210 325.9 173.5 190;" xml:space="preserve">
<g id="XMLID_100_">
	<path d="M-45.1,494.1h-156.3c-2,0-3.8-1-4.8-2.7s-1-3.8,0-5.5l78.1-135.4c1-1.7,2.8-2.8,4.8-2.8l0,0c2,0,3.8,1,4.8,2.7l78.2,135.4
		c1,1.7,1,3.8,0,5.5C-41.3,493-43.1,494.1-45.1,494.1z M-191.9,483.1h137.3l-68.7-118.9L-191.9,483.1z"/>
</g>
<g>
	<path d="M-130.1,444v-2.3c-1.3-0.9-2.5-1.9-3.6-3c-3.2,3-6.2,5-6.6,5.2l-0.3,0.2l-1.8-2.8l0.3-0.1c0.1-0.1,3.2-2.1,6.3-5.1
		c-2.8-4.2-4-8.5-4-8.6l-0.1-0.3l3.2-0.9l0.1,0.3c0,0.1,0.9,3.4,3.1,7c2.3-2.7,3.5-5.3,3.8-7.7h-13.5v-3.6h7.4v-2h3.5v2h7.4v3.6
		h-1.5c-0.4,3.4-2.1,6.8-5.2,10.4c0.5,0.5,0.9,0.9,1.3,1.3v-0.2v-1.5c0-1.3,1-2.2,2.2-2.2h9.7v-17.2c0-0.3-0.3-0.5-0.5-0.5h-31.4
		c-0.3,0-0.6,0.3-0.6,0.5v31.4c0,0.3,0.3,0.6,0.6,0.6h20V444L-130.1,444z"/>
	<path d="M-112.2,445L-112.2,445c-0.3,1.2-0.7,2.7-1,3.9l-1.2,4.2h4.4l-1.3-4.2C-111.5,447.7-111.9,446.2-112.2,445z"/>
	<path d="M-96.3,435.4h-31.4c-0.3,0-0.5,0.3-0.5,0.5v31.5c0,0.3,0.2,0.5,0.5,0.5h31.4c0.3,0,0.5-0.3,0.5-0.5v-31.5
		C-95.8,435.6-96,435.4-96.3,435.4z M-107.7,461.7l-1.6-5.2h-5.8l-1.4,5.2h-4.7l6.1-20.1h6l6.2,20.1H-107.7z"/>
	<path d="M-115.5,416.6h10.2c2.5,0,4.5,2,4.5,4.5v5h2.1l-1.7,3.2l-1.7,3.2l-1.7-3.2l-1.8-3.2h2.1v-5c0-1-0.8-1.8-1.8-1.8h-10.2
		V416.6z"/>
	<path d="M-130.5,466.6h-11.8c-2.5,0-4.6-2.1-4.6-4.5v-5h-2.1l1.8-3.2l1.7-3.2l1.7,3.2l1.7,3.2h-2.1v5c0,1,0.8,1.8,1.8,1.8h11.8
		V466.6z"/>
</g>
</svg>
