<?xml version="1.0" encoding="utf-8"?>
<!-- Generator: Adobe Illustrator 19.0.0, SVG Export Plug-In . SVG Version: 6.00 Build 0)  -->
<svg version="1.1" id="Capa_1" xmlns="http://www.w3.org/2000/svg" xmlns:xlink="http://www.w3.org/1999/xlink" x="0px" y="0px"
	 viewBox="-210 325.9 173.5 190" style="enable-background:new -210 325.9 173.5 190;" xml:space="preserve">
<style type="text/css">
	.st0{enable-background:new    ;}
</style>
<g id="XMLID_100_">
	<path d="M-45.1,494.1h-156.3c-2,0-3.8-1-4.8-2.7s-1-3.8,0-5.5l78.1-135.4c1-1.7,2.8-2.8,4.8-2.8l0,0c2,0,3.8,1,4.8,2.7l78.2,135.4
		c1,1.7,1,3.8,0,5.5C-41.3,493-43.1,494.1-45.1,494.1z M-191.9,483.1h137.3l-68.7-118.9L-191.9,483.1z"/>
</g>
<g>
	<g class="st0">
		<g>
			<g>
				<path d="M-116.3,450.9c0,0-4-1.3-7.3-1.3s-6.7,1.3-6.7,1.3l-1.3,3.3c0,0,4.7-2,8-2s8.7,2,8.7,2L-116.3,450.9z"/>
			</g>
		</g>
	</g>
	<g class="st0">
		<g>
			<g>
				<path d="M-113.7,458.9c0,0-4.7-1.3-9.3-1.3s-10,1.3-10,1.3l-2,5.3c0,0,6-2.7,11.3-2.7c5.3,0,12,2.7,12,2.7v-2L-113.7,458.9z"/>
			</g>
		</g>
	</g>
	<g class="st0">
		<g>
			<g>
				<path d="M-125.7,434.2c-1.7-0.6-2-4-3.7,0.4l-12.7,33.8c-0.6,1.7,0.2,3.6,2,4.2c1.7,0.6,3.6-0.2,4.3-1.9l12.7-33.8
					C-121.7,433.6-123.9,434.9-125.7,434.2z"/>
			</g>
		</g>
	</g>
	<g class="st0">
		<g>
			<g>
				<path d="M-104.5,468.4l-12.7-34c-1.1-2.8-1.4-0.1-3.1,0.5c-1.7,0.7-4-0.7-3.1,1.8l12.7,34c0.6,1.7,2.5,2.6,4.3,1.9
					C-104.8,472-103.9,470.1-104.5,468.4z"/>
			</g>
		</g>
	</g>
	<g class="st0">
		<g>
			<g>
				<path d="M-123,421.6c-4,0-7.3,3.3-7.3,7.3c0,4,3.3,7.3,7.3,7.3s7.3-3.3,7.3-7.3C-115.7,424.8-119,421.6-123,421.6z M-123,433.6
					c-2.6,0-4.7-2.1-4.7-4.7c0-2.6,2.1-4.7,4.7-4.7s4.7,2.1,4.7,4.7C-118.3,431.5-120.4,433.6-123,433.6z"/>
			</g>
		</g>
	</g>
	<g class="st0">
		<g>
			<g>
				<path d="M-147.7,428.9c0-7.3,5.3-13.3,5.3-13.3s0.7-1.3,0-2c-1.3-1.3-2.7,0.7-2.7,0.7s-5.3,5.3-5.3,14.7c0,9.3,6,14.7,6,14.7
					s1.3,0.7,2,0c0.7-0.7,0-2,0-2S-147.7,436.2-147.7,428.9z"/>
			</g>
		</g>
	</g>
	<g class="st0">
		<g>
			<g>
				<path d="M-133.7,435.6c0,0-3.3-2.4-3.3-6.7c0-4.3,2.7-7.3,2.7-7.3s0.7-1.3,0-2c-0.8-0.8-2,0-2,0s-3.3,3.9-3.3,9.3s4,8.7,4,8.7
					s1.3,0.7,2,0C-133,436.9-133.7,435.6-133.7,435.6z"/>
			</g>
		</g>
	</g>
	<g class="st0">
		<g>
			<g>
				<path d="M-100.9,414c0,0-1.3-2-2.6-0.7c-0.7,0.7,0,2,0,2s5.2,6,5.2,13.3c0,7.3-5.2,12.6-5.2,12.6s-0.7,1.3,0,2c0.7,0.7,2,0,2,0
					s5.9-5.3,5.9-14.6S-100.9,414-100.9,414z"/>
			</g>
		</g>
	</g>
	<g class="st0">
		<g>
			<g>
				<path d="M-109.4,419.3c0,0-1.2-0.8-2,0c-0.7,0.7,0,2,0,2s2.6,3,2.6,7.3c0,4.3-3.3,6.6-3.3,6.6s-0.7,1.3,0,2c0.7,0.7,2,0,2,0
					s3.9-3.2,3.9-8.6S-109.4,419.3-109.4,419.3z"/>
			</g>
		</g>
	</g>
</g>
</svg>
