<?xml version="1.0" encoding="utf-8"?>
<!-- Generator: Adobe Illustrator 19.0.0, SVG Export Plug-In . SVG Version: 6.00 Build 0)  -->
<svg version="1.1" id="Capa_1" xmlns="http://www.w3.org/2000/svg" xmlns:xlink="http://www.w3.org/1999/xlink" x="0px" y="0px"
	 viewBox="-210 325.9 173.5 190" style="enable-background:new -210 325.9 173.5 190;" xml:space="preserve">
<style type="text/css">
	.st0{fill:none;}
</style>
<text transform="matrix(1 0 0 1 87.6401 746.8352)" style="font-family:'MyriadPro-Regular'; font-size:12px;">d-11424</text>
<path d="M-80.9,462.3c-0.1,0-14.3-0.5-14.3-10.4v-3.1c2.9,3.3,8.2,4.5,11.4,4.5c0,0,0,0,0,0c0.6,0,1.1-0.5,1.1-1.1
	c0-0.6-0.5-1.1-1.1-1.1c-0.1,0-11.5-0.4-11.5-8.3v-4.2c2.9,3.3,8.2,4.5,11.4,4.5c0,0,0,0,0,0c0.6,0,1.1-0.5,1.1-1.1
	c0-0.6-0.5-1.1-1.1-1.1c-0.1,0-11.5-0.4-11.5-8.3v-3.8c2.4,2.3,6.2,3.1,8.6,3.2c0,0,0,0,0,0c0.6,0,1.1-0.5,1.1-1.1
	c0-0.6-0.5-1.1-1.1-1.1c-0.1,0-8.7-0.3-8.7-6.2c0-0.6-0.5-1.1-1.1-1.1s-1.1,0.5-1.1,1.1c0,5.9-8.3,6.2-8.7,6.2
	c-0.6,0-1.1,0.5-1.1,1.1c0,0.6,0.5,1.1,1.1,1.1c0,0,0,0,0,0c2.4-0.1,6.2-0.9,8.6-3.2v3.8c0,7.9-11,8.3-11.5,8.3
	c-0.6,0-1.1,0.5-1.1,1.1c0,0.6,0.5,1.1,1.1,1.1c0,0,0,0,0,0c3.2-0.1,8.5-1.2,11.4-4.5v4.2c0,7.9-11,8.3-11.5,8.3
	c-0.6,0-1.1,0.5-1.1,1.1c0,0.6,0.5,1.1,1.1,1.1c0,0,0,0,0,0c3.2-0.1,8.5-1.2,11.4-4.5v3.1c0,9.9-13.8,10.4-14.3,10.4
	c-0.6,0-1.1,0.5-1.1,1.1c0,0.6,0.5,1.1,1.1,1.1c0,0,0,0,0,0c4.1-0.1,10.8-1.6,14.3-6V477h-24.7v-13.7c3.5,4.4,10.2,5.9,14.3,6
	c0,0,0,0,0,0c0.6,0,1.1-0.5,1.1-1.1c0-0.6-0.5-1.1-1.1-1.1c-0.1,0-14.3-0.5-14.3-10.4v-4.9c3.5,4.4,10.2,5.9,14.3,6c0,0,0,0,0,0
	c0.6,0,1.1-0.5,1.1-1.1c0-0.6-0.5-1.1-1.1-1.1c-0.6,0-14.3-0.5-14.3-10.4v-3.1c2.9,3.3,8.2,4.5,11.4,4.5c0,0,0,0,0,0
	c0.6,0,1.1-0.5,1.1-1.1c0-0.6-0.5-1.1-1.1-1.1c-0.5,0-11.5-0.4-11.5-8.3V432c2.9,3.3,8.2,4.5,11.4,4.5c0,0,0,0,0,0
	c0.6,0,1.1-0.5,1.1-1.1c0-0.6-0.5-1.1-1.1-1.1c-0.1,0-11.5-0.4-11.5-8.3v-3.8c2.4,2.3,6.2,3.1,8.6,3.2c0,0,0,0,0,0
	c0.6,0,1.1-0.5,1.1-1.1c0-0.6-0.5-1.1-1.1-1.1c-0.1,0-8.7-0.3-8.7-6.2c0-0.6-0.5-1.1-1.1-1.1c-0.6,0-1.1,0.5-1.1,1.1
	c0,5.9-8.3,6.2-8.7,6.2c-0.6,0-1.1,0.5-1.1,1.1c0,0.6,0.5,1.1,1.1,1.1c0,0,0,0,0,0c2.4-0.1,6.2-0.9,8.6-3.2v3.8
	c0,7.9-11,8.3-11.5,8.3c-0.6,0-1.1,0.5-1.1,1.1c0,0.6,0.5,1.1,1.1,1.1c0,0,0,0,0,0c3.2-0.1,8.5-1.2,11.4-4.5v4.2
	c0,7.9-11,8.3-11.5,8.3c-0.6,0-1.1,0.5-1.1,1.1c0,0.6,0.5,1.1,1.1,1.1c0,0,0,0,0,0c3.2-0.1,8.5-1.2,11.4-4.5v3.1
	c0,9.9-13.8,10.4-14.3,10.4c-0.6,0-1.1,0.5-1.1,1.1c0,0.6,0.5,1.1,1.1,1.1c0,0,0,0,0,0c4.1-0.1,10.8-1.6,14.3-6v4.9
	c0,9.9-13.8,10.4-14.3,10.4c-0.6,0-1.1,0.5-1.1,1.1c0,0.6,0.5,1.1,1.1,1.1c0,0,0,0,0,0c4.1-0.1,10.8-1.6,14.3-6V477H-149v-18.5
	c3.5,4.4,10.2,5.9,14.3,6c0,0,0,0,0,0c0.6,0,1.1-0.5,1.1-1.1c0-0.6-0.5-1.1-1.1-1.1c-0.1,0-14.3-0.5-14.3-10.4v-3.1
	c2.9,3.3,8.2,4.5,11.4,4.5c0,0,0,0,0,0c0.6,0,1.1-0.5,1.1-1.1c0-0.6-0.5-1.1-1.1-1.1c-0.1,0-11.5-0.4-11.5-8.3v-4.1
	c2.9,3.3,8.2,4.5,11.4,4.5c0,0,0,0,0,0c0.6,0,1.1-0.5,1.1-1.1c0-0.6-0.5-1.1-1.1-1.1c-0.5,0-11.5-0.4-11.5-8.3v-3.8
	c2.4,2.3,6.2,3.1,8.6,3.2c0,0,0,0,0,0c0.6,0,1.1-0.5,1.1-1.1c0-0.6-0.5-1.1-1.1-1.1c-0.1,0-8.7-0.3-8.7-6.2c0-0.6-0.5-1.1-1.1-1.1
	s-1.1,0.5-1.1,1.1c0,5.9-8.3,6.2-8.7,6.2c-0.6,0-1.1,0.5-1.1,1.1c0,0.6,0.5,1.1,1.1,1.1c0,0,0,0,0,0c2.4-0.1,6.2-0.9,8.6-3.2v3.8
	c0,7.9-11,8.3-11.5,8.3c-0.6,0-1.1,0.5-1.1,1.1c0,0.6,0.5,1.1,1.1,1.1c0,0,0,0,0,0c3.2-0.1,8.5-1.2,11.4-4.5v4.2
	c0,7.9-11,8.3-11.5,8.3c-0.6,0-1.1,0.5-1.1,1.1c0,0.6,0.5,1.1,1.1,1.1c0,0,0,0,0,0c3.2-0.1,8.5-1.2,11.4-4.5v3.1
	c0,9.9-13.8,10.4-14.3,10.4c-0.6,0-1.1,0.5-1.1,1.1c0,0.6,0.5,1.1,1.1,1.1c0,0,0,0,0,0c4.1-0.1,10.8-1.6,14.3-6V477h-12.3
	c-0.6,0-1.1,0.5-1.1,1.1s0.5,1.1,1.1,1.1H-83c0.6,0,1.1-0.5,1.1-1.1s-0.5-1.1-1.1-1.1h-12.3v-18.5c3.5,4.4,10.2,5.9,14.3,6
	c0,0,0,0,0,0c0.6,0,1.1-0.5,1.1-1.1C-79.8,462.8-80.3,462.3-80.9,462.3z"/>
<g>
	<path class="st0" d="M-115.7,398.6c-3.9,7.3-11.6,12-20,12c-1.8,0-3.7-0.2-5.5-0.7c-2.5-0.6-4.7-1.6-6.8-3l-43.9,76.2h137.3
		l-48.7-84.2c-1.8,1.1-3.8,1.7-6,1.7C-111.6,400.6-113.8,399.9-115.7,398.6z"/>
	<path d="M-40.3,485.8L-95.6,390c-0.8,0.1-1.5,0.3-2.3,0.3c-0.3,2.5-1.4,5-3.2,6.8c-0.7,0.7-1.4,1.2-2.2,1.7l48.7,84.2h-137.3
		l43.9-76.2c-2.9-1.9-5.3-4.4-7.2-7.4c-0.2-0.4-0.4-0.8-0.6-1.1l-50.5,87.5c-1,1.7-1,3.8,0,5.5s2.8,2.7,4.8,2.7h156.3
		c2,0,3.8-1.1,4.8-2.8C-39.3,489.6-39.3,487.5-40.3,485.8z"/>
	<path d="M-118.5,350.4c-1-1.7-2.8-2.7-4.8-2.7s-3.8,1.1-4.8,2.8l-2.6,4.5l14.8,0L-118.5,350.4z"/>
	<path d="M-148,406.9c2.1,1.3,4.3,2.3,6.8,3c1.8,0.5,3.7,0.7,5.5,0.7c8.4,0,16.1-4.6,20-12c1.9,1.3,4.1,2,6.4,2c2.2,0,4.2-0.6,6-1.7
		l-20-34.7L-148,406.9z"/>
	<path d="M-148,406.9l24.7-42.7l20,34.7c0.8-0.5,1.5-1,2.2-1.7c1.8-1.8,2.9-4.3,3.2-6.8c0.8,0,1.5-0.2,2.3-0.3l-20.3-35.1l-14.8,0
		l-25.1,43.5c0.2,0.4,0.4,0.8,0.6,1.1C-153.3,402.6-150.8,405.1-148,406.9z"/>
</g>
</svg>
