<?xml version="1.0" encoding="utf-8"?>
<!-- Generator: Adobe Illustrator 19.0.0, SVG Export Plug-In . SVG Version: 6.00 Build 0)  -->
<svg version="1.1" id="Capa_1" xmlns="http://www.w3.org/2000/svg" xmlns:xlink="http://www.w3.org/1999/xlink" x="0px" y="0px"
	 viewBox="-210 325.9 173.5 190" style="enable-background:new -210 325.9 173.5 190;" xml:space="preserve">
<g id="XMLID_100_">
	<path d="M-45.1,494.1h-156.3c-2,0-3.8-1-4.8-2.7s-1-3.8,0-5.5l78.1-135.4c1-1.7,2.8-2.8,4.8-2.8l0,0c2,0,3.8,1,4.8,2.7l78.2,135.4
		c1,1.7,1,3.8,0,5.5C-41.3,493-43.1,494.1-45.1,494.1z M-191.9,483.1h137.3l-68.7-118.9L-191.9,483.1z"/>
</g>
<g>
	<path d="M-126.4,450.2l-0.7-3.2c-0.3-1.3-1.4-2.2-2.7-2.2c-0.3,0-0.5,0-0.8,0.1l-1.8,0.5l2.1-1.3c1.3-0.8,1.7-2.4,0.9-3.7l-1.9-3
		c-0.4-0.6-1-1.1-1.7-1.2c0.4-0.4,0.7-0.8,0.9-1.4c0.3-0.9,0.1-1.9-0.5-2.6l-1.6-2.2c-0.6-0.7-1.4-1.2-2.4-1.2c-0.3,0-0.5,0-0.8,0.1
		l-2.9,0.8c-3.9,1.1-6.2,5.2-5.1,9.1l1,3.4l-6.9,4.2l-1.8-2c-1.3-1.5-3.1-2.3-5.1-2.4c-2-0.1-3.8,0.6-5.3,1.9l-6.7,5.5
		c-0.6,0.5-0.7,1.4-0.2,2.1c0.5,0.6,1.4,0.7,2.1,0.2l6.7-5.5l0,0c0.9-0.8,2-1.2,3.2-1.1s2.3,0.6,3.1,1.5l1.4,1.6l-2.4,1.5l0,0
		l-0.3-0.8c-0.5-0.5-1.1-0.8-1.8-0.9c-0.7,0-1.4,0.2-1.9,0.7l-9.6,8.6c-0.6,0.5-0.7,1.5-0.1,2.1c0.5,0.6,1.5,0.7,2.1,0.1l9.4-8.4
		c-0.7,0.9-0.8,2.1-0.2,3.1l1.9,3c0.5,0.8,1.4,1.3,2.3,1.3c0.3,0,0.5,0,0.8-0.1l-10.3,9.3c-0.7-0.1-1.4,0.5-1.6,1.2
		c-0.1,0.8,0.4,1.6,1.2,1.7c0.1,0,0.3,0,0.4,0c0.6,0,1.3-0.2,1.8-0.7l11.6-10.4c0.5-0.5,0.8-1.1,0.9-1.8c0-0.5-0.1-1-0.3-1.4
		l2.4-1.5c0.7,0.9,1.1,1.9,1,3.1c-0.1,1.2-0.6,2.3-1.5,3.1l-13,11.7c-1.9,1.7-3.1,1.5-4.2,1c-0.7-0.4-1.6-0.1-2,0.7
		c-0.4,0.7-0.1,1.6,0.7,2c0.9,0.4,1.8,0.7,2.7,0.7c1.6,0,3.2-0.7,4.7-2.1l13-11.7c1.5-1.3,2.3-3.1,2.4-5.1c0.1-1.7-0.4-3.4-1.4-4.8
		l3.6-2.2c1.3,2.3,3.7,3.8,6.4,3.8c0.7,0,1.3-0.1,2-0.3l4.7-1.1C-127,453.1-126.1,451.6-126.4,450.2z M-142.6,448.2l-4.5,2.8
		l-2.5,1.6l-2.4,1.5l-2.5,1.5l-1.7-2.7l2-1.2l2.4-1.5l2.5-1.6l5.8-3.5l2.6-1.6l2.4-1.5l2.6-1.6l2.2-1.4l1.6,2.7l-3,1.8l-2.6,1.6
		l-2.4,1.5L-142.6,448.2z M-142.4,438c-0.7-2.4,0.7-4.8,3.1-5.5l2.9-0.8l1.6,2.2l0,0l-2.9,1c-1.4,0.4-2.2,1.9-1.8,3.3l0.3,0.9
		l-2.4,1.5L-142.4,438z M-133.9,451.7L-133.9,451.7c-0.5,0.1-0.9,0.2-1.3,0.2c-1.7,0-3.2-1-3.9-2.4l2.5-1.6c0.5,0.6,1.2,1,2.1,1
		c0.2,0,0.5,0,0.7-0.1l3.8-1.1l0.6,2.9L-133.9,451.7z"/>
	<path d="M-84.9,474c0.3,0.2,0.6,0.4,1,0.4c0.3,0,0.5-0.1,0.7-0.2c0.7-0.4,0.9-1.3,0.5-2c-0.4-0.6-1-1.1-1.7-1.2s-1.4,0-1.9,0.5
		l-2.5,2c-0.5,0.4-0.8,0.9-0.9,1.5l-7.6-10.5c0.4,0.2,0.8,0.3,1.3,0.3c0.7,0,1.5-0.3,2-0.8l2.4-2.6c0.8-0.8,0.9-2.1,0.4-3.1l6.3,8.7
		c0.5,0.7,1.4,0.8,2,0.3c0.7-0.5,0.8-1.4,0.3-2l-6.5-9c-0.4-0.6-1-1-1.7-1.1c-0.7-0.1-1.4,0.1-2,0.5l-0.5,0.4l-2-1.9l1.7-1.2
		c1-0.7,2.1-1,3.3-0.8c1.2,0.2,2.2,0.8,2.9,1.8l2.4,3.3c0.5,0.7,1.4,0.8,2,0.3c0.7-0.5,0.8-1.4,0.3-2l-2.4-3.3
		c-1.2-1.6-2.9-2.6-4.8-2.9c-1.9-0.3-3.9,0.2-5.5,1.3l-2,1.4l-8.1-7.7l1.4-4.2c1.2-3.9-0.9-8-4.7-9.3l-3.4-1.3
		c-0.3-0.1-0.7-0.2-1.1-0.2c-1.2,0-2.3,0.7-2.7,1.9l-1.1,2.7c-0.3,0.8-0.3,1.6,0.1,2.3c0.3,0.7,1,1.3,1.8,1.6l1.8,0.6
		c-0.5,0.1-1,0.4-1.4,0.8l-2.4,2.6c-1,1.1-1,2.8,0.1,3.8l1.1,1.1c-0.8-0.3-1.7-0.5-2.5-0.7c-0.3-0.1-0.5-0.1-0.8-0.1
		c-1.6,0-2.9,1.1-3.2,2.7l-0.4,2.3c-0.3,1.6,0.8,3.2,2.4,3.6c1.2,0.3,2.5,0.6,3.7,1c0.7,0.2,1.5,0.4,2.3,0.4c2.2,0,4.1-0.9,5.5-2.5
		l4.4,4.1c-2.8,2.5-3.3,6.7-1.1,9.8l10.2,14.1c1.2,1.6,2.9,2.6,4.8,2.9c0.4,0.1,0.8,0.1,1.2,0.1c1.4,0,2.7-0.4,3.9-1.1l0.5,0.9
		c0.3,0.5,0.8,0.7,1.3,0.7c0.3,0,0.5-0.1,0.7-0.2c0.7-0.4,0.9-1.3,0.5-2l-1.2-2.1l-2.6-4.3l-0.5-0.9l0.4-0.3L-84.9,474z
		 M-112.1,446.4l-2.4-2.2l-0.6-0.5l1.1-1.2l1-1.1l1.9,1.8l2.2,2.1l2.4,2.2l6.7,6.4l2.2,2l2,1.9l1.7,1.6l-2.1,2.3l-2.1-2l-2-1.9
		l-2.2-2l-5.2-5l-2.4-2.2L-112.1,446.4z M-114.4,435.1L-114.4,435.1l1.1-2.7l0,0l3.5,1.3h0.1c2.3,0.7,3.6,3.3,2.9,5.6l-0.9,2.9
		l-2.2-2.1l0.2-0.7c0.4-1.4-0.3-2.9-1.7-3.3L-114.4,435.1z M-111.9,452c-0.7,0.5-1.7,0.9-2.6,0.9c-0.5,0-0.9-0.1-1.4-0.2
		c-1.3-0.4-2.6-0.8-3.9-1.1c-0.1,0-0.2-0.2-0.2-0.3l0.4-2.3c0-0.1,0.1-0.2,0.3-0.2c0,0,0,0,0.1,0c0.8,0.2,1.7,0.5,2.5,0.7l0.9,0.3
		c0.3,0.1,0.5,0.1,0.8,0.1c0.7,0,1.3-0.2,1.8-0.7l2.2,2.1C-111.4,451.6-111.7,451.8-111.9,452z M-90.3,481.4
		c-1.2-0.2-2.2-0.8-2.9-1.8l-10.2-14c-1.4-1.9-1-4.6,0.9-6.1l2,1.9c-0.8,0.9-0.9,2.3-0.1,3.3l9.1,12.6c0.4,0.6,1,1,1.7,1.1
		c0.1,0,0.3,0,0.4,0c0.3,0,0.5,0,0.7-0.1l1.5,2.5C-88.1,481.4-89.2,481.6-90.3,481.4z"/>
	<path d="M-137.1,418.6l1.1,0.3l-0.4,1.5c-0.2,0.9-0.1,1.9,0.5,2.6l10.4,14.1c0.6,0.8,1.5,1.3,2.5,1.3c1.4,0,2.6-0.9,3-2.3l3.2-11.8
		l2.2,0.6l0,0l-0.8,1c-0.5,0.6-0.4,1.6,0.2,2.1c0.3,0.2,0.6,0.3,0.9,0.3c0.4,0,0.9-0.2,1.1-0.5l1.7-2.1l26.8,7.3
		c0.1,0,0.3,0.1,0.4,0.1c0.6,0,1.2-0.4,1.4-1.1c0.2-0.8-0.2-1.6-1-1.8l-25.5-7l0,0l1.9-2.4c0.5-0.6,0.4-1.6-0.2-2.1
		s-1.6-0.4-2.1,0.2l-2.7,3.4l0,0l-3.4-0.9l2.3-8.4l28.9,8.1c0.8,0.2,1.6-0.2,1.8-1c0.2-0.8-0.2-1.6-1-1.8l-28.9-8.1l0.8-3
		c0.6-2-0.6-4.1-2.6-4.7l-12.2-3.5c-0.3-0.1-0.7-0.1-1-0.1c-1.7,0-3.2,1.1-3.7,2.8l-0.8,3.1l-1-0.3c-2.3-0.6-4.8,0.8-5.4,3.1
		l-1.5,5.7c-0.3,1.1-0.2,2.3,0.4,3.3C-139.2,417.6-138.3,418.3-137.1,418.6z M-126.8,414.4c0-0.6,0.5-1.2,1.2-1.2
		c0.6,0,1.2,0.5,1.2,1.2v4.7v2.3c0,0.3-0.1,0.5-0.2,0.7c-0.2,0.3-0.6,0.5-0.9,0.5c-0.6,0-1.1-0.5-1.2-1.1v-0.1v-2.9L-126.8,414.4
		L-126.8,414.4z M-137.4,414l1.5-5.7c0.2-0.8,1-1.3,1.8-1l1,0.3l-2.2,8.5l-1.1-0.3c-0.4-0.1-0.7-0.3-0.9-0.7
		C-137.5,414.8-137.5,414.4-137.4,414z"/>
	<path d="M-134.8,456.8l-6.6,6.2c-0.6,0.5-0.6,1.5-0.1,2.1c0.3,0.3,0.7,0.5,1.1,0.5c0.4,0,0.7-0.1,1-0.4l6.7-6.2
		c0.6-0.5,0.6-1.5,0.1-2.1C-133.2,456.3-134.2,456.3-134.8,456.8z"/>
	<path d="M-124.9,459c-0.8,0-1.5,0.7-1.5,1.5v8.1c0,0.8,0.7,1.5,1.5,1.5c0.8,0,1.5-0.7,1.5-1.5v-8.1
		C-123.5,459.7-124.1,459-124.9,459z"/>
	<path d="M-114.9,458c-0.5-0.6-1.4-0.7-2.1-0.2c-0.6,0.5-0.7,1.4-0.2,2.1l3.4,4c0.3,0.3,0.7,0.5,1.1,0.5c0.3,0,0.7-0.1,0.9-0.3
		c0.6-0.5,0.7-1.4,0.2-2.1L-114.9,458z"/>
	<path d="M-139.9,426.7c0.3,0.3,0.7,0.4,1,0.4c0.4,0,0.7-0.1,1-0.4c0.6-0.6,0.6-1.5,0-2.1l-5.2-5.3c-0.6-0.6-1.5-0.6-2.1,0
		c-0.6,0.6-0.6,1.5,0,2.1L-139.9,426.7z"/>
</g>
</svg>
