<?xml version="1.0" encoding="utf-8"?>
<!-- Generator: Adobe Illustrator 19.0.0, SVG Export Plug-In . SVG Version: 6.00 Build 0)  -->
<svg version="1.1" id="Capa_1" xmlns="http://www.w3.org/2000/svg" xmlns:xlink="http://www.w3.org/1999/xlink" x="0px" y="0px"
	 viewBox="-210 325.9 173.5 190" style="enable-background:new -210 325.9 173.5 190;" xml:space="preserve">
<path d="M-123.3,487.8c-36.9,0-66.9-30-66.9-66.9s30-66.9,66.9-66.9c36.9,0,66.9,30,66.9,66.9S-86.4,487.8-123.3,487.8z M-123.3,361
	c-33,0-59.9,26.9-59.9,59.9c0,33,26.9,59.9,59.9,59.9s59.9-26.9,59.9-59.9C-63.3,387.9-90.2,361-123.3,361z"/>
<g>
	<g id="svgg">
		<path id="path2" d="M-131.8,367.4c-0.6,0.1-1.2,0.4-1.5,0.8c-0.2,0.2-0.5,0.3-1.3,0.4c-3.7,0.3-5.4,1.4-5.3,3.5
			c0.1,2.1,2.2,4,2.6,2.4c0.3-1.1,1.4-1.4,2.5-0.7c0.3,0.2,0.8,0.5,1.1,0.6c1.1,0.5,1.6,0.7,2.1,0.9c1.1,0.4,1.7,0.7,1.8,1
			c0.2,0.5,0,2.2-0.2,2.8c-0.1,0.3-0.3,0.8-0.4,1.1c-0.1,0.4-0.3,0.9-0.5,1.1c-0.1,0.3-0.3,0.5-0.3,0.6c0,0.2-0.2,0.7-1,2.4
			c-0.2,0.4-0.3,0.7-0.3,0.8c0,0.1-0.2,0.4-0.4,0.8c-0.5,0.7-0.8,0.8-2.1,0.1c-1.7-0.8-2.2-1-2.3-1c-0.1,0-0.2-0.1-0.3-0.2
			c-0.1-0.1-0.4-0.3-0.6-0.4c-4.7-2.2-8.7-7.8-8.9-12.5c0-0.8-0.1-1.3-0.2-1.4c-0.2-0.2-2.1,0.7-4,1.9c-0.4,0.2-0.9,0.5-1,0.6
			c-0.3,0.1-3,1.9-4.2,2.8c-4.1,3-8.9,7.8-12,12.1c-0.8,1.1-2.5,3.7-2.5,3.8c0,0.1-0.1,0.3-0.3,0.5c-0.2,0.2-0.4,0.6-0.5,0.7
			c-0.1,0.2-0.3,0.6-0.5,1c-0.7,1.3-2,3.9-2,4.1c0,0.1-0.1,0.2-0.1,0.3c-0.1,0-0.2,0.4-0.4,0.7c-0.1,0.3-0.3,0.9-0.5,1.2
			c-0.3,0.6-0.7,1.8-1.1,2.9c-0.1,0.4-0.3,1.1-0.4,1.4c-0.2,0.7-0.4,1.4-0.7,2.6c-0.5,1.9-0.6,2.6-0.7,3.3c-0.1,0.4-0.2,1.3-0.3,2
			c-0.5,2.6-0.5,3.3-0.5,8.5c0,5,0.1,6.1,0.4,8.1c0.1,0.4,0.2,1.2,0.3,1.8c0.1,0.6,0.2,1.4,0.3,1.7c0.1,0.3,0.3,1,0.3,1.4
			c0.1,0.5,0.3,1.2,0.4,1.7c0.1,0.4,0.4,1.1,0.5,1.5c0.1,0.4,0.3,1,0.5,1.5c0.1,0.4,0.4,1.3,0.7,1.9c0.2,0.6,0.5,1.4,0.6,1.7
			c0.1,0.3,0.3,0.7,0.4,0.8c0.1,0.1,0.2,0.4,0.3,0.7c0.2,0.6,2.1,4.3,2.4,4.7c0.2,0.2,0.3,0.4,0.3,0.5c0,0.1,0.7,1.2,2,3.3
			c0.8,1.3,2.1,2.9,4.3,5.5c0.4,0.5,5.1,5.2,5.7,5.6c2.6,2.1,3.3,2.7,5.4,4.1c1.4,0.9,1.7,1.2,3.1,2c1.3,0.8,5.1,2.7,5.4,2.7
			c0.1,0,0.4,0.1,0.7,0.3c0.4,0.2,0.6,0.3,0.9,0.2l0.4-0.1l-0.5-0.2c-0.2-0.1-0.6-0.3-0.7-0.5c-0.2-0.2-0.5-0.4-0.8-0.6
			c-2.1-1.4-7.3-6.5-8.5-8.2c-0.1-0.2-0.6-0.8-1-1.3c-0.4-0.5-0.8-1.1-0.9-1.3c-0.1-0.2-0.4-0.7-0.7-1.2c-0.5-0.8-1.9-3.6-1.9-3.8
			c0,0-0.2-0.4-0.4-0.9c-0.2-0.5-0.4-1-0.5-1.3c-0.1-0.3-0.2-0.6-0.3-0.7c-0.1-0.1-0.3-0.7-0.4-1.1c-0.1-0.5-0.3-1.2-0.4-1.7
			c-1-3.9-1.3-8.3-0.9-13c0.2-2.2,1-5.9,1.7-7.7c0.2-0.5,0.3-0.9,0.3-1c0-0.2,0.5-1.4,1-2.5c0.2-0.4,0.3-0.7,0.3-0.8
			c0-0.1,0.8-1.6,1.6-3.1c0.5-1,2.2-3.4,2.9-4.3c1.9-2.6,7-7.6,9-9c3.3-2.3,4.5-2.6,5.5-1.7c0.4,0.4,0.5,1.9,0.1,2.8
			c-0.2,0.6-0.4,1.2-1.1,3.5c-0.1,0.5-0.3,1.2-0.5,1.5c-0.1,0.4-0.4,1.2-0.6,1.8c-0.7,2.2-1,3.3-1.2,3.9c-0.4,1-0.8,2.3-1,3.1
			c-0.1,0.4-0.3,0.9-0.4,1c-0.1,0.1-0.2,0.6-0.3,0.9c-0.1,0.4-0.2,0.8-0.4,1c-0.2,0.3,0.6,1.3,1.1,1.3c0.1,0,0.5,0.3,1,0.6
			c0.5,0.3,1.1,0.7,1.2,0.7c0.2,0.1,0.5,0.3,0.6,0.4c0.8,0.7,1.5,0.6,1.7-0.2c0-0.2,0.2-0.6,0.3-0.8c0.1-0.2,0.3-0.5,0.3-0.6
			c0-0.1,0.1-0.4,0.3-0.7c0.3-0.5,0.6-1.4,1.1-2.9c0.1-0.4,0.3-0.9,0.4-1c0.2-0.4,0.7-1.7,1-2.9c0.1-0.6,0.3-1,0.4-1
			c0.3,0,0.4,2.4,0.1,4.4c-0.1,0.8-0.3,2.1-0.4,2.9c-0.1,0.8-0.3,1.8-0.4,2.2c-0.6,2-0.3,2.5,1.5,3c0.5,0.1,1,0.3,1.1,0.3
			c0.1,0.1,0.5,0.2,0.9,0.2c0.4,0.1,1,0.2,1.2,0.3c0.3,0.1,0.5,0.2,0.7,0.1c0.5-0.4,1.1-3.2,1.8-7.3c0.3-1.6,0.3-2.1,0.6-3.4
			c0.3-1.3,0.7,3.2,0.8,8.4c0.1,2.2,0.1,2.9,0.3,2.9c0.4,0.3,5.2,0.4,7.5,0.2c1.4-0.1,1.3,0,1.3-3.1c0-1.3,0.1-2.6,0.1-2.9
			c0.1-0.3,0.2-1.4,0.3-2.5c0.1-1.1,0.2-2.4,0.3-2.7l0.2-0.7l0.2,0.7c0.1,0.4,0.2,1.1,0.2,1.7c0,0.5,0.2,1.5,0.3,2.1
			c0.1,0.6,0.3,1.3,0.3,1.5c0,0.2,0.1,0.8,0.2,1.2c0.1,0.4,0.3,1.2,0.4,1.7c0.4,1.8,0.9,2.5,1.5,2.2c0.2-0.1,0.6-0.2,1-0.3
			c0.3-0.1,0.9-0.2,1.2-0.3c0.3-0.1,0.9-0.3,1.3-0.4c1.7-0.3,1.9-0.6,1.5-2.1c-0.1-0.6-0.3-1.6-0.4-2.2s-0.2-1.6-0.3-2
			c-0.7-3-0.3-7.2,0.4-4.6c0.2,0.6,0.5,1.7,1.4,4.1c0.1,0.4,0.4,1,0.5,1.5c0.1,0.4,0.3,0.8,0.4,0.9c0.1,0.1,0.2,0.4,0.3,0.7
			c0.6,2.3,0.9,2.3,4.1,0.4c0.4-0.2,0.9-0.5,1.2-0.7c1-0.6,1.2-1.4,0.4-2.8c-0.1-0.2-0.3-0.6-0.3-0.9c-0.1-0.3-0.2-0.7-0.3-1
			c-0.1-0.3-0.3-0.7-0.3-1c-0.1-0.3-0.2-0.7-0.3-1c-0.1-0.3-0.3-0.7-0.3-1c-0.1-0.3-0.2-0.7-0.3-1c-0.1-0.3-0.3-0.8-0.4-1.3
			c-0.1-0.4-0.2-0.9-0.3-1.1c-0.1-0.1-0.2-0.6-0.3-1c-0.1-0.4-0.3-1-0.4-1.4c-0.4-1.1-0.9-2.9-0.9-3.2c0-0.1-0.1-0.5-0.3-0.8
			c-0.4-0.8-0.6-2.3-0.4-3c0.4-1.5,2.2-1.2,4.9,0.6c6.9,4.7,13.1,12.8,15.7,20.4c0.1,0.3,0.3,0.8,0.4,1c0.1,0.2,0.3,0.8,0.4,1.3
			c0.1,0.5,0.3,1.2,0.4,1.6c1,3.9,1.3,10.5,0.6,13.8c-0.1,0.6-0.3,1.6-0.4,2.2c-0.1,0.6-0.2,1.3-0.3,1.5c-0.1,0.2-0.3,0.8-0.4,1.4
			c-0.3,1.2-0.8,2.7-1.1,3.3c-0.1,0.2-0.2,0.5-0.2,0.6c0,0.3-2.1,4.4-2.5,4.8c-0.1,0.1-0.2,0.2-0.2,0.3c0,0.1-0.2,0.4-1.6,2.4
			c-1.4,2.1-4.6,5.4-6.9,7.4c-0.6,0.5-2.3,1.8-2.6,1.9c-0.2,0.1-0.3,0.2-0.3,0.3c0,0.1-0.2,0.3-0.5,0.3c-0.3,0.1-0.5,0.2-0.5,0.3
			c0.1,0.2,0.8,0.2,1-0.1c0.1-0.1,0.4-0.2,0.6-0.3c0.4-0.1,4-1.9,4.8-2.4c1.3-0.8,2.5-1.5,2.7-1.6c0.2-0.1,0.8-0.5,2.1-1.4
			c0.4-0.3,2.9-2.1,3.3-2.5c2.6-2.2,7.3-6.9,8.6-8.8c0.3-0.5,0.9-1.2,1.2-1.5c1.8-2.4,4.4-6.7,5.8-9.9c0.1-0.3,0.4-0.8,0.5-1.1
			c0.3-0.6,0.4-1,1.2-2.9c0.2-0.5,0.4-1.3,0.6-1.7c0.1-0.5,0.3-1,0.4-1.2c0.1-0.2,0.2-0.7,0.3-1.1c0.1-0.5,0.3-1.2,0.4-1.6
			c0.5-1.9,0.8-3.4,1-4.8c0.1-0.8,0.2-1.8,0.3-2.2c0.6-3.2,0.3-12.3-0.5-16.7c-0.4-2.3-0.6-2.9-0.8-3.6c-0.1-0.4-0.3-1.2-0.4-1.6
			c-0.1-0.4-0.2-0.9-0.3-1.1s-0.2-0.6-0.3-1c-0.1-0.4-0.3-0.9-0.4-1.2c-0.1-0.3-0.3-0.6-0.3-0.7c0-0.2-0.7-1.9-1.1-2.6
			c-0.1-0.3-0.3-0.6-0.3-0.7c0-0.2-2.5-5.2-3.1-6.2c-0.2-0.4-2.3-3.5-2.7-4.1c-2.9-4.1-8.3-9.6-12.9-12.8c-1.7-1.2-4.3-2.8-4.5-2.8
			c-0.1,0-0.2-0.1-0.3-0.2c-0.1-0.1-0.9-0.6-1.8-1c-2-1-2.1-1-2.1,0.5c0,1.9-1.1,5.3-2.2,6.6c-0.2,0.2-0.5,0.6-0.7,0.9
			c-1.4,2-7.2,6.4-8.5,6.4c-0.1,0-0.4,0.1-0.8,0.3c-0.9,0.4-1.3,0.5-1.5,0.3c-0.3-0.3-1-2.6-1.4-4.4c-0.4-2.1-0.8-4-0.8-4.9
			c0-0.6-0.2-1.3-0.3-1.7c-0.6-2.2,0-3.5,1.9-4.2c0.9-0.3,0.9-0.5,0.1-0.7c-0.3-0.1-0.7-0.3-0.9-0.3c-0.1-0.1-0.6-0.2-1-0.3
			c-0.4-0.1-0.8-0.2-0.9-0.3c-0.1-0.1-0.5-0.2-0.9-0.3c-0.8-0.2-2-0.5-3.7-1c-0.8-0.2-1.8-0.4-5.6-0.8
			C-127,367.2-131.2,367.2-131.8,367.4"/>
	</g>
	<g>
		<polygon points="-149.3,431.3 -146.8,436.4 -141.2,437.2 -145.2,441.2 -144.3,446.8 -149.3,444.1 -154.3,446.8 -153.4,441.2 
			-157.4,437.2 -151.8,436.4 		"/>
		<polygon points="-97.3,431.5 -94.8,436.6 -89.2,437.4 -93.2,441.3 -92.3,446.9 -97.3,444.3 -102.3,446.9 -101.4,441.3 
			-105.4,437.4 -99.8,436.6 		"/>
	</g>
	<polygon points="-123.3,437.9 -120.8,443 -115.2,443.8 -119.2,447.8 -118.3,453.4 -123.3,450.8 -128.3,453.4 -127.4,447.8 
		-131.4,443.8 -125.8,443 	"/>
	<g>
		<polygon points="-137.1,453.6 -134.6,458.7 -129,459.5 -133.1,463.5 -132.1,469.1 -137.1,466.4 -142.1,469.1 -141.2,463.5 
			-145.3,459.5 -139.6,458.7 		"/>
		<polygon points="-109.5,453.6 -107,458.7 -101.3,459.5 -105.4,463.5 -104.5,469.1 -109.5,466.4 -114.5,469.1 -113.5,463.5 
			-117.6,459.5 -112,458.7 		"/>
	</g>
</g>
</svg>
