<?xml version="1.0" encoding="utf-8"?>
<!-- Generator: Adobe Illustrator 19.0.0, SVG Export Plug-In . SVG Version: 6.00 Build 0)  -->
<svg version="1.1" id="Capa_1" xmlns="http://www.w3.org/2000/svg" xmlns:xlink="http://www.w3.org/1999/xlink" x="0px" y="0px"
	 viewBox="-210 325.9 173.5 190" style="enable-background:new -210 325.9 173.5 190;" xml:space="preserve">
<style type="text/css">
	.st0{fill:none;}
</style>
<g id="XMLID_100_">
	<path d="M-45.1,494.1h-156.3c-2,0-3.8-1-4.8-2.7s-1-3.8,0-5.5l78.1-135.4c1-1.7,2.8-2.8,4.8-2.8l0,0c2,0,3.8,1,4.8,2.7l78.2,135.4
		c1,1.7,1,3.8,0,5.5C-41.3,493-43.1,494.1-45.1,494.1z M-191.9,483.1h137.3l-68.7-118.9L-191.9,483.1z"/>
</g>
<rect x="-164.2" y="404" class="st0" width="81.8" height="81.8"/>
<path d="M-80.5,464.8c-0.5-2.7-3.6-5.3-3.6-10.1c0-2.2,0.4-5,0.4-8.6c0-10.3-10.9-19.7-21-19.7c-9.2,0-11.6,1.8-20.1,1.8
	c-3.6,0-4.3-2.9-9.6-2.9c-4.3,0-8,3.7-13.5,5c-0.8,0.2-1.9,0-3,0.5c-1.2,0.6-1.6,1.2-2.9,1.8c-2,0.9-3.4,1.2-4.2,1.4
	c-0.3,0.1-0.6,0-0.8-0.2c-0.6-0.4-1.3-1.2-2.5-1.1c-1.3,0.2-1.3,1.5-0.7,2.9c0.3,0.9,0.9,1.3,0.8,1.5c-1.6,3-2.1,4.7-2.3,6.2
	c-0.2,1.9,1.1,1.6,0.2,3.8c-1.8,3.9-2.3,5.8-2.3,6.4c0.1,0.6,1.8,1.9,4,1.5c2.2-0.4,5.1-3.6,5.9-3.8c1.9-0.4,4.4,0.1,6.6-0.5
	c3.4-0.8,5.3-2.8,5.3-0.9c0,5.6,3.6,6.8,2.9,9.1c-1.6,5.2-1.8,7.9-2.3,9.4c-0.2,0.8-2.5,0.9-4.6,1.6c-0.8,0.2-1.4,0.7-1.7,1.1
	c-0.5,0.2-1.1,0.4-1.3,0.7c-0.3,0.3,0,0.4,0.2,0.4c0.1,0,0.3-0.1,0.5-0.1c0,0-0.1,0.1-0.1,0.1c-0.3,0.3,0,0.4,0.2,0.3
	c0.1,0,0.2-0.1,0.4-0.1c0.1,0.1,0.2,0.2,0.3,0.3c0.9,0.3,3,0.2,4.7,0.3c1.8,0.1,3.2,0,4.4-0.9c3.8-2.9,4.5-1.7,7.2-6.3
	c1.3-2.3,1.6-3.3,1.9-3.5c0.4-0.2,0.5,1.2,1.6,2.4c1.3,1.4,3.2,1.3,4.5,2.3c2.5,1.9,3.2,2.1,4.5,2.1c0.1,0,0.3,0,0.3-0.1
	c0.4,0,0.8,0,1-0.1c0.4-0.2,0.2-0.4,0-0.4c-0.1,0-0.3-0.1-0.4-0.1c0,0,0.1,0,0.1,0c0.3-0.1,0.2-0.3-0.1-0.4c-0.1,0-0.3-0.1-0.4-0.1
	c-0.2-0.9-0.7-2-1.1-2.8c-0.8-1.5-2.4-2.6-3.7-3.2c-0.4-0.2-1.1-0.2,0.9-1.4c2.8-1.8,1.9-4.6,2.4-5c0.4-0.3,2.2,1.3,4.4,1.8
	c3.2,0.8,5-0.8,4.5,0.1c-1.7,3.2,0.5,7.2,1,7.9c0.7,1,0.5,2-0.1,2.1c-2.6,0.5-4.8,1.4-5.5,2.3c-0.3,0.1-0.5,0.2-0.8,0.4
	c-0.3,0.3-0.1,0.4,0.2,0.4c0.2,0,0.3,0,0.5,0c-0.1,0.1-0.2,0.1-0.2,0.2c-0.3,0.3,0,0.4,0.2,0.3c0.1,0,0.3,0,0.5,0
	c0.5,0.3,1.5,0.4,2.4,0.3c3.4-0.4,4.9,0.3,7.1-0.5c3.4-1.1,1.8-2.4,4.4-6.6c2.5-4,2.8-9.5,3.2-8.3c0.7,2,1.2,3.9,4.1,7.2
	c2.1,2.4,5.8,3.8,6.4,5c0.2,0.4-0.8,0.9-2.5,2.2c-0.7,0.6-1.2,0.9-1.5,1.2c-0.3,0.1-0.6,0.3-0.7,0.5c-0.2,0.2,0,0.3,0.2,0.2
	c0.1,0,0.3-0.1,0.5-0.1c-0.2,0.1-0.3,0.2-0.4,0.4c-0.1,0.2,0,0.2,0.2,0.2c0.1-0.1,0.4-0.1,0.5-0.2c0,0,0,0,0,0c0,0-0.1,0.1-0.1,0.1
	c-0.1,0.2,0,0.2,0.2,0.2c0.1,0,0.2-0.1,0.3-0.1c0.7,0.2,1.8,0.2,3.6-0.1c3.3-0.6,4.7-1,7.5-3.4C-79.9,467.9-80.2,466.5-80.5,464.8z"
	/>
</svg>
