<?xml version="1.0" encoding="utf-8"?>
<!-- Generator: Adobe Illustrator 19.0.0, SVG Export Plug-In . SVG Version: 6.00 Build 0)  -->
<svg version="1.1" id="Capa_1" xmlns="http://www.w3.org/2000/svg" xmlns:xlink="http://www.w3.org/1999/xlink" x="0px" y="0px"
	 viewBox="-210 325.9 173.5 190" style="enable-background:new -210 325.9 173.5 190;" xml:space="preserve">
<g id="XMLID_100_">
	<path d="M-45.1,494.1h-156.3c-2,0-3.8-1-4.8-2.7s-1-3.8,0-5.5l78.1-135.4c1-1.7,2.8-2.8,4.8-2.8l0,0c2,0,3.8,1,4.8,2.7l78.2,135.4
		c1,1.7,1,3.8,0,5.5C-41.3,493-43.1,494.1-45.1,494.1z M-191.9,483.1h137.3l-68.7-118.9L-191.9,483.1z"/>
</g>
<g>
	<path d="M-144.9,445.6c-3.5,0-6.4,2.9-6.4,6.4s2.9,6.4,6.4,6.4c3.5,0,6.4-2.9,6.4-6.4S-141.4,445.6-144.9,445.6z M-144.9,455.8
		c-2.1,0-3.8-1.7-3.8-3.8s1.7-3.8,3.8-3.8c2.1,0,3.8,1.7,3.8,3.8S-142.8,455.8-144.9,455.8z"/>
	<path d="M-86.3,445.6V438c0-0.5-0.4-1-0.9-1.2l-7.2-2.4c-2.7-4.6-6.4-9-14.7-10.4c0,0,0,0,0,0c-15.2-2.1-26.6,1.3-33.9,10.2
		c-5.5,0.1-11,1.2-14.3,3.3c-1.7,1.1-2.7,3-2.8,5l-0.1,3.2c-0.7,0-1.3,0.6-1.3,1.3v5.1c0,0.7,0.6,1.3,1.3,1.3h5.1
		c0.7,0,1.3-0.6,1.3-1.3c0,0,0,0,0,0c0-4.9,4-8.9,8.9-8.9c4.9,0,8.9,4,8.9,8.9c-0.1,0.8,0.5,1.3,1.3,1.3h23c0.7,0,1.3-0.6,1.3-1.3
		c0,0,0,0,0,0c0-4.9,4-8.9,8.9-8.9c4.9,0,8.9,4,8.9,8.9c-0.1,0.8,0.5,1.3,1.3,1.3h5.1c0.7,0,1.3-0.6,1.3-1.3v-5.1
		C-85,446.2-85.6,445.6-86.3,445.6z M-120.7,433.5c0,0.4-0.3,0.6-0.6,0.6H-138c-0.6,0-0.9-0.7-0.4-1.1c4.4-4,10.1-6.3,17-7
		c0.4,0,0.7,0.3,0.7,0.6V433.5z M-105.4,433.5c0,0.3-0.3,0.6-0.6,0.6h-11.5c-0.4,0-0.6-0.3-0.6-0.6v-7c0-0.4,0.3-0.6,0.6-0.6
		c2.5,0,5.2,0.2,8.1,0.6c1.4,0.2,2.6,0.6,3.7,1c0.3,0.1,0.4,0.3,0.4,0.6L-105.4,433.5z M-98.7,434.2h-3.5c-0.4,0-0.6-0.3-0.6-0.6
		l0-3.5c0-0.5,0.6-0.8,1-0.5c1.4,1,2.5,2.2,3.5,3.6C-97.9,433.6-98.2,434.2-98.7,434.2z"/>
	<path d="M-101.6,445.6c-3.5,0-6.4,2.9-6.4,6.4s2.9,6.4,6.4,6.4s6.4-2.9,6.4-6.4S-98.1,445.6-101.6,445.6z M-101.6,455.8
		c-2.1,0-3.8-1.7-3.8-3.8s1.7-3.8,3.8-3.8s3.8,1.7,3.8,3.8S-99.5,455.8-101.6,455.8z"/>
</g>
</svg>
