<?xml version="1.0" encoding="utf-8"?>
<!-- Generator: Adobe Illustrator 19.0.0, SVG Export Plug-In . SVG Version: 6.00 Build 0)  -->
<svg version="1.1" id="Capa_1" xmlns="http://www.w3.org/2000/svg" xmlns:xlink="http://www.w3.org/1999/xlink" x="0px" y="0px"
	 viewBox="-210 325.9 173.5 190" style="enable-background:new -210 325.9 173.5 190;" xml:space="preserve">
<style type="text/css">
	.st0{fill:none;stroke:#000000;stroke-miterlimit:10;}
</style>
<g id="XMLID_100_">
	<path d="M-45.1,494.1h-156.3c-2,0-3.8-1-4.8-2.7s-1-3.8,0-5.5l78.1-135.4c1-1.7,2.8-2.8,4.8-2.8l0,0c2,0,3.8,1,4.8,2.7l78.2,135.4
		c1,1.7,1,3.8,0,5.5C-41.3,493-43.1,494.1-45.1,494.1z M-191.9,483.1h137.3l-68.7-118.9L-191.9,483.1z"/>
</g>
<g>
	<line class="st0" x1="-163.3" y1="431.3" x2="-163.3" y2="438.5"/>
	<line class="st0" x1="-158.8" y1="429.4" x2="-158.8" y2="440.3"/>
	<line class="st0" x1="-154.4" y1="426.6" x2="-154.4" y2="443.2"/>
	<line class="st0" x1="-149.9" y1="423.1" x2="-149.9" y2="446.6"/>
	<line class="st0" x1="-145.5" y1="428.5" x2="-145.5" y2="441.3"/>
	<line class="st0" x1="-141" y1="417.6" x2="-141" y2="452.2"/>
	<line class="st0" x1="-136.6" y1="425.1" x2="-136.6" y2="444.6"/>
	<line class="st0" x1="-132.1" y1="415.7" x2="-132.1" y2="454.1"/>
	<line class="st0" x1="-127.7" y1="417.6" x2="-127.7" y2="452.2"/>
	<line class="st0" x1="-123.3" y1="420" x2="-123.3" y2="449.7"/>
	<line class="st0" x1="-118.8" y1="423.1" x2="-118.8" y2="446.6"/>
	<line class="st0" x1="-114.4" y1="425.1" x2="-114.4" y2="444.6"/>
	<line class="st0" x1="-109.9" y1="416.3" x2="-109.9" y2="453.5"/>
	<line class="st0" x1="-105.5" y1="411.4" x2="-105.5" y2="458.4"/>
	<line class="st0" x1="-101" y1="417.6" x2="-101" y2="452.2"/>
	<line class="st0" x1="-96.6" y1="422.3" x2="-96.6" y2="447.5"/>
	<line class="st0" x1="-96.6" y1="416.3" x2="-96.6" y2="453.5"/>
	<line class="st0" x1="-92.1" y1="426.3" x2="-92.1" y2="443.5"/>
	<line class="st0" x1="-87.7" y1="428.6" x2="-87.7" y2="441.2"/>
	<line class="st0" x1="-83.3" y1="430.3" x2="-83.3" y2="439.5"/>
</g>
</svg>
