<?xml version="1.0" encoding="utf-8"?>
<!-- Generator: Adobe Illustrator 19.0.0, SVG Export Plug-In . SVG Version: 6.00 Build 0)  -->
<svg version="1.1" id="Capa_1" xmlns="http://www.w3.org/2000/svg" xmlns:xlink="http://www.w3.org/1999/xlink" x="0px" y="0px"
	 viewBox="-210 325.9 173.5 190" style="enable-background:new -210 325.9 173.5 190;" xml:space="preserve">
<style type="text/css">
	.st0{fill:none;}
</style>
<g id="XMLID_100_">
	<path d="M-45.1,494.1h-156.3c-2,0-3.8-1-4.8-2.7s-1-3.8,0-5.5l78.1-135.4c1-1.7,2.8-2.8,4.8-2.8l0,0c2,0,3.8,1,4.8,2.7l78.2,135.4
		c1,1.7,1,3.8,0,5.5C-41.3,493-43.1,494.1-45.1,494.1z M-191.9,483.1h137.3l-68.7-118.9L-191.9,483.1z"/>
</g>
<g>
	<path d="M-116.5,404h-13.9l-6.9,12.1l6.9,12.1h13.9l6.9-12.1L-116.5,404z M-125.2,423.2c-0.9,0.8-0.7,2-0.7,2c0,0.1,0,0.3,0,0.4
		h-1.5c0-2,0.9-3.4,1.8-4.2c0.4,0.3,0.7,0.5,0.9,0.6l0,0c0.2,0.1,0.3,0.1,0.4,0.2C-124.5,422.4-124.8,422.7-125.2,423.2z
		 M-120.9,425.5c0-0.1,0-0.3,0-0.4c0.2-0.8-0.7-2-0.7-2s0,0,0,0c-0.3-0.4-0.7-0.8-1-1c-0.5-0.4-1-0.6-1-0.6c0,0-0.3-0.1-0.6-0.3
		c-0.4-0.2-0.8-0.5-1.3-0.9c-0.9-0.8-1.8-2.2-1.8-4.2c0-2,0.9-3.4,1.8-4.2c0.6,0.4,1.1,0.7,1.4,0.8c-0.2,0.2-0.5,0.4-0.7,0.7
		c-0.6,0.6-1,1.6-1,2.7c0,0.9,0.3,1.8,0.8,2.4c0,0,0,0,0,0c0.3,0.4,0.6,0.7,1,1c0.5,0.4,1,0.6,1,0.6c0,0,0.3,0.1,0.6,0.3v0
		c0.4,0.2,0.8,0.5,1.3,0.9c0.9,0.8,1.8,2.2,1.8,4.2C-119.4,425.5-120.9,425.5-120.9,425.5z M-121.3,420.4c-0.3-0.2-0.6-0.4-0.9-0.6
		c-0.2-0.1-0.3-0.2-0.4-0.2c0.3-0.3,0.7-0.6,1-1h0c0.1-0.2,0.3-0.4,0.4-0.6h0c0.1-0.2,0.2-0.5,0.3-0.8h0c0.1-0.3,0.1-0.7,0.1-1
		c0-0.9-0.3-1.8-0.8-2.4c-0.3-0.5-0.7-0.8-1.1-1.1c-0.2-0.1-0.4-0.2-0.5-0.3l-0.5-0.2c-0.3-0.1-0.8-0.4-1.5-0.9
		c-1-0.8-2.1-2.2-2.1-4.4h1.5c0,0.3,0.1,0.7,0.1,1c0,0,0,0,0,0c0,0,0,0,0,0.1c0.1,0.3,0.2,0.5,0.3,0.7c0.1,0.2,0.2,0.4,0.3,0.6h0
		c0.8,1.1,1.9,1.6,2,1.6c0.2,0.1,3.7,1.4,3.7,5.4C-119.4,418.2-120.3,419.5-121.3,420.4z M-121.3,411c-0.6-0.4-1.1-0.7-1.4-0.8
		c0.3-0.2,0.5-0.4,0.8-0.7c0.6-0.6,0.9-1.6,1-2.7h1.4C-119.4,408.8-120.3,410.1-121.3,411z"/>
	<rect x="-129.1" y="429.8" width="11.5" height="4"/>
	<rect x="-129.1" y="435.2" width="11.5" height="4"/>
	<rect x="-129.1" y="440.8" width="11.5" height="4"/>
	<rect x="-129.1" y="446.3" width="11.5" height="4"/>
	<rect x="-131" y="452.1" width="15.4" height="4"/>
	<polygon points="-132.8,451.3 -152.2,439.2 -167.5,465.5 -151.5,441.9 -132.8,453.3 	"/>
	<polygon points="-132.8,455.1 -144.6,456.6 -161.9,471.1 -142.9,458.2 -132.8,457 	"/>
	<polygon points="-113.7,455.1 -101.9,456.6 -84.6,471.1 -103.6,458.2 -113.7,457 	"/>
	<line class="st0" x1="-129.1" y1="453.3" x2="-129.1" y2="451.3"/>
	<path d="M-163.7,452.3"/>
	<polygon points="-113.7,451.3 -94.3,439.2 -79,465.5 -95,441.9 -113.7,453.3 	"/>
</g>
</svg>
