<?xml version="1.0" encoding="utf-8"?>
<!-- Generator: Adobe Illustrator 19.0.0, SVG Export Plug-In . SVG Version: 6.00 Build 0)  -->
<svg version="1.1" id="Capa_1" xmlns="http://www.w3.org/2000/svg" xmlns:xlink="http://www.w3.org/1999/xlink" x="0px" y="0px"
	 viewBox="-210 325.9 173.5 190" style="enable-background:new -210 325.9 173.5 190;" xml:space="preserve">
<g id="XMLID_100_">
	<path d="M-45.1,494.1h-156.3c-2,0-3.8-1-4.8-2.7s-1-3.8,0-5.5l78.1-135.4c1-1.7,2.8-2.8,4.8-2.8l0,0c2,0,3.8,1,4.8,2.7l78.2,135.4
		c1,1.7,1,3.8,0,5.5C-41.3,493-43.1,494.1-45.1,494.1z M-191.9,483.1h137.3l-68.7-118.9L-191.9,483.1z"/>
</g>
<g>
	<path d="M-150.5,469.9l1.5,3.1l0.8-4.8l1,0.9l0.7-4.4C-146.5,464.7-149.4,466.6-150.5,469.9z"/>
	<path d="M-111.7,465.6l-1,0.1c0,0-1.3-3.6-1.3-5.2s0-10.6,0.5-12.7c0.5-2.1,1.7-4.2,1.8-5.4c0,0-1.7,1.5-2.9,2.5
		c-0.5,0.4-0.8,1-0.9,1.6c-0.2,1.5-0.6,4.8-1,9.1v4.6l0.4,4.3c0,0,2.7,0.7,2.5,3.5h2.9C-110.6,468.1-109.6,466.4-111.7,465.6z"/>
	<path d="M-103,414.1c1-1,0-3.3,0-3.3s-2.4,2.1-2.8,1.5c-0.4-0.6,1.3-2.3,0.7-4.7c-0.5-2.5-2.7-2.7-2.7-2.7l-3.1,4.1
		c-0.5,0.7-1.2,1.1-2,1.3c-2.6,0.5-4.1,3.8-4.5,4.8l0,0c0,0-2.1,1.7-4.6,3.2c-0.2,0.1,0.9,1.2,2.9,1.2l0,0l0,0c0,0,2.1-0.2,2.9-0.7
		c-1.1,1.2-2.5,1.5-3.6,1.7c-0.7,1-1.7,2-2.9,3.1c-0.1,0.1-0.3,0.2-0.4,0.4l0,0c0,0-3.1,1.8-5,2.7c0,0,0.7,0.1,2.1,0.1
		c-0.8,0.7-1.5,1.3-2.2,1.7c-5.5,3.2-12.6,5.9-19.8,10.5c-7.3,4.6-6.6,20-6.6,20s1.2-0.7,3.2-5c-0.4-1.7-0.9-4.3-0.5-6.9
		c0,0,0.8,4.9,2.1,6.5c-0.3,2.8-5.1,8.9-5.1,8.9c-1.1,6.6-0.4,12.2-0.1,14.1c0.1,0.4,0.4,0.7,0.8,0.7h4.9c0.5,0,1-0.4,0.9-0.9
		c0-0.2-0.1-0.5-0.2-0.8c-0.4-1-2.9-1.4-2.9-1.4v-2.4c-0.3-6.3,7.4-10.1,10.2-12.8c2.8-2.7,7.9-12.2,7.9-12.2l-2.2,6
		c0,0,2.9-2.4,6.6-3.9c3.7-1.5,5.8-2.7,5.8-2.7c0.4,1.8,1,8.3,1.3,11.9c0.1,1.3,0,2.4-0.1,3.7c-0.3,1.6,0.4,2.7,0.4,2.7
		c0.9,5.5,3.3,3.7,4.8,4.1c1.4,0.4,2.4-0.5,2.3-1.3s-0.9-1.4-2.3-1.8c-1.4-0.4-1.4-2.4-0.9-4.7c0.5-2.3,0.2-15,2-16.5
		c4-3.3,3.2-2.2,6.1-7.2c1.1-1.8,2.1-3.8,2.7-6.3l0.4,1c0.9-1.7,0.5-4.9,0.4-5.6c0.1-0.9,0.1-1.8,0.1-2.8
		C-106,419.8-104,415.1-103,414.1z M-112.7,412.9l0.2-1.5l0.8-0.5C-111.7,413.1-112.7,412.9-112.7,412.9z"/>
</g>
</svg>
