<?xml version="1.0" encoding="utf-8"?>
<!-- Generator: Adobe Illustrator 19.0.0, SVG Export Plug-In . SVG Version: 6.00 Build 0)  -->
<svg version="1.1" id="Capa_1" xmlns="http://www.w3.org/2000/svg" xmlns:xlink="http://www.w3.org/1999/xlink" x="0px" y="0px"
	 viewBox="-210 325.9 173.5 190" style="enable-background:new -210 325.9 173.5 190;" xml:space="preserve">
<text transform="matrix(1 0 0 1 87.6401 746.8352)" style="font-family:'MyriadPro-Regular'; font-size:12px;">d-11424</text>
<path d="M-40.3,485.8L-95.6,390l-20.3-35.1l-2.6-4.6c-1-1.7-2.8-2.7-4.8-2.7s-3.8,1.1-4.8,2.8l-2.6,4.5l-25.1,43.5l-50.5,87.5
	c-1,1.7-1,3.8,0,5.5s2.8,2.7,4.8,2.7h156.3c2,0,3.8-1.1,4.8-2.8C-39.3,489.6-39.3,487.5-40.3,485.8z M-191.9,483.1l43.9-76.2
	l24.7-42.7l20,34.7l48.7,84.2H-191.9z"/>
<g>
	<path d="M-87.8,464c-4,0-7.7-0.9-10.8-2.2l3.8-2.4l-4.2-0.3l0.6-4.3l-3.6,2.5l-2-3.8l-0.4,4.3c-2.5-2.4-4-5.3-4.3-8.4l5.6,2.6
		l-2.5-4.4l4.7-2.1l-4.8-2l2.3-4.4l-5.4,2.8v-3.7l0,0V435l5.7,2.7l-2.5-4.4l4.7-2.1l-4.8-2l2.3-4.4l-5.5,2.8v-3.9c0-0.3,0-0.7,0-0.9
		c0-0.2,0-0.3,0-0.5l7.3,0.9l-4.4-4.1l4.5-4.2l-6.1-0.5l0.9-6l-5.3,5.5c-0.8-0.9-1.6-1.9-2.6-2.6l7.3-6.6l-7.9,0.9l-0.3-8.2
		l-5.8,5.8l-5.4-6l0.9,9.4c-1-0.2-2-0.2-3.2-0.2c-7,0-13.1,2.9-16.6,7.3c0.9,0,1.8,0.1,2.6,0.2l1,5.6l2.9-5c0.3,0.1,0.7,0.2,1,0.3
		l-0.3,5.8l4.2-4.4c0.3,0.2,0.5,0.3,0.9,0.4l-1.6,5.2l4.8-3c1.8,1.6,2.8,3.5,2.8,5.5c0,1.5-0.5,2.9-1.5,4.1l-4.1-2.3l1.7,4.6
		c-0.3,0.3-0.6,0.4-0.9,0.6l-4-3.9l0.5,5.6c-0.3,0.2-0.7,0.3-1.1,0.4l-3-4.8l-0.8,5.7c-0.7,0.1-1.4,0.3-2,0.3
		c2.3,1.8,5.1,3.2,8.3,3.8v6.6h-5h-0.8h-0.9h-1.5l1.1,1.7l-1.6,0.9l-0.6,0.4l0.7,0.4l1.5,0.9l-1.1,1.7h1.5h0.9h0.8h5l0,0
		c0,3.7,1.5,7,4.1,9.3v9.3v3.1l1.7-1.1l1.4,2.2l1.4-2.2l1.7,1.1V470v-6.1c0.9,0.2,1.6,0.3,2.5,0.3c0.2,0,0.4,0,0.6,0v5.9v3.1
		l1.7-1.1l1.4,2.2l1.4-2.2l1.7,1.1V470v-4.8c3.6,2,8,3.3,13,3.3c5.7,0,10.9-1.7,14.7-4.4C-87.4,464-87.6,464-87.8,464z"/>
</g>
</svg>
