<?xml version="1.0" encoding="utf-8"?>
<!-- Generator: Adobe Illustrator 19.0.0, SVG Export Plug-In . SVG Version: 6.00 Build 0)  -->
<svg version="1.1" id="Capa_1" xmlns="http://www.w3.org/2000/svg" xmlns:xlink="http://www.w3.org/1999/xlink" x="0px" y="0px"
	 viewBox="-210 325.9 173.5 190" style="enable-background:new -210 325.9 173.5 190;" xml:space="preserve">
<g id="XMLID_100_">
	<path d="M-45.1,494.1h-156.3c-2,0-3.8-1-4.8-2.7s-1-3.8,0-5.5l78.1-135.4c1-1.7,2.8-2.8,4.8-2.8l0,0c2,0,3.8,1,4.8,2.7l78.2,135.4
		c1,1.7,1,3.8,0,5.5C-41.3,493-43.1,494.1-45.1,494.1z M-191.9,483.1h137.3l-68.7-118.9L-191.9,483.1z"/>
</g>
<g>
	<path d="M-109.7,439.9c2-2.8,6.8-1.5,6.8-1.5l12-12.6l-17.7,3.2c-0.7,3.5-4.8,6.2-9.1,2.9s0-8.5,0-8.5l-5-16.6v1.6v-1.6l-5.6,16.4
		c0,0,4.1,5.3-0.3,8.5c-4.4,3.2-8.4,0.3-9-3.2l-17.6-3.8l11.6,13c0,0,4.8-1.1,6.8,1.8s2,9.6-6.5,8.8l-12.3,13.1l17.9-3.9
		c0,0,0.4-4.7,5.6-4.7c5.2,0,6.5,6.5,3.3,10l4.8,17.2v0.5l0.1-0.3l0.1,0.3v-0.5l5.3-16.9c-3.1-3.6-1.5-10,3.6-9.9
		c5.2,0.2,5.4,4.9,5.4,4.9l17.8,4.5l-11.9-13.4C-112,449.5-111.7,442.7-109.7,439.9z M-123.1,446.5c-0.1,0-0.1,0-0.2,0h-0.1
		c-2-0.1-3.5-1.7-3.5-3.7c0-2,1.6-3.6,3.6-3.7h0.1l0,0c2,0,3.7,1.7,3.7,3.7C-119.4,444.8-121.1,446.5-123.1,446.5z"/>
</g>
</svg>
