<?xml version="1.0" encoding="utf-8"?>
<!-- Generator: Adobe Illustrator 19.0.0, SVG Export Plug-In . SVG Version: 6.00 Build 0)  -->
<svg version="1.1" id="Capa_1" xmlns="http://www.w3.org/2000/svg" xmlns:xlink="http://www.w3.org/1999/xlink" x="0px" y="0px"
	 viewBox="-210 325.9 173.5 190" style="enable-background:new -210 325.9 173.5 190;" xml:space="preserve">
<g>
	<path d="M-60.7,383.9c-7.4-25.1-27.8-37.4-61.8-37.4c-34.3,0-54.8,12.5-62,38 M-184.5,384.5c-2,7-3,14.9-3,23.8
		c0,63.7,60.5,94.7,63.1,96.3h3.8c2.5-1.3,63.1-32.3,63.1-96.3c0-9.2-1-17.3-3.1-24.4 M-122.5,496.5c-9.8-5.4-57-35.2-57-88.1
		c0-37.4,17.4-53.9,57-53.9c39.3,0,57,16.5,57,53.9C-65.5,461.3-112.7,491.1-122.5,496.5z"/>
	<path d="M-83.4,377c-7-7-18.1-7-24.7-0.3c-0.6,0.3-1,1-1.3,1.6l0,0l0,0c-0.3,1-0.3,1.6,0,2.5c0.3,2.9,1.9,6,2.2,6.3
		c2.5,5.1,7.6,11.7,18.7,15.2c1,3.8,1.6,7.6,1.6,12.4c0,7.9-5.4,18.7-10.5,29.2c-1,2.2-2.2,4.4-3.2,6.3c-1.6,3.8-3.2,7-4.8,9.8
		l-13.9-8.9v-4.4h3.5c1.9,0,3.5-1.3,3.8-3.2l3.2-16.8l7.6-2.2c2.2-0.6,3.2-2.9,2.9-4.8c-0.6-2.2-2.9-3.2-4.8-2.9l-10.1,2.9
		c-1.6,0.3-2.5,1.6-2.9,3.2l-2.9,16.2h-8.6l-2.9-16.2c-0.3-1.6-1.3-2.5-2.9-3.2l-10.1-2.9c-1.9-0.6-4.1,0.6-4.8,2.5
		c-0.6,2.2,0.6,4.4,2.9,4.8l7.6,2.2l3.2,16.8c0.3,1.9,1.9,3.2,3.8,3.2h3.5v4.8l-13.3,8.9c-1.6-2.9-3.2-6-4.8-9.8
		c-1-2.2-1.9-4.1-3.2-6.7c-5.1-10.5-10.5-21.2-10.5-29.2c0-4.4,0.6-8.6,1.6-12.4c10.8-3.8,16.2-10.1,18.7-15.2
		c0-0.3,1.6-3.5,2.2-6.3c0.3-0.6,0-1.6-0.3-2.5l0,0l0,0l0,0l0,0l0,0l0,0l0,0l0,0l0,0l0,0l0,0l0,0l0,0l0,0c-0.3-0.6-0.6-1-1.3-1.6
		c-7-6.7-18.1-6.7-24.7,0.3c-3.5,3.5-5.4,7.6-5.4,12.4c0,3.8,1,7.6,3.5,10.8c-1.3,4.4-1.9,9.2-1.9,14.6c0,9.8,5.4,20.9,11.4,32.6
		c1,2.2,1.9,4.1,2.9,6.3c5.7,12,11.4,24.7,29.5,24.7c17.7,0,23.8-12.7,29.5-24.7c1-1.9,1.9-4.1,3.2-6.3
		c5.7-11.7,11.4-22.8,11.4-32.6c0-5.4-0.6-10.1-1.9-14.6c2.2-3.2,3.5-6.7,3.5-10.8C-78,384.9-79.9,380.5-83.4,377z M-160.1,389.7
		c0-2.5,1.3-5.1,3.2-7s4.4-2.9,7-2.9c1.9,0,3.8,0.6,5.4,1.6c-1,3.2-4.4,9.8-14.3,13.3C-159.8,393.2-160.4,391.6-160.1,389.7z
		 M-135.4,466.4l12.4-8.2l12.4,8.2c-3.2,2.9-7,4.1-12.4,4.1C-128.7,470.5-132.5,469.2-135.4,466.4z M-87.2,394.7
		c-9.8-3.8-13-10.1-14.3-13.3c3.8-2.5,8.9-1.9,12.4,1.3c1.9,1.9,3.2,4.4,3.2,7C-85.9,391.6-86.3,393.2-87.2,394.7z"/>
	<g>
		<path d="M-186.8,362.5l4.2,5l-1.2,1.9l-3.4-0.9l2.2,2.7l-1.2,1.9l-6.3-1.7l1.2-1.8l3.6,1l-2.4-2.9l1-1.6l3.6,1l-2.4-2.9
			L-186.8,362.5z"/>
		<path d="M-186,361.8l1.3-1.6l4.8,4l-1.3,1.6L-186,361.8z"/>
		<path d="M-183.7,359.1l1.5-1.5l3.3,3.2l2-2l1.2,1.1l-3.4,3.5L-183.7,359.1z"/>
		<path d="M-174.9,359.2c-0.5,0.2-0.9,0.4-1.2,0.4l-0.4-1.6c0.3-0.1,0.7-0.2,1-0.3c0.4-0.2,0.7-0.3,0.9-0.6c0.2-0.2,0.4-0.3,0.4-0.5
			c0.1-0.1,0.1-0.2,0-0.3c-0.1-0.1-0.2-0.1-0.4-0.1c-0.2,0.1-0.4,0.2-0.8,0.3c-0.4,0.2-0.8,0.4-1.1,0.5c-0.3,0.1-0.7,0.1-1,0.1
			c-0.4-0.1-0.7-0.3-1-0.6c-0.2-0.3-0.4-0.6-0.4-1c0-0.4,0.1-0.8,0.3-1.2c0.2-0.4,0.6-0.8,1.1-1.2c0.3-0.3,0.7-0.5,1.1-0.7
			c0.4-0.2,0.7-0.3,1.1-0.4l0.5,1.6c-0.7,0.1-1.2,0.4-1.6,0.7c-0.4,0.3-0.5,0.6-0.4,0.8c0.1,0.1,0.2,0.1,0.4,0.1
			c0.2-0.1,0.4-0.2,0.7-0.3c0.4-0.2,0.8-0.4,1.1-0.5c0.3-0.1,0.7-0.2,1-0.1c0.4,0,0.7,0.2,1,0.6c0.2,0.3,0.4,0.6,0.4,1
			s-0.1,0.8-0.3,1.2c-0.2,0.4-0.6,0.8-1.1,1.2C-174,358.7-174.4,359-174.9,359.2z"/>
		<path d="M-170,355.1c-0.6,0.1-1.2-0.1-1.7-0.3c-0.5-0.3-0.9-0.6-1.3-1.2c-0.3-0.5-0.5-1.1-0.5-1.7c0-0.6,0.1-1.1,0.4-1.7
			s0.7-1,1.3-1.3c0.6-0.4,1.2-0.6,1.8-0.6c0.6-0.1,1.2,0.1,1.7,0.3c0.5,0.3,0.9,0.6,1.3,1.2c0.3,0.5,0.5,1.1,0.5,1.7
			s-0.1,1.1-0.4,1.7c-0.3,0.5-0.7,1-1.3,1.3C-168.8,354.8-169.4,355.1-170,355.1z M-168.7,352.5c0.1-0.2,0.2-0.5,0.1-0.7
			s-0.1-0.5-0.3-0.8c-0.2-0.3-0.4-0.5-0.6-0.6c-0.2-0.1-0.5-0.2-0.7-0.2c-0.2,0-0.5,0.1-0.7,0.2c-0.2,0.1-0.4,0.3-0.5,0.5
			c-0.1,0.2-0.2,0.5-0.1,0.7c0,0.3,0.1,0.5,0.3,0.8c0.2,0.3,0.4,0.5,0.6,0.6c0.2,0.1,0.5,0.2,0.7,0.2c0.2,0,0.5-0.1,0.7-0.2
			C-168.9,352.9-168.8,352.7-168.7,352.5z"/>
		<path d="M-162,344l2.7,5.6l-1.6,0.7l-3.4-1.5l1.2,2.6l-1.9,0.9l-2.7-5.6l1.6-0.7l3.4,1.5l-1.2-2.6L-162,344z"/>
		<path d="M-157.7,349c-0.5,0.1-0.9,0-1.3,0l0.1-1.7c0.3,0.1,0.7,0.1,1.1,0.1c0.4,0,0.7-0.1,1.1-0.2c0.3-0.1,0.5-0.2,0.6-0.3
			c0.1-0.1,0.1-0.2,0.1-0.3c0-0.1-0.2-0.2-0.3-0.2c-0.2,0-0.5,0-0.8,0.1c-0.5,0.1-0.9,0.1-1.2,0.1c-0.3,0-0.7-0.1-1-0.3
			c-0.3-0.2-0.5-0.5-0.7-0.9c-0.1-0.4-0.2-0.7-0.1-1.1s0.3-0.7,0.7-1c0.3-0.3,0.8-0.6,1.4-0.8c0.4-0.1,0.8-0.2,1.2-0.3
			c0.4-0.1,0.8,0,1.2,0l-0.1,1.6c-0.7-0.1-1.3,0-1.8,0.2c-0.5,0.2-0.7,0.4-0.6,0.6c0,0.1,0.1,0.2,0.3,0.2c0.2,0,0.4,0,0.8-0.1
			c0.5-0.1,0.9-0.1,1.2-0.1c0.3,0,0.7,0.1,1,0.2c0.3,0.2,0.5,0.5,0.7,0.9c0.1,0.4,0.1,0.7,0.1,1.1s-0.3,0.7-0.7,1
			c-0.3,0.3-0.8,0.6-1.4,0.8C-156.7,348.8-157.2,348.9-157.7,349z"/>
		<path d="M-142,338.4l-0.7,6.5l-2.2,0.5l-1.7-3.1l-0.3,3.5l-2.2,0.5l-3.2-5.7l2.1-0.4l1.8,3.2l0.4-3.7l1.9-0.4l1.8,3.3l0.4-3.8
			L-142,338.4z"/>
		<path d="M-141.1,338.4l2.1-0.3l0.9,6.2l-2.1,0.3L-141.1,338.4z"/>
		<path d="M-137.9,337.9l2.1-0.2l0.5,4.6l2.8-0.3l0.2,1.6l-4.9,0.5L-137.9,337.9z"/>
		<path d="M-132.2,337.4l3.1-0.1c0.7,0,1.3,0.1,1.9,0.3c0.5,0.2,1,0.6,1.3,1s0.5,1,0.5,1.6c0,0.6-0.1,1.2-0.4,1.7
			c-0.3,0.5-0.7,0.9-1.2,1.1c-0.5,0.3-1.1,0.4-1.8,0.5l-3.1,0.1L-132.2,337.4z M-129,341.9c0.5,0,0.8-0.2,1.1-0.4
			c0.3-0.3,0.4-0.6,0.4-1.1c0-0.5-0.2-0.8-0.5-1.1c-0.3-0.2-0.6-0.4-1.1-0.3l-0.9,0l0.1,3L-129,341.9z"/>
		<path d="M-124.5,337.1l2.1,0l0,4.6l2.8,0l0,1.6l-4.9,0L-124.5,337.1z"/>
		<path d="M-118.9,337.1l2.1,0.1l-0.2,6.2l-2.1-0.1L-118.9,337.1z"/>
		<path d="M-113.7,339l-0.1,1.1l2.6,0.2l-0.1,1.6l-2.6-0.2l-0.1,2l-2.1-0.1l0.4-6.2l5.1,0.3l-0.1,1.6L-113.7,339z"/>
		<path d="M-105.1,342.9l-0.2,1.6l-5.2-0.6l0.7-6.2l5,0.6l-0.2,1.6l-3-0.4l-0.1,0.7l2.6,0.3l-0.2,1.5l-2.6-0.3l-0.1,0.8
			L-105.1,342.9z"/>
		<path d="M-101.2,345.1c-0.5-0.2-0.8-0.4-1.1-0.7l1-1.4c0.3,0.2,0.6,0.4,0.9,0.6c0.3,0.2,0.7,0.3,1,0.4c0.3,0.1,0.5,0.1,0.6,0
			c0.1,0,0.2-0.1,0.2-0.2c0-0.1,0-0.2-0.2-0.3c-0.1-0.1-0.4-0.2-0.7-0.4c-0.5-0.2-0.8-0.4-1.1-0.6c-0.3-0.2-0.5-0.4-0.7-0.7
			s-0.2-0.7-0.1-1.1c0.1-0.4,0.3-0.7,0.5-1c0.3-0.3,0.7-0.5,1.1-0.5c0.5-0.1,1-0.1,1.6,0.1c0.4,0.1,0.8,0.2,1.2,0.4s0.7,0.4,1,0.6
			l-0.9,1.4c-0.5-0.4-1.1-0.7-1.6-0.8c-0.5-0.1-0.8,0-0.9,0.2c0,0.1,0,0.2,0.2,0.3c0.1,0.1,0.4,0.2,0.7,0.4c0.4,0.2,0.8,0.4,1.1,0.5
			c0.3,0.2,0.5,0.4,0.7,0.7s0.2,0.7,0.1,1.1c-0.1,0.4-0.3,0.7-0.5,1c-0.3,0.3-0.7,0.4-1.1,0.5c-0.5,0.1-1,0.1-1.6,0
			C-100.2,345.5-100.7,345.4-101.2,345.1z"/>
		<path d="M-94.9,346.3c-0.4-0.4-0.7-0.9-0.9-1.5s-0.1-1.1,0-1.7c0.2-0.6,0.5-1.1,0.9-1.5s0.9-0.6,1.5-0.8c0.6-0.1,1.2-0.1,1.9,0.1
			c0.6,0.2,1.2,0.5,1.6,0.9c0.4,0.4,0.7,0.9,0.9,1.5c0.2,0.6,0.1,1.1,0,1.7c-0.2,0.6-0.5,1.1-0.9,1.5c-0.4,0.4-0.9,0.6-1.5,0.8
			s-1.2,0.1-1.9-0.1C-93.9,347-94.5,346.7-94.9,346.3z M-92.1,345.6c0.2-0.1,0.5-0.2,0.6-0.4c0.2-0.2,0.3-0.4,0.4-0.7
			s0.1-0.6,0.1-0.8c-0.1-0.3-0.2-0.5-0.3-0.7s-0.4-0.3-0.6-0.4s-0.5-0.1-0.7,0c-0.2,0.1-0.5,0.2-0.6,0.4s-0.3,0.4-0.4,0.7
			c-0.1,0.3-0.1,0.6-0.1,0.8c0.1,0.3,0.2,0.5,0.3,0.7c0.2,0.2,0.4,0.3,0.6,0.4C-92.5,345.6-92.3,345.7-92.1,345.6z"/>
		<path d="M-87,342.5l2,0.8l-1.7,4.3l2.6,1l-0.6,1.5l-4.6-1.8L-87,342.5z"/>
		<path d="M-83.4,350c-0.2-0.7-0.2-1.5,0.3-2.3l1.5-3.1l1.9,0.9l-1.5,3c-0.2,0.4-0.3,0.7-0.2,1c0.1,0.3,0.2,0.5,0.5,0.6
			c0.3,0.1,0.5,0.2,0.8,0c0.2-0.1,0.5-0.4,0.7-0.8l1.5-3l1.8,0.9l-1.5,3.1c-0.4,0.8-1,1.4-1.7,1.6c-0.7,0.2-1.5,0.1-2.3-0.3
			S-83.1,350.7-83.4,350z"/>
		<path d="M-74.7,350.2l-1.5-1l0.9-1.4l4.8,3.1l-0.9,1.4l-1.5-1l-2.5,3.9l-1.8-1.1L-74.7,350.2z"/>
		<path d="M-69.8,351.5l1.7,1.3l-3.8,5l-1.7-1.3L-69.8,351.5z"/>
		<path d="M-69.9,359c-0.2-0.6-0.2-1.1-0.1-1.7c0.1-0.6,0.4-1.1,0.8-1.5c0.4-0.5,0.9-0.8,1.5-0.9s1.1-0.1,1.7,0
			c0.6,0.2,1.1,0.5,1.6,0.9c0.5,0.5,0.8,1,1,1.5c0.2,0.6,0.2,1.1,0.1,1.7c-0.1,0.6-0.4,1.1-0.8,1.5c-0.4,0.5-0.9,0.8-1.5,0.9
			c-0.6,0.2-1.1,0.1-1.7,0c-0.6-0.2-1.1-0.5-1.6-0.9S-69.7,359.6-69.9,359z M-67.1,359.7c0.2,0.1,0.5,0,0.7-0.1
			c0.3-0.1,0.5-0.2,0.7-0.5s0.4-0.5,0.4-0.7c0.1-0.3,0.1-0.5,0-0.7c-0.1-0.2-0.2-0.4-0.4-0.6s-0.4-0.3-0.6-0.3
			c-0.2-0.1-0.5,0-0.7,0.1c-0.3,0.1-0.5,0.2-0.7,0.5s-0.4,0.5-0.4,0.7c-0.1,0.3-0.1,0.5,0,0.7s0.2,0.4,0.4,0.6
			S-67.3,359.6-67.1,359.7z"/>
		<path d="M-57.2,364.2l-4.9,3.9l-1.1-1.3l0.7-3.6l-2.2,1.8l-1.3-1.6l4.9-3.9l1.1,1.3l-0.7,3.6l2.2-1.8L-57.2,364.2z"/>
		<path d="M-61.1,369.5c-0.2-0.5-0.2-0.9-0.2-1.3l1.7-0.2c0,0.3,0.1,0.7,0.2,1.1s0.2,0.7,0.4,1c0.2,0.2,0.3,0.4,0.4,0.5
			c0.1,0.1,0.2,0.1,0.3,0c0.1-0.1,0.2-0.2,0.1-0.4c0-0.2-0.1-0.4-0.2-0.8c-0.2-0.5-0.3-0.9-0.4-1.2c-0.1-0.3-0.1-0.7,0-1
			c0.1-0.3,0.3-0.6,0.7-0.9c0.3-0.2,0.7-0.3,1.1-0.3s0.8,0.2,1.2,0.4c0.4,0.3,0.7,0.7,1.1,1.2c0.2,0.4,0.4,0.7,0.5,1.1
			c0.1,0.4,0.2,0.8,0.2,1.1l-1.6,0.3c-0.1-0.7-0.2-1.3-0.5-1.7c-0.3-0.5-0.5-0.6-0.8-0.5c-0.1,0.1-0.1,0.2-0.1,0.4
			c0,0.2,0.1,0.4,0.2,0.8c0.2,0.5,0.3,0.8,0.4,1.2s0.1,0.7,0,1c-0.1,0.3-0.3,0.6-0.7,0.9c-0.3,0.2-0.7,0.3-1.1,0.3
			c-0.4,0-0.8-0.2-1.2-0.4s-0.8-0.7-1.1-1.2C-60.8,370.4-61,370-61.1,369.5z"/>
	</g>
</g>
</svg>
