<?xml version="1.0" encoding="utf-8"?>
<!-- Generator: Adobe Illustrator 19.0.0, SVG Export Plug-In . SVG Version: 6.00 Build 0)  -->
<svg version="1.1" id="Capa_1" xmlns="http://www.w3.org/2000/svg" xmlns:xlink="http://www.w3.org/1999/xlink" x="0px" y="0px"
	 viewBox="-210 325.9 173.5 190" style="enable-background:new -210 325.9 173.5 190;" xml:space="preserve">
<style type="text/css">
	.st0{clip-path:url(#SVGID_2_);}
</style>
<g id="XMLID_100_">
	<path d="M-45.1,494.1h-156.3c-2,0-3.8-1-4.8-2.7s-1-3.8,0-5.5l78.1-135.4c1-1.7,2.8-2.8,4.8-2.8l0,0c2,0,3.8,1,4.8,2.7l78.2,135.4
		c1,1.7,1,3.8,0,5.5C-41.3,493-43.1,494.1-45.1,494.1z M-191.9,483.1h137.3l-68.7-118.9L-191.9,483.1z"/>
</g>
<g>
	<g>
		<defs>
			<polygon id="SVGID_1_" points="-191.9,483.3 -54.6,483.3 -123.3,364.4 			"/>
		</defs>
		<clipPath id="SVGID_2_">
			<use xlink:href="#SVGID_1_"  style="overflow:visible;"/>
		</clipPath>
		<g class="st0">
			<path d="M-144,426.1c2.2,0,7-3,9.7-5c2.3-1.8,2.1-3.4,1.9-4c-0.4-1.2-1.8-2-3.4-2c-1.2,0-2.5,0.4-3.7,1.1
				c-4.5,2.7-4.9,4.1-5.7,7.3l-0.1,0.5c-0.2,0.7-0.1,1.2,0.2,1.6C-145.1,425.8-144.7,426.1-144,426.1z M-144.1,424.3l0.1-0.5
				c0.8-3,1.1-4,5.1-6.4c1.2-0.7,2.3-0.9,3-0.9c1,0,1.9,0.4,2.1,1c0.2,0.7-0.3,1.5-1.4,2.4c-3.4,2.6-7.4,4.8-8.8,4.8
				c-0.1,0-0.1,0-0.1,0c0,0,0,0,0,0C-144.1,424.6-144.1,424.5-144.1,424.3z"/>
			<path d="M-153.3,432.5c1.8,0,4.8-1.1,7.9-2.2c1.5-0.5,3.1-1.1,4.4-1.5c5.5-1.6,10.1-7.3,13.1-11.1c0.4-0.5,0.8-1,1.2-1.4
				c1.4-1.6,1.2-3,0.8-3.9c-1-2.2-4.4-3.4-7.1-3.4c-4.3,0-10.9,4.2-14.7,8.3c-0.2,0.3-5.4,6.8-7.4,11.9c-0.4,1.1-0.4,1.9,0,2.5
				C-154.9,432.2-154.2,432.5-153.3,432.5z M-153.9,429.7c1.9-4.9,7.2-11.5,7.2-11.5c3.5-3.7,9.8-7.8,13.7-7.8
				c2.6,0,5.2,1.1,5.8,2.6c0.3,0.7,0.2,1.5-0.6,2.4c-0.4,0.4-0.8,0.9-1.2,1.5c-3,3.6-7.4,9.2-12.4,10.7c-1.4,0.4-3,1-4.5,1.5
				c-2.8,1-5.8,2.1-7.4,2.1c-0.5,0-0.7-0.1-0.8-0.2C-154.1,430.8-154.1,430.4-153.9,429.7z"/>
			<path d="M-160.3,442.1c2.3,0,5.6-1.5,8.8-2.9c2-0.9,3.8-1.7,5.4-2.2c0.6-0.2,1.2-0.4,1.7-0.5c5.4-1.6,7.4-2.1,17.2-12.3
				c6.3-6.6,9.2-13.8,7.3-18.3c-1-2.5-3.3-3.8-6.5-3.6c-8.1,0.5-13.8,3.2-24.4,11.9c-9,7.4-10,11.6-12.4,21.7l0,0.2
				c-0.5,2.3-0.4,3.9,0.3,4.8C-162.3,441.7-161.5,442.1-160.3,442.1z M-161.8,436.5l0-0.2c2.4-10.1,3.3-13.9,11.9-20.9
				c10.3-8.5,15.8-11.2,23.6-11.6c0.2,0,0.3,0,0.5,0c2.3,0,3.9,0.9,4.6,2.7c1.3,3,0.2,9.2-7,16.7c-9.5,9.9-11.5,10.5-16.6,12
				c-0.5,0.2-1.1,0.3-1.7,0.5c-1.7,0.5-3.6,1.3-5.6,2.2c-3.1,1.4-6.2,2.8-8.2,2.8c-0.7,0-1.1-0.2-1.4-0.5
				C-162.1,439.7-162.4,438.8-161.8,436.5z"/>
			<path d="M-170.9,455.9c1.8,0,4.5-1.5,8.2-3.6c4.2-2.4,10-5.7,16.9-7.9c17.9-5.8,30.4-25,36.2-41.1c1.3-3.7,1.4-6.3,0.1-8.1
				c-1-1.5-2.9-2.2-5.6-2.2c-4.9,0-11.9,2.4-18.1,4.7c-12.9,4.9-19.9,11.8-25.6,18.6c-6.2,7.5-13.1,20.6-14.6,33
				c-0.4,3.1-0.1,4.9,0.7,5.8C-172.3,455.7-171.7,455.9-170.9,455.9z M-172,449.5c1.4-12.1,8.2-24.9,14.3-32.2
				c5.5-6.7,12.4-13.5,25-18.2c6.1-2.3,12.9-4.6,17.6-4.6c2.2,0,3.7,0.5,4.5,1.6c0.9,1.3,0.8,3.6-0.3,6.8
				c-5.4,15-17.9,34.5-35.3,40.2c-7,2.3-12.9,5.6-17.1,8.1c-3.4,1.9-6,3.4-7.5,3.4c-0.5,0-0.6-0.2-0.8-0.3
				C-172.2,453.6-172.3,452-172,449.5z"/>
			<path d="M-33.4,421.7l-0.2-0.1v-21c0.1-0.2,0.2-0.4,0.2-0.5l-0.2-0.1v-13.4c0.1-0.1,0.1-0.2,0.2-0.3l-0.2-0.1v-9.4
				c0.1-0.1,0.1-0.1,0.2-0.2l-0.2-0.1v-9.4c0.1-0.1,0.1-0.1,0.1-0.2l-0.1-0.1v-4.4h-162.9v162.9h162.9v-25.4c0-0.1,0-0.2,0-0.3l0,0
				v-33.9c0-0.2,0.1-0.3,0.1-0.5l-0.1,0v-18.2c0.1-0.1,0.1-0.2,0.2-0.4l-0.2-0.1v-13c0.1-0.1,0.1-0.2,0.2-0.3l-0.2-0.1v-10.8
				C-33.5,422-33.4,421.8-33.4,421.7z M-36.4,424.2c-1,1.6-2,3.2-3,4.7c-7.6,11-12.8,34.4-16.3,49.9c-1.3,5.8-2.4,10.8-3.3,13.5
				c-2.1,6.3-6.2,8.3-11.4,10.7c-2.7,1.3-5.8,2.7-9,4.9c-5.6,4-6.3,7-7.5,12c-0.2,0.7-0.4,1.5-0.6,2.4h-3.2c0.7-1.9,1.1-3.8,1.6-5.6
				c1-3.9,1.9-7.3,4.5-10.7c2.5-3.2,5.8-5.3,9-7.3c4.3-2.7,8.7-5.4,11-11c1.4-3.6,3.3-10.2,5.4-17.9c3.6-13.1,8.1-29.4,13.2-40.2
				c2.6-5.4,4.8-10.9,7-16.1c0.9-2.3,1.9-4.5,2.8-6.6V424.2z M-36.4,403.4c-1.4,3.1-2.7,6.2-4.1,9.6c-2.2,5.2-4.4,10.6-7,16
				c-5.2,10.9-9.7,27.3-13.3,40.4c-2.1,7.7-3.9,14.3-5.3,17.8c-2.1,5.2-6.1,7.7-10.4,10.3c-3.3,2.1-6.7,4.2-9.3,7.6
				c-2.8,3.6-3.7,7.3-4.7,11.2c-0.5,1.9-1,3.9-1.8,5.9h-5.2c2.5-5,3.9-11.1,3.5-15.4c-0.1-1.2-0.8-1.7-1.3-1.8
				c-4.4-1.6-19.4,11.5-25.4,17.2h-3.8c8.6-9,16.1-16.8,23.7-19.9c2.1-0.9,4.3-1.6,6.7-2.5c9.5-3.3,19.3-6.7,23.7-17.5
				c2.2-5.4,5-15.6,7.9-26.5c4.2-15.7,9-33.4,13.7-42.7c3.1-6.2,7.8-14.3,12.4-22L-36.4,403.4L-36.4,403.4z M-105.7,522.3h-6.2
				c2.1-1.7,3.3-2.3,4.9-2.8c0.3-0.1,1.1-0.3,1.4,0.1C-105.3,519.8-105.2,520.7-105.7,522.3z M-104.5,518.6c-0.4-0.4-1.2-1-2.9-0.5
				c-2.3,0.7-3.9,1.8-6.8,4.2h-4.6c8.1-7.7,20.2-16.9,22.9-15.9c0.1,0,0.3,0.1,0.4,0.6c0.4,4.3-1.1,10.3-3.7,15.3h-5.1
				C-103.8,520.6-103.8,519.3-104.5,518.6z M-36.4,388.5c-5,8.3-10.3,17.3-13.7,24.1c-4.7,9.5-9.5,27.3-13.8,43
				c-2.9,10.8-5.7,21-7.8,26.3c-4.1,10.1-13.7,13.5-22.9,16.7c-2.3,0.8-4.6,1.6-6.7,2.5c-8.2,3.4-16,11.6-25,21.1l-0.1,0.1h-7.8
				c12.2-12.5,20.5-19.9,25.2-22.3c2.8-1.4,6.2-2.3,9.7-3.3c5.9-1.6,11.9-3.2,16.6-7.5c7.6-7,13.9-25.8,16.5-40.3
				c2.6-14.4,14.6-50.2,25.6-63.3c1.5-1.7,2.9-3.5,4.3-5.3L-36.4,388.5L-36.4,388.5z M-36.4,378c-1.7,2.2-3.5,4.5-5.3,6.7
				c-11.2,13.3-23.3,49.5-25.9,63.9c-2.6,14.3-8.7,32.8-16.1,39.5c-4.4,4.1-10.3,5.7-16,7.2c-3.6,1-7,1.9-10,3.4
				c-5.1,2.6-13.6,10.2-26.6,23.6h-9.4c11.7-11.1,25.5-24,30.8-26.1c3.4-1.4,8.1-2.7,12.7-3.9c6.1-1.7,11.9-3.3,14.4-5
				c4.4-3.1,14.2-22.1,15.7-31.8c1.4-9.1,4-22.4,8.8-34.5c4.6-11.6,13.9-32.8,18.9-40.1c1.6-2.3,4.3-5.8,8.1-10.4L-36.4,378
				L-36.4,378z M-36.4,368.1c-4.4,5.4-7.5,9.3-9.2,11.9c-5.1,7.4-14.3,28.7-19,40.4c-4.9,12.2-7.5,25.6-8.9,34.8
				c-1.5,9.9-11.3,28.2-15.1,30.9c-2.2,1.6-8.2,3.2-13.9,4.8c-4.6,1.3-9.4,2.6-12.9,4c-5.8,2.3-20.3,16.1-32.3,27.5h-11.3
				c7.6-9.7,15.6-17.5,22.7-22.1c13.2-8.4,19.7-11.3,32-16.5c13.4-5.7,18.3-16.1,23-28.2c3.2-8.3,5.7-18.2,8.1-27.7
				c1.4-5.4,2.7-10.6,4.1-15.3C-66.4,403-56,384.7-39,365h2.6V368.1z M-184.8,365h21.3c-1.3,0.2-2.6,0.4-3.8,0.4
				c-11.4,0.6-19.1,1.8-22,13.6c-1.1,4.3-2.5,8.6-4.4,12.9v-8.4l0.1,0c1.1-2.5,1.9-5.4,2.8-8.8C-189.7,370.3-187.7,367.2-184.8,365z
				 M-193.6,395.1L-193.6,395.1c2.6-5.1,4.5-10.4,5.8-15.7c2.4-10,8.1-11.9,20.7-12.5c3-0.2,6.4-0.8,10.1-1.8h19.4
				c-6.3,3.6-12.4,5.6-17.1,5.8c-10.4,0.3-22,1.6-27,13.8c-1.2,2.9-2.6,6.7-4.2,11.1c-2.3,6.1-4.8,12.9-7.6,19.7L-193.6,395.1
				L-193.6,395.1z M-193.6,419c3.3-7.7,6.4-16.1,8.9-22.8c1.6-4.4,3-8.2,4.2-11.1c4.7-11.4,15.3-12.6,25.7-12.9
				c5.4-0.1,12.7-2.8,19.9-7.2h11.8c-1.8,1.8-3.5,3.3-4.9,4.4c-6.4,5.1-20.5,7-30.8,8.4l-2.6,0.4c-10.9,1.5-14.9,11.4-20.1,24
				l-0.3,0.6c-1,2.4-2.1,5.1-3.2,8c-2.5,6.3-5.3,13.4-8.7,20.7C-193.6,431.5-193.6,419-193.6,419z M-193.6,452
				c5.5-9.6,8.1-17.4,10.9-25.7c0.7-2.2,1.5-4.4,2.3-6.7c5.3-14.9,14.9-31.3,24.4-34.2c3.3-1,7.3-1.5,11.4-2c8.1-1,16.6-2,22.5-7
				c4.3-3.6,9-7.8,12.9-11.5h5.3c-6.1,6.6-17.5,18.5-22.5,19.1c-7.4,0.8-24.7,2.8-37,16.8c-10.9,12.5-13.6,21.8-17.6,35.7
				c-0.4,1.4-0.8,2.7-1.2,4.2c-3.2,11.1-5.1,13.9-11.5,22.3L-193.6,452L-193.6,452z M-123,375.4c-5.6,4.7-13.9,5.7-21.8,6.7
				c-4.2,0.5-8.2,1-11.7,2.1c-10,3-19.9,19.8-25.3,35.1c-0.8,2.3-1.6,4.5-2.3,6.7c-2.5,7.6-5,14.7-9.5,23.2v-14.3
				c4-8.4,7.2-16.4,10-23.6c1.1-2.8,2.2-5.5,3.2-8l0.3-0.6c5.2-12.6,8.9-21.7,19-23.1l2.6-0.4c10.5-1.4,24.8-3.4,31.5-8.7
				c1.7-1.4,3.7-3.2,6-5.5h9.9C-114.9,368.4-119.2,372.2-123,375.4z M-193.6,465.4l0.3-0.4c7-9.2,9.1-12,12.6-23.8
				c0.4-1.4,0.8-2.8,1.2-4.2c3.9-13.8,6.6-22.9,17.3-35.2c11.9-13.6,28.8-15.5,36-16.3c5.2-0.6,15.5-11,24.3-20.5h7.1
				c-0.2,0.3-0.5,0.6-0.7,0.9c-6.1,7.6-12.3,15.4-19.4,20.1c-5.4,3.6-10.7,4.6-16.3,5.7c-5.6,1.1-11.5,2.2-17.4,6.2
				c-11.3,7.6-18.1,19.4-22.7,28.9c-1.8,3.7-3.2,8.8-4.7,14.1c-1.9,7.1-4,14.4-7.1,19.3c-3.1,4.9-5.3,7.8-9.1,12.7
				c-0.4,0.6-0.9,1.2-1.4,1.8L-193.6,465.4L-193.6,465.4z M-193.6,477c0.9-1.2,1.7-2.3,2.5-3.3c3.8-4.9,6-7.9,9.1-12.8
				c3.3-5.2,5.3-12.5,7.3-19.7c1.5-5.3,2.8-10.3,4.6-13.9c4.5-9.3,11.2-21,22.2-28.3c5.7-3.8,11.4-4.9,16.9-6
				c5.5-1.1,11.1-2.1,16.8-5.9c7.2-4.8,13.9-13.1,19.7-20.4c0.5-0.6,1-1.2,1.4-1.8h7.5c-1.8,2.7-3.9,5.8-5.8,8.8
				c-2.7,4.1-5.2,8-6.9,10.2c-3.3,4.3-4,7.9-5.2,14.3c-0.5,2.5-1,5.3-1.8,8.8c-2.8,12.1-13.8,25.7-23.5,33.7
				c-6.2,5.2-12.5,8-21.2,11.9c-4.6,2-9.7,4.3-15.9,7.4c-10.9,5.4-20.2,13.3-27.7,23.2L-193.6,477L-193.6,477z M-193.6,485.7
				c7.6-10.5,17.1-18.7,28.3-24.3c6.2-3.1,11.3-5.4,15.9-7.4c8.8-3.9,15.2-6.8,21.6-12.1c9.2-7.6,20.9-21.2,24-34.5
				c0.8-3.5,1.3-6.4,1.8-8.9c1.2-6.2,1.8-9.7,4.9-13.7c1.7-2.3,4.3-6.2,7-10.3c2.2-3.3,4.4-6.7,6.4-9.5h6.2
				c-7.9,7.4-15.6,16.1-17.5,26.2c-1.9,10.4-7.4,36-17,48.2c-5.3,6.8-21.9,14.1-36.4,20.5c-8.4,3.7-16.4,7.2-21.1,10.1
				c-8.6,5.4-17.5,17.4-24,27.3L-193.6,485.7L-193.6,485.7z M-193.6,500c6.4-10.2,15.8-23.2,24.7-28.8c4.6-2.9,12.5-6.4,20.9-10
				c14.7-6.5,31.4-13.8,37-20.9c9.4-12.1,14.9-35.8,17.3-48.8c1.9-10.1,10.1-19,18.2-26.4h4.9c-11.5,10.4-18.1,19.8-20,28.6
				c-4.2,19.9-8.9,39-19.2,52.5c-6.7,8.7-22.5,15.2-36.5,20.9c-8.3,3.4-15.4,6.3-19.8,9.3c-7.8,5.4-17.4,18.5-27.5,33L-193.6,500
				L-193.6,500z M-193.6,511.7c10.4-15,20.4-28.8,28.3-34.3c4.2-2.9,11.6-5.9,19.5-9.2c14.1-5.8,30.1-12.3,37.1-21.3
				c10.5-13.7,15.2-32.9,19.5-53c1.9-8.8,8.7-18.2,20.7-28.9h7.6c-12.9,13.5-26.4,33.7-28.6,48.1c-2.7,17.9-8.7,25.9-17.7,38.1
				c-0.9,1.2-1.8,2.4-2.7,3.6c-6.2,8.3-18.3,12.8-30.1,17.1c-8.2,3-16,5.9-22,9.9c-8.8,6-16.2,16.9-24.1,28.5
				c-2.4,3.6-5,7.2-7.5,10.8L-193.6,511.7L-193.6,511.7z M-184.9,511.2c7.8-11.5,15.2-22.3,23.7-28.1c5.9-4,13.5-6.8,21.7-9.8
				c12-4.4,24.3-8.9,30.8-17.6c0.9-1.2,1.8-2.4,2.7-3.6c9.2-12.3,15.3-20.5,18-38.7C-86,398.8-72,378.4-59,365h6.5
				c-7.9,8.6-15.7,18.3-19.6,24.1c-5.6,8.4-9,18.7-12.2,28.6c-1,3.2-2,6.2-3.1,9.1l-0.7,1.9c-4.3,11.9-8.7,24.3-23.7,35.4
				c-11.6,8.5-23.7,14-33.4,18.4c-3.6,1.6-7.1,3.2-9.9,4.7c-8.3,4.3-21.7,23.2-29.5,35.1h-8.1C-190,518.6-187.4,514.8-184.9,511.2z
				 M-154.5,488.4c2.8-1.5,6.3-3,9.9-4.6c9.8-4.4,21.9-9.9,33.6-18.5c15.4-11.3,20.1-24.5,24.2-36l0.7-1.9c1.1-3,2.1-6.1,3.1-9.1
				c3.2-9.8,6.6-20,12.1-28.2c4-6,12.2-16.1,20.3-24.9h3.9c-8.7,9.6-18.4,22.5-22.5,28.3c-6.6,9.2-7.9,14.6-11,27.5
				c-0.5,1.8-0.9,3.8-1.5,6c-4.9,19.7-12.1,33.8-21.4,42c-9.4,8.3-20.7,13.8-32.7,19.6l-3.3,1.6c-12,5.8-24,16.9-34.8,32.2h-8.9
				C-176.1,512-162.5,492.5-154.5,488.4z M-138.6,491.4l3.3-1.6c12.1-5.8,23.5-11.3,33-19.8c9.5-8.4,16.8-22.8,21.8-42.7
				c0.6-2.2,1-4.2,1.5-6c3.2-13.1,4.4-18,10.8-27c4.3-6,14.4-19.5,23.3-29.1h4c-14.7,17.2-26.3,35.5-29.7,47.1
				c-1.4,4.7-2.7,9.9-4.1,15.3c-2.4,9.5-4.9,19.3-8.1,27.5c-5.4,14-10.5,22.5-22.2,27.4c-12.4,5.3-19,8.2-32.2,16.6
				c-9.8,6.2-18.7,16.7-23.8,23.3h-11.4C-159.1,503.9-146.8,495.3-138.6,491.4z M-187.1,365c-2.4,2.3-4.1,5.3-5.1,9.2
				c-0.5,1.9-1,3.6-1.5,5.2V365L-187.1,365L-187.1,365z M-70.6,522.3c1.5-2.1,3.6-3.8,7-5.8c7.6-4.4,15.7-10.4,18.7-21.4
				c1.1-4.2,1.9-10.1,2.8-16.3c1.3-9.5,2.7-20.2,5.8-26.8v18.6c-2.4,9.6-4.3,19.7-4.6,24.8c-0.6,10.4-5,13.9-15.7,22.6l-1.8,1.5
				c-1.3,1.1-2.4,1.9-3.3,2.7L-70.6,522.3L-70.6,522.3z M-36.4,517.1c-1.4,1.2-3.1,2.8-4.9,5.2h-7.6c1.2-1.3,2.5-2.4,3.6-3.1
				c3-1.7,6.5-5.7,8.9-10V517.1z M-39.5,522.3c1.1-1.4,2.2-2.5,3.1-3.3v3.3H-39.5z M-36.4,505.9C-38.5,511-42.6,516-46,518
				c-1.5,0.9-3.2,2.4-4.8,4.3h-8.9c0.6-0.5,1.3-1,2-1.6l1.8-1.5c10.7-8.7,15.6-12.7,16.2-23.6c0.2-4,1.5-11.2,3.2-18.8L-36.4,505.9
				L-36.4,505.9z M-36.4,448.9c-0.3,0.6-0.7,1.3-1,1.9c-3.3,6.7-4.9,17.9-6.2,27.8c-0.8,6.2-1.6,12-2.7,16.1
				c-2.8,10.5-10.7,16.3-18,20.6c-3.3,1.9-6,4-7.9,7H-78c2-6,4.5-9,10.2-12.3c9.6-5.6,15.3-11.9,17.2-19.1c0.6-2.2,1.2-5.8,2.1-10.4
				c2.1-11.5,5.2-28.9,10.3-38.8c0.6-1.2,1.2-2.3,1.8-3.4L-36.4,448.9L-36.4,448.9z M-36.4,435.3c-1.1,1.9-2.1,3.8-3.1,5.7
				c-5.2,10.2-8.3,27.7-10.4,39.2c-0.8,4.6-1.5,8.1-2,10.3c-1.8,6.8-7.2,12.8-16.5,18.2c-6.2,3.6-8.8,6.8-11,13.5h-6.7
				c0.2-0.7,0.4-1.4,0.5-2c1.2-4.8,1.8-7.5,7-11.2c3.1-2.2,6.1-3.6,8.8-4.8c5.3-2.5,10-4.6,12.2-11.5c0.9-2.8,2-7.6,3.3-13.6
				c3.5-15.4,8.7-38.6,16.1-49.4c0.6-0.9,1.2-1.9,1.9-2.8V435.3z"/>
		</g>
	</g>
</g>
</svg>
