<?xml version="1.0" encoding="utf-8"?>
<!-- Generator: Adobe Illustrator 19.0.0, SVG Export Plug-In . SVG Version: 6.00 Build 0)  -->
<svg version="1.1" id="Capa_1" xmlns="http://www.w3.org/2000/svg" xmlns:xlink="http://www.w3.org/1999/xlink" x="0px" y="0px"
	 viewBox="-210 325.9 173.5 190" style="enable-background:new -210 325.9 173.5 190;" xml:space="preserve">
<g id="XMLID_100_">
	<path d="M-45.1,494.1h-156.3c-2,0-3.8-1-4.8-2.7s-1-3.8,0-5.5l78.1-135.4c1-1.7,2.8-2.8,4.8-2.8l0,0c2,0,3.8,1,4.8,2.7l78.2,135.4
		c1,1.7,1,3.8,0,5.5C-41.3,493-43.1,494.1-45.1,494.1z M-191.9,483.1h137.3l-68.7-118.9L-191.9,483.1z"/>
</g>
<g>
	<path d="M-152.7,437.6l1.2-0.5c-1.8-1.3-2.3-4.2-2.3-4.2s-3.5-3.5-4.2-3.2c-0.7,0.3,0.8,1.6,1.2,3.8
		C-156.5,435.7-152.7,437.6-152.7,437.6z"/>
	<path d="M-131.6,453.8c0,0,1.8,2.9,1.5,5.2c-0.3,2.3-1.7,2.2-1.7,2.2c-3.2,1.2-3,3.2-3,3.2c1.3-1,3.5-1.8,3.5-1.8
		c-2.3,1.4-1.5,3.3-1.5,3.3c0.7-1,3.2-2.3,3.2-2.3c-0.7,0.7-1.7,2.5-1.3,2.5c0.2,0,0.8-0.3,1.6-0.7c1.3-0.6,2.3-1.6,2.9-2.8
		c0.4-0.8,0.8-1.8,1.3-3c1-3,1.7-7.2,1.7-7.2C-126.9,454.7-131.6,453.8-131.6,453.8z"/>
	<path d="M-138.7,451.8c0,0,1.3,2.5,0.3,4.3c-1,1.8-1.7,1.3-2.7,1.9c-1,0.7-0.5,2.7-0.3,1.9c0.3-0.8,2.8-0.8,2.8-0.8l-0.4,1.8
		c0,0,0,0,1.3-0.4c1.3-0.4,1.9-2.5,1.9-2.5c1.3-1.3,2.2-4.4,2.2-4.4C-135.6,453.5-138.7,451.8-138.7,451.8z"/>
	<path d="M-106.9,444.8c-2.4,0.5-5.4,1-5.4,1c2,4.7,2.7,3.9,3.9,4.7c0.8,0.5-0.8,0.7-1.7,1.2c-3.1,1.8-1.7,2.9-1.7,2.9
		c0.3-0.4,1.9-1.5,1.9-1.5c-1.2,0.7-0.5,2.9-0.5,2.9l0.5-0.5l2.4-1.4c-0.5,0.7-0.2,1.8-0.2,1.8l1.5-0.4c2.5-1.7,1.4-3.9,2-5
		c0.7-1.2,0.7-5.9,0.7-5.9S-104.4,444.3-106.9,444.8z"/>
	<path d="M-118.3,448.7c0,0,0.7,2.4,0.7,3c0,0.7-1.5,0.8-2.4,2.2l0.3,0.8c0,0,1.7-1.2,2.5-1.3l0.3,1.4l1.7-1.4
		c0.7-0.6,1-1.4,0.9-2.3l0.8-4.8C-113.6,446.3-116.5,446.7-118.3,448.7z"/>
	<path d="M-83,442.5c-0.5-0.5-5.5-0.1-7.5-0.4c-3.2-0.5-5.7-3.4-5.7-3.4c0,4.9-4.2,4.8-4.2,4.8c4.5,2,11.6,1,13.7,0.7
		S-82.5,443-83,442.5z"/>
	<path d="M-145.4,442.7c-0.4-2.2-1-3.9-1.4-4.9c-0.1-1.1-0.5-3.8-1.1-5.2c-0.7-1.4-2.5-2.9-3.4-3.6c-0.3-0.2-0.5,0-0.6,0.3
		c-0.2,1-0.6,3-0.6,3.7c0.2,1.9,2.7,4.5,2.7,4.5l0.2,0.1c-1.8,0.8-3.9,2-4.3,2.3c-0.4,0.4-7,5.5-9.2,7.4c-0.4,0.3-0.4,0.9-0.1,1.3
		c0.7,0.7,1.6,1.5,2.3,1.6c1.2,0.2,7.6-1.3,10.7-1.2c3,0.2,5.2,1,7.3-0.7C-142.9,448.2-144.8,446.6-145.4,442.7z M-151.1,443.9
		c-0.7,0.1-1.3-0.2-1.3-0.7s0.4-0.9,1.1-1.1c0.3-0.1,0.6,0,0.8,0.1c0.3,0.1,0.5,0.3,0.5,0.6C-150.1,443.3-150.6,443.8-151.1,443.9z"
		/>
	<path d="M-97.6,439.3c1.3-5.8-2.5-12.7-9.3-17.3c0.9,1.5,1.9,3.7,2.6,6.5c1.8,7.4-0.8,12.7-0.8,12.7c0.4-2.9,0.5-6.6-0.8-12.7
		c-0.8-3.5-3.4-6.7-5.4-8.8c-1.4-0.5-2.9-0.9-4.3-1.1c8.7,11.6,4.4,22.7,4.4,22.7c1.6-11.7-4-19.8-6.8-22.9c-1.5-0.1-3.1,0-4.5,0.2
		c1.3,1.4,2.8,3.7,4.4,7c4.5,9.8,1.5,17.4,1.5,17.4c0.7-6.9-0.4-11.3-3-17.3c-1.6-3.6-3.8-5.8-5.3-7c-2.1,0.3-4,0.8-5.8,1
		c-0.5,0.1-1,0.2-1.5,0.3c2.3,1.2,5.3,3.6,7.7,8.7c4.4,9.4,1.8,18.8,1.8,18.8s0.8-8.6-2.8-17.1c-2.5-6-7.7-8.1-10.7-9
		c-3.3,1.5-5.5,3.3-5.5,3.3c-2.2,1-5.2,6.3-5.2,6.3s1.4,3.9,1.7,5.8c0.1,0.5,0.2,1,0.3,1.4c0.3,1.3,1,3.7,1.4,5.5
		c0.6,2.1,3.4,6,4.7,6.6s9.1,3.9,15.9,0c0.8-0.4,2.9-2.2,2.9-2.2C-111.6,440.1-99,445.7-97.6,439.3z"/>
</g>
</svg>
