<?xml version="1.0" encoding="utf-8"?>
<!-- Generator: Adobe Illustrator 19.0.0, SVG Export Plug-In . SVG Version: 6.00 Build 0)  -->
<svg version="1.1" id="Capa_1" xmlns="http://www.w3.org/2000/svg" xmlns:xlink="http://www.w3.org/1999/xlink" x="0px" y="0px"
	 viewBox="-210 325.9 173.5 190" style="enable-background:new -210 325.9 173.5 190;" xml:space="preserve">
<style type="text/css">
	.st0{fill:#FFBC00;}
	.st1{fill:#211915;}
	.st2{fill:#FFFFFF;}
</style>
<g id="XMLID_278_">
	<g>
		<polygon id="XMLID_1_" class="st0" points="-201.4,488.5 -123.2,353.2 -45.1,488.5 		"/>
		<path class="st1" d="M-45.1,494h-156.3c-2,0-3.8-1-4.8-2.8s-1-3.8,0-5.5l78.1-135.3c1-1.7,2.8-2.8,4.8-2.8s3.8,1,4.8,2.8
			l78.1,135.3c1,1.7,1,3.8,0,5.5C-41.3,493-43.2,494-45.1,494z M-191.8,483h137.2l-68.6-118.8L-191.8,483z"/>
	</g>
</g>
<g>
	<path d="M-119.2,424.6c4.4,4.9,7.1,11.4,7.1,18.5c0,15.4-12.5,27.9-27.9,27.9c-15.4,0-27.9-12.5-27.9-27.9
		c0-15.4,12.5-27.9,27.9-27.9c2.1,0,4.2,0.2,6.2,0.7c1.5-1.5,3.1-2.9,4.9-4.2c-3.5-1.2-7.2-1.9-11.1-1.9
		c-18.3,0-33.2,14.9-33.2,33.2c0,18.3,14.9,33.2,33.2,33.2c18.3,0,33.2-14.9,33.2-33.2c0-8-2.9-15.3-7.6-21.1
		C-116.1,422.7-117.7,423.6-119.2,424.6z"/>
	<path d="M-106.5,409.9c-18.3,0-33.2,14.9-33.2,33.2c0,8,2.9,15.3,7.6,21.1c1.7-0.6,3.4-1.5,4.9-2.5c-4.4-4.9-7.1-11.4-7.1-18.5
		c0-15.4,12.5-27.9,27.9-27.9c15.4,0,27.9,12.5,27.9,27.9c0,15.4-12.5,27.9-27.9,27.9c-2.1,0-4.2-0.2-6.2-0.7
		c-1.5,1.5-3.1,2.9-4.9,4.2c3.5,1.2,7.2,1.9,11.1,1.9c18.3,0,33.2-14.9,33.2-33.2C-73.2,424.8-88.2,409.9-106.5,409.9z"/>
</g>
<g>
	<g>
		<polygon class="st2" points="-119.2,454.2 -120.6,450.5 -126,450.5 -127.4,454.2 -139.1,454.2 -128.1,428.9 -118.4,428.9 
			-107.4,454.2 		"/>
		<path d="M-119.7,430.9l9.3,21.2h-7.4l-1.4-3.7h-8.1l-1.4,3.7h-7.3l9.3-21.2H-119.7 M-125.4,443.3h4.1l-2.1-5.3L-125.4,443.3
			 M-117.1,426.9h-2.6h-7h-2.6l-1,2.4l-9.3,21.2l-2.4,5.6h6.1h7.3h2.7l1-2.6l0.4-1.1h2.6l0.4,1.1l1,2.6h2.7h7.4h6.1l-2.4-5.6
			l-9.3-21.2L-117.1,426.9L-117.1,426.9z"/>
	</g>
</g>
</svg>
