<?xml version="1.0" encoding="utf-8"?>
<!-- Generator: Adobe Illustrator 19.0.0, SVG Export Plug-In . SVG Version: 6.00 Build 0)  -->
<svg version="1.1" id="Capa_1" xmlns="http://www.w3.org/2000/svg" xmlns:xlink="http://www.w3.org/1999/xlink" x="0px" y="0px"
	 viewBox="-210 325.9 173.5 190" style="enable-background:new -210 325.9 173.5 190;" xml:space="preserve">
<style type="text/css">
	.st0{fill:#00BB00;}
	.st1{fill:#FF0000;}
	.st2{fill:#FFFFFF;}
</style>
<g>
	<g>
		<polygon class="st0" points="-123.4,364.3 -161.9,431 -85,431 -161.9,431 -161.9,431 -84.8,431 		"/>
		<polygon class="st1" points="-54.7,483.1 -84.8,431 -161.9,431 -191.9,483.1 		"/>
	</g>
	<path d="M-40.3,485.7l-78.2-135.3c-1-1.7-2.8-2.7-4.8-2.7c-2,0.1-3.8,1.1-4.8,2.8l-78.1,135.3c-1,1.7-1,3.8,0,5.5
		c1,1.8,2.8,2.8,4.8,2.8h156.3c2,0,3.8-1.2,4.8-2.9S-39.3,487.4-40.3,485.7z M-201.4,488.6l78.1-135.3l78.2,135.3H-201.4z"/>
	<path d="M-201.4,488.6h156.3l-78.2-135.3L-201.4,488.6z M-191.9,483.1l30-52.1h0h0l38.5-66.7l68.7,118.8H-191.9z"/>
</g>
<g>
	<g id="XMLID_138_">
		<g id="XMLID_139_">
			<path id="XMLID_140_" d="M-107.9,401.2l-14.7-6.3c-0.4-0.2-0.9-0.2-1.3,0l-14.7,6.3c-0.6,0.3-1,0.9-1,1.6v18.5
				c0,0.7,0.4,1.3,1,1.6l14.7,6.3c0.2,0.1,0.5,0.1,0.7,0.1c0.2,0,0.5-0.1,0.7-0.1l14.7-6.3c0.6-0.3,1-0.9,1-1.6v-18.5
				C-107,402-107.3,401.4-107.9,401.2L-107.9,401.2z M-120.1,409.5l9.8-4.2v12.4L-120.1,409.5z M-123.3,398.2l10.4,4.5l-10.4,4.5
				l-10.4-4.5L-123.3,398.2z M-121.6,412.6l9.8,8.1l-9.8,4.2V412.6z"/>
		</g>
	</g>
	<g>
		<path class="st2" d="M-117.3,415.7v3.5h-11.6v-13.9h11.3v3.5h-6.7v1.6h5.9v3.4h-5.9v1.8L-117.3,415.7L-117.3,415.7z"/>
	</g>
</g>
<g id="XMLID_176_">
	<g id="XMLID_188_">
		<g id="XMLID_195_">
			<path d="M-104.9,446.6c0.3,0.4,0.1,1-0.3,1.3l-3.3,1.9c-0.1,0.1-0.3,0.1-0.5,0.1c-0.3,0-0.6-0.2-0.8-0.5c-0.3-0.4-0.1-1,0.3-1.3
				l3.3-1.9C-105.7,446-105.2,446.1-104.9,446.6z"/>
			<path d="M-105.2,453.8c0.4,0.3,0.6,0.8,0.3,1.3c-0.2,0.3-0.5,0.5-0.8,0.5c-0.2,0-0.3-0.1-0.5-0.1l-3.3-1.9
				c-0.4-0.3-0.6-0.8-0.3-1.3c0.3-0.4,0.8-0.6,1.3-0.3L-105.2,453.8z"/>
		</g>
		<g id="XMLID_196_">
		</g>
	</g>
	<g id="XMLID_177_">
		<g id="XMLID_182_">
			<path d="M-108.5,457.6v14.8c0,1.8-1.5,3.3-3.3,3.3h-21c-1.8,0-3.3-1.5-3.3-3.3v-14.8c0-1.8,1.5-3.3,3.3-3.3h0.4v-6.3
				c0-5.6,4.5-10.2,10-10.2c0.1,0,0.1,0,0.1,0c2.7,0,5.2,1,7.1,2.9c2,1.9,3,4.5,3,7.2v0.6c0,1.8-1.5,3.3-3.3,3.3
				c-1.9,0-3.3-1.5-3.3-3.3v-0.5c0-1.9-1.5-3.5-3.4-3.5c-0.9,0-1.8,0.3-2.5,1c-0.7,0.6-1,1.5-1,2.5v6.4h14
				C-110,454.3-108.5,455.9-108.5,457.6z M-115.7,470.5l-4.7-6.3l4.5-4.9h-4.1l-3.7,4.1v-4.1h-3.7v11.2h3.7v-2.8l0.8-0.9l2.8,3.7
				H-115.7z"/>
			<polygon class="st2" points="-120.4,464.3 -115.7,470.5 -120.1,470.5 -122.9,466.8 -123.7,467.7 -123.7,470.5 -127.5,470.5 
				-127.5,459.3 -123.7,459.3 -123.7,463.4 -120,459.3 -115.9,459.3 			"/>
		</g>
		<g id="XMLID_183_">
		</g>
	</g>
</g>
</svg>
