<?xml version="1.0" encoding="utf-8"?>
<!-- Generator: Adobe Illustrator 19.0.0, SVG Export Plug-In . SVG Version: 6.00 Build 0)  -->
<svg version="1.1" id="Capa_1" xmlns="http://www.w3.org/2000/svg" xmlns:xlink="http://www.w3.org/1999/xlink" x="0px" y="0px"
	 viewBox="-210 325.9 173.5 190" style="enable-background:new -210 325.9 173.5 190;" xml:space="preserve">
<style type="text/css">
	.st0{fill:#00BA09;}
	.st1{fill:#FFFFFF;}
</style>
<g id="XMLID_134_">
	<g id="XMLID_147_">
		<g>
			<polygon id="XMLID_1_" class="st0" points="-201.4,488.6 -123.3,353.3 -45.1,488.6 			"/>
			<path d="M-45.1,494.1h-156.3c-2,0-3.8-1-4.8-2.8c-1-1.7-1-3.8,0-5.5l78.1-135.3c1-1.7,2.8-2.7,4.8-2.8l0,0c2,0,3.8,1,4.8,2.7
				l78.2,135.3c1,1.7,1,3.8,0,5.5S-43.1,494.1-45.1,494.1z M-191.9,483.1h137.2l-68.7-118.8L-191.9,483.1z"/>
		</g>
	</g>
	<g id="XMLID_138_">
		<g id="XMLID_139_">
			<path id="XMLID_140_" d="M-99.8,424.7l-22.4-9.6c-0.6-0.3-1.4-0.3-2,0l-22.4,9.6c-0.9,0.4-1.6,1.3-1.6,2.4v28.2
				c0,1,0.6,2,1.6,2.4l22.4,9.6c0.3,0.1,0.7,0.2,1,0.2s0.7-0.1,1-0.2l22.4-9.6c0.9-0.4,1.6-1.3,1.6-2.4v-28.2
				C-98.3,426-98.9,425.1-99.8,424.7L-99.8,424.7z M-118.4,437.4l15-6.4v18.9L-118.4,437.4z M-123.3,420.2l15.9,6.8l-15.9,6.8
				l-15.9-6.8L-123.3,420.2z M-120.7,442.1l15,12.4l-15,6.4V442.1z"/>
		</g>
	</g>
	<g>
		<path class="st1" d="M-114.1,446.8v5.4h-17.7V431h17.3v5.4h-10.2v2.5h9v5.2h-9v2.8L-114.1,446.8L-114.1,446.8z"/>
	</g>
</g>
</svg>
