<?xml version="1.0" encoding="utf-8"?>
<!-- Generator: Adobe Illustrator 19.0.0, SVG Export Plug-In . SVG Version: 6.00 Build 0)  -->
<svg version="1.1" id="Capa_1" xmlns="http://www.w3.org/2000/svg" xmlns:xlink="http://www.w3.org/1999/xlink" x="0px" y="0px"
	 viewBox="-210 325.9 173.5 190" style="enable-background:new -210 325.9 173.5 190;" xml:space="preserve">
<style type="text/css">
	.st0{fill:#FFF200;}
	.st1{fill:#211915;}
	.st2{enable-background:new    ;}
	.st3{fill:#FFFFFF;}
</style>
<g id="XMLID_149_">
	<g id="XMLID_172_">
		<g>
			<polygon id="XMLID_1_" class="st0" points="-201.4,488.5 -123.3,353.2 -45.1,488.5 			"/>
			<path class="st1" d="M-45.1,494h-156.3c-2,0-3.8-1-4.8-2.8c-1-1.7-1-3.8,0-5.5l78.1-135.3c1-1.7,2.8-2.8,4.8-2.8c0,0,0,0,0,0
				c2,0,3.8,1,4.8,2.7l78.2,135.3c1,1.7,1,3.8,0,5.5S-43.1,494-45.1,494z M-191.9,483h137.2l-68.7-118.8L-191.9,483z"/>
		</g>
	</g>
	<path id="XMLID_151_" d="M-98.3,421.8c0-1.2-0.9-2.1-2.1-2.1c-8.9,0-15.7-2.6-21.3-8c-0.9-0.8-2.1-0.8-3,0c-5.6,5.5-12.4,8-21.3,8
		c-1.2,0-2.1,0.9-2.1,2.1c0,1.5,0,3-0.1,4.6c-0.3,14.9-0.7,35.4,24.3,44l0.7,0.1l0.7-0.1c24.9-8.6,24.6-29,24.3-44
		C-98.3,424.8-98.3,423.3-98.3,421.8z"/>
	<g class="st2">
		<path class="st3" d="M-128.7,452c-1.7-0.4-3-0.9-4.1-1.6l2.3-5.2c1,0.6,2.1,1.1,3.4,1.4c1.3,0.4,2.5,0.5,3.6,0.5
			c1,0,1.7-0.1,2.1-0.3c0.4-0.2,0.6-0.5,0.6-0.9s-0.3-0.8-0.8-1c-0.6-0.2-1.5-0.5-2.7-0.7c-1.6-0.3-3-0.7-4.1-1.1
			c-1.1-0.4-2-1-2.9-1.9c-0.8-0.9-1.2-2.1-1.2-3.7c0-1.3,0.4-2.5,1.1-3.6s1.9-2,3.4-2.6s3.3-0.9,5.4-0.9c1.5,0,2.9,0.2,4.3,0.5
			s2.6,0.8,3.7,1.4l-2.2,5.2c-2.1-1.1-4.1-1.6-5.9-1.6s-2.8,0.4-2.8,1.3c0,0.4,0.3,0.7,0.8,1s1.4,0.4,2.7,0.7c1.6,0.3,3,0.7,4.1,1
			c1.1,0.4,2.1,1,2.9,1.9s1.2,2.1,1.2,3.6c0,1.3-0.4,2.5-1.1,3.6s-1.9,1.9-3.4,2.6c-1.5,0.6-3.3,1-5.4,1
			C-125.3,452.6-127,452.4-128.7,452z"/>
	</g>
</g>
</svg>
